<?xml version="1.0" encoding="utf-8" standalone="no"?>
<!DOCTYPE svg PUBLIC "-//W3C//DTD SVG 1.1//EN"
  "http://www.w3.org/Graphics/SVG/1.1/DTD/svg11.dtd">
<svg xmlns:xlink="http://www.w3.org/1999/xlink" width="648pt" height="396pt" viewBox="0 0 648 396" xmlns="http://www.w3.org/2000/svg" version="1.1">
 <metadata>
  <rdf:RDF xmlns:dc="http://purl.org/dc/elements/1.1/" xmlns:cc="http://creativecommons.org/ns#" xmlns:rdf="http://www.w3.org/1999/02/22-rdf-syntax-ns#">
   <cc:Work>
    <dc:type rdf:resource="http://purl.org/dc/dcmitype/StillImage"/>
    <dc:date>2026-05-12T12:08:08.195005</dc:date>
    <dc:format>image/svg+xml</dc:format>
    <dc:creator>
     <cc:Agent>
      <dc:title>Matplotlib v3.10.8, https://matplotlib.org/</dc:title>
     </cc:Agent>
    </dc:creator>
   </cc:Work>
  </rdf:RDF>
 </metadata>
 <defs>
  <style type="text/css">*{stroke-linejoin: round; stroke-linecap: butt}</style>
 </defs>
 <g id="figure_1">
  <g id="patch_1">
   <path d="M 0 396 
L 648 396 
L 648 0 
L 0 0 
z
" style="fill: #ffffff"/>
  </g>
  <g id="axes_1">
   <g id="patch_2">
    <path d="M 57.17 353.93875 
L 628.967163 353.93875 
L 628.967163 42.04725 
L 57.17 42.04725 
z
" style="fill: #ffffff"/>
   </g>
   <g id="matplotlib.axis_1">
    <g id="xtick_1">
     <g id="line2d_1">
      <defs>
       <path id="m87809e25b7" d="M 0 0 
L 0 3.5 
" style="stroke: #000000; stroke-width: 0.8"/>
      </defs>
      <g>
       <use xlink:href="#m87809e25b7" x="110.699024" y="353.93875" style="stroke: #000000; stroke-width: 0.8"/>
      </g>
     </g>
     <g id="text_1">
      <!-- 2000 -->
      <g transform="translate(97.974024 368.537187) scale(0.1 -0.1)">
       <defs>
        <path id="DejaVuSans-32" d="M 1228 531 
L 3431 531 
L 3431 0 
L 469 0 
L 469 531 
Q 828 903 1448 1529 
Q 2069 2156 2228 2338 
Q 2531 2678 2651 2914 
Q 2772 3150 2772 3378 
Q 2772 3750 2511 3984 
Q 2250 4219 1831 4219 
Q 1534 4219 1204 4116 
Q 875 4013 500 3803 
L 500 4441 
Q 881 4594 1212 4672 
Q 1544 4750 1819 4750 
Q 2544 4750 2975 4387 
Q 3406 4025 3406 3419 
Q 3406 3131 3298 2873 
Q 3191 2616 2906 2266 
Q 2828 2175 2409 1742 
Q 1991 1309 1228 531 
z
" transform="scale(0.015625)"/>
        <path id="DejaVuSans-30" d="M 2034 4250 
Q 1547 4250 1301 3770 
Q 1056 3291 1056 2328 
Q 1056 1369 1301 889 
Q 1547 409 2034 409 
Q 2525 409 2770 889 
Q 3016 1369 3016 2328 
Q 3016 3291 2770 3770 
Q 2525 4250 2034 4250 
z
M 2034 4750 
Q 2819 4750 3233 4129 
Q 3647 3509 3647 2328 
Q 3647 1150 3233 529 
Q 2819 -91 2034 -91 
Q 1250 -91 836 529 
Q 422 1150 422 2328 
Q 422 3509 836 4129 
Q 1250 4750 2034 4750 
z
" transform="scale(0.015625)"/>
       </defs>
       <use xlink:href="#DejaVuSans-32"/>
       <use xlink:href="#DejaVuSans-30" transform="translate(63.623047 0)"/>
       <use xlink:href="#DejaVuSans-30" transform="translate(127.246094 0)"/>
       <use xlink:href="#DejaVuSans-30" transform="translate(190.869141 0)"/>
      </g>
     </g>
    </g>
    <g id="xtick_2">
     <g id="line2d_2">
      <g>
       <use xlink:href="#m87809e25b7" x="184.026989" y="353.93875" style="stroke: #000000; stroke-width: 0.8"/>
      </g>
     </g>
     <g id="text_2">
      <!-- 2500 -->
      <g transform="translate(171.301989 368.537187) scale(0.1 -0.1)">
       <defs>
        <path id="DejaVuSans-35" d="M 691 4666 
L 3169 4666 
L 3169 4134 
L 1269 4134 
L 1269 2991 
Q 1406 3038 1543 3061 
Q 1681 3084 1819 3084 
Q 2600 3084 3056 2656 
Q 3513 2228 3513 1497 
Q 3513 744 3044 326 
Q 2575 -91 1722 -91 
Q 1428 -91 1123 -41 
Q 819 9 494 109 
L 494 744 
Q 775 591 1075 516 
Q 1375 441 1709 441 
Q 2250 441 2565 725 
Q 2881 1009 2881 1497 
Q 2881 1984 2565 2268 
Q 2250 2553 1709 2553 
Q 1456 2553 1204 2497 
Q 953 2441 691 2322 
L 691 4666 
z
" transform="scale(0.015625)"/>
       </defs>
       <use xlink:href="#DejaVuSans-32"/>
       <use xlink:href="#DejaVuSans-35" transform="translate(63.623047 0)"/>
       <use xlink:href="#DejaVuSans-30" transform="translate(127.246094 0)"/>
       <use xlink:href="#DejaVuSans-30" transform="translate(190.869141 0)"/>
      </g>
     </g>
    </g>
    <g id="xtick_3">
     <g id="line2d_3">
      <g>
       <use xlink:href="#m87809e25b7" x="257.354954" y="353.93875" style="stroke: #000000; stroke-width: 0.8"/>
      </g>
     </g>
     <g id="text_3">
      <!-- 3000 -->
      <g transform="translate(244.629954 368.537187) scale(0.1 -0.1)">
       <defs>
        <path id="DejaVuSans-33" d="M 2597 2516 
Q 3050 2419 3304 2112 
Q 3559 1806 3559 1356 
Q 3559 666 3084 287 
Q 2609 -91 1734 -91 
Q 1441 -91 1130 -33 
Q 819 25 488 141 
L 488 750 
Q 750 597 1062 519 
Q 1375 441 1716 441 
Q 2309 441 2620 675 
Q 2931 909 2931 1356 
Q 2931 1769 2642 2001 
Q 2353 2234 1838 2234 
L 1294 2234 
L 1294 2753 
L 1863 2753 
Q 2328 2753 2575 2939 
Q 2822 3125 2822 3475 
Q 2822 3834 2567 4026 
Q 2313 4219 1838 4219 
Q 1578 4219 1281 4162 
Q 984 4106 628 3988 
L 628 4550 
Q 988 4650 1302 4700 
Q 1616 4750 1894 4750 
Q 2613 4750 3031 4423 
Q 3450 4097 3450 3541 
Q 3450 3153 3228 2886 
Q 3006 2619 2597 2516 
z
" transform="scale(0.015625)"/>
       </defs>
       <use xlink:href="#DejaVuSans-33"/>
       <use xlink:href="#DejaVuSans-30" transform="translate(63.623047 0)"/>
       <use xlink:href="#DejaVuSans-30" transform="translate(127.246094 0)"/>
       <use xlink:href="#DejaVuSans-30" transform="translate(190.869141 0)"/>
      </g>
     </g>
    </g>
    <g id="xtick_4">
     <g id="line2d_4">
      <g>
       <use xlink:href="#m87809e25b7" x="330.682919" y="353.93875" style="stroke: #000000; stroke-width: 0.8"/>
      </g>
     </g>
     <g id="text_4">
      <!-- 3500 -->
      <g transform="translate(317.957919 368.537187) scale(0.1 -0.1)">
       <use xlink:href="#DejaVuSans-33"/>
       <use xlink:href="#DejaVuSans-35" transform="translate(63.623047 0)"/>
       <use xlink:href="#DejaVuSans-30" transform="translate(127.246094 0)"/>
       <use xlink:href="#DejaVuSans-30" transform="translate(190.869141 0)"/>
      </g>
     </g>
    </g>
    <g id="xtick_5">
     <g id="line2d_5">
      <g>
       <use xlink:href="#m87809e25b7" x="404.010884" y="353.93875" style="stroke: #000000; stroke-width: 0.8"/>
      </g>
     </g>
     <g id="text_5">
      <!-- 4000 -->
      <g transform="translate(391.285884 368.537187) scale(0.1 -0.1)">
       <defs>
        <path id="DejaVuSans-34" d="M 2419 4116 
L 825 1625 
L 2419 1625 
L 2419 4116 
z
M 2253 4666 
L 3047 4666 
L 3047 1625 
L 3713 1625 
L 3713 1100 
L 3047 1100 
L 3047 0 
L 2419 0 
L 2419 1100 
L 313 1100 
L 313 1709 
L 2253 4666 
z
" transform="scale(0.015625)"/>
       </defs>
       <use xlink:href="#DejaVuSans-34"/>
       <use xlink:href="#DejaVuSans-30" transform="translate(63.623047 0)"/>
       <use xlink:href="#DejaVuSans-30" transform="translate(127.246094 0)"/>
       <use xlink:href="#DejaVuSans-30" transform="translate(190.869141 0)"/>
      </g>
     </g>
    </g>
    <g id="xtick_6">
     <g id="line2d_6">
      <g>
       <use xlink:href="#m87809e25b7" x="477.338849" y="353.93875" style="stroke: #000000; stroke-width: 0.8"/>
      </g>
     </g>
     <g id="text_6">
      <!-- 4500 -->
      <g transform="translate(464.613849 368.537187) scale(0.1 -0.1)">
       <use xlink:href="#DejaVuSans-34"/>
       <use xlink:href="#DejaVuSans-35" transform="translate(63.623047 0)"/>
       <use xlink:href="#DejaVuSans-30" transform="translate(127.246094 0)"/>
       <use xlink:href="#DejaVuSans-30" transform="translate(190.869141 0)"/>
      </g>
     </g>
    </g>
    <g id="xtick_7">
     <g id="line2d_7">
      <g>
       <use xlink:href="#m87809e25b7" x="550.666814" y="353.93875" style="stroke: #000000; stroke-width: 0.8"/>
      </g>
     </g>
     <g id="text_7">
      <!-- 5000 -->
      <g transform="translate(537.941814 368.537187) scale(0.1 -0.1)">
       <use xlink:href="#DejaVuSans-35"/>
       <use xlink:href="#DejaVuSans-30" transform="translate(63.623047 0)"/>
       <use xlink:href="#DejaVuSans-30" transform="translate(127.246094 0)"/>
       <use xlink:href="#DejaVuSans-30" transform="translate(190.869141 0)"/>
      </g>
     </g>
    </g>
    <g id="xtick_8">
     <g id="line2d_8">
      <g>
       <use xlink:href="#m87809e25b7" x="623.994779" y="353.93875" style="stroke: #000000; stroke-width: 0.8"/>
      </g>
     </g>
     <g id="text_8">
      <!-- 5500 -->
      <g transform="translate(611.269779 368.537187) scale(0.1 -0.1)">
       <use xlink:href="#DejaVuSans-35"/>
       <use xlink:href="#DejaVuSans-35" transform="translate(63.623047 0)"/>
       <use xlink:href="#DejaVuSans-30" transform="translate(127.246094 0)"/>
       <use xlink:href="#DejaVuSans-30" transform="translate(190.869141 0)"/>
      </g>
     </g>
    </g>
    <g id="text_9">
     <!-- population_mad -->
     <g transform="translate(302.852957 382.215312) scale(0.1 -0.1)">
      <defs>
       <path id="DejaVuSans-70" d="M 1159 525 
L 1159 -1331 
L 581 -1331 
L 581 3500 
L 1159 3500 
L 1159 2969 
Q 1341 3281 1617 3432 
Q 1894 3584 2278 3584 
Q 2916 3584 3314 3078 
Q 3713 2572 3713 1747 
Q 3713 922 3314 415 
Q 2916 -91 2278 -91 
Q 1894 -91 1617 61 
Q 1341 213 1159 525 
z
M 3116 1747 
Q 3116 2381 2855 2742 
Q 2594 3103 2138 3103 
Q 1681 3103 1420 2742 
Q 1159 2381 1159 1747 
Q 1159 1113 1420 752 
Q 1681 391 2138 391 
Q 2594 391 2855 752 
Q 3116 1113 3116 1747 
z
" transform="scale(0.015625)"/>
       <path id="DejaVuSans-6f" d="M 1959 3097 
Q 1497 3097 1228 2736 
Q 959 2375 959 1747 
Q 959 1119 1226 758 
Q 1494 397 1959 397 
Q 2419 397 2687 759 
Q 2956 1122 2956 1747 
Q 2956 2369 2687 2733 
Q 2419 3097 1959 3097 
z
M 1959 3584 
Q 2709 3584 3137 3096 
Q 3566 2609 3566 1747 
Q 3566 888 3137 398 
Q 2709 -91 1959 -91 
Q 1206 -91 779 398 
Q 353 888 353 1747 
Q 353 2609 779 3096 
Q 1206 3584 1959 3584 
z
" transform="scale(0.015625)"/>
       <path id="DejaVuSans-75" d="M 544 1381 
L 544 3500 
L 1119 3500 
L 1119 1403 
Q 1119 906 1312 657 
Q 1506 409 1894 409 
Q 2359 409 2629 706 
Q 2900 1003 2900 1516 
L 2900 3500 
L 3475 3500 
L 3475 0 
L 2900 0 
L 2900 538 
Q 2691 219 2414 64 
Q 2138 -91 1772 -91 
Q 1169 -91 856 284 
Q 544 659 544 1381 
z
M 1991 3584 
L 1991 3584 
z
" transform="scale(0.015625)"/>
       <path id="DejaVuSans-6c" d="M 603 4863 
L 1178 4863 
L 1178 0 
L 603 0 
L 603 4863 
z
" transform="scale(0.015625)"/>
       <path id="DejaVuSans-61" d="M 2194 1759 
Q 1497 1759 1228 1600 
Q 959 1441 959 1056 
Q 959 750 1161 570 
Q 1363 391 1709 391 
Q 2188 391 2477 730 
Q 2766 1069 2766 1631 
L 2766 1759 
L 2194 1759 
z
M 3341 1997 
L 3341 0 
L 2766 0 
L 2766 531 
Q 2569 213 2275 61 
Q 1981 -91 1556 -91 
Q 1019 -91 701 211 
Q 384 513 384 1019 
Q 384 1609 779 1909 
Q 1175 2209 1959 2209 
L 2766 2209 
L 2766 2266 
Q 2766 2663 2505 2880 
Q 2244 3097 1772 3097 
Q 1472 3097 1187 3025 
Q 903 2953 641 2809 
L 641 3341 
Q 956 3463 1253 3523 
Q 1550 3584 1831 3584 
Q 2591 3584 2966 3190 
Q 3341 2797 3341 1997 
z
" transform="scale(0.015625)"/>
       <path id="DejaVuSans-74" d="M 1172 4494 
L 1172 3500 
L 2356 3500 
L 2356 3053 
L 1172 3053 
L 1172 1153 
Q 1172 725 1289 603 
Q 1406 481 1766 481 
L 2356 481 
L 2356 0 
L 1766 0 
Q 1100 0 847 248 
Q 594 497 594 1153 
L 594 3053 
L 172 3053 
L 172 3500 
L 594 3500 
L 594 4494 
L 1172 4494 
z
" transform="scale(0.015625)"/>
       <path id="DejaVuSans-69" d="M 603 3500 
L 1178 3500 
L 1178 0 
L 603 0 
L 603 3500 
z
M 603 4863 
L 1178 4863 
L 1178 4134 
L 603 4134 
L 603 4863 
z
" transform="scale(0.015625)"/>
       <path id="DejaVuSans-6e" d="M 3513 2113 
L 3513 0 
L 2938 0 
L 2938 2094 
Q 2938 2591 2744 2837 
Q 2550 3084 2163 3084 
Q 1697 3084 1428 2787 
Q 1159 2491 1159 1978 
L 1159 0 
L 581 0 
L 581 3500 
L 1159 3500 
L 1159 2956 
Q 1366 3272 1645 3428 
Q 1925 3584 2291 3584 
Q 2894 3584 3203 3211 
Q 3513 2838 3513 2113 
z
" transform="scale(0.015625)"/>
       <path id="DejaVuSans-5f" d="M 3263 -1063 
L 3263 -1509 
L -63 -1509 
L -63 -1063 
L 3263 -1063 
z
" transform="scale(0.015625)"/>
       <path id="DejaVuSans-6d" d="M 3328 2828 
Q 3544 3216 3844 3400 
Q 4144 3584 4550 3584 
Q 5097 3584 5394 3201 
Q 5691 2819 5691 2113 
L 5691 0 
L 5113 0 
L 5113 2094 
Q 5113 2597 4934 2840 
Q 4756 3084 4391 3084 
Q 3944 3084 3684 2787 
Q 3425 2491 3425 1978 
L 3425 0 
L 2847 0 
L 2847 2094 
Q 2847 2600 2669 2842 
Q 2491 3084 2119 3084 
Q 1678 3084 1418 2786 
Q 1159 2488 1159 1978 
L 1159 0 
L 581 0 
L 581 3500 
L 1159 3500 
L 1159 2956 
Q 1356 3278 1631 3431 
Q 1906 3584 2284 3584 
Q 2666 3584 2933 3390 
Q 3200 3197 3328 2828 
z
" transform="scale(0.015625)"/>
       <path id="DejaVuSans-64" d="M 2906 2969 
L 2906 4863 
L 3481 4863 
L 3481 0 
L 2906 0 
L 2906 525 
Q 2725 213 2448 61 
Q 2172 -91 1784 -91 
Q 1150 -91 751 415 
Q 353 922 353 1747 
Q 353 2572 751 3078 
Q 1150 3584 1784 3584 
Q 2172 3584 2448 3432 
Q 2725 3281 2906 2969 
z
M 947 1747 
Q 947 1113 1208 752 
Q 1469 391 1925 391 
Q 2381 391 2643 752 
Q 2906 1113 2906 1747 
Q 2906 2381 2643 2742 
Q 2381 3103 1925 3103 
Q 1469 3103 1208 2742 
Q 947 2381 947 1747 
z
" transform="scale(0.015625)"/>
      </defs>
      <use xlink:href="#DejaVuSans-70"/>
      <use xlink:href="#DejaVuSans-6f" transform="translate(63.476562 0)"/>
      <use xlink:href="#DejaVuSans-70" transform="translate(124.658203 0)"/>
      <use xlink:href="#DejaVuSans-75" transform="translate(188.134766 0)"/>
      <use xlink:href="#DejaVuSans-6c" transform="translate(251.513672 0)"/>
      <use xlink:href="#DejaVuSans-61" transform="translate(279.296875 0)"/>
      <use xlink:href="#DejaVuSans-74" transform="translate(340.576172 0)"/>
      <use xlink:href="#DejaVuSans-69" transform="translate(379.785156 0)"/>
      <use xlink:href="#DejaVuSans-6f" transform="translate(407.568359 0)"/>
      <use xlink:href="#DejaVuSans-6e" transform="translate(468.75 0)"/>
      <use xlink:href="#DejaVuSans-5f" transform="translate(532.128906 0)"/>
      <use xlink:href="#DejaVuSans-6d" transform="translate(582.128906 0)"/>
      <use xlink:href="#DejaVuSans-61" transform="translate(679.541016 0)"/>
      <use xlink:href="#DejaVuSans-64" transform="translate(740.820312 0)"/>
     </g>
    </g>
   </g>
   <g id="matplotlib.axis_2">
    <g id="ytick_1">
     <g id="line2d_9">
      <path d="M 57.17 353.93875 
L 628.967163 353.93875 
" clip-path="url(#pe2311e3656)" style="fill: none; stroke-dasharray: 0.5,0.825; stroke-dashoffset: 0; stroke: #b0b0b0; stroke-opacity: 0.6; stroke-width: 0.5"/>
     </g>
     <g id="line2d_10">
      <defs>
       <path id="mf53709026a" d="M 0 0 
L -3.5 0 
" style="stroke: #000000; stroke-width: 0.8"/>
      </defs>
      <g>
       <use xlink:href="#mf53709026a" x="57.17" y="353.93875" style="stroke: #000000; stroke-width: 0.8"/>
      </g>
     </g>
     <g id="text_10">
      <!-- 0 -->
      <g transform="translate(43.8075 357.737969) scale(0.1 -0.1)">
       <use xlink:href="#DejaVuSans-30"/>
      </g>
     </g>
    </g>
    <g id="ytick_2">
     <g id="line2d_11">
      <path d="M 57.17 284.980068 
L 628.967163 284.980068 
" clip-path="url(#pe2311e3656)" style="fill: none; stroke-dasharray: 0.5,0.825; stroke-dashoffset: 0; stroke: #b0b0b0; stroke-opacity: 0.6; stroke-width: 0.5"/>
     </g>
     <g id="line2d_12">
      <g>
       <use xlink:href="#mf53709026a" x="57.17" y="284.980068" style="stroke: #000000; stroke-width: 0.8"/>
      </g>
     </g>
     <g id="text_11">
      <!-- 2000 -->
      <g transform="translate(24.72 288.779286) scale(0.1 -0.1)">
       <use xlink:href="#DejaVuSans-32"/>
       <use xlink:href="#DejaVuSans-30" transform="translate(63.623047 0)"/>
       <use xlink:href="#DejaVuSans-30" transform="translate(127.246094 0)"/>
       <use xlink:href="#DejaVuSans-30" transform="translate(190.869141 0)"/>
      </g>
     </g>
    </g>
    <g id="ytick_3">
     <g id="line2d_13">
      <path d="M 57.17 216.021385 
L 628.967163 216.021385 
" clip-path="url(#pe2311e3656)" style="fill: none; stroke-dasharray: 0.5,0.825; stroke-dashoffset: 0; stroke: #b0b0b0; stroke-opacity: 0.6; stroke-width: 0.5"/>
     </g>
     <g id="line2d_14">
      <g>
       <use xlink:href="#mf53709026a" x="57.17" y="216.021385" style="stroke: #000000; stroke-width: 0.8"/>
      </g>
     </g>
     <g id="text_12">
      <!-- 4000 -->
      <g transform="translate(24.72 219.820604) scale(0.1 -0.1)">
       <use xlink:href="#DejaVuSans-34"/>
       <use xlink:href="#DejaVuSans-30" transform="translate(63.623047 0)"/>
       <use xlink:href="#DejaVuSans-30" transform="translate(127.246094 0)"/>
       <use xlink:href="#DejaVuSans-30" transform="translate(190.869141 0)"/>
      </g>
     </g>
    </g>
    <g id="ytick_4">
     <g id="line2d_15">
      <path d="M 57.17 147.062703 
L 628.967163 147.062703 
" clip-path="url(#pe2311e3656)" style="fill: none; stroke-dasharray: 0.5,0.825; stroke-dashoffset: 0; stroke: #b0b0b0; stroke-opacity: 0.6; stroke-width: 0.5"/>
     </g>
     <g id="line2d_16">
      <g>
       <use xlink:href="#mf53709026a" x="57.17" y="147.062703" style="stroke: #000000; stroke-width: 0.8"/>
      </g>
     </g>
     <g id="text_13">
      <!-- 6000 -->
      <g transform="translate(24.72 150.861922) scale(0.1 -0.1)">
       <defs>
        <path id="DejaVuSans-36" d="M 2113 2584 
Q 1688 2584 1439 2293 
Q 1191 2003 1191 1497 
Q 1191 994 1439 701 
Q 1688 409 2113 409 
Q 2538 409 2786 701 
Q 3034 994 3034 1497 
Q 3034 2003 2786 2293 
Q 2538 2584 2113 2584 
z
M 3366 4563 
L 3366 3988 
Q 3128 4100 2886 4159 
Q 2644 4219 2406 4219 
Q 1781 4219 1451 3797 
Q 1122 3375 1075 2522 
Q 1259 2794 1537 2939 
Q 1816 3084 2150 3084 
Q 2853 3084 3261 2657 
Q 3669 2231 3669 1497 
Q 3669 778 3244 343 
Q 2819 -91 2113 -91 
Q 1303 -91 875 529 
Q 447 1150 447 2328 
Q 447 3434 972 4092 
Q 1497 4750 2381 4750 
Q 2619 4750 2861 4703 
Q 3103 4656 3366 4563 
z
" transform="scale(0.015625)"/>
       </defs>
       <use xlink:href="#DejaVuSans-36"/>
       <use xlink:href="#DejaVuSans-30" transform="translate(63.623047 0)"/>
       <use xlink:href="#DejaVuSans-30" transform="translate(127.246094 0)"/>
       <use xlink:href="#DejaVuSans-30" transform="translate(190.869141 0)"/>
      </g>
     </g>
    </g>
    <g id="ytick_5">
     <g id="line2d_17">
      <path d="M 57.17 78.104021 
L 628.967163 78.104021 
" clip-path="url(#pe2311e3656)" style="fill: none; stroke-dasharray: 0.5,0.825; stroke-dashoffset: 0; stroke: #b0b0b0; stroke-opacity: 0.6; stroke-width: 0.5"/>
     </g>
     <g id="line2d_18">
      <g>
       <use xlink:href="#mf53709026a" x="57.17" y="78.104021" style="stroke: #000000; stroke-width: 0.8"/>
      </g>
     </g>
     <g id="text_14">
      <!-- 8000 -->
      <g transform="translate(24.72 81.90324) scale(0.1 -0.1)">
       <defs>
        <path id="DejaVuSans-38" d="M 2034 2216 
Q 1584 2216 1326 1975 
Q 1069 1734 1069 1313 
Q 1069 891 1326 650 
Q 1584 409 2034 409 
Q 2484 409 2743 651 
Q 3003 894 3003 1313 
Q 3003 1734 2745 1975 
Q 2488 2216 2034 2216 
z
M 1403 2484 
Q 997 2584 770 2862 
Q 544 3141 544 3541 
Q 544 4100 942 4425 
Q 1341 4750 2034 4750 
Q 2731 4750 3128 4425 
Q 3525 4100 3525 3541 
Q 3525 3141 3298 2862 
Q 3072 2584 2669 2484 
Q 3125 2378 3379 2068 
Q 3634 1759 3634 1313 
Q 3634 634 3220 271 
Q 2806 -91 2034 -91 
Q 1263 -91 848 271 
Q 434 634 434 1313 
Q 434 1759 690 2068 
Q 947 2378 1403 2484 
z
M 1172 3481 
Q 1172 3119 1398 2916 
Q 1625 2713 2034 2713 
Q 2441 2713 2670 2916 
Q 2900 3119 2900 3481 
Q 2900 3844 2670 4047 
Q 2441 4250 2034 4250 
Q 1625 4250 1398 4047 
Q 1172 3844 1172 3481 
z
" transform="scale(0.015625)"/>
       </defs>
       <use xlink:href="#DejaVuSans-38"/>
       <use xlink:href="#DejaVuSans-30" transform="translate(63.623047 0)"/>
       <use xlink:href="#DejaVuSans-30" transform="translate(127.246094 0)"/>
       <use xlink:href="#DejaVuSans-30" transform="translate(190.869141 0)"/>
      </g>
     </g>
    </g>
    <g id="text_15">
     <!-- Count (out of 100,000 samples) -->
     <g transform="translate(18.640313 277.567219) rotate(-90) scale(0.1 -0.1)">
      <defs>
       <path id="DejaVuSans-43" d="M 4122 4306 
L 4122 3641 
Q 3803 3938 3442 4084 
Q 3081 4231 2675 4231 
Q 1875 4231 1450 3742 
Q 1025 3253 1025 2328 
Q 1025 1406 1450 917 
Q 1875 428 2675 428 
Q 3081 428 3442 575 
Q 3803 722 4122 1019 
L 4122 359 
Q 3791 134 3420 21 
Q 3050 -91 2638 -91 
Q 1578 -91 968 557 
Q 359 1206 359 2328 
Q 359 3453 968 4101 
Q 1578 4750 2638 4750 
Q 3056 4750 3426 4639 
Q 3797 4528 4122 4306 
z
" transform="scale(0.015625)"/>
       <path id="DejaVuSans-20" transform="scale(0.015625)"/>
       <path id="DejaVuSans-28" d="M 1984 4856 
Q 1566 4138 1362 3434 
Q 1159 2731 1159 2009 
Q 1159 1288 1364 580 
Q 1569 -128 1984 -844 
L 1484 -844 
Q 1016 -109 783 600 
Q 550 1309 550 2009 
Q 550 2706 781 3412 
Q 1013 4119 1484 4856 
L 1984 4856 
z
" transform="scale(0.015625)"/>
       <path id="DejaVuSans-66" d="M 2375 4863 
L 2375 4384 
L 1825 4384 
Q 1516 4384 1395 4259 
Q 1275 4134 1275 3809 
L 1275 3500 
L 2222 3500 
L 2222 3053 
L 1275 3053 
L 1275 0 
L 697 0 
L 697 3053 
L 147 3053 
L 147 3500 
L 697 3500 
L 697 3744 
Q 697 4328 969 4595 
Q 1241 4863 1831 4863 
L 2375 4863 
z
" transform="scale(0.015625)"/>
       <path id="DejaVuSans-31" d="M 794 531 
L 1825 531 
L 1825 4091 
L 703 3866 
L 703 4441 
L 1819 4666 
L 2450 4666 
L 2450 531 
L 3481 531 
L 3481 0 
L 794 0 
L 794 531 
z
" transform="scale(0.015625)"/>
       <path id="DejaVuSans-2c" d="M 750 794 
L 1409 794 
L 1409 256 
L 897 -744 
L 494 -744 
L 750 256 
L 750 794 
z
" transform="scale(0.015625)"/>
       <path id="DejaVuSans-73" d="M 2834 3397 
L 2834 2853 
Q 2591 2978 2328 3040 
Q 2066 3103 1784 3103 
Q 1356 3103 1142 2972 
Q 928 2841 928 2578 
Q 928 2378 1081 2264 
Q 1234 2150 1697 2047 
L 1894 2003 
Q 2506 1872 2764 1633 
Q 3022 1394 3022 966 
Q 3022 478 2636 193 
Q 2250 -91 1575 -91 
Q 1294 -91 989 -36 
Q 684 19 347 128 
L 347 722 
Q 666 556 975 473 
Q 1284 391 1588 391 
Q 1994 391 2212 530 
Q 2431 669 2431 922 
Q 2431 1156 2273 1281 
Q 2116 1406 1581 1522 
L 1381 1569 
Q 847 1681 609 1914 
Q 372 2147 372 2553 
Q 372 3047 722 3315 
Q 1072 3584 1716 3584 
Q 2034 3584 2315 3537 
Q 2597 3491 2834 3397 
z
" transform="scale(0.015625)"/>
       <path id="DejaVuSans-65" d="M 3597 1894 
L 3597 1613 
L 953 1613 
Q 991 1019 1311 708 
Q 1631 397 2203 397 
Q 2534 397 2845 478 
Q 3156 559 3463 722 
L 3463 178 
Q 3153 47 2828 -22 
Q 2503 -91 2169 -91 
Q 1331 -91 842 396 
Q 353 884 353 1716 
Q 353 2575 817 3079 
Q 1281 3584 2069 3584 
Q 2775 3584 3186 3129 
Q 3597 2675 3597 1894 
z
M 3022 2063 
Q 3016 2534 2758 2815 
Q 2500 3097 2075 3097 
Q 1594 3097 1305 2825 
Q 1016 2553 972 2059 
L 3022 2063 
z
" transform="scale(0.015625)"/>
       <path id="DejaVuSans-29" d="M 513 4856 
L 1013 4856 
Q 1481 4119 1714 3412 
Q 1947 2706 1947 2009 
Q 1947 1309 1714 600 
Q 1481 -109 1013 -844 
L 513 -844 
Q 928 -128 1133 580 
Q 1338 1288 1338 2009 
Q 1338 2731 1133 3434 
Q 928 4138 513 4856 
z
" transform="scale(0.015625)"/>
      </defs>
      <use xlink:href="#DejaVuSans-43"/>
      <use xlink:href="#DejaVuSans-6f" transform="translate(69.824219 0)"/>
      <use xlink:href="#DejaVuSans-75" transform="translate(131.005859 0)"/>
      <use xlink:href="#DejaVuSans-6e" transform="translate(194.384766 0)"/>
      <use xlink:href="#DejaVuSans-74" transform="translate(257.763672 0)"/>
      <use xlink:href="#DejaVuSans-20" transform="translate(296.972656 0)"/>
      <use xlink:href="#DejaVuSans-28" transform="translate(328.759766 0)"/>
      <use xlink:href="#DejaVuSans-6f" transform="translate(367.773438 0)"/>
      <use xlink:href="#DejaVuSans-75" transform="translate(428.955078 0)"/>
      <use xlink:href="#DejaVuSans-74" transform="translate(492.333984 0)"/>
      <use xlink:href="#DejaVuSans-20" transform="translate(531.542969 0)"/>
      <use xlink:href="#DejaVuSans-6f" transform="translate(563.330078 0)"/>
      <use xlink:href="#DejaVuSans-66" transform="translate(624.511719 0)"/>
      <use xlink:href="#DejaVuSans-20" transform="translate(659.716797 0)"/>
      <use xlink:href="#DejaVuSans-31" transform="translate(691.503906 0)"/>
      <use xlink:href="#DejaVuSans-30" transform="translate(755.126953 0)"/>
      <use xlink:href="#DejaVuSans-30" transform="translate(818.75 0)"/>
      <use xlink:href="#DejaVuSans-2c" transform="translate(882.373047 0)"/>
      <use xlink:href="#DejaVuSans-30" transform="translate(914.160156 0)"/>
      <use xlink:href="#DejaVuSans-30" transform="translate(977.783203 0)"/>
      <use xlink:href="#DejaVuSans-30" transform="translate(1041.40625 0)"/>
      <use xlink:href="#DejaVuSans-20" transform="translate(1105.029297 0)"/>
      <use xlink:href="#DejaVuSans-73" transform="translate(1136.816406 0)"/>
      <use xlink:href="#DejaVuSans-61" transform="translate(1188.916016 0)"/>
      <use xlink:href="#DejaVuSans-6d" transform="translate(1250.195312 0)"/>
      <use xlink:href="#DejaVuSans-70" transform="translate(1347.607422 0)"/>
      <use xlink:href="#DejaVuSans-6c" transform="translate(1411.083984 0)"/>
      <use xlink:href="#DejaVuSans-65" transform="translate(1438.867188 0)"/>
      <use xlink:href="#DejaVuSans-73" transform="translate(1500.390625 0)"/>
      <use xlink:href="#DejaVuSans-29" transform="translate(1552.490234 0)"/>
     </g>
    </g>
   </g>
   <g id="patch_3">
    <path d="M 83.16078 353.93875 
L 93.557092 353.93875 
L 93.557092 353.766353 
L 83.16078 353.766353 
z
" clip-path="url(#pe2311e3656)" style="fill: #b9c2cf; opacity: 0.9; stroke: #4a5060; stroke-linejoin: miter"/>
   </g>
   <g id="patch_4">
    <path d="M 93.557092 353.93875 
L 103.953404 353.93875 
L 103.953404 352.766452 
L 93.557092 352.766452 
z
" clip-path="url(#pe2311e3656)" style="fill: #b9c2cf; opacity: 0.9; stroke: #4a5060; stroke-linejoin: miter"/>
   </g>
   <g id="patch_5">
    <path d="M 103.953404 353.93875 
L 114.349716 353.93875 
L 114.349716 353.559477 
L 103.953404 353.559477 
z
" clip-path="url(#pe2311e3656)" style="fill: #b9c2cf; opacity: 0.9; stroke: #4a5060; stroke-linejoin: miter"/>
   </g>
   <g id="patch_6">
    <path d="M 114.349716 353.93875 
L 124.746028 353.93875 
L 124.746028 352.766452 
L 114.349716 352.766452 
z
" clip-path="url(#pe2311e3656)" style="fill: #b9c2cf; opacity: 0.9; stroke: #4a5060; stroke-linejoin: miter"/>
   </g>
   <g id="patch_7">
    <path d="M 124.746028 353.93875 
L 135.14234 353.93875 
L 135.14234 351.904469 
L 124.746028 351.904469 
z
" clip-path="url(#pe2311e3656)" style="fill: #b9c2cf; opacity: 0.9; stroke: #4a5060; stroke-linejoin: miter"/>
   </g>
   <g id="patch_8">
    <path d="M 135.14234 353.93875 
L 145.538653 353.93875 
L 145.538653 348.594452 
L 135.14234 348.594452 
z
" clip-path="url(#pe2311e3656)" style="fill: #b9c2cf; opacity: 0.9; stroke: #4a5060; stroke-linejoin: miter"/>
   </g>
   <g id="patch_9">
    <path d="M 145.538653 353.93875 
L 155.934965 353.93875 
L 155.934965 343.250154 
L 145.538653 343.250154 
z
" clip-path="url(#pe2311e3656)" style="fill: #b9c2cf; opacity: 0.9; stroke: #4a5060; stroke-linejoin: miter"/>
   </g>
   <g id="patch_10">
    <path d="M 155.934965 353.93875 
L 166.331277 353.93875 
L 166.331277 334.526881 
L 155.934965 334.526881 
z
" clip-path="url(#pe2311e3656)" style="fill: #b9c2cf; opacity: 0.9; stroke: #4a5060; stroke-linejoin: miter"/>
   </g>
   <g id="patch_11">
    <path d="M 166.331277 353.93875 
L 176.727589 353.93875 
L 176.727589 327.803409 
L 166.331277 327.803409 
z
" clip-path="url(#pe2311e3656)" style="fill: #b9c2cf; opacity: 0.9; stroke: #4a5060; stroke-linejoin: miter"/>
   </g>
   <g id="patch_12">
    <path d="M 176.727589 353.93875 
L 187.123901 353.93875 
L 187.123901 311.391243 
L 176.727589 311.391243 
z
" clip-path="url(#pe2311e3656)" style="fill: #b9c2cf; opacity: 0.9; stroke: #4a5060; stroke-linejoin: miter"/>
   </g>
   <g id="patch_13">
    <path d="M 187.123901 353.93875 
L 197.520213 353.93875 
L 197.520213 291.358746 
L 187.123901 291.358746 
z
" clip-path="url(#pe2311e3656)" style="fill: #b9c2cf; opacity: 0.9; stroke: #4a5060; stroke-linejoin: miter"/>
   </g>
   <g id="patch_14">
    <path d="M 197.520213 353.93875 
L 207.916525 353.93875 
L 207.916525 269.843637 
L 197.520213 269.843637 
z
" clip-path="url(#pe2311e3656)" style="fill: #b9c2cf; opacity: 0.9; stroke: #4a5060; stroke-linejoin: miter"/>
   </g>
   <g id="patch_15">
    <path d="M 207.916525 353.93875 
L 218.312837 353.93875 
L 218.312837 239.122544 
L 207.916525 239.122544 
z
" clip-path="url(#pe2311e3656)" style="fill: #b9c2cf; opacity: 0.9; stroke: #4a5060; stroke-linejoin: miter"/>
   </g>
   <g id="patch_16">
    <path d="M 218.312837 353.93875 
L 228.709149 353.93875 
L 228.709149 206.918839 
L 218.312837 206.918839 
z
" clip-path="url(#pe2311e3656)" style="fill: #b9c2cf; opacity: 0.9; stroke: #4a5060; stroke-linejoin: miter"/>
   </g>
   <g id="patch_17">
    <path d="M 228.709149 353.93875 
L 239.105461 353.93875 
L 239.105461 170.715531 
L 228.709149 170.715531 
z
" clip-path="url(#pe2311e3656)" style="fill: #b9c2cf; opacity: 0.9; stroke: #4a5060; stroke-linejoin: miter"/>
   </g>
   <g id="patch_18">
    <path d="M 239.105461 353.93875 
L 249.501773 353.93875 
L 249.501773 121.479032 
L 239.105461 121.479032 
z
" clip-path="url(#pe2311e3656)" style="fill: #b9c2cf; opacity: 0.9; stroke: #4a5060; stroke-linejoin: miter"/>
   </g>
   <g id="patch_19">
    <path d="M 249.501773 353.93875 
L 259.898085 353.93875 
L 259.898085 87.344484 
L 249.501773 87.344484 
z
" clip-path="url(#pe2311e3656)" style="fill: #b9c2cf; opacity: 0.9; stroke: #4a5060; stroke-linejoin: miter"/>
   </g>
   <g id="patch_20">
    <path d="M 259.898085 353.93875 
L 270.294397 353.93875 
L 270.294397 61.657375 
L 259.898085 61.657375 
z
" clip-path="url(#pe2311e3656)" style="fill: #b9c2cf; opacity: 0.9; stroke: #4a5060; stroke-linejoin: miter"/>
   </g>
   <g id="patch_21">
    <path d="M 270.294397 353.93875 
L 280.690709 353.93875 
L 280.690709 61.484979 
L 270.294397 61.484979 
z
" clip-path="url(#pe2311e3656)" style="fill: #b9c2cf; opacity: 0.9; stroke: #4a5060; stroke-linejoin: miter"/>
   </g>
   <g id="patch_22">
    <path d="M 280.690709 353.93875 
L 291.087021 353.93875 
L 291.087021 56.899226 
L 280.690709 56.899226 
z
" clip-path="url(#pe2311e3656)" style="fill: #b9c2cf; opacity: 0.9; stroke: #4a5060; stroke-linejoin: miter"/>
   </g>
   <g id="patch_23">
    <path d="M 291.087021 353.93875 
L 301.483333 353.93875 
L 301.483333 79.793509 
L 291.087021 79.793509 
z
" clip-path="url(#pe2311e3656)" style="fill: #b9c2cf; opacity: 0.9; stroke: #4a5060; stroke-linejoin: miter"/>
   </g>
   <g id="patch_24">
    <path d="M 301.483333 353.93875 
L 311.879646 353.93875 
L 311.879646 100.722469 
L 301.483333 100.722469 
z
" clip-path="url(#pe2311e3656)" style="fill: #b9c2cf; opacity: 0.9; stroke: #4a5060; stroke-linejoin: miter"/>
   </g>
   <g id="patch_25">
    <path d="M 311.879646 353.93875 
L 322.275958 353.93875 
L 322.275958 143.856125 
L 311.879646 143.856125 
z
" clip-path="url(#pe2311e3656)" style="fill: #b9c2cf; opacity: 0.9; stroke: #4a5060; stroke-linejoin: miter"/>
   </g>
   <g id="patch_26">
    <path d="M 322.275958 353.93875 
L 332.67227 353.93875 
L 332.67227 173.198044 
L 322.275958 173.198044 
z
" clip-path="url(#pe2311e3656)" style="fill: #b9c2cf; opacity: 0.9; stroke: #4a5060; stroke-linejoin: miter"/>
   </g>
   <g id="patch_27">
    <path d="M 332.67227 353.93875 
L 343.068582 353.93875 
L 343.068582 206.263732 
L 332.67227 206.263732 
z
" clip-path="url(#pe2311e3656)" style="fill: #b9c2cf; opacity: 0.9; stroke: #4a5060; stroke-linejoin: miter"/>
   </g>
   <g id="patch_28">
    <path d="M 343.068582 353.93875 
L 353.464894 353.93875 
L 353.464894 247.914776 
L 343.068582 247.914776 
z
" clip-path="url(#pe2311e3656)" style="fill: #b9c2cf; opacity: 0.9; stroke: #4a5060; stroke-linejoin: miter"/>
   </g>
   <g id="patch_29">
    <path d="M 353.464894 353.93875 
L 363.861206 353.93875 
L 363.861206 287.566018 
L 353.464894 287.566018 
z
" clip-path="url(#pe2311e3656)" style="fill: #b9c2cf; opacity: 0.9; stroke: #4a5060; stroke-linejoin: miter"/>
   </g>
   <g id="patch_30">
    <path d="M 363.861206 353.93875 
L 374.257518 353.93875 
L 374.257518 305.426317 
L 363.861206 305.426317 
z
" clip-path="url(#pe2311e3656)" style="fill: #b9c2cf; opacity: 0.9; stroke: #4a5060; stroke-linejoin: miter"/>
   </g>
   <g id="patch_31">
    <path d="M 374.257518 353.93875 
L 384.65383 353.93875 
L 384.65383 318.631905 
L 374.257518 318.631905 
z
" clip-path="url(#pe2311e3656)" style="fill: #b9c2cf; opacity: 0.9; stroke: #4a5060; stroke-linejoin: miter"/>
   </g>
   <g id="patch_32">
    <path d="M 384.65383 353.93875 
L 395.050142 353.93875 
L 395.050142 334.871674 
L 384.65383 334.871674 
z
" clip-path="url(#pe2311e3656)" style="fill: #b9c2cf; opacity: 0.9; stroke: #4a5060; stroke-linejoin: miter"/>
   </g>
   <g id="patch_33">
    <path d="M 395.050142 353.93875 
L 405.446454 353.93875 
L 405.446454 342.181295 
L 395.050142 342.181295 
z
" clip-path="url(#pe2311e3656)" style="fill: #b9c2cf; opacity: 0.9; stroke: #4a5060; stroke-linejoin: miter"/>
   </g>
   <g id="patch_34">
    <path d="M 405.446454 353.93875 
L 415.842766 353.93875 
L 415.842766 347.973824 
L 405.446454 347.973824 
z
" clip-path="url(#pe2311e3656)" style="fill: #b9c2cf; opacity: 0.9; stroke: #4a5060; stroke-linejoin: miter"/>
   </g>
   <g id="patch_35">
    <path d="M 415.842766 353.93875 
L 426.239078 353.93875 
L 426.239078 349.904667 
L 415.842766 349.904667 
z
" clip-path="url(#pe2311e3656)" style="fill: #b9c2cf; opacity: 0.9; stroke: #4a5060; stroke-linejoin: miter"/>
   </g>
   <g id="patch_36">
    <path d="M 426.239078 353.93875 
L 436.63539 353.93875 
L 436.63539 352.3527 
L 426.239078 352.3527 
z
" clip-path="url(#pe2311e3656)" style="fill: #b9c2cf; opacity: 0.9; stroke: #4a5060; stroke-linejoin: miter"/>
   </g>
   <g id="patch_37">
    <path d="M 436.63539 353.93875 
L 447.031702 353.93875 
L 447.031702 353.387081 
L 436.63539 353.387081 
z
" clip-path="url(#pe2311e3656)" style="fill: #b9c2cf; opacity: 0.9; stroke: #4a5060; stroke-linejoin: miter"/>
   </g>
   <g id="patch_38">
    <path d="M 447.031702 353.93875 
L 457.428014 353.93875 
L 457.428014 353.731874 
L 447.031702 353.731874 
z
" clip-path="url(#pe2311e3656)" style="fill: #b9c2cf; opacity: 0.9; stroke: #4a5060; stroke-linejoin: miter"/>
   </g>
   <g id="patch_39">
    <path d="M 457.428014 353.93875 
L 467.824326 353.93875 
L 467.824326 353.697395 
L 457.428014 353.697395 
z
" clip-path="url(#pe2311e3656)" style="fill: #b9c2cf; opacity: 0.9; stroke: #4a5060; stroke-linejoin: miter"/>
   </g>
   <g id="patch_40">
    <path d="M 467.824326 353.93875 
L 478.220639 353.93875 
L 478.220639 353.904271 
L 467.824326 353.904271 
z
" clip-path="url(#pe2311e3656)" style="fill: #b9c2cf; opacity: 0.9; stroke: #4a5060; stroke-linejoin: miter"/>
   </g>
   <g id="patch_41">
    <path d="M 478.220639 353.93875 
L 488.616951 353.93875 
L 488.616951 353.869791 
L 478.220639 353.869791 
z
" clip-path="url(#pe2311e3656)" style="fill: #b9c2cf; opacity: 0.9; stroke: #4a5060; stroke-linejoin: miter"/>
   </g>
   <g id="patch_42">
    <path d="M 488.616951 353.93875 
L 499.013263 353.93875 
L 499.013263 353.869791 
L 488.616951 353.869791 
z
" clip-path="url(#pe2311e3656)" style="fill: #b9c2cf; opacity: 0.9; stroke: #4a5060; stroke-linejoin: miter"/>
   </g>
   <g id="patch_43">
    <path d="M 499.013263 353.93875 
L 509.409575 353.93875 
L 509.409575 353.93875 
L 499.013263 353.93875 
z
" clip-path="url(#pe2311e3656)" style="fill: #b9c2cf; opacity: 0.9; stroke: #4a5060; stroke-linejoin: miter"/>
   </g>
   <g id="patch_44">
    <path d="M 509.409575 353.93875 
L 519.805887 353.93875 
L 519.805887 353.93875 
L 509.409575 353.93875 
z
" clip-path="url(#pe2311e3656)" style="fill: #b9c2cf; opacity: 0.9; stroke: #4a5060; stroke-linejoin: miter"/>
   </g>
   <g id="patch_45">
    <path d="M 519.805887 353.93875 
L 530.202199 353.93875 
L 530.202199 353.387081 
L 519.805887 353.387081 
z
" clip-path="url(#pe2311e3656)" style="fill: #b9c2cf; opacity: 0.9; stroke: #4a5060; stroke-linejoin: miter"/>
   </g>
   <g id="patch_46">
    <path d="M 530.202199 353.93875 
L 540.598511 353.93875 
L 540.598511 353.869791 
L 530.202199 353.869791 
z
" clip-path="url(#pe2311e3656)" style="fill: #b9c2cf; opacity: 0.9; stroke: #4a5060; stroke-linejoin: miter"/>
   </g>
   <g id="patch_47">
    <path d="M 540.598511 353.93875 
L 550.994823 353.93875 
L 550.994823 353.93875 
L 540.598511 353.93875 
z
" clip-path="url(#pe2311e3656)" style="fill: #b9c2cf; opacity: 0.9; stroke: #4a5060; stroke-linejoin: miter"/>
   </g>
   <g id="patch_48">
    <path d="M 550.994823 353.93875 
L 561.391135 353.93875 
L 561.391135 353.93875 
L 550.994823 353.93875 
z
" clip-path="url(#pe2311e3656)" style="fill: #b9c2cf; opacity: 0.9; stroke: #4a5060; stroke-linejoin: miter"/>
   </g>
   <g id="patch_49">
    <path d="M 561.391135 353.93875 
L 571.787447 353.93875 
L 571.787447 353.93875 
L 561.391135 353.93875 
z
" clip-path="url(#pe2311e3656)" style="fill: #b9c2cf; opacity: 0.9; stroke: #4a5060; stroke-linejoin: miter"/>
   </g>
   <g id="patch_50">
    <path d="M 571.787447 353.93875 
L 582.183759 353.93875 
L 582.183759 353.93875 
L 571.787447 353.93875 
z
" clip-path="url(#pe2311e3656)" style="fill: #b9c2cf; opacity: 0.9; stroke: #4a5060; stroke-linejoin: miter"/>
   </g>
   <g id="patch_51">
    <path d="M 582.183759 353.93875 
L 592.580071 353.93875 
L 592.580071 353.93875 
L 582.183759 353.93875 
z
" clip-path="url(#pe2311e3656)" style="fill: #b9c2cf; opacity: 0.9; stroke: #4a5060; stroke-linejoin: miter"/>
   </g>
   <g id="patch_52">
    <path d="M 592.580071 353.93875 
L 602.976383 353.93875 
L 602.976383 353.904271 
L 592.580071 353.904271 
z
" clip-path="url(#pe2311e3656)" style="fill: #b9c2cf; opacity: 0.9; stroke: #4a5060; stroke-linejoin: miter"/>
   </g>
   <g id="patch_53">
    <path d="M 57.17 353.93875 
L 57.17 42.04725 
" style="fill: none; stroke: #000000; stroke-width: 0.8; stroke-linejoin: miter; stroke-linecap: square"/>
   </g>
   <g id="patch_54">
    <path d="M 628.967163 353.93875 
L 628.967163 42.04725 
" style="fill: none; stroke: #000000; stroke-width: 0.8; stroke-linejoin: miter; stroke-linecap: square"/>
   </g>
   <g id="patch_55">
    <path d="M 57.17 353.93875 
L 628.967163 353.93875 
" style="fill: none; stroke: #000000; stroke-width: 0.8; stroke-linejoin: miter; stroke-linecap: square"/>
   </g>
   <g id="patch_56">
    <path d="M 57.17 42.04725 
L 628.967163 42.04725 
" style="fill: none; stroke: #000000; stroke-width: 0.8; stroke-linejoin: miter; stroke-linecap: square"/>
   </g>
   <g id="line2d_19">
    <path d="M 197.749668 353.93875 
L 197.749668 42.04725 
" clip-path="url(#pe2311e3656)" style="fill: none; stroke-dasharray: 3.7,1.6; stroke-dashoffset: 0; stroke: #888888"/>
   </g>
   <g id="line2d_20">
    <path d="M 356.520342 353.93875 
L 356.520342 42.04725 
" clip-path="url(#pe2311e3656)" style="fill: none; stroke-dasharray: 3.7,1.6; stroke-dashoffset: 0; stroke: #888888"/>
   </g>
   <g id="text_16">
    <!--   5th -->
    <g style="fill: #444444" transform="translate(197.749668 66.99857) scale(0.08 -0.08)">
     <defs>
      <path id="DejaVuSans-68" d="M 3513 2113 
L 3513 0 
L 2938 0 
L 2938 2094 
Q 2938 2591 2744 2837 
Q 2550 3084 2163 3084 
Q 1697 3084 1428 2787 
Q 1159 2491 1159 1978 
L 1159 0 
L 581 0 
L 581 4863 
L 1159 4863 
L 1159 2956 
Q 1366 3272 1645 3428 
Q 1925 3584 2291 3584 
Q 2894 3584 3203 3211 
Q 3513 2838 3513 2113 
z
" transform="scale(0.015625)"/>
     </defs>
     <use xlink:href="#DejaVuSans-20"/>
     <use xlink:href="#DejaVuSans-20" transform="translate(31.787109 0)"/>
     <use xlink:href="#DejaVuSans-35" transform="translate(63.574219 0)"/>
     <use xlink:href="#DejaVuSans-74" transform="translate(127.197266 0)"/>
     <use xlink:href="#DejaVuSans-68" transform="translate(166.40625 0)"/>
    </g>
   </g>
   <g id="text_17">
    <!-- 95th   -->
    <g style="fill: #444444" transform="translate(333.049092 66.99857) scale(0.08 -0.08)">
     <defs>
      <path id="DejaVuSans-39" d="M 703 97 
L 703 672 
Q 941 559 1184 500 
Q 1428 441 1663 441 
Q 2288 441 2617 861 
Q 2947 1281 2994 2138 
Q 2813 1869 2534 1725 
Q 2256 1581 1919 1581 
Q 1219 1581 811 2004 
Q 403 2428 403 3163 
Q 403 3881 828 4315 
Q 1253 4750 1959 4750 
Q 2769 4750 3195 4129 
Q 3622 3509 3622 2328 
Q 3622 1225 3098 567 
Q 2575 -91 1691 -91 
Q 1453 -91 1209 -44 
Q 966 3 703 97 
z
M 1959 2075 
Q 2384 2075 2632 2365 
Q 2881 2656 2881 3163 
Q 2881 3666 2632 3958 
Q 2384 4250 1959 4250 
Q 1534 4250 1286 3958 
Q 1038 3666 1038 3163 
Q 1038 2656 1286 2365 
Q 1534 2075 1959 2075 
z
" transform="scale(0.015625)"/>
     </defs>
     <use xlink:href="#DejaVuSans-39"/>
     <use xlink:href="#DejaVuSans-35" transform="translate(63.623047 0)"/>
     <use xlink:href="#DejaVuSans-74" transform="translate(127.246094 0)"/>
     <use xlink:href="#DejaVuSans-68" transform="translate(166.455078 0)"/>
     <use xlink:href="#DejaVuSans-20" transform="translate(229.833984 0)"/>
     <use xlink:href="#DejaVuSans-20" transform="translate(261.621094 0)"/>
    </g>
   </g>
   <g id="text_18">
    <!-- Ensemble distribution of population_mad -->
    <g transform="translate(219.690769 22.276125) scale(0.12 -0.12)">
     <defs>
      <path id="DejaVuSans-45" d="M 628 4666 
L 3578 4666 
L 3578 4134 
L 1259 4134 
L 1259 2753 
L 3481 2753 
L 3481 2222 
L 1259 2222 
L 1259 531 
L 3634 531 
L 3634 0 
L 628 0 
L 628 4666 
z
" transform="scale(0.015625)"/>
      <path id="DejaVuSans-62" d="M 3116 1747 
Q 3116 2381 2855 2742 
Q 2594 3103 2138 3103 
Q 1681 3103 1420 2742 
Q 1159 2381 1159 1747 
Q 1159 1113 1420 752 
Q 1681 391 2138 391 
Q 2594 391 2855 752 
Q 3116 1113 3116 1747 
z
M 1159 2969 
Q 1341 3281 1617 3432 
Q 1894 3584 2278 3584 
Q 2916 3584 3314 3078 
Q 3713 2572 3713 1747 
Q 3713 922 3314 415 
Q 2916 -91 2278 -91 
Q 1894 -91 1617 61 
Q 1341 213 1159 525 
L 1159 0 
L 581 0 
L 581 4863 
L 1159 4863 
L 1159 2969 
z
" transform="scale(0.015625)"/>
      <path id="DejaVuSans-72" d="M 2631 2963 
Q 2534 3019 2420 3045 
Q 2306 3072 2169 3072 
Q 1681 3072 1420 2755 
Q 1159 2438 1159 1844 
L 1159 0 
L 581 0 
L 581 3500 
L 1159 3500 
L 1159 2956 
Q 1341 3275 1631 3429 
Q 1922 3584 2338 3584 
Q 2397 3584 2469 3576 
Q 2541 3569 2628 3553 
L 2631 2963 
z
" transform="scale(0.015625)"/>
     </defs>
     <use xlink:href="#DejaVuSans-45"/>
     <use xlink:href="#DejaVuSans-6e" transform="translate(63.183594 0)"/>
     <use xlink:href="#DejaVuSans-73" transform="translate(126.5625 0)"/>
     <use xlink:href="#DejaVuSans-65" transform="translate(178.662109 0)"/>
     <use xlink:href="#DejaVuSans-6d" transform="translate(240.185547 0)"/>
     <use xlink:href="#DejaVuSans-62" transform="translate(337.597656 0)"/>
     <use xlink:href="#DejaVuSans-6c" transform="translate(401.074219 0)"/>
     <use xlink:href="#DejaVuSans-65" transform="translate(428.857422 0)"/>
     <use xlink:href="#DejaVuSans-20" transform="translate(490.380859 0)"/>
     <use xlink:href="#DejaVuSans-64" transform="translate(522.167969 0)"/>
     <use xlink:href="#DejaVuSans-69" transform="translate(585.644531 0)"/>
     <use xlink:href="#DejaVuSans-73" transform="translate(613.427734 0)"/>
     <use xlink:href="#DejaVuSans-74" transform="translate(665.527344 0)"/>
     <use xlink:href="#DejaVuSans-72" transform="translate(704.736328 0)"/>
     <use xlink:href="#DejaVuSans-69" transform="translate(745.849609 0)"/>
     <use xlink:href="#DejaVuSans-62" transform="translate(773.632812 0)"/>
     <use xlink:href="#DejaVuSans-75" transform="translate(837.109375 0)"/>
     <use xlink:href="#DejaVuSans-74" transform="translate(900.488281 0)"/>
     <use xlink:href="#DejaVuSans-69" transform="translate(939.697266 0)"/>
     <use xlink:href="#DejaVuSans-6f" transform="translate(967.480469 0)"/>
     <use xlink:href="#DejaVuSans-6e" transform="translate(1028.662109 0)"/>
     <use xlink:href="#DejaVuSans-20" transform="translate(1092.041016 0)"/>
     <use xlink:href="#DejaVuSans-6f" transform="translate(1123.828125 0)"/>
     <use xlink:href="#DejaVuSans-66" transform="translate(1185.009766 0)"/>
     <use xlink:href="#DejaVuSans-20" transform="translate(1220.214844 0)"/>
     <use xlink:href="#DejaVuSans-70" transform="translate(1252.001953 0)"/>
     <use xlink:href="#DejaVuSans-6f" transform="translate(1315.478516 0)"/>
     <use xlink:href="#DejaVuSans-70" transform="translate(1376.660156 0)"/>
     <use xlink:href="#DejaVuSans-75" transform="translate(1440.136719 0)"/>
     <use xlink:href="#DejaVuSans-6c" transform="translate(1503.515625 0)"/>
     <use xlink:href="#DejaVuSans-61" transform="translate(1531.298828 0)"/>
     <use xlink:href="#DejaVuSans-74" transform="translate(1592.578125 0)"/>
     <use xlink:href="#DejaVuSans-69" transform="translate(1631.787109 0)"/>
     <use xlink:href="#DejaVuSans-6f" transform="translate(1659.570312 0)"/>
     <use xlink:href="#DejaVuSans-6e" transform="translate(1720.751953 0)"/>
     <use xlink:href="#DejaVuSans-5f" transform="translate(1784.130859 0)"/>
     <use xlink:href="#DejaVuSans-6d" transform="translate(1834.130859 0)"/>
     <use xlink:href="#DejaVuSans-61" transform="translate(1931.542969 0)"/>
     <use xlink:href="#DejaVuSans-64" transform="translate(1992.822266 0)"/>
    </g>
    <!-- (ReCom on 2019 enacted map, VA-level atomic units, 2023 votes) -->
    <g transform="translate(144.670144 36.04725) scale(0.12 -0.12)">
     <defs>
      <path id="DejaVuSans-52" d="M 2841 2188 
Q 3044 2119 3236 1894 
Q 3428 1669 3622 1275 
L 4263 0 
L 3584 0 
L 2988 1197 
Q 2756 1666 2539 1819 
Q 2322 1972 1947 1972 
L 1259 1972 
L 1259 0 
L 628 0 
L 628 4666 
L 2053 4666 
Q 2853 4666 3247 4331 
Q 3641 3997 3641 3322 
Q 3641 2881 3436 2590 
Q 3231 2300 2841 2188 
z
M 1259 4147 
L 1259 2491 
L 2053 2491 
Q 2509 2491 2742 2702 
Q 2975 2913 2975 3322 
Q 2975 3731 2742 3939 
Q 2509 4147 2053 4147 
L 1259 4147 
z
" transform="scale(0.015625)"/>
      <path id="DejaVuSans-63" d="M 3122 3366 
L 3122 2828 
Q 2878 2963 2633 3030 
Q 2388 3097 2138 3097 
Q 1578 3097 1268 2742 
Q 959 2388 959 1747 
Q 959 1106 1268 751 
Q 1578 397 2138 397 
Q 2388 397 2633 464 
Q 2878 531 3122 666 
L 3122 134 
Q 2881 22 2623 -34 
Q 2366 -91 2075 -91 
Q 1284 -91 818 406 
Q 353 903 353 1747 
Q 353 2603 823 3093 
Q 1294 3584 2113 3584 
Q 2378 3584 2631 3529 
Q 2884 3475 3122 3366 
z
" transform="scale(0.015625)"/>
      <path id="DejaVuSans-56" d="M 1831 0 
L 50 4666 
L 709 4666 
L 2188 738 
L 3669 4666 
L 4325 4666 
L 2547 0 
L 1831 0 
z
" transform="scale(0.015625)"/>
      <path id="DejaVuSans-41" d="M 2188 4044 
L 1331 1722 
L 3047 1722 
L 2188 4044 
z
M 1831 4666 
L 2547 4666 
L 4325 0 
L 3669 0 
L 3244 1197 
L 1141 1197 
L 716 0 
L 50 0 
L 1831 4666 
z
" transform="scale(0.015625)"/>
      <path id="DejaVuSans-2d" d="M 313 2009 
L 1997 2009 
L 1997 1497 
L 313 1497 
L 313 2009 
z
" transform="scale(0.015625)"/>
      <path id="DejaVuSans-76" d="M 191 3500 
L 800 3500 
L 1894 563 
L 2988 3500 
L 3597 3500 
L 2284 0 
L 1503 0 
L 191 3500 
z
" transform="scale(0.015625)"/>
     </defs>
     <use xlink:href="#DejaVuSans-28"/>
     <use xlink:href="#DejaVuSans-52" transform="translate(39.013672 0)"/>
     <use xlink:href="#DejaVuSans-65" transform="translate(103.996094 0)"/>
     <use xlink:href="#DejaVuSans-43" transform="translate(165.519531 0)"/>
     <use xlink:href="#DejaVuSans-6f" transform="translate(235.34375 0)"/>
     <use xlink:href="#DejaVuSans-6d" transform="translate(296.525391 0)"/>
     <use xlink:href="#DejaVuSans-20" transform="translate(393.9375 0)"/>
     <use xlink:href="#DejaVuSans-6f" transform="translate(425.724609 0)"/>
     <use xlink:href="#DejaVuSans-6e" transform="translate(486.90625 0)"/>
     <use xlink:href="#DejaVuSans-20" transform="translate(550.285156 0)"/>
     <use xlink:href="#DejaVuSans-32" transform="translate(582.072266 0)"/>
     <use xlink:href="#DejaVuSans-30" transform="translate(645.695312 0)"/>
     <use xlink:href="#DejaVuSans-31" transform="translate(709.318359 0)"/>
     <use xlink:href="#DejaVuSans-39" transform="translate(772.941406 0)"/>
     <use xlink:href="#DejaVuSans-20" transform="translate(836.564453 0)"/>
     <use xlink:href="#DejaVuSans-65" transform="translate(868.351562 0)"/>
     <use xlink:href="#DejaVuSans-6e" transform="translate(929.875 0)"/>
     <use xlink:href="#DejaVuSans-61" transform="translate(993.253906 0)"/>
     <use xlink:href="#DejaVuSans-63" transform="translate(1054.533203 0)"/>
     <use xlink:href="#DejaVuSans-74" transform="translate(1109.513672 0)"/>
     <use xlink:href="#DejaVuSans-65" transform="translate(1148.722656 0)"/>
     <use xlink:href="#DejaVuSans-64" transform="translate(1210.246094 0)"/>
     <use xlink:href="#DejaVuSans-20" transform="translate(1273.722656 0)"/>
     <use xlink:href="#DejaVuSans-6d" transform="translate(1305.509766 0)"/>
     <use xlink:href="#DejaVuSans-61" transform="translate(1402.921875 0)"/>
     <use xlink:href="#DejaVuSans-70" transform="translate(1464.201172 0)"/>
     <use xlink:href="#DejaVuSans-2c" transform="translate(1527.677734 0)"/>
     <use xlink:href="#DejaVuSans-20" transform="translate(1559.464844 0)"/>
     <use xlink:href="#DejaVuSans-56" transform="translate(1591.251953 0)"/>
     <use xlink:href="#DejaVuSans-41" transform="translate(1653.285156 0)"/>
     <use xlink:href="#DejaVuSans-2d" transform="translate(1719.443359 0)"/>
     <use xlink:href="#DejaVuSans-6c" transform="translate(1755.527344 0)"/>
     <use xlink:href="#DejaVuSans-65" transform="translate(1783.310547 0)"/>
     <use xlink:href="#DejaVuSans-76" transform="translate(1844.833984 0)"/>
     <use xlink:href="#DejaVuSans-65" transform="translate(1904.013672 0)"/>
     <use xlink:href="#DejaVuSans-6c" transform="translate(1965.537109 0)"/>
     <use xlink:href="#DejaVuSans-20" transform="translate(1993.320312 0)"/>
     <use xlink:href="#DejaVuSans-61" transform="translate(2025.107422 0)"/>
     <use xlink:href="#DejaVuSans-74" transform="translate(2086.386719 0)"/>
     <use xlink:href="#DejaVuSans-6f" transform="translate(2125.595703 0)"/>
     <use xlink:href="#DejaVuSans-6d" transform="translate(2186.777344 0)"/>
     <use xlink:href="#DejaVuSans-69" transform="translate(2284.189453 0)"/>
     <use xlink:href="#DejaVuSans-63" transform="translate(2311.972656 0)"/>
     <use xlink:href="#DejaVuSans-20" transform="translate(2366.953125 0)"/>
     <use xlink:href="#DejaVuSans-75" transform="translate(2398.740234 0)"/>
     <use xlink:href="#DejaVuSans-6e" transform="translate(2462.119141 0)"/>
     <use xlink:href="#DejaVuSans-69" transform="translate(2525.498047 0)"/>
     <use xlink:href="#DejaVuSans-74" transform="translate(2553.28125 0)"/>
     <use xlink:href="#DejaVuSans-73" transform="translate(2592.490234 0)"/>
     <use xlink:href="#DejaVuSans-2c" transform="translate(2644.589844 0)"/>
     <use xlink:href="#DejaVuSans-20" transform="translate(2676.376953 0)"/>
     <use xlink:href="#DejaVuSans-32" transform="translate(2708.164062 0)"/>
     <use xlink:href="#DejaVuSans-30" transform="translate(2771.787109 0)"/>
     <use xlink:href="#DejaVuSans-32" transform="translate(2835.410156 0)"/>
     <use xlink:href="#DejaVuSans-33" transform="translate(2899.033203 0)"/>
     <use xlink:href="#DejaVuSans-20" transform="translate(2962.65625 0)"/>
     <use xlink:href="#DejaVuSans-76" transform="translate(2994.443359 0)"/>
     <use xlink:href="#DejaVuSans-6f" transform="translate(3053.623047 0)"/>
     <use xlink:href="#DejaVuSans-74" transform="translate(3114.804688 0)"/>
     <use xlink:href="#DejaVuSans-65" transform="translate(3154.013672 0)"/>
     <use xlink:href="#DejaVuSans-73" transform="translate(3215.537109 0)"/>
     <use xlink:href="#DejaVuSans-29" transform="translate(3267.636719 0)"/>
    </g>
   </g>
   <g id="line2d_21">
    <path d="M 231.968009 353.93875 
L 231.968009 42.04725 
" clip-path="url(#pe2311e3656)" style="fill: none; stroke: #000000; stroke-width: 2.2; stroke-linecap: square"/>
   </g>
   <g id="line2d_22">
    <path d="M 394.933897 353.93875 
L 394.933897 42.04725 
" clip-path="url(#pe2311e3656)" style="fill: none; stroke: #000000; stroke-width: 2.2; stroke-linecap: square"/>
   </g>
   <g id="legend_1">
    <g id="patch_57">
     <path d="M 384.265601 75.667875 
L 622.667163 75.667875 
Q 624.467163 75.667875 624.467163 73.867875 
L 624.467163 48.34725 
Q 624.467163 46.54725 622.667163 46.54725 
L 384.265601 46.54725 
Q 382.465601 46.54725 382.465601 48.34725 
L 382.465601 73.867875 
Q 382.465601 75.667875 384.265601 75.667875 
z
" style="fill: #ffffff; opacity: 0.95; stroke: #cccccc; stroke-linejoin: miter"/>
    </g>
    <g id="line2d_23">
     <path d="M 386.065601 53.835844 
L 395.065601 53.835844 
L 404.065601 53.835844 
" style="fill: none; stroke: #000000; stroke-width: 2.2; stroke-linecap: square"/>
    </g>
    <g id="text_19">
     <!-- majority 2026 canonical: +2826.8945  (p16.6) -->
     <g transform="translate(411.265601 56.985844) scale(0.09 -0.09)">
      <defs>
       <path id="DejaVuSans-6a" d="M 603 3500 
L 1178 3500 
L 1178 -63 
Q 1178 -731 923 -1031 
Q 669 -1331 103 -1331 
L -116 -1331 
L -116 -844 
L 38 -844 
Q 366 -844 484 -692 
Q 603 -541 603 -63 
L 603 3500 
z
M 603 4863 
L 1178 4863 
L 1178 4134 
L 603 4134 
L 603 4863 
z
" transform="scale(0.015625)"/>
       <path id="DejaVuSans-79" d="M 2059 -325 
Q 1816 -950 1584 -1140 
Q 1353 -1331 966 -1331 
L 506 -1331 
L 506 -850 
L 844 -850 
Q 1081 -850 1212 -737 
Q 1344 -625 1503 -206 
L 1606 56 
L 191 3500 
L 800 3500 
L 1894 763 
L 2988 3500 
L 3597 3500 
L 2059 -325 
z
" transform="scale(0.015625)"/>
       <path id="DejaVuSans-3a" d="M 750 794 
L 1409 794 
L 1409 0 
L 750 0 
L 750 794 
z
M 750 3309 
L 1409 3309 
L 1409 2516 
L 750 2516 
L 750 3309 
z
" transform="scale(0.015625)"/>
       <path id="DejaVuSans-2b" d="M 2944 4013 
L 2944 2272 
L 4684 2272 
L 4684 1741 
L 2944 1741 
L 2944 0 
L 2419 0 
L 2419 1741 
L 678 1741 
L 678 2272 
L 2419 2272 
L 2419 4013 
L 2944 4013 
z
" transform="scale(0.015625)"/>
       <path id="DejaVuSans-2e" d="M 684 794 
L 1344 794 
L 1344 0 
L 684 0 
L 684 794 
z
" transform="scale(0.015625)"/>
      </defs>
      <use xlink:href="#DejaVuSans-6d"/>
      <use xlink:href="#DejaVuSans-61" transform="translate(97.412109 0)"/>
      <use xlink:href="#DejaVuSans-6a" transform="translate(158.691406 0)"/>
      <use xlink:href="#DejaVuSans-6f" transform="translate(186.474609 0)"/>
      <use xlink:href="#DejaVuSans-72" transform="translate(247.65625 0)"/>
      <use xlink:href="#DejaVuSans-69" transform="translate(288.769531 0)"/>
      <use xlink:href="#DejaVuSans-74" transform="translate(316.552734 0)"/>
      <use xlink:href="#DejaVuSans-79" transform="translate(355.761719 0)"/>
      <use xlink:href="#DejaVuSans-20" transform="translate(414.941406 0)"/>
      <use xlink:href="#DejaVuSans-32" transform="translate(446.728516 0)"/>
      <use xlink:href="#DejaVuSans-30" transform="translate(510.351562 0)"/>
      <use xlink:href="#DejaVuSans-32" transform="translate(573.974609 0)"/>
      <use xlink:href="#DejaVuSans-36" transform="translate(637.597656 0)"/>
      <use xlink:href="#DejaVuSans-20" transform="translate(701.220703 0)"/>
      <use xlink:href="#DejaVuSans-63" transform="translate(733.007812 0)"/>
      <use xlink:href="#DejaVuSans-61" transform="translate(787.988281 0)"/>
      <use xlink:href="#DejaVuSans-6e" transform="translate(849.267578 0)"/>
      <use xlink:href="#DejaVuSans-6f" transform="translate(912.646484 0)"/>
      <use xlink:href="#DejaVuSans-6e" transform="translate(973.828125 0)"/>
      <use xlink:href="#DejaVuSans-69" transform="translate(1037.207031 0)"/>
      <use xlink:href="#DejaVuSans-63" transform="translate(1064.990234 0)"/>
      <use xlink:href="#DejaVuSans-61" transform="translate(1119.970703 0)"/>
      <use xlink:href="#DejaVuSans-6c" transform="translate(1181.25 0)"/>
      <use xlink:href="#DejaVuSans-3a" transform="translate(1209.033203 0)"/>
      <use xlink:href="#DejaVuSans-20" transform="translate(1242.724609 0)"/>
      <use xlink:href="#DejaVuSans-2b" transform="translate(1274.511719 0)"/>
      <use xlink:href="#DejaVuSans-32" transform="translate(1358.300781 0)"/>
      <use xlink:href="#DejaVuSans-38" transform="translate(1421.923828 0)"/>
      <use xlink:href="#DejaVuSans-32" transform="translate(1485.546875 0)"/>
      <use xlink:href="#DejaVuSans-36" transform="translate(1549.169922 0)"/>
      <use xlink:href="#DejaVuSans-2e" transform="translate(1612.792969 0)"/>
      <use xlink:href="#DejaVuSans-38" transform="translate(1644.580078 0)"/>
      <use xlink:href="#DejaVuSans-39" transform="translate(1708.203125 0)"/>
      <use xlink:href="#DejaVuSans-34" transform="translate(1771.826172 0)"/>
      <use xlink:href="#DejaVuSans-35" transform="translate(1835.449219 0)"/>
      <use xlink:href="#DejaVuSans-20" transform="translate(1899.072266 0)"/>
      <use xlink:href="#DejaVuSans-20" transform="translate(1930.859375 0)"/>
      <use xlink:href="#DejaVuSans-28" transform="translate(1962.646484 0)"/>
      <use xlink:href="#DejaVuSans-70" transform="translate(2001.660156 0)"/>
      <use xlink:href="#DejaVuSans-31" transform="translate(2065.136719 0)"/>
      <use xlink:href="#DejaVuSans-36" transform="translate(2128.759766 0)"/>
      <use xlink:href="#DejaVuSans-2e" transform="translate(2192.382812 0)"/>
      <use xlink:href="#DejaVuSans-36" transform="translate(2224.169922 0)"/>
      <use xlink:href="#DejaVuSans-29" transform="translate(2287.792969 0)"/>
     </g>
    </g>
    <g id="line2d_24">
     <path d="M 386.065601 67.046156 
L 395.065601 67.046156 
L 404.065601 67.046156 
" style="fill: none; stroke: #000000; stroke-width: 2.2; stroke-linecap: square"/>
    </g>
    <g id="text_20">
     <!-- minority 2026 canonical: +3938.1069  (p99.3) -->
     <g transform="translate(411.265601 70.196156) scale(0.09 -0.09)">
      <use xlink:href="#DejaVuSans-6d"/>
      <use xlink:href="#DejaVuSans-69" transform="translate(97.412109 0)"/>
      <use xlink:href="#DejaVuSans-6e" transform="translate(125.195312 0)"/>
      <use xlink:href="#DejaVuSans-6f" transform="translate(188.574219 0)"/>
      <use xlink:href="#DejaVuSans-72" transform="translate(249.755859 0)"/>
      <use xlink:href="#DejaVuSans-69" transform="translate(290.869141 0)"/>
      <use xlink:href="#DejaVuSans-74" transform="translate(318.652344 0)"/>
      <use xlink:href="#DejaVuSans-79" transform="translate(357.861328 0)"/>
      <use xlink:href="#DejaVuSans-20" transform="translate(417.041016 0)"/>
      <use xlink:href="#DejaVuSans-32" transform="translate(448.828125 0)"/>
      <use xlink:href="#DejaVuSans-30" transform="translate(512.451172 0)"/>
      <use xlink:href="#DejaVuSans-32" transform="translate(576.074219 0)"/>
      <use xlink:href="#DejaVuSans-36" transform="translate(639.697266 0)"/>
      <use xlink:href="#DejaVuSans-20" transform="translate(703.320312 0)"/>
      <use xlink:href="#DejaVuSans-63" transform="translate(735.107422 0)"/>
      <use xlink:href="#DejaVuSans-61" transform="translate(790.087891 0)"/>
      <use xlink:href="#DejaVuSans-6e" transform="translate(851.367188 0)"/>
      <use xlink:href="#DejaVuSans-6f" transform="translate(914.746094 0)"/>
      <use xlink:href="#DejaVuSans-6e" transform="translate(975.927734 0)"/>
      <use xlink:href="#DejaVuSans-69" transform="translate(1039.306641 0)"/>
      <use xlink:href="#DejaVuSans-63" transform="translate(1067.089844 0)"/>
      <use xlink:href="#DejaVuSans-61" transform="translate(1122.070312 0)"/>
      <use xlink:href="#DejaVuSans-6c" transform="translate(1183.349609 0)"/>
      <use xlink:href="#DejaVuSans-3a" transform="translate(1211.132812 0)"/>
      <use xlink:href="#DejaVuSans-20" transform="translate(1244.824219 0)"/>
      <use xlink:href="#DejaVuSans-2b" transform="translate(1276.611328 0)"/>
      <use xlink:href="#DejaVuSans-33" transform="translate(1360.400391 0)"/>
      <use xlink:href="#DejaVuSans-39" transform="translate(1424.023438 0)"/>
      <use xlink:href="#DejaVuSans-33" transform="translate(1487.646484 0)"/>
      <use xlink:href="#DejaVuSans-38" transform="translate(1551.269531 0)"/>
      <use xlink:href="#DejaVuSans-2e" transform="translate(1614.892578 0)"/>
      <use xlink:href="#DejaVuSans-31" transform="translate(1646.679688 0)"/>
      <use xlink:href="#DejaVuSans-30" transform="translate(1710.302734 0)"/>
      <use xlink:href="#DejaVuSans-36" transform="translate(1773.925781 0)"/>
      <use xlink:href="#DejaVuSans-39" transform="translate(1837.548828 0)"/>
      <use xlink:href="#DejaVuSans-20" transform="translate(1901.171875 0)"/>
      <use xlink:href="#DejaVuSans-20" transform="translate(1932.958984 0)"/>
      <use xlink:href="#DejaVuSans-28" transform="translate(1964.746094 0)"/>
      <use xlink:href="#DejaVuSans-70" transform="translate(2003.759766 0)"/>
      <use xlink:href="#DejaVuSans-39" transform="translate(2067.236328 0)"/>
      <use xlink:href="#DejaVuSans-39" transform="translate(2130.859375 0)"/>
      <use xlink:href="#DejaVuSans-2e" transform="translate(2194.482422 0)"/>
      <use xlink:href="#DejaVuSans-33" transform="translate(2226.269531 0)"/>
      <use xlink:href="#DejaVuSans-29" transform="translate(2289.892578 0)"/>
     </g>
    </g>
   </g>
  </g>
 </g>
 <defs>
  <clipPath id="pe2311e3656">
   <rect x="57.17" y="42.04725" width="571.797163" height="311.8915"/>
  </clipPath>
 </defs>
</svg>
