<?xml version="1.0" encoding="utf-8" standalone="no"?>
<!DOCTYPE svg PUBLIC "-//W3C//DTD SVG 1.1//EN"
  "http://www.w3.org/Graphics/SVG/1.1/DTD/svg11.dtd">
<svg xmlns:xlink="http://www.w3.org/1999/xlink" width="648pt" height="324pt" viewBox="0 0 648 324" xmlns="http://www.w3.org/2000/svg" version="1.1">
 <metadata>
  <rdf:RDF xmlns:dc="http://purl.org/dc/elements/1.1/" xmlns:cc="http://creativecommons.org/ns#" xmlns:rdf="http://www.w3.org/1999/02/22-rdf-syntax-ns#">
   <cc:Work>
    <dc:type rdf:resource="http://purl.org/dc/dcmitype/StillImage"/>
    <dc:date>2026-05-07T00:11:14.279124</dc:date>
    <dc:format>image/svg+xml</dc:format>
    <dc:creator>
     <cc:Agent>
      <dc:title>Matplotlib v3.10.8, https://matplotlib.org/</dc:title>
     </cc:Agent>
    </dc:creator>
   </cc:Work>
  </rdf:RDF>
 </metadata>
 <defs>
  <style type="text/css">*{stroke-linejoin: round; stroke-linecap: butt}</style>
 </defs>
 <g id="figure_1">
  <g id="patch_1">
   <path d="M 0 324 
L 648 324 
L 648 0 
L 0 0 
z
" style="fill: #ffffff"/>
  </g>
  <g id="axes_1">
   <g id="patch_2">
    <path d="M 54.03125 282.04 
L 637.2 282.04 
L 637.2 26.88 
L 54.03125 26.88 
z
" style="fill: #ffffff"/>
   </g>
   <g id="matplotlib.axis_1">
    <g id="xtick_1">
     <g id="line2d_1">
      <path d="M 80.528317 282.04 
L 80.528317 26.88 
" clip-path="url(#paf0456fcab)" style="fill: none; stroke-dasharray: 0.5,0.825; stroke-dashoffset: 0; stroke: #b0b0b0; stroke-opacity: 0.6; stroke-width: 0.5"/>
     </g>
     <g id="line2d_2">
      <defs>
       <path id="mbc4c1c3642" d="M 0 0 
L 0 3.5 
" style="stroke: #000000; stroke-width: 0.8"/>
      </defs>
      <g>
       <use xlink:href="#mbc4c1c3642" x="80.528317" y="282.04" style="stroke: #000000; stroke-width: 0.8"/>
      </g>
     </g>
     <g id="text_1">
      <!-- 0 -->
      <g transform="translate(77.347067 296.638438) scale(0.1 -0.1)">
       <defs>
        <path id="DejaVuSans-30" d="M 2034 4250 
Q 1547 4250 1301 3770 
Q 1056 3291 1056 2328 
Q 1056 1369 1301 889 
Q 1547 409 2034 409 
Q 2525 409 2770 889 
Q 3016 1369 3016 2328 
Q 3016 3291 2770 3770 
Q 2525 4250 2034 4250 
z
M 2034 4750 
Q 2819 4750 3233 4129 
Q 3647 3509 3647 2328 
Q 3647 1150 3233 529 
Q 2819 -91 2034 -91 
Q 1250 -91 836 529 
Q 422 1150 422 2328 
Q 422 3509 836 4129 
Q 1250 4750 2034 4750 
z
" transform="scale(0.015625)"/>
       </defs>
       <use xlink:href="#DejaVuSans-30"/>
      </g>
     </g>
    </g>
    <g id="xtick_2">
     <g id="line2d_3">
      <path d="M 186.56112 282.04 
L 186.56112 26.88 
" clip-path="url(#paf0456fcab)" style="fill: none; stroke-dasharray: 0.5,0.825; stroke-dashoffset: 0; stroke: #b0b0b0; stroke-opacity: 0.6; stroke-width: 0.5"/>
     </g>
     <g id="line2d_4">
      <g>
       <use xlink:href="#mbc4c1c3642" x="186.56112" y="282.04" style="stroke: #000000; stroke-width: 0.8"/>
      </g>
     </g>
     <g id="text_2">
      <!-- 10000 -->
      <g transform="translate(170.65487 296.638438) scale(0.1 -0.1)">
       <defs>
        <path id="DejaVuSans-31" d="M 794 531 
L 1825 531 
L 1825 4091 
L 703 3866 
L 703 4441 
L 1819 4666 
L 2450 4666 
L 2450 531 
L 3481 531 
L 3481 0 
L 794 0 
L 794 531 
z
" transform="scale(0.015625)"/>
       </defs>
       <use xlink:href="#DejaVuSans-31"/>
       <use xlink:href="#DejaVuSans-30" transform="translate(63.623047 0)"/>
       <use xlink:href="#DejaVuSans-30" transform="translate(127.246094 0)"/>
       <use xlink:href="#DejaVuSans-30" transform="translate(190.869141 0)"/>
       <use xlink:href="#DejaVuSans-30" transform="translate(254.492188 0)"/>
      </g>
     </g>
    </g>
    <g id="xtick_3">
     <g id="line2d_5">
      <path d="M 292.593922 282.04 
L 292.593922 26.88 
" clip-path="url(#paf0456fcab)" style="fill: none; stroke-dasharray: 0.5,0.825; stroke-dashoffset: 0; stroke: #b0b0b0; stroke-opacity: 0.6; stroke-width: 0.5"/>
     </g>
     <g id="line2d_6">
      <g>
       <use xlink:href="#mbc4c1c3642" x="292.593922" y="282.04" style="stroke: #000000; stroke-width: 0.8"/>
      </g>
     </g>
     <g id="text_3">
      <!-- 20000 -->
      <g transform="translate(276.687672 296.638438) scale(0.1 -0.1)">
       <defs>
        <path id="DejaVuSans-32" d="M 1228 531 
L 3431 531 
L 3431 0 
L 469 0 
L 469 531 
Q 828 903 1448 1529 
Q 2069 2156 2228 2338 
Q 2531 2678 2651 2914 
Q 2772 3150 2772 3378 
Q 2772 3750 2511 3984 
Q 2250 4219 1831 4219 
Q 1534 4219 1204 4116 
Q 875 4013 500 3803 
L 500 4441 
Q 881 4594 1212 4672 
Q 1544 4750 1819 4750 
Q 2544 4750 2975 4387 
Q 3406 4025 3406 3419 
Q 3406 3131 3298 2873 
Q 3191 2616 2906 2266 
Q 2828 2175 2409 1742 
Q 1991 1309 1228 531 
z
" transform="scale(0.015625)"/>
       </defs>
       <use xlink:href="#DejaVuSans-32"/>
       <use xlink:href="#DejaVuSans-30" transform="translate(63.623047 0)"/>
       <use xlink:href="#DejaVuSans-30" transform="translate(127.246094 0)"/>
       <use xlink:href="#DejaVuSans-30" transform="translate(190.869141 0)"/>
       <use xlink:href="#DejaVuSans-30" transform="translate(254.492188 0)"/>
      </g>
     </g>
    </g>
    <g id="xtick_4">
     <g id="line2d_7">
      <path d="M 398.626725 282.04 
L 398.626725 26.88 
" clip-path="url(#paf0456fcab)" style="fill: none; stroke-dasharray: 0.5,0.825; stroke-dashoffset: 0; stroke: #b0b0b0; stroke-opacity: 0.6; stroke-width: 0.5"/>
     </g>
     <g id="line2d_8">
      <g>
       <use xlink:href="#mbc4c1c3642" x="398.626725" y="282.04" style="stroke: #000000; stroke-width: 0.8"/>
      </g>
     </g>
     <g id="text_4">
      <!-- 30000 -->
      <g transform="translate(382.720475 296.638438) scale(0.1 -0.1)">
       <defs>
        <path id="DejaVuSans-33" d="M 2597 2516 
Q 3050 2419 3304 2112 
Q 3559 1806 3559 1356 
Q 3559 666 3084 287 
Q 2609 -91 1734 -91 
Q 1441 -91 1130 -33 
Q 819 25 488 141 
L 488 750 
Q 750 597 1062 519 
Q 1375 441 1716 441 
Q 2309 441 2620 675 
Q 2931 909 2931 1356 
Q 2931 1769 2642 2001 
Q 2353 2234 1838 2234 
L 1294 2234 
L 1294 2753 
L 1863 2753 
Q 2328 2753 2575 2939 
Q 2822 3125 2822 3475 
Q 2822 3834 2567 4026 
Q 2313 4219 1838 4219 
Q 1578 4219 1281 4162 
Q 984 4106 628 3988 
L 628 4550 
Q 988 4650 1302 4700 
Q 1616 4750 1894 4750 
Q 2613 4750 3031 4423 
Q 3450 4097 3450 3541 
Q 3450 3153 3228 2886 
Q 3006 2619 2597 2516 
z
" transform="scale(0.015625)"/>
       </defs>
       <use xlink:href="#DejaVuSans-33"/>
       <use xlink:href="#DejaVuSans-30" transform="translate(63.623047 0)"/>
       <use xlink:href="#DejaVuSans-30" transform="translate(127.246094 0)"/>
       <use xlink:href="#DejaVuSans-30" transform="translate(190.869141 0)"/>
       <use xlink:href="#DejaVuSans-30" transform="translate(254.492188 0)"/>
      </g>
     </g>
    </g>
    <g id="xtick_5">
     <g id="line2d_9">
      <path d="M 504.659527 282.04 
L 504.659527 26.88 
" clip-path="url(#paf0456fcab)" style="fill: none; stroke-dasharray: 0.5,0.825; stroke-dashoffset: 0; stroke: #b0b0b0; stroke-opacity: 0.6; stroke-width: 0.5"/>
     </g>
     <g id="line2d_10">
      <g>
       <use xlink:href="#mbc4c1c3642" x="504.659527" y="282.04" style="stroke: #000000; stroke-width: 0.8"/>
      </g>
     </g>
     <g id="text_5">
      <!-- 40000 -->
      <g transform="translate(488.753277 296.638438) scale(0.1 -0.1)">
       <defs>
        <path id="DejaVuSans-34" d="M 2419 4116 
L 825 1625 
L 2419 1625 
L 2419 4116 
z
M 2253 4666 
L 3047 4666 
L 3047 1625 
L 3713 1625 
L 3713 1100 
L 3047 1100 
L 3047 0 
L 2419 0 
L 2419 1100 
L 313 1100 
L 313 1709 
L 2253 4666 
z
" transform="scale(0.015625)"/>
       </defs>
       <use xlink:href="#DejaVuSans-34"/>
       <use xlink:href="#DejaVuSans-30" transform="translate(63.623047 0)"/>
       <use xlink:href="#DejaVuSans-30" transform="translate(127.246094 0)"/>
       <use xlink:href="#DejaVuSans-30" transform="translate(190.869141 0)"/>
       <use xlink:href="#DejaVuSans-30" transform="translate(254.492188 0)"/>
      </g>
     </g>
    </g>
    <g id="xtick_6">
     <g id="line2d_11">
      <path d="M 610.69233 282.04 
L 610.69233 26.88 
" clip-path="url(#paf0456fcab)" style="fill: none; stroke-dasharray: 0.5,0.825; stroke-dashoffset: 0; stroke: #b0b0b0; stroke-opacity: 0.6; stroke-width: 0.5"/>
     </g>
     <g id="line2d_12">
      <g>
       <use xlink:href="#mbc4c1c3642" x="610.69233" y="282.04" style="stroke: #000000; stroke-width: 0.8"/>
      </g>
     </g>
     <g id="text_6">
      <!-- 50000 -->
      <g transform="translate(594.78608 296.638438) scale(0.1 -0.1)">
       <defs>
        <path id="DejaVuSans-35" d="M 691 4666 
L 3169 4666 
L 3169 4134 
L 1269 4134 
L 1269 2991 
Q 1406 3038 1543 3061 
Q 1681 3084 1819 3084 
Q 2600 3084 3056 2656 
Q 3513 2228 3513 1497 
Q 3513 744 3044 326 
Q 2575 -91 1722 -91 
Q 1428 -91 1123 -41 
Q 819 9 494 109 
L 494 744 
Q 775 591 1075 516 
Q 1375 441 1709 441 
Q 2250 441 2565 725 
Q 2881 1009 2881 1497 
Q 2881 1984 2565 2268 
Q 2250 2553 1709 2553 
Q 1456 2553 1204 2497 
Q 953 2441 691 2322 
L 691 4666 
z
" transform="scale(0.015625)"/>
       </defs>
       <use xlink:href="#DejaVuSans-35"/>
       <use xlink:href="#DejaVuSans-30" transform="translate(63.623047 0)"/>
       <use xlink:href="#DejaVuSans-30" transform="translate(127.246094 0)"/>
       <use xlink:href="#DejaVuSans-30" transform="translate(190.869141 0)"/>
       <use xlink:href="#DejaVuSans-30" transform="translate(254.492188 0)"/>
      </g>
     </g>
    </g>
    <g id="text_7">
     <!-- Sample index -->
     <g transform="translate(311.597656 310.316563) scale(0.1 -0.1)">
      <defs>
       <path id="DejaVuSans-53" d="M 3425 4513 
L 3425 3897 
Q 3066 4069 2747 4153 
Q 2428 4238 2131 4238 
Q 1616 4238 1336 4038 
Q 1056 3838 1056 3469 
Q 1056 3159 1242 3001 
Q 1428 2844 1947 2747 
L 2328 2669 
Q 3034 2534 3370 2195 
Q 3706 1856 3706 1288 
Q 3706 609 3251 259 
Q 2797 -91 1919 -91 
Q 1588 -91 1214 -16 
Q 841 59 441 206 
L 441 856 
Q 825 641 1194 531 
Q 1563 422 1919 422 
Q 2459 422 2753 634 
Q 3047 847 3047 1241 
Q 3047 1584 2836 1778 
Q 2625 1972 2144 2069 
L 1759 2144 
Q 1053 2284 737 2584 
Q 422 2884 422 3419 
Q 422 4038 858 4394 
Q 1294 4750 2059 4750 
Q 2388 4750 2728 4690 
Q 3069 4631 3425 4513 
z
" transform="scale(0.015625)"/>
       <path id="DejaVuSans-61" d="M 2194 1759 
Q 1497 1759 1228 1600 
Q 959 1441 959 1056 
Q 959 750 1161 570 
Q 1363 391 1709 391 
Q 2188 391 2477 730 
Q 2766 1069 2766 1631 
L 2766 1759 
L 2194 1759 
z
M 3341 1997 
L 3341 0 
L 2766 0 
L 2766 531 
Q 2569 213 2275 61 
Q 1981 -91 1556 -91 
Q 1019 -91 701 211 
Q 384 513 384 1019 
Q 384 1609 779 1909 
Q 1175 2209 1959 2209 
L 2766 2209 
L 2766 2266 
Q 2766 2663 2505 2880 
Q 2244 3097 1772 3097 
Q 1472 3097 1187 3025 
Q 903 2953 641 2809 
L 641 3341 
Q 956 3463 1253 3523 
Q 1550 3584 1831 3584 
Q 2591 3584 2966 3190 
Q 3341 2797 3341 1997 
z
" transform="scale(0.015625)"/>
       <path id="DejaVuSans-6d" d="M 3328 2828 
Q 3544 3216 3844 3400 
Q 4144 3584 4550 3584 
Q 5097 3584 5394 3201 
Q 5691 2819 5691 2113 
L 5691 0 
L 5113 0 
L 5113 2094 
Q 5113 2597 4934 2840 
Q 4756 3084 4391 3084 
Q 3944 3084 3684 2787 
Q 3425 2491 3425 1978 
L 3425 0 
L 2847 0 
L 2847 2094 
Q 2847 2600 2669 2842 
Q 2491 3084 2119 3084 
Q 1678 3084 1418 2786 
Q 1159 2488 1159 1978 
L 1159 0 
L 581 0 
L 581 3500 
L 1159 3500 
L 1159 2956 
Q 1356 3278 1631 3431 
Q 1906 3584 2284 3584 
Q 2666 3584 2933 3390 
Q 3200 3197 3328 2828 
z
" transform="scale(0.015625)"/>
       <path id="DejaVuSans-70" d="M 1159 525 
L 1159 -1331 
L 581 -1331 
L 581 3500 
L 1159 3500 
L 1159 2969 
Q 1341 3281 1617 3432 
Q 1894 3584 2278 3584 
Q 2916 3584 3314 3078 
Q 3713 2572 3713 1747 
Q 3713 922 3314 415 
Q 2916 -91 2278 -91 
Q 1894 -91 1617 61 
Q 1341 213 1159 525 
z
M 3116 1747 
Q 3116 2381 2855 2742 
Q 2594 3103 2138 3103 
Q 1681 3103 1420 2742 
Q 1159 2381 1159 1747 
Q 1159 1113 1420 752 
Q 1681 391 2138 391 
Q 2594 391 2855 752 
Q 3116 1113 3116 1747 
z
" transform="scale(0.015625)"/>
       <path id="DejaVuSans-6c" d="M 603 4863 
L 1178 4863 
L 1178 0 
L 603 0 
L 603 4863 
z
" transform="scale(0.015625)"/>
       <path id="DejaVuSans-65" d="M 3597 1894 
L 3597 1613 
L 953 1613 
Q 991 1019 1311 708 
Q 1631 397 2203 397 
Q 2534 397 2845 478 
Q 3156 559 3463 722 
L 3463 178 
Q 3153 47 2828 -22 
Q 2503 -91 2169 -91 
Q 1331 -91 842 396 
Q 353 884 353 1716 
Q 353 2575 817 3079 
Q 1281 3584 2069 3584 
Q 2775 3584 3186 3129 
Q 3597 2675 3597 1894 
z
M 3022 2063 
Q 3016 2534 2758 2815 
Q 2500 3097 2075 3097 
Q 1594 3097 1305 2825 
Q 1016 2553 972 2059 
L 3022 2063 
z
" transform="scale(0.015625)"/>
       <path id="DejaVuSans-20" transform="scale(0.015625)"/>
       <path id="DejaVuSans-69" d="M 603 3500 
L 1178 3500 
L 1178 0 
L 603 0 
L 603 3500 
z
M 603 4863 
L 1178 4863 
L 1178 4134 
L 603 4134 
L 603 4863 
z
" transform="scale(0.015625)"/>
       <path id="DejaVuSans-6e" d="M 3513 2113 
L 3513 0 
L 2938 0 
L 2938 2094 
Q 2938 2591 2744 2837 
Q 2550 3084 2163 3084 
Q 1697 3084 1428 2787 
Q 1159 2491 1159 1978 
L 1159 0 
L 581 0 
L 581 3500 
L 1159 3500 
L 1159 2956 
Q 1366 3272 1645 3428 
Q 1925 3584 2291 3584 
Q 2894 3584 3203 3211 
Q 3513 2838 3513 2113 
z
" transform="scale(0.015625)"/>
       <path id="DejaVuSans-64" d="M 2906 2969 
L 2906 4863 
L 3481 4863 
L 3481 0 
L 2906 0 
L 2906 525 
Q 2725 213 2448 61 
Q 2172 -91 1784 -91 
Q 1150 -91 751 415 
Q 353 922 353 1747 
Q 353 2572 751 3078 
Q 1150 3584 1784 3584 
Q 2172 3584 2448 3432 
Q 2725 3281 2906 2969 
z
M 947 1747 
Q 947 1113 1208 752 
Q 1469 391 1925 391 
Q 2381 391 2643 752 
Q 2906 1113 2906 1747 
Q 2906 2381 2643 2742 
Q 2381 3103 1925 3103 
Q 1469 3103 1208 2742 
Q 947 2381 947 1747 
z
" transform="scale(0.015625)"/>
       <path id="DejaVuSans-78" d="M 3513 3500 
L 2247 1797 
L 3578 0 
L 2900 0 
L 1881 1375 
L 863 0 
L 184 0 
L 1544 1831 
L 300 3500 
L 978 3500 
L 1906 2253 
L 2834 3500 
L 3513 3500 
z
" transform="scale(0.015625)"/>
      </defs>
      <use xlink:href="#DejaVuSans-53"/>
      <use xlink:href="#DejaVuSans-61" transform="translate(63.476562 0)"/>
      <use xlink:href="#DejaVuSans-6d" transform="translate(124.755859 0)"/>
      <use xlink:href="#DejaVuSans-70" transform="translate(222.167969 0)"/>
      <use xlink:href="#DejaVuSans-6c" transform="translate(285.644531 0)"/>
      <use xlink:href="#DejaVuSans-65" transform="translate(313.427734 0)"/>
      <use xlink:href="#DejaVuSans-20" transform="translate(374.951172 0)"/>
      <use xlink:href="#DejaVuSans-69" transform="translate(406.738281 0)"/>
      <use xlink:href="#DejaVuSans-6e" transform="translate(434.521484 0)"/>
      <use xlink:href="#DejaVuSans-64" transform="translate(497.900391 0)"/>
      <use xlink:href="#DejaVuSans-65" transform="translate(561.376953 0)"/>
      <use xlink:href="#DejaVuSans-78" transform="translate(621.150391 0)"/>
     </g>
    </g>
   </g>
   <g id="matplotlib.axis_2">
    <g id="ytick_1">
     <g id="line2d_13">
      <path d="M 54.03125 248.178777 
L 637.2 248.178777 
" clip-path="url(#paf0456fcab)" style="fill: none; stroke-dasharray: 0.5,0.825; stroke-dashoffset: 0; stroke: #b0b0b0; stroke-opacity: 0.6; stroke-width: 0.5"/>
     </g>
     <g id="line2d_14">
      <defs>
       <path id="me65bf48ee5" d="M 0 0 
L -3.5 0 
" style="stroke: #000000; stroke-width: 0.8"/>
      </defs>
      <g>
       <use xlink:href="#me65bf48ee5" x="54.03125" y="248.178777" style="stroke: #000000; stroke-width: 0.8"/>
      </g>
     </g>
     <g id="text_8">
      <!-- 0.42 -->
      <g transform="translate(24.765625 251.977995) scale(0.1 -0.1)">
       <defs>
        <path id="DejaVuSans-2e" d="M 684 794 
L 1344 794 
L 1344 0 
L 684 0 
L 684 794 
z
" transform="scale(0.015625)"/>
       </defs>
       <use xlink:href="#DejaVuSans-30"/>
       <use xlink:href="#DejaVuSans-2e" transform="translate(63.623047 0)"/>
       <use xlink:href="#DejaVuSans-34" transform="translate(95.410156 0)"/>
       <use xlink:href="#DejaVuSans-32" transform="translate(159.033203 0)"/>
      </g>
     </g>
    </g>
    <g id="ytick_2">
     <g id="line2d_15">
      <path d="M 54.03125 192.46595 
L 637.2 192.46595 
" clip-path="url(#paf0456fcab)" style="fill: none; stroke-dasharray: 0.5,0.825; stroke-dashoffset: 0; stroke: #b0b0b0; stroke-opacity: 0.6; stroke-width: 0.5"/>
     </g>
     <g id="line2d_16">
      <g>
       <use xlink:href="#me65bf48ee5" x="54.03125" y="192.46595" style="stroke: #000000; stroke-width: 0.8"/>
      </g>
     </g>
     <g id="text_9">
      <!-- 0.43 -->
      <g transform="translate(24.765625 196.265169) scale(0.1 -0.1)">
       <use xlink:href="#DejaVuSans-30"/>
       <use xlink:href="#DejaVuSans-2e" transform="translate(63.623047 0)"/>
       <use xlink:href="#DejaVuSans-34" transform="translate(95.410156 0)"/>
       <use xlink:href="#DejaVuSans-33" transform="translate(159.033203 0)"/>
      </g>
     </g>
    </g>
    <g id="ytick_3">
     <g id="line2d_17">
      <path d="M 54.03125 136.753124 
L 637.2 136.753124 
" clip-path="url(#paf0456fcab)" style="fill: none; stroke-dasharray: 0.5,0.825; stroke-dashoffset: 0; stroke: #b0b0b0; stroke-opacity: 0.6; stroke-width: 0.5"/>
     </g>
     <g id="line2d_18">
      <g>
       <use xlink:href="#me65bf48ee5" x="54.03125" y="136.753124" style="stroke: #000000; stroke-width: 0.8"/>
      </g>
     </g>
     <g id="text_10">
      <!-- 0.44 -->
      <g transform="translate(24.765625 140.552342) scale(0.1 -0.1)">
       <use xlink:href="#DejaVuSans-30"/>
       <use xlink:href="#DejaVuSans-2e" transform="translate(63.623047 0)"/>
       <use xlink:href="#DejaVuSans-34" transform="translate(95.410156 0)"/>
       <use xlink:href="#DejaVuSans-34" transform="translate(159.033203 0)"/>
      </g>
     </g>
    </g>
    <g id="ytick_4">
     <g id="line2d_19">
      <path d="M 54.03125 81.040297 
L 637.2 81.040297 
" clip-path="url(#paf0456fcab)" style="fill: none; stroke-dasharray: 0.5,0.825; stroke-dashoffset: 0; stroke: #b0b0b0; stroke-opacity: 0.6; stroke-width: 0.5"/>
     </g>
     <g id="line2d_20">
      <g>
       <use xlink:href="#me65bf48ee5" x="54.03125" y="81.040297" style="stroke: #000000; stroke-width: 0.8"/>
      </g>
     </g>
     <g id="text_11">
      <!-- 0.45 -->
      <g transform="translate(24.765625 84.839516) scale(0.1 -0.1)">
       <use xlink:href="#DejaVuSans-30"/>
       <use xlink:href="#DejaVuSans-2e" transform="translate(63.623047 0)"/>
       <use xlink:href="#DejaVuSans-34" transform="translate(95.410156 0)"/>
       <use xlink:href="#DejaVuSans-35" transform="translate(159.033203 0)"/>
      </g>
     </g>
    </g>
    <g id="text_12">
     <!-- Running mean of reock_proxy_median -->
     <g transform="translate(18.407813 250.119375) rotate(-90) scale(0.1 -0.1)">
      <defs>
       <path id="DejaVuSans-52" d="M 2841 2188 
Q 3044 2119 3236 1894 
Q 3428 1669 3622 1275 
L 4263 0 
L 3584 0 
L 2988 1197 
Q 2756 1666 2539 1819 
Q 2322 1972 1947 1972 
L 1259 1972 
L 1259 0 
L 628 0 
L 628 4666 
L 2053 4666 
Q 2853 4666 3247 4331 
Q 3641 3997 3641 3322 
Q 3641 2881 3436 2590 
Q 3231 2300 2841 2188 
z
M 1259 4147 
L 1259 2491 
L 2053 2491 
Q 2509 2491 2742 2702 
Q 2975 2913 2975 3322 
Q 2975 3731 2742 3939 
Q 2509 4147 2053 4147 
L 1259 4147 
z
" transform="scale(0.015625)"/>
       <path id="DejaVuSans-75" d="M 544 1381 
L 544 3500 
L 1119 3500 
L 1119 1403 
Q 1119 906 1312 657 
Q 1506 409 1894 409 
Q 2359 409 2629 706 
Q 2900 1003 2900 1516 
L 2900 3500 
L 3475 3500 
L 3475 0 
L 2900 0 
L 2900 538 
Q 2691 219 2414 64 
Q 2138 -91 1772 -91 
Q 1169 -91 856 284 
Q 544 659 544 1381 
z
M 1991 3584 
L 1991 3584 
z
" transform="scale(0.015625)"/>
       <path id="DejaVuSans-67" d="M 2906 1791 
Q 2906 2416 2648 2759 
Q 2391 3103 1925 3103 
Q 1463 3103 1205 2759 
Q 947 2416 947 1791 
Q 947 1169 1205 825 
Q 1463 481 1925 481 
Q 2391 481 2648 825 
Q 2906 1169 2906 1791 
z
M 3481 434 
Q 3481 -459 3084 -895 
Q 2688 -1331 1869 -1331 
Q 1566 -1331 1297 -1286 
Q 1028 -1241 775 -1147 
L 775 -588 
Q 1028 -725 1275 -790 
Q 1522 -856 1778 -856 
Q 2344 -856 2625 -561 
Q 2906 -266 2906 331 
L 2906 616 
Q 2728 306 2450 153 
Q 2172 0 1784 0 
Q 1141 0 747 490 
Q 353 981 353 1791 
Q 353 2603 747 3093 
Q 1141 3584 1784 3584 
Q 2172 3584 2450 3431 
Q 2728 3278 2906 2969 
L 2906 3500 
L 3481 3500 
L 3481 434 
z
" transform="scale(0.015625)"/>
       <path id="DejaVuSans-6f" d="M 1959 3097 
Q 1497 3097 1228 2736 
Q 959 2375 959 1747 
Q 959 1119 1226 758 
Q 1494 397 1959 397 
Q 2419 397 2687 759 
Q 2956 1122 2956 1747 
Q 2956 2369 2687 2733 
Q 2419 3097 1959 3097 
z
M 1959 3584 
Q 2709 3584 3137 3096 
Q 3566 2609 3566 1747 
Q 3566 888 3137 398 
Q 2709 -91 1959 -91 
Q 1206 -91 779 398 
Q 353 888 353 1747 
Q 353 2609 779 3096 
Q 1206 3584 1959 3584 
z
" transform="scale(0.015625)"/>
       <path id="DejaVuSans-66" d="M 2375 4863 
L 2375 4384 
L 1825 4384 
Q 1516 4384 1395 4259 
Q 1275 4134 1275 3809 
L 1275 3500 
L 2222 3500 
L 2222 3053 
L 1275 3053 
L 1275 0 
L 697 0 
L 697 3053 
L 147 3053 
L 147 3500 
L 697 3500 
L 697 3744 
Q 697 4328 969 4595 
Q 1241 4863 1831 4863 
L 2375 4863 
z
" transform="scale(0.015625)"/>
       <path id="DejaVuSans-72" d="M 2631 2963 
Q 2534 3019 2420 3045 
Q 2306 3072 2169 3072 
Q 1681 3072 1420 2755 
Q 1159 2438 1159 1844 
L 1159 0 
L 581 0 
L 581 3500 
L 1159 3500 
L 1159 2956 
Q 1341 3275 1631 3429 
Q 1922 3584 2338 3584 
Q 2397 3584 2469 3576 
Q 2541 3569 2628 3553 
L 2631 2963 
z
" transform="scale(0.015625)"/>
       <path id="DejaVuSans-63" d="M 3122 3366 
L 3122 2828 
Q 2878 2963 2633 3030 
Q 2388 3097 2138 3097 
Q 1578 3097 1268 2742 
Q 959 2388 959 1747 
Q 959 1106 1268 751 
Q 1578 397 2138 397 
Q 2388 397 2633 464 
Q 2878 531 3122 666 
L 3122 134 
Q 2881 22 2623 -34 
Q 2366 -91 2075 -91 
Q 1284 -91 818 406 
Q 353 903 353 1747 
Q 353 2603 823 3093 
Q 1294 3584 2113 3584 
Q 2378 3584 2631 3529 
Q 2884 3475 3122 3366 
z
" transform="scale(0.015625)"/>
       <path id="DejaVuSans-6b" d="M 581 4863 
L 1159 4863 
L 1159 1991 
L 2875 3500 
L 3609 3500 
L 1753 1863 
L 3688 0 
L 2938 0 
L 1159 1709 
L 1159 0 
L 581 0 
L 581 4863 
z
" transform="scale(0.015625)"/>
       <path id="DejaVuSans-5f" d="M 3263 -1063 
L 3263 -1509 
L -63 -1509 
L -63 -1063 
L 3263 -1063 
z
" transform="scale(0.015625)"/>
       <path id="DejaVuSans-79" d="M 2059 -325 
Q 1816 -950 1584 -1140 
Q 1353 -1331 966 -1331 
L 506 -1331 
L 506 -850 
L 844 -850 
Q 1081 -850 1212 -737 
Q 1344 -625 1503 -206 
L 1606 56 
L 191 3500 
L 800 3500 
L 1894 763 
L 2988 3500 
L 3597 3500 
L 2059 -325 
z
" transform="scale(0.015625)"/>
      </defs>
      <use xlink:href="#DejaVuSans-52"/>
      <use xlink:href="#DejaVuSans-75" transform="translate(64.982422 0)"/>
      <use xlink:href="#DejaVuSans-6e" transform="translate(128.361328 0)"/>
      <use xlink:href="#DejaVuSans-6e" transform="translate(191.740234 0)"/>
      <use xlink:href="#DejaVuSans-69" transform="translate(255.119141 0)"/>
      <use xlink:href="#DejaVuSans-6e" transform="translate(282.902344 0)"/>
      <use xlink:href="#DejaVuSans-67" transform="translate(346.28125 0)"/>
      <use xlink:href="#DejaVuSans-20" transform="translate(409.757812 0)"/>
      <use xlink:href="#DejaVuSans-6d" transform="translate(441.544922 0)"/>
      <use xlink:href="#DejaVuSans-65" transform="translate(538.957031 0)"/>
      <use xlink:href="#DejaVuSans-61" transform="translate(600.480469 0)"/>
      <use xlink:href="#DejaVuSans-6e" transform="translate(661.759766 0)"/>
      <use xlink:href="#DejaVuSans-20" transform="translate(725.138672 0)"/>
      <use xlink:href="#DejaVuSans-6f" transform="translate(756.925781 0)"/>
      <use xlink:href="#DejaVuSans-66" transform="translate(818.107422 0)"/>
      <use xlink:href="#DejaVuSans-20" transform="translate(853.3125 0)"/>
      <use xlink:href="#DejaVuSans-72" transform="translate(885.099609 0)"/>
      <use xlink:href="#DejaVuSans-65" transform="translate(923.962891 0)"/>
      <use xlink:href="#DejaVuSans-6f" transform="translate(985.486328 0)"/>
      <use xlink:href="#DejaVuSans-63" transform="translate(1046.667969 0)"/>
      <use xlink:href="#DejaVuSans-6b" transform="translate(1101.648438 0)"/>
      <use xlink:href="#DejaVuSans-5f" transform="translate(1159.558594 0)"/>
      <use xlink:href="#DejaVuSans-70" transform="translate(1209.558594 0)"/>
      <use xlink:href="#DejaVuSans-72" transform="translate(1273.035156 0)"/>
      <use xlink:href="#DejaVuSans-6f" transform="translate(1311.898438 0)"/>
      <use xlink:href="#DejaVuSans-78" transform="translate(1369.955078 0)"/>
      <use xlink:href="#DejaVuSans-79" transform="translate(1429.134766 0)"/>
      <use xlink:href="#DejaVuSans-5f" transform="translate(1488.314453 0)"/>
      <use xlink:href="#DejaVuSans-6d" transform="translate(1538.314453 0)"/>
      <use xlink:href="#DejaVuSans-65" transform="translate(1635.726562 0)"/>
      <use xlink:href="#DejaVuSans-64" transform="translate(1697.25 0)"/>
      <use xlink:href="#DejaVuSans-69" transform="translate(1760.726562 0)"/>
      <use xlink:href="#DejaVuSans-61" transform="translate(1788.509766 0)"/>
      <use xlink:href="#DejaVuSans-6e" transform="translate(1849.789062 0)"/>
     </g>
    </g>
   </g>
   <g id="line2d_21">
    <path d="M 80.53892 270.441818 
L 80.66616 256.29592 
L 80.814606 246.220174 
L 81.016068 238.128585 
L 81.037275 238.384302 
L 81.175117 241.153623 
L 81.450803 248.720211 
L 81.546232 252.053213 
L 81.694678 251.342572 
L 81.917347 247.517868 
L 82.108206 245.755948 
L 82.129412 245.77917 
L 82.224842 245.997737 
L 82.235445 245.85745 
L 82.479321 241.321433 
L 82.882245 221.604795 
L 83.200344 210.218959 
L 83.582062 199.64507 
L 83.910764 184.597641 
L 84.218259 182.613251 
L 84.260672 182.755268 
L 84.366705 183.230596 
L 84.430324 182.955654 
L 84.451531 182.865988 
L 84.515151 183.061382 
L 84.568167 183.219509 
L 84.61058 183.038096 
L 85.002901 181.016767 
L 85.172554 179.663317 
L 85.236174 178.893174 
L 85.554272 174.911828 
L 85.851164 173.225678 
L 86.307105 168.534801 
L 86.444948 169.730983 
L 86.593393 171.805993 
L 86.67822 171.46751 
L 86.699426 171.315141 
L 86.731236 171.705914 
L 87.462862 179.778014 
L 87.484069 179.607823 
L 87.982423 174.853131 
L 88.289918 169.166532 
L 88.661033 164.731186 
L 88.756463 163.773443 
L 89.32904 156.079689 
L 89.891014 152.718242 
L 90.092476 152.097584 
L 90.262128 151.247591 
L 90.887722 147.544316 
L 90.940738 147.628468 
L 91.067978 148.114657 
L 91.36487 150.09257 
L 91.619348 151.357091 
L 91.672365 151.501741 
L 91.704175 151.330796 
L 91.958653 149.371982 
L 92.032876 148.234894 
L 92.711486 138.242105 
L 93.199237 131.931175 
L 93.644575 125.761977 
L 94.174739 121.873034 
L 94.376201 121.361354 
L 94.651886 120.112044 
L 95.107828 115.474867 
L 95.30929 114.090971 
L 95.691008 112.379659 
L 95.89247 111.602501 
L 96.252982 109.937718 
L 96.995211 104.190906 
L 97.546582 101.623042 
L 97.779854 100.6838 
L 98.214589 98.778623 
L 98.225192 98.827163 
L 98.384241 99.649779 
L 98.469067 99.467436 
L 98.765959 98.939757 
L 98.818976 99.099624 
L 98.946215 99.112236 
L 99.19009 99.233531 
L 99.465776 98.097426 
L 100.154989 94.51915 
L 101.809101 88.556577 
L 101.99996 87.588174 
L 104.311475 69.210285 
L 104.671986 66.279784 
L 105.011291 62.279666 
L 105.562662 56.764721 
L 106.336701 51.706811 
L 106.538164 51.446715 
L 106.941088 51.025284 
L 107.163757 50.663582 
L 107.799954 50.455306 
L 108.669423 49.429566 
L 108.913298 49.033463 
L 108.998125 48.896842 
L 109.061744 48.982931 
L 109.252603 49.117568 
L 109.422256 49.194913 
L 109.454066 49.142309 
L 109.613115 48.886031 
L 109.687338 48.952355 
L 110.461377 49.766096 
L 110.482584 49.734965 
L 110.970335 49.207204 
L 111.256623 49.142997 
L 111.839804 48.231456 
L 112.210919 47.500426 
L 112.380571 47.405993 
L 112.783496 47.017695 
L 113.271247 46.294853 
L 113.684775 45.44546 
L 113.854427 45.598751 
L 114.246748 46.015769 
L 114.267955 45.995752 
L 114.596657 45.82247 
L 114.628466 45.81149 
L 114.63907 45.763585 
L 114.649673 45.751082 
L 115.010185 44.626144 
L 115.614572 43.191211 
L 115.805431 43.116085 
L 115.943273 43.106715 
L 116.102322 42.911934 
L 116.494644 43.084069 
L 116.621883 43.021977 
L 116.844552 42.774765 
L 117.19446 42.057337 
L 117.618591 41.026848 
L 118.222978 39.818025 
L 118.413837 39.71379 
L 118.594093 39.648857 
L 118.816762 39.486162 
L 118.912192 39.420476 
L 119.113654 39.122008 
L 119.177274 39.185797 
L 119.336323 39.223762 
L 119.516579 39.195956 
L 119.728644 39.117801 
L 119.951313 39.259665 
L 120.173982 39.611611 
L 120.49208 39.354247 
L 120.937418 38.787182 
L 121.276723 38.493168 
L 121.382756 38.557798 
L 121.753871 39.193948 
L 122.697563 40.872149 
L 122.983851 40.948478 
L 123.121694 40.91623 
L 123.842717 40.564179 
L 124.266848 41.26751 
L 124.606153 41.00467 
L 124.786409 40.863111 
L 125.581655 40.504371 
L 125.804324 40.304446 
L 126.239058 39.694442 
L 126.260265 39.718324 
L 126.514744 39.974 
L 126.56776 39.907574 
L 126.917668 39.647333 
L 127.119131 39.586913 
L 127.92498 40.119055 
L 128.052219 40.238192 
L 128.370318 40.494506 
L 128.50816 40.598516 
L 128.677813 40.696106 
L 128.868672 40.59816 
L 129.15496 40.42619 
L 129.420042 40.19732 
L 129.653315 40.064115 
L 129.99262 39.541784 
L 130.384941 39.424604 
L 130.766659 39.826185 
L 130.819675 39.754212 
L 130.968121 39.561578 
L 131.031741 39.65146 
L 131.307426 39.893216 
L 131.922417 40.447932 
L 132.304135 41.260222 
L 132.505597 41.595687 
L 133.385669 43.550552 
L 133.671958 44.0544 
L 134.923145 47.407644 
L 135.803217 49.351057 
L 136.089506 50.081036 
L 136.386398 50.476393 
L 136.746909 51.054316 
L 136.884752 51.171366 
L 137.88146 52.28991 
L 138.867565 54.124523 
L 139.20687 54.480847 
L 139.408332 54.328122 
L 139.832464 54.029271 
L 140.553487 54.85747 
L 140.797362 55.009132 
L 141.094254 55.256722 
L 141.391146 55.924808 
L 141.82588 57.271204 
L 142.218202 58.196866 
L 142.780176 58.65429 
L 143.108877 58.653672 
L 143.363356 58.860844 
L 143.787487 59.531088 
L 144.126792 60.141441 
L 145.261343 60.407809 
L 146.459514 60.08719 
L 146.63977 60.149255 
L 146.809422 59.972793 
L 147.180537 59.606865 
L 147.466825 59.610927 
L 148.177245 59.769151 
L 148.410517 59.38647 
L 149.036111 58.363696 
L 149.725324 57.711298 
L 149.947993 57.555719 
L 150.181265 57.348138 
L 150.55238 57.259065 
L 151.008321 57.335101 
L 151.273403 57.10302 
L 151.379436 56.870623 
L 151.580898 56.595598 
L 152.217095 56.21167 
L 152.874498 55.843867 
L 153.150184 55.675309 
L 153.712157 55.038793 
L 154.242321 54.349752 
L 154.56042 54.398351 
L 155.366269 54.397051 
L 156.458407 53.550335 
L 157.030984 53.568638 
L 157.221843 53.405355 
L 157.349083 53.374698 
L 157.79442 53.586566 
L 158.059502 53.673546 
L 158.420014 53.667583 
L 158.897161 53.661735 
L 160.275588 53.576174 
L 160.657306 53.992078 
L 160.795149 53.921915 
L 160.922388 53.972723 
L 161.664618 55.134143 
L 161.844873 55.208499 
L 162.650723 55.254993 
L 163.085457 55.13573 
L 163.403556 54.924459 
L 163.880703 55.021059 
L 164.071562 55.233374 
L 164.400264 55.369655 
L 164.644139 55.503389 
L 165.1637 55.767944 
L 165.77869 55.572369 
L 166.160408 55.078074 
L 166.372474 54.935257 
L 166.754192 54.77281 
L 168.015982 54.545852 
L 169.288376 54.471643 
L 170.189655 55.37852 
L 170.454737 55.586676 
L 171.11214 56.113167 
L 171.345412 55.987878 
L 171.515065 56.026924 
L 172.405741 57.125319 
L 172.426947 57.101819 
L 172.628409 57.039832 
L 173.21159 57.264214 
L 173.466069 56.939477 
L 173.847787 56.573752 
L 174.081059 56.571136 
L 174.452174 56.252307 
L 175.067164 55.531847 
L 175.565518 55.040029 
L 176.095682 54.774575 
L 176.551623 55.043865 
L 177.039374 55.265265 
L 177.80281 55.33534 
L 178.301164 55.08125 
L 178.587453 54.894373 
L 178.969171 54.457093 
L 179.372096 54.007035 
L 179.615971 54.061404 
L 179.965879 54.143387 
L 180.941381 54.115516 
L 182.277394 53.908952 
L 182.55308 54.045014 
L 182.722732 54.096808 
L 182.966608 54.135962 
L 184.175382 54.033283 
L 184.853992 54.213984 
L 185.617428 54.657274 
L 185.871906 54.812694 
L 187.313953 55.662783 
L 187.462398 55.608039 
L 187.844117 55.357141 
L 188.777205 54.667799 
L 188.999874 54.706265 
L 189.593658 54.840755 
L 190.44192 54.728937 
L 190.866051 54.398735 
L 191.15234 54.185077 
L 191.968793 53.146058 
L 192.350511 52.801402 
L 194.54539 51.697136 
L 194.810472 51.485316 
L 195.181586 51.275451 
L 196.231311 50.929645 
L 196.719062 50.760007 
L 197.312846 50.913972 
L 197.74758 50.877676 
L 198.648859 50.661143 
L 199.210833 50.589562 
L 199.7516 50.686902 
L 200.143922 50.521414 
L 200.377194 50.418383 
L 201.225456 50.633413 
L 201.999496 51.040519 
L 202.731122 51.182288 
L 203.452145 51.273948 
L 203.812657 51.469749 
L 204.788158 52.119553 
L 205.413752 52.385564 
L 205.933313 52.667763 
L 206.262014 52.432526 
L 206.940624 52.009836 
L 207.21631 51.98408 
L 208.743182 52.503084 
L 209.347569 52.787139 
L 209.86713 52.792799 
L 210.48212 52.740372 
L 210.609359 52.827369 
L 211.521241 53.727089 
L 212.115025 53.742855 
L 212.401314 53.709052 
L 213.079924 53.456868 
L 213.641897 53.386974 
L 214.596193 52.987439 
L 215.497471 52.823704 
L 216.472973 52.967788 
L 216.674436 52.991428 
L 217.406062 52.744488 
L 217.628731 52.783283 
L 217.840796 52.81731 
L 218.349754 52.897579 
L 218.954141 52.844078 
L 219.17681 52.930312 
L 219.643354 53.015436 
L 220.247741 52.848819 
L 220.565839 52.679701 
L 222.50624 52.267503 
L 223.036404 52.22262 
L 224.149748 51.614803 
L 224.637499 51.273047 
L 227.701847 49.992368 
L 228.5183 50.581152 
L 228.847001 50.549503 
L 229.228719 50.40616 
L 229.896726 49.996678 
L 230.543526 49.631717 
L 231.656871 49.279861 
L 232.589959 49.325092 
L 233.204949 49.515241 
L 233.565461 49.812985 
L 234.032005 50.190218 
L 234.392517 50.204474 
L 235.007507 50.109565 
L 235.85577 50.499088 
L 236.248091 50.464228 
L 236.767652 50.700312 
L 237.223593 50.780316 
L 237.446262 50.936786 
L 237.902203 51.276056 
L 238.676242 51.700632 
L 239.386662 52.127244 
L 239.778983 52.32597 
L 240.553023 52.921072 
L 242.079895 53.257164 
L 242.525233 53.344457 
L 242.885744 53.374297 
L 243.882453 53.76622 
L 244.688302 54.676022 
L 245.451738 55.520509 
L 247.78446 57.483452 
L 248.728152 57.260523 
L 249.056853 57.234626 
L 249.735463 57.07333 
L 250.456486 57.053479 
L 251.940946 57.047824 
L 252.206028 57.074442 
L 252.746795 57.167736 
L 253.255752 57.303119 
L 253.489025 57.307019 
L 253.849536 57.480374 
L 254.793228 58.09305 
L 255.227963 58.459669 
L 255.991399 58.866709 
L 256.627596 59.119554 
L 257.698527 58.990197 
L 258.090848 59.003138 
L 258.38774 58.867288 
L 258.769458 58.696551 
L 259.214796 58.768809 
L 259.967629 59.234241 
L 260.48719 59.533419 
L 261.409675 59.854023 
L 262.045872 60.035404 
L 262.247334 60.008707 
L 263.81662 59.689894 
L 264.46342 59.762642 
L 265.089013 59.702091 
L 265.332889 59.671024 
L 265.863053 59.405894 
L 266.30839 59.125056 
L 267.08243 58.832054 
L 269.913506 58.709577 
L 270.464876 58.865335 
L 271.323742 58.860376 
L 271.663047 58.816166 
L 272.097781 59.008548 
L 272.914234 59.197312 
L 273.423191 59.288435 
L 276.901067 59.954087 
L 277.250976 59.865503 
L 277.664504 59.874055 
L 278.512766 59.823527 
L 279.233789 59.75379 
L 279.62611 59.807033 
L 280.018432 59.913285 
L 281.407461 60.359462 
L 283.369068 60.539992 
L 283.941645 60.938564 
L 285.362485 61.971115 
L 286.306177 62.250498 
L 287.440728 62.380613 
L 287.928479 62.407207 
L 288.278387 62.348314 
L 288.93579 61.897413 
L 289.264492 61.623128 
L 289.815863 61.466872 
L 290.070341 61.455985 
L 290.526282 61.428997 
L 290.812571 61.558926 
L 291.554801 61.763273 
L 292.880211 61.751544 
L 293.304342 61.757395 
L 293.71787 61.694101 
L 294.523719 61.537234 
L 294.799404 61.50324 
L 295.584047 61.485625 
L 296.570152 60.907242 
L 297.11092 60.637816 
L 297.59867 60.483858 
L 298.150041 60.539669 
L 299.486054 60.905022 
L 299.963202 61.010278 
L 300.387333 61.351898 
L 301.490074 62.245326 
L 301.776363 62.188491 
L 302.158081 62.205645 
L 303.684953 62.186808 
L 304.798298 61.535964 
L 305.795006 61.412487 
L 307.417308 61.061171 
L 308.774528 60.800291 
L 309.389518 60.599111 
L 310.969407 60.35474 
L 312.867394 60.575719 
L 313.56721 60.849056 
L 314.595729 60.995628 
L 314.98805 60.886998 
L 315.369768 60.897449 
L 315.952949 60.826008 
L 317.002673 60.469992 
L 317.70249 60.492894 
L 318.31748 60.517852 
L 319.717113 60.74214 
L 320.098831 60.970377 
L 321.180366 61.833271 
L 321.901389 62.094936 
L 324.043251 62.30973 
L 324.573415 62.305899 
L 325.994255 62.263521 
L 326.312353 62.241694 
L 327.574144 62.157286 
L 328.475422 61.404075 
L 329.429718 60.543585 
L 330.712715 60.153299 
L 331.009606 59.967144 
L 331.688216 59.659099 
L 331.963902 59.667772 
L 332.822767 59.70262 
L 333.618013 59.831349 
L 335.229712 60.44049 
L 336.003751 60.745198 
L 336.90503 60.941258 
L 338.103201 61.06273 
L 338.750001 61.11055 
L 340.88126 61.931936 
L 341.400821 62.12055 
L 342.556579 62.277572 
L 343.04433 62.584123 
L 344.231897 63.002292 
L 345.504291 63.400245 
L 345.970835 63.525992 
L 346.543412 63.731459 
L 347.094783 63.790257 
L 348.483812 63.88601 
L 350.265163 64.446206 
L 350.774121 64.64175 
L 351.081616 64.537282 
L 351.760226 64.105159 
L 352.343406 63.807236 
L 354.32622 63.241816 
L 355.810679 63.105628 
L 357.083073 62.542976 
L 357.846509 62.560357 
L 359.394588 62.400667 
L 359.861132 62.437294 
L 360.317073 62.299224 
L 360.560949 62.181368 
L 361.048699 61.970701 
L 361.50464 61.891219 
L 362.066614 61.901085 
L 363.349611 61.327736 
L 363.943395 61.107701 
L 364.388733 61.075795 
L 364.855277 61.041707 
L 365.480871 60.9257 
L 366.944123 61.053735 
L 368.036261 61.021995 
L 369.626753 61.398575 
L 371.779219 61.719613 
L 373.019803 61.647726 
L 375.267698 62.526006 
L 378.141187 63.917029 
L 379.816505 64.178034 
L 380.845024 64.18394 
L 381.926558 64.109317 
L 382.827837 63.798331 
L 383.230762 63.87074 
L 383.686703 63.917612 
L 386.87829 63.398399 
L 387.260008 63.342137 
L 388.892913 63.257546 
L 389.444284 63.209231 
L 391.204428 63.37365 
L 392.964573 63.110273 
L 393.50534 62.932316 
L 394.130934 62.87796 
L 396.262193 62.598389 
L 397.555793 62.073277 
L 398.138974 61.874134 
L 398.467675 61.789567 
L 398.96603 61.607313 
L 399.623433 61.369981 
L 399.994548 61.400448 
L 400.885223 61.702772 
L 405.836955 61.222147 
L 407.650116 61.376219 
L 408.636221 61.420366 
L 411.085579 62.18613 
L 411.54152 62.262135 
L 412.464005 62.487905 
L 413.185028 62.671788 
L 415.008793 62.555832 
L 417.044622 62.026594 
L 417.765645 62.142567 
L 421.487397 61.673353 
L 423.512623 61.493662 
L 424.975876 61.642844 
L 425.802932 61.809645 
L 427.107135 61.714685 
L 429.164172 61.34115 
L 429.779162 61.228171 
L 430.107864 61.16499 
L 430.818283 61.09666 
L 433.49031 60.929062 
L 434.688481 61.300764 
L 435.218645 61.340437 
L 435.854842 61.419468 
L 437.477143 60.995535 
L 440.11736 60.672184 
L 440.605111 60.634633 
L 441.919918 60.390695 
L 442.980246 59.980719 
L 443.733079 59.92111 
L 444.878233 59.992842 
L 446.235453 60.023852 
L 446.606568 60.057928 
L 448.642398 60.741977 
L 449.172562 60.736633 
L 450.529781 60.437356 
L 451.388647 60.214623 
L 452.215703 60.143528 
L 453.116982 60.194601 
L 454.219723 60.139776 
L 456.350982 60.097328 
L 458.005094 59.816029 
L 459.023009 59.563817 
L 459.553173 59.387818 
L 460.06213 59.213166 
L 462.893206 58.886915 
L 463.677849 58.957595 
L 464.769987 59.020667 
L 465.607646 59.089563 
L 466.275653 59.192403 
L 467.198138 59.264817 
L 468.799233 59.402819 
L 469.573273 59.522554 
L 470.336709 59.343995 
L 471.959011 58.717089 
L 473.740362 58.883646 
L 475.309647 59.231373 
L 476.179116 59.385006 
L 476.762297 59.642656 
L 477.695385 59.914386 
L 481.003609 59.815812 
L 482.986422 60.102492 
L 483.283314 60.082347 
L 484.311832 60.024947 
L 486.199216 60.395551 
L 488.468318 61.139067 
L 489.284771 61.198026 
L 491.161551 61.137519 
L 492.115847 61.370035 
L 492.995919 61.603622 
L 493.632116 61.646889 
L 494.968129 61.6189 
L 497.926444 62.195963 
L 498.520228 62.328199 
L 499.198838 62.492722 
L 500.6939 62.999324 
L 503.980917 63.866197 
L 507.087678 63.856752 
L 510.045993 63.316699 
L 511.222958 63.535726 
L 514.372132 63.42069 
L 515.135568 63.597974 
L 515.994434 63.639342 
L 517.828801 63.552984 
L 519.186021 63.652864 
L 521.391503 64.132692 
L 523.575779 64.318308 
L 525.526783 64.267902 
L 526.226599 64.329444 
L 526.703747 64.26166 
L 529.534823 63.705962 
L 531.920561 63.528642 
L 533.086921 63.308081 
L 534.221472 63.454461 
L 535.069735 63.508301 
L 536.013427 63.376224 
L 536.808673 63.454088 
L 539.660955 63.784584 
L 540.286549 63.908893 
L 541.378687 64.307588 
L 542.205742 64.462114 
L 544.538464 64.753251 
L 546.998425 64.668309 
L 547.867894 64.644297 
L 548.737363 64.583083 
L 550.190012 64.331056 
L 550.868622 64.315088 
L 551.451803 64.341533 
L 552.278859 64.26929 
L 553.614872 63.933841 
L 555.735528 64.044359 
L 556.127849 64.023648 
L 557.559292 63.824025 
L 561.694572 63.034129 
L 563.359287 62.623083 
L 564.112119 62.379028 
L 564.801333 62.157388 
L 566.370618 62.103174 
L 567.37793 62.041127 
L 568.342828 62.009514 
L 571.195111 62.319801 
L 572.838619 62.513998 
L 573.612659 62.348879 
L 574.74721 62.215776 
L 576.68761 62.205085 
L 577.387426 62.250195 
L 580.260915 62.2947 
L 581.968043 62.267623 
L 583.802411 62.345121 
L 584.205335 62.325725 
L 585.085408 62.201947 
L 586.050306 62.209877 
L 588.117946 61.998714 
L 588.67992 61.954751 
L 590.270412 61.727294 
L 593.705875 61.862734 
L 597.21556 61.406896 
L 598.996911 61.611769 
L 600.152669 61.501401 
L 600.969122 61.487986 
L 601.912814 61.457708 
L 603.598735 61.572076 
L 606.408604 61.806285 
L 609.451746 61.83054 
L 610.618107 61.890826 
L 610.69233 61.899222 
L 610.69233 61.899222 
" clip-path="url(#paf0456fcab)" style="fill: none; stroke: #1f2937; stroke-linecap: square"/>
   </g>
   <g id="line2d_22">
    <path d="M 54.03125 61.899222 
L 637.2 61.899222 
" clip-path="url(#paf0456fcab)" style="fill: none; stroke-dasharray: 2.96,1.28; stroke-dashoffset: 0; stroke: #888888; stroke-width: 0.8"/>
   </g>
   <g id="patch_3">
    <path d="M 54.03125 282.04 
L 54.03125 26.88 
" style="fill: none; stroke: #000000; stroke-width: 0.8; stroke-linejoin: miter; stroke-linecap: square"/>
   </g>
   <g id="patch_4">
    <path d="M 637.2 282.04 
L 637.2 26.88 
" style="fill: none; stroke: #000000; stroke-width: 0.8; stroke-linejoin: miter; stroke-linecap: square"/>
   </g>
   <g id="patch_5">
    <path d="M 54.03125 282.04 
L 637.2 282.04 
" style="fill: none; stroke: #000000; stroke-width: 0.8; stroke-linejoin: miter; stroke-linecap: square"/>
   </g>
   <g id="patch_6">
    <path d="M 54.03125 26.88 
L 637.2 26.88 
" style="fill: none; stroke: #000000; stroke-width: 0.8; stroke-linejoin: miter; stroke-linecap: square"/>
   </g>
   <g id="text_13">
    <!-- Running mean — reock_proxy_median  (100k ReCom samples, seed 42) -->
    <g transform="translate(129.460937 20.88) scale(0.12 -0.12)">
     <defs>
      <path id="DejaVuSans-2014" d="M 313 1978 
L 6088 1978 
L 6088 1528 
L 313 1528 
L 313 1978 
z
" transform="scale(0.015625)"/>
      <path id="DejaVuSans-28" d="M 1984 4856 
Q 1566 4138 1362 3434 
Q 1159 2731 1159 2009 
Q 1159 1288 1364 580 
Q 1569 -128 1984 -844 
L 1484 -844 
Q 1016 -109 783 600 
Q 550 1309 550 2009 
Q 550 2706 781 3412 
Q 1013 4119 1484 4856 
L 1984 4856 
z
" transform="scale(0.015625)"/>
      <path id="DejaVuSans-43" d="M 4122 4306 
L 4122 3641 
Q 3803 3938 3442 4084 
Q 3081 4231 2675 4231 
Q 1875 4231 1450 3742 
Q 1025 3253 1025 2328 
Q 1025 1406 1450 917 
Q 1875 428 2675 428 
Q 3081 428 3442 575 
Q 3803 722 4122 1019 
L 4122 359 
Q 3791 134 3420 21 
Q 3050 -91 2638 -91 
Q 1578 -91 968 557 
Q 359 1206 359 2328 
Q 359 3453 968 4101 
Q 1578 4750 2638 4750 
Q 3056 4750 3426 4639 
Q 3797 4528 4122 4306 
z
" transform="scale(0.015625)"/>
      <path id="DejaVuSans-73" d="M 2834 3397 
L 2834 2853 
Q 2591 2978 2328 3040 
Q 2066 3103 1784 3103 
Q 1356 3103 1142 2972 
Q 928 2841 928 2578 
Q 928 2378 1081 2264 
Q 1234 2150 1697 2047 
L 1894 2003 
Q 2506 1872 2764 1633 
Q 3022 1394 3022 966 
Q 3022 478 2636 193 
Q 2250 -91 1575 -91 
Q 1294 -91 989 -36 
Q 684 19 347 128 
L 347 722 
Q 666 556 975 473 
Q 1284 391 1588 391 
Q 1994 391 2212 530 
Q 2431 669 2431 922 
Q 2431 1156 2273 1281 
Q 2116 1406 1581 1522 
L 1381 1569 
Q 847 1681 609 1914 
Q 372 2147 372 2553 
Q 372 3047 722 3315 
Q 1072 3584 1716 3584 
Q 2034 3584 2315 3537 
Q 2597 3491 2834 3397 
z
" transform="scale(0.015625)"/>
      <path id="DejaVuSans-2c" d="M 750 794 
L 1409 794 
L 1409 256 
L 897 -744 
L 494 -744 
L 750 256 
L 750 794 
z
" transform="scale(0.015625)"/>
      <path id="DejaVuSans-29" d="M 513 4856 
L 1013 4856 
Q 1481 4119 1714 3412 
Q 1947 2706 1947 2009 
Q 1947 1309 1714 600 
Q 1481 -109 1013 -844 
L 513 -844 
Q 928 -128 1133 580 
Q 1338 1288 1338 2009 
Q 1338 2731 1133 3434 
Q 928 4138 513 4856 
z
" transform="scale(0.015625)"/>
     </defs>
     <use xlink:href="#DejaVuSans-52"/>
     <use xlink:href="#DejaVuSans-75" transform="translate(64.982422 0)"/>
     <use xlink:href="#DejaVuSans-6e" transform="translate(128.361328 0)"/>
     <use xlink:href="#DejaVuSans-6e" transform="translate(191.740234 0)"/>
     <use xlink:href="#DejaVuSans-69" transform="translate(255.119141 0)"/>
     <use xlink:href="#DejaVuSans-6e" transform="translate(282.902344 0)"/>
     <use xlink:href="#DejaVuSans-67" transform="translate(346.28125 0)"/>
     <use xlink:href="#DejaVuSans-20" transform="translate(409.757812 0)"/>
     <use xlink:href="#DejaVuSans-6d" transform="translate(441.544922 0)"/>
     <use xlink:href="#DejaVuSans-65" transform="translate(538.957031 0)"/>
     <use xlink:href="#DejaVuSans-61" transform="translate(600.480469 0)"/>
     <use xlink:href="#DejaVuSans-6e" transform="translate(661.759766 0)"/>
     <use xlink:href="#DejaVuSans-20" transform="translate(725.138672 0)"/>
     <use xlink:href="#DejaVuSans-2014" transform="translate(756.925781 0)"/>
     <use xlink:href="#DejaVuSans-20" transform="translate(856.925781 0)"/>
     <use xlink:href="#DejaVuSans-72" transform="translate(888.712891 0)"/>
     <use xlink:href="#DejaVuSans-65" transform="translate(927.576172 0)"/>
     <use xlink:href="#DejaVuSans-6f" transform="translate(989.099609 0)"/>
     <use xlink:href="#DejaVuSans-63" transform="translate(1050.28125 0)"/>
     <use xlink:href="#DejaVuSans-6b" transform="translate(1105.261719 0)"/>
     <use xlink:href="#DejaVuSans-5f" transform="translate(1163.171875 0)"/>
     <use xlink:href="#DejaVuSans-70" transform="translate(1213.171875 0)"/>
     <use xlink:href="#DejaVuSans-72" transform="translate(1276.648438 0)"/>
     <use xlink:href="#DejaVuSans-6f" transform="translate(1315.511719 0)"/>
     <use xlink:href="#DejaVuSans-78" transform="translate(1373.568359 0)"/>
     <use xlink:href="#DejaVuSans-79" transform="translate(1432.748047 0)"/>
     <use xlink:href="#DejaVuSans-5f" transform="translate(1491.927734 0)"/>
     <use xlink:href="#DejaVuSans-6d" transform="translate(1541.927734 0)"/>
     <use xlink:href="#DejaVuSans-65" transform="translate(1639.339844 0)"/>
     <use xlink:href="#DejaVuSans-64" transform="translate(1700.863281 0)"/>
     <use xlink:href="#DejaVuSans-69" transform="translate(1764.339844 0)"/>
     <use xlink:href="#DejaVuSans-61" transform="translate(1792.123047 0)"/>
     <use xlink:href="#DejaVuSans-6e" transform="translate(1853.402344 0)"/>
     <use xlink:href="#DejaVuSans-20" transform="translate(1916.78125 0)"/>
     <use xlink:href="#DejaVuSans-20" transform="translate(1948.568359 0)"/>
     <use xlink:href="#DejaVuSans-28" transform="translate(1980.355469 0)"/>
     <use xlink:href="#DejaVuSans-31" transform="translate(2019.369141 0)"/>
     <use xlink:href="#DejaVuSans-30" transform="translate(2082.992188 0)"/>
     <use xlink:href="#DejaVuSans-30" transform="translate(2146.615234 0)"/>
     <use xlink:href="#DejaVuSans-6b" transform="translate(2210.238281 0)"/>
     <use xlink:href="#DejaVuSans-20" transform="translate(2268.148438 0)"/>
     <use xlink:href="#DejaVuSans-52" transform="translate(2299.935547 0)"/>
     <use xlink:href="#DejaVuSans-65" transform="translate(2364.917969 0)"/>
     <use xlink:href="#DejaVuSans-43" transform="translate(2426.441406 0)"/>
     <use xlink:href="#DejaVuSans-6f" transform="translate(2496.265625 0)"/>
     <use xlink:href="#DejaVuSans-6d" transform="translate(2557.447266 0)"/>
     <use xlink:href="#DejaVuSans-20" transform="translate(2654.859375 0)"/>
     <use xlink:href="#DejaVuSans-73" transform="translate(2686.646484 0)"/>
     <use xlink:href="#DejaVuSans-61" transform="translate(2738.746094 0)"/>
     <use xlink:href="#DejaVuSans-6d" transform="translate(2800.025391 0)"/>
     <use xlink:href="#DejaVuSans-70" transform="translate(2897.4375 0)"/>
     <use xlink:href="#DejaVuSans-6c" transform="translate(2960.914062 0)"/>
     <use xlink:href="#DejaVuSans-65" transform="translate(2988.697266 0)"/>
     <use xlink:href="#DejaVuSans-73" transform="translate(3050.220703 0)"/>
     <use xlink:href="#DejaVuSans-2c" transform="translate(3102.320312 0)"/>
     <use xlink:href="#DejaVuSans-20" transform="translate(3134.107422 0)"/>
     <use xlink:href="#DejaVuSans-73" transform="translate(3165.894531 0)"/>
     <use xlink:href="#DejaVuSans-65" transform="translate(3217.994141 0)"/>
     <use xlink:href="#DejaVuSans-65" transform="translate(3279.517578 0)"/>
     <use xlink:href="#DejaVuSans-64" transform="translate(3341.041016 0)"/>
     <use xlink:href="#DejaVuSans-20" transform="translate(3404.517578 0)"/>
     <use xlink:href="#DejaVuSans-34" transform="translate(3436.304688 0)"/>
     <use xlink:href="#DejaVuSans-32" transform="translate(3499.927734 0)"/>
     <use xlink:href="#DejaVuSans-29" transform="translate(3563.550781 0)"/>
    </g>
   </g>
   <g id="legend_1">
    <g id="patch_7">
     <path d="M 496.306406 47.290312 
L 630.9 47.290312 
Q 632.7 47.290312 632.7 45.490312 
L 632.7 33.18 
Q 632.7 31.38 630.9 31.38 
L 496.306406 31.38 
Q 494.506406 31.38 494.506406 33.18 
L 494.506406 45.490312 
Q 494.506406 47.290312 496.306406 47.290312 
z
" style="fill: #ffffff; opacity: 0.8; stroke: #cccccc; stroke-linejoin: miter"/>
    </g>
    <g id="line2d_23">
     <path d="M 498.106406 38.668594 
L 507.106406 38.668594 
L 516.106406 38.668594 
" style="fill: none; stroke-dasharray: 2.96,1.28; stroke-dashoffset: 0; stroke: #888888; stroke-width: 0.8"/>
    </g>
    <g id="text_14">
     <!-- final mean = +0.45344 -->
     <g transform="translate(523.306406 41.818594) scale(0.09 -0.09)">
      <defs>
       <path id="DejaVuSans-3d" d="M 678 2906 
L 4684 2906 
L 4684 2381 
L 678 2381 
L 678 2906 
z
M 678 1631 
L 4684 1631 
L 4684 1100 
L 678 1100 
L 678 1631 
z
" transform="scale(0.015625)"/>
       <path id="DejaVuSans-2b" d="M 2944 4013 
L 2944 2272 
L 4684 2272 
L 4684 1741 
L 2944 1741 
L 2944 0 
L 2419 0 
L 2419 1741 
L 678 1741 
L 678 2272 
L 2419 2272 
L 2419 4013 
L 2944 4013 
z
" transform="scale(0.015625)"/>
      </defs>
      <use xlink:href="#DejaVuSans-66"/>
      <use xlink:href="#DejaVuSans-69" transform="translate(35.205078 0)"/>
      <use xlink:href="#DejaVuSans-6e" transform="translate(62.988281 0)"/>
      <use xlink:href="#DejaVuSans-61" transform="translate(126.367188 0)"/>
      <use xlink:href="#DejaVuSans-6c" transform="translate(187.646484 0)"/>
      <use xlink:href="#DejaVuSans-20" transform="translate(215.429688 0)"/>
      <use xlink:href="#DejaVuSans-6d" transform="translate(247.216797 0)"/>
      <use xlink:href="#DejaVuSans-65" transform="translate(344.628906 0)"/>
      <use xlink:href="#DejaVuSans-61" transform="translate(406.152344 0)"/>
      <use xlink:href="#DejaVuSans-6e" transform="translate(467.431641 0)"/>
      <use xlink:href="#DejaVuSans-20" transform="translate(530.810547 0)"/>
      <use xlink:href="#DejaVuSans-3d" transform="translate(562.597656 0)"/>
      <use xlink:href="#DejaVuSans-20" transform="translate(646.386719 0)"/>
      <use xlink:href="#DejaVuSans-2b" transform="translate(678.173828 0)"/>
      <use xlink:href="#DejaVuSans-30" transform="translate(761.962891 0)"/>
      <use xlink:href="#DejaVuSans-2e" transform="translate(825.585938 0)"/>
      <use xlink:href="#DejaVuSans-34" transform="translate(857.373047 0)"/>
      <use xlink:href="#DejaVuSans-35" transform="translate(920.996094 0)"/>
      <use xlink:href="#DejaVuSans-33" transform="translate(984.619141 0)"/>
      <use xlink:href="#DejaVuSans-34" transform="translate(1048.242188 0)"/>
      <use xlink:href="#DejaVuSans-34" transform="translate(1111.865234 0)"/>
     </g>
    </g>
   </g>
  </g>
 </g>
 <defs>
  <clipPath id="paf0456fcab">
   <rect x="54.03125" y="26.88" width="583.16875" height="255.16"/>
  </clipPath>
 </defs>
</svg>
