<?xml version="1.0" encoding="utf-8" standalone="no"?>
<!DOCTYPE svg PUBLIC "-//W3C//DTD SVG 1.1//EN"
  "http://www.w3.org/Graphics/SVG/1.1/DTD/svg11.dtd">
<svg xmlns:xlink="http://www.w3.org/1999/xlink" width="648pt" height="324pt" viewBox="0 0 648 324" xmlns="http://www.w3.org/2000/svg" version="1.1">
 <metadata>
  <rdf:RDF xmlns:dc="http://purl.org/dc/elements/1.1/" xmlns:cc="http://creativecommons.org/ns#" xmlns:rdf="http://www.w3.org/1999/02/22-rdf-syntax-ns#">
   <cc:Work>
    <dc:type rdf:resource="http://purl.org/dc/dcmitype/StillImage"/>
    <dc:date>2026-05-12T12:08:05.254283</dc:date>
    <dc:format>image/svg+xml</dc:format>
    <dc:creator>
     <cc:Agent>
      <dc:title>Matplotlib v3.10.8, https://matplotlib.org/</dc:title>
     </cc:Agent>
    </dc:creator>
   </cc:Work>
  </rdf:RDF>
 </metadata>
 <defs>
  <style type="text/css">*{stroke-linejoin: round; stroke-linecap: butt}</style>
 </defs>
 <g id="figure_1">
  <g id="patch_1">
   <path d="M 0 324 
L 648 324 
L 648 0 
L 0 0 
z
" style="fill: #ffffff"/>
  </g>
  <g id="axes_1">
   <g id="patch_2">
    <path d="M 60.42125 282.04 
L 637.2 282.04 
L 637.2 26.88 
L 60.42125 26.88 
z
" style="fill: #ffffff"/>
   </g>
   <g id="matplotlib.axis_1">
    <g id="xtick_1">
     <g id="line2d_1">
      <path d="M 86.633222 282.04 
L 86.633222 26.88 
" clip-path="url(#p85aa82bc6c)" style="fill: none; stroke-dasharray: 0.5,0.825; stroke-dashoffset: 0; stroke: #b0b0b0; stroke-opacity: 0.6; stroke-width: 0.5"/>
     </g>
     <g id="line2d_2">
      <defs>
       <path id="m3c6a27c80c" d="M 0 0 
L 0 3.5 
" style="stroke: #000000; stroke-width: 0.8"/>
      </defs>
      <g>
       <use xlink:href="#m3c6a27c80c" x="86.633222" y="282.04" style="stroke: #000000; stroke-width: 0.8"/>
      </g>
     </g>
     <g id="text_1">
      <!-- 0 -->
      <g transform="translate(83.451972 296.638438) scale(0.1 -0.1)">
       <defs>
        <path id="DejaVuSans-30" d="M 2034 4250 
Q 1547 4250 1301 3770 
Q 1056 3291 1056 2328 
Q 1056 1369 1301 889 
Q 1547 409 2034 409 
Q 2525 409 2770 889 
Q 3016 1369 3016 2328 
Q 3016 3291 2770 3770 
Q 2525 4250 2034 4250 
z
M 2034 4750 
Q 2819 4750 3233 4129 
Q 3647 3509 3647 2328 
Q 3647 1150 3233 529 
Q 2819 -91 2034 -91 
Q 1250 -91 836 529 
Q 422 1150 422 2328 
Q 422 3509 836 4129 
Q 1250 4750 2034 4750 
z
" transform="scale(0.015625)"/>
       </defs>
       <use xlink:href="#DejaVuSans-30"/>
      </g>
     </g>
    </g>
    <g id="xtick_2">
     <g id="line2d_3">
      <path d="M 191.503135 282.04 
L 191.503135 26.88 
" clip-path="url(#p85aa82bc6c)" style="fill: none; stroke-dasharray: 0.5,0.825; stroke-dashoffset: 0; stroke: #b0b0b0; stroke-opacity: 0.6; stroke-width: 0.5"/>
     </g>
     <g id="line2d_4">
      <g>
       <use xlink:href="#m3c6a27c80c" x="191.503135" y="282.04" style="stroke: #000000; stroke-width: 0.8"/>
      </g>
     </g>
     <g id="text_2">
      <!-- 20000 -->
      <g transform="translate(175.596885 296.638438) scale(0.1 -0.1)">
       <defs>
        <path id="DejaVuSans-32" d="M 1228 531 
L 3431 531 
L 3431 0 
L 469 0 
L 469 531 
Q 828 903 1448 1529 
Q 2069 2156 2228 2338 
Q 2531 2678 2651 2914 
Q 2772 3150 2772 3378 
Q 2772 3750 2511 3984 
Q 2250 4219 1831 4219 
Q 1534 4219 1204 4116 
Q 875 4013 500 3803 
L 500 4441 
Q 881 4594 1212 4672 
Q 1544 4750 1819 4750 
Q 2544 4750 2975 4387 
Q 3406 4025 3406 3419 
Q 3406 3131 3298 2873 
Q 3191 2616 2906 2266 
Q 2828 2175 2409 1742 
Q 1991 1309 1228 531 
z
" transform="scale(0.015625)"/>
       </defs>
       <use xlink:href="#DejaVuSans-32"/>
       <use xlink:href="#DejaVuSans-30" transform="translate(63.623047 0)"/>
       <use xlink:href="#DejaVuSans-30" transform="translate(127.246094 0)"/>
       <use xlink:href="#DejaVuSans-30" transform="translate(190.869141 0)"/>
       <use xlink:href="#DejaVuSans-30" transform="translate(254.492188 0)"/>
      </g>
     </g>
    </g>
    <g id="xtick_3">
     <g id="line2d_5">
      <path d="M 296.373047 282.04 
L 296.373047 26.88 
" clip-path="url(#p85aa82bc6c)" style="fill: none; stroke-dasharray: 0.5,0.825; stroke-dashoffset: 0; stroke: #b0b0b0; stroke-opacity: 0.6; stroke-width: 0.5"/>
     </g>
     <g id="line2d_6">
      <g>
       <use xlink:href="#m3c6a27c80c" x="296.373047" y="282.04" style="stroke: #000000; stroke-width: 0.8"/>
      </g>
     </g>
     <g id="text_3">
      <!-- 40000 -->
      <g transform="translate(280.466797 296.638438) scale(0.1 -0.1)">
       <defs>
        <path id="DejaVuSans-34" d="M 2419 4116 
L 825 1625 
L 2419 1625 
L 2419 4116 
z
M 2253 4666 
L 3047 4666 
L 3047 1625 
L 3713 1625 
L 3713 1100 
L 3047 1100 
L 3047 0 
L 2419 0 
L 2419 1100 
L 313 1100 
L 313 1709 
L 2253 4666 
z
" transform="scale(0.015625)"/>
       </defs>
       <use xlink:href="#DejaVuSans-34"/>
       <use xlink:href="#DejaVuSans-30" transform="translate(63.623047 0)"/>
       <use xlink:href="#DejaVuSans-30" transform="translate(127.246094 0)"/>
       <use xlink:href="#DejaVuSans-30" transform="translate(190.869141 0)"/>
       <use xlink:href="#DejaVuSans-30" transform="translate(254.492188 0)"/>
      </g>
     </g>
    </g>
    <g id="xtick_4">
     <g id="line2d_7">
      <path d="M 401.242959 282.04 
L 401.242959 26.88 
" clip-path="url(#p85aa82bc6c)" style="fill: none; stroke-dasharray: 0.5,0.825; stroke-dashoffset: 0; stroke: #b0b0b0; stroke-opacity: 0.6; stroke-width: 0.5"/>
     </g>
     <g id="line2d_8">
      <g>
       <use xlink:href="#m3c6a27c80c" x="401.242959" y="282.04" style="stroke: #000000; stroke-width: 0.8"/>
      </g>
     </g>
     <g id="text_4">
      <!-- 60000 -->
      <g transform="translate(385.336709 296.638438) scale(0.1 -0.1)">
       <defs>
        <path id="DejaVuSans-36" d="M 2113 2584 
Q 1688 2584 1439 2293 
Q 1191 2003 1191 1497 
Q 1191 994 1439 701 
Q 1688 409 2113 409 
Q 2538 409 2786 701 
Q 3034 994 3034 1497 
Q 3034 2003 2786 2293 
Q 2538 2584 2113 2584 
z
M 3366 4563 
L 3366 3988 
Q 3128 4100 2886 4159 
Q 2644 4219 2406 4219 
Q 1781 4219 1451 3797 
Q 1122 3375 1075 2522 
Q 1259 2794 1537 2939 
Q 1816 3084 2150 3084 
Q 2853 3084 3261 2657 
Q 3669 2231 3669 1497 
Q 3669 778 3244 343 
Q 2819 -91 2113 -91 
Q 1303 -91 875 529 
Q 447 1150 447 2328 
Q 447 3434 972 4092 
Q 1497 4750 2381 4750 
Q 2619 4750 2861 4703 
Q 3103 4656 3366 4563 
z
" transform="scale(0.015625)"/>
       </defs>
       <use xlink:href="#DejaVuSans-36"/>
       <use xlink:href="#DejaVuSans-30" transform="translate(63.623047 0)"/>
       <use xlink:href="#DejaVuSans-30" transform="translate(127.246094 0)"/>
       <use xlink:href="#DejaVuSans-30" transform="translate(190.869141 0)"/>
       <use xlink:href="#DejaVuSans-30" transform="translate(254.492188 0)"/>
      </g>
     </g>
    </g>
    <g id="xtick_5">
     <g id="line2d_9">
      <path d="M 506.112872 282.04 
L 506.112872 26.88 
" clip-path="url(#p85aa82bc6c)" style="fill: none; stroke-dasharray: 0.5,0.825; stroke-dashoffset: 0; stroke: #b0b0b0; stroke-opacity: 0.6; stroke-width: 0.5"/>
     </g>
     <g id="line2d_10">
      <g>
       <use xlink:href="#m3c6a27c80c" x="506.112872" y="282.04" style="stroke: #000000; stroke-width: 0.8"/>
      </g>
     </g>
     <g id="text_5">
      <!-- 80000 -->
      <g transform="translate(490.206622 296.638438) scale(0.1 -0.1)">
       <defs>
        <path id="DejaVuSans-38" d="M 2034 2216 
Q 1584 2216 1326 1975 
Q 1069 1734 1069 1313 
Q 1069 891 1326 650 
Q 1584 409 2034 409 
Q 2484 409 2743 651 
Q 3003 894 3003 1313 
Q 3003 1734 2745 1975 
Q 2488 2216 2034 2216 
z
M 1403 2484 
Q 997 2584 770 2862 
Q 544 3141 544 3541 
Q 544 4100 942 4425 
Q 1341 4750 2034 4750 
Q 2731 4750 3128 4425 
Q 3525 4100 3525 3541 
Q 3525 3141 3298 2862 
Q 3072 2584 2669 2484 
Q 3125 2378 3379 2068 
Q 3634 1759 3634 1313 
Q 3634 634 3220 271 
Q 2806 -91 2034 -91 
Q 1263 -91 848 271 
Q 434 634 434 1313 
Q 434 1759 690 2068 
Q 947 2378 1403 2484 
z
M 1172 3481 
Q 1172 3119 1398 2916 
Q 1625 2713 2034 2713 
Q 2441 2713 2670 2916 
Q 2900 3119 2900 3481 
Q 2900 3844 2670 4047 
Q 2441 4250 2034 4250 
Q 1625 4250 1398 4047 
Q 1172 3844 1172 3481 
z
" transform="scale(0.015625)"/>
       </defs>
       <use xlink:href="#DejaVuSans-38"/>
       <use xlink:href="#DejaVuSans-30" transform="translate(63.623047 0)"/>
       <use xlink:href="#DejaVuSans-30" transform="translate(127.246094 0)"/>
       <use xlink:href="#DejaVuSans-30" transform="translate(190.869141 0)"/>
       <use xlink:href="#DejaVuSans-30" transform="translate(254.492188 0)"/>
      </g>
     </g>
    </g>
    <g id="xtick_6">
     <g id="line2d_11">
      <path d="M 610.982784 282.04 
L 610.982784 26.88 
" clip-path="url(#p85aa82bc6c)" style="fill: none; stroke-dasharray: 0.5,0.825; stroke-dashoffset: 0; stroke: #b0b0b0; stroke-opacity: 0.6; stroke-width: 0.5"/>
     </g>
     <g id="line2d_12">
      <g>
       <use xlink:href="#m3c6a27c80c" x="610.982784" y="282.04" style="stroke: #000000; stroke-width: 0.8"/>
      </g>
     </g>
     <g id="text_6">
      <!-- 100000 -->
      <g transform="translate(591.895284 296.638438) scale(0.1 -0.1)">
       <defs>
        <path id="DejaVuSans-31" d="M 794 531 
L 1825 531 
L 1825 4091 
L 703 3866 
L 703 4441 
L 1819 4666 
L 2450 4666 
L 2450 531 
L 3481 531 
L 3481 0 
L 794 0 
L 794 531 
z
" transform="scale(0.015625)"/>
       </defs>
       <use xlink:href="#DejaVuSans-31"/>
       <use xlink:href="#DejaVuSans-30" transform="translate(63.623047 0)"/>
       <use xlink:href="#DejaVuSans-30" transform="translate(127.246094 0)"/>
       <use xlink:href="#DejaVuSans-30" transform="translate(190.869141 0)"/>
       <use xlink:href="#DejaVuSans-30" transform="translate(254.492188 0)"/>
       <use xlink:href="#DejaVuSans-30" transform="translate(318.115234 0)"/>
      </g>
     </g>
    </g>
    <g id="text_7">
     <!-- Sample index -->
     <g transform="translate(314.792656 310.316563) scale(0.1 -0.1)">
      <defs>
       <path id="DejaVuSans-53" d="M 3425 4513 
L 3425 3897 
Q 3066 4069 2747 4153 
Q 2428 4238 2131 4238 
Q 1616 4238 1336 4038 
Q 1056 3838 1056 3469 
Q 1056 3159 1242 3001 
Q 1428 2844 1947 2747 
L 2328 2669 
Q 3034 2534 3370 2195 
Q 3706 1856 3706 1288 
Q 3706 609 3251 259 
Q 2797 -91 1919 -91 
Q 1588 -91 1214 -16 
Q 841 59 441 206 
L 441 856 
Q 825 641 1194 531 
Q 1563 422 1919 422 
Q 2459 422 2753 634 
Q 3047 847 3047 1241 
Q 3047 1584 2836 1778 
Q 2625 1972 2144 2069 
L 1759 2144 
Q 1053 2284 737 2584 
Q 422 2884 422 3419 
Q 422 4038 858 4394 
Q 1294 4750 2059 4750 
Q 2388 4750 2728 4690 
Q 3069 4631 3425 4513 
z
" transform="scale(0.015625)"/>
       <path id="DejaVuSans-61" d="M 2194 1759 
Q 1497 1759 1228 1600 
Q 959 1441 959 1056 
Q 959 750 1161 570 
Q 1363 391 1709 391 
Q 2188 391 2477 730 
Q 2766 1069 2766 1631 
L 2766 1759 
L 2194 1759 
z
M 3341 1997 
L 3341 0 
L 2766 0 
L 2766 531 
Q 2569 213 2275 61 
Q 1981 -91 1556 -91 
Q 1019 -91 701 211 
Q 384 513 384 1019 
Q 384 1609 779 1909 
Q 1175 2209 1959 2209 
L 2766 2209 
L 2766 2266 
Q 2766 2663 2505 2880 
Q 2244 3097 1772 3097 
Q 1472 3097 1187 3025 
Q 903 2953 641 2809 
L 641 3341 
Q 956 3463 1253 3523 
Q 1550 3584 1831 3584 
Q 2591 3584 2966 3190 
Q 3341 2797 3341 1997 
z
" transform="scale(0.015625)"/>
       <path id="DejaVuSans-6d" d="M 3328 2828 
Q 3544 3216 3844 3400 
Q 4144 3584 4550 3584 
Q 5097 3584 5394 3201 
Q 5691 2819 5691 2113 
L 5691 0 
L 5113 0 
L 5113 2094 
Q 5113 2597 4934 2840 
Q 4756 3084 4391 3084 
Q 3944 3084 3684 2787 
Q 3425 2491 3425 1978 
L 3425 0 
L 2847 0 
L 2847 2094 
Q 2847 2600 2669 2842 
Q 2491 3084 2119 3084 
Q 1678 3084 1418 2786 
Q 1159 2488 1159 1978 
L 1159 0 
L 581 0 
L 581 3500 
L 1159 3500 
L 1159 2956 
Q 1356 3278 1631 3431 
Q 1906 3584 2284 3584 
Q 2666 3584 2933 3390 
Q 3200 3197 3328 2828 
z
" transform="scale(0.015625)"/>
       <path id="DejaVuSans-70" d="M 1159 525 
L 1159 -1331 
L 581 -1331 
L 581 3500 
L 1159 3500 
L 1159 2969 
Q 1341 3281 1617 3432 
Q 1894 3584 2278 3584 
Q 2916 3584 3314 3078 
Q 3713 2572 3713 1747 
Q 3713 922 3314 415 
Q 2916 -91 2278 -91 
Q 1894 -91 1617 61 
Q 1341 213 1159 525 
z
M 3116 1747 
Q 3116 2381 2855 2742 
Q 2594 3103 2138 3103 
Q 1681 3103 1420 2742 
Q 1159 2381 1159 1747 
Q 1159 1113 1420 752 
Q 1681 391 2138 391 
Q 2594 391 2855 752 
Q 3116 1113 3116 1747 
z
" transform="scale(0.015625)"/>
       <path id="DejaVuSans-6c" d="M 603 4863 
L 1178 4863 
L 1178 0 
L 603 0 
L 603 4863 
z
" transform="scale(0.015625)"/>
       <path id="DejaVuSans-65" d="M 3597 1894 
L 3597 1613 
L 953 1613 
Q 991 1019 1311 708 
Q 1631 397 2203 397 
Q 2534 397 2845 478 
Q 3156 559 3463 722 
L 3463 178 
Q 3153 47 2828 -22 
Q 2503 -91 2169 -91 
Q 1331 -91 842 396 
Q 353 884 353 1716 
Q 353 2575 817 3079 
Q 1281 3584 2069 3584 
Q 2775 3584 3186 3129 
Q 3597 2675 3597 1894 
z
M 3022 2063 
Q 3016 2534 2758 2815 
Q 2500 3097 2075 3097 
Q 1594 3097 1305 2825 
Q 1016 2553 972 2059 
L 3022 2063 
z
" transform="scale(0.015625)"/>
       <path id="DejaVuSans-20" transform="scale(0.015625)"/>
       <path id="DejaVuSans-69" d="M 603 3500 
L 1178 3500 
L 1178 0 
L 603 0 
L 603 3500 
z
M 603 4863 
L 1178 4863 
L 1178 4134 
L 603 4134 
L 603 4863 
z
" transform="scale(0.015625)"/>
       <path id="DejaVuSans-6e" d="M 3513 2113 
L 3513 0 
L 2938 0 
L 2938 2094 
Q 2938 2591 2744 2837 
Q 2550 3084 2163 3084 
Q 1697 3084 1428 2787 
Q 1159 2491 1159 1978 
L 1159 0 
L 581 0 
L 581 3500 
L 1159 3500 
L 1159 2956 
Q 1366 3272 1645 3428 
Q 1925 3584 2291 3584 
Q 2894 3584 3203 3211 
Q 3513 2838 3513 2113 
z
" transform="scale(0.015625)"/>
       <path id="DejaVuSans-64" d="M 2906 2969 
L 2906 4863 
L 3481 4863 
L 3481 0 
L 2906 0 
L 2906 525 
Q 2725 213 2448 61 
Q 2172 -91 1784 -91 
Q 1150 -91 751 415 
Q 353 922 353 1747 
Q 353 2572 751 3078 
Q 1150 3584 1784 3584 
Q 2172 3584 2448 3432 
Q 2725 3281 2906 2969 
z
M 947 1747 
Q 947 1113 1208 752 
Q 1469 391 1925 391 
Q 2381 391 2643 752 
Q 2906 1113 2906 1747 
Q 2906 2381 2643 2742 
Q 2381 3103 1925 3103 
Q 1469 3103 1208 2742 
Q 947 2381 947 1747 
z
" transform="scale(0.015625)"/>
       <path id="DejaVuSans-78" d="M 3513 3500 
L 2247 1797 
L 3578 0 
L 2900 0 
L 1881 1375 
L 863 0 
L 184 0 
L 1544 1831 
L 300 3500 
L 978 3500 
L 1906 2253 
L 2834 3500 
L 3513 3500 
z
" transform="scale(0.015625)"/>
      </defs>
      <use xlink:href="#DejaVuSans-53"/>
      <use xlink:href="#DejaVuSans-61" transform="translate(63.476562 0)"/>
      <use xlink:href="#DejaVuSans-6d" transform="translate(124.755859 0)"/>
      <use xlink:href="#DejaVuSans-70" transform="translate(222.167969 0)"/>
      <use xlink:href="#DejaVuSans-6c" transform="translate(285.644531 0)"/>
      <use xlink:href="#DejaVuSans-65" transform="translate(313.427734 0)"/>
      <use xlink:href="#DejaVuSans-20" transform="translate(374.951172 0)"/>
      <use xlink:href="#DejaVuSans-69" transform="translate(406.738281 0)"/>
      <use xlink:href="#DejaVuSans-6e" transform="translate(434.521484 0)"/>
      <use xlink:href="#DejaVuSans-64" transform="translate(497.900391 0)"/>
      <use xlink:href="#DejaVuSans-65" transform="translate(561.376953 0)"/>
      <use xlink:href="#DejaVuSans-78" transform="translate(621.150391 0)"/>
     </g>
    </g>
   </g>
   <g id="matplotlib.axis_2">
    <g id="ytick_1">
     <g id="line2d_13">
      <path d="M 60.42125 281.181724 
L 637.2 281.181724 
" clip-path="url(#p85aa82bc6c)" style="fill: none; stroke-dasharray: 0.5,0.825; stroke-dashoffset: 0; stroke: #b0b0b0; stroke-opacity: 0.6; stroke-width: 0.5"/>
     </g>
     <g id="line2d_14">
      <defs>
       <path id="m2befe4cf68" d="M 0 0 
L -3.5 0 
" style="stroke: #000000; stroke-width: 0.8"/>
      </defs>
      <g>
       <use xlink:href="#m2befe4cf68" x="60.42125" y="281.181724" style="stroke: #000000; stroke-width: 0.8"/>
      </g>
     </g>
     <g id="text_8">
      <!-- 0.044 -->
      <g transform="translate(24.793125 284.980943) scale(0.1 -0.1)">
       <defs>
        <path id="DejaVuSans-2e" d="M 684 794 
L 1344 794 
L 1344 0 
L 684 0 
L 684 794 
z
" transform="scale(0.015625)"/>
       </defs>
       <use xlink:href="#DejaVuSans-30"/>
       <use xlink:href="#DejaVuSans-2e" transform="translate(63.623047 0)"/>
       <use xlink:href="#DejaVuSans-30" transform="translate(95.410156 0)"/>
       <use xlink:href="#DejaVuSans-34" transform="translate(159.033203 0)"/>
       <use xlink:href="#DejaVuSans-34" transform="translate(222.65625 0)"/>
      </g>
     </g>
    </g>
    <g id="ytick_2">
     <g id="line2d_15">
      <path d="M 60.42125 250.509123 
L 637.2 250.509123 
" clip-path="url(#p85aa82bc6c)" style="fill: none; stroke-dasharray: 0.5,0.825; stroke-dashoffset: 0; stroke: #b0b0b0; stroke-opacity: 0.6; stroke-width: 0.5"/>
     </g>
     <g id="line2d_16">
      <g>
       <use xlink:href="#m2befe4cf68" x="60.42125" y="250.509123" style="stroke: #000000; stroke-width: 0.8"/>
      </g>
     </g>
     <g id="text_9">
      <!-- 0.045 -->
      <g transform="translate(24.793125 254.308342) scale(0.1 -0.1)">
       <defs>
        <path id="DejaVuSans-35" d="M 691 4666 
L 3169 4666 
L 3169 4134 
L 1269 4134 
L 1269 2991 
Q 1406 3038 1543 3061 
Q 1681 3084 1819 3084 
Q 2600 3084 3056 2656 
Q 3513 2228 3513 1497 
Q 3513 744 3044 326 
Q 2575 -91 1722 -91 
Q 1428 -91 1123 -41 
Q 819 9 494 109 
L 494 744 
Q 775 591 1075 516 
Q 1375 441 1709 441 
Q 2250 441 2565 725 
Q 2881 1009 2881 1497 
Q 2881 1984 2565 2268 
Q 2250 2553 1709 2553 
Q 1456 2553 1204 2497 
Q 953 2441 691 2322 
L 691 4666 
z
" transform="scale(0.015625)"/>
       </defs>
       <use xlink:href="#DejaVuSans-30"/>
       <use xlink:href="#DejaVuSans-2e" transform="translate(63.623047 0)"/>
       <use xlink:href="#DejaVuSans-30" transform="translate(95.410156 0)"/>
       <use xlink:href="#DejaVuSans-34" transform="translate(159.033203 0)"/>
       <use xlink:href="#DejaVuSans-35" transform="translate(222.65625 0)"/>
      </g>
     </g>
    </g>
    <g id="ytick_3">
     <g id="line2d_17">
      <path d="M 60.42125 219.836523 
L 637.2 219.836523 
" clip-path="url(#p85aa82bc6c)" style="fill: none; stroke-dasharray: 0.5,0.825; stroke-dashoffset: 0; stroke: #b0b0b0; stroke-opacity: 0.6; stroke-width: 0.5"/>
     </g>
     <g id="line2d_18">
      <g>
       <use xlink:href="#m2befe4cf68" x="60.42125" y="219.836523" style="stroke: #000000; stroke-width: 0.8"/>
      </g>
     </g>
     <g id="text_10">
      <!-- 0.046 -->
      <g transform="translate(24.793125 223.635742) scale(0.1 -0.1)">
       <use xlink:href="#DejaVuSans-30"/>
       <use xlink:href="#DejaVuSans-2e" transform="translate(63.623047 0)"/>
       <use xlink:href="#DejaVuSans-30" transform="translate(95.410156 0)"/>
       <use xlink:href="#DejaVuSans-34" transform="translate(159.033203 0)"/>
       <use xlink:href="#DejaVuSans-36" transform="translate(222.65625 0)"/>
      </g>
     </g>
    </g>
    <g id="ytick_4">
     <g id="line2d_19">
      <path d="M 60.42125 189.163922 
L 637.2 189.163922 
" clip-path="url(#p85aa82bc6c)" style="fill: none; stroke-dasharray: 0.5,0.825; stroke-dashoffset: 0; stroke: #b0b0b0; stroke-opacity: 0.6; stroke-width: 0.5"/>
     </g>
     <g id="line2d_20">
      <g>
       <use xlink:href="#m2befe4cf68" x="60.42125" y="189.163922" style="stroke: #000000; stroke-width: 0.8"/>
      </g>
     </g>
     <g id="text_11">
      <!-- 0.047 -->
      <g transform="translate(24.793125 192.963141) scale(0.1 -0.1)">
       <defs>
        <path id="DejaVuSans-37" d="M 525 4666 
L 3525 4666 
L 3525 4397 
L 1831 0 
L 1172 0 
L 2766 4134 
L 525 4134 
L 525 4666 
z
" transform="scale(0.015625)"/>
       </defs>
       <use xlink:href="#DejaVuSans-30"/>
       <use xlink:href="#DejaVuSans-2e" transform="translate(63.623047 0)"/>
       <use xlink:href="#DejaVuSans-30" transform="translate(95.410156 0)"/>
       <use xlink:href="#DejaVuSans-34" transform="translate(159.033203 0)"/>
       <use xlink:href="#DejaVuSans-37" transform="translate(222.65625 0)"/>
      </g>
     </g>
    </g>
    <g id="ytick_5">
     <g id="line2d_21">
      <path d="M 60.42125 158.491322 
L 637.2 158.491322 
" clip-path="url(#p85aa82bc6c)" style="fill: none; stroke-dasharray: 0.5,0.825; stroke-dashoffset: 0; stroke: #b0b0b0; stroke-opacity: 0.6; stroke-width: 0.5"/>
     </g>
     <g id="line2d_22">
      <g>
       <use xlink:href="#m2befe4cf68" x="60.42125" y="158.491322" style="stroke: #000000; stroke-width: 0.8"/>
      </g>
     </g>
     <g id="text_12">
      <!-- 0.048 -->
      <g transform="translate(24.793125 162.290541) scale(0.1 -0.1)">
       <use xlink:href="#DejaVuSans-30"/>
       <use xlink:href="#DejaVuSans-2e" transform="translate(63.623047 0)"/>
       <use xlink:href="#DejaVuSans-30" transform="translate(95.410156 0)"/>
       <use xlink:href="#DejaVuSans-34" transform="translate(159.033203 0)"/>
       <use xlink:href="#DejaVuSans-38" transform="translate(222.65625 0)"/>
      </g>
     </g>
    </g>
    <g id="ytick_6">
     <g id="line2d_23">
      <path d="M 60.42125 127.818722 
L 637.2 127.818722 
" clip-path="url(#p85aa82bc6c)" style="fill: none; stroke-dasharray: 0.5,0.825; stroke-dashoffset: 0; stroke: #b0b0b0; stroke-opacity: 0.6; stroke-width: 0.5"/>
     </g>
     <g id="line2d_24">
      <g>
       <use xlink:href="#m2befe4cf68" x="60.42125" y="127.818722" style="stroke: #000000; stroke-width: 0.8"/>
      </g>
     </g>
     <g id="text_13">
      <!-- 0.049 -->
      <g transform="translate(24.793125 131.61794) scale(0.1 -0.1)">
       <defs>
        <path id="DejaVuSans-39" d="M 703 97 
L 703 672 
Q 941 559 1184 500 
Q 1428 441 1663 441 
Q 2288 441 2617 861 
Q 2947 1281 2994 2138 
Q 2813 1869 2534 1725 
Q 2256 1581 1919 1581 
Q 1219 1581 811 2004 
Q 403 2428 403 3163 
Q 403 3881 828 4315 
Q 1253 4750 1959 4750 
Q 2769 4750 3195 4129 
Q 3622 3509 3622 2328 
Q 3622 1225 3098 567 
Q 2575 -91 1691 -91 
Q 1453 -91 1209 -44 
Q 966 3 703 97 
z
M 1959 2075 
Q 2384 2075 2632 2365 
Q 2881 2656 2881 3163 
Q 2881 3666 2632 3958 
Q 2384 4250 1959 4250 
Q 1534 4250 1286 3958 
Q 1038 3666 1038 3163 
Q 1038 2656 1286 2365 
Q 1534 2075 1959 2075 
z
" transform="scale(0.015625)"/>
       </defs>
       <use xlink:href="#DejaVuSans-30"/>
       <use xlink:href="#DejaVuSans-2e" transform="translate(63.623047 0)"/>
       <use xlink:href="#DejaVuSans-30" transform="translate(95.410156 0)"/>
       <use xlink:href="#DejaVuSans-34" transform="translate(159.033203 0)"/>
       <use xlink:href="#DejaVuSans-39" transform="translate(222.65625 0)"/>
      </g>
     </g>
    </g>
    <g id="ytick_7">
     <g id="line2d_25">
      <path d="M 60.42125 97.146121 
L 637.2 97.146121 
" clip-path="url(#p85aa82bc6c)" style="fill: none; stroke-dasharray: 0.5,0.825; stroke-dashoffset: 0; stroke: #b0b0b0; stroke-opacity: 0.6; stroke-width: 0.5"/>
     </g>
     <g id="line2d_26">
      <g>
       <use xlink:href="#m2befe4cf68" x="60.42125" y="97.146121" style="stroke: #000000; stroke-width: 0.8"/>
      </g>
     </g>
     <g id="text_14">
      <!-- 0.050 -->
      <g transform="translate(24.793125 100.94534) scale(0.1 -0.1)">
       <use xlink:href="#DejaVuSans-30"/>
       <use xlink:href="#DejaVuSans-2e" transform="translate(63.623047 0)"/>
       <use xlink:href="#DejaVuSans-30" transform="translate(95.410156 0)"/>
       <use xlink:href="#DejaVuSans-35" transform="translate(159.033203 0)"/>
       <use xlink:href="#DejaVuSans-30" transform="translate(222.65625 0)"/>
      </g>
     </g>
    </g>
    <g id="ytick_8">
     <g id="line2d_27">
      <path d="M 60.42125 66.473521 
L 637.2 66.473521 
" clip-path="url(#p85aa82bc6c)" style="fill: none; stroke-dasharray: 0.5,0.825; stroke-dashoffset: 0; stroke: #b0b0b0; stroke-opacity: 0.6; stroke-width: 0.5"/>
     </g>
     <g id="line2d_28">
      <g>
       <use xlink:href="#m2befe4cf68" x="60.42125" y="66.473521" style="stroke: #000000; stroke-width: 0.8"/>
      </g>
     </g>
     <g id="text_15">
      <!-- 0.051 -->
      <g transform="translate(24.793125 70.272739) scale(0.1 -0.1)">
       <use xlink:href="#DejaVuSans-30"/>
       <use xlink:href="#DejaVuSans-2e" transform="translate(63.623047 0)"/>
       <use xlink:href="#DejaVuSans-30" transform="translate(95.410156 0)"/>
       <use xlink:href="#DejaVuSans-35" transform="translate(159.033203 0)"/>
       <use xlink:href="#DejaVuSans-31" transform="translate(222.65625 0)"/>
      </g>
     </g>
    </g>
    <g id="ytick_9">
     <g id="line2d_29">
      <path d="M 60.42125 35.80092 
L 637.2 35.80092 
" clip-path="url(#p85aa82bc6c)" style="fill: none; stroke-dasharray: 0.5,0.825; stroke-dashoffset: 0; stroke: #b0b0b0; stroke-opacity: 0.6; stroke-width: 0.5"/>
     </g>
     <g id="line2d_30">
      <g>
       <use xlink:href="#m2befe4cf68" x="60.42125" y="35.80092" style="stroke: #000000; stroke-width: 0.8"/>
      </g>
     </g>
     <g id="text_16">
      <!-- 0.052 -->
      <g transform="translate(24.793125 39.600139) scale(0.1 -0.1)">
       <use xlink:href="#DejaVuSans-30"/>
       <use xlink:href="#DejaVuSans-2e" transform="translate(63.623047 0)"/>
       <use xlink:href="#DejaVuSans-30" transform="translate(95.410156 0)"/>
       <use xlink:href="#DejaVuSans-35" transform="translate(159.033203 0)"/>
       <use xlink:href="#DejaVuSans-32" transform="translate(222.65625 0)"/>
      </g>
     </g>
    </g>
    <g id="text_17">
     <!-- Running mean of mean_median -->
     <g transform="translate(18.435313 234.136562) rotate(-90) scale(0.1 -0.1)">
      <defs>
       <path id="DejaVuSans-52" d="M 2841 2188 
Q 3044 2119 3236 1894 
Q 3428 1669 3622 1275 
L 4263 0 
L 3584 0 
L 2988 1197 
Q 2756 1666 2539 1819 
Q 2322 1972 1947 1972 
L 1259 1972 
L 1259 0 
L 628 0 
L 628 4666 
L 2053 4666 
Q 2853 4666 3247 4331 
Q 3641 3997 3641 3322 
Q 3641 2881 3436 2590 
Q 3231 2300 2841 2188 
z
M 1259 4147 
L 1259 2491 
L 2053 2491 
Q 2509 2491 2742 2702 
Q 2975 2913 2975 3322 
Q 2975 3731 2742 3939 
Q 2509 4147 2053 4147 
L 1259 4147 
z
" transform="scale(0.015625)"/>
       <path id="DejaVuSans-75" d="M 544 1381 
L 544 3500 
L 1119 3500 
L 1119 1403 
Q 1119 906 1312 657 
Q 1506 409 1894 409 
Q 2359 409 2629 706 
Q 2900 1003 2900 1516 
L 2900 3500 
L 3475 3500 
L 3475 0 
L 2900 0 
L 2900 538 
Q 2691 219 2414 64 
Q 2138 -91 1772 -91 
Q 1169 -91 856 284 
Q 544 659 544 1381 
z
M 1991 3584 
L 1991 3584 
z
" transform="scale(0.015625)"/>
       <path id="DejaVuSans-67" d="M 2906 1791 
Q 2906 2416 2648 2759 
Q 2391 3103 1925 3103 
Q 1463 3103 1205 2759 
Q 947 2416 947 1791 
Q 947 1169 1205 825 
Q 1463 481 1925 481 
Q 2391 481 2648 825 
Q 2906 1169 2906 1791 
z
M 3481 434 
Q 3481 -459 3084 -895 
Q 2688 -1331 1869 -1331 
Q 1566 -1331 1297 -1286 
Q 1028 -1241 775 -1147 
L 775 -588 
Q 1028 -725 1275 -790 
Q 1522 -856 1778 -856 
Q 2344 -856 2625 -561 
Q 2906 -266 2906 331 
L 2906 616 
Q 2728 306 2450 153 
Q 2172 0 1784 0 
Q 1141 0 747 490 
Q 353 981 353 1791 
Q 353 2603 747 3093 
Q 1141 3584 1784 3584 
Q 2172 3584 2450 3431 
Q 2728 3278 2906 2969 
L 2906 3500 
L 3481 3500 
L 3481 434 
z
" transform="scale(0.015625)"/>
       <path id="DejaVuSans-6f" d="M 1959 3097 
Q 1497 3097 1228 2736 
Q 959 2375 959 1747 
Q 959 1119 1226 758 
Q 1494 397 1959 397 
Q 2419 397 2687 759 
Q 2956 1122 2956 1747 
Q 2956 2369 2687 2733 
Q 2419 3097 1959 3097 
z
M 1959 3584 
Q 2709 3584 3137 3096 
Q 3566 2609 3566 1747 
Q 3566 888 3137 398 
Q 2709 -91 1959 -91 
Q 1206 -91 779 398 
Q 353 888 353 1747 
Q 353 2609 779 3096 
Q 1206 3584 1959 3584 
z
" transform="scale(0.015625)"/>
       <path id="DejaVuSans-66" d="M 2375 4863 
L 2375 4384 
L 1825 4384 
Q 1516 4384 1395 4259 
Q 1275 4134 1275 3809 
L 1275 3500 
L 2222 3500 
L 2222 3053 
L 1275 3053 
L 1275 0 
L 697 0 
L 697 3053 
L 147 3053 
L 147 3500 
L 697 3500 
L 697 3744 
Q 697 4328 969 4595 
Q 1241 4863 1831 4863 
L 2375 4863 
z
" transform="scale(0.015625)"/>
       <path id="DejaVuSans-5f" d="M 3263 -1063 
L 3263 -1509 
L -63 -1509 
L -63 -1063 
L 3263 -1063 
z
" transform="scale(0.015625)"/>
      </defs>
      <use xlink:href="#DejaVuSans-52"/>
      <use xlink:href="#DejaVuSans-75" transform="translate(64.982422 0)"/>
      <use xlink:href="#DejaVuSans-6e" transform="translate(128.361328 0)"/>
      <use xlink:href="#DejaVuSans-6e" transform="translate(191.740234 0)"/>
      <use xlink:href="#DejaVuSans-69" transform="translate(255.119141 0)"/>
      <use xlink:href="#DejaVuSans-6e" transform="translate(282.902344 0)"/>
      <use xlink:href="#DejaVuSans-67" transform="translate(346.28125 0)"/>
      <use xlink:href="#DejaVuSans-20" transform="translate(409.757812 0)"/>
      <use xlink:href="#DejaVuSans-6d" transform="translate(441.544922 0)"/>
      <use xlink:href="#DejaVuSans-65" transform="translate(538.957031 0)"/>
      <use xlink:href="#DejaVuSans-61" transform="translate(600.480469 0)"/>
      <use xlink:href="#DejaVuSans-6e" transform="translate(661.759766 0)"/>
      <use xlink:href="#DejaVuSans-20" transform="translate(725.138672 0)"/>
      <use xlink:href="#DejaVuSans-6f" transform="translate(756.925781 0)"/>
      <use xlink:href="#DejaVuSans-66" transform="translate(818.107422 0)"/>
      <use xlink:href="#DejaVuSans-20" transform="translate(853.3125 0)"/>
      <use xlink:href="#DejaVuSans-6d" transform="translate(885.099609 0)"/>
      <use xlink:href="#DejaVuSans-65" transform="translate(982.511719 0)"/>
      <use xlink:href="#DejaVuSans-61" transform="translate(1044.035156 0)"/>
      <use xlink:href="#DejaVuSans-6e" transform="translate(1105.314453 0)"/>
      <use xlink:href="#DejaVuSans-5f" transform="translate(1168.693359 0)"/>
      <use xlink:href="#DejaVuSans-6d" transform="translate(1218.693359 0)"/>
      <use xlink:href="#DejaVuSans-65" transform="translate(1316.105469 0)"/>
      <use xlink:href="#DejaVuSans-64" transform="translate(1377.628906 0)"/>
      <use xlink:href="#DejaVuSans-69" transform="translate(1441.105469 0)"/>
      <use xlink:href="#DejaVuSans-61" transform="translate(1468.888672 0)"/>
      <use xlink:href="#DejaVuSans-6e" transform="translate(1530.167969 0)"/>
     </g>
    </g>
   </g>
   <g id="line2d_31">
    <path d="M 86.638466 77.757234 
L 86.664683 79.877976 
L 86.67517 68.802374 
L 86.801014 38.478182 
L 86.816745 48.421309 
L 87.162815 184.074021 
L 87.472182 238.661308 
L 87.482669 238.278098 
L 87.577052 235.070809 
L 87.624243 237.008214 
L 87.907392 251.57981 
L 88.085671 256.754007 
L 88.106645 256.567986 
L 88.127619 256.542007 
L 88.138106 256.667575 
L 88.347845 261.168259 
L 88.457959 263.346194 
L 88.520881 262.997997 
L 88.615264 263.777287 
L 88.636238 263.09807 
L 88.746351 260.108052 
L 88.798786 261.130067 
L 88.956091 262.336874 
L 88.982308 262.435787 
L 89.003282 262.097034 
L 89.67445 248.796564 
L 89.705911 249.505948 
L 89.789807 251.162551 
L 89.873703 250.820214 
L 90.010034 250.575779 
L 89.936625 250.963552 
L 90.036251 250.654319 
L 90.088686 251.310896 
L 90.434757 258.369941 
L 90.518653 260.177037 
L 90.901428 267.114386 
L 91.006298 267.34155 
L 91.053489 267.269361 
L 91.100681 267.098364 
L 91.137385 267.342912 
L 91.179333 267.587019 
L 91.242255 267.338826 
L 91.483456 265.895092 
L 91.50443 266.330279 
L 91.803309 269.908131 
L 91.95537 270.441818 
L 92.002562 270.18618 
L 92.117919 268.9232 
L 92.343389 265.5925 
L 92.385337 266.086609 
L 92.390581 266.140178 
L 92.427285 265.544124 
L 93.00407 248.927392 
L 93.622802 223.482348 
L 94.073743 209.83928 
L 94.383109 202.568022 
L 94.398839 202.384445 
L 94.446031 203.073132 
L 94.62431 205.806802 
L 94.671501 205.314849 
L 95.127685 198.134872 
L 95.169633 198.027804 
L 95.28499 197.051938 
L 95.583869 194.2546 
L 95.662522 193.780686 
L 95.956158 190.956831 
L 96.747925 182.775839 
L 97.44531 174.568766 
L 97.775651 171.643771 
L 98.205617 164.433225 
L 99.526978 138.200077 
L 99.857318 134.923179 
L 101.079053 128.113512 
L 101.10527 128.176037 
L 101.278306 128.5293 
L 101.356958 128.652526 
L 101.398906 128.914239 
L 101.456585 128.589025 
L 102.279813 121.972456 
L 102.321761 122.158286 
L 103.276078 127.628624 
L 103.328512 127.480772 
L 103.35473 127.404739 
L 103.380947 127.663796 
L 104.345751 137.927054 
L 107.004203 164.974385 
L 107.192969 166.63233 
L 107.355517 167.325863 
L 107.376491 167.267897 
L 107.444657 166.983096 
L 107.518065 167.182562 
L 107.55477 167.396141 
L 107.76451 168.191018 
L 107.843162 168.092965 
L 107.879867 168.205759 
L 108.079119 167.902851 
L 108.100093 167.919258 
L 108.115824 167.987067 
L 108.288859 168.503453 
L 108.330807 168.439529 
L 108.766017 167.559312 
L 109.049166 167.134732 
L 109.416211 167.432452 
L 109.542055 167.493107 
L 109.662655 167.485973 
L 109.678386 167.452507 
L 110.04543 166.617272 
L 110.087378 166.839685 
L 110.265657 167.758771 
L 110.302362 167.453085 
L 110.44918 166.399714 
L 110.543562 166.418539 
L 110.700867 166.293883 
L 110.837198 164.815919 
L 111.733836 155.866606 
L 112.331594 151.423699 
L 112.677665 150.282203 
L 112.882161 150.039905 
L 112.960814 149.820677 
L 113.002762 149.970922 
L 113.259693 150.806338 
L 113.579546 151.631872 
L 113.647712 151.310128 
L 114.837985 145.044783 
L 114.927125 144.938783 
L 115.136865 144.460995 
L 115.771328 144.824955 
L 115.912902 144.68563 
L 115.949606 144.78025 
L 116.16459 145.764065 
L 116.258973 146.185362 
L 116.327138 146.073268 
L 116.736131 145.40809 
L 116.893436 145.052393 
L 116.966845 145.181784 
L 117.69569 147.074972 
L 118.345884 150.575606 
L 118.44551 150.165594 
L 119.342148 146.583359 
L 119.94515 143.060418 
L 120.285977 141.897071 
L 120.459013 142.342594 
L 120.506204 142.461111 
L 120.600587 142.397875 
L 120.820814 141.767265 
L 121.11445 140.584993 
L 121.387111 139.044127 
L 121.706965 136.886895 
L 121.754156 136.65902 
L 121.953409 135.545374 
L 122.032061 135.55966 
L 122.115957 135.482367 
L 122.309967 135.056111 
L 122.393863 134.577104 
L 122.587872 133.940314 
L 122.802855 133.762423 
L 123.316718 133.782155 
L 123.573649 133.78485 
L 123.70998 133.683133 
L 124.648566 132.187151 
L 124.816357 132.095794 
L 124.989393 132.039224 
L 125.366925 130.929581 
L 125.676291 130.412185 
L 125.681534 130.415324 
L 125.954196 130.439538 
L 126.064309 130.442745 
L 126.08004 130.48466 
L 126.536224 131.230995 
L 126.730233 131.582885 
L 127.092035 131.984063 
L 127.254583 131.924937 
L 127.443349 131.405985 
L 127.920507 129.699281 
L 128.187925 128.972134 
L 128.256091 129.023953 
L 128.418639 129.066376 
L 129.016397 129.954595 
L 129.378199 131.010002 
L 129.519773 131.305084 
L 130.044123 132.636984 
L 130.05461 132.62348 
L 130.322028 132.089582 
L 130.82016 130.3768 
L 130.966978 129.991079 
L 130.993195 129.999901 
L 131.066604 130.124812 
L 131.349753 130.850447 
L 131.36024 130.830308 
L 131.507058 130.931039 
L 131.889833 131.903397 
L 132.340774 132.348611 
L 132.366991 132.304005 
L 132.718305 131.417101 
L 133.316064 129.664639 
L 133.6097 128.808946 
L 133.746031 128.684856 
L 133.94004 128.478351 
L 134.06064 128.117169 
L 134.228432 127.726725 
L 134.238919 127.747659 
L 134.621694 128.273757 
L 134.710834 128.371469 
L 134.8996 128.721347 
L 134.920574 128.713418 
L 135.208966 128.723403 
L 135.481628 128.990133 
L 135.555037 129.032494 
L 135.586497 128.926799 
L 135.612715 128.839864 
L 135.675637 128.98774 
L 135.880133 129.253737 
L 135.89062 129.249434 
L 135.97976 129.093167 
L 136.451674 127.722993 
L 136.477892 127.739818 
L 137.002241 128.180331 
L 137.337825 128.690897 
L 137.353556 128.68089 
L 137.542321 128.415789 
L 138.208245 126.58367 
L 138.386524 126.193606 
L 138.564803 126.21717 
L 138.821734 126.215609 
L 138.832221 126.206488 
L 138.884656 126.299398 
L 139.629233 127.969729 
L 139.901894 128.447316 
L 140.499653 128.393433 
L 141.018759 128.682545 
L 141.238986 128.776679 
L 141.36483 128.85612 
L 141.60603 129.192483 
L 141.868205 129.349376 
L 142.188058 129.352716 
L 142.633756 129.36544 
L 142.937878 129.289031 
L 143.189566 129.150298 
L 143.546124 129.176648 
L 143.703429 129.179825 
L 144.2907 129.205491 
L 144.463736 128.94505 
L 144.856998 128.332255 
L 144.972355 128.096357 
L 145.12966 127.974149 
L 145.386591 128.131389 
L 146.010567 128.761302 
L 146.356637 128.809257 
L 146.482481 128.722955 
L 146.723682 128.269619 
L 146.776117 128.373002 
L 146.896718 128.651576 
L 146.980613 128.588669 
L 147.719946 128.228995 
L 147.872008 128.258446 
L 147.877251 128.250641 
L 148.758158 127.047919 
L 149.272021 126.415013 
L 150.179146 123.900364 
L 150.63533 122.462103 
L 151.170166 120.865837 
L 151.521481 120.396489 
L 151.678786 120.423522 
L 151.851821 120.472465 
L 151.909499 120.561244 
L 152.260814 121.212741 
L 152.606884 122.279223 
L 152.722241 122.574421 
L 152.774676 122.518132 
L 152.858572 122.481739 
L 152.90052 122.538458 
L 153.314756 123.197932 
L 153.367191 123.254284 
L 153.435357 123.198298 
L 153.645096 123.165572 
L 153.744723 123.100366 
L 153.854836 123.13613 
L 154.620387 123.895132 
L 155.092301 124.881816 
L 155.338745 125.002536 
L 155.847365 124.708889 
L 156.660106 123.937509 
L 157.095317 124.161161 
L 157.472848 124.44914 
L 157.913302 124.475676 
L 158.149259 124.264047 
L 158.421921 123.926374 
L 158.626417 123.639734 
L 158.982975 123.19024 
L 159.412942 123.154369 
L 159.769499 123.528241 
L 160.015944 123.982539 
L 160.031674 123.976806 
L 160.519319 123.9056 
L 160.765763 124.337335 
L 160.891607 124.247903 
L 160.933555 124.167315 
L 160.980747 124.315194 
L 161.221948 124.7551 
L 161.227191 124.744092 
L 162.176264 123.005478 
L 162.239186 123.096927 
L 162.433195 123.336637 
L 162.459413 123.27494 
L 163.702121 120.572717 
L 163.833208 120.467024 
L 164.373288 119.496784 
L 165.18603 117.962686 
L 165.631727 117.64518 
L 165.810006 117.603182 
L 166.198025 117.423868 
L 166.486417 117.218698 
L 167.278185 116.743182 
L 167.629499 116.444079 
L 168.599546 114.404065 
L 168.93513 114.12947 
L 169.087191 114.061664 
L 169.601054 113.155683 
L 170.204056 111.12371 
L 170.849006 109.296477 
L 171.866244 107.524115 
L 172.427298 106.475755 
L 172.846777 105.692924 
L 173.077491 105.426131 
L 173.664763 105.372333 
L 173.926937 105.424815 
L 174.026564 105.293147 
L 174.078999 105.384966 
L 174.472261 105.903911 
L 174.508965 105.847308 
L 174.786871 105.999269 
L 174.828819 105.920961 
L 175.127698 105.462803 
L 175.337438 105.007405 
L 175.426577 105.104684 
L 176.323215 105.870452 
L 176.648312 105.989916 
L 176.800373 106.156354 
L 176.842321 106.100693 
L 177.031087 106.026802 
L 177.754689 106.258755 
L 178.876797 107.706302 
L 179.107511 107.919654 
L 179.873061 108.373204 
L 180.255837 108.753647 
L 180.512768 108.786789 
L 180.664829 108.834443 
L 180.795917 108.778521 
L 181.026631 108.781039 
L 181.262588 108.648338 
L 181.556224 108.391041 
L 182.604923 108.810992 
L 182.783202 108.883685 
L 183.464856 109.300884 
L 183.69557 109.16796 
L 184.01018 108.983603 
L 184.697077 108.838158 
L 185.452141 109.095599 
L 186.416944 108.804655 
L 187.224442 108.239742 
L 187.712087 108.198017 
L 188.440933 108.45889 
L 188.734569 108.161237 
L 188.996744 108.189691 
L 189.667911 108.699824 
L 189.888138 108.721691 
L 190.113608 108.584704 
L 190.323348 108.485537 
L 190.522601 108.424315 
L 191.377291 108.763154 
L 191.613248 108.709937 
L 193.002774 107.739067 
L 193.411767 106.966921 
L 194.130126 105.446596 
L 194.486684 104.827572 
L 194.769833 104.53408 
L 194.969085 104.403938 
L 195.367591 103.828506 
L 195.488191 103.959267 
L 195.954863 104.338144 
L 196.196063 104.299677 
L 196.615543 104.247597 
L 196.882961 104.515208 
L 197.333902 104.814057 
L 197.596077 105.007514 
L 198.083722 105.291349 
L 198.99609 105.345527 
L 199.342161 105.220867 
L 199.976624 105.347204 
L 200.228311 105.178935 
L 200.448538 105.157574 
L 200.663522 105.031717 
L 201.172141 105.175242 
L 201.313715 105.170727 
L 202.184135 104.989798 
L 202.43058 104.929147 
L 202.745189 104.705781 
L 203.31673 103.688883 
L 204.040333 102.160919 
L 204.444082 102.035495 
L 205.078545 101.393229 
L 205.330233 101.210593 
L 205.634355 101.021996 
L 206.195409 100.368625 
L 206.919012 99.484263 
L 207.233622 99.418066 
L 207.548231 99.132135 
L 208.518278 98.505475 
L 208.927271 98.084255 
L 209.944509 97.647111 
L 210.238145 97.558276 
L 210.563241 97.093189 
L 211.197704 96.764635 
L 211.533288 96.658706 
L 211.774489 96.620684 
L 212.115316 96.770183 
L 213.101093 97.99041 
L 213.494355 98.123179 
L 213.908592 98.165719 
L 214.060653 98.119022 
L 214.275636 98.065226 
L 214.480133 98.062189 
L 214.73182 98.073298 
L 215.46591 98.495604 
L 215.853928 98.336434 
L 216.325843 98.739534 
L 217.547577 100.04822 
L 218.082414 100.780529 
L 218.438972 101.147488 
L 219.104896 101.620892 
L 219.372314 101.4941 
L 219.555836 101.491964 
L 220.11689 101.562485 
L 220.53637 101.733381 
L 220.85098 101.854757 
L 221.155102 102.177874 
L 221.773835 102.189221 
L 222.067471 102.395869 
L 222.92216 102.46286 
L 223.105683 102.390632 
L 223.44651 102.117898 
L 223.734902 101.997228 
L 223.939399 102.014959 
L 224.820306 101.719878 
L 225.580613 101.963219 
L 225.895222 102.10634 
L 226.713208 102.106381 
L 226.964896 102.051488 
L 228.364909 102.686779 
L 228.946937 103.103233 
L 229.418852 103.044959 
L 229.943201 102.954321 
L 231.217371 103.22744 
L 232.339479 102.988166 
L 232.979185 103.120138 
L 233.550726 102.829932 
L 235.233888 102.961176 
L 235.658611 102.666012 
L 236.083334 102.482173 
L 236.2721 102.437429 
L 236.439892 102.419006 
L 236.791206 102.458706 
L 236.995703 102.304907 
L 237.200199 102.203854 
L 237.305069 102.079991 
L 237.556757 101.930733 
L 239.030179 101.86896 
L 239.659398 101.32119 
L 240.739559 99.877904 
L 241.53657 99.23816 
L 242.663921 98.290646 
L 242.868418 98.042465 
L 243.251193 97.767166 
L 243.607751 97.643016 
L 243.990526 97.296308 
L 244.687911 96.409 
L 245.081173 96.066216 
L 245.364322 95.923272 
L 245.783801 95.682987 
L 246.030246 95.445736 
L 247.063214 95.523256 
L 248.10667 96.133432 
L 248.746376 96.345175 
L 249.62204 96.78854 
L 249.795076 96.771027 
L 250.282721 96.93479 
L 250.927671 97.362982 
L 251.509699 97.905483 
L 251.76663 97.907888 
L 252.159892 97.825453 
L 252.464015 97.949323 
L 252.820572 98.097994 
L 253.292487 98.039617 
L 253.617584 98.041975 
L 254.320212 98.25574 
L 254.566657 98.285089 
L 254.839318 98.142119 
L 255.243067 98.280465 
L 255.735956 98.626744 
L 256.501506 99.017068 
L 258.415382 100.434449 
L 258.944975 100.86198 
L 259.249098 100.981586 
L 259.663334 101.155163 
L 260.748738 101.119083 
L 261.661106 101.194957 
L 262.017664 101.242539 
L 262.201186 101.320423 
L 262.547257 101.401676 
L 262.977224 101.474357 
L 264.015436 101.920416 
L 265.069378 102.121017 
L 265.504588 102.011906 
L 265.772007 102.138766 
L 266.495609 102.571474 
L 266.873141 102.432388 
L 267.208724 102.404164 
L 267.601987 102.346689 
L 267.879892 102.477244 
L 268.629712 102.405761 
L 269.21174 102.614573 
L 269.563054 102.759076 
L 270.39677 102.564588 
L 270.984041 102.912703 
L 271.172807 102.880562 
L 271.765322 103.000311 
L 271.954088 103.020629 
L 272.294915 102.958039 
L 272.462707 103.044541 
L 272.897917 103.417928 
L 273.280692 103.782193 
L 273.605789 103.813483 
L 274.953367 103.080343 
L 275.068724 102.983741 
L 275.771353 102.376123 
L 276.332407 102.486019 
L 276.599825 102.282472 
L 276.830539 102.22659 
L 277.139905 102.19276 
L 277.95789 101.612603 
L 278.052273 101.683403 
L 278.366883 101.77609 
L 278.681493 101.437925 
L 279.315956 100.848657 
L 280.359411 101.06443 
L 281.308484 101.606362 
L 281.554928 101.645818 
L 282.042574 101.710665 
L 282.56168 101.67064 
L 283.22236 101.635577 
L 283.531726 101.48513 
L 283.945962 101.326184 
L 284.082293 101.391162 
L 284.375929 101.569146 
L 284.832113 101.394342 
L 287.186443 102.079413 
L 287.584948 101.68519 
L 287.957237 101.436964 
L 288.60743 101.591425 
L 289.058371 101.650438 
L 289.923547 101.443887 
L 290.322053 101.27107 
L 291.449405 101.142555 
L 292.419451 101.554871 
L 293.945309 101.654275 
L 294.212727 101.679195 
L 294.585015 101.587344 
L 295.303374 101.514076 
L 295.633714 101.631114 
L 297.589538 102.869955 
L 299.120639 102.858286 
L 299.807537 102.740233 
L 300.206042 102.801606 
L 300.65174 102.480312 
L 300.830018 102.497234 
L 301.668978 102.61871 
L 302.72292 102.147527 
L 303.079478 101.9361 
L 304.122934 101.886448 
L 305.087737 102.040766 
L 305.475755 101.964582 
L 305.895235 101.971281 
L 306.666029 102.409808 
L 307.200866 102.355776 
L 308.191886 102.23332 
L 308.459304 102.134337 
L 308.710992 102.002218 
L 309.130472 101.658814 
L 310.803147 101.503415 
L 311.201653 101.529865 
L 311.579184 101.570615 
L 312.014395 101.470289 
L 312.627883 101.339343 
L 313.409164 101.443011 
L 314.651873 102.071917 
L 315.118544 101.927569 
L 315.86312 101.922141 
L 316.251139 101.713816 
L 316.70208 101.858761 
L 317.163507 101.914461 
L 319.586002 101.722497 
L 320.183761 101.874664 
L 320.944068 102.241095 
L 321.499878 102.491016 
L 322.008497 102.473437 
L 322.742587 102.398615 
L 324.137356 102.531042 
L 324.436236 102.612063 
L 325.726136 102.699739 
L 326.607043 102.611208 
L 327.655742 102.830545 
L 329.344148 104.16814 
L 329.726923 104.237888 
L 329.94715 104.130672 
L 330.39809 103.895793 
L 330.969631 103.891096 
L 331.514955 104.092467 
L 333.114221 104.039134 
L 333.355422 103.908227 
L 333.711979 103.736185 
L 334.802626 103.802821 
L 335.300759 104.08272 
L 335.683534 104.178682 
L 336.407136 104.186714 
L 336.905268 103.890907 
L 337.329991 103.754704 
L 338.36296 103.706501 
L 339.091806 103.941975 
L 339.437877 104.03095 
L 339.721025 104.031249 
L 341.807937 103.849026 
L 342.757009 104.107643 
L 343.926309 103.820842 
L 344.885869 103.662953 
L 345.630445 103.602134 
L 346.364534 103.405296 
L 346.831205 103.402848 
L 347.308364 103.30123 
L 347.764548 103.141516 
L 348.336089 103.159779 
L 349.091152 103.239256 
L 349.930111 103.653413 
L 350.585548 103.98034 
L 351.27769 103.852179 
L 352.557103 103.482867 
L 352.751112 103.48549 
L 353.694941 103.609798 
L 354.182586 103.544608 
L 354.5339 103.715354 
L 355.084468 103.984993 
L 356.746656 104.491303 
L 357.333927 104.53614 
L 357.874007 104.817148 
L 358.162399 104.975241 
L 359.724961 105.797647 
L 360.181145 105.809355 
L 361.109244 105.86255 
L 363.657583 106.798963 
L 364.758717 106.738343 
L 365.975208 106.697021 
L 366.934768 106.942999 
L 367.322786 106.890402 
L 367.663613 106.839579 
L 368.444894 107.152789 
L 368.8434 107.397131 
L 369.965508 108.101213 
L 370.610458 108.328994 
L 372.314594 108.553301 
L 372.734074 108.545622 
L 374.039704 108.93275 
L 375.455448 109.794577 
L 375.827736 109.844259 
L 376.07418 109.930505 
L 377.390298 110.627331 
L 377.946108 110.845308 
L 378.591058 111.042838 
L 378.889938 111.231125 
L 379.241252 111.485458 
L 382.036035 113.320395 
L 382.355888 113.526247 
L 382.848777 113.600936 
L 384.825575 113.504625 
L 385.402359 113.736166 
L 385.931952 113.738485 
L 387.342453 114.318869 
L 388.600891 114.89994 
L 388.810631 115.014685 
L 390.000905 115.828993 
L 390.603907 115.720174 
L 390.976195 115.688001 
L 391.369457 115.78321 
L 392.045868 116.008608 
L 392.821905 116.259297 
L 393.81817 116.912394 
L 394.992713 117.205225 
L 395.616689 117.088896 
L 396.660144 117.079748 
L 397.347042 116.790186 
L 397.682626 116.718503 
L 398.474394 116.566888 
L 400.267669 116.099526 
L 401.987536 115.73911 
L 402.915635 115.196282 
L 403.738863 115.431964 
L 404.677449 115.043924 
L 404.950111 114.983463 
L 405.988323 114.528797 
L 406.622786 114.354328 
L 408.646775 114.741352 
L 409.019063 114.676416 
L 410.099224 114.981505 
L 410.440051 115.157179 
L 411.331445 115.228703 
L 412.841572 115.292921 
L 413.350191 115.455763 
L 413.906001 115.300233 
L 415.237849 115.083118 
L 415.526241 114.925368 
L 416.192165 114.557643 
L 416.800411 114.178181 
L 417.933006 113.523964 
L 418.551738 113.514155 
L 419.516542 113.135388 
L 420.712059 113.411892 
L 421.377983 113.623894 
L 421.891845 113.736104 
L 424.518836 114.556661 
L 426.5638 114.807223 
L 427.366055 114.854273 
L 428.372806 115.04382 
L 429.78855 114.716179 
L 431.267215 114.360461 
L 433.306935 114.25325 
L 433.936155 114.287707 
L 434.843279 114.185037 
L 435.986361 114.23071 
L 438.005107 114.495905 
L 438.592379 114.541294 
L 439.05905 114.481129 
L 440.280784 114.013887 
L 440.78416 113.712647 
L 441.350457 113.519036 
L 443.080811 112.561596 
L 443.516021 112.300959 
L 443.731004 112.368348 
L 443.909283 112.327343 
L 444.23438 112.199843 
L 444.396928 112.141519 
L 444.868843 111.894602 
L 445.225401 111.845502 
L 446.237395 111.722826 
L 447.35426 111.363834 
L 448.638916 111.756974 
L 449.813459 111.587237 
L 450.599984 111.461534 
L 451.653926 111.427734 
L 452.891391 111.367101 
L 453.583533 111.611753 
L 454.065934 111.732935 
L 454.412005 111.570753 
L 455.245721 111.291995 
L 455.691418 111.255947 
L 456.221011 111.289534 
L 456.687682 111.379018 
L 457.290684 111.517431 
L 458.307922 111.583706 
L 459.823292 111.519089 
L 460.415807 111.367603 
L 460.667495 111.397327 
L 461.527429 111.447687 
L 462.135674 111.308007 
L 462.497475 111.234724 
L 462.728189 111.236517 
L 463.609096 111.621317 
L 463.939437 111.595144 
L 464.558169 111.333933 
L 467.683292 109.536978 
L 468.260077 109.347175 
L 469.303533 108.987022 
L 471.421905 108.221395 
L 474.29534 108.094723 
L 478.217475 108.483161 
L 478.553059 108.476119 
L 480.236221 108.46829 
L 480.508883 108.440209 
L 482.779316 108.055998 
L 484.184573 107.56058 
L 484.609296 107.545539 
L 484.913419 107.416645 
L 485.443012 107.299839 
L 487.398836 107.18169 
L 487.860264 107.179043 
L 490.010097 106.834254 
L 491.043065 106.366725 
L 491.473032 106.322505 
L 492.060304 106.317307 
L 492.637088 106.341731 
L 493.460317 106.236464 
L 494.503772 106.388185 
L 494.959957 106.266683 
L 496.186935 105.954166 
L 496.658849 105.871365 
L 497.141251 105.902433 
L 497.817662 105.851 
L 499.548015 105.553909 
L 501.189229 105.894131 
L 501.97051 106.107502 
L 502.940557 105.707433 
L 503.360037 105.628818 
L 504.02596 105.543918 
L 504.786267 105.310836 
L 505.305373 105.191165 
L 506.013245 105.085867 
L 506.411751 105.059645 
L 507.224493 104.830089 
L 507.764573 104.694846 
L 508.052965 104.523029 
L 509.636501 103.614878 
L 510.045493 103.67923 
L 510.548869 103.593014 
L 511.083706 103.525378 
L 511.859743 103.424744 
L 512.803572 103.147566 
L 513.212565 102.996899 
L 516.453045 103.386901 
L 517.145187 103.599151 
L 519.908509 103.670113 
L 520.333232 103.710937 
L 520.805146 103.793922 
L 521.607401 104.046327 
L 523.138502 104.397622 
L 523.93027 104.461522 
L 524.984212 104.554935 
L 528.408215 104.722062 
L 529.304853 104.71662 
L 530.06516 104.710388 
L 530.940824 104.629221 
L 534.102651 104.261529 
L 534.737114 104.001044 
L 534.994046 103.952959 
L 535.633752 103.967959 
L 536.498929 103.887904 
L 537.091444 103.80514 
L 537.416541 103.708546 
L 538.984346 103.123253 
L 539.419556 103.001283 
L 540.216567 102.846572 
L 541.228562 102.777325 
L 541.737181 102.8952 
L 542.408348 103.086755 
L 543.703492 103.109102 
L 544.521477 103.176494 
L 545.596394 103.071306 
L 545.931977 102.989136 
L 546.409136 103.031751 
L 547.09079 103.046223 
L 547.331991 103.048792 
L 547.75147 103.095513 
L 548.354472 103.098474 
L 550.986707 103.30726 
L 551.532031 103.312125 
L 553.042158 103.914075 
L 553.561264 104.137119 
L 553.923065 104.137246 
L 554.174753 104.170878 
L 555.569522 103.926742 
L 558.794272 103.868965 
L 560.639983 104.282474 
L 560.954592 104.329352 
L 561.998048 104.5036 
L 563.450496 104.751242 
L 564.368108 104.709552 
L 565.317181 104.908231 
L 566.072244 104.934592 
L 566.502211 105.034035 
L 567.178622 104.99548 
L 569.464786 104.688899 
L 570.230336 104.284301 
L 570.969669 103.842883 
L 571.404879 103.718335 
L 574.87083 103.286124 
L 575.258848 103.296432 
L 576.354739 103.31069 
L 577.209429 103.633885 
L 578.247641 104.05328 
L 579.128548 104.171153 
L 580.098595 104.099407 
L 581.5458 104.30562 
L 581.923331 104.436729 
L 583.994512 105.195855 
L 584.822984 105.143902 
L 585.153325 105.16209 
L 586.427494 105.424447 
L 587.449976 105.994432 
L 588.252231 106.332403 
L 589.190816 106.42052 
L 591.319676 106.432277 
L 593.118195 105.921195 
L 596.148935 105.595487 
L 598.125733 106.032974 
L 600.422384 106.131611 
L 600.883812 106.184302 
L 602.137007 106.635282 
L 603.154245 106.97243 
L 604.900329 107.234505 
L 605.634419 107.295872 
L 608.224705 107.21994 
L 609.404492 107.422462 
L 610.982784 107.56274 
L 610.982784 107.56274 
" clip-path="url(#p85aa82bc6c)" style="fill: none; stroke: #1f2937; stroke-linecap: square"/>
   </g>
   <g id="line2d_32">
    <path d="M 60.42125 107.56274 
L 637.2 107.56274 
" clip-path="url(#p85aa82bc6c)" style="fill: none; stroke-dasharray: 2.96,1.28; stroke-dashoffset: 0; stroke: #888888; stroke-width: 0.8"/>
   </g>
   <g id="patch_3">
    <path d="M 60.42125 282.04 
L 60.42125 26.88 
" style="fill: none; stroke: #000000; stroke-width: 0.8; stroke-linejoin: miter; stroke-linecap: square"/>
   </g>
   <g id="patch_4">
    <path d="M 637.2 282.04 
L 637.2 26.88 
" style="fill: none; stroke: #000000; stroke-width: 0.8; stroke-linejoin: miter; stroke-linecap: square"/>
   </g>
   <g id="patch_5">
    <path d="M 60.42125 282.04 
L 637.2 282.04 
" style="fill: none; stroke: #000000; stroke-width: 0.8; stroke-linejoin: miter; stroke-linecap: square"/>
   </g>
   <g id="patch_6">
    <path d="M 60.42125 26.88 
L 637.2 26.88 
" style="fill: none; stroke: #000000; stroke-width: 0.8; stroke-linejoin: miter; stroke-linecap: square"/>
   </g>
   <g id="text_18">
    <!-- Running mean — mean_median  (100k ReCom samples, seed 42) -->
    <g transform="translate(151.835312 20.88) scale(0.12 -0.12)">
     <defs>
      <path id="DejaVuSans-2014" d="M 313 1978 
L 6088 1978 
L 6088 1528 
L 313 1528 
L 313 1978 
z
" transform="scale(0.015625)"/>
      <path id="DejaVuSans-28" d="M 1984 4856 
Q 1566 4138 1362 3434 
Q 1159 2731 1159 2009 
Q 1159 1288 1364 580 
Q 1569 -128 1984 -844 
L 1484 -844 
Q 1016 -109 783 600 
Q 550 1309 550 2009 
Q 550 2706 781 3412 
Q 1013 4119 1484 4856 
L 1984 4856 
z
" transform="scale(0.015625)"/>
      <path id="DejaVuSans-6b" d="M 581 4863 
L 1159 4863 
L 1159 1991 
L 2875 3500 
L 3609 3500 
L 1753 1863 
L 3688 0 
L 2938 0 
L 1159 1709 
L 1159 0 
L 581 0 
L 581 4863 
z
" transform="scale(0.015625)"/>
      <path id="DejaVuSans-43" d="M 4122 4306 
L 4122 3641 
Q 3803 3938 3442 4084 
Q 3081 4231 2675 4231 
Q 1875 4231 1450 3742 
Q 1025 3253 1025 2328 
Q 1025 1406 1450 917 
Q 1875 428 2675 428 
Q 3081 428 3442 575 
Q 3803 722 4122 1019 
L 4122 359 
Q 3791 134 3420 21 
Q 3050 -91 2638 -91 
Q 1578 -91 968 557 
Q 359 1206 359 2328 
Q 359 3453 968 4101 
Q 1578 4750 2638 4750 
Q 3056 4750 3426 4639 
Q 3797 4528 4122 4306 
z
" transform="scale(0.015625)"/>
      <path id="DejaVuSans-73" d="M 2834 3397 
L 2834 2853 
Q 2591 2978 2328 3040 
Q 2066 3103 1784 3103 
Q 1356 3103 1142 2972 
Q 928 2841 928 2578 
Q 928 2378 1081 2264 
Q 1234 2150 1697 2047 
L 1894 2003 
Q 2506 1872 2764 1633 
Q 3022 1394 3022 966 
Q 3022 478 2636 193 
Q 2250 -91 1575 -91 
Q 1294 -91 989 -36 
Q 684 19 347 128 
L 347 722 
Q 666 556 975 473 
Q 1284 391 1588 391 
Q 1994 391 2212 530 
Q 2431 669 2431 922 
Q 2431 1156 2273 1281 
Q 2116 1406 1581 1522 
L 1381 1569 
Q 847 1681 609 1914 
Q 372 2147 372 2553 
Q 372 3047 722 3315 
Q 1072 3584 1716 3584 
Q 2034 3584 2315 3537 
Q 2597 3491 2834 3397 
z
" transform="scale(0.015625)"/>
      <path id="DejaVuSans-2c" d="M 750 794 
L 1409 794 
L 1409 256 
L 897 -744 
L 494 -744 
L 750 256 
L 750 794 
z
" transform="scale(0.015625)"/>
      <path id="DejaVuSans-29" d="M 513 4856 
L 1013 4856 
Q 1481 4119 1714 3412 
Q 1947 2706 1947 2009 
Q 1947 1309 1714 600 
Q 1481 -109 1013 -844 
L 513 -844 
Q 928 -128 1133 580 
Q 1338 1288 1338 2009 
Q 1338 2731 1133 3434 
Q 928 4138 513 4856 
z
" transform="scale(0.015625)"/>
     </defs>
     <use xlink:href="#DejaVuSans-52"/>
     <use xlink:href="#DejaVuSans-75" transform="translate(64.982422 0)"/>
     <use xlink:href="#DejaVuSans-6e" transform="translate(128.361328 0)"/>
     <use xlink:href="#DejaVuSans-6e" transform="translate(191.740234 0)"/>
     <use xlink:href="#DejaVuSans-69" transform="translate(255.119141 0)"/>
     <use xlink:href="#DejaVuSans-6e" transform="translate(282.902344 0)"/>
     <use xlink:href="#DejaVuSans-67" transform="translate(346.28125 0)"/>
     <use xlink:href="#DejaVuSans-20" transform="translate(409.757812 0)"/>
     <use xlink:href="#DejaVuSans-6d" transform="translate(441.544922 0)"/>
     <use xlink:href="#DejaVuSans-65" transform="translate(538.957031 0)"/>
     <use xlink:href="#DejaVuSans-61" transform="translate(600.480469 0)"/>
     <use xlink:href="#DejaVuSans-6e" transform="translate(661.759766 0)"/>
     <use xlink:href="#DejaVuSans-20" transform="translate(725.138672 0)"/>
     <use xlink:href="#DejaVuSans-2014" transform="translate(756.925781 0)"/>
     <use xlink:href="#DejaVuSans-20" transform="translate(856.925781 0)"/>
     <use xlink:href="#DejaVuSans-6d" transform="translate(888.712891 0)"/>
     <use xlink:href="#DejaVuSans-65" transform="translate(986.125 0)"/>
     <use xlink:href="#DejaVuSans-61" transform="translate(1047.648438 0)"/>
     <use xlink:href="#DejaVuSans-6e" transform="translate(1108.927734 0)"/>
     <use xlink:href="#DejaVuSans-5f" transform="translate(1172.306641 0)"/>
     <use xlink:href="#DejaVuSans-6d" transform="translate(1222.306641 0)"/>
     <use xlink:href="#DejaVuSans-65" transform="translate(1319.71875 0)"/>
     <use xlink:href="#DejaVuSans-64" transform="translate(1381.242188 0)"/>
     <use xlink:href="#DejaVuSans-69" transform="translate(1444.71875 0)"/>
     <use xlink:href="#DejaVuSans-61" transform="translate(1472.501953 0)"/>
     <use xlink:href="#DejaVuSans-6e" transform="translate(1533.78125 0)"/>
     <use xlink:href="#DejaVuSans-20" transform="translate(1597.160156 0)"/>
     <use xlink:href="#DejaVuSans-20" transform="translate(1628.947266 0)"/>
     <use xlink:href="#DejaVuSans-28" transform="translate(1660.734375 0)"/>
     <use xlink:href="#DejaVuSans-31" transform="translate(1699.748047 0)"/>
     <use xlink:href="#DejaVuSans-30" transform="translate(1763.371094 0)"/>
     <use xlink:href="#DejaVuSans-30" transform="translate(1826.994141 0)"/>
     <use xlink:href="#DejaVuSans-6b" transform="translate(1890.617188 0)"/>
     <use xlink:href="#DejaVuSans-20" transform="translate(1948.527344 0)"/>
     <use xlink:href="#DejaVuSans-52" transform="translate(1980.314453 0)"/>
     <use xlink:href="#DejaVuSans-65" transform="translate(2045.296875 0)"/>
     <use xlink:href="#DejaVuSans-43" transform="translate(2106.820312 0)"/>
     <use xlink:href="#DejaVuSans-6f" transform="translate(2176.644531 0)"/>
     <use xlink:href="#DejaVuSans-6d" transform="translate(2237.826172 0)"/>
     <use xlink:href="#DejaVuSans-20" transform="translate(2335.238281 0)"/>
     <use xlink:href="#DejaVuSans-73" transform="translate(2367.025391 0)"/>
     <use xlink:href="#DejaVuSans-61" transform="translate(2419.125 0)"/>
     <use xlink:href="#DejaVuSans-6d" transform="translate(2480.404297 0)"/>
     <use xlink:href="#DejaVuSans-70" transform="translate(2577.816406 0)"/>
     <use xlink:href="#DejaVuSans-6c" transform="translate(2641.292969 0)"/>
     <use xlink:href="#DejaVuSans-65" transform="translate(2669.076172 0)"/>
     <use xlink:href="#DejaVuSans-73" transform="translate(2730.599609 0)"/>
     <use xlink:href="#DejaVuSans-2c" transform="translate(2782.699219 0)"/>
     <use xlink:href="#DejaVuSans-20" transform="translate(2814.486328 0)"/>
     <use xlink:href="#DejaVuSans-73" transform="translate(2846.273438 0)"/>
     <use xlink:href="#DejaVuSans-65" transform="translate(2898.373047 0)"/>
     <use xlink:href="#DejaVuSans-65" transform="translate(2959.896484 0)"/>
     <use xlink:href="#DejaVuSans-64" transform="translate(3021.419922 0)"/>
     <use xlink:href="#DejaVuSans-20" transform="translate(3084.896484 0)"/>
     <use xlink:href="#DejaVuSans-34" transform="translate(3116.683594 0)"/>
     <use xlink:href="#DejaVuSans-32" transform="translate(3180.306641 0)"/>
     <use xlink:href="#DejaVuSans-29" transform="translate(3243.929688 0)"/>
    </g>
   </g>
   <g id="legend_1">
    <g id="patch_7">
     <path d="M 496.306406 47.290312 
L 630.9 47.290312 
Q 632.7 47.290312 632.7 45.490312 
L 632.7 33.18 
Q 632.7 31.38 630.9 31.38 
L 496.306406 31.38 
Q 494.506406 31.38 494.506406 33.18 
L 494.506406 45.490312 
Q 494.506406 47.290312 496.306406 47.290312 
z
" style="fill: #ffffff; opacity: 0.8; stroke: #cccccc; stroke-linejoin: miter"/>
    </g>
    <g id="line2d_33">
     <path d="M 498.106406 38.668594 
L 507.106406 38.668594 
L 516.106406 38.668594 
" style="fill: none; stroke-dasharray: 2.96,1.28; stroke-dashoffset: 0; stroke: #888888; stroke-width: 0.8"/>
    </g>
    <g id="text_19">
     <!-- final mean = +0.04966 -->
     <g transform="translate(523.306406 41.818594) scale(0.09 -0.09)">
      <defs>
       <path id="DejaVuSans-3d" d="M 678 2906 
L 4684 2906 
L 4684 2381 
L 678 2381 
L 678 2906 
z
M 678 1631 
L 4684 1631 
L 4684 1100 
L 678 1100 
L 678 1631 
z
" transform="scale(0.015625)"/>
       <path id="DejaVuSans-2b" d="M 2944 4013 
L 2944 2272 
L 4684 2272 
L 4684 1741 
L 2944 1741 
L 2944 0 
L 2419 0 
L 2419 1741 
L 678 1741 
L 678 2272 
L 2419 2272 
L 2419 4013 
L 2944 4013 
z
" transform="scale(0.015625)"/>
      </defs>
      <use xlink:href="#DejaVuSans-66"/>
      <use xlink:href="#DejaVuSans-69" transform="translate(35.205078 0)"/>
      <use xlink:href="#DejaVuSans-6e" transform="translate(62.988281 0)"/>
      <use xlink:href="#DejaVuSans-61" transform="translate(126.367188 0)"/>
      <use xlink:href="#DejaVuSans-6c" transform="translate(187.646484 0)"/>
      <use xlink:href="#DejaVuSans-20" transform="translate(215.429688 0)"/>
      <use xlink:href="#DejaVuSans-6d" transform="translate(247.216797 0)"/>
      <use xlink:href="#DejaVuSans-65" transform="translate(344.628906 0)"/>
      <use xlink:href="#DejaVuSans-61" transform="translate(406.152344 0)"/>
      <use xlink:href="#DejaVuSans-6e" transform="translate(467.431641 0)"/>
      <use xlink:href="#DejaVuSans-20" transform="translate(530.810547 0)"/>
      <use xlink:href="#DejaVuSans-3d" transform="translate(562.597656 0)"/>
      <use xlink:href="#DejaVuSans-20" transform="translate(646.386719 0)"/>
      <use xlink:href="#DejaVuSans-2b" transform="translate(678.173828 0)"/>
      <use xlink:href="#DejaVuSans-30" transform="translate(761.962891 0)"/>
      <use xlink:href="#DejaVuSans-2e" transform="translate(825.585938 0)"/>
      <use xlink:href="#DejaVuSans-30" transform="translate(857.373047 0)"/>
      <use xlink:href="#DejaVuSans-34" transform="translate(920.996094 0)"/>
      <use xlink:href="#DejaVuSans-39" transform="translate(984.619141 0)"/>
      <use xlink:href="#DejaVuSans-36" transform="translate(1048.242188 0)"/>
      <use xlink:href="#DejaVuSans-36" transform="translate(1111.865234 0)"/>
     </g>
    </g>
   </g>
  </g>
 </g>
 <defs>
  <clipPath id="p85aa82bc6c">
   <rect x="60.42125" y="26.88" width="576.77875" height="255.16"/>
  </clipPath>
 </defs>
</svg>
