<?xml version="1.0" encoding="utf-8" standalone="no"?>
<!DOCTYPE svg PUBLIC "-//W3C//DTD SVG 1.1//EN"
  "http://www.w3.org/Graphics/SVG/1.1/DTD/svg11.dtd">
<svg xmlns:xlink="http://www.w3.org/1999/xlink" width="648pt" height="324pt" viewBox="0 0 648 324" xmlns="http://www.w3.org/2000/svg" version="1.1">
 <metadata>
  <rdf:RDF xmlns:dc="http://purl.org/dc/elements/1.1/" xmlns:cc="http://creativecommons.org/ns#" xmlns:rdf="http://www.w3.org/1999/02/22-rdf-syntax-ns#">
   <cc:Work>
    <dc:type rdf:resource="http://purl.org/dc/dcmitype/StillImage"/>
    <dc:date>2026-05-18T20:46:14.859274</dc:date>
    <dc:format>image/svg+xml</dc:format>
    <dc:creator>
     <cc:Agent>
      <dc:title>Matplotlib v3.10.8, https://matplotlib.org/</dc:title>
     </cc:Agent>
    </dc:creator>
   </cc:Work>
  </rdf:RDF>
 </metadata>
 <defs>
  <style type="text/css">*{stroke-linejoin: round; stroke-linecap: butt}</style>
 </defs>
 <g id="figure_1">
  <g id="patch_1">
   <path d="M 0 324 
L 648 324 
L 648 0 
L 0 0 
z
" style="fill: #ffffff"/>
  </g>
  <g id="axes_1">
   <g id="patch_2">
    <path d="M 54.02 282.04 
L 637.2 282.04 
L 637.2 26.88 
L 54.02 26.88 
z
" style="fill: #ffffff"/>
   </g>
   <g id="matplotlib.axis_1">
    <g id="xtick_1">
     <g id="line2d_1">
      <path d="M 80.526061 282.04 
L 80.526061 26.88 
" clip-path="url(#paacc41600b)" style="fill: none; stroke-dasharray: 0.5,0.825; stroke-dashoffset: 0; stroke: #b0b0b0; stroke-opacity: 0.6; stroke-width: 0.5"/>
     </g>
     <g id="line2d_2">
      <defs>
       <path id="mca98e34f0d" d="M 0 0 
L 0 3.5 
" style="stroke: #000000; stroke-width: 0.8"/>
      </defs>
      <g>
       <use xlink:href="#mca98e34f0d" x="80.526061" y="282.04" style="stroke: #000000; stroke-width: 0.8"/>
      </g>
     </g>
     <g id="text_1">
      <!-- 0 -->
      <g transform="translate(77.344811 296.638438) scale(0.1 -0.1)">
       <defs>
        <path id="DejaVuSans-30" d="M 2034 4250 
Q 1547 4250 1301 3770 
Q 1056 3291 1056 2328 
Q 1056 1369 1301 889 
Q 1547 409 2034 409 
Q 2525 409 2770 889 
Q 3016 1369 3016 2328 
Q 3016 3291 2770 3770 
Q 2525 4250 2034 4250 
z
M 2034 4750 
Q 2819 4750 3233 4129 
Q 3647 3509 3647 2328 
Q 3647 1150 3233 529 
Q 2819 -91 2034 -91 
Q 1250 -91 836 529 
Q 422 1150 422 2328 
Q 422 3509 836 4129 
Q 1250 4750 2034 4750 
z
" transform="scale(0.015625)"/>
       </defs>
       <use xlink:href="#DejaVuSans-30"/>
      </g>
     </g>
    </g>
    <g id="xtick_2">
     <g id="line2d_3">
      <path d="M 186.559213 282.04 
L 186.559213 26.88 
" clip-path="url(#paacc41600b)" style="fill: none; stroke-dasharray: 0.5,0.825; stroke-dashoffset: 0; stroke: #b0b0b0; stroke-opacity: 0.6; stroke-width: 0.5"/>
     </g>
     <g id="line2d_4">
      <g>
       <use xlink:href="#mca98e34f0d" x="186.559213" y="282.04" style="stroke: #000000; stroke-width: 0.8"/>
      </g>
     </g>
     <g id="text_2">
      <!-- 50000 -->
      <g transform="translate(170.652963 296.638438) scale(0.1 -0.1)">
       <defs>
        <path id="DejaVuSans-35" d="M 691 4666 
L 3169 4666 
L 3169 4134 
L 1269 4134 
L 1269 2991 
Q 1406 3038 1543 3061 
Q 1681 3084 1819 3084 
Q 2600 3084 3056 2656 
Q 3513 2228 3513 1497 
Q 3513 744 3044 326 
Q 2575 -91 1722 -91 
Q 1428 -91 1123 -41 
Q 819 9 494 109 
L 494 744 
Q 775 591 1075 516 
Q 1375 441 1709 441 
Q 2250 441 2565 725 
Q 2881 1009 2881 1497 
Q 2881 1984 2565 2268 
Q 2250 2553 1709 2553 
Q 1456 2553 1204 2497 
Q 953 2441 691 2322 
L 691 4666 
z
" transform="scale(0.015625)"/>
       </defs>
       <use xlink:href="#DejaVuSans-35"/>
       <use xlink:href="#DejaVuSans-30" transform="translate(63.623047 0)"/>
       <use xlink:href="#DejaVuSans-30" transform="translate(127.246094 0)"/>
       <use xlink:href="#DejaVuSans-30" transform="translate(190.869141 0)"/>
       <use xlink:href="#DejaVuSans-30" transform="translate(254.492188 0)"/>
      </g>
     </g>
    </g>
    <g id="xtick_3">
     <g id="line2d_5">
      <path d="M 292.592364 282.04 
L 292.592364 26.88 
" clip-path="url(#paacc41600b)" style="fill: none; stroke-dasharray: 0.5,0.825; stroke-dashoffset: 0; stroke: #b0b0b0; stroke-opacity: 0.6; stroke-width: 0.5"/>
     </g>
     <g id="line2d_6">
      <g>
       <use xlink:href="#mca98e34f0d" x="292.592364" y="282.04" style="stroke: #000000; stroke-width: 0.8"/>
      </g>
     </g>
     <g id="text_3">
      <!-- 100000 -->
      <g transform="translate(273.504864 296.638438) scale(0.1 -0.1)">
       <defs>
        <path id="DejaVuSans-31" d="M 794 531 
L 1825 531 
L 1825 4091 
L 703 3866 
L 703 4441 
L 1819 4666 
L 2450 4666 
L 2450 531 
L 3481 531 
L 3481 0 
L 794 0 
L 794 531 
z
" transform="scale(0.015625)"/>
       </defs>
       <use xlink:href="#DejaVuSans-31"/>
       <use xlink:href="#DejaVuSans-30" transform="translate(63.623047 0)"/>
       <use xlink:href="#DejaVuSans-30" transform="translate(127.246094 0)"/>
       <use xlink:href="#DejaVuSans-30" transform="translate(190.869141 0)"/>
       <use xlink:href="#DejaVuSans-30" transform="translate(254.492188 0)"/>
       <use xlink:href="#DejaVuSans-30" transform="translate(318.115234 0)"/>
      </g>
     </g>
    </g>
    <g id="xtick_4">
     <g id="line2d_7">
      <path d="M 398.625515 282.04 
L 398.625515 26.88 
" clip-path="url(#paacc41600b)" style="fill: none; stroke-dasharray: 0.5,0.825; stroke-dashoffset: 0; stroke: #b0b0b0; stroke-opacity: 0.6; stroke-width: 0.5"/>
     </g>
     <g id="line2d_8">
      <g>
       <use xlink:href="#mca98e34f0d" x="398.625515" y="282.04" style="stroke: #000000; stroke-width: 0.8"/>
      </g>
     </g>
     <g id="text_4">
      <!-- 150000 -->
      <g transform="translate(379.538015 296.638438) scale(0.1 -0.1)">
       <use xlink:href="#DejaVuSans-31"/>
       <use xlink:href="#DejaVuSans-35" transform="translate(63.623047 0)"/>
       <use xlink:href="#DejaVuSans-30" transform="translate(127.246094 0)"/>
       <use xlink:href="#DejaVuSans-30" transform="translate(190.869141 0)"/>
       <use xlink:href="#DejaVuSans-30" transform="translate(254.492188 0)"/>
       <use xlink:href="#DejaVuSans-30" transform="translate(318.115234 0)"/>
      </g>
     </g>
    </g>
    <g id="xtick_5">
     <g id="line2d_9">
      <path d="M 504.658667 282.04 
L 504.658667 26.88 
" clip-path="url(#paacc41600b)" style="fill: none; stroke-dasharray: 0.5,0.825; stroke-dashoffset: 0; stroke: #b0b0b0; stroke-opacity: 0.6; stroke-width: 0.5"/>
     </g>
     <g id="line2d_10">
      <g>
       <use xlink:href="#mca98e34f0d" x="504.658667" y="282.04" style="stroke: #000000; stroke-width: 0.8"/>
      </g>
     </g>
     <g id="text_5">
      <!-- 200000 -->
      <g transform="translate(485.571167 296.638438) scale(0.1 -0.1)">
       <defs>
        <path id="DejaVuSans-32" d="M 1228 531 
L 3431 531 
L 3431 0 
L 469 0 
L 469 531 
Q 828 903 1448 1529 
Q 2069 2156 2228 2338 
Q 2531 2678 2651 2914 
Q 2772 3150 2772 3378 
Q 2772 3750 2511 3984 
Q 2250 4219 1831 4219 
Q 1534 4219 1204 4116 
Q 875 4013 500 3803 
L 500 4441 
Q 881 4594 1212 4672 
Q 1544 4750 1819 4750 
Q 2544 4750 2975 4387 
Q 3406 4025 3406 3419 
Q 3406 3131 3298 2873 
Q 3191 2616 2906 2266 
Q 2828 2175 2409 1742 
Q 1991 1309 1228 531 
z
" transform="scale(0.015625)"/>
       </defs>
       <use xlink:href="#DejaVuSans-32"/>
       <use xlink:href="#DejaVuSans-30" transform="translate(63.623047 0)"/>
       <use xlink:href="#DejaVuSans-30" transform="translate(127.246094 0)"/>
       <use xlink:href="#DejaVuSans-30" transform="translate(190.869141 0)"/>
       <use xlink:href="#DejaVuSans-30" transform="translate(254.492188 0)"/>
       <use xlink:href="#DejaVuSans-30" transform="translate(318.115234 0)"/>
      </g>
     </g>
    </g>
    <g id="xtick_6">
     <g id="line2d_11">
      <path d="M 610.691818 282.04 
L 610.691818 26.88 
" clip-path="url(#paacc41600b)" style="fill: none; stroke-dasharray: 0.5,0.825; stroke-dashoffset: 0; stroke: #b0b0b0; stroke-opacity: 0.6; stroke-width: 0.5"/>
     </g>
     <g id="line2d_12">
      <g>
       <use xlink:href="#mca98e34f0d" x="610.691818" y="282.04" style="stroke: #000000; stroke-width: 0.8"/>
      </g>
     </g>
     <g id="text_6">
      <!-- 250000 -->
      <g transform="translate(591.604318 296.638438) scale(0.1 -0.1)">
       <use xlink:href="#DejaVuSans-32"/>
       <use xlink:href="#DejaVuSans-35" transform="translate(63.623047 0)"/>
       <use xlink:href="#DejaVuSans-30" transform="translate(127.246094 0)"/>
       <use xlink:href="#DejaVuSans-30" transform="translate(190.869141 0)"/>
       <use xlink:href="#DejaVuSans-30" transform="translate(254.492188 0)"/>
       <use xlink:href="#DejaVuSans-30" transform="translate(318.115234 0)"/>
      </g>
     </g>
    </g>
    <g id="text_7">
     <!-- Sample index -->
     <g transform="translate(311.592031 310.316563) scale(0.1 -0.1)">
      <defs>
       <path id="DejaVuSans-53" d="M 3425 4513 
L 3425 3897 
Q 3066 4069 2747 4153 
Q 2428 4238 2131 4238 
Q 1616 4238 1336 4038 
Q 1056 3838 1056 3469 
Q 1056 3159 1242 3001 
Q 1428 2844 1947 2747 
L 2328 2669 
Q 3034 2534 3370 2195 
Q 3706 1856 3706 1288 
Q 3706 609 3251 259 
Q 2797 -91 1919 -91 
Q 1588 -91 1214 -16 
Q 841 59 441 206 
L 441 856 
Q 825 641 1194 531 
Q 1563 422 1919 422 
Q 2459 422 2753 634 
Q 3047 847 3047 1241 
Q 3047 1584 2836 1778 
Q 2625 1972 2144 2069 
L 1759 2144 
Q 1053 2284 737 2584 
Q 422 2884 422 3419 
Q 422 4038 858 4394 
Q 1294 4750 2059 4750 
Q 2388 4750 2728 4690 
Q 3069 4631 3425 4513 
z
" transform="scale(0.015625)"/>
       <path id="DejaVuSans-61" d="M 2194 1759 
Q 1497 1759 1228 1600 
Q 959 1441 959 1056 
Q 959 750 1161 570 
Q 1363 391 1709 391 
Q 2188 391 2477 730 
Q 2766 1069 2766 1631 
L 2766 1759 
L 2194 1759 
z
M 3341 1997 
L 3341 0 
L 2766 0 
L 2766 531 
Q 2569 213 2275 61 
Q 1981 -91 1556 -91 
Q 1019 -91 701 211 
Q 384 513 384 1019 
Q 384 1609 779 1909 
Q 1175 2209 1959 2209 
L 2766 2209 
L 2766 2266 
Q 2766 2663 2505 2880 
Q 2244 3097 1772 3097 
Q 1472 3097 1187 3025 
Q 903 2953 641 2809 
L 641 3341 
Q 956 3463 1253 3523 
Q 1550 3584 1831 3584 
Q 2591 3584 2966 3190 
Q 3341 2797 3341 1997 
z
" transform="scale(0.015625)"/>
       <path id="DejaVuSans-6d" d="M 3328 2828 
Q 3544 3216 3844 3400 
Q 4144 3584 4550 3584 
Q 5097 3584 5394 3201 
Q 5691 2819 5691 2113 
L 5691 0 
L 5113 0 
L 5113 2094 
Q 5113 2597 4934 2840 
Q 4756 3084 4391 3084 
Q 3944 3084 3684 2787 
Q 3425 2491 3425 1978 
L 3425 0 
L 2847 0 
L 2847 2094 
Q 2847 2600 2669 2842 
Q 2491 3084 2119 3084 
Q 1678 3084 1418 2786 
Q 1159 2488 1159 1978 
L 1159 0 
L 581 0 
L 581 3500 
L 1159 3500 
L 1159 2956 
Q 1356 3278 1631 3431 
Q 1906 3584 2284 3584 
Q 2666 3584 2933 3390 
Q 3200 3197 3328 2828 
z
" transform="scale(0.015625)"/>
       <path id="DejaVuSans-70" d="M 1159 525 
L 1159 -1331 
L 581 -1331 
L 581 3500 
L 1159 3500 
L 1159 2969 
Q 1341 3281 1617 3432 
Q 1894 3584 2278 3584 
Q 2916 3584 3314 3078 
Q 3713 2572 3713 1747 
Q 3713 922 3314 415 
Q 2916 -91 2278 -91 
Q 1894 -91 1617 61 
Q 1341 213 1159 525 
z
M 3116 1747 
Q 3116 2381 2855 2742 
Q 2594 3103 2138 3103 
Q 1681 3103 1420 2742 
Q 1159 2381 1159 1747 
Q 1159 1113 1420 752 
Q 1681 391 2138 391 
Q 2594 391 2855 752 
Q 3116 1113 3116 1747 
z
" transform="scale(0.015625)"/>
       <path id="DejaVuSans-6c" d="M 603 4863 
L 1178 4863 
L 1178 0 
L 603 0 
L 603 4863 
z
" transform="scale(0.015625)"/>
       <path id="DejaVuSans-65" d="M 3597 1894 
L 3597 1613 
L 953 1613 
Q 991 1019 1311 708 
Q 1631 397 2203 397 
Q 2534 397 2845 478 
Q 3156 559 3463 722 
L 3463 178 
Q 3153 47 2828 -22 
Q 2503 -91 2169 -91 
Q 1331 -91 842 396 
Q 353 884 353 1716 
Q 353 2575 817 3079 
Q 1281 3584 2069 3584 
Q 2775 3584 3186 3129 
Q 3597 2675 3597 1894 
z
M 3022 2063 
Q 3016 2534 2758 2815 
Q 2500 3097 2075 3097 
Q 1594 3097 1305 2825 
Q 1016 2553 972 2059 
L 3022 2063 
z
" transform="scale(0.015625)"/>
       <path id="DejaVuSans-20" transform="scale(0.015625)"/>
       <path id="DejaVuSans-69" d="M 603 3500 
L 1178 3500 
L 1178 0 
L 603 0 
L 603 3500 
z
M 603 4863 
L 1178 4863 
L 1178 4134 
L 603 4134 
L 603 4863 
z
" transform="scale(0.015625)"/>
       <path id="DejaVuSans-6e" d="M 3513 2113 
L 3513 0 
L 2938 0 
L 2938 2094 
Q 2938 2591 2744 2837 
Q 2550 3084 2163 3084 
Q 1697 3084 1428 2787 
Q 1159 2491 1159 1978 
L 1159 0 
L 581 0 
L 581 3500 
L 1159 3500 
L 1159 2956 
Q 1366 3272 1645 3428 
Q 1925 3584 2291 3584 
Q 2894 3584 3203 3211 
Q 3513 2838 3513 2113 
z
" transform="scale(0.015625)"/>
       <path id="DejaVuSans-64" d="M 2906 2969 
L 2906 4863 
L 3481 4863 
L 3481 0 
L 2906 0 
L 2906 525 
Q 2725 213 2448 61 
Q 2172 -91 1784 -91 
Q 1150 -91 751 415 
Q 353 922 353 1747 
Q 353 2572 751 3078 
Q 1150 3584 1784 3584 
Q 2172 3584 2448 3432 
Q 2725 3281 2906 2969 
z
M 947 1747 
Q 947 1113 1208 752 
Q 1469 391 1925 391 
Q 2381 391 2643 752 
Q 2906 1113 2906 1747 
Q 2906 2381 2643 2742 
Q 2381 3103 1925 3103 
Q 1469 3103 1208 2742 
Q 947 2381 947 1747 
z
" transform="scale(0.015625)"/>
       <path id="DejaVuSans-78" d="M 3513 3500 
L 2247 1797 
L 3578 0 
L 2900 0 
L 1881 1375 
L 863 0 
L 184 0 
L 1544 1831 
L 300 3500 
L 978 3500 
L 1906 2253 
L 2834 3500 
L 3513 3500 
z
" transform="scale(0.015625)"/>
      </defs>
      <use xlink:href="#DejaVuSans-53"/>
      <use xlink:href="#DejaVuSans-61" transform="translate(63.476562 0)"/>
      <use xlink:href="#DejaVuSans-6d" transform="translate(124.755859 0)"/>
      <use xlink:href="#DejaVuSans-70" transform="translate(222.167969 0)"/>
      <use xlink:href="#DejaVuSans-6c" transform="translate(285.644531 0)"/>
      <use xlink:href="#DejaVuSans-65" transform="translate(313.427734 0)"/>
      <use xlink:href="#DejaVuSans-20" transform="translate(374.951172 0)"/>
      <use xlink:href="#DejaVuSans-69" transform="translate(406.738281 0)"/>
      <use xlink:href="#DejaVuSans-6e" transform="translate(434.521484 0)"/>
      <use xlink:href="#DejaVuSans-64" transform="translate(497.900391 0)"/>
      <use xlink:href="#DejaVuSans-65" transform="translate(561.376953 0)"/>
      <use xlink:href="#DejaVuSans-78" transform="translate(621.150391 0)"/>
     </g>
    </g>
   </g>
   <g id="matplotlib.axis_2">
    <g id="ytick_1">
     <g id="line2d_13">
      <path d="M 54.02 255.63375 
L 637.2 255.63375 
" clip-path="url(#paacc41600b)" style="fill: none; stroke-dasharray: 0.5,0.825; stroke-dashoffset: 0; stroke: #b0b0b0; stroke-opacity: 0.6; stroke-width: 0.5"/>
     </g>
     <g id="line2d_14">
      <defs>
       <path id="mcd91d3873f" d="M 0 0 
L -3.5 0 
" style="stroke: #000000; stroke-width: 0.8"/>
      </defs>
      <g>
       <use xlink:href="#mcd91d3873f" x="54.02" y="255.63375" style="stroke: #000000; stroke-width: 0.8"/>
      </g>
     </g>
     <g id="text_8">
      <!-- 0.00 -->
      <g transform="translate(24.754375 259.432969) scale(0.1 -0.1)">
       <defs>
        <path id="DejaVuSans-2e" d="M 684 794 
L 1344 794 
L 1344 0 
L 684 0 
L 684 794 
z
" transform="scale(0.015625)"/>
       </defs>
       <use xlink:href="#DejaVuSans-30"/>
       <use xlink:href="#DejaVuSans-2e" transform="translate(63.623047 0)"/>
       <use xlink:href="#DejaVuSans-30" transform="translate(95.410156 0)"/>
       <use xlink:href="#DejaVuSans-30" transform="translate(159.033203 0)"/>
      </g>
     </g>
    </g>
    <g id="ytick_2">
     <g id="line2d_15">
      <path d="M 54.02 201.809673 
L 637.2 201.809673 
" clip-path="url(#paacc41600b)" style="fill: none; stroke-dasharray: 0.5,0.825; stroke-dashoffset: 0; stroke: #b0b0b0; stroke-opacity: 0.6; stroke-width: 0.5"/>
     </g>
     <g id="line2d_16">
      <g>
       <use xlink:href="#mcd91d3873f" x="54.02" y="201.809673" style="stroke: #000000; stroke-width: 0.8"/>
      </g>
     </g>
     <g id="text_9">
      <!-- 0.01 -->
      <g transform="translate(24.754375 205.608892) scale(0.1 -0.1)">
       <use xlink:href="#DejaVuSans-30"/>
       <use xlink:href="#DejaVuSans-2e" transform="translate(63.623047 0)"/>
       <use xlink:href="#DejaVuSans-30" transform="translate(95.410156 0)"/>
       <use xlink:href="#DejaVuSans-31" transform="translate(159.033203 0)"/>
      </g>
     </g>
    </g>
    <g id="ytick_3">
     <g id="line2d_17">
      <path d="M 54.02 147.985596 
L 637.2 147.985596 
" clip-path="url(#paacc41600b)" style="fill: none; stroke-dasharray: 0.5,0.825; stroke-dashoffset: 0; stroke: #b0b0b0; stroke-opacity: 0.6; stroke-width: 0.5"/>
     </g>
     <g id="line2d_18">
      <g>
       <use xlink:href="#mcd91d3873f" x="54.02" y="147.985596" style="stroke: #000000; stroke-width: 0.8"/>
      </g>
     </g>
     <g id="text_10">
      <!-- 0.02 -->
      <g transform="translate(24.754375 151.784815) scale(0.1 -0.1)">
       <use xlink:href="#DejaVuSans-30"/>
       <use xlink:href="#DejaVuSans-2e" transform="translate(63.623047 0)"/>
       <use xlink:href="#DejaVuSans-30" transform="translate(95.410156 0)"/>
       <use xlink:href="#DejaVuSans-32" transform="translate(159.033203 0)"/>
      </g>
     </g>
    </g>
    <g id="ytick_4">
     <g id="line2d_19">
      <path d="M 54.02 94.161519 
L 637.2 94.161519 
" clip-path="url(#paacc41600b)" style="fill: none; stroke-dasharray: 0.5,0.825; stroke-dashoffset: 0; stroke: #b0b0b0; stroke-opacity: 0.6; stroke-width: 0.5"/>
     </g>
     <g id="line2d_20">
      <g>
       <use xlink:href="#mcd91d3873f" x="54.02" y="94.161519" style="stroke: #000000; stroke-width: 0.8"/>
      </g>
     </g>
     <g id="text_11">
      <!-- 0.03 -->
      <g transform="translate(24.754375 97.960737) scale(0.1 -0.1)">
       <defs>
        <path id="DejaVuSans-33" d="M 2597 2516 
Q 3050 2419 3304 2112 
Q 3559 1806 3559 1356 
Q 3559 666 3084 287 
Q 2609 -91 1734 -91 
Q 1441 -91 1130 -33 
Q 819 25 488 141 
L 488 750 
Q 750 597 1062 519 
Q 1375 441 1716 441 
Q 2309 441 2620 675 
Q 2931 909 2931 1356 
Q 2931 1769 2642 2001 
Q 2353 2234 1838 2234 
L 1294 2234 
L 1294 2753 
L 1863 2753 
Q 2328 2753 2575 2939 
Q 2822 3125 2822 3475 
Q 2822 3834 2567 4026 
Q 2313 4219 1838 4219 
Q 1578 4219 1281 4162 
Q 984 4106 628 3988 
L 628 4550 
Q 988 4650 1302 4700 
Q 1616 4750 1894 4750 
Q 2613 4750 3031 4423 
Q 3450 4097 3450 3541 
Q 3450 3153 3228 2886 
Q 3006 2619 2597 2516 
z
" transform="scale(0.015625)"/>
       </defs>
       <use xlink:href="#DejaVuSans-30"/>
       <use xlink:href="#DejaVuSans-2e" transform="translate(63.623047 0)"/>
       <use xlink:href="#DejaVuSans-30" transform="translate(95.410156 0)"/>
       <use xlink:href="#DejaVuSans-33" transform="translate(159.033203 0)"/>
      </g>
     </g>
    </g>
    <g id="ytick_5">
     <g id="line2d_21">
      <path d="M 54.02 40.337441 
L 637.2 40.337441 
" clip-path="url(#paacc41600b)" style="fill: none; stroke-dasharray: 0.5,0.825; stroke-dashoffset: 0; stroke: #b0b0b0; stroke-opacity: 0.6; stroke-width: 0.5"/>
     </g>
     <g id="line2d_22">
      <g>
       <use xlink:href="#mcd91d3873f" x="54.02" y="40.337441" style="stroke: #000000; stroke-width: 0.8"/>
      </g>
     </g>
     <g id="text_12">
      <!-- 0.04 -->
      <g transform="translate(24.754375 44.13666) scale(0.1 -0.1)">
       <defs>
        <path id="DejaVuSans-34" d="M 2419 4116 
L 825 1625 
L 2419 1625 
L 2419 4116 
z
M 2253 4666 
L 3047 4666 
L 3047 1625 
L 3713 1625 
L 3713 1100 
L 3047 1100 
L 3047 0 
L 2419 0 
L 2419 1100 
L 313 1100 
L 313 1709 
L 2253 4666 
z
" transform="scale(0.015625)"/>
       </defs>
       <use xlink:href="#DejaVuSans-30"/>
       <use xlink:href="#DejaVuSans-2e" transform="translate(63.623047 0)"/>
       <use xlink:href="#DejaVuSans-30" transform="translate(95.410156 0)"/>
       <use xlink:href="#DejaVuSans-34" transform="translate(159.033203 0)"/>
      </g>
     </g>
    </g>
    <g id="text_13">
     <!-- Running mean of declination -->
     <g transform="translate(18.674688 226.302188) rotate(-90) scale(0.1 -0.1)">
      <defs>
       <path id="DejaVuSans-52" d="M 2841 2188 
Q 3044 2119 3236 1894 
Q 3428 1669 3622 1275 
L 4263 0 
L 3584 0 
L 2988 1197 
Q 2756 1666 2539 1819 
Q 2322 1972 1947 1972 
L 1259 1972 
L 1259 0 
L 628 0 
L 628 4666 
L 2053 4666 
Q 2853 4666 3247 4331 
Q 3641 3997 3641 3322 
Q 3641 2881 3436 2590 
Q 3231 2300 2841 2188 
z
M 1259 4147 
L 1259 2491 
L 2053 2491 
Q 2509 2491 2742 2702 
Q 2975 2913 2975 3322 
Q 2975 3731 2742 3939 
Q 2509 4147 2053 4147 
L 1259 4147 
z
" transform="scale(0.015625)"/>
       <path id="DejaVuSans-75" d="M 544 1381 
L 544 3500 
L 1119 3500 
L 1119 1403 
Q 1119 906 1312 657 
Q 1506 409 1894 409 
Q 2359 409 2629 706 
Q 2900 1003 2900 1516 
L 2900 3500 
L 3475 3500 
L 3475 0 
L 2900 0 
L 2900 538 
Q 2691 219 2414 64 
Q 2138 -91 1772 -91 
Q 1169 -91 856 284 
Q 544 659 544 1381 
z
M 1991 3584 
L 1991 3584 
z
" transform="scale(0.015625)"/>
       <path id="DejaVuSans-67" d="M 2906 1791 
Q 2906 2416 2648 2759 
Q 2391 3103 1925 3103 
Q 1463 3103 1205 2759 
Q 947 2416 947 1791 
Q 947 1169 1205 825 
Q 1463 481 1925 481 
Q 2391 481 2648 825 
Q 2906 1169 2906 1791 
z
M 3481 434 
Q 3481 -459 3084 -895 
Q 2688 -1331 1869 -1331 
Q 1566 -1331 1297 -1286 
Q 1028 -1241 775 -1147 
L 775 -588 
Q 1028 -725 1275 -790 
Q 1522 -856 1778 -856 
Q 2344 -856 2625 -561 
Q 2906 -266 2906 331 
L 2906 616 
Q 2728 306 2450 153 
Q 2172 0 1784 0 
Q 1141 0 747 490 
Q 353 981 353 1791 
Q 353 2603 747 3093 
Q 1141 3584 1784 3584 
Q 2172 3584 2450 3431 
Q 2728 3278 2906 2969 
L 2906 3500 
L 3481 3500 
L 3481 434 
z
" transform="scale(0.015625)"/>
       <path id="DejaVuSans-6f" d="M 1959 3097 
Q 1497 3097 1228 2736 
Q 959 2375 959 1747 
Q 959 1119 1226 758 
Q 1494 397 1959 397 
Q 2419 397 2687 759 
Q 2956 1122 2956 1747 
Q 2956 2369 2687 2733 
Q 2419 3097 1959 3097 
z
M 1959 3584 
Q 2709 3584 3137 3096 
Q 3566 2609 3566 1747 
Q 3566 888 3137 398 
Q 2709 -91 1959 -91 
Q 1206 -91 779 398 
Q 353 888 353 1747 
Q 353 2609 779 3096 
Q 1206 3584 1959 3584 
z
" transform="scale(0.015625)"/>
       <path id="DejaVuSans-66" d="M 2375 4863 
L 2375 4384 
L 1825 4384 
Q 1516 4384 1395 4259 
Q 1275 4134 1275 3809 
L 1275 3500 
L 2222 3500 
L 2222 3053 
L 1275 3053 
L 1275 0 
L 697 0 
L 697 3053 
L 147 3053 
L 147 3500 
L 697 3500 
L 697 3744 
Q 697 4328 969 4595 
Q 1241 4863 1831 4863 
L 2375 4863 
z
" transform="scale(0.015625)"/>
       <path id="DejaVuSans-63" d="M 3122 3366 
L 3122 2828 
Q 2878 2963 2633 3030 
Q 2388 3097 2138 3097 
Q 1578 3097 1268 2742 
Q 959 2388 959 1747 
Q 959 1106 1268 751 
Q 1578 397 2138 397 
Q 2388 397 2633 464 
Q 2878 531 3122 666 
L 3122 134 
Q 2881 22 2623 -34 
Q 2366 -91 2075 -91 
Q 1284 -91 818 406 
Q 353 903 353 1747 
Q 353 2603 823 3093 
Q 1294 3584 2113 3584 
Q 2378 3584 2631 3529 
Q 2884 3475 3122 3366 
z
" transform="scale(0.015625)"/>
       <path id="DejaVuSans-74" d="M 1172 4494 
L 1172 3500 
L 2356 3500 
L 2356 3053 
L 1172 3053 
L 1172 1153 
Q 1172 725 1289 603 
Q 1406 481 1766 481 
L 2356 481 
L 2356 0 
L 1766 0 
Q 1100 0 847 248 
Q 594 497 594 1153 
L 594 3053 
L 172 3053 
L 172 3500 
L 594 3500 
L 594 4494 
L 1172 4494 
z
" transform="scale(0.015625)"/>
      </defs>
      <use xlink:href="#DejaVuSans-52"/>
      <use xlink:href="#DejaVuSans-75" transform="translate(64.982422 0)"/>
      <use xlink:href="#DejaVuSans-6e" transform="translate(128.361328 0)"/>
      <use xlink:href="#DejaVuSans-6e" transform="translate(191.740234 0)"/>
      <use xlink:href="#DejaVuSans-69" transform="translate(255.119141 0)"/>
      <use xlink:href="#DejaVuSans-6e" transform="translate(282.902344 0)"/>
      <use xlink:href="#DejaVuSans-67" transform="translate(346.28125 0)"/>
      <use xlink:href="#DejaVuSans-20" transform="translate(409.757812 0)"/>
      <use xlink:href="#DejaVuSans-6d" transform="translate(441.544922 0)"/>
      <use xlink:href="#DejaVuSans-65" transform="translate(538.957031 0)"/>
      <use xlink:href="#DejaVuSans-61" transform="translate(600.480469 0)"/>
      <use xlink:href="#DejaVuSans-6e" transform="translate(661.759766 0)"/>
      <use xlink:href="#DejaVuSans-20" transform="translate(725.138672 0)"/>
      <use xlink:href="#DejaVuSans-6f" transform="translate(756.925781 0)"/>
      <use xlink:href="#DejaVuSans-66" transform="translate(818.107422 0)"/>
      <use xlink:href="#DejaVuSans-20" transform="translate(853.3125 0)"/>
      <use xlink:href="#DejaVuSans-64" transform="translate(885.099609 0)"/>
      <use xlink:href="#DejaVuSans-65" transform="translate(948.576172 0)"/>
      <use xlink:href="#DejaVuSans-63" transform="translate(1010.099609 0)"/>
      <use xlink:href="#DejaVuSans-6c" transform="translate(1065.080078 0)"/>
      <use xlink:href="#DejaVuSans-69" transform="translate(1092.863281 0)"/>
      <use xlink:href="#DejaVuSans-6e" transform="translate(1120.646484 0)"/>
      <use xlink:href="#DejaVuSans-61" transform="translate(1184.025391 0)"/>
      <use xlink:href="#DejaVuSans-74" transform="translate(1245.304688 0)"/>
      <use xlink:href="#DejaVuSans-69" transform="translate(1284.513672 0)"/>
      <use xlink:href="#DejaVuSans-6f" transform="translate(1312.296875 0)"/>
      <use xlink:href="#DejaVuSans-6e" transform="translate(1373.478516 0)"/>
     </g>
    </g>
   </g>
   <g id="line2d_23">
    <path d="M 80.528182 81.680549 
L 80.55363 68.238307 
L 80.604526 137.832876 
L 80.606646 138.739098 
L 80.640577 108.564816 
L 80.784782 64.837118 
L 80.822954 61.554746 
L 80.844161 69.187814 
L 80.922625 90.524407 
L 80.994728 83.599858 
L 81.117726 64.065617 
L 81.234363 38.478182 
L 81.312827 42.645274 
L 81.476118 47.378448 
L 81.495204 45.058582 
L 81.550341 41.833549 
L 81.607599 44.78654 
L 82.065663 101.339479 
L 82.500398 139.076876 
L 82.56826 135.885092 
L 82.769723 127.392295 
L 82.846067 129.049819 
L 83.352905 143.078745 
L 83.39956 143.911107 
L 83.444093 142.643829 
L 83.681608 138.281181 
L 83.514075 143.000711 
L 83.698573 138.390852 
L 83.707056 138.455184 
L 83.726142 137.711097 
L 84.209653 109.715149 
L 84.298721 108.480697 
L 84.334772 109.502472 
L 84.466253 110.711859 
L 84.612579 112.198875 
L 84.502304 110.358847 
L 84.633785 111.79527 
L 84.701647 108.562461 
L 84.788594 105.717001 
L 84.831007 107.006068 
L 84.941282 110.384806 
L 85.00066 109.835173 
L 85.149107 107.452376 
L 85.378138 100.385693 
L 85.424793 101.519149 
L 85.522343 105.016924 
L 85.549912 105.736444 
L 85.628376 104.834984 
L 85.723806 102.780074 
L 85.776823 103.653459 
L 85.791667 103.866397 
L 85.821357 102.809886 
L 86.037664 97.272986 
L 86.237007 92.91943 
L 86.323954 93.044006 
L 86.565709 94.062577 
L 86.593278 93.624828 
L 86.688708 92.112135 
L 86.779896 92.38185 
L 86.860482 92.412958 
L 86.896533 92.359894 
L 86.91774 92.062497 
L 87.136168 88.246109 
L 87.170098 88.869565 
L 87.360958 94.836331 
L 87.5603 98.111326 
L 87.564542 98.104939 
L 87.583628 97.886297 
L 88.177413 88.875176 
L 88.179534 88.873676 
L 88.185896 88.977096 
L 88.330101 93.059069 
L 88.724544 108.931742 
L 88.760596 108.707161 
L 88.777561 108.471243 
L 88.923887 105.99344 
L 88.979024 106.782816 
L 89.089298 106.860136 
L 89.099902 106.712418 
L 89.135953 106.230578 
L 89.18897 106.851097 
L 89.201694 106.846127 
L 89.282279 106.763587 
L 89.290761 106.894033 
L 89.642792 114.184253 
L 90.510143 149.864951 
L 91.324477 177.199204 
L 91.515337 183.470693 
L 91.969159 194.146357 
L 92.664736 210.45026 
L 92.721994 210.164065 
L 92.808941 210.548076 
L 93.197023 214.729657 
L 93.25216 214.672983 
L 93.383641 215.147738 
L 93.646603 220.273232 
L 94.153442 229.399049 
L 95.220135 242.524852 
L 95.464012 245.270478 
L 95.49158 245.434325 
L 95.665475 246.692758 
L 95.667595 246.691051 
L 95.710008 246.666414 
L 95.722732 246.765324 
L 95.830886 248.035499 
L 95.896627 247.816542 
L 96.348328 244.635166 
L 96.356811 244.691219 
L 96.45224 245.173794 
L 96.503136 244.917334 
L 96.583722 244.45069 
L 96.651583 244.52929 
L 96.980286 242.844672 
L 97.234765 239.189272 
L 97.44259 238.025621 
L 97.571951 237.320654 
L 97.610123 237.422333 
L 97.648294 237.286596 
L 97.694949 237.518504 
L 97.703432 237.556777 
L 97.756448 237.280701 
L 98.042738 234.387687 
L 98.099996 234.624588 
L 98.17634 235.35548 
L 98.75316 240.996113 
L 99.07338 242.367295 
L 99.501754 247.86256 
L 99.724424 248.988132 
L 99.726544 248.981487 
L 99.783802 248.465581 
L 100.084936 246.744039 
L 100.101902 246.695624 
L 100.150677 246.895809 
L 100.210055 247.123928 
L 100.273675 246.924699 
L 101.187681 237.367815 
L 101.457005 234.933773 
L 101.476091 235.013273 
L 101.539711 234.955954 
L 101.736933 236.754581 
L 101.885379 237.417783 
L 101.904465 237.379285 
L 102.180151 236.592515 
L 102.275581 236.165004 
L 102.358287 236.194904 
L 102.447355 236.729197 
L 102.515216 236.474199 
L 102.733644 234.252602 
L 103.106881 229.568036 
L 103.723994 224.762986 
L 104.165092 219.686472 
L 104.41321 218.130014 
L 104.858549 216.121642 
L 104.888238 216.131051 
L 105.011236 216.164947 
L 105.030322 216.069139 
L 105.494748 214.165328 
L 105.509592 214.186642 
L 105.649556 214.597823 
L 105.904036 215.458515 
L 105.978259 215.634726 
L 106.26879 218.064035 
L 106.59113 220.26633 
L 106.779869 221.759186 
L 107.755374 230.91735 
L 107.793546 230.785855 
L 107.83596 230.646681 
L 107.941993 230.254552 
L 107.988647 230.439615 
L 108.024699 230.582308 
L 108.128611 230.541219 
L 108.171024 230.667436 
L 108.663018 232.798509 
L 109.059582 234.604299 
L 109.129564 234.328578 
L 109.3077 234.060958 
L 109.411612 233.972398 
L 109.670333 233.296995 
L 109.761522 232.953051 
L 109.863313 232.998267 
L 110.056294 233.041062 
L 110.155965 232.981653 
L 110.185654 233.106914 
L 110.423169 233.680879 
L 110.433772 233.676353 
L 110.478306 233.664136 
L 110.501633 233.770034 
L 111.050885 235.983158 
L 111.076333 235.876492 
L 111.366864 234.868029 
L 111.422001 234.924509 
L 111.651032 234.849833 
L 112.12182 232.60555 
L 112.531108 230.341962 
L 112.647744 230.456038 
L 112.758019 230.886423 
L 112.813156 230.720608 
L 112.851328 230.746668 
L 113.048549 229.67272 
L 113.464199 227.439188 
L 113.470561 227.443478 
L 113.59568 227.517753 
L 113.62537 227.418351 
L 113.752609 226.583189 
L 113.91378 225.585032 
L 113.956193 225.645744 
L 114.087674 225.774035 
L 114.119484 225.686841 
L 114.267931 225.318332 
L 114.316706 225.507155 
L 114.889285 228.59141 
L 115.25828 230.693737 
L 115.485191 231.287251 
L 115.586983 231.483174 
L 116.098063 233.214556 
L 116.127752 233.10762 
L 116.293164 232.84572 
L 116.301646 232.879724 
L 116.520075 234.120398 
L 116.577333 234.01093 
L 116.619746 233.943022 
L 116.662159 234.079268 
L 116.92088 235.049367 
L 117.124464 236.004109 
L 117.470132 237.413412 
L 117.644026 237.974718 
L 117.962126 239.490361 
L 118.532584 240.587586 
L 118.602566 240.779028 
L 118.693754 240.685852 
L 118.795546 240.378351 
L 118.865528 240.493455 
L 119.109404 241.138088 
L 119.139094 241.169798 
L 119.189989 241.063573 
L 119.359643 240.603563 
L 119.4169 240.852559 
L 119.724397 241.934183 
L 119.754086 241.873728 
L 119.938584 241.60715 
L 119.980997 241.700371 
L 120.082789 241.906617 
L 120.127323 241.761337 
L 120.34363 240.140771 
L 120.515404 239.271516 
L 120.562058 239.341122 
L 120.740194 239.433676 
L 120.627799 239.271828 
L 120.746556 239.421201 
L 120.935295 239.231011 
L 120.95226 239.264584 
L 120.975588 239.310573 
L 121.04769 239.211616 
L 121.124034 238.947048 
L 121.191895 238.79185 
L 121.244912 238.904729 
L 121.656321 240.076657 
L 121.987144 241.147203 
L 121.991385 241.140784 
L 122.001989 241.124662 
L 122.063488 241.22783 
L 122.178004 241.636145 
L 122.424001 243.357685 
L 122.604257 244.632321 
L 122.669998 244.490236 
L 122.915994 244.11778 
L 122.949925 244.140728 
L 123.12594 244.198544 
L 123.149267 244.139318 
L 123.497056 243.442216 
L 123.530987 243.475921 
L 123.539469 243.483454 
L 123.581883 243.379784 
L 124.710075 237.267338 
L 124.928504 236.480666 
L 124.994244 236.200058 
L 125.248724 235.180685 
L 125.571065 234.567181 
L 125.626202 234.734123 
L 125.963387 235.756197 
L 125.967629 235.743488 
L 126.54657 233.683758 
L 126.667447 233.380572 
L 126.726826 233.507224 
L 126.917686 233.955643 
L 127.000391 233.874885 
L 127.042805 233.834436 
L 127.076735 233.941614 
L 127.297284 234.763136 
L 127.908035 235.424882 
L 128.024672 235.561237 
L 128.047999 235.523082 
L 128.573923 234.389461 
L 129.012901 232.557588 
L 129.14014 232.734581 
L 129.309793 233.198498 
L 129.859045 235.075364 
L 129.960837 235.174347 
L 130.404056 235.902138 
L 130.4189 235.864505 
L 130.76881 234.527806 
L 131.131443 233.080353 
L 131.298975 232.189437 
L 131.521645 231.403899 
L 131.534369 231.42744 
L 132.391117 232.903246 
L 132.437771 232.822205 
L 133.303002 230.310781 
L 133.332691 230.38684 
L 133.495982 230.507355 
L 133.595653 230.381585 
L 133.735617 230.323761 
L 133.80984 230.207126 
L 134.051596 229.846934 
L 134.055837 229.854683 
L 134.267904 230.479306 
L 134.499056 232.040358 
L 134.857448 234.508283 
L 135.213719 236.178599 
L 135.820229 238.259506 
L 135.837194 238.239731 
L 136.068347 238.092163 
L 136.070467 238.094519 
L 136.199828 238.399985 
L 136.456428 239.264438 
L 136.551858 239.548416 
L 136.715149 239.944742 
L 136.766045 239.894475 
L 136.918732 240.214465 
L 137.052334 240.059153 
L 137.190177 239.698147 
L 137.232591 239.618512 
L 137.29409 239.728298 
L 137.366192 239.827848 
L 137.408606 239.71701 
L 137.747912 239.124396 
L 137.820014 239.130467 
L 137.836979 239.200728 
L 137.883634 239.310026 
L 137.96634 239.266483 
L 138.437127 238.743051 
L 139.14967 236.653329 
L 139.476252 235.914675 
L 139.605612 235.849676 
L 139.516545 235.941411 
L 139.62894 235.876239 
L 139.877057 236.324663 
L 140.549308 239.717777 
L 141.439986 242.483504 
L 141.696586 243.311722 
L 141.825947 243.503217 
L 141.912894 243.428708 
L 142.018927 243.389901 
L 142.057099 243.442664 
L 142.430336 244.074079 
L 142.708142 245.544037 
L 142.968984 246.764727 
L 143.694251 249.509145 
L 143.910558 250.233607 
L 143.950851 250.377813 
L 144.169279 250.88715 
L 144.328329 251.158497 
L 145.157508 254.426703 
L 145.280507 254.822258 
L 145.358971 254.773648 
L 145.492573 254.823673 
L 145.657985 254.982827 
L 145.721605 254.89712 
L 145.749173 254.867168 
L 145.821276 254.950125 
L 145.889137 255.006346 
L 145.954878 254.936635 
L 145.980326 254.929651 
L 146.050307 254.993297 
L 146.21996 255.27186 
L 146.879487 258.050696 
L 147.057622 258.252066 
L 147.301499 258.378912 
L 147.524168 258.052963 
L 147.763803 257.514369 
L 148.166729 257.15179 
L 148.257918 257.305823 
L 148.785963 258.425995 
L 149.32037 260.637599 
L 149.4158 260.472727 
L 149.629987 260.276353 
L 149.742382 260.374509 
L 150.208928 261.269126 
L 151.504653 267.259053 
L 151.506773 267.256999 
L 151.608565 267.265137 
L 151.621289 267.299589 
L 152.382607 269.283238 
L 152.431382 269.167547 
L 152.469554 269.128996 
L 152.533174 269.206942 
L 152.666776 269.545216 
L 153.014565 270.309785 
L 153.090909 270.409205 
L 153.22239 270.405276 
L 153.561696 270.112651 
L 154.208498 268.61229 
L 154.323014 268.740055 
L 154.382392 268.83339 
L 154.619907 269.631379 
L 154.685647 269.508455 
L 154.8553 269.03188 
L 155.090694 268.630427 
L 155.307002 268.483607 
L 155.451207 268.374734 
L 155.839288 267.534334 
L 156.053475 267.191228 
L 156.218887 266.685748 
L 156.874171 264.84312 
L 157.298304 264.528321 
L 157.448871 264.407789 
L 157.467957 264.431396 
L 157.656696 264.725191 
L 157.752126 264.611059 
L 157.938744 264.002843 
L 158.205948 263.319236 
L 158.222913 263.32408 
L 158.273809 263.223968 
L 158.806096 262.014339 
L 158.82094 262.025001 
L 158.844267 262.090819 
L 158.859112 262.109855 
L 159.766756 263.309564 
L 159.81129 263.190699 
L 160.025477 262.826202 
L 160.16332 262.480899 
L 160.248146 262.574988 
L 160.521712 262.830194 
L 160.549281 262.761757 
L 160.651072 262.641666 
L 160.695606 262.69257 
L 160.80376 262.64726 
L 161.881057 261.683161 
L 162.063434 261.461797 
L 162.093123 261.497603 
L 162.360327 261.837843 
L 162.409102 261.7049 
L 162.752649 260.60303 
L 162.775977 260.621204 
L 162.888372 260.845788 
L 163.019853 260.970942 
L 163.04318 260.956307 
L 163.401572 260.588322 
L 163.68362 259.725496 
L 163.749361 259.76996 
L 163.759964 259.800334 
L 163.96991 260.137299 
L 163.993237 260.127785 
L 164.580661 259.960577 
L 164.587023 259.977608 
L 164.835141 260.325673 
L 165.25079 261.291992 
L 165.295324 261.191054 
L 165.643113 260.367246 
L 165.713095 260.429163 
L 165.865783 260.450894 
L 165.876386 260.427182 
L 166.029074 260.231739 
L 166.069366 260.268106 
L 166.205089 260.263385 
L 166.213571 260.244158 
L 166.359897 259.990261 
L 166.389587 260.020271 
L 166.588929 260.117787 
L 166.601653 260.088916 
L 166.854012 259.227877 
L 166.964286 259.058936 
L 167.000337 259.102247 
L 167.193318 259.170542 
L 167.755293 258.992606 
L 167.842241 259.050797 
L 167.884654 258.991639 
L 168.166702 258.764103 
L 168.3512 258.893751 
L 169.733872 261.188904 
L 169.774165 261.109627 
L 169.933214 260.551076 
L 170.329778 259.243609 
L 170.448536 258.841861 
L 170.573655 258.540951 
L 170.635154 258.606473 
L 170.730584 258.575782 
L 170.739066 258.558909 
L 170.951133 258.384706 
L 171.086855 258.172952 
L 171.767588 257.111041 
L 172.145066 256.663538 
L 172.187479 256.722945 
L 172.295633 256.822367 
L 172.340167 256.750442 
L 172.586164 256.100084 
L 173.561669 253.191595 
L 173.604082 253.241373 
L 173.710115 253.337807 
L 173.765253 253.263889 
L 174.068507 252.839348 
L 174.115162 252.895328 
L 174.891325 253.653389 
L 174.906169 253.632003 
L 175.169131 253.035739 
L 175.671729 251.916208 
L 176.142516 251.789908 
L 176.201894 251.688586 
L 176.273997 251.733754 
L 176.426685 251.972983 
L 176.910196 252.342558 
L 176.946247 252.249162 
L 177.24314 251.48357 
L 177.380983 251.121855 
L 177.745737 250.111895 
L 178.055354 249.995115 
L 178.214404 249.62892 
L 178.288627 249.681478 
L 178.509176 249.69479 
L 178.58764 249.567894 
L 178.748811 249.375758 
L 178.979963 249.277909 
L 179.149616 249.163988 
L 179.183547 249.207786 
L 179.340476 249.231806 
L 179.501646 249.340845 
L 179.787936 249.749168 
L 180.156931 250.670763 
L 180.180258 250.647893 
L 180.235395 250.655961 
L 180.269326 250.71271 
L 180.502599 251.321898 
L 180.682855 251.527233 
L 180.822819 251.676383 
L 181.109109 251.915546 
L 181.391157 251.70603 
L 181.620188 251.253443 
L 181.713498 251.347143 
L 181.830134 251.344495 
L 182.182164 251.397147 
L 182.42392 251.820032 
L 182.572366 251.946142 
L 182.597814 251.932228 
L 182.756864 251.968647 
L 182.90319 252.110078 
L 183.560595 253.465675 
L 184.0229 254.713662 
L 184.514893 255.977221 
L 184.656978 256.225333 
L 184.693029 256.203449 
L 185.062024 256.094854 
L 185.371641 256.637016 
L 185.390727 256.624615 
L 185.522208 256.673246 
L 185.730033 256.783431 
L 185.768205 256.712686 
L 186.050253 256.435466 
L 186.169011 256.368457 
L 186.962139 255.735223 
L 187.102102 255.707645 
L 187.498666 256.016239 
L 188.211209 257.202979 
L 188.46993 257.273418 
L 188.732892 257.289531 
L 188.978889 257.530489 
L 189.137939 257.898961 
L 189.190955 257.873209 
L 189.411504 257.739293 
L 190.223718 257.413648 
L 190.762367 257.444464 
L 190.879003 257.348337 
L 190.927778 257.421149 
L 191.28405 257.954521 
L 191.366756 257.888075 
L 191.858749 257.631478 
L 192.43557 257.902751 
L 192.59674 257.652955 
L 192.810927 257.344012 
L 192.859702 257.387242 
L 192.982701 257.338027 
L 193.347455 256.917418 
L 193.703726 256.484903 
L 193.994257 256.607609 
L 194.106652 256.761122 
L 194.361132 257.048697 
L 194.384459 257.0264 
L 194.422631 257.004728 
L 194.479889 257.087256 
L 195.103364 257.755154 
L 195.292103 257.738318 
L 195.837113 257.344497 
L 196.473312 256.79137 
L 196.640845 256.697172 
L 196.704464 256.599552 
L 196.810498 256.461108 
L 196.869876 256.508981 
L 197.069219 256.713695 
L 197.796606 257.651748 
L 198.053206 257.840676 
L 198.772111 259.32664 
L 199.418913 261.16054 
L 199.512222 261.257916 
L 199.717927 261.426912 
L 200.27142 262.258927 
L 200.455917 262.434725 
L 200.708276 262.66458 
L 200.992445 263.422876 
L 201.276614 264.379394 
L 201.329631 264.342877 
L 201.497163 264.28795 
L 201.755884 264.235533 
L 202.165172 264.427842 
L 202.629597 264.926688 
L 202.845905 264.658573 
L 203.011316 264.582698 
L 203.223383 264.537308 
L 203.660239 264.785414 
L 203.878668 265.072896 
L 203.91896 265.017545 
L 204.644227 264.231679 
L 204.737536 264.20223 
L 204.75026 264.172315 
L 205.030188 263.792629 
L 205.45432 263.793053 
L 206.160501 264.808119 
L 206.682184 264.985124 
L 206.86032 265.009306 
L 206.866682 265.026639 
L 207.167816 265.525006 
L 207.882479 266.419199 
L 207.907927 266.378963 
L 208.079701 266.307444 
L 208.272681 266.263185 
L 208.376594 266.334742 
L 208.561091 266.43047 
L 208.692573 266.232411 
L 209.190928 265.642138 
L 209.313927 265.48779 
L 209.797438 264.607981 
L 210.017987 264.5825 
L 210.363655 264.680312 
L 210.567239 264.649391 
L 210.942596 264.641835 
L 211.078318 264.682696 
L 211.436711 264.706132 
L 211.782379 264.294919 
L 212.104719 263.916919 
L 212.446146 263.809216 
L 212.931778 264.106417 
L 213.0675 264.311032 
L 213.139603 264.221348 
L 213.41741 263.99375 
L 213.665527 264.036528 
L 213.856387 264.181983 
L 213.860628 264.177415 
L 214.265675 263.576351 
L 214.513793 263.449825 
L 214.783117 263.328057 
L 215.024872 263.228751 
L 216.068239 262.997719 
L 216.530543 262.428894 
L 216.539026 262.440923 
L 216.702317 262.482667 
L 216.844401 262.543813 
L 217.117967 262.563182 
L 217.436066 262.313667 
L 217.692666 262.120023 
L 218.000163 261.824125 
L 218.15073 261.640543 
L 218.191022 261.659115 
L 218.468829 261.671839 
L 219.709417 261.25899 
L 220.00631 261.342079 
L 220.42196 261.23913 
L 220.636147 261.102111 
L 220.973332 260.652707 
L 221.115417 260.436895 
L 221.416551 260.043177 
L 221.658306 259.928347 
L 221.95732 260.156145 
L 222.402659 260.643656 
L 222.53202 260.716902 
L 222.75893 260.868579 
L 223.210632 260.851048 
L 223.62204 261.103119 
L 223.97195 261.333125 
L 224.111913 261.486904 
L 224.266722 261.507924 
L 224.618752 261.441001 
L 224.705699 261.529046 
L 224.760836 261.46833 
L 224.96442 261.409765 
L 225.428845 261.360699 
L 225.577292 261.38358 
L 225.708773 261.43552 
L 225.85934 261.633033 
L 226.067165 261.761419 
L 226.287714 261.715773 
L 226.457367 261.744361 
L 227.233529 262.092117 
L 227.473164 262.296966 
L 227.729765 262.47661 
L 228.001209 262.44504 
L 228.508048 262.688188 
L 228.639529 262.675695 
L 229.265125 262.782807 
L 229.534449 262.852095 
L 230.157924 263.084715 
L 230.963776 262.884123 
L 231.224617 262.891815 
L 231.413356 262.989297 
L 231.602095 262.855582 
L 231.718732 262.712505 
L 232.263742 261.799242 
L 232.776943 260.914913 
L 232.889338 260.732508 
L 233.095042 260.463499 
L 233.256212 260.299283 
L 233.705793 259.647537 
L 234.263527 258.452387 
L 234.373802 258.36758 
L 234.988794 257.818601 
L 235.266601 258.00248 
L 235.533805 258.150289 
L 235.535925 258.147408 
L 236.335415 256.876554 
L 236.589895 256.5876 
L 236.999183 256.637579 
L 238.008618 256.27949 
L 238.369131 256.64816 
L 238.833556 256.810783 
L 239.06895 256.835202 
L 239.457031 256.900704 
L 239.669097 256.903115 
L 239.898129 256.997963 
L 240.063541 257.038254 
L 241.104786 258.281376 
L 241.136596 258.248183 
L 241.611625 257.929124 
L 241.834294 258.124148 
L 242.71437 259.196834 
L 243.819235 259.205926 
L 244.18611 259.277764 
L 244.415141 259.266344 
L 244.813826 259.022952 
L 244.9856 258.958104 
L 245.21039 258.995145 
L 245.441542 258.960439 
L 245.759642 258.677394 
L 245.768124 258.686249 
L 246.289807 259.147279 
L 246.319497 259.103207 
L 246.633355 258.838556 
L 246.783922 258.750333 
L 247.095659 258.383678 
L 247.479499 258.295614 
L 247.653394 258.217164 
L 247.6746 258.236147 
L 247.871822 258.198007 
L 248.077526 258.154126 
L 248.421074 258.217499 
L 248.524986 258.305546 
L 248.860051 258.950267 
L 249.067876 259.004346 
L 249.33508 258.962313 
L 249.973399 258.7767 
L 250.1685 259.143718 
L 250.573547 259.92776 
L 251.175815 260.442416 
L 251.652964 260.765995 
L 251.807773 260.812675 
L 251.816255 260.800254 
L 252.058011 260.5865 
L 252.130113 260.587514 
L 252.166165 260.633424 
L 252.418524 260.778452 
L 252.766312 260.863508 
L 252.931724 260.921693 
L 253.160756 260.922388 
L 253.360098 260.616633 
L 253.642146 260.322735 
L 253.678197 260.347835 
L 253.871178 260.346449 
L 254.341965 259.954155 
L 254.757615 259.39342 
L 255.105404 259.170702 
L 255.677983 259.187845 
L 256.910088 258.50544 
L 257.527201 258.49757 
L 257.855904 258.477892 
L 258.222778 258.442322 
L 258.479378 258.625681 
L 258.509068 258.5938 
L 259.208887 257.947279 
L 259.664829 257.961121 
L 259.893861 257.820933 
L 260.203478 257.543858 
L 260.455836 257.457182 
L 260.610645 257.514745 
L 260.896934 257.915972 
L 260.928744 257.885795 
L 261.310464 257.667712 
L 261.524651 257.726896 
L 261.679459 257.75027 
L 261.68158 257.74803 
L 261.808819 257.454292 
L 261.885163 257.366841 
L 261.940301 257.420587 
L 262.228711 257.637165 
L 262.735549 258.378448 
L 263.115148 259.090342 
L 264.164876 260.069726 
L 264.599612 259.881067 
L 264.883781 259.628315 
L 265.002538 259.501899 
L 265.352447 259.154991 
L 265.630254 259.009138 
L 265.956836 258.885866 
L 266.166782 258.867022 
L 266.444589 258.855391 
L 267.072305 259.191036 
L 267.653367 259.734841 
L 267.941777 259.662268 
L 268.770956 258.92052 
L 268.961816 259.102532 
L 270.077285 260.00813 
L 270.431435 260.210349 
L 270.632898 260.288695 
L 270.917067 260.553719 
L 271.746246 261.822154 
L 272.157655 262.306347 
L 272.804457 262.827171 
L 272.810819 262.818417 
L 273.561534 261.973954 
L 274.015356 261.466619 
L 274.265594 261.256454 
L 274.617624 261.039404 
L 275.222013 261.00378 
L 275.535871 261.020765 
L 275.887901 260.841615 
L 276.564393 260.491304 
L 276.816752 260.38211 
L 277.160299 260.39212 
L 277.743481 260.423537 
L 278.157011 259.939187 
L 278.530247 259.943897 
L 279.037086 259.707206 
L 279.149481 259.61974 
L 279.198256 259.653155 
L 279.329737 259.593396 
L 279.567252 259.540552 
L 279.900196 259.592047 
L 280.247984 259.570017 
L 280.899028 259.437072 
L 281.287109 259.668771 
L 281.497055 259.808414 
L 282.915779 261.696002 
L 283.269929 261.876112 
L 283.581667 261.872752 
L 283.6877 261.783534 
L 284.234831 261.077721 
L 284.542327 260.842683 
L 284.767117 260.770466 
L 285.006752 260.918341 
L 285.195491 260.847739 
L 285.615383 260.564612 
L 285.984378 260.589233 
L 286.325805 260.320996 
L 287.33312 258.969223 
L 287.888733 258.678926 
L 288.03718 258.645412 
L 289.014805 257.747384 
L 289.472869 257.286048 
L 289.899122 256.941791 
L 290.140878 256.94277 
L 290.338099 256.799035 
L 290.870386 256.473843 
L 291.506584 256.197174 
L 291.994337 255.915841 
L 292.223369 255.885372 
L 293.262493 255.769717 
L 293.548783 255.915176 
L 294.263446 255.966251 
L 294.447944 256.011998 
L 294.685458 255.957497 
L 294.889042 255.796709 
L 295.463742 255.435549 
L 295.800927 255.623309 
L 296.375627 255.985529 
L 296.598296 255.806865 
L 296.854897 255.600818 
L 297.476251 255.510507 
L 298.025503 255.599294 
L 298.20788 255.443479 
L 298.458118 255.265759 
L 299.001008 255.224152 
L 299.486639 255.546443 
L 300.078304 255.636466 
L 301.781197 254.406462 
L 302.222295 254.484173 
L 302.52555 254.323388 
L 303.246575 253.870646 
L 303.573157 253.732507 
L 303.976083 253.240274 
L 304.300545 252.86668 
L 304.769211 252.27101 
L 305.280291 251.851903 
L 305.753199 251.948456 
L 305.958903 252.013372 
L 306.346984 251.832858 
L 306.961977 251.472088 
L 307.666037 250.972053 
L 309.025382 249.04884 
L 309.568272 248.848419 
L 310.026335 248.392456 
L 310.369882 248.129648 
L 310.74736 247.943765 
L 311.614711 247.130975 
L 313.173399 245.932402 
L 314.500934 244.558447 
L 314.763896 244.707616 
L 315.124409 244.779225 
L 315.614282 244.633095 
L 315.947226 244.564103 
L 316.418013 244.659667 
L 317.134797 245.581003 
L 317.378673 245.784468 
L 317.743427 245.869907 
L 318.873741 246.990764 
L 319.569318 247.161007 
L 320.05283 246.947898 
L 320.283982 247.031333 
L 320.540582 247.010066 
L 320.901095 246.893571 
L 321.166178 246.996319 
L 321.501242 247.04777 
L 321.719671 246.96001 
L 322.610349 247.042529 
L 322.833019 247.019409 
L 323.006913 246.873938 
L 323.259272 246.92839 
L 323.986659 247.046406 
L 324.408671 247.069294 
L 324.739495 247.052265 
L 325.146662 246.885503 
L 326.308785 246.620781 
L 326.811383 246.259083 
L 326.981036 246.239758 
L 327.682975 246.062495 
L 328.336139 245.736084 
L 328.533361 245.765201 
L 328.647877 245.855053 
L 328.972338 246.138627 
L 328.982942 246.129827 
L 329.593692 245.766885 
L 330.157789 245.519367 
L 330.904262 245.563175 
L 331.073915 245.573425 
L 331.466238 245.491497 
L 331.820389 245.57878 
L 332.149091 245.592122 
L 332.426898 245.404109 
L 332.530811 245.481563 
L 333.092786 246.021785 
L 333.77564 246.388206 
L 333.924086 246.384662 
L 334.148877 246.38109 
L 334.273996 246.312137 
L 334.626026 246.219013 
L 335.198605 246.316518 
L 335.50186 246.323157 
L 335.82208 246.030828 
L 336.042629 245.972908 
L 336.241971 245.912449 
L 336.632173 245.964799 
L 336.946031 245.788942 
L 337.10296 245.830277 
L 337.535576 246.123305 
L 338.528046 246.504281 
L 339.357225 246.655422 
L 339.554447 246.643719 
L 340.5554 246.558264 
L 341.115255 246.896941 
L 341.365493 247.000719 
L 342.050467 247.413791 
L 342.601839 247.120348 
L 343.068385 247.202456 
L 343.282572 247.31333 
L 343.460708 247.369926 
L 344.122355 247.357837 
L 344.328059 247.394694 
L 344.644038 247.4545 
L 344.77764 247.420784 
L 345.305685 247.398039 
L 345.778593 247.484031 
L 346.204846 247.357832 
L 346.735012 247.395642 
L 346.951319 247.372941 
L 347.46664 247.965487 
L 347.85048 248.470252 
L 348.181304 248.642799 
L 348.32975 248.52788 
L 348.588471 248.35531 
L 348.879002 248.458545 
L 349.515201 248.990234 
L 349.521563 248.984194 
L 349.954178 248.726284 
L 350.34438 248.650655 
L 350.507671 248.545483 
L 350.656118 248.553421 
L 350.825771 248.510042 
L 351.447125 248.314991 
L 352.55199 247.711938 
L 353.921939 247.519682 
L 354.131884 247.452838 
L 355.031046 247.49806 
L 355.440333 247.782009 
L 355.847501 248.021762 
L 356.916315 247.463814 
L 357.344689 247.469378 
L 357.546152 247.418617 
L 358.960634 246.571257 
L 359.526851 246.715516 
L 360.260601 246.543016 
L 361.151279 246.068781 
L 361.88927 245.843729 
L 362.256144 245.819358 
L 363.348286 245.747931 
L 363.787263 245.313693 
L 364.398014 245.412206 
L 364.915456 245.714799 
L 365.655567 246.170067 
L 366.0797 246.442882 
L 366.346903 246.534188 
L 366.55897 246.367243 
L 367.273633 246.09772 
L 367.617181 246.080264 
L 369.604242 245.668398 
L 370.085632 245.900069 
L 370.331629 245.878082 
L 370.745159 245.914709 
L 370.94238 245.933043 
L 371.351668 245.813617 
L 371.671888 246.057578 
L 371.90092 246.242533 
L 372.653755 246.357731 
L 372.817046 246.386538 
L 373.304799 246.397329 
L 374.095806 246.002344 
L 374.621731 246.043964 
L 375.043742 246.128534 
L 375.376687 246.245108 
L 375.775371 246.150682 
L 375.991679 246.175324 
L 376.494276 246.255841 
L 376.833582 246.076653 
L 377.272559 245.828441 
L 377.796363 245.717951 
L 379.531065 244.704803 
L 379.806752 244.588942 
L 379.950957 244.560973 
L 380.788619 243.587693 
L 381.30394 243.142815 
L 382.186136 243.036896 
L 383.35038 242.462087 
L 383.778754 242.552712 
L 384.228334 242.612538 
L 384.707604 242.274488 
L 385.161426 242.306709 
L 385.634334 242.51109 
L 386.013932 242.48827 
L 386.435944 242.304679 
L 386.995799 242.254162 
L 387.748635 242.161256 
L 388.092182 242.293084 
L 388.590538 242.439193 
L 389.26915 242.961629 
L 390.846923 243.679809 
L 391.118368 243.843256 
L 391.330435 243.840894 
L 391.637931 243.843281 
L 391.970875 243.834053 
L 392.132045 243.831965 
L 392.537092 244.004945 
L 392.923052 243.895577 
L 393.349306 243.728703 
L 393.533803 243.621654 
L 393.839179 243.339562 
L 394.469016 242.944932 
L 394.810443 242.69207 
L 395.096732 242.600476 
L 395.457245 242.498028 
L 396.574834 242.227085 
L 397.024415 242.280286 
L 398.027488 242.597306 
L 398.627636 242.423631 
L 399.732501 242.480143 
L 400.042118 242.564598 
L 400.245702 242.645947 
L 400.576525 242.867699 
L 401.501134 243.174469 
L 402.756567 244.111493 
L 403.297336 244.613358 
L 404.048051 244.820562 
L 404.542165 244.751594 
L 404.898437 244.74848 
L 405.636427 245.10339 
L 406.450762 245.562499 
L 406.951238 245.710738 
L 407.252373 245.739112 
L 407.646816 245.591868 
L 408.14093 245.530878 
L 408.52477 245.430177 
L 408.885283 245.204664 
L 409.542689 245.09591 
L 410.174646 245.392342 
L 411.05048 245.162152 
L 411.567922 244.904861 
L 412.308033 244.491317 
L 412.827596 244.124849 
L 413.669499 243.325486 
L 413.974874 243.139586 
L 414.382042 243.210798 
L 414.661969 243.01787 
L 415.134877 242.78812 
L 415.741387 242.682133 
L 416.441205 242.527357 
L 416.829287 242.519831 
L 417.022267 242.549409 
L 417.297953 242.607108 
L 417.584243 242.582972 
L 418.368888 242.71187 
L 419.170499 242.611454 
L 419.452547 242.457392 
L 419.71763 242.357919 
L 420.088746 242.270419 
L 420.686773 241.994711 
L 420.907322 241.930978 
L 421.435367 241.839893 
L 421.655916 241.808632 
L 422.535991 241.873991 
L 422.998296 242.136205 
L 424.179505 242.121447 
L 425.714865 243.364481 
L 426.130515 243.760654 
L 426.49951 243.980634 
L 426.798524 244.178751 
L 427.167519 244.527281 
L 427.547118 244.794462 
L 429.305147 245.057846 
L 429.549024 245.120116 
L 429.778055 245.117561 
L 430.429099 245.094379 
L 430.672975 245.067407 
L 431.932649 245.116568 
L 432.566727 245.525335 
L 432.825448 245.688094 
L 433.414992 245.77284 
L 434.057553 245.938488 
L 434.967318 245.902915 
L 435.51869 245.855409 
L 435.788014 245.935607 
L 436.895 246.066087 
L 437.503631 246.154478 
L 437.749628 246.085132 
L 440.296544 246.29804 
L 441.352634 246.198028 
L 441.889162 246.525814 
L 442.417207 246.947838 
L 442.815892 247.181028 
L 443.89955 247.533789 
L 444.317321 247.83061 
L 444.563318 248.004817 
L 444.809315 248.096174 
L 448.263875 247.715586 
L 449.394188 248.03584 
L 449.873458 248.024549 
L 450.303953 247.963181 
L 451.228562 247.482848 
L 451.434266 247.417413 
L 451.824468 247.39751 
L 452.734233 247.198999 
L 453.328018 247.261937 
L 454.044802 247.558439 
L 454.657674 247.595644 
L 456.865284 246.80572 
L 457.266089 247.015479 
L 457.645688 247.123478 
L 457.94046 247.105234 
L 458.156768 247.211095 
L 459.032602 247.325973 
L 460.676116 247.315206 
L 461.473485 247.712762 
L 462.190269 248.114045 
L 462.559264 248.208911 
L 463.235756 248.246577 
L 463.98435 248.271515 
L 464.319415 248.25573 
L 464.544205 248.294053 
L 464.989544 248.284143 
L 466.045634 247.953273 
L 467.621287 247.762243 
L 468.418656 247.625936 
L 468.917012 247.687646 
L 469.19694 247.821182 
L 469.64652 247.782376 
L 469.947654 247.63627 
L 470.969814 247.274204 
L 471.898664 247.372322 
L 472.218884 247.27736 
L 473.737279 246.581878 
L 473.998121 246.398159 
L 474.782766 246.267536 
L 476.846171 245.536412 
L 477.389061 245.399189 
L 477.781384 245.24227 
L 478.479082 245.211481 
L 479.374001 245.903254 
L 480.947533 246.987317 
L 481.314408 247.161331 
L 482.561358 247.556311 
L 483.002456 247.718006 
L 483.774377 247.941294 
L 484.122166 247.985324 
L 484.340594 248.002792 
L 484.637487 248.042063 
L 485.523924 248.054302 
L 485.837782 248.073199 
L 486.732702 247.806368 
L 486.965975 247.782054 
L 487.218334 247.857522 
L 487.644587 247.865615 
L 488.348647 247.976277 
L 488.819435 248.041046 
L 489.402617 247.748703 
L 489.962472 247.460673 
L 490.172418 247.392774 
L 490.471431 247.387838 
L 490.795893 247.435884 
L 491.323938 247.634791 
L 491.830776 247.763359 
L 492.049204 247.699613 
L 492.526354 247.647255 
L 492.825367 247.529758 
L 493.472169 247.235487 
L 494.362848 247.325507 
L 494.621569 247.340067 
L 495.272612 247.584718 
L 495.694624 247.654885 
L 495.893966 247.78753 
L 496.489873 248.230953 
L 496.858868 248.374657 
L 498.154593 247.854629 
L 498.379384 247.795652 
L 499.509697 247.142817 
L 500.039863 247.072763 
L 501.225313 247.135738 
L 501.560378 247.272533 
L 502.5889 247.501725 
L 502.885792 247.564327 
L 503.212375 247.658839 
L 503.721334 247.95639 
L 504.181518 248.142555 
L 504.692597 248.425168 
L 504.95768 248.398491 
L 505.850479 248.2272 
L 506.454868 248.120067 
L 508.469498 247.60164 
L 508.630669 247.527315 
L 508.874545 247.437925 
L 509.574364 247.50722 
L 510.498973 247.958242 
L 512.078867 248.6151 
L 512.380001 248.493276 
L 512.797771 248.356107 
L 513.2728 248.579022 
L 513.556969 248.66788 
L 514.087135 248.704716 
L 514.509147 248.77892 
L 514.852694 248.724712 
L 515.310757 248.680308 
L 516.489846 248.40014 
L 516.769773 248.336809 
L 517.584108 248.075916 
L 518.589302 248.034075 
L 518.858626 248.027685 
L 519.993181 247.864707 
L 520.366418 247.969168 
L 521.600644 248.547854 
L 522.130809 248.73286 
L 524.650157 247.849595 
L 525.825004 247.820986 
L 526.302154 247.780054 
L 526.702959 247.715275 
L 527.37945 247.680674 
L 527.578793 247.754559 
L 527.875686 247.846005 
L 528.363438 248.017049 
L 530.456533 248.836116 
L 530.780994 248.768789 
L 531.565639 248.72263 
L 531.949479 248.916975 
L 532.155184 248.975212 
L 532.693832 249.010026 
L 533.19855 248.950843 
L 534.347949 248.621454 
L 534.937493 248.63052 
L 535.541882 248.580798 
L 535.800603 248.512062 
L 536.152633 248.519339 
L 536.536473 248.494325 
L 536.945761 248.472029 
L 537.263861 248.581553 
L 537.61377 248.330744 
L 538.430225 247.784591 
L 538.686826 247.637995 
L 538.898892 247.63377 
L 539.210629 247.592122 
L 539.424816 247.574644 
L 540.858385 247.82048 
L 541.180725 247.736215 
L 541.759666 247.716845 
L 542.18592 247.645324 
L 542.656707 247.596147 
L 543.127494 247.524614 
L 543.899415 247.745583 
L 544.236601 247.755676 
L 544.368082 247.836598 
L 544.675578 247.966931 
L 545.067901 248.009211 
L 545.791047 248.165267 
L 546.098543 248.109142 
L 546.306368 248.18812 
L 546.635071 248.283021 
L 547.733574 248.27511 
L 548.043191 248.132861 
L 548.253137 248.092255 
L 548.87237 248.065365 
L 549.650654 248.083076 
L 551.309012 248.736111 
L 552.153036 248.56118 
L 552.954647 248.471997 
L 553.465726 248.33974 
L 553.866532 248.461402 
L 554.513334 248.52134 
L 555.085913 248.364358 
L 555.414616 248.43001 
L 555.881162 248.56253 
L 556.424051 248.646219 
L 558.101496 248.893481 
L 559.219085 248.693885 
L 559.838319 248.599705 
L 560.311227 248.457089 
L 560.603878 248.467934 
L 560.943184 248.438425 
L 562.118032 248.435346 
L 564.056318 249.37067 
L 564.444399 249.582201 
L 565.419904 249.649845 
L 565.771934 249.550838 
L 566.102757 249.495071 
L 567.059176 249.439754 
L 567.884114 249.464631 
L 569.201046 249.454751 
L 570.61977 250.070575 
L 571.415018 250.104824 
L 571.847633 250.283289 
L 572.085148 250.308845 
L 572.630158 250.290058 
L 572.910086 250.350431 
L 573.30877 250.484313 
L 573.853781 250.695753 
L 574.10614 250.693414 
L 574.417877 250.787149 
L 575.009542 250.921877 
L 577.522528 250.735269 
L 578.020884 250.743726 
L 578.852183 250.833502 
L 579.076974 250.844616 
L 579.54352 250.794713 
L 580.881658 251.253422 
L 581.435151 251.267359 
L 584.353183 251.11209 
L 584.724299 251.08099 
L 585.144191 251.027433 
L 585.729494 250.981258 
L 586.478088 251.204418 
L 587.322112 251.157249 
L 587.937104 251.330892 
L 588.772645 251.328333 
L 590.67488 251.369836 
L 591.694919 251.084937 
L 593.87496 251.112099 
L 594.218508 251.157546 
L 595.906556 251.215396 
L 597.755774 251.41834 
L 598.061149 251.480197 
L 598.461954 251.599731 
L 599.719508 251.985985 
L 600.211501 252.031415 
L 601.303643 252.245347 
L 601.978014 252.2258 
L 603.224964 252.36614 
L 604.317105 252.348527 
L 604.607636 252.410877 
L 604.830306 252.457496 
L 606.393234 253.094243 
L 609.075873 253.437839 
L 609.381248 253.453903 
L 609.985637 253.53862 
L 610.691818 253.67233 
L 610.691818 253.67233 
" clip-path="url(#paacc41600b)" style="fill: none; stroke: #1f2937; stroke-linecap: square"/>
   </g>
   <g id="line2d_24">
    <path d="M 54.02 253.67233 
L 637.2 253.67233 
" clip-path="url(#paacc41600b)" style="fill: none; stroke-dasharray: 2.96,1.28; stroke-dashoffset: 0; stroke: #888888; stroke-width: 0.8"/>
   </g>
   <g id="patch_3">
    <path d="M 54.02 282.04 
L 54.02 26.88 
" style="fill: none; stroke: #000000; stroke-width: 0.8; stroke-linejoin: miter; stroke-linecap: square"/>
   </g>
   <g id="patch_4">
    <path d="M 637.2 282.04 
L 637.2 26.88 
" style="fill: none; stroke: #000000; stroke-width: 0.8; stroke-linejoin: miter; stroke-linecap: square"/>
   </g>
   <g id="patch_5">
    <path d="M 54.02 282.04 
L 637.2 282.04 
" style="fill: none; stroke: #000000; stroke-width: 0.8; stroke-linejoin: miter; stroke-linecap: square"/>
   </g>
   <g id="patch_6">
    <path d="M 54.02 26.88 
L 637.2 26.88 
" style="fill: none; stroke: #000000; stroke-width: 0.8; stroke-linejoin: miter; stroke-linecap: square"/>
   </g>
   <g id="text_14">
    <!-- Running mean — declination  (canonical ReCom ensemble) -->
    <g transform="translate(167.69125 20.88) scale(0.12 -0.12)">
     <defs>
      <path id="DejaVuSans-2014" d="M 313 1978 
L 6088 1978 
L 6088 1528 
L 313 1528 
L 313 1978 
z
" transform="scale(0.015625)"/>
      <path id="DejaVuSans-28" d="M 1984 4856 
Q 1566 4138 1362 3434 
Q 1159 2731 1159 2009 
Q 1159 1288 1364 580 
Q 1569 -128 1984 -844 
L 1484 -844 
Q 1016 -109 783 600 
Q 550 1309 550 2009 
Q 550 2706 781 3412 
Q 1013 4119 1484 4856 
L 1984 4856 
z
" transform="scale(0.015625)"/>
      <path id="DejaVuSans-43" d="M 4122 4306 
L 4122 3641 
Q 3803 3938 3442 4084 
Q 3081 4231 2675 4231 
Q 1875 4231 1450 3742 
Q 1025 3253 1025 2328 
Q 1025 1406 1450 917 
Q 1875 428 2675 428 
Q 3081 428 3442 575 
Q 3803 722 4122 1019 
L 4122 359 
Q 3791 134 3420 21 
Q 3050 -91 2638 -91 
Q 1578 -91 968 557 
Q 359 1206 359 2328 
Q 359 3453 968 4101 
Q 1578 4750 2638 4750 
Q 3056 4750 3426 4639 
Q 3797 4528 4122 4306 
z
" transform="scale(0.015625)"/>
      <path id="DejaVuSans-73" d="M 2834 3397 
L 2834 2853 
Q 2591 2978 2328 3040 
Q 2066 3103 1784 3103 
Q 1356 3103 1142 2972 
Q 928 2841 928 2578 
Q 928 2378 1081 2264 
Q 1234 2150 1697 2047 
L 1894 2003 
Q 2506 1872 2764 1633 
Q 3022 1394 3022 966 
Q 3022 478 2636 193 
Q 2250 -91 1575 -91 
Q 1294 -91 989 -36 
Q 684 19 347 128 
L 347 722 
Q 666 556 975 473 
Q 1284 391 1588 391 
Q 1994 391 2212 530 
Q 2431 669 2431 922 
Q 2431 1156 2273 1281 
Q 2116 1406 1581 1522 
L 1381 1569 
Q 847 1681 609 1914 
Q 372 2147 372 2553 
Q 372 3047 722 3315 
Q 1072 3584 1716 3584 
Q 2034 3584 2315 3537 
Q 2597 3491 2834 3397 
z
" transform="scale(0.015625)"/>
      <path id="DejaVuSans-62" d="M 3116 1747 
Q 3116 2381 2855 2742 
Q 2594 3103 2138 3103 
Q 1681 3103 1420 2742 
Q 1159 2381 1159 1747 
Q 1159 1113 1420 752 
Q 1681 391 2138 391 
Q 2594 391 2855 752 
Q 3116 1113 3116 1747 
z
M 1159 2969 
Q 1341 3281 1617 3432 
Q 1894 3584 2278 3584 
Q 2916 3584 3314 3078 
Q 3713 2572 3713 1747 
Q 3713 922 3314 415 
Q 2916 -91 2278 -91 
Q 1894 -91 1617 61 
Q 1341 213 1159 525 
L 1159 0 
L 581 0 
L 581 4863 
L 1159 4863 
L 1159 2969 
z
" transform="scale(0.015625)"/>
      <path id="DejaVuSans-29" d="M 513 4856 
L 1013 4856 
Q 1481 4119 1714 3412 
Q 1947 2706 1947 2009 
Q 1947 1309 1714 600 
Q 1481 -109 1013 -844 
L 513 -844 
Q 928 -128 1133 580 
Q 1338 1288 1338 2009 
Q 1338 2731 1133 3434 
Q 928 4138 513 4856 
z
" transform="scale(0.015625)"/>
     </defs>
     <use xlink:href="#DejaVuSans-52"/>
     <use xlink:href="#DejaVuSans-75" transform="translate(64.982422 0)"/>
     <use xlink:href="#DejaVuSans-6e" transform="translate(128.361328 0)"/>
     <use xlink:href="#DejaVuSans-6e" transform="translate(191.740234 0)"/>
     <use xlink:href="#DejaVuSans-69" transform="translate(255.119141 0)"/>
     <use xlink:href="#DejaVuSans-6e" transform="translate(282.902344 0)"/>
     <use xlink:href="#DejaVuSans-67" transform="translate(346.28125 0)"/>
     <use xlink:href="#DejaVuSans-20" transform="translate(409.757812 0)"/>
     <use xlink:href="#DejaVuSans-6d" transform="translate(441.544922 0)"/>
     <use xlink:href="#DejaVuSans-65" transform="translate(538.957031 0)"/>
     <use xlink:href="#DejaVuSans-61" transform="translate(600.480469 0)"/>
     <use xlink:href="#DejaVuSans-6e" transform="translate(661.759766 0)"/>
     <use xlink:href="#DejaVuSans-20" transform="translate(725.138672 0)"/>
     <use xlink:href="#DejaVuSans-2014" transform="translate(756.925781 0)"/>
     <use xlink:href="#DejaVuSans-20" transform="translate(856.925781 0)"/>
     <use xlink:href="#DejaVuSans-64" transform="translate(888.712891 0)"/>
     <use xlink:href="#DejaVuSans-65" transform="translate(952.189453 0)"/>
     <use xlink:href="#DejaVuSans-63" transform="translate(1013.712891 0)"/>
     <use xlink:href="#DejaVuSans-6c" transform="translate(1068.693359 0)"/>
     <use xlink:href="#DejaVuSans-69" transform="translate(1096.476562 0)"/>
     <use xlink:href="#DejaVuSans-6e" transform="translate(1124.259766 0)"/>
     <use xlink:href="#DejaVuSans-61" transform="translate(1187.638672 0)"/>
     <use xlink:href="#DejaVuSans-74" transform="translate(1248.917969 0)"/>
     <use xlink:href="#DejaVuSans-69" transform="translate(1288.126953 0)"/>
     <use xlink:href="#DejaVuSans-6f" transform="translate(1315.910156 0)"/>
     <use xlink:href="#DejaVuSans-6e" transform="translate(1377.091797 0)"/>
     <use xlink:href="#DejaVuSans-20" transform="translate(1440.470703 0)"/>
     <use xlink:href="#DejaVuSans-20" transform="translate(1472.257812 0)"/>
     <use xlink:href="#DejaVuSans-28" transform="translate(1504.044922 0)"/>
     <use xlink:href="#DejaVuSans-63" transform="translate(1543.058594 0)"/>
     <use xlink:href="#DejaVuSans-61" transform="translate(1598.039062 0)"/>
     <use xlink:href="#DejaVuSans-6e" transform="translate(1659.318359 0)"/>
     <use xlink:href="#DejaVuSans-6f" transform="translate(1722.697266 0)"/>
     <use xlink:href="#DejaVuSans-6e" transform="translate(1783.878906 0)"/>
     <use xlink:href="#DejaVuSans-69" transform="translate(1847.257812 0)"/>
     <use xlink:href="#DejaVuSans-63" transform="translate(1875.041016 0)"/>
     <use xlink:href="#DejaVuSans-61" transform="translate(1930.021484 0)"/>
     <use xlink:href="#DejaVuSans-6c" transform="translate(1991.300781 0)"/>
     <use xlink:href="#DejaVuSans-20" transform="translate(2019.083984 0)"/>
     <use xlink:href="#DejaVuSans-52" transform="translate(2050.871094 0)"/>
     <use xlink:href="#DejaVuSans-65" transform="translate(2115.853516 0)"/>
     <use xlink:href="#DejaVuSans-43" transform="translate(2177.376953 0)"/>
     <use xlink:href="#DejaVuSans-6f" transform="translate(2247.201172 0)"/>
     <use xlink:href="#DejaVuSans-6d" transform="translate(2308.382812 0)"/>
     <use xlink:href="#DejaVuSans-20" transform="translate(2405.794922 0)"/>
     <use xlink:href="#DejaVuSans-65" transform="translate(2437.582031 0)"/>
     <use xlink:href="#DejaVuSans-6e" transform="translate(2499.105469 0)"/>
     <use xlink:href="#DejaVuSans-73" transform="translate(2562.484375 0)"/>
     <use xlink:href="#DejaVuSans-65" transform="translate(2614.583984 0)"/>
     <use xlink:href="#DejaVuSans-6d" transform="translate(2676.107422 0)"/>
     <use xlink:href="#DejaVuSans-62" transform="translate(2773.519531 0)"/>
     <use xlink:href="#DejaVuSans-6c" transform="translate(2836.996094 0)"/>
     <use xlink:href="#DejaVuSans-65" transform="translate(2864.779297 0)"/>
     <use xlink:href="#DejaVuSans-29" transform="translate(2926.302734 0)"/>
    </g>
   </g>
   <g id="legend_1">
    <g id="patch_7">
     <path d="M 496.306406 47.290312 
L 630.9 47.290312 
Q 632.7 47.290312 632.7 45.490312 
L 632.7 33.18 
Q 632.7 31.38 630.9 31.38 
L 496.306406 31.38 
Q 494.506406 31.38 494.506406 33.18 
L 494.506406 45.490312 
Q 494.506406 47.290312 496.306406 47.290312 
z
" style="fill: #ffffff; opacity: 0.8; stroke: #cccccc; stroke-linejoin: miter"/>
    </g>
    <g id="line2d_25">
     <path d="M 498.106406 38.668594 
L 507.106406 38.668594 
L 516.106406 38.668594 
" style="fill: none; stroke-dasharray: 2.96,1.28; stroke-dashoffset: 0; stroke: #888888; stroke-width: 0.8"/>
    </g>
    <g id="text_15">
     <!-- final mean = +0.00036 -->
     <g transform="translate(523.306406 41.818594) scale(0.09 -0.09)">
      <defs>
       <path id="DejaVuSans-3d" d="M 678 2906 
L 4684 2906 
L 4684 2381 
L 678 2381 
L 678 2906 
z
M 678 1631 
L 4684 1631 
L 4684 1100 
L 678 1100 
L 678 1631 
z
" transform="scale(0.015625)"/>
       <path id="DejaVuSans-2b" d="M 2944 4013 
L 2944 2272 
L 4684 2272 
L 4684 1741 
L 2944 1741 
L 2944 0 
L 2419 0 
L 2419 1741 
L 678 1741 
L 678 2272 
L 2419 2272 
L 2419 4013 
L 2944 4013 
z
" transform="scale(0.015625)"/>
       <path id="DejaVuSans-36" d="M 2113 2584 
Q 1688 2584 1439 2293 
Q 1191 2003 1191 1497 
Q 1191 994 1439 701 
Q 1688 409 2113 409 
Q 2538 409 2786 701 
Q 3034 994 3034 1497 
Q 3034 2003 2786 2293 
Q 2538 2584 2113 2584 
z
M 3366 4563 
L 3366 3988 
Q 3128 4100 2886 4159 
Q 2644 4219 2406 4219 
Q 1781 4219 1451 3797 
Q 1122 3375 1075 2522 
Q 1259 2794 1537 2939 
Q 1816 3084 2150 3084 
Q 2853 3084 3261 2657 
Q 3669 2231 3669 1497 
Q 3669 778 3244 343 
Q 2819 -91 2113 -91 
Q 1303 -91 875 529 
Q 447 1150 447 2328 
Q 447 3434 972 4092 
Q 1497 4750 2381 4750 
Q 2619 4750 2861 4703 
Q 3103 4656 3366 4563 
z
" transform="scale(0.015625)"/>
      </defs>
      <use xlink:href="#DejaVuSans-66"/>
      <use xlink:href="#DejaVuSans-69" transform="translate(35.205078 0)"/>
      <use xlink:href="#DejaVuSans-6e" transform="translate(62.988281 0)"/>
      <use xlink:href="#DejaVuSans-61" transform="translate(126.367188 0)"/>
      <use xlink:href="#DejaVuSans-6c" transform="translate(187.646484 0)"/>
      <use xlink:href="#DejaVuSans-20" transform="translate(215.429688 0)"/>
      <use xlink:href="#DejaVuSans-6d" transform="translate(247.216797 0)"/>
      <use xlink:href="#DejaVuSans-65" transform="translate(344.628906 0)"/>
      <use xlink:href="#DejaVuSans-61" transform="translate(406.152344 0)"/>
      <use xlink:href="#DejaVuSans-6e" transform="translate(467.431641 0)"/>
      <use xlink:href="#DejaVuSans-20" transform="translate(530.810547 0)"/>
      <use xlink:href="#DejaVuSans-3d" transform="translate(562.597656 0)"/>
      <use xlink:href="#DejaVuSans-20" transform="translate(646.386719 0)"/>
      <use xlink:href="#DejaVuSans-2b" transform="translate(678.173828 0)"/>
      <use xlink:href="#DejaVuSans-30" transform="translate(761.962891 0)"/>
      <use xlink:href="#DejaVuSans-2e" transform="translate(825.585938 0)"/>
      <use xlink:href="#DejaVuSans-30" transform="translate(857.373047 0)"/>
      <use xlink:href="#DejaVuSans-30" transform="translate(920.996094 0)"/>
      <use xlink:href="#DejaVuSans-30" transform="translate(984.619141 0)"/>
      <use xlink:href="#DejaVuSans-33" transform="translate(1048.242188 0)"/>
      <use xlink:href="#DejaVuSans-36" transform="translate(1111.865234 0)"/>
     </g>
    </g>
   </g>
  </g>
 </g>
 <defs>
  <clipPath id="paacc41600b">
   <rect x="54.02" y="26.88" width="583.18" height="255.16"/>
  </clipPath>
 </defs>
</svg>
