<?xml version="1.0" encoding="utf-8" standalone="no"?>
<!DOCTYPE svg PUBLIC "-//W3C//DTD SVG 1.1//EN"
  "http://www.w3.org/Graphics/SVG/1.1/DTD/svg11.dtd">
<svg xmlns:xlink="http://www.w3.org/1999/xlink" width="648pt" height="324pt" viewBox="0 0 648 324" xmlns="http://www.w3.org/2000/svg" version="1.1">
 <metadata>
  <rdf:RDF xmlns:dc="http://purl.org/dc/elements/1.1/" xmlns:cc="http://creativecommons.org/ns#" xmlns:rdf="http://www.w3.org/1999/02/22-rdf-syntax-ns#">
   <cc:Work>
    <dc:type rdf:resource="http://purl.org/dc/dcmitype/StillImage"/>
    <dc:date>2026-05-18T20:46:00.272821</dc:date>
    <dc:format>image/svg+xml</dc:format>
    <dc:creator>
     <cc:Agent>
      <dc:title>Matplotlib v3.10.8, https://matplotlib.org/</dc:title>
     </cc:Agent>
    </dc:creator>
   </cc:Work>
  </rdf:RDF>
 </metadata>
 <defs>
  <style type="text/css">*{stroke-linejoin: round; stroke-linecap: butt}</style>
 </defs>
 <g id="figure_1">
  <g id="patch_1">
   <path d="M 0 324 
L 648 324 
L 648 0 
L 0 0 
z
" style="fill: #ffffff"/>
  </g>
  <g id="axes_1">
   <g id="patch_2">
    <path d="M 66.63125 282.04 
L 637.2 282.04 
L 637.2 26.88 
L 66.63125 26.88 
z
" style="fill: #ffffff"/>
   </g>
   <g id="matplotlib.axis_1">
    <g id="xtick_1">
     <g id="line2d_1">
      <path d="M 92.56568 282.04 
L 92.56568 26.88 
" clip-path="url(#pb713fa126c)" style="fill: none; stroke-dasharray: 0.5,0.825; stroke-dashoffset: 0; stroke: #b0b0b0; stroke-opacity: 0.6; stroke-width: 0.5"/>
     </g>
     <g id="line2d_2">
      <defs>
       <path id="m821d554069" d="M 0 0 
L 0 3.5 
" style="stroke: #000000; stroke-width: 0.8"/>
      </defs>
      <g>
       <use xlink:href="#m821d554069" x="92.56568" y="282.04" style="stroke: #000000; stroke-width: 0.8"/>
      </g>
     </g>
     <g id="text_1">
      <!-- 0.0 -->
      <g transform="translate(84.614117 296.638438) scale(0.1 -0.1)">
       <defs>
        <path id="DejaVuSans-30" d="M 2034 4250 
Q 1547 4250 1301 3770 
Q 1056 3291 1056 2328 
Q 1056 1369 1301 889 
Q 1547 409 2034 409 
Q 2525 409 2770 889 
Q 3016 1369 3016 2328 
Q 3016 3291 2770 3770 
Q 2525 4250 2034 4250 
z
M 2034 4750 
Q 2819 4750 3233 4129 
Q 3647 3509 3647 2328 
Q 3647 1150 3233 529 
Q 2819 -91 2034 -91 
Q 1250 -91 836 529 
Q 422 1150 422 2328 
Q 422 3509 836 4129 
Q 1250 4750 2034 4750 
z
" transform="scale(0.015625)"/>
        <path id="DejaVuSans-2e" d="M 684 794 
L 1344 794 
L 1344 0 
L 684 0 
L 684 794 
z
" transform="scale(0.015625)"/>
       </defs>
       <use xlink:href="#DejaVuSans-30"/>
       <use xlink:href="#DejaVuSans-2e" transform="translate(63.623047 0)"/>
       <use xlink:href="#DejaVuSans-30" transform="translate(95.410156 0)"/>
      </g>
     </g>
    </g>
    <g id="xtick_2">
     <g id="line2d_3">
      <path d="M 195.278428 282.04 
L 195.278428 26.88 
" clip-path="url(#pb713fa126c)" style="fill: none; stroke-dasharray: 0.5,0.825; stroke-dashoffset: 0; stroke: #b0b0b0; stroke-opacity: 0.6; stroke-width: 0.5"/>
     </g>
     <g id="line2d_4">
      <g>
       <use xlink:href="#m821d554069" x="195.278428" y="282.04" style="stroke: #000000; stroke-width: 0.8"/>
      </g>
     </g>
     <g id="text_2">
      <!-- 0.2 -->
      <g transform="translate(187.326865 296.638438) scale(0.1 -0.1)">
       <defs>
        <path id="DejaVuSans-32" d="M 1228 531 
L 3431 531 
L 3431 0 
L 469 0 
L 469 531 
Q 828 903 1448 1529 
Q 2069 2156 2228 2338 
Q 2531 2678 2651 2914 
Q 2772 3150 2772 3378 
Q 2772 3750 2511 3984 
Q 2250 4219 1831 4219 
Q 1534 4219 1204 4116 
Q 875 4013 500 3803 
L 500 4441 
Q 881 4594 1212 4672 
Q 1544 4750 1819 4750 
Q 2544 4750 2975 4387 
Q 3406 4025 3406 3419 
Q 3406 3131 3298 2873 
Q 3191 2616 2906 2266 
Q 2828 2175 2409 1742 
Q 1991 1309 1228 531 
z
" transform="scale(0.015625)"/>
       </defs>
       <use xlink:href="#DejaVuSans-30"/>
       <use xlink:href="#DejaVuSans-2e" transform="translate(63.623047 0)"/>
       <use xlink:href="#DejaVuSans-32" transform="translate(95.410156 0)"/>
      </g>
     </g>
    </g>
    <g id="xtick_3">
     <g id="line2d_5">
      <path d="M 297.991176 282.04 
L 297.991176 26.88 
" clip-path="url(#pb713fa126c)" style="fill: none; stroke-dasharray: 0.5,0.825; stroke-dashoffset: 0; stroke: #b0b0b0; stroke-opacity: 0.6; stroke-width: 0.5"/>
     </g>
     <g id="line2d_6">
      <g>
       <use xlink:href="#m821d554069" x="297.991176" y="282.04" style="stroke: #000000; stroke-width: 0.8"/>
      </g>
     </g>
     <g id="text_3">
      <!-- 0.4 -->
      <g transform="translate(290.039613 296.638438) scale(0.1 -0.1)">
       <defs>
        <path id="DejaVuSans-34" d="M 2419 4116 
L 825 1625 
L 2419 1625 
L 2419 4116 
z
M 2253 4666 
L 3047 4666 
L 3047 1625 
L 3713 1625 
L 3713 1100 
L 3047 1100 
L 3047 0 
L 2419 0 
L 2419 1100 
L 313 1100 
L 313 1709 
L 2253 4666 
z
" transform="scale(0.015625)"/>
       </defs>
       <use xlink:href="#DejaVuSans-30"/>
       <use xlink:href="#DejaVuSans-2e" transform="translate(63.623047 0)"/>
       <use xlink:href="#DejaVuSans-34" transform="translate(95.410156 0)"/>
      </g>
     </g>
    </g>
    <g id="xtick_4">
     <g id="line2d_7">
      <path d="M 400.703923 282.04 
L 400.703923 26.88 
" clip-path="url(#pb713fa126c)" style="fill: none; stroke-dasharray: 0.5,0.825; stroke-dashoffset: 0; stroke: #b0b0b0; stroke-opacity: 0.6; stroke-width: 0.5"/>
     </g>
     <g id="line2d_8">
      <g>
       <use xlink:href="#m821d554069" x="400.703923" y="282.04" style="stroke: #000000; stroke-width: 0.8"/>
      </g>
     </g>
     <g id="text_4">
      <!-- 0.6 -->
      <g transform="translate(392.752361 296.638438) scale(0.1 -0.1)">
       <defs>
        <path id="DejaVuSans-36" d="M 2113 2584 
Q 1688 2584 1439 2293 
Q 1191 2003 1191 1497 
Q 1191 994 1439 701 
Q 1688 409 2113 409 
Q 2538 409 2786 701 
Q 3034 994 3034 1497 
Q 3034 2003 2786 2293 
Q 2538 2584 2113 2584 
z
M 3366 4563 
L 3366 3988 
Q 3128 4100 2886 4159 
Q 2644 4219 2406 4219 
Q 1781 4219 1451 3797 
Q 1122 3375 1075 2522 
Q 1259 2794 1537 2939 
Q 1816 3084 2150 3084 
Q 2853 3084 3261 2657 
Q 3669 2231 3669 1497 
Q 3669 778 3244 343 
Q 2819 -91 2113 -91 
Q 1303 -91 875 529 
Q 447 1150 447 2328 
Q 447 3434 972 4092 
Q 1497 4750 2381 4750 
Q 2619 4750 2861 4703 
Q 3103 4656 3366 4563 
z
" transform="scale(0.015625)"/>
       </defs>
       <use xlink:href="#DejaVuSans-30"/>
       <use xlink:href="#DejaVuSans-2e" transform="translate(63.623047 0)"/>
       <use xlink:href="#DejaVuSans-36" transform="translate(95.410156 0)"/>
      </g>
     </g>
    </g>
    <g id="xtick_5">
     <g id="line2d_9">
      <path d="M 503.416671 282.04 
L 503.416671 26.88 
" clip-path="url(#pb713fa126c)" style="fill: none; stroke-dasharray: 0.5,0.825; stroke-dashoffset: 0; stroke: #b0b0b0; stroke-opacity: 0.6; stroke-width: 0.5"/>
     </g>
     <g id="line2d_10">
      <g>
       <use xlink:href="#m821d554069" x="503.416671" y="282.04" style="stroke: #000000; stroke-width: 0.8"/>
      </g>
     </g>
     <g id="text_5">
      <!-- 0.8 -->
      <g transform="translate(495.465109 296.638438) scale(0.1 -0.1)">
       <defs>
        <path id="DejaVuSans-38" d="M 2034 2216 
Q 1584 2216 1326 1975 
Q 1069 1734 1069 1313 
Q 1069 891 1326 650 
Q 1584 409 2034 409 
Q 2484 409 2743 651 
Q 3003 894 3003 1313 
Q 3003 1734 2745 1975 
Q 2488 2216 2034 2216 
z
M 1403 2484 
Q 997 2584 770 2862 
Q 544 3141 544 3541 
Q 544 4100 942 4425 
Q 1341 4750 2034 4750 
Q 2731 4750 3128 4425 
Q 3525 4100 3525 3541 
Q 3525 3141 3298 2862 
Q 3072 2584 2669 2484 
Q 3125 2378 3379 2068 
Q 3634 1759 3634 1313 
Q 3634 634 3220 271 
Q 2806 -91 2034 -91 
Q 1263 -91 848 271 
Q 434 634 434 1313 
Q 434 1759 690 2068 
Q 947 2378 1403 2484 
z
M 1172 3481 
Q 1172 3119 1398 2916 
Q 1625 2713 2034 2713 
Q 2441 2713 2670 2916 
Q 2900 3119 2900 3481 
Q 2900 3844 2670 4047 
Q 2441 4250 2034 4250 
Q 1625 4250 1398 4047 
Q 1172 3844 1172 3481 
z
" transform="scale(0.015625)"/>
       </defs>
       <use xlink:href="#DejaVuSans-30"/>
       <use xlink:href="#DejaVuSans-2e" transform="translate(63.623047 0)"/>
       <use xlink:href="#DejaVuSans-38" transform="translate(95.410156 0)"/>
      </g>
     </g>
    </g>
    <g id="xtick_6">
     <g id="line2d_11">
      <path d="M 606.129419 282.04 
L 606.129419 26.88 
" clip-path="url(#pb713fa126c)" style="fill: none; stroke-dasharray: 0.5,0.825; stroke-dashoffset: 0; stroke: #b0b0b0; stroke-opacity: 0.6; stroke-width: 0.5"/>
     </g>
     <g id="line2d_12">
      <g>
       <use xlink:href="#m821d554069" x="606.129419" y="282.04" style="stroke: #000000; stroke-width: 0.8"/>
      </g>
     </g>
     <g id="text_6">
      <!-- 1.0 -->
      <g transform="translate(598.177857 296.638438) scale(0.1 -0.1)">
       <defs>
        <path id="DejaVuSans-31" d="M 794 531 
L 1825 531 
L 1825 4091 
L 703 3866 
L 703 4441 
L 1819 4666 
L 2450 4666 
L 2450 531 
L 3481 531 
L 3481 0 
L 794 0 
L 794 531 
z
" transform="scale(0.015625)"/>
       </defs>
       <use xlink:href="#DejaVuSans-31"/>
       <use xlink:href="#DejaVuSans-2e" transform="translate(63.623047 0)"/>
       <use xlink:href="#DejaVuSans-30" transform="translate(95.410156 0)"/>
      </g>
     </g>
    </g>
    <g id="text_7">
     <!-- Sample index -->
     <g transform="translate(317.897656 310.316563) scale(0.1 -0.1)">
      <defs>
       <path id="DejaVuSans-53" d="M 3425 4513 
L 3425 3897 
Q 3066 4069 2747 4153 
Q 2428 4238 2131 4238 
Q 1616 4238 1336 4038 
Q 1056 3838 1056 3469 
Q 1056 3159 1242 3001 
Q 1428 2844 1947 2747 
L 2328 2669 
Q 3034 2534 3370 2195 
Q 3706 1856 3706 1288 
Q 3706 609 3251 259 
Q 2797 -91 1919 -91 
Q 1588 -91 1214 -16 
Q 841 59 441 206 
L 441 856 
Q 825 641 1194 531 
Q 1563 422 1919 422 
Q 2459 422 2753 634 
Q 3047 847 3047 1241 
Q 3047 1584 2836 1778 
Q 2625 1972 2144 2069 
L 1759 2144 
Q 1053 2284 737 2584 
Q 422 2884 422 3419 
Q 422 4038 858 4394 
Q 1294 4750 2059 4750 
Q 2388 4750 2728 4690 
Q 3069 4631 3425 4513 
z
" transform="scale(0.015625)"/>
       <path id="DejaVuSans-61" d="M 2194 1759 
Q 1497 1759 1228 1600 
Q 959 1441 959 1056 
Q 959 750 1161 570 
Q 1363 391 1709 391 
Q 2188 391 2477 730 
Q 2766 1069 2766 1631 
L 2766 1759 
L 2194 1759 
z
M 3341 1997 
L 3341 0 
L 2766 0 
L 2766 531 
Q 2569 213 2275 61 
Q 1981 -91 1556 -91 
Q 1019 -91 701 211 
Q 384 513 384 1019 
Q 384 1609 779 1909 
Q 1175 2209 1959 2209 
L 2766 2209 
L 2766 2266 
Q 2766 2663 2505 2880 
Q 2244 3097 1772 3097 
Q 1472 3097 1187 3025 
Q 903 2953 641 2809 
L 641 3341 
Q 956 3463 1253 3523 
Q 1550 3584 1831 3584 
Q 2591 3584 2966 3190 
Q 3341 2797 3341 1997 
z
" transform="scale(0.015625)"/>
       <path id="DejaVuSans-6d" d="M 3328 2828 
Q 3544 3216 3844 3400 
Q 4144 3584 4550 3584 
Q 5097 3584 5394 3201 
Q 5691 2819 5691 2113 
L 5691 0 
L 5113 0 
L 5113 2094 
Q 5113 2597 4934 2840 
Q 4756 3084 4391 3084 
Q 3944 3084 3684 2787 
Q 3425 2491 3425 1978 
L 3425 0 
L 2847 0 
L 2847 2094 
Q 2847 2600 2669 2842 
Q 2491 3084 2119 3084 
Q 1678 3084 1418 2786 
Q 1159 2488 1159 1978 
L 1159 0 
L 581 0 
L 581 3500 
L 1159 3500 
L 1159 2956 
Q 1356 3278 1631 3431 
Q 1906 3584 2284 3584 
Q 2666 3584 2933 3390 
Q 3200 3197 3328 2828 
z
" transform="scale(0.015625)"/>
       <path id="DejaVuSans-70" d="M 1159 525 
L 1159 -1331 
L 581 -1331 
L 581 3500 
L 1159 3500 
L 1159 2969 
Q 1341 3281 1617 3432 
Q 1894 3584 2278 3584 
Q 2916 3584 3314 3078 
Q 3713 2572 3713 1747 
Q 3713 922 3314 415 
Q 2916 -91 2278 -91 
Q 1894 -91 1617 61 
Q 1341 213 1159 525 
z
M 3116 1747 
Q 3116 2381 2855 2742 
Q 2594 3103 2138 3103 
Q 1681 3103 1420 2742 
Q 1159 2381 1159 1747 
Q 1159 1113 1420 752 
Q 1681 391 2138 391 
Q 2594 391 2855 752 
Q 3116 1113 3116 1747 
z
" transform="scale(0.015625)"/>
       <path id="DejaVuSans-6c" d="M 603 4863 
L 1178 4863 
L 1178 0 
L 603 0 
L 603 4863 
z
" transform="scale(0.015625)"/>
       <path id="DejaVuSans-65" d="M 3597 1894 
L 3597 1613 
L 953 1613 
Q 991 1019 1311 708 
Q 1631 397 2203 397 
Q 2534 397 2845 478 
Q 3156 559 3463 722 
L 3463 178 
Q 3153 47 2828 -22 
Q 2503 -91 2169 -91 
Q 1331 -91 842 396 
Q 353 884 353 1716 
Q 353 2575 817 3079 
Q 1281 3584 2069 3584 
Q 2775 3584 3186 3129 
Q 3597 2675 3597 1894 
z
M 3022 2063 
Q 3016 2534 2758 2815 
Q 2500 3097 2075 3097 
Q 1594 3097 1305 2825 
Q 1016 2553 972 2059 
L 3022 2063 
z
" transform="scale(0.015625)"/>
       <path id="DejaVuSans-20" transform="scale(0.015625)"/>
       <path id="DejaVuSans-69" d="M 603 3500 
L 1178 3500 
L 1178 0 
L 603 0 
L 603 3500 
z
M 603 4863 
L 1178 4863 
L 1178 4134 
L 603 4134 
L 603 4863 
z
" transform="scale(0.015625)"/>
       <path id="DejaVuSans-6e" d="M 3513 2113 
L 3513 0 
L 2938 0 
L 2938 2094 
Q 2938 2591 2744 2837 
Q 2550 3084 2163 3084 
Q 1697 3084 1428 2787 
Q 1159 2491 1159 1978 
L 1159 0 
L 581 0 
L 581 3500 
L 1159 3500 
L 1159 2956 
Q 1366 3272 1645 3428 
Q 1925 3584 2291 3584 
Q 2894 3584 3203 3211 
Q 3513 2838 3513 2113 
z
" transform="scale(0.015625)"/>
       <path id="DejaVuSans-64" d="M 2906 2969 
L 2906 4863 
L 3481 4863 
L 3481 0 
L 2906 0 
L 2906 525 
Q 2725 213 2448 61 
Q 2172 -91 1784 -91 
Q 1150 -91 751 415 
Q 353 922 353 1747 
Q 353 2572 751 3078 
Q 1150 3584 1784 3584 
Q 2172 3584 2448 3432 
Q 2725 3281 2906 2969 
z
M 947 1747 
Q 947 1113 1208 752 
Q 1469 391 1925 391 
Q 2381 391 2643 752 
Q 2906 1113 2906 1747 
Q 2906 2381 2643 2742 
Q 2381 3103 1925 3103 
Q 1469 3103 1208 2742 
Q 947 2381 947 1747 
z
" transform="scale(0.015625)"/>
       <path id="DejaVuSans-78" d="M 3513 3500 
L 2247 1797 
L 3578 0 
L 2900 0 
L 1881 1375 
L 863 0 
L 184 0 
L 1544 1831 
L 300 3500 
L 978 3500 
L 1906 2253 
L 2834 3500 
L 3513 3500 
z
" transform="scale(0.015625)"/>
      </defs>
      <use xlink:href="#DejaVuSans-53"/>
      <use xlink:href="#DejaVuSans-61" transform="translate(63.476562 0)"/>
      <use xlink:href="#DejaVuSans-6d" transform="translate(124.755859 0)"/>
      <use xlink:href="#DejaVuSans-70" transform="translate(222.167969 0)"/>
      <use xlink:href="#DejaVuSans-6c" transform="translate(285.644531 0)"/>
      <use xlink:href="#DejaVuSans-65" transform="translate(313.427734 0)"/>
      <use xlink:href="#DejaVuSans-20" transform="translate(374.951172 0)"/>
      <use xlink:href="#DejaVuSans-69" transform="translate(406.738281 0)"/>
      <use xlink:href="#DejaVuSans-6e" transform="translate(434.521484 0)"/>
      <use xlink:href="#DejaVuSans-64" transform="translate(497.900391 0)"/>
      <use xlink:href="#DejaVuSans-65" transform="translate(561.376953 0)"/>
      <use xlink:href="#DejaVuSans-78" transform="translate(621.150391 0)"/>
     </g>
    </g>
    <g id="text_8">
     <!-- 1e6 -->
     <g transform="translate(618.321875 309.316563) scale(0.1 -0.1)">
      <use xlink:href="#DejaVuSans-31"/>
      <use xlink:href="#DejaVuSans-65" transform="translate(63.623047 0)"/>
      <use xlink:href="#DejaVuSans-36" transform="translate(125.146484 0)"/>
     </g>
    </g>
   </g>
   <g id="matplotlib.axis_2">
    <g id="ytick_1">
     <g id="line2d_13">
      <path d="M 66.63125 261.513613 
L 637.2 261.513613 
" clip-path="url(#pb713fa126c)" style="fill: none; stroke-dasharray: 0.5,0.825; stroke-dashoffset: 0; stroke: #b0b0b0; stroke-opacity: 0.6; stroke-width: 0.5"/>
     </g>
     <g id="line2d_14">
      <defs>
       <path id="mbf71f0c486" d="M 0 0 
L -3.5 0 
" style="stroke: #000000; stroke-width: 0.8"/>
      </defs>
      <g>
       <use xlink:href="#mbf71f0c486" x="66.63125" y="261.513613" style="stroke: #000000; stroke-width: 0.8"/>
      </g>
     </g>
     <g id="text_9">
      <!-- 0.4375 -->
      <g transform="translate(24.640625 265.312832) scale(0.1 -0.1)">
       <defs>
        <path id="DejaVuSans-33" d="M 2597 2516 
Q 3050 2419 3304 2112 
Q 3559 1806 3559 1356 
Q 3559 666 3084 287 
Q 2609 -91 1734 -91 
Q 1441 -91 1130 -33 
Q 819 25 488 141 
L 488 750 
Q 750 597 1062 519 
Q 1375 441 1716 441 
Q 2309 441 2620 675 
Q 2931 909 2931 1356 
Q 2931 1769 2642 2001 
Q 2353 2234 1838 2234 
L 1294 2234 
L 1294 2753 
L 1863 2753 
Q 2328 2753 2575 2939 
Q 2822 3125 2822 3475 
Q 2822 3834 2567 4026 
Q 2313 4219 1838 4219 
Q 1578 4219 1281 4162 
Q 984 4106 628 3988 
L 628 4550 
Q 988 4650 1302 4700 
Q 1616 4750 1894 4750 
Q 2613 4750 3031 4423 
Q 3450 4097 3450 3541 
Q 3450 3153 3228 2886 
Q 3006 2619 2597 2516 
z
" transform="scale(0.015625)"/>
        <path id="DejaVuSans-37" d="M 525 4666 
L 3525 4666 
L 3525 4397 
L 1831 0 
L 1172 0 
L 2766 4134 
L 525 4134 
L 525 4666 
z
" transform="scale(0.015625)"/>
        <path id="DejaVuSans-35" d="M 691 4666 
L 3169 4666 
L 3169 4134 
L 1269 4134 
L 1269 2991 
Q 1406 3038 1543 3061 
Q 1681 3084 1819 3084 
Q 2600 3084 3056 2656 
Q 3513 2228 3513 1497 
Q 3513 744 3044 326 
Q 2575 -91 1722 -91 
Q 1428 -91 1123 -41 
Q 819 9 494 109 
L 494 744 
Q 775 591 1075 516 
Q 1375 441 1709 441 
Q 2250 441 2565 725 
Q 2881 1009 2881 1497 
Q 2881 1984 2565 2268 
Q 2250 2553 1709 2553 
Q 1456 2553 1204 2497 
Q 953 2441 691 2322 
L 691 4666 
z
" transform="scale(0.015625)"/>
       </defs>
       <use xlink:href="#DejaVuSans-30"/>
       <use xlink:href="#DejaVuSans-2e" transform="translate(63.623047 0)"/>
       <use xlink:href="#DejaVuSans-34" transform="translate(95.410156 0)"/>
       <use xlink:href="#DejaVuSans-33" transform="translate(159.033203 0)"/>
       <use xlink:href="#DejaVuSans-37" transform="translate(222.65625 0)"/>
       <use xlink:href="#DejaVuSans-35" transform="translate(286.279297 0)"/>
      </g>
     </g>
    </g>
    <g id="ytick_2">
     <g id="line2d_15">
      <path d="M 66.63125 230.44346 
L 637.2 230.44346 
" clip-path="url(#pb713fa126c)" style="fill: none; stroke-dasharray: 0.5,0.825; stroke-dashoffset: 0; stroke: #b0b0b0; stroke-opacity: 0.6; stroke-width: 0.5"/>
     </g>
     <g id="line2d_16">
      <g>
       <use xlink:href="#mbf71f0c486" x="66.63125" y="230.44346" style="stroke: #000000; stroke-width: 0.8"/>
      </g>
     </g>
     <g id="text_10">
      <!-- 0.4400 -->
      <g transform="translate(24.640625 234.242679) scale(0.1 -0.1)">
       <use xlink:href="#DejaVuSans-30"/>
       <use xlink:href="#DejaVuSans-2e" transform="translate(63.623047 0)"/>
       <use xlink:href="#DejaVuSans-34" transform="translate(95.410156 0)"/>
       <use xlink:href="#DejaVuSans-34" transform="translate(159.033203 0)"/>
       <use xlink:href="#DejaVuSans-30" transform="translate(222.65625 0)"/>
       <use xlink:href="#DejaVuSans-30" transform="translate(286.279297 0)"/>
      </g>
     </g>
    </g>
    <g id="ytick_3">
     <g id="line2d_17">
      <path d="M 66.63125 199.373307 
L 637.2 199.373307 
" clip-path="url(#pb713fa126c)" style="fill: none; stroke-dasharray: 0.5,0.825; stroke-dashoffset: 0; stroke: #b0b0b0; stroke-opacity: 0.6; stroke-width: 0.5"/>
     </g>
     <g id="line2d_18">
      <g>
       <use xlink:href="#mbf71f0c486" x="66.63125" y="199.373307" style="stroke: #000000; stroke-width: 0.8"/>
      </g>
     </g>
     <g id="text_11">
      <!-- 0.4425 -->
      <g transform="translate(24.640625 203.172526) scale(0.1 -0.1)">
       <use xlink:href="#DejaVuSans-30"/>
       <use xlink:href="#DejaVuSans-2e" transform="translate(63.623047 0)"/>
       <use xlink:href="#DejaVuSans-34" transform="translate(95.410156 0)"/>
       <use xlink:href="#DejaVuSans-34" transform="translate(159.033203 0)"/>
       <use xlink:href="#DejaVuSans-32" transform="translate(222.65625 0)"/>
       <use xlink:href="#DejaVuSans-35" transform="translate(286.279297 0)"/>
      </g>
     </g>
    </g>
    <g id="ytick_4">
     <g id="line2d_19">
      <path d="M 66.63125 168.303154 
L 637.2 168.303154 
" clip-path="url(#pb713fa126c)" style="fill: none; stroke-dasharray: 0.5,0.825; stroke-dashoffset: 0; stroke: #b0b0b0; stroke-opacity: 0.6; stroke-width: 0.5"/>
     </g>
     <g id="line2d_20">
      <g>
       <use xlink:href="#mbf71f0c486" x="66.63125" y="168.303154" style="stroke: #000000; stroke-width: 0.8"/>
      </g>
     </g>
     <g id="text_12">
      <!-- 0.4450 -->
      <g transform="translate(24.640625 172.102373) scale(0.1 -0.1)">
       <use xlink:href="#DejaVuSans-30"/>
       <use xlink:href="#DejaVuSans-2e" transform="translate(63.623047 0)"/>
       <use xlink:href="#DejaVuSans-34" transform="translate(95.410156 0)"/>
       <use xlink:href="#DejaVuSans-34" transform="translate(159.033203 0)"/>
       <use xlink:href="#DejaVuSans-35" transform="translate(222.65625 0)"/>
       <use xlink:href="#DejaVuSans-30" transform="translate(286.279297 0)"/>
      </g>
     </g>
    </g>
    <g id="ytick_5">
     <g id="line2d_21">
      <path d="M 66.63125 137.233001 
L 637.2 137.233001 
" clip-path="url(#pb713fa126c)" style="fill: none; stroke-dasharray: 0.5,0.825; stroke-dashoffset: 0; stroke: #b0b0b0; stroke-opacity: 0.6; stroke-width: 0.5"/>
     </g>
     <g id="line2d_22">
      <g>
       <use xlink:href="#mbf71f0c486" x="66.63125" y="137.233001" style="stroke: #000000; stroke-width: 0.8"/>
      </g>
     </g>
     <g id="text_13">
      <!-- 0.4475 -->
      <g transform="translate(24.640625 141.03222) scale(0.1 -0.1)">
       <use xlink:href="#DejaVuSans-30"/>
       <use xlink:href="#DejaVuSans-2e" transform="translate(63.623047 0)"/>
       <use xlink:href="#DejaVuSans-34" transform="translate(95.410156 0)"/>
       <use xlink:href="#DejaVuSans-34" transform="translate(159.033203 0)"/>
       <use xlink:href="#DejaVuSans-37" transform="translate(222.65625 0)"/>
       <use xlink:href="#DejaVuSans-35" transform="translate(286.279297 0)"/>
      </g>
     </g>
    </g>
    <g id="ytick_6">
     <g id="line2d_23">
      <path d="M 66.63125 106.162848 
L 637.2 106.162848 
" clip-path="url(#pb713fa126c)" style="fill: none; stroke-dasharray: 0.5,0.825; stroke-dashoffset: 0; stroke: #b0b0b0; stroke-opacity: 0.6; stroke-width: 0.5"/>
     </g>
     <g id="line2d_24">
      <g>
       <use xlink:href="#mbf71f0c486" x="66.63125" y="106.162848" style="stroke: #000000; stroke-width: 0.8"/>
      </g>
     </g>
     <g id="text_14">
      <!-- 0.4500 -->
      <g transform="translate(24.640625 109.962067) scale(0.1 -0.1)">
       <use xlink:href="#DejaVuSans-30"/>
       <use xlink:href="#DejaVuSans-2e" transform="translate(63.623047 0)"/>
       <use xlink:href="#DejaVuSans-34" transform="translate(95.410156 0)"/>
       <use xlink:href="#DejaVuSans-35" transform="translate(159.033203 0)"/>
       <use xlink:href="#DejaVuSans-30" transform="translate(222.65625 0)"/>
       <use xlink:href="#DejaVuSans-30" transform="translate(286.279297 0)"/>
      </g>
     </g>
    </g>
    <g id="ytick_7">
     <g id="line2d_25">
      <path d="M 66.63125 75.092695 
L 637.2 75.092695 
" clip-path="url(#pb713fa126c)" style="fill: none; stroke-dasharray: 0.5,0.825; stroke-dashoffset: 0; stroke: #b0b0b0; stroke-opacity: 0.6; stroke-width: 0.5"/>
     </g>
     <g id="line2d_26">
      <g>
       <use xlink:href="#mbf71f0c486" x="66.63125" y="75.092695" style="stroke: #000000; stroke-width: 0.8"/>
      </g>
     </g>
     <g id="text_15">
      <!-- 0.4525 -->
      <g transform="translate(24.640625 78.891914) scale(0.1 -0.1)">
       <use xlink:href="#DejaVuSans-30"/>
       <use xlink:href="#DejaVuSans-2e" transform="translate(63.623047 0)"/>
       <use xlink:href="#DejaVuSans-34" transform="translate(95.410156 0)"/>
       <use xlink:href="#DejaVuSans-35" transform="translate(159.033203 0)"/>
       <use xlink:href="#DejaVuSans-32" transform="translate(222.65625 0)"/>
       <use xlink:href="#DejaVuSans-35" transform="translate(286.279297 0)"/>
      </g>
     </g>
    </g>
    <g id="ytick_8">
     <g id="line2d_27">
      <path d="M 66.63125 44.022542 
L 637.2 44.022542 
" clip-path="url(#pb713fa126c)" style="fill: none; stroke-dasharray: 0.5,0.825; stroke-dashoffset: 0; stroke: #b0b0b0; stroke-opacity: 0.6; stroke-width: 0.5"/>
     </g>
     <g id="line2d_28">
      <g>
       <use xlink:href="#mbf71f0c486" x="66.63125" y="44.022542" style="stroke: #000000; stroke-width: 0.8"/>
      </g>
     </g>
     <g id="text_16">
      <!-- 0.4550 -->
      <g transform="translate(24.640625 47.821761) scale(0.1 -0.1)">
       <use xlink:href="#DejaVuSans-30"/>
       <use xlink:href="#DejaVuSans-2e" transform="translate(63.623047 0)"/>
       <use xlink:href="#DejaVuSans-34" transform="translate(95.410156 0)"/>
       <use xlink:href="#DejaVuSans-35" transform="translate(159.033203 0)"/>
       <use xlink:href="#DejaVuSans-35" transform="translate(222.65625 0)"/>
       <use xlink:href="#DejaVuSans-30" transform="translate(286.279297 0)"/>
      </g>
     </g>
    </g>
    <g id="text_17">
     <!-- Running mean of seats_at_50_50 -->
     <g transform="translate(18.282813 237.273281) rotate(-90) scale(0.1 -0.1)">
      <defs>
       <path id="DejaVuSans-52" d="M 2841 2188 
Q 3044 2119 3236 1894 
Q 3428 1669 3622 1275 
L 4263 0 
L 3584 0 
L 2988 1197 
Q 2756 1666 2539 1819 
Q 2322 1972 1947 1972 
L 1259 1972 
L 1259 0 
L 628 0 
L 628 4666 
L 2053 4666 
Q 2853 4666 3247 4331 
Q 3641 3997 3641 3322 
Q 3641 2881 3436 2590 
Q 3231 2300 2841 2188 
z
M 1259 4147 
L 1259 2491 
L 2053 2491 
Q 2509 2491 2742 2702 
Q 2975 2913 2975 3322 
Q 2975 3731 2742 3939 
Q 2509 4147 2053 4147 
L 1259 4147 
z
" transform="scale(0.015625)"/>
       <path id="DejaVuSans-75" d="M 544 1381 
L 544 3500 
L 1119 3500 
L 1119 1403 
Q 1119 906 1312 657 
Q 1506 409 1894 409 
Q 2359 409 2629 706 
Q 2900 1003 2900 1516 
L 2900 3500 
L 3475 3500 
L 3475 0 
L 2900 0 
L 2900 538 
Q 2691 219 2414 64 
Q 2138 -91 1772 -91 
Q 1169 -91 856 284 
Q 544 659 544 1381 
z
M 1991 3584 
L 1991 3584 
z
" transform="scale(0.015625)"/>
       <path id="DejaVuSans-67" d="M 2906 1791 
Q 2906 2416 2648 2759 
Q 2391 3103 1925 3103 
Q 1463 3103 1205 2759 
Q 947 2416 947 1791 
Q 947 1169 1205 825 
Q 1463 481 1925 481 
Q 2391 481 2648 825 
Q 2906 1169 2906 1791 
z
M 3481 434 
Q 3481 -459 3084 -895 
Q 2688 -1331 1869 -1331 
Q 1566 -1331 1297 -1286 
Q 1028 -1241 775 -1147 
L 775 -588 
Q 1028 -725 1275 -790 
Q 1522 -856 1778 -856 
Q 2344 -856 2625 -561 
Q 2906 -266 2906 331 
L 2906 616 
Q 2728 306 2450 153 
Q 2172 0 1784 0 
Q 1141 0 747 490 
Q 353 981 353 1791 
Q 353 2603 747 3093 
Q 1141 3584 1784 3584 
Q 2172 3584 2450 3431 
Q 2728 3278 2906 2969 
L 2906 3500 
L 3481 3500 
L 3481 434 
z
" transform="scale(0.015625)"/>
       <path id="DejaVuSans-6f" d="M 1959 3097 
Q 1497 3097 1228 2736 
Q 959 2375 959 1747 
Q 959 1119 1226 758 
Q 1494 397 1959 397 
Q 2419 397 2687 759 
Q 2956 1122 2956 1747 
Q 2956 2369 2687 2733 
Q 2419 3097 1959 3097 
z
M 1959 3584 
Q 2709 3584 3137 3096 
Q 3566 2609 3566 1747 
Q 3566 888 3137 398 
Q 2709 -91 1959 -91 
Q 1206 -91 779 398 
Q 353 888 353 1747 
Q 353 2609 779 3096 
Q 1206 3584 1959 3584 
z
" transform="scale(0.015625)"/>
       <path id="DejaVuSans-66" d="M 2375 4863 
L 2375 4384 
L 1825 4384 
Q 1516 4384 1395 4259 
Q 1275 4134 1275 3809 
L 1275 3500 
L 2222 3500 
L 2222 3053 
L 1275 3053 
L 1275 0 
L 697 0 
L 697 3053 
L 147 3053 
L 147 3500 
L 697 3500 
L 697 3744 
Q 697 4328 969 4595 
Q 1241 4863 1831 4863 
L 2375 4863 
z
" transform="scale(0.015625)"/>
       <path id="DejaVuSans-73" d="M 2834 3397 
L 2834 2853 
Q 2591 2978 2328 3040 
Q 2066 3103 1784 3103 
Q 1356 3103 1142 2972 
Q 928 2841 928 2578 
Q 928 2378 1081 2264 
Q 1234 2150 1697 2047 
L 1894 2003 
Q 2506 1872 2764 1633 
Q 3022 1394 3022 966 
Q 3022 478 2636 193 
Q 2250 -91 1575 -91 
Q 1294 -91 989 -36 
Q 684 19 347 128 
L 347 722 
Q 666 556 975 473 
Q 1284 391 1588 391 
Q 1994 391 2212 530 
Q 2431 669 2431 922 
Q 2431 1156 2273 1281 
Q 2116 1406 1581 1522 
L 1381 1569 
Q 847 1681 609 1914 
Q 372 2147 372 2553 
Q 372 3047 722 3315 
Q 1072 3584 1716 3584 
Q 2034 3584 2315 3537 
Q 2597 3491 2834 3397 
z
" transform="scale(0.015625)"/>
       <path id="DejaVuSans-74" d="M 1172 4494 
L 1172 3500 
L 2356 3500 
L 2356 3053 
L 1172 3053 
L 1172 1153 
Q 1172 725 1289 603 
Q 1406 481 1766 481 
L 2356 481 
L 2356 0 
L 1766 0 
Q 1100 0 847 248 
Q 594 497 594 1153 
L 594 3053 
L 172 3053 
L 172 3500 
L 594 3500 
L 594 4494 
L 1172 4494 
z
" transform="scale(0.015625)"/>
       <path id="DejaVuSans-5f" d="M 3263 -1063 
L 3263 -1509 
L -63 -1509 
L -63 -1063 
L 3263 -1063 
z
" transform="scale(0.015625)"/>
      </defs>
      <use xlink:href="#DejaVuSans-52"/>
      <use xlink:href="#DejaVuSans-75" transform="translate(64.982422 0)"/>
      <use xlink:href="#DejaVuSans-6e" transform="translate(128.361328 0)"/>
      <use xlink:href="#DejaVuSans-6e" transform="translate(191.740234 0)"/>
      <use xlink:href="#DejaVuSans-69" transform="translate(255.119141 0)"/>
      <use xlink:href="#DejaVuSans-6e" transform="translate(282.902344 0)"/>
      <use xlink:href="#DejaVuSans-67" transform="translate(346.28125 0)"/>
      <use xlink:href="#DejaVuSans-20" transform="translate(409.757812 0)"/>
      <use xlink:href="#DejaVuSans-6d" transform="translate(441.544922 0)"/>
      <use xlink:href="#DejaVuSans-65" transform="translate(538.957031 0)"/>
      <use xlink:href="#DejaVuSans-61" transform="translate(600.480469 0)"/>
      <use xlink:href="#DejaVuSans-6e" transform="translate(661.759766 0)"/>
      <use xlink:href="#DejaVuSans-20" transform="translate(725.138672 0)"/>
      <use xlink:href="#DejaVuSans-6f" transform="translate(756.925781 0)"/>
      <use xlink:href="#DejaVuSans-66" transform="translate(818.107422 0)"/>
      <use xlink:href="#DejaVuSans-20" transform="translate(853.3125 0)"/>
      <use xlink:href="#DejaVuSans-73" transform="translate(885.099609 0)"/>
      <use xlink:href="#DejaVuSans-65" transform="translate(937.199219 0)"/>
      <use xlink:href="#DejaVuSans-61" transform="translate(998.722656 0)"/>
      <use xlink:href="#DejaVuSans-74" transform="translate(1060.001953 0)"/>
      <use xlink:href="#DejaVuSans-73" transform="translate(1099.210938 0)"/>
      <use xlink:href="#DejaVuSans-5f" transform="translate(1151.310547 0)"/>
      <use xlink:href="#DejaVuSans-61" transform="translate(1201.310547 0)"/>
      <use xlink:href="#DejaVuSans-74" transform="translate(1262.589844 0)"/>
      <use xlink:href="#DejaVuSans-5f" transform="translate(1301.798828 0)"/>
      <use xlink:href="#DejaVuSans-35" transform="translate(1351.798828 0)"/>
      <use xlink:href="#DejaVuSans-30" transform="translate(1415.421875 0)"/>
      <use xlink:href="#DejaVuSans-5f" transform="translate(1479.044922 0)"/>
      <use xlink:href="#DejaVuSans-35" transform="translate(1529.044922 0)"/>
      <use xlink:href="#DejaVuSans-30" transform="translate(1592.667969 0)"/>
     </g>
    </g>
   </g>
   <g id="line2d_29">
    <path d="M 92.566193 270.441818 
L 92.592898 270.441818 
L 92.728993 140.16864 
L 92.735156 139.711254 
L 92.751076 146.980325 
L 92.782917 165.076336 
L 92.847113 137.496285 
L 93.023778 95.721252 
L 93.033536 96.385925 
L 93.054592 97.729821 
L 93.108516 94.209021 
L 93.314456 42.93793 
L 93.326268 44.541957 
L 93.549154 77.760433 
L 93.782312 101.661435 
L 93.853184 104.627211 
L 93.873726 101.342248 
L 93.989278 97.23722 
L 94.000063 98.181487 
L 94.03704 97.025851 
L 94.254791 115.429288 
L 94.280983 116.384841 
L 94.482813 130.651912 
L 94.52698 128.525675 
L 94.703645 123.644372 
L 94.704673 123.646267 
L 94.754488 123.970658 
L 94.845389 128.555969 
L 94.926019 128.025683 
L 95.083683 111.740836 
L 95.120146 106.395477 
L 95.217209 108.056741 
L 95.303488 109.449419 
L 95.373846 108.388695 
L 95.725637 88.029581 
L 95.811916 83.996153 
L 95.863786 84.681771 
L 95.961363 85.612313 
L 95.888951 84.366494 
L 95.975229 84.707184 
L 96.278232 65.679756 
L 96.3414 66.52123 
L 96.573531 63.193974 
L 96.592019 63.489673 
L 96.595101 63.538692 
L 96.658269 62.78851 
L 96.725546 62.284579 
L 96.764063 62.883716 
L 96.802067 62.771491 
L 97.115341 69.992079 
L 97.457888 87.461417 
L 97.522083 86.130957 
L 97.564195 87.536996 
L 97.636608 89.034873 
L 97.676152 87.624912 
L 97.848196 84.690715 
L 97.922663 82.164628 
L 98.033079 83.296714 
L 98.19896 85.252177 
L 98.200501 85.224694 
L 98.29551 81.548306 
L 98.416198 79.689216 
L 98.444957 79.923534 
L 98.478853 80.196768 
L 98.504531 79.512264 
L 98.718687 73.852896 
L 98.750014 74.125109 
L 98.750528 74.129549 
L 98.781855 73.454815 
L 98.890731 70.570656 
L 98.94106 71.653689 
L 99.032988 73.628535 
L 99.079722 72.540315 
L 99.16446 68.133101 
L 99.225574 69.780275 
L 99.335477 72.983683 
L 99.42535 72.458524 
L 99.519333 74.110988 
L 99.637452 75.740816 
L 99.671348 75.27575 
L 99.676483 75.210362 
L 99.723217 76.034112 
L 99.84031 77.680834 
L 99.992838 78.784831 
L 99.99746 78.815184 
L 100.028788 78.420288 
L 100.072441 78.579172 
L 100.426286 75.213604 
L 100.14434 78.695655 
L 100.443747 75.329694 
L 100.493563 75.65808 
L 100.528999 75.253502 
L 100.544406 75.253421 
L 100.780645 73.08808 
L 100.613737 75.330545 
L 100.802215 73.578185 
L 100.862302 74.287692 
L 100.914172 73.617081 
L 100.974259 72.030964 
L 101.06516 72.504325 
L 101.148357 73.764876 
L 101.20074 74.252826 
L 101.255178 73.666715 
L 101.268017 73.535515 
L 101.313724 74.203711 
L 101.39949 75.295063 
L 101.433385 74.394633 
L 101.658839 71.397207 
L 101.726116 71.017045 
L 101.681436 71.439927 
L 101.781067 71.290705 
L 101.965437 74.197894 
L 102.003954 73.708449 
L 102.26279 70.077807 
L 102.264844 70.059733 
L 102.301821 70.278227 
L 102.351637 70.277602 
L 102.399912 71.133363 
L 102.429698 70.076668 
L 102.650017 65.695109 
L 102.65618 65.732912 
L 102.737323 66.918776 
L 103.079356 71.788387 
L 103.088087 71.716161 
L 103.109657 71.538234 
L 103.144066 72.178281 
L 103.25705 74.499929 
L 103.371061 74.347207 
L 103.381846 74.400296 
L 103.409578 73.981564 
L 103.744935 68.502295 
L 103.773181 68.579209 
L 103.902599 68.26277 
L 103.784993 68.608642 
L 103.916979 68.337926 
L 103.961145 69.153429 
L 104.249768 77.648161 
L 104.267229 77.509521 
L 104.344264 77.046039 
L 104.401783 77.328856 
L 104.546095 78.301705 
L 104.563556 78.153309 
L 104.736113 74.773302 
L 104.83369 75.019978 
L 104.850638 75.092501 
L 104.885047 74.756767 
L 105.185481 72.450981 
L 105.232216 73.030896 
L 105.404773 74.678426 
L 105.421721 74.251711 
L 105.610199 72.238481 
L 105.70983 73.026419 
L 105.762727 73.717646 
L 106.130439 80.326794 
L 106.154063 79.939253 
L 106.2085 80.564964 
L 106.281426 81.553136 
L 106.34819 80.961736 
L 106.55721 79.225388 
L 106.610107 79.914246 
L 106.641948 80.214929 
L 106.715388 79.833458 
L 106.81656 80.028359 
L 106.754419 79.716644 
L 106.846347 79.886114 
L 106.906433 80.024604 
L 106.977819 79.547552 
L 107.068206 79.346174 
L 107.098506 79.487146 
L 107.390211 82.497321 
L 107.411267 82.136288 
L 107.569958 80.651456 
L 107.578688 80.678753 
L 107.608475 80.771644 
L 107.632613 80.4912 
L 107.906856 74.561689 
L 107.913018 74.582983 
L 107.919695 74.606032 
L 107.951022 74.322911 
L 108.182126 72.51331 
L 108.185207 72.495995 
L 108.230401 72.875063 
L 108.234509 72.851953 
L 108.320788 73.556827 
L 108.368036 73.880873 
L 108.444557 73.714646 
L 108.451747 73.674377 
L 108.486669 74.11059 
L 108.673093 75.713354 
L 108.710583 75.661144 
L 108.796862 76.479568 
L 108.947336 78.673225 
L 108.999206 78.376736 
L 109.020262 78.256913 
L 109.065969 78.629219 
L 109.713573 89.552483 
L 109.715114 89.547345 
L 109.867642 90.154092 
L 110.141885 93.45967 
L 110.247166 92.94924 
L 110.444374 91.053965 
L 110.62104 90.143733 
L 110.873713 88.011812 
L 110.930205 87.306631 
L 110.997996 87.828921 
L 111.119197 88.515711 
L 111.159768 88.32873 
L 111.757043 84.386142 
L 111.918302 82.627055 
L 112.111402 81.483572 
L 112.197167 81.785901 
L 112.24801 82.183775 
L 112.391294 82.722864 
L 112.463707 82.948824 
L 112.487844 82.671487 
L 112.654239 81.51337 
L 112.688134 81.590984 
L 112.696865 81.610934 
L 112.73795 81.428181 
L 112.842717 80.82007 
L 112.904858 81.17217 
L 113.330089 82.416014 
L 113.404042 82.67843 
L 113.350118 82.41013 
L 113.464642 82.622611 
L 113.652093 83.255465 
L 113.721424 82.911803 
L 113.875493 81.093471 
L 113.94123 81.668909 
L 114.114814 82.798017 
L 114.157953 82.602104 
L 114.177982 82.511411 
L 114.23088 82.780627 
L 114.335647 83.201839 
L 114.369028 83.010712 
L 114.385976 82.934386 
L 114.433737 83.229852 
L 114.663814 84.73084 
L 114.70644 84.607918 
L 114.764986 84.793981 
L 114.833803 84.613258 
L 114.923163 84.230481 
L 114.849724 84.630794 
L 114.972979 84.497131 
L 115.047959 84.624535 
L 115.067475 84.440097 
L 115.130643 83.926908 
L 115.201001 84.198755 
L 115.281631 84.591762 
L 115.632395 88.057168 
L 115.677075 87.949485 
L 115.899962 88.733709 
L 116.28308 91.771004 
L 116.377062 91.582713 
L 116.442799 91.32236 
L 116.510075 91.356857 
L 116.695985 90.024661 
L 116.97331 87.058 
L 117.067806 87.349056 
L 117.068833 87.350743 
L 117.105296 87.201264 
L 117.244472 86.489658 
L 117.274772 86.623193 
L 117.521796 88.598496 
L 117.61886 88.351314 
L 117.690758 88.667997 
L 117.912104 89.459431 
L 117.949595 89.712278 
L 118.257733 92.219664 
L 118.276735 92.254365 
L 118.314225 91.832845 
L 118.41591 91.374683 
L 118.449292 91.469574 
L 118.50373 91.48033 
L 118.481133 91.395057 
L 118.517083 91.377351 
L 118.726617 90.42509 
L 118.727644 90.426549 
L 118.783109 90.619901 
L 118.828816 90.379764 
L 118.95772 89.658091 
L 119.00086 89.808799 
L 119.072758 90.290453 
L 119.121033 89.863746 
L 119.243775 89.190339 
L 119.337757 89.459415 
L 119.483609 89.859531 
L 119.513396 89.884902 
L 119.564239 89.648853 
L 119.702388 88.668703 
L 119.725498 88.545154 
L 119.813831 88.671731 
L 119.860052 88.931162 
L 119.939654 89.145423 
L 119.887271 88.924028 
L 119.976117 88.963713 
L 120.142512 88.066145 
L 120.185138 88.0873 
L 120.326881 87.128872 
L 120.542578 85.668163 
L 120.830174 84.763189 
L 120.876394 84.879754 
L 120.876908 84.880529 
L 120.916452 84.740849 
L 121.441828 82.481883 
L 122.533665 74.257242 
L 122.537773 74.281686 
L 122.545476 74.305173 
L 122.602482 74.171826 
L 122.634323 74.182036 
L 122.635864 74.177453 
L 122.7016 74.301268 
L 122.712898 74.296904 
L 122.762714 74.445559 
L 122.79815 74.226361 
L 122.833072 73.917085 
L 122.904971 74.283673 
L 122.912161 74.320479 
L 122.964545 73.944083 
L 123.074961 73.5996 
L 123.098585 73.660596 
L 123.281927 74.38853 
L 123.310686 74.30467 
L 123.431888 73.613093 
L 123.682507 71.923573 
L 123.873552 71.058814 
L 124.490856 65.046571 
L 124.532968 65.067 
L 124.802076 63.96403 
L 124.868839 63.586808 
L 124.93098 63.845698 
L 125.540067 67.637366 
L 125.603749 67.426505 
L 125.81585 66.77328 
L 125.86618 67.06788 
L 125.900588 67.222785 
L 125.984813 67.107107 
L 126.013059 67.055095 
L 126.070578 67.187484 
L 126.165074 67.243822 
L 126.131692 67.063597 
L 126.184076 67.197189 
L 126.326846 67.013636 
L 126.354579 67.069868 
L 126.648851 68.500745 
L 126.673502 68.313303 
L 126.828598 67.765839 
L 126.834247 67.775701 
L 126.867115 67.833017 
L 126.894848 67.665449 
L 127.165496 65.191171 
L 127.171145 65.201357 
L 127.178335 65.214317 
L 127.214798 65.051288 
L 127.279507 65.089671 
L 127.352947 64.77031 
L 127.443847 64.340872 
L 127.502907 64.529687 
L 127.59843 64.929894 
L 127.626676 65.007577 
L 127.65749 64.88901 
L 127.712441 64.939034 
L 127.755067 65.238 
L 127.936355 65.926774 
L 127.969223 65.905278 
L 128.062178 66.368563 
L 128.205976 67.354554 
L 128.261441 67.226184 
L 128.278902 67.185854 
L 128.323582 67.361862 
L 128.991215 72.741627 
L 129.144771 73.172438 
L 129.400525 74.777153 
L 129.512482 74.551974 
L 129.748208 73.568247 
L 129.774913 73.607019 
L 129.789293 73.627874 
L 129.840136 73.506628 
L 130.057887 72.701476 
L 130.188846 72.165203 
L 130.231985 72.318277 
L 130.377837 72.834149 
L 130.425599 72.742392 
L 130.74144 71.783704 
L 130.850829 72.033219 
L 130.854424 72.038436 
L 130.878562 71.880035 
L 131.120964 70.198097 
L 131.155886 70.267144 
L 131.370042 69.693035 
L 131.455807 69.871651 
L 131.630419 70.32871 
L 131.722347 70.543708 
L 131.752134 70.377389 
L 131.912879 69.870912 
L 131.943693 69.916078 
L 131.955505 69.933373 
L 132.011483 69.819912 
L 132.101357 69.570835 
L 132.149118 69.785406 
L 132.910733 71.069374 
L 132.160417 69.764843 
L 132.994958 70.826015 
L 133.134134 70.000826 
L 133.197816 70.311362 
L 133.373454 70.96599 
L 133.422757 70.861941 
L 133.436623 70.832722 
L 133.487979 70.982832 
L 133.594287 71.243945 
L 133.633318 71.140293 
L 133.644616 71.11653 
L 133.690323 71.277412 
L 133.922454 72.155821 
L 133.977405 72.119544 
L 134.108364 72.15843 
L 134.12223 72.129261 
L 134.181804 71.965379 
L 134.241377 72.13643 
L 134.3066 72.214293 
L 134.334332 72.075418 
L 134.389283 71.862438 
L 134.456047 72.024811 
L 134.547975 72.32822 
L 134.897198 74.264156 
L 134.897712 74.26307 
L 134.935715 74.212207 
L 134.979368 74.350171 
L 135.224338 74.958587 
L 135.298805 75.225415 
L 135.522719 76.492324 
L 135.610538 76.519878 
L 135.634162 76.452501 
L 135.701439 76.323066 
L 135.759472 76.385152 
L 135.947949 75.72487 
L 136.23195 74.121696 
L 136.323365 74.305491 
L 136.327473 74.313846 
L 136.392696 74.10689 
L 136.503112 73.882306 
L 136.532385 73.95978 
L 136.780436 75.151673 
L 136.794816 75.120619 
L 136.868769 75.031019 
L 136.920639 75.11564 
L 137.535375 77.467628 
L 137.552323 77.398448 
L 137.674551 77.009136 
L 137.729502 77.062557 
L 137.985257 76.560458 
L 137.76237 77.097679 
L 138.03764 76.685393 
L 138.041749 76.689992 
L 138.085915 76.573377 
L 138.21636 76.187221 
L 138.256418 76.274034 
L 138.331399 76.58734 
L 138.385836 76.342123 
L 138.502415 75.999456 
L 138.591776 76.177724 
L 138.772036 76.481499 
L 138.841368 76.291732 
L 138.984138 75.758846 
L 139.045766 75.827569 
L 139.178779 76.140534 
L 139.198294 76.169932 
L 139.249137 75.961921 
L 139.401152 75.590651 
L 139.406288 75.596352 
L 139.436074 75.629395 
L 139.479727 75.511983 
L 139.588603 75.061546 
L 139.797623 74.28284 
L 140.088814 73.806731 
L 140.133494 73.883468 
L 140.135548 73.88733 
L 140.210528 73.730097 
L 140.699441 72.582319 
L 141.792305 67.790112 
L 141.807198 67.815648 
L 141.924804 67.767823 
L 141.938157 67.812235 
L 142.021354 67.935048 
L 142.059358 67.786677 
L 142.091712 67.621325 
L 142.162584 67.8505 
L 142.170801 67.878143 
L 142.225239 67.639273 
L 142.333601 67.457297 
L 142.356711 67.495521 
L 142.540567 67.967637 
L 142.573435 67.912934 
L 142.691555 67.501793 
L 142.94012 66.497763 
L 143.13322 65.973739 
L 143.753091 62.286934 
L 143.979573 61.74271 
L 144.005251 61.714254 
L 144.074068 61.825056 
L 144.148535 61.895819 
L 144.181403 61.784149 
L 144.269736 61.662455 
L 144.311335 61.715455 
L 144.558873 61.979698 
L 144.597903 61.900609 
L 144.71551 61.528242 
L 144.917854 61.131953 
L 144.753 61.540555 
L 144.921962 61.137168 
L 144.964588 61.202428 
L 144.99951 61.057758 
L 145.142795 60.936284 
L 145.261941 60.713883 
L 145.354383 60.824046 
L 145.370817 60.844825 
L 145.399576 60.706198 
L 145.579837 60.238932 
L 145.719013 59.848015 
L 145.920844 59.445645 
L 145.927006 59.46039 
L 145.962442 59.636126 
L 146.036396 59.440614 
L 146.584882 56.499671 
L 146.8052 56.078335 
L 146.86272 55.821709 
L 146.973649 55.458343 
L 147.016789 55.546479 
L 147.201158 55.942671 
L 147.213997 55.876271 
L 147.335198 55.458989 
L 147.380392 55.519799 
L 147.404529 55.551521 
L 147.466671 55.449989 
L 147.483105 55.455547 
L 147.517 55.565459 
L 147.696234 55.882123 
L 147.708559 55.866221 
L 147.873413 55.473817 
L 148.10349 54.714486 
L 148.258072 54.671748 
L 148.264235 54.689036 
L 148.299157 54.736032 
L 148.365921 54.640451 
L 148.739795 54.314956 
L 148.752121 54.332336 
L 148.910812 54.611575 
L 148.934436 54.592704 
L 148.954978 54.619297 
L 148.989901 54.486332 
L 149.184541 53.754179 
L 149.19738 53.738533 
L 149.241033 53.860138 
L 149.335015 54.086876 
L 149.392021 53.999235 
L 149.436187 53.929967 
L 149.478813 54.101149 
L 149.643154 54.774176 
L 149.689888 54.724585 
L 149.974402 54.20139 
L 150.101253 53.827654 
L 150.161339 53.933904 
L 150.183423 53.954495 
L 150.237347 53.851615 
L 150.480776 53.387578 
L 151.188981 51.221733 
L 151.256771 50.977445 
L 151.45552 50.648005 
L 151.462196 50.656727 
L 151.467846 50.664106 
L 151.542826 50.580292 
L 151.609076 50.553632 
L 151.641944 50.634989 
L 151.78266 51.252708 
L 151.858668 51.014019 
L 152.420506 49.434657 
L 152.421533 49.435999 
L 152.508839 49.573083 
L 152.559682 49.434985 
L 153.514911 46.512006 
L 153.518506 46.516788 
L 153.585269 46.64036 
L 153.659736 46.522881 
L 153.748582 46.328842 
L 153.801993 46.355391 
L 153.858998 46.345962 
L 153.905733 46.407862 
L 154.393105 47.235287 
L 154.761843 48.752044 
L 155.599466 51.42096 
L 155.616927 51.390858 
L 155.619495 51.388143 
L 155.654417 51.512888 
L 155.703206 51.752941 
L 155.777673 51.575346 
L 155.918903 50.96894 
L 156.063214 51.012522 
L 156.083243 51.004329 
L 156.144871 51.087795 
L 156.306643 51.455752 
L 156.63481 52.92437 
L 156.676409 52.914458 
L 156.978898 53.121634 
L 156.990197 53.109642 
L 156.9979 53.101468 
L 157.060555 53.196582 
L 157.158645 53.478787 
L 157.305525 54.117207 
L 157.365612 54.00306 
L 157.495543 54.007951 
L 157.50376 54.017262 
L 157.651153 54.079048 
L 157.669641 54.037947 
L 157.865823 53.582588 
L 157.917693 53.36854 
L 158.118496 52.6491 
L 158.123632 52.651614 
L 158.320327 52.290033 
L 158.403524 51.948382 
L 158.462584 52.127506 
L 158.613058 52.65932 
L 158.658765 52.5846 
L 158.671604 52.599168 
L 158.72861 52.497456 
L 158.894491 51.990653 
L 158.979229 52.068333 
L 159.031099 52.125064 
L 159.060886 51.995582 
L 159.102484 51.8543 
L 159.190817 51.904061 
L 159.30791 52.061027 
L 159.332047 51.989441 
L 159.722356 51.055656 
L 159.73879 51.074381 
L 159.882588 51.29232 
L 159.757278 51.056128 
L 159.977083 51.17835 
L 160.275464 50.832478 
L 160.346849 50.9696 
L 160.422343 51.222423 
L 160.590278 51.515569 
L 161.056594 53.321029 
L 161.213231 53.148511 
L 161.489015 52.658708 
L 161.513152 52.63493 
L 161.564509 52.737503 
L 161.688278 53.154913 
L 161.732958 53.027987 
L 161.767366 52.945266 
L 161.805884 53.161615 
L 162.036987 53.994247 
L 162.07191 53.959451 
L 162.088857 53.942577 
L 162.145349 54.04033 
L 162.246008 54.262393 
L 162.285552 54.18087 
L 162.366182 53.952458 
L 162.456569 54.016201 
L 162.607557 54.336106 
L 162.899261 55.622501 
L 163.043059 55.842207 
L 163.075927 55.806982 
L 163.127283 55.599301 
L 163.205345 55.327825 
L 163.277244 55.413751 
L 163.497049 55.494684 
L 163.504239 55.487513 
L 163.843705 54.992065 
L 163.984935 54.919911 
L 164.401948 54.520678 
L 164.457413 54.610727 
L 164.73936 55.054394 
L 164.89651 55.174463 
L 165.155346 55.277039 
L 165.337662 54.946078 
L 165.518436 54.616235 
L 165.565684 54.487596 
L 165.64734 54.582326 
L 165.774191 54.614631 
L 165.812194 54.61844 
L 165.857902 54.541829 
L 165.989887 54.478302 
L 166.012998 54.546256 
L 166.081815 54.73039 
L 166.146524 54.59406 
L 166.243588 54.316827 
L 166.318568 54.435088 
L 166.368384 54.461604 
L 166.399711 54.359486 
L 166.496261 54.115747 
L 166.850107 52.960635 
L 167.65897 50.894194 
L 167.685161 50.920936 
L 167.710326 50.937825 
L 167.75706 50.837163 
L 168.561815 48.829169 
L 168.587493 48.855773 
L 168.808325 48.925055 
L 169.069729 48.56094 
L 169.306996 47.814885 
L 169.33935 47.848505 
L 169.401491 48.072449 
L 169.478012 48.189716 
L 169.542721 48.141143 
L 169.831858 48.426106 
L 169.876538 48.327619 
L 169.972061 48.174274 
L 170.02239 48.252397 
L 170.115345 48.399527 
L 170.151808 48.328003 
L 170.331042 48.22201 
L 170.359288 48.300809 
L 170.435809 48.24777 
L 170.442999 48.228718 
L 170.495896 48.093367 
L 170.5642 48.222239 
L 170.730081 48.47327 
L 170.760895 48.448154 
L 170.844606 48.517793 
L 170.845633 48.520705 
L 171.062357 48.80163 
L 171.140932 48.789853 
L 171.168151 48.751807 
L 171.242617 48.662313 
L 171.295514 48.728389 
L 171.525591 49.072463 
L 171.533295 49.066187 
L 171.55281 49.065154 
L 171.601598 49.153541 
L 171.867111 49.566954 
L 171.940551 49.79442 
L 172.193737 50.438872 
L 172.194765 50.438025 
L 172.314425 50.429599 
L 172.334454 50.466448 
L 172.433572 50.427132 
L 172.438707 50.413724 
L 172.478765 50.365196 
L 172.536284 50.468445 
L 172.804365 50.881545 
L 172.854694 51.080398 
L 173.126883 52.375221 
L 173.210594 52.660709 
L 173.290196 52.498307 
L 173.312793 52.456631 
L 173.361581 52.62095 
L 173.385719 52.651509 
L 173.44786 52.53584 
L 173.464294 52.497583 
L 173.521813 52.652432 
L 173.776541 53.247928 
L 173.82687 53.154939 
L 173.840223 53.182514 
L 174.059001 52.816922 
L 174.091869 52.767879 
L 174.151442 52.934916 
L 174.453418 54.113289 
L 174.50991 54.015327 
L 174.753853 53.691882 
L 174.869918 53.632974 
L 174.913571 53.70247 
L 175.067127 53.989385 
L 175.074316 54.000245 
L 175.152892 53.932572 
L 175.164704 53.935111 
L 175.355749 53.241982 
L 175.480545 53.429978 
L 175.648994 53.417862 
L 175.653616 53.429935 
L 175.897046 54.055071 
L 175.96689 53.938086 
L 176.151773 53.636695 
L 176.248323 53.413428 
L 176.592924 52.394904 
L 176.601141 52.402256 
L 176.683825 52.421217 
L 176.714639 52.355458 
L 176.997613 51.770853 
L 177.045374 51.826745 
L 177.234366 52.105902 
L 177.263125 52.083027 
L 177.440818 51.940309 
L 177.486525 52.046683 
L 177.569209 52.15814 
L 177.656001 52.04885 
L 177.813152 52.065904 
L 177.914838 52.141272 
L 177.946678 52.037945 
L 177.972357 51.938684 
L 178.04631 52.097682 
L 178.125912 52.321401 
L 178.203974 52.282928 
L 178.292307 52.222744 
L 178.295902 52.217347 
L 178.83309 50.606578 
L 178.924504 50.276902 
L 178.992294 50.337545 
L 178.993835 50.337224 
L 179.046732 50.248747 
L 179.053408 50.24369 
L 179.31738 49.580098 
L 179.394928 49.709759 
L 180.367104 50.522791 
L 180.394323 50.458133 
L 180.73533 49.827031 
L 180.768198 49.856009 
L 180.871424 50.094758 
L 181.141559 50.470247 
L 181.34647 50.645767 
L 181.417342 50.563472 
L 181.769133 50.340069 
L 181.800461 50.417339 
L 182.176903 51.089472 
L 182.187174 51.076137 
L 182.225692 51.057458 
L 182.263695 51.156951 
L 182.535371 51.98301 
L 182.572861 51.946036 
L 183.352964 49.843708 
L 183.627207 48.706645 
L 183.748922 48.486091 
L 183.889125 48.336008 
L 183.92302 48.365413 
L 183.989783 48.359874 
L 184.02111 48.303588 
L 184.098659 48.271376 
L 184.134608 48.358599 
L 184.312301 48.49846 
L 184.42888 48.744179 
L 184.581408 49.092538 
L 184.601951 49.078174 
L 184.992259 48.669953 
L 185.110893 48.495251 
L 185.169952 48.544111 
L 185.309642 48.51762 
L 185.500688 48.38809 
L 185.532015 48.497639 
L 185.857101 49.32372 
L 186.185268 49.874692 
L 186.20427 49.861475 
L 186.223272 49.869412 
L 186.249463 49.963185 
L 186.303901 50.104531 
L 186.366556 49.988133 
L 186.50984 49.753516 
L 186.676749 49.594557 
L 186.696264 49.610727 
L 186.805139 49.706267 
L 186.854442 49.597603 
L 187.462501 48.526442 
L 187.648925 48.446129 
L 187.678198 48.514454 
L 187.826104 48.835156 
L 187.87592 48.695432 
L 188.039747 48.344407 
L 188.132188 48.404173 
L 188.231306 48.342045 
L 188.282149 48.357314 
L 188.311935 48.421807 
L 188.488088 48.619966 
L 188.570772 48.492354 
L 188.948241 47.416807 
L 189.176263 46.653784 
L 189.97845 45.149055 
L 189.994884 45.17802 
L 190.215203 45.218962 
L 190.351297 45.004246 
L 190.386733 44.944166 
L 190.469417 45.013964 
L 191.000442 45.607008 
L 191.015849 45.639958 
L 191.104182 45.568986 
L 191.603879 44.45094 
L 191.711727 44.566535 
L 191.824198 44.62735 
L 191.85193 44.610623 
L 191.947453 44.68226 
L 192.24532 44.861563 
L 192.271512 44.808244 
L 192.489776 44.615363 
L 192.73526 44.339726 
L 193.195413 43.152241 
L 193.807067 42.830496 
L 193.84353 42.904475 
L 194.029441 42.928772 
L 194.034063 42.919614 
L 194.212269 42.801734 
L 194.215864 42.804732 
L 194.289817 42.805791 
L 194.325253 42.751686 
L 194.345282 42.750361 
L 194.375069 42.849404 
L 194.461861 43.007262 
L 194.518353 42.952668 
L 194.573818 42.972798 
L 194.593847 43.035428 
L 194.721211 43.346958 
L 194.779244 43.289997 
L 194.822383 43.276058 
L 194.86809 43.366795 
L 195.074029 43.543873 
L 195.132575 43.440926 
L 195.360598 43.150846 
L 195.380113 43.19827 
L 195.591188 43.543495 
L 195.605054 43.556942 
L 195.683629 43.479396 
L 195.684143 43.479815 
L 196.068802 43.935582 
L 196.154054 44.096498 
L 196.19822 44.016691 
L 196.76879 42.660695 
L 197.11904 41.635868 
L 197.167829 41.726457 
L 197.228429 41.821033 
L 197.284921 41.715979 
L 197.674202 40.734394 
L 197.770752 40.581892 
L 197.826217 40.617982 
L 198.067592 40.582623 
L 198.079404 40.608355 
L 198.133328 40.671549 
L 198.194956 40.594466 
L 198.400895 40.418542 
L 198.410139 40.426155 
L 198.654596 40.770842 
L 198.766039 40.797012 
L 198.784527 40.787255 
L 199.282684 40.399818 
L 199.43778 40.174198 
L 199.460377 40.2016 
L 199.593904 40.225628 
L 199.705861 40.460031 
L 199.841441 40.53459 
L 199.858903 40.52551 
L 200.103872 40.523274 
L 200.258455 40.791308 
L 200.701147 41.487907 
L 200.706283 41.485212 
L 200.827484 41.547048 
L 201.211116 41.865727 
L 201.270176 41.757078 
L 201.592694 41.208228 
L 201.653294 41.283788 
L 201.749844 41.450146 
L 201.821743 41.379252 
L 201.943458 41.387992 
L 202.268544 41.344509 
L 203.035294 41.89332 
L 203.068162 41.832503 
L 203.399411 41.265377 
L 203.465147 41.342346 
L 203.563238 41.392128 
L 203.602782 41.371952 
L 203.704981 41.443974 
L 203.851347 41.697692 
L 204.13997 42.141469 
L 204.179514 42.118502 
L 204.497924 41.830747 
L 204.755219 41.20741 
L 204.994026 41.211448 
L 205.198425 41.228814 
L 205.655497 40.587919 
L 205.67039 40.617537 
L 205.832676 40.788784 
L 205.869139 40.770746 
L 205.986232 40.836444 
L 206.03502 40.854996 
L 206.081754 40.76985 
L 206.207064 40.830725 
L 206.279476 40.93436 
L 206.312345 40.795577 
L 206.428923 40.589993 
L 206.456142 40.62238 
L 206.841829 41.056495 
L 207.048281 41.265094 
L 207.057012 41.239638 
L 207.126857 41.205191 
L 207.174618 41.23735 
L 207.310199 41.344499 
L 207.369772 41.245472 
L 208.079004 41.019839 
L 208.209449 41.067373 
L 208.235641 40.998805 
L 208.606947 40.088576 
L 208.648032 40.125866 
L 208.803129 40.380792 
L 208.978767 40.814235 
L 209.046558 40.789158 
L 209.150298 40.861362 
L 209.185734 40.887715 
L 209.231954 40.813906 
L 209.246848 40.806749 
L 209.412729 40.849585 
L 209.6161 41.004682 
L 209.70546 41.084512 
L 209.761439 41.142107 
L 209.813822 41.053086 
L 210.088579 40.80532 
L 210.163559 40.753352 
L 210.175885 40.732511 
L 210.438316 40.50702 
L 210.770078 40.472765 
L 210.907199 40.534653 
L 210.917471 40.517413 
L 210.949312 40.494974 
L 211.014021 40.571665 
L 211.131627 40.575067 
L 211.136249 40.567321 
L 211.292886 40.254535 
L 211.358108 40.410562 
L 211.454145 40.530351 
L 211.514232 40.471329 
L 211.648272 40.462811 
L 211.669328 40.520716 
L 211.769473 40.578478 
L 211.79361 40.520409 
L 211.836236 40.472795 
L 211.899404 40.554566 
L 212.1264 40.751105 
L 212.191109 40.727552 
L 212.218841 40.681467 
L 212.46792 40.385369 
L 212.493598 40.438909 
L 212.694915 40.584961 
L 212.813548 40.651885 
L 212.948102 40.698476 
L 212.984051 40.639124 
L 213.372305 40.165548 
L 213.391821 40.179668 
L 213.507886 40.12707 
L 213.709203 39.912697 
L 213.825268 39.700164 
L 213.889978 39.734948 
L 213.956227 39.710977 
L 213.983446 39.66663 
L 214.24485 39.173611 
L 214.349103 39.282433 
L 214.383512 39.309183 
L 214.438464 39.21475 
L 214.585856 39.187426 
L 214.755332 38.991226 
L 214.915051 38.745315 
L 214.952027 38.772157 
L 215.295601 38.920374 
L 215.308954 38.894159 
L 215.447103 38.838052 
L 215.862576 38.775353 
L 215.978641 38.790518 
L 215.987885 38.77577 
L 216.267264 38.478182 
L 216.293456 38.497046 
L 216.448038 38.745017 
L 216.628299 39.021352 
L 216.920004 39.093424 
L 217.157784 39.1104 
L 217.410971 39.426169 
L 217.698566 39.955945 
L 217.793575 39.900578 
L 218.19056 40.129215 
L 218.224969 40.067925 
L 218.262973 39.982326 
L 218.355928 40.032485 
L 218.576247 40.320061 
L 219.026128 41.69506 
L 219.204335 41.682112 
L 219.240798 41.706261 
L 219.264422 41.775546 
L 219.674246 42.633441 
L 219.778499 42.836282 
L 219.943353 43.026029 
L 219.954652 43.00819 
L 220.141075 42.806881 
L 220.146725 42.809485 
L 220.253546 42.88271 
L 220.662856 43.02108 
L 220.777381 43.090327 
L 220.8349 43.091615 
L 220.866741 43.022812 
L 220.971508 42.926123 
L 221.002835 42.974762 
L 221.148687 43.152331 
L 221.177447 43.139269 
L 221.329462 42.948967 
L 221.569296 42.625213 
L 221.666873 42.59851 
L 221.693579 42.635972 
L 222.408973 43.673013 
L 222.491657 43.757473 
L 223.14645 44.677312 
L 223.534705 44.546681 
L 223.554734 44.610345 
L 223.623551 44.708776 
L 223.67953 44.651278 
L 223.907038 44.503931 
L 224.017454 44.332622 
L 224.362569 43.737944 
L 224.417007 43.70969 
L 224.47658 43.766481 
L 224.572617 43.601829 
L 224.642975 43.581026 
L 224.685087 43.632791 
L 224.956763 43.619441 
L 224.960871 43.630913 
L 225.200192 43.969915 
L 225.726081 44.648351 
L 226.118957 44.763253 
L 226.373171 44.579038 
L 226.531863 44.547035 
L 226.723422 44.583037 
L 227.033101 44.644355 
L 227.199495 44.594294 
L 227.595967 44.539164 
L 227.720249 44.485803 
L 227.754144 44.486018 
L 227.78085 44.530645 
L 227.817826 44.53925 
L 227.892293 44.627778 
L 228.177321 44.887624 
L 228.409452 44.663329 
L 228.513191 44.707722 
L 228.761243 44.728858 
L 229.1572 44.675805 
L 229.533129 44.925874 
L 229.590135 44.809281 
L 229.732392 44.751261 
L 230.021528 44.503871 
L 230.264444 44.252991 
L 230.293203 44.300222 
L 230.662456 44.823083 
L 230.705081 44.763119 
L 230.717921 44.760196 
L 230.784684 44.842667 
L 231.148801 45.224718 
L 231.22943 45.068389 
L 231.446154 44.559571 
L 231.453857 44.564177 
L 231.955096 44.735367 
L 232.086054 44.740574 
L 232.240637 44.961476 
L 232.548262 45.247879 
L 232.672544 45.268035 
L 232.687951 45.308501 
L 232.822505 45.566848 
L 232.883105 45.510776 
L 233.031012 45.463498 
L 233.043851 45.472571 
L 233.726891 46.000365 
L 233.906638 46.078173 
L 234.03811 46.141996 
L 234.277431 46.313713 
L 234.35652 46.370948 
L 234.366277 46.396197 
L 234.636412 46.787085 
L 234.710365 46.955573 
L 234.86238 47.131939 
L 235.061129 47.116994 
L 235.277339 47.086235 
L 235.296341 47.134988 
L 235.514092 47.387902 
L 235.752386 47.554167 
L 236.043577 47.590306 
L 236.154506 47.625031 
L 236.275194 47.693207 
L 236.79492 48.108788 
L 236.936664 48.289471 
L 236.974668 48.262079 
L 237.257128 48.051877 
L 237.287428 48.065995 
L 237.318755 48.145037 
L 237.528803 48.373514 
L 237.568347 48.358184 
L 237.599161 48.28599 
L 237.672087 48.248492 
L 237.712659 48.317171 
L 237.898055 48.482911 
L 237.964819 48.500062 
L 238.00539 48.445452 
L 238.259091 48.256469 
L 238.26628 48.267434 
L 238.471192 48.463309 
L 238.493276 48.411435 
L 238.525117 48.354822 
L 238.617558 48.400955 
L 239.242565 48.865934 
L 239.41615 48.931513 
L 239.41769 48.929341 
L 239.969771 48.336554 
L 239.971826 48.339649 
L 240.027804 48.340381 
L 240.07043 48.287683 
L 240.240933 48.011125 
L 240.26507 48.024131 
L 240.354431 47.946649 
L 240.39757 47.918776 
L 240.47101 47.974208 
L 240.614294 47.925892 
L 241.075988 47.473072 
L 241.259843 47.446322 
L 241.592119 47.185898 
L 241.78676 47.013491 
L 241.974724 46.943003 
L 242.40355 47.300621 
L 242.860622 48.709471 
L 243.077346 49.423561 
L 243.107132 49.414661 
L 243.294069 49.387015 
L 243.36905 49.463844 
L 243.373158 49.473756 
L 243.419379 49.542918 
L 243.489737 49.465557 
L 243.678215 49.395021 
L 244.001247 49.377246 
L 244.136314 49.571336 
L 244.238 49.596072 
L 244.262137 49.585752 
L 244.415693 49.639994 
L 244.545111 49.698166 
L 244.562572 49.658365 
L 244.799325 49.36994 
L 244.806515 49.373634 
L 244.952367 49.323807 
L 245.146494 49.083448 
L 245.204527 49.167608 
L 245.338053 49.16556 
L 245.478256 49.112726 
L 245.548614 49.148339 
L 245.56813 49.194785 
L 245.786908 49.428819 
L 246.026742 49.580134 
L 246.317933 49.604295 
L 246.431944 49.636811 
L 247.066195 50.082657 
L 247.235158 50.238002 
L 247.246456 50.222783 
L 247.534565 50.021034 
L 247.592598 50.115851 
L 247.800591 50.320791 
L 247.839622 50.305724 
L 247.873517 50.233785 
L 247.943362 50.201983 
L 247.985474 50.269211 
L 248.170871 50.42027 
L 248.236093 50.43328 
L 248.278206 50.379706 
L 248.530365 50.202082 
L 248.539609 50.215135 
L 248.742467 50.392676 
L 248.765064 50.342786 
L 248.867263 50.321951 
L 248.890374 50.333374 
L 249.520003 50.768095 
L 249.687424 50.81867 
L 249.689992 50.815256 
L 250.241046 50.255841 
L 250.245155 50.261113 
L 250.333488 50.231403 
L 250.348381 50.188024 
L 250.582566 49.937817 
L 250.742284 49.910942 
L 250.88865 49.85996 
L 251.350344 49.436361 
L 251.537795 49.404838 
L 251.867503 49.150801 
L 252.062657 48.990116 
L 252.24908 48.929348 
L 252.677906 49.264197 
L 253.13241 50.572879 
L 253.34862 51.236312 
L 253.378407 51.227644 
L 253.572021 51.196901 
L 253.647001 51.285748 
L 253.708115 51.336995 
L 253.761526 51.270327 
L 253.955653 51.200301 
L 254.27663 51.187699 
L 254.429158 51.207572 
L 254.552927 51.275898 
L 254.7753 51.501274 
L 255.015648 51.639591 
L 255.121956 51.715889 
L 255.220047 51.721955 
L 255.244698 51.69557 
L 255.385928 51.694265 
L 256.100295 52.149618 
L 256.222523 52.246306 
L 256.274393 52.197133 
L 256.618481 52.175046 
L 256.817743 52.314775 
L 256.836745 52.281949 
L 256.930727 52.203604 
L 256.969245 52.25875 
L 257.159777 52.409246 
L 257.223459 52.418718 
L 257.266085 52.366904 
L 257.517731 52.196575 
L 257.528516 52.210843 
L 257.729833 52.374236 
L 257.753457 52.325037 
L 257.891092 52.322465 
L 257.893659 52.325853 
L 258.515585 52.730818 
L 258.67479 52.765909 
L 258.678385 52.761345 
L 259.228412 52.226962 
L 259.235601 52.233295 
L 259.324448 52.195135 
L 259.337287 52.158269 
L 259.57404 51.916855 
L 259.732218 51.895859 
L 259.879097 51.840851 
L 260.340791 51.439747 
L 260.530809 51.404036 
L 260.857949 51.155439 
L 261.054131 51.002344 
L 261.239527 50.949083 
L 261.667839 51.265115 
L 262.120289 52.495973 
L 262.335986 53.119448 
L 262.365772 53.110909 
L 262.565035 53.077375 
L 262.637448 53.167336 
L 262.69548 53.210833 
L 262.755567 53.138811 
L 262.948154 53.076568 
L 263.26759 53.067734 
L 263.537211 53.23117 
L 263.682036 53.292389 
L 263.803751 53.33149 
L 263.822753 53.292607 
L 264.069263 53.03751 
L 264.356346 52.803802 
L 264.405134 52.77295 
L 264.464194 52.847309 
L 265.28076 53.323438 
L 265.601224 53.734872 
L 266.052647 54.216717 
L 266.092191 54.171712 
L 266.135844 54.128044 
L 266.203121 54.211434 
L 266.422412 54.410327 
L 266.592402 54.601956 
L 266.77369 54.796667 
L 266.796287 54.769054 
L 267.167593 54.490716 
L 268.599923 56.438709 
L 268.648711 56.515086 
L 268.725746 56.461627 
L 269.647593 56.953294 
L 269.728222 56.977574 
L 269.769821 56.927082 
L 269.959839 56.870435 
L 270.312144 56.891737 
L 270.557628 56.755955 
L 270.562763 56.76212 
L 270.916095 57.01309 
L 271.056298 56.949332 
L 271.497963 56.651372 
L 271.651005 56.593195 
L 271.883136 56.566048 
L 272.432649 56.4653 
L 272.590827 56.570176 
L 272.62164 56.518361 
L 272.880476 56.251359 
L 273.069468 56.206967 
L 273.320601 55.988347 
L 273.853166 55.185375 
L 274.139735 54.867325 
L 274.378542 54.757863 
L 274.486904 54.682281 
L 274.658948 54.63594 
L 274.665624 54.643852 
L 275.136048 55.029515 
L 275.230544 54.874271 
L 275.901772 54.262154 
L 277.181573 53.895446 
L 277.602182 54.559752 
L 277.901589 55.067634 
L 277.906725 55.065685 
L 278.525056 54.712307 
L 278.819328 54.388659 
L 279.087408 54.170164 
L 279.460255 53.699173 
L 280.364127 52.842237 
L 280.542847 52.79388 
L 282.446115 52.222234 
L 282.825638 52.70573 
L 284.243074 52.317182 
L 284.408955 52.337909 
L 284.593325 52.528977 
L 284.752529 52.59192 
L 284.888624 52.661394 
L 285.583989 53.281011 
L 285.711353 53.211504 
L 285.831527 53.244467 
L 286.035925 53.289643 
L 286.196157 53.368557 
L 286.218754 53.329105 
L 286.623442 52.595934 
L 286.873548 52.370782 
L 286.991154 52.446845 
L 287.224825 52.650113 
L 287.278236 52.602473 
L 287.750201 52.555271 
L 288.127157 52.581361 
L 288.444026 52.588843 
L 288.607339 52.604546 
L 288.860012 52.399834 
L 289.119875 52.043509 
L 289.237482 51.970063 
L 289.70996 51.62771 
L 290.300559 51.544426 
L 290.510093 51.506324 
L 290.932755 51.427674 
L 290.947135 51.474614 
L 291.252192 52.091432 
L 291.466348 52.291121 
L 291.636851 52.445166 
L 291.643528 52.438105 
L 292.002509 52.219872 
L 292.188932 52.407861 
L 292.409765 52.747178 
L 292.640355 52.934639 
L 293.3804 53.092492 
L 293.483627 52.940529 
L 293.677754 52.822897 
L 294.04187 53.076362 
L 294.275542 53.266703 
L 294.473777 53.315331 
L 294.682284 53.536418 
L 294.834299 53.601141 
L 294.85895 53.563375 
L 294.915442 53.530383 
L 294.971421 53.589649 
L 295.30421 53.955013 
L 295.47574 54.135128 
L 295.741253 54.380248 
L 295.900458 54.442981 
L 296.128993 54.523661 
L 296.505436 54.511402 
L 297.037488 55.222887 
L 297.257293 55.418156 
L 297.491992 55.698787 
L 297.934684 56.32208 
L 297.963443 56.298842 
L 298.11289 56.363525 
L 298.294178 56.456245 
L 298.44722 56.626357 
L 298.872451 57.14103 
L 299.007005 57.211112 
L 299.370608 57.427797 
L 299.481024 57.381917 
L 299.524163 57.4281 
L 299.789162 57.635008 
L 300.166632 58.062229 
L 300.377706 58.119787 
L 300.585186 58.163685 
L 300.895378 58.333967 
L 300.901028 58.328097 
L 301.054583 58.328439 
L 301.222005 58.385772 
L 301.452082 58.708547 
L 301.472111 58.695486 
L 301.77614 58.678833 
L 301.899396 58.551888 
L 301.95332 58.594544 
L 302.078116 58.562808 
L 302.365198 58.578585 
L 302.659983 58.859091 
L 302.884924 58.816444 
L 303.15095 58.701614 
L 303.805744 58.58904 
L 303.942866 58.628596 
L 304.384017 58.888942 
L 304.553493 58.956671 
L 304.898094 58.718401 
L 305.08914 58.613236 
L 305.216504 58.641784 
L 305.345922 58.714406 
L 305.629409 58.689666 
L 305.801453 58.616583 
L 306.012014 58.426156 
L 306.1743 58.361931 
L 306.196897 58.396383 
L 306.393078 58.572059 
L 306.533281 58.589511 
L 306.787495 58.685092 
L 307.360632 58.752826 
L 307.692395 58.412927 
L 307.914768 58.476184 
L 308.52899 58.789611 
L 308.767283 58.967579 
L 309.164782 58.977339 
L 309.345556 59.032526 
L 309.595662 59.228829 
L 309.705051 59.379155 
L 309.93256 59.537626 
L 310.323382 59.544207 
L 310.572974 59.451497 
L 310.75118 59.390811 
L 311.041344 59.408857 
L 311.272447 59.477884 
L 311.41265 59.637844 
L 311.748521 59.970247 
L 311.986301 59.771364 
L 312.172725 59.678606 
L 312.313441 59.747801 
L 313.081732 60.363767 
L 313.094572 60.343396 
L 313.372923 60.22317 
L 313.666682 60.35017 
L 313.892136 60.283424 
L 313.985091 60.369001 
L 314.280904 60.574499 
L 314.455002 60.643282 
L 314.661455 60.589901 
L 314.825795 60.524244 
L 314.848905 60.560921 
L 315.849841 61.35359 
L 316.747037 61.162491 
L 317.147617 61.585429 
L 317.279089 61.739619 
L 317.892284 62.230735 
L 317.920016 62.184086 
L 318.147525 62.116387 
L 318.422282 62.219099 
L 318.520886 62.132365 
L 318.637979 62.053014 
L 318.678037 62.089932 
L 318.752503 62.122524 
L 318.808482 62.059277 
L 319.135108 61.896003 
L 319.298935 61.827958 
L 319.71184 61.570908 
L 319.923942 61.369839 
L 320.128854 61.417862 
L 320.321954 61.444975 
L 321.301834 61.232161 
L 322.354126 62.04495 
L 322.503573 62.055007 
L 322.846633 62.216355 
L 323.186099 62.045051 
L 323.835757 61.944311 
L 324.004206 61.877024 
L 324.142868 61.81468 
L 324.163411 61.833185 
L 324.704193 62.469584 
L 325.077554 62.833199 
L 325.410344 62.838477 
L 325.726185 63.041037 
L 325.926989 63.244652 
L 325.939314 63.232961 
L 326.810318 62.559941 
L 328.184615 62.220306 
L 328.912848 62.537506 
L 329.128032 62.730653 
L 329.432061 62.747313 
L 330.199839 63.273258 
L 330.644072 63.011165 
L 330.843334 62.829019 
L 331.25778 62.398984 
L 331.526374 62.357438 
L 331.888437 62.174106 
L 332.059967 62.106086 
L 332.867803 61.961705 
L 333.171832 62.078479 
L 333.417316 62.030721 
L 333.59655 62.01738 
L 333.982236 62.007271 
L 334.198446 62.05472 
L 334.904083 62.884913 
L 335.118753 62.932199 
L 335.532685 63.140186 
L 335.789467 63.323149 
L 335.944563 63.309544 
L 336.312788 63.074069 
L 336.536702 62.939026 
L 336.781672 62.976841 
L 336.997882 63.026491 
L 337.002504 63.019608 
L 337.265963 62.825897 
L 337.667056 62.817541 
L 337.772336 62.87168 
L 338.014225 63.050236 
L 338.245329 63.100197 
L 338.649503 63.087763 
L 338.792274 63.239577 
L 338.998727 63.340822 
L 339.204666 63.391197 
L 340.573827 64.395808 
L 340.765899 64.559102 
L 341.092012 64.825716 
L 341.558328 65.067601 
L 341.954286 65.281302 
L 342.348189 65.640376 
L 342.642975 65.738631 
L 343.091316 65.709638 
L 343.834956 66.173944 
L 343.976186 66.322833 
L 344.200614 66.443366 
L 344.421446 66.487951 
L 344.539566 66.440894 
L 344.920117 65.953422 
L 345.367431 65.300127 
L 345.548719 65.287636 
L 346.055092 65.298064 
L 346.306739 65.3344 
L 346.472106 65.260816 
L 346.716049 65.299859 
L 346.914798 65.38401 
L 347.121251 65.43475 
L 347.354922 65.480525 
L 348.16019 65.109036 
L 348.467815 64.862486 
L 349.16318 64.386038 
L 349.170884 64.396512 
L 349.338305 64.458002 
L 349.34755 64.449989 
L 349.600223 64.37791 
L 349.783052 64.382625 
L 350.174901 64.190568 
L 350.360811 64.24938 
L 351.502463 64.643965 
L 351.698644 64.732954 
L 351.70378 64.72882 
L 352.005755 64.751372 
L 352.443825 64.956949 
L 352.801266 64.730339 
L 353.040586 64.671209 
L 353.254742 64.608922 
L 354.268517 63.859126 
L 354.28187 63.876954 
L 354.427208 63.943415 
L 354.4534 63.921207 
L 354.519136 63.948667 
L 354.547382 63.986892 
L 354.67526 63.995251 
L 354.6768 63.993946 
L 354.862711 63.981964 
L 355.09176 64.021532 
L 355.303862 63.987407 
L 355.93041 63.682714 
L 356.158945 63.555267 
L 356.256009 63.464769 
L 356.995027 63.128224 
L 357.399715 62.743058 
L 357.407419 62.7491 
L 357.521944 62.710951 
L 357.527593 62.703197 
L 357.688852 62.669888 
L 357.82546 62.589375 
L 358.700572 61.928714 
L 358.736008 61.975492 
L 358.906511 62.101509 
L 358.94092 62.062322 
L 359.276791 61.791932 
L 359.411345 61.71074 
L 359.635258 61.523966 
L 359.80987 61.681332 
L 360.011701 61.821319 
L 360.397387 61.802628 
L 360.55197 61.747499 
L 360.970011 61.511939 
L 361.116376 61.249092 
L 361.320261 61.046373 
L 362.12861 60.932126 
L 362.266759 60.852023 
L 362.96007 60.541011 
L 363.292346 60.414915 
L 364.039067 60.714543 
L 364.303553 60.778554 
L 364.855634 60.476463 
L 365.18945 60.444812 
L 365.353277 60.455823 
L 365.525834 60.448541 
L 365.73845 60.4205 
L 366.218118 60.402853 
L 366.372187 60.420564 
L 366.521635 60.342859 
L 366.881129 60.052559 
L 367.028522 60.063435 
L 367.034171 60.071507 
L 367.260139 60.250704 
L 367.786028 60.513457 
L 368.352489 60.537378 
L 368.490124 60.569761 
L 368.781315 60.754624 
L 368.974929 60.762424 
L 369.379617 60.766039 
L 370.024653 61.11547 
L 371.044077 61.246061 
L 371.358378 61.019027 
L 371.586914 61.051993 
L 371.930488 61.020116 
L 372.272521 60.89274 
L 372.715727 61.112434 
L 372.907286 61.177224 
L 372.9078 61.17656 
L 372.960183 61.148675 
L 373.015648 61.218319 
L 373.288864 61.383008 
L 373.477342 61.541557 
L 373.760829 61.718505 
L 374.254364 61.720104 
L 374.895805 61.360454 
L 375.255813 61.33113 
L 375.509514 61.27464 
L 376.565401 61.408311 
L 376.785719 61.378305 
L 377.660318 61.884304 
L 377.939697 61.809037 
L 379.503499 61.271654 
L 379.657568 61.293189 
L 380.348825 61.659435 
L 380.619986 61.59212 
L 381.136631 61.569183 
L 382.199708 61.926252 
L 382.469843 61.984149 
L 382.635724 62.054799 
L 382.807254 62.041966 
L 383.135422 61.93219 
L 383.45794 62.148236 
L 384.186173 62.425872 
L 384.549776 62.54898 
L 384.731578 62.475704 
L 385.052041 62.254333 
L 385.268765 62.272633 
L 385.707349 62.041759 
L 386.171097 61.643804 
L 386.845406 61.681483 
L 387.071888 61.736652 
L 387.237769 61.718453 
L 388.112368 61.375226 
L 388.53349 61.200496 
L 388.722481 61.198273 
L 389.782991 60.550764 
L 389.935005 60.471796 
L 390.163028 60.369149 
L 390.334558 60.211018 
L 390.861988 59.961735 
L 391.073576 59.976001 
L 391.379147 59.780234 
L 391.514214 59.697004 
L 391.734533 59.542732 
L 391.915821 59.697657 
L 392.113029 59.809951 
L 393.142725 59.437575 
L 393.461648 59.120194 
L 395.694623 58.682634 
L 396.622119 58.779911 
L 397.016022 58.635199 
L 397.474121 58.637984 
L 397.611243 58.627132 
L 397.852104 58.592147 
L 398.327151 58.591375 
L 398.513061 58.585345 
L 398.692808 58.427912 
L 398.962429 58.282616 
L 399.228455 58.332931 
L 400.105108 58.804207 
L 400.639728 58.789506 
L 401.043903 58.932685 
L 401.286305 58.897956 
L 401.518436 58.955979 
L 401.837359 59.152716 
L 403.169543 59.333818 
L 403.459707 59.166739 
L 403.744734 59.226112 
L 404.021545 59.173337 
L 404.378986 59.059072 
L 404.8263 59.270721 
L 405.00502 59.315436 
L 405.009128 59.310699 
L 405.057917 59.290135 
L 405.116463 59.356446 
L 405.394815 59.504165 
L 405.587401 59.659725 
L 405.86678 59.808111 
L 406.360315 59.801797 
L 406.623259 59.668404 
L 406.73573 59.527625 
L 406.903151 59.46842 
L 407.379739 59.458059 
L 407.815754 59.468747 
L 408.669811 59.540006 
L 408.889616 59.52305 
L 409.765242 59.97392 
L 410.052324 59.911205 
L 410.334784 59.858238 
L 410.54894 59.78296 
L 410.769259 59.716706 
L 411.028095 59.673966 
L 411.299771 59.618381 
L 411.740408 59.451797 
L 411.911939 59.601653 
L 412.199021 59.754068 
L 412.679203 59.742611 
L 413.254908 59.721433 
L 413.664218 59.857754 
L 413.965166 59.90109 
L 414.440213 60.079626 
L 415.018486 60.087849 
L 415.175123 60.002145 
L 415.212613 60.036602 
L 416.028152 60.435998 
L 416.217143 60.505813 
L 416.711192 60.880107 
L 417.089175 61.070839 
L 417.41426 61.364375 
L 418.545128 61.211754 
L 419.240493 61.240312 
L 419.584581 61.142993 
L 420.078116 61.356468 
L 421.603913 62.198939 
L 422.067148 62.203147 
L 422.24895 62.275699 
L 423.422956 62.39504 
L 423.687955 62.446551 
L 423.92933 62.467436 
L 424.094184 62.490968 
L 424.550229 62.811764 
L 424.695054 62.848626 
L 424.833716 62.762818 
L 425.107445 62.714036 
L 425.460264 62.803511 
L 426.265532 62.84707 
L 426.955761 62.571759 
L 427.217679 62.450557 
L 427.784139 62.447704 
L 428.040921 62.27429 
L 428.261754 62.142206 
L 428.477451 62.20629 
L 428.613031 62.119802 
L 428.815375 62.064728 
L 428.983311 61.984477 
L 429.347428 61.755012 
L 429.991436 61.467131 
L 431.021645 61.782199 
L 431.335433 61.947969 
L 431.622515 61.994245 
L 432.623964 61.879996 
L 432.797549 61.85638 
L 433.036356 61.833965 
L 433.247944 61.987859 
L 433.422042 62.045688 
L 433.654687 62.027158 
L 434.318211 62.551158 
L 434.608888 62.858021 
L 435.102423 63.204874 
L 435.255465 63.283509 
L 435.655017 63.532885 
L 436.021702 63.624558 
L 436.213261 63.58272 
L 436.719121 63.757595 
L 437.087347 63.71296 
L 437.582422 63.486303 
L 437.769359 63.370977 
L 438.427748 63.334562 
L 438.688125 63.361492 
L 438.956719 63.239744 
L 439.470282 63.009754 
L 439.652084 62.979959 
L 440.474813 63.020145 
L 440.992485 62.822355 
L 441.325788 62.771713 
L 441.485507 62.76564 
L 441.688364 62.757497 
L 441.806997 62.794224 
L 442.543448 62.743381 
L 442.932729 62.845373 
L 443.295305 62.87821 
L 443.48481 62.861309 
L 443.863307 62.754167 
L 444.639815 62.69525 
L 445.210384 62.903019 
L 446.264217 62.983541 
L 446.638092 62.880615 
L 447.05151 62.994577 
L 447.332943 63.046234 
L 448.502841 63.371947 
L 448.67694 63.423738 
L 448.821765 63.464238 
L 448.975834 63.460259 
L 449.088304 63.52041 
L 449.263943 63.576433 
L 449.26497 63.575384 
L 449.463206 63.531389 
L 450.356807 63.447787 
L 450.629509 63.559334 
L 451.328983 63.256792 
L 454.146907 63.874832 
L 454.45864 64.111759 
L 454.617331 64.074335 
L 455.379973 63.736505 
L 456.295658 64.010005 
L 456.549872 64.167081 
L 456.8955 64.235505 
L 457.144579 64.294686 
L 457.568269 64.661811 
L 457.78602 64.768832 
L 458.026367 64.829619 
L 458.244632 64.824949 
L 458.524524 64.701954 
L 459.462805 64.610637 
L 459.986127 64.588125 
L 461.112886 64.035061 
L 461.49395 64.213458 
L 461.79798 64.256305 
L 463.013071 64.352153 
L 463.480414 64.201011 
L 463.792661 64.366974 
L 464.000141 64.409993 
L 464.607687 64.175183 
L 465.084787 64.36905 
L 465.251182 64.334285 
L 465.779639 64.311414 
L 466.127322 64.126199 
L 466.694296 64.10982 
L 466.827309 64.134537 
L 467.244837 64.238145 
L 467.838516 64.225568 
L 468.267856 64.185504 
L 468.681274 64.069701 
L 468.855886 64.038932 
L 469.032038 64.022094 
L 469.340177 64.064736 
L 469.75719 63.947666 
L 470.135173 64.028089 
L 470.987176 63.96221 
L 471.156652 63.967633 
L 471.379025 63.90718 
L 471.980921 63.895865 
L 472.357877 63.704297 
L 472.661907 63.482671 
L 472.951557 63.514515 
L 473.235558 63.396193 
L 474.008471 63.349902 
L 474.191813 63.367501 
L 474.55593 63.284485 
L 475.010434 63.248497 
L 475.285704 63.217524 
L 475.77513 63.187553 
L 476.139247 63.105434 
L 476.351349 63.094239 
L 476.551125 63.057294 
L 476.919864 63.130467 
L 477.394397 63.147042 
L 478.156012 63.431106 
L 478.318298 63.511349 
L 478.677793 63.687674 
L 479.205736 63.512134 
L 479.440435 63.511943 
L 480.011004 63.313003 
L 480.963665 63.232854 
L 481.282074 63.27689 
L 481.852644 63.259022 
L 481.992846 63.279545 
L 482.296876 63.315596 
L 482.636855 63.484275 
L 482.728783 63.497311 
L 482.763706 63.466385 
L 483.350195 63.070386 
L 484.900131 62.872943 
L 485.741862 63.124381 
L 486.070543 63.172262 
L 486.909706 63.421897 
L 487.419675 63.726059 
L 487.578366 63.639353 
L 487.947618 63.559173 
L 488.16845 63.482535 
L 489.271072 63.376296 
L 489.42206 63.288331 
L 489.801583 63.203496 
L 490.610446 63.500215 
L 490.770164 63.538081 
L 491.259077 63.819958 
L 492.04637 64.058395 
L 492.200439 64.01313 
L 492.628238 64.041505 
L 493.061686 64.140324 
L 493.428884 64.180693 
L 494.567455 64.248417 
L 495.157026 64.04852 
L 495.697808 64.534122 
L 495.870366 64.49798 
L 496.182099 64.452555 
L 496.490237 64.485101 
L 497.067483 64.484109 
L 497.524041 64.592033 
L 497.775174 64.518826 
L 497.950813 64.597186 
L 498.379125 64.690428 
L 498.794084 64.466087 
L 499.18542 64.377991 
L 499.448878 64.457867 
L 499.762665 64.394634 
L 499.974254 64.353805 
L 501.006003 64.401644 
L 501.500052 64.418244 
L 501.922715 64.506947 
L 502.202093 64.661904 
L 502.45528 64.792235 
L 502.988359 64.761724 
L 503.19892 64.773753 
L 504.606599 65.10124 
L 505.071887 65.483136 
L 505.891022 65.494222 
L 506.038928 65.540388 
L 506.657772 65.521151 
L 507.642274 65.115508 
L 508.56977 65.451078 
L 508.708946 65.455641 
L 509.086929 65.518016 
L 509.255378 65.430781 
L 509.493671 65.428653 
L 509.69088 65.489524 
L 510.111488 65.664178 
L 510.291749 65.734807 
L 510.306129 65.722184 
L 510.729306 65.498474 
L 512.59611 65.250803 
L 513.469168 65.553713 
L 513.625291 65.464857 
L 513.834312 65.430028 
L 514.473699 65.420595 
L 514.937447 65.522552 
L 515.180876 65.363184 
L 515.488501 65.16646 
L 515.825399 65.114057 
L 516.198759 65.057074 
L 516.46119 65.044213 
L 516.663535 65.018873 
L 517.188397 65.032117 
L 517.402039 65.063749 
L 518.053238 65.271864 
L 518.255582 65.293903 
L 519.056228 65.52335 
L 519.664801 65.692694 
L 520.067435 65.607011 
L 520.574836 65.398015 
L 520.828536 65.390661 
L 521.041152 65.369303 
L 521.320531 65.429696 
L 521.4746 65.380698 
L 521.799686 65.248864 
L 522.305546 65.434238 
L 522.549489 65.544232 
L 523.190416 65.748679 
L 523.559155 65.90355 
L 526.320074 66.186598 
L 527.327172 66.110144 
L 527.803246 66.479451 
L 527.975803 66.437621 
L 528.289077 66.400939 
L 528.60081 66.424326 
L 529.177542 66.429174 
L 529.63975 66.522722 
L 530.080387 66.55287 
L 530.318681 66.652797 
L 530.53335 66.570602 
L 530.755724 66.482029 
L 531.302669 66.326282 
L 531.703249 66.390186 
L 532.21219 66.254783 
L 533.287593 66.292752 
L 533.480179 66.319193 
L 533.983472 66.429772 
L 534.222279 66.49839 
L 534.66343 66.703556 
L 535.09431 66.650771 
L 535.469725 66.694143 
L 536.717685 66.977732 
L 537.174757 67.316099 
L 538.517212 67.386007 
L 539.18844 67.148621 
L 539.772362 66.978352 
L 540.673153 67.266205 
L 540.826195 67.283855 
L 541.203664 67.333123 
L 541.602703 67.256785 
L 541.844078 67.302589 
L 541.986849 67.388996 
L 542.186112 67.441783 
L 542.508116 67.465263 
L 542.729976 67.383098 
L 543.011922 67.295701 
L 543.225051 67.270169 
L 543.499808 67.188971 
L 544.723117 67.07802 
L 545.585904 67.34436 
L 545.736891 67.252567 
L 546.022433 67.163398 
L 546.459989 67.237813 
L 546.667982 67.312793 
L 546.92271 67.423929 
L 547.48609 67.386521 
L 547.816825 67.439283 
L 548.076174 67.361596 
L 548.333983 67.357677 
L 549.881351 67.450148 
L 550.179731 67.426838 
L 550.380021 67.394669 
L 550.647074 67.322299 
L 550.960862 67.251524 
L 551.689609 67.016853 
L 553.005359 67.302277 
L 553.287306 67.375159 
L 554.038136 67.36153 
L 554.29389 67.299241 
L 554.747367 67.24649 
L 555.034963 67.30797 
L 555.251687 67.447991 
L 555.5778 67.553255 
L 555.916752 67.709114 
L 556.15864 67.750961 
L 557.136466 67.688675 
L 557.707035 67.650329 
L 558.410617 67.431874 
L 558.919559 67.532607 
L 559.295488 67.469065 
L 559.759236 67.368259 
L 560.705734 67.378282 
L 562.052298 67.02797 
L 562.299836 66.974922 
L 562.613623 66.903793 
L 562.908922 66.813368 
L 563.233494 66.743365 
L 565.231771 66.507965 
L 565.506014 66.505381 
L 566.335933 66.474569 
L 568.010151 66.578528 
L 569.867197 66.371396 
L 570.306294 66.438413 
L 570.883026 66.400334 
L 571.338557 66.435263 
L 571.588663 66.421094 
L 572.14588 66.213448 
L 572.446314 66.195462 
L 573.960814 66.501084 
L 574.256113 66.577067 
L 575.167689 66.309538 
L 575.427038 66.251747 
L 577.922958 65.943067 
L 578.376435 65.888712 
L 578.556696 65.891823 
L 579.30958 66.088392 
L 580.249915 66.043609 
L 581.02591 66.248624 
L 583.523884 65.944335 
L 584.013824 66.117752 
L 584.289608 66.112394 
L 585.427152 65.715743 
L 585.653633 65.632277 
L 586.131247 65.666519 
L 586.626836 65.752244 
L 587.138346 65.64235 
L 588.465395 65.696727 
L 589.247552 65.465548 
L 589.82942 65.585601 
L 590.444156 65.598209 
L 590.740482 65.600182 
L 591.172389 65.642403 
L 591.448686 65.699652 
L 593.209696 65.806424 
L 593.394579 65.845198 
L 593.55892 65.824158 
L 593.933308 65.875987 
L 594.223471 65.874538 
L 597.22936 65.500743 
L 597.702352 65.572969 
L 598.126556 65.51327 
L 598.392582 65.457446 
L 600.34361 65.585219 
L 600.622475 65.653042 
L 600.971699 65.757781 
L 601.134498 65.844075 
L 601.507346 66.049459 
L 601.950038 66.214705 
L 602.272556 66.300175 
L 602.561179 66.366508 
L 602.776362 66.333088 
L 603.280681 66.232549 
L 603.617066 66.247958 
L 603.785001 66.263804 
L 603.993508 66.271162 
L 604.338623 66.424184 
L 604.719687 66.548622 
L 605.108455 66.598787 
L 605.597881 66.674132 
L 606.796025 66.370377 
L 607.351188 66.110331 
L 607.998278 65.949534 
L 608.184702 65.941514 
L 609.873299 65.563283 
L 610.209683 65.461015 
L 610.433597 65.376106 
L 610.835204 65.425873 
L 611.218323 65.549449 
L 611.265057 65.549381 
L 611.265057 65.549381 
" clip-path="url(#pb713fa126c)" style="fill: none; stroke: #1f2937; stroke-linecap: square"/>
   </g>
   <g id="line2d_30">
    <path d="M 66.63125 65.549381 
L 637.2 65.549381 
" clip-path="url(#pb713fa126c)" style="fill: none; stroke-dasharray: 2.96,1.28; stroke-dashoffset: 0; stroke: #888888; stroke-width: 0.8"/>
   </g>
   <g id="patch_3">
    <path d="M 66.63125 282.04 
L 66.63125 26.88 
" style="fill: none; stroke: #000000; stroke-width: 0.8; stroke-linejoin: miter; stroke-linecap: square"/>
   </g>
   <g id="patch_4">
    <path d="M 637.2 282.04 
L 637.2 26.88 
" style="fill: none; stroke: #000000; stroke-width: 0.8; stroke-linejoin: miter; stroke-linecap: square"/>
   </g>
   <g id="patch_5">
    <path d="M 66.63125 282.04 
L 637.2 282.04 
" style="fill: none; stroke: #000000; stroke-width: 0.8; stroke-linejoin: miter; stroke-linecap: square"/>
   </g>
   <g id="patch_6">
    <path d="M 66.63125 26.88 
L 637.2 26.88 
" style="fill: none; stroke: #000000; stroke-width: 0.8; stroke-linejoin: miter; stroke-linecap: square"/>
   </g>
   <g id="text_18">
    <!-- Running mean — seats_at_50_50  (canonical ReCom ensemble) -->
    <g transform="translate(160.831562 20.88) scale(0.12 -0.12)">
     <defs>
      <path id="DejaVuSans-2014" d="M 313 1978 
L 6088 1978 
L 6088 1528 
L 313 1528 
L 313 1978 
z
" transform="scale(0.015625)"/>
      <path id="DejaVuSans-28" d="M 1984 4856 
Q 1566 4138 1362 3434 
Q 1159 2731 1159 2009 
Q 1159 1288 1364 580 
Q 1569 -128 1984 -844 
L 1484 -844 
Q 1016 -109 783 600 
Q 550 1309 550 2009 
Q 550 2706 781 3412 
Q 1013 4119 1484 4856 
L 1984 4856 
z
" transform="scale(0.015625)"/>
      <path id="DejaVuSans-63" d="M 3122 3366 
L 3122 2828 
Q 2878 2963 2633 3030 
Q 2388 3097 2138 3097 
Q 1578 3097 1268 2742 
Q 959 2388 959 1747 
Q 959 1106 1268 751 
Q 1578 397 2138 397 
Q 2388 397 2633 464 
Q 2878 531 3122 666 
L 3122 134 
Q 2881 22 2623 -34 
Q 2366 -91 2075 -91 
Q 1284 -91 818 406 
Q 353 903 353 1747 
Q 353 2603 823 3093 
Q 1294 3584 2113 3584 
Q 2378 3584 2631 3529 
Q 2884 3475 3122 3366 
z
" transform="scale(0.015625)"/>
      <path id="DejaVuSans-43" d="M 4122 4306 
L 4122 3641 
Q 3803 3938 3442 4084 
Q 3081 4231 2675 4231 
Q 1875 4231 1450 3742 
Q 1025 3253 1025 2328 
Q 1025 1406 1450 917 
Q 1875 428 2675 428 
Q 3081 428 3442 575 
Q 3803 722 4122 1019 
L 4122 359 
Q 3791 134 3420 21 
Q 3050 -91 2638 -91 
Q 1578 -91 968 557 
Q 359 1206 359 2328 
Q 359 3453 968 4101 
Q 1578 4750 2638 4750 
Q 3056 4750 3426 4639 
Q 3797 4528 4122 4306 
z
" transform="scale(0.015625)"/>
      <path id="DejaVuSans-62" d="M 3116 1747 
Q 3116 2381 2855 2742 
Q 2594 3103 2138 3103 
Q 1681 3103 1420 2742 
Q 1159 2381 1159 1747 
Q 1159 1113 1420 752 
Q 1681 391 2138 391 
Q 2594 391 2855 752 
Q 3116 1113 3116 1747 
z
M 1159 2969 
Q 1341 3281 1617 3432 
Q 1894 3584 2278 3584 
Q 2916 3584 3314 3078 
Q 3713 2572 3713 1747 
Q 3713 922 3314 415 
Q 2916 -91 2278 -91 
Q 1894 -91 1617 61 
Q 1341 213 1159 525 
L 1159 0 
L 581 0 
L 581 4863 
L 1159 4863 
L 1159 2969 
z
" transform="scale(0.015625)"/>
      <path id="DejaVuSans-29" d="M 513 4856 
L 1013 4856 
Q 1481 4119 1714 3412 
Q 1947 2706 1947 2009 
Q 1947 1309 1714 600 
Q 1481 -109 1013 -844 
L 513 -844 
Q 928 -128 1133 580 
Q 1338 1288 1338 2009 
Q 1338 2731 1133 3434 
Q 928 4138 513 4856 
z
" transform="scale(0.015625)"/>
     </defs>
     <use xlink:href="#DejaVuSans-52"/>
     <use xlink:href="#DejaVuSans-75" transform="translate(64.982422 0)"/>
     <use xlink:href="#DejaVuSans-6e" transform="translate(128.361328 0)"/>
     <use xlink:href="#DejaVuSans-6e" transform="translate(191.740234 0)"/>
     <use xlink:href="#DejaVuSans-69" transform="translate(255.119141 0)"/>
     <use xlink:href="#DejaVuSans-6e" transform="translate(282.902344 0)"/>
     <use xlink:href="#DejaVuSans-67" transform="translate(346.28125 0)"/>
     <use xlink:href="#DejaVuSans-20" transform="translate(409.757812 0)"/>
     <use xlink:href="#DejaVuSans-6d" transform="translate(441.544922 0)"/>
     <use xlink:href="#DejaVuSans-65" transform="translate(538.957031 0)"/>
     <use xlink:href="#DejaVuSans-61" transform="translate(600.480469 0)"/>
     <use xlink:href="#DejaVuSans-6e" transform="translate(661.759766 0)"/>
     <use xlink:href="#DejaVuSans-20" transform="translate(725.138672 0)"/>
     <use xlink:href="#DejaVuSans-2014" transform="translate(756.925781 0)"/>
     <use xlink:href="#DejaVuSans-20" transform="translate(856.925781 0)"/>
     <use xlink:href="#DejaVuSans-73" transform="translate(888.712891 0)"/>
     <use xlink:href="#DejaVuSans-65" transform="translate(940.8125 0)"/>
     <use xlink:href="#DejaVuSans-61" transform="translate(1002.335938 0)"/>
     <use xlink:href="#DejaVuSans-74" transform="translate(1063.615234 0)"/>
     <use xlink:href="#DejaVuSans-73" transform="translate(1102.824219 0)"/>
     <use xlink:href="#DejaVuSans-5f" transform="translate(1154.923828 0)"/>
     <use xlink:href="#DejaVuSans-61" transform="translate(1204.923828 0)"/>
     <use xlink:href="#DejaVuSans-74" transform="translate(1266.203125 0)"/>
     <use xlink:href="#DejaVuSans-5f" transform="translate(1305.412109 0)"/>
     <use xlink:href="#DejaVuSans-35" transform="translate(1355.412109 0)"/>
     <use xlink:href="#DejaVuSans-30" transform="translate(1419.035156 0)"/>
     <use xlink:href="#DejaVuSans-5f" transform="translate(1482.658203 0)"/>
     <use xlink:href="#DejaVuSans-35" transform="translate(1532.658203 0)"/>
     <use xlink:href="#DejaVuSans-30" transform="translate(1596.28125 0)"/>
     <use xlink:href="#DejaVuSans-20" transform="translate(1659.904297 0)"/>
     <use xlink:href="#DejaVuSans-20" transform="translate(1691.691406 0)"/>
     <use xlink:href="#DejaVuSans-28" transform="translate(1723.478516 0)"/>
     <use xlink:href="#DejaVuSans-63" transform="translate(1762.492188 0)"/>
     <use xlink:href="#DejaVuSans-61" transform="translate(1817.472656 0)"/>
     <use xlink:href="#DejaVuSans-6e" transform="translate(1878.751953 0)"/>
     <use xlink:href="#DejaVuSans-6f" transform="translate(1942.130859 0)"/>
     <use xlink:href="#DejaVuSans-6e" transform="translate(2003.3125 0)"/>
     <use xlink:href="#DejaVuSans-69" transform="translate(2066.691406 0)"/>
     <use xlink:href="#DejaVuSans-63" transform="translate(2094.474609 0)"/>
     <use xlink:href="#DejaVuSans-61" transform="translate(2149.455078 0)"/>
     <use xlink:href="#DejaVuSans-6c" transform="translate(2210.734375 0)"/>
     <use xlink:href="#DejaVuSans-20" transform="translate(2238.517578 0)"/>
     <use xlink:href="#DejaVuSans-52" transform="translate(2270.304688 0)"/>
     <use xlink:href="#DejaVuSans-65" transform="translate(2335.287109 0)"/>
     <use xlink:href="#DejaVuSans-43" transform="translate(2396.810547 0)"/>
     <use xlink:href="#DejaVuSans-6f" transform="translate(2466.634766 0)"/>
     <use xlink:href="#DejaVuSans-6d" transform="translate(2527.816406 0)"/>
     <use xlink:href="#DejaVuSans-20" transform="translate(2625.228516 0)"/>
     <use xlink:href="#DejaVuSans-65" transform="translate(2657.015625 0)"/>
     <use xlink:href="#DejaVuSans-6e" transform="translate(2718.539062 0)"/>
     <use xlink:href="#DejaVuSans-73" transform="translate(2781.917969 0)"/>
     <use xlink:href="#DejaVuSans-65" transform="translate(2834.017578 0)"/>
     <use xlink:href="#DejaVuSans-6d" transform="translate(2895.541016 0)"/>
     <use xlink:href="#DejaVuSans-62" transform="translate(2992.953125 0)"/>
     <use xlink:href="#DejaVuSans-6c" transform="translate(3056.429688 0)"/>
     <use xlink:href="#DejaVuSans-65" transform="translate(3084.212891 0)"/>
     <use xlink:href="#DejaVuSans-29" transform="translate(3145.736328 0)"/>
    </g>
   </g>
   <g id="legend_1">
    <g id="patch_7">
     <path d="M 496.306406 47.290312 
L 630.9 47.290312 
Q 632.7 47.290312 632.7 45.490312 
L 632.7 33.18 
Q 632.7 31.38 630.9 31.38 
L 496.306406 31.38 
Q 494.506406 31.38 494.506406 33.18 
L 494.506406 45.490312 
Q 494.506406 47.290312 496.306406 47.290312 
z
" style="fill: #ffffff; opacity: 0.8; stroke: #cccccc; stroke-linejoin: miter"/>
    </g>
    <g id="line2d_31">
     <path d="M 498.106406 38.668594 
L 507.106406 38.668594 
L 516.106406 38.668594 
" style="fill: none; stroke-dasharray: 2.96,1.28; stroke-dashoffset: 0; stroke: #888888; stroke-width: 0.8"/>
    </g>
    <g id="text_19">
     <!-- final mean = +0.45327 -->
     <g transform="translate(523.306406 41.818594) scale(0.09 -0.09)">
      <defs>
       <path id="DejaVuSans-3d" d="M 678 2906 
L 4684 2906 
L 4684 2381 
L 678 2381 
L 678 2906 
z
M 678 1631 
L 4684 1631 
L 4684 1100 
L 678 1100 
L 678 1631 
z
" transform="scale(0.015625)"/>
       <path id="DejaVuSans-2b" d="M 2944 4013 
L 2944 2272 
L 4684 2272 
L 4684 1741 
L 2944 1741 
L 2944 0 
L 2419 0 
L 2419 1741 
L 678 1741 
L 678 2272 
L 2419 2272 
L 2419 4013 
L 2944 4013 
z
" transform="scale(0.015625)"/>
      </defs>
      <use xlink:href="#DejaVuSans-66"/>
      <use xlink:href="#DejaVuSans-69" transform="translate(35.205078 0)"/>
      <use xlink:href="#DejaVuSans-6e" transform="translate(62.988281 0)"/>
      <use xlink:href="#DejaVuSans-61" transform="translate(126.367188 0)"/>
      <use xlink:href="#DejaVuSans-6c" transform="translate(187.646484 0)"/>
      <use xlink:href="#DejaVuSans-20" transform="translate(215.429688 0)"/>
      <use xlink:href="#DejaVuSans-6d" transform="translate(247.216797 0)"/>
      <use xlink:href="#DejaVuSans-65" transform="translate(344.628906 0)"/>
      <use xlink:href="#DejaVuSans-61" transform="translate(406.152344 0)"/>
      <use xlink:href="#DejaVuSans-6e" transform="translate(467.431641 0)"/>
      <use xlink:href="#DejaVuSans-20" transform="translate(530.810547 0)"/>
      <use xlink:href="#DejaVuSans-3d" transform="translate(562.597656 0)"/>
      <use xlink:href="#DejaVuSans-20" transform="translate(646.386719 0)"/>
      <use xlink:href="#DejaVuSans-2b" transform="translate(678.173828 0)"/>
      <use xlink:href="#DejaVuSans-30" transform="translate(761.962891 0)"/>
      <use xlink:href="#DejaVuSans-2e" transform="translate(825.585938 0)"/>
      <use xlink:href="#DejaVuSans-34" transform="translate(857.373047 0)"/>
      <use xlink:href="#DejaVuSans-35" transform="translate(920.996094 0)"/>
      <use xlink:href="#DejaVuSans-33" transform="translate(984.619141 0)"/>
      <use xlink:href="#DejaVuSans-32" transform="translate(1048.242188 0)"/>
      <use xlink:href="#DejaVuSans-37" transform="translate(1111.865234 0)"/>
     </g>
    </g>
   </g>
  </g>
 </g>
 <defs>
  <clipPath id="pb713fa126c">
   <rect x="66.63125" y="26.88" width="570.56875" height="255.16"/>
  </clipPath>
 </defs>
</svg>
