<?xml version="1.0" encoding="utf-8" standalone="no"?>
<!DOCTYPE svg PUBLIC "-//W3C//DTD SVG 1.1//EN"
  "http://www.w3.org/Graphics/SVG/1.1/DTD/svg11.dtd">
<svg xmlns:xlink="http://www.w3.org/1999/xlink" width="648pt" height="324pt" viewBox="0 0 648 324" xmlns="http://www.w3.org/2000/svg" version="1.1">
 <metadata>
  <rdf:RDF xmlns:dc="http://purl.org/dc/elements/1.1/" xmlns:cc="http://creativecommons.org/ns#" xmlns:rdf="http://www.w3.org/1999/02/22-rdf-syntax-ns#">
   <cc:Work>
    <dc:type rdf:resource="http://purl.org/dc/dcmitype/StillImage"/>
    <dc:date>2026-05-11T17:57:44.089665</dc:date>
    <dc:format>image/svg+xml</dc:format>
    <dc:creator>
     <cc:Agent>
      <dc:title>Matplotlib v3.10.8, https://matplotlib.org/</dc:title>
     </cc:Agent>
    </dc:creator>
   </cc:Work>
  </rdf:RDF>
 </metadata>
 <defs>
  <style type="text/css">*{stroke-linejoin: round; stroke-linecap: butt}</style>
 </defs>
 <g id="figure_1">
  <g id="patch_1">
   <path d="M 0 324 
L 648 324 
L 648 0 
L 0 0 
z
" style="fill: #ffffff"/>
  </g>
  <g id="axes_1">
   <g id="patch_2">
    <path d="M 54.03125 282.04 
L 637.2 282.04 
L 637.2 26.88 
L 54.03125 26.88 
z
" style="fill: #ffffff"/>
   </g>
   <g id="matplotlib.axis_1">
    <g id="xtick_1">
     <g id="line2d_1">
      <path d="M 80.538396 282.04 
L 80.538396 26.88 
" clip-path="url(#p33d96a7717)" style="fill: none; stroke-dasharray: 0.5,0.825; stroke-dashoffset: 0; stroke: #b0b0b0; stroke-opacity: 0.6; stroke-width: 0.5"/>
     </g>
     <g id="line2d_2">
      <defs>
       <path id="m70dc3c47c1" d="M 0 0 
L 0 3.5 
" style="stroke: #000000; stroke-width: 0.8"/>
      </defs>
      <g>
       <use xlink:href="#m70dc3c47c1" x="80.538396" y="282.04" style="stroke: #000000; stroke-width: 0.8"/>
      </g>
     </g>
     <g id="text_1">
      <!-- 0.0 -->
      <g transform="translate(72.586833 296.638438) scale(0.1 -0.1)">
       <defs>
        <path id="DejaVuSans-30" d="M 2034 4250 
Q 1547 4250 1301 3770 
Q 1056 3291 1056 2328 
Q 1056 1369 1301 889 
Q 1547 409 2034 409 
Q 2525 409 2770 889 
Q 3016 1369 3016 2328 
Q 3016 3291 2770 3770 
Q 2525 4250 2034 4250 
z
M 2034 4750 
Q 2819 4750 3233 4129 
Q 3647 3509 3647 2328 
Q 3647 1150 3233 529 
Q 2819 -91 2034 -91 
Q 1250 -91 836 529 
Q 422 1150 422 2328 
Q 422 3509 836 4129 
Q 1250 4750 2034 4750 
z
" transform="scale(0.015625)"/>
        <path id="DejaVuSans-2e" d="M 684 794 
L 1344 794 
L 1344 0 
L 684 0 
L 684 794 
z
" transform="scale(0.015625)"/>
       </defs>
       <use xlink:href="#DejaVuSans-30"/>
       <use xlink:href="#DejaVuSans-2e" transform="translate(63.623047 0)"/>
       <use xlink:href="#DejaVuSans-30" transform="translate(95.410156 0)"/>
      </g>
     </g>
    </g>
    <g id="xtick_2">
     <g id="line2d_3">
      <path d="M 185.519373 282.04 
L 185.519373 26.88 
" clip-path="url(#p33d96a7717)" style="fill: none; stroke-dasharray: 0.5,0.825; stroke-dashoffset: 0; stroke: #b0b0b0; stroke-opacity: 0.6; stroke-width: 0.5"/>
     </g>
     <g id="line2d_4">
      <g>
       <use xlink:href="#m70dc3c47c1" x="185.519373" y="282.04" style="stroke: #000000; stroke-width: 0.8"/>
      </g>
     </g>
     <g id="text_2">
      <!-- 0.2 -->
      <g transform="translate(177.56781 296.638438) scale(0.1 -0.1)">
       <defs>
        <path id="DejaVuSans-32" d="M 1228 531 
L 3431 531 
L 3431 0 
L 469 0 
L 469 531 
Q 828 903 1448 1529 
Q 2069 2156 2228 2338 
Q 2531 2678 2651 2914 
Q 2772 3150 2772 3378 
Q 2772 3750 2511 3984 
Q 2250 4219 1831 4219 
Q 1534 4219 1204 4116 
Q 875 4013 500 3803 
L 500 4441 
Q 881 4594 1212 4672 
Q 1544 4750 1819 4750 
Q 2544 4750 2975 4387 
Q 3406 4025 3406 3419 
Q 3406 3131 3298 2873 
Q 3191 2616 2906 2266 
Q 2828 2175 2409 1742 
Q 1991 1309 1228 531 
z
" transform="scale(0.015625)"/>
       </defs>
       <use xlink:href="#DejaVuSans-30"/>
       <use xlink:href="#DejaVuSans-2e" transform="translate(63.623047 0)"/>
       <use xlink:href="#DejaVuSans-32" transform="translate(95.410156 0)"/>
      </g>
     </g>
    </g>
    <g id="xtick_3">
     <g id="line2d_5">
      <path d="M 290.50035 282.04 
L 290.50035 26.88 
" clip-path="url(#p33d96a7717)" style="fill: none; stroke-dasharray: 0.5,0.825; stroke-dashoffset: 0; stroke: #b0b0b0; stroke-opacity: 0.6; stroke-width: 0.5"/>
     </g>
     <g id="line2d_6">
      <g>
       <use xlink:href="#m70dc3c47c1" x="290.50035" y="282.04" style="stroke: #000000; stroke-width: 0.8"/>
      </g>
     </g>
     <g id="text_3">
      <!-- 0.4 -->
      <g transform="translate(282.548787 296.638438) scale(0.1 -0.1)">
       <defs>
        <path id="DejaVuSans-34" d="M 2419 4116 
L 825 1625 
L 2419 1625 
L 2419 4116 
z
M 2253 4666 
L 3047 4666 
L 3047 1625 
L 3713 1625 
L 3713 1100 
L 3047 1100 
L 3047 0 
L 2419 0 
L 2419 1100 
L 313 1100 
L 313 1709 
L 2253 4666 
z
" transform="scale(0.015625)"/>
       </defs>
       <use xlink:href="#DejaVuSans-30"/>
       <use xlink:href="#DejaVuSans-2e" transform="translate(63.623047 0)"/>
       <use xlink:href="#DejaVuSans-34" transform="translate(95.410156 0)"/>
      </g>
     </g>
    </g>
    <g id="xtick_4">
     <g id="line2d_7">
      <path d="M 395.481327 282.04 
L 395.481327 26.88 
" clip-path="url(#p33d96a7717)" style="fill: none; stroke-dasharray: 0.5,0.825; stroke-dashoffset: 0; stroke: #b0b0b0; stroke-opacity: 0.6; stroke-width: 0.5"/>
     </g>
     <g id="line2d_8">
      <g>
       <use xlink:href="#m70dc3c47c1" x="395.481327" y="282.04" style="stroke: #000000; stroke-width: 0.8"/>
      </g>
     </g>
     <g id="text_4">
      <!-- 0.6 -->
      <g transform="translate(387.529764 296.638438) scale(0.1 -0.1)">
       <defs>
        <path id="DejaVuSans-36" d="M 2113 2584 
Q 1688 2584 1439 2293 
Q 1191 2003 1191 1497 
Q 1191 994 1439 701 
Q 1688 409 2113 409 
Q 2538 409 2786 701 
Q 3034 994 3034 1497 
Q 3034 2003 2786 2293 
Q 2538 2584 2113 2584 
z
M 3366 4563 
L 3366 3988 
Q 3128 4100 2886 4159 
Q 2644 4219 2406 4219 
Q 1781 4219 1451 3797 
Q 1122 3375 1075 2522 
Q 1259 2794 1537 2939 
Q 1816 3084 2150 3084 
Q 2853 3084 3261 2657 
Q 3669 2231 3669 1497 
Q 3669 778 3244 343 
Q 2819 -91 2113 -91 
Q 1303 -91 875 529 
Q 447 1150 447 2328 
Q 447 3434 972 4092 
Q 1497 4750 2381 4750 
Q 2619 4750 2861 4703 
Q 3103 4656 3366 4563 
z
" transform="scale(0.015625)"/>
       </defs>
       <use xlink:href="#DejaVuSans-30"/>
       <use xlink:href="#DejaVuSans-2e" transform="translate(63.623047 0)"/>
       <use xlink:href="#DejaVuSans-36" transform="translate(95.410156 0)"/>
      </g>
     </g>
    </g>
    <g id="xtick_5">
     <g id="line2d_9">
      <path d="M 500.462304 282.04 
L 500.462304 26.88 
" clip-path="url(#p33d96a7717)" style="fill: none; stroke-dasharray: 0.5,0.825; stroke-dashoffset: 0; stroke: #b0b0b0; stroke-opacity: 0.6; stroke-width: 0.5"/>
     </g>
     <g id="line2d_10">
      <g>
       <use xlink:href="#m70dc3c47c1" x="500.462304" y="282.04" style="stroke: #000000; stroke-width: 0.8"/>
      </g>
     </g>
     <g id="text_5">
      <!-- 0.8 -->
      <g transform="translate(492.510741 296.638438) scale(0.1 -0.1)">
       <defs>
        <path id="DejaVuSans-38" d="M 2034 2216 
Q 1584 2216 1326 1975 
Q 1069 1734 1069 1313 
Q 1069 891 1326 650 
Q 1584 409 2034 409 
Q 2484 409 2743 651 
Q 3003 894 3003 1313 
Q 3003 1734 2745 1975 
Q 2488 2216 2034 2216 
z
M 1403 2484 
Q 997 2584 770 2862 
Q 544 3141 544 3541 
Q 544 4100 942 4425 
Q 1341 4750 2034 4750 
Q 2731 4750 3128 4425 
Q 3525 4100 3525 3541 
Q 3525 3141 3298 2862 
Q 3072 2584 2669 2484 
Q 3125 2378 3379 2068 
Q 3634 1759 3634 1313 
Q 3634 634 3220 271 
Q 2806 -91 2034 -91 
Q 1263 -91 848 271 
Q 434 634 434 1313 
Q 434 1759 690 2068 
Q 947 2378 1403 2484 
z
M 1172 3481 
Q 1172 3119 1398 2916 
Q 1625 2713 2034 2713 
Q 2441 2713 2670 2916 
Q 2900 3119 2900 3481 
Q 2900 3844 2670 4047 
Q 2441 4250 2034 4250 
Q 1625 4250 1398 4047 
Q 1172 3844 1172 3481 
z
" transform="scale(0.015625)"/>
       </defs>
       <use xlink:href="#DejaVuSans-30"/>
       <use xlink:href="#DejaVuSans-2e" transform="translate(63.623047 0)"/>
       <use xlink:href="#DejaVuSans-38" transform="translate(95.410156 0)"/>
      </g>
     </g>
    </g>
    <g id="xtick_6">
     <g id="line2d_11">
      <path d="M 605.443281 282.04 
L 605.443281 26.88 
" clip-path="url(#p33d96a7717)" style="fill: none; stroke-dasharray: 0.5,0.825; stroke-dashoffset: 0; stroke: #b0b0b0; stroke-opacity: 0.6; stroke-width: 0.5"/>
     </g>
     <g id="line2d_12">
      <g>
       <use xlink:href="#m70dc3c47c1" x="605.443281" y="282.04" style="stroke: #000000; stroke-width: 0.8"/>
      </g>
     </g>
     <g id="text_6">
      <!-- 1.0 -->
      <g transform="translate(597.491718 296.638438) scale(0.1 -0.1)">
       <defs>
        <path id="DejaVuSans-31" d="M 794 531 
L 1825 531 
L 1825 4091 
L 703 3866 
L 703 4441 
L 1819 4666 
L 2450 4666 
L 2450 531 
L 3481 531 
L 3481 0 
L 794 0 
L 794 531 
z
" transform="scale(0.015625)"/>
       </defs>
       <use xlink:href="#DejaVuSans-31"/>
       <use xlink:href="#DejaVuSans-2e" transform="translate(63.623047 0)"/>
       <use xlink:href="#DejaVuSans-30" transform="translate(95.410156 0)"/>
      </g>
     </g>
    </g>
    <g id="text_7">
     <!-- Sample index -->
     <g transform="translate(311.597656 310.316563) scale(0.1 -0.1)">
      <defs>
       <path id="DejaVuSans-53" d="M 3425 4513 
L 3425 3897 
Q 3066 4069 2747 4153 
Q 2428 4238 2131 4238 
Q 1616 4238 1336 4038 
Q 1056 3838 1056 3469 
Q 1056 3159 1242 3001 
Q 1428 2844 1947 2747 
L 2328 2669 
Q 3034 2534 3370 2195 
Q 3706 1856 3706 1288 
Q 3706 609 3251 259 
Q 2797 -91 1919 -91 
Q 1588 -91 1214 -16 
Q 841 59 441 206 
L 441 856 
Q 825 641 1194 531 
Q 1563 422 1919 422 
Q 2459 422 2753 634 
Q 3047 847 3047 1241 
Q 3047 1584 2836 1778 
Q 2625 1972 2144 2069 
L 1759 2144 
Q 1053 2284 737 2584 
Q 422 2884 422 3419 
Q 422 4038 858 4394 
Q 1294 4750 2059 4750 
Q 2388 4750 2728 4690 
Q 3069 4631 3425 4513 
z
" transform="scale(0.015625)"/>
       <path id="DejaVuSans-61" d="M 2194 1759 
Q 1497 1759 1228 1600 
Q 959 1441 959 1056 
Q 959 750 1161 570 
Q 1363 391 1709 391 
Q 2188 391 2477 730 
Q 2766 1069 2766 1631 
L 2766 1759 
L 2194 1759 
z
M 3341 1997 
L 3341 0 
L 2766 0 
L 2766 531 
Q 2569 213 2275 61 
Q 1981 -91 1556 -91 
Q 1019 -91 701 211 
Q 384 513 384 1019 
Q 384 1609 779 1909 
Q 1175 2209 1959 2209 
L 2766 2209 
L 2766 2266 
Q 2766 2663 2505 2880 
Q 2244 3097 1772 3097 
Q 1472 3097 1187 3025 
Q 903 2953 641 2809 
L 641 3341 
Q 956 3463 1253 3523 
Q 1550 3584 1831 3584 
Q 2591 3584 2966 3190 
Q 3341 2797 3341 1997 
z
" transform="scale(0.015625)"/>
       <path id="DejaVuSans-6d" d="M 3328 2828 
Q 3544 3216 3844 3400 
Q 4144 3584 4550 3584 
Q 5097 3584 5394 3201 
Q 5691 2819 5691 2113 
L 5691 0 
L 5113 0 
L 5113 2094 
Q 5113 2597 4934 2840 
Q 4756 3084 4391 3084 
Q 3944 3084 3684 2787 
Q 3425 2491 3425 1978 
L 3425 0 
L 2847 0 
L 2847 2094 
Q 2847 2600 2669 2842 
Q 2491 3084 2119 3084 
Q 1678 3084 1418 2786 
Q 1159 2488 1159 1978 
L 1159 0 
L 581 0 
L 581 3500 
L 1159 3500 
L 1159 2956 
Q 1356 3278 1631 3431 
Q 1906 3584 2284 3584 
Q 2666 3584 2933 3390 
Q 3200 3197 3328 2828 
z
" transform="scale(0.015625)"/>
       <path id="DejaVuSans-70" d="M 1159 525 
L 1159 -1331 
L 581 -1331 
L 581 3500 
L 1159 3500 
L 1159 2969 
Q 1341 3281 1617 3432 
Q 1894 3584 2278 3584 
Q 2916 3584 3314 3078 
Q 3713 2572 3713 1747 
Q 3713 922 3314 415 
Q 2916 -91 2278 -91 
Q 1894 -91 1617 61 
Q 1341 213 1159 525 
z
M 3116 1747 
Q 3116 2381 2855 2742 
Q 2594 3103 2138 3103 
Q 1681 3103 1420 2742 
Q 1159 2381 1159 1747 
Q 1159 1113 1420 752 
Q 1681 391 2138 391 
Q 2594 391 2855 752 
Q 3116 1113 3116 1747 
z
" transform="scale(0.015625)"/>
       <path id="DejaVuSans-6c" d="M 603 4863 
L 1178 4863 
L 1178 0 
L 603 0 
L 603 4863 
z
" transform="scale(0.015625)"/>
       <path id="DejaVuSans-65" d="M 3597 1894 
L 3597 1613 
L 953 1613 
Q 991 1019 1311 708 
Q 1631 397 2203 397 
Q 2534 397 2845 478 
Q 3156 559 3463 722 
L 3463 178 
Q 3153 47 2828 -22 
Q 2503 -91 2169 -91 
Q 1331 -91 842 396 
Q 353 884 353 1716 
Q 353 2575 817 3079 
Q 1281 3584 2069 3584 
Q 2775 3584 3186 3129 
Q 3597 2675 3597 1894 
z
M 3022 2063 
Q 3016 2534 2758 2815 
Q 2500 3097 2075 3097 
Q 1594 3097 1305 2825 
Q 1016 2553 972 2059 
L 3022 2063 
z
" transform="scale(0.015625)"/>
       <path id="DejaVuSans-20" transform="scale(0.015625)"/>
       <path id="DejaVuSans-69" d="M 603 3500 
L 1178 3500 
L 1178 0 
L 603 0 
L 603 3500 
z
M 603 4863 
L 1178 4863 
L 1178 4134 
L 603 4134 
L 603 4863 
z
" transform="scale(0.015625)"/>
       <path id="DejaVuSans-6e" d="M 3513 2113 
L 3513 0 
L 2938 0 
L 2938 2094 
Q 2938 2591 2744 2837 
Q 2550 3084 2163 3084 
Q 1697 3084 1428 2787 
Q 1159 2491 1159 1978 
L 1159 0 
L 581 0 
L 581 3500 
L 1159 3500 
L 1159 2956 
Q 1366 3272 1645 3428 
Q 1925 3584 2291 3584 
Q 2894 3584 3203 3211 
Q 3513 2838 3513 2113 
z
" transform="scale(0.015625)"/>
       <path id="DejaVuSans-64" d="M 2906 2969 
L 2906 4863 
L 3481 4863 
L 3481 0 
L 2906 0 
L 2906 525 
Q 2725 213 2448 61 
Q 2172 -91 1784 -91 
Q 1150 -91 751 415 
Q 353 922 353 1747 
Q 353 2572 751 3078 
Q 1150 3584 1784 3584 
Q 2172 3584 2448 3432 
Q 2725 3281 2906 2969 
z
M 947 1747 
Q 947 1113 1208 752 
Q 1469 391 1925 391 
Q 2381 391 2643 752 
Q 2906 1113 2906 1747 
Q 2906 2381 2643 2742 
Q 2381 3103 1925 3103 
Q 1469 3103 1208 2742 
Q 947 2381 947 1747 
z
" transform="scale(0.015625)"/>
       <path id="DejaVuSans-78" d="M 3513 3500 
L 2247 1797 
L 3578 0 
L 2900 0 
L 1881 1375 
L 863 0 
L 184 0 
L 1544 1831 
L 300 3500 
L 978 3500 
L 1906 2253 
L 2834 3500 
L 3513 3500 
z
" transform="scale(0.015625)"/>
      </defs>
      <use xlink:href="#DejaVuSans-53"/>
      <use xlink:href="#DejaVuSans-61" transform="translate(63.476562 0)"/>
      <use xlink:href="#DejaVuSans-6d" transform="translate(124.755859 0)"/>
      <use xlink:href="#DejaVuSans-70" transform="translate(222.167969 0)"/>
      <use xlink:href="#DejaVuSans-6c" transform="translate(285.644531 0)"/>
      <use xlink:href="#DejaVuSans-65" transform="translate(313.427734 0)"/>
      <use xlink:href="#DejaVuSans-20" transform="translate(374.951172 0)"/>
      <use xlink:href="#DejaVuSans-69" transform="translate(406.738281 0)"/>
      <use xlink:href="#DejaVuSans-6e" transform="translate(434.521484 0)"/>
      <use xlink:href="#DejaVuSans-64" transform="translate(497.900391 0)"/>
      <use xlink:href="#DejaVuSans-65" transform="translate(561.376953 0)"/>
      <use xlink:href="#DejaVuSans-78" transform="translate(621.150391 0)"/>
     </g>
    </g>
    <g id="text_8">
     <!-- 1e6 -->
     <g transform="translate(618.321875 309.316563) scale(0.1 -0.1)">
      <use xlink:href="#DejaVuSans-31"/>
      <use xlink:href="#DejaVuSans-65" transform="translate(63.623047 0)"/>
      <use xlink:href="#DejaVuSans-36" transform="translate(125.146484 0)"/>
     </g>
    </g>
   </g>
   <g id="matplotlib.axis_2">
    <g id="ytick_1">
     <g id="line2d_13">
      <path d="M 54.03125 248.178777 
L 637.2 248.178777 
" clip-path="url(#p33d96a7717)" style="fill: none; stroke-dasharray: 0.5,0.825; stroke-dashoffset: 0; stroke: #b0b0b0; stroke-opacity: 0.6; stroke-width: 0.5"/>
     </g>
     <g id="line2d_14">
      <defs>
       <path id="m700370fe53" d="M 0 0 
L -3.5 0 
" style="stroke: #000000; stroke-width: 0.8"/>
      </defs>
      <g>
       <use xlink:href="#m700370fe53" x="54.03125" y="248.178777" style="stroke: #000000; stroke-width: 0.8"/>
      </g>
     </g>
     <g id="text_9">
      <!-- 0.42 -->
      <g transform="translate(24.765625 251.977995) scale(0.1 -0.1)">
       <use xlink:href="#DejaVuSans-30"/>
       <use xlink:href="#DejaVuSans-2e" transform="translate(63.623047 0)"/>
       <use xlink:href="#DejaVuSans-34" transform="translate(95.410156 0)"/>
       <use xlink:href="#DejaVuSans-32" transform="translate(159.033203 0)"/>
      </g>
     </g>
    </g>
    <g id="ytick_2">
     <g id="line2d_15">
      <path d="M 54.03125 192.46595 
L 637.2 192.46595 
" clip-path="url(#p33d96a7717)" style="fill: none; stroke-dasharray: 0.5,0.825; stroke-dashoffset: 0; stroke: #b0b0b0; stroke-opacity: 0.6; stroke-width: 0.5"/>
     </g>
     <g id="line2d_16">
      <g>
       <use xlink:href="#m700370fe53" x="54.03125" y="192.46595" style="stroke: #000000; stroke-width: 0.8"/>
      </g>
     </g>
     <g id="text_10">
      <!-- 0.43 -->
      <g transform="translate(24.765625 196.265169) scale(0.1 -0.1)">
       <defs>
        <path id="DejaVuSans-33" d="M 2597 2516 
Q 3050 2419 3304 2112 
Q 3559 1806 3559 1356 
Q 3559 666 3084 287 
Q 2609 -91 1734 -91 
Q 1441 -91 1130 -33 
Q 819 25 488 141 
L 488 750 
Q 750 597 1062 519 
Q 1375 441 1716 441 
Q 2309 441 2620 675 
Q 2931 909 2931 1356 
Q 2931 1769 2642 2001 
Q 2353 2234 1838 2234 
L 1294 2234 
L 1294 2753 
L 1863 2753 
Q 2328 2753 2575 2939 
Q 2822 3125 2822 3475 
Q 2822 3834 2567 4026 
Q 2313 4219 1838 4219 
Q 1578 4219 1281 4162 
Q 984 4106 628 3988 
L 628 4550 
Q 988 4650 1302 4700 
Q 1616 4750 1894 4750 
Q 2613 4750 3031 4423 
Q 3450 4097 3450 3541 
Q 3450 3153 3228 2886 
Q 3006 2619 2597 2516 
z
" transform="scale(0.015625)"/>
       </defs>
       <use xlink:href="#DejaVuSans-30"/>
       <use xlink:href="#DejaVuSans-2e" transform="translate(63.623047 0)"/>
       <use xlink:href="#DejaVuSans-34" transform="translate(95.410156 0)"/>
       <use xlink:href="#DejaVuSans-33" transform="translate(159.033203 0)"/>
      </g>
     </g>
    </g>
    <g id="ytick_3">
     <g id="line2d_17">
      <path d="M 54.03125 136.753124 
L 637.2 136.753124 
" clip-path="url(#p33d96a7717)" style="fill: none; stroke-dasharray: 0.5,0.825; stroke-dashoffset: 0; stroke: #b0b0b0; stroke-opacity: 0.6; stroke-width: 0.5"/>
     </g>
     <g id="line2d_18">
      <g>
       <use xlink:href="#m700370fe53" x="54.03125" y="136.753124" style="stroke: #000000; stroke-width: 0.8"/>
      </g>
     </g>
     <g id="text_11">
      <!-- 0.44 -->
      <g transform="translate(24.765625 140.552342) scale(0.1 -0.1)">
       <use xlink:href="#DejaVuSans-30"/>
       <use xlink:href="#DejaVuSans-2e" transform="translate(63.623047 0)"/>
       <use xlink:href="#DejaVuSans-34" transform="translate(95.410156 0)"/>
       <use xlink:href="#DejaVuSans-34" transform="translate(159.033203 0)"/>
      </g>
     </g>
    </g>
    <g id="ytick_4">
     <g id="line2d_19">
      <path d="M 54.03125 81.040297 
L 637.2 81.040297 
" clip-path="url(#p33d96a7717)" style="fill: none; stroke-dasharray: 0.5,0.825; stroke-dashoffset: 0; stroke: #b0b0b0; stroke-opacity: 0.6; stroke-width: 0.5"/>
     </g>
     <g id="line2d_20">
      <g>
       <use xlink:href="#m700370fe53" x="54.03125" y="81.040297" style="stroke: #000000; stroke-width: 0.8"/>
      </g>
     </g>
     <g id="text_12">
      <!-- 0.45 -->
      <g transform="translate(24.765625 84.839516) scale(0.1 -0.1)">
       <defs>
        <path id="DejaVuSans-35" d="M 691 4666 
L 3169 4666 
L 3169 4134 
L 1269 4134 
L 1269 2991 
Q 1406 3038 1543 3061 
Q 1681 3084 1819 3084 
Q 2600 3084 3056 2656 
Q 3513 2228 3513 1497 
Q 3513 744 3044 326 
Q 2575 -91 1722 -91 
Q 1428 -91 1123 -41 
Q 819 9 494 109 
L 494 744 
Q 775 591 1075 516 
Q 1375 441 1709 441 
Q 2250 441 2565 725 
Q 2881 1009 2881 1497 
Q 2881 1984 2565 2268 
Q 2250 2553 1709 2553 
Q 1456 2553 1204 2497 
Q 953 2441 691 2322 
L 691 4666 
z
" transform="scale(0.015625)"/>
       </defs>
       <use xlink:href="#DejaVuSans-30"/>
       <use xlink:href="#DejaVuSans-2e" transform="translate(63.623047 0)"/>
       <use xlink:href="#DejaVuSans-34" transform="translate(95.410156 0)"/>
       <use xlink:href="#DejaVuSans-35" transform="translate(159.033203 0)"/>
      </g>
     </g>
    </g>
    <g id="text_13">
     <!-- Running mean of reock_proxy_median -->
     <g transform="translate(18.407813 250.119375) rotate(-90) scale(0.1 -0.1)">
      <defs>
       <path id="DejaVuSans-52" d="M 2841 2188 
Q 3044 2119 3236 1894 
Q 3428 1669 3622 1275 
L 4263 0 
L 3584 0 
L 2988 1197 
Q 2756 1666 2539 1819 
Q 2322 1972 1947 1972 
L 1259 1972 
L 1259 0 
L 628 0 
L 628 4666 
L 2053 4666 
Q 2853 4666 3247 4331 
Q 3641 3997 3641 3322 
Q 3641 2881 3436 2590 
Q 3231 2300 2841 2188 
z
M 1259 4147 
L 1259 2491 
L 2053 2491 
Q 2509 2491 2742 2702 
Q 2975 2913 2975 3322 
Q 2975 3731 2742 3939 
Q 2509 4147 2053 4147 
L 1259 4147 
z
" transform="scale(0.015625)"/>
       <path id="DejaVuSans-75" d="M 544 1381 
L 544 3500 
L 1119 3500 
L 1119 1403 
Q 1119 906 1312 657 
Q 1506 409 1894 409 
Q 2359 409 2629 706 
Q 2900 1003 2900 1516 
L 2900 3500 
L 3475 3500 
L 3475 0 
L 2900 0 
L 2900 538 
Q 2691 219 2414 64 
Q 2138 -91 1772 -91 
Q 1169 -91 856 284 
Q 544 659 544 1381 
z
M 1991 3584 
L 1991 3584 
z
" transform="scale(0.015625)"/>
       <path id="DejaVuSans-67" d="M 2906 1791 
Q 2906 2416 2648 2759 
Q 2391 3103 1925 3103 
Q 1463 3103 1205 2759 
Q 947 2416 947 1791 
Q 947 1169 1205 825 
Q 1463 481 1925 481 
Q 2391 481 2648 825 
Q 2906 1169 2906 1791 
z
M 3481 434 
Q 3481 -459 3084 -895 
Q 2688 -1331 1869 -1331 
Q 1566 -1331 1297 -1286 
Q 1028 -1241 775 -1147 
L 775 -588 
Q 1028 -725 1275 -790 
Q 1522 -856 1778 -856 
Q 2344 -856 2625 -561 
Q 2906 -266 2906 331 
L 2906 616 
Q 2728 306 2450 153 
Q 2172 0 1784 0 
Q 1141 0 747 490 
Q 353 981 353 1791 
Q 353 2603 747 3093 
Q 1141 3584 1784 3584 
Q 2172 3584 2450 3431 
Q 2728 3278 2906 2969 
L 2906 3500 
L 3481 3500 
L 3481 434 
z
" transform="scale(0.015625)"/>
       <path id="DejaVuSans-6f" d="M 1959 3097 
Q 1497 3097 1228 2736 
Q 959 2375 959 1747 
Q 959 1119 1226 758 
Q 1494 397 1959 397 
Q 2419 397 2687 759 
Q 2956 1122 2956 1747 
Q 2956 2369 2687 2733 
Q 2419 3097 1959 3097 
z
M 1959 3584 
Q 2709 3584 3137 3096 
Q 3566 2609 3566 1747 
Q 3566 888 3137 398 
Q 2709 -91 1959 -91 
Q 1206 -91 779 398 
Q 353 888 353 1747 
Q 353 2609 779 3096 
Q 1206 3584 1959 3584 
z
" transform="scale(0.015625)"/>
       <path id="DejaVuSans-66" d="M 2375 4863 
L 2375 4384 
L 1825 4384 
Q 1516 4384 1395 4259 
Q 1275 4134 1275 3809 
L 1275 3500 
L 2222 3500 
L 2222 3053 
L 1275 3053 
L 1275 0 
L 697 0 
L 697 3053 
L 147 3053 
L 147 3500 
L 697 3500 
L 697 3744 
Q 697 4328 969 4595 
Q 1241 4863 1831 4863 
L 2375 4863 
z
" transform="scale(0.015625)"/>
       <path id="DejaVuSans-72" d="M 2631 2963 
Q 2534 3019 2420 3045 
Q 2306 3072 2169 3072 
Q 1681 3072 1420 2755 
Q 1159 2438 1159 1844 
L 1159 0 
L 581 0 
L 581 3500 
L 1159 3500 
L 1159 2956 
Q 1341 3275 1631 3429 
Q 1922 3584 2338 3584 
Q 2397 3584 2469 3576 
Q 2541 3569 2628 3553 
L 2631 2963 
z
" transform="scale(0.015625)"/>
       <path id="DejaVuSans-63" d="M 3122 3366 
L 3122 2828 
Q 2878 2963 2633 3030 
Q 2388 3097 2138 3097 
Q 1578 3097 1268 2742 
Q 959 2388 959 1747 
Q 959 1106 1268 751 
Q 1578 397 2138 397 
Q 2388 397 2633 464 
Q 2878 531 3122 666 
L 3122 134 
Q 2881 22 2623 -34 
Q 2366 -91 2075 -91 
Q 1284 -91 818 406 
Q 353 903 353 1747 
Q 353 2603 823 3093 
Q 1294 3584 2113 3584 
Q 2378 3584 2631 3529 
Q 2884 3475 3122 3366 
z
" transform="scale(0.015625)"/>
       <path id="DejaVuSans-6b" d="M 581 4863 
L 1159 4863 
L 1159 1991 
L 2875 3500 
L 3609 3500 
L 1753 1863 
L 3688 0 
L 2938 0 
L 1159 1709 
L 1159 0 
L 581 0 
L 581 4863 
z
" transform="scale(0.015625)"/>
       <path id="DejaVuSans-5f" d="M 3263 -1063 
L 3263 -1509 
L -63 -1509 
L -63 -1063 
L 3263 -1063 
z
" transform="scale(0.015625)"/>
       <path id="DejaVuSans-79" d="M 2059 -325 
Q 1816 -950 1584 -1140 
Q 1353 -1331 966 -1331 
L 506 -1331 
L 506 -850 
L 844 -850 
Q 1081 -850 1212 -737 
Q 1344 -625 1503 -206 
L 1606 56 
L 191 3500 
L 800 3500 
L 1894 763 
L 2988 3500 
L 3597 3500 
L 2059 -325 
z
" transform="scale(0.015625)"/>
      </defs>
      <use xlink:href="#DejaVuSans-52"/>
      <use xlink:href="#DejaVuSans-75" transform="translate(64.982422 0)"/>
      <use xlink:href="#DejaVuSans-6e" transform="translate(128.361328 0)"/>
      <use xlink:href="#DejaVuSans-6e" transform="translate(191.740234 0)"/>
      <use xlink:href="#DejaVuSans-69" transform="translate(255.119141 0)"/>
      <use xlink:href="#DejaVuSans-6e" transform="translate(282.902344 0)"/>
      <use xlink:href="#DejaVuSans-67" transform="translate(346.28125 0)"/>
      <use xlink:href="#DejaVuSans-20" transform="translate(409.757812 0)"/>
      <use xlink:href="#DejaVuSans-6d" transform="translate(441.544922 0)"/>
      <use xlink:href="#DejaVuSans-65" transform="translate(538.957031 0)"/>
      <use xlink:href="#DejaVuSans-61" transform="translate(600.480469 0)"/>
      <use xlink:href="#DejaVuSans-6e" transform="translate(661.759766 0)"/>
      <use xlink:href="#DejaVuSans-20" transform="translate(725.138672 0)"/>
      <use xlink:href="#DejaVuSans-6f" transform="translate(756.925781 0)"/>
      <use xlink:href="#DejaVuSans-66" transform="translate(818.107422 0)"/>
      <use xlink:href="#DejaVuSans-20" transform="translate(853.3125 0)"/>
      <use xlink:href="#DejaVuSans-72" transform="translate(885.099609 0)"/>
      <use xlink:href="#DejaVuSans-65" transform="translate(923.962891 0)"/>
      <use xlink:href="#DejaVuSans-6f" transform="translate(985.486328 0)"/>
      <use xlink:href="#DejaVuSans-63" transform="translate(1046.667969 0)"/>
      <use xlink:href="#DejaVuSans-6b" transform="translate(1101.648438 0)"/>
      <use xlink:href="#DejaVuSans-5f" transform="translate(1159.558594 0)"/>
      <use xlink:href="#DejaVuSans-70" transform="translate(1209.558594 0)"/>
      <use xlink:href="#DejaVuSans-72" transform="translate(1273.035156 0)"/>
      <use xlink:href="#DejaVuSans-6f" transform="translate(1311.898438 0)"/>
      <use xlink:href="#DejaVuSans-78" transform="translate(1369.955078 0)"/>
      <use xlink:href="#DejaVuSans-79" transform="translate(1429.134766 0)"/>
      <use xlink:href="#DejaVuSans-5f" transform="translate(1488.314453 0)"/>
      <use xlink:href="#DejaVuSans-6d" transform="translate(1538.314453 0)"/>
      <use xlink:href="#DejaVuSans-65" transform="translate(1635.726562 0)"/>
      <use xlink:href="#DejaVuSans-64" transform="translate(1697.25 0)"/>
      <use xlink:href="#DejaVuSans-69" transform="translate(1760.726562 0)"/>
      <use xlink:href="#DejaVuSans-61" transform="translate(1788.509766 0)"/>
      <use xlink:href="#DejaVuSans-6e" transform="translate(1849.789062 0)"/>
     </g>
    </g>
   </g>
   <g id="line2d_21">
    <path d="M 80.53892 270.441818 
L 80.653875 222.623393 
L 80.820269 168.735476 
L 80.824469 168.534801 
L 80.864361 176.915403 
L 80.881683 179.778014 
L 80.935749 165.773518 
L 81.212898 121.950959 
L 81.406063 99.363946 
L 81.422335 99.649779 
L 81.585056 88.984122 
L 81.629673 82.237596 
L 81.898949 50.067854 
L 81.97821 48.886031 
L 82.019152 49.766471 
L 82.023876 49.654347 
L 82.473195 39.085379 
L 82.488417 39.198931 
L 82.641689 40.97307 
L 82.557705 38.478182 
L 82.670559 40.634749 
L 82.842728 39.567552 
L 82.703628 41.26751 
L 82.863724 39.939703 
L 82.924613 40.699057 
L 82.973954 39.930971 
L 83.005449 39.424425 
L 83.074736 40.245827 
L 83.083659 40.481937 
L 83.740315 60.425861 
L 83.79648 59.958274 
L 83.809078 60.165952 
L 83.841097 59.572302 
L 83.892013 59.655603 
L 84.124021 55.816683 
L 84.347105 53.35528 
L 84.400121 53.705711 
L 84.401171 53.708531 
L 84.442638 53.504242 
L 84.471508 53.412302 
L 84.489355 53.68821 
L 84.606933 55.274785 
L 84.629504 55.032752 
L 84.647351 54.91942 
L 84.712439 55.686477 
L 84.720313 55.778632 
L 84.785401 54.976898 
L 84.9287 54.388909 
L 84.9308 54.431397 
L 85.125014 57.284358 
L 85.137087 56.995721 
L 85.265164 54.749128 
L 85.320279 55.285386 
L 85.348099 55.371037 
L 85.375394 55.10704 
L 85.56331 53.827044 
L 85.603728 54.14677 
L 85.825762 55.671989 
L 85.636272 53.97821 
L 85.852533 55.328579 
L 86.153303 52.109969 
L 86.406832 50.562585 
L 86.423629 50.681096 
L 86.428353 50.70945 
L 86.485568 50.382144 
L 86.487668 50.372108 
L 86.525461 50.745355 
L 86.745396 52.672266 
L 86.786863 52.120639 
L 86.804185 51.955711 
L 86.876097 52.387774 
L 87.05614 53.748436 
L 87.090783 53.479395 
L 87.212561 52.79545 
L 87.114929 53.491985 
L 87.271875 53.019233 
L 87.272925 53.026168 
L 87.312818 52.738925 
L 87.366883 52.859861 
L 87.593642 52.217933 
L 87.419899 53.026153 
L 87.594167 52.218185 
L 87.594692 52.218437 
L 87.616213 52.108928 
L 87.816202 49.868743 
L 87.85347 50.442646 
L 87.872892 50.584431 
L 87.934305 49.976155 
L 88.029838 49.25877 
L 88.089152 49.467995 
L 88.108574 49.676398 
L 88.270245 50.703853 
L 88.271294 50.702436 
L 88.274444 50.698189 
L 88.302264 50.844268 
L 88.510651 53.14912 
L 88.520624 53.131573 
L 88.534797 53.243163 
L 88.816146 57.490852 
L 88.932674 57.064526 
L 89.029782 57.017653 
L 88.995138 57.215678 
L 89.03923 57.091398 
L 89.265989 59.120707 
L 89.356798 58.71247 
L 89.366246 58.690154 
L 89.407188 58.994414 
L 89.527917 60.045868 
L 89.567809 59.832993 
L 89.890101 58.561819 
L 89.95099 58.893631 
L 89.994557 58.764805 
L 90.216592 59.916104 
L 90.258059 59.973637 
L 90.303726 59.838562 
L 90.324722 59.885303 
L 90.36304 59.714023 
L 90.651738 61.660032 
L 90.809209 62.416088 
L 90.817083 62.383368 
L 90.920489 61.401859 
L 91.021271 61.873873 
L 91.025995 61.885283 
L 91.085834 61.710559 
L 91.290022 60.482639 
L 91.351436 60.802564 
L 91.464291 62.153025 
L 91.568747 62.329329 
L 91.58082 62.241936 
L 91.917284 60.370753 
L 91.954552 60.354855 
L 91.987096 60.486029 
L 92.009142 60.445381 
L 92.120422 61.017074 
L 92.209656 60.683072 
L 92.253223 60.425858 
L 92.336158 60.584134 
L 92.410169 61.199303 
L 92.57079 62.354496 
L 92.588112 62.336799 
L 92.698867 62.233522 
L 92.664748 62.384416 
L 92.720388 62.252424 
L 92.734036 62.277783 
L 92.773404 62.08393 
L 93.003312 59.633882 
L 93.051603 59.758507 
L 93.522968 62.516234 
L 93.724006 63.72261 
L 93.752351 63.614615 
L 93.83896 63.295704 
L 93.87098 63.582073 
L 94.065194 64.945537 
L 94.086191 64.854343 
L 94.097739 64.831859 
L 94.136057 65.146238 
L 94.637866 70.460992 
L 95.00215 71.544037 
L 95.043092 71.322357 
L 95.111855 70.903349 
L 95.181142 71.236807 
L 95.30187 71.298539 
L 95.276675 71.133138 
L 95.302395 71.297925 
L 95.532304 71.060438 
L 95.363809 71.360845 
L 95.549625 71.120607 
L 96.344331 74.077415 
L 96.407845 74.523241 
L 96.474508 74.200963 
L 96.569516 73.952839 
L 96.613083 74.050729 
L 96.708091 73.957324 
L 96.751658 74.035213 
L 96.811497 74.204329 
L 96.880259 74.078817 
L 96.987865 73.280026 
L 96.891807 74.128458 
L 97.105444 73.612028 
L 97.347425 73.980377 
L 97.383643 73.86153 
L 97.615126 72.750288 
L 97.702785 72.826725 
L 97.839261 73.119403 
L 97.853433 73.14986 
L 97.924295 72.993472 
L 98.001456 72.57617 
L 98.155253 71.323735 
L 98.382537 69.073081 
L 98.66966 67.594438 
L 98.695905 67.684872 
L 98.710078 67.724358 
L 98.753645 67.546616 
L 98.89012 66.576829 
L 98.931063 66.691641 
L 99.063864 66.905465 
L 99.072787 66.886004 
L 99.098507 66.858781 
L 99.14155 67.000346 
L 99.395079 67.993781 
L 99.399803 67.967046 
L 99.403477 67.953537 
L 99.476439 68.201825 
L 99.507933 68.226816 
L 99.52683 68.101439 
L 99.587194 67.875157 
L 99.658581 67.950601 
L 99.859619 67.450461 
L 99.860669 67.451927 
L 99.888489 67.501419 
L 99.957252 67.39675 
L 99.987171 67.221596 
L 100.040187 66.959404 
L 100.13257 67.069263 
L 100.151467 67.117401 
L 100.179811 66.970083 
L 100.340957 66.605269 
L 100.376651 66.58676 
L 100.407095 66.700211 
L 100.46221 66.803564 
L 100.527823 66.72261 
L 100.835943 65.412674 
L 100.84959 65.504422 
L 101.081073 66.426612 
L 101.549813 66.864439 
L 101.604928 66.720196 
L 101.906749 65.452053 
L 101.965013 65.591987 
L 102.026427 65.625306 
L 102.053722 65.513026 
L 102.190197 65.368308 
L 102.223266 65.290833 
L 102.288354 65.428303 
L 102.352393 65.37249 
L 102.405933 65.434961 
L 102.453699 65.483811 
L 102.484144 65.356142 
L 102.720876 64.839374 
L 102.742397 64.879247 
L 103.079386 65.942657 
L 103.097758 65.874652 
L 103.261003 65.030237 
L 103.341838 65.264358 
L 103.518731 66.117011 
L 103.559149 66.051262 
L 103.561774 66.048375 
L 103.645758 66.43806 
L 103.727644 66.768106 
L 103.794306 66.66631 
L 103.83 66.583064 
L 103.884065 66.744019 
L 103.923958 66.851597 
L 104.001119 66.762566 
L 104.037337 66.706489 
L 104.081429 66.850434 
L 104.207932 66.901021 
L 104.342832 67.147065 
L 104.267246 66.870547 
L 104.38325 67.096461 
L 104.403196 67.093822 
L 104.437315 67.192675 
L 104.556993 67.316328 
L 104.489805 67.163308 
L 104.583239 67.281369 
L 104.834143 68.004348 
L 104.913929 67.782084 
L 105.131764 67.35179 
L 105.229396 67.242331 
L 105.522293 66.630308 
L 105.564286 66.711123 
L 105.659294 66.756493 
L 105.587906 66.684196 
L 105.682389 66.713434 
L 105.852459 66.178934 
L 105.922271 66.365873 
L 105.98316 66.525566 
L 106.053497 66.376047 
L 106.102313 66.253283 
L 106.175275 66.356648 
L 106.330122 66.64552 
L 106.581551 67.211609 
L 106.602548 67.198953 
L 106.677609 67.106555 
L 106.773667 66.934605 
L 106.808835 67.071932 
L 106.941111 67.35571 
L 106.960533 67.269018 
L 107.123778 66.953899 
L 107.234533 66.55651 
L 107.301721 66.450141 
L 107.359985 66.496758 
L 107.563648 67.155363 
L 107.649733 67.097678 
L 107.700649 66.89414 
L 107.768361 67.072761 
L 107.807729 66.947052 
L 107.947879 66.270921 
L 108.026615 66.471315 
L 108.241826 66.734025 
L 108.269121 66.643858 
L 108.43709 66.48375 
L 108.831819 65.592014 
L 108.923152 65.761178 
L 109.146762 66.061934 
L 109.15726 66.042801 
L 109.186129 66.008268 
L 109.220773 66.140852 
L 109.335202 66.197928 
L 109.343076 66.188974 
L 109.805517 65.879531 
L 109.81759 65.911131 
L 109.92782 66.148727 
L 109.970862 66.102013 
L 110.108387 65.984754 
L 110.239614 65.668998 
L 110.277407 65.729963 
L 110.520963 66.112531 
L 110.538284 66.084929 
L 110.56453 66.074159 
L 110.598649 66.193845 
L 110.647465 66.281894 
L 110.704154 66.157798 
L 110.768193 65.994723 
L 110.855327 66.025167 
L 110.897844 66.100487 
L 110.965557 65.976575 
L 111.267377 65.187745 
L 111.303071 65.272269 
L 111.479439 65.630063 
L 111.516707 65.575714 
L 111.580746 65.563744 
L 111.602267 65.489562 
L 112.058934 63.677777 
L 112.35393 62.752482 
L 112.544471 62.174877 
L 112.676747 62.2966 
L 112.746559 62.326966 
L 112.794326 62.310607 
L 112.956521 62.569236 
L 113.039981 62.69849 
L 113.085648 62.61743 
L 113.263066 62.328311 
L 113.289836 62.375703 
L 113.409514 62.509754 
L 113.433135 62.47352 
L 113.522894 62.341763 
L 113.554913 62.458329 
L 113.752277 63.02031 
L 113.772748 62.979492 
L 113.781672 62.97576 
L 113.822089 63.11778 
L 114.36799 65.402928 
L 114.689757 65.866923 
L 114.769543 65.656885 
L 114.794213 65.613187 
L 114.862451 65.758658 
L 114.985804 65.812131 
L 114.994727 65.805122 
L 115.217812 65.747724 
L 115.233559 65.774325 
L 116.031939 67.224842 
L 116.093353 67.42201 
L 116.160016 67.290173 
L 116.60776 67.244565 
L 116.671798 66.970186 
L 116.767856 67.095838 
L 116.951572 67.307717 
L 117.15681 67.184606 
L 117.299059 66.83177 
L 117.316906 66.892544 
L 117.441309 66.900937 
L 117.643922 66.965281 
L 117.65547 66.923025 
L 118.354643 64.524952 
L 118.376689 64.569634 
L 118.444402 64.466521 
L 118.574053 64.051549 
L 118.611846 64.104809 
L 119.185568 64.905842 
L 119.212338 64.836728 
L 119.409177 64.602925 
L 120.05586 64.144965 
L 120.092603 64.21393 
L 120.200734 64.251465 
L 120.214906 64.220708 
L 120.519876 63.583438 
L 120.573416 63.758731 
L 120.780753 64.120005 
L 120.894133 64.220612 
L 120.940849 64.160219 
L 120.99124 64.28911 
L 121.099371 64.401192 
L 121.12929 64.376675 
L 121.590682 63.651649 
L 121.606429 63.66468 
L 121.816391 63.699961 
L 122.117161 63.689117 
L 122.137633 63.692052 
L 122.177525 63.596505 
L 122.340246 63.424378 
L 122.579603 63.584172 
L 122.764894 63.963398 
L 122.780641 63.930661 
L 122.944936 63.483125 
L 123.027346 63.618143 
L 123.270377 64.071328 
L 123.348588 64.332243 
L 123.455669 64.426496 
L 123.483489 64.381403 
L 123.53073 64.355942 
L 123.572723 64.447399 
L 123.661431 64.482295 
L 123.692401 64.444106 
L 123.730194 64.429727 
L 123.776386 64.516472 
L 124.424118 65.103572 
L 124.521226 65.180624 
L 124.562693 65.137966 
L 124.784728 64.853044 
L 125.041931 64.681683 
L 125.214625 64.459154 
L 125.24087 64.495868 
L 125.420913 64.443408 
L 125.536392 64.218434 
L 125.608829 64.32959 
L 125.687564 64.404813 
L 125.748453 64.317673 
L 125.786246 64.271265 
L 125.864457 64.337046 
L 126.316925 64.84846 
L 126.351569 64.797624 
L 126.463899 64.692639 
L 126.497493 64.781539 
L 126.627144 64.938444 
L 126.659688 64.836504 
L 126.840255 64.636762 
L 127.038145 64.456251 
L 127.060191 64.514855 
L 127.247582 64.855204 
L 127.253356 64.850034 
L 127.386157 64.710778 
L 127.421325 64.793773 
L 127.452819 64.817234 
L 127.506885 64.707848 
L 127.631812 64.359205 
L 127.714222 64.48089 
L 127.924184 64.641204 
L 127.976675 64.547249 
L 127.977724 64.543889 
L 128.042813 64.516369 
L 128.096353 64.535496 
L 128.263798 64.344432 
L 128.512602 63.993111 
L 128.513652 63.993897 
L 129.152461 64.334704 
L 129.322006 64.240905 
L 129.344577 64.263784 
L 129.443784 64.204113 
L 129.447458 64.198308 
L 129.489975 64.198151 
L 129.524619 64.277371 
L 129.612803 64.363037 
L 129.660569 64.336608 
L 129.807543 64.22827 
L 129.923547 64.085911 
L 129.952417 64.106247 
L 130.211195 64.36118 
L 130.215394 64.356522 
L 130.248463 64.340985 
L 130.290455 64.438188 
L 130.334022 64.469133 
L 130.390712 64.390321 
L 130.531387 64.319382 
L 130.700406 64.170228 
L 130.939238 63.825601 
L 130.998552 63.903457 
L 131.003801 63.920306 
L 131.163372 64.100885 
L 131.173345 64.092329 
L 131.373859 63.788852 
L 131.632112 63.031599 
L 131.960703 62.554982 
L 132.225255 61.994108 
L 132.330236 61.988998 
L 132.351232 62.048295 
L 132.484033 62.079355 
L 132.624182 62.19729 
L 132.724964 62.320578 
L 132.769056 62.271255 
L 133.036758 62.122492 
L 133.141214 62.173871 
L 133.148562 62.189828 
L 133.310758 62.261704 
L 133.372697 62.15275 
L 133.585808 61.752906 
L 133.588958 61.755259 
L 133.798395 61.878574 
L 133.825165 61.852198 
L 134.456625 61.474477 
L 134.766844 60.856439 
L 134.838231 60.901144 
L 134.942162 60.719833 
L 135.116956 60.490588 
L 135.457094 60.519988 
L 135.668106 60.743865 
L 135.968351 60.750809 
L 136.145244 60.638053 
L 136.146819 60.639075 
L 136.577241 60.813506 
L 136.585115 60.801385 
L 136.821322 60.623363 
L 136.827621 60.628522 
L 136.91318 60.634268 
L 136.945724 60.587589 
L 137.052805 60.424209 
L 137.10897 60.489211 
L 137.402916 60.44606 
L 137.616553 60.209632 
L 137.676917 60.31974 
L 137.851185 60.449036 
L 137.856434 60.443484 
L 137.885304 60.421408 
L 137.941469 60.514649 
L 138.000783 60.559379 
L 138.051699 60.483915 
L 138.496293 60.114935 
L 138.609148 60.271686 
L 138.980256 60.97865 
L 139.089436 60.954735 
L 139.102558 60.932005 
L 139.240608 60.795873 
L 139.2847 60.835364 
L 139.539279 60.746432 
L 139.685203 60.719693 
L 139.761314 60.781631 
L 139.788084 60.765762 
L 139.971276 60.742455 
L 140.236878 60.474137 
L 140.246851 60.486619 
L 140.401173 60.564772 
L 140.42007 60.547747 
L 140.562844 60.562763 
L 140.830545 60.639861 
L 140.856791 60.578754 
L 140.930277 60.654721 
L 140.900358 60.645311 
L 140.932902 60.66013 
L 141.140764 60.850341 
L 141.353876 61.081743 
L 141.60373 61.265796 
L 141.612129 61.256828 
L 141.861983 61.016434 
L 141.920248 61.10037 
L 142.117612 61.150354 
L 142.120762 61.145376 
L 142.355394 60.986629 
L 142.356969 60.988633 
L 142.51339 61.016243 
L 142.51549 61.014627 
L 143.071364 60.808659 
L 143.173721 60.901822 
L 143.725921 60.962539 
L 143.859771 60.935898 
L 144.329561 60.920131 
L 144.526401 61.104776 
L 144.542148 61.07982 
L 145.214551 60.050897 
L 145.474904 59.930035 
L 145.593532 59.887294 
L 145.613479 59.9011 
L 145.74313 60.096223 
L 145.899552 60.156733 
L 146.004008 60.318749 
L 146.060698 60.343062 
L 146.116862 60.298337 
L 146.325775 60.189071 
L 146.40451 60.037431 
L 146.593476 59.775654 
L 146.747798 59.790038 
L 146.834932 59.685074 
L 147.054868 59.438772 
L 147.056442 59.441028 
L 147.109458 59.504201 
L 147.167197 59.412737 
L 147.338841 59.317083 
L 147.404454 59.338668 
L 147.431224 59.378488 
L 147.505761 59.294776 
L 147.695251 59.287347 
L 148.768682 60.095688 
L 149.003839 60.458835 
L 149.004889 60.458439 
L 149.119318 60.54437 
L 149.362874 60.724179 
L 149.479403 60.672616 
L 149.482553 60.667307 
L 149.572836 60.693176 
L 149.587009 60.712442 
L 149.780699 60.982441 
L 149.79907 60.972144 
L 150.155481 60.829127 
L 150.269385 60.668179 
L 150.320826 60.706739 
L 150.368067 60.767119 
L 150.437879 60.687493 
L 150.849405 60.32969 
L 151.040995 60.493526 
L 151.172221 60.485184 
L 151.174846 60.482754 
L 151.281402 60.478612 
L 151.299773 60.506449 
L 151.473517 60.629716 
L 151.499237 60.593634 
L 151.65041 60.55579 
L 151.659333 60.56773 
L 151.781111 60.546241 
L 152.216782 60.433442 
L 152.301817 60.253002 
L 152.362706 60.34469 
L 152.456139 60.315529 
L 152.465587 60.293162 
L 152.58684 60.236275 
L 152.603637 60.247809 
L 152.776331 60.389286 
L 152.814124 60.31734 
L 152.97317 60.176602 
L 153.398868 60.021912 
L 153.712761 60.316668 
L 153.931646 60.481897 
L 154.062873 60.497369 
L 154.208271 60.427276 
L 154.458126 60.194212 
L 154.467574 60.201535 
L 154.853904 60.226134 
L 155.054418 60.110416 
L 155.054943 60.110893 
L 155.29325 60.177245 
L 155.457545 60.224324 
L 156.299492 60.260153 
L 156.446466 60.095018 
L 156.491083 60.123313 
L 156.599213 60.055452 
L 156.932528 59.879953 
L 156.941976 59.869039 
L 156.980294 59.924741 
L 157.027011 59.93773 
L 157.544042 60.38113 
L 157.948743 60.308759 
L 158.21697 60.58928 
L 158.349771 60.577006 
L 158.359744 60.561614 
L 158.508292 60.551329 
L 158.652641 60.413008 
L 158.853155 60.339532 
L 159.103009 60.434317 
L 159.363887 60.647299 
L 159.717673 60.617442 
L 160.696096 60.613962 
L 161.096073 60.139573 
L 161.138066 60.221514 
L 161.815718 61.162115 
L 162.057174 61.200913 
L 162.198373 61.128316 
L 162.49127 60.98626 
L 162.776294 60.986721 
L 162.777868 60.982772 
L 163.036122 60.632126 
L 163.917437 60.249136 
L 164.283296 60.244988 
L 164.877488 59.962789 
L 165.222875 59.93379 
L 165.383496 59.895224 
L 165.667995 59.785371 
L 165.857485 59.7482 
L 166.092643 59.680119 
L 166.465325 59.652216 
L 166.63172 59.694015 
L 166.863728 59.716509 
L 167.145077 59.595447 
L 167.374461 59.424819 
L 167.692028 59.067264 
L 167.920886 58.982213 
L 168.09253 58.896181 
L 168.751286 58.729269 
L 169.00744 58.462824 
L 169.033685 58.483152 
L 169.387471 58.601337 
L 169.39272 58.589204 
L 169.757529 58.276983 
L 169.946494 58.317888 
L 170.170104 58.327799 
L 170.569032 58.131375 
L 170.766921 58.244604 
L 170.93804 58.332253 
L 171.650861 58.414646 
L 171.748493 58.249403 
L 171.867121 58.238059 
L 171.87447 58.247099 
L 172.081808 58.360257 
L 172.676525 58.205736 
L 172.751061 58.155964 
L 172.765759 58.131433 
L 172.792529 58.131768 
L 172.857092 58.195141 
L 173.016663 58.293638 
L 173.045008 58.268476 
L 173.22715 58.253164 
L 173.303261 58.161054 
L 173.535269 58.028122 
L 173.736308 58.013253 
L 174.737826 57.527094 
L 174.903171 57.490329 
L 175.188195 57.264533 
L 175.319421 57.164969 
L 175.559302 57.014707 
L 175.781862 57.030871 
L 176.271073 57.450364 
L 176.618036 57.509016 
L 177.010664 57.70926 
L 177.374423 57.517838 
L 178.016382 57.970193 
L 178.254164 57.889084 
L 178.576456 58.022852 
L 179.676131 57.041356 
L 180.446167 57.277905 
L 181.030386 57.349321 
L 181.300187 57.170524 
L 181.486003 57.118476 
L 181.687567 57.146794 
L 182.110115 57.58661 
L 182.241342 57.644118 
L 182.486472 57.875113 
L 182.754699 58.055991 
L 183.020825 58.17801 
L 183.248634 58.422059 
L 183.537857 58.417515 
L 183.701102 58.459329 
L 184.238605 58.491281 
L 184.412873 58.586421 
L 184.413923 58.585809 
L 184.677425 58.487641 
L 184.821249 58.58719 
L 185.435913 58.61294 
L 185.7813 58.501203 
L 185.946645 58.488549 
L 186.390715 58.561986 
L 186.393339 58.555616 
L 186.602251 58.372458 
L 186.963386 58.386969 
L 187.16285 58.492835 
L 187.485141 58.442213 
L 187.71085 58.364916 
L 187.923437 58.351572 
L 188.233656 58.083183 
L 188.762235 57.857054 
L 189.144366 57.861019 
L 189.247772 57.943682 
L 189.298688 57.904925 
L 189.484504 57.898836 
L 189.825167 57.982188 
L 190.215697 57.994081 
L 190.306505 58.001052 
L 190.339574 57.960348 
L 190.508594 57.92532 
L 191.149502 57.896871 
L 191.32797 57.925493 
L 192.077009 57.621237 
L 192.359408 57.740058 
L 192.48696 57.802003 
L 192.832872 57.910548 
L 193.105823 57.813273 
L 193.350953 57.727469 
L 193.506325 57.710881 
L 193.827042 57.691166 
L 194.041728 57.679763 
L 194.52779 57.498804 
L 195.046921 57.459076 
L 195.159251 57.505717 
L 195.625891 57.714053 
L 196.002773 57.602854 
L 196.098831 57.541556 
L 196.358658 57.502392 
L 196.947602 57.637126 
L 197.822093 57.972856 
L 198.654592 57.81982 
L 198.819413 57.926769 
L 199.044597 58.037884 
L 199.90754 58.285865 
L 200.40515 58.202298 
L 200.739515 58.40587 
L 201.021913 58.422882 
L 201.132668 58.492338 
L 201.273868 58.449869 
L 201.472807 58.481736 
L 201.67752 58.498732 
L 201.865436 58.514349 
L 203.515212 57.975804 
L 203.93671 58.216128 
L 204.326715 58.157025 
L 204.933505 58.489624 
L 205.543444 58.659127 
L 205.625329 58.740594 
L 205.820069 58.828251 
L 206.165456 58.825166 
L 206.640495 58.678041 
L 206.97171 58.681363 
L 207.133381 58.47516 
L 207.475619 58.15378 
L 207.668784 58.230256 
L 207.984252 58.322918 
L 209.117521 58.298458 
L 209.332733 58.35647 
L 209.800423 58.352149 
L 210.342125 58.324883 
L 210.664416 58.436896 
L 210.665466 58.435359 
L 210.872279 58.322781 
L 211.197195 58.262347 
L 211.459122 58.130959 
L 211.622368 58.041609 
L 211.919989 57.901693 
L 212.131 57.873613 
L 212.475863 57.779695 
L 212.582419 57.717916 
L 213.002343 57.423981 
L 213.212305 57.515862 
L 213.442213 57.497758 
L 213.752957 57.385974 
L 213.895206 57.340049 
L 214.191777 57.261588 
L 214.872579 57.623357 
L 215.066793 57.579418 
L 215.425828 57.526934 
L 215.651538 57.420821 
L 216.067787 57.33627 
L 216.560148 57.46296 
L 216.705022 57.450159 
L 217.897606 57.224312 
L 218.082372 57.244496 
L 218.258215 57.308609 
L 218.275537 57.287361 
L 218.431959 57.258597 
L 218.779971 57.12428 
L 218.944791 57.102231 
L 219.173649 57.168544 
L 219.24976 57.164963 
L 219.28283 57.116259 
L 219.428753 57.108552 
L 219.433477 57.112739 
L 219.74842 57.228521 
L 220.618712 57.60678 
L 221.009242 57.883705 
L 221.753557 57.93488 
L 222.136737 57.905501 
L 222.450106 57.873948 
L 222.719907 57.956032 
L 222.937742 58.091879 
L 223.324597 58.011977 
L 223.484693 58.00291 
L 223.755544 57.870728 
L 223.994901 57.694415 
L 224.815852 57.74135 
L 225.189584 57.668534 
L 225.464109 57.630452 
L 225.59691 57.654143 
L 225.741259 57.636884 
L 225.950171 57.692631 
L 226.284536 57.701586 
L 226.478751 57.767231 
L 226.778996 57.87025 
L 227.028326 57.839733 
L 227.455074 57.787773 
L 227.600472 57.689254 
L 227.796262 57.56708 
L 227.99835 57.524193 
L 228.894363 57.553259 
L 229.083854 57.571554 
L 230.28956 57.365894 
L 230.529966 57.430605 
L 231.501565 57.281995 
L 231.634891 57.304825 
L 231.650638 57.288331 
L 231.83488 57.272953 
L 232.579195 57.305868 
L 232.893088 57.217735 
L 233.266296 57.310445 
L 233.462085 57.36685 
L 233.717189 57.39749 
L 233.967044 57.527517 
L 234.252592 57.607251 
L 234.652045 57.733476 
L 234.886677 57.596652 
L 235.017903 57.524026 
L 235.692406 57.33805 
L 235.954334 57.362229 
L 236.935381 57.197557 
L 237.164239 57.332783 
L 238.489099 57.02138 
L 238.842885 57.01551 
L 240.260653 56.918594 
L 240.418125 56.952072 
L 240.540428 56.888599 
L 240.745665 56.863479 
L 241.167164 56.859393 
L 241.434341 56.766151 
L 241.620157 56.742578 
L 241.82592 56.72729 
L 243.017979 56.868218 
L 243.441577 56.770447 
L 243.688807 56.837311 
L 244.071988 56.911658 
L 244.245206 56.92185 
L 244.969575 57.230451 
L 245.615733 56.991041 
L 246.036707 56.890596 
L 246.742179 57.014641 
L 248.000376 56.736901 
L 248.389855 56.719379 
L 249.443864 56.656451 
L 249.588738 56.680063 
L 249.727313 56.626004 
L 249.93465 56.604498 
L 250.105244 56.654916 
L 251.187073 56.550354 
L 251.34087 56.55113 
L 251.644265 56.57432 
L 252.098833 56.657676 
L 252.682527 56.545678 
L 252.958627 56.578898 
L 253.13867 56.628071 
L 253.469885 56.683136 
L 254.371146 56.924471 
L 254.634124 56.813939 
L 255.021504 56.670184 
L 255.390512 56.62326 
L 255.667137 56.634003 
L 256.115405 56.505311 
L 256.318019 56.494423 
L 257.026115 56.621044 
L 257.704292 56.965309 
L 257.983542 57.00075 
L 258.211351 56.974735 
L 258.511071 57.037665 
L 258.92942 57.046448 
L 259.137283 56.989571 
L 260.104682 57.146902 
L 260.567124 56.861093 
L 261.125098 57.029019 
L 261.30724 57.015561 
L 262.679866 57.1889 
L 263.131809 57.152775 
L 263.394261 57.183622 
L 264.186343 57.061568 
L 264.530156 57.023537 
L 264.78106 56.909892 
L 264.985248 56.91887 
L 265.269222 56.918126 
L 265.848192 56.939864 
L 266.174158 56.900087 
L 266.348426 56.905833 
L 267.32055 56.72851 
L 267.507416 56.720789 
L 267.669612 56.709496 
L 267.962509 56.686552 
L 268.183494 56.637209 
L 268.458544 56.622322 
L 269.013368 56.335881 
L 269.292093 56.350781 
L 269.646928 56.421714 
L 269.912005 56.547926 
L 270.282588 56.653744 
L 270.596481 56.588461 
L 271.20957 56.379468 
L 271.472023 56.284558 
L 272.81053 56.051735 
L 273.078756 56.083724 
L 273.39265 56.04375 
L 274.187356 56.264847 
L 274.437735 56.276814 
L 275.165253 56.231514 
L 275.671787 56.333065 
L 276.012975 56.416104 
L 276.450221 56.517729 
L 276.682229 56.578491 
L 277.139421 56.565739 
L 277.522076 56.501323 
L 278.091073 56.581303 
L 278.372422 56.607053 
L 278.649572 56.659792 
L 279.811711 56.690417 
L 280.026922 56.643294 
L 280.308796 56.663685 
L 280.739218 56.420836 
L 281.339185 56.250636 
L 281.618434 56.235776 
L 281.806875 56.224182 
L 282.430987 56.208974 
L 282.890279 56.44595 
L 283.278708 56.455293 
L 283.483946 56.496419 
L 284.278652 56.466684 
L 284.969952 56.256966 
L 285.377803 55.999736 
L 285.803501 55.780547 
L 286.532594 55.513155 
L 286.819717 55.602641 
L 287.300529 55.877509 
L 287.520989 56.002366 
L 288.025423 56.063496 
L 288.500462 56.106361 
L 288.907263 56.14082 
L 290.489852 56.104725 
L 290.796921 56.169957 
L 291.557508 56.242452 
L 292.0168 56.404349 
L 292.81728 56.520658 
L 293.013594 56.563185 
L 293.550572 56.476521 
L 293.72694 56.477446 
L 294.123243 56.369363 
L 294.612979 56.124563 
L 294.916374 56.00619 
L 295.472774 55.984374 
L 295.754123 55.851555 
L 296.396606 55.85142 
L 296.65066 55.857284 
L 296.970327 55.664135 
L 297.1194 55.619537 
L 297.969221 55.598151 
L 298.751854 55.254657 
L 299.900871 55.241308 
L 300.123956 55.277206 
L 300.323945 55.212786 
L 300.795309 55.084776 
L 301.710218 55.036279 
L 302.684442 54.955722 
L 303.189925 55.056941 
L 303.935815 54.933155 
L 304.220838 55.014853 
L 304.935759 54.983216 
L 305.249652 54.937141 
L 305.670626 54.968559 
L 307.750824 55.160425 
L 307.984406 55.139678 
L 308.464169 55.18161 
L 308.701426 55.291342 
L 308.993274 55.33981 
L 309.238404 55.368549 
L 309.583267 55.540056 
L 309.931279 55.646073 
L 311.700733 55.690357 
L 312.061343 55.714694 
L 312.76839 55.919819 
L 313.578843 55.93773 
L 313.737889 55.941794 
L 314.485878 56.146756 
L 314.785599 56.071724 
L 316.196018 56.329894 
L 316.670008 56.332973 
L 318.086726 56.365873 
L 318.540769 56.345304 
L 319.506069 56.485257 
L 319.906046 56.316813 
L 320.501813 56.305102 
L 320.854549 56.329101 
L 323.411886 56.466634 
L 324.000829 56.343048 
L 326.735584 56.068766 
L 327.357071 55.929941 
L 327.998505 55.985164 
L 328.431551 56.135022 
L 329.967948 56.168155 
L 330.471332 56.379319 
L 334.003942 56.734783 
L 336.876746 56.288148 
L 337.072536 56.270143 
L 339.99783 56.145361 
L 340.419854 56.092183 
L 341.268625 56.029282 
L 342.143642 55.731049 
L 342.382998 55.655492 
L 342.945696 55.624426 
L 343.270612 55.488089 
L 344.760292 55.466165 
L 345.263676 55.515334 
L 345.453167 55.529431 
L 346.000118 55.614866 
L 346.962268 55.628973 
L 347.376418 55.634087 
L 347.776921 55.619599 
L 348.065619 55.565622 
L 348.761642 55.524981 
L 349.030919 55.43767 
L 349.247704 55.507697 
L 349.759487 55.437822 
L 350.316411 55.295311 
L 352.336245 55.180736 
L 353.004974 55.285484 
L 353.745089 55.324044 
L 355.439482 55.566544 
L 355.665716 55.546637 
L 358.04721 55.760468 
L 358.68182 55.947866 
L 359.356848 56.010348 
L 361.153597 56.15948 
L 361.454367 56.197005 
L 361.732567 56.218363 
L 362.195533 56.181367 
L 362.623331 56.172227 
L 363.077898 56.214069 
L 363.608052 56.270726 
L 364.511414 56.301836 
L 365.03002 56.291128 
L 365.700848 56.282911 
L 366.127596 56.183768 
L 366.400021 56.209047 
L 366.750133 56.240834 
L 366.978991 56.271797 
L 367.2089 56.265249 
L 369.024021 56.102027 
L 369.395653 56.152321 
L 373.493586 56.055286 
L 373.986996 56.164123 
L 375.105044 56.087945 
L 375.34545 56.083607 
L 375.975336 56.02897 
L 377.573147 55.953125 
L 377.77576 55.929508 
L 379.452831 55.937144 
L 379.894801 55.958833 
L 385.340689 55.555483 
L 385.851422 55.614424 
L 389.213962 55.888186 
L 389.708948 55.900797 
L 390.846941 56.03104 
L 391.525643 56.198839 
L 392.170752 56.257842 
L 394.032064 56.365231 
L 394.238352 56.410168 
L 394.52285 56.442137 
L 395.130165 56.419088 
L 395.478702 56.392265 
L 395.915423 56.443188 
L 396.243489 56.465655 
L 396.639267 56.461406 
L 398.095353 56.467787 
L 398.447039 56.517084 
L 398.818672 56.419652 
L 399.032833 56.423345 
L 399.839087 56.487885 
L 400.491544 56.399604 
L 400.856878 56.337941 
L 401.215388 56.272232 
L 404.648266 56.23302 
L 405.030921 56.159832 
L 406.27757 56.276608 
L 406.812973 56.381749 
L 409.397605 56.242616 
L 409.62069 56.201509 
L 411.147113 56.162553 
L 411.939719 56.064581 
L 413.03887 56.052777 
L 413.804181 56.08453 
L 414.164791 56.122355 
L 414.782604 56.175637 
L 417.177745 56.236769 
L 417.693727 56.218297 
L 417.986099 56.137656 
L 418.821747 56.15364 
L 419.061629 56.155832 
L 419.425388 56.227026 
L 421.558601 56.439751 
L 421.795333 56.44451 
L 422.917055 56.514257 
L 423.744305 56.38605 
L 424.13431 56.449011 
L 425.588821 56.357198 
L 425.861772 56.319797 
L 426.482209 56.398469 
L 427.435961 56.516134 
L 428.647967 56.560332 
L 429.107783 56.526938 
L 430.106677 56.566505 
L 431.353851 56.498014 
L 431.627327 56.487637 
L 433.12908 56.502333 
L 433.659234 56.474352 
L 434.2592 56.316757 
L 434.53215 56.291037 
L 435.241297 56.316558 
L 437.316246 56.609743 
L 437.891542 56.677327 
L 439.134517 56.788115 
L 439.431613 56.777179 
L 442.081333 56.659093 
L 443.636101 56.685146 
L 444.009308 56.70694 
L 444.793516 56.669576 
L 445.289551 56.735211 
L 445.591371 56.701423 
L 446.125725 56.722481 
L 447.232224 56.861142 
L 447.960267 56.836283 
L 448.526115 56.795448 
L 455.435438 56.590037 
L 455.882657 56.578181 
L 458.024794 56.722231 
L 458.306143 56.720978 
L 458.546549 56.726891 
L 459.468282 56.630166 
L 459.711838 56.694954 
L 460.144359 56.751432 
L 460.652992 56.695168 
L 464.155158 56.678243 
L 464.451729 56.626311 
L 465.812807 56.650345 
L 466.386528 56.601039 
L 468.677213 56.575449 
L 473.153602 56.323596 
L 473.767216 56.336593 
L 474.176117 56.258389 
L 474.706271 56.191322 
L 475.120421 56.156832 
L 475.544544 56.151603 
L 476.045303 56.226985 
L 478.128126 56.233552 
L 478.596341 56.174263 
L 478.989495 56.195735 
L 479.395246 56.156108 
L 479.735909 56.114738 
L 481.284904 56.076793 
L 482.564097 56.212872 
L 483.039661 56.206823 
L 487.228402 56.545868 
L 487.575889 56.522388 
L 487.986364 56.533819 
L 488.912297 56.578601 
L 489.576826 56.558447 
L 490.120628 56.488673 
L 490.783058 56.497133 
L 491.055483 56.497713 
L 492.801317 56.531929 
L 494.339288 56.463924 
L 494.727193 56.441825 
L 495.097776 56.442023 
L 495.411669 56.460379 
L 496.356498 56.454489 
L 496.599004 56.463286 
L 497.237813 56.38887 
L 497.639365 56.389669 
L 499.915878 56.254501 
L 500.40089 56.321665 
L 501.925214 56.302426 
L 502.811253 56.291442 
L 503.587587 56.330328 
L 504.606953 56.245747 
L 507.527523 56.245354 
L 507.761631 56.269751 
L 510.77406 56.27685 
L 511.04911 56.319793 
L 511.396072 56.266627 
L 511.720464 56.286404 
L 512.733005 56.226635 
L 513.013304 56.197123 
L 518.842898 56.508819 
L 519.942574 56.614289 
L 520.726782 56.600123 
L 521.270583 56.6005 
L 524.038407 56.580658 
L 524.9024 56.642044 
L 526.314919 56.593869 
L 527.013043 56.522748 
L 531.274745 56.396301 
L 531.586014 56.349274 
L 532.15816 56.3446 
L 532.411164 56.309584 
L 532.762326 56.355704 
L 533.077269 56.401725 
L 534.642535 56.410446 
L 535.291318 56.37255 
L 536.693338 56.380439 
L 538.085386 56.300375 
L 543.440991 56.319911 
L 544.170084 56.444044 
L 545.728001 56.407369 
L 546.403029 56.415445 
L 547.159417 56.468643 
L 547.765157 56.517694 
L 549.866351 56.43418 
L 556.326356 56.730368 
L 558.696826 56.607496 
L 559.131972 56.577433 
L 561.21427 56.363395 
L 561.660964 56.363205 
L 568.668444 56.660978 
L 569.155031 56.656701 
L 570.557052 56.610362 
L 573.090243 56.445866 
L 573.371067 56.37728 
L 580.234724 56.416393 
L 581.160656 56.306369 
L 581.867703 56.315843 
L 582.624091 56.187292 
L 583.093356 56.17426 
L 583.480735 56.212194 
L 584.635526 56.161269 
L 585.040753 56.165947 
L 585.706857 56.130436 
L 586.46272 56.168744 
L 587.389702 56.093798 
L 588.463133 56.042079 
L 589.156532 56.0841 
L 589.429482 56.084075 
L 590.370637 56.048978 
L 591.384228 55.962136 
L 592.887031 55.782985 
L 593.819787 55.839365 
L 594.233412 55.853664 
L 595.327314 55.908892 
L 595.827023 55.812522 
L 596.579737 55.799854 
L 597.077347 55.717178 
L 598.417429 55.692658 
L 598.707701 55.678865 
L 599.184315 55.608963 
L 600.090301 55.596057 
L 601.641395 55.601406 
L 603.366757 55.57519 
L 604.136268 55.625554 
L 610.69233 55.534513 
L 610.69233 55.534513 
" clip-path="url(#p33d96a7717)" style="fill: none; stroke: #1f2937; stroke-linecap: square"/>
   </g>
   <g id="line2d_22">
    <path d="M 54.03125 55.534513 
L 637.2 55.534513 
" clip-path="url(#p33d96a7717)" style="fill: none; stroke-dasharray: 2.96,1.28; stroke-dashoffset: 0; stroke: #888888; stroke-width: 0.8"/>
   </g>
   <g id="patch_3">
    <path d="M 54.03125 282.04 
L 54.03125 26.88 
" style="fill: none; stroke: #000000; stroke-width: 0.8; stroke-linejoin: miter; stroke-linecap: square"/>
   </g>
   <g id="patch_4">
    <path d="M 637.2 282.04 
L 637.2 26.88 
" style="fill: none; stroke: #000000; stroke-width: 0.8; stroke-linejoin: miter; stroke-linecap: square"/>
   </g>
   <g id="patch_5">
    <path d="M 54.03125 282.04 
L 637.2 282.04 
" style="fill: none; stroke: #000000; stroke-width: 0.8; stroke-linejoin: miter; stroke-linecap: square"/>
   </g>
   <g id="patch_6">
    <path d="M 54.03125 26.88 
L 637.2 26.88 
" style="fill: none; stroke: #000000; stroke-width: 0.8; stroke-linejoin: miter; stroke-linecap: square"/>
   </g>
   <g id="text_14">
    <!-- Running mean — reock_proxy_median  (100k ReCom samples, seed 42) -->
    <g transform="translate(129.460937 20.88) scale(0.12 -0.12)">
     <defs>
      <path id="DejaVuSans-2014" d="M 313 1978 
L 6088 1978 
L 6088 1528 
L 313 1528 
L 313 1978 
z
" transform="scale(0.015625)"/>
      <path id="DejaVuSans-28" d="M 1984 4856 
Q 1566 4138 1362 3434 
Q 1159 2731 1159 2009 
Q 1159 1288 1364 580 
Q 1569 -128 1984 -844 
L 1484 -844 
Q 1016 -109 783 600 
Q 550 1309 550 2009 
Q 550 2706 781 3412 
Q 1013 4119 1484 4856 
L 1984 4856 
z
" transform="scale(0.015625)"/>
      <path id="DejaVuSans-43" d="M 4122 4306 
L 4122 3641 
Q 3803 3938 3442 4084 
Q 3081 4231 2675 4231 
Q 1875 4231 1450 3742 
Q 1025 3253 1025 2328 
Q 1025 1406 1450 917 
Q 1875 428 2675 428 
Q 3081 428 3442 575 
Q 3803 722 4122 1019 
L 4122 359 
Q 3791 134 3420 21 
Q 3050 -91 2638 -91 
Q 1578 -91 968 557 
Q 359 1206 359 2328 
Q 359 3453 968 4101 
Q 1578 4750 2638 4750 
Q 3056 4750 3426 4639 
Q 3797 4528 4122 4306 
z
" transform="scale(0.015625)"/>
      <path id="DejaVuSans-73" d="M 2834 3397 
L 2834 2853 
Q 2591 2978 2328 3040 
Q 2066 3103 1784 3103 
Q 1356 3103 1142 2972 
Q 928 2841 928 2578 
Q 928 2378 1081 2264 
Q 1234 2150 1697 2047 
L 1894 2003 
Q 2506 1872 2764 1633 
Q 3022 1394 3022 966 
Q 3022 478 2636 193 
Q 2250 -91 1575 -91 
Q 1294 -91 989 -36 
Q 684 19 347 128 
L 347 722 
Q 666 556 975 473 
Q 1284 391 1588 391 
Q 1994 391 2212 530 
Q 2431 669 2431 922 
Q 2431 1156 2273 1281 
Q 2116 1406 1581 1522 
L 1381 1569 
Q 847 1681 609 1914 
Q 372 2147 372 2553 
Q 372 3047 722 3315 
Q 1072 3584 1716 3584 
Q 2034 3584 2315 3537 
Q 2597 3491 2834 3397 
z
" transform="scale(0.015625)"/>
      <path id="DejaVuSans-2c" d="M 750 794 
L 1409 794 
L 1409 256 
L 897 -744 
L 494 -744 
L 750 256 
L 750 794 
z
" transform="scale(0.015625)"/>
      <path id="DejaVuSans-29" d="M 513 4856 
L 1013 4856 
Q 1481 4119 1714 3412 
Q 1947 2706 1947 2009 
Q 1947 1309 1714 600 
Q 1481 -109 1013 -844 
L 513 -844 
Q 928 -128 1133 580 
Q 1338 1288 1338 2009 
Q 1338 2731 1133 3434 
Q 928 4138 513 4856 
z
" transform="scale(0.015625)"/>
     </defs>
     <use xlink:href="#DejaVuSans-52"/>
     <use xlink:href="#DejaVuSans-75" transform="translate(64.982422 0)"/>
     <use xlink:href="#DejaVuSans-6e" transform="translate(128.361328 0)"/>
     <use xlink:href="#DejaVuSans-6e" transform="translate(191.740234 0)"/>
     <use xlink:href="#DejaVuSans-69" transform="translate(255.119141 0)"/>
     <use xlink:href="#DejaVuSans-6e" transform="translate(282.902344 0)"/>
     <use xlink:href="#DejaVuSans-67" transform="translate(346.28125 0)"/>
     <use xlink:href="#DejaVuSans-20" transform="translate(409.757812 0)"/>
     <use xlink:href="#DejaVuSans-6d" transform="translate(441.544922 0)"/>
     <use xlink:href="#DejaVuSans-65" transform="translate(538.957031 0)"/>
     <use xlink:href="#DejaVuSans-61" transform="translate(600.480469 0)"/>
     <use xlink:href="#DejaVuSans-6e" transform="translate(661.759766 0)"/>
     <use xlink:href="#DejaVuSans-20" transform="translate(725.138672 0)"/>
     <use xlink:href="#DejaVuSans-2014" transform="translate(756.925781 0)"/>
     <use xlink:href="#DejaVuSans-20" transform="translate(856.925781 0)"/>
     <use xlink:href="#DejaVuSans-72" transform="translate(888.712891 0)"/>
     <use xlink:href="#DejaVuSans-65" transform="translate(927.576172 0)"/>
     <use xlink:href="#DejaVuSans-6f" transform="translate(989.099609 0)"/>
     <use xlink:href="#DejaVuSans-63" transform="translate(1050.28125 0)"/>
     <use xlink:href="#DejaVuSans-6b" transform="translate(1105.261719 0)"/>
     <use xlink:href="#DejaVuSans-5f" transform="translate(1163.171875 0)"/>
     <use xlink:href="#DejaVuSans-70" transform="translate(1213.171875 0)"/>
     <use xlink:href="#DejaVuSans-72" transform="translate(1276.648438 0)"/>
     <use xlink:href="#DejaVuSans-6f" transform="translate(1315.511719 0)"/>
     <use xlink:href="#DejaVuSans-78" transform="translate(1373.568359 0)"/>
     <use xlink:href="#DejaVuSans-79" transform="translate(1432.748047 0)"/>
     <use xlink:href="#DejaVuSans-5f" transform="translate(1491.927734 0)"/>
     <use xlink:href="#DejaVuSans-6d" transform="translate(1541.927734 0)"/>
     <use xlink:href="#DejaVuSans-65" transform="translate(1639.339844 0)"/>
     <use xlink:href="#DejaVuSans-64" transform="translate(1700.863281 0)"/>
     <use xlink:href="#DejaVuSans-69" transform="translate(1764.339844 0)"/>
     <use xlink:href="#DejaVuSans-61" transform="translate(1792.123047 0)"/>
     <use xlink:href="#DejaVuSans-6e" transform="translate(1853.402344 0)"/>
     <use xlink:href="#DejaVuSans-20" transform="translate(1916.78125 0)"/>
     <use xlink:href="#DejaVuSans-20" transform="translate(1948.568359 0)"/>
     <use xlink:href="#DejaVuSans-28" transform="translate(1980.355469 0)"/>
     <use xlink:href="#DejaVuSans-31" transform="translate(2019.369141 0)"/>
     <use xlink:href="#DejaVuSans-30" transform="translate(2082.992188 0)"/>
     <use xlink:href="#DejaVuSans-30" transform="translate(2146.615234 0)"/>
     <use xlink:href="#DejaVuSans-6b" transform="translate(2210.238281 0)"/>
     <use xlink:href="#DejaVuSans-20" transform="translate(2268.148438 0)"/>
     <use xlink:href="#DejaVuSans-52" transform="translate(2299.935547 0)"/>
     <use xlink:href="#DejaVuSans-65" transform="translate(2364.917969 0)"/>
     <use xlink:href="#DejaVuSans-43" transform="translate(2426.441406 0)"/>
     <use xlink:href="#DejaVuSans-6f" transform="translate(2496.265625 0)"/>
     <use xlink:href="#DejaVuSans-6d" transform="translate(2557.447266 0)"/>
     <use xlink:href="#DejaVuSans-20" transform="translate(2654.859375 0)"/>
     <use xlink:href="#DejaVuSans-73" transform="translate(2686.646484 0)"/>
     <use xlink:href="#DejaVuSans-61" transform="translate(2738.746094 0)"/>
     <use xlink:href="#DejaVuSans-6d" transform="translate(2800.025391 0)"/>
     <use xlink:href="#DejaVuSans-70" transform="translate(2897.4375 0)"/>
     <use xlink:href="#DejaVuSans-6c" transform="translate(2960.914062 0)"/>
     <use xlink:href="#DejaVuSans-65" transform="translate(2988.697266 0)"/>
     <use xlink:href="#DejaVuSans-73" transform="translate(3050.220703 0)"/>
     <use xlink:href="#DejaVuSans-2c" transform="translate(3102.320312 0)"/>
     <use xlink:href="#DejaVuSans-20" transform="translate(3134.107422 0)"/>
     <use xlink:href="#DejaVuSans-73" transform="translate(3165.894531 0)"/>
     <use xlink:href="#DejaVuSans-65" transform="translate(3217.994141 0)"/>
     <use xlink:href="#DejaVuSans-65" transform="translate(3279.517578 0)"/>
     <use xlink:href="#DejaVuSans-64" transform="translate(3341.041016 0)"/>
     <use xlink:href="#DejaVuSans-20" transform="translate(3404.517578 0)"/>
     <use xlink:href="#DejaVuSans-34" transform="translate(3436.304688 0)"/>
     <use xlink:href="#DejaVuSans-32" transform="translate(3499.927734 0)"/>
     <use xlink:href="#DejaVuSans-29" transform="translate(3563.550781 0)"/>
    </g>
   </g>
   <g id="legend_1">
    <g id="patch_7">
     <path d="M 496.306406 47.290312 
L 630.9 47.290312 
Q 632.7 47.290312 632.7 45.490312 
L 632.7 33.18 
Q 632.7 31.38 630.9 31.38 
L 496.306406 31.38 
Q 494.506406 31.38 494.506406 33.18 
L 494.506406 45.490312 
Q 494.506406 47.290312 496.306406 47.290312 
z
" style="fill: #ffffff; opacity: 0.8; stroke: #cccccc; stroke-linejoin: miter"/>
    </g>
    <g id="line2d_23">
     <path d="M 498.106406 38.668594 
L 507.106406 38.668594 
L 516.106406 38.668594 
" style="fill: none; stroke-dasharray: 2.96,1.28; stroke-dashoffset: 0; stroke: #888888; stroke-width: 0.8"/>
    </g>
    <g id="text_15">
     <!-- final mean = +0.45458 -->
     <g transform="translate(523.306406 41.818594) scale(0.09 -0.09)">
      <defs>
       <path id="DejaVuSans-3d" d="M 678 2906 
L 4684 2906 
L 4684 2381 
L 678 2381 
L 678 2906 
z
M 678 1631 
L 4684 1631 
L 4684 1100 
L 678 1100 
L 678 1631 
z
" transform="scale(0.015625)"/>
       <path id="DejaVuSans-2b" d="M 2944 4013 
L 2944 2272 
L 4684 2272 
L 4684 1741 
L 2944 1741 
L 2944 0 
L 2419 0 
L 2419 1741 
L 678 1741 
L 678 2272 
L 2419 2272 
L 2419 4013 
L 2944 4013 
z
" transform="scale(0.015625)"/>
      </defs>
      <use xlink:href="#DejaVuSans-66"/>
      <use xlink:href="#DejaVuSans-69" transform="translate(35.205078 0)"/>
      <use xlink:href="#DejaVuSans-6e" transform="translate(62.988281 0)"/>
      <use xlink:href="#DejaVuSans-61" transform="translate(126.367188 0)"/>
      <use xlink:href="#DejaVuSans-6c" transform="translate(187.646484 0)"/>
      <use xlink:href="#DejaVuSans-20" transform="translate(215.429688 0)"/>
      <use xlink:href="#DejaVuSans-6d" transform="translate(247.216797 0)"/>
      <use xlink:href="#DejaVuSans-65" transform="translate(344.628906 0)"/>
      <use xlink:href="#DejaVuSans-61" transform="translate(406.152344 0)"/>
      <use xlink:href="#DejaVuSans-6e" transform="translate(467.431641 0)"/>
      <use xlink:href="#DejaVuSans-20" transform="translate(530.810547 0)"/>
      <use xlink:href="#DejaVuSans-3d" transform="translate(562.597656 0)"/>
      <use xlink:href="#DejaVuSans-20" transform="translate(646.386719 0)"/>
      <use xlink:href="#DejaVuSans-2b" transform="translate(678.173828 0)"/>
      <use xlink:href="#DejaVuSans-30" transform="translate(761.962891 0)"/>
      <use xlink:href="#DejaVuSans-2e" transform="translate(825.585938 0)"/>
      <use xlink:href="#DejaVuSans-34" transform="translate(857.373047 0)"/>
      <use xlink:href="#DejaVuSans-35" transform="translate(920.996094 0)"/>
      <use xlink:href="#DejaVuSans-34" transform="translate(984.619141 0)"/>
      <use xlink:href="#DejaVuSans-35" transform="translate(1048.242188 0)"/>
      <use xlink:href="#DejaVuSans-38" transform="translate(1111.865234 0)"/>
     </g>
    </g>
   </g>
  </g>
 </g>
 <defs>
  <clipPath id="p33d96a7717">
   <rect x="54.03125" y="26.88" width="583.16875" height="255.16"/>
  </clipPath>
 </defs>
</svg>
