<?xml version="1.0" encoding="utf-8" standalone="no"?>
<!DOCTYPE svg PUBLIC "-//W3C//DTD SVG 1.1//EN"
  "http://www.w3.org/Graphics/SVG/1.1/DTD/svg11.dtd">
<svg xmlns:xlink="http://www.w3.org/1999/xlink" width="648pt" height="324pt" viewBox="0 0 648 324" xmlns="http://www.w3.org/2000/svg" version="1.1">
 <metadata>
  <rdf:RDF xmlns:dc="http://purl.org/dc/elements/1.1/" xmlns:cc="http://creativecommons.org/ns#" xmlns:rdf="http://www.w3.org/1999/02/22-rdf-syntax-ns#">
   <cc:Work>
    <dc:type rdf:resource="http://purl.org/dc/dcmitype/StillImage"/>
    <dc:date>2026-05-06T21:03:14.390661</dc:date>
    <dc:format>image/svg+xml</dc:format>
    <dc:creator>
     <cc:Agent>
      <dc:title>Matplotlib v3.10.8, https://matplotlib.org/</dc:title>
     </cc:Agent>
    </dc:creator>
   </cc:Work>
  </rdf:RDF>
 </metadata>
 <defs>
  <style type="text/css">*{stroke-linejoin: round; stroke-linecap: butt}</style>
 </defs>
 <g id="figure_1">
  <g id="patch_1">
   <path d="M 0 324 
L 648 324 
L 648 0 
L 0 0 
z
" style="fill: #ffffff"/>
  </g>
  <g id="axes_1">
   <g id="patch_2">
    <path d="M 68.88125 282.04 
L 637.2 282.04 
L 637.2 26.88 
L 68.88125 26.88 
z
" style="fill: #ffffff"/>
   </g>
   <g id="matplotlib.axis_1">
    <g id="xtick_1">
     <g id="line2d_1">
      <path d="M 94.708754 282.04 
L 94.708754 26.88 
" clip-path="url(#pc0637d6e2d)" style="fill: none; stroke-dasharray: 0.5,0.825; stroke-dashoffset: 0; stroke: #b0b0b0; stroke-opacity: 0.6; stroke-width: 0.5"/>
     </g>
     <g id="line2d_2">
      <defs>
       <path id="md66caa5792" d="M 0 0 
L 0 3.5 
" style="stroke: #000000; stroke-width: 0.8"/>
      </defs>
      <g>
       <use xlink:href="#md66caa5792" x="94.708754" y="282.04" style="stroke: #000000; stroke-width: 0.8"/>
      </g>
     </g>
     <g id="text_1">
      <!-- 0 -->
      <g transform="translate(91.527504 296.638438) scale(0.1 -0.1)">
       <defs>
        <path id="DejaVuSans-30" d="M 2034 4250 
Q 1547 4250 1301 3770 
Q 1056 3291 1056 2328 
Q 1056 1369 1301 889 
Q 1547 409 2034 409 
Q 2525 409 2770 889 
Q 3016 1369 3016 2328 
Q 3016 3291 2770 3770 
Q 2525 4250 2034 4250 
z
M 2034 4750 
Q 2819 4750 3233 4129 
Q 3647 3509 3647 2328 
Q 3647 1150 3233 529 
Q 2819 -91 2034 -91 
Q 1250 -91 836 529 
Q 422 1150 422 2328 
Q 422 3509 836 4129 
Q 1250 4750 2034 4750 
z
" transform="scale(0.015625)"/>
       </defs>
       <use xlink:href="#DejaVuSans-30"/>
      </g>
     </g>
    </g>
    <g id="xtick_2">
     <g id="line2d_3">
      <path d="M 198.040469 282.04 
L 198.040469 26.88 
" clip-path="url(#pc0637d6e2d)" style="fill: none; stroke-dasharray: 0.5,0.825; stroke-dashoffset: 0; stroke: #b0b0b0; stroke-opacity: 0.6; stroke-width: 0.5"/>
     </g>
     <g id="line2d_4">
      <g>
       <use xlink:href="#md66caa5792" x="198.040469" y="282.04" style="stroke: #000000; stroke-width: 0.8"/>
      </g>
     </g>
     <g id="text_2">
      <!-- 20000 -->
      <g transform="translate(182.134219 296.638438) scale(0.1 -0.1)">
       <defs>
        <path id="DejaVuSans-32" d="M 1228 531 
L 3431 531 
L 3431 0 
L 469 0 
L 469 531 
Q 828 903 1448 1529 
Q 2069 2156 2228 2338 
Q 2531 2678 2651 2914 
Q 2772 3150 2772 3378 
Q 2772 3750 2511 3984 
Q 2250 4219 1831 4219 
Q 1534 4219 1204 4116 
Q 875 4013 500 3803 
L 500 4441 
Q 881 4594 1212 4672 
Q 1544 4750 1819 4750 
Q 2544 4750 2975 4387 
Q 3406 4025 3406 3419 
Q 3406 3131 3298 2873 
Q 3191 2616 2906 2266 
Q 2828 2175 2409 1742 
Q 1991 1309 1228 531 
z
" transform="scale(0.015625)"/>
       </defs>
       <use xlink:href="#DejaVuSans-32"/>
       <use xlink:href="#DejaVuSans-30" transform="translate(63.623047 0)"/>
       <use xlink:href="#DejaVuSans-30" transform="translate(127.246094 0)"/>
       <use xlink:href="#DejaVuSans-30" transform="translate(190.869141 0)"/>
       <use xlink:href="#DejaVuSans-30" transform="translate(254.492188 0)"/>
      </g>
     </g>
    </g>
    <g id="xtick_3">
     <g id="line2d_5">
      <path d="M 301.372184 282.04 
L 301.372184 26.88 
" clip-path="url(#pc0637d6e2d)" style="fill: none; stroke-dasharray: 0.5,0.825; stroke-dashoffset: 0; stroke: #b0b0b0; stroke-opacity: 0.6; stroke-width: 0.5"/>
     </g>
     <g id="line2d_6">
      <g>
       <use xlink:href="#md66caa5792" x="301.372184" y="282.04" style="stroke: #000000; stroke-width: 0.8"/>
      </g>
     </g>
     <g id="text_3">
      <!-- 40000 -->
      <g transform="translate(285.465934 296.638438) scale(0.1 -0.1)">
       <defs>
        <path id="DejaVuSans-34" d="M 2419 4116 
L 825 1625 
L 2419 1625 
L 2419 4116 
z
M 2253 4666 
L 3047 4666 
L 3047 1625 
L 3713 1625 
L 3713 1100 
L 3047 1100 
L 3047 0 
L 2419 0 
L 2419 1100 
L 313 1100 
L 313 1709 
L 2253 4666 
z
" transform="scale(0.015625)"/>
       </defs>
       <use xlink:href="#DejaVuSans-34"/>
       <use xlink:href="#DejaVuSans-30" transform="translate(63.623047 0)"/>
       <use xlink:href="#DejaVuSans-30" transform="translate(127.246094 0)"/>
       <use xlink:href="#DejaVuSans-30" transform="translate(190.869141 0)"/>
       <use xlink:href="#DejaVuSans-30" transform="translate(254.492188 0)"/>
      </g>
     </g>
    </g>
    <g id="xtick_4">
     <g id="line2d_7">
      <path d="M 404.703899 282.04 
L 404.703899 26.88 
" clip-path="url(#pc0637d6e2d)" style="fill: none; stroke-dasharray: 0.5,0.825; stroke-dashoffset: 0; stroke: #b0b0b0; stroke-opacity: 0.6; stroke-width: 0.5"/>
     </g>
     <g id="line2d_8">
      <g>
       <use xlink:href="#md66caa5792" x="404.703899" y="282.04" style="stroke: #000000; stroke-width: 0.8"/>
      </g>
     </g>
     <g id="text_4">
      <!-- 60000 -->
      <g transform="translate(388.797649 296.638438) scale(0.1 -0.1)">
       <defs>
        <path id="DejaVuSans-36" d="M 2113 2584 
Q 1688 2584 1439 2293 
Q 1191 2003 1191 1497 
Q 1191 994 1439 701 
Q 1688 409 2113 409 
Q 2538 409 2786 701 
Q 3034 994 3034 1497 
Q 3034 2003 2786 2293 
Q 2538 2584 2113 2584 
z
M 3366 4563 
L 3366 3988 
Q 3128 4100 2886 4159 
Q 2644 4219 2406 4219 
Q 1781 4219 1451 3797 
Q 1122 3375 1075 2522 
Q 1259 2794 1537 2939 
Q 1816 3084 2150 3084 
Q 2853 3084 3261 2657 
Q 3669 2231 3669 1497 
Q 3669 778 3244 343 
Q 2819 -91 2113 -91 
Q 1303 -91 875 529 
Q 447 1150 447 2328 
Q 447 3434 972 4092 
Q 1497 4750 2381 4750 
Q 2619 4750 2861 4703 
Q 3103 4656 3366 4563 
z
" transform="scale(0.015625)"/>
       </defs>
       <use xlink:href="#DejaVuSans-36"/>
       <use xlink:href="#DejaVuSans-30" transform="translate(63.623047 0)"/>
       <use xlink:href="#DejaVuSans-30" transform="translate(127.246094 0)"/>
       <use xlink:href="#DejaVuSans-30" transform="translate(190.869141 0)"/>
       <use xlink:href="#DejaVuSans-30" transform="translate(254.492188 0)"/>
      </g>
     </g>
    </g>
    <g id="xtick_5">
     <g id="line2d_9">
      <path d="M 508.035614 282.04 
L 508.035614 26.88 
" clip-path="url(#pc0637d6e2d)" style="fill: none; stroke-dasharray: 0.5,0.825; stroke-dashoffset: 0; stroke: #b0b0b0; stroke-opacity: 0.6; stroke-width: 0.5"/>
     </g>
     <g id="line2d_10">
      <g>
       <use xlink:href="#md66caa5792" x="508.035614" y="282.04" style="stroke: #000000; stroke-width: 0.8"/>
      </g>
     </g>
     <g id="text_5">
      <!-- 80000 -->
      <g transform="translate(492.129364 296.638438) scale(0.1 -0.1)">
       <defs>
        <path id="DejaVuSans-38" d="M 2034 2216 
Q 1584 2216 1326 1975 
Q 1069 1734 1069 1313 
Q 1069 891 1326 650 
Q 1584 409 2034 409 
Q 2484 409 2743 651 
Q 3003 894 3003 1313 
Q 3003 1734 2745 1975 
Q 2488 2216 2034 2216 
z
M 1403 2484 
Q 997 2584 770 2862 
Q 544 3141 544 3541 
Q 544 4100 942 4425 
Q 1341 4750 2034 4750 
Q 2731 4750 3128 4425 
Q 3525 4100 3525 3541 
Q 3525 3141 3298 2862 
Q 3072 2584 2669 2484 
Q 3125 2378 3379 2068 
Q 3634 1759 3634 1313 
Q 3634 634 3220 271 
Q 2806 -91 2034 -91 
Q 1263 -91 848 271 
Q 434 634 434 1313 
Q 434 1759 690 2068 
Q 947 2378 1403 2484 
z
M 1172 3481 
Q 1172 3119 1398 2916 
Q 1625 2713 2034 2713 
Q 2441 2713 2670 2916 
Q 2900 3119 2900 3481 
Q 2900 3844 2670 4047 
Q 2441 4250 2034 4250 
Q 1625 4250 1398 4047 
Q 1172 3844 1172 3481 
z
" transform="scale(0.015625)"/>
       </defs>
       <use xlink:href="#DejaVuSans-38"/>
       <use xlink:href="#DejaVuSans-30" transform="translate(63.623047 0)"/>
       <use xlink:href="#DejaVuSans-30" transform="translate(127.246094 0)"/>
       <use xlink:href="#DejaVuSans-30" transform="translate(190.869141 0)"/>
       <use xlink:href="#DejaVuSans-30" transform="translate(254.492188 0)"/>
      </g>
     </g>
    </g>
    <g id="xtick_6">
     <g id="line2d_11">
      <path d="M 611.36733 282.04 
L 611.36733 26.88 
" clip-path="url(#pc0637d6e2d)" style="fill: none; stroke-dasharray: 0.5,0.825; stroke-dashoffset: 0; stroke: #b0b0b0; stroke-opacity: 0.6; stroke-width: 0.5"/>
     </g>
     <g id="line2d_12">
      <g>
       <use xlink:href="#md66caa5792" x="611.36733" y="282.04" style="stroke: #000000; stroke-width: 0.8"/>
      </g>
     </g>
     <g id="text_6">
      <!-- 100000 -->
      <g transform="translate(592.27983 296.638438) scale(0.1 -0.1)">
       <defs>
        <path id="DejaVuSans-31" d="M 794 531 
L 1825 531 
L 1825 4091 
L 703 3866 
L 703 4441 
L 1819 4666 
L 2450 4666 
L 2450 531 
L 3481 531 
L 3481 0 
L 794 0 
L 794 531 
z
" transform="scale(0.015625)"/>
       </defs>
       <use xlink:href="#DejaVuSans-31"/>
       <use xlink:href="#DejaVuSans-30" transform="translate(63.623047 0)"/>
       <use xlink:href="#DejaVuSans-30" transform="translate(127.246094 0)"/>
       <use xlink:href="#DejaVuSans-30" transform="translate(190.869141 0)"/>
       <use xlink:href="#DejaVuSans-30" transform="translate(254.492188 0)"/>
       <use xlink:href="#DejaVuSans-30" transform="translate(318.115234 0)"/>
      </g>
     </g>
    </g>
    <g id="text_7">
     <!-- Sample index -->
     <g transform="translate(319.022656 310.316563) scale(0.1 -0.1)">
      <defs>
       <path id="DejaVuSans-53" d="M 3425 4513 
L 3425 3897 
Q 3066 4069 2747 4153 
Q 2428 4238 2131 4238 
Q 1616 4238 1336 4038 
Q 1056 3838 1056 3469 
Q 1056 3159 1242 3001 
Q 1428 2844 1947 2747 
L 2328 2669 
Q 3034 2534 3370 2195 
Q 3706 1856 3706 1288 
Q 3706 609 3251 259 
Q 2797 -91 1919 -91 
Q 1588 -91 1214 -16 
Q 841 59 441 206 
L 441 856 
Q 825 641 1194 531 
Q 1563 422 1919 422 
Q 2459 422 2753 634 
Q 3047 847 3047 1241 
Q 3047 1584 2836 1778 
Q 2625 1972 2144 2069 
L 1759 2144 
Q 1053 2284 737 2584 
Q 422 2884 422 3419 
Q 422 4038 858 4394 
Q 1294 4750 2059 4750 
Q 2388 4750 2728 4690 
Q 3069 4631 3425 4513 
z
" transform="scale(0.015625)"/>
       <path id="DejaVuSans-61" d="M 2194 1759 
Q 1497 1759 1228 1600 
Q 959 1441 959 1056 
Q 959 750 1161 570 
Q 1363 391 1709 391 
Q 2188 391 2477 730 
Q 2766 1069 2766 1631 
L 2766 1759 
L 2194 1759 
z
M 3341 1997 
L 3341 0 
L 2766 0 
L 2766 531 
Q 2569 213 2275 61 
Q 1981 -91 1556 -91 
Q 1019 -91 701 211 
Q 384 513 384 1019 
Q 384 1609 779 1909 
Q 1175 2209 1959 2209 
L 2766 2209 
L 2766 2266 
Q 2766 2663 2505 2880 
Q 2244 3097 1772 3097 
Q 1472 3097 1187 3025 
Q 903 2953 641 2809 
L 641 3341 
Q 956 3463 1253 3523 
Q 1550 3584 1831 3584 
Q 2591 3584 2966 3190 
Q 3341 2797 3341 1997 
z
" transform="scale(0.015625)"/>
       <path id="DejaVuSans-6d" d="M 3328 2828 
Q 3544 3216 3844 3400 
Q 4144 3584 4550 3584 
Q 5097 3584 5394 3201 
Q 5691 2819 5691 2113 
L 5691 0 
L 5113 0 
L 5113 2094 
Q 5113 2597 4934 2840 
Q 4756 3084 4391 3084 
Q 3944 3084 3684 2787 
Q 3425 2491 3425 1978 
L 3425 0 
L 2847 0 
L 2847 2094 
Q 2847 2600 2669 2842 
Q 2491 3084 2119 3084 
Q 1678 3084 1418 2786 
Q 1159 2488 1159 1978 
L 1159 0 
L 581 0 
L 581 3500 
L 1159 3500 
L 1159 2956 
Q 1356 3278 1631 3431 
Q 1906 3584 2284 3584 
Q 2666 3584 2933 3390 
Q 3200 3197 3328 2828 
z
" transform="scale(0.015625)"/>
       <path id="DejaVuSans-70" d="M 1159 525 
L 1159 -1331 
L 581 -1331 
L 581 3500 
L 1159 3500 
L 1159 2969 
Q 1341 3281 1617 3432 
Q 1894 3584 2278 3584 
Q 2916 3584 3314 3078 
Q 3713 2572 3713 1747 
Q 3713 922 3314 415 
Q 2916 -91 2278 -91 
Q 1894 -91 1617 61 
Q 1341 213 1159 525 
z
M 3116 1747 
Q 3116 2381 2855 2742 
Q 2594 3103 2138 3103 
Q 1681 3103 1420 2742 
Q 1159 2381 1159 1747 
Q 1159 1113 1420 752 
Q 1681 391 2138 391 
Q 2594 391 2855 752 
Q 3116 1113 3116 1747 
z
" transform="scale(0.015625)"/>
       <path id="DejaVuSans-6c" d="M 603 4863 
L 1178 4863 
L 1178 0 
L 603 0 
L 603 4863 
z
" transform="scale(0.015625)"/>
       <path id="DejaVuSans-65" d="M 3597 1894 
L 3597 1613 
L 953 1613 
Q 991 1019 1311 708 
Q 1631 397 2203 397 
Q 2534 397 2845 478 
Q 3156 559 3463 722 
L 3463 178 
Q 3153 47 2828 -22 
Q 2503 -91 2169 -91 
Q 1331 -91 842 396 
Q 353 884 353 1716 
Q 353 2575 817 3079 
Q 1281 3584 2069 3584 
Q 2775 3584 3186 3129 
Q 3597 2675 3597 1894 
z
M 3022 2063 
Q 3016 2534 2758 2815 
Q 2500 3097 2075 3097 
Q 1594 3097 1305 2825 
Q 1016 2553 972 2059 
L 3022 2063 
z
" transform="scale(0.015625)"/>
       <path id="DejaVuSans-20" transform="scale(0.015625)"/>
       <path id="DejaVuSans-69" d="M 603 3500 
L 1178 3500 
L 1178 0 
L 603 0 
L 603 3500 
z
M 603 4863 
L 1178 4863 
L 1178 4134 
L 603 4134 
L 603 4863 
z
" transform="scale(0.015625)"/>
       <path id="DejaVuSans-6e" d="M 3513 2113 
L 3513 0 
L 2938 0 
L 2938 2094 
Q 2938 2591 2744 2837 
Q 2550 3084 2163 3084 
Q 1697 3084 1428 2787 
Q 1159 2491 1159 1978 
L 1159 0 
L 581 0 
L 581 3500 
L 1159 3500 
L 1159 2956 
Q 1366 3272 1645 3428 
Q 1925 3584 2291 3584 
Q 2894 3584 3203 3211 
Q 3513 2838 3513 2113 
z
" transform="scale(0.015625)"/>
       <path id="DejaVuSans-64" d="M 2906 2969 
L 2906 4863 
L 3481 4863 
L 3481 0 
L 2906 0 
L 2906 525 
Q 2725 213 2448 61 
Q 2172 -91 1784 -91 
Q 1150 -91 751 415 
Q 353 922 353 1747 
Q 353 2572 751 3078 
Q 1150 3584 1784 3584 
Q 2172 3584 2448 3432 
Q 2725 3281 2906 2969 
z
M 947 1747 
Q 947 1113 1208 752 
Q 1469 391 1925 391 
Q 2381 391 2643 752 
Q 2906 1113 2906 1747 
Q 2906 2381 2643 2742 
Q 2381 3103 1925 3103 
Q 1469 3103 1208 2742 
Q 947 2381 947 1747 
z
" transform="scale(0.015625)"/>
       <path id="DejaVuSans-78" d="M 3513 3500 
L 2247 1797 
L 3578 0 
L 2900 0 
L 1881 1375 
L 863 0 
L 184 0 
L 1544 1831 
L 300 3500 
L 978 3500 
L 1906 2253 
L 2834 3500 
L 3513 3500 
z
" transform="scale(0.015625)"/>
      </defs>
      <use xlink:href="#DejaVuSans-53"/>
      <use xlink:href="#DejaVuSans-61" transform="translate(63.476562 0)"/>
      <use xlink:href="#DejaVuSans-6d" transform="translate(124.755859 0)"/>
      <use xlink:href="#DejaVuSans-70" transform="translate(222.167969 0)"/>
      <use xlink:href="#DejaVuSans-6c" transform="translate(285.644531 0)"/>
      <use xlink:href="#DejaVuSans-65" transform="translate(313.427734 0)"/>
      <use xlink:href="#DejaVuSans-20" transform="translate(374.951172 0)"/>
      <use xlink:href="#DejaVuSans-69" transform="translate(406.738281 0)"/>
      <use xlink:href="#DejaVuSans-6e" transform="translate(434.521484 0)"/>
      <use xlink:href="#DejaVuSans-64" transform="translate(497.900391 0)"/>
      <use xlink:href="#DejaVuSans-65" transform="translate(561.376953 0)"/>
      <use xlink:href="#DejaVuSans-78" transform="translate(621.150391 0)"/>
     </g>
    </g>
   </g>
   <g id="matplotlib.axis_2">
    <g id="ytick_1">
     <g id="line2d_13">
      <path d="M 68.88125 256.139929 
L 637.2 256.139929 
" clip-path="url(#pc0637d6e2d)" style="fill: none; stroke-dasharray: 0.5,0.825; stroke-dashoffset: 0; stroke: #b0b0b0; stroke-opacity: 0.6; stroke-width: 0.5"/>
     </g>
     <g id="line2d_14">
      <defs>
       <path id="m02d25958bb" d="M 0 0 
L -3.5 0 
" style="stroke: #000000; stroke-width: 0.8"/>
      </defs>
      <g>
       <use xlink:href="#m02d25958bb" x="68.88125" y="256.139929" style="stroke: #000000; stroke-width: 0.8"/>
      </g>
     </g>
     <g id="text_8">
      <!-- −0.022 -->
      <g transform="translate(24.873438 259.939148) scale(0.1 -0.1)">
       <defs>
        <path id="DejaVuSans-2212" d="M 678 2272 
L 4684 2272 
L 4684 1741 
L 678 1741 
L 678 2272 
z
" transform="scale(0.015625)"/>
        <path id="DejaVuSans-2e" d="M 684 794 
L 1344 794 
L 1344 0 
L 684 0 
L 684 794 
z
" transform="scale(0.015625)"/>
       </defs>
       <use xlink:href="#DejaVuSans-2212"/>
       <use xlink:href="#DejaVuSans-30" transform="translate(83.789062 0)"/>
       <use xlink:href="#DejaVuSans-2e" transform="translate(147.412109 0)"/>
       <use xlink:href="#DejaVuSans-30" transform="translate(179.199219 0)"/>
       <use xlink:href="#DejaVuSans-32" transform="translate(242.822266 0)"/>
       <use xlink:href="#DejaVuSans-32" transform="translate(306.445312 0)"/>
      </g>
     </g>
    </g>
    <g id="ytick_2">
     <g id="line2d_15">
      <path d="M 68.88125 225.419338 
L 637.2 225.419338 
" clip-path="url(#pc0637d6e2d)" style="fill: none; stroke-dasharray: 0.5,0.825; stroke-dashoffset: 0; stroke: #b0b0b0; stroke-opacity: 0.6; stroke-width: 0.5"/>
     </g>
     <g id="line2d_16">
      <g>
       <use xlink:href="#m02d25958bb" x="68.88125" y="225.419338" style="stroke: #000000; stroke-width: 0.8"/>
      </g>
     </g>
     <g id="text_9">
      <!-- −0.021 -->
      <g transform="translate(24.873438 229.218556) scale(0.1 -0.1)">
       <use xlink:href="#DejaVuSans-2212"/>
       <use xlink:href="#DejaVuSans-30" transform="translate(83.789062 0)"/>
       <use xlink:href="#DejaVuSans-2e" transform="translate(147.412109 0)"/>
       <use xlink:href="#DejaVuSans-30" transform="translate(179.199219 0)"/>
       <use xlink:href="#DejaVuSans-32" transform="translate(242.822266 0)"/>
       <use xlink:href="#DejaVuSans-31" transform="translate(306.445312 0)"/>
      </g>
     </g>
    </g>
    <g id="ytick_3">
     <g id="line2d_17">
      <path d="M 68.88125 194.698746 
L 637.2 194.698746 
" clip-path="url(#pc0637d6e2d)" style="fill: none; stroke-dasharray: 0.5,0.825; stroke-dashoffset: 0; stroke: #b0b0b0; stroke-opacity: 0.6; stroke-width: 0.5"/>
     </g>
     <g id="line2d_18">
      <g>
       <use xlink:href="#m02d25958bb" x="68.88125" y="194.698746" style="stroke: #000000; stroke-width: 0.8"/>
      </g>
     </g>
     <g id="text_10">
      <!-- −0.020 -->
      <g transform="translate(24.873438 198.497965) scale(0.1 -0.1)">
       <use xlink:href="#DejaVuSans-2212"/>
       <use xlink:href="#DejaVuSans-30" transform="translate(83.789062 0)"/>
       <use xlink:href="#DejaVuSans-2e" transform="translate(147.412109 0)"/>
       <use xlink:href="#DejaVuSans-30" transform="translate(179.199219 0)"/>
       <use xlink:href="#DejaVuSans-32" transform="translate(242.822266 0)"/>
       <use xlink:href="#DejaVuSans-30" transform="translate(306.445312 0)"/>
      </g>
     </g>
    </g>
    <g id="ytick_4">
     <g id="line2d_19">
      <path d="M 68.88125 163.978155 
L 637.2 163.978155 
" clip-path="url(#pc0637d6e2d)" style="fill: none; stroke-dasharray: 0.5,0.825; stroke-dashoffset: 0; stroke: #b0b0b0; stroke-opacity: 0.6; stroke-width: 0.5"/>
     </g>
     <g id="line2d_20">
      <g>
       <use xlink:href="#m02d25958bb" x="68.88125" y="163.978155" style="stroke: #000000; stroke-width: 0.8"/>
      </g>
     </g>
     <g id="text_11">
      <!-- −0.019 -->
      <g transform="translate(24.873438 167.777374) scale(0.1 -0.1)">
       <defs>
        <path id="DejaVuSans-39" d="M 703 97 
L 703 672 
Q 941 559 1184 500 
Q 1428 441 1663 441 
Q 2288 441 2617 861 
Q 2947 1281 2994 2138 
Q 2813 1869 2534 1725 
Q 2256 1581 1919 1581 
Q 1219 1581 811 2004 
Q 403 2428 403 3163 
Q 403 3881 828 4315 
Q 1253 4750 1959 4750 
Q 2769 4750 3195 4129 
Q 3622 3509 3622 2328 
Q 3622 1225 3098 567 
Q 2575 -91 1691 -91 
Q 1453 -91 1209 -44 
Q 966 3 703 97 
z
M 1959 2075 
Q 2384 2075 2632 2365 
Q 2881 2656 2881 3163 
Q 2881 3666 2632 3958 
Q 2384 4250 1959 4250 
Q 1534 4250 1286 3958 
Q 1038 3666 1038 3163 
Q 1038 2656 1286 2365 
Q 1534 2075 1959 2075 
z
" transform="scale(0.015625)"/>
       </defs>
       <use xlink:href="#DejaVuSans-2212"/>
       <use xlink:href="#DejaVuSans-30" transform="translate(83.789062 0)"/>
       <use xlink:href="#DejaVuSans-2e" transform="translate(147.412109 0)"/>
       <use xlink:href="#DejaVuSans-30" transform="translate(179.199219 0)"/>
       <use xlink:href="#DejaVuSans-31" transform="translate(242.822266 0)"/>
       <use xlink:href="#DejaVuSans-39" transform="translate(306.445312 0)"/>
      </g>
     </g>
    </g>
    <g id="ytick_5">
     <g id="line2d_21">
      <path d="M 68.88125 133.257564 
L 637.2 133.257564 
" clip-path="url(#pc0637d6e2d)" style="fill: none; stroke-dasharray: 0.5,0.825; stroke-dashoffset: 0; stroke: #b0b0b0; stroke-opacity: 0.6; stroke-width: 0.5"/>
     </g>
     <g id="line2d_22">
      <g>
       <use xlink:href="#m02d25958bb" x="68.88125" y="133.257564" style="stroke: #000000; stroke-width: 0.8"/>
      </g>
     </g>
     <g id="text_12">
      <!-- −0.018 -->
      <g transform="translate(24.873438 137.056782) scale(0.1 -0.1)">
       <use xlink:href="#DejaVuSans-2212"/>
       <use xlink:href="#DejaVuSans-30" transform="translate(83.789062 0)"/>
       <use xlink:href="#DejaVuSans-2e" transform="translate(147.412109 0)"/>
       <use xlink:href="#DejaVuSans-30" transform="translate(179.199219 0)"/>
       <use xlink:href="#DejaVuSans-31" transform="translate(242.822266 0)"/>
       <use xlink:href="#DejaVuSans-38" transform="translate(306.445312 0)"/>
      </g>
     </g>
    </g>
    <g id="ytick_6">
     <g id="line2d_23">
      <path d="M 68.88125 102.536972 
L 637.2 102.536972 
" clip-path="url(#pc0637d6e2d)" style="fill: none; stroke-dasharray: 0.5,0.825; stroke-dashoffset: 0; stroke: #b0b0b0; stroke-opacity: 0.6; stroke-width: 0.5"/>
     </g>
     <g id="line2d_24">
      <g>
       <use xlink:href="#m02d25958bb" x="68.88125" y="102.536972" style="stroke: #000000; stroke-width: 0.8"/>
      </g>
     </g>
     <g id="text_13">
      <!-- −0.017 -->
      <g transform="translate(24.873438 106.336191) scale(0.1 -0.1)">
       <defs>
        <path id="DejaVuSans-37" d="M 525 4666 
L 3525 4666 
L 3525 4397 
L 1831 0 
L 1172 0 
L 2766 4134 
L 525 4134 
L 525 4666 
z
" transform="scale(0.015625)"/>
       </defs>
       <use xlink:href="#DejaVuSans-2212"/>
       <use xlink:href="#DejaVuSans-30" transform="translate(83.789062 0)"/>
       <use xlink:href="#DejaVuSans-2e" transform="translate(147.412109 0)"/>
       <use xlink:href="#DejaVuSans-30" transform="translate(179.199219 0)"/>
       <use xlink:href="#DejaVuSans-31" transform="translate(242.822266 0)"/>
       <use xlink:href="#DejaVuSans-37" transform="translate(306.445312 0)"/>
      </g>
     </g>
    </g>
    <g id="ytick_7">
     <g id="line2d_25">
      <path d="M 68.88125 71.816381 
L 637.2 71.816381 
" clip-path="url(#pc0637d6e2d)" style="fill: none; stroke-dasharray: 0.5,0.825; stroke-dashoffset: 0; stroke: #b0b0b0; stroke-opacity: 0.6; stroke-width: 0.5"/>
     </g>
     <g id="line2d_26">
      <g>
       <use xlink:href="#m02d25958bb" x="68.88125" y="71.816381" style="stroke: #000000; stroke-width: 0.8"/>
      </g>
     </g>
     <g id="text_14">
      <!-- −0.016 -->
      <g transform="translate(24.873438 75.6156) scale(0.1 -0.1)">
       <use xlink:href="#DejaVuSans-2212"/>
       <use xlink:href="#DejaVuSans-30" transform="translate(83.789062 0)"/>
       <use xlink:href="#DejaVuSans-2e" transform="translate(147.412109 0)"/>
       <use xlink:href="#DejaVuSans-30" transform="translate(179.199219 0)"/>
       <use xlink:href="#DejaVuSans-31" transform="translate(242.822266 0)"/>
       <use xlink:href="#DejaVuSans-36" transform="translate(306.445312 0)"/>
      </g>
     </g>
    </g>
    <g id="ytick_8">
     <g id="line2d_27">
      <path d="M 68.88125 41.095789 
L 637.2 41.095789 
" clip-path="url(#pc0637d6e2d)" style="fill: none; stroke-dasharray: 0.5,0.825; stroke-dashoffset: 0; stroke: #b0b0b0; stroke-opacity: 0.6; stroke-width: 0.5"/>
     </g>
     <g id="line2d_28">
      <g>
       <use xlink:href="#m02d25958bb" x="68.88125" y="41.095789" style="stroke: #000000; stroke-width: 0.8"/>
      </g>
     </g>
     <g id="text_15">
      <!-- −0.015 -->
      <g transform="translate(24.873438 44.895008) scale(0.1 -0.1)">
       <defs>
        <path id="DejaVuSans-35" d="M 691 4666 
L 3169 4666 
L 3169 4134 
L 1269 4134 
L 1269 2991 
Q 1406 3038 1543 3061 
Q 1681 3084 1819 3084 
Q 2600 3084 3056 2656 
Q 3513 2228 3513 1497 
Q 3513 744 3044 326 
Q 2575 -91 1722 -91 
Q 1428 -91 1123 -41 
Q 819 9 494 109 
L 494 744 
Q 775 591 1075 516 
Q 1375 441 1709 441 
Q 2250 441 2565 725 
Q 2881 1009 2881 1497 
Q 2881 1984 2565 2268 
Q 2250 2553 1709 2553 
Q 1456 2553 1204 2497 
Q 953 2441 691 2322 
L 691 4666 
z
" transform="scale(0.015625)"/>
       </defs>
       <use xlink:href="#DejaVuSans-2212"/>
       <use xlink:href="#DejaVuSans-30" transform="translate(83.789062 0)"/>
       <use xlink:href="#DejaVuSans-2e" transform="translate(147.412109 0)"/>
       <use xlink:href="#DejaVuSans-30" transform="translate(179.199219 0)"/>
       <use xlink:href="#DejaVuSans-31" transform="translate(242.822266 0)"/>
       <use xlink:href="#DejaVuSans-35" transform="translate(306.445312 0)"/>
      </g>
     </g>
    </g>
    <g id="text_16">
     <!-- Running mean of mean_median -->
     <g transform="translate(18.515625 234.136562) rotate(-90) scale(0.1 -0.1)">
      <defs>
       <path id="DejaVuSans-52" d="M 2841 2188 
Q 3044 2119 3236 1894 
Q 3428 1669 3622 1275 
L 4263 0 
L 3584 0 
L 2988 1197 
Q 2756 1666 2539 1819 
Q 2322 1972 1947 1972 
L 1259 1972 
L 1259 0 
L 628 0 
L 628 4666 
L 2053 4666 
Q 2853 4666 3247 4331 
Q 3641 3997 3641 3322 
Q 3641 2881 3436 2590 
Q 3231 2300 2841 2188 
z
M 1259 4147 
L 1259 2491 
L 2053 2491 
Q 2509 2491 2742 2702 
Q 2975 2913 2975 3322 
Q 2975 3731 2742 3939 
Q 2509 4147 2053 4147 
L 1259 4147 
z
" transform="scale(0.015625)"/>
       <path id="DejaVuSans-75" d="M 544 1381 
L 544 3500 
L 1119 3500 
L 1119 1403 
Q 1119 906 1312 657 
Q 1506 409 1894 409 
Q 2359 409 2629 706 
Q 2900 1003 2900 1516 
L 2900 3500 
L 3475 3500 
L 3475 0 
L 2900 0 
L 2900 538 
Q 2691 219 2414 64 
Q 2138 -91 1772 -91 
Q 1169 -91 856 284 
Q 544 659 544 1381 
z
M 1991 3584 
L 1991 3584 
z
" transform="scale(0.015625)"/>
       <path id="DejaVuSans-67" d="M 2906 1791 
Q 2906 2416 2648 2759 
Q 2391 3103 1925 3103 
Q 1463 3103 1205 2759 
Q 947 2416 947 1791 
Q 947 1169 1205 825 
Q 1463 481 1925 481 
Q 2391 481 2648 825 
Q 2906 1169 2906 1791 
z
M 3481 434 
Q 3481 -459 3084 -895 
Q 2688 -1331 1869 -1331 
Q 1566 -1331 1297 -1286 
Q 1028 -1241 775 -1147 
L 775 -588 
Q 1028 -725 1275 -790 
Q 1522 -856 1778 -856 
Q 2344 -856 2625 -561 
Q 2906 -266 2906 331 
L 2906 616 
Q 2728 306 2450 153 
Q 2172 0 1784 0 
Q 1141 0 747 490 
Q 353 981 353 1791 
Q 353 2603 747 3093 
Q 1141 3584 1784 3584 
Q 2172 3584 2450 3431 
Q 2728 3278 2906 2969 
L 2906 3500 
L 3481 3500 
L 3481 434 
z
" transform="scale(0.015625)"/>
       <path id="DejaVuSans-6f" d="M 1959 3097 
Q 1497 3097 1228 2736 
Q 959 2375 959 1747 
Q 959 1119 1226 758 
Q 1494 397 1959 397 
Q 2419 397 2687 759 
Q 2956 1122 2956 1747 
Q 2956 2369 2687 2733 
Q 2419 3097 1959 3097 
z
M 1959 3584 
Q 2709 3584 3137 3096 
Q 3566 2609 3566 1747 
Q 3566 888 3137 398 
Q 2709 -91 1959 -91 
Q 1206 -91 779 398 
Q 353 888 353 1747 
Q 353 2609 779 3096 
Q 1206 3584 1959 3584 
z
" transform="scale(0.015625)"/>
       <path id="DejaVuSans-66" d="M 2375 4863 
L 2375 4384 
L 1825 4384 
Q 1516 4384 1395 4259 
Q 1275 4134 1275 3809 
L 1275 3500 
L 2222 3500 
L 2222 3053 
L 1275 3053 
L 1275 0 
L 697 0 
L 697 3053 
L 147 3053 
L 147 3500 
L 697 3500 
L 697 3744 
Q 697 4328 969 4595 
Q 1241 4863 1831 4863 
L 2375 4863 
z
" transform="scale(0.015625)"/>
       <path id="DejaVuSans-5f" d="M 3263 -1063 
L 3263 -1509 
L -63 -1509 
L -63 -1063 
L 3263 -1063 
z
" transform="scale(0.015625)"/>
      </defs>
      <use xlink:href="#DejaVuSans-52"/>
      <use xlink:href="#DejaVuSans-75" transform="translate(64.982422 0)"/>
      <use xlink:href="#DejaVuSans-6e" transform="translate(128.361328 0)"/>
      <use xlink:href="#DejaVuSans-6e" transform="translate(191.740234 0)"/>
      <use xlink:href="#DejaVuSans-69" transform="translate(255.119141 0)"/>
      <use xlink:href="#DejaVuSans-6e" transform="translate(282.902344 0)"/>
      <use xlink:href="#DejaVuSans-67" transform="translate(346.28125 0)"/>
      <use xlink:href="#DejaVuSans-20" transform="translate(409.757812 0)"/>
      <use xlink:href="#DejaVuSans-6d" transform="translate(441.544922 0)"/>
      <use xlink:href="#DejaVuSans-65" transform="translate(538.957031 0)"/>
      <use xlink:href="#DejaVuSans-61" transform="translate(600.480469 0)"/>
      <use xlink:href="#DejaVuSans-6e" transform="translate(661.759766 0)"/>
      <use xlink:href="#DejaVuSans-20" transform="translate(725.138672 0)"/>
      <use xlink:href="#DejaVuSans-6f" transform="translate(756.925781 0)"/>
      <use xlink:href="#DejaVuSans-66" transform="translate(818.107422 0)"/>
      <use xlink:href="#DejaVuSans-20" transform="translate(853.3125 0)"/>
      <use xlink:href="#DejaVuSans-6d" transform="translate(885.099609 0)"/>
      <use xlink:href="#DejaVuSans-65" transform="translate(982.511719 0)"/>
      <use xlink:href="#DejaVuSans-61" transform="translate(1044.035156 0)"/>
      <use xlink:href="#DejaVuSans-6e" transform="translate(1105.314453 0)"/>
      <use xlink:href="#DejaVuSans-5f" transform="translate(1168.693359 0)"/>
      <use xlink:href="#DejaVuSans-6d" transform="translate(1218.693359 0)"/>
      <use xlink:href="#DejaVuSans-65" transform="translate(1316.105469 0)"/>
      <use xlink:href="#DejaVuSans-64" transform="translate(1377.628906 0)"/>
      <use xlink:href="#DejaVuSans-69" transform="translate(1441.105469 0)"/>
      <use xlink:href="#DejaVuSans-61" transform="translate(1468.888672 0)"/>
      <use xlink:href="#DejaVuSans-6e" transform="translate(1530.167969 0)"/>
     </g>
    </g>
   </g>
   <g id="line2d_29">
    <path d="M 94.71392 39.889629 
L 94.719087 39.922804 
L 94.724254 39.692261 
L 94.739753 38.478182 
L 94.791419 44.955377 
L 94.843085 68.677103 
L 95.018749 107.700929 
L 95.096248 129.660459 
L 95.225412 168.492016 
L 95.287411 157.227362 
L 95.416576 145.34713 
L 95.437242 149.470986 
L 95.525074 147.93296 
L 95.62324 164.603402 
L 95.736904 175.152662 
L 95.793737 173.805218 
L 96.098565 197.993541 
L 96.25873 204.244123 
L 96.367228 205.075136 
L 96.387894 204.505652 
L 96.465393 202.600888 
L 96.491226 204.713124 
L 96.780555 238.252598 
L 96.837387 236.735437 
L 97.038884 233.845199 
L 97.049217 233.957153 
L 97.193882 236.259457 
L 97.204215 234.768149 
L 97.627875 189.987919 
L 98.098034 167.905901 
L 98.1342 169.285458 
L 98.563027 182.095559 
L 98.76969 186.088625 
L 98.78519 184.665326 
L 99.389681 139.835099 
L 100.572829 82.512895 
L 100.608995 84.476291 
L 101.084321 104.175446 
L 102.143471 139.173009 
L 102.391467 153.333808 
L 102.494799 152.909615 
L 102.639463 152.497116 
L 102.654963 152.693131 
L 103.026957 157.794719 
L 103.109622 157.040992 
L 103.166455 156.572282 
L 103.202621 157.103825 
L 103.67278 163.044461 
L 103.693446 162.916854 
L 103.765779 162.514019 
L 103.807111 162.907745 
L 104.049941 164.891813 
L 104.12744 164.787761 
L 104.189439 164.753656 
L 104.204938 164.860104 
L 104.912761 170.347073 
L 105.589583 180.432305 
L 105.703248 181.679183 
L 105.884079 183.229126 
L 106.312905 185.862245 
L 106.47307 188.548698 
L 106.860564 197.219856 
L 106.974228 198.564485 
L 107.428888 206.038055 
L 108.13671 216.352904 
L 108.777367 229.963136 
L 109.164861 232.71952 
L 109.45419 236.336618 
L 109.604021 236.12487 
L 109.939849 235.258617 
L 110.198178 233.458488 
L 110.229177 233.628921 
L 110.828501 237.776694 
L 111.257328 241.842665 
L 111.283161 241.913114 
L 111.32966 241.780769 
L 111.670655 236.974841 
L 112.130481 228.933437 
L 112.22348 229.342535 
L 112.900302 238.495232 
L 113.401461 243.612763 
L 113.623624 244.647944 
L 113.788955 245.621489 
L 114.047284 246.806956 
L 114.08345 246.33949 
L 114.269448 244.169209 
L 114.362446 244.314206 
L 114.486444 244.386325 
L 114.496777 244.286231 
L 114.512277 244.242519 
L 114.610442 244.257092 
L 114.672441 244.376444 
L 115.245932 250.246965 
L 115.80909 258.623817 
L 116.186251 263.618005 
L 116.821741 269.026338 
L 116.842407 268.916176 
L 117.353899 263.651699 
L 117.457231 263.878436 
L 117.741393 264.401343 
L 117.782726 264.361204 
L 117.979056 263.984846 
L 118.392383 262.025404 
L 118.996874 257.748768 
L 119.549698 254.055783 
L 119.875193 251.036774 
L 119.921692 250.794834 
L 119.983691 251.015684 
L 120.71218 253.499042 
L 120.815512 253.651186 
L 121.208172 255.921199 
L 121.507834 258.495272 
L 121.905661 263.832466 
L 122.401654 269.939895 
L 122.448153 269.81052 
L 122.479152 269.721517 
L 122.541151 269.867162 
L 122.706482 270.256664 
L 122.799481 270.201842 
L 122.856313 270.315022 
L 122.928645 270.441818 
L 122.959645 270.300453 
L 123.589968 267.23161 
L 123.719133 267.291537 
L 123.848298 267.325907 
L 124.075627 266.249431 
L 124.163459 266.196563 
L 124.199625 266.30695 
L 124.29779 266.601797 
L 124.323623 266.379339 
L 124.530287 264.63331 
L 124.602619 264.894483 
L 124.75245 265.458715 
L 124.778283 265.159428 
L 124.891948 264.08346 
L 124.969447 264.206874 
L 125.098611 264.021416 
L 125.16061 264.089891 
L 125.37244 264.178435 
L 125.646269 264.018826 
L 125.806434 262.631875 
L 127.118746 251.291919 
L 127.831735 245.371972 
L 128.493058 239.066818 
L 129.00455 235.977945 
L 129.423044 233.629968 
L 129.479876 233.867486 
L 129.64004 234.656508 
L 129.753705 234.588178 
L 129.820871 234.449732 
L 130.332363 232.329029 
L 131.288181 227.127057 
L 131.742841 224.917243 
L 132.610827 222.211716 
L 132.729658 221.96804 
L 133.494313 217.189536 
L 133.514979 217.349388 
L 133.752642 218.324603 
L 133.819808 218.24401 
L 133.985139 217.857208 
L 134.512131 215.895564 
L 134.729127 215.219196 
L 134.765293 215.239045 
L 134.827292 215.272835 
L 134.837625 215.180177 
L 135.860609 206.996318 
L 136.304936 204.381695 
L 136.795761 201.745463 
L 136.816428 201.800157 
L 137.002425 202.348588 
L 137.079924 202.203228 
L 137.379586 201.252586 
L 137.906577 198.451249 
L 138.149407 197.839653 
L 138.19074 197.874325 
L 138.345737 197.873857 
L 138.423236 197.745807 
L 138.898562 196.942912 
L 139.146558 196.136585 
L 139.358388 195.622853 
L 139.616717 195.167468 
L 140.061044 192.79765 
L 140.96003 190.52349 
L 141.357857 190.632318 
L 141.853849 191.036346 
L 142.112178 190.613838 
L 142.272342 190.364301 
L 142.334341 190.485371 
L 142.365341 190.541103 
L 142.41184 190.410153 
L 142.680503 189.957764 
L 143.166162 190.635839 
L 143.305659 190.786561 
L 144.178812 191.957644 
L 144.33381 192.186615 
L 144.354476 192.176055 
L 144.504307 192.226561 
L 144.638639 192.144302 
L 144.896968 191.763388 
L 145.217296 191.423647 
L 145.305128 191.247464 
L 145.516958 190.777341 
L 145.646123 190.819581 
L 145.961285 191.303631 
L 146.018117 191.117975 
L 146.121449 190.551191 
L 146.193781 190.617216 
L 146.529609 190.623982 
L 146.669107 190.672868 
L 146.689773 190.617641 
L 147.283931 188.92538 
L 147.407929 189.008403 
L 147.500927 189.194626 
L 147.764423 189.610566 
L 148.089918 189.830288 
L 148.110584 189.848779 
L 148.167417 189.756743 
L 148.17775 189.741869 
L 148.213916 189.874556 
L 148.441246 189.939085 
L 148.596243 189.944336 
L 149.04057 189.933484 
L 149.314399 189.742153 
L 149.624394 189.486099 
L 149.913723 188.73957 
L 150.234051 188.252646 
L 150.430381 186.802801 
L 150.983206 183.104718 
L 152.264519 177.421206 
L 152.331685 176.976049 
L 152.409184 177.185998 
L 152.765678 178.268644 
L 152.796678 178.065967 
L 153.199671 175.219768 
L 153.287503 175.5754 
L 153.664664 176.697537 
L 153.669831 176.689436 
L 153.752496 176.539029 
L 153.788662 176.689404 
L 153.94366 177.334567 
L 154.000492 177.122221 
L 154.289821 176.47298 
L 154.780646 175.905921 
L 154.79098 175.928708 
L 154.940811 176.20875 
L 154.976977 176.071261 
L 155.436803 173.887255 
L 156.165291 169.776281 
L 156.609618 168.064471 
L 156.702616 168.111007 
L 157.245108 168.302631 
L 157.250274 168.269531 
L 158.37659 161.723543 
L 159.771568 168.413054 
L 159.818068 168.295208 
L 159.916233 168.044135 
L 160.009231 168.102851 
L 160.143562 168.256285 
L 160.195228 168.086716 
L 160.29856 167.412407 
L 160.748053 163.397482 
L 160.861718 163.136304 
L 160.923717 163.276466 
L 161.109714 163.312668 
L 161.290545 163.250469 
L 161.55404 163.147007 
L 161.724538 163.34401 
L 162.515025 165.112064 
L 162.582191 165.051105 
L 162.778521 164.493922 
L 162.974851 163.857156 
L 163.042017 164.009014 
L 163.532843 165.393753 
L 163.538009 165.409219 
L 163.625841 165.325928 
L 163.848004 165.095617 
L 163.894504 165.232326 
L 165.971471 171.288001 
L 166.038637 171.135951 
L 166.663794 169.570377 
L 166.989289 169.419034 
L 167.118453 169.495166 
L 167.180452 169.583195 
L 167.257951 169.504604 
L 167.505947 169.197708 
L 168.420433 168.805955 
L 168.57543 168.619194 
L 168.616763 168.757916 
L 169.288419 172.636549 
L 170.192572 179.022682 
L 170.75573 182.04215 
L 170.915894 182.302341 
L 170.931394 182.298111 
L 170.983059 182.335512 
L 170.998559 182.388881 
L 171.623716 183.10844 
L 171.78388 182.785377 
L 171.794213 182.87785 
L 171.98021 183.56934 
L 172.254039 184.906937 
L 172.770698 187.106013 
L 172.781031 187.090079 
L 172.930862 186.660299 
L 173.060027 186.325844 
L 173.10136 186.456474 
L 173.364855 187.087752 
L 173.390688 187.009563 
L 173.819515 185.358573 
L 174.320674 183.44516 
L 174.496338 183.232403 
L 174.527337 183.325173 
L 175.069829 185.292814 
L 175.514155 186.775076 
L 175.911982 187.507912 
L 176.211644 187.601907 
L 176.314976 187.523061 
L 176.568139 187.296457 
L 176.573305 187.312669 
L 176.759302 187.539345 
L 177.058964 187.549283 
L 177.064131 187.533567 
L 177.317294 187.117755 
L 177.601456 186.699477 
L 177.756453 186.632412 
L 178.112948 186.682294 
L 178.329944 186.831795 
L 178.500442 186.987902 
L 178.588274 187.065161 
L 178.619273 186.965852 
L 178.903435 185.670462 
L 179.311596 184.235379 
L 179.399428 184.136486 
L 179.466593 184.04781 
L 179.533759 184.125359 
L 179.719756 184.256012 
L 180.060751 184.441455 
L 180.360413 184.015763 
L 180.732407 183.092907 
L 181.114734 182.220057 
L 181.290398 182.182161 
L 181.760557 182.171313 
L 182.711209 179.311372 
L 183.155535 178.323273 
L 183.687694 177.728109 
L 184.307684 177.363799 
L 184.447182 177.601188 
L 185.485666 180.88414 
L 185.501165 180.873455 
L 186.286486 180.485368 
L 186.529316 180.789094 
L 186.88581 181.686365 
L 187.34047 182.07388 
L 187.361136 182.046666 
L 187.753797 181.705257 
L 187.841629 181.570038 
L 188.022459 181.344052 
L 188.068958 181.388348 
L 188.229123 181.695447 
L 188.425453 182.022062 
L 188.456452 181.911659 
L 188.942111 180.595052 
L 189.221107 180.292405 
L 189.288273 180.405495 
L 189.649934 181.221513 
L 190.151093 182.699508 
L 190.362923 183.008069 
L 190.414588 182.903169 
L 190.455921 182.944517 
L 190.838248 182.154657 
L 191.360074 181.227221 
L 191.680402 180.09883 
L 191.825066 179.758481 
L 191.887065 179.804768 
L 191.912898 179.836088 
L 191.980064 179.740164 
L 191.995564 179.719291 
L 192.021397 179.867445 
L 192.68272 183.018214 
L 192.89455 183.029393 
L 193.044381 182.979367 
L 193.05988 183.022566 
L 193.674704 184.942332 
L 193.71087 184.840094 
L 193.9382 183.397529 
L 194.026032 183.501602 
L 194.129364 183.853278 
L 194.656355 186.302815 
L 195.343511 187.596933 
L 195.999668 187.873416 
L 196.686824 187.926309 
L 197.714974 187.118722 
L 197.771807 187.081696 
L 197.818306 187.153851 
L 198.495129 188.500574 
L 198.944622 189.278402 
L 199.166785 189.853748 
L 199.807441 192.561681 
L 200.386099 193.721116 
L 200.964757 194.544516 
L 202.478566 195.084256 
L 202.736895 195.429951 
L 203.124389 195.465875 
L 203.315553 195.001489 
L 203.920044 193.796275 
L 204.12154 193.226781 
L 204.498701 192.328173 
L 204.715698 191.424039 
L 205.304689 187.966777 
L 205.852347 186.244487 
L 206.038344 186.080735 
L 206.369005 185.599604 
L 206.544669 185.44282 
L 206.813332 184.716184 
L 206.895997 184.622499 
L 207.273158 183.99419 
L 207.608986 183.654655 
L 208.290975 182.260467 
L 208.549304 181.883784 
L 208.750801 181.446663 
L 208.962631 181.01193 
L 209.029797 181.064924 
L 209.344959 181.160558 
L 209.758286 181.229696 
L 210.171612 181.276812 
L 210.471274 181.273672 
L 210.745103 181.116759 
L 210.760603 181.141554 
L 210.9311 181.210553 
L 211.055099 181.022906 
L 211.411593 180.346478 
L 211.463259 180.379456 
L 211.80942 180.322734 
L 211.928252 180.181435 
L 212.295079 179.756184 
L 212.377744 179.845995 
L 212.677406 180.020201 
L 213.163066 180.172569 
L 213.591892 180.860518 
L 213.669391 180.756544 
L 213.860555 180.710751 
L 214.160217 180.738381 
L 215.286532 183.457671 
L 215.312365 183.436014 
L 215.741192 182.941201 
L 215.911689 182.718219 
L 216.536846 182.238668 
L 216.774509 182.039122 
L 218.024823 181.236501 
L 218.035156 181.257694 
L 218.562148 182.590853 
L 218.779144 182.94513 
L 218.789477 182.940315 
L 218.908309 182.762696 
L 219.171805 182.55497 
L 219.28547 182.661678 
L 219.833128 183.539122 
L 219.967459 183.471094 
L 220.819946 182.921053 
L 221.011109 183.144653 
L 221.083441 183.001567 
L 221.171273 182.829441 
L 221.233272 182.953766 
L 221.6156 183.44617 
L 221.817097 183.450463 
L 222.116759 183.336994 
L 222.318255 183.302494 
L 222.47842 183.353834 
L 222.896913 183.647642 
L 222.927913 183.589092 
L 223.243074 183.132462 
L 223.27924 183.161667 
L 223.568569 182.933746 
L 224.033562 182.389609 
L 224.364223 182.432252 
L 224.467555 182.386674 
L 224.705218 182.310817 
L 225.108212 182.531476 
L 225.743702 182.993824 
L 226.04853 183.394209 
L 226.410191 183.408007 
L 226.885517 182.576583 
L 227.283344 182.157888 
L 227.340177 182.210977 
L 227.934334 182.622846 
L 228.812654 180.484975 
L 229.525643 178.732379 
L 229.737473 178.171003 
L 229.814971 178.301473 
L 230.248965 178.828983 
L 231.054952 179.668199 
L 231.364947 180.315727 
L 231.556111 180.87569 
L 231.659443 180.830793 
L 231.917772 180.836569 
L 232.325932 180.923076 
L 232.424097 180.990255 
L 232.925256 181.206029 
L 233.059587 181.260369 
L 233.54008 181.328974 
L 233.906907 181.54908 
L 234.206569 181.810914 
L 234.573397 182.279341 
L 235.684213 183.140843 
L 236.056207 183.797916 
L 236.195705 184.01911 
L 236.681364 184.736547 
L 237.327187 185.768321 
L 237.98851 187.217387 
L 238.727332 188.05235 
L 239.207824 188.01217 
L 239.404155 188.006787 
L 240.15331 188.874937 
L 240.494304 189.270857 
L 240.540803 189.233498 
L 240.804299 188.886467 
L 241.362291 188.066621 
L 241.39329 188.117041 
L 242.297443 189.8455 
L 243.211928 190.886319 
L 243.304927 190.770854 
L 243.52709 190.675541 
L 244.017916 191.022221 
L 244.927235 193.061365 
L 245.438727 194.239292 
L 246.001885 195.158783 
L 246.038051 195.124107 
L 246.632208 194.706178 
L 247.107534 194.955836 
L 247.629359 194.770895 
L 248.321682 194.359019 
L 248.667843 194.142244 
L 249.024337 193.69512 
L 249.169002 193.75045 
L 249.804492 194.378858 
L 250.12482 194.647266 
L 250.57948 195.395091 
L 250.868808 196.062891 
L 251.62313 197.946667 
L 251.762628 198.049874 
L 252.165621 198.253684 
L 252.914776 198.08283 
L 253.07494 198.050706 
L 253.240271 198.025316 
L 253.591599 198.037485 
L 253.694931 197.917279 
L 253.767263 197.996704 
L 253.917094 198.166136 
L 253.96876 198.074887 
L 254.056592 197.964549 
L 254.128924 198.016382 
L 254.557751 198.189314 
L 254.872912 198.196237 
L 255.482569 197.197871 
L 255.901063 196.66041 
L 257.053212 195.228221 
L 257.662869 194.232175 
L 258.231193 193.671357 
L 258.587687 193.341744 
L 258.649687 193.412217 
L 258.970015 193.621403 
L 259.533173 193.254507 
L 260.318494 192.526237 
L 260.855819 191.993845 
L 262.24563 191.045409 
L 262.658957 190.521699 
L 262.689957 190.58197 
L 262.937953 190.825751 
L 263.294447 190.671731 
L 263.852438 190.249735 
L 264.074602 190.146886 
L 264.431096 189.506156 
L 265.009754 188.445348 
L 265.552245 187.723199 
L 265.960405 187.240258 
L 266.001738 187.271215 
L 266.2859 187.35687 
L 266.606229 187.070899 
L 267.122887 186.471514 
L 267.448382 186.394084 
L 267.908208 186.269041 
L 268.889859 185.625855 
L 269.31352 185.132872 
L 269.788845 184.829683 
L 270.207339 184.626421 
L 270.501834 184.66104 
L 271.101158 184.750089 
L 271.881313 184.548486 
L 272.971462 184.970905 
L 273.369289 185.154866 
L 273.560453 185.192504 
L 274.226943 185.030187 
L 274.846933 184.87719 
L 275.208594 184.906357 
L 275.368758 184.822683 
L 276.10758 184.657708 
L 276.598405 184.401629 
L 276.799902 184.559075 
L 277.001399 184.580904 
L 277.218396 184.642667 
L 277.797053 184.703293 
L 278.592708 184.642915 
L 278.882036 184.474519 
L 279.093866 184.373655 
L 279.455527 184.158808 
L 280.137517 182.705929 
L 281.43433 180.933478 
L 281.496329 180.805491 
L 281.578994 180.873666 
L 281.930322 181.197444 
L 281.976821 181.101699 
L 282.364315 180.240358 
L 282.452147 180.348971 
L 282.855141 180.677443 
L 282.984305 180.726081 
L 283.108303 180.885448 
L 283.180636 180.799221 
L 283.506131 180.581116 
L 284.002123 180.45505 
L 284.167454 180.433315 
L 284.606613 179.743896 
L 285.371268 178.352827 
L 285.893093 177.84494 
L 286.461418 177.767153 
L 287.541234 175.649499 
L 287.551567 175.66554 
L 288.936212 177.79035 
L 289.003378 177.729478 
L 289.210041 177.683686 
L 289.380539 177.636271 
L 289.48387 177.344847 
L 289.92303 176.038356 
L 290.13486 176.00374 
L 290.486188 175.949639 
L 290.842682 175.92945 
L 291.746835 176.498503 
L 292.046497 176.169561 
L 292.222161 176.122613 
L 292.898983 176.489714 
L 293.095314 176.522475 
L 293.580973 176.983571 
L 294.557458 177.943825 
L 295.275613 178.38647 
L 295.911103 177.857747 
L 296.319263 177.8552 
L 296.458761 177.803209 
L 296.73259 177.709778 
L 297.724575 177.467076 
L 297.802073 177.543541 
L 298.453063 178.898329 
L 299.424381 181.391301 
L 299.935873 182.355891 
L 300.3492 182.56519 
L 300.819359 182.69528 
L 300.948524 182.615344 
L 300.98469 182.695193 
L 301.532348 183.629047 
L 301.935342 184.24373 
L 301.945675 184.237871 
L 302.364169 184.122363 
L 302.529499 184.245002 
L 302.565665 184.204004 
L 303.030658 183.510885 
L 303.55765 182.831475 
L 303.733314 182.871607 
L 304.322305 183.729289 
L 304.699465 184.173369 
L 305.298789 184.476981 
L 305.598451 184.395196 
L 305.789615 184.439779 
L 305.954946 184.470739 
L 306.275274 184.414773 
L 306.52327 184.293617 
L 306.683434 184.209117 
L 306.936597 184.124711 
L 307.38609 184.197676 
L 307.861416 184.153247 
L 308.615737 183.124204 
L 308.765568 183.158932 
L 309.318393 183.249873 
L 309.866051 182.785137 
L 310.325877 182.374366 
L 311.044033 182.208004 
L 311.793188 181.316819 
L 312.387345 180.768237 
L 313.028002 180.497952 
L 313.554993 180.428108 
L 313.658325 180.567345 
L 314.65031 181.841235 
L 315.502796 181.687534 
L 315.766292 181.903445 
L 316.096954 182.187952 
L 316.618779 182.265143 
L 317.233602 182.041664 
L 317.574597 182.297577 
L 317.652096 182.215375 
L 318.153255 181.684358 
L 318.499416 181.655742 
L 319.005741 182.167868 
L 319.543066 182.715927 
L 319.548233 182.710841 
L 320.121724 182.297381 
L 320.524718 181.963179 
L 320.865712 181.449446 
L 321.067209 181.355954 
L 321.320372 181.688443 
L 321.950695 182.764527 
L 322.110859 182.713748 
L 322.245191 182.767963 
L 322.854848 183.566388 
L 322.89618 183.465907 
L 323.102844 182.897796 
L 323.201009 182.950091 
L 323.31984 183.159896 
L 323.867499 184.213398 
L 324.549488 184.751437 
L 325.391641 184.865496 
L 325.954799 184.87346 
L 327.096615 184.646458 
L 327.520275 185.011201 
L 328.031767 185.475296 
L 328.377928 185.883354 
L 328.997918 187.052128 
L 329.586909 187.587636 
L 330.1759 187.950272 
L 331.65871 188.249315 
L 331.937705 188.403511 
L 332.361366 188.352426 
L 333.033022 187.722084 
L 333.487681 187.245305 
L 334.025006 186.177784 
L 334.696662 184.570437 
L 334.944658 184.268216 
L 335.791978 183.698776 
L 335.988309 183.538167 
L 336.117473 183.436233 
L 338.313272 181.877085 
L 338.628434 181.876729 
L 340.17841 181.831859 
L 340.679569 181.503434 
L 341.087729 181.408601 
L 341.485556 181.212418 
L 341.966048 181.336872 
L 342.203711 181.323169 
L 342.358709 181.416559 
L 342.927033 181.697006 
L 343.278361 181.621919 
L 343.448859 181.851441 
L 343.79502 182.244573 
L 344.43051 182.94147 
L 344.554508 182.928323 
L 347.2153 181.915869 
L 347.783624 182.637135 
L 347.959288 182.721596 
L 347.964454 182.717796 
L 348.398448 182.53422 
L 349.033938 183.019628 
L 349.405932 182.848006 
L 349.77276 182.770476 
L 350.170587 182.821005 
L 350.253252 182.750173 
L 350.413416 182.746268 
L 350.83191 182.993387 
L 352.278554 182.894488 
L 352.51105 182.820305 
L 352.893377 182.594886 
L 353.668365 182.317215 
L 353.99386 182.32768 
L 354.546685 182.199586 
L 355.099509 181.83115 
L 355.316506 181.922939 
L 355.533503 182.179497 
L 356.14316 182.53843 
L 356.453155 182.892638 
L 356.861315 183.096205 
L 357.310808 183.80062 
L 357.961798 184.831412 
L 357.972131 184.823463 
L 358.287293 184.721115 
L 358.757452 185.031817 
L 358.995115 184.977966 
L 359.54794 185.200569 
L 359.9561 185.452037 
L 361.134082 186.787324 
L 361.340745 186.876421 
L 361.950402 187.169693 
L 362.632391 187.215714 
L 362.833888 187.200582 
L 363.412546 187.200187 
L 363.831039 186.788719 
L 364.104868 186.55526 
L 364.399364 186.282093 
L 364.807524 185.99814 
L 365.629011 185.68844 
L 366.042338 185.865184 
L 366.135337 185.933376 
L 366.176669 185.868873 
L 367.881643 183.39043 
L 369.726114 181.276761 
L 370.253105 180.820858 
L 370.542434 180.411285 
L 371.022927 179.607532 
L 371.400087 179.405781 
L 371.735916 179.202392 
L 373.78705 177.518505 
L 374.494872 177.633107 
L 374.939199 177.366899 
L 375.445524 176.953859 
L 376.365176 176.335233 
L 376.876668 176.062984 
L 377.574157 175.461921 
L 378.374978 174.921163 
L 379.082801 174.494513 
L 380.095451 173.828776 
L 380.446779 173.522491 
L 380.829106 173.342126 
L 381.45943 172.87747 
L 382.032921 172.957825 
L 383.107571 174.554394 
L 383.665562 175.226581 
L 384.01689 175.68572 
L 384.373384 176.011759 
L 384.662713 176.122578 
L 384.957209 176.326443 
L 385.866528 177.054306 
L 386.698348 178.363418 
L 386.936011 178.562226 
L 387.292505 178.802789 
L 387.726498 179.059493 
L 388.067493 179.292835 
L 389.002645 178.763148 
L 390.325291 178.036481 
L 390.511288 178.159168 
L 390.888449 178.400159 
L 391.229444 178.356956 
L 391.441274 178.297631 
L 391.921766 178.349369 
L 392.329926 178.511487 
L 392.815585 178.770317 
L 393.146247 179.001663 
L 393.523408 179.181438 
L 394.88222 179.170373 
L 395.088883 179.210841 
L 395.724373 179.058086 
L 396.029202 178.904548 
L 396.793856 178.586296 
L 397.749675 179.101014 
L 399.919641 180.080467 
L 400.131471 180.054747 
L 400.79796 179.619599 
L 401.164788 179.51987 
L 401.91911 179.693649 
L 402.161939 179.762757 
L 403.246922 180.127563 
L 403.556917 180.178624 
L 403.975411 180.156923 
L 404.192407 180.342629 
L 404.647067 180.682255 
L 404.982895 180.90776 
L 405.32389 181.091208 
L 405.484054 181.172673 
L 405.902547 181.518973 
L 406.620703 182.438522 
L 407.158028 183.342206 
L 408.181011 183.963847 
L 408.418674 184.058365 
L 408.651171 184.23192 
L 410.335478 184.203878 
L 410.598974 184.153202 
L 411.523792 184.545699 
L 411.895787 184.538087 
L 412.319447 184.57987 
L 412.774106 184.73989 
L 412.996269 184.674579 
L 414.055419 184.021349 
L 414.696076 184.080305 
L 415.620895 184.291257 
L 415.739726 184.339901 
L 416.044555 184.461122 
L 416.416549 184.665074 
L 417.062372 185.386715 
L 417.258703 185.424401 
L 417.765028 185.665613 
L 418.565849 185.566918 
L 418.793179 185.597696 
L 419.15484 185.440027 
L 420.012493 185.375079 
L 420.539485 185.268204 
L 421.195641 185.295877 
L 421.443637 185.531016 
L 421.6813 185.662537 
L 422.358123 185.906168 
L 422.652618 185.802315 
L 424.393758 184.944584 
L 424.770918 184.869744 
L 425.013748 184.770534 
L 425.969566 184.555529 
L 426.594723 184.162928 
L 427.245713 183.868608 
L 427.633207 183.932761 
L 427.932869 184.043589 
L 428.201531 183.786749 
L 428.542526 183.540442 
L 428.780189 183.676325 
L 429.193516 184.050741 
L 430.061502 184.700237 
L 430.62466 185.01891 
L 430.888156 184.910249 
L 431.280816 184.479418 
L 432.10747 183.102675 
L 432.236635 183.134232 
L 432.675795 183.154677 
L 433.094288 182.87761 
L 433.461116 182.767295 
L 434.075939 183.118454 
L 435.70858 184.093 
L 436.245905 184.102357 
L 436.891729 184.424846 
L 437.129391 184.419749 
L 437.532385 184.374799 
L 437.697716 184.227903 
L 438.756866 183.171589 
L 439.015195 182.9706 
L 440.23451 181.861434 
L 440.735668 181.629038 
L 441.210994 181.434476 
L 441.763819 181.572954 
L 442.10998 181.384036 
L 442.910801 180.795829 
L 443.277629 180.460522 
L 443.603123 179.849647 
L 444.042283 179.093051 
L 444.569275 179.118882 
L 444.729439 179.034054 
L 444.920603 178.988237 
L 445.184099 179.02103 
L 445.463094 179.016661 
L 445.654258 179.078429 
L 446.708241 180.057051 
L 446.966571 180.170716 
L 447.447063 180.078465 
L 449.338034 178.159033 
L 449.849526 177.908532 
L 450.159521 177.914999 
L 450.996508 177.474606 
L 453.249139 177.491654 
L 453.879463 177.425244 
L 455.233108 177.36718 
L 455.920264 177.39389 
L 456.34909 177.692534 
L 456.78825 177.943773 
L 457.294576 178.0422 
L 457.702736 178.147541 
L 458.116063 178.532714 
L 458.648221 178.902856 
L 458.891051 178.877258 
L 459.247545 178.987141 
L 460.270529 178.427872 
L 461.655174 178.878507 
L 462.461161 179.444919 
L 463.013986 179.346198 
L 463.551311 179.448553 
L 464.341799 179.276188 
L 465.023788 179.174782 
L 465.700611 178.856518 
L 465.938274 178.922587 
L 466.165603 178.928429 
L 466.573764 179.234784 
L 467.333252 179.657944 
L 468.082407 179.512461 
L 468.583566 179.791839 
L 469.084724 180.144288 
L 470.159374 180.986721 
L 470.856863 181.171122 
L 471.182358 181.153284 
L 471.766182 181.166583 
L 472.448172 180.699644 
L 472.7685 180.59911 
L 472.99583 180.553548 
L 473.517655 180.190355 
L 473.987814 180.213085 
L 475.32596 180.208124 
L 475.548123 180.209163 
L 476.323111 180.54284 
L 476.83977 180.645523 
L 477.44426 180.61742 
L 478.766906 181.781214 
L 479.045902 182.060601 
L 479.696892 182.779891 
L 480.006887 182.986671 
L 481.2727 183.649618 
L 484.021324 183.115137 
L 484.45015 183.036731 
L 484.966809 183.314023 
L 485.338803 183.523001 
L 485.684964 183.733463 
L 486.093125 183.911555 
L 486.547784 184.422372 
L 487.136775 185.014064 
L 487.47777 184.962605 
L 487.942762 185.142098 
L 488.190759 185.130933 
L 488.805582 185.285007 
L 489.089744 185.408662 
L 490.298726 186.335178 
L 490.567388 186.42435 
L 491.182212 186.589908 
L 492.220695 186.656256 
L 492.442859 186.684107 
L 494.767822 185.593098 
L 495.475644 185.572167 
L 496.100801 184.894509 
L 496.317798 184.665127 
L 496.927455 184.09199 
L 497.206451 183.901097 
L 499.149087 182.419058 
L 499.748411 181.940134 
L 500.208237 181.440142 
L 500.616397 181.30703 
L 500.972892 181.145152 
L 501.272554 180.925197 
L 502.502201 180.167949 
L 503.008526 180.023281 
L 503.86618 180.025893 
L 504.491337 179.683044 
L 505.689984 179.152069 
L 506.010313 179.016012 
L 508.423108 177.832371 
L 509.394426 177.320025 
L 509.714755 177.201552 
L 510.060916 177.046963 
L 510.66024 176.764727 
L 511.202731 176.823245 
L 512.298048 177.926537 
L 512.861206 178.412731 
L 513.2022 178.696553 
L 513.951355 179.036368 
L 515.170669 179.790468 
L 515.940491 180.539368 
L 516.147154 180.696009 
L 516.493315 180.832108 
L 516.942808 181.042838 
L 517.252803 181.154111 
L 518.642615 180.599463 
L 519.536434 180.278177 
L 519.717265 180.39447 
L 519.970428 180.487845 
L 520.197757 180.47275 
L 520.580085 180.454595 
L 521.251741 180.51609 
L 522.228225 180.886785 
L 522.739717 181.055847 
L 525.317844 180.801947 
L 525.984333 180.635116 
L 527.353479 181.157225 
L 528.1233 181.470813 
L 528.717457 181.538157 
L 529.342614 181.628567 
L 530.582595 181.321984 
L 533.579214 182.005169 
L 533.85821 182.080066 
L 534.194038 182.260815 
L 534.560866 182.379999 
L 535.191189 182.752948 
L 535.852512 183.409422 
L 536.343338 183.955332 
L 537.407654 184.381491 
L 537.614318 184.486748 
L 537.831314 184.573611 
L 539.618953 184.509559 
L 539.861783 184.550707 
L 540.920933 184.805078 
L 541.520257 184.834188 
L 542.000749 184.936462 
L 542.253912 184.834778 
L 543.271729 184.415884 
L 544.07255 184.471851 
L 544.930203 184.6608 
L 545.271198 184.740883 
L 545.607026 184.902333 
L 546.237349 185.388324 
L 546.459513 185.437447 
L 546.965838 185.583647 
L 547.756326 185.533239 
L 547.983655 185.526802 
L 548.376316 185.424985 
L 550.339619 185.319329 
L 551.104273 185.684999 
L 551.362603 185.764681 
L 551.967093 185.635821 
L 553.687566 185.035572 
L 553.920063 185.028016 
L 554.204225 184.94639 
L 555.196209 184.773582 
L 556.82885 184.362043 
L 557.123346 184.414168 
L 557.407508 184.201845 
L 557.733003 184.061463 
L 557.970666 184.182654 
L 558.399492 184.445255 
L 559.355311 184.986475 
L 559.639473 185.056378 
L 560.047633 185.049691 
L 560.47646 184.692333 
L 561.313447 183.743353 
L 561.876605 183.747873 
L 562.258932 183.575145 
L 562.651592 183.509639 
L 563.741742 184.010309 
L 565.162553 184.384615 
L 565.420882 184.464413 
L 566.170037 184.72615 
L 567.182688 184.297698 
L 569.290655 182.845857 
L 570.127642 182.533762 
L 570.385971 182.515467 
L 571.016295 182.597757 
L 571.32629 182.438817 
L 572.214943 181.984903 
L 572.493938 181.746557 
L 572.803933 181.287916 
L 573.212094 180.797163 
L 573.749419 180.788572 
L 573.89925 180.752108 
L 574.136913 180.704612 
L 574.395242 180.753738 
L 574.73107 180.748388 
L 575.020399 180.906881 
L 575.232229 180.978157 
L 575.464725 181.154705 
L 576.110548 181.573996 
L 576.647873 181.47612 
L 578.59051 180.046206 
L 579.065835 179.921993 
L 579.355164 179.895043 
L 580.217984 179.585644 
L 582.672112 179.546308 
L 583.948259 179.517516 
L 584.30992 179.499264 
L 585.059075 179.495753 
L 585.5654 179.756101 
L 586.02006 179.925387 
L 586.562551 179.97682 
L 586.960378 180.093631 
L 587.378872 180.403198 
L 587.843865 180.590947 
L 588.086694 180.600665 
L 588.448355 180.647443 
L 589.492005 180.258806 
L 589.827834 180.312682 
L 590.752652 180.534153 
L 591.651638 180.986048 
L 592.225129 180.932444 
L 592.772787 180.977286 
L 593.609774 180.856487 
L 594.095433 180.808848 
L 594.870421 180.550355 
L 595.232082 180.546373 
L 595.35608 180.621082 
L 595.903738 180.948149 
L 596.379064 181.134902 
L 596.766558 181.048516 
L 597.216051 181.012687 
L 598.502531 181.686173 
L 599.241353 182.090043 
L 600.04734 182.244229 
L 600.393501 182.245814 
L 600.997992 182.222085 
L 601.669648 181.854954 
L 601.896978 181.813763 
L 602.18114 181.772406 
L 602.713298 181.511372 
L 603.302289 181.54343 
L 604.480271 181.528588 
L 604.743767 181.538124 
L 605.79775 181.880606 
L 606.686403 181.882622 
L 607.998716 182.721306 
L 608.37071 183.006373 
L 609.104365 183.561805 
L 610.463177 184.085732 
L 611.36733 183.958213 
L 611.36733 183.958213 
" clip-path="url(#pc0637d6e2d)" style="fill: none; stroke: #1f2937; stroke-linecap: square"/>
   </g>
   <g id="line2d_30">
    <path d="M 68.88125 183.958213 
L 637.2 183.958213 
" clip-path="url(#pc0637d6e2d)" style="fill: none; stroke-dasharray: 2.96,1.28; stroke-dashoffset: 0; stroke: #888888; stroke-width: 0.8"/>
   </g>
   <g id="patch_3">
    <path d="M 68.88125 282.04 
L 68.88125 26.88 
" style="fill: none; stroke: #000000; stroke-width: 0.8; stroke-linejoin: miter; stroke-linecap: square"/>
   </g>
   <g id="patch_4">
    <path d="M 637.2 282.04 
L 637.2 26.88 
" style="fill: none; stroke: #000000; stroke-width: 0.8; stroke-linejoin: miter; stroke-linecap: square"/>
   </g>
   <g id="patch_5">
    <path d="M 68.88125 282.04 
L 637.2 282.04 
" style="fill: none; stroke: #000000; stroke-width: 0.8; stroke-linejoin: miter; stroke-linecap: square"/>
   </g>
   <g id="patch_6">
    <path d="M 68.88125 26.88 
L 637.2 26.88 
" style="fill: none; stroke: #000000; stroke-width: 0.8; stroke-linejoin: miter; stroke-linecap: square"/>
   </g>
   <g id="text_17">
    <!-- Running mean — mean_median  (100k ReCom samples, seed 42) -->
    <g transform="translate(156.065312 20.88) scale(0.12 -0.12)">
     <defs>
      <path id="DejaVuSans-2014" d="M 313 1978 
L 6088 1978 
L 6088 1528 
L 313 1528 
L 313 1978 
z
" transform="scale(0.015625)"/>
      <path id="DejaVuSans-28" d="M 1984 4856 
Q 1566 4138 1362 3434 
Q 1159 2731 1159 2009 
Q 1159 1288 1364 580 
Q 1569 -128 1984 -844 
L 1484 -844 
Q 1016 -109 783 600 
Q 550 1309 550 2009 
Q 550 2706 781 3412 
Q 1013 4119 1484 4856 
L 1984 4856 
z
" transform="scale(0.015625)"/>
      <path id="DejaVuSans-6b" d="M 581 4863 
L 1159 4863 
L 1159 1991 
L 2875 3500 
L 3609 3500 
L 1753 1863 
L 3688 0 
L 2938 0 
L 1159 1709 
L 1159 0 
L 581 0 
L 581 4863 
z
" transform="scale(0.015625)"/>
      <path id="DejaVuSans-43" d="M 4122 4306 
L 4122 3641 
Q 3803 3938 3442 4084 
Q 3081 4231 2675 4231 
Q 1875 4231 1450 3742 
Q 1025 3253 1025 2328 
Q 1025 1406 1450 917 
Q 1875 428 2675 428 
Q 3081 428 3442 575 
Q 3803 722 4122 1019 
L 4122 359 
Q 3791 134 3420 21 
Q 3050 -91 2638 -91 
Q 1578 -91 968 557 
Q 359 1206 359 2328 
Q 359 3453 968 4101 
Q 1578 4750 2638 4750 
Q 3056 4750 3426 4639 
Q 3797 4528 4122 4306 
z
" transform="scale(0.015625)"/>
      <path id="DejaVuSans-73" d="M 2834 3397 
L 2834 2853 
Q 2591 2978 2328 3040 
Q 2066 3103 1784 3103 
Q 1356 3103 1142 2972 
Q 928 2841 928 2578 
Q 928 2378 1081 2264 
Q 1234 2150 1697 2047 
L 1894 2003 
Q 2506 1872 2764 1633 
Q 3022 1394 3022 966 
Q 3022 478 2636 193 
Q 2250 -91 1575 -91 
Q 1294 -91 989 -36 
Q 684 19 347 128 
L 347 722 
Q 666 556 975 473 
Q 1284 391 1588 391 
Q 1994 391 2212 530 
Q 2431 669 2431 922 
Q 2431 1156 2273 1281 
Q 2116 1406 1581 1522 
L 1381 1569 
Q 847 1681 609 1914 
Q 372 2147 372 2553 
Q 372 3047 722 3315 
Q 1072 3584 1716 3584 
Q 2034 3584 2315 3537 
Q 2597 3491 2834 3397 
z
" transform="scale(0.015625)"/>
      <path id="DejaVuSans-2c" d="M 750 794 
L 1409 794 
L 1409 256 
L 897 -744 
L 494 -744 
L 750 256 
L 750 794 
z
" transform="scale(0.015625)"/>
      <path id="DejaVuSans-29" d="M 513 4856 
L 1013 4856 
Q 1481 4119 1714 3412 
Q 1947 2706 1947 2009 
Q 1947 1309 1714 600 
Q 1481 -109 1013 -844 
L 513 -844 
Q 928 -128 1133 580 
Q 1338 1288 1338 2009 
Q 1338 2731 1133 3434 
Q 928 4138 513 4856 
z
" transform="scale(0.015625)"/>
     </defs>
     <use xlink:href="#DejaVuSans-52"/>
     <use xlink:href="#DejaVuSans-75" transform="translate(64.982422 0)"/>
     <use xlink:href="#DejaVuSans-6e" transform="translate(128.361328 0)"/>
     <use xlink:href="#DejaVuSans-6e" transform="translate(191.740234 0)"/>
     <use xlink:href="#DejaVuSans-69" transform="translate(255.119141 0)"/>
     <use xlink:href="#DejaVuSans-6e" transform="translate(282.902344 0)"/>
     <use xlink:href="#DejaVuSans-67" transform="translate(346.28125 0)"/>
     <use xlink:href="#DejaVuSans-20" transform="translate(409.757812 0)"/>
     <use xlink:href="#DejaVuSans-6d" transform="translate(441.544922 0)"/>
     <use xlink:href="#DejaVuSans-65" transform="translate(538.957031 0)"/>
     <use xlink:href="#DejaVuSans-61" transform="translate(600.480469 0)"/>
     <use xlink:href="#DejaVuSans-6e" transform="translate(661.759766 0)"/>
     <use xlink:href="#DejaVuSans-20" transform="translate(725.138672 0)"/>
     <use xlink:href="#DejaVuSans-2014" transform="translate(756.925781 0)"/>
     <use xlink:href="#DejaVuSans-20" transform="translate(856.925781 0)"/>
     <use xlink:href="#DejaVuSans-6d" transform="translate(888.712891 0)"/>
     <use xlink:href="#DejaVuSans-65" transform="translate(986.125 0)"/>
     <use xlink:href="#DejaVuSans-61" transform="translate(1047.648438 0)"/>
     <use xlink:href="#DejaVuSans-6e" transform="translate(1108.927734 0)"/>
     <use xlink:href="#DejaVuSans-5f" transform="translate(1172.306641 0)"/>
     <use xlink:href="#DejaVuSans-6d" transform="translate(1222.306641 0)"/>
     <use xlink:href="#DejaVuSans-65" transform="translate(1319.71875 0)"/>
     <use xlink:href="#DejaVuSans-64" transform="translate(1381.242188 0)"/>
     <use xlink:href="#DejaVuSans-69" transform="translate(1444.71875 0)"/>
     <use xlink:href="#DejaVuSans-61" transform="translate(1472.501953 0)"/>
     <use xlink:href="#DejaVuSans-6e" transform="translate(1533.78125 0)"/>
     <use xlink:href="#DejaVuSans-20" transform="translate(1597.160156 0)"/>
     <use xlink:href="#DejaVuSans-20" transform="translate(1628.947266 0)"/>
     <use xlink:href="#DejaVuSans-28" transform="translate(1660.734375 0)"/>
     <use xlink:href="#DejaVuSans-31" transform="translate(1699.748047 0)"/>
     <use xlink:href="#DejaVuSans-30" transform="translate(1763.371094 0)"/>
     <use xlink:href="#DejaVuSans-30" transform="translate(1826.994141 0)"/>
     <use xlink:href="#DejaVuSans-6b" transform="translate(1890.617188 0)"/>
     <use xlink:href="#DejaVuSans-20" transform="translate(1948.527344 0)"/>
     <use xlink:href="#DejaVuSans-52" transform="translate(1980.314453 0)"/>
     <use xlink:href="#DejaVuSans-65" transform="translate(2045.296875 0)"/>
     <use xlink:href="#DejaVuSans-43" transform="translate(2106.820312 0)"/>
     <use xlink:href="#DejaVuSans-6f" transform="translate(2176.644531 0)"/>
     <use xlink:href="#DejaVuSans-6d" transform="translate(2237.826172 0)"/>
     <use xlink:href="#DejaVuSans-20" transform="translate(2335.238281 0)"/>
     <use xlink:href="#DejaVuSans-73" transform="translate(2367.025391 0)"/>
     <use xlink:href="#DejaVuSans-61" transform="translate(2419.125 0)"/>
     <use xlink:href="#DejaVuSans-6d" transform="translate(2480.404297 0)"/>
     <use xlink:href="#DejaVuSans-70" transform="translate(2577.816406 0)"/>
     <use xlink:href="#DejaVuSans-6c" transform="translate(2641.292969 0)"/>
     <use xlink:href="#DejaVuSans-65" transform="translate(2669.076172 0)"/>
     <use xlink:href="#DejaVuSans-73" transform="translate(2730.599609 0)"/>
     <use xlink:href="#DejaVuSans-2c" transform="translate(2782.699219 0)"/>
     <use xlink:href="#DejaVuSans-20" transform="translate(2814.486328 0)"/>
     <use xlink:href="#DejaVuSans-73" transform="translate(2846.273438 0)"/>
     <use xlink:href="#DejaVuSans-65" transform="translate(2898.373047 0)"/>
     <use xlink:href="#DejaVuSans-65" transform="translate(2959.896484 0)"/>
     <use xlink:href="#DejaVuSans-64" transform="translate(3021.419922 0)"/>
     <use xlink:href="#DejaVuSans-20" transform="translate(3084.896484 0)"/>
     <use xlink:href="#DejaVuSans-34" transform="translate(3116.683594 0)"/>
     <use xlink:href="#DejaVuSans-32" transform="translate(3180.306641 0)"/>
     <use xlink:href="#DejaVuSans-29" transform="translate(3243.929688 0)"/>
    </g>
   </g>
   <g id="legend_1">
    <g id="patch_7">
     <path d="M 500.601094 47.290312 
L 630.9 47.290312 
Q 632.7 47.290312 632.7 45.490312 
L 632.7 33.18 
Q 632.7 31.38 630.9 31.38 
L 500.601094 31.38 
Q 498.801094 31.38 498.801094 33.18 
L 498.801094 45.490312 
Q 498.801094 47.290312 500.601094 47.290312 
z
" style="fill: #ffffff; opacity: 0.8; stroke: #cccccc; stroke-linejoin: miter"/>
    </g>
    <g id="line2d_31">
     <path d="M 502.401094 38.668594 
L 511.401094 38.668594 
L 520.401094 38.668594 
" style="fill: none; stroke-dasharray: 2.96,1.28; stroke-dashoffset: 0; stroke: #888888; stroke-width: 0.8"/>
    </g>
    <g id="text_18">
     <!-- final mean = -0.01965 -->
     <g transform="translate(527.601094 41.818594) scale(0.09 -0.09)">
      <defs>
       <path id="DejaVuSans-3d" d="M 678 2906 
L 4684 2906 
L 4684 2381 
L 678 2381 
L 678 2906 
z
M 678 1631 
L 4684 1631 
L 4684 1100 
L 678 1100 
L 678 1631 
z
" transform="scale(0.015625)"/>
       <path id="DejaVuSans-2d" d="M 313 2009 
L 1997 2009 
L 1997 1497 
L 313 1497 
L 313 2009 
z
" transform="scale(0.015625)"/>
      </defs>
      <use xlink:href="#DejaVuSans-66"/>
      <use xlink:href="#DejaVuSans-69" transform="translate(35.205078 0)"/>
      <use xlink:href="#DejaVuSans-6e" transform="translate(62.988281 0)"/>
      <use xlink:href="#DejaVuSans-61" transform="translate(126.367188 0)"/>
      <use xlink:href="#DejaVuSans-6c" transform="translate(187.646484 0)"/>
      <use xlink:href="#DejaVuSans-20" transform="translate(215.429688 0)"/>
      <use xlink:href="#DejaVuSans-6d" transform="translate(247.216797 0)"/>
      <use xlink:href="#DejaVuSans-65" transform="translate(344.628906 0)"/>
      <use xlink:href="#DejaVuSans-61" transform="translate(406.152344 0)"/>
      <use xlink:href="#DejaVuSans-6e" transform="translate(467.431641 0)"/>
      <use xlink:href="#DejaVuSans-20" transform="translate(530.810547 0)"/>
      <use xlink:href="#DejaVuSans-3d" transform="translate(562.597656 0)"/>
      <use xlink:href="#DejaVuSans-20" transform="translate(646.386719 0)"/>
      <use xlink:href="#DejaVuSans-2d" transform="translate(678.173828 0)"/>
      <use xlink:href="#DejaVuSans-30" transform="translate(714.257812 0)"/>
      <use xlink:href="#DejaVuSans-2e" transform="translate(777.880859 0)"/>
      <use xlink:href="#DejaVuSans-30" transform="translate(809.667969 0)"/>
      <use xlink:href="#DejaVuSans-31" transform="translate(873.291016 0)"/>
      <use xlink:href="#DejaVuSans-39" transform="translate(936.914062 0)"/>
      <use xlink:href="#DejaVuSans-36" transform="translate(1000.537109 0)"/>
      <use xlink:href="#DejaVuSans-35" transform="translate(1064.160156 0)"/>
     </g>
    </g>
   </g>
  </g>
 </g>
 <defs>
  <clipPath id="pc0637d6e2d">
   <rect x="68.88125" y="26.88" width="568.31875" height="255.16"/>
  </clipPath>
 </defs>
</svg>
