<?xml version="1.0" encoding="utf-8" standalone="no"?>
<!DOCTYPE svg PUBLIC "-//W3C//DTD SVG 1.1//EN"
  "http://www.w3.org/Graphics/SVG/1.1/DTD/svg11.dtd">
<svg xmlns:xlink="http://www.w3.org/1999/xlink" width="648pt" height="324pt" viewBox="0 0 648 324" xmlns="http://www.w3.org/2000/svg" version="1.1">
 <metadata>
  <rdf:RDF xmlns:dc="http://purl.org/dc/elements/1.1/" xmlns:cc="http://creativecommons.org/ns#" xmlns:rdf="http://www.w3.org/1999/02/22-rdf-syntax-ns#">
   <cc:Work>
    <dc:type rdf:resource="http://purl.org/dc/dcmitype/StillImage"/>
    <dc:date>2026-05-18T20:46:10.182433</dc:date>
    <dc:format>image/svg+xml</dc:format>
    <dc:creator>
     <cc:Agent>
      <dc:title>Matplotlib v3.10.8, https://matplotlib.org/</dc:title>
     </cc:Agent>
    </dc:creator>
   </cc:Work>
  </rdf:RDF>
 </metadata>
 <defs>
  <style type="text/css">*{stroke-linejoin: round; stroke-linecap: butt}</style>
 </defs>
 <g id="figure_1">
  <g id="patch_1">
   <path d="M 0 324 
L 648 324 
L 648 0 
L 0 0 
z
" style="fill: #ffffff"/>
  </g>
  <g id="axes_1">
   <g id="patch_2">
    <path d="M 60.51125 282.04 
L 637.2 282.04 
L 637.2 26.88 
L 60.51125 26.88 
z
" style="fill: #ffffff"/>
   </g>
   <g id="matplotlib.axis_1">
    <g id="xtick_1">
     <g id="line2d_1">
      <path d="M 86.719132 282.04 
L 86.719132 26.88 
" clip-path="url(#p476f594303)" style="fill: none; stroke-dasharray: 0.5,0.825; stroke-dashoffset: 0; stroke: #b0b0b0; stroke-opacity: 0.6; stroke-width: 0.5"/>
     </g>
     <g id="line2d_2">
      <defs>
       <path id="mb38a0e9abf" d="M 0 0 
L 0 3.5 
" style="stroke: #000000; stroke-width: 0.8"/>
      </defs>
      <g>
       <use xlink:href="#mb38a0e9abf" x="86.719132" y="282.04" style="stroke: #000000; stroke-width: 0.8"/>
      </g>
     </g>
     <g id="text_1">
      <!-- 0 -->
      <g transform="translate(83.537882 296.638438) scale(0.1 -0.1)">
       <defs>
        <path id="DejaVuSans-30" d="M 2034 4250 
Q 1547 4250 1301 3770 
Q 1056 3291 1056 2328 
Q 1056 1369 1301 889 
Q 1547 409 2034 409 
Q 2525 409 2770 889 
Q 3016 1369 3016 2328 
Q 3016 3291 2770 3770 
Q 2525 4250 2034 4250 
z
M 2034 4750 
Q 2819 4750 3233 4129 
Q 3647 3509 3647 2328 
Q 3647 1150 3233 529 
Q 2819 -91 2034 -91 
Q 1250 -91 836 529 
Q 422 1150 422 2328 
Q 422 3509 836 4129 
Q 1250 4750 2034 4750 
z
" transform="scale(0.015625)"/>
       </defs>
       <use xlink:href="#DejaVuSans-30"/>
      </g>
     </g>
    </g>
    <g id="xtick_2">
     <g id="line2d_3">
      <path d="M 191.572681 282.04 
L 191.572681 26.88 
" clip-path="url(#p476f594303)" style="fill: none; stroke-dasharray: 0.5,0.825; stroke-dashoffset: 0; stroke: #b0b0b0; stroke-opacity: 0.6; stroke-width: 0.5"/>
     </g>
     <g id="line2d_4">
      <g>
       <use xlink:href="#mb38a0e9abf" x="191.572681" y="282.04" style="stroke: #000000; stroke-width: 0.8"/>
      </g>
     </g>
     <g id="text_2">
      <!-- 20000 -->
      <g transform="translate(175.666431 296.638438) scale(0.1 -0.1)">
       <defs>
        <path id="DejaVuSans-32" d="M 1228 531 
L 3431 531 
L 3431 0 
L 469 0 
L 469 531 
Q 828 903 1448 1529 
Q 2069 2156 2228 2338 
Q 2531 2678 2651 2914 
Q 2772 3150 2772 3378 
Q 2772 3750 2511 3984 
Q 2250 4219 1831 4219 
Q 1534 4219 1204 4116 
Q 875 4013 500 3803 
L 500 4441 
Q 881 4594 1212 4672 
Q 1544 4750 1819 4750 
Q 2544 4750 2975 4387 
Q 3406 4025 3406 3419 
Q 3406 3131 3298 2873 
Q 3191 2616 2906 2266 
Q 2828 2175 2409 1742 
Q 1991 1309 1228 531 
z
" transform="scale(0.015625)"/>
       </defs>
       <use xlink:href="#DejaVuSans-32"/>
       <use xlink:href="#DejaVuSans-30" transform="translate(63.623047 0)"/>
       <use xlink:href="#DejaVuSans-30" transform="translate(127.246094 0)"/>
       <use xlink:href="#DejaVuSans-30" transform="translate(190.869141 0)"/>
       <use xlink:href="#DejaVuSans-30" transform="translate(254.492188 0)"/>
      </g>
     </g>
    </g>
    <g id="xtick_3">
     <g id="line2d_5">
      <path d="M 296.426229 282.04 
L 296.426229 26.88 
" clip-path="url(#p476f594303)" style="fill: none; stroke-dasharray: 0.5,0.825; stroke-dashoffset: 0; stroke: #b0b0b0; stroke-opacity: 0.6; stroke-width: 0.5"/>
     </g>
     <g id="line2d_6">
      <g>
       <use xlink:href="#mb38a0e9abf" x="296.426229" y="282.04" style="stroke: #000000; stroke-width: 0.8"/>
      </g>
     </g>
     <g id="text_3">
      <!-- 40000 -->
      <g transform="translate(280.519979 296.638438) scale(0.1 -0.1)">
       <defs>
        <path id="DejaVuSans-34" d="M 2419 4116 
L 825 1625 
L 2419 1625 
L 2419 4116 
z
M 2253 4666 
L 3047 4666 
L 3047 1625 
L 3713 1625 
L 3713 1100 
L 3047 1100 
L 3047 0 
L 2419 0 
L 2419 1100 
L 313 1100 
L 313 1709 
L 2253 4666 
z
" transform="scale(0.015625)"/>
       </defs>
       <use xlink:href="#DejaVuSans-34"/>
       <use xlink:href="#DejaVuSans-30" transform="translate(63.623047 0)"/>
       <use xlink:href="#DejaVuSans-30" transform="translate(127.246094 0)"/>
       <use xlink:href="#DejaVuSans-30" transform="translate(190.869141 0)"/>
       <use xlink:href="#DejaVuSans-30" transform="translate(254.492188 0)"/>
      </g>
     </g>
    </g>
    <g id="xtick_4">
     <g id="line2d_7">
      <path d="M 401.279778 282.04 
L 401.279778 26.88 
" clip-path="url(#p476f594303)" style="fill: none; stroke-dasharray: 0.5,0.825; stroke-dashoffset: 0; stroke: #b0b0b0; stroke-opacity: 0.6; stroke-width: 0.5"/>
     </g>
     <g id="line2d_8">
      <g>
       <use xlink:href="#mb38a0e9abf" x="401.279778" y="282.04" style="stroke: #000000; stroke-width: 0.8"/>
      </g>
     </g>
     <g id="text_4">
      <!-- 60000 -->
      <g transform="translate(385.373528 296.638438) scale(0.1 -0.1)">
       <defs>
        <path id="DejaVuSans-36" d="M 2113 2584 
Q 1688 2584 1439 2293 
Q 1191 2003 1191 1497 
Q 1191 994 1439 701 
Q 1688 409 2113 409 
Q 2538 409 2786 701 
Q 3034 994 3034 1497 
Q 3034 2003 2786 2293 
Q 2538 2584 2113 2584 
z
M 3366 4563 
L 3366 3988 
Q 3128 4100 2886 4159 
Q 2644 4219 2406 4219 
Q 1781 4219 1451 3797 
Q 1122 3375 1075 2522 
Q 1259 2794 1537 2939 
Q 1816 3084 2150 3084 
Q 2853 3084 3261 2657 
Q 3669 2231 3669 1497 
Q 3669 778 3244 343 
Q 2819 -91 2113 -91 
Q 1303 -91 875 529 
Q 447 1150 447 2328 
Q 447 3434 972 4092 
Q 1497 4750 2381 4750 
Q 2619 4750 2861 4703 
Q 3103 4656 3366 4563 
z
" transform="scale(0.015625)"/>
       </defs>
       <use xlink:href="#DejaVuSans-36"/>
       <use xlink:href="#DejaVuSans-30" transform="translate(63.623047 0)"/>
       <use xlink:href="#DejaVuSans-30" transform="translate(127.246094 0)"/>
       <use xlink:href="#DejaVuSans-30" transform="translate(190.869141 0)"/>
       <use xlink:href="#DejaVuSans-30" transform="translate(254.492188 0)"/>
      </g>
     </g>
    </g>
    <g id="xtick_5">
     <g id="line2d_9">
      <path d="M 506.133326 282.04 
L 506.133326 26.88 
" clip-path="url(#p476f594303)" style="fill: none; stroke-dasharray: 0.5,0.825; stroke-dashoffset: 0; stroke: #b0b0b0; stroke-opacity: 0.6; stroke-width: 0.5"/>
     </g>
     <g id="line2d_10">
      <g>
       <use xlink:href="#mb38a0e9abf" x="506.133326" y="282.04" style="stroke: #000000; stroke-width: 0.8"/>
      </g>
     </g>
     <g id="text_5">
      <!-- 80000 -->
      <g transform="translate(490.227076 296.638438) scale(0.1 -0.1)">
       <defs>
        <path id="DejaVuSans-38" d="M 2034 2216 
Q 1584 2216 1326 1975 
Q 1069 1734 1069 1313 
Q 1069 891 1326 650 
Q 1584 409 2034 409 
Q 2484 409 2743 651 
Q 3003 894 3003 1313 
Q 3003 1734 2745 1975 
Q 2488 2216 2034 2216 
z
M 1403 2484 
Q 997 2584 770 2862 
Q 544 3141 544 3541 
Q 544 4100 942 4425 
Q 1341 4750 2034 4750 
Q 2731 4750 3128 4425 
Q 3525 4100 3525 3541 
Q 3525 3141 3298 2862 
Q 3072 2584 2669 2484 
Q 3125 2378 3379 2068 
Q 3634 1759 3634 1313 
Q 3634 634 3220 271 
Q 2806 -91 2034 -91 
Q 1263 -91 848 271 
Q 434 634 434 1313 
Q 434 1759 690 2068 
Q 947 2378 1403 2484 
z
M 1172 3481 
Q 1172 3119 1398 2916 
Q 1625 2713 2034 2713 
Q 2441 2713 2670 2916 
Q 2900 3119 2900 3481 
Q 2900 3844 2670 4047 
Q 2441 4250 2034 4250 
Q 1625 4250 1398 4047 
Q 1172 3844 1172 3481 
z
" transform="scale(0.015625)"/>
       </defs>
       <use xlink:href="#DejaVuSans-38"/>
       <use xlink:href="#DejaVuSans-30" transform="translate(63.623047 0)"/>
       <use xlink:href="#DejaVuSans-30" transform="translate(127.246094 0)"/>
       <use xlink:href="#DejaVuSans-30" transform="translate(190.869141 0)"/>
       <use xlink:href="#DejaVuSans-30" transform="translate(254.492188 0)"/>
      </g>
     </g>
    </g>
    <g id="xtick_6">
     <g id="line2d_11">
      <path d="M 610.986875 282.04 
L 610.986875 26.88 
" clip-path="url(#p476f594303)" style="fill: none; stroke-dasharray: 0.5,0.825; stroke-dashoffset: 0; stroke: #b0b0b0; stroke-opacity: 0.6; stroke-width: 0.5"/>
     </g>
     <g id="line2d_12">
      <g>
       <use xlink:href="#mb38a0e9abf" x="610.986875" y="282.04" style="stroke: #000000; stroke-width: 0.8"/>
      </g>
     </g>
     <g id="text_6">
      <!-- 100000 -->
      <g transform="translate(591.899375 296.638438) scale(0.1 -0.1)">
       <defs>
        <path id="DejaVuSans-31" d="M 794 531 
L 1825 531 
L 1825 4091 
L 703 3866 
L 703 4441 
L 1819 4666 
L 2450 4666 
L 2450 531 
L 3481 531 
L 3481 0 
L 794 0 
L 794 531 
z
" transform="scale(0.015625)"/>
       </defs>
       <use xlink:href="#DejaVuSans-31"/>
       <use xlink:href="#DejaVuSans-30" transform="translate(63.623047 0)"/>
       <use xlink:href="#DejaVuSans-30" transform="translate(127.246094 0)"/>
       <use xlink:href="#DejaVuSans-30" transform="translate(190.869141 0)"/>
       <use xlink:href="#DejaVuSans-30" transform="translate(254.492188 0)"/>
       <use xlink:href="#DejaVuSans-30" transform="translate(318.115234 0)"/>
      </g>
     </g>
    </g>
    <g id="text_7">
     <!-- Sample index -->
     <g transform="translate(314.837656 310.316563) scale(0.1 -0.1)">
      <defs>
       <path id="DejaVuSans-53" d="M 3425 4513 
L 3425 3897 
Q 3066 4069 2747 4153 
Q 2428 4238 2131 4238 
Q 1616 4238 1336 4038 
Q 1056 3838 1056 3469 
Q 1056 3159 1242 3001 
Q 1428 2844 1947 2747 
L 2328 2669 
Q 3034 2534 3370 2195 
Q 3706 1856 3706 1288 
Q 3706 609 3251 259 
Q 2797 -91 1919 -91 
Q 1588 -91 1214 -16 
Q 841 59 441 206 
L 441 856 
Q 825 641 1194 531 
Q 1563 422 1919 422 
Q 2459 422 2753 634 
Q 3047 847 3047 1241 
Q 3047 1584 2836 1778 
Q 2625 1972 2144 2069 
L 1759 2144 
Q 1053 2284 737 2584 
Q 422 2884 422 3419 
Q 422 4038 858 4394 
Q 1294 4750 2059 4750 
Q 2388 4750 2728 4690 
Q 3069 4631 3425 4513 
z
" transform="scale(0.015625)"/>
       <path id="DejaVuSans-61" d="M 2194 1759 
Q 1497 1759 1228 1600 
Q 959 1441 959 1056 
Q 959 750 1161 570 
Q 1363 391 1709 391 
Q 2188 391 2477 730 
Q 2766 1069 2766 1631 
L 2766 1759 
L 2194 1759 
z
M 3341 1997 
L 3341 0 
L 2766 0 
L 2766 531 
Q 2569 213 2275 61 
Q 1981 -91 1556 -91 
Q 1019 -91 701 211 
Q 384 513 384 1019 
Q 384 1609 779 1909 
Q 1175 2209 1959 2209 
L 2766 2209 
L 2766 2266 
Q 2766 2663 2505 2880 
Q 2244 3097 1772 3097 
Q 1472 3097 1187 3025 
Q 903 2953 641 2809 
L 641 3341 
Q 956 3463 1253 3523 
Q 1550 3584 1831 3584 
Q 2591 3584 2966 3190 
Q 3341 2797 3341 1997 
z
" transform="scale(0.015625)"/>
       <path id="DejaVuSans-6d" d="M 3328 2828 
Q 3544 3216 3844 3400 
Q 4144 3584 4550 3584 
Q 5097 3584 5394 3201 
Q 5691 2819 5691 2113 
L 5691 0 
L 5113 0 
L 5113 2094 
Q 5113 2597 4934 2840 
Q 4756 3084 4391 3084 
Q 3944 3084 3684 2787 
Q 3425 2491 3425 1978 
L 3425 0 
L 2847 0 
L 2847 2094 
Q 2847 2600 2669 2842 
Q 2491 3084 2119 3084 
Q 1678 3084 1418 2786 
Q 1159 2488 1159 1978 
L 1159 0 
L 581 0 
L 581 3500 
L 1159 3500 
L 1159 2956 
Q 1356 3278 1631 3431 
Q 1906 3584 2284 3584 
Q 2666 3584 2933 3390 
Q 3200 3197 3328 2828 
z
" transform="scale(0.015625)"/>
       <path id="DejaVuSans-70" d="M 1159 525 
L 1159 -1331 
L 581 -1331 
L 581 3500 
L 1159 3500 
L 1159 2969 
Q 1341 3281 1617 3432 
Q 1894 3584 2278 3584 
Q 2916 3584 3314 3078 
Q 3713 2572 3713 1747 
Q 3713 922 3314 415 
Q 2916 -91 2278 -91 
Q 1894 -91 1617 61 
Q 1341 213 1159 525 
z
M 3116 1747 
Q 3116 2381 2855 2742 
Q 2594 3103 2138 3103 
Q 1681 3103 1420 2742 
Q 1159 2381 1159 1747 
Q 1159 1113 1420 752 
Q 1681 391 2138 391 
Q 2594 391 2855 752 
Q 3116 1113 3116 1747 
z
" transform="scale(0.015625)"/>
       <path id="DejaVuSans-6c" d="M 603 4863 
L 1178 4863 
L 1178 0 
L 603 0 
L 603 4863 
z
" transform="scale(0.015625)"/>
       <path id="DejaVuSans-65" d="M 3597 1894 
L 3597 1613 
L 953 1613 
Q 991 1019 1311 708 
Q 1631 397 2203 397 
Q 2534 397 2845 478 
Q 3156 559 3463 722 
L 3463 178 
Q 3153 47 2828 -22 
Q 2503 -91 2169 -91 
Q 1331 -91 842 396 
Q 353 884 353 1716 
Q 353 2575 817 3079 
Q 1281 3584 2069 3584 
Q 2775 3584 3186 3129 
Q 3597 2675 3597 1894 
z
M 3022 2063 
Q 3016 2534 2758 2815 
Q 2500 3097 2075 3097 
Q 1594 3097 1305 2825 
Q 1016 2553 972 2059 
L 3022 2063 
z
" transform="scale(0.015625)"/>
       <path id="DejaVuSans-20" transform="scale(0.015625)"/>
       <path id="DejaVuSans-69" d="M 603 3500 
L 1178 3500 
L 1178 0 
L 603 0 
L 603 3500 
z
M 603 4863 
L 1178 4863 
L 1178 4134 
L 603 4134 
L 603 4863 
z
" transform="scale(0.015625)"/>
       <path id="DejaVuSans-6e" d="M 3513 2113 
L 3513 0 
L 2938 0 
L 2938 2094 
Q 2938 2591 2744 2837 
Q 2550 3084 2163 3084 
Q 1697 3084 1428 2787 
Q 1159 2491 1159 1978 
L 1159 0 
L 581 0 
L 581 3500 
L 1159 3500 
L 1159 2956 
Q 1366 3272 1645 3428 
Q 1925 3584 2291 3584 
Q 2894 3584 3203 3211 
Q 3513 2838 3513 2113 
z
" transform="scale(0.015625)"/>
       <path id="DejaVuSans-64" d="M 2906 2969 
L 2906 4863 
L 3481 4863 
L 3481 0 
L 2906 0 
L 2906 525 
Q 2725 213 2448 61 
Q 2172 -91 1784 -91 
Q 1150 -91 751 415 
Q 353 922 353 1747 
Q 353 2572 751 3078 
Q 1150 3584 1784 3584 
Q 2172 3584 2448 3432 
Q 2725 3281 2906 2969 
z
M 947 1747 
Q 947 1113 1208 752 
Q 1469 391 1925 391 
Q 2381 391 2643 752 
Q 2906 1113 2906 1747 
Q 2906 2381 2643 2742 
Q 2381 3103 1925 3103 
Q 1469 3103 1208 2742 
Q 947 2381 947 1747 
z
" transform="scale(0.015625)"/>
       <path id="DejaVuSans-78" d="M 3513 3500 
L 2247 1797 
L 3578 0 
L 2900 0 
L 1881 1375 
L 863 0 
L 184 0 
L 1544 1831 
L 300 3500 
L 978 3500 
L 1906 2253 
L 2834 3500 
L 3513 3500 
z
" transform="scale(0.015625)"/>
      </defs>
      <use xlink:href="#DejaVuSans-53"/>
      <use xlink:href="#DejaVuSans-61" transform="translate(63.476562 0)"/>
      <use xlink:href="#DejaVuSans-6d" transform="translate(124.755859 0)"/>
      <use xlink:href="#DejaVuSans-70" transform="translate(222.167969 0)"/>
      <use xlink:href="#DejaVuSans-6c" transform="translate(285.644531 0)"/>
      <use xlink:href="#DejaVuSans-65" transform="translate(313.427734 0)"/>
      <use xlink:href="#DejaVuSans-20" transform="translate(374.951172 0)"/>
      <use xlink:href="#DejaVuSans-69" transform="translate(406.738281 0)"/>
      <use xlink:href="#DejaVuSans-6e" transform="translate(434.521484 0)"/>
      <use xlink:href="#DejaVuSans-64" transform="translate(497.900391 0)"/>
      <use xlink:href="#DejaVuSans-65" transform="translate(561.376953 0)"/>
      <use xlink:href="#DejaVuSans-78" transform="translate(621.150391 0)"/>
     </g>
    </g>
   </g>
   <g id="matplotlib.axis_2">
    <g id="ytick_1">
     <g id="line2d_13">
      <path d="M 60.51125 245.767215 
L 637.2 245.767215 
" clip-path="url(#p476f594303)" style="fill: none; stroke-dasharray: 0.5,0.825; stroke-dashoffset: 0; stroke: #b0b0b0; stroke-opacity: 0.6; stroke-width: 0.5"/>
     </g>
     <g id="line2d_14">
      <defs>
       <path id="mb33533f1ad" d="M 0 0 
L -3.5 0 
" style="stroke: #000000; stroke-width: 0.8"/>
      </defs>
      <g>
       <use xlink:href="#mb33533f1ad" x="60.51125" y="245.767215" style="stroke: #000000; stroke-width: 0.8"/>
      </g>
     </g>
     <g id="text_8">
      <!-- 0.615 -->
      <g transform="translate(24.883125 249.566434) scale(0.1 -0.1)">
       <defs>
        <path id="DejaVuSans-2e" d="M 684 794 
L 1344 794 
L 1344 0 
L 684 0 
L 684 794 
z
" transform="scale(0.015625)"/>
        <path id="DejaVuSans-35" d="M 691 4666 
L 3169 4666 
L 3169 4134 
L 1269 4134 
L 1269 2991 
Q 1406 3038 1543 3061 
Q 1681 3084 1819 3084 
Q 2600 3084 3056 2656 
Q 3513 2228 3513 1497 
Q 3513 744 3044 326 
Q 2575 -91 1722 -91 
Q 1428 -91 1123 -41 
Q 819 9 494 109 
L 494 744 
Q 775 591 1075 516 
Q 1375 441 1709 441 
Q 2250 441 2565 725 
Q 2881 1009 2881 1497 
Q 2881 1984 2565 2268 
Q 2250 2553 1709 2553 
Q 1456 2553 1204 2497 
Q 953 2441 691 2322 
L 691 4666 
z
" transform="scale(0.015625)"/>
       </defs>
       <use xlink:href="#DejaVuSans-30"/>
       <use xlink:href="#DejaVuSans-2e" transform="translate(63.623047 0)"/>
       <use xlink:href="#DejaVuSans-36" transform="translate(95.410156 0)"/>
       <use xlink:href="#DejaVuSans-31" transform="translate(159.033203 0)"/>
       <use xlink:href="#DejaVuSans-35" transform="translate(222.65625 0)"/>
      </g>
     </g>
    </g>
    <g id="ytick_2">
     <g id="line2d_15">
      <path d="M 60.51125 203.675246 
L 637.2 203.675246 
" clip-path="url(#p476f594303)" style="fill: none; stroke-dasharray: 0.5,0.825; stroke-dashoffset: 0; stroke: #b0b0b0; stroke-opacity: 0.6; stroke-width: 0.5"/>
     </g>
     <g id="line2d_16">
      <g>
       <use xlink:href="#mb33533f1ad" x="60.51125" y="203.675246" style="stroke: #000000; stroke-width: 0.8"/>
      </g>
     </g>
     <g id="text_9">
      <!-- 0.620 -->
      <g transform="translate(24.883125 207.474464) scale(0.1 -0.1)">
       <use xlink:href="#DejaVuSans-30"/>
       <use xlink:href="#DejaVuSans-2e" transform="translate(63.623047 0)"/>
       <use xlink:href="#DejaVuSans-36" transform="translate(95.410156 0)"/>
       <use xlink:href="#DejaVuSans-32" transform="translate(159.033203 0)"/>
       <use xlink:href="#DejaVuSans-30" transform="translate(222.65625 0)"/>
      </g>
     </g>
    </g>
    <g id="ytick_3">
     <g id="line2d_17">
      <path d="M 60.51125 161.583276 
L 637.2 161.583276 
" clip-path="url(#p476f594303)" style="fill: none; stroke-dasharray: 0.5,0.825; stroke-dashoffset: 0; stroke: #b0b0b0; stroke-opacity: 0.6; stroke-width: 0.5"/>
     </g>
     <g id="line2d_18">
      <g>
       <use xlink:href="#mb33533f1ad" x="60.51125" y="161.583276" style="stroke: #000000; stroke-width: 0.8"/>
      </g>
     </g>
     <g id="text_10">
      <!-- 0.625 -->
      <g transform="translate(24.883125 165.382495) scale(0.1 -0.1)">
       <use xlink:href="#DejaVuSans-30"/>
       <use xlink:href="#DejaVuSans-2e" transform="translate(63.623047 0)"/>
       <use xlink:href="#DejaVuSans-36" transform="translate(95.410156 0)"/>
       <use xlink:href="#DejaVuSans-32" transform="translate(159.033203 0)"/>
       <use xlink:href="#DejaVuSans-35" transform="translate(222.65625 0)"/>
      </g>
     </g>
    </g>
    <g id="ytick_4">
     <g id="line2d_19">
      <path d="M 60.51125 119.491306 
L 637.2 119.491306 
" clip-path="url(#p476f594303)" style="fill: none; stroke-dasharray: 0.5,0.825; stroke-dashoffset: 0; stroke: #b0b0b0; stroke-opacity: 0.6; stroke-width: 0.5"/>
     </g>
     <g id="line2d_20">
      <g>
       <use xlink:href="#mb33533f1ad" x="60.51125" y="119.491306" style="stroke: #000000; stroke-width: 0.8"/>
      </g>
     </g>
     <g id="text_11">
      <!-- 0.630 -->
      <g transform="translate(24.883125 123.290525) scale(0.1 -0.1)">
       <defs>
        <path id="DejaVuSans-33" d="M 2597 2516 
Q 3050 2419 3304 2112 
Q 3559 1806 3559 1356 
Q 3559 666 3084 287 
Q 2609 -91 1734 -91 
Q 1441 -91 1130 -33 
Q 819 25 488 141 
L 488 750 
Q 750 597 1062 519 
Q 1375 441 1716 441 
Q 2309 441 2620 675 
Q 2931 909 2931 1356 
Q 2931 1769 2642 2001 
Q 2353 2234 1838 2234 
L 1294 2234 
L 1294 2753 
L 1863 2753 
Q 2328 2753 2575 2939 
Q 2822 3125 2822 3475 
Q 2822 3834 2567 4026 
Q 2313 4219 1838 4219 
Q 1578 4219 1281 4162 
Q 984 4106 628 3988 
L 628 4550 
Q 988 4650 1302 4700 
Q 1616 4750 1894 4750 
Q 2613 4750 3031 4423 
Q 3450 4097 3450 3541 
Q 3450 3153 3228 2886 
Q 3006 2619 2597 2516 
z
" transform="scale(0.015625)"/>
       </defs>
       <use xlink:href="#DejaVuSans-30"/>
       <use xlink:href="#DejaVuSans-2e" transform="translate(63.623047 0)"/>
       <use xlink:href="#DejaVuSans-36" transform="translate(95.410156 0)"/>
       <use xlink:href="#DejaVuSans-33" transform="translate(159.033203 0)"/>
       <use xlink:href="#DejaVuSans-30" transform="translate(222.65625 0)"/>
      </g>
     </g>
    </g>
    <g id="ytick_5">
     <g id="line2d_21">
      <path d="M 60.51125 77.399337 
L 637.2 77.399337 
" clip-path="url(#p476f594303)" style="fill: none; stroke-dasharray: 0.5,0.825; stroke-dashoffset: 0; stroke: #b0b0b0; stroke-opacity: 0.6; stroke-width: 0.5"/>
     </g>
     <g id="line2d_22">
      <g>
       <use xlink:href="#mb33533f1ad" x="60.51125" y="77.399337" style="stroke: #000000; stroke-width: 0.8"/>
      </g>
     </g>
     <g id="text_12">
      <!-- 0.635 -->
      <g transform="translate(24.883125 81.198556) scale(0.1 -0.1)">
       <use xlink:href="#DejaVuSans-30"/>
       <use xlink:href="#DejaVuSans-2e" transform="translate(63.623047 0)"/>
       <use xlink:href="#DejaVuSans-36" transform="translate(95.410156 0)"/>
       <use xlink:href="#DejaVuSans-33" transform="translate(159.033203 0)"/>
       <use xlink:href="#DejaVuSans-35" transform="translate(222.65625 0)"/>
      </g>
     </g>
    </g>
    <g id="ytick_6">
     <g id="line2d_23">
      <path d="M 60.51125 35.307367 
L 637.2 35.307367 
" clip-path="url(#p476f594303)" style="fill: none; stroke-dasharray: 0.5,0.825; stroke-dashoffset: 0; stroke: #b0b0b0; stroke-opacity: 0.6; stroke-width: 0.5"/>
     </g>
     <g id="line2d_24">
      <g>
       <use xlink:href="#mb33533f1ad" x="60.51125" y="35.307367" style="stroke: #000000; stroke-width: 0.8"/>
      </g>
     </g>
     <g id="text_13">
      <!-- 0.640 -->
      <g transform="translate(24.883125 39.106586) scale(0.1 -0.1)">
       <use xlink:href="#DejaVuSans-30"/>
       <use xlink:href="#DejaVuSans-2e" transform="translate(63.623047 0)"/>
       <use xlink:href="#DejaVuSans-36" transform="translate(95.410156 0)"/>
       <use xlink:href="#DejaVuSans-34" transform="translate(159.033203 0)"/>
       <use xlink:href="#DejaVuSans-30" transform="translate(222.65625 0)"/>
      </g>
     </g>
    </g>
    <g id="text_14">
     <!-- Running mean of seats_at_50_50 -->
     <g transform="translate(18.525313 237.273281) rotate(-90) scale(0.1 -0.1)">
      <defs>
       <path id="DejaVuSans-52" d="M 2841 2188 
Q 3044 2119 3236 1894 
Q 3428 1669 3622 1275 
L 4263 0 
L 3584 0 
L 2988 1197 
Q 2756 1666 2539 1819 
Q 2322 1972 1947 1972 
L 1259 1972 
L 1259 0 
L 628 0 
L 628 4666 
L 2053 4666 
Q 2853 4666 3247 4331 
Q 3641 3997 3641 3322 
Q 3641 2881 3436 2590 
Q 3231 2300 2841 2188 
z
M 1259 4147 
L 1259 2491 
L 2053 2491 
Q 2509 2491 2742 2702 
Q 2975 2913 2975 3322 
Q 2975 3731 2742 3939 
Q 2509 4147 2053 4147 
L 1259 4147 
z
" transform="scale(0.015625)"/>
       <path id="DejaVuSans-75" d="M 544 1381 
L 544 3500 
L 1119 3500 
L 1119 1403 
Q 1119 906 1312 657 
Q 1506 409 1894 409 
Q 2359 409 2629 706 
Q 2900 1003 2900 1516 
L 2900 3500 
L 3475 3500 
L 3475 0 
L 2900 0 
L 2900 538 
Q 2691 219 2414 64 
Q 2138 -91 1772 -91 
Q 1169 -91 856 284 
Q 544 659 544 1381 
z
M 1991 3584 
L 1991 3584 
z
" transform="scale(0.015625)"/>
       <path id="DejaVuSans-67" d="M 2906 1791 
Q 2906 2416 2648 2759 
Q 2391 3103 1925 3103 
Q 1463 3103 1205 2759 
Q 947 2416 947 1791 
Q 947 1169 1205 825 
Q 1463 481 1925 481 
Q 2391 481 2648 825 
Q 2906 1169 2906 1791 
z
M 3481 434 
Q 3481 -459 3084 -895 
Q 2688 -1331 1869 -1331 
Q 1566 -1331 1297 -1286 
Q 1028 -1241 775 -1147 
L 775 -588 
Q 1028 -725 1275 -790 
Q 1522 -856 1778 -856 
Q 2344 -856 2625 -561 
Q 2906 -266 2906 331 
L 2906 616 
Q 2728 306 2450 153 
Q 2172 0 1784 0 
Q 1141 0 747 490 
Q 353 981 353 1791 
Q 353 2603 747 3093 
Q 1141 3584 1784 3584 
Q 2172 3584 2450 3431 
Q 2728 3278 2906 2969 
L 2906 3500 
L 3481 3500 
L 3481 434 
z
" transform="scale(0.015625)"/>
       <path id="DejaVuSans-6f" d="M 1959 3097 
Q 1497 3097 1228 2736 
Q 959 2375 959 1747 
Q 959 1119 1226 758 
Q 1494 397 1959 397 
Q 2419 397 2687 759 
Q 2956 1122 2956 1747 
Q 2956 2369 2687 2733 
Q 2419 3097 1959 3097 
z
M 1959 3584 
Q 2709 3584 3137 3096 
Q 3566 2609 3566 1747 
Q 3566 888 3137 398 
Q 2709 -91 1959 -91 
Q 1206 -91 779 398 
Q 353 888 353 1747 
Q 353 2609 779 3096 
Q 1206 3584 1959 3584 
z
" transform="scale(0.015625)"/>
       <path id="DejaVuSans-66" d="M 2375 4863 
L 2375 4384 
L 1825 4384 
Q 1516 4384 1395 4259 
Q 1275 4134 1275 3809 
L 1275 3500 
L 2222 3500 
L 2222 3053 
L 1275 3053 
L 1275 0 
L 697 0 
L 697 3053 
L 147 3053 
L 147 3500 
L 697 3500 
L 697 3744 
Q 697 4328 969 4595 
Q 1241 4863 1831 4863 
L 2375 4863 
z
" transform="scale(0.015625)"/>
       <path id="DejaVuSans-73" d="M 2834 3397 
L 2834 2853 
Q 2591 2978 2328 3040 
Q 2066 3103 1784 3103 
Q 1356 3103 1142 2972 
Q 928 2841 928 2578 
Q 928 2378 1081 2264 
Q 1234 2150 1697 2047 
L 1894 2003 
Q 2506 1872 2764 1633 
Q 3022 1394 3022 966 
Q 3022 478 2636 193 
Q 2250 -91 1575 -91 
Q 1294 -91 989 -36 
Q 684 19 347 128 
L 347 722 
Q 666 556 975 473 
Q 1284 391 1588 391 
Q 1994 391 2212 530 
Q 2431 669 2431 922 
Q 2431 1156 2273 1281 
Q 2116 1406 1581 1522 
L 1381 1569 
Q 847 1681 609 1914 
Q 372 2147 372 2553 
Q 372 3047 722 3315 
Q 1072 3584 1716 3584 
Q 2034 3584 2315 3537 
Q 2597 3491 2834 3397 
z
" transform="scale(0.015625)"/>
       <path id="DejaVuSans-74" d="M 1172 4494 
L 1172 3500 
L 2356 3500 
L 2356 3053 
L 1172 3053 
L 1172 1153 
Q 1172 725 1289 603 
Q 1406 481 1766 481 
L 2356 481 
L 2356 0 
L 1766 0 
Q 1100 0 847 248 
Q 594 497 594 1153 
L 594 3053 
L 172 3053 
L 172 3500 
L 594 3500 
L 594 4494 
L 1172 4494 
z
" transform="scale(0.015625)"/>
       <path id="DejaVuSans-5f" d="M 3263 -1063 
L 3263 -1509 
L -63 -1509 
L -63 -1063 
L 3263 -1063 
z
" transform="scale(0.015625)"/>
      </defs>
      <use xlink:href="#DejaVuSans-52"/>
      <use xlink:href="#DejaVuSans-75" transform="translate(64.982422 0)"/>
      <use xlink:href="#DejaVuSans-6e" transform="translate(128.361328 0)"/>
      <use xlink:href="#DejaVuSans-6e" transform="translate(191.740234 0)"/>
      <use xlink:href="#DejaVuSans-69" transform="translate(255.119141 0)"/>
      <use xlink:href="#DejaVuSans-6e" transform="translate(282.902344 0)"/>
      <use xlink:href="#DejaVuSans-67" transform="translate(346.28125 0)"/>
      <use xlink:href="#DejaVuSans-20" transform="translate(409.757812 0)"/>
      <use xlink:href="#DejaVuSans-6d" transform="translate(441.544922 0)"/>
      <use xlink:href="#DejaVuSans-65" transform="translate(538.957031 0)"/>
      <use xlink:href="#DejaVuSans-61" transform="translate(600.480469 0)"/>
      <use xlink:href="#DejaVuSans-6e" transform="translate(661.759766 0)"/>
      <use xlink:href="#DejaVuSans-20" transform="translate(725.138672 0)"/>
      <use xlink:href="#DejaVuSans-6f" transform="translate(756.925781 0)"/>
      <use xlink:href="#DejaVuSans-66" transform="translate(818.107422 0)"/>
      <use xlink:href="#DejaVuSans-20" transform="translate(853.3125 0)"/>
      <use xlink:href="#DejaVuSans-73" transform="translate(885.099609 0)"/>
      <use xlink:href="#DejaVuSans-65" transform="translate(937.199219 0)"/>
      <use xlink:href="#DejaVuSans-61" transform="translate(998.722656 0)"/>
      <use xlink:href="#DejaVuSans-74" transform="translate(1060.001953 0)"/>
      <use xlink:href="#DejaVuSans-73" transform="translate(1099.210938 0)"/>
      <use xlink:href="#DejaVuSans-5f" transform="translate(1151.310547 0)"/>
      <use xlink:href="#DejaVuSans-61" transform="translate(1201.310547 0)"/>
      <use xlink:href="#DejaVuSans-74" transform="translate(1262.589844 0)"/>
      <use xlink:href="#DejaVuSans-5f" transform="translate(1301.798828 0)"/>
      <use xlink:href="#DejaVuSans-35" transform="translate(1351.798828 0)"/>
      <use xlink:href="#DejaVuSans-30" transform="translate(1415.421875 0)"/>
      <use xlink:href="#DejaVuSans-5f" transform="translate(1479.044922 0)"/>
      <use xlink:href="#DejaVuSans-35" transform="translate(1529.044922 0)"/>
      <use xlink:href="#DejaVuSans-30" transform="translate(1592.667969 0)"/>
     </g>
    </g>
   </g>
   <g id="line2d_25">
    <path d="M 86.724375 101.106308 
L 86.87117 101.106308 
L 87.217187 245.741751 
L 87.390195 270.441818 
L 87.405923 268.779856 
L 87.741454 245.506699 
L 87.841065 245.798867 
L 88.33912 222.921405 
L 88.375818 220.835394 
L 89.759885 128.800589 
L 89.885709 127.700154 
L 89.911923 128.276256 
L 89.938136 128.842976 
L 90.016776 128.181529 
L 90.247454 125.404929 
L 90.478132 113.792132 
L 90.666868 109.459037 
L 90.735023 109.064635 
L 90.955216 100.507526 
L 91.128224 96.273904 
L 91.149195 96.411291 
L 91.322203 97.910259 
L 91.364145 97.939117 
L 91.369387 97.833597 
L 91.406086 97.101569 
L 91.510939 97.1892 
L 91.657734 97.305632 
L 91.662977 97.207051 
L 92.465107 84.243387 
L 92.49132 83.880534 
L 92.580446 84.142465 
L 92.6486 84.337451 
L 92.664329 84.125826 
L 92.92122 80.821219 
L 92.99986 81.075206 
L 93.099471 81.387934 
L 93.120441 81.135535 
L 93.408789 77.825519 
L 93.482186 78.078179 
L 93.487429 78.096016 
L 93.513642 77.811476 
L 93.864902 74.200047 
L 93.933056 74.454249 
L 93.990726 74.665621 
L 94.022182 74.362724 
L 94.300044 70.658706 
L 94.86101 60.980444 
L 95.081203 59.489054 
L 95.138872 59.774104 
L 95.484889 61.405638 
L 95.52683 61.133912 
L 95.684111 59.401957 
L 95.883332 57.872888 
L 95.961973 56.758819 
L 96.559638 48.471692 
L 96.575366 48.555683 
L 96.638278 48.888985 
L 96.695947 48.631495 
L 97.083906 47.365318 
L 97.251671 48.7993 
L 97.519048 51.033727 
L 97.791667 52.266575 
L 97.844094 52.040734 
L 99.028939 47.449741 
L 100.040776 43.528236 
L 100.219027 42.822951 
L 100.423491 42.06376 
L 100.491646 42.355938 
L 100.942516 44.004281 
L 100.96873 43.93132 
L 101.06834 43.656503 
L 101.115525 43.844795 
L 101.907169 47.096639 
L 101.985809 46.876412 
L 102.373767 45.530689 
L 102.824637 40.44035 
L 102.861336 40.264004 
L 102.924248 40.500208 
L 103.149683 41.764007 
L 103.411817 43.212527 
L 103.438031 43.303298 
L 103.500943 43.157244 
L 103.846959 41.040295 
L 103.862688 41.095401 
L 103.878416 41.150407 
L 103.94657 41.004791 
L 104.014725 40.860322 
L 104.056667 41.006064 
L 104.08288 41.096795 
L 104.140549 40.946012 
L 104.559964 38.57849 
L 104.61239 38.478182 
L 104.654332 38.624638 
L 104.958407 40.0835 
L 105.173357 41.646453 
L 105.220541 41.386802 
L 105.666169 38.962626 
L 105.881118 38.574282 
L 105.92306 38.710852 
L 106.111796 39.684337 
L 106.473541 41.733591 
L 106.499754 41.812272 
L 106.567909 41.683614 
L 106.835286 41.187298 
L 106.88247 41.327514 
L 107.018779 41.728922 
L 107.086934 41.603821 
L 107.218001 41.142853 
L 107.280913 40.980915 
L 107.322855 41.177172 
L 107.527319 42.302399 
L 107.56926 42.226042 
L 107.632173 42.11208 
L 107.679357 42.244883 
L 107.946733 42.986284 
L 108.014888 42.862611 
L 108.37139 42.111246 
L 108.444788 42.310553 
L 108.591583 42.705156 
L 108.659737 42.585991 
L 109.17352 41.507619 
L 109.262645 41.743242 
L 109.288859 41.812188 
L 109.357013 41.699382 
L 109.482838 41.292331 
L 109.713516 40.590732 
L 109.718758 40.58247 
L 109.765942 40.706381 
L 110.531373 42.647902 
L 110.589043 42.555358 
L 110.678168 42.413212 
L 110.725352 42.528573 
L 110.746323 42.579699 
L 110.814478 42.471546 
L 110.945545 42.076809 
L 111.218164 41.18066 
L 111.46457 40.813846 
L 111.490783 40.939085 
L 111.731946 41.985667 
L 111.75816 41.946259 
L 111.983595 41.610726 
L 112.030779 41.721634 
L 112.172331 42.330917 
L 113.042616 48.321153 
L 113.357176 50.220433 
L 114.133093 55.139649 
L 114.36377 56.183838 
L 114.494837 56.596721 
L 114.798913 57.584571 
L 114.809398 57.600816 
L 114.867067 57.491702 
L 115.013862 57.215964 
L 115.082017 57.321431 
L 115.234055 57.465932 
L 115.265511 57.407395 
L 115.396578 56.934904 
L 115.69541 55.954841 
L 115.847448 55.685449 
L 115.91036 55.783339 
L 116.062398 56.018173 
L 116.120067 55.916813 
L 116.219678 55.51912 
L 116.890741 52.716327 
L 117.173845 52.066764 
L 117.415009 51.344764 
L 117.430737 51.370248 
L 117.692871 51.594629 
L 117.745297 51.514786 
L 117.808209 51.61514 
L 117.975975 52.075535 
L 118.274808 53.536586 
L 118.421603 53.964877 
L 118.458301 53.859551 
L 118.641795 53.574927 
L 118.673251 53.701097 
L 119.019268 55.763797 
L 119.800427 60.714211 
L 120.455762 62.957418 
L 120.780808 63.485296 
L 120.974787 64.690547 
L 121.651092 68.503386 
L 121.80313 68.644672 
L 121.855556 68.548728 
L 122.128176 68.140361 
L 122.17536 68.184231 
L 122.264485 68.409498 
L 122.521376 69.763493 
L 123.271079 75.499881 
L 124.020782 79.3193 
L 124.786213 83.088986 
L 125.929117 86.188818 
L 126.657849 86.575323 
L 127.370853 88.240329 
L 127.491435 88.390359 
L 128.445602 90.784419 
L 128.477058 90.719304 
L 128.581912 90.733202 
L 128.587154 90.746617 
L 129.121907 91.989899 
L 129.158606 91.926061 
L 129.326372 91.33117 
L 129.55705 90.827222 
L 129.913552 90.348322 
L 130.023648 90.270241 
L 130.893932 88.784108 
L 131.030242 88.707528 
L 131.318589 88.389581 
L 131.454899 88.541727 
L 132.125962 90.470294 
L 132.550618 91.886026 
L 132.954305 91.856809 
L 133.253137 91.523748 
L 133.363233 91.437606 
L 133.987112 90.041223 
L 134.45371 88.459614 
L 134.506137 88.473489 
L 136.021271 88.985191 
L 136.435442 90.167777 
L 136.671363 90.676443 
L 137.054078 90.866608 
L 137.819509 92.241068 
L 137.908635 92.365516 
L 138.36999 93.062356 
L 138.432902 93.180049 
L 138.647852 93.369164 
L 139.397555 93.373346 
L 139.549593 93.328383 
L 140.430363 93.352033 
L 141.117153 92.42411 
L 141.421229 92.361086 
L 142.312484 91.132513 
L 142.585103 91.072217 
L 143.408203 89.991925 
L 143.701793 89.942357 
L 143.901015 89.448953 
L 144.231304 88.76614 
L 144.655961 88.339982 
L 145.133044 88.331349 
L 145.578672 87.885085 
L 145.835563 87.830981 
L 146.176337 87.540185 
L 146.296919 87.678335 
L 146.532839 87.883962 
L 146.794973 88.051432 
L 146.994195 88.187161 
L 147.093806 88.317709 
L 147.266814 88.404522 
L 147.424094 88.546069 
L 147.649529 88.725754 
L 148.006031 88.905377 
L 148.252437 89.358205 
L 148.325835 89.256919 
L 148.965441 88.563692 
L 149.044082 88.685332 
L 149.232818 89.234077 
L 149.615533 90.871046 
L 150.087374 92.596403 
L 150.517274 93.099036 
L 151.031056 93.273439 
L 151.749303 94.23366 
L 151.95901 94.364613 
L 152.142504 94.453309 
L 153.070458 94.653393 
L 153.358805 94.902078 
L 153.762491 95.04537 
L 154.071809 95.321759 
L 154.349671 95.240511 
L 154.559378 94.780062 
L 154.847725 94.03988 
L 155.146558 94.174532 
L 155.351023 94.439105 
L 155.50306 94.56447 
L 155.754709 95.139443 
L 156.609265 97.273817 
L 156.824215 97.394111 
L 157.406152 97.532323 
L 157.563432 97.94842 
L 158.376047 99.888627 
L 158.570026 99.997821 
L 158.868859 100.586001 
L 159.393127 101.678706 
L 160.027491 101.784474 
L 160.399721 102.207924 
L 160.441662 102.152247 
L 160.483604 102.103512 
L 160.562244 102.171149 
L 160.682825 102.059673 
L 160.861076 102.002643 
L 160.981658 102.110486 
L 161.390587 102.458261 
L 161.820486 102.5586 
L 162.114076 103.010485 
L 162.381453 103.171375 
L 162.654072 103.270852 
L 163.083972 103.63068 
L 163.419503 103.725461 
L 164.027654 104.301999 
L 164.363185 104.177117 
L 164.814055 103.776129 
L 165.1758 103.873741 
L 165.542787 104.234136 
L 165.579486 104.18765 
L 167.000252 102.325879 
L 167.09462 102.438056 
L 168.483929 103.966517 
L 168.5049 103.940972 
L 168.892858 103.637436 
L 169.506252 103.728981 
L 169.7579 104.179221 
L 170.387021 105.344509 
L 170.780222 105.940241 
L 171.115754 106.431948 
L 171.367402 106.52399 
L 171.592837 106.605233 
L 172.180017 106.6743 
L 172.562733 107.340895 
L 172.588946 107.309453 
L 172.887779 107.123097 
L 173.30195 106.982992 
L 173.626996 106.768385 
L 174.334757 106.612636 
L 175.336109 105.273827 
L 176.379402 103.216743 
L 176.819787 102.891128 
L 177.228715 102.776571 
L 178.009874 101.767585 
L 178.450259 101.089717 
L 179.262874 100.393686 
L 180.615485 100.512006 
L 182.492364 102.3034 
L 183.168669 102.40546 
L 183.394104 102.533617 
L 183.420317 102.507 
L 183.970799 102.10263 
L 184.117594 101.996958 
L 184.280117 101.917478 
L 184.395455 101.807453 
L 186.136024 100.223535 
L 187.074464 100.125635 
L 187.236987 100.122173 
L 187.598731 100.236335 
L 187.876593 100.354068 
L 188.269794 100.247079 
L 188.526685 99.86058 
L 188.804547 99.391883 
L 189.066681 99.292185 
L 189.454639 98.800307 
L 189.863568 98.57337 
L 190.14143 98.688088 
L 190.707639 99.08177 
L 190.880647 98.977986 
L 191.646078 98.427844 
L 192.600246 98.562179 
L 192.830923 98.926269 
L 193.208396 99.396089 
L 193.874216 99.297828 
L 194.72353 98.687347 
L 194.907024 98.705517 
L 195.672455 98.829473 
L 196.139053 99.108085 
L 196.359245 99.001052 
L 197.103706 98.505124 
L 198.304279 98.642221 
L 198.991069 99.398324 
L 199.620191 100.270555 
L 200.810278 100.390433 
L 201.103868 100.498711 
L 201.769688 100.391994 
L 202.603274 99.552249 
L 203.106571 98.591338 
L 203.457831 98.707545 
L 203.777634 98.839776 
L 204.029282 98.775448 
L 204.207533 98.671037 
L 204.532579 98.544272 
L 205.549659 99.257793 
L 207.19586 99.392531 
L 207.526148 99.518994 
L 207.809253 99.631631 
L 208.186726 99.794917 
L 209.392541 99.911191 
L 209.56555 99.983076 
L 209.738558 100.091872 
L 210.54593 100.594204 
L 211.101654 100.486371 
L 211.437186 100.366013 
L 212.129219 100.26088 
L 212.611545 99.752357 
L 213.272123 98.945683 
L 213.623382 98.819746 
L 213.911729 98.717242 
L 214.231533 98.615817 
L 214.629976 98.734623 
L 215.778123 99.486841 
L 215.998315 99.599473 
L 216.270934 99.669212 
L 216.454428 99.780732 
L 217.392867 100.628801 
L 217.6917 100.912642 
L 217.702185 100.901039 
L 217.980047 100.688909 
L 218.818875 100.188485 
L 218.824118 100.196202 
L 219.10198 100.408875 
L 219.647218 100.675062 
L 220.690511 100.788233 
L 221.073227 100.928844 
L 221.503126 101.03856 
L 222.341955 102.052656 
L 222.625059 102.117874 
L 222.866222 102.224139 
L 224.685431 103.636064 
L 225.214942 104.483513 
L 225.539988 104.742372 
L 225.901733 104.853201 
L 227.243858 104.709115 
L 227.558419 104.618223 
L 228.014532 104.499176 
L 228.61744 103.937772 
L 228.994912 103.602225 
L 229.524423 103.703094 
L 229.723644 103.703024 
L 230.074904 103.586961 
L 231.165381 102.964166 
L 231.836443 103.063944 
L 236.633493 106.327694 
L 237.72397 107.875664 
L 238.756778 110.182024 
L 239.920652 110.980639 
L 240.796179 111.859598 
L 241.063556 112.133494 
L 241.34666 112.297028 
L 245.498861 111.886169 
L 245.844878 111.61725 
L 246.28002 111.477308 
L 246.783317 111.270385 
L 247.197488 111.37376 
L 247.485836 111.314323 
L 247.82661 111.374601 
L 248.167384 111.242951 
L 249.247375 110.660581 
L 250.526589 111.46859 
L 251.223865 112.445402 
L 251.454542 112.441842 
L 251.905413 112.300344 
L 252.230459 112.220124 
L 253.672195 113.090414 
L 253.923843 113.299927 
L 254.788885 113.614465 
L 255.276454 113.686631 
L 255.884605 113.866317 
L 256.178195 113.733446 
L 256.702463 113.52439 
L 256.996052 113.392746 
L 257.509835 113.19539 
L 258.196626 113.037511 
L 259.412927 112.395342 
L 259.842826 112.475729 
L 260.367094 112.856244 
L 260.597772 112.939852 
L 260.90709 113.029508 
L 261.085341 112.994045 
L 261.850772 112.646628 
L 262.783968 112.475971 
L 263.460274 112.18849 
L 263.958328 112.048584 
L 264.257161 111.995877 
L 264.634633 112.055462 
L 265.158901 112.131326 
L 265.43152 112.2536 
L 266.259863 112.529932 
L 266.68452 112.612911 
L 266.915198 112.600997 
L 267.465679 112.14218 
L 267.979462 111.721875 
L 268.508972 111.852808 
L 268.68198 111.736649 
L 269.148579 111.378546 
L 269.531294 111.282117 
L 271.675549 111.273858 
L 271.927198 111.512038 
L 273.935143 113.652188 
L 274.275917 113.96208 
L 274.669118 114.259079 
L 275.874934 115.264087 
L 276.661335 115.488576 
L 276.907741 115.360581 
L 277.243273 115.292876 
L 278.49103 115.30903 
L 279.282674 115.529892 
L 279.68636 115.610133 
L 280.000921 115.625899 
L 280.278783 115.715132 
L 280.593344 115.968793 
L 280.797808 116.01064 
L 281.537026 115.844721 
L 283.188469 115.026258 
L 283.508272 115.114486 
L 284.226519 115.297278 
L 285.164958 115.340093 
L 285.689226 115.677382 
L 286.03 115.835728 
L 286.449414 115.891154 
L 287.14669 115.627108 
L 287.471736 115.49241 
L 288.651339 114.966222 
L 289.3591 115.027965 
L 289.830941 115.103022 
L 290.245113 114.964867 
L 290.528217 114.933171 
L 290.675012 114.878448 
L 291.251707 114.447732 
L 291.540054 114.319971 
L 291.954226 114.056014 
L 292.918878 114.103682 
L 293.589941 114.544613 
L 293.873045 114.540941 
L 294.355372 114.409561 
L 295.047405 114.255791 
L 295.398665 114.194761 
L 296.200794 114.033247 
L 296.531083 113.983883 
L 296.882342 114.008222 
L 297.03438 114.013368 
L 297.626803 114.131053 
L 298.077673 114.019262 
L 299.802514 114.02425 
L 300.803865 114.300314 
L 301.176095 114.232468 
L 301.878614 114.078795 
L 303.551028 113.349388 
L 304.195877 113.203451 
L 305.087133 112.512893 
L 306.35586 111.761018 
L 306.722848 111.567999 
L 307.834295 111.625538 
L 308.143613 111.629172 
L 309.548651 111.669822 
L 309.774086 111.711455 
L 310.083404 111.805785 
L 310.371751 111.903134 
L 311.310191 111.573416 
L 312.196203 111.64028 
L 313.134642 112.259826 
L 313.622211 112.148665 
L 313.962985 112.241493 
L 314.602592 112.366069 
L 315.771709 111.934302 
L 316.227822 111.987935 
L 320.233228 111.688318 
L 321.958068 110.32544 
L 322.346027 110.41791 
L 322.865052 110.68316 
L 324.474554 111.162421 
L 324.637077 111.208858 
L 324.972608 111.213793 
L 325.281926 111.090111 
L 325.77998 110.8083 
L 326.141725 110.903821 
L 327.531035 111.291792 
L 328.904616 111.127196 
L 329.192963 110.945813 
L 329.502281 110.931187 
L 329.790629 110.811007 
L 330.162859 110.641964 
L 330.964988 110.502644 
L 331.767118 109.979179 
L 332.354298 109.606876 
L 332.778955 109.400469 
L 333.08303 109.281097 
L 333.691181 109.137723 
L 334.031955 109.255885 
L 335.169616 109.547305 
L 335.66767 109.216603 
L 336.648051 108.56368 
L 338.074059 108.630357 
L 338.283766 108.587787 
L 339.573465 108.172446 
L 340.359866 108.334543 
L 341.009958 108.425787 
L 342.299657 109.234413 
L 342.928778 109.335235 
L 344.789929 109.165809 
L 346.194966 108.713554 
L 347.966991 109.205666 
L 348.74815 109.071166 
L 349.618435 108.842189 
L 351.49007 109.360385 
L 352.145405 109.450859 
L 352.480936 109.447959 
L 352.769284 109.450359 
L 353.335493 109.752297 
L 353.786363 110.203081 
L 355.647514 111.356834 
L 356.63838 111.428212 
L 356.973911 111.524269 
L 359.705346 111.30853 
L 360.12476 111.263192 
L 360.528446 111.277861 
L 363.113086 110.386173 
L 363.611141 110.259554 
L 364.229777 110.140436 
L 365.414622 110.209423 
L 366.164325 110.573492 
L 366.646651 110.607922 
L 366.893057 110.710016 
L 367.265287 110.941387 
L 367.627032 111.149045 
L 368.91673 110.99349 
L 369.34663 110.949731 
L 369.923324 111.012086 
L 370.840793 110.783694 
L 371.973211 110.855538 
L 372.345441 110.963607 
L 372.937864 111.053093 
L 373.367763 111.068262 
L 373.739993 111.164925 
L 374.217077 111.340567 
L 374.568336 111.218811 
L 374.935324 111.093286 
L 375.312797 111.322804 
L 375.569688 111.355868 
L 376.272207 111.222376 
L 376.696863 111.058859 
L 377.284043 111.146993 
L 378.096658 111.529875 
L 378.788692 111.394015 
L 379.208106 111.35845 
L 379.480725 111.458069 
L 380.004993 111.916963 
L 380.906733 112.623596 
L 381.420516 112.811805 
L 383.507101 113.300413 
L 383.868846 113.285569 
L 385.137574 113.760774 
L 386.385331 114.38862 
L 387.281829 114.524537 
L 387.706486 114.364028 
L 389.761616 114.163633 
L 389.955595 113.977948 
L 390.280641 113.728533 
L 391.407816 113.205656 
L 391.848201 113.041887 
L 393.111686 112.709541 
L 394.637306 112.762435 
L 394.988565 112.972959 
L 395.266427 113.077363 
L 395.759239 113.327484 
L 396.425059 113.589498 
L 398.721351 114.328481 
L 399.261347 114.513397 
L 401.568125 115.243347 
L 402.102878 115.423658 
L 403.292966 115.121453 
L 404.247133 115.536265 
L 407.702058 116.318155 
L 408.095259 116.410039 
L 408.907874 116.503702 
L 410.575045 115.551936 
L 411.555426 115.397457 
L 412.478137 114.938069 
L 413.275024 114.551676 
L 413.621041 114.462956 
L 413.883174 114.342162 
L 414.905497 113.826383 
L 415.555589 113.690161 
L 416.090342 113.484906 
L 416.677522 113.521301 
L 417.170333 113.475153 
L 419.828371 113.486107 
L 420.620015 113.572223 
L 422.025053 113.409542 
L 422.523107 113.131454 
L 423.19417 112.84815 
L 423.770864 112.937932 
L 424.562508 113.489817 
L 424.966195 113.773495 
L 426.103856 114.258682 
L 426.455115 114.355582 
L 427.000353 114.519214 
L 429.55878 115.031714 
L 433.459332 114.98333 
L 433.700495 114.9269 
L 434.743788 114.710551 
L 435.587859 114.78815 
L 436.096399 114.795823 
L 436.856587 114.655989 
L 437.108235 114.69114 
L 437.721629 114.882747 
L 438.371721 114.793804 
L 439.15288 114.864225 
L 441.67985 114.874898 
L 442.104507 114.965505 
L 442.371884 114.916574 
L 444.468955 114.379016 
L 445.307783 114.461145 
L 448.306594 114.239552 
L 448.773193 114.099324 
L 449.549109 114.180595 
L 450.209686 114.385719 
L 450.996088 114.467068 
L 451.237251 114.409519 
L 452.123264 114.256478 
L 452.925393 114.529665 
L 453.921502 114.603773 
L 454.665962 114.660567 
L 455.373724 114.564364 
L 455.945175 114.653451 
L 456.296435 114.703717 
L 456.810217 114.573811 
L 458.708066 113.892779 
L 459.971552 113.318077 
L 462.88648 112.581516 
L 463.305895 112.679197 
L 463.735794 112.66331 
L 465.507819 112.269072 
L 466.247037 112.136387 
L 469.581379 111.303619 
L 470.262928 111.174395 
L 471.977283 110.810934 
L 474.923668 110.626201 
L 475.78871 110.275155 
L 476.333948 110.115192 
L 476.873944 110.08322 
L 477.833354 109.950949 
L 480.805952 109.259906 
L 481.56614 109.496028 
L 482.221475 109.592436 
L 483.023604 109.845355 
L 483.9935 109.712925 
L 484.916211 109.582145 
L 485.503391 109.458991 
L 488.748608 108.717744 
L 492.088194 108.543659 
L 493.052846 108.408646 
L 493.650512 108.426593 
L 494.945453 108.209513 
L 496.450101 108.073235 
L 497.053009 108.033327 
L 497.440967 108.005787 
L 497.980963 107.983159 
L 500.770067 107.826567 
L 501.530256 107.750657 
L 503.669268 107.605852 
L 504.356059 107.550221 
L 505.698184 107.419396 
L 508.272339 106.899485 
L 509.184565 106.99745 
L 510.180673 107.325016 
L 510.52669 107.358243 
L 512.078523 107.446349 
L 512.833468 107.657744 
L 513.263368 107.63568 
L 513.735209 107.635593 
L 517.520422 107.46871 
L 518.511288 107.131022 
L 519.413028 107.029362 
L 519.958267 107.032447 
L 521.420974 106.572546 
L 524.393572 105.333459 
L 525.693756 105.429569 
L 526.181325 105.616396 
L 527.193162 105.715448 
L 529.997994 106.797518 
L 532.137007 106.659711 
L 533.625927 106.430075 
L 534.3966 106.635081 
L 535.513291 106.750185 
L 535.979889 106.853854 
L 537.285316 107.279685 
L 538.228998 107.178021 
L 539.812286 107.267648 
L 540.630144 107.318015 
L 541.374604 107.418307 
L 541.736349 107.44785 
L 545.726026 107.283314 
L 546.41806 107.101862 
L 546.842717 107.206582 
L 547.880767 107.299554 
L 549.091825 107.142896 
L 549.789101 107.166672 
L 550.62793 107.26616 
L 551.461515 107.316239 
L 552.03821 107.075237 
L 553.794507 106.442395 
L 555.042264 106.574413 
L 556.730406 106.319479 
L 557.417197 106.200864 
L 558.329423 106.116788 
L 558.685925 106.073234 
L 560.499891 105.795097 
L 560.83018 105.681621 
L 561.438331 105.546455 
L 561.842017 105.43164 
L 562.869582 105.326418 
L 563.687439 105.429795 
L 564.583937 105.490688 
L 566.109556 105.36668 
L 566.466058 105.338136 
L 567.063724 105.34132 
L 567.818669 105.295659 
L 568.861962 105.608559 
L 569.774188 105.847901 
L 573.035133 106.356456 
L 573.470275 106.462237 
L 573.952602 106.5319 
L 574.833371 106.459751 
L 575.604045 106.340282 
L 577.596262 106.037941 
L 578.193928 105.921499 
L 578.927903 105.882369 
L 579.29489 105.839674 
L 579.887313 105.71878 
L 580.579346 105.735942 
L 581.559727 105.647831 
L 583.441848 105.740922 
L 585.974061 106.098457 
L 586.660852 105.980995 
L 586.959684 105.980111 
L 590.173446 106.682558 
L 591.714793 107.141699 
L 592.291487 107.136821 
L 593.927203 107.228393 
L 595.274571 107.356815 
L 597.906395 107.43479 
L 599.080755 107.530188 
L 601.314135 107.612719 
L 601.943256 107.835175 
L 603.290625 108.206515 
L 603.893532 108.30908 
L 604.947311 108.571464 
L 606.299921 108.692626 
L 607.893695 108.485459 
L 608.396992 108.459864 
L 610.986875 108.46321 
L 610.986875 108.46321 
" clip-path="url(#p476f594303)" style="fill: none; stroke: #1f2937; stroke-linecap: square"/>
   </g>
   <g id="line2d_26">
    <path d="M 60.51125 108.46321 
L 637.2 108.46321 
" clip-path="url(#p476f594303)" style="fill: none; stroke-dasharray: 2.96,1.28; stroke-dashoffset: 0; stroke: #888888; stroke-width: 0.8"/>
   </g>
   <g id="patch_3">
    <path d="M 60.51125 282.04 
L 60.51125 26.88 
" style="fill: none; stroke: #000000; stroke-width: 0.8; stroke-linejoin: miter; stroke-linecap: square"/>
   </g>
   <g id="patch_4">
    <path d="M 637.2 282.04 
L 637.2 26.88 
" style="fill: none; stroke: #000000; stroke-width: 0.8; stroke-linejoin: miter; stroke-linecap: square"/>
   </g>
   <g id="patch_5">
    <path d="M 60.51125 282.04 
L 637.2 282.04 
" style="fill: none; stroke: #000000; stroke-width: 0.8; stroke-linejoin: miter; stroke-linecap: square"/>
   </g>
   <g id="patch_6">
    <path d="M 60.51125 26.88 
L 637.2 26.88 
" style="fill: none; stroke: #000000; stroke-width: 0.8; stroke-linejoin: miter; stroke-linecap: square"/>
   </g>
   <g id="text_15">
    <!-- Running mean — seats_at_50_50  (canonical ReCom ensemble) -->
    <g transform="translate(157.771562 20.88) scale(0.12 -0.12)">
     <defs>
      <path id="DejaVuSans-2014" d="M 313 1978 
L 6088 1978 
L 6088 1528 
L 313 1528 
L 313 1978 
z
" transform="scale(0.015625)"/>
      <path id="DejaVuSans-28" d="M 1984 4856 
Q 1566 4138 1362 3434 
Q 1159 2731 1159 2009 
Q 1159 1288 1364 580 
Q 1569 -128 1984 -844 
L 1484 -844 
Q 1016 -109 783 600 
Q 550 1309 550 2009 
Q 550 2706 781 3412 
Q 1013 4119 1484 4856 
L 1984 4856 
z
" transform="scale(0.015625)"/>
      <path id="DejaVuSans-63" d="M 3122 3366 
L 3122 2828 
Q 2878 2963 2633 3030 
Q 2388 3097 2138 3097 
Q 1578 3097 1268 2742 
Q 959 2388 959 1747 
Q 959 1106 1268 751 
Q 1578 397 2138 397 
Q 2388 397 2633 464 
Q 2878 531 3122 666 
L 3122 134 
Q 2881 22 2623 -34 
Q 2366 -91 2075 -91 
Q 1284 -91 818 406 
Q 353 903 353 1747 
Q 353 2603 823 3093 
Q 1294 3584 2113 3584 
Q 2378 3584 2631 3529 
Q 2884 3475 3122 3366 
z
" transform="scale(0.015625)"/>
      <path id="DejaVuSans-43" d="M 4122 4306 
L 4122 3641 
Q 3803 3938 3442 4084 
Q 3081 4231 2675 4231 
Q 1875 4231 1450 3742 
Q 1025 3253 1025 2328 
Q 1025 1406 1450 917 
Q 1875 428 2675 428 
Q 3081 428 3442 575 
Q 3803 722 4122 1019 
L 4122 359 
Q 3791 134 3420 21 
Q 3050 -91 2638 -91 
Q 1578 -91 968 557 
Q 359 1206 359 2328 
Q 359 3453 968 4101 
Q 1578 4750 2638 4750 
Q 3056 4750 3426 4639 
Q 3797 4528 4122 4306 
z
" transform="scale(0.015625)"/>
      <path id="DejaVuSans-62" d="M 3116 1747 
Q 3116 2381 2855 2742 
Q 2594 3103 2138 3103 
Q 1681 3103 1420 2742 
Q 1159 2381 1159 1747 
Q 1159 1113 1420 752 
Q 1681 391 2138 391 
Q 2594 391 2855 752 
Q 3116 1113 3116 1747 
z
M 1159 2969 
Q 1341 3281 1617 3432 
Q 1894 3584 2278 3584 
Q 2916 3584 3314 3078 
Q 3713 2572 3713 1747 
Q 3713 922 3314 415 
Q 2916 -91 2278 -91 
Q 1894 -91 1617 61 
Q 1341 213 1159 525 
L 1159 0 
L 581 0 
L 581 4863 
L 1159 4863 
L 1159 2969 
z
" transform="scale(0.015625)"/>
      <path id="DejaVuSans-29" d="M 513 4856 
L 1013 4856 
Q 1481 4119 1714 3412 
Q 1947 2706 1947 2009 
Q 1947 1309 1714 600 
Q 1481 -109 1013 -844 
L 513 -844 
Q 928 -128 1133 580 
Q 1338 1288 1338 2009 
Q 1338 2731 1133 3434 
Q 928 4138 513 4856 
z
" transform="scale(0.015625)"/>
     </defs>
     <use xlink:href="#DejaVuSans-52"/>
     <use xlink:href="#DejaVuSans-75" transform="translate(64.982422 0)"/>
     <use xlink:href="#DejaVuSans-6e" transform="translate(128.361328 0)"/>
     <use xlink:href="#DejaVuSans-6e" transform="translate(191.740234 0)"/>
     <use xlink:href="#DejaVuSans-69" transform="translate(255.119141 0)"/>
     <use xlink:href="#DejaVuSans-6e" transform="translate(282.902344 0)"/>
     <use xlink:href="#DejaVuSans-67" transform="translate(346.28125 0)"/>
     <use xlink:href="#DejaVuSans-20" transform="translate(409.757812 0)"/>
     <use xlink:href="#DejaVuSans-6d" transform="translate(441.544922 0)"/>
     <use xlink:href="#DejaVuSans-65" transform="translate(538.957031 0)"/>
     <use xlink:href="#DejaVuSans-61" transform="translate(600.480469 0)"/>
     <use xlink:href="#DejaVuSans-6e" transform="translate(661.759766 0)"/>
     <use xlink:href="#DejaVuSans-20" transform="translate(725.138672 0)"/>
     <use xlink:href="#DejaVuSans-2014" transform="translate(756.925781 0)"/>
     <use xlink:href="#DejaVuSans-20" transform="translate(856.925781 0)"/>
     <use xlink:href="#DejaVuSans-73" transform="translate(888.712891 0)"/>
     <use xlink:href="#DejaVuSans-65" transform="translate(940.8125 0)"/>
     <use xlink:href="#DejaVuSans-61" transform="translate(1002.335938 0)"/>
     <use xlink:href="#DejaVuSans-74" transform="translate(1063.615234 0)"/>
     <use xlink:href="#DejaVuSans-73" transform="translate(1102.824219 0)"/>
     <use xlink:href="#DejaVuSans-5f" transform="translate(1154.923828 0)"/>
     <use xlink:href="#DejaVuSans-61" transform="translate(1204.923828 0)"/>
     <use xlink:href="#DejaVuSans-74" transform="translate(1266.203125 0)"/>
     <use xlink:href="#DejaVuSans-5f" transform="translate(1305.412109 0)"/>
     <use xlink:href="#DejaVuSans-35" transform="translate(1355.412109 0)"/>
     <use xlink:href="#DejaVuSans-30" transform="translate(1419.035156 0)"/>
     <use xlink:href="#DejaVuSans-5f" transform="translate(1482.658203 0)"/>
     <use xlink:href="#DejaVuSans-35" transform="translate(1532.658203 0)"/>
     <use xlink:href="#DejaVuSans-30" transform="translate(1596.28125 0)"/>
     <use xlink:href="#DejaVuSans-20" transform="translate(1659.904297 0)"/>
     <use xlink:href="#DejaVuSans-20" transform="translate(1691.691406 0)"/>
     <use xlink:href="#DejaVuSans-28" transform="translate(1723.478516 0)"/>
     <use xlink:href="#DejaVuSans-63" transform="translate(1762.492188 0)"/>
     <use xlink:href="#DejaVuSans-61" transform="translate(1817.472656 0)"/>
     <use xlink:href="#DejaVuSans-6e" transform="translate(1878.751953 0)"/>
     <use xlink:href="#DejaVuSans-6f" transform="translate(1942.130859 0)"/>
     <use xlink:href="#DejaVuSans-6e" transform="translate(2003.3125 0)"/>
     <use xlink:href="#DejaVuSans-69" transform="translate(2066.691406 0)"/>
     <use xlink:href="#DejaVuSans-63" transform="translate(2094.474609 0)"/>
     <use xlink:href="#DejaVuSans-61" transform="translate(2149.455078 0)"/>
     <use xlink:href="#DejaVuSans-6c" transform="translate(2210.734375 0)"/>
     <use xlink:href="#DejaVuSans-20" transform="translate(2238.517578 0)"/>
     <use xlink:href="#DejaVuSans-52" transform="translate(2270.304688 0)"/>
     <use xlink:href="#DejaVuSans-65" transform="translate(2335.287109 0)"/>
     <use xlink:href="#DejaVuSans-43" transform="translate(2396.810547 0)"/>
     <use xlink:href="#DejaVuSans-6f" transform="translate(2466.634766 0)"/>
     <use xlink:href="#DejaVuSans-6d" transform="translate(2527.816406 0)"/>
     <use xlink:href="#DejaVuSans-20" transform="translate(2625.228516 0)"/>
     <use xlink:href="#DejaVuSans-65" transform="translate(2657.015625 0)"/>
     <use xlink:href="#DejaVuSans-6e" transform="translate(2718.539062 0)"/>
     <use xlink:href="#DejaVuSans-73" transform="translate(2781.917969 0)"/>
     <use xlink:href="#DejaVuSans-65" transform="translate(2834.017578 0)"/>
     <use xlink:href="#DejaVuSans-6d" transform="translate(2895.541016 0)"/>
     <use xlink:href="#DejaVuSans-62" transform="translate(2992.953125 0)"/>
     <use xlink:href="#DejaVuSans-6c" transform="translate(3056.429688 0)"/>
     <use xlink:href="#DejaVuSans-65" transform="translate(3084.212891 0)"/>
     <use xlink:href="#DejaVuSans-29" transform="translate(3145.736328 0)"/>
    </g>
   </g>
   <g id="legend_1">
    <g id="patch_7">
     <path d="M 496.306406 47.290312 
L 630.9 47.290312 
Q 632.7 47.290312 632.7 45.490312 
L 632.7 33.18 
Q 632.7 31.38 630.9 31.38 
L 496.306406 31.38 
Q 494.506406 31.38 494.506406 33.18 
L 494.506406 45.490312 
Q 494.506406 47.290312 496.306406 47.290312 
z
" style="fill: #ffffff; opacity: 0.8; stroke: #cccccc; stroke-linejoin: miter"/>
    </g>
    <g id="line2d_27">
     <path d="M 498.106406 38.668594 
L 507.106406 38.668594 
L 516.106406 38.668594 
" style="fill: none; stroke-dasharray: 2.96,1.28; stroke-dashoffset: 0; stroke: #888888; stroke-width: 0.8"/>
    </g>
    <g id="text_16">
     <!-- final mean = +0.63131 -->
     <g transform="translate(523.306406 41.818594) scale(0.09 -0.09)">
      <defs>
       <path id="DejaVuSans-3d" d="M 678 2906 
L 4684 2906 
L 4684 2381 
L 678 2381 
L 678 2906 
z
M 678 1631 
L 4684 1631 
L 4684 1100 
L 678 1100 
L 678 1631 
z
" transform="scale(0.015625)"/>
       <path id="DejaVuSans-2b" d="M 2944 4013 
L 2944 2272 
L 4684 2272 
L 4684 1741 
L 2944 1741 
L 2944 0 
L 2419 0 
L 2419 1741 
L 678 1741 
L 678 2272 
L 2419 2272 
L 2419 4013 
L 2944 4013 
z
" transform="scale(0.015625)"/>
      </defs>
      <use xlink:href="#DejaVuSans-66"/>
      <use xlink:href="#DejaVuSans-69" transform="translate(35.205078 0)"/>
      <use xlink:href="#DejaVuSans-6e" transform="translate(62.988281 0)"/>
      <use xlink:href="#DejaVuSans-61" transform="translate(126.367188 0)"/>
      <use xlink:href="#DejaVuSans-6c" transform="translate(187.646484 0)"/>
      <use xlink:href="#DejaVuSans-20" transform="translate(215.429688 0)"/>
      <use xlink:href="#DejaVuSans-6d" transform="translate(247.216797 0)"/>
      <use xlink:href="#DejaVuSans-65" transform="translate(344.628906 0)"/>
      <use xlink:href="#DejaVuSans-61" transform="translate(406.152344 0)"/>
      <use xlink:href="#DejaVuSans-6e" transform="translate(467.431641 0)"/>
      <use xlink:href="#DejaVuSans-20" transform="translate(530.810547 0)"/>
      <use xlink:href="#DejaVuSans-3d" transform="translate(562.597656 0)"/>
      <use xlink:href="#DejaVuSans-20" transform="translate(646.386719 0)"/>
      <use xlink:href="#DejaVuSans-2b" transform="translate(678.173828 0)"/>
      <use xlink:href="#DejaVuSans-30" transform="translate(761.962891 0)"/>
      <use xlink:href="#DejaVuSans-2e" transform="translate(825.585938 0)"/>
      <use xlink:href="#DejaVuSans-36" transform="translate(857.373047 0)"/>
      <use xlink:href="#DejaVuSans-33" transform="translate(920.996094 0)"/>
      <use xlink:href="#DejaVuSans-31" transform="translate(984.619141 0)"/>
      <use xlink:href="#DejaVuSans-33" transform="translate(1048.242188 0)"/>
      <use xlink:href="#DejaVuSans-31" transform="translate(1111.865234 0)"/>
     </g>
    </g>
   </g>
  </g>
 </g>
 <defs>
  <clipPath id="p476f594303">
   <rect x="60.51125" y="26.88" width="576.68875" height="255.16"/>
  </clipPath>
 </defs>
</svg>
