<?xml version="1.0" encoding="utf-8" standalone="no"?>
<!DOCTYPE svg PUBLIC "-//W3C//DTD SVG 1.1//EN"
  "http://www.w3.org/Graphics/SVG/1.1/DTD/svg11.dtd">
<svg xmlns:xlink="http://www.w3.org/1999/xlink" width="648pt" height="324pt" viewBox="0 0 648 324" xmlns="http://www.w3.org/2000/svg" version="1.1">
 <metadata>
  <rdf:RDF xmlns:dc="http://purl.org/dc/elements/1.1/" xmlns:cc="http://creativecommons.org/ns#" xmlns:rdf="http://www.w3.org/1999/02/22-rdf-syntax-ns#">
   <cc:Work>
    <dc:type rdf:resource="http://purl.org/dc/dcmitype/StillImage"/>
    <dc:date>2026-05-12T11:56:39.603335</dc:date>
    <dc:format>image/svg+xml</dc:format>
    <dc:creator>
     <cc:Agent>
      <dc:title>Matplotlib v3.10.8, https://matplotlib.org/</dc:title>
     </cc:Agent>
    </dc:creator>
   </cc:Work>
  </rdf:RDF>
 </metadata>
 <defs>
  <style type="text/css">*{stroke-linejoin: round; stroke-linecap: butt}</style>
 </defs>
 <g id="figure_1">
  <g id="patch_1">
   <path d="M 0 324 
L 648 324 
L 648 0 
L 0 0 
z
" style="fill: #ffffff"/>
  </g>
  <g id="axes_1">
   <g id="patch_2">
    <path d="M 54.12125 282.04 
L 637.2 282.04 
L 637.2 26.88 
L 54.12125 26.88 
z
" style="fill: #ffffff"/>
   </g>
   <g id="matplotlib.axis_1">
    <g id="xtick_1">
     <g id="line2d_1">
      <path d="M 80.622179 282.04 
L 80.622179 26.88 
" clip-path="url(#pd59a395af9)" style="fill: none; stroke-dasharray: 0.5,0.825; stroke-dashoffset: 0; stroke: #b0b0b0; stroke-opacity: 0.6; stroke-width: 0.5"/>
     </g>
     <g id="line2d_2">
      <defs>
       <path id="m9b50c621ad" d="M 0 0 
L 0 3.5 
" style="stroke: #000000; stroke-width: 0.8"/>
      </defs>
      <g>
       <use xlink:href="#m9b50c621ad" x="80.622179" y="282.04" style="stroke: #000000; stroke-width: 0.8"/>
      </g>
     </g>
     <g id="text_1">
      <!-- 0 -->
      <g transform="translate(77.440929 296.638438) scale(0.1 -0.1)">
       <defs>
        <path id="DejaVuSans-30" d="M 2034 4250 
Q 1547 4250 1301 3770 
Q 1056 3291 1056 2328 
Q 1056 1369 1301 889 
Q 1547 409 2034 409 
Q 2525 409 2770 889 
Q 3016 1369 3016 2328 
Q 3016 3291 2770 3770 
Q 2525 4250 2034 4250 
z
M 2034 4750 
Q 2819 4750 3233 4129 
Q 3647 3509 3647 2328 
Q 3647 1150 3233 529 
Q 2819 -91 2034 -91 
Q 1250 -91 836 529 
Q 422 1150 422 2328 
Q 422 3509 836 4129 
Q 1250 4750 2034 4750 
z
" transform="scale(0.015625)"/>
       </defs>
       <use xlink:href="#DejaVuSans-30"/>
      </g>
     </g>
    </g>
    <g id="xtick_2">
     <g id="line2d_3">
      <path d="M 146.881459 282.04 
L 146.881459 26.88 
" clip-path="url(#pd59a395af9)" style="fill: none; stroke-dasharray: 0.5,0.825; stroke-dashoffset: 0; stroke: #b0b0b0; stroke-opacity: 0.6; stroke-width: 0.5"/>
     </g>
     <g id="line2d_4">
      <g>
       <use xlink:href="#m9b50c621ad" x="146.881459" y="282.04" style="stroke: #000000; stroke-width: 0.8"/>
      </g>
     </g>
     <g id="text_2">
      <!-- 25000 -->
      <g transform="translate(130.975209 296.638438) scale(0.1 -0.1)">
       <defs>
        <path id="DejaVuSans-32" d="M 1228 531 
L 3431 531 
L 3431 0 
L 469 0 
L 469 531 
Q 828 903 1448 1529 
Q 2069 2156 2228 2338 
Q 2531 2678 2651 2914 
Q 2772 3150 2772 3378 
Q 2772 3750 2511 3984 
Q 2250 4219 1831 4219 
Q 1534 4219 1204 4116 
Q 875 4013 500 3803 
L 500 4441 
Q 881 4594 1212 4672 
Q 1544 4750 1819 4750 
Q 2544 4750 2975 4387 
Q 3406 4025 3406 3419 
Q 3406 3131 3298 2873 
Q 3191 2616 2906 2266 
Q 2828 2175 2409 1742 
Q 1991 1309 1228 531 
z
" transform="scale(0.015625)"/>
        <path id="DejaVuSans-35" d="M 691 4666 
L 3169 4666 
L 3169 4134 
L 1269 4134 
L 1269 2991 
Q 1406 3038 1543 3061 
Q 1681 3084 1819 3084 
Q 2600 3084 3056 2656 
Q 3513 2228 3513 1497 
Q 3513 744 3044 326 
Q 2575 -91 1722 -91 
Q 1428 -91 1123 -41 
Q 819 9 494 109 
L 494 744 
Q 775 591 1075 516 
Q 1375 441 1709 441 
Q 2250 441 2565 725 
Q 2881 1009 2881 1497 
Q 2881 1984 2565 2268 
Q 2250 2553 1709 2553 
Q 1456 2553 1204 2497 
Q 953 2441 691 2322 
L 691 4666 
z
" transform="scale(0.015625)"/>
       </defs>
       <use xlink:href="#DejaVuSans-32"/>
       <use xlink:href="#DejaVuSans-35" transform="translate(63.623047 0)"/>
       <use xlink:href="#DejaVuSans-30" transform="translate(127.246094 0)"/>
       <use xlink:href="#DejaVuSans-30" transform="translate(190.869141 0)"/>
       <use xlink:href="#DejaVuSans-30" transform="translate(254.492188 0)"/>
      </g>
     </g>
    </g>
    <g id="xtick_3">
     <g id="line2d_5">
      <path d="M 213.140739 282.04 
L 213.140739 26.88 
" clip-path="url(#pd59a395af9)" style="fill: none; stroke-dasharray: 0.5,0.825; stroke-dashoffset: 0; stroke: #b0b0b0; stroke-opacity: 0.6; stroke-width: 0.5"/>
     </g>
     <g id="line2d_6">
      <g>
       <use xlink:href="#m9b50c621ad" x="213.140739" y="282.04" style="stroke: #000000; stroke-width: 0.8"/>
      </g>
     </g>
     <g id="text_3">
      <!-- 50000 -->
      <g transform="translate(197.234489 296.638438) scale(0.1 -0.1)">
       <use xlink:href="#DejaVuSans-35"/>
       <use xlink:href="#DejaVuSans-30" transform="translate(63.623047 0)"/>
       <use xlink:href="#DejaVuSans-30" transform="translate(127.246094 0)"/>
       <use xlink:href="#DejaVuSans-30" transform="translate(190.869141 0)"/>
       <use xlink:href="#DejaVuSans-30" transform="translate(254.492188 0)"/>
      </g>
     </g>
    </g>
    <g id="xtick_4">
     <g id="line2d_7">
      <path d="M 279.40002 282.04 
L 279.40002 26.88 
" clip-path="url(#pd59a395af9)" style="fill: none; stroke-dasharray: 0.5,0.825; stroke-dashoffset: 0; stroke: #b0b0b0; stroke-opacity: 0.6; stroke-width: 0.5"/>
     </g>
     <g id="line2d_8">
      <g>
       <use xlink:href="#m9b50c621ad" x="279.40002" y="282.04" style="stroke: #000000; stroke-width: 0.8"/>
      </g>
     </g>
     <g id="text_4">
      <!-- 75000 -->
      <g transform="translate(263.49377 296.638438) scale(0.1 -0.1)">
       <defs>
        <path id="DejaVuSans-37" d="M 525 4666 
L 3525 4666 
L 3525 4397 
L 1831 0 
L 1172 0 
L 2766 4134 
L 525 4134 
L 525 4666 
z
" transform="scale(0.015625)"/>
       </defs>
       <use xlink:href="#DejaVuSans-37"/>
       <use xlink:href="#DejaVuSans-35" transform="translate(63.623047 0)"/>
       <use xlink:href="#DejaVuSans-30" transform="translate(127.246094 0)"/>
       <use xlink:href="#DejaVuSans-30" transform="translate(190.869141 0)"/>
       <use xlink:href="#DejaVuSans-30" transform="translate(254.492188 0)"/>
      </g>
     </g>
    </g>
    <g id="xtick_5">
     <g id="line2d_9">
      <path d="M 345.6593 282.04 
L 345.6593 26.88 
" clip-path="url(#pd59a395af9)" style="fill: none; stroke-dasharray: 0.5,0.825; stroke-dashoffset: 0; stroke: #b0b0b0; stroke-opacity: 0.6; stroke-width: 0.5"/>
     </g>
     <g id="line2d_10">
      <g>
       <use xlink:href="#m9b50c621ad" x="345.6593" y="282.04" style="stroke: #000000; stroke-width: 0.8"/>
      </g>
     </g>
     <g id="text_5">
      <!-- 100000 -->
      <g transform="translate(326.5718 296.638438) scale(0.1 -0.1)">
       <defs>
        <path id="DejaVuSans-31" d="M 794 531 
L 1825 531 
L 1825 4091 
L 703 3866 
L 703 4441 
L 1819 4666 
L 2450 4666 
L 2450 531 
L 3481 531 
L 3481 0 
L 794 0 
L 794 531 
z
" transform="scale(0.015625)"/>
       </defs>
       <use xlink:href="#DejaVuSans-31"/>
       <use xlink:href="#DejaVuSans-30" transform="translate(63.623047 0)"/>
       <use xlink:href="#DejaVuSans-30" transform="translate(127.246094 0)"/>
       <use xlink:href="#DejaVuSans-30" transform="translate(190.869141 0)"/>
       <use xlink:href="#DejaVuSans-30" transform="translate(254.492188 0)"/>
       <use xlink:href="#DejaVuSans-30" transform="translate(318.115234 0)"/>
      </g>
     </g>
    </g>
    <g id="xtick_6">
     <g id="line2d_11">
      <path d="M 411.91858 282.04 
L 411.91858 26.88 
" clip-path="url(#pd59a395af9)" style="fill: none; stroke-dasharray: 0.5,0.825; stroke-dashoffset: 0; stroke: #b0b0b0; stroke-opacity: 0.6; stroke-width: 0.5"/>
     </g>
     <g id="line2d_12">
      <g>
       <use xlink:href="#m9b50c621ad" x="411.91858" y="282.04" style="stroke: #000000; stroke-width: 0.8"/>
      </g>
     </g>
     <g id="text_6">
      <!-- 125000 -->
      <g transform="translate(392.83108 296.638438) scale(0.1 -0.1)">
       <use xlink:href="#DejaVuSans-31"/>
       <use xlink:href="#DejaVuSans-32" transform="translate(63.623047 0)"/>
       <use xlink:href="#DejaVuSans-35" transform="translate(127.246094 0)"/>
       <use xlink:href="#DejaVuSans-30" transform="translate(190.869141 0)"/>
       <use xlink:href="#DejaVuSans-30" transform="translate(254.492188 0)"/>
       <use xlink:href="#DejaVuSans-30" transform="translate(318.115234 0)"/>
      </g>
     </g>
    </g>
    <g id="xtick_7">
     <g id="line2d_13">
      <path d="M 478.17786 282.04 
L 478.17786 26.88 
" clip-path="url(#pd59a395af9)" style="fill: none; stroke-dasharray: 0.5,0.825; stroke-dashoffset: 0; stroke: #b0b0b0; stroke-opacity: 0.6; stroke-width: 0.5"/>
     </g>
     <g id="line2d_14">
      <g>
       <use xlink:href="#m9b50c621ad" x="478.17786" y="282.04" style="stroke: #000000; stroke-width: 0.8"/>
      </g>
     </g>
     <g id="text_7">
      <!-- 150000 -->
      <g transform="translate(459.09036 296.638438) scale(0.1 -0.1)">
       <use xlink:href="#DejaVuSans-31"/>
       <use xlink:href="#DejaVuSans-35" transform="translate(63.623047 0)"/>
       <use xlink:href="#DejaVuSans-30" transform="translate(127.246094 0)"/>
       <use xlink:href="#DejaVuSans-30" transform="translate(190.869141 0)"/>
       <use xlink:href="#DejaVuSans-30" transform="translate(254.492188 0)"/>
       <use xlink:href="#DejaVuSans-30" transform="translate(318.115234 0)"/>
      </g>
     </g>
    </g>
    <g id="xtick_8">
     <g id="line2d_15">
      <path d="M 544.43714 282.04 
L 544.43714 26.88 
" clip-path="url(#pd59a395af9)" style="fill: none; stroke-dasharray: 0.5,0.825; stroke-dashoffset: 0; stroke: #b0b0b0; stroke-opacity: 0.6; stroke-width: 0.5"/>
     </g>
     <g id="line2d_16">
      <g>
       <use xlink:href="#m9b50c621ad" x="544.43714" y="282.04" style="stroke: #000000; stroke-width: 0.8"/>
      </g>
     </g>
     <g id="text_8">
      <!-- 175000 -->
      <g transform="translate(525.34964 296.638438) scale(0.1 -0.1)">
       <use xlink:href="#DejaVuSans-31"/>
       <use xlink:href="#DejaVuSans-37" transform="translate(63.623047 0)"/>
       <use xlink:href="#DejaVuSans-35" transform="translate(127.246094 0)"/>
       <use xlink:href="#DejaVuSans-30" transform="translate(190.869141 0)"/>
       <use xlink:href="#DejaVuSans-30" transform="translate(254.492188 0)"/>
       <use xlink:href="#DejaVuSans-30" transform="translate(318.115234 0)"/>
      </g>
     </g>
    </g>
    <g id="xtick_9">
     <g id="line2d_17">
      <path d="M 610.69642 282.04 
L 610.69642 26.88 
" clip-path="url(#pd59a395af9)" style="fill: none; stroke-dasharray: 0.5,0.825; stroke-dashoffset: 0; stroke: #b0b0b0; stroke-opacity: 0.6; stroke-width: 0.5"/>
     </g>
     <g id="line2d_18">
      <g>
       <use xlink:href="#m9b50c621ad" x="610.69642" y="282.04" style="stroke: #000000; stroke-width: 0.8"/>
      </g>
     </g>
     <g id="text_9">
      <!-- 200000 -->
      <g transform="translate(591.60892 296.638438) scale(0.1 -0.1)">
       <use xlink:href="#DejaVuSans-32"/>
       <use xlink:href="#DejaVuSans-30" transform="translate(63.623047 0)"/>
       <use xlink:href="#DejaVuSans-30" transform="translate(127.246094 0)"/>
       <use xlink:href="#DejaVuSans-30" transform="translate(190.869141 0)"/>
       <use xlink:href="#DejaVuSans-30" transform="translate(254.492188 0)"/>
       <use xlink:href="#DejaVuSans-30" transform="translate(318.115234 0)"/>
      </g>
     </g>
    </g>
    <g id="text_10">
     <!-- Sample index -->
     <g transform="translate(311.642656 310.316563) scale(0.1 -0.1)">
      <defs>
       <path id="DejaVuSans-53" d="M 3425 4513 
L 3425 3897 
Q 3066 4069 2747 4153 
Q 2428 4238 2131 4238 
Q 1616 4238 1336 4038 
Q 1056 3838 1056 3469 
Q 1056 3159 1242 3001 
Q 1428 2844 1947 2747 
L 2328 2669 
Q 3034 2534 3370 2195 
Q 3706 1856 3706 1288 
Q 3706 609 3251 259 
Q 2797 -91 1919 -91 
Q 1588 -91 1214 -16 
Q 841 59 441 206 
L 441 856 
Q 825 641 1194 531 
Q 1563 422 1919 422 
Q 2459 422 2753 634 
Q 3047 847 3047 1241 
Q 3047 1584 2836 1778 
Q 2625 1972 2144 2069 
L 1759 2144 
Q 1053 2284 737 2584 
Q 422 2884 422 3419 
Q 422 4038 858 4394 
Q 1294 4750 2059 4750 
Q 2388 4750 2728 4690 
Q 3069 4631 3425 4513 
z
" transform="scale(0.015625)"/>
       <path id="DejaVuSans-61" d="M 2194 1759 
Q 1497 1759 1228 1600 
Q 959 1441 959 1056 
Q 959 750 1161 570 
Q 1363 391 1709 391 
Q 2188 391 2477 730 
Q 2766 1069 2766 1631 
L 2766 1759 
L 2194 1759 
z
M 3341 1997 
L 3341 0 
L 2766 0 
L 2766 531 
Q 2569 213 2275 61 
Q 1981 -91 1556 -91 
Q 1019 -91 701 211 
Q 384 513 384 1019 
Q 384 1609 779 1909 
Q 1175 2209 1959 2209 
L 2766 2209 
L 2766 2266 
Q 2766 2663 2505 2880 
Q 2244 3097 1772 3097 
Q 1472 3097 1187 3025 
Q 903 2953 641 2809 
L 641 3341 
Q 956 3463 1253 3523 
Q 1550 3584 1831 3584 
Q 2591 3584 2966 3190 
Q 3341 2797 3341 1997 
z
" transform="scale(0.015625)"/>
       <path id="DejaVuSans-6d" d="M 3328 2828 
Q 3544 3216 3844 3400 
Q 4144 3584 4550 3584 
Q 5097 3584 5394 3201 
Q 5691 2819 5691 2113 
L 5691 0 
L 5113 0 
L 5113 2094 
Q 5113 2597 4934 2840 
Q 4756 3084 4391 3084 
Q 3944 3084 3684 2787 
Q 3425 2491 3425 1978 
L 3425 0 
L 2847 0 
L 2847 2094 
Q 2847 2600 2669 2842 
Q 2491 3084 2119 3084 
Q 1678 3084 1418 2786 
Q 1159 2488 1159 1978 
L 1159 0 
L 581 0 
L 581 3500 
L 1159 3500 
L 1159 2956 
Q 1356 3278 1631 3431 
Q 1906 3584 2284 3584 
Q 2666 3584 2933 3390 
Q 3200 3197 3328 2828 
z
" transform="scale(0.015625)"/>
       <path id="DejaVuSans-70" d="M 1159 525 
L 1159 -1331 
L 581 -1331 
L 581 3500 
L 1159 3500 
L 1159 2969 
Q 1341 3281 1617 3432 
Q 1894 3584 2278 3584 
Q 2916 3584 3314 3078 
Q 3713 2572 3713 1747 
Q 3713 922 3314 415 
Q 2916 -91 2278 -91 
Q 1894 -91 1617 61 
Q 1341 213 1159 525 
z
M 3116 1747 
Q 3116 2381 2855 2742 
Q 2594 3103 2138 3103 
Q 1681 3103 1420 2742 
Q 1159 2381 1159 1747 
Q 1159 1113 1420 752 
Q 1681 391 2138 391 
Q 2594 391 2855 752 
Q 3116 1113 3116 1747 
z
" transform="scale(0.015625)"/>
       <path id="DejaVuSans-6c" d="M 603 4863 
L 1178 4863 
L 1178 0 
L 603 0 
L 603 4863 
z
" transform="scale(0.015625)"/>
       <path id="DejaVuSans-65" d="M 3597 1894 
L 3597 1613 
L 953 1613 
Q 991 1019 1311 708 
Q 1631 397 2203 397 
Q 2534 397 2845 478 
Q 3156 559 3463 722 
L 3463 178 
Q 3153 47 2828 -22 
Q 2503 -91 2169 -91 
Q 1331 -91 842 396 
Q 353 884 353 1716 
Q 353 2575 817 3079 
Q 1281 3584 2069 3584 
Q 2775 3584 3186 3129 
Q 3597 2675 3597 1894 
z
M 3022 2063 
Q 3016 2534 2758 2815 
Q 2500 3097 2075 3097 
Q 1594 3097 1305 2825 
Q 1016 2553 972 2059 
L 3022 2063 
z
" transform="scale(0.015625)"/>
       <path id="DejaVuSans-20" transform="scale(0.015625)"/>
       <path id="DejaVuSans-69" d="M 603 3500 
L 1178 3500 
L 1178 0 
L 603 0 
L 603 3500 
z
M 603 4863 
L 1178 4863 
L 1178 4134 
L 603 4134 
L 603 4863 
z
" transform="scale(0.015625)"/>
       <path id="DejaVuSans-6e" d="M 3513 2113 
L 3513 0 
L 2938 0 
L 2938 2094 
Q 2938 2591 2744 2837 
Q 2550 3084 2163 3084 
Q 1697 3084 1428 2787 
Q 1159 2491 1159 1978 
L 1159 0 
L 581 0 
L 581 3500 
L 1159 3500 
L 1159 2956 
Q 1366 3272 1645 3428 
Q 1925 3584 2291 3584 
Q 2894 3584 3203 3211 
Q 3513 2838 3513 2113 
z
" transform="scale(0.015625)"/>
       <path id="DejaVuSans-64" d="M 2906 2969 
L 2906 4863 
L 3481 4863 
L 3481 0 
L 2906 0 
L 2906 525 
Q 2725 213 2448 61 
Q 2172 -91 1784 -91 
Q 1150 -91 751 415 
Q 353 922 353 1747 
Q 353 2572 751 3078 
Q 1150 3584 1784 3584 
Q 2172 3584 2448 3432 
Q 2725 3281 2906 2969 
z
M 947 1747 
Q 947 1113 1208 752 
Q 1469 391 1925 391 
Q 2381 391 2643 752 
Q 2906 1113 2906 1747 
Q 2906 2381 2643 2742 
Q 2381 3103 1925 3103 
Q 1469 3103 1208 2742 
Q 947 2381 947 1747 
z
" transform="scale(0.015625)"/>
       <path id="DejaVuSans-78" d="M 3513 3500 
L 2247 1797 
L 3578 0 
L 2900 0 
L 1881 1375 
L 863 0 
L 184 0 
L 1544 1831 
L 300 3500 
L 978 3500 
L 1906 2253 
L 2834 3500 
L 3513 3500 
z
" transform="scale(0.015625)"/>
      </defs>
      <use xlink:href="#DejaVuSans-53"/>
      <use xlink:href="#DejaVuSans-61" transform="translate(63.476562 0)"/>
      <use xlink:href="#DejaVuSans-6d" transform="translate(124.755859 0)"/>
      <use xlink:href="#DejaVuSans-70" transform="translate(222.167969 0)"/>
      <use xlink:href="#DejaVuSans-6c" transform="translate(285.644531 0)"/>
      <use xlink:href="#DejaVuSans-65" transform="translate(313.427734 0)"/>
      <use xlink:href="#DejaVuSans-20" transform="translate(374.951172 0)"/>
      <use xlink:href="#DejaVuSans-69" transform="translate(406.738281 0)"/>
      <use xlink:href="#DejaVuSans-6e" transform="translate(434.521484 0)"/>
      <use xlink:href="#DejaVuSans-64" transform="translate(497.900391 0)"/>
      <use xlink:href="#DejaVuSans-65" transform="translate(561.376953 0)"/>
      <use xlink:href="#DejaVuSans-78" transform="translate(621.150391 0)"/>
     </g>
    </g>
   </g>
   <g id="matplotlib.axis_2">
    <g id="ytick_1">
     <g id="line2d_19">
      <path d="M 54.12125 270.391674 
L 637.2 270.391674 
" clip-path="url(#pd59a395af9)" style="fill: none; stroke-dasharray: 0.5,0.825; stroke-dashoffset: 0; stroke: #b0b0b0; stroke-opacity: 0.6; stroke-width: 0.5"/>
     </g>
     <g id="line2d_20">
      <defs>
       <path id="mc7b364cf1b" d="M 0 0 
L -3.5 0 
" style="stroke: #000000; stroke-width: 0.8"/>
      </defs>
      <g>
       <use xlink:href="#mc7b364cf1b" x="54.12125" y="270.391674" style="stroke: #000000; stroke-width: 0.8"/>
      </g>
     </g>
     <g id="text_11">
      <!-- 0.41 -->
      <g transform="translate(24.855625 274.190893) scale(0.1 -0.1)">
       <defs>
        <path id="DejaVuSans-2e" d="M 684 794 
L 1344 794 
L 1344 0 
L 684 0 
L 684 794 
z
" transform="scale(0.015625)"/>
        <path id="DejaVuSans-34" d="M 2419 4116 
L 825 1625 
L 2419 1625 
L 2419 4116 
z
M 2253 4666 
L 3047 4666 
L 3047 1625 
L 3713 1625 
L 3713 1100 
L 3047 1100 
L 3047 0 
L 2419 0 
L 2419 1100 
L 313 1100 
L 313 1709 
L 2253 4666 
z
" transform="scale(0.015625)"/>
       </defs>
       <use xlink:href="#DejaVuSans-30"/>
       <use xlink:href="#DejaVuSans-2e" transform="translate(63.623047 0)"/>
       <use xlink:href="#DejaVuSans-34" transform="translate(95.410156 0)"/>
       <use xlink:href="#DejaVuSans-31" transform="translate(159.033203 0)"/>
      </g>
     </g>
    </g>
    <g id="ytick_2">
     <g id="line2d_21">
      <path d="M 54.12125 219.800802 
L 637.2 219.800802 
" clip-path="url(#pd59a395af9)" style="fill: none; stroke-dasharray: 0.5,0.825; stroke-dashoffset: 0; stroke: #b0b0b0; stroke-opacity: 0.6; stroke-width: 0.5"/>
     </g>
     <g id="line2d_22">
      <g>
       <use xlink:href="#mc7b364cf1b" x="54.12125" y="219.800802" style="stroke: #000000; stroke-width: 0.8"/>
      </g>
     </g>
     <g id="text_12">
      <!-- 0.42 -->
      <g transform="translate(24.855625 223.600021) scale(0.1 -0.1)">
       <use xlink:href="#DejaVuSans-30"/>
       <use xlink:href="#DejaVuSans-2e" transform="translate(63.623047 0)"/>
       <use xlink:href="#DejaVuSans-34" transform="translate(95.410156 0)"/>
       <use xlink:href="#DejaVuSans-32" transform="translate(159.033203 0)"/>
      </g>
     </g>
    </g>
    <g id="ytick_3">
     <g id="line2d_23">
      <path d="M 54.12125 169.209929 
L 637.2 169.209929 
" clip-path="url(#pd59a395af9)" style="fill: none; stroke-dasharray: 0.5,0.825; stroke-dashoffset: 0; stroke: #b0b0b0; stroke-opacity: 0.6; stroke-width: 0.5"/>
     </g>
     <g id="line2d_24">
      <g>
       <use xlink:href="#mc7b364cf1b" x="54.12125" y="169.209929" style="stroke: #000000; stroke-width: 0.8"/>
      </g>
     </g>
     <g id="text_13">
      <!-- 0.43 -->
      <g transform="translate(24.855625 173.009148) scale(0.1 -0.1)">
       <defs>
        <path id="DejaVuSans-33" d="M 2597 2516 
Q 3050 2419 3304 2112 
Q 3559 1806 3559 1356 
Q 3559 666 3084 287 
Q 2609 -91 1734 -91 
Q 1441 -91 1130 -33 
Q 819 25 488 141 
L 488 750 
Q 750 597 1062 519 
Q 1375 441 1716 441 
Q 2309 441 2620 675 
Q 2931 909 2931 1356 
Q 2931 1769 2642 2001 
Q 2353 2234 1838 2234 
L 1294 2234 
L 1294 2753 
L 1863 2753 
Q 2328 2753 2575 2939 
Q 2822 3125 2822 3475 
Q 2822 3834 2567 4026 
Q 2313 4219 1838 4219 
Q 1578 4219 1281 4162 
Q 984 4106 628 3988 
L 628 4550 
Q 988 4650 1302 4700 
Q 1616 4750 1894 4750 
Q 2613 4750 3031 4423 
Q 3450 4097 3450 3541 
Q 3450 3153 3228 2886 
Q 3006 2619 2597 2516 
z
" transform="scale(0.015625)"/>
       </defs>
       <use xlink:href="#DejaVuSans-30"/>
       <use xlink:href="#DejaVuSans-2e" transform="translate(63.623047 0)"/>
       <use xlink:href="#DejaVuSans-34" transform="translate(95.410156 0)"/>
       <use xlink:href="#DejaVuSans-33" transform="translate(159.033203 0)"/>
      </g>
     </g>
    </g>
    <g id="ytick_4">
     <g id="line2d_25">
      <path d="M 54.12125 118.619057 
L 637.2 118.619057 
" clip-path="url(#pd59a395af9)" style="fill: none; stroke-dasharray: 0.5,0.825; stroke-dashoffset: 0; stroke: #b0b0b0; stroke-opacity: 0.6; stroke-width: 0.5"/>
     </g>
     <g id="line2d_26">
      <g>
       <use xlink:href="#mc7b364cf1b" x="54.12125" y="118.619057" style="stroke: #000000; stroke-width: 0.8"/>
      </g>
     </g>
     <g id="text_14">
      <!-- 0.44 -->
      <g transform="translate(24.855625 122.418276) scale(0.1 -0.1)">
       <use xlink:href="#DejaVuSans-30"/>
       <use xlink:href="#DejaVuSans-2e" transform="translate(63.623047 0)"/>
       <use xlink:href="#DejaVuSans-34" transform="translate(95.410156 0)"/>
       <use xlink:href="#DejaVuSans-34" transform="translate(159.033203 0)"/>
      </g>
     </g>
    </g>
    <g id="ytick_5">
     <g id="line2d_27">
      <path d="M 54.12125 68.028184 
L 637.2 68.028184 
" clip-path="url(#pd59a395af9)" style="fill: none; stroke-dasharray: 0.5,0.825; stroke-dashoffset: 0; stroke: #b0b0b0; stroke-opacity: 0.6; stroke-width: 0.5"/>
     </g>
     <g id="line2d_28">
      <g>
       <use xlink:href="#mc7b364cf1b" x="54.12125" y="68.028184" style="stroke: #000000; stroke-width: 0.8"/>
      </g>
     </g>
     <g id="text_15">
      <!-- 0.45 -->
      <g transform="translate(24.855625 71.827403) scale(0.1 -0.1)">
       <use xlink:href="#DejaVuSans-30"/>
       <use xlink:href="#DejaVuSans-2e" transform="translate(63.623047 0)"/>
       <use xlink:href="#DejaVuSans-34" transform="translate(95.410156 0)"/>
       <use xlink:href="#DejaVuSans-35" transform="translate(159.033203 0)"/>
      </g>
     </g>
    </g>
    <g id="text_16">
     <!-- Running mean of reock_proxy_median -->
     <g transform="translate(18.497813 250.119375) rotate(-90) scale(0.1 -0.1)">
      <defs>
       <path id="DejaVuSans-52" d="M 2841 2188 
Q 3044 2119 3236 1894 
Q 3428 1669 3622 1275 
L 4263 0 
L 3584 0 
L 2988 1197 
Q 2756 1666 2539 1819 
Q 2322 1972 1947 1972 
L 1259 1972 
L 1259 0 
L 628 0 
L 628 4666 
L 2053 4666 
Q 2853 4666 3247 4331 
Q 3641 3997 3641 3322 
Q 3641 2881 3436 2590 
Q 3231 2300 2841 2188 
z
M 1259 4147 
L 1259 2491 
L 2053 2491 
Q 2509 2491 2742 2702 
Q 2975 2913 2975 3322 
Q 2975 3731 2742 3939 
Q 2509 4147 2053 4147 
L 1259 4147 
z
" transform="scale(0.015625)"/>
       <path id="DejaVuSans-75" d="M 544 1381 
L 544 3500 
L 1119 3500 
L 1119 1403 
Q 1119 906 1312 657 
Q 1506 409 1894 409 
Q 2359 409 2629 706 
Q 2900 1003 2900 1516 
L 2900 3500 
L 3475 3500 
L 3475 0 
L 2900 0 
L 2900 538 
Q 2691 219 2414 64 
Q 2138 -91 1772 -91 
Q 1169 -91 856 284 
Q 544 659 544 1381 
z
M 1991 3584 
L 1991 3584 
z
" transform="scale(0.015625)"/>
       <path id="DejaVuSans-67" d="M 2906 1791 
Q 2906 2416 2648 2759 
Q 2391 3103 1925 3103 
Q 1463 3103 1205 2759 
Q 947 2416 947 1791 
Q 947 1169 1205 825 
Q 1463 481 1925 481 
Q 2391 481 2648 825 
Q 2906 1169 2906 1791 
z
M 3481 434 
Q 3481 -459 3084 -895 
Q 2688 -1331 1869 -1331 
Q 1566 -1331 1297 -1286 
Q 1028 -1241 775 -1147 
L 775 -588 
Q 1028 -725 1275 -790 
Q 1522 -856 1778 -856 
Q 2344 -856 2625 -561 
Q 2906 -266 2906 331 
L 2906 616 
Q 2728 306 2450 153 
Q 2172 0 1784 0 
Q 1141 0 747 490 
Q 353 981 353 1791 
Q 353 2603 747 3093 
Q 1141 3584 1784 3584 
Q 2172 3584 2450 3431 
Q 2728 3278 2906 2969 
L 2906 3500 
L 3481 3500 
L 3481 434 
z
" transform="scale(0.015625)"/>
       <path id="DejaVuSans-6f" d="M 1959 3097 
Q 1497 3097 1228 2736 
Q 959 2375 959 1747 
Q 959 1119 1226 758 
Q 1494 397 1959 397 
Q 2419 397 2687 759 
Q 2956 1122 2956 1747 
Q 2956 2369 2687 2733 
Q 2419 3097 1959 3097 
z
M 1959 3584 
Q 2709 3584 3137 3096 
Q 3566 2609 3566 1747 
Q 3566 888 3137 398 
Q 2709 -91 1959 -91 
Q 1206 -91 779 398 
Q 353 888 353 1747 
Q 353 2609 779 3096 
Q 1206 3584 1959 3584 
z
" transform="scale(0.015625)"/>
       <path id="DejaVuSans-66" d="M 2375 4863 
L 2375 4384 
L 1825 4384 
Q 1516 4384 1395 4259 
Q 1275 4134 1275 3809 
L 1275 3500 
L 2222 3500 
L 2222 3053 
L 1275 3053 
L 1275 0 
L 697 0 
L 697 3053 
L 147 3053 
L 147 3500 
L 697 3500 
L 697 3744 
Q 697 4328 969 4595 
Q 1241 4863 1831 4863 
L 2375 4863 
z
" transform="scale(0.015625)"/>
       <path id="DejaVuSans-72" d="M 2631 2963 
Q 2534 3019 2420 3045 
Q 2306 3072 2169 3072 
Q 1681 3072 1420 2755 
Q 1159 2438 1159 1844 
L 1159 0 
L 581 0 
L 581 3500 
L 1159 3500 
L 1159 2956 
Q 1341 3275 1631 3429 
Q 1922 3584 2338 3584 
Q 2397 3584 2469 3576 
Q 2541 3569 2628 3553 
L 2631 2963 
z
" transform="scale(0.015625)"/>
       <path id="DejaVuSans-63" d="M 3122 3366 
L 3122 2828 
Q 2878 2963 2633 3030 
Q 2388 3097 2138 3097 
Q 1578 3097 1268 2742 
Q 959 2388 959 1747 
Q 959 1106 1268 751 
Q 1578 397 2138 397 
Q 2388 397 2633 464 
Q 2878 531 3122 666 
L 3122 134 
Q 2881 22 2623 -34 
Q 2366 -91 2075 -91 
Q 1284 -91 818 406 
Q 353 903 353 1747 
Q 353 2603 823 3093 
Q 1294 3584 2113 3584 
Q 2378 3584 2631 3529 
Q 2884 3475 3122 3366 
z
" transform="scale(0.015625)"/>
       <path id="DejaVuSans-6b" d="M 581 4863 
L 1159 4863 
L 1159 1991 
L 2875 3500 
L 3609 3500 
L 1753 1863 
L 3688 0 
L 2938 0 
L 1159 1709 
L 1159 0 
L 581 0 
L 581 4863 
z
" transform="scale(0.015625)"/>
       <path id="DejaVuSans-5f" d="M 3263 -1063 
L 3263 -1509 
L -63 -1509 
L -63 -1063 
L 3263 -1063 
z
" transform="scale(0.015625)"/>
       <path id="DejaVuSans-79" d="M 2059 -325 
Q 1816 -950 1584 -1140 
Q 1353 -1331 966 -1331 
L 506 -1331 
L 506 -850 
L 844 -850 
Q 1081 -850 1212 -737 
Q 1344 -625 1503 -206 
L 1606 56 
L 191 3500 
L 800 3500 
L 1894 763 
L 2988 3500 
L 3597 3500 
L 2059 -325 
z
" transform="scale(0.015625)"/>
      </defs>
      <use xlink:href="#DejaVuSans-52"/>
      <use xlink:href="#DejaVuSans-75" transform="translate(64.982422 0)"/>
      <use xlink:href="#DejaVuSans-6e" transform="translate(128.361328 0)"/>
      <use xlink:href="#DejaVuSans-6e" transform="translate(191.740234 0)"/>
      <use xlink:href="#DejaVuSans-69" transform="translate(255.119141 0)"/>
      <use xlink:href="#DejaVuSans-6e" transform="translate(282.902344 0)"/>
      <use xlink:href="#DejaVuSans-67" transform="translate(346.28125 0)"/>
      <use xlink:href="#DejaVuSans-20" transform="translate(409.757812 0)"/>
      <use xlink:href="#DejaVuSans-6d" transform="translate(441.544922 0)"/>
      <use xlink:href="#DejaVuSans-65" transform="translate(538.957031 0)"/>
      <use xlink:href="#DejaVuSans-61" transform="translate(600.480469 0)"/>
      <use xlink:href="#DejaVuSans-6e" transform="translate(661.759766 0)"/>
      <use xlink:href="#DejaVuSans-20" transform="translate(725.138672 0)"/>
      <use xlink:href="#DejaVuSans-6f" transform="translate(756.925781 0)"/>
      <use xlink:href="#DejaVuSans-66" transform="translate(818.107422 0)"/>
      <use xlink:href="#DejaVuSans-20" transform="translate(853.3125 0)"/>
      <use xlink:href="#DejaVuSans-72" transform="translate(885.099609 0)"/>
      <use xlink:href="#DejaVuSans-65" transform="translate(923.962891 0)"/>
      <use xlink:href="#DejaVuSans-6f" transform="translate(985.486328 0)"/>
      <use xlink:href="#DejaVuSans-63" transform="translate(1046.667969 0)"/>
      <use xlink:href="#DejaVuSans-6b" transform="translate(1101.648438 0)"/>
      <use xlink:href="#DejaVuSans-5f" transform="translate(1159.558594 0)"/>
      <use xlink:href="#DejaVuSans-70" transform="translate(1209.558594 0)"/>
      <use xlink:href="#DejaVuSans-72" transform="translate(1273.035156 0)"/>
      <use xlink:href="#DejaVuSans-6f" transform="translate(1311.898438 0)"/>
      <use xlink:href="#DejaVuSans-78" transform="translate(1369.955078 0)"/>
      <use xlink:href="#DejaVuSans-79" transform="translate(1429.134766 0)"/>
      <use xlink:href="#DejaVuSans-5f" transform="translate(1488.314453 0)"/>
      <use xlink:href="#DejaVuSans-6d" transform="translate(1538.314453 0)"/>
      <use xlink:href="#DejaVuSans-65" transform="translate(1635.726562 0)"/>
      <use xlink:href="#DejaVuSans-64" transform="translate(1697.25 0)"/>
      <use xlink:href="#DejaVuSans-69" transform="translate(1760.726562 0)"/>
      <use xlink:href="#DejaVuSans-61" transform="translate(1788.509766 0)"/>
      <use xlink:href="#DejaVuSans-6e" transform="translate(1849.789062 0)"/>
     </g>
    </g>
   </g>
   <g id="line2d_29">
    <path d="M 80.62483 249.169127 
L 80.661935 270.441818 
L 80.733495 249.283586 
L 80.744096 244.251128 
L 80.866013 225.380149 
L 80.879265 228.439004 
L 80.881916 228.699972 
L 80.924321 221.950363 
L 80.937573 222.049581 
L 81.266219 189.856087 
L 81.565711 167.828695 
L 81.857252 140.416812 
L 82.082534 126.73161 
L 82.138192 127.697721 
L 82.159394 127.299948 
L 82.215052 128.02367 
L 82.230954 128.132541 
L 82.27336 127.172882 
L 82.421781 123.047602 
L 82.530446 117.379007 
L 83.023415 96.519341 
L 83.240746 91.569236 
L 83.847681 73.615122 
L 84.086214 66.087096 
L 84.096816 66.115402 
L 84.120669 66.10908 
L 84.133921 66.025444 
L 84.364503 63.925952 
L 84.587134 60.178773 
L 84.597736 60.319521 
L 84.634841 60.681773 
L 84.719653 60.472628 
L 84.77266 60.626813 
L 84.844221 61.059418 
L 85.191419 65.78822 
L 85.249727 65.060915 
L 85.26563 64.941933 
L 85.355742 65.131195 
L 85.517415 65.514396 
L 85.543919 65.405528 
L 85.830159 62.430773 
L 86.047489 59.442558 
L 86.240966 58.194917 
L 86.402639 57.882525 
L 86.415891 57.868881 
L 86.437094 57.98588 
L 86.643823 59.190196 
L 86.659725 59.147874 
L 86.77104 58.538839 
L 87.706621 45.230078 
L 87.889497 44.378184 
L 87.931903 44.574761 
L 88.045869 44.791667 
L 88.059121 44.689541 
L 88.082974 44.606022 
L 88.151884 44.809427 
L 88.175737 44.934978 
L 88.324158 46.956181 
L 88.55209 48.835219 
L 88.899288 50.384933 
L 89.116619 53.739705 
L 89.225284 55.055972 
L 89.288893 54.938677 
L 89.352502 54.77073 
L 89.386957 54.987304 
L 89.524776 55.55985 
L 89.569832 55.520711 
L 89.800415 55.049111 
L 89.83752 55.159365 
L 89.869324 55.405754 
L 89.954136 55.204563 
L 90.028347 55.035988 
L 90.076053 55.189084 
L 90.19797 56.053498 
L 90.303985 55.681409 
L 90.502763 54.964706 
L 90.510714 54.977467 
L 90.574323 55.281648 
L 90.592876 55.360953 
L 90.661785 55.167265 
L 91.199811 52.861316 
L 91.228965 52.922104 
L 91.247517 52.962513 
L 91.303175 52.779099 
L 91.573513 51.508986 
L 91.809396 50.101592 
L 91.880956 50.284505 
L 91.915411 50.189142 
L 92.156595 48.727714 
L 92.217553 48.86315 
L 92.323568 49.11089 
L 92.363324 48.887557 
L 92.538248 48.086241 
L 92.601857 48.198926 
L 92.684019 48.3031 
L 92.731725 48.241195 
L 92.774131 48.339259 
L 92.827139 48.184176 
L 93.105428 47.216453 
L 93.251198 47.281504 
L 93.367814 47.945729 
L 93.412871 48.119013 
L 93.471179 47.923277 
L 93.871385 46.15651 
L 93.874035 46.151647 
L 93.884637 46.321754 
L 94.327249 51.720923 
L 94.796364 54.274801 
L 94.926233 54.200937 
L 95.19392 54.126226 
L 95.246927 54.024344 
L 95.323788 54.107765 
L 95.678938 55.352907 
L 95.723994 55.258768 
L 96.235516 53.860853 
L 96.256719 53.869555 
L 96.375986 53.896313 
L 96.399839 53.81227 
L 96.569463 53.566535 
L 96.670177 53.401451 
L 96.876906 52.726749 
L 96.90606 52.754477 
L 96.916661 52.751757 
L 96.935214 52.651317 
L 97.33277 50.278645 
L 97.430833 50.3385 
L 97.597807 50.169215 
L 97.838991 49.382032 
L 97.844291 49.4016 
L 98.003314 49.564865 
L 98.135832 49.895713 
L 98.443275 51.186366 
L 98.54929 51.057409 
L 98.785173 51.379411 
L 98.83818 51.334532 
L 99.092616 50.67746 
L 99.471619 49.767885 
L 99.643893 49.713521 
L 99.712803 49.830695 
L 99.924833 50.214568 
L 99.97519 50.158133 
L 100.012295 50.123843 
L 100.025547 50.065237 
L 100.950526 45.846452 
L 101.157255 45.524975 
L 101.19436 45.617933 
L 101.297725 45.663337 
L 101.250018 45.588914 
L 101.313627 45.619915 
L 101.33483 45.594905 
L 101.395789 45.664443 
L 101.411691 45.666207 
L 101.504454 46.194152 
L 101.753589 47.072708 
L 102.246558 48.361795 
L 102.479791 49.656512 
L 102.522196 49.629007 
L 102.604358 49.574755 
L 102.641463 49.677365 
L 102.819038 49.931554 
L 102.83494 49.921654 
L 103.099977 49.880727 
L 103.11853 49.946574 
L 103.147684 49.957423 
L 103.213943 49.885762 
L 103.280203 49.839859 
L 103.33056 49.919748 
L 103.484281 50.304079 
L 103.566443 50.147004 
L 103.754619 49.915978 
L 103.75992 49.920771 
L 103.90304 50.05801 
L 103.966649 49.961812 
L 104.451667 49.12999 
L 104.502024 49.182532 
L 104.565633 49.074158 
L 104.886328 48.448154 
L 104.997643 48.166735 
L 105.061252 47.959772 
L 105.140763 48.052017 
L 105.19112 47.953956 
L 105.413751 47.352296 
L 105.493263 47.442494 
L 105.586026 47.533482 
L 105.61783 47.430332 
L 105.790104 47.067605 
L 105.856363 47.127609 
L 106.033938 47.195211 
L 106.102848 47.058326 
L 106.341381 46.669557 
L 106.537509 46.750539 
L 106.675328 47.11469 
L 106.752189 46.950498 
L 107.303466 45.98454 
L 107.446586 46.003066 
L 107.682469 46.080126 
L 107.804386 46.095755 
L 107.814988 46.121267 
L 107.836191 46.166856 
L 107.90245 46.039312 
L 108.143634 45.693252 
L 108.146284 45.696119 
L 108.419272 45.862005 
L 108.427224 45.842952 
L 108.562392 45.497862 
L 108.652505 45.645115 
L 108.75852 45.866031 
L 109.142824 46.939862 
L 109.246188 47.137528 
L 109.312447 47.289672 
L 109.370756 47.174972 
L 109.75771 46.319506 
L 110.377897 45.452372 
L 110.574024 45.513584 
L 110.767501 45.629389 
L 110.833761 45.721839 
L 111.504304 46.837777 
L 111.681879 47.290462 
L 111.920413 47.957654 
L 111.931014 47.943682 
L 112.063533 47.697072 
L 112.156296 47.826136 
L 112.559152 48.322177 
L 112.625411 48.2128 
L 112.784434 48.023108 
L 112.924903 47.982868 
L 113.144884 47.785225 
L 113.558342 46.521154 
L 113.656406 46.325006 
L 113.727966 46.387739 
L 113.90289 46.016664 
L 113.947947 45.90332 
L 114.032759 45.952619 
L 114.085766 45.827604 
L 114.737757 43.448759 
L 114.806667 43.480637 
L 114.846423 43.460384 
L 114.880877 43.399421 
L 115.373846 42.495964 
L 115.437455 42.632208 
L 115.927774 44.170443 
L 116.015236 44.126446 
L 116.410142 44.009682 
L 116.566513 44.305506 
L 116.942866 45.202517 
L 117.030328 45.331739 
L 117.085986 45.258676 
L 117.295366 45.129652 
L 117.507395 45.112503 
L 117.804237 44.792976 
L 117.82544 44.822826 
L 118.058672 44.969846 
L 118.228296 45.084633 
L 118.490683 45.159477 
L 118.533089 45.13229 
L 118.586096 45.213448 
L 119.076415 45.842608 
L 119.097618 45.813992 
L 119.330851 45.667419 
L 119.336151 45.673482 
L 119.460719 45.64816 
L 119.654196 45.573926 
L 119.678049 45.623639 
L 119.834421 45.697913 
L 120.025248 45.614647 
L 120.550021 44.684906 
L 120.714344 44.717392 
L 120.886619 44.780584 
L 121.636674 44.619049 
L 121.740038 44.539472 
L 121.814248 44.393635 
L 121.885808 44.476866 
L 122.132293 44.91517 
L 122.39733 45.394853 
L 122.511296 45.565778 
L 122.564304 45.639059 
L 122.625262 45.557225 
L 123.022818 44.974618 
L 123.650956 44.405436 
L 123.849734 44.485073 
L 124.758811 45.407605 
L 124.941686 45.754593 
L 125.172269 46.204971 
L 125.185521 46.193183 
L 125.368396 46.07159 
L 125.416103 46.131903 
L 125.82691 46.48569 
L 126.415293 46.074475 
L 126.818149 45.228381 
L 127.215705 44.820745 
L 127.223656 44.830322 
L 127.289915 44.846277 
L 127.319069 44.77171 
L 127.387979 44.590602 
L 127.878298 43.083204 
L 128.085027 43.076581 
L 128.267902 42.878009 
L 128.628353 42.379648 
L 128.723766 42.556401 
L 129.256491 43.569704 
L 129.272393 43.562646 
L 129.685851 43.500352 
L 129.826321 43.722146 
L 130.221226 44.416367 
L 130.284835 44.458934 
L 130.340493 44.404451 
L 130.579026 44.329754 
L 130.764552 44.301248 
L 131.058743 44.078402 
L 131.085247 44.107293 
L 131.331731 44.21246 
L 131.816749 44.374013 
L 132.330921 44.872364 
L 132.360075 44.841648 
L 132.553553 44.741734 
L 132.75233 44.706079 
L 132.906052 44.684677 
L 132.914003 44.696372 
L 133.094228 44.78083 
L 133.295657 44.691769 
L 133.584547 44.047929 
L 133.634904 44.117196 
L 134.427365 45.275624 
L 134.459169 45.250302 
L 134.554583 45.082118 
L 134.740109 44.891794 
L 134.74541 44.894648 
L 134.983943 44.899332 
L 136.195163 42.93262 
L 136.96112 41.205815 
L 137.014127 41.238414 
L 137.329522 41.5039 
L 137.5336 41.578072 
L 137.814539 41.274573 
L 137.854295 41.240687 
L 137.925855 41.308662 
L 138.837583 42.168884 
L 138.850835 42.148118 
L 139.608841 40.882777 
L 139.799667 40.548182 
L 139.839423 40.581915 
L 140.24758 40.815535 
L 140.3854 40.893134 
L 141.222917 41.584871 
L 141.342184 41.623625 
L 141.609871 41.879736 
L 141.930566 42.322331 
L 142.442088 43.049331 
L 142.728328 43.30055 
L 143.343214 43.226521 
L 143.45983 43.39094 
L 143.648006 43.513023 
L 143.81763 43.555926 
L 144.81417 42.882071 
L 145.558924 42.119213 
L 145.564225 42.123826 
L 145.664939 42.064687 
L 146.319581 42.334301 
L 146.486554 42.440246 
L 146.711836 42.442996 
L 146.88941 42.458043 
L 147.697774 43.390791 
L 147.870048 43.137557 
L 148.010517 43.113087 
L 148.227848 43.125684 
L 149.452319 41.550165 
L 150.271284 40.206225 
L 150.602581 40.451075 
L 150.766904 40.49762 
L 151.249271 40.345101 
L 151.426846 40.571698 
L 151.683932 40.746127 
L 151.8138 40.872945 
L 152.031131 41.01532 
L 152.041732 41.003913 
L 152.852746 39.968251 
L 153.056824 39.682023 
L 153.091279 39.708064 
L 153.520639 39.904073 
L 153.703515 40.027354 
L 154.509228 40.552709 
L 154.845825 40.765258 
L 155.16652 41.148318 
L 156.176311 41.99053 
L 156.587119 41.925653 
L 157.019129 42.232151 
L 157.297418 42.046574 
L 158.134935 41.591892 
L 158.821382 41.053599 
L 159.078468 41.075259 
L 159.751662 41.336271 
L 159.923936 41.346569 
L 160.313541 41.357817 
L 161.458501 42.538283 
L 161.59367 42.411722 
L 161.901113 42.204413 
L 162.136996 42.302473 
L 162.386131 42.548544 
L 162.619364 42.748222 
L 162.754532 42.833179 
L 162.791638 42.78992 
L 163.003667 42.709222 
L 163.210396 42.664628 
L 163.342915 42.650884 
L 163.433028 42.724248 
L 163.711316 42.916193 
L 163.883591 42.903554 
L 163.989605 42.962122 
L 164.191034 42.962493 
L 164.371259 42.79516 
L 164.426917 42.869812 
L 164.697255 43.083565 
L 164.718458 43.055646 
L 165.169021 42.681122 
L 165.314791 42.551909 
L 165.513569 42.370718 
L 165.550674 42.426171 
L 165.722948 42.485945 
L 165.940279 42.303616 
L 166.152308 42.243816 
L 166.351086 42.234683 
L 166.669131 42.417254 
L 166.889112 42.076736 
L 167.156799 41.800278 
L 167.914805 41.180624 
L 168.09503 41.17364 
L 168.275256 41.07449 
L 168.481985 40.897607 
L 169.049164 40.601058 
L 169.295649 40.515661 
L 169.714407 40.279007 
L 170.051004 39.94231 
L 170.371699 39.365217 
L 170.708296 39.344782 
L 171.055495 39.316401 
L 171.323183 39.567674 
L 171.678332 39.697521 
L 172.362128 40.024428 
L 173.056525 40.29529 
L 173.496487 40.102111 
L 173.66081 40.190998 
L 174.106072 40.625702 
L 174.747462 41.15759 
L 175.205976 40.883411 
L 175.394153 40.995158 
L 175.685694 41.226078 
L 175.910975 41.413152 
L 176.006389 41.451636 
L 176.054095 41.404197 
L 176.369489 41.355489 
L 176.767045 41.390051 
L 176.968473 41.540189 
L 177.148699 41.520346 
L 177.252063 41.586624 
L 177.450841 41.575177 
L 177.604562 41.426659 
L 177.66022 41.486504 
L 177.94646 41.695768 
L 178.031272 41.577672 
L 178.283057 41.359321 
L 178.815782 41.157036 
L 179.094071 41.139468 
L 179.496927 40.930126 
L 179.637397 41.021851 
L 179.905085 41.157844 
L 180.154219 40.831893 
L 180.427208 40.603237 
L 180.989086 40.18008 
L 181.116304 40.12737 
L 181.365439 40.086445 
L 181.521811 40.009171 
L 181.733841 39.847999 
L 182.327524 39.574182 
L 182.664121 39.503216 
L 182.984816 39.311809 
L 183.316112 39.00147 
L 183.634157 38.534668 
L 184.01581 38.516525 
L 184.259644 38.479679 
L 184.437219 38.591753 
L 184.94079 38.835486 
L 185.72795 39.169089 
L 186.212968 39.35582 
L 186.637027 39.227352 
L 187.432139 38.71436 
L 187.686574 38.546021 
L 188.007269 38.691834 
L 188.423378 38.963706 
L 189.168132 38.771243 
L 189.775067 39.145035 
L 190.164672 39.574601 
L 190.548975 39.866556 
L 190.774257 39.817931 
L 191.357339 40.077022 
L 191.683334 40.175238 
L 191.943071 40.29359 
L 192.332675 40.58222 
L 192.746133 40.498037 
L 193.08008 40.633541 
L 193.702917 40.896849 
L 194.524532 41.525216 
L 194.670303 41.653926 
L 195.038704 41.962613 
L 195.311692 41.863069 
L 195.57673 41.826205 
L 195.910676 41.882285 
L 196.703137 41.780627 
L 197.127197 41.500822 
L 197.532703 41.108171 
L 197.673173 41.11755 
L 197.871951 41.203742 
L 198.068078 41.213347 
L 198.36227 41.195899 
L 198.767776 41.07784 
L 199.186535 40.520792 
L 199.350858 40.516205 
L 199.676854 40.654412 
L 199.920688 40.688535 
L 200.702547 40.215953 
L 200.946382 40.086228 
L 201.198167 40.157078 
L 201.685835 40.44488 
L 202.472995 40.304985 
L 203.888294 41.160511 
L 204.158631 41.189989 
L 205.454663 41.83375 
L 205.618986 41.829149 
L 205.950282 41.750797 
L 207.113795 42.24736 
L 207.699527 42.63854 
L 208.534394 42.982837 
L 208.908097 42.953092 
L 209.345408 42.968199 
L 209.583941 42.960108 
L 209.79067 42.963106 
L 210.967435 42.270348 
L 211.990478 42.272415 
L 212.541756 41.715839 
L 212.862451 41.803865 
L 213.299762 41.939447 
L 214.314854 42.328993 
L 214.752165 42.512136 
L 215.531374 42.510939 
L 216.193967 42.310864 
L 216.612726 42.309695 
L 217.21701 42.188597 
L 217.346879 42.212543 
L 217.733833 42.329684 
L 217.959114 42.398871 
L 218.695918 42.734027 
L 219.305503 42.650223 
L 219.673905 42.650855 
L 219.885934 42.730867 
L 220.034355 42.711549 
L 220.20928 42.734438 
L 220.524674 42.726902 
L 221.174015 42.344283 
L 221.375443 42.24439 
L 221.613976 42.174604 
L 223.023974 42.611368 
L 223.477187 43.134959 
L 223.954254 43.555225 
L 224.203389 43.472712 
L 224.489629 43.452465 
L 224.70961 43.482146 
L 225.120417 43.533626 
L 226.943873 44.012889 
L 227.399737 44.125032 
L 227.837048 44.373042 
L 228.290261 44.467116 
L 229.535936 44.265337 
L 229.822176 44.242028 
L 230.20913 44.26009 
L 230.895576 44.226672 
L 231.669485 44.502222 
L 231.85236 44.56242 
L 232.181006 44.593694 
L 232.440743 44.494249 
L 233.598955 44.584984 
L 233.810985 44.535597 
L 234.452374 44.203133 
L 235.06726 44.08653 
L 236.180416 44.317878 
L 237.267069 45.292087 
L 237.473798 45.196208 
L 237.741485 45.183586 
L 237.969417 45.206678 
L 238.396127 45.256576 
L 239.784921 45.551337 
L 240.826517 45.245706 
L 241.239975 45.237788 
L 242.538657 45.277278 
L 243.113787 45.443158 
L 243.328468 45.486249 
L 243.765779 45.572636 
L 244.41777 45.902557 
L 245.181077 45.474961 
L 245.55743 45.583794 
L 245.859572 45.60037 
L 246.116658 45.479937 
L 246.98863 44.780235 
L 247.298724 44.689437 
L 247.590264 44.673411 
L 248.878345 45.016561 
L 249.297103 44.93394 
L 249.501182 44.751921 
L 249.909339 44.450781 
L 251.011894 44.35234 
L 251.735445 44.298439 
L 252.079993 44.261542 
L 252.424542 44.227894 
L 252.588865 44.148023 
L 254.062471 43.718439 
L 255.432713 43.754029 
L 256.005193 43.814316 
L 256.249027 43.851939 
L 257.918761 44.252124 
L 258.660865 44.001482 
L 259.225394 44.061237 
L 259.495732 43.806739 
L 259.774021 43.604704 
L 260.179528 43.384728 
L 260.47902 43.29632 
L 261.022346 43.24595 
L 262.159355 43.563257 
L 262.469448 43.526349 
L 262.747737 43.34282 
L 263.116139 43.060288 
L 264.282302 42.970143 
L 264.528787 42.977831 
L 264.706362 42.977945 
L 265.300045 42.906824 
L 265.885777 42.791892 
L 266.158765 42.663519 
L 266.505964 42.502538 
L 266.871715 42.515097 
L 267.735736 42.204228 
L 268.279062 41.840634 
L 268.525547 41.711736 
L 268.97611 41.74507 
L 269.553891 41.730954 
L 269.803026 41.689246 
L 270.399359 41.604352 
L 271.173267 41.551668 
L 271.456857 41.478602 
L 272.919862 41.644459 
L 274.507434 42.187357 
L 276.54822 41.566234 
L 277.565963 41.070879 
L 279.081975 41.695693 
L 280.489322 41.530294 
L 281.300336 41.150503 
L 281.923173 40.893392 
L 282.360484 40.855963 
L 283.359674 40.781659 
L 283.68567 40.768047 
L 284.438375 40.711129 
L 284.748469 40.652636 
L 285.159276 40.728335 
L 285.426964 40.766107 
L 286.142564 40.793248 
L 286.638183 41.038453 
L 287.647975 41.356832 
L 289.704663 40.809873 
L 290.82312 40.297076 
L 292.368286 40.894067 
L 292.940766 40.932392 
L 294.345463 41.242125 
L 294.724466 41.309321 
L 294.986853 41.32766 
L 295.294296 41.263345 
L 295.75016 41.084646 
L 296.571775 40.96613 
L 297.992374 40.934426 
L 298.487993 40.829969 
L 301.011146 40.80277 
L 301.745299 40.907002 
L 302.246219 40.937252 
L 302.577516 41.133393 
L 302.794846 41.14908 
L 303.192402 41.129483 
L 303.46539 41.24773 
L 304.045822 41.569204 
L 306.049502 41.966928 
L 306.926775 42.065964 
L 307.539011 42.229919 
L 308.331472 42.338948 
L 308.668069 42.205445 
L 309.680511 41.958777 
L 310.149626 41.965364 
L 310.451769 41.986752 
L 310.95799 42.044919 
L 311.347594 41.88696 
L 311.692142 41.845517 
L 312.370637 41.798385 
L 312.823851 41.723477 
L 313.428136 41.661906 
L 313.762082 41.722456 
L 316.865667 42.298531 
L 317.562715 42.599722 
L 318.970062 42.871671 
L 320.284646 42.795904 
L 320.724608 42.935255 
L 321.138065 43.141719 
L 321.588629 43.242891 
L 321.951729 43.433733 
L 322.52421 43.758128 
L 322.95887 43.792503 
L 324.604751 43.93127 
L 324.975803 43.956121 
L 325.254092 44.036785 
L 325.590689 44.056789 
L 327.663279 43.949258 
L 327.968072 44.072537 
L 328.299368 44.132723 
L 330.136076 43.762614 
L 332.333233 43.867497 
L 332.804999 43.855078 
L 333.215807 43.800564 
L 333.825392 43.788974 
L 336.319392 44.702681 
L 336.870669 44.684932 
L 338.953861 44.917706 
L 339.873539 44.768529 
L 340.300249 44.777012 
L 340.59179 44.769953 
L 340.896583 44.8296 
L 341.787107 44.922557 
L 342.261524 44.802209 
L 342.600771 44.785896 
L 343.324323 44.641143 
L 345.606292 44.735181 
L 345.80507 44.824064 
L 346.255633 44.96663 
L 346.950031 45.052405 
L 347.22832 44.975456 
L 347.737191 44.930803 
L 348.407735 45.025579 
L 348.794689 45.07079 
L 349.335365 45.080729 
L 350.133126 45.224397 
L 350.591641 45.366071 
L 352.558216 45.751783 
L 352.738441 45.694289 
L 353.051185 45.666684 
L 353.721729 45.629867 
L 354.37107 45.582695 
L 354.792479 45.43422 
L 355.327854 45.112439 
L 356.08321 45.216341 
L 356.44366 45.305591 
L 357.731741 45.489498 
L 358.948261 45.645743 
L 359.597602 45.873803 
L 360.260195 45.903694 
L 360.72401 45.833532 
L 360.970494 45.812414 
L 361.529723 45.86674 
L 362.478555 45.954129 
L 363.456542 46.121432 
L 363.94156 46.227981 
L 364.678364 46.305403 
L 365.393964 46.444597 
L 365.86838 46.569709 
L 366.50712 46.508416 
L 367.066348 46.454164 
L 367.827005 46.392113 
L 368.070839 46.248209 
L 368.585011 45.961806 
L 369.345667 46.06455 
L 369.732621 46.147701 
L 370.283899 46.231398 
L 371.831715 46.397212 
L 372.36179 46.483796 
L 372.653331 46.408136 
L 373.514701 46.102738 
L 375.054567 45.963868 
L 376.067009 45.802282 
L 376.512271 45.90522 
L 377.066199 45.940048 
L 382.070099 45.835302 
L 383.191206 45.970956 
L 383.737183 45.967576 
L 384.458084 46.066222 
L 384.723121 46.047812 
L 385.523533 45.768149 
L 385.78592 45.758549 
L 387.349639 45.429525 
L 387.845258 45.386361 
L 388.780839 45.260848 
L 389.035275 45.16164 
L 389.310914 45.136703 
L 389.769428 45.241693 
L 390.241194 45.280624 
L 390.604295 45.265888 
L 391.431211 45.197192 
L 392.387995 45.128981 
L 394.089533 45.058411 
L 394.455284 45.081055 
L 394.789231 45.079903 
L 395.080772 45.122987 
L 395.510132 45.200121 
L 396.109116 45.361537 
L 396.477517 45.313545 
L 398.330127 45.244938 
L 399.143791 45.059943 
L 400.015763 45.064425 
L 400.386815 45.03698 
L 401.105065 44.767287 
L 401.613937 44.590006 
L 403.63882 44.521281 
L 404.118538 44.636634 
L 404.683067 44.685175 
L 405.244945 44.7972 
L 405.886335 44.885391 
L 406.358101 44.827362 
L 407.887365 44.751372 
L 408.976668 44.926029 
L 409.215201 44.957699 
L 409.63396 45.07973 
L 410.447624 45.146153 
L 410.757717 45.140117 
L 413.262318 44.912481 
L 413.588314 44.896199 
L 414.269459 44.677066 
L 414.950605 44.448248 
L 415.684757 44.398806 
L 416.355301 44.379377 
L 417.966727 44.55287 
L 418.589564 44.686161 
L 419.116988 44.751618 
L 419.869694 44.634188 
L 421.004052 44.591089 
L 421.459916 44.659266 
L 421.905179 44.787964 
L 422.257678 44.775725 
L 422.55452 44.863131 
L 423.908859 45.017641 
L 424.290513 44.879503 
L 424.5529 44.85908 
L 424.894797 44.818949 
L 426.121919 44.845419 
L 426.463817 44.76832 
L 426.988591 44.769982 
L 427.91357 44.852191 
L 428.888907 44.704423 
L 430.744167 44.62556 
L 431.55518 44.45842 
L 432.890967 44.116007 
L 434.088935 43.896118 
L 437.057351 43.467187 
L 437.958477 43.491247 
L 438.422292 43.399036 
L 439.593756 43.412398 
L 439.917101 43.356612 
L 440.603548 43.483779 
L 440.966648 43.466424 
L 441.40661 43.434677 
L 443.224765 43.305775 
L 444.523447 43.156352 
L 446.164026 42.7576 
L 447.356693 42.546719 
L 448.239267 42.353822 
L 449.021126 42.305557 
L 449.848042 42.108292 
L 451.125521 42.198376 
L 451.425013 42.097033 
L 451.75631 42.098587 
L 452.948977 42.111269 
L 455.631152 41.685666 
L 457.120661 41.953473 
L 458.891109 42.022813 
L 459.808137 42.243091 
L 461.620991 42.213625 
L 462.856064 42.083613 
L 463.211214 42.08935 
L 463.500104 42.044713 
L 463.990423 42.041234 
L 466.818369 42.145315 
L 467.629383 41.882531 
L 468.416543 41.765209 
L 469.063234 41.844403 
L 470.075675 42.068252 
L 471.61024 42.011392 
L 474.085687 42.332709 
L 476.905682 42.102491 
L 477.25023 42.127729 
L 478.938517 42.19956 
L 479.312219 42.24607 
L 480.634754 42.305078 
L 481.845974 42.258277 
L 483.110201 42.263715 
L 484.422135 42.20517 
L 484.835593 42.202179 
L 485.299408 42.287856 
L 486.036211 42.306579 
L 487.687392 42.316089 
L 488.16976 42.393133 
L 489.691073 42.263332 
L 490.396071 42.146771 
L 490.920845 42.075215 
L 491.360807 42.104815 
L 492.858266 42.119009 
L 493.319431 42.219194 
L 494.949409 42.078692 
L 495.972452 42.156532 
L 498.24117 42.075282 
L 499.282766 42.146458 
L 500.947199 42.158992 
L 501.432217 42.230661 
L 502.95353 42.102146 
L 503.616123 41.993465 
L 505.275255 41.996368 
L 505.927247 42.048821 
L 508.887711 41.667146 
L 509.534402 41.601211 
L 509.95051 41.675336 
L 510.37987 41.736292 
L 511.389662 41.666021 
L 511.882631 41.657017 
L 512.709547 41.747407 
L 513.507308 41.784213 
L 516.862678 42.29765 
L 517.281437 42.38638 
L 518.052695 42.575608 
L 518.452901 42.616561 
L 519.033332 42.682372 
L 520.165041 42.549823 
L 520.655359 42.437289 
L 521.635997 42.312169 
L 522.062707 42.301388 
L 526.851927 42.439186 
L 530.623406 43.01512 
L 532.529022 43.337598 
L 534.023832 43.381291 
L 535.004469 43.246096 
L 535.706818 43.342932 
L 536.308452 43.54864 
L 538.410196 43.855413 
L 538.699087 43.852052 
L 539.86525 43.971048 
L 541.460773 43.673663 
L 542.096863 43.680523 
L 542.754155 43.76334 
L 543.199417 43.717288 
L 544.267517 43.59744 
L 544.728681 43.671329 
L 545.298511 43.756215 
L 546.07772 43.789029 
L 547.617586 43.701691 
L 548.14766 43.628734 
L 549.560308 43.943585 
L 551.667353 44.237738 
L 551.953593 44.236973 
L 553.109155 44.353174 
L 554.71793 44.061788 
L 555.35932 44.066133 
L 555.921199 44.130249 
L 556.472476 44.097467 
L 557.548527 43.981635 
L 560.368522 43.927771 
L 562.57363 43.987236 
L 563.628478 44.051515 
L 568.900067 44.081654 
L 569.340028 44.131937 
L 570.145741 44.221077 
L 571.404667 44.066184 
L 572.220982 44.07698 
L 572.960435 44.080101 
L 573.681336 44.06322 
L 576.6365 44.174008 
L 577.577382 44.161534 
L 581.698709 44.243334 
L 582.398407 44.229326 
L 583.585773 44.341018 
L 586.289152 44.097231 
L 587.84757 44.251874 
L 588.398847 44.222713 
L 589.56236 44.078848 
L 591.470628 43.995736 
L 592.424761 43.90883 
L 596.000112 44.010764 
L 596.750167 44.072043 
L 600.850291 44.063586 
L 601.701061 44.067811 
L 604.298424 43.877611 
L 609.344731 43.898405 
L 609.829749 43.929678 
L 610.69642 43.933634 
L 610.69642 43.933634 
" clip-path="url(#pd59a395af9)" style="fill: none; stroke: #1f2937; stroke-linecap: square"/>
   </g>
   <g id="line2d_30">
    <path d="M 54.12125 43.933634 
L 637.2 43.933634 
" clip-path="url(#pd59a395af9)" style="fill: none; stroke-dasharray: 2.96,1.28; stroke-dashoffset: 0; stroke: #888888; stroke-width: 0.8"/>
   </g>
   <g id="patch_3">
    <path d="M 54.12125 282.04 
L 54.12125 26.88 
" style="fill: none; stroke: #000000; stroke-width: 0.8; stroke-linejoin: miter; stroke-linecap: square"/>
   </g>
   <g id="patch_4">
    <path d="M 637.2 282.04 
L 637.2 26.88 
" style="fill: none; stroke: #000000; stroke-width: 0.8; stroke-linejoin: miter; stroke-linecap: square"/>
   </g>
   <g id="patch_5">
    <path d="M 54.12125 282.04 
L 637.2 282.04 
" style="fill: none; stroke: #000000; stroke-width: 0.8; stroke-linejoin: miter; stroke-linecap: square"/>
   </g>
   <g id="patch_6">
    <path d="M 54.12125 26.88 
L 637.2 26.88 
" style="fill: none; stroke: #000000; stroke-width: 0.8; stroke-linejoin: miter; stroke-linecap: square"/>
   </g>
   <g id="text_17">
    <!-- Running mean — reock_proxy_median  (100k ReCom samples, seed 42) -->
    <g transform="translate(129.505937 20.88) scale(0.12 -0.12)">
     <defs>
      <path id="DejaVuSans-2014" d="M 313 1978 
L 6088 1978 
L 6088 1528 
L 313 1528 
L 313 1978 
z
" transform="scale(0.015625)"/>
      <path id="DejaVuSans-28" d="M 1984 4856 
Q 1566 4138 1362 3434 
Q 1159 2731 1159 2009 
Q 1159 1288 1364 580 
Q 1569 -128 1984 -844 
L 1484 -844 
Q 1016 -109 783 600 
Q 550 1309 550 2009 
Q 550 2706 781 3412 
Q 1013 4119 1484 4856 
L 1984 4856 
z
" transform="scale(0.015625)"/>
      <path id="DejaVuSans-43" d="M 4122 4306 
L 4122 3641 
Q 3803 3938 3442 4084 
Q 3081 4231 2675 4231 
Q 1875 4231 1450 3742 
Q 1025 3253 1025 2328 
Q 1025 1406 1450 917 
Q 1875 428 2675 428 
Q 3081 428 3442 575 
Q 3803 722 4122 1019 
L 4122 359 
Q 3791 134 3420 21 
Q 3050 -91 2638 -91 
Q 1578 -91 968 557 
Q 359 1206 359 2328 
Q 359 3453 968 4101 
Q 1578 4750 2638 4750 
Q 3056 4750 3426 4639 
Q 3797 4528 4122 4306 
z
" transform="scale(0.015625)"/>
      <path id="DejaVuSans-73" d="M 2834 3397 
L 2834 2853 
Q 2591 2978 2328 3040 
Q 2066 3103 1784 3103 
Q 1356 3103 1142 2972 
Q 928 2841 928 2578 
Q 928 2378 1081 2264 
Q 1234 2150 1697 2047 
L 1894 2003 
Q 2506 1872 2764 1633 
Q 3022 1394 3022 966 
Q 3022 478 2636 193 
Q 2250 -91 1575 -91 
Q 1294 -91 989 -36 
Q 684 19 347 128 
L 347 722 
Q 666 556 975 473 
Q 1284 391 1588 391 
Q 1994 391 2212 530 
Q 2431 669 2431 922 
Q 2431 1156 2273 1281 
Q 2116 1406 1581 1522 
L 1381 1569 
Q 847 1681 609 1914 
Q 372 2147 372 2553 
Q 372 3047 722 3315 
Q 1072 3584 1716 3584 
Q 2034 3584 2315 3537 
Q 2597 3491 2834 3397 
z
" transform="scale(0.015625)"/>
      <path id="DejaVuSans-2c" d="M 750 794 
L 1409 794 
L 1409 256 
L 897 -744 
L 494 -744 
L 750 256 
L 750 794 
z
" transform="scale(0.015625)"/>
      <path id="DejaVuSans-29" d="M 513 4856 
L 1013 4856 
Q 1481 4119 1714 3412 
Q 1947 2706 1947 2009 
Q 1947 1309 1714 600 
Q 1481 -109 1013 -844 
L 513 -844 
Q 928 -128 1133 580 
Q 1338 1288 1338 2009 
Q 1338 2731 1133 3434 
Q 928 4138 513 4856 
z
" transform="scale(0.015625)"/>
     </defs>
     <use xlink:href="#DejaVuSans-52"/>
     <use xlink:href="#DejaVuSans-75" transform="translate(64.982422 0)"/>
     <use xlink:href="#DejaVuSans-6e" transform="translate(128.361328 0)"/>
     <use xlink:href="#DejaVuSans-6e" transform="translate(191.740234 0)"/>
     <use xlink:href="#DejaVuSans-69" transform="translate(255.119141 0)"/>
     <use xlink:href="#DejaVuSans-6e" transform="translate(282.902344 0)"/>
     <use xlink:href="#DejaVuSans-67" transform="translate(346.28125 0)"/>
     <use xlink:href="#DejaVuSans-20" transform="translate(409.757812 0)"/>
     <use xlink:href="#DejaVuSans-6d" transform="translate(441.544922 0)"/>
     <use xlink:href="#DejaVuSans-65" transform="translate(538.957031 0)"/>
     <use xlink:href="#DejaVuSans-61" transform="translate(600.480469 0)"/>
     <use xlink:href="#DejaVuSans-6e" transform="translate(661.759766 0)"/>
     <use xlink:href="#DejaVuSans-20" transform="translate(725.138672 0)"/>
     <use xlink:href="#DejaVuSans-2014" transform="translate(756.925781 0)"/>
     <use xlink:href="#DejaVuSans-20" transform="translate(856.925781 0)"/>
     <use xlink:href="#DejaVuSans-72" transform="translate(888.712891 0)"/>
     <use xlink:href="#DejaVuSans-65" transform="translate(927.576172 0)"/>
     <use xlink:href="#DejaVuSans-6f" transform="translate(989.099609 0)"/>
     <use xlink:href="#DejaVuSans-63" transform="translate(1050.28125 0)"/>
     <use xlink:href="#DejaVuSans-6b" transform="translate(1105.261719 0)"/>
     <use xlink:href="#DejaVuSans-5f" transform="translate(1163.171875 0)"/>
     <use xlink:href="#DejaVuSans-70" transform="translate(1213.171875 0)"/>
     <use xlink:href="#DejaVuSans-72" transform="translate(1276.648438 0)"/>
     <use xlink:href="#DejaVuSans-6f" transform="translate(1315.511719 0)"/>
     <use xlink:href="#DejaVuSans-78" transform="translate(1373.568359 0)"/>
     <use xlink:href="#DejaVuSans-79" transform="translate(1432.748047 0)"/>
     <use xlink:href="#DejaVuSans-5f" transform="translate(1491.927734 0)"/>
     <use xlink:href="#DejaVuSans-6d" transform="translate(1541.927734 0)"/>
     <use xlink:href="#DejaVuSans-65" transform="translate(1639.339844 0)"/>
     <use xlink:href="#DejaVuSans-64" transform="translate(1700.863281 0)"/>
     <use xlink:href="#DejaVuSans-69" transform="translate(1764.339844 0)"/>
     <use xlink:href="#DejaVuSans-61" transform="translate(1792.123047 0)"/>
     <use xlink:href="#DejaVuSans-6e" transform="translate(1853.402344 0)"/>
     <use xlink:href="#DejaVuSans-20" transform="translate(1916.78125 0)"/>
     <use xlink:href="#DejaVuSans-20" transform="translate(1948.568359 0)"/>
     <use xlink:href="#DejaVuSans-28" transform="translate(1980.355469 0)"/>
     <use xlink:href="#DejaVuSans-31" transform="translate(2019.369141 0)"/>
     <use xlink:href="#DejaVuSans-30" transform="translate(2082.992188 0)"/>
     <use xlink:href="#DejaVuSans-30" transform="translate(2146.615234 0)"/>
     <use xlink:href="#DejaVuSans-6b" transform="translate(2210.238281 0)"/>
     <use xlink:href="#DejaVuSans-20" transform="translate(2268.148438 0)"/>
     <use xlink:href="#DejaVuSans-52" transform="translate(2299.935547 0)"/>
     <use xlink:href="#DejaVuSans-65" transform="translate(2364.917969 0)"/>
     <use xlink:href="#DejaVuSans-43" transform="translate(2426.441406 0)"/>
     <use xlink:href="#DejaVuSans-6f" transform="translate(2496.265625 0)"/>
     <use xlink:href="#DejaVuSans-6d" transform="translate(2557.447266 0)"/>
     <use xlink:href="#DejaVuSans-20" transform="translate(2654.859375 0)"/>
     <use xlink:href="#DejaVuSans-73" transform="translate(2686.646484 0)"/>
     <use xlink:href="#DejaVuSans-61" transform="translate(2738.746094 0)"/>
     <use xlink:href="#DejaVuSans-6d" transform="translate(2800.025391 0)"/>
     <use xlink:href="#DejaVuSans-70" transform="translate(2897.4375 0)"/>
     <use xlink:href="#DejaVuSans-6c" transform="translate(2960.914062 0)"/>
     <use xlink:href="#DejaVuSans-65" transform="translate(2988.697266 0)"/>
     <use xlink:href="#DejaVuSans-73" transform="translate(3050.220703 0)"/>
     <use xlink:href="#DejaVuSans-2c" transform="translate(3102.320312 0)"/>
     <use xlink:href="#DejaVuSans-20" transform="translate(3134.107422 0)"/>
     <use xlink:href="#DejaVuSans-73" transform="translate(3165.894531 0)"/>
     <use xlink:href="#DejaVuSans-65" transform="translate(3217.994141 0)"/>
     <use xlink:href="#DejaVuSans-65" transform="translate(3279.517578 0)"/>
     <use xlink:href="#DejaVuSans-64" transform="translate(3341.041016 0)"/>
     <use xlink:href="#DejaVuSans-20" transform="translate(3404.517578 0)"/>
     <use xlink:href="#DejaVuSans-34" transform="translate(3436.304688 0)"/>
     <use xlink:href="#DejaVuSans-32" transform="translate(3499.927734 0)"/>
     <use xlink:href="#DejaVuSans-29" transform="translate(3563.550781 0)"/>
    </g>
   </g>
   <g id="legend_1">
    <g id="patch_7">
     <path d="M 496.306406 277.54 
L 630.9 277.54 
Q 632.7 277.54 632.7 275.74 
L 632.7 263.429688 
Q 632.7 261.629687 630.9 261.629687 
L 496.306406 261.629687 
Q 494.506406 261.629687 494.506406 263.429688 
L 494.506406 275.74 
Q 494.506406 277.54 496.306406 277.54 
z
" style="fill: #ffffff; opacity: 0.8; stroke: #cccccc; stroke-linejoin: miter"/>
    </g>
    <g id="line2d_31">
     <path d="M 498.106406 268.918281 
L 507.106406 268.918281 
L 516.106406 268.918281 
" style="fill: none; stroke-dasharray: 2.96,1.28; stroke-dashoffset: 0; stroke: #888888; stroke-width: 0.8"/>
    </g>
    <g id="text_18">
     <!-- final mean = +0.45476 -->
     <g transform="translate(523.306406 272.068281) scale(0.09 -0.09)">
      <defs>
       <path id="DejaVuSans-3d" d="M 678 2906 
L 4684 2906 
L 4684 2381 
L 678 2381 
L 678 2906 
z
M 678 1631 
L 4684 1631 
L 4684 1100 
L 678 1100 
L 678 1631 
z
" transform="scale(0.015625)"/>
       <path id="DejaVuSans-2b" d="M 2944 4013 
L 2944 2272 
L 4684 2272 
L 4684 1741 
L 2944 1741 
L 2944 0 
L 2419 0 
L 2419 1741 
L 678 1741 
L 678 2272 
L 2419 2272 
L 2419 4013 
L 2944 4013 
z
" transform="scale(0.015625)"/>
       <path id="DejaVuSans-36" d="M 2113 2584 
Q 1688 2584 1439 2293 
Q 1191 2003 1191 1497 
Q 1191 994 1439 701 
Q 1688 409 2113 409 
Q 2538 409 2786 701 
Q 3034 994 3034 1497 
Q 3034 2003 2786 2293 
Q 2538 2584 2113 2584 
z
M 3366 4563 
L 3366 3988 
Q 3128 4100 2886 4159 
Q 2644 4219 2406 4219 
Q 1781 4219 1451 3797 
Q 1122 3375 1075 2522 
Q 1259 2794 1537 2939 
Q 1816 3084 2150 3084 
Q 2853 3084 3261 2657 
Q 3669 2231 3669 1497 
Q 3669 778 3244 343 
Q 2819 -91 2113 -91 
Q 1303 -91 875 529 
Q 447 1150 447 2328 
Q 447 3434 972 4092 
Q 1497 4750 2381 4750 
Q 2619 4750 2861 4703 
Q 3103 4656 3366 4563 
z
" transform="scale(0.015625)"/>
      </defs>
      <use xlink:href="#DejaVuSans-66"/>
      <use xlink:href="#DejaVuSans-69" transform="translate(35.205078 0)"/>
      <use xlink:href="#DejaVuSans-6e" transform="translate(62.988281 0)"/>
      <use xlink:href="#DejaVuSans-61" transform="translate(126.367188 0)"/>
      <use xlink:href="#DejaVuSans-6c" transform="translate(187.646484 0)"/>
      <use xlink:href="#DejaVuSans-20" transform="translate(215.429688 0)"/>
      <use xlink:href="#DejaVuSans-6d" transform="translate(247.216797 0)"/>
      <use xlink:href="#DejaVuSans-65" transform="translate(344.628906 0)"/>
      <use xlink:href="#DejaVuSans-61" transform="translate(406.152344 0)"/>
      <use xlink:href="#DejaVuSans-6e" transform="translate(467.431641 0)"/>
      <use xlink:href="#DejaVuSans-20" transform="translate(530.810547 0)"/>
      <use xlink:href="#DejaVuSans-3d" transform="translate(562.597656 0)"/>
      <use xlink:href="#DejaVuSans-20" transform="translate(646.386719 0)"/>
      <use xlink:href="#DejaVuSans-2b" transform="translate(678.173828 0)"/>
      <use xlink:href="#DejaVuSans-30" transform="translate(761.962891 0)"/>
      <use xlink:href="#DejaVuSans-2e" transform="translate(825.585938 0)"/>
      <use xlink:href="#DejaVuSans-34" transform="translate(857.373047 0)"/>
      <use xlink:href="#DejaVuSans-35" transform="translate(920.996094 0)"/>
      <use xlink:href="#DejaVuSans-34" transform="translate(984.619141 0)"/>
      <use xlink:href="#DejaVuSans-37" transform="translate(1048.242188 0)"/>
      <use xlink:href="#DejaVuSans-36" transform="translate(1111.865234 0)"/>
     </g>
    </g>
   </g>
  </g>
 </g>
 <defs>
  <clipPath id="pd59a395af9">
   <rect x="54.12125" y="26.88" width="583.07875" height="255.16"/>
  </clipPath>
 </defs>
</svg>
