<?xml version="1.0" encoding="utf-8" standalone="no"?>
<!DOCTYPE svg PUBLIC "-//W3C//DTD SVG 1.1//EN"
  "http://www.w3.org/Graphics/SVG/1.1/DTD/svg11.dtd">
<svg xmlns:xlink="http://www.w3.org/1999/xlink" width="648pt" height="324pt" viewBox="0 0 648 324" xmlns="http://www.w3.org/2000/svg" version="1.1">
 <metadata>
  <rdf:RDF xmlns:dc="http://purl.org/dc/elements/1.1/" xmlns:cc="http://creativecommons.org/ns#" xmlns:rdf="http://www.w3.org/1999/02/22-rdf-syntax-ns#">
   <cc:Work>
    <dc:type rdf:resource="http://purl.org/dc/dcmitype/StillImage"/>
    <dc:date>2026-05-12T12:07:53.146832</dc:date>
    <dc:format>image/svg+xml</dc:format>
    <dc:creator>
     <cc:Agent>
      <dc:title>Matplotlib v3.10.8, https://matplotlib.org/</dc:title>
     </cc:Agent>
    </dc:creator>
   </cc:Work>
  </rdf:RDF>
 </metadata>
 <defs>
  <style type="text/css">*{stroke-linejoin: round; stroke-linecap: butt}</style>
 </defs>
 <g id="figure_1">
  <g id="patch_1">
   <path d="M 0 324 
L 648 324 
L 648 0 
L 0 0 
z
" style="fill: #ffffff"/>
  </g>
  <g id="axes_1">
   <g id="patch_2">
    <path d="M 60.51125 282.04 
L 637.2 282.04 
L 637.2 26.88 
L 60.51125 26.88 
z
" style="fill: #ffffff"/>
   </g>
   <g id="matplotlib.axis_1">
    <g id="xtick_1">
     <g id="line2d_1">
      <path d="M 86.719132 282.04 
L 86.719132 26.88 
" clip-path="url(#p2b6df6dfad)" style="fill: none; stroke-dasharray: 0.5,0.825; stroke-dashoffset: 0; stroke: #b0b0b0; stroke-opacity: 0.6; stroke-width: 0.5"/>
     </g>
     <g id="line2d_2">
      <defs>
       <path id="m61bce54e75" d="M 0 0 
L 0 3.5 
" style="stroke: #000000; stroke-width: 0.8"/>
      </defs>
      <g>
       <use xlink:href="#m61bce54e75" x="86.719132" y="282.04" style="stroke: #000000; stroke-width: 0.8"/>
      </g>
     </g>
     <g id="text_1">
      <!-- 0 -->
      <g transform="translate(83.537882 296.638438) scale(0.1 -0.1)">
       <defs>
        <path id="DejaVuSans-30" d="M 2034 4250 
Q 1547 4250 1301 3770 
Q 1056 3291 1056 2328 
Q 1056 1369 1301 889 
Q 1547 409 2034 409 
Q 2525 409 2770 889 
Q 3016 1369 3016 2328 
Q 3016 3291 2770 3770 
Q 2525 4250 2034 4250 
z
M 2034 4750 
Q 2819 4750 3233 4129 
Q 3647 3509 3647 2328 
Q 3647 1150 3233 529 
Q 2819 -91 2034 -91 
Q 1250 -91 836 529 
Q 422 1150 422 2328 
Q 422 3509 836 4129 
Q 1250 4750 2034 4750 
z
" transform="scale(0.015625)"/>
       </defs>
       <use xlink:href="#DejaVuSans-30"/>
      </g>
     </g>
    </g>
    <g id="xtick_2">
     <g id="line2d_3">
      <path d="M 191.572681 282.04 
L 191.572681 26.88 
" clip-path="url(#p2b6df6dfad)" style="fill: none; stroke-dasharray: 0.5,0.825; stroke-dashoffset: 0; stroke: #b0b0b0; stroke-opacity: 0.6; stroke-width: 0.5"/>
     </g>
     <g id="line2d_4">
      <g>
       <use xlink:href="#m61bce54e75" x="191.572681" y="282.04" style="stroke: #000000; stroke-width: 0.8"/>
      </g>
     </g>
     <g id="text_2">
      <!-- 20000 -->
      <g transform="translate(175.666431 296.638438) scale(0.1 -0.1)">
       <defs>
        <path id="DejaVuSans-32" d="M 1228 531 
L 3431 531 
L 3431 0 
L 469 0 
L 469 531 
Q 828 903 1448 1529 
Q 2069 2156 2228 2338 
Q 2531 2678 2651 2914 
Q 2772 3150 2772 3378 
Q 2772 3750 2511 3984 
Q 2250 4219 1831 4219 
Q 1534 4219 1204 4116 
Q 875 4013 500 3803 
L 500 4441 
Q 881 4594 1212 4672 
Q 1544 4750 1819 4750 
Q 2544 4750 2975 4387 
Q 3406 4025 3406 3419 
Q 3406 3131 3298 2873 
Q 3191 2616 2906 2266 
Q 2828 2175 2409 1742 
Q 1991 1309 1228 531 
z
" transform="scale(0.015625)"/>
       </defs>
       <use xlink:href="#DejaVuSans-32"/>
       <use xlink:href="#DejaVuSans-30" transform="translate(63.623047 0)"/>
       <use xlink:href="#DejaVuSans-30" transform="translate(127.246094 0)"/>
       <use xlink:href="#DejaVuSans-30" transform="translate(190.869141 0)"/>
       <use xlink:href="#DejaVuSans-30" transform="translate(254.492188 0)"/>
      </g>
     </g>
    </g>
    <g id="xtick_3">
     <g id="line2d_5">
      <path d="M 296.426229 282.04 
L 296.426229 26.88 
" clip-path="url(#p2b6df6dfad)" style="fill: none; stroke-dasharray: 0.5,0.825; stroke-dashoffset: 0; stroke: #b0b0b0; stroke-opacity: 0.6; stroke-width: 0.5"/>
     </g>
     <g id="line2d_6">
      <g>
       <use xlink:href="#m61bce54e75" x="296.426229" y="282.04" style="stroke: #000000; stroke-width: 0.8"/>
      </g>
     </g>
     <g id="text_3">
      <!-- 40000 -->
      <g transform="translate(280.519979 296.638438) scale(0.1 -0.1)">
       <defs>
        <path id="DejaVuSans-34" d="M 2419 4116 
L 825 1625 
L 2419 1625 
L 2419 4116 
z
M 2253 4666 
L 3047 4666 
L 3047 1625 
L 3713 1625 
L 3713 1100 
L 3047 1100 
L 3047 0 
L 2419 0 
L 2419 1100 
L 313 1100 
L 313 1709 
L 2253 4666 
z
" transform="scale(0.015625)"/>
       </defs>
       <use xlink:href="#DejaVuSans-34"/>
       <use xlink:href="#DejaVuSans-30" transform="translate(63.623047 0)"/>
       <use xlink:href="#DejaVuSans-30" transform="translate(127.246094 0)"/>
       <use xlink:href="#DejaVuSans-30" transform="translate(190.869141 0)"/>
       <use xlink:href="#DejaVuSans-30" transform="translate(254.492188 0)"/>
      </g>
     </g>
    </g>
    <g id="xtick_4">
     <g id="line2d_7">
      <path d="M 401.279778 282.04 
L 401.279778 26.88 
" clip-path="url(#p2b6df6dfad)" style="fill: none; stroke-dasharray: 0.5,0.825; stroke-dashoffset: 0; stroke: #b0b0b0; stroke-opacity: 0.6; stroke-width: 0.5"/>
     </g>
     <g id="line2d_8">
      <g>
       <use xlink:href="#m61bce54e75" x="401.279778" y="282.04" style="stroke: #000000; stroke-width: 0.8"/>
      </g>
     </g>
     <g id="text_4">
      <!-- 60000 -->
      <g transform="translate(385.373528 296.638438) scale(0.1 -0.1)">
       <defs>
        <path id="DejaVuSans-36" d="M 2113 2584 
Q 1688 2584 1439 2293 
Q 1191 2003 1191 1497 
Q 1191 994 1439 701 
Q 1688 409 2113 409 
Q 2538 409 2786 701 
Q 3034 994 3034 1497 
Q 3034 2003 2786 2293 
Q 2538 2584 2113 2584 
z
M 3366 4563 
L 3366 3988 
Q 3128 4100 2886 4159 
Q 2644 4219 2406 4219 
Q 1781 4219 1451 3797 
Q 1122 3375 1075 2522 
Q 1259 2794 1537 2939 
Q 1816 3084 2150 3084 
Q 2853 3084 3261 2657 
Q 3669 2231 3669 1497 
Q 3669 778 3244 343 
Q 2819 -91 2113 -91 
Q 1303 -91 875 529 
Q 447 1150 447 2328 
Q 447 3434 972 4092 
Q 1497 4750 2381 4750 
Q 2619 4750 2861 4703 
Q 3103 4656 3366 4563 
z
" transform="scale(0.015625)"/>
       </defs>
       <use xlink:href="#DejaVuSans-36"/>
       <use xlink:href="#DejaVuSans-30" transform="translate(63.623047 0)"/>
       <use xlink:href="#DejaVuSans-30" transform="translate(127.246094 0)"/>
       <use xlink:href="#DejaVuSans-30" transform="translate(190.869141 0)"/>
       <use xlink:href="#DejaVuSans-30" transform="translate(254.492188 0)"/>
      </g>
     </g>
    </g>
    <g id="xtick_5">
     <g id="line2d_9">
      <path d="M 506.133326 282.04 
L 506.133326 26.88 
" clip-path="url(#p2b6df6dfad)" style="fill: none; stroke-dasharray: 0.5,0.825; stroke-dashoffset: 0; stroke: #b0b0b0; stroke-opacity: 0.6; stroke-width: 0.5"/>
     </g>
     <g id="line2d_10">
      <g>
       <use xlink:href="#m61bce54e75" x="506.133326" y="282.04" style="stroke: #000000; stroke-width: 0.8"/>
      </g>
     </g>
     <g id="text_5">
      <!-- 80000 -->
      <g transform="translate(490.227076 296.638438) scale(0.1 -0.1)">
       <defs>
        <path id="DejaVuSans-38" d="M 2034 2216 
Q 1584 2216 1326 1975 
Q 1069 1734 1069 1313 
Q 1069 891 1326 650 
Q 1584 409 2034 409 
Q 2484 409 2743 651 
Q 3003 894 3003 1313 
Q 3003 1734 2745 1975 
Q 2488 2216 2034 2216 
z
M 1403 2484 
Q 997 2584 770 2862 
Q 544 3141 544 3541 
Q 544 4100 942 4425 
Q 1341 4750 2034 4750 
Q 2731 4750 3128 4425 
Q 3525 4100 3525 3541 
Q 3525 3141 3298 2862 
Q 3072 2584 2669 2484 
Q 3125 2378 3379 2068 
Q 3634 1759 3634 1313 
Q 3634 634 3220 271 
Q 2806 -91 2034 -91 
Q 1263 -91 848 271 
Q 434 634 434 1313 
Q 434 1759 690 2068 
Q 947 2378 1403 2484 
z
M 1172 3481 
Q 1172 3119 1398 2916 
Q 1625 2713 2034 2713 
Q 2441 2713 2670 2916 
Q 2900 3119 2900 3481 
Q 2900 3844 2670 4047 
Q 2441 4250 2034 4250 
Q 1625 4250 1398 4047 
Q 1172 3844 1172 3481 
z
" transform="scale(0.015625)"/>
       </defs>
       <use xlink:href="#DejaVuSans-38"/>
       <use xlink:href="#DejaVuSans-30" transform="translate(63.623047 0)"/>
       <use xlink:href="#DejaVuSans-30" transform="translate(127.246094 0)"/>
       <use xlink:href="#DejaVuSans-30" transform="translate(190.869141 0)"/>
       <use xlink:href="#DejaVuSans-30" transform="translate(254.492188 0)"/>
      </g>
     </g>
    </g>
    <g id="xtick_6">
     <g id="line2d_11">
      <path d="M 610.986875 282.04 
L 610.986875 26.88 
" clip-path="url(#p2b6df6dfad)" style="fill: none; stroke-dasharray: 0.5,0.825; stroke-dashoffset: 0; stroke: #b0b0b0; stroke-opacity: 0.6; stroke-width: 0.5"/>
     </g>
     <g id="line2d_12">
      <g>
       <use xlink:href="#m61bce54e75" x="610.986875" y="282.04" style="stroke: #000000; stroke-width: 0.8"/>
      </g>
     </g>
     <g id="text_6">
      <!-- 100000 -->
      <g transform="translate(591.899375 296.638438) scale(0.1 -0.1)">
       <defs>
        <path id="DejaVuSans-31" d="M 794 531 
L 1825 531 
L 1825 4091 
L 703 3866 
L 703 4441 
L 1819 4666 
L 2450 4666 
L 2450 531 
L 3481 531 
L 3481 0 
L 794 0 
L 794 531 
z
" transform="scale(0.015625)"/>
       </defs>
       <use xlink:href="#DejaVuSans-31"/>
       <use xlink:href="#DejaVuSans-30" transform="translate(63.623047 0)"/>
       <use xlink:href="#DejaVuSans-30" transform="translate(127.246094 0)"/>
       <use xlink:href="#DejaVuSans-30" transform="translate(190.869141 0)"/>
       <use xlink:href="#DejaVuSans-30" transform="translate(254.492188 0)"/>
       <use xlink:href="#DejaVuSans-30" transform="translate(318.115234 0)"/>
      </g>
     </g>
    </g>
    <g id="text_7">
     <!-- Sample index -->
     <g transform="translate(314.837656 310.316563) scale(0.1 -0.1)">
      <defs>
       <path id="DejaVuSans-53" d="M 3425 4513 
L 3425 3897 
Q 3066 4069 2747 4153 
Q 2428 4238 2131 4238 
Q 1616 4238 1336 4038 
Q 1056 3838 1056 3469 
Q 1056 3159 1242 3001 
Q 1428 2844 1947 2747 
L 2328 2669 
Q 3034 2534 3370 2195 
Q 3706 1856 3706 1288 
Q 3706 609 3251 259 
Q 2797 -91 1919 -91 
Q 1588 -91 1214 -16 
Q 841 59 441 206 
L 441 856 
Q 825 641 1194 531 
Q 1563 422 1919 422 
Q 2459 422 2753 634 
Q 3047 847 3047 1241 
Q 3047 1584 2836 1778 
Q 2625 1972 2144 2069 
L 1759 2144 
Q 1053 2284 737 2584 
Q 422 2884 422 3419 
Q 422 4038 858 4394 
Q 1294 4750 2059 4750 
Q 2388 4750 2728 4690 
Q 3069 4631 3425 4513 
z
" transform="scale(0.015625)"/>
       <path id="DejaVuSans-61" d="M 2194 1759 
Q 1497 1759 1228 1600 
Q 959 1441 959 1056 
Q 959 750 1161 570 
Q 1363 391 1709 391 
Q 2188 391 2477 730 
Q 2766 1069 2766 1631 
L 2766 1759 
L 2194 1759 
z
M 3341 1997 
L 3341 0 
L 2766 0 
L 2766 531 
Q 2569 213 2275 61 
Q 1981 -91 1556 -91 
Q 1019 -91 701 211 
Q 384 513 384 1019 
Q 384 1609 779 1909 
Q 1175 2209 1959 2209 
L 2766 2209 
L 2766 2266 
Q 2766 2663 2505 2880 
Q 2244 3097 1772 3097 
Q 1472 3097 1187 3025 
Q 903 2953 641 2809 
L 641 3341 
Q 956 3463 1253 3523 
Q 1550 3584 1831 3584 
Q 2591 3584 2966 3190 
Q 3341 2797 3341 1997 
z
" transform="scale(0.015625)"/>
       <path id="DejaVuSans-6d" d="M 3328 2828 
Q 3544 3216 3844 3400 
Q 4144 3584 4550 3584 
Q 5097 3584 5394 3201 
Q 5691 2819 5691 2113 
L 5691 0 
L 5113 0 
L 5113 2094 
Q 5113 2597 4934 2840 
Q 4756 3084 4391 3084 
Q 3944 3084 3684 2787 
Q 3425 2491 3425 1978 
L 3425 0 
L 2847 0 
L 2847 2094 
Q 2847 2600 2669 2842 
Q 2491 3084 2119 3084 
Q 1678 3084 1418 2786 
Q 1159 2488 1159 1978 
L 1159 0 
L 581 0 
L 581 3500 
L 1159 3500 
L 1159 2956 
Q 1356 3278 1631 3431 
Q 1906 3584 2284 3584 
Q 2666 3584 2933 3390 
Q 3200 3197 3328 2828 
z
" transform="scale(0.015625)"/>
       <path id="DejaVuSans-70" d="M 1159 525 
L 1159 -1331 
L 581 -1331 
L 581 3500 
L 1159 3500 
L 1159 2969 
Q 1341 3281 1617 3432 
Q 1894 3584 2278 3584 
Q 2916 3584 3314 3078 
Q 3713 2572 3713 1747 
Q 3713 922 3314 415 
Q 2916 -91 2278 -91 
Q 1894 -91 1617 61 
Q 1341 213 1159 525 
z
M 3116 1747 
Q 3116 2381 2855 2742 
Q 2594 3103 2138 3103 
Q 1681 3103 1420 2742 
Q 1159 2381 1159 1747 
Q 1159 1113 1420 752 
Q 1681 391 2138 391 
Q 2594 391 2855 752 
Q 3116 1113 3116 1747 
z
" transform="scale(0.015625)"/>
       <path id="DejaVuSans-6c" d="M 603 4863 
L 1178 4863 
L 1178 0 
L 603 0 
L 603 4863 
z
" transform="scale(0.015625)"/>
       <path id="DejaVuSans-65" d="M 3597 1894 
L 3597 1613 
L 953 1613 
Q 991 1019 1311 708 
Q 1631 397 2203 397 
Q 2534 397 2845 478 
Q 3156 559 3463 722 
L 3463 178 
Q 3153 47 2828 -22 
Q 2503 -91 2169 -91 
Q 1331 -91 842 396 
Q 353 884 353 1716 
Q 353 2575 817 3079 
Q 1281 3584 2069 3584 
Q 2775 3584 3186 3129 
Q 3597 2675 3597 1894 
z
M 3022 2063 
Q 3016 2534 2758 2815 
Q 2500 3097 2075 3097 
Q 1594 3097 1305 2825 
Q 1016 2553 972 2059 
L 3022 2063 
z
" transform="scale(0.015625)"/>
       <path id="DejaVuSans-20" transform="scale(0.015625)"/>
       <path id="DejaVuSans-69" d="M 603 3500 
L 1178 3500 
L 1178 0 
L 603 0 
L 603 3500 
z
M 603 4863 
L 1178 4863 
L 1178 4134 
L 603 4134 
L 603 4863 
z
" transform="scale(0.015625)"/>
       <path id="DejaVuSans-6e" d="M 3513 2113 
L 3513 0 
L 2938 0 
L 2938 2094 
Q 2938 2591 2744 2837 
Q 2550 3084 2163 3084 
Q 1697 3084 1428 2787 
Q 1159 2491 1159 1978 
L 1159 0 
L 581 0 
L 581 3500 
L 1159 3500 
L 1159 2956 
Q 1366 3272 1645 3428 
Q 1925 3584 2291 3584 
Q 2894 3584 3203 3211 
Q 3513 2838 3513 2113 
z
" transform="scale(0.015625)"/>
       <path id="DejaVuSans-64" d="M 2906 2969 
L 2906 4863 
L 3481 4863 
L 3481 0 
L 2906 0 
L 2906 525 
Q 2725 213 2448 61 
Q 2172 -91 1784 -91 
Q 1150 -91 751 415 
Q 353 922 353 1747 
Q 353 2572 751 3078 
Q 1150 3584 1784 3584 
Q 2172 3584 2448 3432 
Q 2725 3281 2906 2969 
z
M 947 1747 
Q 947 1113 1208 752 
Q 1469 391 1925 391 
Q 2381 391 2643 752 
Q 2906 1113 2906 1747 
Q 2906 2381 2643 2742 
Q 2381 3103 1925 3103 
Q 1469 3103 1208 2742 
Q 947 2381 947 1747 
z
" transform="scale(0.015625)"/>
       <path id="DejaVuSans-78" d="M 3513 3500 
L 2247 1797 
L 3578 0 
L 2900 0 
L 1881 1375 
L 863 0 
L 184 0 
L 1544 1831 
L 300 3500 
L 978 3500 
L 1906 2253 
L 2834 3500 
L 3513 3500 
z
" transform="scale(0.015625)"/>
      </defs>
      <use xlink:href="#DejaVuSans-53"/>
      <use xlink:href="#DejaVuSans-61" transform="translate(63.476562 0)"/>
      <use xlink:href="#DejaVuSans-6d" transform="translate(124.755859 0)"/>
      <use xlink:href="#DejaVuSans-70" transform="translate(222.167969 0)"/>
      <use xlink:href="#DejaVuSans-6c" transform="translate(285.644531 0)"/>
      <use xlink:href="#DejaVuSans-65" transform="translate(313.427734 0)"/>
      <use xlink:href="#DejaVuSans-20" transform="translate(374.951172 0)"/>
      <use xlink:href="#DejaVuSans-69" transform="translate(406.738281 0)"/>
      <use xlink:href="#DejaVuSans-6e" transform="translate(434.521484 0)"/>
      <use xlink:href="#DejaVuSans-64" transform="translate(497.900391 0)"/>
      <use xlink:href="#DejaVuSans-65" transform="translate(561.376953 0)"/>
      <use xlink:href="#DejaVuSans-78" transform="translate(621.150391 0)"/>
     </g>
    </g>
   </g>
   <g id="matplotlib.axis_2">
    <g id="ytick_1">
     <g id="line2d_13">
      <path d="M 60.51125 272.515952 
L 637.2 272.515952 
" clip-path="url(#p2b6df6dfad)" style="fill: none; stroke-dasharray: 0.5,0.825; stroke-dashoffset: 0; stroke: #b0b0b0; stroke-opacity: 0.6; stroke-width: 0.5"/>
     </g>
     <g id="line2d_14">
      <defs>
       <path id="m6eca7ae28f" d="M 0 0 
L -3.5 0 
" style="stroke: #000000; stroke-width: 0.8"/>
      </defs>
      <g>
       <use xlink:href="#m6eca7ae28f" x="60.51125" y="272.515952" style="stroke: #000000; stroke-width: 0.8"/>
      </g>
     </g>
     <g id="text_8">
      <!-- 0.004 -->
      <g transform="translate(24.883125 276.315171) scale(0.1 -0.1)">
       <defs>
        <path id="DejaVuSans-2e" d="M 684 794 
L 1344 794 
L 1344 0 
L 684 0 
L 684 794 
z
" transform="scale(0.015625)"/>
       </defs>
       <use xlink:href="#DejaVuSans-30"/>
       <use xlink:href="#DejaVuSans-2e" transform="translate(63.623047 0)"/>
       <use xlink:href="#DejaVuSans-30" transform="translate(95.410156 0)"/>
       <use xlink:href="#DejaVuSans-30" transform="translate(159.033203 0)"/>
       <use xlink:href="#DejaVuSans-34" transform="translate(222.65625 0)"/>
      </g>
     </g>
    </g>
    <g id="ytick_2">
     <g id="line2d_15">
      <path d="M 60.51125 238.487113 
L 637.2 238.487113 
" clip-path="url(#p2b6df6dfad)" style="fill: none; stroke-dasharray: 0.5,0.825; stroke-dashoffset: 0; stroke: #b0b0b0; stroke-opacity: 0.6; stroke-width: 0.5"/>
     </g>
     <g id="line2d_16">
      <g>
       <use xlink:href="#m6eca7ae28f" x="60.51125" y="238.487113" style="stroke: #000000; stroke-width: 0.8"/>
      </g>
     </g>
     <g id="text_9">
      <!-- 0.006 -->
      <g transform="translate(24.883125 242.286332) scale(0.1 -0.1)">
       <use xlink:href="#DejaVuSans-30"/>
       <use xlink:href="#DejaVuSans-2e" transform="translate(63.623047 0)"/>
       <use xlink:href="#DejaVuSans-30" transform="translate(95.410156 0)"/>
       <use xlink:href="#DejaVuSans-30" transform="translate(159.033203 0)"/>
       <use xlink:href="#DejaVuSans-36" transform="translate(222.65625 0)"/>
      </g>
     </g>
    </g>
    <g id="ytick_3">
     <g id="line2d_17">
      <path d="M 60.51125 204.458274 
L 637.2 204.458274 
" clip-path="url(#p2b6df6dfad)" style="fill: none; stroke-dasharray: 0.5,0.825; stroke-dashoffset: 0; stroke: #b0b0b0; stroke-opacity: 0.6; stroke-width: 0.5"/>
     </g>
     <g id="line2d_18">
      <g>
       <use xlink:href="#m6eca7ae28f" x="60.51125" y="204.458274" style="stroke: #000000; stroke-width: 0.8"/>
      </g>
     </g>
     <g id="text_10">
      <!-- 0.008 -->
      <g transform="translate(24.883125 208.257493) scale(0.1 -0.1)">
       <use xlink:href="#DejaVuSans-30"/>
       <use xlink:href="#DejaVuSans-2e" transform="translate(63.623047 0)"/>
       <use xlink:href="#DejaVuSans-30" transform="translate(95.410156 0)"/>
       <use xlink:href="#DejaVuSans-30" transform="translate(159.033203 0)"/>
       <use xlink:href="#DejaVuSans-38" transform="translate(222.65625 0)"/>
      </g>
     </g>
    </g>
    <g id="ytick_4">
     <g id="line2d_19">
      <path d="M 60.51125 170.429435 
L 637.2 170.429435 
" clip-path="url(#p2b6df6dfad)" style="fill: none; stroke-dasharray: 0.5,0.825; stroke-dashoffset: 0; stroke: #b0b0b0; stroke-opacity: 0.6; stroke-width: 0.5"/>
     </g>
     <g id="line2d_20">
      <g>
       <use xlink:href="#m6eca7ae28f" x="60.51125" y="170.429435" style="stroke: #000000; stroke-width: 0.8"/>
      </g>
     </g>
     <g id="text_11">
      <!-- 0.010 -->
      <g transform="translate(24.883125 174.228654) scale(0.1 -0.1)">
       <use xlink:href="#DejaVuSans-30"/>
       <use xlink:href="#DejaVuSans-2e" transform="translate(63.623047 0)"/>
       <use xlink:href="#DejaVuSans-30" transform="translate(95.410156 0)"/>
       <use xlink:href="#DejaVuSans-31" transform="translate(159.033203 0)"/>
       <use xlink:href="#DejaVuSans-30" transform="translate(222.65625 0)"/>
      </g>
     </g>
    </g>
    <g id="ytick_5">
     <g id="line2d_21">
      <path d="M 60.51125 136.400596 
L 637.2 136.400596 
" clip-path="url(#p2b6df6dfad)" style="fill: none; stroke-dasharray: 0.5,0.825; stroke-dashoffset: 0; stroke: #b0b0b0; stroke-opacity: 0.6; stroke-width: 0.5"/>
     </g>
     <g id="line2d_22">
      <g>
       <use xlink:href="#m6eca7ae28f" x="60.51125" y="136.400596" style="stroke: #000000; stroke-width: 0.8"/>
      </g>
     </g>
     <g id="text_12">
      <!-- 0.012 -->
      <g transform="translate(24.883125 140.199815) scale(0.1 -0.1)">
       <use xlink:href="#DejaVuSans-30"/>
       <use xlink:href="#DejaVuSans-2e" transform="translate(63.623047 0)"/>
       <use xlink:href="#DejaVuSans-30" transform="translate(95.410156 0)"/>
       <use xlink:href="#DejaVuSans-31" transform="translate(159.033203 0)"/>
       <use xlink:href="#DejaVuSans-32" transform="translate(222.65625 0)"/>
      </g>
     </g>
    </g>
    <g id="ytick_6">
     <g id="line2d_23">
      <path d="M 60.51125 102.371758 
L 637.2 102.371758 
" clip-path="url(#p2b6df6dfad)" style="fill: none; stroke-dasharray: 0.5,0.825; stroke-dashoffset: 0; stroke: #b0b0b0; stroke-opacity: 0.6; stroke-width: 0.5"/>
     </g>
     <g id="line2d_24">
      <g>
       <use xlink:href="#m6eca7ae28f" x="60.51125" y="102.371758" style="stroke: #000000; stroke-width: 0.8"/>
      </g>
     </g>
     <g id="text_13">
      <!-- 0.014 -->
      <g transform="translate(24.883125 106.170976) scale(0.1 -0.1)">
       <use xlink:href="#DejaVuSans-30"/>
       <use xlink:href="#DejaVuSans-2e" transform="translate(63.623047 0)"/>
       <use xlink:href="#DejaVuSans-30" transform="translate(95.410156 0)"/>
       <use xlink:href="#DejaVuSans-31" transform="translate(159.033203 0)"/>
       <use xlink:href="#DejaVuSans-34" transform="translate(222.65625 0)"/>
      </g>
     </g>
    </g>
    <g id="ytick_7">
     <g id="line2d_25">
      <path d="M 60.51125 68.342919 
L 637.2 68.342919 
" clip-path="url(#p2b6df6dfad)" style="fill: none; stroke-dasharray: 0.5,0.825; stroke-dashoffset: 0; stroke: #b0b0b0; stroke-opacity: 0.6; stroke-width: 0.5"/>
     </g>
     <g id="line2d_26">
      <g>
       <use xlink:href="#m6eca7ae28f" x="60.51125" y="68.342919" style="stroke: #000000; stroke-width: 0.8"/>
      </g>
     </g>
     <g id="text_14">
      <!-- 0.016 -->
      <g transform="translate(24.883125 72.142138) scale(0.1 -0.1)">
       <use xlink:href="#DejaVuSans-30"/>
       <use xlink:href="#DejaVuSans-2e" transform="translate(63.623047 0)"/>
       <use xlink:href="#DejaVuSans-30" transform="translate(95.410156 0)"/>
       <use xlink:href="#DejaVuSans-31" transform="translate(159.033203 0)"/>
       <use xlink:href="#DejaVuSans-36" transform="translate(222.65625 0)"/>
      </g>
     </g>
    </g>
    <g id="ytick_8">
     <g id="line2d_27">
      <path d="M 60.51125 34.31408 
L 637.2 34.31408 
" clip-path="url(#p2b6df6dfad)" style="fill: none; stroke-dasharray: 0.5,0.825; stroke-dashoffset: 0; stroke: #b0b0b0; stroke-opacity: 0.6; stroke-width: 0.5"/>
     </g>
     <g id="line2d_28">
      <g>
       <use xlink:href="#m6eca7ae28f" x="60.51125" y="34.31408" style="stroke: #000000; stroke-width: 0.8"/>
      </g>
     </g>
     <g id="text_15">
      <!-- 0.018 -->
      <g transform="translate(24.883125 38.113299) scale(0.1 -0.1)">
       <use xlink:href="#DejaVuSans-30"/>
       <use xlink:href="#DejaVuSans-2e" transform="translate(63.623047 0)"/>
       <use xlink:href="#DejaVuSans-30" transform="translate(95.410156 0)"/>
       <use xlink:href="#DejaVuSans-31" transform="translate(159.033203 0)"/>
       <use xlink:href="#DejaVuSans-38" transform="translate(222.65625 0)"/>
      </g>
     </g>
    </g>
    <g id="text_16">
     <!-- Running mean of mean_median -->
     <g transform="translate(18.525313 234.136562) rotate(-90) scale(0.1 -0.1)">
      <defs>
       <path id="DejaVuSans-52" d="M 2841 2188 
Q 3044 2119 3236 1894 
Q 3428 1669 3622 1275 
L 4263 0 
L 3584 0 
L 2988 1197 
Q 2756 1666 2539 1819 
Q 2322 1972 1947 1972 
L 1259 1972 
L 1259 0 
L 628 0 
L 628 4666 
L 2053 4666 
Q 2853 4666 3247 4331 
Q 3641 3997 3641 3322 
Q 3641 2881 3436 2590 
Q 3231 2300 2841 2188 
z
M 1259 4147 
L 1259 2491 
L 2053 2491 
Q 2509 2491 2742 2702 
Q 2975 2913 2975 3322 
Q 2975 3731 2742 3939 
Q 2509 4147 2053 4147 
L 1259 4147 
z
" transform="scale(0.015625)"/>
       <path id="DejaVuSans-75" d="M 544 1381 
L 544 3500 
L 1119 3500 
L 1119 1403 
Q 1119 906 1312 657 
Q 1506 409 1894 409 
Q 2359 409 2629 706 
Q 2900 1003 2900 1516 
L 2900 3500 
L 3475 3500 
L 3475 0 
L 2900 0 
L 2900 538 
Q 2691 219 2414 64 
Q 2138 -91 1772 -91 
Q 1169 -91 856 284 
Q 544 659 544 1381 
z
M 1991 3584 
L 1991 3584 
z
" transform="scale(0.015625)"/>
       <path id="DejaVuSans-67" d="M 2906 1791 
Q 2906 2416 2648 2759 
Q 2391 3103 1925 3103 
Q 1463 3103 1205 2759 
Q 947 2416 947 1791 
Q 947 1169 1205 825 
Q 1463 481 1925 481 
Q 2391 481 2648 825 
Q 2906 1169 2906 1791 
z
M 3481 434 
Q 3481 -459 3084 -895 
Q 2688 -1331 1869 -1331 
Q 1566 -1331 1297 -1286 
Q 1028 -1241 775 -1147 
L 775 -588 
Q 1028 -725 1275 -790 
Q 1522 -856 1778 -856 
Q 2344 -856 2625 -561 
Q 2906 -266 2906 331 
L 2906 616 
Q 2728 306 2450 153 
Q 2172 0 1784 0 
Q 1141 0 747 490 
Q 353 981 353 1791 
Q 353 2603 747 3093 
Q 1141 3584 1784 3584 
Q 2172 3584 2450 3431 
Q 2728 3278 2906 2969 
L 2906 3500 
L 3481 3500 
L 3481 434 
z
" transform="scale(0.015625)"/>
       <path id="DejaVuSans-6f" d="M 1959 3097 
Q 1497 3097 1228 2736 
Q 959 2375 959 1747 
Q 959 1119 1226 758 
Q 1494 397 1959 397 
Q 2419 397 2687 759 
Q 2956 1122 2956 1747 
Q 2956 2369 2687 2733 
Q 2419 3097 1959 3097 
z
M 1959 3584 
Q 2709 3584 3137 3096 
Q 3566 2609 3566 1747 
Q 3566 888 3137 398 
Q 2709 -91 1959 -91 
Q 1206 -91 779 398 
Q 353 888 353 1747 
Q 353 2609 779 3096 
Q 1206 3584 1959 3584 
z
" transform="scale(0.015625)"/>
       <path id="DejaVuSans-66" d="M 2375 4863 
L 2375 4384 
L 1825 4384 
Q 1516 4384 1395 4259 
Q 1275 4134 1275 3809 
L 1275 3500 
L 2222 3500 
L 2222 3053 
L 1275 3053 
L 1275 0 
L 697 0 
L 697 3053 
L 147 3053 
L 147 3500 
L 697 3500 
L 697 3744 
Q 697 4328 969 4595 
Q 1241 4863 1831 4863 
L 2375 4863 
z
" transform="scale(0.015625)"/>
       <path id="DejaVuSans-5f" d="M 3263 -1063 
L 3263 -1509 
L -63 -1509 
L -63 -1063 
L 3263 -1063 
z
" transform="scale(0.015625)"/>
      </defs>
      <use xlink:href="#DejaVuSans-52"/>
      <use xlink:href="#DejaVuSans-75" transform="translate(64.982422 0)"/>
      <use xlink:href="#DejaVuSans-6e" transform="translate(128.361328 0)"/>
      <use xlink:href="#DejaVuSans-6e" transform="translate(191.740234 0)"/>
      <use xlink:href="#DejaVuSans-69" transform="translate(255.119141 0)"/>
      <use xlink:href="#DejaVuSans-6e" transform="translate(282.902344 0)"/>
      <use xlink:href="#DejaVuSans-67" transform="translate(346.28125 0)"/>
      <use xlink:href="#DejaVuSans-20" transform="translate(409.757812 0)"/>
      <use xlink:href="#DejaVuSans-6d" transform="translate(441.544922 0)"/>
      <use xlink:href="#DejaVuSans-65" transform="translate(538.957031 0)"/>
      <use xlink:href="#DejaVuSans-61" transform="translate(600.480469 0)"/>
      <use xlink:href="#DejaVuSans-6e" transform="translate(661.759766 0)"/>
      <use xlink:href="#DejaVuSans-20" transform="translate(725.138672 0)"/>
      <use xlink:href="#DejaVuSans-6f" transform="translate(756.925781 0)"/>
      <use xlink:href="#DejaVuSans-66" transform="translate(818.107422 0)"/>
      <use xlink:href="#DejaVuSans-20" transform="translate(853.3125 0)"/>
      <use xlink:href="#DejaVuSans-6d" transform="translate(885.099609 0)"/>
      <use xlink:href="#DejaVuSans-65" transform="translate(982.511719 0)"/>
      <use xlink:href="#DejaVuSans-61" transform="translate(1044.035156 0)"/>
      <use xlink:href="#DejaVuSans-6e" transform="translate(1105.314453 0)"/>
      <use xlink:href="#DejaVuSans-5f" transform="translate(1168.693359 0)"/>
      <use xlink:href="#DejaVuSans-6d" transform="translate(1218.693359 0)"/>
      <use xlink:href="#DejaVuSans-65" transform="translate(1316.105469 0)"/>
      <use xlink:href="#DejaVuSans-64" transform="translate(1377.628906 0)"/>
      <use xlink:href="#DejaVuSans-69" transform="translate(1441.105469 0)"/>
      <use xlink:href="#DejaVuSans-61" transform="translate(1468.888672 0)"/>
      <use xlink:href="#DejaVuSans-6e" transform="translate(1530.167969 0)"/>
     </g>
    </g>
   </g>
   <g id="line2d_29">
    <path d="M 86.724375 197.066766 
L 86.729618 196.702871 
L 86.740103 197.350462 
L 86.87117 270.441818 
L 86.996994 247.586718 
L 87.206701 216.404267 
L 87.369224 196.518911 
L 87.390195 199.790105 
L 87.641844 227.181939 
L 87.715241 232.765783 
L 87.767668 228.792771 
L 87.872521 223.987617 
L 87.940676 224.203026 
L 88.008831 224.621485 
L 88.04553 224.237326 
L 88.244751 217.399253 
L 88.643195 176.267445 
L 89.031153 152.483487 
L 89.3195 149.387554 
L 89.37717 149.38662 
L 89.39814 149.464286 
L 89.487266 149.861916 
L 89.539693 149.616881 
L 89.686488 148.342486 
L 89.7494 148.517976 
L 89.922408 148.857005 
L 89.943379 148.821355 
L 89.990563 148.860082 
L 90.022019 148.564242 
L 90.593471 142.222073 
L 90.755994 140.065675 
L 90.803178 140.51164 
L 90.834634 140.845811 
L 90.908032 140.491345 
L 90.94473 140.261242 
L 90.986672 140.649818 
L 91.033856 141.088031 
L 91.091525 140.654134 
L 91.327446 138.879797 
L 91.337931 138.953262 
L 91.479483 139.328551 
L 91.495211 139.322517 
L 91.636764 139.391841 
L 91.657734 139.414473 
L 91.673462 139.278492 
L 91.694433 139.111102 
L 91.762588 139.432186 
L 91.788801 140.046137 
L 92.129575 148.295592 
L 92.313069 149.448067 
L 92.386467 149.40557 
L 92.480835 148.929693 
L 92.926462 139.587452 
L 93.073257 139.133571 
L 93.104713 139.158558 
L 93.351119 139.847787 
L 93.639467 141.557589 
L 93.681408 140.915217 
L 93.807232 138.995022 
L 93.891115 139.323612 
L 94.058881 140.093803 
L 94.095579 139.708891 
L 94.399655 135.188848 
L 95.301395 115.717826 
L 96.03537 103.826315 
L 96.098282 102.746972 
L 96.491483 97.629429 
L 96.601579 97.162885 
L 96.811286 96.150023 
L 96.942353 95.422784 
L 97.214973 93.877155 
L 97.361767 93.158805 
L 97.728755 89.444492 
L 97.802152 89.808082 
L 97.870307 90.105244 
L 97.907006 89.837314 
L 98.200596 88.106219 
L 98.635738 85.603686 
L 98.77729 85.401501 
L 98.813989 85.368518 
L 98.850688 85.482662 
L 98.976512 85.787034 
L 99.007968 85.691578 
L 99.222918 84.673054 
L 99.353985 83.461706 
L 99.878253 77.668105 
L 99.893981 78.01316 
L 100.30291 86.340595 
L 100.376307 86.233786 
L 100.454947 85.970569 
L 100.565043 85.260471 
L 100.648926 85.475693 
L 100.67514 85.512022 
L 100.690868 85.363275 
L 101.094554 81.542837 
L 101.188922 81.662632 
L 101.555909 82.160234 
L 101.582123 82.072369 
L 101.79183 81.529603 
L 101.802315 81.616903 
L 102.111633 83.405629 
L 102.116876 83.398152 
L 102.426194 82.768249 
L 102.61493 81.967713 
L 102.635901 82.151094 
L 102.646386 82.248607 
L 102.714541 81.855802 
L 103.008131 79.715698 
L 103.301721 77.600296 
L 103.878416 73.726825 
L 103.915114 73.895177 
L 104.08288 74.931321 
L 104.172005 74.579547 
L 104.61239 72.898505 
L 104.843068 73.188482 
L 104.926951 73.020128 
L 105.325395 72.261328 
L 105.603256 71.332002 
L 105.655683 71.387109 
L 105.739566 71.497005 
L 105.771022 71.359816 
L 106.0017 70.867512 
L 106.038399 70.756121 
L 106.468298 68.48985 
L 106.740917 66.525687 
L 107.54829 61.638792 
L 108.025373 58.671901 
L 108.512942 55.158238 
L 109.09488 52.000602 
L 109.629633 51.231631 
L 110.610013 48.92269 
L 110.678168 48.848166 
L 110.699139 48.969975 
L 110.746323 49.242425 
L 110.840691 49.145099 
L 110.950787 49.064759 
L 110.977001 49.153762 
L 111.197193 49.545413 
L 111.265348 49.457343 
L 111.475055 48.873186 
L 111.857771 47.185516 
L 111.889227 47.237572 
L 111.983595 47.357315 
L 112.025536 47.244075 
L 112.235243 47.004509 
L 112.486892 46.808972 
L 113.01116 45.955524 
L 113.330963 45.622986 
L 113.829017 44.567052 
L 114.096394 44.445094 
L 114.290373 44.190443 
L 114.673088 43.521507 
L 114.830369 43.148264 
L 115.365122 41.696304 
L 115.511917 41.112707 
L 115.805507 40.030108 
L 115.989 39.487229 
L 116.272105 38.770226 
L 116.539482 38.478182 
L 116.544724 38.488069 
L 116.854042 39.475732 
L 117.519862 42.698034 
L 118.767619 49.239882 
L 119.658875 50.639915 
L 120.188385 50.779303 
L 120.214598 50.847123 
L 120.308967 50.788946 
L 120.461004 50.548719 
L 120.634013 50.449958 
L 121.069155 50.525354 
L 121.404686 50.821621 
L 121.640607 51.137518 
L 121.672063 51.075678 
L 121.871284 50.927943 
L 121.928954 50.862926 
L 121.934197 50.848242 
L 122.673414 48.940323 
L 122.710113 49.000985 
L 122.736326 49.048804 
L 122.788753 48.928058 
L 122.851665 48.750046 
L 122.946033 48.831754 
L 123.192439 49.184967 
L 123.669523 50.333886 
L 125.66174 58.459183 
L 125.939602 59.338394 
L 126.023485 59.276875 
L 126.38523 58.783712 
L 127.391824 55.888672 
L 127.439008 56.057133 
L 128.398418 59.025223 
L 128.408903 58.996719 
L 128.581912 58.604776 
L 128.629096 58.731816 
L 129.887338 61.827779 
L 130.118016 61.868113 
L 130.275296 61.951551 
L 130.401121 62.531364 
L 130.45879 62.390338 
L 130.710439 62.057936 
L 130.75238 62.089155 
L 130.804807 62.251704 
L 132.073535 68.18112 
L 132.29897 68.468483 
L 132.597802 68.556057 
L 133.143041 69.419446 
L 133.17974 69.329667 
L 133.562455 68.692004 
L 133.829832 68.409815 
L 133.934685 67.965789 
L 134.306915 66.557644 
L 134.569049 65.956724 
L 134.951765 64.773311 
L 135.11953 64.819622 
L 135.276811 65.023011 
L 135.958359 68.360274 
L 136.204765 68.470146 
L 136.482626 69.073668 
L 136.576995 69.541957 
L 136.650392 69.375546 
L 137.01738 68.44723 
L 137.143204 68.606357 
L 137.447279 68.907184 
L 137.824752 68.942237 
L 138.79989 68.144578 
L 138.936199 68.201269 
L 139.161635 68.251254 
L 140.026676 66.187258 
L 140.105317 66.111664 
L 140.147258 66.213157 
L 140.393664 66.651382 
L 140.430363 66.622969 
L 140.50376 66.504462 
L 140.896961 65.751389 
L 141.096183 65.296665 
L 141.588994 64.133135 
L 142.296756 63.870793 
L 142.443551 63.987327 
L 142.648015 64.297916 
L 143.056944 64.650998 
L 143.193254 64.836619 
L 143.266651 64.77296 
L 143.565484 64.397483 
L 143.880044 63.916916 
L 144.100237 63.950391 
L 144.199848 64.059577 
L 144.268002 63.967667 
L 144.535379 63.461489 
L 144.981007 62.398767 
L 145.295567 61.482857 
L 145.636341 60.377782 
L 145.67304 60.496514 
L 146.76876 64.337702 
L 147.277299 66.220484 
L 147.80681 66.455044 
L 148.189525 66.554141 
L 148.378262 66.621177 
L 148.818646 66.864686 
L 149.924851 68.169322 
L 149.930094 68.164187 
L 149.966793 68.159484 
L 150.024462 68.226912 
L 150.265625 68.564685 
L 150.328538 68.427823 
L 150.386207 68.311161 
L 150.443876 68.43616 
L 150.622127 68.665982 
L 150.76368 69.062369 
L 150.837077 68.910564 
L 151.099211 68.52206 
L 151.141153 68.546074 
L 151.481927 68.593025 
L 151.707362 68.247001 
L 151.964253 67.93194 
L 152.121533 67.834684 
L 152.147747 67.814447 
L 152.215901 67.88228 
L 152.556675 68.087221 
L 153.909286 67.175855 
L 154.375885 67.206858 
L 154.7586 67.797118 
L 155.13083 69.138042 
L 155.26714 69.081345 
L 155.513546 68.849317 
L 155.565972 69.065532 
L 156.079755 71.132181 
L 157.060135 75.697574 
L 157.490035 77.907633 
L 157.531976 77.85717 
L 157.621102 77.764733 
L 157.678771 77.857338 
L 157.914692 78.212659 
L 157.972361 78.10509 
L 157.988089 78.074846 
L 158.035273 78.216937 
L 158.071972 78.330313 
L 158.150612 78.235251 
L 158.617211 77.3601 
L 158.743035 77.355615 
L 158.816432 77.264866 
L 159.697202 75.966781 
L 160.069432 75.836686 
L 160.614671 75.724676 
L 160.88729 75.740467 
L 161.144181 76.022893 
L 161.584566 76.932644 
L 161.616022 76.915439 
L 161.920097 76.643272 
L 162.575432 75.880752 
L 162.989604 75.781789 
L 163.241252 75.971658 
L 164.331729 77.284167 
L 165.013277 77.403282 
L 165.228227 77.363569 
L 165.39075 77.270724 
L 166.282005 76.49707 
L 166.554624 75.610106 
L 167.005494 74.145956 
L 167.063164 74.170368 
L 167.194231 74.107473 
L 168.541599 73.105733 
L 168.751306 73.195727 
L 169.202176 73.530206 
L 169.348971 73.595996 
L 169.799842 73.834501 
L 170.50236 73.89055 
L 171.120996 73.711496 
L 171.351674 73.559212 
L 171.713419 73.310033 
L 172.447394 72.673559 
L 173.322921 73.59149 
L 173.590297 74.487038 
L 173.841946 75.03425 
L 174.140778 75.249122 
L 174.41864 75.280745 
L 174.775142 75.133463 
L 175.189314 75.093858 
L 175.813193 74.641819 
L 175.959987 74.45515 
L 176.646778 73.467607 
L 176.987552 73.10362 
L 177.228715 72.892974 
L 178.906372 72.098034 
L 179.283845 72.104492 
L 179.619376 72.158165 
L 179.93918 72.516702 
L 180.437234 72.905926 
L 180.694125 73.040337 
L 180.956259 73.382497 
L 181.569652 73.865108 
L 182.010037 73.749426 
L 182.382267 73.582846 
L 183.310221 73.637851 
L 183.692937 73.9812 
L 183.761091 73.901984 
L 183.782062 73.886641 
L 183.844974 73.974215 
L 183.970799 73.962502 
L 185.202828 73.916427 
L 185.554087 75.265077 
L 185.842434 76.512026 
L 185.963016 76.421786 
L 186.078355 76.467015 
L 186.51874 76.963425 
L 186.980095 77.706501 
L 188.421832 81.732953 
L 188.600083 81.802574 
L 188.710179 81.888154 
L 189.223961 82.949393 
L 189.805899 83.621268 
L 189.900267 83.540866 
L 190.115217 83.500042 
L 190.29871 83.520734 
L 190.686668 83.880331 
L 191.079869 83.888165 
L 191.294819 83.812509 
L 191.740447 83.837653 
L 192.112677 83.884909 
L 192.64743 84.070954 
L 193.39189 84.596848 
L 193.716936 84.753937 
L 196.05517 86.325324 
L 196.558467 86.032249 
L 197.161375 85.752024 
L 197.397295 85.699471 
L 197.989718 85.823411 
L 198.624082 86.163885 
L 198.79709 86.111951 
L 199.426212 86.339577 
L 199.656889 86.395166 
L 200.212613 86.15557 
L 200.364651 86.362758 
L 201.911241 89.436268 
L 202.037065 89.498472 
L 202.629488 90.083171 
L 203.059387 90.403235 
L 203.657052 91.074283 
L 204.322872 92.238605 
L 205.145973 94.237183 
L 205.282282 94.389031 
L 206.184023 96.115231 
L 207.05955 96.665496 
L 207.368868 96.874057 
L 207.762069 97.039637 
L 208.406918 97.201228 
L 208.805362 97.136486 
L 209.382056 96.472169 
L 209.670403 96.273062 
L 211.290391 95.222713 
L 211.604951 95.16643 
L 211.872328 95.23154 
L 212.312713 95.796085 
L 212.38611 95.726389 
L 212.669215 95.463376 
L 212.711156 95.534875 
L 212.884165 95.760223 
L 212.941834 95.71772 
L 213.193483 95.611352 
L 213.209211 95.643542 
L 213.612897 96.265929 
L 213.848817 96.474981 
L 214.650947 97.534648 
L 214.876382 97.716411 
L 215.10706 97.843553 
L 215.673269 97.847854 
L 215.841035 97.817392 
L 216.061227 97.942893 
L 216.312876 98.166338 
L 216.905298 98.282109 
L 217.314227 98.407621 
L 217.487235 98.458119 
L 218.189754 98.175978 
L 218.913244 98.043668 
L 219.096737 98.121327 
L 219.558093 97.967862 
L 219.862168 98.108392 
L 220.098089 98.033112 
L 220.963131 97.670749 
L 221.351089 97.343961 
L 221.52934 97.459237 
L 221.880599 97.732589 
L 222.78234 97.672233 
L 223.296122 97.362918 
L 223.715536 97.296777 
L 224.255532 97.26293 
L 224.391842 97.325124 
L 224.837469 97.584215 
L 224.984264 97.641128 
L 225.461348 97.723548 
L 226.100954 97.465088 
L 226.273963 97.352961 
L 226.813959 96.967045 
L 227.332984 96.851837 
L 228.072201 97.109924 
L 228.858603 97.029845 
L 229.136465 97.001479 
L 229.728887 96.622948 
L 230.006749 96.277273 
L 230.289854 96.119747 
L 230.541502 95.925918 
L 230.808879 95.841654 
L 231.668678 95.727523 
L 232.428866 95.01577 
L 232.622845 94.948658 
L 232.759155 94.849321 
L 232.806339 94.938626 
L 233.204782 95.442878 
L 233.561284 95.863813 
L 234.096037 96.413084 
L 234.898167 97.220091 
L 235.338552 97.89219 
L 235.799908 98.403797 
L 236.722619 99.716708 
L 237.178732 100.474344 
L 237.608631 101.236379 
L 238.148627 101.781148 
L 239.438326 104.588979 
L 239.910167 104.938822 
L 240.130359 104.934378 
L 240.769966 104.888146 
L 241.540639 105.091804 
L 242.064907 104.796696 
L 242.610146 104.611326 
L 243.097715 104.60569 
L 243.999455 105.126747 
L 247.207974 104.508153 
L 247.601175 104.200229 
L 247.926221 104.084821 
L 248.419032 104.103501 
L 248.896116 104.040615 
L 250.385036 104.299478 
L 251.040371 104.660063 
L 251.454542 104.857656 
L 251.832015 104.618423 
L 252.974919 104.256903 
L 253.383848 104.26431 
L 253.81899 104.02595 
L 254.123065 103.572822 
L 254.437626 103.271917 
L 255.271212 103.089759 
L 255.753538 103.441232 
L 255.884605 103.415041 
L 256.041885 103.502121 
L 256.387902 103.755703 
L 256.56091 103.785353 
L 256.99081 104.329091 
L 257.457408 104.765731 
L 257.703814 104.969541 
L 258.296236 105.452446 
L 258.699923 105.32021 
L 259.093123 105.430894 
L 259.848069 105.569677 
L 260.141659 105.67512 
L 260.802236 105.77344 
L 261.688249 105.641949 
L 262.762998 105.139981 
L 264.209977 104.027308 
L 264.535023 103.923724 
L 265.085504 103.535252 
L 265.709382 103.115985 
L 266.102583 102.7586 
L 266.385688 102.538167 
L 267.308399 102.331071 
L 267.712085 102.42602 
L 269.48411 102.547857 
L 269.903524 102.807649 
L 270.574587 103.575242 
L 270.962545 103.759703 
L 271.156524 103.72988 
L 272.053022 104.057168 
L 272.194574 104.17517 
L 273.206411 105.423163 
L 274.260189 106.749825 
L 275.927361 107.351597 
L 277.096478 108.38687 
L 277.992976 108.910927 
L 278.470059 109.023744 
L 278.878988 108.970539 
L 279.130637 108.941256 
L 279.754515 109.016276 
L 280.855477 108.303379 
L 282.291971 108.340694 
L 282.690415 108.376679 
L 283.094101 108.377158 
L 285.836021 107.030008 
L 286.821644 107.060944 
L 287.351155 107.013304 
L 290.66977 107.026763 
L 291.314619 106.81898 
L 291.802188 107.067816 
L 292.064322 107.017822 
L 292.415581 107.186851 
L 292.719656 107.258488 
L 293.049945 107.227085 
L 293.710522 107.27048 
L 294.150907 106.945584 
L 294.434012 106.708849 
L 294.848183 106.556789 
L 295.230899 106.433297 
L 297.333213 105.411372 
L 297.99379 105.496476 
L 298.601941 105.552686 
L 299.152422 105.603524 
L 299.61902 105.699202 
L 300.573187 105.471531 
L 301.307162 105.547841 
L 301.789488 105.337283 
L 303.089672 104.887991 
L 303.708308 104.952508 
L 304.033354 104.908064 
L 304.751601 105.201338 
L 305.31781 105.433718 
L 305.842078 105.464142 
L 306.051785 105.364051 
L 307.320513 104.670383 
L 307.687501 104.509154 
L 308.164584 104.299386 
L 308.452931 104.452327 
L 308.809433 104.62203 
L 309.653505 104.773314 
L 310.120103 104.658592 
L 310.529032 104.929883 
L 310.979902 105.154798 
L 311.13194 105.216636 
L 311.519898 105.634812 
L 311.808245 105.706264 
L 313.407262 106.340633 
L 314.036383 106.69017 
L 314.251333 106.638698 
L 314.623563 106.326166 
L 315.247441 105.781138 
L 316.159667 105.571274 
L 316.573839 105.485439 
L 317.879265 105.16402 
L 318.115186 105.142011 
L 319.137508 105.509875 
L 319.457311 105.657669 
L 320.007792 105.685393 
L 321.145453 105.521266 
L 321.879428 105.566842 
L 322.807382 105.802828 
L 323.121943 105.874628 
L 324.060382 106.674894 
L 324.815328 107.227253 
L 325.659399 107.217014 
L 326.136482 107.616652 
L 326.707934 107.979308 
L 327.221717 107.754716 
L 327.54152 107.680297 
L 328.642482 107.69292 
L 329.365972 107.425497 
L 330.220528 107.27457 
L 330.676641 107.181078 
L 331.997796 107.700262 
L 332.328084 107.756122 
L 333.014875 107.571603 
L 333.628268 107.463287 
L 333.832733 107.538813 
L 334.92321 108.262056 
L 336.443586 109.444046 
L 336.747661 109.557036 
L 337.612703 109.932175 
L 337.984933 109.926304 
L 338.399105 110.126191 
L 339.070168 110.310566 
L 339.589193 110.421406 
L 341.078113 110.152326 
L 341.534226 110.498579 
L 342.493636 111.156977 
L 342.881594 111.19012 
L 343.002176 111.283185 
L 343.453046 111.531218 
L 344.454397 111.833945 
L 345.602544 112.318866 
L 347.426995 112.532647 
L 347.830682 112.438704 
L 349.497853 112.725542 
L 350.006393 112.967433 
L 351.621137 112.158341 
L 353.377434 111.758362 
L 354.467911 111.356823 
L 355.668484 110.958932 
L 355.91489 110.929409 
L 357.99099 111.666821 
L 358.242639 111.669895 
L 359.857384 112.025268 
L 360.381651 112.015799 
L 361.949212 112.363051 
L 363.773664 112.029081 
L 364.408028 112.168106 
L 365.178701 112.208548 
L 365.986073 112.02788 
L 366.594224 111.741178 
L 368.738479 112.364465 
L 369.168379 112.312717 
L 369.404299 112.26811 
L 370.867006 111.899395 
L 371.307391 111.700614 
L 371.669136 111.582775 
L 373.021747 110.943968 
L 373.519801 110.935894 
L 374.028341 110.81134 
L 375.831822 109.613633 
L 376.151625 109.636554 
L 376.67065 109.762815 
L 377.152976 109.926414 
L 377.561905 110.129166 
L 378.662868 110.083598 
L 379.454512 110.371362 
L 381.320905 111.310771 
L 381.556825 111.424199 
L 382.542449 111.863683 
L 383.09293 111.90657 
L 383.937001 111.852445 
L 385.572716 111.567552 
L 385.866306 111.504537 
L 387.958135 110.813662 
L 389.420842 110.513755 
L 390.160059 110.129745 
L 392.781398 109.30222 
L 394.317502 109.419798 
L 396.246808 109.105716 
L 397.043695 108.785016 
L 397.588933 108.891382 
L 397.803883 108.941077 
L 398.045046 109.002001 
L 399.009699 108.801083 
L 399.539209 108.972692 
L 399.958623 109.057342 
L 400.530075 109.229487 
L 400.697841 109.298418 
L 401.201138 109.586161 
L 401.845987 109.737777 
L 402.742485 109.966363 
L 404.587907 109.92995 
L 404.792372 109.897249 
L 405.421493 109.623746 
L 406.13974 109.264436 
L 407.167305 109.128326 
L 408.032346 108.957571 
L 408.619526 108.964461 
L 410.187087 108.461672 
L 411.461057 108.390868 
L 411.922413 108.370931 
L 412.949978 107.774849 
L 413.579099 107.436556 
L 414.690547 107.30253 
L 415.770538 107.401928 
L 416.200438 107.36996 
L 416.997325 107.565087 
L 417.343342 107.4936 
L 419.272647 107.551231 
L 419.540023 107.584981 
L 419.94371 107.5862 
L 420.300212 107.467124 
L 421.401174 107.319754 
L 421.66855 107.364725 
L 422.056509 107.374513 
L 422.433981 107.247896 
L 423.372421 107.117702 
L 425.275513 107.090858 
L 426.15104 106.917502 
L 430.025378 107.304824 
L 430.560131 107.400462 
L 431.10537 107.374058 
L 431.718763 107.350363 
L 432.51565 107.436748 
L 435.975817 107.743435 
L 436.348047 107.772067 
L 436.699307 107.970462 
L 437.076779 108.100716 
L 437.433281 108.112407 
L 437.868424 108.05458 
L 438.481817 108.030017 
L 438.990357 108.253672 
L 440.201415 108.523935 
L 440.636557 108.592622 
L 441.821402 108.91325 
L 442.466252 109.101547 
L 443.719252 109.354821 
L 444.358858 109.256558 
L 447.404854 109.268025 
L 448.128343 109.286069 
L 448.710281 109.341065 
L 449.187364 109.376565 
L 449.533381 109.341352 
L 450.010465 109.152845 
L 450.817837 108.908208 
L 452.778598 109.012049 
L 453.245197 109.13351 
L 454.372372 109.461129 
L 454.943824 109.653564 
L 455.56246 109.550799 
L 456.280707 109.484215 
L 457.009439 109.393738 
L 457.69623 109.176775 
L 458.393506 109.042407 
L 459.164179 108.925536 
L 459.934853 108.772015 
L 461.449987 108.466846 
L 462.529978 108.263565 
L 462.980849 108.375535 
L 464.485497 108.72377 
L 465.45015 108.567606 
L 465.932476 108.620848 
L 467.064894 108.434876 
L 467.573434 108.3584 
L 468.569543 108.171726 
L 469.240605 107.91985 
L 470.556517 107.518603 
L 470.99166 107.441996 
L 471.615538 107.241212 
L 472.055923 107.145574 
L 473.508145 107.326088 
L 474.483283 107.2665 
L 475.772981 107.13928 
L 477.351027 106.838069 
L 477.938207 106.928975 
L 479.479554 106.329929 
L 479.993337 106.175651 
L 480.863621 106.305849 
L 481.739148 106.48641 
L 483.091759 106.046732 
L 484.507282 106.141507 
L 485.875621 106.097434 
L 486.703964 106.270785 
L 490.49442 107.479658 
L 491.02393 107.587756 
L 492.245474 108.064807 
L 495.946804 107.940703 
L 497.01631 107.750264 
L 497.608733 107.778414 
L 498.594356 107.624462 
L 500.801524 107.669712 
L 502.258988 108.279755 
L 503.082088 108.594167 
L 503.711209 108.663538 
L 505.352168 109.207338 
L 506.358762 109.14011 
L 507.402054 109.154135 
L 507.852925 109.253672 
L 508.172728 109.386238 
L 508.828063 109.599279 
L 509.105925 109.595224 
L 509.535824 109.63804 
L 510.505719 109.61174 
L 511.187268 109.356451 
L 512.52415 109.010808 
L 513.321037 108.992997 
L 514.956753 108.972941 
L 515.517719 108.984985 
L 517.053824 109.345047 
L 517.945079 109.331698 
L 518.605656 109.346811 
L 522.06058 109.031337 
L 522.757857 109.009657 
L 523.570472 109.174222 
L 524.430271 109.381891 
L 527.402869 108.968845 
L 528.315095 109.116565 
L 529.977023 108.688433 
L 531.130412 108.803696 
L 532.514479 108.732502 
L 533.159329 108.659655 
L 533.793693 108.604935 
L 534.768831 108.298938 
L 537.128035 108.179414 
L 537.563178 108.119855 
L 537.935408 108.158473 
L 539.198893 107.501991 
L 540.651115 106.797061 
L 541.390332 106.546312 
L 542.821583 106.110706 
L 543.628955 105.899702 
L 545.699813 105.053918 
L 547.954164 105.156578 
L 548.745809 105.206289 
L 551.58734 105.312241 
L 552.101122 105.378806 
L 553.757808 105.540075 
L 554.732946 105.685531 
L 555.587503 105.801781 
L 556.457787 105.928512 
L 557.065938 105.937614 
L 557.820883 105.872141 
L 558.643984 106.005661 
L 560.195816 106.658979 
L 562.308615 107.31835 
L 562.859096 107.407876 
L 563.252297 107.469786 
L 565.826452 106.902831 
L 567.152849 106.464518 
L 568.012648 106.07546 
L 569.11361 105.574075 
L 570.099234 105.486701 
L 571.881744 105.713011 
L 572.783485 105.831354 
L 573.208141 105.803604 
L 573.847748 105.925971 
L 575.32094 105.86789 
L 575.687928 105.897676 
L 576.694522 106.001413 
L 576.956656 105.975563 
L 577.816455 105.90509 
L 578.697225 105.920522 
L 579.116639 105.955495 
L 579.929254 106.048214 
L 580.422066 106.037162 
L 580.883421 106.131246 
L 581.21371 106.147239 
L 582.755057 106.004424 
L 584.102425 106.181555 
L 584.62145 106.321926 
L 587.059295 106.245246 
L 587.457739 106.219797 
L 588.857534 106.576 
L 590.173446 107.21301 
L 590.818295 107.423577 
L 592.055567 107.714421 
L 592.527408 107.632335 
L 593.513031 107.538407 
L 594.734575 107.42053 
L 596.690094 107.564445 
L 597.874939 107.573524 
L 599.232792 107.724849 
L 600.978604 107.596735 
L 603.468876 107.724905 
L 605.350997 107.688967 
L 608.197771 108.579272 
L 609.005143 109.0346 
L 610.986875 109.156001 
L 610.986875 109.156001 
" clip-path="url(#p2b6df6dfad)" style="fill: none; stroke: #1f2937; stroke-linecap: square"/>
   </g>
   <g id="line2d_30">
    <path d="M 60.51125 109.156001 
L 637.2 109.156001 
" clip-path="url(#p2b6df6dfad)" style="fill: none; stroke-dasharray: 2.96,1.28; stroke-dashoffset: 0; stroke: #888888; stroke-width: 0.8"/>
   </g>
   <g id="patch_3">
    <path d="M 60.51125 282.04 
L 60.51125 26.88 
" style="fill: none; stroke: #000000; stroke-width: 0.8; stroke-linejoin: miter; stroke-linecap: square"/>
   </g>
   <g id="patch_4">
    <path d="M 637.2 282.04 
L 637.2 26.88 
" style="fill: none; stroke: #000000; stroke-width: 0.8; stroke-linejoin: miter; stroke-linecap: square"/>
   </g>
   <g id="patch_5">
    <path d="M 60.51125 282.04 
L 637.2 282.04 
" style="fill: none; stroke: #000000; stroke-width: 0.8; stroke-linejoin: miter; stroke-linecap: square"/>
   </g>
   <g id="patch_6">
    <path d="M 60.51125 26.88 
L 637.2 26.88 
" style="fill: none; stroke: #000000; stroke-width: 0.8; stroke-linejoin: miter; stroke-linecap: square"/>
   </g>
   <g id="text_17">
    <!-- Running mean — mean_median  (100k ReCom samples, seed 42) -->
    <g transform="translate(151.880312 20.88) scale(0.12 -0.12)">
     <defs>
      <path id="DejaVuSans-2014" d="M 313 1978 
L 6088 1978 
L 6088 1528 
L 313 1528 
L 313 1978 
z
" transform="scale(0.015625)"/>
      <path id="DejaVuSans-28" d="M 1984 4856 
Q 1566 4138 1362 3434 
Q 1159 2731 1159 2009 
Q 1159 1288 1364 580 
Q 1569 -128 1984 -844 
L 1484 -844 
Q 1016 -109 783 600 
Q 550 1309 550 2009 
Q 550 2706 781 3412 
Q 1013 4119 1484 4856 
L 1984 4856 
z
" transform="scale(0.015625)"/>
      <path id="DejaVuSans-6b" d="M 581 4863 
L 1159 4863 
L 1159 1991 
L 2875 3500 
L 3609 3500 
L 1753 1863 
L 3688 0 
L 2938 0 
L 1159 1709 
L 1159 0 
L 581 0 
L 581 4863 
z
" transform="scale(0.015625)"/>
      <path id="DejaVuSans-43" d="M 4122 4306 
L 4122 3641 
Q 3803 3938 3442 4084 
Q 3081 4231 2675 4231 
Q 1875 4231 1450 3742 
Q 1025 3253 1025 2328 
Q 1025 1406 1450 917 
Q 1875 428 2675 428 
Q 3081 428 3442 575 
Q 3803 722 4122 1019 
L 4122 359 
Q 3791 134 3420 21 
Q 3050 -91 2638 -91 
Q 1578 -91 968 557 
Q 359 1206 359 2328 
Q 359 3453 968 4101 
Q 1578 4750 2638 4750 
Q 3056 4750 3426 4639 
Q 3797 4528 4122 4306 
z
" transform="scale(0.015625)"/>
      <path id="DejaVuSans-73" d="M 2834 3397 
L 2834 2853 
Q 2591 2978 2328 3040 
Q 2066 3103 1784 3103 
Q 1356 3103 1142 2972 
Q 928 2841 928 2578 
Q 928 2378 1081 2264 
Q 1234 2150 1697 2047 
L 1894 2003 
Q 2506 1872 2764 1633 
Q 3022 1394 3022 966 
Q 3022 478 2636 193 
Q 2250 -91 1575 -91 
Q 1294 -91 989 -36 
Q 684 19 347 128 
L 347 722 
Q 666 556 975 473 
Q 1284 391 1588 391 
Q 1994 391 2212 530 
Q 2431 669 2431 922 
Q 2431 1156 2273 1281 
Q 2116 1406 1581 1522 
L 1381 1569 
Q 847 1681 609 1914 
Q 372 2147 372 2553 
Q 372 3047 722 3315 
Q 1072 3584 1716 3584 
Q 2034 3584 2315 3537 
Q 2597 3491 2834 3397 
z
" transform="scale(0.015625)"/>
      <path id="DejaVuSans-2c" d="M 750 794 
L 1409 794 
L 1409 256 
L 897 -744 
L 494 -744 
L 750 256 
L 750 794 
z
" transform="scale(0.015625)"/>
      <path id="DejaVuSans-29" d="M 513 4856 
L 1013 4856 
Q 1481 4119 1714 3412 
Q 1947 2706 1947 2009 
Q 1947 1309 1714 600 
Q 1481 -109 1013 -844 
L 513 -844 
Q 928 -128 1133 580 
Q 1338 1288 1338 2009 
Q 1338 2731 1133 3434 
Q 928 4138 513 4856 
z
" transform="scale(0.015625)"/>
     </defs>
     <use xlink:href="#DejaVuSans-52"/>
     <use xlink:href="#DejaVuSans-75" transform="translate(64.982422 0)"/>
     <use xlink:href="#DejaVuSans-6e" transform="translate(128.361328 0)"/>
     <use xlink:href="#DejaVuSans-6e" transform="translate(191.740234 0)"/>
     <use xlink:href="#DejaVuSans-69" transform="translate(255.119141 0)"/>
     <use xlink:href="#DejaVuSans-6e" transform="translate(282.902344 0)"/>
     <use xlink:href="#DejaVuSans-67" transform="translate(346.28125 0)"/>
     <use xlink:href="#DejaVuSans-20" transform="translate(409.757812 0)"/>
     <use xlink:href="#DejaVuSans-6d" transform="translate(441.544922 0)"/>
     <use xlink:href="#DejaVuSans-65" transform="translate(538.957031 0)"/>
     <use xlink:href="#DejaVuSans-61" transform="translate(600.480469 0)"/>
     <use xlink:href="#DejaVuSans-6e" transform="translate(661.759766 0)"/>
     <use xlink:href="#DejaVuSans-20" transform="translate(725.138672 0)"/>
     <use xlink:href="#DejaVuSans-2014" transform="translate(756.925781 0)"/>
     <use xlink:href="#DejaVuSans-20" transform="translate(856.925781 0)"/>
     <use xlink:href="#DejaVuSans-6d" transform="translate(888.712891 0)"/>
     <use xlink:href="#DejaVuSans-65" transform="translate(986.125 0)"/>
     <use xlink:href="#DejaVuSans-61" transform="translate(1047.648438 0)"/>
     <use xlink:href="#DejaVuSans-6e" transform="translate(1108.927734 0)"/>
     <use xlink:href="#DejaVuSans-5f" transform="translate(1172.306641 0)"/>
     <use xlink:href="#DejaVuSans-6d" transform="translate(1222.306641 0)"/>
     <use xlink:href="#DejaVuSans-65" transform="translate(1319.71875 0)"/>
     <use xlink:href="#DejaVuSans-64" transform="translate(1381.242188 0)"/>
     <use xlink:href="#DejaVuSans-69" transform="translate(1444.71875 0)"/>
     <use xlink:href="#DejaVuSans-61" transform="translate(1472.501953 0)"/>
     <use xlink:href="#DejaVuSans-6e" transform="translate(1533.78125 0)"/>
     <use xlink:href="#DejaVuSans-20" transform="translate(1597.160156 0)"/>
     <use xlink:href="#DejaVuSans-20" transform="translate(1628.947266 0)"/>
     <use xlink:href="#DejaVuSans-28" transform="translate(1660.734375 0)"/>
     <use xlink:href="#DejaVuSans-31" transform="translate(1699.748047 0)"/>
     <use xlink:href="#DejaVuSans-30" transform="translate(1763.371094 0)"/>
     <use xlink:href="#DejaVuSans-30" transform="translate(1826.994141 0)"/>
     <use xlink:href="#DejaVuSans-6b" transform="translate(1890.617188 0)"/>
     <use xlink:href="#DejaVuSans-20" transform="translate(1948.527344 0)"/>
     <use xlink:href="#DejaVuSans-52" transform="translate(1980.314453 0)"/>
     <use xlink:href="#DejaVuSans-65" transform="translate(2045.296875 0)"/>
     <use xlink:href="#DejaVuSans-43" transform="translate(2106.820312 0)"/>
     <use xlink:href="#DejaVuSans-6f" transform="translate(2176.644531 0)"/>
     <use xlink:href="#DejaVuSans-6d" transform="translate(2237.826172 0)"/>
     <use xlink:href="#DejaVuSans-20" transform="translate(2335.238281 0)"/>
     <use xlink:href="#DejaVuSans-73" transform="translate(2367.025391 0)"/>
     <use xlink:href="#DejaVuSans-61" transform="translate(2419.125 0)"/>
     <use xlink:href="#DejaVuSans-6d" transform="translate(2480.404297 0)"/>
     <use xlink:href="#DejaVuSans-70" transform="translate(2577.816406 0)"/>
     <use xlink:href="#DejaVuSans-6c" transform="translate(2641.292969 0)"/>
     <use xlink:href="#DejaVuSans-65" transform="translate(2669.076172 0)"/>
     <use xlink:href="#DejaVuSans-73" transform="translate(2730.599609 0)"/>
     <use xlink:href="#DejaVuSans-2c" transform="translate(2782.699219 0)"/>
     <use xlink:href="#DejaVuSans-20" transform="translate(2814.486328 0)"/>
     <use xlink:href="#DejaVuSans-73" transform="translate(2846.273438 0)"/>
     <use xlink:href="#DejaVuSans-65" transform="translate(2898.373047 0)"/>
     <use xlink:href="#DejaVuSans-65" transform="translate(2959.896484 0)"/>
     <use xlink:href="#DejaVuSans-64" transform="translate(3021.419922 0)"/>
     <use xlink:href="#DejaVuSans-20" transform="translate(3084.896484 0)"/>
     <use xlink:href="#DejaVuSans-34" transform="translate(3116.683594 0)"/>
     <use xlink:href="#DejaVuSans-32" transform="translate(3180.306641 0)"/>
     <use xlink:href="#DejaVuSans-29" transform="translate(3243.929688 0)"/>
    </g>
   </g>
   <g id="legend_1">
    <g id="patch_7">
     <path d="M 496.306406 47.290312 
L 630.9 47.290312 
Q 632.7 47.290312 632.7 45.490312 
L 632.7 33.18 
Q 632.7 31.38 630.9 31.38 
L 496.306406 31.38 
Q 494.506406 31.38 494.506406 33.18 
L 494.506406 45.490312 
Q 494.506406 47.290312 496.306406 47.290312 
z
" style="fill: #ffffff; opacity: 0.8; stroke: #cccccc; stroke-linejoin: miter"/>
    </g>
    <g id="line2d_31">
     <path d="M 498.106406 38.668594 
L 507.106406 38.668594 
L 516.106406 38.668594 
" style="fill: none; stroke-dasharray: 2.96,1.28; stroke-dashoffset: 0; stroke: #888888; stroke-width: 0.8"/>
    </g>
    <g id="text_18">
     <!-- final mean = +0.01360 -->
     <g transform="translate(523.306406 41.818594) scale(0.09 -0.09)">
      <defs>
       <path id="DejaVuSans-3d" d="M 678 2906 
L 4684 2906 
L 4684 2381 
L 678 2381 
L 678 2906 
z
M 678 1631 
L 4684 1631 
L 4684 1100 
L 678 1100 
L 678 1631 
z
" transform="scale(0.015625)"/>
       <path id="DejaVuSans-2b" d="M 2944 4013 
L 2944 2272 
L 4684 2272 
L 4684 1741 
L 2944 1741 
L 2944 0 
L 2419 0 
L 2419 1741 
L 678 1741 
L 678 2272 
L 2419 2272 
L 2419 4013 
L 2944 4013 
z
" transform="scale(0.015625)"/>
       <path id="DejaVuSans-33" d="M 2597 2516 
Q 3050 2419 3304 2112 
Q 3559 1806 3559 1356 
Q 3559 666 3084 287 
Q 2609 -91 1734 -91 
Q 1441 -91 1130 -33 
Q 819 25 488 141 
L 488 750 
Q 750 597 1062 519 
Q 1375 441 1716 441 
Q 2309 441 2620 675 
Q 2931 909 2931 1356 
Q 2931 1769 2642 2001 
Q 2353 2234 1838 2234 
L 1294 2234 
L 1294 2753 
L 1863 2753 
Q 2328 2753 2575 2939 
Q 2822 3125 2822 3475 
Q 2822 3834 2567 4026 
Q 2313 4219 1838 4219 
Q 1578 4219 1281 4162 
Q 984 4106 628 3988 
L 628 4550 
Q 988 4650 1302 4700 
Q 1616 4750 1894 4750 
Q 2613 4750 3031 4423 
Q 3450 4097 3450 3541 
Q 3450 3153 3228 2886 
Q 3006 2619 2597 2516 
z
" transform="scale(0.015625)"/>
      </defs>
      <use xlink:href="#DejaVuSans-66"/>
      <use xlink:href="#DejaVuSans-69" transform="translate(35.205078 0)"/>
      <use xlink:href="#DejaVuSans-6e" transform="translate(62.988281 0)"/>
      <use xlink:href="#DejaVuSans-61" transform="translate(126.367188 0)"/>
      <use xlink:href="#DejaVuSans-6c" transform="translate(187.646484 0)"/>
      <use xlink:href="#DejaVuSans-20" transform="translate(215.429688 0)"/>
      <use xlink:href="#DejaVuSans-6d" transform="translate(247.216797 0)"/>
      <use xlink:href="#DejaVuSans-65" transform="translate(344.628906 0)"/>
      <use xlink:href="#DejaVuSans-61" transform="translate(406.152344 0)"/>
      <use xlink:href="#DejaVuSans-6e" transform="translate(467.431641 0)"/>
      <use xlink:href="#DejaVuSans-20" transform="translate(530.810547 0)"/>
      <use xlink:href="#DejaVuSans-3d" transform="translate(562.597656 0)"/>
      <use xlink:href="#DejaVuSans-20" transform="translate(646.386719 0)"/>
      <use xlink:href="#DejaVuSans-2b" transform="translate(678.173828 0)"/>
      <use xlink:href="#DejaVuSans-30" transform="translate(761.962891 0)"/>
      <use xlink:href="#DejaVuSans-2e" transform="translate(825.585938 0)"/>
      <use xlink:href="#DejaVuSans-30" transform="translate(857.373047 0)"/>
      <use xlink:href="#DejaVuSans-31" transform="translate(920.996094 0)"/>
      <use xlink:href="#DejaVuSans-33" transform="translate(984.619141 0)"/>
      <use xlink:href="#DejaVuSans-36" transform="translate(1048.242188 0)"/>
      <use xlink:href="#DejaVuSans-30" transform="translate(1111.865234 0)"/>
     </g>
    </g>
   </g>
  </g>
 </g>
 <defs>
  <clipPath id="p2b6df6dfad">
   <rect x="60.51125" y="26.88" width="576.68875" height="255.16"/>
  </clipPath>
 </defs>
</svg>
