<?xml version="1.0" encoding="utf-8" standalone="no"?>
<!DOCTYPE svg PUBLIC "-//W3C//DTD SVG 1.1//EN"
  "http://www.w3.org/Graphics/SVG/1.1/DTD/svg11.dtd">
<svg xmlns:xlink="http://www.w3.org/1999/xlink" width="648pt" height="324pt" viewBox="0 0 648 324" xmlns="http://www.w3.org/2000/svg" version="1.1">
 <metadata>
  <rdf:RDF xmlns:dc="http://purl.org/dc/elements/1.1/" xmlns:cc="http://creativecommons.org/ns#" xmlns:rdf="http://www.w3.org/1999/02/22-rdf-syntax-ns#">
   <cc:Work>
    <dc:type rdf:resource="http://purl.org/dc/dcmitype/StillImage"/>
    <dc:date>2026-05-07T14:19:21.730446</dc:date>
    <dc:format>image/svg+xml</dc:format>
    <dc:creator>
     <cc:Agent>
      <dc:title>Matplotlib v3.10.8, https://matplotlib.org/</dc:title>
     </cc:Agent>
    </dc:creator>
   </cc:Work>
  </rdf:RDF>
 </metadata>
 <defs>
  <style type="text/css">*{stroke-linejoin: round; stroke-linecap: butt}</style>
 </defs>
 <g id="figure_1">
  <g id="patch_1">
   <path d="M 0 324 
L 648 324 
L 648 0 
L 0 0 
z
" style="fill: #ffffff"/>
  </g>
  <g id="axes_1">
   <g id="patch_2">
    <path d="M 60.32 282.04 
L 637.2 282.04 
L 637.2 26.88 
L 60.32 26.88 
z
" style="fill: #ffffff"/>
   </g>
   <g id="matplotlib.axis_1">
    <g id="xtick_1">
     <g id="line2d_1">
      <path d="M 86.53972 282.04 
L 86.53972 26.88 
" clip-path="url(#p8be15a014d)" style="fill: none; stroke-dasharray: 0.5,0.825; stroke-dashoffset: 0; stroke: #b0b0b0; stroke-opacity: 0.6; stroke-width: 0.5"/>
     </g>
     <g id="line2d_2">
      <defs>
       <path id="m36ceafd37c" d="M 0 0 
L 0 3.5 
" style="stroke: #000000; stroke-width: 0.8"/>
      </defs>
      <g>
       <use xlink:href="#m36ceafd37c" x="86.53972" y="282.04" style="stroke: #000000; stroke-width: 0.8"/>
      </g>
     </g>
     <g id="text_1">
      <!-- 0 -->
      <g transform="translate(83.35847 296.638438) scale(0.1 -0.1)">
       <defs>
        <path id="DejaVuSans-30" d="M 2034 4250 
Q 1547 4250 1301 3770 
Q 1056 3291 1056 2328 
Q 1056 1369 1301 889 
Q 1547 409 2034 409 
Q 2525 409 2770 889 
Q 3016 1369 3016 2328 
Q 3016 3291 2770 3770 
Q 2525 4250 2034 4250 
z
M 2034 4750 
Q 2819 4750 3233 4129 
Q 3647 3509 3647 2328 
Q 3647 1150 3233 529 
Q 2819 -91 2034 -91 
Q 1250 -91 836 529 
Q 422 1150 422 2328 
Q 422 3509 836 4129 
Q 1250 4750 2034 4750 
z
" transform="scale(0.015625)"/>
       </defs>
       <use xlink:href="#DejaVuSans-30"/>
      </g>
     </g>
    </g>
    <g id="xtick_2">
     <g id="line2d_3">
      <path d="M 191.427413 282.04 
L 191.427413 26.88 
" clip-path="url(#p8be15a014d)" style="fill: none; stroke-dasharray: 0.5,0.825; stroke-dashoffset: 0; stroke: #b0b0b0; stroke-opacity: 0.6; stroke-width: 0.5"/>
     </g>
     <g id="line2d_4">
      <g>
       <use xlink:href="#m36ceafd37c" x="191.427413" y="282.04" style="stroke: #000000; stroke-width: 0.8"/>
      </g>
     </g>
     <g id="text_2">
      <!-- 50000 -->
      <g transform="translate(175.521163 296.638438) scale(0.1 -0.1)">
       <defs>
        <path id="DejaVuSans-35" d="M 691 4666 
L 3169 4666 
L 3169 4134 
L 1269 4134 
L 1269 2991 
Q 1406 3038 1543 3061 
Q 1681 3084 1819 3084 
Q 2600 3084 3056 2656 
Q 3513 2228 3513 1497 
Q 3513 744 3044 326 
Q 2575 -91 1722 -91 
Q 1428 -91 1123 -41 
Q 819 9 494 109 
L 494 744 
Q 775 591 1075 516 
Q 1375 441 1709 441 
Q 2250 441 2565 725 
Q 2881 1009 2881 1497 
Q 2881 1984 2565 2268 
Q 2250 2553 1709 2553 
Q 1456 2553 1204 2497 
Q 953 2441 691 2322 
L 691 4666 
z
" transform="scale(0.015625)"/>
       </defs>
       <use xlink:href="#DejaVuSans-35"/>
       <use xlink:href="#DejaVuSans-30" transform="translate(63.623047 0)"/>
       <use xlink:href="#DejaVuSans-30" transform="translate(127.246094 0)"/>
       <use xlink:href="#DejaVuSans-30" transform="translate(190.869141 0)"/>
       <use xlink:href="#DejaVuSans-30" transform="translate(254.492188 0)"/>
      </g>
     </g>
    </g>
    <g id="xtick_3">
     <g id="line2d_5">
      <path d="M 296.315105 282.04 
L 296.315105 26.88 
" clip-path="url(#p8be15a014d)" style="fill: none; stroke-dasharray: 0.5,0.825; stroke-dashoffset: 0; stroke: #b0b0b0; stroke-opacity: 0.6; stroke-width: 0.5"/>
     </g>
     <g id="line2d_6">
      <g>
       <use xlink:href="#m36ceafd37c" x="296.315105" y="282.04" style="stroke: #000000; stroke-width: 0.8"/>
      </g>
     </g>
     <g id="text_3">
      <!-- 100000 -->
      <g transform="translate(277.227605 296.638438) scale(0.1 -0.1)">
       <defs>
        <path id="DejaVuSans-31" d="M 794 531 
L 1825 531 
L 1825 4091 
L 703 3866 
L 703 4441 
L 1819 4666 
L 2450 4666 
L 2450 531 
L 3481 531 
L 3481 0 
L 794 0 
L 794 531 
z
" transform="scale(0.015625)"/>
       </defs>
       <use xlink:href="#DejaVuSans-31"/>
       <use xlink:href="#DejaVuSans-30" transform="translate(63.623047 0)"/>
       <use xlink:href="#DejaVuSans-30" transform="translate(127.246094 0)"/>
       <use xlink:href="#DejaVuSans-30" transform="translate(190.869141 0)"/>
       <use xlink:href="#DejaVuSans-30" transform="translate(254.492188 0)"/>
       <use xlink:href="#DejaVuSans-30" transform="translate(318.115234 0)"/>
      </g>
     </g>
    </g>
    <g id="xtick_4">
     <g id="line2d_7">
      <path d="M 401.202797 282.04 
L 401.202797 26.88 
" clip-path="url(#p8be15a014d)" style="fill: none; stroke-dasharray: 0.5,0.825; stroke-dashoffset: 0; stroke: #b0b0b0; stroke-opacity: 0.6; stroke-width: 0.5"/>
     </g>
     <g id="line2d_8">
      <g>
       <use xlink:href="#m36ceafd37c" x="401.202797" y="282.04" style="stroke: #000000; stroke-width: 0.8"/>
      </g>
     </g>
     <g id="text_4">
      <!-- 150000 -->
      <g transform="translate(382.115297 296.638438) scale(0.1 -0.1)">
       <use xlink:href="#DejaVuSans-31"/>
       <use xlink:href="#DejaVuSans-35" transform="translate(63.623047 0)"/>
       <use xlink:href="#DejaVuSans-30" transform="translate(127.246094 0)"/>
       <use xlink:href="#DejaVuSans-30" transform="translate(190.869141 0)"/>
       <use xlink:href="#DejaVuSans-30" transform="translate(254.492188 0)"/>
       <use xlink:href="#DejaVuSans-30" transform="translate(318.115234 0)"/>
      </g>
     </g>
    </g>
    <g id="xtick_5">
     <g id="line2d_9">
      <path d="M 506.09049 282.04 
L 506.09049 26.88 
" clip-path="url(#p8be15a014d)" style="fill: none; stroke-dasharray: 0.5,0.825; stroke-dashoffset: 0; stroke: #b0b0b0; stroke-opacity: 0.6; stroke-width: 0.5"/>
     </g>
     <g id="line2d_10">
      <g>
       <use xlink:href="#m36ceafd37c" x="506.09049" y="282.04" style="stroke: #000000; stroke-width: 0.8"/>
      </g>
     </g>
     <g id="text_5">
      <!-- 200000 -->
      <g transform="translate(487.00299 296.638438) scale(0.1 -0.1)">
       <defs>
        <path id="DejaVuSans-32" d="M 1228 531 
L 3431 531 
L 3431 0 
L 469 0 
L 469 531 
Q 828 903 1448 1529 
Q 2069 2156 2228 2338 
Q 2531 2678 2651 2914 
Q 2772 3150 2772 3378 
Q 2772 3750 2511 3984 
Q 2250 4219 1831 4219 
Q 1534 4219 1204 4116 
Q 875 4013 500 3803 
L 500 4441 
Q 881 4594 1212 4672 
Q 1544 4750 1819 4750 
Q 2544 4750 2975 4387 
Q 3406 4025 3406 3419 
Q 3406 3131 3298 2873 
Q 3191 2616 2906 2266 
Q 2828 2175 2409 1742 
Q 1991 1309 1228 531 
z
" transform="scale(0.015625)"/>
       </defs>
       <use xlink:href="#DejaVuSans-32"/>
       <use xlink:href="#DejaVuSans-30" transform="translate(63.623047 0)"/>
       <use xlink:href="#DejaVuSans-30" transform="translate(127.246094 0)"/>
       <use xlink:href="#DejaVuSans-30" transform="translate(190.869141 0)"/>
       <use xlink:href="#DejaVuSans-30" transform="translate(254.492188 0)"/>
       <use xlink:href="#DejaVuSans-30" transform="translate(318.115234 0)"/>
      </g>
     </g>
    </g>
    <g id="xtick_6">
     <g id="line2d_11">
      <path d="M 610.978182 282.04 
L 610.978182 26.88 
" clip-path="url(#p8be15a014d)" style="fill: none; stroke-dasharray: 0.5,0.825; stroke-dashoffset: 0; stroke: #b0b0b0; stroke-opacity: 0.6; stroke-width: 0.5"/>
     </g>
     <g id="line2d_12">
      <g>
       <use xlink:href="#m36ceafd37c" x="610.978182" y="282.04" style="stroke: #000000; stroke-width: 0.8"/>
      </g>
     </g>
     <g id="text_6">
      <!-- 250000 -->
      <g transform="translate(591.890682 296.638438) scale(0.1 -0.1)">
       <use xlink:href="#DejaVuSans-32"/>
       <use xlink:href="#DejaVuSans-35" transform="translate(63.623047 0)"/>
       <use xlink:href="#DejaVuSans-30" transform="translate(127.246094 0)"/>
       <use xlink:href="#DejaVuSans-30" transform="translate(190.869141 0)"/>
       <use xlink:href="#DejaVuSans-30" transform="translate(254.492188 0)"/>
       <use xlink:href="#DejaVuSans-30" transform="translate(318.115234 0)"/>
      </g>
     </g>
    </g>
    <g id="text_7">
     <!-- Sample index -->
     <g transform="translate(314.742031 310.316563) scale(0.1 -0.1)">
      <defs>
       <path id="DejaVuSans-53" d="M 3425 4513 
L 3425 3897 
Q 3066 4069 2747 4153 
Q 2428 4238 2131 4238 
Q 1616 4238 1336 4038 
Q 1056 3838 1056 3469 
Q 1056 3159 1242 3001 
Q 1428 2844 1947 2747 
L 2328 2669 
Q 3034 2534 3370 2195 
Q 3706 1856 3706 1288 
Q 3706 609 3251 259 
Q 2797 -91 1919 -91 
Q 1588 -91 1214 -16 
Q 841 59 441 206 
L 441 856 
Q 825 641 1194 531 
Q 1563 422 1919 422 
Q 2459 422 2753 634 
Q 3047 847 3047 1241 
Q 3047 1584 2836 1778 
Q 2625 1972 2144 2069 
L 1759 2144 
Q 1053 2284 737 2584 
Q 422 2884 422 3419 
Q 422 4038 858 4394 
Q 1294 4750 2059 4750 
Q 2388 4750 2728 4690 
Q 3069 4631 3425 4513 
z
" transform="scale(0.015625)"/>
       <path id="DejaVuSans-61" d="M 2194 1759 
Q 1497 1759 1228 1600 
Q 959 1441 959 1056 
Q 959 750 1161 570 
Q 1363 391 1709 391 
Q 2188 391 2477 730 
Q 2766 1069 2766 1631 
L 2766 1759 
L 2194 1759 
z
M 3341 1997 
L 3341 0 
L 2766 0 
L 2766 531 
Q 2569 213 2275 61 
Q 1981 -91 1556 -91 
Q 1019 -91 701 211 
Q 384 513 384 1019 
Q 384 1609 779 1909 
Q 1175 2209 1959 2209 
L 2766 2209 
L 2766 2266 
Q 2766 2663 2505 2880 
Q 2244 3097 1772 3097 
Q 1472 3097 1187 3025 
Q 903 2953 641 2809 
L 641 3341 
Q 956 3463 1253 3523 
Q 1550 3584 1831 3584 
Q 2591 3584 2966 3190 
Q 3341 2797 3341 1997 
z
" transform="scale(0.015625)"/>
       <path id="DejaVuSans-6d" d="M 3328 2828 
Q 3544 3216 3844 3400 
Q 4144 3584 4550 3584 
Q 5097 3584 5394 3201 
Q 5691 2819 5691 2113 
L 5691 0 
L 5113 0 
L 5113 2094 
Q 5113 2597 4934 2840 
Q 4756 3084 4391 3084 
Q 3944 3084 3684 2787 
Q 3425 2491 3425 1978 
L 3425 0 
L 2847 0 
L 2847 2094 
Q 2847 2600 2669 2842 
Q 2491 3084 2119 3084 
Q 1678 3084 1418 2786 
Q 1159 2488 1159 1978 
L 1159 0 
L 581 0 
L 581 3500 
L 1159 3500 
L 1159 2956 
Q 1356 3278 1631 3431 
Q 1906 3584 2284 3584 
Q 2666 3584 2933 3390 
Q 3200 3197 3328 2828 
z
" transform="scale(0.015625)"/>
       <path id="DejaVuSans-70" d="M 1159 525 
L 1159 -1331 
L 581 -1331 
L 581 3500 
L 1159 3500 
L 1159 2969 
Q 1341 3281 1617 3432 
Q 1894 3584 2278 3584 
Q 2916 3584 3314 3078 
Q 3713 2572 3713 1747 
Q 3713 922 3314 415 
Q 2916 -91 2278 -91 
Q 1894 -91 1617 61 
Q 1341 213 1159 525 
z
M 3116 1747 
Q 3116 2381 2855 2742 
Q 2594 3103 2138 3103 
Q 1681 3103 1420 2742 
Q 1159 2381 1159 1747 
Q 1159 1113 1420 752 
Q 1681 391 2138 391 
Q 2594 391 2855 752 
Q 3116 1113 3116 1747 
z
" transform="scale(0.015625)"/>
       <path id="DejaVuSans-6c" d="M 603 4863 
L 1178 4863 
L 1178 0 
L 603 0 
L 603 4863 
z
" transform="scale(0.015625)"/>
       <path id="DejaVuSans-65" d="M 3597 1894 
L 3597 1613 
L 953 1613 
Q 991 1019 1311 708 
Q 1631 397 2203 397 
Q 2534 397 2845 478 
Q 3156 559 3463 722 
L 3463 178 
Q 3153 47 2828 -22 
Q 2503 -91 2169 -91 
Q 1331 -91 842 396 
Q 353 884 353 1716 
Q 353 2575 817 3079 
Q 1281 3584 2069 3584 
Q 2775 3584 3186 3129 
Q 3597 2675 3597 1894 
z
M 3022 2063 
Q 3016 2534 2758 2815 
Q 2500 3097 2075 3097 
Q 1594 3097 1305 2825 
Q 1016 2553 972 2059 
L 3022 2063 
z
" transform="scale(0.015625)"/>
       <path id="DejaVuSans-20" transform="scale(0.015625)"/>
       <path id="DejaVuSans-69" d="M 603 3500 
L 1178 3500 
L 1178 0 
L 603 0 
L 603 3500 
z
M 603 4863 
L 1178 4863 
L 1178 4134 
L 603 4134 
L 603 4863 
z
" transform="scale(0.015625)"/>
       <path id="DejaVuSans-6e" d="M 3513 2113 
L 3513 0 
L 2938 0 
L 2938 2094 
Q 2938 2591 2744 2837 
Q 2550 3084 2163 3084 
Q 1697 3084 1428 2787 
Q 1159 2491 1159 1978 
L 1159 0 
L 581 0 
L 581 3500 
L 1159 3500 
L 1159 2956 
Q 1366 3272 1645 3428 
Q 1925 3584 2291 3584 
Q 2894 3584 3203 3211 
Q 3513 2838 3513 2113 
z
" transform="scale(0.015625)"/>
       <path id="DejaVuSans-64" d="M 2906 2969 
L 2906 4863 
L 3481 4863 
L 3481 0 
L 2906 0 
L 2906 525 
Q 2725 213 2448 61 
Q 2172 -91 1784 -91 
Q 1150 -91 751 415 
Q 353 922 353 1747 
Q 353 2572 751 3078 
Q 1150 3584 1784 3584 
Q 2172 3584 2448 3432 
Q 2725 3281 2906 2969 
z
M 947 1747 
Q 947 1113 1208 752 
Q 1469 391 1925 391 
Q 2381 391 2643 752 
Q 2906 1113 2906 1747 
Q 2906 2381 2643 2742 
Q 2381 3103 1925 3103 
Q 1469 3103 1208 2742 
Q 947 2381 947 1747 
z
" transform="scale(0.015625)"/>
       <path id="DejaVuSans-78" d="M 3513 3500 
L 2247 1797 
L 3578 0 
L 2900 0 
L 1881 1375 
L 863 0 
L 184 0 
L 1544 1831 
L 300 3500 
L 978 3500 
L 1906 2253 
L 2834 3500 
L 3513 3500 
z
" transform="scale(0.015625)"/>
      </defs>
      <use xlink:href="#DejaVuSans-53"/>
      <use xlink:href="#DejaVuSans-61" transform="translate(63.476562 0)"/>
      <use xlink:href="#DejaVuSans-6d" transform="translate(124.755859 0)"/>
      <use xlink:href="#DejaVuSans-70" transform="translate(222.167969 0)"/>
      <use xlink:href="#DejaVuSans-6c" transform="translate(285.644531 0)"/>
      <use xlink:href="#DejaVuSans-65" transform="translate(313.427734 0)"/>
      <use xlink:href="#DejaVuSans-20" transform="translate(374.951172 0)"/>
      <use xlink:href="#DejaVuSans-69" transform="translate(406.738281 0)"/>
      <use xlink:href="#DejaVuSans-6e" transform="translate(434.521484 0)"/>
      <use xlink:href="#DejaVuSans-64" transform="translate(497.900391 0)"/>
      <use xlink:href="#DejaVuSans-65" transform="translate(561.376953 0)"/>
      <use xlink:href="#DejaVuSans-78" transform="translate(621.150391 0)"/>
     </g>
    </g>
   </g>
   <g id="matplotlib.axis_2">
    <g id="ytick_1">
     <g id="line2d_13">
      <path d="M 60.32 246.852781 
L 637.2 246.852781 
" clip-path="url(#p8be15a014d)" style="fill: none; stroke-dasharray: 0.5,0.825; stroke-dashoffset: 0; stroke: #b0b0b0; stroke-opacity: 0.6; stroke-width: 0.5"/>
     </g>
     <g id="line2d_14">
      <defs>
       <path id="m337bd30e06" d="M 0 0 
L -3.5 0 
" style="stroke: #000000; stroke-width: 0.8"/>
      </defs>
      <g>
       <use xlink:href="#m337bd30e06" x="60.32" y="246.852781" style="stroke: #000000; stroke-width: 0.8"/>
      </g>
     </g>
     <g id="text_8">
      <!-- 0.010 -->
      <g transform="translate(24.691875 250.651999) scale(0.1 -0.1)">
       <defs>
        <path id="DejaVuSans-2e" d="M 684 794 
L 1344 794 
L 1344 0 
L 684 0 
L 684 794 
z
" transform="scale(0.015625)"/>
       </defs>
       <use xlink:href="#DejaVuSans-30"/>
       <use xlink:href="#DejaVuSans-2e" transform="translate(63.623047 0)"/>
       <use xlink:href="#DejaVuSans-30" transform="translate(95.410156 0)"/>
       <use xlink:href="#DejaVuSans-31" transform="translate(159.033203 0)"/>
       <use xlink:href="#DejaVuSans-30" transform="translate(222.65625 0)"/>
      </g>
     </g>
    </g>
    <g id="ytick_2">
     <g id="line2d_15">
      <path d="M 60.32 192.107736 
L 637.2 192.107736 
" clip-path="url(#p8be15a014d)" style="fill: none; stroke-dasharray: 0.5,0.825; stroke-dashoffset: 0; stroke: #b0b0b0; stroke-opacity: 0.6; stroke-width: 0.5"/>
     </g>
     <g id="line2d_16">
      <g>
       <use xlink:href="#m337bd30e06" x="60.32" y="192.107736" style="stroke: #000000; stroke-width: 0.8"/>
      </g>
     </g>
     <g id="text_9">
      <!-- 0.015 -->
      <g transform="translate(24.691875 195.906955) scale(0.1 -0.1)">
       <use xlink:href="#DejaVuSans-30"/>
       <use xlink:href="#DejaVuSans-2e" transform="translate(63.623047 0)"/>
       <use xlink:href="#DejaVuSans-30" transform="translate(95.410156 0)"/>
       <use xlink:href="#DejaVuSans-31" transform="translate(159.033203 0)"/>
       <use xlink:href="#DejaVuSans-35" transform="translate(222.65625 0)"/>
      </g>
     </g>
    </g>
    <g id="ytick_3">
     <g id="line2d_17">
      <path d="M 60.32 137.362692 
L 637.2 137.362692 
" clip-path="url(#p8be15a014d)" style="fill: none; stroke-dasharray: 0.5,0.825; stroke-dashoffset: 0; stroke: #b0b0b0; stroke-opacity: 0.6; stroke-width: 0.5"/>
     </g>
     <g id="line2d_18">
      <g>
       <use xlink:href="#m337bd30e06" x="60.32" y="137.362692" style="stroke: #000000; stroke-width: 0.8"/>
      </g>
     </g>
     <g id="text_10">
      <!-- 0.020 -->
      <g transform="translate(24.691875 141.161911) scale(0.1 -0.1)">
       <use xlink:href="#DejaVuSans-30"/>
       <use xlink:href="#DejaVuSans-2e" transform="translate(63.623047 0)"/>
       <use xlink:href="#DejaVuSans-30" transform="translate(95.410156 0)"/>
       <use xlink:href="#DejaVuSans-32" transform="translate(159.033203 0)"/>
       <use xlink:href="#DejaVuSans-30" transform="translate(222.65625 0)"/>
      </g>
     </g>
    </g>
    <g id="ytick_4">
     <g id="line2d_19">
      <path d="M 60.32 82.617648 
L 637.2 82.617648 
" clip-path="url(#p8be15a014d)" style="fill: none; stroke-dasharray: 0.5,0.825; stroke-dashoffset: 0; stroke: #b0b0b0; stroke-opacity: 0.6; stroke-width: 0.5"/>
     </g>
     <g id="line2d_20">
      <g>
       <use xlink:href="#m337bd30e06" x="60.32" y="82.617648" style="stroke: #000000; stroke-width: 0.8"/>
      </g>
     </g>
     <g id="text_11">
      <!-- 0.025 -->
      <g transform="translate(24.691875 86.416866) scale(0.1 -0.1)">
       <use xlink:href="#DejaVuSans-30"/>
       <use xlink:href="#DejaVuSans-2e" transform="translate(63.623047 0)"/>
       <use xlink:href="#DejaVuSans-30" transform="translate(95.410156 0)"/>
       <use xlink:href="#DejaVuSans-32" transform="translate(159.033203 0)"/>
       <use xlink:href="#DejaVuSans-35" transform="translate(222.65625 0)"/>
      </g>
     </g>
    </g>
    <g id="ytick_5">
     <g id="line2d_21">
      <path d="M 60.32 27.872603 
L 637.2 27.872603 
" clip-path="url(#p8be15a014d)" style="fill: none; stroke-dasharray: 0.5,0.825; stroke-dashoffset: 0; stroke: #b0b0b0; stroke-opacity: 0.6; stroke-width: 0.5"/>
     </g>
     <g id="line2d_22">
      <g>
       <use xlink:href="#m337bd30e06" x="60.32" y="27.872603" style="stroke: #000000; stroke-width: 0.8"/>
      </g>
     </g>
     <g id="text_12">
      <!-- 0.030 -->
      <g transform="translate(24.691875 31.671822) scale(0.1 -0.1)">
       <defs>
        <path id="DejaVuSans-33" d="M 2597 2516 
Q 3050 2419 3304 2112 
Q 3559 1806 3559 1356 
Q 3559 666 3084 287 
Q 2609 -91 1734 -91 
Q 1441 -91 1130 -33 
Q 819 25 488 141 
L 488 750 
Q 750 597 1062 519 
Q 1375 441 1716 441 
Q 2309 441 2620 675 
Q 2931 909 2931 1356 
Q 2931 1769 2642 2001 
Q 2353 2234 1838 2234 
L 1294 2234 
L 1294 2753 
L 1863 2753 
Q 2328 2753 2575 2939 
Q 2822 3125 2822 3475 
Q 2822 3834 2567 4026 
Q 2313 4219 1838 4219 
Q 1578 4219 1281 4162 
Q 984 4106 628 3988 
L 628 4550 
Q 988 4650 1302 4700 
Q 1616 4750 1894 4750 
Q 2613 4750 3031 4423 
Q 3450 4097 3450 3541 
Q 3450 3153 3228 2886 
Q 3006 2619 2597 2516 
z
" transform="scale(0.015625)"/>
       </defs>
       <use xlink:href="#DejaVuSans-30"/>
       <use xlink:href="#DejaVuSans-2e" transform="translate(63.623047 0)"/>
       <use xlink:href="#DejaVuSans-30" transform="translate(95.410156 0)"/>
       <use xlink:href="#DejaVuSans-33" transform="translate(159.033203 0)"/>
       <use xlink:href="#DejaVuSans-30" transform="translate(222.65625 0)"/>
      </g>
     </g>
    </g>
    <g id="text_13">
     <!-- Running mean of Efficiency gap (UCP-favoured if positive) -->
     <g transform="translate(18.612188 299.369375) rotate(-90) scale(0.1 -0.1)">
      <defs>
       <path id="DejaVuSans-52" d="M 2841 2188 
Q 3044 2119 3236 1894 
Q 3428 1669 3622 1275 
L 4263 0 
L 3584 0 
L 2988 1197 
Q 2756 1666 2539 1819 
Q 2322 1972 1947 1972 
L 1259 1972 
L 1259 0 
L 628 0 
L 628 4666 
L 2053 4666 
Q 2853 4666 3247 4331 
Q 3641 3997 3641 3322 
Q 3641 2881 3436 2590 
Q 3231 2300 2841 2188 
z
M 1259 4147 
L 1259 2491 
L 2053 2491 
Q 2509 2491 2742 2702 
Q 2975 2913 2975 3322 
Q 2975 3731 2742 3939 
Q 2509 4147 2053 4147 
L 1259 4147 
z
" transform="scale(0.015625)"/>
       <path id="DejaVuSans-75" d="M 544 1381 
L 544 3500 
L 1119 3500 
L 1119 1403 
Q 1119 906 1312 657 
Q 1506 409 1894 409 
Q 2359 409 2629 706 
Q 2900 1003 2900 1516 
L 2900 3500 
L 3475 3500 
L 3475 0 
L 2900 0 
L 2900 538 
Q 2691 219 2414 64 
Q 2138 -91 1772 -91 
Q 1169 -91 856 284 
Q 544 659 544 1381 
z
M 1991 3584 
L 1991 3584 
z
" transform="scale(0.015625)"/>
       <path id="DejaVuSans-67" d="M 2906 1791 
Q 2906 2416 2648 2759 
Q 2391 3103 1925 3103 
Q 1463 3103 1205 2759 
Q 947 2416 947 1791 
Q 947 1169 1205 825 
Q 1463 481 1925 481 
Q 2391 481 2648 825 
Q 2906 1169 2906 1791 
z
M 3481 434 
Q 3481 -459 3084 -895 
Q 2688 -1331 1869 -1331 
Q 1566 -1331 1297 -1286 
Q 1028 -1241 775 -1147 
L 775 -588 
Q 1028 -725 1275 -790 
Q 1522 -856 1778 -856 
Q 2344 -856 2625 -561 
Q 2906 -266 2906 331 
L 2906 616 
Q 2728 306 2450 153 
Q 2172 0 1784 0 
Q 1141 0 747 490 
Q 353 981 353 1791 
Q 353 2603 747 3093 
Q 1141 3584 1784 3584 
Q 2172 3584 2450 3431 
Q 2728 3278 2906 2969 
L 2906 3500 
L 3481 3500 
L 3481 434 
z
" transform="scale(0.015625)"/>
       <path id="DejaVuSans-6f" d="M 1959 3097 
Q 1497 3097 1228 2736 
Q 959 2375 959 1747 
Q 959 1119 1226 758 
Q 1494 397 1959 397 
Q 2419 397 2687 759 
Q 2956 1122 2956 1747 
Q 2956 2369 2687 2733 
Q 2419 3097 1959 3097 
z
M 1959 3584 
Q 2709 3584 3137 3096 
Q 3566 2609 3566 1747 
Q 3566 888 3137 398 
Q 2709 -91 1959 -91 
Q 1206 -91 779 398 
Q 353 888 353 1747 
Q 353 2609 779 3096 
Q 1206 3584 1959 3584 
z
" transform="scale(0.015625)"/>
       <path id="DejaVuSans-66" d="M 2375 4863 
L 2375 4384 
L 1825 4384 
Q 1516 4384 1395 4259 
Q 1275 4134 1275 3809 
L 1275 3500 
L 2222 3500 
L 2222 3053 
L 1275 3053 
L 1275 0 
L 697 0 
L 697 3053 
L 147 3053 
L 147 3500 
L 697 3500 
L 697 3744 
Q 697 4328 969 4595 
Q 1241 4863 1831 4863 
L 2375 4863 
z
" transform="scale(0.015625)"/>
       <path id="DejaVuSans-45" d="M 628 4666 
L 3578 4666 
L 3578 4134 
L 1259 4134 
L 1259 2753 
L 3481 2753 
L 3481 2222 
L 1259 2222 
L 1259 531 
L 3634 531 
L 3634 0 
L 628 0 
L 628 4666 
z
" transform="scale(0.015625)"/>
       <path id="DejaVuSans-63" d="M 3122 3366 
L 3122 2828 
Q 2878 2963 2633 3030 
Q 2388 3097 2138 3097 
Q 1578 3097 1268 2742 
Q 959 2388 959 1747 
Q 959 1106 1268 751 
Q 1578 397 2138 397 
Q 2388 397 2633 464 
Q 2878 531 3122 666 
L 3122 134 
Q 2881 22 2623 -34 
Q 2366 -91 2075 -91 
Q 1284 -91 818 406 
Q 353 903 353 1747 
Q 353 2603 823 3093 
Q 1294 3584 2113 3584 
Q 2378 3584 2631 3529 
Q 2884 3475 3122 3366 
z
" transform="scale(0.015625)"/>
       <path id="DejaVuSans-79" d="M 2059 -325 
Q 1816 -950 1584 -1140 
Q 1353 -1331 966 -1331 
L 506 -1331 
L 506 -850 
L 844 -850 
Q 1081 -850 1212 -737 
Q 1344 -625 1503 -206 
L 1606 56 
L 191 3500 
L 800 3500 
L 1894 763 
L 2988 3500 
L 3597 3500 
L 2059 -325 
z
" transform="scale(0.015625)"/>
       <path id="DejaVuSans-28" d="M 1984 4856 
Q 1566 4138 1362 3434 
Q 1159 2731 1159 2009 
Q 1159 1288 1364 580 
Q 1569 -128 1984 -844 
L 1484 -844 
Q 1016 -109 783 600 
Q 550 1309 550 2009 
Q 550 2706 781 3412 
Q 1013 4119 1484 4856 
L 1984 4856 
z
" transform="scale(0.015625)"/>
       <path id="DejaVuSans-55" d="M 556 4666 
L 1191 4666 
L 1191 1831 
Q 1191 1081 1462 751 
Q 1734 422 2344 422 
Q 2950 422 3222 751 
Q 3494 1081 3494 1831 
L 3494 4666 
L 4128 4666 
L 4128 1753 
Q 4128 841 3676 375 
Q 3225 -91 2344 -91 
Q 1459 -91 1007 375 
Q 556 841 556 1753 
L 556 4666 
z
" transform="scale(0.015625)"/>
       <path id="DejaVuSans-43" d="M 4122 4306 
L 4122 3641 
Q 3803 3938 3442 4084 
Q 3081 4231 2675 4231 
Q 1875 4231 1450 3742 
Q 1025 3253 1025 2328 
Q 1025 1406 1450 917 
Q 1875 428 2675 428 
Q 3081 428 3442 575 
Q 3803 722 4122 1019 
L 4122 359 
Q 3791 134 3420 21 
Q 3050 -91 2638 -91 
Q 1578 -91 968 557 
Q 359 1206 359 2328 
Q 359 3453 968 4101 
Q 1578 4750 2638 4750 
Q 3056 4750 3426 4639 
Q 3797 4528 4122 4306 
z
" transform="scale(0.015625)"/>
       <path id="DejaVuSans-50" d="M 1259 4147 
L 1259 2394 
L 2053 2394 
Q 2494 2394 2734 2622 
Q 2975 2850 2975 3272 
Q 2975 3691 2734 3919 
Q 2494 4147 2053 4147 
L 1259 4147 
z
M 628 4666 
L 2053 4666 
Q 2838 4666 3239 4311 
Q 3641 3956 3641 3272 
Q 3641 2581 3239 2228 
Q 2838 1875 2053 1875 
L 1259 1875 
L 1259 0 
L 628 0 
L 628 4666 
z
" transform="scale(0.015625)"/>
       <path id="DejaVuSans-2d" d="M 313 2009 
L 1997 2009 
L 1997 1497 
L 313 1497 
L 313 2009 
z
" transform="scale(0.015625)"/>
       <path id="DejaVuSans-76" d="M 191 3500 
L 800 3500 
L 1894 563 
L 2988 3500 
L 3597 3500 
L 2284 0 
L 1503 0 
L 191 3500 
z
" transform="scale(0.015625)"/>
       <path id="DejaVuSans-72" d="M 2631 2963 
Q 2534 3019 2420 3045 
Q 2306 3072 2169 3072 
Q 1681 3072 1420 2755 
Q 1159 2438 1159 1844 
L 1159 0 
L 581 0 
L 581 3500 
L 1159 3500 
L 1159 2956 
Q 1341 3275 1631 3429 
Q 1922 3584 2338 3584 
Q 2397 3584 2469 3576 
Q 2541 3569 2628 3553 
L 2631 2963 
z
" transform="scale(0.015625)"/>
       <path id="DejaVuSans-73" d="M 2834 3397 
L 2834 2853 
Q 2591 2978 2328 3040 
Q 2066 3103 1784 3103 
Q 1356 3103 1142 2972 
Q 928 2841 928 2578 
Q 928 2378 1081 2264 
Q 1234 2150 1697 2047 
L 1894 2003 
Q 2506 1872 2764 1633 
Q 3022 1394 3022 966 
Q 3022 478 2636 193 
Q 2250 -91 1575 -91 
Q 1294 -91 989 -36 
Q 684 19 347 128 
L 347 722 
Q 666 556 975 473 
Q 1284 391 1588 391 
Q 1994 391 2212 530 
Q 2431 669 2431 922 
Q 2431 1156 2273 1281 
Q 2116 1406 1581 1522 
L 1381 1569 
Q 847 1681 609 1914 
Q 372 2147 372 2553 
Q 372 3047 722 3315 
Q 1072 3584 1716 3584 
Q 2034 3584 2315 3537 
Q 2597 3491 2834 3397 
z
" transform="scale(0.015625)"/>
       <path id="DejaVuSans-74" d="M 1172 4494 
L 1172 3500 
L 2356 3500 
L 2356 3053 
L 1172 3053 
L 1172 1153 
Q 1172 725 1289 603 
Q 1406 481 1766 481 
L 2356 481 
L 2356 0 
L 1766 0 
Q 1100 0 847 248 
Q 594 497 594 1153 
L 594 3053 
L 172 3053 
L 172 3500 
L 594 3500 
L 594 4494 
L 1172 4494 
z
" transform="scale(0.015625)"/>
       <path id="DejaVuSans-29" d="M 513 4856 
L 1013 4856 
Q 1481 4119 1714 3412 
Q 1947 2706 1947 2009 
Q 1947 1309 1714 600 
Q 1481 -109 1013 -844 
L 513 -844 
Q 928 -128 1133 580 
Q 1338 1288 1338 2009 
Q 1338 2731 1133 3434 
Q 928 4138 513 4856 
z
" transform="scale(0.015625)"/>
      </defs>
      <use xlink:href="#DejaVuSans-52"/>
      <use xlink:href="#DejaVuSans-75" transform="translate(64.982422 0)"/>
      <use xlink:href="#DejaVuSans-6e" transform="translate(128.361328 0)"/>
      <use xlink:href="#DejaVuSans-6e" transform="translate(191.740234 0)"/>
      <use xlink:href="#DejaVuSans-69" transform="translate(255.119141 0)"/>
      <use xlink:href="#DejaVuSans-6e" transform="translate(282.902344 0)"/>
      <use xlink:href="#DejaVuSans-67" transform="translate(346.28125 0)"/>
      <use xlink:href="#DejaVuSans-20" transform="translate(409.757812 0)"/>
      <use xlink:href="#DejaVuSans-6d" transform="translate(441.544922 0)"/>
      <use xlink:href="#DejaVuSans-65" transform="translate(538.957031 0)"/>
      <use xlink:href="#DejaVuSans-61" transform="translate(600.480469 0)"/>
      <use xlink:href="#DejaVuSans-6e" transform="translate(661.759766 0)"/>
      <use xlink:href="#DejaVuSans-20" transform="translate(725.138672 0)"/>
      <use xlink:href="#DejaVuSans-6f" transform="translate(756.925781 0)"/>
      <use xlink:href="#DejaVuSans-66" transform="translate(818.107422 0)"/>
      <use xlink:href="#DejaVuSans-20" transform="translate(853.3125 0)"/>
      <use xlink:href="#DejaVuSans-45" transform="translate(885.099609 0)"/>
      <use xlink:href="#DejaVuSans-66" transform="translate(948.283203 0)"/>
      <use xlink:href="#DejaVuSans-66" transform="translate(983.488281 0)"/>
      <use xlink:href="#DejaVuSans-69" transform="translate(1018.693359 0)"/>
      <use xlink:href="#DejaVuSans-63" transform="translate(1046.476562 0)"/>
      <use xlink:href="#DejaVuSans-69" transform="translate(1101.457031 0)"/>
      <use xlink:href="#DejaVuSans-65" transform="translate(1129.240234 0)"/>
      <use xlink:href="#DejaVuSans-6e" transform="translate(1190.763672 0)"/>
      <use xlink:href="#DejaVuSans-63" transform="translate(1254.142578 0)"/>
      <use xlink:href="#DejaVuSans-79" transform="translate(1309.123047 0)"/>
      <use xlink:href="#DejaVuSans-20" transform="translate(1368.302734 0)"/>
      <use xlink:href="#DejaVuSans-67" transform="translate(1400.089844 0)"/>
      <use xlink:href="#DejaVuSans-61" transform="translate(1463.566406 0)"/>
      <use xlink:href="#DejaVuSans-70" transform="translate(1524.845703 0)"/>
      <use xlink:href="#DejaVuSans-20" transform="translate(1588.322266 0)"/>
      <use xlink:href="#DejaVuSans-28" transform="translate(1620.109375 0)"/>
      <use xlink:href="#DejaVuSans-55" transform="translate(1659.123047 0)"/>
      <use xlink:href="#DejaVuSans-43" transform="translate(1732.316406 0)"/>
      <use xlink:href="#DejaVuSans-50" transform="translate(1802.140625 0)"/>
      <use xlink:href="#DejaVuSans-2d" transform="translate(1860.193359 0)"/>
      <use xlink:href="#DejaVuSans-66" transform="translate(1896.277344 0)"/>
      <use xlink:href="#DejaVuSans-61" transform="translate(1931.482422 0)"/>
      <use xlink:href="#DejaVuSans-76" transform="translate(1992.761719 0)"/>
      <use xlink:href="#DejaVuSans-6f" transform="translate(2051.941406 0)"/>
      <use xlink:href="#DejaVuSans-75" transform="translate(2113.123047 0)"/>
      <use xlink:href="#DejaVuSans-72" transform="translate(2176.501953 0)"/>
      <use xlink:href="#DejaVuSans-65" transform="translate(2215.365234 0)"/>
      <use xlink:href="#DejaVuSans-64" transform="translate(2276.888672 0)"/>
      <use xlink:href="#DejaVuSans-20" transform="translate(2340.365234 0)"/>
      <use xlink:href="#DejaVuSans-69" transform="translate(2372.152344 0)"/>
      <use xlink:href="#DejaVuSans-66" transform="translate(2399.935547 0)"/>
      <use xlink:href="#DejaVuSans-20" transform="translate(2435.140625 0)"/>
      <use xlink:href="#DejaVuSans-70" transform="translate(2466.927734 0)"/>
      <use xlink:href="#DejaVuSans-6f" transform="translate(2530.404297 0)"/>
      <use xlink:href="#DejaVuSans-73" transform="translate(2591.585938 0)"/>
      <use xlink:href="#DejaVuSans-69" transform="translate(2643.685547 0)"/>
      <use xlink:href="#DejaVuSans-74" transform="translate(2671.46875 0)"/>
      <use xlink:href="#DejaVuSans-69" transform="translate(2710.677734 0)"/>
      <use xlink:href="#DejaVuSans-76" transform="translate(2738.460938 0)"/>
      <use xlink:href="#DejaVuSans-65" transform="translate(2797.640625 0)"/>
      <use xlink:href="#DejaVuSans-29" transform="translate(2859.164062 0)"/>
     </g>
    </g>
   </g>
   <g id="line2d_23">
    <path d="M 86.541818 230.581674 
L 86.583773 204.669807 
L 86.625728 253.018051 
L 86.743203 261.22742 
L 86.812428 270.441818 
L 86.873263 264.722267 
L 86.887948 260.885101 
L 87.341062 144.131064 
L 87.584402 107.84045 
L 87.936824 39.879021 
L 88.020735 44.926089 
L 88.123525 49.768113 
L 88.173871 47.543481 
L 88.255683 40.161479 
L 88.299736 38.478182 
L 88.347984 41.777642 
L 89.23953 97.10016 
L 89.606637 112.109579 
L 89.656983 113.356892 
L 89.791239 118.283003 
L 89.835292 116.610369 
L 90.475107 96.013369 
L 90.485595 96.31402 
L 91.066673 112.24305 
L 91.31211 115.800004 
L 91.494615 121.777197 
L 91.593209 121.355279 
L 91.792496 117.880807 
L 91.842842 118.434253 
L 91.918361 120.648556 
L 92.352596 136.015438 
L 92.474266 137.532336 
L 92.631598 141.454206 
L 92.660966 141.354302 
L 92.717606 140.798732 
L 92.788929 140.006023 
L 92.83508 140.585669 
L 92.887524 141.215478 
L 92.956749 140.718092 
L 93.057442 139.628517 
L 93.476992 131.9209 
L 93.539925 129.874405 
L 94.129394 111.324288 
L 94.171349 112.019978 
L 94.28253 113.283767 
L 94.320289 112.909159 
L 94.771307 106.91416 
L 94.88039 107.544032 
L 95.138413 113.004894 
L 95.23491 112.892977 
L 95.308332 112.678364 
L 95.602017 111.772337 
L 95.683829 111.442697 
L 95.83277 110.591101 
L 95.845356 110.608171 
L 95.922973 110.891705 
L 96.178899 112.185851 
L 96.195681 112.040948 
L 96.252321 112.730841 
L 96.499856 115.32919 
L 96.53342 114.966833 
L 96.558593 114.731799 
L 96.648796 114.929412 
L 96.724315 115.074992 
L 96.795639 115.672132 
L 96.850181 115.200436 
L 96.873256 115.211119 
L 96.881647 115.110688 
L 96.938286 114.383155 
L 96.992828 115.065599 
L 97.022196 115.453484 
L 97.120791 115.286156 
L 97.244558 115.748914 
L 97.525657 119.05892 
L 97.617958 118.246669 
L 98.27036 110.098037 
L 98.297631 110.217551 
L 98.759137 116.661313 
L 98.83046 116.479228 
L 98.966814 116.445767 
L 98.968912 116.461446 
L 99.021356 116.602486 
L 99.071702 116.414271 
L 99.132537 115.939596 
L 99.189176 116.33299 
L 99.526914 121.017584 
L 99.944368 125.244267 
L 100.095406 126.463846 
L 100.326159 128.534283 
L 100.332452 128.529321 
L 100.351332 128.486317 
L 100.391189 128.620186 
L 100.50237 129.366765 
L 100.72683 130.829529 
L 100.728927 130.811553 
L 100.934507 129.016296 
L 101.012124 129.316098 
L 101.57642 133.080348 
L 102.260288 138.662732 
L 102.381957 138.259319 
L 102.696621 139.330817 
L 103.296578 145.750001 
L 103.464398 147.322446 
L 103.76228 149.775596 
L 103.816821 149.995575 
L 103.913318 149.928765 
L 104.049672 149.786223 
L 104.127289 149.572582 
L 104.173439 149.753919 
L 104.685291 152.489413 
L 104.918142 155.930509 
L 105.29364 160.66296 
L 105.568446 163.3034 
L 105.620889 163.242931 
L 105.774025 162.145721 
L 105.904086 162.222723 
L 105.908282 162.204353 
L 105.985899 162.353871 
L 106.074004 162.650721 
L 106.369788 166.681623 
L 106.422231 166.519312 
L 106.472577 166.42501 
L 106.501946 166.605298 
L 106.55439 166.924666 
L 106.613127 166.604917 
L 107.0117 163.525671 
L 107.097708 163.424717 
L 107.145956 163.595215 
L 107.154347 163.62812 
L 107.21728 163.4497 
L 107.60956 162.813399 
L 107.620049 162.844601 
L 107.687177 163.039767 
L 107.741719 162.862287 
L 107.985058 162.197409 
L 108.129803 161.600144 
L 108.194833 161.980178 
L 108.320699 162.534947 
L 108.362654 162.346101 
L 108.387827 162.252946 
L 108.45915 162.403784 
L 108.566136 162.988841 
L 108.608091 162.836366 
L 108.868212 162.236316 
L 108.876603 162.263533 
L 108.899679 162.396001 
L 108.95422 162.069356 
L 109.086379 161.242046 
L 109.151409 161.519148 
L 109.455583 163.067444 
L 109.495441 163.17354 
L 109.73878 164.630311 
L 110.303076 172.919232 
L 110.393279 172.667384 
L 110.621935 172.114751 
L 110.892545 171.195512 
L 111.161057 169.469364 
L 111.251261 169.66139 
L 111.735842 170.623967 
L 111.752624 170.614754 
L 111.922542 170.334368 
L 112.132317 169.88893 
L 112.216227 170.017679 
L 112.593823 170.709916 
L 112.841358 171.591966 
L 112.925268 171.443428 
L 112.994494 171.369449 
L 113.021765 171.498858 
L 113.571376 173.259322 
L 114.076935 174.189369 
L 114.102108 174.09025 
L 114.280417 173.73111 
L 114.36223 173.454174 
L 114.425162 173.703877 
L 114.658013 175.373987 
L 114.972676 176.800836 
L 114.983165 176.840238 
L 115.060782 176.701259 
L 115.150985 176.562955 
L 115.188745 176.699043 
L 115.505506 178.212541 
L 116.420126 186.465826 
L 116.493548 186.275453 
L 116.535503 186.074082 
L 116.604729 186.263073 
L 116.791429 186.831718 
L 116.84597 186.766432 
L 116.936174 186.452344 
L 117.066234 186.319314 
L 117.08931 186.408501 
L 117.389288 187.906198 
L 118.010224 193.238349 
L 118.838836 198.186553 
L 118.901769 197.945433 
L 119.132522 197.035049 
L 119.149304 197.103851 
L 119.277267 198.416937 
L 119.442989 199.339299 
L 119.472358 199.248422 
L 119.476554 199.235301 
L 119.533193 199.426123 
L 119.938059 202.125526 
L 120.164617 203.533801 
L 120.20867 203.614106 
L 120.25482 203.476449 
L 120.603047 202.599059 
L 120.617732 202.609465 
L 120.701642 202.606161 
L 120.718424 202.549512 
L 120.837996 202.175923 
L 120.921906 202.262202 
L 121.102313 202.676916 
L 121.475713 204.247234 
L 121.624653 204.3494 
L 121.649827 204.330695 
L 121.77779 204.327243 
L 121.786181 204.351006 
L 121.912046 204.672665 
L 121.993858 204.614521 
L 122.228807 204.561504 
L 122.266566 204.662853 
L 122.348379 204.674527 
L 122.379845 204.660693 
L 122.545567 204.4526 
L 123.128743 202.212755 
L 123.286075 201.665062 
L 123.311248 201.671459 
L 123.789535 201.658722 
L 123.879739 201.200458 
L 123.951063 201.045979 
L 124.0098 201.055619 
L 124.154545 200.855087 
L 124.276214 200.041446 
L 124.55102 198.254727 
L 124.595073 198.118573 
L 124.830021 196.928614 
L 125.398513 192.911975 
L 125.507596 192.117188 
L 125.841139 189.959834 
L 125.904071 189.837543 
L 125.969102 189.953638 
L 126.608917 191.601751 
L 126.711707 191.97106 
L 126.793519 191.930067 
L 127.001197 191.9862 
L 127.024272 191.949482 
L 127.078813 191.717018 
L 127.641012 188.486926 
L 127.657794 188.443869 
L 127.729117 188.561444 
L 127.955675 189.023182 
L 128.006021 189.213855 
L 128.058465 189.34173 
L 128.121397 189.219961 
L 128.299706 188.643976 
L 128.618565 186.54794 
L 128.72555 186.719602 
L 128.926935 187.104509 
L 129.518501 188.207554 
L 129.541577 188.176365 
L 129.629682 188.094513 
L 129.690517 188.173118 
L 129.782818 188.113703 
L 129.904488 187.91138 
L 130.147827 187.156669 
L 130.393265 186.698185 
L 130.556889 186.539037 
L 130.611431 186.652752 
L 130.819109 187.167084 
L 130.917703 187.328734 
L 130.953365 187.251967 
L 131.643526 186.147439 
L 132.021122 187.023451 
L 132.063077 186.894843 
L 132.157476 186.823208 
L 132.180551 186.894067 
L 132.304318 187.671653 
L 132.83505 190.466133 
L 132.916862 190.599318 
L 132.994479 190.536334 
L 133.049021 190.571744 
L 133.067901 190.623161 
L 133.290263 191.509248 
L 133.521016 192.756628 
L 133.531504 192.781213 
L 133.632197 192.736136 
L 133.686738 192.832445 
L 134.265718 193.584815 
L 134.498569 193.83324 
L 134.689464 195.069747 
L 135.023007 196.690757 
L 135.090135 196.599429 
L 135.266347 196.702756 
L 135.348159 196.949347 
L 135.583108 197.694828 
L 135.704777 197.705725 
L 135.72995 197.653634 
L 135.85162 197.148546 
L 136.394938 195.650406 
L 136.520804 195.290094 
L 137.091393 193.49132 
L 137.294875 193.358891 
L 137.603245 192.417792 
L 137.764772 192.300416 
L 138.171736 191.085711 
L 139.229004 186.357761 
L 139.268861 186.379121 
L 139.361162 186.160936 
L 139.419899 186.380167 
L 139.860428 188.296193 
L 139.965315 188.012002 
L 139.977902 187.997427 
L 140.038737 188.094656 
L 140.076496 188.126727 
L 140.112158 188.003365 
L 140.14782 187.822205 
L 140.223339 187.996688 
L 140.454092 188.461666 
L 140.563175 188.616955 
L 140.600935 188.515578 
L 140.787635 188.304756 
L 140.798124 188.314893 
L 140.827492 188.339498 
L 140.884132 188.247837 
L 140.886229 188.244337 
L 140.936575 188.366634 
L 141.209283 188.877407 
L 141.391788 188.89532 
L 141.40857 188.853395 
L 141.756797 188.260818 
L 141.813437 188.38237 
L 141.937204 188.735304 
L 142.172152 189.630192 
L 142.239281 189.481624 
L 142.304311 189.230645 
L 142.381928 189.398433 
L 142.455349 189.509889 
L 142.528771 189.442075 
L 142.658831 189.241667 
L 142.728057 189.070919 
L 142.801479 189.142916 
L 142.950419 189.493854 
L 143.435 191.695129 
L 143.867138 194.03921 
L 143.896506 194.151054 
L 144.385283 195.219279 
L 144.691555 195.671673 
L 144.93909 196.102207 
L 144.949579 196.088613 
L 145.058662 196.071577 
L 145.071248 196.10898 
L 145.266339 196.390181 
L 145.276828 196.37188 
L 145.671206 195.468242 
L 145.99426 194.103453 
L 146.193547 193.460627 
L 146.590022 192.017697 
L 146.856437 191.42089 
L 147.445906 188.698941 
L 147.615824 188.359954 
L 147.71232 188.074994 
L 147.861261 187.145276 
L 148.505271 182.951039 
L 149.033905 180.716709 
L 149.117815 180.607503 
L 149.189139 180.680459 
L 149.191237 180.68263 
L 149.26256 180.599186 
L 149.449261 180.4064 
L 149.489118 180.497795 
L 149.77651 181.169545 
L 149.799585 181.124394 
L 149.891887 180.955925 
L 149.94433 181.028638 
L 149.984188 180.992936 
L 149.994677 180.936723 
L 150.170888 180.522397 
L 150.485551 179.23635 
L 150.72889 178.658578 
L 150.781334 178.687653 
L 150.800214 178.745577 
L 151.316261 180.665337 
L 151.660293 182.268127 
L 151.779865 182.59774 
L 152.031595 183.17888 
L 152.119701 183.430033 
L 152.404996 184.007219 
L 152.465831 183.958274 
L 152.476319 183.921897 
L 152.717561 183.355571 
L 152.751125 183.369908 
L 152.944118 182.722161 
L 153.693017 180.259865 
L 153.722385 180.28113 
L 154.030755 180.575759 
L 154.748187 182.177339 
L 154.785946 182.300196 
L 154.932789 182.626494 
L 154.983135 182.606927 
L 155.207595 182.443122 
L 155.411077 182.036623 
L 155.459325 182.109671 
L 155.499183 182.156142 
L 155.53904 182.028789 
L 155.702665 181.698122 
L 155.776086 181.754004 
L 155.899854 181.998954 
L 156.38863 182.957644 
L 156.558548 182.977763 
L 156.577428 182.893176 
L 156.789301 182.442137 
L 156.904678 182.64468 
L 157.10816 182.974307 
L 157.143822 182.952664 
L 157.259198 182.711343 
L 157.427018 182.425161 
L 157.437507 182.446647 
L 157.624207 182.578467 
L 157.701824 182.487674 
L 157.894817 182.066892 
L 157.930479 182.138138 
L 158.423451 184.246069 
L 158.859784 185.193802 
L 159.056973 185.192283 
L 159.067462 185.160491 
L 159.369538 184.596387 
L 159.719863 184.454983 
L 159.728254 184.466735 
L 159.931736 184.576665 
L 159.93803 184.563347 
L 160.034526 184.508132 
L 160.070188 184.542218 
L 160.101655 184.566834 
L 160.147805 184.46387 
L 160.422611 183.581271 
L 160.628191 183.052884 
L 160.85265 182.592943 
L 160.978516 182.737647 
L 161.257517 183.628418 
L 161.612037 184.847854 
L 161.855377 185.486809 
L 162.100814 186.164381 
L 162.111303 186.159408 
L 162.270732 186.206543 
L 162.430161 186.295049 
L 162.679794 186.522106 
L 163.355271 188.828319 
L 163.625881 189.076731 
L 163.915371 189.707382 
L 164.095778 189.720884 
L 164.202763 189.538856 
L 164.347508 188.985457 
L 164.557284 188.461602 
L 164.796428 188.024005 
L 165.048158 187.341782 
L 165.398483 186.431545 
L 165.826425 185.356218 
L 165.935508 185.232623 
L 166.678113 182.809143 
L 166.827053 182.735859 
L 166.999069 182.804413 
L 167.070393 182.817325 
L 167.099761 182.752062 
L 167.584342 181.922421 
L 167.819291 181.917901 
L 167.974525 181.918419 
L 168.316459 181.799904 
L 168.465399 181.877672 
L 168.482181 181.837653 
L 169.121996 179.983863 
L 169.558329 179.078617 
L 169.610773 179.067346 
L 169.65063 179.139954 
L 170.185557 180.212319 
L 170.292543 180.099435 
L 170.405821 179.995337 
L 170.426799 180.044483 
L 170.491829 180.188483 
L 170.586228 180.141416 
L 170.810688 180.145951 
L 171.15472 180.347557 
L 171.28478 180.390323 
L 171.475676 180.325152 
L 171.874249 179.875428 
L 172.090318 179.782244 
L 172.27492 179.690251 
L 172.526651 179.244878 
L 172.755306 179.012217 
L 172.809847 179.059569 
L 173.086751 179.153174 
L 173.269255 179.283781 
L 173.808378 180.448705 
L 173.82516 180.431089 
L 173.8818 180.392504 
L 173.919559 180.490556 
L 173.990883 180.529987 
L 174.043327 180.474625 
L 174.118846 180.468649 
L 174.141921 180.533928 
L 174.481757 181.347794 
L 174.607622 181.454395 
L 174.903406 181.722338 
L 175.008293 181.784381 
L 175.012489 181.794698 
L 175.685868 183.744992 
L 176.151569 185.469644 
L 176.491405 186.5573 
L 176.524969 186.57878 
L 176.575315 186.487224 
L 176.812362 185.931257 
L 177.21513 185.427826 
L 177.280161 185.56071 
L 177.445883 185.625009 
L 177.859141 185.834553 
L 177.880118 185.803139 
L 177.957735 185.733224 
L 178.003886 185.811046 
L 178.30806 186.461179 
L 178.373091 186.354391 
L 178.415046 186.271015 
L 178.49476 186.349919 
L 178.805228 186.885478 
L 179.205899 187.585332 
L 179.591886 187.9087 
L 180.000948 187.73571 
L 180.011436 187.753789 
L 180.502311 188.441095 
L 180.902982 189.490414 
L 180.91347 189.486141 
L 181.083388 189.53437 
L 181.219742 189.572976 
L 181.286871 189.450634 
L 181.442104 189.339954 
L 181.727399 189.054075 
L 181.90361 188.911233 
L 181.956054 188.971948 
L 182.186807 189.41995 
L 182.740614 190.356723 
L 183.26715 190.963995 
L 183.850326 190.270307 
L 184.435599 190.231173 
L 184.613908 190.226894 
L 184.951647 190.275445 
L 185.549506 190.76279 
L 185.78865 190.887452 
L 186.034088 190.83193 
L 186.124291 190.733783 
L 186.493496 190.145167 
L 186.663414 190.044585 
L 187.009543 188.961835 
L 187.036814 188.971767 
L 187.259176 189.150136 
L 187.271762 189.141303 
L 187.859133 188.615627 
L 188.091984 188.299146 
L 188.574467 188.569643 
L 188.750679 188.744096 
L 188.756972 188.737412 
L 188.817807 188.684347 
L 188.889131 188.767712 
L 188.981432 188.681678 
L 189.073733 188.514754 
L 189.138763 188.613727 
L 189.279313 188.624095 
L 189.340148 188.524114 
L 189.717743 187.661739 
L 189.839413 187.582668 
L 190.151978 187.434976 
L 190.353363 187.661669 
L 190.424686 187.708086 
L 190.481326 187.670833 
L 190.829553 187.501005 
L 190.848433 187.552536 
L 190.995275 187.989724 
L 191.087577 187.895172 
L 191.198758 187.964188 
L 191.557473 188.173473 
L 191.65397 188.14507 
L 191.685436 188.16853 
L 192.104987 188.621959 
L 192.201484 188.806471 
L 192.268612 188.719006 
L 192.532929 188.449288 
L 192.851788 188.427211 
L 193.088834 188.637855 
L 193.130789 188.691556 
L 193.183233 188.581981 
L 194.433494 187.484982 
L 194.660051 187.349594 
L 195.04394 186.741623 
L 195.295671 185.864788 
L 195.593552 185.019798 
L 195.807523 184.842643 
L 196.166239 184.556207 
L 196.208194 184.615896 
L 196.292104 184.674609 
L 196.334059 184.603663 
L 196.743121 183.946656 
L 196.770392 183.97633 
L 197.200431 184.322118 
L 197.204627 184.318026 
L 197.420695 184.22627 
L 197.43538 184.246967 
L 197.691306 184.420354 
L 197.791998 184.325787 
L 197.917863 184.324099 
L 197.926254 184.333995 
L 198.184278 184.472993 
L 198.186376 184.470939 
L 198.542994 183.967622 
L 199.157636 182.630414 
L 199.184906 182.68347 
L 199.260426 182.75266 
L 199.312869 182.699 
L 199.428246 182.613706 
L 199.466005 182.697172 
L 199.644315 182.86968 
L 199.654803 182.857561 
L 199.984151 182.628509 
L 200.365942 182.237188 
L 200.804372 181.263785 
L 201.062396 180.791286 
L 201.40433 180.269647 
L 202.033656 179.271633 
L 202.367199 179.020202 
L 202.782554 178.912715 
L 203.319579 178.444272 
L 203.690882 177.65427 
L 204.173365 175.982078 
L 204.366358 175.597436 
L 204.492224 175.431928 
L 204.716683 175.333467 
L 204.882406 175.31417 
L 205.035542 175.30609 
L 205.232731 175.329614 
L 206.071832 174.504605 
L 206.103299 174.60465 
L 206.321465 174.962093 
L 207.257063 176.60944 
L 207.26965 176.600799 
L 207.724862 176.411426 
L 207.957713 176.645438 
L 208.144413 176.837132 
L 208.683536 177.617452 
L 208.916387 177.499534 
L 209.180704 177.143899 
L 209.21217 177.14229 
L 209.262516 177.217356 
L 209.37999 177.337137 
L 209.438727 177.27389 
L 209.881353 176.722607 
L 210.107911 176.685333 
L 210.326077 176.515499 
L 210.475018 176.671979 
L 210.863102 177.378332 
L 210.991065 177.469053 
L 211.112735 177.683334 
L 212.052529 179.37666 
L 212.310552 179.565414 
L 212.455297 179.625933 
L 212.780449 179.898722 
L 212.8266 179.81639 
L 213.027984 179.683924 
L 213.332158 179.51573 
L 213.434948 179.617943 
L 213.632137 179.741465 
L 213.734927 179.644029 
L 214.00344 179.372028 
L 214.590811 179.433838 
L 214.844639 179.594129 
L 215.268385 180.043557 
L 216.082314 180.253823 
L 216.26272 180.311691 
L 216.411661 180.349986 
L 216.787159 180.366102 
L 216.89834 180.407183 
L 216.904633 180.416039 
L 217.158461 180.583871 
L 217.334673 180.50727 
L 217.4962 180.280999 
L 217.653531 180.237855 
L 217.894773 180.13377 
L 219.09259 179.739403 
L 219.384178 179.876559 
L 219.596051 179.783483 
L 219.810022 179.674392 
L 220.130979 179.56031 
L 220.382709 179.311657 
L 220.695274 179.095776 
L 220.928125 178.955658 
L 221.102239 178.849914 
L 221.21342 178.737566 
L 221.756738 177.84649 
L 221.886799 177.933747 
L 222.348304 178.366 
L 222.627306 178.553673 
L 222.916796 178.928048 
L 223.195797 179.091836 
L 223.359422 179.208356 
L 223.365715 179.204733 
L 224.036996 178.610547 
L 224.3139 178.367702 
L 224.746037 178.351119 
L 224.95791 178.306111 
L 225.853651 178.315363 
L 225.996298 178.342293 
L 226.413751 178.611815 
L 226.745196 178.856457 
L 227.175236 179.059286 
L 227.489899 179.594129 
L 227.586396 179.657205 
L 227.624155 179.603549 
L 227.938818 179.20852 
L 228.136007 179.205741 
L 228.370956 179.25542 
L 228.681423 178.750519 
L 229.25411 177.607115 
L 229.480667 177.64621 
L 229.707225 177.655662 
L 230.007204 177.261794 
L 230.72044 176.06778 
L 231.205021 175.389995 
L 231.507098 174.838542 
L 231.714775 174.757265 
L 232.136424 174.757803 
L 232.314733 174.781533 
L 232.818194 174.1833 
L 233.151737 173.772109 
L 233.478986 173.53343 
L 233.684566 173.504762 
L 234.185929 173.247595 
L 234.592894 172.709005 
L 234.813158 172.481687 
L 234.943218 172.461088 
L 236.375984 172.955159 
L 236.919303 174.139033 
L 237.429057 174.922328 
L 237.901051 175.169611 
L 238.607994 175.679073 
L 238.721273 175.787943 
L 239.142922 175.958863 
L 239.730293 176.414848 
L 241.125299 177.788045 
L 241.276337 177.823545 
L 241.509188 178.237871 
L 241.718963 178.557372 
L 241.922446 178.687468 
L 242.090266 178.659099 
L 242.199349 178.715988 
L 242.388147 178.701347 
L 242.495132 178.664022 
L 242.532892 178.707409 
L 242.820284 178.926204 
L 242.837066 178.906333 
L 243.122361 178.727249 
L 243.227248 178.789453 
L 243.539814 178.985782 
L 244.160749 179.996268 
L 244.513172 180.693972 
L 244.899158 180.793199 
L 245.671132 179.884299 
L 246.38227 180.411265 
L 246.814407 180.581327 
L 247.112289 180.509629 
L 247.282207 180.474955 
L 247.439538 180.47679 
L 248.461144 180.430584 
L 248.830349 180.136634 
L 249.614909 179.977408 
L 250.095295 180.157349 
L 250.504357 179.744399 
L 250.655395 179.678173 
L 251.058164 179.434623 
L 251.064457 179.443387 
L 251.234375 179.490354 
L 251.416879 179.473646 
L 251.555331 179.516317 
L 251.773498 179.43828 
L 251.899363 179.292162 
L 252.484636 178.260664 
L 253.145429 178.226647 
L 253.346813 178.148687 
L 253.590152 178.22001 
L 253.88174 178.76107 
L 253.942575 178.717986 
L 254.173328 178.760634 
L 254.756504 178.936592 
L 255.048091 179.204496 
L 255.253671 179.292182 
L 255.371145 179.268968 
L 256.078088 179.468997 
L 258.521972 180.405395 
L 259.138711 180.114514 
L 259.426104 180.163307 
L 259.954738 179.919182 
L 260.277792 180.007544 
L 260.554695 180.397415 
L 260.61553 180.28573 
L 260.890336 179.97011 
L 261.274225 179.61232 
L 261.435752 179.398969 
L 262.023123 178.457767 
L 262.163672 178.269887 
L 262.402816 178.040454 
L 262.608396 177.963374 
L 262.738457 177.792479 
L 263.004872 177.447398 
L 263.51043 177.332244 
L 263.6321 177.40648 
L 263.663566 177.363482 
L 263.825093 177.29738 
L 264.009696 177.047408 
L 264.324359 176.774768 
L 265.073257 176.732656 
L 265.402604 177.054315 
L 265.566229 177.063885 
L 266.302541 177.061195 
L 266.724189 177.093691 
L 267.131153 176.781795 
L 267.437426 176.527739 
L 267.609441 176.46451 
L 268.037383 176.482949 
L 268.756913 176.468267 
L 269.386239 176.829391 
L 269.507909 176.963772 
L 269.577134 176.890214 
L 269.770128 176.849019 
L 270.063813 176.851238 
L 270.233731 176.817851 
L 270.456093 176.225923 
L 270.697335 175.926815 
L 271.177721 175.344512 
L 271.555316 174.967728 
L 271.815438 174.892506 
L 272.021018 174.704278 
L 272.665028 173.89301 
L 272.834946 173.75917 
L 273.359385 173.103344 
L 273.669852 173.055858 
L 273.974027 173.082664 
L 274.485878 173.261579 
L 275.28722 173.648068 
L 275.543146 173.714713 
L 275.826343 173.795822 
L 276.220721 173.905366 
L 276.575241 174.345419 
L 276.917175 174.500789 
L 277.154221 174.592419 
L 277.565381 174.473131 
L 277.787743 174.489505 
L 278.161143 174.605635 
L 279.195336 174.961336 
L 280.005069 174.958505 
L 280.560974 175.371919 
L 280.756065 175.563508 
L 280.959547 175.694212 
L 280.961645 175.69251 
L 281.486083 175.409805 
L 281.985348 175.746219 
L 282.243372 175.968235 
L 282.499298 175.813832 
L 282.813961 175.687399 
L 283.502024 175.694164 
L 283.688725 175.690969 
L 283.835567 175.710778 
L 284.081005 175.67006 
L 284.722917 175.452285 
L 285.249453 174.885635 
L 285.450838 174.760243 
L 285.853607 174.277542 
L 286.245887 173.958879 
L 286.396925 173.744762 
L 286.692708 173.402232 
L 287.112259 173.084074 
L 287.443704 173.179163 
L 287.659773 173.255 
L 288.31637 173.49724 
L 288.809342 173.892467 
L 289.159667 174.00464 
L 289.895978 173.965944 
L 290.260987 173.877704 
L 290.456078 174.057055 
L 290.712004 174.389555 
L 291.016179 174.626971 
L 291.502858 174.753042 
L 291.6497 174.740656 
L 291.819618 174.59935 
L 292.153161 174.49761 
L 292.503486 174.589266 
L 292.839127 174.539756 
L 293.036316 174.666547 
L 293.183158 174.674547 
L 293.330001 174.775893 
L 293.502017 174.785715 
L 293.789409 174.695495 
L 294.169103 174.912344 
L 294.964152 175.526252 
L 295.155047 175.672244 
L 295.343845 175.699893 
L 295.922825 175.747438 
L 296.476632 176.104221 
L 296.705287 175.973793 
L 296.908769 175.90811 
L 297.313636 176.05192 
L 297.554878 175.931195 
L 297.877932 176.018072 
L 298.345731 175.519536 
L 298.851289 174.75168 
L 299.10302 174.699332 
L 299.600188 174.816039 
L 299.732346 174.87054 
L 299.763812 174.837577 
L 300.235807 174.503371 
L 300.816885 174.180155 
L 301.14833 174.070119 
L 303.143294 173.733444 
L 304.018057 173.772469 
L 304.175389 173.764086 
L 304.720805 173.420975 
L 305.308176 173.190347 
L 305.675283 173.096099 
L 305.830516 173.16429 
L 306.021412 173.10692 
L 306.468234 173.033322 
L 306.736746 173.051995 
L 307.160492 173.119345 
L 307.833871 172.859231 
L 308.079309 172.995074 
L 308.221956 172.985421 
L 308.966658 172.676255 
L 309.298104 172.573055 
L 309.755414 172.424117 
L 310.212724 172.111701 
L 310.984698 171.407706 
L 311.509136 171.582413 
L 312.016793 171.474559 
L 312.948195 171.056175 
L 313.105527 171.035306 
L 313.409701 171.080688 
L 313.571228 171.146305 
L 313.801981 171.226989 
L 314.01805 170.953364 
L 314.127133 170.876236 
L 314.169088 170.91933 
L 314.525706 171.190131 
L 314.710308 171.300653 
L 314.985114 171.265712 
L 315.182303 171.332881 
L 315.673177 171.627019 
L 316.195518 172.00586 
L 316.432564 172.23972 
L 316.724152 172.276241 
L 317.542276 172.755468 
L 318.08979 172.87173 
L 318.788342 173.332616 
L 319.293901 173.780879 
L 319.814144 174.261189 
L 320.336484 174.757655 
L 321.421023 175.090143 
L 321.840574 175.574228 
L 323.481017 176.573487 
L 323.667717 176.710145 
L 324.215231 177.166362 
L 325.167611 178.373225 
L 325.465492 178.453846 
L 325.960562 178.611321 
L 326.558422 178.986269 
L 327.412208 179.274132 
L 328.179986 179.806286 
L 328.75477 180.31599 
L 328.989719 180.345994 
L 329.291795 180.434493 
L 329.524646 180.475821 
L 329.952588 180.431046 
L 330.8756 179.54256 
L 331.177676 179.384772 
L 331.777634 179.161364 
L 333.160054 179.095379 
L 333.506183 178.980081 
L 333.728545 179.248357 
L 333.883779 179.273676 
L 334.34948 179.237844 
L 334.718685 179.18828 
L 335.043836 179.189641 
L 335.3585 179.21216 
L 335.788539 178.798455 
L 336.06754 178.627174 
L 336.443038 178.504472 
L 336.612956 178.529272 
L 336.776581 178.63119 
L 337.265358 178.667327 
L 337.40381 178.591405 
L 337.44996 178.646107 
L 337.773014 178.86893 
L 339.050546 179.287571 
L 339.675677 178.841285 
L 340.05537 178.599313 
L 340.852517 178.846517 
L 341.580437 179.191361 
L 342.039846 179.399616 
L 342.308358 179.562371 
L 343.443243 179.87091 
L 343.89426 179.752569 
L 344.462751 179.935241 
L 344.783708 179.840104 
L 345.564072 179.649872 
L 346.237451 179.450625 
L 346.581483 179.438985 
L 347.363945 179.042151 
L 347.571622 178.955005 
L 347.789789 178.914856 
L 347.978587 179.002287 
L 348.23661 179.188373 
L 348.505123 179.209123 
L 349.109276 179.123336 
L 349.449112 178.919296 
L 350.03019 178.642021 
L 350.672103 178.808744 
L 350.959495 178.868851 
L 351.121022 178.780804 
L 351.471347 178.529651 
L 351.744055 178.48958 
L 352.297862 179.129187 
L 352.679653 179.512182 
L 353.890057 179.677347 
L 354.303315 179.54427 
L 354.51309 179.450744 
L 354.890686 179.37612 
L 355.436102 179.796138 
L 355.89551 179.868558 
L 356.26891 180.117204 
L 356.461903 180.326692 
L 357.042981 180.996187 
L 357.376524 181.322795 
L 357.840128 181.504067 
L 358.972915 181.634824 
L 359.709226 181.373486 
L 359.910611 181.284397 
L 360.602869 181.181968 
L 360.747614 181.212553 
L 360.963683 181.252103 
L 361.985289 181.200392 
L 363.334145 182.03252 
L 363.640417 181.790612 
L 363.87117 181.685049 
L 364.792084 181.425505 
L 365.270372 181.068201 
L 365.987803 180.853211 
L 366.210165 180.809573 
L 366.346519 180.686464 
L 366.591957 180.54417 
L 367.084929 180.275628 
L 367.282118 180.307868 
L 368.312115 181.139683 
L 368.964516 181.931825 
L 369.600136 182.268169 
L 369.887528 182.163053 
L 370.349034 182.26813 
L 370.563005 182.318479 
L 371.011924 182.26232 
L 371.509092 182.233083 
L 371.993673 182.400228 
L 372.222328 182.539195 
L 372.702714 182.743867 
L 373.040452 182.843407 
L 373.287987 182.929083 
L 373.678169 183.069333 
L 373.881651 183.193247 
L 374.276029 183.191803 
L 374.454338 183.235093 
L 374.920039 183.308819 
L 375.561952 183.10692 
L 375.851442 183.080382 
L 376.340219 182.944783 
L 377.332456 182.695769 
L 377.819135 182.743096 
L 378.467341 182.454506 
L 379.264488 182.053377 
L 379.589639 182.08527 
L 379.898009 182.114133 
L 380.116176 182.150497 
L 380.416154 182.11463 
L 380.718231 181.922861 
L 381.089533 181.822878 
L 381.416783 181.544831 
L 381.922342 180.944742 
L 382.19505 180.985916 
L 382.440487 181.002219 
L 382.629285 181.020382 
L 382.981707 181.157483 
L 383.283784 181.261169 
L 383.459995 181.387519 
L 383.697041 181.436444 
L 384.326368 181.418333 
L 384.999747 181.335377 
L 386.105263 181.004206 
L 386.822695 181.170855 
L 388.140084 181.034931 
L 388.99387 180.979706 
L 389.440691 181.023166 
L 389.75955 180.951075 
L 390.2735 180.922285 
L 390.978345 180.887324 
L 391.324474 180.879959 
L 391.613964 180.966765 
L 391.871988 180.976492 
L 392.302028 181.282871 
L 392.723676 181.630146 
L 393.231333 181.685933 
L 393.611026 181.723556 
L 393.929885 181.59134 
L 394.322165 181.472828 
L 394.722836 181.157317 
L 395.108822 181.066866 
L 395.322793 181.015517 
L 395.736051 180.853807 
L 396.03603 180.725401 
L 396.32552 180.709731 
L 396.575152 180.682646 
L 396.9045 180.68893 
L 397.103786 180.771542 
L 397.328246 180.840299 
L 397.980647 180.464898 
L 398.511379 180.11802 
L 398.735839 180.14292 
L 399.006449 180.137383 
L 399.28545 180.128113 
L 399.69661 180.198639 
L 399.872821 180.199242 
L 401.605566 179.078599 
L 402.167764 179.024353 
L 402.784504 178.858667 
L 403.235521 178.710879 
L 403.766252 178.372429 
L 404.30118 177.887377 
L 404.724926 177.722349 
L 406.258384 177.00262 
L 406.422009 176.957215 
L 408.356138 176.33737 
L 408.710658 176.324573 
L 409.077765 176.417386 
L 409.629474 176.78031 
L 410.267192 177.120698 
L 410.451794 177.131671 
L 410.590246 177.075268 
L 411.129368 176.747499 
L 412.677511 177.121761 
L 413.086573 176.947293 
L 413.256491 176.975798 
L 413.571154 176.829148 
L 414.940987 176.092159 
L 415.589193 176.373163 
L 415.97518 176.381885 
L 416.153489 176.267684 
L 416.959026 175.653617 
L 417.556886 175.586371 
L 417.873647 175.590819 
L 418.87008 175.490355 
L 419.123908 175.419767 
L 419.308511 175.465681 
L 420.038529 175.658612 
L 420.758059 175.651735 
L 421.058037 175.626223 
L 421.450317 175.629152 
L 421.890846 175.70544 
L 422.295712 175.864589 
L 422.658624 176.03765 
L 423.216626 176.225663 
L 424.20257 177.085494 
L 424.680858 177.493117 
L 425.213688 177.805723 
L 425.576599 177.92963 
L 426.237392 177.972808 
L 426.42619 177.921351 
L 427.307246 177.651667 
L 427.850564 177.882355 
L 428.341439 177.97283 
L 429.230886 177.933603 
L 430.743367 178.296777 
L 432.046072 178.805528 
L 432.411081 179.059368 
L 433.648756 179.211687 
L 434.00957 179.082529 
L 434.674558 178.962332 
L 435.217876 179.301437 
L 435.899646 179.781363 
L 436.2227 179.818485 
L 436.659033 180.065504 
L 437.120539 180.052864 
L 437.986911 179.703658 
L 439.625257 179.155255 
L 439.933627 179.125263 
L 441.530017 178.605062 
L 441.934884 178.531217 
L 442.35863 178.238552 
L 442.635533 178.086441 
L 443.688606 177.765312 
L 444.26339 177.669981 
L 444.680843 177.487254 
L 446.831041 176.538452 
L 447.23381 176.456786 
L 447.62609 176.243828 
L 448.001588 176.055088 
L 448.349815 175.944474 
L 448.756779 175.931029 
L 449.151157 176.07833 
L 449.409181 176.13529 
L 449.948303 175.912436 
L 450.252478 176.012147 
L 450.428689 176.111953 
L 451.112557 176.50784 
L 451.513228 176.487676 
L 452.625037 176.540914 
L 453.011024 176.547831 
L 453.290025 176.429195 
L 453.55644 176.437019 
L 454.221428 176.442476 
L 454.50882 176.424364 
L 454.685032 176.40456 
L 455.360508 176.315753 
L 456.172339 176.703234 
L 457.112133 176.725468 
L 457.963821 177.111887 
L 458.633004 177.236221 
L 459.562309 177.40089 
L 460.002838 177.627252 
L 460.823059 177.592537 
L 461.104158 177.619149 
L 462.094298 177.47424 
L 462.72782 177.746228 
L 463.690689 178.542311 
L 464.009547 178.665222 
L 464.762641 178.755109 
L 465.217854 178.888092 
L 465.985632 178.589732 
L 467.101637 178.550011 
L 467.479232 178.647872 
L 467.944934 178.413239 
L 468.572162 178.044178 
L 469.010593 177.922365 
L 469.470001 177.8994 
L 470.034296 177.959674 
L 470.252463 177.938911 
L 471.311829 177.963007 
L 471.911786 177.928038 
L 472.956468 178.204825 
L 474.559151 177.94081 
L 475.266095 178.024704 
L 476.172324 178.049098 
L 476.394686 178.029438 
L 476.726131 177.977024 
L 477.112118 177.806605 
L 477.370142 177.809424 
L 478.196657 177.729925 
L 478.98751 177.435501 
L 479.375594 177.394321 
L 479.965063 177.147573 
L 480.290215 177.118883 
L 482.215953 176.878723 
L 484.315805 177.52057 
L 485.933173 177.101634 
L 486.289791 177.032419 
L 486.923313 177.158723 
L 487.630256 177.318427 
L 489.100781 177.087451 
L 489.323143 177.097323 
L 490.051064 177.229446 
L 490.392998 177.225434 
L 491.513198 177.680451 
L 491.894989 177.794725 
L 492.811708 178.025218 
L 493.816532 178.344956 
L 494.129097 178.437648 
L 494.471031 178.520305 
L 494.800378 178.497014 
L 495.431802 178.57258 
L 496.195385 178.765392 
L 496.837297 178.917381 
L 497.118396 178.981698 
L 497.789678 179.168076 
L 499.023157 179.618143 
L 499.874845 179.98689 
L 500.835616 180.119461 
L 501.219505 180.153506 
L 501.605492 180.19886 
L 502.954348 180.380868 
L 503.308868 180.318881 
L 503.644509 180.339778 
L 504.07245 180.335016 
L 504.31579 180.332474 
L 505.068883 180.461276 
L 506.115663 180.725411 
L 507.015599 180.742387 
L 508.681216 180.936813 
L 509.669258 180.998945 
L 510.33005 181.041227 
L 511.25516 180.762141 
L 512.014546 180.583395 
L 512.322916 180.666587 
L 512.784422 180.685591 
L 514.882176 180.513781 
L 515.081463 180.534585 
L 515.780015 180.280171 
L 516.46598 180.22662 
L 516.772252 180.227131 
L 517.814836 180.6508 
L 519.679739 180.936989 
L 520.35102 180.910102 
L 521.978877 181.324794 
L 522.725678 181.522443 
L 523.499749 181.72735 
L 525.4129 182.038108 
L 525.792594 182.091161 
L 526.4408 182.091638 
L 526.736583 182.118337 
L 527.913423 182.028882 
L 528.246966 182.011774 
L 528.960202 182.229757 
L 529.520302 182.17446 
L 530.0825 182.217481 
L 530.495758 182.37456 
L 530.911113 182.456497 
L 531.183821 182.523476 
L 531.710357 182.751368 
L 532.136201 182.923642 
L 533.147319 183.155328 
L 533.568967 183.312399 
L 533.982225 183.391251 
L 534.282203 183.536201 
L 535.133892 183.813467 
L 535.563931 183.724942 
L 535.809368 183.774176 
L 535.954113 183.706442 
L 536.474356 183.517112 
L 536.875027 183.405984 
L 537.875656 183.331539 
L 538.186123 183.342928 
L 539.065082 183.338687 
L 539.641965 183.557604 
L 540.923692 183.8485 
L 541.460717 183.765179 
L 541.79426 183.750716 
L 542.075359 183.784801 
L 542.713076 183.60781 
L 543.254297 183.488433 
L 544.987041 183.233479 
L 545.740135 183.466978 
L 547.000885 183.267836 
L 547.298766 183.207636 
L 548.599373 183.312979 
L 548.96648 183.144819 
L 549.318903 183.074263 
L 549.946131 182.787829 
L 552.345962 182.223931 
L 554.003187 181.390057 
L 554.781454 180.821247 
L 555.278622 180.579835 
L 555.838722 180.463494 
L 557.68055 180.551312 
L 558.114785 180.505567 
L 558.469305 180.443493 
L 558.920322 180.196777 
L 559.946124 180.074318 
L 560.533495 180.073212 
L 561.863471 180.537951 
L 562.232676 180.428576 
L 563.132612 180.058628 
L 563.740961 179.701506 
L 564.277986 179.488157 
L 564.718514 179.341282 
L 565.65621 179.076443 
L 565.939407 179.057783 
L 566.323296 179.036249 
L 567.002968 179.030504 
L 567.525309 178.976014 
L 568.066529 179.261656 
L 569.478317 179.358486 
L 569.795078 179.340351 
L 570.015342 179.370853 
L 570.583834 179.504498 
L 571.198476 179.695825 
L 572.192811 179.749399 
L 572.532647 179.752518 
L 573.182951 179.985003 
L 573.453561 179.988717 
L 573.862623 179.813228 
L 574.19197 179.934717 
L 574.752071 180.12925 
L 577.785423 180.420902 
L 578.521734 180.676455 
L 578.846886 180.75365 
L 580.72018 181.245062 
L 582.001908 181.092123 
L 582.90604 181.358359 
L 583.264756 181.445414 
L 584.336708 181.575476 
L 584.999598 181.60888 
L 585.486277 181.576764 
L 585.777865 181.589945 
L 587.114134 180.962873 
L 587.504316 180.742895 
L 587.844152 180.640439 
L 589.226572 180.207785 
L 591.691433 179.755048 
L 593.726254 180.332667 
L 594.703807 180.491849 
L 595.1779 180.523409 
L 595.886941 180.535619 
L 596.476409 180.517478 
L 597.678422 180.479586 
L 600.430675 180.48107 
L 601.001265 180.278572 
L 601.29495 180.127892 
L 601.647373 180.011956 
L 602.048044 179.935098 
L 602.515843 179.850262 
L 603.988466 180.129711 
L 604.953433 180.257469 
L 605.32054 180.522801 
L 605.972941 181.017814 
L 606.461718 181.101018 
L 607.472835 181.256222 
L 609.260121 180.995024 
L 610.153765 180.947026 
L 610.676105 180.877174 
L 610.978182 180.87354 
L 610.978182 180.87354 
" clip-path="url(#p8be15a014d)" style="fill: none; stroke: #1f2937; stroke-linecap: square"/>
   </g>
   <g id="line2d_24">
    <path d="M 60.32 180.87354 
L 637.2 180.87354 
" clip-path="url(#p8be15a014d)" style="fill: none; stroke-dasharray: 2.96,1.28; stroke-dashoffset: 0; stroke: #888888; stroke-width: 0.8"/>
   </g>
   <g id="patch_3">
    <path d="M 60.32 282.04 
L 60.32 26.88 
" style="fill: none; stroke: #000000; stroke-width: 0.8; stroke-linejoin: miter; stroke-linecap: square"/>
   </g>
   <g id="patch_4">
    <path d="M 637.2 282.04 
L 637.2 26.88 
" style="fill: none; stroke: #000000; stroke-width: 0.8; stroke-linejoin: miter; stroke-linecap: square"/>
   </g>
   <g id="patch_5">
    <path d="M 60.32 282.04 
L 637.2 282.04 
" style="fill: none; stroke: #000000; stroke-width: 0.8; stroke-linejoin: miter; stroke-linecap: square"/>
   </g>
   <g id="patch_6">
    <path d="M 60.32 26.88 
L 637.2 26.88 
" style="fill: none; stroke: #000000; stroke-width: 0.8; stroke-linejoin: miter; stroke-linecap: square"/>
   </g>
   <g id="text_14">
    <!-- Running mean — Efficiency gap (UCP-favoured if positive)  (100k ReCom samples, seed 42) -->
    <g transform="translate(73.505313 20.88) scale(0.12 -0.12)">
     <defs>
      <path id="DejaVuSans-2014" d="M 313 1978 
L 6088 1978 
L 6088 1528 
L 313 1528 
L 313 1978 
z
" transform="scale(0.015625)"/>
      <path id="DejaVuSans-6b" d="M 581 4863 
L 1159 4863 
L 1159 1991 
L 2875 3500 
L 3609 3500 
L 1753 1863 
L 3688 0 
L 2938 0 
L 1159 1709 
L 1159 0 
L 581 0 
L 581 4863 
z
" transform="scale(0.015625)"/>
      <path id="DejaVuSans-2c" d="M 750 794 
L 1409 794 
L 1409 256 
L 897 -744 
L 494 -744 
L 750 256 
L 750 794 
z
" transform="scale(0.015625)"/>
      <path id="DejaVuSans-34" d="M 2419 4116 
L 825 1625 
L 2419 1625 
L 2419 4116 
z
M 2253 4666 
L 3047 4666 
L 3047 1625 
L 3713 1625 
L 3713 1100 
L 3047 1100 
L 3047 0 
L 2419 0 
L 2419 1100 
L 313 1100 
L 313 1709 
L 2253 4666 
z
" transform="scale(0.015625)"/>
     </defs>
     <use xlink:href="#DejaVuSans-52"/>
     <use xlink:href="#DejaVuSans-75" transform="translate(64.982422 0)"/>
     <use xlink:href="#DejaVuSans-6e" transform="translate(128.361328 0)"/>
     <use xlink:href="#DejaVuSans-6e" transform="translate(191.740234 0)"/>
     <use xlink:href="#DejaVuSans-69" transform="translate(255.119141 0)"/>
     <use xlink:href="#DejaVuSans-6e" transform="translate(282.902344 0)"/>
     <use xlink:href="#DejaVuSans-67" transform="translate(346.28125 0)"/>
     <use xlink:href="#DejaVuSans-20" transform="translate(409.757812 0)"/>
     <use xlink:href="#DejaVuSans-6d" transform="translate(441.544922 0)"/>
     <use xlink:href="#DejaVuSans-65" transform="translate(538.957031 0)"/>
     <use xlink:href="#DejaVuSans-61" transform="translate(600.480469 0)"/>
     <use xlink:href="#DejaVuSans-6e" transform="translate(661.759766 0)"/>
     <use xlink:href="#DejaVuSans-20" transform="translate(725.138672 0)"/>
     <use xlink:href="#DejaVuSans-2014" transform="translate(756.925781 0)"/>
     <use xlink:href="#DejaVuSans-20" transform="translate(856.925781 0)"/>
     <use xlink:href="#DejaVuSans-45" transform="translate(888.712891 0)"/>
     <use xlink:href="#DejaVuSans-66" transform="translate(951.896484 0)"/>
     <use xlink:href="#DejaVuSans-66" transform="translate(987.101562 0)"/>
     <use xlink:href="#DejaVuSans-69" transform="translate(1022.306641 0)"/>
     <use xlink:href="#DejaVuSans-63" transform="translate(1050.089844 0)"/>
     <use xlink:href="#DejaVuSans-69" transform="translate(1105.070312 0)"/>
     <use xlink:href="#DejaVuSans-65" transform="translate(1132.853516 0)"/>
     <use xlink:href="#DejaVuSans-6e" transform="translate(1194.376953 0)"/>
     <use xlink:href="#DejaVuSans-63" transform="translate(1257.755859 0)"/>
     <use xlink:href="#DejaVuSans-79" transform="translate(1312.736328 0)"/>
     <use xlink:href="#DejaVuSans-20" transform="translate(1371.916016 0)"/>
     <use xlink:href="#DejaVuSans-67" transform="translate(1403.703125 0)"/>
     <use xlink:href="#DejaVuSans-61" transform="translate(1467.179688 0)"/>
     <use xlink:href="#DejaVuSans-70" transform="translate(1528.458984 0)"/>
     <use xlink:href="#DejaVuSans-20" transform="translate(1591.935547 0)"/>
     <use xlink:href="#DejaVuSans-28" transform="translate(1623.722656 0)"/>
     <use xlink:href="#DejaVuSans-55" transform="translate(1662.736328 0)"/>
     <use xlink:href="#DejaVuSans-43" transform="translate(1735.929688 0)"/>
     <use xlink:href="#DejaVuSans-50" transform="translate(1805.753906 0)"/>
     <use xlink:href="#DejaVuSans-2d" transform="translate(1863.806641 0)"/>
     <use xlink:href="#DejaVuSans-66" transform="translate(1899.890625 0)"/>
     <use xlink:href="#DejaVuSans-61" transform="translate(1935.095703 0)"/>
     <use xlink:href="#DejaVuSans-76" transform="translate(1996.375 0)"/>
     <use xlink:href="#DejaVuSans-6f" transform="translate(2055.554688 0)"/>
     <use xlink:href="#DejaVuSans-75" transform="translate(2116.736328 0)"/>
     <use xlink:href="#DejaVuSans-72" transform="translate(2180.115234 0)"/>
     <use xlink:href="#DejaVuSans-65" transform="translate(2218.978516 0)"/>
     <use xlink:href="#DejaVuSans-64" transform="translate(2280.501953 0)"/>
     <use xlink:href="#DejaVuSans-20" transform="translate(2343.978516 0)"/>
     <use xlink:href="#DejaVuSans-69" transform="translate(2375.765625 0)"/>
     <use xlink:href="#DejaVuSans-66" transform="translate(2403.548828 0)"/>
     <use xlink:href="#DejaVuSans-20" transform="translate(2438.753906 0)"/>
     <use xlink:href="#DejaVuSans-70" transform="translate(2470.541016 0)"/>
     <use xlink:href="#DejaVuSans-6f" transform="translate(2534.017578 0)"/>
     <use xlink:href="#DejaVuSans-73" transform="translate(2595.199219 0)"/>
     <use xlink:href="#DejaVuSans-69" transform="translate(2647.298828 0)"/>
     <use xlink:href="#DejaVuSans-74" transform="translate(2675.082031 0)"/>
     <use xlink:href="#DejaVuSans-69" transform="translate(2714.291016 0)"/>
     <use xlink:href="#DejaVuSans-76" transform="translate(2742.074219 0)"/>
     <use xlink:href="#DejaVuSans-65" transform="translate(2801.253906 0)"/>
     <use xlink:href="#DejaVuSans-29" transform="translate(2862.777344 0)"/>
     <use xlink:href="#DejaVuSans-20" transform="translate(2901.791016 0)"/>
     <use xlink:href="#DejaVuSans-20" transform="translate(2933.578125 0)"/>
     <use xlink:href="#DejaVuSans-28" transform="translate(2965.365234 0)"/>
     <use xlink:href="#DejaVuSans-31" transform="translate(3004.378906 0)"/>
     <use xlink:href="#DejaVuSans-30" transform="translate(3068.001953 0)"/>
     <use xlink:href="#DejaVuSans-30" transform="translate(3131.625 0)"/>
     <use xlink:href="#DejaVuSans-6b" transform="translate(3195.248047 0)"/>
     <use xlink:href="#DejaVuSans-20" transform="translate(3253.158203 0)"/>
     <use xlink:href="#DejaVuSans-52" transform="translate(3284.945312 0)"/>
     <use xlink:href="#DejaVuSans-65" transform="translate(3349.927734 0)"/>
     <use xlink:href="#DejaVuSans-43" transform="translate(3411.451172 0)"/>
     <use xlink:href="#DejaVuSans-6f" transform="translate(3481.275391 0)"/>
     <use xlink:href="#DejaVuSans-6d" transform="translate(3542.457031 0)"/>
     <use xlink:href="#DejaVuSans-20" transform="translate(3639.869141 0)"/>
     <use xlink:href="#DejaVuSans-73" transform="translate(3671.65625 0)"/>
     <use xlink:href="#DejaVuSans-61" transform="translate(3723.755859 0)"/>
     <use xlink:href="#DejaVuSans-6d" transform="translate(3785.035156 0)"/>
     <use xlink:href="#DejaVuSans-70" transform="translate(3882.447266 0)"/>
     <use xlink:href="#DejaVuSans-6c" transform="translate(3945.923828 0)"/>
     <use xlink:href="#DejaVuSans-65" transform="translate(3973.707031 0)"/>
     <use xlink:href="#DejaVuSans-73" transform="translate(4035.230469 0)"/>
     <use xlink:href="#DejaVuSans-2c" transform="translate(4087.330078 0)"/>
     <use xlink:href="#DejaVuSans-20" transform="translate(4119.117188 0)"/>
     <use xlink:href="#DejaVuSans-73" transform="translate(4150.904297 0)"/>
     <use xlink:href="#DejaVuSans-65" transform="translate(4203.003906 0)"/>
     <use xlink:href="#DejaVuSans-65" transform="translate(4264.527344 0)"/>
     <use xlink:href="#DejaVuSans-64" transform="translate(4326.050781 0)"/>
     <use xlink:href="#DejaVuSans-20" transform="translate(4389.527344 0)"/>
     <use xlink:href="#DejaVuSans-34" transform="translate(4421.314453 0)"/>
     <use xlink:href="#DejaVuSans-32" transform="translate(4484.9375 0)"/>
     <use xlink:href="#DejaVuSans-29" transform="translate(4548.560547 0)"/>
    </g>
   </g>
   <g id="legend_1">
    <g id="patch_7">
     <path d="M 496.306406 47.290312 
L 630.9 47.290312 
Q 632.7 47.290312 632.7 45.490312 
L 632.7 33.18 
Q 632.7 31.38 630.9 31.38 
L 496.306406 31.38 
Q 494.506406 31.38 494.506406 33.18 
L 494.506406 45.490312 
Q 494.506406 47.290312 496.306406 47.290312 
z
" style="fill: #ffffff; opacity: 0.8; stroke: #cccccc; stroke-linejoin: miter"/>
    </g>
    <g id="line2d_25">
     <path d="M 498.106406 38.668594 
L 507.106406 38.668594 
L 516.106406 38.668594 
" style="fill: none; stroke-dasharray: 2.96,1.28; stroke-dashoffset: 0; stroke: #888888; stroke-width: 0.8"/>
    </g>
    <g id="text_15">
     <!-- final mean = +0.01603 -->
     <g transform="translate(523.306406 41.818594) scale(0.09 -0.09)">
      <defs>
       <path id="DejaVuSans-3d" d="M 678 2906 
L 4684 2906 
L 4684 2381 
L 678 2381 
L 678 2906 
z
M 678 1631 
L 4684 1631 
L 4684 1100 
L 678 1100 
L 678 1631 
z
" transform="scale(0.015625)"/>
       <path id="DejaVuSans-2b" d="M 2944 4013 
L 2944 2272 
L 4684 2272 
L 4684 1741 
L 2944 1741 
L 2944 0 
L 2419 0 
L 2419 1741 
L 678 1741 
L 678 2272 
L 2419 2272 
L 2419 4013 
L 2944 4013 
z
" transform="scale(0.015625)"/>
       <path id="DejaVuSans-36" d="M 2113 2584 
Q 1688 2584 1439 2293 
Q 1191 2003 1191 1497 
Q 1191 994 1439 701 
Q 1688 409 2113 409 
Q 2538 409 2786 701 
Q 3034 994 3034 1497 
Q 3034 2003 2786 2293 
Q 2538 2584 2113 2584 
z
M 3366 4563 
L 3366 3988 
Q 3128 4100 2886 4159 
Q 2644 4219 2406 4219 
Q 1781 4219 1451 3797 
Q 1122 3375 1075 2522 
Q 1259 2794 1537 2939 
Q 1816 3084 2150 3084 
Q 2853 3084 3261 2657 
Q 3669 2231 3669 1497 
Q 3669 778 3244 343 
Q 2819 -91 2113 -91 
Q 1303 -91 875 529 
Q 447 1150 447 2328 
Q 447 3434 972 4092 
Q 1497 4750 2381 4750 
Q 2619 4750 2861 4703 
Q 3103 4656 3366 4563 
z
" transform="scale(0.015625)"/>
      </defs>
      <use xlink:href="#DejaVuSans-66"/>
      <use xlink:href="#DejaVuSans-69" transform="translate(35.205078 0)"/>
      <use xlink:href="#DejaVuSans-6e" transform="translate(62.988281 0)"/>
      <use xlink:href="#DejaVuSans-61" transform="translate(126.367188 0)"/>
      <use xlink:href="#DejaVuSans-6c" transform="translate(187.646484 0)"/>
      <use xlink:href="#DejaVuSans-20" transform="translate(215.429688 0)"/>
      <use xlink:href="#DejaVuSans-6d" transform="translate(247.216797 0)"/>
      <use xlink:href="#DejaVuSans-65" transform="translate(344.628906 0)"/>
      <use xlink:href="#DejaVuSans-61" transform="translate(406.152344 0)"/>
      <use xlink:href="#DejaVuSans-6e" transform="translate(467.431641 0)"/>
      <use xlink:href="#DejaVuSans-20" transform="translate(530.810547 0)"/>
      <use xlink:href="#DejaVuSans-3d" transform="translate(562.597656 0)"/>
      <use xlink:href="#DejaVuSans-20" transform="translate(646.386719 0)"/>
      <use xlink:href="#DejaVuSans-2b" transform="translate(678.173828 0)"/>
      <use xlink:href="#DejaVuSans-30" transform="translate(761.962891 0)"/>
      <use xlink:href="#DejaVuSans-2e" transform="translate(825.585938 0)"/>
      <use xlink:href="#DejaVuSans-30" transform="translate(857.373047 0)"/>
      <use xlink:href="#DejaVuSans-31" transform="translate(920.996094 0)"/>
      <use xlink:href="#DejaVuSans-36" transform="translate(984.619141 0)"/>
      <use xlink:href="#DejaVuSans-30" transform="translate(1048.242188 0)"/>
      <use xlink:href="#DejaVuSans-33" transform="translate(1111.865234 0)"/>
     </g>
    </g>
   </g>
  </g>
 </g>
 <defs>
  <clipPath id="p8be15a014d">
   <rect x="60.32" y="26.88" width="576.88" height="255.16"/>
  </clipPath>
 </defs>
</svg>
