<?xml version="1.0" encoding="utf-8" standalone="no"?>
<!DOCTYPE svg PUBLIC "-//W3C//DTD SVG 1.1//EN"
  "http://www.w3.org/Graphics/SVG/1.1/DTD/svg11.dtd">
<svg xmlns:xlink="http://www.w3.org/1999/xlink" width="648pt" height="324pt" viewBox="0 0 648 324" xmlns="http://www.w3.org/2000/svg" version="1.1">
 <metadata>
  <rdf:RDF xmlns:dc="http://purl.org/dc/elements/1.1/" xmlns:cc="http://creativecommons.org/ns#" xmlns:rdf="http://www.w3.org/1999/02/22-rdf-syntax-ns#">
   <cc:Work>
    <dc:type rdf:resource="http://purl.org/dc/dcmitype/StillImage"/>
    <dc:date>2026-05-18T20:46:14.325198</dc:date>
    <dc:format>image/svg+xml</dc:format>
    <dc:creator>
     <cc:Agent>
      <dc:title>Matplotlib v3.10.8, https://matplotlib.org/</dc:title>
     </cc:Agent>
    </dc:creator>
   </cc:Work>
  </rdf:RDF>
 </metadata>
 <defs>
  <style type="text/css">*{stroke-linejoin: round; stroke-linecap: butt}</style>
 </defs>
 <g id="figure_1">
  <g id="patch_1">
   <path d="M 0 324 
L 648 324 
L 648 0 
L 0 0 
z
" style="fill: #ffffff"/>
  </g>
  <g id="axes_1">
   <g id="patch_2">
    <path d="M 68.88125 282.04 
L 637.2 282.04 
L 637.2 26.88 
L 68.88125 26.88 
z
" style="fill: #ffffff"/>
   </g>
   <g id="matplotlib.axis_1">
    <g id="xtick_1">
     <g id="line2d_1">
      <path d="M 94.711854 282.04 
L 94.711854 26.88 
" clip-path="url(#p5a559fbb02)" style="fill: none; stroke-dasharray: 0.5,0.825; stroke-dashoffset: 0; stroke: #b0b0b0; stroke-opacity: 0.6; stroke-width: 0.5"/>
     </g>
     <g id="line2d_2">
      <defs>
       <path id="m9795ea5ebd" d="M 0 0 
L 0 3.5 
" style="stroke: #000000; stroke-width: 0.8"/>
      </defs>
      <g>
       <use xlink:href="#m9795ea5ebd" x="94.711854" y="282.04" style="stroke: #000000; stroke-width: 0.8"/>
      </g>
     </g>
     <g id="text_1">
      <!-- 0 -->
      <g transform="translate(91.530604 296.638438) scale(0.1 -0.1)">
       <defs>
        <path id="DejaVuSans-30" d="M 2034 4250 
Q 1547 4250 1301 3770 
Q 1056 3291 1056 2328 
Q 1056 1369 1301 889 
Q 1547 409 2034 409 
Q 2525 409 2770 889 
Q 3016 1369 3016 2328 
Q 3016 3291 2770 3770 
Q 2525 4250 2034 4250 
z
M 2034 4750 
Q 2819 4750 3233 4129 
Q 3647 3509 3647 2328 
Q 3647 1150 3233 529 
Q 2819 -91 2034 -91 
Q 1250 -91 836 529 
Q 422 1150 422 2328 
Q 422 3509 836 4129 
Q 1250 4750 2034 4750 
z
" transform="scale(0.015625)"/>
       </defs>
       <use xlink:href="#DejaVuSans-30"/>
      </g>
     </g>
    </g>
    <g id="xtick_2">
     <g id="line2d_3">
      <path d="M 198.042949 282.04 
L 198.042949 26.88 
" clip-path="url(#p5a559fbb02)" style="fill: none; stroke-dasharray: 0.5,0.825; stroke-dashoffset: 0; stroke: #b0b0b0; stroke-opacity: 0.6; stroke-width: 0.5"/>
     </g>
     <g id="line2d_4">
      <g>
       <use xlink:href="#m9795ea5ebd" x="198.042949" y="282.04" style="stroke: #000000; stroke-width: 0.8"/>
      </g>
     </g>
     <g id="text_2">
      <!-- 50000 -->
      <g transform="translate(182.136699 296.638438) scale(0.1 -0.1)">
       <defs>
        <path id="DejaVuSans-35" d="M 691 4666 
L 3169 4666 
L 3169 4134 
L 1269 4134 
L 1269 2991 
Q 1406 3038 1543 3061 
Q 1681 3084 1819 3084 
Q 2600 3084 3056 2656 
Q 3513 2228 3513 1497 
Q 3513 744 3044 326 
Q 2575 -91 1722 -91 
Q 1428 -91 1123 -41 
Q 819 9 494 109 
L 494 744 
Q 775 591 1075 516 
Q 1375 441 1709 441 
Q 2250 441 2565 725 
Q 2881 1009 2881 1497 
Q 2881 1984 2565 2268 
Q 2250 2553 1709 2553 
Q 1456 2553 1204 2497 
Q 953 2441 691 2322 
L 691 4666 
z
" transform="scale(0.015625)"/>
       </defs>
       <use xlink:href="#DejaVuSans-35"/>
       <use xlink:href="#DejaVuSans-30" transform="translate(63.623047 0)"/>
       <use xlink:href="#DejaVuSans-30" transform="translate(127.246094 0)"/>
       <use xlink:href="#DejaVuSans-30" transform="translate(190.869141 0)"/>
       <use xlink:href="#DejaVuSans-30" transform="translate(254.492188 0)"/>
      </g>
     </g>
    </g>
    <g id="xtick_3">
     <g id="line2d_5">
      <path d="M 301.374044 282.04 
L 301.374044 26.88 
" clip-path="url(#p5a559fbb02)" style="fill: none; stroke-dasharray: 0.5,0.825; stroke-dashoffset: 0; stroke: #b0b0b0; stroke-opacity: 0.6; stroke-width: 0.5"/>
     </g>
     <g id="line2d_6">
      <g>
       <use xlink:href="#m9795ea5ebd" x="301.374044" y="282.04" style="stroke: #000000; stroke-width: 0.8"/>
      </g>
     </g>
     <g id="text_3">
      <!-- 100000 -->
      <g transform="translate(282.286544 296.638438) scale(0.1 -0.1)">
       <defs>
        <path id="DejaVuSans-31" d="M 794 531 
L 1825 531 
L 1825 4091 
L 703 3866 
L 703 4441 
L 1819 4666 
L 2450 4666 
L 2450 531 
L 3481 531 
L 3481 0 
L 794 0 
L 794 531 
z
" transform="scale(0.015625)"/>
       </defs>
       <use xlink:href="#DejaVuSans-31"/>
       <use xlink:href="#DejaVuSans-30" transform="translate(63.623047 0)"/>
       <use xlink:href="#DejaVuSans-30" transform="translate(127.246094 0)"/>
       <use xlink:href="#DejaVuSans-30" transform="translate(190.869141 0)"/>
       <use xlink:href="#DejaVuSans-30" transform="translate(254.492188 0)"/>
       <use xlink:href="#DejaVuSans-30" transform="translate(318.115234 0)"/>
      </g>
     </g>
    </g>
    <g id="xtick_4">
     <g id="line2d_7">
      <path d="M 404.705139 282.04 
L 404.705139 26.88 
" clip-path="url(#p5a559fbb02)" style="fill: none; stroke-dasharray: 0.5,0.825; stroke-dashoffset: 0; stroke: #b0b0b0; stroke-opacity: 0.6; stroke-width: 0.5"/>
     </g>
     <g id="line2d_8">
      <g>
       <use xlink:href="#m9795ea5ebd" x="404.705139" y="282.04" style="stroke: #000000; stroke-width: 0.8"/>
      </g>
     </g>
     <g id="text_4">
      <!-- 150000 -->
      <g transform="translate(385.617639 296.638438) scale(0.1 -0.1)">
       <use xlink:href="#DejaVuSans-31"/>
       <use xlink:href="#DejaVuSans-35" transform="translate(63.623047 0)"/>
       <use xlink:href="#DejaVuSans-30" transform="translate(127.246094 0)"/>
       <use xlink:href="#DejaVuSans-30" transform="translate(190.869141 0)"/>
       <use xlink:href="#DejaVuSans-30" transform="translate(254.492188 0)"/>
       <use xlink:href="#DejaVuSans-30" transform="translate(318.115234 0)"/>
      </g>
     </g>
    </g>
    <g id="xtick_5">
     <g id="line2d_9">
      <path d="M 508.036234 282.04 
L 508.036234 26.88 
" clip-path="url(#p5a559fbb02)" style="fill: none; stroke-dasharray: 0.5,0.825; stroke-dashoffset: 0; stroke: #b0b0b0; stroke-opacity: 0.6; stroke-width: 0.5"/>
     </g>
     <g id="line2d_10">
      <g>
       <use xlink:href="#m9795ea5ebd" x="508.036234" y="282.04" style="stroke: #000000; stroke-width: 0.8"/>
      </g>
     </g>
     <g id="text_5">
      <!-- 200000 -->
      <g transform="translate(488.948734 296.638438) scale(0.1 -0.1)">
       <defs>
        <path id="DejaVuSans-32" d="M 1228 531 
L 3431 531 
L 3431 0 
L 469 0 
L 469 531 
Q 828 903 1448 1529 
Q 2069 2156 2228 2338 
Q 2531 2678 2651 2914 
Q 2772 3150 2772 3378 
Q 2772 3750 2511 3984 
Q 2250 4219 1831 4219 
Q 1534 4219 1204 4116 
Q 875 4013 500 3803 
L 500 4441 
Q 881 4594 1212 4672 
Q 1544 4750 1819 4750 
Q 2544 4750 2975 4387 
Q 3406 4025 3406 3419 
Q 3406 3131 3298 2873 
Q 3191 2616 2906 2266 
Q 2828 2175 2409 1742 
Q 1991 1309 1228 531 
z
" transform="scale(0.015625)"/>
       </defs>
       <use xlink:href="#DejaVuSans-32"/>
       <use xlink:href="#DejaVuSans-30" transform="translate(63.623047 0)"/>
       <use xlink:href="#DejaVuSans-30" transform="translate(127.246094 0)"/>
       <use xlink:href="#DejaVuSans-30" transform="translate(190.869141 0)"/>
       <use xlink:href="#DejaVuSans-30" transform="translate(254.492188 0)"/>
       <use xlink:href="#DejaVuSans-30" transform="translate(318.115234 0)"/>
      </g>
     </g>
    </g>
    <g id="xtick_6">
     <g id="line2d_11">
      <path d="M 611.36733 282.04 
L 611.36733 26.88 
" clip-path="url(#p5a559fbb02)" style="fill: none; stroke-dasharray: 0.5,0.825; stroke-dashoffset: 0; stroke: #b0b0b0; stroke-opacity: 0.6; stroke-width: 0.5"/>
     </g>
     <g id="line2d_12">
      <g>
       <use xlink:href="#m9795ea5ebd" x="611.36733" y="282.04" style="stroke: #000000; stroke-width: 0.8"/>
      </g>
     </g>
     <g id="text_6">
      <!-- 250000 -->
      <g transform="translate(592.27983 296.638438) scale(0.1 -0.1)">
       <use xlink:href="#DejaVuSans-32"/>
       <use xlink:href="#DejaVuSans-35" transform="translate(63.623047 0)"/>
       <use xlink:href="#DejaVuSans-30" transform="translate(127.246094 0)"/>
       <use xlink:href="#DejaVuSans-30" transform="translate(190.869141 0)"/>
       <use xlink:href="#DejaVuSans-30" transform="translate(254.492188 0)"/>
       <use xlink:href="#DejaVuSans-30" transform="translate(318.115234 0)"/>
      </g>
     </g>
    </g>
    <g id="text_7">
     <!-- Sample index -->
     <g transform="translate(319.022656 310.316563) scale(0.1 -0.1)">
      <defs>
       <path id="DejaVuSans-53" d="M 3425 4513 
L 3425 3897 
Q 3066 4069 2747 4153 
Q 2428 4238 2131 4238 
Q 1616 4238 1336 4038 
Q 1056 3838 1056 3469 
Q 1056 3159 1242 3001 
Q 1428 2844 1947 2747 
L 2328 2669 
Q 3034 2534 3370 2195 
Q 3706 1856 3706 1288 
Q 3706 609 3251 259 
Q 2797 -91 1919 -91 
Q 1588 -91 1214 -16 
Q 841 59 441 206 
L 441 856 
Q 825 641 1194 531 
Q 1563 422 1919 422 
Q 2459 422 2753 634 
Q 3047 847 3047 1241 
Q 3047 1584 2836 1778 
Q 2625 1972 2144 2069 
L 1759 2144 
Q 1053 2284 737 2584 
Q 422 2884 422 3419 
Q 422 4038 858 4394 
Q 1294 4750 2059 4750 
Q 2388 4750 2728 4690 
Q 3069 4631 3425 4513 
z
" transform="scale(0.015625)"/>
       <path id="DejaVuSans-61" d="M 2194 1759 
Q 1497 1759 1228 1600 
Q 959 1441 959 1056 
Q 959 750 1161 570 
Q 1363 391 1709 391 
Q 2188 391 2477 730 
Q 2766 1069 2766 1631 
L 2766 1759 
L 2194 1759 
z
M 3341 1997 
L 3341 0 
L 2766 0 
L 2766 531 
Q 2569 213 2275 61 
Q 1981 -91 1556 -91 
Q 1019 -91 701 211 
Q 384 513 384 1019 
Q 384 1609 779 1909 
Q 1175 2209 1959 2209 
L 2766 2209 
L 2766 2266 
Q 2766 2663 2505 2880 
Q 2244 3097 1772 3097 
Q 1472 3097 1187 3025 
Q 903 2953 641 2809 
L 641 3341 
Q 956 3463 1253 3523 
Q 1550 3584 1831 3584 
Q 2591 3584 2966 3190 
Q 3341 2797 3341 1997 
z
" transform="scale(0.015625)"/>
       <path id="DejaVuSans-6d" d="M 3328 2828 
Q 3544 3216 3844 3400 
Q 4144 3584 4550 3584 
Q 5097 3584 5394 3201 
Q 5691 2819 5691 2113 
L 5691 0 
L 5113 0 
L 5113 2094 
Q 5113 2597 4934 2840 
Q 4756 3084 4391 3084 
Q 3944 3084 3684 2787 
Q 3425 2491 3425 1978 
L 3425 0 
L 2847 0 
L 2847 2094 
Q 2847 2600 2669 2842 
Q 2491 3084 2119 3084 
Q 1678 3084 1418 2786 
Q 1159 2488 1159 1978 
L 1159 0 
L 581 0 
L 581 3500 
L 1159 3500 
L 1159 2956 
Q 1356 3278 1631 3431 
Q 1906 3584 2284 3584 
Q 2666 3584 2933 3390 
Q 3200 3197 3328 2828 
z
" transform="scale(0.015625)"/>
       <path id="DejaVuSans-70" d="M 1159 525 
L 1159 -1331 
L 581 -1331 
L 581 3500 
L 1159 3500 
L 1159 2969 
Q 1341 3281 1617 3432 
Q 1894 3584 2278 3584 
Q 2916 3584 3314 3078 
Q 3713 2572 3713 1747 
Q 3713 922 3314 415 
Q 2916 -91 2278 -91 
Q 1894 -91 1617 61 
Q 1341 213 1159 525 
z
M 3116 1747 
Q 3116 2381 2855 2742 
Q 2594 3103 2138 3103 
Q 1681 3103 1420 2742 
Q 1159 2381 1159 1747 
Q 1159 1113 1420 752 
Q 1681 391 2138 391 
Q 2594 391 2855 752 
Q 3116 1113 3116 1747 
z
" transform="scale(0.015625)"/>
       <path id="DejaVuSans-6c" d="M 603 4863 
L 1178 4863 
L 1178 0 
L 603 0 
L 603 4863 
z
" transform="scale(0.015625)"/>
       <path id="DejaVuSans-65" d="M 3597 1894 
L 3597 1613 
L 953 1613 
Q 991 1019 1311 708 
Q 1631 397 2203 397 
Q 2534 397 2845 478 
Q 3156 559 3463 722 
L 3463 178 
Q 3153 47 2828 -22 
Q 2503 -91 2169 -91 
Q 1331 -91 842 396 
Q 353 884 353 1716 
Q 353 2575 817 3079 
Q 1281 3584 2069 3584 
Q 2775 3584 3186 3129 
Q 3597 2675 3597 1894 
z
M 3022 2063 
Q 3016 2534 2758 2815 
Q 2500 3097 2075 3097 
Q 1594 3097 1305 2825 
Q 1016 2553 972 2059 
L 3022 2063 
z
" transform="scale(0.015625)"/>
       <path id="DejaVuSans-20" transform="scale(0.015625)"/>
       <path id="DejaVuSans-69" d="M 603 3500 
L 1178 3500 
L 1178 0 
L 603 0 
L 603 3500 
z
M 603 4863 
L 1178 4863 
L 1178 4134 
L 603 4134 
L 603 4863 
z
" transform="scale(0.015625)"/>
       <path id="DejaVuSans-6e" d="M 3513 2113 
L 3513 0 
L 2938 0 
L 2938 2094 
Q 2938 2591 2744 2837 
Q 2550 3084 2163 3084 
Q 1697 3084 1428 2787 
Q 1159 2491 1159 1978 
L 1159 0 
L 581 0 
L 581 3500 
L 1159 3500 
L 1159 2956 
Q 1366 3272 1645 3428 
Q 1925 3584 2291 3584 
Q 2894 3584 3203 3211 
Q 3513 2838 3513 2113 
z
" transform="scale(0.015625)"/>
       <path id="DejaVuSans-64" d="M 2906 2969 
L 2906 4863 
L 3481 4863 
L 3481 0 
L 2906 0 
L 2906 525 
Q 2725 213 2448 61 
Q 2172 -91 1784 -91 
Q 1150 -91 751 415 
Q 353 922 353 1747 
Q 353 2572 751 3078 
Q 1150 3584 1784 3584 
Q 2172 3584 2448 3432 
Q 2725 3281 2906 2969 
z
M 947 1747 
Q 947 1113 1208 752 
Q 1469 391 1925 391 
Q 2381 391 2643 752 
Q 2906 1113 2906 1747 
Q 2906 2381 2643 2742 
Q 2381 3103 1925 3103 
Q 1469 3103 1208 2742 
Q 947 2381 947 1747 
z
" transform="scale(0.015625)"/>
       <path id="DejaVuSans-78" d="M 3513 3500 
L 2247 1797 
L 3578 0 
L 2900 0 
L 1881 1375 
L 863 0 
L 184 0 
L 1544 1831 
L 300 3500 
L 978 3500 
L 1906 2253 
L 2834 3500 
L 3513 3500 
z
" transform="scale(0.015625)"/>
      </defs>
      <use xlink:href="#DejaVuSans-53"/>
      <use xlink:href="#DejaVuSans-61" transform="translate(63.476562 0)"/>
      <use xlink:href="#DejaVuSans-6d" transform="translate(124.755859 0)"/>
      <use xlink:href="#DejaVuSans-70" transform="translate(222.167969 0)"/>
      <use xlink:href="#DejaVuSans-6c" transform="translate(285.644531 0)"/>
      <use xlink:href="#DejaVuSans-65" transform="translate(313.427734 0)"/>
      <use xlink:href="#DejaVuSans-20" transform="translate(374.951172 0)"/>
      <use xlink:href="#DejaVuSans-69" transform="translate(406.738281 0)"/>
      <use xlink:href="#DejaVuSans-6e" transform="translate(434.521484 0)"/>
      <use xlink:href="#DejaVuSans-64" transform="translate(497.900391 0)"/>
      <use xlink:href="#DejaVuSans-65" transform="translate(561.376953 0)"/>
      <use xlink:href="#DejaVuSans-78" transform="translate(621.150391 0)"/>
     </g>
    </g>
   </g>
   <g id="matplotlib.axis_2">
    <g id="ytick_1">
     <g id="line2d_13">
      <path d="M 68.88125 266.126018 
L 637.2 266.126018 
" clip-path="url(#p5a559fbb02)" style="fill: none; stroke-dasharray: 0.5,0.825; stroke-dashoffset: 0; stroke: #b0b0b0; stroke-opacity: 0.6; stroke-width: 0.5"/>
     </g>
     <g id="line2d_14">
      <defs>
       <path id="m3b1104814b" d="M 0 0 
L -3.5 0 
" style="stroke: #000000; stroke-width: 0.8"/>
      </defs>
      <g>
       <use xlink:href="#m3b1104814b" x="68.88125" y="266.126018" style="stroke: #000000; stroke-width: 0.8"/>
      </g>
     </g>
     <g id="text_8">
      <!-- −0.019 -->
      <g transform="translate(24.873438 269.925237) scale(0.1 -0.1)">
       <defs>
        <path id="DejaVuSans-2212" d="M 678 2272 
L 4684 2272 
L 4684 1741 
L 678 1741 
L 678 2272 
z
" transform="scale(0.015625)"/>
        <path id="DejaVuSans-2e" d="M 684 794 
L 1344 794 
L 1344 0 
L 684 0 
L 684 794 
z
" transform="scale(0.015625)"/>
        <path id="DejaVuSans-39" d="M 703 97 
L 703 672 
Q 941 559 1184 500 
Q 1428 441 1663 441 
Q 2288 441 2617 861 
Q 2947 1281 2994 2138 
Q 2813 1869 2534 1725 
Q 2256 1581 1919 1581 
Q 1219 1581 811 2004 
Q 403 2428 403 3163 
Q 403 3881 828 4315 
Q 1253 4750 1959 4750 
Q 2769 4750 3195 4129 
Q 3622 3509 3622 2328 
Q 3622 1225 3098 567 
Q 2575 -91 1691 -91 
Q 1453 -91 1209 -44 
Q 966 3 703 97 
z
M 1959 2075 
Q 2384 2075 2632 2365 
Q 2881 2656 2881 3163 
Q 2881 3666 2632 3958 
Q 2384 4250 1959 4250 
Q 1534 4250 1286 3958 
Q 1038 3666 1038 3163 
Q 1038 2656 1286 2365 
Q 1534 2075 1959 2075 
z
" transform="scale(0.015625)"/>
       </defs>
       <use xlink:href="#DejaVuSans-2212"/>
       <use xlink:href="#DejaVuSans-30" transform="translate(83.789062 0)"/>
       <use xlink:href="#DejaVuSans-2e" transform="translate(147.412109 0)"/>
       <use xlink:href="#DejaVuSans-30" transform="translate(179.199219 0)"/>
       <use xlink:href="#DejaVuSans-31" transform="translate(242.822266 0)"/>
       <use xlink:href="#DejaVuSans-39" transform="translate(306.445312 0)"/>
      </g>
     </g>
    </g>
    <g id="ytick_2">
     <g id="line2d_15">
      <path d="M 68.88125 233.39635 
L 637.2 233.39635 
" clip-path="url(#p5a559fbb02)" style="fill: none; stroke-dasharray: 0.5,0.825; stroke-dashoffset: 0; stroke: #b0b0b0; stroke-opacity: 0.6; stroke-width: 0.5"/>
     </g>
     <g id="line2d_16">
      <g>
       <use xlink:href="#m3b1104814b" x="68.88125" y="233.39635" style="stroke: #000000; stroke-width: 0.8"/>
      </g>
     </g>
     <g id="text_9">
      <!-- −0.018 -->
      <g transform="translate(24.873438 237.195569) scale(0.1 -0.1)">
       <defs>
        <path id="DejaVuSans-38" d="M 2034 2216 
Q 1584 2216 1326 1975 
Q 1069 1734 1069 1313 
Q 1069 891 1326 650 
Q 1584 409 2034 409 
Q 2484 409 2743 651 
Q 3003 894 3003 1313 
Q 3003 1734 2745 1975 
Q 2488 2216 2034 2216 
z
M 1403 2484 
Q 997 2584 770 2862 
Q 544 3141 544 3541 
Q 544 4100 942 4425 
Q 1341 4750 2034 4750 
Q 2731 4750 3128 4425 
Q 3525 4100 3525 3541 
Q 3525 3141 3298 2862 
Q 3072 2584 2669 2484 
Q 3125 2378 3379 2068 
Q 3634 1759 3634 1313 
Q 3634 634 3220 271 
Q 2806 -91 2034 -91 
Q 1263 -91 848 271 
Q 434 634 434 1313 
Q 434 1759 690 2068 
Q 947 2378 1403 2484 
z
M 1172 3481 
Q 1172 3119 1398 2916 
Q 1625 2713 2034 2713 
Q 2441 2713 2670 2916 
Q 2900 3119 2900 3481 
Q 2900 3844 2670 4047 
Q 2441 4250 2034 4250 
Q 1625 4250 1398 4047 
Q 1172 3844 1172 3481 
z
" transform="scale(0.015625)"/>
       </defs>
       <use xlink:href="#DejaVuSans-2212"/>
       <use xlink:href="#DejaVuSans-30" transform="translate(83.789062 0)"/>
       <use xlink:href="#DejaVuSans-2e" transform="translate(147.412109 0)"/>
       <use xlink:href="#DejaVuSans-30" transform="translate(179.199219 0)"/>
       <use xlink:href="#DejaVuSans-31" transform="translate(242.822266 0)"/>
       <use xlink:href="#DejaVuSans-38" transform="translate(306.445312 0)"/>
      </g>
     </g>
    </g>
    <g id="ytick_3">
     <g id="line2d_17">
      <path d="M 68.88125 200.666682 
L 637.2 200.666682 
" clip-path="url(#p5a559fbb02)" style="fill: none; stroke-dasharray: 0.5,0.825; stroke-dashoffset: 0; stroke: #b0b0b0; stroke-opacity: 0.6; stroke-width: 0.5"/>
     </g>
     <g id="line2d_18">
      <g>
       <use xlink:href="#m3b1104814b" x="68.88125" y="200.666682" style="stroke: #000000; stroke-width: 0.8"/>
      </g>
     </g>
     <g id="text_10">
      <!-- −0.017 -->
      <g transform="translate(24.873438 204.465901) scale(0.1 -0.1)">
       <defs>
        <path id="DejaVuSans-37" d="M 525 4666 
L 3525 4666 
L 3525 4397 
L 1831 0 
L 1172 0 
L 2766 4134 
L 525 4134 
L 525 4666 
z
" transform="scale(0.015625)"/>
       </defs>
       <use xlink:href="#DejaVuSans-2212"/>
       <use xlink:href="#DejaVuSans-30" transform="translate(83.789062 0)"/>
       <use xlink:href="#DejaVuSans-2e" transform="translate(147.412109 0)"/>
       <use xlink:href="#DejaVuSans-30" transform="translate(179.199219 0)"/>
       <use xlink:href="#DejaVuSans-31" transform="translate(242.822266 0)"/>
       <use xlink:href="#DejaVuSans-37" transform="translate(306.445312 0)"/>
      </g>
     </g>
    </g>
    <g id="ytick_4">
     <g id="line2d_19">
      <path d="M 68.88125 167.937014 
L 637.2 167.937014 
" clip-path="url(#p5a559fbb02)" style="fill: none; stroke-dasharray: 0.5,0.825; stroke-dashoffset: 0; stroke: #b0b0b0; stroke-opacity: 0.6; stroke-width: 0.5"/>
     </g>
     <g id="line2d_20">
      <g>
       <use xlink:href="#m3b1104814b" x="68.88125" y="167.937014" style="stroke: #000000; stroke-width: 0.8"/>
      </g>
     </g>
     <g id="text_11">
      <!-- −0.016 -->
      <g transform="translate(24.873438 171.736233) scale(0.1 -0.1)">
       <defs>
        <path id="DejaVuSans-36" d="M 2113 2584 
Q 1688 2584 1439 2293 
Q 1191 2003 1191 1497 
Q 1191 994 1439 701 
Q 1688 409 2113 409 
Q 2538 409 2786 701 
Q 3034 994 3034 1497 
Q 3034 2003 2786 2293 
Q 2538 2584 2113 2584 
z
M 3366 4563 
L 3366 3988 
Q 3128 4100 2886 4159 
Q 2644 4219 2406 4219 
Q 1781 4219 1451 3797 
Q 1122 3375 1075 2522 
Q 1259 2794 1537 2939 
Q 1816 3084 2150 3084 
Q 2853 3084 3261 2657 
Q 3669 2231 3669 1497 
Q 3669 778 3244 343 
Q 2819 -91 2113 -91 
Q 1303 -91 875 529 
Q 447 1150 447 2328 
Q 447 3434 972 4092 
Q 1497 4750 2381 4750 
Q 2619 4750 2861 4703 
Q 3103 4656 3366 4563 
z
" transform="scale(0.015625)"/>
       </defs>
       <use xlink:href="#DejaVuSans-2212"/>
       <use xlink:href="#DejaVuSans-30" transform="translate(83.789062 0)"/>
       <use xlink:href="#DejaVuSans-2e" transform="translate(147.412109 0)"/>
       <use xlink:href="#DejaVuSans-30" transform="translate(179.199219 0)"/>
       <use xlink:href="#DejaVuSans-31" transform="translate(242.822266 0)"/>
       <use xlink:href="#DejaVuSans-36" transform="translate(306.445312 0)"/>
      </g>
     </g>
    </g>
    <g id="ytick_5">
     <g id="line2d_21">
      <path d="M 68.88125 135.207346 
L 637.2 135.207346 
" clip-path="url(#p5a559fbb02)" style="fill: none; stroke-dasharray: 0.5,0.825; stroke-dashoffset: 0; stroke: #b0b0b0; stroke-opacity: 0.6; stroke-width: 0.5"/>
     </g>
     <g id="line2d_22">
      <g>
       <use xlink:href="#m3b1104814b" x="68.88125" y="135.207346" style="stroke: #000000; stroke-width: 0.8"/>
      </g>
     </g>
     <g id="text_12">
      <!-- −0.015 -->
      <g transform="translate(24.873438 139.006565) scale(0.1 -0.1)">
       <use xlink:href="#DejaVuSans-2212"/>
       <use xlink:href="#DejaVuSans-30" transform="translate(83.789062 0)"/>
       <use xlink:href="#DejaVuSans-2e" transform="translate(147.412109 0)"/>
       <use xlink:href="#DejaVuSans-30" transform="translate(179.199219 0)"/>
       <use xlink:href="#DejaVuSans-31" transform="translate(242.822266 0)"/>
       <use xlink:href="#DejaVuSans-35" transform="translate(306.445312 0)"/>
      </g>
     </g>
    </g>
    <g id="ytick_6">
     <g id="line2d_23">
      <path d="M 68.88125 102.477678 
L 637.2 102.477678 
" clip-path="url(#p5a559fbb02)" style="fill: none; stroke-dasharray: 0.5,0.825; stroke-dashoffset: 0; stroke: #b0b0b0; stroke-opacity: 0.6; stroke-width: 0.5"/>
     </g>
     <g id="line2d_24">
      <g>
       <use xlink:href="#m3b1104814b" x="68.88125" y="102.477678" style="stroke: #000000; stroke-width: 0.8"/>
      </g>
     </g>
     <g id="text_13">
      <!-- −0.014 -->
      <g transform="translate(24.873438 106.276897) scale(0.1 -0.1)">
       <defs>
        <path id="DejaVuSans-34" d="M 2419 4116 
L 825 1625 
L 2419 1625 
L 2419 4116 
z
M 2253 4666 
L 3047 4666 
L 3047 1625 
L 3713 1625 
L 3713 1100 
L 3047 1100 
L 3047 0 
L 2419 0 
L 2419 1100 
L 313 1100 
L 313 1709 
L 2253 4666 
z
" transform="scale(0.015625)"/>
       </defs>
       <use xlink:href="#DejaVuSans-2212"/>
       <use xlink:href="#DejaVuSans-30" transform="translate(83.789062 0)"/>
       <use xlink:href="#DejaVuSans-2e" transform="translate(147.412109 0)"/>
       <use xlink:href="#DejaVuSans-30" transform="translate(179.199219 0)"/>
       <use xlink:href="#DejaVuSans-31" transform="translate(242.822266 0)"/>
       <use xlink:href="#DejaVuSans-34" transform="translate(306.445312 0)"/>
      </g>
     </g>
    </g>
    <g id="ytick_7">
     <g id="line2d_25">
      <path d="M 68.88125 69.74801 
L 637.2 69.74801 
" clip-path="url(#p5a559fbb02)" style="fill: none; stroke-dasharray: 0.5,0.825; stroke-dashoffset: 0; stroke: #b0b0b0; stroke-opacity: 0.6; stroke-width: 0.5"/>
     </g>
     <g id="line2d_26">
      <g>
       <use xlink:href="#m3b1104814b" x="68.88125" y="69.74801" style="stroke: #000000; stroke-width: 0.8"/>
      </g>
     </g>
     <g id="text_14">
      <!-- −0.013 -->
      <g transform="translate(24.873438 73.547229) scale(0.1 -0.1)">
       <defs>
        <path id="DejaVuSans-33" d="M 2597 2516 
Q 3050 2419 3304 2112 
Q 3559 1806 3559 1356 
Q 3559 666 3084 287 
Q 2609 -91 1734 -91 
Q 1441 -91 1130 -33 
Q 819 25 488 141 
L 488 750 
Q 750 597 1062 519 
Q 1375 441 1716 441 
Q 2309 441 2620 675 
Q 2931 909 2931 1356 
Q 2931 1769 2642 2001 
Q 2353 2234 1838 2234 
L 1294 2234 
L 1294 2753 
L 1863 2753 
Q 2328 2753 2575 2939 
Q 2822 3125 2822 3475 
Q 2822 3834 2567 4026 
Q 2313 4219 1838 4219 
Q 1578 4219 1281 4162 
Q 984 4106 628 3988 
L 628 4550 
Q 988 4650 1302 4700 
Q 1616 4750 1894 4750 
Q 2613 4750 3031 4423 
Q 3450 4097 3450 3541 
Q 3450 3153 3228 2886 
Q 3006 2619 2597 2516 
z
" transform="scale(0.015625)"/>
       </defs>
       <use xlink:href="#DejaVuSans-2212"/>
       <use xlink:href="#DejaVuSans-30" transform="translate(83.789062 0)"/>
       <use xlink:href="#DejaVuSans-2e" transform="translate(147.412109 0)"/>
       <use xlink:href="#DejaVuSans-30" transform="translate(179.199219 0)"/>
       <use xlink:href="#DejaVuSans-31" transform="translate(242.822266 0)"/>
       <use xlink:href="#DejaVuSans-33" transform="translate(306.445312 0)"/>
      </g>
     </g>
    </g>
    <g id="ytick_8">
     <g id="line2d_27">
      <path d="M 68.88125 37.018342 
L 637.2 37.018342 
" clip-path="url(#p5a559fbb02)" style="fill: none; stroke-dasharray: 0.5,0.825; stroke-dashoffset: 0; stroke: #b0b0b0; stroke-opacity: 0.6; stroke-width: 0.5"/>
     </g>
     <g id="line2d_28">
      <g>
       <use xlink:href="#m3b1104814b" x="68.88125" y="37.018342" style="stroke: #000000; stroke-width: 0.8"/>
      </g>
     </g>
     <g id="text_15">
      <!-- −0.012 -->
      <g transform="translate(24.873438 40.817561) scale(0.1 -0.1)">
       <use xlink:href="#DejaVuSans-2212"/>
       <use xlink:href="#DejaVuSans-30" transform="translate(83.789062 0)"/>
       <use xlink:href="#DejaVuSans-2e" transform="translate(147.412109 0)"/>
       <use xlink:href="#DejaVuSans-30" transform="translate(179.199219 0)"/>
       <use xlink:href="#DejaVuSans-31" transform="translate(242.822266 0)"/>
       <use xlink:href="#DejaVuSans-32" transform="translate(306.445312 0)"/>
      </g>
     </g>
    </g>
    <g id="text_16">
     <!-- Running mean of mean_median -->
     <g transform="translate(18.515625 234.136562) rotate(-90) scale(0.1 -0.1)">
      <defs>
       <path id="DejaVuSans-52" d="M 2841 2188 
Q 3044 2119 3236 1894 
Q 3428 1669 3622 1275 
L 4263 0 
L 3584 0 
L 2988 1197 
Q 2756 1666 2539 1819 
Q 2322 1972 1947 1972 
L 1259 1972 
L 1259 0 
L 628 0 
L 628 4666 
L 2053 4666 
Q 2853 4666 3247 4331 
Q 3641 3997 3641 3322 
Q 3641 2881 3436 2590 
Q 3231 2300 2841 2188 
z
M 1259 4147 
L 1259 2491 
L 2053 2491 
Q 2509 2491 2742 2702 
Q 2975 2913 2975 3322 
Q 2975 3731 2742 3939 
Q 2509 4147 2053 4147 
L 1259 4147 
z
" transform="scale(0.015625)"/>
       <path id="DejaVuSans-75" d="M 544 1381 
L 544 3500 
L 1119 3500 
L 1119 1403 
Q 1119 906 1312 657 
Q 1506 409 1894 409 
Q 2359 409 2629 706 
Q 2900 1003 2900 1516 
L 2900 3500 
L 3475 3500 
L 3475 0 
L 2900 0 
L 2900 538 
Q 2691 219 2414 64 
Q 2138 -91 1772 -91 
Q 1169 -91 856 284 
Q 544 659 544 1381 
z
M 1991 3584 
L 1991 3584 
z
" transform="scale(0.015625)"/>
       <path id="DejaVuSans-67" d="M 2906 1791 
Q 2906 2416 2648 2759 
Q 2391 3103 1925 3103 
Q 1463 3103 1205 2759 
Q 947 2416 947 1791 
Q 947 1169 1205 825 
Q 1463 481 1925 481 
Q 2391 481 2648 825 
Q 2906 1169 2906 1791 
z
M 3481 434 
Q 3481 -459 3084 -895 
Q 2688 -1331 1869 -1331 
Q 1566 -1331 1297 -1286 
Q 1028 -1241 775 -1147 
L 775 -588 
Q 1028 -725 1275 -790 
Q 1522 -856 1778 -856 
Q 2344 -856 2625 -561 
Q 2906 -266 2906 331 
L 2906 616 
Q 2728 306 2450 153 
Q 2172 0 1784 0 
Q 1141 0 747 490 
Q 353 981 353 1791 
Q 353 2603 747 3093 
Q 1141 3584 1784 3584 
Q 2172 3584 2450 3431 
Q 2728 3278 2906 2969 
L 2906 3500 
L 3481 3500 
L 3481 434 
z
" transform="scale(0.015625)"/>
       <path id="DejaVuSans-6f" d="M 1959 3097 
Q 1497 3097 1228 2736 
Q 959 2375 959 1747 
Q 959 1119 1226 758 
Q 1494 397 1959 397 
Q 2419 397 2687 759 
Q 2956 1122 2956 1747 
Q 2956 2369 2687 2733 
Q 2419 3097 1959 3097 
z
M 1959 3584 
Q 2709 3584 3137 3096 
Q 3566 2609 3566 1747 
Q 3566 888 3137 398 
Q 2709 -91 1959 -91 
Q 1206 -91 779 398 
Q 353 888 353 1747 
Q 353 2609 779 3096 
Q 1206 3584 1959 3584 
z
" transform="scale(0.015625)"/>
       <path id="DejaVuSans-66" d="M 2375 4863 
L 2375 4384 
L 1825 4384 
Q 1516 4384 1395 4259 
Q 1275 4134 1275 3809 
L 1275 3500 
L 2222 3500 
L 2222 3053 
L 1275 3053 
L 1275 0 
L 697 0 
L 697 3053 
L 147 3053 
L 147 3500 
L 697 3500 
L 697 3744 
Q 697 4328 969 4595 
Q 1241 4863 1831 4863 
L 2375 4863 
z
" transform="scale(0.015625)"/>
       <path id="DejaVuSans-5f" d="M 3263 -1063 
L 3263 -1509 
L -63 -1509 
L -63 -1063 
L 3263 -1063 
z
" transform="scale(0.015625)"/>
      </defs>
      <use xlink:href="#DejaVuSans-52"/>
      <use xlink:href="#DejaVuSans-75" transform="translate(64.982422 0)"/>
      <use xlink:href="#DejaVuSans-6e" transform="translate(128.361328 0)"/>
      <use xlink:href="#DejaVuSans-6e" transform="translate(191.740234 0)"/>
      <use xlink:href="#DejaVuSans-69" transform="translate(255.119141 0)"/>
      <use xlink:href="#DejaVuSans-6e" transform="translate(282.902344 0)"/>
      <use xlink:href="#DejaVuSans-67" transform="translate(346.28125 0)"/>
      <use xlink:href="#DejaVuSans-20" transform="translate(409.757812 0)"/>
      <use xlink:href="#DejaVuSans-6d" transform="translate(441.544922 0)"/>
      <use xlink:href="#DejaVuSans-65" transform="translate(538.957031 0)"/>
      <use xlink:href="#DejaVuSans-61" transform="translate(600.480469 0)"/>
      <use xlink:href="#DejaVuSans-6e" transform="translate(661.759766 0)"/>
      <use xlink:href="#DejaVuSans-20" transform="translate(725.138672 0)"/>
      <use xlink:href="#DejaVuSans-6f" transform="translate(756.925781 0)"/>
      <use xlink:href="#DejaVuSans-66" transform="translate(818.107422 0)"/>
      <use xlink:href="#DejaVuSans-20" transform="translate(853.3125 0)"/>
      <use xlink:href="#DejaVuSans-6d" transform="translate(885.099609 0)"/>
      <use xlink:href="#DejaVuSans-65" transform="translate(982.511719 0)"/>
      <use xlink:href="#DejaVuSans-61" transform="translate(1044.035156 0)"/>
      <use xlink:href="#DejaVuSans-6e" transform="translate(1105.314453 0)"/>
      <use xlink:href="#DejaVuSans-5f" transform="translate(1168.693359 0)"/>
      <use xlink:href="#DejaVuSans-6d" transform="translate(1218.693359 0)"/>
      <use xlink:href="#DejaVuSans-65" transform="translate(1316.105469 0)"/>
      <use xlink:href="#DejaVuSans-64" transform="translate(1377.628906 0)"/>
      <use xlink:href="#DejaVuSans-69" transform="translate(1441.105469 0)"/>
      <use xlink:href="#DejaVuSans-61" transform="translate(1468.888672 0)"/>
      <use xlink:href="#DejaVuSans-6e" transform="translate(1530.167969 0)"/>
     </g>
    </g>
   </g>
   <g id="line2d_29">
    <path d="M 94.71392 49.3579 
L 94.819318 86.808685 
L 94.844118 77.836744 
L 94.994981 38.478182 
L 95.001181 40.693985 
L 95.193377 68.687747 
L 95.19751 68.758725 
L 95.199577 67.824258 
L 95.366973 39.590759 
L 95.371106 39.710133 
L 95.459971 45.201439 
L 95.889828 85.988187 
L 95.96216 78.558621 
L 96.10269 69.287025 
L 96.26182 60.843525 
L 96.27422 62.579762 
L 96.373418 76.500076 
L 96.43955 70.522312 
L 96.497415 68.513806 
L 96.534614 71.52793 
L 96.685478 84.157837 
L 96.697877 83.019455 
L 96.89834 64.029736 
L 96.947939 70.12062 
L 97.278598 97.661148 
L 97.288931 96.403589 
L 97.311664 93.629485 
L 97.375729 99.123904 
L 97.520393 109.714961 
L 97.600991 108.312566 
L 97.720855 104.549768 
L 97.741522 106.534497 
L 97.780787 111.194058 
L 97.844853 106.107076 
L 98.090781 91.618324 
L 98.113513 93.844313 
L 98.601236 131.531772 
L 98.609503 130.388747 
L 98.847164 112.977594 
L 98.890563 109.388358 
L 98.979428 110.973044 
L 99.285288 134.410679 
L 99.595281 169.331601 
L 99.618014 168.219419 
L 99.814343 163.988481 
L 99.837076 163.638217 
L 100.066471 152.036128 
L 100.091271 152.988987 
L 101.134915 192.117454 
L 101.161781 191.180418 
L 101.407709 182.43046 
L 101.428375 182.817654 
L 101.494507 184.002979 
L 101.531706 182.767707 
L 101.818967 169.122016 
L 101.833433 168.220361 
L 101.899565 170.856785 
L 102.317022 188.647463 
L 102.689014 208.102784 
L 103.015541 223.303015 
L 103.125072 225.770779 
L 103.19327 225.133873 
L 103.275935 224.149941 
L 103.317267 224.906405 
L 103.519796 228.13416 
L 103.571462 228.060638 
L 103.612794 227.873029 
L 103.846323 225.387238 
L 103.854589 225.307318 
L 103.891788 225.995557 
L 104.158383 234.750636 
L 104.228648 236.405367 
L 104.28858 235.474771 
L 104.848634 222.510852 
L 105.123495 210.872178 
L 105.35909 206.426277 
L 105.36529 206.458635 
L 105.437622 206.897764 
L 105.509953 206.64718 
L 105.751748 202.859975 
L 105.780681 203.13939 
L 105.855079 203.031665 
L 106.309736 207.210942 
L 106.349002 208.059243 
L 106.615596 212.462669 
L 106.625929 212.346352 
L 106.652795 212.059136 
L 106.704461 212.719144 
L 106.871857 214.560186 
L 106.919389 213.950593 
L 107.204583 210.732561 
L 107.262449 211.011025 
L 107.272782 211.039976 
L 107.287248 210.74002 
L 107.429845 210.049779 
L 107.508377 209.898795 
L 107.564175 210.068227 
L 107.762571 210.533863 
L 107.766704 210.505042 
L 108.018832 207.950853 
L 108.231694 201.940517 
L 108.425957 194.395855 
L 108.636752 189.942626 
L 109.074876 185.623087 
L 109.149274 185.399561 
L 109.513 181.063542 
L 109.517133 181.064667 
L 109.560532 181.190939 
L 109.67213 181.83396 
L 109.701062 181.468623 
L 109.951124 176.964479 
L 110.006923 175.451755 
L 110.087521 176.248925 
L 110.256984 177.127111 
L 110.345849 177.29134 
L 110.370648 177.772094 
L 110.693041 186.272964 
L 110.841838 188.923383 
L 111.162164 193.56332 
L 111.246896 194.285121 
L 111.286161 193.699762 
L 111.35436 192.726733 
L 111.414292 193.426563 
L 111.703619 195.925459 
L 111.720152 195.664777 
L 112.14381 186.165029 
L 112.534401 175.070609 
L 112.648065 173.022812 
L 112.817528 170.116533 
L 112.834061 170.190727 
L 112.875394 170.348762 
L 112.91466 170.077425 
L 113.082056 168.605551 
L 113.108922 168.712727 
L 113.553246 171.061222 
L 113.586312 171.565707 
L 113.675176 171.214331 
L 113.774374 171.043546 
L 113.799174 171.190897 
L 113.80744 171.245217 
L 113.879772 171.019592 
L 113.883905 171.013512 
L 113.898372 171.167073 
L 114.129833 174.144602 
L 114.218698 173.386534 
L 114.224898 173.324859 
L 114.319962 173.471415 
L 114.433627 173.685835 
L 114.460493 173.48777 
L 114.673355 171.125111 
L 114.935816 168.036933 
L 115.06808 166.758038 
L 115.152811 167.151972 
L 115.223076 167.270245 
L 115.524803 168.669354 
L 115.570269 168.342729 
L 115.789331 166.666508 
L 116.047658 163.177595 
L 116.12619 162.864195 
L 116.543648 159.619411 
L 116.636646 158.789841 
L 116.717244 158.876087 
L 116.801975 158.907083 
L 116.808175 158.836501 
L 116.876374 158.576582 
L 116.91564 158.848021 
L 117.016904 159.637855 
L 117.126435 159.53783 
L 117.297965 159.166878 
L 117.618291 155.652332 
L 117.760888 154.827444 
L 117.789821 154.893048 
L 117.936551 155.427534 
L 118.066748 156.492982 
L 118.153546 156.302187 
L 118.201078 156.161424 
L 118.250677 156.371842 
L 118.506938 157.827072 
L 118.548271 157.746629 
L 118.558604 157.723337 
L 118.651602 157.785711 
L 118.839665 157.907161 
L 118.973995 158.62516 
L 118.996728 158.093812 
L 119.153791 155.200402 
L 119.217856 155.403499 
L 119.248856 155.537504 
L 119.341854 155.459885 
L 119.428652 155.562565 
L 119.602248 156.936867 
L 120.197435 165.986476 
L 120.247034 165.904947 
L 120.284233 166.096467 
L 120.350365 165.85745 
L 120.534295 165.370237 
L 120.569427 165.524041 
L 120.984818 167.01733 
L 120.61076 165.499035 
L 121.007551 166.996153 
L 121.084016 166.893077 
L 121.121215 167.01736 
L 121.313411 168.018282 
L 121.480807 167.941908 
L 121.524206 167.964566 
L 121.536606 168.039166 
L 121.854866 169.647051 
L 121.873466 169.429201 
L 121.896198 169.377507 
L 121.920998 169.59486 
L 121.937531 169.746569 
L 122.013996 169.447626 
L 122.016062 169.440327 
L 122.049128 169.730377 
L 122.148326 170.620172 
L 123.04524 179.370453 
L 123.392433 179.950611 
L 123.423432 179.935596 
L 123.499897 179.817095 
L 123.814023 179.120299 
L 123.983486 179.030306 
L 124.177749 178.508632 
L 124.183949 178.561313 
L 124.555941 180.783643 
L 124.715071 181.683981 
L 124.927933 183.666609 
L 125.206927 187.09787 
L 125.709116 190.72797 
L 125.926111 192.050118 
L 126.289837 196.539699 
L 127.385146 202.902994 
L 127.434745 203.079652 
L 127.500877 202.900192 
L 127.602141 202.760018 
L 127.637274 202.849106 
L 128.209728 204.350521 
L 128.315126 204.727351 
L 128.344059 204.644695 
L 128.368858 204.575682 
L 128.424657 204.75765 
L 128.742917 206.266956 
L 128.908246 206.849165 
L 129.447635 209.187043 
L 129.474501 209.012724 
L 129.97669 204.593196 
L 130.474746 201.252857 
L 130.542944 201.306742 
L 130.557411 201.307909 
L 130.60081 201.214062 
L 130.770273 200.912632 
L 130.821938 200.971794 
L 130.908736 201.340696 
L 131.539056 205.350795 
L 131.673387 205.129893 
L 131.799451 204.974335 
L 131.820117 205.126721 
L 132.256174 207.524183 
L 132.444237 208.781896 
L 133.264685 213.864261 
L 133.427949 214.029809 
L 133.601545 215.965905 
L 133.694543 215.47848 
L 133.878472 216.066381 
L 134.087201 216.902262 
L 134.1244 216.954821 
L 134.1492 216.805236 
L 134.374461 216.119327 
L 135.182511 214.314865 
L 135.455305 212.345473 
L 135.49457 212.147514 
L 135.591702 212.194976 
L 135.624768 212.217787 
L 135.6785 212.120341 
L 135.771498 211.952698 
L 135.808697 212.113152 
L 136.11249 213.667739 
L 136.27162 214.276994 
L 136.666345 215.038282 
L 136.837875 215.269461 
L 137.327664 216.48666 
L 137.368997 216.694953 
L 137.414462 216.382724 
L 137.592192 214.312767 
L 138.179112 209.126128 
L 138.228711 208.842743 
L 138.559371 204.377333 
L 138.912763 202.300339 
L 139.148358 201.204139 
L 139.245489 200.634472 
L 139.313688 200.668727 
L 139.677413 199.778046 
L 139.681546 199.787343 
L 139.962607 200.967891 
L 140.173402 201.678265 
L 140.175469 201.673773 
L 140.295333 201.149217 
L 140.43793 200.750047 
L 140.468929 200.757131 
L 140.60326 200.896121 
L 140.803722 201.399922 
L 140.824388 201.330397 
L 140.861588 201.188018 
L 140.958719 201.266187 
L 141.053783 201.597234 
L 141.136448 201.506806 
L 141.233579 201.4071 
L 141.989963 199.525126 
L 142.258624 199.183056 
L 142.302023 199.34611 
L 142.547951 200.96574 
L 142.626483 200.386136 
L 143.153471 196.53518 
L 143.219603 196.336001 
L 143.232003 196.173111 
L 143.312601 196.57487 
L 143.320868 196.605775 
L 143.366333 196.358452 
L 143.403532 196.366112 
L 143.614328 195.635166 
L 143.651527 195.575407 
L 143.727992 195.657851 
L 143.773458 195.713018 
L 143.794124 195.571145 
L 144.004919 194.766378 
L 144.013186 194.809151 
L 144.025586 194.872707 
L 144.062785 194.496045 
L 144.213648 192.837626 
L 144.319046 193.110198 
L 144.626973 193.895452 
L 144.691038 193.700442 
L 144.850168 193.238402 
L 144.920433 193.291407 
L 145.029964 193.416731 
L 145.108496 193.85791 
L 145.158094 193.513392 
L 145.321358 193.142963 
L 145.406089 193.034639 
L 145.443288 193.155873 
L 145.536286 193.465979 
L 145.606551 193.326465 
L 145.629284 193.33703 
L 145.652017 193.229961 
L 145.941344 192.379424 
L 146.112874 192.650711 
L 146.555131 193.090847 
L 146.980855 193.702025 
L 146.999455 193.679163 
L 147.032521 193.633021 
L 147.07592 193.7668 
L 147.146185 193.849779 
L 147.206117 193.812127 
L 147.330114 193.887164 
L 147.35078 193.836168 
L 147.491311 193.435955 
L 147.518177 193.70766 
L 147.755838 194.832237 
L 148.239428 196.748263 
L 149.128075 201.721124 
L 149.5414 202.70015 
L 149.843126 203.18173 
L 149.861726 203.143254 
L 149.973324 203.034718 
L 150.012589 203.083622 
L 150.15312 203.426251 
L 150.419714 204.285068 
L 150.686308 205.100024 
L 150.791706 205.406097 
L 150.814439 205.213782 
L 150.934303 204.935962 
L 150.954969 204.96959 
L 151.227763 205.221268 
L 151.393093 205.507213 
L 151.593555 206.590373 
L 151.649354 206.45516 
L 151.781618 206.178681 
L 151.804351 206.368017 
L 152.168076 208.462005 
L 152.639266 210.235523 
L 152.825262 211.159801 
L 153.085656 211.776327 
L 153.263386 212.399451 
L 153.521713 212.970433 
L 153.52378 212.964819 
L 153.782108 212.531401 
L 153.794507 212.545368 
L 154.032169 212.820234 
L 154.065235 212.696153 
L 154.660422 210.719232 
L 154.794752 210.764933 
L 154.800952 210.793178 
L 154.848485 211.010377 
L 154.935283 210.888834 
L 155.191544 210.5185 
L 155.21221 210.578797 
L 155.402339 210.994954 
L 155.441605 210.939952 
L 155.617268 210.373364 
L 155.859063 209.277783 
L 155.962394 209.396652 
L 156.189722 210.012147 
L 156.334386 210.743949 
L 156.671245 212.698376 
L 156.716711 212.51424 
L 156.861374 211.747224 
L 156.910973 211.879274 
L 157.235433 213.191395 
L 157.435895 213.655603 
L 157.688023 213.806486 
L 157.710756 213.741811 
L 158.122014 212.587739 
L 158.175746 212.685975 
L 158.890797 214.425732 
L 159.229723 215.526195 
L 159.355787 215.353924 
L 160.349832 213.416061 
L 160.682558 212.193278 
L 160.74869 212.284463 
L 160.804489 212.22054 
L 160.883021 212.273266 
L 161.04835 212.392355 
L 161.240546 213.039279 
L 161.246746 213.031303 
L 161.474074 212.875236 
L 161.494741 212.892255 
L 161.769601 213.22014 
L 161.947331 213.571547 
L 161.97833 213.558453 
L 162.085794 213.493098 
L 162.104394 213.589636 
L 162.222192 213.99248 
L 162.28419 213.933479 
L 162.304856 213.90935 
L 162.350322 214.023533 
L 162.368922 214.078587 
L 162.451587 213.977785 
L 162.792579 213.511408 
L 162.821512 213.610628 
L 163.69776 217.819376 
L 163.763891 217.657329 
L 163.99742 216.905324 
L 164.067685 217.125837 
L 164.433477 218.714133 
L 165.491587 224.905481 
L 165.702383 225.55666 
L 166.061975 226.806999 
L 166.13224 226.874575 
L 166.16324 226.752436 
L 166.330636 226.222095 
L 166.365768 226.367439 
L 167.320548 232.27735 
L 167.657407 232.742762 
L 168.281527 234.093537 
L 168.475789 234.776299 
L 169.281772 236.307107 
L 169.35617 236.151863 
L 169.358237 236.147643 
L 169.449168 236.211215 
L 169.804627 236.832881 
L 169.996823 237.728558 
L 170.238618 238.627553 
L 170.364682 238.769675 
L 170.381215 238.790163 
L 170.42668 238.669107 
L 170.478346 238.535606 
L 170.563078 238.625153 
L 170.786273 239.042384 
L 170.794539 239.067351 
L 170.866871 238.973682 
L 170.881337 238.975716 
L 171.036334 239.119037 
L 171.065267 239.212386 
L 171.133465 239.06397 
L 171.431059 238.41945 
L 171.501324 238.543384 
L 171.885716 239.053438 
L 171.989047 239.209127 
L 172.210175 239.445052 
L 172.414771 239.565054 
L 172.5925 239.798919 
L 172.774363 240.064057 
L 173.030624 240.786015 
L 173.208354 241.70497 
L 173.642344 243.838919 
L 174.396661 246.883393 
L 174.698388 247.506124 
L 174.716988 247.42699 
L 175.039381 246.227538 
L 175.252243 245.666468 
L 175.607702 243.944304 
L 175.653167 243.987277 
L 176.124357 244.684661 
L 176.934473 246.941207 
L 177.477994 249.544847 
L 178.546438 255.524693 
L 179.05276 257.714289 
L 179.104426 257.347047 
L 179.430952 255.461551 
L 179.474351 255.534931 
L 179.722346 255.93194 
L 179.749212 255.98278 
L 179.840143 255.924898 
L 180.408464 255.69851 
L 180.433264 255.767642 
L 180.482863 255.899045 
L 180.538661 255.740244 
L 180.881721 255.07759 
L 180.985052 254.942194 
L 181.115249 254.894112 
L 181.175181 254.795208 
L 181.249579 254.608635 
L 181.317778 254.720555 
L 181.545106 254.995604 
L 181.582306 254.954969 
L 181.629838 254.902741 
L 181.68977 255.000577 
L 181.892299 255.123118 
L 181.931565 255.160271 
L 181.946031 255.221708 
L 182.227092 256.25966 
L 182.291157 256.211546 
L 182.553618 256.285641 
L 182.714814 256.88727 
L 182.818145 256.856323 
L 182.886344 257.085976 
L 183.07854 257.64468 
L 183.341001 257.888383 
L 183.560063 257.833724 
L 183.70266 257.7373 
L 183.721259 257.845497 
L 183.890722 258.180124 
L 184.297847 259.121398 
L 184.735971 260.169548 
L 184.872368 260.404383 
L 185.184427 260.788117 
L 186.126807 261.868283 
L 186.159873 261.799636 
L 186.490533 261.489006 
L 186.238405 261.864359 
L 186.507066 261.528222 
L 186.990655 262.402345 
L 187.246916 262.678768 
L 187.313048 262.616576 
L 187.722239 262.413656 
L 187.742905 262.44424 
L 187.926835 262.944176 
L 188.222362 263.950848 
L 188.410424 264.509091 
L 188.710084 265.16218 
L 188.722484 265.127692 
L 189.007678 264.593268 
L 189.131675 264.588396 
L 189.148208 264.653652 
L 189.39207 265.266022 
L 189.635931 265.752818 
L 189.658664 265.728926 
L 189.726862 265.846279 
L 189.927325 266.361787 
L 189.974857 266.236154 
L 190.43778 265.325037 
L 190.499779 265.045847 
L 190.698175 264.300415 
L 190.75604 264.375958 
L 190.861438 264.621633 
L 191.163165 265.191915 
L 191.289229 265.197595 
L 191.458692 265.027914 
L 191.731486 264.516754 
L 191.758352 264.554726 
L 192.186143 265.396555 
L 192.512669 266.086584 
L 192.663532 266.088591 
L 192.779263 265.814132 
L 193.070657 265.092463 
L 193.322785 265.25551 
L 193.36825 265.176959 
L 193.610045 264.73757 
L 193.975837 264.322809 
L 194.013036 264.416715 
L 194.168033 264.510317 
L 194.31683 264.689411 
L 194.579291 265.098956 
L 194.843818 265.16641 
L 194.856218 265.117074 
L 194.976082 264.626725 
L 195.06908 264.72254 
L 195.164145 264.838792 
L 195.219943 264.731943 
L 195.346007 264.733279 
L 195.434872 264.629665 
L 195.629135 264.504542 
L 195.924662 264.070891 
L 196.59838 262.215292 
L 196.612847 262.229553 
L 196.716178 262.187722 
L 196.718244 262.183328 
L 196.815376 262.070814 
L 196.864974 262.128432 
L 196.957972 262.179475 
L 196.988972 262.104569 
L 197.437429 261.307074 
L 197.573826 261.38496 
L 198.239278 262.36278 
L 198.257878 262.336513 
L 198.654669 261.977273 
L 199.328388 262.335636 
L 199.628048 262.884834 
L 199.718979 262.747736 
L 199.849177 262.586178 
L 199.896709 262.676033 
L 200.076505 262.867101 
L 200.099238 262.840472 
L 200.338966 262.723622 
L 200.547695 262.736685 
L 200.549761 262.727859 
L 200.698558 262.494485 
L 200.715091 262.506891 
L 200.801889 262.440227 
L 200.919687 262.335624 
L 200.989952 262.416619 
L 201.209014 262.788726 
L 201.409476 263.249554 
L 201.452875 263.154689 
L 201.645071 262.451033 
L 201.864133 261.809581 
L 202.058395 261.57129 
L 202.327056 261.613349 
L 202.77138 261.859707 
L 203.527764 261.717291 
L 203.928688 261.070606 
L 203.992753 261.150566 
L 204.14155 261.157874 
L 204.050619 261.090795 
L 204.143617 261.155947 
L 204.821469 260.636322 
L 204.827669 260.652112 
L 204.840068 260.68281 
L 204.914467 260.577678 
L 205.110796 260.270298 
L 205.145928 260.2969 
L 205.404256 260.351779 
L 205.550986 260.196869 
L 205.627451 260.271811 
L 205.805181 260.45172 
L 206.115174 261.249358 
L 206.212305 261.500907 
L 206.280504 261.452316 
L 206.408634 261.410378 
L 206.491299 261.287502 
L 207.034821 260.046923 
L 207.113353 260.170226 
L 207.772605 262.249929 
L 208.342993 264.118348 
L 208.61372 264.494258 
L 208.903047 264.658988 
L 209.024978 264.74431 
L 209.07871 264.651831 
L 209.095243 264.621903 
L 209.171708 264.710268 
L 209.411436 265.313829 
L 209.465168 265.285951 
L 209.791694 265.23904 
L 209.911559 265.236315 
L 209.932225 265.206632 
L 209.973557 265.172445 
L 210.019023 265.270811 
L 210.025223 265.284365 
L 210.114088 265.2133 
L 210.422014 264.709084 
L 210.963469 262.811962 
L 211.292062 261.682267 
L 211.504924 261.30668 
L 211.719853 260.891697 
L 212.457637 259.998422 
L 212.854428 259.174637 
L 212.972226 259.082492 
L 213.265686 258.768246 
L 213.464082 258.756857 
L 214.063402 258.71771 
L 214.090268 258.787022 
L 214.185333 258.730903 
L 214.526325 258.707819 
L 214.730921 258.844741 
L 214.910717 258.899796 
L 214.931383 258.868201 
L 215.053314 258.718181 
L 215.096713 258.746704 
L 215.290975 258.747012 
L 215.590636 258.681685 
L 215.82623 258.726987 
L 216.020493 258.946487 
L 217.376197 261.50494 
L 217.382397 261.50098 
L 217.578726 261.244748 
L 218.027183 260.655395 
L 218.037516 260.667457 
L 218.165646 260.647038 
L 218.382642 260.633838 
L 218.452907 260.539798 
L 218.562438 260.555331 
L 218.566571 260.565592 
L 218.767033 260.777429 
L 218.7691 260.773915 
L 218.888964 260.605196 
L 218.938563 260.697872 
L 219.331221 261.639039 
L 219.653614 262.452057 
L 220.168203 263.662458 
L 220.257068 263.797099 
L 220.682792 264.587601 
L 220.719991 264.518724 
L 221.182914 263.399801 
L 221.538373 262.768808 
L 221.583839 262.730462 
L 221.621038 262.840686 
L 223.720726 268.540917 
L 223.917055 268.490457 
L 224.200182 268.089533 
L 224.210516 268.10679 
L 224.512242 268.443957 
L 224.524642 268.431518 
L 224.644506 268.416306 
L 224.663106 268.448329 
L 225.080563 268.95998 
L 225.436022 269.033412 
L 225.609619 268.943534 
L 225.729483 268.875922 
L 225.768748 268.97425 
L 225.824547 269.029703 
L 225.888612 268.976701 
L 225.971277 269.069767 
L 226.169673 269.130121 
L 226.401135 268.932002 
L 226.456934 269.043575 
L 226.981855 269.688411 
L 227.324915 270.190817 
L 227.546043 270.390216 
L 227.581176 270.441818 
L 227.647308 270.347641 
L 228.0131 269.966811 
L 228.157763 269.710213 
L 229.883393 265.063312 
L 229.961924 264.867869 
L 230.17272 264.474116 
L 230.464113 264.155886 
L 230.676975 264.1084 
L 231.030368 263.890657 
L 231.733019 263.370563 
L 231.790885 263.552877 
L 231.943815 263.68265 
L 232.561735 264.143487 
L 233.043258 264.053811 
L 233.214787 264.036077 
L 233.38425 263.980763 
L 233.566113 263.986256 
L 233.578513 263.953388 
L 233.822374 263.401875 
L 233.890573 263.443042 
L 234.221232 263.239415 
L 234.737887 262.074762 
L 234.746154 262.077686 
L 235.207011 262.118028 
L 235.355807 261.988303 
L 236.110124 260.871893 
L 236.244455 260.901143 
L 236.277521 260.822788 
L 236.678445 259.823861 
L 236.76111 259.943245 
L 236.93884 260.098196 
L 236.957439 260.061194 
L 237.143435 259.634944 
L 237.246766 259.688364 
L 237.416229 259.779486 
L 237.635291 260.004631 
L 237.666291 259.928547 
L 238.085815 259.066539 
L 238.304877 258.848731 
L 238.616937 258.793295 
L 238.869065 259.017486 
L 239.170791 259.354434 
L 239.338188 259.254421 
L 239.602715 258.991922 
L 239.763912 259.046853 
L 239.896176 259.177102 
L 239.951975 259.076401 
L 240.257835 258.770763 
L 240.505829 258.672916 
L 240.960486 258.57622 
L 241.196081 258.026996 
L 241.346944 257.834458 
L 241.39241 257.905787 
L 242.057862 258.92764 
L 243.031241 260.782669 
L 243.149039 261.075231 
L 243.237903 260.885725 
L 243.690494 260.179187 
L 243.901289 260.104328 
L 244.277414 259.719227 
L 245.159862 258.47387 
L 245.22806 258.523596 
L 245.486388 258.438748 
L 245.893513 257.541983 
L 246.040243 257.072816 
L 246.569298 255.494488 
L 246.813159 255.141854 
L 247.445546 254.47028 
L 247.468278 254.493006 
L 247.470345 254.495195 
L 247.522011 254.39389 
L 247.761739 254.155739 
L 248.278394 253.641941 
L 248.989312 252.215892 
L 249.133976 251.952732 
L 249.650631 249.757895 
L 249.667164 249.762892 
L 249.84076 249.951401 
L 250.15282 250.280242 
L 250.692209 250.594367 
L 251.144799 250.047373 
L 251.483725 249.186198 
L 251.87845 248.68196 
L 252.333106 248.098697 
L 252.539769 248.091622 
L 252.781563 248.078547 
L 253.017158 247.972035 
L 253.238287 247.844431 
L 253.459415 247.505499 
L 254.048403 246.613644 
L 254.283997 246.327523 
L 254.335663 246.421614 
L 254.403862 246.526125 
L 254.476193 246.466882 
L 254.635323 246.514458 
L 254.914317 246.840572 
L 255.133379 246.96267 
L 255.278043 247.286617 
L 255.662434 248.440704 
L 255.718233 248.374094 
L 255.829831 248.424668 
L 255.966228 248.587742 
L 256.009627 248.470248 
L 256.063359 248.37609 
L 256.115024 248.503587 
L 256.480817 249.180122 
L 256.48495 249.169855 
L 256.662679 248.838733 
L 256.697812 248.928556 
L 257.080137 249.729379 
L 257.144202 249.873474 
L 257.220667 249.787019 
L 257.578193 249.557851 
L 257.685657 249.659718 
L 258.621837 250.566487 
L 259.386487 251.543246 
L 259.516684 251.374666 
L 259.675814 251.361036 
L 259.679947 251.367982 
L 260.622327 252.493085 
L 260.843455 252.78502 
L 261.014985 252.771242 
L 261.345644 252.699296 
L 261.68457 252.876522 
L 261.990431 253.16554 
L 262.556685 253.940304 
L 262.808813 254.152957 
L 263.042341 254.132368 
L 263.387467 254.131229 
L 263.56933 254.198321 
L 264.30298 253.875463 
L 264.511709 253.493787 
L 264.863035 252.896114 
L 265.210227 252.313456 
L 265.297026 252.404693 
L 265.390024 252.242326 
L 265.507821 252.238175 
L 265.650418 252.167016 
L 265.807481 251.987157 
L 266.185673 251.553313 
L 266.419201 251.487375 
L 266.718861 251.238732 
L 266.741594 251.263486 
L 266.892458 251.272236 
L 266.894524 251.268039 
L 266.908991 251.243939 
L 266.970989 251.357414 
L 267.309915 251.784125 
L 267.57031 251.943959 
L 267.597176 251.917176 
L 267.748039 251.925383 
L 267.84517 252.047232 
L 268.204763 252.526941 
L 268.217162 252.516639 
L 268.378359 252.528424 
L 268.554022 252.642824 
L 268.756551 252.781356 
L 270.32305 253.238288 
L 270.682642 253.990008 
L 270.757041 253.846776 
L 271.056701 253.40446 
L 271.323295 253.451925 
L 271.691154 253.91315 
L 271.767619 253.926234 
L 271.802751 253.880736 
L 272.765797 252.641423 
L 273.115056 252.843303 
L 274.1587 253.87588 
L 274.534825 253.877049 
L 275.231277 253.835278 
L 275.433806 253.974999 
L 275.993861 254.565734 
L 276.059992 254.489078 
L 276.128191 254.474741 
L 276.17779 254.521832 
L 276.281121 254.582254 
L 276.332787 254.520792 
L 276.586981 254.369039 
L 276.597314 254.380836 
L 276.934173 254.591574 
L 277.2483 254.993754 
L 277.754622 255.944702 
L 278.409742 256.364263 
L 278.589538 256.354495 
L 278.973929 256.602209 
L 279.161992 256.655091 
L 279.955575 256.838857 
L 280.17877 257.014573 
L 280.449497 257.160197 
L 280.732625 257.346235 
L 280.782223 257.247566 
L 281.722536 255.620348 
L 281.761802 255.665967 
L 282.427255 256.255473 
L 282.867445 255.925372 
L 283.076174 255.709756 
L 283.448166 255.519222 
L 283.636228 255.554608 
L 285.917779 253.864173 
L 286.312504 253.096916 
L 286.961423 253.210348 
L 287.230084 253.437458 
L 287.560743 253.632771 
L 288.501056 253.511278 
L 288.664319 253.497486 
L 288.806916 253.434855 
L 289.059044 253.195214 
L 289.307039 253.170309 
L 289.608766 252.828047 
L 290.978936 251.612269 
L 291.514191 251.737279 
L 291.824184 251.723885 
L 292.223042 251.741933 
L 293.107557 251.386789 
L 293.339018 251.387834 
L 293.489882 251.277709 
L 293.584946 251.340426 
L 293.812275 251.300361 
L 294.027203 251.16906 
L 294.095402 250.943777 
L 294.392995 250.305014 
L 294.678189 250.137638 
L 294.984049 250.352744 
L 295.079114 250.445294 
L 295.103913 250.334036 
L 295.248577 250.187611 
L 295.484172 250.111633 
L 295.738366 249.845892 
L 296.066959 249.718571 
L 296.536082 249.527045 
L 296.651813 249.565866 
L 296.755144 249.449169 
L 297.773989 248.302211 
L 298.284444 248.486319 
L 298.431175 248.45751 
L 298.598571 248.498138 
L 299.243357 249.318295 
L 299.671148 249.813438 
L 300.123738 250.356156 
L 300.460597 250.51499 
L 301.020652 250.272445 
L 301.194248 250.263587 
L 301.529041 250.452242 
L 301.805968 250.693636 
L 301.975431 250.586045 
L 302.213093 250.233865 
L 302.376356 250.099111 
L 303.035608 248.94951 
L 303.192671 248.850994 
L 303.262937 248.938278 
L 303.4014 249.102488 
L 303.450999 249.003988 
L 303.647328 248.625992 
L 303.715527 248.718769 
L 303.789925 248.717991 
L 303.827124 248.688822 
L 304.054453 248.609734 
L 304.070986 248.634247 
L 304.085452 248.642432 
L 304.157784 248.566901 
L 304.370646 248.431164 
L 304.887301 248.068109 
L 305.139429 247.98312 
L 305.228294 248.013284 
L 305.263427 247.946146 
L 305.501088 247.453866 
L 305.527954 247.479324 
L 306.290538 248.124658 
L 306.546799 248.134472 
L 307.179185 248.660177 
L 307.383781 248.898326 
L 307.56771 249.086028 
L 307.689641 249.206605 
L 307.958302 249.413656 
L 307.993434 249.322625 
L 308.195963 249.103157 
L 308.551422 249.10949 
L 308.764284 248.966869 
L 308.958547 248.64633 
L 308.987479 248.656989 
L 309.088744 248.575668 
L 309.289206 248.442663 
L 309.636398 248.470786 
L 309.787262 248.456471 
L 310.115855 248.467296 
L 310.248119 248.423044 
L 311.178098 247.817018 
L 311.872483 247.765504 
L 312.463537 248.058122 
L 312.738398 248.129074 
L 313.087657 248.593537 
L 313.56918 248.91302 
L 314.129235 248.855587 
L 314.445428 248.930464 
L 314.457827 248.899093 
L 314.705822 248.56394 
L 315.150146 248.104694 
L 315.28241 248.155876 
L 315.518004 248.158278 
L 316.080126 248.068075 
L 316.50585 247.831952 
L 316.879908 247.992698 
L 317.400697 248.23506 
L 318.02895 248.202674 
L 318.237679 248.177487 
L 318.803933 248.060331 
L 319.291656 248.556848 
L 319.376388 248.534691 
L 319.39292 248.495215 
L 319.593383 248.29939 
L 320.283635 248.010514 
L 320.436565 248.035665 
L 320.792024 248.08301 
L 320.930487 248.098281 
L 320.938754 248.091188 
L 321.341745 247.891185 
L 321.641405 248.073321 
L 322.362656 249.09334 
L 322.798713 249.759159 
L 323.127306 250.110602 
L 323.307102 250.236608 
L 323.56543 250.325157 
L 323.656361 250.414065 
L 323.935355 250.793034 
L 324.278415 251.330473 
L 324.780604 252.027061 
L 325.543187 252.142295 
L 325.716784 252.154963 
L 325.86558 252.101962 
L 326.148707 252.017042 
L 326.326437 252.008479 
L 326.78936 252.179234 
L 326.946424 252.222306 
L 327.070421 252.344711 
L 327.576743 253.050044 
L 327.981801 253.351292 
L 328.264928 253.701897 
L 328.436458 253.7957 
L 328.713385 253.799409 
L 329.021312 253.729465 
L 329.27344 253.808499 
L 329.393304 253.924257 
L 329.653698 254.118486 
L 330.33775 254.317278 
L 331.063134 254.847185 
L 331.300796 254.768187 
L 331.807118 255.137265 
L 332.088179 255.412893 
L 332.97476 255.804588 
L 333.26822 255.517307 
L 333.981205 254.64765 
L 334.140334 254.450033 
L 334.392462 253.746018 
L 334.49786 253.913666 
L 334.654923 253.796718 
L 334.838853 253.396394 
L 334.890518 253.429594 
L 335.012449 253.337468 
L 335.419573 252.999126 
L 335.975495 253.251384 
L 336.111892 253.18982 
L 336.506616 253.049466 
L 337.170002 253.743451 
L 337.901586 253.43184 
L 338.190913 253.543316 
L 338.614571 253.857867 
L 338.759234 254.112812 
L 338.856366 254.025714 
L 339.674748 253.051086 
L 340.081872 252.750588 
L 340.344333 252.727039 
L 340.606794 252.831254 
L 340.956053 253.269025 
L 341.177182 253.472882 
L 341.228848 253.526717 
L 341.303246 253.446537 
L 341.396244 253.489336 
L 341.402444 253.49886 
L 341.687638 253.733125 
L 342.032763 254.057281 
L 342.202226 254.128833 
L 342.450221 254.018859 
L 342.65895 253.820712 
L 342.687883 253.842339 
L 343.535198 254.486874 
L 343.574463 254.38279 
L 343.692261 254.234726 
L 343.737727 254.2699 
L 344.130385 254.436817 
L 344.539576 254.187234 
L 345.469556 254.096562 
L 345.887013 254.466267 
L 346.17014 254.536052 
L 346.686796 254.065782 
L 346.790127 254.122858 
L 347.040188 254.09449 
L 347.58991 253.831551 
L 348.009434 253.465134 
L 348.245029 253.319479 
L 348.441358 253.273971 
L 348.970413 253.485772 
L 349.530468 253.979229 
L 350.305451 254.117465 
L 350.718775 254.411022 
L 351.256097 254.883843 
L 351.504092 254.915238 
L 352.014547 255.334689 
L 352.409272 255.765553 
L 353.087124 256.08672 
L 354.052236 255.013629 
L 354.277498 254.97355 
L 354.36223 254.895038 
L 354.546159 254.801428 
L 355.093814 254.812027 
L 355.232278 254.809392 
L 355.337675 254.870844 
L 355.542271 254.946413 
L 355.548471 254.936953 
L 355.992794 254.441951 
L 356.709912 253.825899 
L 356.879375 253.777065 
L 357.819688 253.607756 
L 358.144148 253.834288 
L 358.171014 253.797589 
L 358.371476 253.707506 
L 358.793067 253.99263 
L 359.020395 254.063277 
L 359.224991 254.09101 
L 359.454386 254.202657 
L 359.477119 254.175539 
L 360.169437 253.518554 
L 360.679893 253.358389 
L 360.83489 253.266359 
L 361.206881 253.08089 
L 361.638805 253.066549 
L 361.944665 253.032984 
L 362.126528 252.964624 
L 362.419989 252.699915 
L 362.65765 252.439252 
L 362.678316 252.45109 
L 362.965577 252.496901 
L 363.430567 252.609356 
L 364.253082 253.275882 
L 364.656073 253.760054 
L 365.197528 254.405788 
L 365.844381 254.847598 
L 366.001444 254.861021 
L 366.33417 254.887607 
L 366.592498 254.715733 
L 366.97689 254.5958 
L 367.096754 254.541118 
L 367.125687 254.572188 
L 367.479079 254.837831 
L 368.049467 254.868089 
L 368.404926 255.038839 
L 368.415259 255.024446 
L 368.626054 254.919684 
L 369.082778 255.292439 
L 369.376238 255.562646 
L 370.153288 256.18632 
L 370.754675 256.733927 
L 370.955137 256.593075 
L 371.083268 256.411644 
L 371.196932 256.157624 
L 371.287863 256.229347 
L 371.740453 256.580409 
L 372.050447 256.590646 
L 372.455504 255.648301 
L 372.6663 255.317134 
L 373.147823 254.973527 
L 373.344152 254.776638 
L 373.720277 254.585601 
L 374.2204 254.430603 
L 374.894118 254.177404 
L 375.156579 254.060421 
L 375.458306 253.999987 
L 375.654635 254.005165 
L 375.855097 253.995814 
L 376.311821 254.260509 
L 376.470951 254.244626 
L 376.675546 254.304086 
L 377.161203 254.667413 
L 377.464996 254.765707 
L 377.75639 254.844616 
L 378.419775 254.450282 
L 378.930231 253.942198 
L 379.13896 253.963541 
L 379.149293 253.941237 
L 379.440686 253.541223 
L 379.453086 253.548329 
L 379.628749 253.591915 
L 379.651482 253.535202 
L 379.918076 253.167866 
L 380.228069 252.969699 
L 380.548396 252.485883 
L 380.560796 252.491462 
L 380.893522 252.520829 
L 381.141516 252.287935 
L 381.406044 252.08296 
L 381.792502 251.840051 
L 382.003298 251.776307 
L 382.373223 251.114563 
L 382.404222 251.137345 
L 382.579885 251.129762 
L 383.4148 250.687856 
L 383.480932 250.764832 
L 383.536731 250.665136 
L 383.747527 250.519011 
L 383.941789 250.483997 
L 384.255916 250.341019 
L 385.053632 250.291962 
L 385.528955 250.571534 
L 386.055943 250.644279 
L 386.297738 250.694633 
L 387.12232 250.452739 
L 387.399247 250.408951 
L 387.715441 250.161652 
L 388.118432 249.682491 
L 388.709486 249.333536 
L 388.901682 249.320187 
L 389.042212 249.343074 
L 389.465869 249.428925 
L 389.89366 249.296624 
L 390.608711 248.921344 
L 391.555224 249.194964 
L 391.817685 249.006502 
L 392.259942 248.816235 
L 392.900595 248.723033 
L 392.985326 248.704536 
L 393.026659 248.765094 
L 393.291186 248.960641 
L 395.268944 249.01954 
L 395.671935 249.025592 
L 396.174124 248.882353 
L 396.451051 248.837936 
L 396.581249 248.811817 
L 397.006973 248.81463 
L 397.221901 248.80247 
L 397.250834 248.768469 
L 397.327299 248.846638 
L 397.542228 248.903916 
L 397.773689 248.931302 
L 397.965885 248.839142 
L 398.232479 248.735646 
L 398.802867 248.37786 
L 398.99713 248.434155 
L 399.174859 248.404305 
L 399.333989 248.405358 
L 399.478652 248.455425 
L 399.501385 248.419086 
L 399.646049 248.393903 
L 399.904377 248.400561 
L 400.224703 248.461421 
L 400.499564 248.473708 
L 400.82609 248.377021 
L 400.98522 248.333846 
L 401.253881 248.112552 
L 401.782936 247.799103 
L 402.117729 247.652451 
L 402.417389 247.526999 
L 403.000176 247.082602 
L 403.791692 245.879396 
L 404.22155 245.754968 
L 404.69274 245.448871 
L 404.951067 245.519121 
L 405.015133 245.505578 
L 405.050265 245.462011 
L 405.544188 245.020743 
L 405.637186 244.962215 
L 405.692985 245.03989 
L 406.093909 245.599825 
L 406.525833 245.615186 
L 406.720096 245.410746 
L 406.883359 245.359194 
L 407.408281 245.382801 
L 407.600477 245.599311 
L 407.666608 245.547544 
L 407.821605 245.417296 
L 407.860871 245.446827 
L 408.017934 245.427728 
L 408.34446 245.242621 
L 409.44597 245.563544 
L 410.437948 246.412054 
L 410.685943 246.386761 
L 410.818207 246.358876 
L 410.921538 246.425934 
L 411.159199 246.497259 
L 411.520858 246.406182 
L 411.847385 246.369424 
L 412.006514 246.423446 
L 412.206977 246.471936 
L 412.626501 246.357816 
L 412.961294 246.475272 
L 413.676345 246.471994 
L 414.34593 246.570573 
L 414.622858 246.716544 
L 414.992783 246.630374 
L 415.449507 246.551741 
L 415.703701 246.426161 
L 415.953762 246.462592 
L 416.19969 246.161554 
L 417.718657 244.533842 
L 418.642437 244.359724 
L 419.843145 243.391325 
L 420.198604 243.095304 
L 420.735925 242.62505 
L 421.182316 242.518045 
L 422.068896 241.364981 
L 422.600018 240.797325 
L 423.019543 240.467801 
L 423.319203 240.300631 
L 423.879257 239.932816 
L 424.156185 239.960663 
L 424.69764 239.501282 
L 425.110964 239.270444 
L 425.325893 239.236189 
L 425.679285 239.103844 
L 425.877681 239.140778 
L 426.315804 239.792552 
L 426.634064 240.252874 
L 427.061855 240.396032 
L 427.551644 240.31311 
L 427.76864 240.280908 
L 427.91537 240.377083 
L 428.396893 240.794087 
L 428.760618 240.709256 
L 429.258674 240.596502 
L 429.368205 240.551144 
L 429.628599 240.516854 
L 429.963392 240.571629 
L 430.645377 240.817307 
L 431.674555 241.135569 
L 432.073413 241.311302 
L 433.871374 240.544994 
L 434.187567 240.371978 
L 434.435562 240.507905 
L 434.84062 240.827183 
L 435.435807 241.19807 
L 435.942129 241.540064 
L 436.334787 241.664577 
L 436.872109 241.506177 
L 437.789689 241.109788 
L 438.05835 241.176778 
L 438.19888 241.178746 
L 438.649404 241.139565 
L 438.775468 241.196893 
L 438.98833 241.209117 
L 440.098106 240.347319 
L 440.418432 240.391733 
L 440.54863 240.26561 
L 440.866889 239.944363 
L 441.474476 239.731714 
L 442.197794 238.794911 
L 442.943844 238.500006 
L 443.214572 238.416889 
L 443.410901 238.349209 
L 443.539031 238.285797 
L 445.669719 237.026908 
L 446.171908 236.433954 
L 446.399236 236.314402 
L 447.070888 236.377262 
L 447.422214 236.726986 
L 448.290195 237.20709 
L 448.651854 237.368951 
L 448.97218 237.47663 
L 449.5901 237.220566 
L 450.028224 237.059137 
L 450.476681 237.58662 
L 450.656477 237.646197 
L 451.45006 237.623688 
L 452.008048 237.422906 
L 452.158911 237.422541 
L 452.663167 237.38031 
L 453.113691 237.679355 
L 453.421617 237.673212 
L 453.834942 237.865537 
L 454.130469 237.882239 
L 454.868253 238.07717 
L 455.242311 238.281655 
L 455.765167 238.608442 
L 456.083426 238.666324 
L 456.82741 238.929722 
L 457.098138 238.922019 
L 457.523862 238.894195 
L 457.860721 238.969741 
L 458.238913 239.120384 
L 458.505507 238.957858 
L 459.863278 237.926307 
L 459.888077 237.96681 
L 460.053407 238.02825 
L 460.605195 237.947412 
L 461.415311 237.6152 
L 461.657106 237.78211 
L 461.975365 237.981268 
L 462.324625 238.033271 
L 462.582952 237.955837 
L 462.686283 237.899955 
L 464.013055 238.050931 
L 464.544176 238.206846 
L 465.360492 238.283461 
L 465.833749 238.29861 
L 466.214007 238.474245 
L 466.521934 238.471773 
L 466.966257 238.273337 
L 467.474646 238.162794 
L 468.450092 238.326308 
L 468.716686 238.217968 
L 469.158943 238.272507 
L 470.136455 238.812747 
L 470.411316 238.668836 
L 470.553913 238.660532 
L 470.942438 238.647486 
L 471.339229 238.521873 
L 471.684355 238.466707 
L 473.717911 238.024966 
L 474.902085 237.191677 
L 475.354676 236.91285 
L 476.053194 236.352614 
L 476.280522 235.850476 
L 476.359054 235.90739 
L 476.462385 235.845255 
L 476.633915 235.660506 
L 476.933575 235.345126 
L 477.307633 235.314954 
L 478.853467 235.87445 
L 481.362346 237.05872 
L 482.085663 237.011548 
L 483.112774 236.005569 
L 483.862958 235.659051 
L 484.914869 236.096014 
L 485.127731 236.179352 
L 485.981245 236.384295 
L 487.039356 236.651925 
L 488.103666 237.530428 
L 489.157643 237.403255 
L 489.682565 237.528323 
L 490.443082 237.443245 
L 490.947338 237.514928 
L 492.108779 237.25246 
L 492.278242 237.200153 
L 493.336353 236.518219 
L 493.824076 236.568937 
L 494.214667 236.851458 
L 494.464728 236.933286 
L 495.334776 236.850436 
L 495.580704 236.788531 
L 496.766945 237.487156 
L 497.820922 237.641142 
L 498.438842 237.811957 
L 499.310957 238.554922 
L 500.065274 238.891355 
L 500.53233 238.725825 
L 500.569529 238.674033 
L 500.645994 238.759052 
L 501.00972 239.002106 
L 502.034764 239.047485 
L 502.745682 238.025096 
L 502.979211 237.819934 
L 503.125941 237.664188 
L 504.095186 237.048766 
L 504.634575 237.344918 
L 505.153297 237.182385 
L 505.649286 236.648097 
L 506.947125 236.576243 
L 507.135187 236.548745 
L 507.467913 236.463266 
L 508.172631 236.338707 
L 509.284474 236.385389 
L 509.6234 236.624812 
L 510.326051 236.946581 
L 511.154767 236.830652 
L 511.532959 237.145532 
L 511.745821 237.284931 
L 512.055814 237.397892 
L 512.504271 237.481392 
L 513.254455 237.849482 
L 513.554115 237.860618 
L 513.791776 237.974443 
L 514.833354 238.79819 
L 515.205346 238.748746 
L 515.664136 238.756171 
L 516.056794 238.716677 
L 516.310989 238.671652 
L 516.618915 238.679818 
L 517.085972 238.117532 
L 517.292634 237.956993 
L 517.48483 237.867256 
L 518.39621 238.116221 
L 518.586339 238.005053 
L 518.875666 237.856339 
L 519.704382 238.136776 
L 520.438032 238.727659 
L 520.607495 238.63104 
L 521.194416 238.35419 
L 521.926 238.57426 
L 522.434389 238.689043 
L 522.845647 238.901152 
L 523.041976 238.94148 
L 523.436701 238.910081 
L 524.23235 239.278874 
L 525.331793 239.534223 
L 525.685185 239.648942 
L 526.069577 239.882116 
L 526.72263 240.475922 
L 527.419081 241.020063 
L 528.776852 242.336025 
L 528.995914 242.467359 
L 529.655166 242.84742 
L 529.870095 242.829332 
L 530.574813 243.029304 
L 531.442794 243.103943 
L 531.835452 243.245963 
L 532.141312 243.387799 
L 532.463705 243.397965 
L 534.755589 243.319383 
L 535.247445 243.229444 
L 535.805433 243.263882 
L 536.078227 243.330555 
L 536.446086 243.470545 
L 537.431864 243.91479 
L 538.70077 244.443793 
L 539.087228 244.522579 
L 539.351756 244.493421 
L 539.698949 244.574758 
L 540.079207 244.58712 
L 540.416066 244.694762 
L 540.661994 244.827902 
L 542.331825 244.995573 
L 542.625285 244.95974 
L 542.896013 244.926222 
L 543.17914 244.859601 
L 543.701995 244.750142 
L 543.960323 244.781966 
L 544.493511 244.83149 
L 544.693974 244.842607 
L 545.588821 245.038719 
L 546.355538 244.919108 
L 546.675864 244.799048 
L 547.419848 244.989983 
L 547.800106 245.012934 
L 548.267163 245.205751 
L 549.18061 245.162121 
L 549.722065 245.11293 
L 549.914261 245.137559 
L 552.383874 243.904902 
L 552.671134 243.787292 
L 553.532916 243.244242 
L 553.704445 243.096404 
L 553.906974 242.984064 
L 554.936152 242.685641 
L 555.056016 242.62347 
L 555.423875 242.348871 
L 556.428253 241.896232 
L 556.754779 241.932539 
L 557.438831 241.726911 
L 557.595894 241.744134 
L 557.750891 241.648261 
L 558.10015 241.511255 
L 558.534141 241.572174 
L 558.769735 241.770752 
L 559.149994 242.042101 
L 559.910511 242.040179 
L 560.230837 242.032342 
L 560.563563 242.213076 
L 560.902489 242.305421 
L 561.284814 242.26673 
L 561.497676 242.328732 
L 561.656806 242.317054 
L 561.950267 242.189481 
L 562.690117 242.110001 
L 566.124843 241.269228 
L 568.282396 241.542301 
L 568.557257 241.530283 
L 568.784585 241.461041 
L 569.127644 241.502976 
L 569.441771 241.535348 
L 569.786897 241.558638 
L 570.053491 241.601442 
L 570.725143 241.558243 
L 571.01447 241.591248 
L 571.690256 241.582608 
L 571.793587 241.633531 
L 571.923784 241.584658 
L 572.684301 240.966676 
L 573.300154 240.329686 
L 573.440684 240.128758 
L 573.694879 239.938745 
L 573.928407 239.881581 
L 575.269645 239.194512 
L 575.608571 239.346483 
L 576.100427 239.416139 
L 577.129604 239.627923 
L 577.66486 239.882127 
L 578.673371 240.614221 
L 579.384289 241.072506 
L 579.605418 241.115398 
L 579.822413 241.274125 
L 581.138851 242.56705 
L 581.597641 242.611247 
L 581.936567 242.568433 
L 582.829348 242.204119 
L 583.395602 242.401062 
L 583.724195 242.544083 
L 585.753618 242.833263 
L 586.43147 243.285574 
L 587.272585 243.155558 
L 587.797507 243.141378 
L 587.993836 243.145702 
L 588.781219 242.96836 
L 588.965148 242.939795 
L 589.895128 242.798897 
L 590.969771 241.715743 
L 591.246699 241.800349 
L 591.651757 241.606678 
L 592.215944 240.977865 
L 592.809065 240.926032 
L 593.269922 240.491331 
L 593.765911 240.558638 
L 594.276366 240.515135 
L 594.613226 240.352567 
L 595.607271 240.633654 
L 595.892465 240.645145 
L 596.502118 240.575276 
L 597.301901 240.503876 
L 597.628427 240.488064 
L 598.436476 240.834374 
L 598.723737 240.748682 
L 598.932466 240.826027 
L 599.467721 240.777685 
L 599.893445 240.692315 
L 600.077374 240.595705 
L 600.457633 240.338657 
L 601.32148 240.158032 
L 601.49921 240.129865 
L 603.088442 240.10359 
L 603.662963 240.053142 
L 604.305683 239.931949 
L 604.679741 239.836187 
L 605.082732 239.605454 
L 605.384459 239.621115 
L 605.562189 239.624689 
L 606.060244 239.700833 
L 606.217308 239.7124 
L 606.657498 239.78074 
L 606.955092 239.81348 
L 607.149354 239.713469 
L 608.606323 238.747032 
L 608.854317 238.823928 
L 609.699566 238.987521 
L 609.939294 238.955083 
L 610.56548 239.186976 
L 610.972605 239.009716 
L 611.36733 238.803827 
L 611.36733 238.803827 
" clip-path="url(#p5a559fbb02)" style="fill: none; stroke: #1f2937; stroke-linecap: square"/>
   </g>
   <g id="line2d_30">
    <path d="M 68.88125 238.803827 
L 637.2 238.803827 
" clip-path="url(#p5a559fbb02)" style="fill: none; stroke-dasharray: 2.96,1.28; stroke-dashoffset: 0; stroke: #888888; stroke-width: 0.8"/>
   </g>
   <g id="patch_3">
    <path d="M 68.88125 282.04 
L 68.88125 26.88 
" style="fill: none; stroke: #000000; stroke-width: 0.8; stroke-linejoin: miter; stroke-linecap: square"/>
   </g>
   <g id="patch_4">
    <path d="M 637.2 282.04 
L 637.2 26.88 
" style="fill: none; stroke: #000000; stroke-width: 0.8; stroke-linejoin: miter; stroke-linecap: square"/>
   </g>
   <g id="patch_5">
    <path d="M 68.88125 282.04 
L 637.2 282.04 
" style="fill: none; stroke: #000000; stroke-width: 0.8; stroke-linejoin: miter; stroke-linecap: square"/>
   </g>
   <g id="patch_6">
    <path d="M 68.88125 26.88 
L 637.2 26.88 
" style="fill: none; stroke: #000000; stroke-width: 0.8; stroke-linejoin: miter; stroke-linecap: square"/>
   </g>
   <g id="text_17">
    <!-- Running mean — mean_median  (canonical ReCom ensemble) -->
    <g transform="translate(165.720625 20.88) scale(0.12 -0.12)">
     <defs>
      <path id="DejaVuSans-2014" d="M 313 1978 
L 6088 1978 
L 6088 1528 
L 313 1528 
L 313 1978 
z
" transform="scale(0.015625)"/>
      <path id="DejaVuSans-28" d="M 1984 4856 
Q 1566 4138 1362 3434 
Q 1159 2731 1159 2009 
Q 1159 1288 1364 580 
Q 1569 -128 1984 -844 
L 1484 -844 
Q 1016 -109 783 600 
Q 550 1309 550 2009 
Q 550 2706 781 3412 
Q 1013 4119 1484 4856 
L 1984 4856 
z
" transform="scale(0.015625)"/>
      <path id="DejaVuSans-63" d="M 3122 3366 
L 3122 2828 
Q 2878 2963 2633 3030 
Q 2388 3097 2138 3097 
Q 1578 3097 1268 2742 
Q 959 2388 959 1747 
Q 959 1106 1268 751 
Q 1578 397 2138 397 
Q 2388 397 2633 464 
Q 2878 531 3122 666 
L 3122 134 
Q 2881 22 2623 -34 
Q 2366 -91 2075 -91 
Q 1284 -91 818 406 
Q 353 903 353 1747 
Q 353 2603 823 3093 
Q 1294 3584 2113 3584 
Q 2378 3584 2631 3529 
Q 2884 3475 3122 3366 
z
" transform="scale(0.015625)"/>
      <path id="DejaVuSans-43" d="M 4122 4306 
L 4122 3641 
Q 3803 3938 3442 4084 
Q 3081 4231 2675 4231 
Q 1875 4231 1450 3742 
Q 1025 3253 1025 2328 
Q 1025 1406 1450 917 
Q 1875 428 2675 428 
Q 3081 428 3442 575 
Q 3803 722 4122 1019 
L 4122 359 
Q 3791 134 3420 21 
Q 3050 -91 2638 -91 
Q 1578 -91 968 557 
Q 359 1206 359 2328 
Q 359 3453 968 4101 
Q 1578 4750 2638 4750 
Q 3056 4750 3426 4639 
Q 3797 4528 4122 4306 
z
" transform="scale(0.015625)"/>
      <path id="DejaVuSans-73" d="M 2834 3397 
L 2834 2853 
Q 2591 2978 2328 3040 
Q 2066 3103 1784 3103 
Q 1356 3103 1142 2972 
Q 928 2841 928 2578 
Q 928 2378 1081 2264 
Q 1234 2150 1697 2047 
L 1894 2003 
Q 2506 1872 2764 1633 
Q 3022 1394 3022 966 
Q 3022 478 2636 193 
Q 2250 -91 1575 -91 
Q 1294 -91 989 -36 
Q 684 19 347 128 
L 347 722 
Q 666 556 975 473 
Q 1284 391 1588 391 
Q 1994 391 2212 530 
Q 2431 669 2431 922 
Q 2431 1156 2273 1281 
Q 2116 1406 1581 1522 
L 1381 1569 
Q 847 1681 609 1914 
Q 372 2147 372 2553 
Q 372 3047 722 3315 
Q 1072 3584 1716 3584 
Q 2034 3584 2315 3537 
Q 2597 3491 2834 3397 
z
" transform="scale(0.015625)"/>
      <path id="DejaVuSans-62" d="M 3116 1747 
Q 3116 2381 2855 2742 
Q 2594 3103 2138 3103 
Q 1681 3103 1420 2742 
Q 1159 2381 1159 1747 
Q 1159 1113 1420 752 
Q 1681 391 2138 391 
Q 2594 391 2855 752 
Q 3116 1113 3116 1747 
z
M 1159 2969 
Q 1341 3281 1617 3432 
Q 1894 3584 2278 3584 
Q 2916 3584 3314 3078 
Q 3713 2572 3713 1747 
Q 3713 922 3314 415 
Q 2916 -91 2278 -91 
Q 1894 -91 1617 61 
Q 1341 213 1159 525 
L 1159 0 
L 581 0 
L 581 4863 
L 1159 4863 
L 1159 2969 
z
" transform="scale(0.015625)"/>
      <path id="DejaVuSans-29" d="M 513 4856 
L 1013 4856 
Q 1481 4119 1714 3412 
Q 1947 2706 1947 2009 
Q 1947 1309 1714 600 
Q 1481 -109 1013 -844 
L 513 -844 
Q 928 -128 1133 580 
Q 1338 1288 1338 2009 
Q 1338 2731 1133 3434 
Q 928 4138 513 4856 
z
" transform="scale(0.015625)"/>
     </defs>
     <use xlink:href="#DejaVuSans-52"/>
     <use xlink:href="#DejaVuSans-75" transform="translate(64.982422 0)"/>
     <use xlink:href="#DejaVuSans-6e" transform="translate(128.361328 0)"/>
     <use xlink:href="#DejaVuSans-6e" transform="translate(191.740234 0)"/>
     <use xlink:href="#DejaVuSans-69" transform="translate(255.119141 0)"/>
     <use xlink:href="#DejaVuSans-6e" transform="translate(282.902344 0)"/>
     <use xlink:href="#DejaVuSans-67" transform="translate(346.28125 0)"/>
     <use xlink:href="#DejaVuSans-20" transform="translate(409.757812 0)"/>
     <use xlink:href="#DejaVuSans-6d" transform="translate(441.544922 0)"/>
     <use xlink:href="#DejaVuSans-65" transform="translate(538.957031 0)"/>
     <use xlink:href="#DejaVuSans-61" transform="translate(600.480469 0)"/>
     <use xlink:href="#DejaVuSans-6e" transform="translate(661.759766 0)"/>
     <use xlink:href="#DejaVuSans-20" transform="translate(725.138672 0)"/>
     <use xlink:href="#DejaVuSans-2014" transform="translate(756.925781 0)"/>
     <use xlink:href="#DejaVuSans-20" transform="translate(856.925781 0)"/>
     <use xlink:href="#DejaVuSans-6d" transform="translate(888.712891 0)"/>
     <use xlink:href="#DejaVuSans-65" transform="translate(986.125 0)"/>
     <use xlink:href="#DejaVuSans-61" transform="translate(1047.648438 0)"/>
     <use xlink:href="#DejaVuSans-6e" transform="translate(1108.927734 0)"/>
     <use xlink:href="#DejaVuSans-5f" transform="translate(1172.306641 0)"/>
     <use xlink:href="#DejaVuSans-6d" transform="translate(1222.306641 0)"/>
     <use xlink:href="#DejaVuSans-65" transform="translate(1319.71875 0)"/>
     <use xlink:href="#DejaVuSans-64" transform="translate(1381.242188 0)"/>
     <use xlink:href="#DejaVuSans-69" transform="translate(1444.71875 0)"/>
     <use xlink:href="#DejaVuSans-61" transform="translate(1472.501953 0)"/>
     <use xlink:href="#DejaVuSans-6e" transform="translate(1533.78125 0)"/>
     <use xlink:href="#DejaVuSans-20" transform="translate(1597.160156 0)"/>
     <use xlink:href="#DejaVuSans-20" transform="translate(1628.947266 0)"/>
     <use xlink:href="#DejaVuSans-28" transform="translate(1660.734375 0)"/>
     <use xlink:href="#DejaVuSans-63" transform="translate(1699.748047 0)"/>
     <use xlink:href="#DejaVuSans-61" transform="translate(1754.728516 0)"/>
     <use xlink:href="#DejaVuSans-6e" transform="translate(1816.007812 0)"/>
     <use xlink:href="#DejaVuSans-6f" transform="translate(1879.386719 0)"/>
     <use xlink:href="#DejaVuSans-6e" transform="translate(1940.568359 0)"/>
     <use xlink:href="#DejaVuSans-69" transform="translate(2003.947266 0)"/>
     <use xlink:href="#DejaVuSans-63" transform="translate(2031.730469 0)"/>
     <use xlink:href="#DejaVuSans-61" transform="translate(2086.710938 0)"/>
     <use xlink:href="#DejaVuSans-6c" transform="translate(2147.990234 0)"/>
     <use xlink:href="#DejaVuSans-20" transform="translate(2175.773438 0)"/>
     <use xlink:href="#DejaVuSans-52" transform="translate(2207.560547 0)"/>
     <use xlink:href="#DejaVuSans-65" transform="translate(2272.542969 0)"/>
     <use xlink:href="#DejaVuSans-43" transform="translate(2334.066406 0)"/>
     <use xlink:href="#DejaVuSans-6f" transform="translate(2403.890625 0)"/>
     <use xlink:href="#DejaVuSans-6d" transform="translate(2465.072266 0)"/>
     <use xlink:href="#DejaVuSans-20" transform="translate(2562.484375 0)"/>
     <use xlink:href="#DejaVuSans-65" transform="translate(2594.271484 0)"/>
     <use xlink:href="#DejaVuSans-6e" transform="translate(2655.794922 0)"/>
     <use xlink:href="#DejaVuSans-73" transform="translate(2719.173828 0)"/>
     <use xlink:href="#DejaVuSans-65" transform="translate(2771.273438 0)"/>
     <use xlink:href="#DejaVuSans-6d" transform="translate(2832.796875 0)"/>
     <use xlink:href="#DejaVuSans-62" transform="translate(2930.208984 0)"/>
     <use xlink:href="#DejaVuSans-6c" transform="translate(2993.685547 0)"/>
     <use xlink:href="#DejaVuSans-65" transform="translate(3021.46875 0)"/>
     <use xlink:href="#DejaVuSans-29" transform="translate(3082.992188 0)"/>
    </g>
   </g>
   <g id="legend_1">
    <g id="patch_7">
     <path d="M 500.601094 47.290312 
L 630.9 47.290312 
Q 632.7 47.290312 632.7 45.490312 
L 632.7 33.18 
Q 632.7 31.38 630.9 31.38 
L 500.601094 31.38 
Q 498.801094 31.38 498.801094 33.18 
L 498.801094 45.490312 
Q 498.801094 47.290312 500.601094 47.290312 
z
" style="fill: #ffffff; opacity: 0.8; stroke: #cccccc; stroke-linejoin: miter"/>
    </g>
    <g id="line2d_31">
     <path d="M 502.401094 38.668594 
L 511.401094 38.668594 
L 520.401094 38.668594 
" style="fill: none; stroke-dasharray: 2.96,1.28; stroke-dashoffset: 0; stroke: #888888; stroke-width: 0.8"/>
    </g>
    <g id="text_18">
     <!-- final mean = -0.01817 -->
     <g transform="translate(527.601094 41.818594) scale(0.09 -0.09)">
      <defs>
       <path id="DejaVuSans-3d" d="M 678 2906 
L 4684 2906 
L 4684 2381 
L 678 2381 
L 678 2906 
z
M 678 1631 
L 4684 1631 
L 4684 1100 
L 678 1100 
L 678 1631 
z
" transform="scale(0.015625)"/>
       <path id="DejaVuSans-2d" d="M 313 2009 
L 1997 2009 
L 1997 1497 
L 313 1497 
L 313 2009 
z
" transform="scale(0.015625)"/>
      </defs>
      <use xlink:href="#DejaVuSans-66"/>
      <use xlink:href="#DejaVuSans-69" transform="translate(35.205078 0)"/>
      <use xlink:href="#DejaVuSans-6e" transform="translate(62.988281 0)"/>
      <use xlink:href="#DejaVuSans-61" transform="translate(126.367188 0)"/>
      <use xlink:href="#DejaVuSans-6c" transform="translate(187.646484 0)"/>
      <use xlink:href="#DejaVuSans-20" transform="translate(215.429688 0)"/>
      <use xlink:href="#DejaVuSans-6d" transform="translate(247.216797 0)"/>
      <use xlink:href="#DejaVuSans-65" transform="translate(344.628906 0)"/>
      <use xlink:href="#DejaVuSans-61" transform="translate(406.152344 0)"/>
      <use xlink:href="#DejaVuSans-6e" transform="translate(467.431641 0)"/>
      <use xlink:href="#DejaVuSans-20" transform="translate(530.810547 0)"/>
      <use xlink:href="#DejaVuSans-3d" transform="translate(562.597656 0)"/>
      <use xlink:href="#DejaVuSans-20" transform="translate(646.386719 0)"/>
      <use xlink:href="#DejaVuSans-2d" transform="translate(678.173828 0)"/>
      <use xlink:href="#DejaVuSans-30" transform="translate(714.257812 0)"/>
      <use xlink:href="#DejaVuSans-2e" transform="translate(777.880859 0)"/>
      <use xlink:href="#DejaVuSans-30" transform="translate(809.667969 0)"/>
      <use xlink:href="#DejaVuSans-31" transform="translate(873.291016 0)"/>
      <use xlink:href="#DejaVuSans-38" transform="translate(936.914062 0)"/>
      <use xlink:href="#DejaVuSans-31" transform="translate(1000.537109 0)"/>
      <use xlink:href="#DejaVuSans-37" transform="translate(1064.160156 0)"/>
     </g>
    </g>
   </g>
  </g>
 </g>
 <defs>
  <clipPath id="p5a559fbb02">
   <rect x="68.88125" y="26.88" width="568.31875" height="255.16"/>
  </clipPath>
 </defs>
</svg>
