<?xml version="1.0" encoding="utf-8" standalone="no"?>
<!DOCTYPE svg PUBLIC "-//W3C//DTD SVG 1.1//EN"
  "http://www.w3.org/Graphics/SVG/1.1/DTD/svg11.dtd">
<svg xmlns:xlink="http://www.w3.org/1999/xlink" width="648pt" height="324pt" viewBox="0 0 648 324" xmlns="http://www.w3.org/2000/svg" version="1.1">
 <metadata>
  <rdf:RDF xmlns:dc="http://purl.org/dc/elements/1.1/" xmlns:cc="http://creativecommons.org/ns#" xmlns:rdf="http://www.w3.org/1999/02/22-rdf-syntax-ns#">
   <cc:Work>
    <dc:type rdf:resource="http://purl.org/dc/dcmitype/StillImage"/>
    <dc:date>2026-05-18T20:46:13.474082</dc:date>
    <dc:format>image/svg+xml</dc:format>
    <dc:creator>
     <cc:Agent>
      <dc:title>Matplotlib v3.10.8, https://matplotlib.org/</dc:title>
     </cc:Agent>
    </dc:creator>
   </cc:Work>
  </rdf:RDF>
 </metadata>
 <defs>
  <style type="text/css">*{stroke-linejoin: round; stroke-linecap: butt}</style>
 </defs>
 <g id="figure_1">
  <g id="patch_1">
   <path d="M 0 324 
L 648 324 
L 648 0 
L 0 0 
z
" style="fill: #ffffff"/>
  </g>
  <g id="axes_1">
   <g id="patch_2">
    <path d="M 68.70125 282.04 
L 637.2 282.04 
L 637.2 26.88 
L 68.70125 26.88 
z
" style="fill: #ffffff"/>
   </g>
   <g id="matplotlib.axis_1">
    <g id="xtick_1">
     <g id="line2d_1">
      <path d="M 94.540035 282.04 
L 94.540035 26.88 
" clip-path="url(#p5c21df0079)" style="fill: none; stroke-dasharray: 0.5,0.825; stroke-dashoffset: 0; stroke: #b0b0b0; stroke-opacity: 0.6; stroke-width: 0.5"/>
     </g>
     <g id="line2d_2">
      <defs>
       <path id="mbaaae1a7c5" d="M 0 0 
L 0 3.5 
" style="stroke: #000000; stroke-width: 0.8"/>
      </defs>
      <g>
       <use xlink:href="#mbaaae1a7c5" x="94.540035" y="282.04" style="stroke: #000000; stroke-width: 0.8"/>
      </g>
     </g>
     <g id="text_1">
      <!-- 0 -->
      <g transform="translate(91.358785 296.638438) scale(0.1 -0.1)">
       <defs>
        <path id="DejaVuSans-30" d="M 2034 4250 
Q 1547 4250 1301 3770 
Q 1056 3291 1056 2328 
Q 1056 1369 1301 889 
Q 1547 409 2034 409 
Q 2525 409 2770 889 
Q 3016 1369 3016 2328 
Q 3016 3291 2770 3770 
Q 2525 4250 2034 4250 
z
M 2034 4750 
Q 2819 4750 3233 4129 
Q 3647 3509 3647 2328 
Q 3647 1150 3233 529 
Q 2819 -91 2034 -91 
Q 1250 -91 836 529 
Q 422 1150 422 2328 
Q 422 3509 836 4129 
Q 1250 4750 2034 4750 
z
" transform="scale(0.015625)"/>
       </defs>
       <use xlink:href="#DejaVuSans-30"/>
      </g>
     </g>
    </g>
    <g id="xtick_2">
     <g id="line2d_3">
      <path d="M 197.903858 282.04 
L 197.903858 26.88 
" clip-path="url(#p5c21df0079)" style="fill: none; stroke-dasharray: 0.5,0.825; stroke-dashoffset: 0; stroke: #b0b0b0; stroke-opacity: 0.6; stroke-width: 0.5"/>
     </g>
     <g id="line2d_4">
      <g>
       <use xlink:href="#mbaaae1a7c5" x="197.903858" y="282.04" style="stroke: #000000; stroke-width: 0.8"/>
      </g>
     </g>
     <g id="text_2">
      <!-- 50000 -->
      <g transform="translate(181.997608 296.638438) scale(0.1 -0.1)">
       <defs>
        <path id="DejaVuSans-35" d="M 691 4666 
L 3169 4666 
L 3169 4134 
L 1269 4134 
L 1269 2991 
Q 1406 3038 1543 3061 
Q 1681 3084 1819 3084 
Q 2600 3084 3056 2656 
Q 3513 2228 3513 1497 
Q 3513 744 3044 326 
Q 2575 -91 1722 -91 
Q 1428 -91 1123 -41 
Q 819 9 494 109 
L 494 744 
Q 775 591 1075 516 
Q 1375 441 1709 441 
Q 2250 441 2565 725 
Q 2881 1009 2881 1497 
Q 2881 1984 2565 2268 
Q 2250 2553 1709 2553 
Q 1456 2553 1204 2497 
Q 953 2441 691 2322 
L 691 4666 
z
" transform="scale(0.015625)"/>
       </defs>
       <use xlink:href="#DejaVuSans-35"/>
       <use xlink:href="#DejaVuSans-30" transform="translate(63.623047 0)"/>
       <use xlink:href="#DejaVuSans-30" transform="translate(127.246094 0)"/>
       <use xlink:href="#DejaVuSans-30" transform="translate(190.869141 0)"/>
       <use xlink:href="#DejaVuSans-30" transform="translate(254.492188 0)"/>
      </g>
     </g>
    </g>
    <g id="xtick_3">
     <g id="line2d_5">
      <path d="M 301.26768 282.04 
L 301.26768 26.88 
" clip-path="url(#p5c21df0079)" style="fill: none; stroke-dasharray: 0.5,0.825; stroke-dashoffset: 0; stroke: #b0b0b0; stroke-opacity: 0.6; stroke-width: 0.5"/>
     </g>
     <g id="line2d_6">
      <g>
       <use xlink:href="#mbaaae1a7c5" x="301.26768" y="282.04" style="stroke: #000000; stroke-width: 0.8"/>
      </g>
     </g>
     <g id="text_3">
      <!-- 100000 -->
      <g transform="translate(282.18018 296.638438) scale(0.1 -0.1)">
       <defs>
        <path id="DejaVuSans-31" d="M 794 531 
L 1825 531 
L 1825 4091 
L 703 3866 
L 703 4441 
L 1819 4666 
L 2450 4666 
L 2450 531 
L 3481 531 
L 3481 0 
L 794 0 
L 794 531 
z
" transform="scale(0.015625)"/>
       </defs>
       <use xlink:href="#DejaVuSans-31"/>
       <use xlink:href="#DejaVuSans-30" transform="translate(63.623047 0)"/>
       <use xlink:href="#DejaVuSans-30" transform="translate(127.246094 0)"/>
       <use xlink:href="#DejaVuSans-30" transform="translate(190.869141 0)"/>
       <use xlink:href="#DejaVuSans-30" transform="translate(254.492188 0)"/>
       <use xlink:href="#DejaVuSans-30" transform="translate(318.115234 0)"/>
      </g>
     </g>
    </g>
    <g id="xtick_4">
     <g id="line2d_7">
      <path d="M 404.631503 282.04 
L 404.631503 26.88 
" clip-path="url(#p5c21df0079)" style="fill: none; stroke-dasharray: 0.5,0.825; stroke-dashoffset: 0; stroke: #b0b0b0; stroke-opacity: 0.6; stroke-width: 0.5"/>
     </g>
     <g id="line2d_8">
      <g>
       <use xlink:href="#mbaaae1a7c5" x="404.631503" y="282.04" style="stroke: #000000; stroke-width: 0.8"/>
      </g>
     </g>
     <g id="text_4">
      <!-- 150000 -->
      <g transform="translate(385.544003 296.638438) scale(0.1 -0.1)">
       <use xlink:href="#DejaVuSans-31"/>
       <use xlink:href="#DejaVuSans-35" transform="translate(63.623047 0)"/>
       <use xlink:href="#DejaVuSans-30" transform="translate(127.246094 0)"/>
       <use xlink:href="#DejaVuSans-30" transform="translate(190.869141 0)"/>
       <use xlink:href="#DejaVuSans-30" transform="translate(254.492188 0)"/>
       <use xlink:href="#DejaVuSans-30" transform="translate(318.115234 0)"/>
      </g>
     </g>
    </g>
    <g id="xtick_5">
     <g id="line2d_9">
      <path d="M 507.995325 282.04 
L 507.995325 26.88 
" clip-path="url(#p5c21df0079)" style="fill: none; stroke-dasharray: 0.5,0.825; stroke-dashoffset: 0; stroke: #b0b0b0; stroke-opacity: 0.6; stroke-width: 0.5"/>
     </g>
     <g id="line2d_10">
      <g>
       <use xlink:href="#mbaaae1a7c5" x="507.995325" y="282.04" style="stroke: #000000; stroke-width: 0.8"/>
      </g>
     </g>
     <g id="text_5">
      <!-- 200000 -->
      <g transform="translate(488.907825 296.638438) scale(0.1 -0.1)">
       <defs>
        <path id="DejaVuSans-32" d="M 1228 531 
L 3431 531 
L 3431 0 
L 469 0 
L 469 531 
Q 828 903 1448 1529 
Q 2069 2156 2228 2338 
Q 2531 2678 2651 2914 
Q 2772 3150 2772 3378 
Q 2772 3750 2511 3984 
Q 2250 4219 1831 4219 
Q 1534 4219 1204 4116 
Q 875 4013 500 3803 
L 500 4441 
Q 881 4594 1212 4672 
Q 1544 4750 1819 4750 
Q 2544 4750 2975 4387 
Q 3406 4025 3406 3419 
Q 3406 3131 3298 2873 
Q 3191 2616 2906 2266 
Q 2828 2175 2409 1742 
Q 1991 1309 1228 531 
z
" transform="scale(0.015625)"/>
       </defs>
       <use xlink:href="#DejaVuSans-32"/>
       <use xlink:href="#DejaVuSans-30" transform="translate(63.623047 0)"/>
       <use xlink:href="#DejaVuSans-30" transform="translate(127.246094 0)"/>
       <use xlink:href="#DejaVuSans-30" transform="translate(190.869141 0)"/>
       <use xlink:href="#DejaVuSans-30" transform="translate(254.492188 0)"/>
       <use xlink:href="#DejaVuSans-30" transform="translate(318.115234 0)"/>
      </g>
     </g>
    </g>
    <g id="xtick_6">
     <g id="line2d_11">
      <path d="M 611.359148 282.04 
L 611.359148 26.88 
" clip-path="url(#p5c21df0079)" style="fill: none; stroke-dasharray: 0.5,0.825; stroke-dashoffset: 0; stroke: #b0b0b0; stroke-opacity: 0.6; stroke-width: 0.5"/>
     </g>
     <g id="line2d_12">
      <g>
       <use xlink:href="#mbaaae1a7c5" x="611.359148" y="282.04" style="stroke: #000000; stroke-width: 0.8"/>
      </g>
     </g>
     <g id="text_6">
      <!-- 250000 -->
      <g transform="translate(592.271648 296.638438) scale(0.1 -0.1)">
       <use xlink:href="#DejaVuSans-32"/>
       <use xlink:href="#DejaVuSans-35" transform="translate(63.623047 0)"/>
       <use xlink:href="#DejaVuSans-30" transform="translate(127.246094 0)"/>
       <use xlink:href="#DejaVuSans-30" transform="translate(190.869141 0)"/>
       <use xlink:href="#DejaVuSans-30" transform="translate(254.492188 0)"/>
       <use xlink:href="#DejaVuSans-30" transform="translate(318.115234 0)"/>
      </g>
     </g>
    </g>
    <g id="text_7">
     <!-- Sample index -->
     <g transform="translate(318.932656 310.316563) scale(0.1 -0.1)">
      <defs>
       <path id="DejaVuSans-53" d="M 3425 4513 
L 3425 3897 
Q 3066 4069 2747 4153 
Q 2428 4238 2131 4238 
Q 1616 4238 1336 4038 
Q 1056 3838 1056 3469 
Q 1056 3159 1242 3001 
Q 1428 2844 1947 2747 
L 2328 2669 
Q 3034 2534 3370 2195 
Q 3706 1856 3706 1288 
Q 3706 609 3251 259 
Q 2797 -91 1919 -91 
Q 1588 -91 1214 -16 
Q 841 59 441 206 
L 441 856 
Q 825 641 1194 531 
Q 1563 422 1919 422 
Q 2459 422 2753 634 
Q 3047 847 3047 1241 
Q 3047 1584 2836 1778 
Q 2625 1972 2144 2069 
L 1759 2144 
Q 1053 2284 737 2584 
Q 422 2884 422 3419 
Q 422 4038 858 4394 
Q 1294 4750 2059 4750 
Q 2388 4750 2728 4690 
Q 3069 4631 3425 4513 
z
" transform="scale(0.015625)"/>
       <path id="DejaVuSans-61" d="M 2194 1759 
Q 1497 1759 1228 1600 
Q 959 1441 959 1056 
Q 959 750 1161 570 
Q 1363 391 1709 391 
Q 2188 391 2477 730 
Q 2766 1069 2766 1631 
L 2766 1759 
L 2194 1759 
z
M 3341 1997 
L 3341 0 
L 2766 0 
L 2766 531 
Q 2569 213 2275 61 
Q 1981 -91 1556 -91 
Q 1019 -91 701 211 
Q 384 513 384 1019 
Q 384 1609 779 1909 
Q 1175 2209 1959 2209 
L 2766 2209 
L 2766 2266 
Q 2766 2663 2505 2880 
Q 2244 3097 1772 3097 
Q 1472 3097 1187 3025 
Q 903 2953 641 2809 
L 641 3341 
Q 956 3463 1253 3523 
Q 1550 3584 1831 3584 
Q 2591 3584 2966 3190 
Q 3341 2797 3341 1997 
z
" transform="scale(0.015625)"/>
       <path id="DejaVuSans-6d" d="M 3328 2828 
Q 3544 3216 3844 3400 
Q 4144 3584 4550 3584 
Q 5097 3584 5394 3201 
Q 5691 2819 5691 2113 
L 5691 0 
L 5113 0 
L 5113 2094 
Q 5113 2597 4934 2840 
Q 4756 3084 4391 3084 
Q 3944 3084 3684 2787 
Q 3425 2491 3425 1978 
L 3425 0 
L 2847 0 
L 2847 2094 
Q 2847 2600 2669 2842 
Q 2491 3084 2119 3084 
Q 1678 3084 1418 2786 
Q 1159 2488 1159 1978 
L 1159 0 
L 581 0 
L 581 3500 
L 1159 3500 
L 1159 2956 
Q 1356 3278 1631 3431 
Q 1906 3584 2284 3584 
Q 2666 3584 2933 3390 
Q 3200 3197 3328 2828 
z
" transform="scale(0.015625)"/>
       <path id="DejaVuSans-70" d="M 1159 525 
L 1159 -1331 
L 581 -1331 
L 581 3500 
L 1159 3500 
L 1159 2969 
Q 1341 3281 1617 3432 
Q 1894 3584 2278 3584 
Q 2916 3584 3314 3078 
Q 3713 2572 3713 1747 
Q 3713 922 3314 415 
Q 2916 -91 2278 -91 
Q 1894 -91 1617 61 
Q 1341 213 1159 525 
z
M 3116 1747 
Q 3116 2381 2855 2742 
Q 2594 3103 2138 3103 
Q 1681 3103 1420 2742 
Q 1159 2381 1159 1747 
Q 1159 1113 1420 752 
Q 1681 391 2138 391 
Q 2594 391 2855 752 
Q 3116 1113 3116 1747 
z
" transform="scale(0.015625)"/>
       <path id="DejaVuSans-6c" d="M 603 4863 
L 1178 4863 
L 1178 0 
L 603 0 
L 603 4863 
z
" transform="scale(0.015625)"/>
       <path id="DejaVuSans-65" d="M 3597 1894 
L 3597 1613 
L 953 1613 
Q 991 1019 1311 708 
Q 1631 397 2203 397 
Q 2534 397 2845 478 
Q 3156 559 3463 722 
L 3463 178 
Q 3153 47 2828 -22 
Q 2503 -91 2169 -91 
Q 1331 -91 842 396 
Q 353 884 353 1716 
Q 353 2575 817 3079 
Q 1281 3584 2069 3584 
Q 2775 3584 3186 3129 
Q 3597 2675 3597 1894 
z
M 3022 2063 
Q 3016 2534 2758 2815 
Q 2500 3097 2075 3097 
Q 1594 3097 1305 2825 
Q 1016 2553 972 2059 
L 3022 2063 
z
" transform="scale(0.015625)"/>
       <path id="DejaVuSans-20" transform="scale(0.015625)"/>
       <path id="DejaVuSans-69" d="M 603 3500 
L 1178 3500 
L 1178 0 
L 603 0 
L 603 3500 
z
M 603 4863 
L 1178 4863 
L 1178 4134 
L 603 4134 
L 603 4863 
z
" transform="scale(0.015625)"/>
       <path id="DejaVuSans-6e" d="M 3513 2113 
L 3513 0 
L 2938 0 
L 2938 2094 
Q 2938 2591 2744 2837 
Q 2550 3084 2163 3084 
Q 1697 3084 1428 2787 
Q 1159 2491 1159 1978 
L 1159 0 
L 581 0 
L 581 3500 
L 1159 3500 
L 1159 2956 
Q 1366 3272 1645 3428 
Q 1925 3584 2291 3584 
Q 2894 3584 3203 3211 
Q 3513 2838 3513 2113 
z
" transform="scale(0.015625)"/>
       <path id="DejaVuSans-64" d="M 2906 2969 
L 2906 4863 
L 3481 4863 
L 3481 0 
L 2906 0 
L 2906 525 
Q 2725 213 2448 61 
Q 2172 -91 1784 -91 
Q 1150 -91 751 415 
Q 353 922 353 1747 
Q 353 2572 751 3078 
Q 1150 3584 1784 3584 
Q 2172 3584 2448 3432 
Q 2725 3281 2906 2969 
z
M 947 1747 
Q 947 1113 1208 752 
Q 1469 391 1925 391 
Q 2381 391 2643 752 
Q 2906 1113 2906 1747 
Q 2906 2381 2643 2742 
Q 2381 3103 1925 3103 
Q 1469 3103 1208 2742 
Q 947 2381 947 1747 
z
" transform="scale(0.015625)"/>
       <path id="DejaVuSans-78" d="M 3513 3500 
L 2247 1797 
L 3578 0 
L 2900 0 
L 1881 1375 
L 863 0 
L 184 0 
L 1544 1831 
L 300 3500 
L 978 3500 
L 1906 2253 
L 2834 3500 
L 3513 3500 
z
" transform="scale(0.015625)"/>
      </defs>
      <use xlink:href="#DejaVuSans-53"/>
      <use xlink:href="#DejaVuSans-61" transform="translate(63.476562 0)"/>
      <use xlink:href="#DejaVuSans-6d" transform="translate(124.755859 0)"/>
      <use xlink:href="#DejaVuSans-70" transform="translate(222.167969 0)"/>
      <use xlink:href="#DejaVuSans-6c" transform="translate(285.644531 0)"/>
      <use xlink:href="#DejaVuSans-65" transform="translate(313.427734 0)"/>
      <use xlink:href="#DejaVuSans-20" transform="translate(374.951172 0)"/>
      <use xlink:href="#DejaVuSans-69" transform="translate(406.738281 0)"/>
      <use xlink:href="#DejaVuSans-6e" transform="translate(434.521484 0)"/>
      <use xlink:href="#DejaVuSans-64" transform="translate(497.900391 0)"/>
      <use xlink:href="#DejaVuSans-65" transform="translate(561.376953 0)"/>
      <use xlink:href="#DejaVuSans-78" transform="translate(621.150391 0)"/>
     </g>
    </g>
   </g>
   <g id="matplotlib.axis_2">
    <g id="ytick_1">
     <g id="line2d_13">
      <path d="M 68.70125 274.846299 
L 637.2 274.846299 
" clip-path="url(#p5c21df0079)" style="fill: none; stroke-dasharray: 0.5,0.825; stroke-dashoffset: 0; stroke: #b0b0b0; stroke-opacity: 0.6; stroke-width: 0.5"/>
     </g>
     <g id="line2d_14">
      <defs>
       <path id="m24a1b9b386" d="M 0 0 
L -3.5 0 
" style="stroke: #000000; stroke-width: 0.8"/>
      </defs>
      <g>
       <use xlink:href="#m24a1b9b386" x="68.70125" y="274.846299" style="stroke: #000000; stroke-width: 0.8"/>
      </g>
     </g>
     <g id="text_8">
      <!-- −0.005 -->
      <g transform="translate(24.693438 278.645518) scale(0.1 -0.1)">
       <defs>
        <path id="DejaVuSans-2212" d="M 678 2272 
L 4684 2272 
L 4684 1741 
L 678 1741 
L 678 2272 
z
" transform="scale(0.015625)"/>
        <path id="DejaVuSans-2e" d="M 684 794 
L 1344 794 
L 1344 0 
L 684 0 
L 684 794 
z
" transform="scale(0.015625)"/>
       </defs>
       <use xlink:href="#DejaVuSans-2212"/>
       <use xlink:href="#DejaVuSans-30" transform="translate(83.789062 0)"/>
       <use xlink:href="#DejaVuSans-2e" transform="translate(147.412109 0)"/>
       <use xlink:href="#DejaVuSans-30" transform="translate(179.199219 0)"/>
       <use xlink:href="#DejaVuSans-30" transform="translate(242.822266 0)"/>
       <use xlink:href="#DejaVuSans-35" transform="translate(306.445312 0)"/>
      </g>
     </g>
    </g>
    <g id="ytick_2">
     <g id="line2d_15">
      <path d="M 68.70125 219.652196 
L 637.2 219.652196 
" clip-path="url(#p5c21df0079)" style="fill: none; stroke-dasharray: 0.5,0.825; stroke-dashoffset: 0; stroke: #b0b0b0; stroke-opacity: 0.6; stroke-width: 0.5"/>
     </g>
     <g id="line2d_16">
      <g>
       <use xlink:href="#m24a1b9b386" x="68.70125" y="219.652196" style="stroke: #000000; stroke-width: 0.8"/>
      </g>
     </g>
     <g id="text_9">
      <!-- 0.000 -->
      <g transform="translate(33.073125 223.451415) scale(0.1 -0.1)">
       <use xlink:href="#DejaVuSans-30"/>
       <use xlink:href="#DejaVuSans-2e" transform="translate(63.623047 0)"/>
       <use xlink:href="#DejaVuSans-30" transform="translate(95.410156 0)"/>
       <use xlink:href="#DejaVuSans-30" transform="translate(159.033203 0)"/>
       <use xlink:href="#DejaVuSans-30" transform="translate(222.65625 0)"/>
      </g>
     </g>
    </g>
    <g id="ytick_3">
     <g id="line2d_17">
      <path d="M 68.70125 164.458093 
L 637.2 164.458093 
" clip-path="url(#p5c21df0079)" style="fill: none; stroke-dasharray: 0.5,0.825; stroke-dashoffset: 0; stroke: #b0b0b0; stroke-opacity: 0.6; stroke-width: 0.5"/>
     </g>
     <g id="line2d_18">
      <g>
       <use xlink:href="#m24a1b9b386" x="68.70125" y="164.458093" style="stroke: #000000; stroke-width: 0.8"/>
      </g>
     </g>
     <g id="text_10">
      <!-- 0.005 -->
      <g transform="translate(33.073125 168.257312) scale(0.1 -0.1)">
       <use xlink:href="#DejaVuSans-30"/>
       <use xlink:href="#DejaVuSans-2e" transform="translate(63.623047 0)"/>
       <use xlink:href="#DejaVuSans-30" transform="translate(95.410156 0)"/>
       <use xlink:href="#DejaVuSans-30" transform="translate(159.033203 0)"/>
       <use xlink:href="#DejaVuSans-35" transform="translate(222.65625 0)"/>
      </g>
     </g>
    </g>
    <g id="ytick_4">
     <g id="line2d_19">
      <path d="M 68.70125 109.26399 
L 637.2 109.26399 
" clip-path="url(#p5c21df0079)" style="fill: none; stroke-dasharray: 0.5,0.825; stroke-dashoffset: 0; stroke: #b0b0b0; stroke-opacity: 0.6; stroke-width: 0.5"/>
     </g>
     <g id="line2d_20">
      <g>
       <use xlink:href="#m24a1b9b386" x="68.70125" y="109.26399" style="stroke: #000000; stroke-width: 0.8"/>
      </g>
     </g>
     <g id="text_11">
      <!-- 0.010 -->
      <g transform="translate(33.073125 113.063209) scale(0.1 -0.1)">
       <use xlink:href="#DejaVuSans-30"/>
       <use xlink:href="#DejaVuSans-2e" transform="translate(63.623047 0)"/>
       <use xlink:href="#DejaVuSans-30" transform="translate(95.410156 0)"/>
       <use xlink:href="#DejaVuSans-31" transform="translate(159.033203 0)"/>
       <use xlink:href="#DejaVuSans-30" transform="translate(222.65625 0)"/>
      </g>
     </g>
    </g>
    <g id="ytick_5">
     <g id="line2d_21">
      <path d="M 68.70125 54.069887 
L 637.2 54.069887 
" clip-path="url(#p5c21df0079)" style="fill: none; stroke-dasharray: 0.5,0.825; stroke-dashoffset: 0; stroke: #b0b0b0; stroke-opacity: 0.6; stroke-width: 0.5"/>
     </g>
     <g id="line2d_22">
      <g>
       <use xlink:href="#m24a1b9b386" x="68.70125" y="54.069887" style="stroke: #000000; stroke-width: 0.8"/>
      </g>
     </g>
     <g id="text_12">
      <!-- 0.015 -->
      <g transform="translate(33.073125 57.869105) scale(0.1 -0.1)">
       <use xlink:href="#DejaVuSans-30"/>
       <use xlink:href="#DejaVuSans-2e" transform="translate(63.623047 0)"/>
       <use xlink:href="#DejaVuSans-30" transform="translate(95.410156 0)"/>
       <use xlink:href="#DejaVuSans-31" transform="translate(159.033203 0)"/>
       <use xlink:href="#DejaVuSans-35" transform="translate(222.65625 0)"/>
      </g>
     </g>
    </g>
    <g id="text_13">
     <!-- Running mean of efficiency_gap -->
     <g transform="translate(18.335625 234.704531) rotate(-90) scale(0.1 -0.1)">
      <defs>
       <path id="DejaVuSans-52" d="M 2841 2188 
Q 3044 2119 3236 1894 
Q 3428 1669 3622 1275 
L 4263 0 
L 3584 0 
L 2988 1197 
Q 2756 1666 2539 1819 
Q 2322 1972 1947 1972 
L 1259 1972 
L 1259 0 
L 628 0 
L 628 4666 
L 2053 4666 
Q 2853 4666 3247 4331 
Q 3641 3997 3641 3322 
Q 3641 2881 3436 2590 
Q 3231 2300 2841 2188 
z
M 1259 4147 
L 1259 2491 
L 2053 2491 
Q 2509 2491 2742 2702 
Q 2975 2913 2975 3322 
Q 2975 3731 2742 3939 
Q 2509 4147 2053 4147 
L 1259 4147 
z
" transform="scale(0.015625)"/>
       <path id="DejaVuSans-75" d="M 544 1381 
L 544 3500 
L 1119 3500 
L 1119 1403 
Q 1119 906 1312 657 
Q 1506 409 1894 409 
Q 2359 409 2629 706 
Q 2900 1003 2900 1516 
L 2900 3500 
L 3475 3500 
L 3475 0 
L 2900 0 
L 2900 538 
Q 2691 219 2414 64 
Q 2138 -91 1772 -91 
Q 1169 -91 856 284 
Q 544 659 544 1381 
z
M 1991 3584 
L 1991 3584 
z
" transform="scale(0.015625)"/>
       <path id="DejaVuSans-67" d="M 2906 1791 
Q 2906 2416 2648 2759 
Q 2391 3103 1925 3103 
Q 1463 3103 1205 2759 
Q 947 2416 947 1791 
Q 947 1169 1205 825 
Q 1463 481 1925 481 
Q 2391 481 2648 825 
Q 2906 1169 2906 1791 
z
M 3481 434 
Q 3481 -459 3084 -895 
Q 2688 -1331 1869 -1331 
Q 1566 -1331 1297 -1286 
Q 1028 -1241 775 -1147 
L 775 -588 
Q 1028 -725 1275 -790 
Q 1522 -856 1778 -856 
Q 2344 -856 2625 -561 
Q 2906 -266 2906 331 
L 2906 616 
Q 2728 306 2450 153 
Q 2172 0 1784 0 
Q 1141 0 747 490 
Q 353 981 353 1791 
Q 353 2603 747 3093 
Q 1141 3584 1784 3584 
Q 2172 3584 2450 3431 
Q 2728 3278 2906 2969 
L 2906 3500 
L 3481 3500 
L 3481 434 
z
" transform="scale(0.015625)"/>
       <path id="DejaVuSans-6f" d="M 1959 3097 
Q 1497 3097 1228 2736 
Q 959 2375 959 1747 
Q 959 1119 1226 758 
Q 1494 397 1959 397 
Q 2419 397 2687 759 
Q 2956 1122 2956 1747 
Q 2956 2369 2687 2733 
Q 2419 3097 1959 3097 
z
M 1959 3584 
Q 2709 3584 3137 3096 
Q 3566 2609 3566 1747 
Q 3566 888 3137 398 
Q 2709 -91 1959 -91 
Q 1206 -91 779 398 
Q 353 888 353 1747 
Q 353 2609 779 3096 
Q 1206 3584 1959 3584 
z
" transform="scale(0.015625)"/>
       <path id="DejaVuSans-66" d="M 2375 4863 
L 2375 4384 
L 1825 4384 
Q 1516 4384 1395 4259 
Q 1275 4134 1275 3809 
L 1275 3500 
L 2222 3500 
L 2222 3053 
L 1275 3053 
L 1275 0 
L 697 0 
L 697 3053 
L 147 3053 
L 147 3500 
L 697 3500 
L 697 3744 
Q 697 4328 969 4595 
Q 1241 4863 1831 4863 
L 2375 4863 
z
" transform="scale(0.015625)"/>
       <path id="DejaVuSans-63" d="M 3122 3366 
L 3122 2828 
Q 2878 2963 2633 3030 
Q 2388 3097 2138 3097 
Q 1578 3097 1268 2742 
Q 959 2388 959 1747 
Q 959 1106 1268 751 
Q 1578 397 2138 397 
Q 2388 397 2633 464 
Q 2878 531 3122 666 
L 3122 134 
Q 2881 22 2623 -34 
Q 2366 -91 2075 -91 
Q 1284 -91 818 406 
Q 353 903 353 1747 
Q 353 2603 823 3093 
Q 1294 3584 2113 3584 
Q 2378 3584 2631 3529 
Q 2884 3475 3122 3366 
z
" transform="scale(0.015625)"/>
       <path id="DejaVuSans-79" d="M 2059 -325 
Q 1816 -950 1584 -1140 
Q 1353 -1331 966 -1331 
L 506 -1331 
L 506 -850 
L 844 -850 
Q 1081 -850 1212 -737 
Q 1344 -625 1503 -206 
L 1606 56 
L 191 3500 
L 800 3500 
L 1894 763 
L 2988 3500 
L 3597 3500 
L 2059 -325 
z
" transform="scale(0.015625)"/>
       <path id="DejaVuSans-5f" d="M 3263 -1063 
L 3263 -1509 
L -63 -1509 
L -63 -1063 
L 3263 -1063 
z
" transform="scale(0.015625)"/>
      </defs>
      <use xlink:href="#DejaVuSans-52"/>
      <use xlink:href="#DejaVuSans-75" transform="translate(64.982422 0)"/>
      <use xlink:href="#DejaVuSans-6e" transform="translate(128.361328 0)"/>
      <use xlink:href="#DejaVuSans-6e" transform="translate(191.740234 0)"/>
      <use xlink:href="#DejaVuSans-69" transform="translate(255.119141 0)"/>
      <use xlink:href="#DejaVuSans-6e" transform="translate(282.902344 0)"/>
      <use xlink:href="#DejaVuSans-67" transform="translate(346.28125 0)"/>
      <use xlink:href="#DejaVuSans-20" transform="translate(409.757812 0)"/>
      <use xlink:href="#DejaVuSans-6d" transform="translate(441.544922 0)"/>
      <use xlink:href="#DejaVuSans-65" transform="translate(538.957031 0)"/>
      <use xlink:href="#DejaVuSans-61" transform="translate(600.480469 0)"/>
      <use xlink:href="#DejaVuSans-6e" transform="translate(661.759766 0)"/>
      <use xlink:href="#DejaVuSans-20" transform="translate(725.138672 0)"/>
      <use xlink:href="#DejaVuSans-6f" transform="translate(756.925781 0)"/>
      <use xlink:href="#DejaVuSans-66" transform="translate(818.107422 0)"/>
      <use xlink:href="#DejaVuSans-20" transform="translate(853.3125 0)"/>
      <use xlink:href="#DejaVuSans-65" transform="translate(885.099609 0)"/>
      <use xlink:href="#DejaVuSans-66" transform="translate(946.623047 0)"/>
      <use xlink:href="#DejaVuSans-66" transform="translate(981.828125 0)"/>
      <use xlink:href="#DejaVuSans-69" transform="translate(1017.033203 0)"/>
      <use xlink:href="#DejaVuSans-63" transform="translate(1044.816406 0)"/>
      <use xlink:href="#DejaVuSans-69" transform="translate(1099.796875 0)"/>
      <use xlink:href="#DejaVuSans-65" transform="translate(1127.580078 0)"/>
      <use xlink:href="#DejaVuSans-6e" transform="translate(1189.103516 0)"/>
      <use xlink:href="#DejaVuSans-63" transform="translate(1252.482422 0)"/>
      <use xlink:href="#DejaVuSans-79" transform="translate(1307.462891 0)"/>
      <use xlink:href="#DejaVuSans-5f" transform="translate(1366.642578 0)"/>
      <use xlink:href="#DejaVuSans-67" transform="translate(1416.642578 0)"/>
      <use xlink:href="#DejaVuSans-61" transform="translate(1480.119141 0)"/>
      <use xlink:href="#DejaVuSans-70" transform="translate(1541.398438 0)"/>
     </g>
    </g>
   </g>
   <g id="line2d_23">
    <path d="M 94.542102 171.424261 
L 94.56691 171.424261 
L 94.618592 105.404971 
L 94.678543 165.631394 
L 94.829454 227.054703 
L 94.922481 206.560223 
L 94.926616 205.742439 
L 95.001038 212.616753 
L 95.089931 228.637383 
L 95.230505 270.441818 
L 95.298725 266.927639 
L 95.350407 264.57755 
L 95.466175 258.896104 
L 95.493049 262.763011 
L 95.53853 264.83792 
L 95.590211 260.903224 
L 95.801074 233.718045 
L 96.024339 207.358904 
L 96.113232 194.165499 
L 96.185587 194.191223 
L 96.239336 190.666998 
L 96.441929 170.09249 
L 96.464669 167.987942 
L 96.54736 170.668999 
L 96.727213 174.42854 
L 96.745819 173.80905 
L 96.902932 166.096777 
L 97.016632 160.879715 
L 97.05591 161.255359 
L 97.060045 161.293657 
L 97.080718 160.509049 
L 97.182014 153.354807 
L 97.341195 147.452262 
L 97.394944 148.8805 
L 97.399078 148.991699 
L 97.45076 147.374653 
L 97.452828 147.307771 
L 97.506577 149.097963 
L 97.758784 161.485107 
L 98.017194 180.660183 
L 98.21772 185.571543 
L 98.236325 185.201811 
L 98.509206 181.508351 
L 98.523677 181.274692 
L 98.575359 182.083796 
L 98.695261 187.040812 
L 98.755212 185.234536 
L 98.844105 183.531351 
L 98.887517 184.273004 
L 99.083909 189.527327 
L 99.269964 197.449341 
L 99.34852 195.86191 
L 99.437413 193.977246 
L 99.503566 194.27439 
L 99.60693 196.520238 
L 99.668948 195.843327 
L 99.673082 195.806374 
L 99.695822 196.602396 
L 100.032789 208.401131 
L 100.10721 208.670632 
L 100.169229 208.578756 
L 100.220911 208.457523 
L 100.272593 208.617829 
L 100.485522 209.877061 
L 100.54754 210.822332 
L 100.613693 210.16918 
L 100.741864 209.439297 
L 100.766672 209.63717 
L 100.98787 214.021659 
L 101.027148 213.214707 
L 101.171858 208.152516 
L 101.409595 201.495156 
L 101.440604 201.682855 
L 101.721753 205.766435 
L 101.833386 207.907791 
L 101.883001 207.383008 
L 102.05045 204.273283 
L 102.193092 198.355218 
L 102.474242 184.676742 
L 102.527991 184.277634 
L 102.571404 184.08239 
L 102.625153 184.536537 
L 102.724382 185.269481 
L 102.757459 184.716996 
L 102.887697 183.641757 
L 102.914572 183.882478 
L 102.933177 184.053655 
L 102.970388 183.411223 
L 103.123367 181.654881 
L 103.156443 181.780439 
L 103.203991 181.290993 
L 103.390045 175.447914 
L 105.438716 103.101888 
L 106.019621 89.542071 
L 106.143658 86.856572 
L 106.373125 82.077654 
L 106.416538 82.379295 
L 106.495095 82.300145 
L 106.497162 82.279498 
L 106.784513 79.406919 
L 106.875474 79.589445 
L 107.065663 80.560934 
L 107.109076 80.15924 
L 107.255852 77.858115 
L 107.847094 68.618755 
L 108.87453 60.491753 
L 109.081258 58.842353 
L 109.089527 58.851818 
L 109.118469 58.886861 
L 109.132939 58.742116 
L 109.20116 57.954673 
L 109.279716 58.284464 
L 109.341734 58.541897 
L 109.374811 58.240146 
L 109.500915 57.321209 
L 109.540193 57.583627 
L 109.963985 60.918218 
L 110.052877 60.590456 
L 110.065281 60.510869 
L 110.114896 60.899377 
L 110.311287 62.028413 
L 110.608975 64.518024 
L 110.819837 67.056481 
L 111.080314 68.198764 
L 111.214687 68.44566 
L 111.231225 68.526744 
L 111.284974 68.263332 
L 111.301512 68.319195 
L 111.375934 68.995334 
L 111.5992 71.265575 
L 111.675689 71.044719 
L 111.739775 70.398789 
L 112.333083 63.585631 
L 112.587358 63.060662 
L 113.255089 57.149754 
L 113.257156 57.156148 
L 113.31504 57.689649 
L 113.598257 59.248784 
L 113.623064 59.34359 
L 113.674746 59.116469 
L 113.728495 58.879362 
L 113.794648 59.080235 
L 114.383822 63.998008 
L 114.919246 70.208872 
L 114.944054 70.304406 
L 114.985399 70.126975 
L 115.028812 70.197185 
L 115.103234 69.26372 
L 115.332702 67.68155 
L 115.361643 67.538295 
L 115.436065 67.730141 
L 115.601447 68.349612 
L 115.742022 69.302174 
L 115.820579 69.268126 
L 115.822646 69.268506 
L 115.839184 69.166231 
L 115.940481 68.712113 
L 115.988028 68.93462 
L 116.163747 70.29042 
L 116.610278 75.118747 
L 117.162241 79.3101 
L 117.557091 83.282134 
L 118.272369 85.663695 
L 118.301311 85.655129 
L 118.431549 85.750104 
L 118.524576 85.948499 
L 118.572124 85.912126 
L 118.694093 86.38587 
L 118.880148 86.907956 
L 118.973175 86.773391 
L 119.02279 86.55146 
L 119.277065 85.716524 
L 119.359756 85.455676 
L 119.700857 82.800068 
L 120.010948 80.735981 
L 120.38926 78.174207 
L 120.82959 73.643324 
L 120.932953 72.714863 
L 121.094201 71.966421 
L 121.116941 72.049382 
L 121.265785 72.502065 
L 121.305063 72.336619 
L 122.35524 68.184157 
L 122.40072 68.422105 
L 122.481344 68.839118 
L 122.58264 68.789471 
L 122.704609 68.836173 
L 122.712878 68.863863 
L 122.975423 69.354679 
L 123.194554 69.69012 
L 123.424022 69.833901 
L 123.469502 69.679745 
L 123.634884 69.511793 
L 124.296412 67.646896 
L 124.352229 67.852855 
L 124.604436 68.827539 
L 124.687127 68.669869 
L 124.711935 68.599643 
L 124.79876 68.672475 
L 124.895922 68.874223 
L 125.121256 69.661047 
L 125.154332 69.582845 
L 125.162601 69.559674 
L 125.21635 69.718704 
L 125.559518 71.922142 
L 125.70216 72.544228 
L 125.834466 72.30514 
L 126.05153 71.545816 
L 126.061866 71.567576 
L 126.264459 72.246004 
L 126.49186 73.223632 
L 126.620031 73.526664 
L 126.729597 73.374402 
L 126.777144 73.288395 
L 126.84123 73.39357 
L 127.004544 74.733326 
L 127.087235 74.963931 
L 127.130648 74.890844 
L 127.256752 74.817619 
L 127.27329 74.874689 
L 127.44074 75.315001 
L 127.477951 75.18855 
L 127.734293 74.016899 
L 128.311063 70.87915 
L 128.519858 70.050264 
L 128.767931 69.476647 
L 128.922977 68.630041 
L 129.129705 67.900813 
L 129.21653 67.781849 
L 129.274414 67.884772 
L 129.324029 67.981375 
L 129.400518 67.89821 
L 129.439796 67.718703 
L 129.627918 66.85171 
L 129.689936 66.975943 
L 129.72508 67.024854 
L 129.766426 66.904568 
L 130.039306 65.883573 
L 130.239832 64.997006 
L 130.442425 63.954326 
L 130.456896 63.98491 
L 130.477569 64.026378 
L 130.53752 63.89372 
L 130.723575 63.1727 
L 131.058474 61.541436 
L 131.730338 60.499903 
L 131.746877 60.514116 
L 131.846106 60.554388 
L 131.88125 60.473893 
L 132.083843 59.73906 
L 132.181005 59.287475 
L 132.240956 59.379732 
L 132.364992 59.708253 
L 132.427011 59.522058 
L 132.712295 58.735293 
L 132.792918 58.845597 
L 132.960368 59.186679 
L 133.03479 59.069797 
L 133.100943 58.977608 
L 133.140221 59.104109 
L 133.334545 60.674896 
L 133.522667 61.744201 
L 133.56608 61.703611 
L 133.741798 61.611569 
L 133.632233 61.790755 
L 133.776942 61.652648 
L 134.00641 62.131612 
L 134.182128 63.001169 
L 134.310299 62.836077 
L 134.428134 62.818235 
L 134.566642 62.602065 
L 134.93255 61.693773 
L 134.957357 61.713408 
L 135.075192 61.816471 
L 135.093797 61.757919 
L 135.323265 60.683789 
L 135.558934 59.140857 
L 135.629222 59.288572 
L 135.848353 59.611618 
L 135.893833 59.561922 
L 136.028206 59.589516 
L 136.255606 59.995315 
L 136.706273 61.067827 
L 136.741416 61.200044 
L 137.068046 62.712836 
L 137.380205 63.927736 
L 137.956975 67.540182 
L 138.031397 67.700227 
L 138.451054 68.876359 
L 138.457256 68.868996 
L 138.564754 68.57134 
L 138.8335 68.017665 
L 138.845904 68.06452 
L 139.472289 70.252831 
L 139.515701 70.337219 
L 139.57772 70.222636 
L 139.763775 69.860864 
L 139.825793 69.941551 
L 139.885744 70.045131 
L 139.925022 69.907911 
L 140.121413 69.280649 
L 140.171028 69.174524 
L 140.321939 68.906965 
L 140.35915 68.919384 
L 140.414967 68.824275 
L 140.842893 67.967749 
L 140.896642 68.074458 
L 140.909046 68.064944 
L 141.349376 68.903081 
L 141.924079 70.541252 
L 141.96129 70.513509 
L 142.072922 70.230768 
L 142.660029 68.363281 
L 142.717913 68.24981 
L 143.04661 67.53963 
L 143.108628 67.470884 
L 143.168579 67.532203 
L 143.584102 69.574224 
L 143.894193 70.849033 
L 144.117459 72.022131 
L 144.251832 72.448314 
L 144.305581 72.309459 
L 144.698364 71.506431 
L 144.729373 71.521424 
L 144.787256 71.521302 
L 144.807929 71.441936 
L 144.903024 71.127676 
L 144.965042 71.270508 
L 144.996051 71.281584 
L 145.03533 71.184403 
L 145.120088 71.029937 
L 145.159366 71.167854 
L 145.500467 72.423038 
L 145.506669 72.421117 
L 145.971806 73.560099 
L 146.02969 73.432854 
L 146.197139 73.279638 
L 146.275695 73.374994 
L 146.397665 73.381578 
L 146.488625 73.491075 
L 146.718093 73.791817 
L 146.732564 73.777476 
L 146.83386 73.521793 
L 147.154288 71.89085 
L 147.573945 69.246696 
L 148.115571 67.35028 
L 148.369847 66.521246 
L 148.464941 66.588384 
L 148.704745 66.835952 
L 148.779167 66.72584 
L 148.954886 66.008703 
L 149.314592 65.231005 
L 149.333197 65.239396 
L 149.413821 65.226889 
L 149.436561 65.181569 
L 149.51305 64.953108 
L 149.597809 65.015521 
L 149.740451 65.23363 
L 149.819007 65.399348 
L 149.876891 65.302047 
L 149.949246 65.204858 
L 149.990591 65.324157 
L 150.124964 65.372968 
L 150.375105 65.754548 
L 150.420585 65.65732 
L 150.521881 65.666184 
L 150.540487 65.683643 
L 151.001489 66.288326 
L 152.008253 68.8167 
L 152.266663 68.744076 
L 152.355555 68.463033 
L 153.691016 63.764099 
L 154.286392 62.263848 
L 154.367015 62.327381 
L 154.37115 62.331864 
L 154.48485 62.372232 
L 154.511725 62.320652 
L 154.807345 61.990803 
L 154.904507 61.864745 
L 155.119504 61.061062 
L 155.379981 59.940462 
L 155.880262 59.100373 
L 155.886464 59.104673 
L 155.900935 59.116147 
L 155.929876 59.00808 
L 156.432225 57.246343 
L 156.601741 57.157786 
L 156.717509 57.062484 
L 157.393508 54.704923 
L 157.664321 53.562628 
L 157.763551 53.696122 
L 157.796627 53.749194 
L 157.883453 53.681894 
L 158.480896 53.140902 
L 158.619403 52.740809 
L 159.231317 50.230065 
L 159.237519 50.236454 
L 159.287133 50.208853 
L 159.326412 50.17025 
L 159.566216 50.042606 
L 159.586889 50.06884 
L 159.876307 50.455011 
L 160.018949 50.633233 
L 160.035488 50.627779 
L 160.252552 50.679914 
L 160.442741 50.720516 
L 160.544038 50.632333 
L 161.011242 49.715877 
L 161.592147 47.730273 
L 161.699645 47.959446 
L 161.904305 48.154894 
L 162.020073 48.072964 
L 162.431461 47.472947 
L 163.948842 41.513916 
L 164.58763 39.759598 
L 164.690994 39.876052 
L 164.837771 39.561917 
L 165.203679 38.722251 
L 165.546847 38.532136 
L 165.755641 38.666957 
L 166.367555 39.820502 
L 166.444045 39.723179 
L 166.613561 39.349645 
L 166.768607 38.923145 
L 166.840962 39.028831 
L 166.989805 39.37889 
L 167.254417 39.795561 
L 167.459077 39.876595 
L 167.578979 39.985173 
L 168.393486 41.590986 
L 169.069486 43.322503 
L 169.133571 43.28629 
L 169.352702 43.612307 
L 169.526354 43.807215 
L 169.561497 43.775364 
L 169.728947 43.564625 
L 169.81784 43.689235 
L 170.043173 44.397433 
L 170.851478 45.822703 
L 170.853545 45.818813 
L 171.281471 45.220076 
L 171.29801 45.197685 
L 171.322817 45.121521 
L 171.475795 44.893164 
L 171.506805 44.916033 
L 171.510939 44.919383 
L 171.550217 44.811606 
L 171.76108 44.516568 
L 171.785887 44.490314 
L 171.8293 44.601207 
L 172.073238 45.092104 
L 172.172468 45.334184 
L 172.236553 45.260342 
L 172.51977 45.000144 
L 172.546645 45.074554 
L 172.647941 45.256323 
L 172.707892 45.209763 
L 173.40043 45.769141 
L 173.516197 45.818261 
L 173.851096 46.079954 
L 174.024747 46.264344 
L 174.057824 46.232812 
L 174.314166 45.877376 
L 174.365848 46.028763 
L 174.696612 47.025403 
L 174.709016 47.021324 
L 174.818581 46.86944 
L 174.957089 46.719428 
L 174.988098 46.732718 
L 175.242373 46.724116 
L 175.283719 46.751406 
L 175.302324 46.815393 
L 175.612416 47.655827 
L 175.672367 47.558212 
L 175.951449 47.074278 
L 176.03414 47.038631 
L 176.071351 47.077889 
L 176.412452 47.268088 
L 176.426922 47.246745 
L 176.902396 46.348562 
L 177.131864 45.913896 
L 177.16494 45.992782 
L 177.51431 46.951999 
L 177.60527 46.877414 
L 177.723105 46.876456 
L 177.737576 46.905764 
L 177.890554 47.159266 
L 177.942236 47.13365 
L 178.314346 47.349636 
L 178.405306 47.32756 
L 178.442517 47.391189 
L 178.802223 48.635121 
L 178.940731 48.549967 
L 179.019287 48.633082 
L 179.513366 49.008038 
L 179.658076 48.87192 
L 179.709757 48.950987 
L 180.036387 49.299899 
L 180.174895 49.263678 
L 180.590417 48.725976 
L 180.943922 48.131154 
L 181.49175 47.26095 
L 181.566172 47.404791 
L 181.71915 47.984546 
L 182.076789 49.107477 
L 182.194624 49.509923 
L 182.320728 49.820558 
L 182.393082 49.798091 
L 182.484042 49.887655 
L 182.73625 50.219403 
L 182.833412 50.46974 
L 183.426721 51.412858 
L 183.513546 51.506861 
L 183.85258 51.919363 
L 183.877387 51.880385 
L 183.999356 51.742875 
L 184.051038 51.809827 
L 184.28464 52.401964 
L 185.23352 54.999718 
L 185.237655 54.994166 
L 185.398902 54.823026 
L 185.44645 54.877906 
L 185.727599 55.152137 
L 185.766877 55.085517 
L 186.089373 54.77433 
L 186.529703 54.361064 
L 186.566913 54.403467 
L 186.808785 54.885308 
L 187.304931 55.869682 
L 187.315268 55.853336 
L 187.524062 55.730096 
L 187.724588 55.807096 
L 187.807279 55.938261 
L 187.879634 55.857303 
L 188.059487 55.543886 
L 188.359242 55.125542 
L 188.49775 55.059116 
L 188.524624 55.107968 
L 189.353602 57.043105 
L 189.399082 56.980446 
L 189.593406 57.082286 
L 189.769125 57.42889 
L 189.835278 57.336892 
L 190.09162 57.12214 
L 190.110225 57.143206 
L 190.199118 57.296843 
L 190.285944 57.233242 
L 190.538152 57.135136 
L 190.585699 57.159872 
L 190.641515 57.094755 
L 190.999154 56.508631 
L 192.293269 53.884821 
L 192.510333 53.681485 
L 192.535141 53.717125 
L 192.70259 53.806311 
L 192.805954 53.886901 
L 193.130516 54.364609 
L 193.254553 54.258012 
L 193.657672 54.028967 
L 194.186894 53.445804 
L 194.352277 53.192934 
L 194.602417 52.74743 
L 194.747126 52.558366 
L 195.020007 51.882234 
L 195.656728 50.456808 
L 195.778697 50.032357 
L 196.020569 49.449046 
L 196.237633 49.496887 
L 196.392678 49.495756 
L 196.518782 49.362785 
L 196.787528 49.002269 
L 196.822672 49.023628 
L 196.994256 48.999035 
L 197.155503 49.059679 
L 197.358097 49.240803 
L 197.378769 49.225544 
L 197.550353 49.240386 
L 197.775686 49.468207 
L 197.963809 49.563265 
L 198.517839 49.602369 
L 198.832065 49.296276 
L 199.479122 48.20156 
L 199.783012 48.080356 
L 200.062094 48.041858 
L 200.289495 47.780073 
L 200.417666 47.55785 
L 200.471415 47.587214 
L 200.74843 47.801157 
L 201.443035 48.232477 
L 202.042545 48.250062 
L 202.1149 48.291774 
L 202.174851 48.226042 
L 202.611046 47.861351 
L 202.621382 47.879055 
L 202.784697 47.938755 
L 203.08652 48.073829 
L 203.225027 48.003319 
L 203.679828 47.637767 
L 203.956843 48.111741 
L 204.035399 48.061562 
L 204.223522 48.11232 
L 204.3765 48.323334 
L 204.740341 48.759152 
L 205.046298 48.824546 
L 205.509368 48.458368 
L 205.519704 48.467773 
L 205.569319 48.498992 
L 205.627202 48.415862 
L 206.313538 47.654073 
L 206.846895 47.84085 
L 207.440204 48.16349 
L 207.818515 48.462392 
L 207.870197 48.530957 
L 207.940485 48.486765 
L 208.138943 48.334226 
L 208.899701 47.332493 
L 209.147774 47.102944 
L 209.37104 46.825305 
L 209.708006 46.330906 
L 210.483235 44.398061 
L 211.363895 43.122174 
L 211.779417 42.790756 
L 212.054365 42.075403 
L 212.329313 41.544628 
L 212.478157 41.580685 
L 212.666279 41.563373 
L 213.615159 41.224173 
L 214.140247 41.737595 
L 214.520626 41.694183 
L 214.644662 41.539487 
L 214.787304 41.396156 
L 214.826583 41.455538 
L 215.504649 42.270052 
L 215.608013 42.271862 
L 215.630753 42.3212 
L 215.907768 42.791855 
L 216.312954 42.991877 
L 216.325358 42.974431 
L 216.790495 42.281694 
L 216.88559 42.38083 
L 217.013761 42.381014 
L 217.024097 42.367424 
L 217.208085 42.257156 
L 217.232892 42.28089 
L 217.472696 42.361349 
L 217.693895 42.373803 
L 217.704231 42.351961 
L 218.109418 41.749551 
L 218.6159 40.927142 
L 218.690322 40.877813 
L 218.731668 40.944388 
L 218.880512 40.988202 
L 218.998346 41.056729 
L 219.155459 41.036545 
L 219.418004 41.05898 
L 220.670773 42.78291 
L 221.040816 42.750161 
L 221.295091 42.90818 
L 221.62172 42.865196 
L 221.818112 42.836493 
L 222.161279 42.844944 
L 223.103957 43.738431 
L 223.872984 43.559351 
L 224.112788 43.658315 
L 224.327785 43.575848 
L 224.51384 43.391314 
L 224.526244 43.401205 
L 224.69576 43.689031 
L 224.914892 43.877661 
L 225.196041 43.936836 
L 225.41724 44.033276 
L 225.632237 44.094186 
L 226.299967 43.980321 
L 226.533569 43.961631 
L 226.738229 44.169479 
L 227.03385 44.650256 
L 227.14755 44.631416 
L 227.166156 44.600727 
L 227.277789 44.628493 
L 227.422498 44.578396 
L 227.72432 44.488568 
L 228.05095 44.737492 
L 228.247341 44.807373 
L 228.586375 45.11008 
L 228.737286 45.171599 
L 229.088723 45.18935 
L 230.058275 45.550722 
L 230.194716 45.55343 
L 230.461394 45.534333 
L 231.108452 45.660302 
L 231.439216 46.032204 
L 231.569455 46.214017 
L 231.848537 46.582437 
L 232.146225 46.780201 
L 232.154494 46.768453 
L 232.716793 46.1621 
L 233.32664 45.91611 
L 233.717355 45.919594 
L 234.676571 45.364979 
L 234.70758 45.418298 
L 234.949452 45.605469 
L 235.061084 45.472422 
L 235.143776 45.55494 
L 235.323629 45.622889 
L 235.859053 45.610016 
L 236.663224 45.382992 
L 236.81 45.364978 
L 237.796091 44.913093 
L 238.025559 44.790494 
L 238.184739 44.860582 
L 238.308776 44.830368 
L 239.377558 44.443724 
L 239.56568 44.464394 
L 239.834426 44.404987 
L 240.549703 44.278844 
L 241.285654 44.368617 
L 241.444834 44.288484 
L 241.637091 44.184943 
L 241.835549 44.327508 
L 242.348234 45.088478 
L 242.825775 45.906749 
L 243.024233 46.094454 
L 243.37567 46.529074 
L 243.828404 47.137329 
L 244.471327 48.561847 
L 245.149394 49.401045 
L 245.316843 49.292885 
L 245.64554 49.029159 
L 245.653809 49.037849 
L 246.187166 49.759307 
L 246.536536 50.416213 
L 246.749466 50.505357 
L 247.069893 50.654112 
L 247.539165 50.947342 
L 247.667336 51.047491 
L 247.973293 51.288126 
L 248.111801 51.247265 
L 248.446699 50.996487 
L 248.903568 50.869945 
L 249.089622 50.82095 
L 249.401781 50.761109 
L 249.676729 50.777451 
L 249.914466 50.662485 
L 250.088117 50.587038 
L 250.305181 50.391551 
L 250.968777 49.758915 
L 251.12589 49.840514 
L 251.564152 50.174238 
L 251.655113 50.09943 
L 252.581252 49.247448 
L 252.781778 49.28787 
L 253.203503 49.438482 
L 253.490854 49.413623 
L 253.792676 49.381715 
L 254.158584 49.40358 
L 254.900737 49.630115 
L 255.078522 49.536313 
L 255.268712 49.532982 
L 255.272846 49.539433 
L 255.601543 49.860448 
L 255.6801 49.755407 
L 255.95298 49.418014 
L 256.095622 49.249654 
L 256.12043 49.237583 
L 256.182448 49.315632 
L 256.411916 49.499386 
L 256.616576 49.570358 
L 256.918398 49.878613 
L 257.276037 49.913565 
L 257.460025 49.962477 
L 257.464159 49.957557 
L 257.644012 49.915258 
L 258.264195 49.8366 
L 258.915387 49.053902 
L 259.68028 49.282328 
L 260.052389 48.548432 
L 260.254983 48.377995 
L 260.643631 48.053339 
L 260.990933 47.790893 
L 261.507752 47.575075 
L 261.669 47.71025 
L 261.824045 47.820248 
L 261.867458 47.772545 
L 262.225097 47.537288 
L 262.417354 47.395361 
L 262.791531 47.190853 
L 262.963115 47.397638 
L 263.298014 47.649326 
L 263.316619 47.632628 
L 263.544019 47.57637 
L 264.046368 47.962972 
L 264.641743 48.525679 
L 264.844336 48.475438 
L 265.036593 48.461114 
L 265.80562 48.772548 
L 266.128115 48.94441 
L 266.51883 49.169547 
L 266.715221 49.11198 
L 266.882671 49.139827 
L 267.116273 49.134763 
L 267.393288 49.16767 
L 267.659967 49.17676 
L 267.831551 49.094999 
L 268.013471 49.002612 
L 268.790767 49.534332 
L 269.272442 49.61739 
L 270.041469 49.959009 
L 270.42805 49.532477 
L 270.481799 49.621207 
L 270.690594 49.76699 
L 270.955205 49.808939 
L 271.143328 49.73938 
L 271.149529 49.753021 
L 271.323181 50.104779 
L 271.389334 50.038899 
L 271.777982 49.769941 
L 272.1811 49.106397 
L 272.518066 48.534377 
L 272.859167 48.03751 
L 273.144451 47.793515 
L 273.535166 47.481782 
L 274.049918 47.540652 
L 274.531594 47.973996 
L 274.699043 48.021714 
L 274.998798 48.104897 
L 275.356437 48.208232 
L 276.390075 47.80088 
L 277.051604 47.122194 
L 277.231457 47.170936 
L 277.771016 47.804998 
L 277.996349 47.91784 
L 278.252691 47.766986 
L 278.910085 47.396285 
L 279.052727 47.283022 
L 279.294599 47.17183 
L 280.042953 47.060076 
L 280.520494 46.489779 
L 280.818181 46.051844 
L 281.436297 45.274612 
L 281.977924 44.833177 
L 281.994462 44.856157 
L 282.82344 45.816362 
L 283.859145 46.606338 
L 284.398704 46.541725 
L 284.624037 46.510183 
L 284.979609 46.65761 
L 285.26696 46.726213 
L 285.626666 46.933594 
L 285.849932 47.040156 
L 286.28406 47.013813 
L 286.67891 46.89649 
L 286.906311 47.117332 
L 287.228806 47.374696 
L 287.600915 47.404686 
L 288.09086 47.580714 
L 288.214897 47.566754 
L 288.332731 47.642645 
L 288.541526 47.692129 
L 288.88056 47.660867 
L 289.263006 47.692866 
L 289.506944 47.819324 
L 289.804632 47.792965 
L 290.075445 47.628625 
L 290.652216 47.089785 
L 292.161327 45.781655 
L 292.69055 46.173543 
L 293.104005 46.77034 
L 293.436837 47.029746 
L 293.660103 47.089596 
L 294.083894 47.133825 
L 294.453937 47.459614 
L 294.79297 47.413606 
L 295.216762 47.814538 
L 295.853483 48.784384 
L 297.281971 49.813857 
L 297.852539 50.453012 
L 298.753872 51.079286 
L 299.070165 51.173732 
L 299.609724 51.370402 
L 300.225773 51.513672 
L 300.701246 51.710423 
L 300.961723 51.76383 
L 301.31316 51.945056 
L 301.505417 52.015757 
L 301.741086 52.101791 
L 301.964352 52.011067 
L 302.19382 51.954197 
L 302.774725 52.062192 
L 303.11996 52.037468 
L 303.634712 52.387266 
L 303.932399 52.649406 
L 304.544313 52.416128 
L 304.771714 52.254535 
L 304.792386 52.27265 
L 305.220313 52.620647 
L 305.546942 52.801696 
L 305.997609 52.781014 
L 306.590917 52.605298 
L 306.77077 52.7669 
L 306.991969 52.857642 
L 307.508788 52.834705 
L 307.839552 52.641126 
L 308.561031 52.478754 
L 309.212223 53.042928 
L 309.429288 53.271286 
L 309.784859 53.565491 
L 309.93577 53.688447 
L 310.179709 53.793607 
L 310.572491 53.665801 
L 310.928063 53.81396 
L 311.709493 54.245097 
L 312.009249 54.359452 
L 312.552942 54.909748 
L 312.676979 55.075517 
L 313.07803 55.586355 
L 313.549369 55.956681 
L 314.122005 55.820879 
L 314.312194 55.779201 
L 314.651228 55.93305 
L 315.205258 56.217638 
L 315.67453 56.569554 
L 317.369696 58.63169 
L 317.557819 58.674 
L 318.347518 59.559518 
L 318.60386 59.732742 
L 318.947028 59.895008 
L 319.819419 60.71584 
L 320.695944 61.225772 
L 320.869595 61.331296 
L 322.283612 62.926451 
L 322.436591 62.98615 
L 322.957545 62.823378 
L 323.275905 62.782742 
L 323.707966 62.932735 
L 323.933299 62.97245 
L 324.594828 62.746475 
L 326.79441 60.936266 
L 326.957725 60.869732 
L 327.683339 60.619761 
L 328.063717 60.72945 
L 328.468904 60.685629 
L 328.903032 60.873387 
L 329.118028 60.78732 
L 329.463264 60.748369 
L 329.835373 60.780675 
L 330.918626 60.780376 
L 331.292803 60.710047 
L 331.900583 60.609321 
L 332.276827 60.547267 
L 332.518698 60.560613 
L 334.497082 61.263943 
L 334.776164 61.382555 
L 335.32606 61.471883 
L 335.708506 61.623254 
L 336.119894 61.644022 
L 336.328689 61.590916 
L 336.407245 61.488096 
L 336.760749 61.11428 
L 338.056932 61.633271 
L 338.608895 61.665112 
L 338.778411 61.665941 
L 339.078166 61.714953 
L 339.923682 61.691957 
L 340.165554 61.729841 
L 340.665835 61.220096 
L 341.060684 61.06775 
L 341.82351 60.803095 
L 342.100525 60.889963 
L 342.917099 60.741028 
L 343.076279 60.757114 
L 343.493869 61.003154 
L 343.66752 61.081781 
L 343.832902 61.085308 
L 344.285636 61.075389 
L 344.663947 61.074888 
L 345.129085 60.870691 
L 345.461916 60.793205 
L 345.93739 60.601453 
L 346.139983 60.525043 
L 346.383921 60.45993 
L 347.06819 60.544616 
L 347.655296 60.612788 
L 347.90337 60.626262 
L 348.463601 60.234542 
L 349.35253 59.684099 
L 349.505509 59.698059 
L 350.018193 59.898392 
L 350.336554 59.818059 
L 350.561887 59.745277 
L 352.124748 59.491931 
L 352.372821 59.513326 
L 352.658105 59.439065 
L 353.119108 59.335902 
L 353.509823 59.458343 
L 353.989431 59.369212 
L 354.340868 59.350978 
L 354.785333 58.771601 
L 355.13677 58.351374 
L 355.496476 58.107859 
L 355.653589 58.271836 
L 355.82724 58.314067 
L 356.22209 58.148059 
L 356.817466 57.853954 
L 357.8387 58.259739 
L 358.02889 58.282071 
L 358.634602 58.450862 
L 359.312668 58.806704 
L 360.069291 58.847535 
L 360.269817 58.809673 
L 360.832116 58.781475 
L 361.382012 58.92507 
L 361.615614 58.928659 
L 361.814073 58.929557 
L 362.018733 58.994953 
L 362.388776 58.975118 
L 363.06891 58.733313 
L 363.476163 59.014123 
L 363.709765 59.05756 
L 364.055 59.060209 
L 364.830229 59.221407 
L 365.175464 59.377047 
L 365.956895 59.658617 
L 366.48405 59.471193 
L 366.934717 59.559874 
L 367.418459 59.753412 
L 367.674802 59.85569 
L 368.737382 59.98023 
L 369.111559 59.951138 
L 369.382372 59.936879 
L 369.615974 59.938479 
L 369.983949 59.998892 
L 370.248561 59.989876 
L 370.612401 60.291666 
L 371.089942 60.297913 
L 371.383495 60.204883 
L 371.916853 59.837228 
L 372.253819 59.577664 
L 372.991837 59.246978 
L 373.167555 59.243493 
L 373.349475 59.397249 
L 373.913842 59.656053 
L 374.25701 59.606024 
L 374.544361 59.683082 
L 375.350599 59.837917 
L 375.565596 59.876349 
L 376.249864 60.120867 
L 376.915527 59.808073 
L 377.792052 59.888902 
L 377.965704 59.91365 
L 378.344015 59.664991 
L 378.606559 59.422643 
L 379.371452 59.116293 
L 379.977164 58.945696 
L 380.665567 59.163113 
L 381.188588 59.009593 
L 381.360172 58.979248 
L 381.992758 58.834746 
L 382.294581 58.909488 
L 382.790727 58.787072 
L 383.076011 58.742319 
L 383.379901 58.922106 
L 383.80576 59.181822 
L 384.351521 59.307831 
L 384.593392 59.386528 
L 384.758774 59.536247 
L 384.998578 59.754116 
L 385.546406 59.911516 
L 385.827556 59.969229 
L 386.24928 60.329388 
L 386.449806 60.370232 
L 386.927347 60.833081 
L 387.272582 61.28891 
L 387.652961 61.675031 
L 387.816276 61.694209 
L 388.089156 61.682403 
L 388.601841 61.812705 
L 389.755381 62.342017 
L 390.177106 62.218297 
L 390.613301 62.151946 
L 391.338915 62.330172 
L 391.655208 62.245964 
L 391.921887 62.208019 
L 392.500724 62.35088 
L 394.131806 62.530777 
L 394.43983 62.492635 
L 394.708576 62.480644 
L 395.157175 62.092815 
L 395.580966 61.864367 
L 395.771156 61.802073 
L 396.188746 61.592138 
L 396.562923 61.403752 
L 396.813063 61.24777 
L 397.226518 61.066366 
L 397.46839 60.928609 
L 399.113942 60.80645 
L 399.461244 60.940703 
L 399.678308 61.034014 
L 399.96566 61.26486 
L 400.618919 61.609061 
L 401.1192 61.888633 
L 401.939909 62.124178 
L 402.245866 62.201847 
L 402.59937 62.225967 
L 403.225755 62.09879 
L 404.178769 61.769146 
L 405.398462 61.660684 
L 405.516297 61.726724 
L 405.692015 61.608889 
L 405.886339 61.506102 
L 407.35824 61.103786 
L 408.160344 60.646171 
L 408.39808 60.461354 
L 409.206385 59.637757 
L 409.648783 59.397188 
L 409.950605 59.387387 
L 411.391497 59.153097 
L 412.259753 58.756448 
L 412.644266 58.640859 
L 412.921281 58.495963 
L 413.212767 58.540941 
L 413.975592 58.569629 
L 414.198858 58.554778 
L 414.910001 58.738522 
L 415.519848 58.481281 
L 415.910563 58.311391 
L 416.264067 58.288694 
L 416.743675 58.44234 
L 417.653277 58.959375 
L 417.81039 59.075546 
L 418.184567 59.255326 
L 418.422304 59.449663 
L 419.323636 60.242445 
L 419.606853 60.376692 
L 420.009972 60.362302 
L 420.942314 60.776842 
L 421.4612 60.800215 
L 421.990423 60.881094 
L 422.405946 60.91178 
L 422.556857 60.85377 
L 422.831805 60.763619 
L 423.104685 60.775586 
L 423.61737 60.698411 
L 424.663411 60.875299 
L 424.925956 61.013237 
L 425.790077 61.162391 
L 426.147716 61.327722 
L 426.331704 61.337478 
L 427.782932 61.353522 
L 428.427922 60.962903 
L 428.711139 61.061226 
L 429.469829 61.077139 
L 429.717902 60.958332 
L 430.412507 60.399349 
L 430.749473 60.129625 
L 431.189803 59.793387 
L 431.807919 59.43352 
L 433.023477 58.834754 
L 433.48448 58.759074 
L 433.782168 58.73357 
L 434.088125 58.757483 
L 434.38788 58.73364 
L 434.563598 58.814183 
L 434.786864 58.770253 
L 434.956381 58.815423 
L 435.161041 58.914231 
L 435.429787 58.950039 
L 437.114618 58.839207 
L 437.753406 58.408815 
L 437.960134 58.318948 
L 438.503827 58.242764 
L 439.380352 58.045109 
L 439.744193 58.102987 
L 439.988132 58.140988 
L 440.564902 58.230316 
L 440.868792 58.134552 
L 441.677097 58.064912 
L 442.450258 57.845463 
L 443.421878 57.838532 
L 443.911822 57.66469 
L 444.310807 57.542227 
L 444.773877 57.40373 
L 445.68968 57.54781 
L 446.074194 57.589394 
L 446.438034 57.270381 
L 446.686107 57.132223 
L 447.085092 56.930245 
L 447.707342 56.50425 
L 448.798864 56.176814 
L 449.208185 55.961175 
L 449.39424 55.823274 
L 449.665053 55.708857 
L 453.175288 55.792482 
L 453.410958 55.759163 
L 453.683838 55.692255 
L 454.564498 55.532524 
L 455.443091 55.609926 
L 455.585733 55.670712 
L 456.048803 55.967209 
L 456.799224 56.01187 
L 457.167199 56.024902 
L 457.624067 55.975689 
L 458.481987 55.735948 
L 458.994671 55.507832 
L 459.356445 55.593269 
L 461.035073 56.328003 
L 461.541556 56.287617 
L 461.787562 56.125158 
L 462.089384 56.053877 
L 463.674985 55.994966 
L 465.43217 55.879212 
L 466.52576 55.133524 
L 466.920609 55.050463 
L 467.596609 54.988007 
L 467.745453 54.976333 
L 468.320156 54.909236 
L 468.659189 54.982274 
L 468.925868 55.004036 
L 469.411678 55.119938 
L 469.717634 55.219725 
L 470.308875 55.347492 
L 471.908947 55.576163 
L 472.140482 55.644977 
L 472.394757 55.699253 
L 472.752396 55.715374 
L 473.165852 55.621013 
L 473.424261 55.492177 
L 473.806707 55.528759 
L 474.094059 55.621718 
L 474.499245 55.861996 
L 474.801067 55.962421 
L 475.439856 55.982944 
L 475.818167 55.862554 
L 476.08898 55.934105 
L 476.355659 56.029843 
L 477.914386 56.816066 
L 478.160391 56.937616 
L 478.869467 57.037179 
L 480.965686 57.689755 
L 481.36467 57.786968 
L 481.823605 57.959104 
L 482.464461 57.991458 
L 483.159066 57.467308 
L 483.516705 57.269459 
L 483.936362 57.026981 
L 484.480056 56.649002 
L 484.792214 56.43885 
L 485.120911 56.215244 
L 486.423295 56.078498 
L 486.801607 56.009317 
L 487.655392 55.896688 
L 487.996493 55.89432 
L 488.192884 55.889804 
L 488.478168 55.878115 
L 489.358828 55.949662 
L 489.68339 55.975345 
L 490.080307 56.11091 
L 490.551646 56.386534 
L 490.923756 56.348981 
L 491.566679 56.360281 
L 491.876771 56.39665 
L 492.697479 56.360489 
L 494.076353 56.896526 
L 494.49601 56.769135 
L 494.95908 56.585675 
L 495.517245 56.423408 
L 496.114687 56.477543 
L 496.509537 56.591386 
L 497.069769 56.882937 
L 497.979371 56.841049 
L 498.262588 56.827856 
L 499.23214 56.602808 
L 499.455406 56.467621 
L 499.935014 56.117794 
L 500.732983 56.092153 
L 501.181582 56.309713 
L 501.535086 56.431518 
L 503.848369 57.440815 
L 504.319708 57.415053 
L 504.602925 57.364397 
L 505.223107 57.232658 
L 505.744061 57.127837 
L 506.281553 56.993522 
L 506.635057 56.920212 
L 507.282115 56.579314 
L 507.654225 56.355621 
L 508.255802 56.155521 
L 509.057905 56.265876 
L 509.781452 56.338411 
L 510.817158 56.6261 
L 511.43734 56.903141 
L 511.69575 56.82288 
L 511.848728 56.87502 
L 512.082331 56.960948 
L 512.716985 56.80103 
L 512.991932 56.544535 
L 513.302024 56.394348 
L 513.465339 56.321217 
L 513.816776 56.153346 
L 515.383771 55.501762 
L 516.063905 55.543295 
L 517.031391 55.276972 
L 517.829359 55.181368 
L 518.189065 55.228202 
L 518.941554 55.401493 
L 521.657955 55.796285 
L 522.960339 55.869979 
L 523.289036 55.808299 
L 523.872008 55.67243 
L 524.405366 55.380266 
L 524.911848 55.123515 
L 525.589915 55.263355 
L 526.675235 55.801737 
L 527.059749 55.801927 
L 528.047907 55.911735 
L 528.283576 55.900211 
L 528.812799 55.750888 
L 530.371525 55.754657 
L 532.349909 54.991384 
L 533.061052 54.752745 
L 534.214592 54.884874 
L 534.578433 54.730293 
L 534.818237 54.657724 
L 535.223423 54.601856 
L 535.802261 54.589728 
L 536.308743 54.786154 
L 537.044694 54.915877 
L 538.202369 55.01527 
L 538.586882 55.042258 
L 539.996765 55.057827 
L 540.836079 55.665622 
L 541.197852 55.801403 
L 541.538953 55.783356 
L 542.192212 55.738111 
L 542.405142 55.755253 
L 543.469789 55.70685 
L 543.769544 55.652863 
L 544.185067 55.700331 
L 544.656406 55.771534 
L 545.956723 55.854898 
L 546.386716 55.756411 
L 546.812575 55.641187 
L 547.250838 55.614434 
L 550.155361 55.473216 
L 550.721795 55.506879 
L 550.95333 55.532275 
L 551.885672 55.572313 
L 552.421096 55.341335 
L 553.481609 55.089845 
L 554.407749 55.237419 
L 554.705437 55.243671 
L 555.726671 55.316322 
L 556.516371 55.11273 
L 557.459049 55.166817 
L 557.948993 54.991609 
L 558.798644 54.838364 
L 559.46224 54.599184 
L 559.819879 54.60152 
L 560.640587 54.641295 
L 561.145003 54.692002 
L 561.91403 54.728202 
L 562.881515 54.772503 
L 563.38593 54.81082 
L 563.706358 54.813527 
L 565.86046 53.77966 
L 566.174686 53.558411 
L 566.794869 53.397091 
L 567.133903 53.349982 
L 568.297779 53.452059 
L 568.539651 53.543328 
L 568.721571 53.533524 
L 569.066806 53.471242 
L 570.774376 53.460173 
L 571.388358 53.088731 
L 571.725324 52.997152 
L 572.554301 53.026445 
L 572.802375 52.9847 
L 573.062851 52.947972 
L 576.000451 52.472609 
L 576.635105 52.365461 
L 577.674945 52.437967 
L 578.599018 52.640825 
L 579.184057 52.556803 
L 579.669867 52.589079 
L 580.769658 52.556646 
L 581.121095 52.489742 
L 581.720605 52.38678 
L 582.030697 52.287807 
L 582.640543 52.19712 
L 584.157924 52.288925 
L 584.561043 52.300018 
L 584.988969 52.294198 
L 585.493385 52.355883 
L 585.941984 52.42346 
L 587.337395 52.281205 
L 588.393774 52.225909 
L 588.614972 52.18632 
L 589.144195 51.974202 
L 590.169564 51.942592 
L 590.678114 51.881596 
L 591.697281 51.846273 
L 592.470443 52.071162 
L 592.766063 52.158401 
L 593.028607 52.176815 
L 594.48397 52.335753 
L 594.785792 52.330374 
L 595.767749 52.233054 
L 596.21428 52.251215 
L 599.565336 52.017264 
L 602.411975 51.585899 
L 603.325711 51.586357 
L 603.720561 51.500736 
L 605.173857 51.579939 
L 605.42193 51.564063 
L 605.916009 51.474527 
L 606.178553 51.282899 
L 606.474173 51.093799 
L 608.400875 50.832399 
L 608.9363 50.749449 
L 609.147162 50.71917 
L 611.359148 50.613889 
L 611.359148 50.613889 
" clip-path="url(#p5c21df0079)" style="fill: none; stroke: #1f2937; stroke-linecap: square"/>
   </g>
   <g id="line2d_24">
    <path d="M 68.70125 50.613889 
L 637.2 50.613889 
" clip-path="url(#p5c21df0079)" style="fill: none; stroke-dasharray: 2.96,1.28; stroke-dashoffset: 0; stroke: #888888; stroke-width: 0.8"/>
   </g>
   <g id="patch_3">
    <path d="M 68.70125 282.04 
L 68.70125 26.88 
" style="fill: none; stroke: #000000; stroke-width: 0.8; stroke-linejoin: miter; stroke-linecap: square"/>
   </g>
   <g id="patch_4">
    <path d="M 637.2 282.04 
L 637.2 26.88 
" style="fill: none; stroke: #000000; stroke-width: 0.8; stroke-linejoin: miter; stroke-linecap: square"/>
   </g>
   <g id="patch_5">
    <path d="M 68.70125 282.04 
L 637.2 282.04 
" style="fill: none; stroke: #000000; stroke-width: 0.8; stroke-linejoin: miter; stroke-linecap: square"/>
   </g>
   <g id="patch_6">
    <path d="M 68.70125 26.88 
L 637.2 26.88 
" style="fill: none; stroke: #000000; stroke-width: 0.8; stroke-linejoin: miter; stroke-linecap: square"/>
   </g>
   <g id="text_14">
    <!-- Running mean — efficiency_gap  (canonical ReCom ensemble) -->
    <g transform="translate(164.949062 20.88) scale(0.12 -0.12)">
     <defs>
      <path id="DejaVuSans-2014" d="M 313 1978 
L 6088 1978 
L 6088 1528 
L 313 1528 
L 313 1978 
z
" transform="scale(0.015625)"/>
      <path id="DejaVuSans-28" d="M 1984 4856 
Q 1566 4138 1362 3434 
Q 1159 2731 1159 2009 
Q 1159 1288 1364 580 
Q 1569 -128 1984 -844 
L 1484 -844 
Q 1016 -109 783 600 
Q 550 1309 550 2009 
Q 550 2706 781 3412 
Q 1013 4119 1484 4856 
L 1984 4856 
z
" transform="scale(0.015625)"/>
      <path id="DejaVuSans-43" d="M 4122 4306 
L 4122 3641 
Q 3803 3938 3442 4084 
Q 3081 4231 2675 4231 
Q 1875 4231 1450 3742 
Q 1025 3253 1025 2328 
Q 1025 1406 1450 917 
Q 1875 428 2675 428 
Q 3081 428 3442 575 
Q 3803 722 4122 1019 
L 4122 359 
Q 3791 134 3420 21 
Q 3050 -91 2638 -91 
Q 1578 -91 968 557 
Q 359 1206 359 2328 
Q 359 3453 968 4101 
Q 1578 4750 2638 4750 
Q 3056 4750 3426 4639 
Q 3797 4528 4122 4306 
z
" transform="scale(0.015625)"/>
      <path id="DejaVuSans-73" d="M 2834 3397 
L 2834 2853 
Q 2591 2978 2328 3040 
Q 2066 3103 1784 3103 
Q 1356 3103 1142 2972 
Q 928 2841 928 2578 
Q 928 2378 1081 2264 
Q 1234 2150 1697 2047 
L 1894 2003 
Q 2506 1872 2764 1633 
Q 3022 1394 3022 966 
Q 3022 478 2636 193 
Q 2250 -91 1575 -91 
Q 1294 -91 989 -36 
Q 684 19 347 128 
L 347 722 
Q 666 556 975 473 
Q 1284 391 1588 391 
Q 1994 391 2212 530 
Q 2431 669 2431 922 
Q 2431 1156 2273 1281 
Q 2116 1406 1581 1522 
L 1381 1569 
Q 847 1681 609 1914 
Q 372 2147 372 2553 
Q 372 3047 722 3315 
Q 1072 3584 1716 3584 
Q 2034 3584 2315 3537 
Q 2597 3491 2834 3397 
z
" transform="scale(0.015625)"/>
      <path id="DejaVuSans-62" d="M 3116 1747 
Q 3116 2381 2855 2742 
Q 2594 3103 2138 3103 
Q 1681 3103 1420 2742 
Q 1159 2381 1159 1747 
Q 1159 1113 1420 752 
Q 1681 391 2138 391 
Q 2594 391 2855 752 
Q 3116 1113 3116 1747 
z
M 1159 2969 
Q 1341 3281 1617 3432 
Q 1894 3584 2278 3584 
Q 2916 3584 3314 3078 
Q 3713 2572 3713 1747 
Q 3713 922 3314 415 
Q 2916 -91 2278 -91 
Q 1894 -91 1617 61 
Q 1341 213 1159 525 
L 1159 0 
L 581 0 
L 581 4863 
L 1159 4863 
L 1159 2969 
z
" transform="scale(0.015625)"/>
      <path id="DejaVuSans-29" d="M 513 4856 
L 1013 4856 
Q 1481 4119 1714 3412 
Q 1947 2706 1947 2009 
Q 1947 1309 1714 600 
Q 1481 -109 1013 -844 
L 513 -844 
Q 928 -128 1133 580 
Q 1338 1288 1338 2009 
Q 1338 2731 1133 3434 
Q 928 4138 513 4856 
z
" transform="scale(0.015625)"/>
     </defs>
     <use xlink:href="#DejaVuSans-52"/>
     <use xlink:href="#DejaVuSans-75" transform="translate(64.982422 0)"/>
     <use xlink:href="#DejaVuSans-6e" transform="translate(128.361328 0)"/>
     <use xlink:href="#DejaVuSans-6e" transform="translate(191.740234 0)"/>
     <use xlink:href="#DejaVuSans-69" transform="translate(255.119141 0)"/>
     <use xlink:href="#DejaVuSans-6e" transform="translate(282.902344 0)"/>
     <use xlink:href="#DejaVuSans-67" transform="translate(346.28125 0)"/>
     <use xlink:href="#DejaVuSans-20" transform="translate(409.757812 0)"/>
     <use xlink:href="#DejaVuSans-6d" transform="translate(441.544922 0)"/>
     <use xlink:href="#DejaVuSans-65" transform="translate(538.957031 0)"/>
     <use xlink:href="#DejaVuSans-61" transform="translate(600.480469 0)"/>
     <use xlink:href="#DejaVuSans-6e" transform="translate(661.759766 0)"/>
     <use xlink:href="#DejaVuSans-20" transform="translate(725.138672 0)"/>
     <use xlink:href="#DejaVuSans-2014" transform="translate(756.925781 0)"/>
     <use xlink:href="#DejaVuSans-20" transform="translate(856.925781 0)"/>
     <use xlink:href="#DejaVuSans-65" transform="translate(888.712891 0)"/>
     <use xlink:href="#DejaVuSans-66" transform="translate(950.236328 0)"/>
     <use xlink:href="#DejaVuSans-66" transform="translate(985.441406 0)"/>
     <use xlink:href="#DejaVuSans-69" transform="translate(1020.646484 0)"/>
     <use xlink:href="#DejaVuSans-63" transform="translate(1048.429688 0)"/>
     <use xlink:href="#DejaVuSans-69" transform="translate(1103.410156 0)"/>
     <use xlink:href="#DejaVuSans-65" transform="translate(1131.193359 0)"/>
     <use xlink:href="#DejaVuSans-6e" transform="translate(1192.716797 0)"/>
     <use xlink:href="#DejaVuSans-63" transform="translate(1256.095703 0)"/>
     <use xlink:href="#DejaVuSans-79" transform="translate(1311.076172 0)"/>
     <use xlink:href="#DejaVuSans-5f" transform="translate(1370.255859 0)"/>
     <use xlink:href="#DejaVuSans-67" transform="translate(1420.255859 0)"/>
     <use xlink:href="#DejaVuSans-61" transform="translate(1483.732422 0)"/>
     <use xlink:href="#DejaVuSans-70" transform="translate(1545.011719 0)"/>
     <use xlink:href="#DejaVuSans-20" transform="translate(1608.488281 0)"/>
     <use xlink:href="#DejaVuSans-20" transform="translate(1640.275391 0)"/>
     <use xlink:href="#DejaVuSans-28" transform="translate(1672.0625 0)"/>
     <use xlink:href="#DejaVuSans-63" transform="translate(1711.076172 0)"/>
     <use xlink:href="#DejaVuSans-61" transform="translate(1766.056641 0)"/>
     <use xlink:href="#DejaVuSans-6e" transform="translate(1827.335938 0)"/>
     <use xlink:href="#DejaVuSans-6f" transform="translate(1890.714844 0)"/>
     <use xlink:href="#DejaVuSans-6e" transform="translate(1951.896484 0)"/>
     <use xlink:href="#DejaVuSans-69" transform="translate(2015.275391 0)"/>
     <use xlink:href="#DejaVuSans-63" transform="translate(2043.058594 0)"/>
     <use xlink:href="#DejaVuSans-61" transform="translate(2098.039062 0)"/>
     <use xlink:href="#DejaVuSans-6c" transform="translate(2159.318359 0)"/>
     <use xlink:href="#DejaVuSans-20" transform="translate(2187.101562 0)"/>
     <use xlink:href="#DejaVuSans-52" transform="translate(2218.888672 0)"/>
     <use xlink:href="#DejaVuSans-65" transform="translate(2283.871094 0)"/>
     <use xlink:href="#DejaVuSans-43" transform="translate(2345.394531 0)"/>
     <use xlink:href="#DejaVuSans-6f" transform="translate(2415.21875 0)"/>
     <use xlink:href="#DejaVuSans-6d" transform="translate(2476.400391 0)"/>
     <use xlink:href="#DejaVuSans-20" transform="translate(2573.8125 0)"/>
     <use xlink:href="#DejaVuSans-65" transform="translate(2605.599609 0)"/>
     <use xlink:href="#DejaVuSans-6e" transform="translate(2667.123047 0)"/>
     <use xlink:href="#DejaVuSans-73" transform="translate(2730.501953 0)"/>
     <use xlink:href="#DejaVuSans-65" transform="translate(2782.601562 0)"/>
     <use xlink:href="#DejaVuSans-6d" transform="translate(2844.125 0)"/>
     <use xlink:href="#DejaVuSans-62" transform="translate(2941.537109 0)"/>
     <use xlink:href="#DejaVuSans-6c" transform="translate(3005.013672 0)"/>
     <use xlink:href="#DejaVuSans-65" transform="translate(3032.796875 0)"/>
     <use xlink:href="#DejaVuSans-29" transform="translate(3094.320312 0)"/>
    </g>
   </g>
   <g id="legend_1">
    <g id="patch_7">
     <path d="M 496.306406 47.290312 
L 630.9 47.290312 
Q 632.7 47.290312 632.7 45.490312 
L 632.7 33.18 
Q 632.7 31.38 630.9 31.38 
L 496.306406 31.38 
Q 494.506406 31.38 494.506406 33.18 
L 494.506406 45.490312 
Q 494.506406 47.290312 496.306406 47.290312 
z
" style="fill: #ffffff; opacity: 0.8; stroke: #cccccc; stroke-linejoin: miter"/>
    </g>
    <g id="line2d_25">
     <path d="M 498.106406 38.668594 
L 507.106406 38.668594 
L 516.106406 38.668594 
" style="fill: none; stroke-dasharray: 2.96,1.28; stroke-dashoffset: 0; stroke: #888888; stroke-width: 0.8"/>
    </g>
    <g id="text_15">
     <!-- final mean = +0.01531 -->
     <g transform="translate(523.306406 41.818594) scale(0.09 -0.09)">
      <defs>
       <path id="DejaVuSans-3d" d="M 678 2906 
L 4684 2906 
L 4684 2381 
L 678 2381 
L 678 2906 
z
M 678 1631 
L 4684 1631 
L 4684 1100 
L 678 1100 
L 678 1631 
z
" transform="scale(0.015625)"/>
       <path id="DejaVuSans-2b" d="M 2944 4013 
L 2944 2272 
L 4684 2272 
L 4684 1741 
L 2944 1741 
L 2944 0 
L 2419 0 
L 2419 1741 
L 678 1741 
L 678 2272 
L 2419 2272 
L 2419 4013 
L 2944 4013 
z
" transform="scale(0.015625)"/>
       <path id="DejaVuSans-33" d="M 2597 2516 
Q 3050 2419 3304 2112 
Q 3559 1806 3559 1356 
Q 3559 666 3084 287 
Q 2609 -91 1734 -91 
Q 1441 -91 1130 -33 
Q 819 25 488 141 
L 488 750 
Q 750 597 1062 519 
Q 1375 441 1716 441 
Q 2309 441 2620 675 
Q 2931 909 2931 1356 
Q 2931 1769 2642 2001 
Q 2353 2234 1838 2234 
L 1294 2234 
L 1294 2753 
L 1863 2753 
Q 2328 2753 2575 2939 
Q 2822 3125 2822 3475 
Q 2822 3834 2567 4026 
Q 2313 4219 1838 4219 
Q 1578 4219 1281 4162 
Q 984 4106 628 3988 
L 628 4550 
Q 988 4650 1302 4700 
Q 1616 4750 1894 4750 
Q 2613 4750 3031 4423 
Q 3450 4097 3450 3541 
Q 3450 3153 3228 2886 
Q 3006 2619 2597 2516 
z
" transform="scale(0.015625)"/>
      </defs>
      <use xlink:href="#DejaVuSans-66"/>
      <use xlink:href="#DejaVuSans-69" transform="translate(35.205078 0)"/>
      <use xlink:href="#DejaVuSans-6e" transform="translate(62.988281 0)"/>
      <use xlink:href="#DejaVuSans-61" transform="translate(126.367188 0)"/>
      <use xlink:href="#DejaVuSans-6c" transform="translate(187.646484 0)"/>
      <use xlink:href="#DejaVuSans-20" transform="translate(215.429688 0)"/>
      <use xlink:href="#DejaVuSans-6d" transform="translate(247.216797 0)"/>
      <use xlink:href="#DejaVuSans-65" transform="translate(344.628906 0)"/>
      <use xlink:href="#DejaVuSans-61" transform="translate(406.152344 0)"/>
      <use xlink:href="#DejaVuSans-6e" transform="translate(467.431641 0)"/>
      <use xlink:href="#DejaVuSans-20" transform="translate(530.810547 0)"/>
      <use xlink:href="#DejaVuSans-3d" transform="translate(562.597656 0)"/>
      <use xlink:href="#DejaVuSans-20" transform="translate(646.386719 0)"/>
      <use xlink:href="#DejaVuSans-2b" transform="translate(678.173828 0)"/>
      <use xlink:href="#DejaVuSans-30" transform="translate(761.962891 0)"/>
      <use xlink:href="#DejaVuSans-2e" transform="translate(825.585938 0)"/>
      <use xlink:href="#DejaVuSans-30" transform="translate(857.373047 0)"/>
      <use xlink:href="#DejaVuSans-31" transform="translate(920.996094 0)"/>
      <use xlink:href="#DejaVuSans-35" transform="translate(984.619141 0)"/>
      <use xlink:href="#DejaVuSans-33" transform="translate(1048.242188 0)"/>
      <use xlink:href="#DejaVuSans-31" transform="translate(1111.865234 0)"/>
     </g>
    </g>
   </g>
  </g>
 </g>
 <defs>
  <clipPath id="p5c21df0079">
   <rect x="68.70125" y="26.88" width="568.49875" height="255.16"/>
  </clipPath>
 </defs>
</svg>
