<?xml version="1.0" encoding="utf-8" standalone="no"?>
<!DOCTYPE svg PUBLIC "-//W3C//DTD SVG 1.1//EN"
  "http://www.w3.org/Graphics/SVG/1.1/DTD/svg11.dtd">
<svg xmlns:xlink="http://www.w3.org/1999/xlink" width="648pt" height="324pt" viewBox="0 0 648 324" xmlns="http://www.w3.org/2000/svg" version="1.1">
 <metadata>
  <rdf:RDF xmlns:dc="http://purl.org/dc/elements/1.1/" xmlns:cc="http://creativecommons.org/ns#" xmlns:rdf="http://www.w3.org/1999/02/22-rdf-syntax-ns#">
   <cc:Work>
    <dc:type rdf:resource="http://purl.org/dc/dcmitype/StillImage"/>
    <dc:date>2026-05-18T20:46:15.250441</dc:date>
    <dc:format>image/svg+xml</dc:format>
    <dc:creator>
     <cc:Agent>
      <dc:title>Matplotlib v3.10.8, https://matplotlib.org/</dc:title>
     </cc:Agent>
    </dc:creator>
   </cc:Work>
  </rdf:RDF>
 </metadata>
 <defs>
  <style type="text/css">*{stroke-linejoin: round; stroke-linecap: butt}</style>
 </defs>
 <g id="figure_1">
  <g id="patch_1">
   <path d="M 0 324 
L 648 324 
L 648 0 
L 0 0 
z
" style="fill: #ffffff"/>
  </g>
  <g id="axes_1">
   <g id="patch_2">
    <path d="M 60.42125 282.04 
L 637.2 282.04 
L 637.2 26.88 
L 60.42125 26.88 
z
" style="fill: #ffffff"/>
   </g>
   <g id="matplotlib.axis_1">
    <g id="xtick_1">
     <g id="line2d_1">
      <path d="M 86.636369 282.04 
L 86.636369 26.88 
" clip-path="url(#p2930b5321b)" style="fill: none; stroke-dasharray: 0.5,0.825; stroke-dashoffset: 0; stroke: #b0b0b0; stroke-opacity: 0.6; stroke-width: 0.5"/>
     </g>
     <g id="line2d_2">
      <defs>
       <path id="md20ed6b622" d="M 0 0 
L 0 3.5 
" style="stroke: #000000; stroke-width: 0.8"/>
      </defs>
      <g>
       <use xlink:href="#md20ed6b622" x="86.636369" y="282.04" style="stroke: #000000; stroke-width: 0.8"/>
      </g>
     </g>
     <g id="text_1">
      <!-- 0 -->
      <g transform="translate(83.455119 296.638438) scale(0.1 -0.1)">
       <defs>
        <path id="DejaVuSans-30" d="M 2034 4250 
Q 1547 4250 1301 3770 
Q 1056 3291 1056 2328 
Q 1056 1369 1301 889 
Q 1547 409 2034 409 
Q 2525 409 2770 889 
Q 3016 1369 3016 2328 
Q 3016 3291 2770 3770 
Q 2525 4250 2034 4250 
z
M 2034 4750 
Q 2819 4750 3233 4129 
Q 3647 3509 3647 2328 
Q 3647 1150 3233 529 
Q 2819 -91 2034 -91 
Q 1250 -91 836 529 
Q 422 1150 422 2328 
Q 422 3509 836 4129 
Q 1250 4750 2034 4750 
z
" transform="scale(0.015625)"/>
       </defs>
       <use xlink:href="#DejaVuSans-30"/>
      </g>
     </g>
    </g>
    <g id="xtick_2">
     <g id="line2d_3">
      <path d="M 191.505652 282.04 
L 191.505652 26.88 
" clip-path="url(#p2930b5321b)" style="fill: none; stroke-dasharray: 0.5,0.825; stroke-dashoffset: 0; stroke: #b0b0b0; stroke-opacity: 0.6; stroke-width: 0.5"/>
     </g>
     <g id="line2d_4">
      <g>
       <use xlink:href="#md20ed6b622" x="191.505652" y="282.04" style="stroke: #000000; stroke-width: 0.8"/>
      </g>
     </g>
     <g id="text_2">
      <!-- 50000 -->
      <g transform="translate(175.599402 296.638438) scale(0.1 -0.1)">
       <defs>
        <path id="DejaVuSans-35" d="M 691 4666 
L 3169 4666 
L 3169 4134 
L 1269 4134 
L 1269 2991 
Q 1406 3038 1543 3061 
Q 1681 3084 1819 3084 
Q 2600 3084 3056 2656 
Q 3513 2228 3513 1497 
Q 3513 744 3044 326 
Q 2575 -91 1722 -91 
Q 1428 -91 1123 -41 
Q 819 9 494 109 
L 494 744 
Q 775 591 1075 516 
Q 1375 441 1709 441 
Q 2250 441 2565 725 
Q 2881 1009 2881 1497 
Q 2881 1984 2565 2268 
Q 2250 2553 1709 2553 
Q 1456 2553 1204 2497 
Q 953 2441 691 2322 
L 691 4666 
z
" transform="scale(0.015625)"/>
       </defs>
       <use xlink:href="#DejaVuSans-35"/>
       <use xlink:href="#DejaVuSans-30" transform="translate(63.623047 0)"/>
       <use xlink:href="#DejaVuSans-30" transform="translate(127.246094 0)"/>
       <use xlink:href="#DejaVuSans-30" transform="translate(190.869141 0)"/>
       <use xlink:href="#DejaVuSans-30" transform="translate(254.492188 0)"/>
      </g>
     </g>
    </g>
    <g id="xtick_3">
     <g id="line2d_5">
      <path d="M 296.374935 282.04 
L 296.374935 26.88 
" clip-path="url(#p2930b5321b)" style="fill: none; stroke-dasharray: 0.5,0.825; stroke-dashoffset: 0; stroke: #b0b0b0; stroke-opacity: 0.6; stroke-width: 0.5"/>
     </g>
     <g id="line2d_6">
      <g>
       <use xlink:href="#md20ed6b622" x="296.374935" y="282.04" style="stroke: #000000; stroke-width: 0.8"/>
      </g>
     </g>
     <g id="text_3">
      <!-- 100000 -->
      <g transform="translate(277.287435 296.638438) scale(0.1 -0.1)">
       <defs>
        <path id="DejaVuSans-31" d="M 794 531 
L 1825 531 
L 1825 4091 
L 703 3866 
L 703 4441 
L 1819 4666 
L 2450 4666 
L 2450 531 
L 3481 531 
L 3481 0 
L 794 0 
L 794 531 
z
" transform="scale(0.015625)"/>
       </defs>
       <use xlink:href="#DejaVuSans-31"/>
       <use xlink:href="#DejaVuSans-30" transform="translate(63.623047 0)"/>
       <use xlink:href="#DejaVuSans-30" transform="translate(127.246094 0)"/>
       <use xlink:href="#DejaVuSans-30" transform="translate(190.869141 0)"/>
       <use xlink:href="#DejaVuSans-30" transform="translate(254.492188 0)"/>
       <use xlink:href="#DejaVuSans-30" transform="translate(318.115234 0)"/>
      </g>
     </g>
    </g>
    <g id="xtick_4">
     <g id="line2d_7">
      <path d="M 401.244218 282.04 
L 401.244218 26.88 
" clip-path="url(#p2930b5321b)" style="fill: none; stroke-dasharray: 0.5,0.825; stroke-dashoffset: 0; stroke: #b0b0b0; stroke-opacity: 0.6; stroke-width: 0.5"/>
     </g>
     <g id="line2d_8">
      <g>
       <use xlink:href="#md20ed6b622" x="401.244218" y="282.04" style="stroke: #000000; stroke-width: 0.8"/>
      </g>
     </g>
     <g id="text_4">
      <!-- 150000 -->
      <g transform="translate(382.156718 296.638438) scale(0.1 -0.1)">
       <use xlink:href="#DejaVuSans-31"/>
       <use xlink:href="#DejaVuSans-35" transform="translate(63.623047 0)"/>
       <use xlink:href="#DejaVuSans-30" transform="translate(127.246094 0)"/>
       <use xlink:href="#DejaVuSans-30" transform="translate(190.869141 0)"/>
       <use xlink:href="#DejaVuSans-30" transform="translate(254.492188 0)"/>
       <use xlink:href="#DejaVuSans-30" transform="translate(318.115234 0)"/>
      </g>
     </g>
    </g>
    <g id="xtick_5">
     <g id="line2d_9">
      <path d="M 506.113501 282.04 
L 506.113501 26.88 
" clip-path="url(#p2930b5321b)" style="fill: none; stroke-dasharray: 0.5,0.825; stroke-dashoffset: 0; stroke: #b0b0b0; stroke-opacity: 0.6; stroke-width: 0.5"/>
     </g>
     <g id="line2d_10">
      <g>
       <use xlink:href="#md20ed6b622" x="506.113501" y="282.04" style="stroke: #000000; stroke-width: 0.8"/>
      </g>
     </g>
     <g id="text_5">
      <!-- 200000 -->
      <g transform="translate(487.026001 296.638438) scale(0.1 -0.1)">
       <defs>
        <path id="DejaVuSans-32" d="M 1228 531 
L 3431 531 
L 3431 0 
L 469 0 
L 469 531 
Q 828 903 1448 1529 
Q 2069 2156 2228 2338 
Q 2531 2678 2651 2914 
Q 2772 3150 2772 3378 
Q 2772 3750 2511 3984 
Q 2250 4219 1831 4219 
Q 1534 4219 1204 4116 
Q 875 4013 500 3803 
L 500 4441 
Q 881 4594 1212 4672 
Q 1544 4750 1819 4750 
Q 2544 4750 2975 4387 
Q 3406 4025 3406 3419 
Q 3406 3131 3298 2873 
Q 3191 2616 2906 2266 
Q 2828 2175 2409 1742 
Q 1991 1309 1228 531 
z
" transform="scale(0.015625)"/>
       </defs>
       <use xlink:href="#DejaVuSans-32"/>
       <use xlink:href="#DejaVuSans-30" transform="translate(63.623047 0)"/>
       <use xlink:href="#DejaVuSans-30" transform="translate(127.246094 0)"/>
       <use xlink:href="#DejaVuSans-30" transform="translate(190.869141 0)"/>
       <use xlink:href="#DejaVuSans-30" transform="translate(254.492188 0)"/>
       <use xlink:href="#DejaVuSans-30" transform="translate(318.115234 0)"/>
      </g>
     </g>
    </g>
    <g id="xtick_6">
     <g id="line2d_11">
      <path d="M 610.982784 282.04 
L 610.982784 26.88 
" clip-path="url(#p2930b5321b)" style="fill: none; stroke-dasharray: 0.5,0.825; stroke-dashoffset: 0; stroke: #b0b0b0; stroke-opacity: 0.6; stroke-width: 0.5"/>
     </g>
     <g id="line2d_12">
      <g>
       <use xlink:href="#md20ed6b622" x="610.982784" y="282.04" style="stroke: #000000; stroke-width: 0.8"/>
      </g>
     </g>
     <g id="text_6">
      <!-- 250000 -->
      <g transform="translate(591.895284 296.638438) scale(0.1 -0.1)">
       <use xlink:href="#DejaVuSans-32"/>
       <use xlink:href="#DejaVuSans-35" transform="translate(63.623047 0)"/>
       <use xlink:href="#DejaVuSans-30" transform="translate(127.246094 0)"/>
       <use xlink:href="#DejaVuSans-30" transform="translate(190.869141 0)"/>
       <use xlink:href="#DejaVuSans-30" transform="translate(254.492188 0)"/>
       <use xlink:href="#DejaVuSans-30" transform="translate(318.115234 0)"/>
      </g>
     </g>
    </g>
    <g id="text_7">
     <!-- Sample index -->
     <g transform="translate(314.792656 310.316563) scale(0.1 -0.1)">
      <defs>
       <path id="DejaVuSans-53" d="M 3425 4513 
L 3425 3897 
Q 3066 4069 2747 4153 
Q 2428 4238 2131 4238 
Q 1616 4238 1336 4038 
Q 1056 3838 1056 3469 
Q 1056 3159 1242 3001 
Q 1428 2844 1947 2747 
L 2328 2669 
Q 3034 2534 3370 2195 
Q 3706 1856 3706 1288 
Q 3706 609 3251 259 
Q 2797 -91 1919 -91 
Q 1588 -91 1214 -16 
Q 841 59 441 206 
L 441 856 
Q 825 641 1194 531 
Q 1563 422 1919 422 
Q 2459 422 2753 634 
Q 3047 847 3047 1241 
Q 3047 1584 2836 1778 
Q 2625 1972 2144 2069 
L 1759 2144 
Q 1053 2284 737 2584 
Q 422 2884 422 3419 
Q 422 4038 858 4394 
Q 1294 4750 2059 4750 
Q 2388 4750 2728 4690 
Q 3069 4631 3425 4513 
z
" transform="scale(0.015625)"/>
       <path id="DejaVuSans-61" d="M 2194 1759 
Q 1497 1759 1228 1600 
Q 959 1441 959 1056 
Q 959 750 1161 570 
Q 1363 391 1709 391 
Q 2188 391 2477 730 
Q 2766 1069 2766 1631 
L 2766 1759 
L 2194 1759 
z
M 3341 1997 
L 3341 0 
L 2766 0 
L 2766 531 
Q 2569 213 2275 61 
Q 1981 -91 1556 -91 
Q 1019 -91 701 211 
Q 384 513 384 1019 
Q 384 1609 779 1909 
Q 1175 2209 1959 2209 
L 2766 2209 
L 2766 2266 
Q 2766 2663 2505 2880 
Q 2244 3097 1772 3097 
Q 1472 3097 1187 3025 
Q 903 2953 641 2809 
L 641 3341 
Q 956 3463 1253 3523 
Q 1550 3584 1831 3584 
Q 2591 3584 2966 3190 
Q 3341 2797 3341 1997 
z
" transform="scale(0.015625)"/>
       <path id="DejaVuSans-6d" d="M 3328 2828 
Q 3544 3216 3844 3400 
Q 4144 3584 4550 3584 
Q 5097 3584 5394 3201 
Q 5691 2819 5691 2113 
L 5691 0 
L 5113 0 
L 5113 2094 
Q 5113 2597 4934 2840 
Q 4756 3084 4391 3084 
Q 3944 3084 3684 2787 
Q 3425 2491 3425 1978 
L 3425 0 
L 2847 0 
L 2847 2094 
Q 2847 2600 2669 2842 
Q 2491 3084 2119 3084 
Q 1678 3084 1418 2786 
Q 1159 2488 1159 1978 
L 1159 0 
L 581 0 
L 581 3500 
L 1159 3500 
L 1159 2956 
Q 1356 3278 1631 3431 
Q 1906 3584 2284 3584 
Q 2666 3584 2933 3390 
Q 3200 3197 3328 2828 
z
" transform="scale(0.015625)"/>
       <path id="DejaVuSans-70" d="M 1159 525 
L 1159 -1331 
L 581 -1331 
L 581 3500 
L 1159 3500 
L 1159 2969 
Q 1341 3281 1617 3432 
Q 1894 3584 2278 3584 
Q 2916 3584 3314 3078 
Q 3713 2572 3713 1747 
Q 3713 922 3314 415 
Q 2916 -91 2278 -91 
Q 1894 -91 1617 61 
Q 1341 213 1159 525 
z
M 3116 1747 
Q 3116 2381 2855 2742 
Q 2594 3103 2138 3103 
Q 1681 3103 1420 2742 
Q 1159 2381 1159 1747 
Q 1159 1113 1420 752 
Q 1681 391 2138 391 
Q 2594 391 2855 752 
Q 3116 1113 3116 1747 
z
" transform="scale(0.015625)"/>
       <path id="DejaVuSans-6c" d="M 603 4863 
L 1178 4863 
L 1178 0 
L 603 0 
L 603 4863 
z
" transform="scale(0.015625)"/>
       <path id="DejaVuSans-65" d="M 3597 1894 
L 3597 1613 
L 953 1613 
Q 991 1019 1311 708 
Q 1631 397 2203 397 
Q 2534 397 2845 478 
Q 3156 559 3463 722 
L 3463 178 
Q 3153 47 2828 -22 
Q 2503 -91 2169 -91 
Q 1331 -91 842 396 
Q 353 884 353 1716 
Q 353 2575 817 3079 
Q 1281 3584 2069 3584 
Q 2775 3584 3186 3129 
Q 3597 2675 3597 1894 
z
M 3022 2063 
Q 3016 2534 2758 2815 
Q 2500 3097 2075 3097 
Q 1594 3097 1305 2825 
Q 1016 2553 972 2059 
L 3022 2063 
z
" transform="scale(0.015625)"/>
       <path id="DejaVuSans-20" transform="scale(0.015625)"/>
       <path id="DejaVuSans-69" d="M 603 3500 
L 1178 3500 
L 1178 0 
L 603 0 
L 603 3500 
z
M 603 4863 
L 1178 4863 
L 1178 4134 
L 603 4134 
L 603 4863 
z
" transform="scale(0.015625)"/>
       <path id="DejaVuSans-6e" d="M 3513 2113 
L 3513 0 
L 2938 0 
L 2938 2094 
Q 2938 2591 2744 2837 
Q 2550 3084 2163 3084 
Q 1697 3084 1428 2787 
Q 1159 2491 1159 1978 
L 1159 0 
L 581 0 
L 581 3500 
L 1159 3500 
L 1159 2956 
Q 1366 3272 1645 3428 
Q 1925 3584 2291 3584 
Q 2894 3584 3203 3211 
Q 3513 2838 3513 2113 
z
" transform="scale(0.015625)"/>
       <path id="DejaVuSans-64" d="M 2906 2969 
L 2906 4863 
L 3481 4863 
L 3481 0 
L 2906 0 
L 2906 525 
Q 2725 213 2448 61 
Q 2172 -91 1784 -91 
Q 1150 -91 751 415 
Q 353 922 353 1747 
Q 353 2572 751 3078 
Q 1150 3584 1784 3584 
Q 2172 3584 2448 3432 
Q 2725 3281 2906 2969 
z
M 947 1747 
Q 947 1113 1208 752 
Q 1469 391 1925 391 
Q 2381 391 2643 752 
Q 2906 1113 2906 1747 
Q 2906 2381 2643 2742 
Q 2381 3103 1925 3103 
Q 1469 3103 1208 2742 
Q 947 2381 947 1747 
z
" transform="scale(0.015625)"/>
       <path id="DejaVuSans-78" d="M 3513 3500 
L 2247 1797 
L 3578 0 
L 2900 0 
L 1881 1375 
L 863 0 
L 184 0 
L 1544 1831 
L 300 3500 
L 978 3500 
L 1906 2253 
L 2834 3500 
L 3513 3500 
z
" transform="scale(0.015625)"/>
      </defs>
      <use xlink:href="#DejaVuSans-53"/>
      <use xlink:href="#DejaVuSans-61" transform="translate(63.476562 0)"/>
      <use xlink:href="#DejaVuSans-6d" transform="translate(124.755859 0)"/>
      <use xlink:href="#DejaVuSans-70" transform="translate(222.167969 0)"/>
      <use xlink:href="#DejaVuSans-6c" transform="translate(285.644531 0)"/>
      <use xlink:href="#DejaVuSans-65" transform="translate(313.427734 0)"/>
      <use xlink:href="#DejaVuSans-20" transform="translate(374.951172 0)"/>
      <use xlink:href="#DejaVuSans-69" transform="translate(406.738281 0)"/>
      <use xlink:href="#DejaVuSans-6e" transform="translate(434.521484 0)"/>
      <use xlink:href="#DejaVuSans-64" transform="translate(497.900391 0)"/>
      <use xlink:href="#DejaVuSans-65" transform="translate(561.376953 0)"/>
      <use xlink:href="#DejaVuSans-78" transform="translate(621.150391 0)"/>
     </g>
    </g>
   </g>
   <g id="matplotlib.axis_2">
    <g id="ytick_1">
     <g id="line2d_13">
      <path d="M 60.42125 237.636387 
L 637.2 237.636387 
" clip-path="url(#p2930b5321b)" style="fill: none; stroke-dasharray: 0.5,0.825; stroke-dashoffset: 0; stroke: #b0b0b0; stroke-opacity: 0.6; stroke-width: 0.5"/>
     </g>
     <g id="line2d_14">
      <defs>
       <path id="m0aac0e36a9" d="M 0 0 
L -3.5 0 
" style="stroke: #000000; stroke-width: 0.8"/>
      </defs>
      <g>
       <use xlink:href="#m0aac0e36a9" x="60.42125" y="237.636387" style="stroke: #000000; stroke-width: 0.8"/>
      </g>
     </g>
     <g id="text_8">
      <!-- 0.440 -->
      <g transform="translate(24.793125 241.435606) scale(0.1 -0.1)">
       <defs>
        <path id="DejaVuSans-2e" d="M 684 794 
L 1344 794 
L 1344 0 
L 684 0 
L 684 794 
z
" transform="scale(0.015625)"/>
        <path id="DejaVuSans-34" d="M 2419 4116 
L 825 1625 
L 2419 1625 
L 2419 4116 
z
M 2253 4666 
L 3047 4666 
L 3047 1625 
L 3713 1625 
L 3713 1100 
L 3047 1100 
L 3047 0 
L 2419 0 
L 2419 1100 
L 313 1100 
L 313 1709 
L 2253 4666 
z
" transform="scale(0.015625)"/>
       </defs>
       <use xlink:href="#DejaVuSans-30"/>
       <use xlink:href="#DejaVuSans-2e" transform="translate(63.623047 0)"/>
       <use xlink:href="#DejaVuSans-34" transform="translate(95.410156 0)"/>
       <use xlink:href="#DejaVuSans-34" transform="translate(159.033203 0)"/>
       <use xlink:href="#DejaVuSans-30" transform="translate(222.65625 0)"/>
      </g>
     </g>
    </g>
    <g id="ytick_2">
     <g id="line2d_15">
      <path d="M 60.42125 189.946229 
L 637.2 189.946229 
" clip-path="url(#p2930b5321b)" style="fill: none; stroke-dasharray: 0.5,0.825; stroke-dashoffset: 0; stroke: #b0b0b0; stroke-opacity: 0.6; stroke-width: 0.5"/>
     </g>
     <g id="line2d_16">
      <g>
       <use xlink:href="#m0aac0e36a9" x="60.42125" y="189.946229" style="stroke: #000000; stroke-width: 0.8"/>
      </g>
     </g>
     <g id="text_9">
      <!-- 0.445 -->
      <g transform="translate(24.793125 193.745448) scale(0.1 -0.1)">
       <use xlink:href="#DejaVuSans-30"/>
       <use xlink:href="#DejaVuSans-2e" transform="translate(63.623047 0)"/>
       <use xlink:href="#DejaVuSans-34" transform="translate(95.410156 0)"/>
       <use xlink:href="#DejaVuSans-34" transform="translate(159.033203 0)"/>
       <use xlink:href="#DejaVuSans-35" transform="translate(222.65625 0)"/>
      </g>
     </g>
    </g>
    <g id="ytick_3">
     <g id="line2d_17">
      <path d="M 60.42125 142.256072 
L 637.2 142.256072 
" clip-path="url(#p2930b5321b)" style="fill: none; stroke-dasharray: 0.5,0.825; stroke-dashoffset: 0; stroke: #b0b0b0; stroke-opacity: 0.6; stroke-width: 0.5"/>
     </g>
     <g id="line2d_18">
      <g>
       <use xlink:href="#m0aac0e36a9" x="60.42125" y="142.256072" style="stroke: #000000; stroke-width: 0.8"/>
      </g>
     </g>
     <g id="text_10">
      <!-- 0.450 -->
      <g transform="translate(24.793125 146.055291) scale(0.1 -0.1)">
       <use xlink:href="#DejaVuSans-30"/>
       <use xlink:href="#DejaVuSans-2e" transform="translate(63.623047 0)"/>
       <use xlink:href="#DejaVuSans-34" transform="translate(95.410156 0)"/>
       <use xlink:href="#DejaVuSans-35" transform="translate(159.033203 0)"/>
       <use xlink:href="#DejaVuSans-30" transform="translate(222.65625 0)"/>
      </g>
     </g>
    </g>
    <g id="ytick_4">
     <g id="line2d_19">
      <path d="M 60.42125 94.565914 
L 637.2 94.565914 
" clip-path="url(#p2930b5321b)" style="fill: none; stroke-dasharray: 0.5,0.825; stroke-dashoffset: 0; stroke: #b0b0b0; stroke-opacity: 0.6; stroke-width: 0.5"/>
     </g>
     <g id="line2d_20">
      <g>
       <use xlink:href="#m0aac0e36a9" x="60.42125" y="94.565914" style="stroke: #000000; stroke-width: 0.8"/>
      </g>
     </g>
     <g id="text_11">
      <!-- 0.455 -->
      <g transform="translate(24.793125 98.365133) scale(0.1 -0.1)">
       <use xlink:href="#DejaVuSans-30"/>
       <use xlink:href="#DejaVuSans-2e" transform="translate(63.623047 0)"/>
       <use xlink:href="#DejaVuSans-34" transform="translate(95.410156 0)"/>
       <use xlink:href="#DejaVuSans-35" transform="translate(159.033203 0)"/>
       <use xlink:href="#DejaVuSans-35" transform="translate(222.65625 0)"/>
      </g>
     </g>
    </g>
    <g id="ytick_5">
     <g id="line2d_21">
      <path d="M 60.42125 46.875757 
L 637.2 46.875757 
" clip-path="url(#p2930b5321b)" style="fill: none; stroke-dasharray: 0.5,0.825; stroke-dashoffset: 0; stroke: #b0b0b0; stroke-opacity: 0.6; stroke-width: 0.5"/>
     </g>
     <g id="line2d_22">
      <g>
       <use xlink:href="#m0aac0e36a9" x="60.42125" y="46.875757" style="stroke: #000000; stroke-width: 0.8"/>
      </g>
     </g>
     <g id="text_12">
      <!-- 0.460 -->
      <g transform="translate(24.793125 50.674975) scale(0.1 -0.1)">
       <defs>
        <path id="DejaVuSans-36" d="M 2113 2584 
Q 1688 2584 1439 2293 
Q 1191 2003 1191 1497 
Q 1191 994 1439 701 
Q 1688 409 2113 409 
Q 2538 409 2786 701 
Q 3034 994 3034 1497 
Q 3034 2003 2786 2293 
Q 2538 2584 2113 2584 
z
M 3366 4563 
L 3366 3988 
Q 3128 4100 2886 4159 
Q 2644 4219 2406 4219 
Q 1781 4219 1451 3797 
Q 1122 3375 1075 2522 
Q 1259 2794 1537 2939 
Q 1816 3084 2150 3084 
Q 2853 3084 3261 2657 
Q 3669 2231 3669 1497 
Q 3669 778 3244 343 
Q 2819 -91 2113 -91 
Q 1303 -91 875 529 
Q 447 1150 447 2328 
Q 447 3434 972 4092 
Q 1497 4750 2381 4750 
Q 2619 4750 2861 4703 
Q 3103 4656 3366 4563 
z
" transform="scale(0.015625)"/>
       </defs>
       <use xlink:href="#DejaVuSans-30"/>
       <use xlink:href="#DejaVuSans-2e" transform="translate(63.623047 0)"/>
       <use xlink:href="#DejaVuSans-34" transform="translate(95.410156 0)"/>
       <use xlink:href="#DejaVuSans-36" transform="translate(159.033203 0)"/>
       <use xlink:href="#DejaVuSans-30" transform="translate(222.65625 0)"/>
      </g>
     </g>
    </g>
    <g id="text_13">
     <!-- Running mean of seats_at_50_50 -->
     <g transform="translate(18.435313 237.273281) rotate(-90) scale(0.1 -0.1)">
      <defs>
       <path id="DejaVuSans-52" d="M 2841 2188 
Q 3044 2119 3236 1894 
Q 3428 1669 3622 1275 
L 4263 0 
L 3584 0 
L 2988 1197 
Q 2756 1666 2539 1819 
Q 2322 1972 1947 1972 
L 1259 1972 
L 1259 0 
L 628 0 
L 628 4666 
L 2053 4666 
Q 2853 4666 3247 4331 
Q 3641 3997 3641 3322 
Q 3641 2881 3436 2590 
Q 3231 2300 2841 2188 
z
M 1259 4147 
L 1259 2491 
L 2053 2491 
Q 2509 2491 2742 2702 
Q 2975 2913 2975 3322 
Q 2975 3731 2742 3939 
Q 2509 4147 2053 4147 
L 1259 4147 
z
" transform="scale(0.015625)"/>
       <path id="DejaVuSans-75" d="M 544 1381 
L 544 3500 
L 1119 3500 
L 1119 1403 
Q 1119 906 1312 657 
Q 1506 409 1894 409 
Q 2359 409 2629 706 
Q 2900 1003 2900 1516 
L 2900 3500 
L 3475 3500 
L 3475 0 
L 2900 0 
L 2900 538 
Q 2691 219 2414 64 
Q 2138 -91 1772 -91 
Q 1169 -91 856 284 
Q 544 659 544 1381 
z
M 1991 3584 
L 1991 3584 
z
" transform="scale(0.015625)"/>
       <path id="DejaVuSans-67" d="M 2906 1791 
Q 2906 2416 2648 2759 
Q 2391 3103 1925 3103 
Q 1463 3103 1205 2759 
Q 947 2416 947 1791 
Q 947 1169 1205 825 
Q 1463 481 1925 481 
Q 2391 481 2648 825 
Q 2906 1169 2906 1791 
z
M 3481 434 
Q 3481 -459 3084 -895 
Q 2688 -1331 1869 -1331 
Q 1566 -1331 1297 -1286 
Q 1028 -1241 775 -1147 
L 775 -588 
Q 1028 -725 1275 -790 
Q 1522 -856 1778 -856 
Q 2344 -856 2625 -561 
Q 2906 -266 2906 331 
L 2906 616 
Q 2728 306 2450 153 
Q 2172 0 1784 0 
Q 1141 0 747 490 
Q 353 981 353 1791 
Q 353 2603 747 3093 
Q 1141 3584 1784 3584 
Q 2172 3584 2450 3431 
Q 2728 3278 2906 2969 
L 2906 3500 
L 3481 3500 
L 3481 434 
z
" transform="scale(0.015625)"/>
       <path id="DejaVuSans-6f" d="M 1959 3097 
Q 1497 3097 1228 2736 
Q 959 2375 959 1747 
Q 959 1119 1226 758 
Q 1494 397 1959 397 
Q 2419 397 2687 759 
Q 2956 1122 2956 1747 
Q 2956 2369 2687 2733 
Q 2419 3097 1959 3097 
z
M 1959 3584 
Q 2709 3584 3137 3096 
Q 3566 2609 3566 1747 
Q 3566 888 3137 398 
Q 2709 -91 1959 -91 
Q 1206 -91 779 398 
Q 353 888 353 1747 
Q 353 2609 779 3096 
Q 1206 3584 1959 3584 
z
" transform="scale(0.015625)"/>
       <path id="DejaVuSans-66" d="M 2375 4863 
L 2375 4384 
L 1825 4384 
Q 1516 4384 1395 4259 
Q 1275 4134 1275 3809 
L 1275 3500 
L 2222 3500 
L 2222 3053 
L 1275 3053 
L 1275 0 
L 697 0 
L 697 3053 
L 147 3053 
L 147 3500 
L 697 3500 
L 697 3744 
Q 697 4328 969 4595 
Q 1241 4863 1831 4863 
L 2375 4863 
z
" transform="scale(0.015625)"/>
       <path id="DejaVuSans-73" d="M 2834 3397 
L 2834 2853 
Q 2591 2978 2328 3040 
Q 2066 3103 1784 3103 
Q 1356 3103 1142 2972 
Q 928 2841 928 2578 
Q 928 2378 1081 2264 
Q 1234 2150 1697 2047 
L 1894 2003 
Q 2506 1872 2764 1633 
Q 3022 1394 3022 966 
Q 3022 478 2636 193 
Q 2250 -91 1575 -91 
Q 1294 -91 989 -36 
Q 684 19 347 128 
L 347 722 
Q 666 556 975 473 
Q 1284 391 1588 391 
Q 1994 391 2212 530 
Q 2431 669 2431 922 
Q 2431 1156 2273 1281 
Q 2116 1406 1581 1522 
L 1381 1569 
Q 847 1681 609 1914 
Q 372 2147 372 2553 
Q 372 3047 722 3315 
Q 1072 3584 1716 3584 
Q 2034 3584 2315 3537 
Q 2597 3491 2834 3397 
z
" transform="scale(0.015625)"/>
       <path id="DejaVuSans-74" d="M 1172 4494 
L 1172 3500 
L 2356 3500 
L 2356 3053 
L 1172 3053 
L 1172 1153 
Q 1172 725 1289 603 
Q 1406 481 1766 481 
L 2356 481 
L 2356 0 
L 1766 0 
Q 1100 0 847 248 
Q 594 497 594 1153 
L 594 3053 
L 172 3053 
L 172 3500 
L 594 3500 
L 594 4494 
L 1172 4494 
z
" transform="scale(0.015625)"/>
       <path id="DejaVuSans-5f" d="M 3263 -1063 
L 3263 -1509 
L -63 -1509 
L -63 -1063 
L 3263 -1063 
z
" transform="scale(0.015625)"/>
      </defs>
      <use xlink:href="#DejaVuSans-52"/>
      <use xlink:href="#DejaVuSans-75" transform="translate(64.982422 0)"/>
      <use xlink:href="#DejaVuSans-6e" transform="translate(128.361328 0)"/>
      <use xlink:href="#DejaVuSans-6e" transform="translate(191.740234 0)"/>
      <use xlink:href="#DejaVuSans-69" transform="translate(255.119141 0)"/>
      <use xlink:href="#DejaVuSans-6e" transform="translate(282.902344 0)"/>
      <use xlink:href="#DejaVuSans-67" transform="translate(346.28125 0)"/>
      <use xlink:href="#DejaVuSans-20" transform="translate(409.757812 0)"/>
      <use xlink:href="#DejaVuSans-6d" transform="translate(441.544922 0)"/>
      <use xlink:href="#DejaVuSans-65" transform="translate(538.957031 0)"/>
      <use xlink:href="#DejaVuSans-61" transform="translate(600.480469 0)"/>
      <use xlink:href="#DejaVuSans-6e" transform="translate(661.759766 0)"/>
      <use xlink:href="#DejaVuSans-20" transform="translate(725.138672 0)"/>
      <use xlink:href="#DejaVuSans-6f" transform="translate(756.925781 0)"/>
      <use xlink:href="#DejaVuSans-66" transform="translate(818.107422 0)"/>
      <use xlink:href="#DejaVuSans-20" transform="translate(853.3125 0)"/>
      <use xlink:href="#DejaVuSans-73" transform="translate(885.099609 0)"/>
      <use xlink:href="#DejaVuSans-65" transform="translate(937.199219 0)"/>
      <use xlink:href="#DejaVuSans-61" transform="translate(998.722656 0)"/>
      <use xlink:href="#DejaVuSans-74" transform="translate(1060.001953 0)"/>
      <use xlink:href="#DejaVuSans-73" transform="translate(1099.210938 0)"/>
      <use xlink:href="#DejaVuSans-5f" transform="translate(1151.310547 0)"/>
      <use xlink:href="#DejaVuSans-61" transform="translate(1201.310547 0)"/>
      <use xlink:href="#DejaVuSans-74" transform="translate(1262.589844 0)"/>
      <use xlink:href="#DejaVuSans-5f" transform="translate(1301.798828 0)"/>
      <use xlink:href="#DejaVuSans-35" transform="translate(1351.798828 0)"/>
      <use xlink:href="#DejaVuSans-30" transform="translate(1415.421875 0)"/>
      <use xlink:href="#DejaVuSans-5f" transform="translate(1479.044922 0)"/>
      <use xlink:href="#DejaVuSans-35" transform="translate(1529.044922 0)"/>
      <use xlink:href="#DejaVuSans-30" transform="translate(1592.667969 0)"/>
     </g>
    </g>
   </g>
   <g id="line2d_23">
    <path d="M 86.638466 49.068408 
L 86.640563 49.068408 
L 86.745433 270.441818 
L 86.762212 270.160709 
L 87.11667 57.685813 
L 87.152325 47.285765 
L 87.257195 50.179548 
L 87.842365 132.961139 
L 87.993377 135.825538 
L 88.016448 134.375191 
L 88.542892 106.115926 
L 88.572255 106.913532 
L 88.595327 107.523448 
L 88.647761 105.999594 
L 88.838623 97.619964 
L 89.000122 91.481709 
L 89.125965 88.414208 
L 89.186789 90.090454 
L 89.329412 91.845593 
L 89.350386 91.515012 
L 89.505592 87.696249 
L 89.560124 89.88569 
L 89.857953 101.315168 
L 90.109639 105.473558 
L 90.157879 104.700885 
L 90.464097 98.26789 
L 90.740952 81.840528 
L 91.032489 69.362982 
L 91.049268 69.70267 
L 91.24852 75.940596 
L 91.407921 80.488372 
L 91.426797 80.364564 
L 91.466648 79.392303 
L 91.804327 72.561096 
L 91.808522 72.630958 
L 91.839982 73.151333 
L 91.886125 72.151249 
L 92.622307 53.678045 
L 92.672644 54.972871 
L 92.939012 65.30351 
L 93.066953 64.980503 
L 93.161335 64.503655 
L 93.910102 38.478182 
L 93.9919 38.595952 
L 94.048529 38.862095 
L 94.436546 46.886959 
L 94.753251 55.640695 
L 96.307414 74.60416 
L 96.33468 74.342693 
L 96.416478 73.543527 
L 96.46262 74.083817 
L 96.605243 76.05559 
L 96.663969 75.897539 
L 96.884195 75.006849 
L 97.089739 73.748929 
L 97.163147 73.292853 
L 97.320451 72.075316 
L 97.349814 72.31274 
L 97.544871 73.604513 
L 97.597306 73.424203 
L 97.729441 72.367137 
L 97.756707 72.806273 
L 98.079705 76.536826 
L 98.12375 76.851861 
L 98.22023 76.759409 
L 98.434163 75.536141 
L 98.480305 75.433026 
L 98.505474 75.648343 
L 99.071768 83.036191 
L 99.136787 84.110354 
L 99.31087 85.5884 
L 99.537388 87.513766 
L 100.007202 95.587002 
L 100.401511 97.979591 
L 100.60286 99.167798 
L 100.607054 99.152755 
L 100.946831 98.236749 
L 100.959415 98.289873 
L 101.689305 101.845396 
L 101.808856 102.323698 
L 101.834025 102.235502 
L 101.938894 101.465432 
L 102.163315 100.26383 
L 102.213652 100.098394 
L 102.266086 100.294995 
L 102.326911 100.521404 
L 102.387735 100.322718 
L 102.39193 100.309072 
L 102.425488 100.564248 
L 102.461143 100.811482 
L 102.524065 100.432884 
L 102.637324 99.42264 
L 102.687661 99.866396 
L 102.813504 100.921063 
L 102.878523 100.713491 
L 102.954029 100.122227 
L 103.457402 93.618591 
L 103.593732 93.314666 
L 103.597926 93.330837 
L 103.608413 93.371228 
L 103.671335 93.180592 
L 103.797178 92.548927 
L 104.413809 86.060985 
L 104.883624 80.887049 
L 105.00737 80.459939 
L 105.152089 79.606064 
L 105.191939 79.887458 
L 105.273738 80.393755 
L 105.340854 80.281352 
L 105.445723 79.899505 
L 105.510742 79.622739 
L 105.571566 79.791751 
L 105.626098 79.703524 
L 105.661754 79.851573 
L 105.858908 80.397119 
L 105.892466 80.342521 
L 105.993141 80.025436 
L 106.056062 80.280352 
L 106.14625 80.642864 
L 106.188198 80.375191 
L 106.444079 78.751849 
L 106.488124 78.99873 
L 106.710447 80.064716 
L 107.352247 83.022641 
L 107.778016 86.395679 
L 107.830451 86.303331 
L 107.866106 86.240794 
L 107.908054 86.383686 
L 108.163935 87.63847 
L 108.520491 90.435413 
L 108.595996 90.335061 
L 108.667308 90.556352 
L 108.751203 90.461348 
L 108.887533 90.207739 
L 108.925286 90.354702 
L 108.975623 90.611639 
L 109.051129 90.471697 
L 109.409782 89.57732 
L 109.575476 88.873733 
L 109.617423 88.941155 
L 109.946713 88.387764 
L 109.98866 88.514068 
L 110.127088 88.927669 
L 110.200496 88.803497 
L 110.32634 88.592421 
L 110.376677 88.721702 
L 110.779375 89.860363 
L 110.842296 89.754327 
L 110.861173 89.722624 
L 110.907315 89.853761 
L 111.010087 90.474246 
L 111.198852 91.401118 
L 111.230313 91.281519 
L 111.639303 90.443865 
L 111.714809 90.66771 
L 111.78612 91.180617 
L 112.136383 95.074761 
L 112.142676 95.063412 
L 112.945974 93.388133 
L 113.004701 93.271985 
L 113.055038 93.396651 
L 113.124252 93.862448 
L 113.30253 95.511769 
L 113.367549 95.286977 
L 113.401107 95.211845 
L 113.447249 95.475488 
L 113.898187 99.093845 
L 114.105829 101.528297 
L 114.137289 101.468283 
L 114.2086 101.466193 
L 114.172945 101.53404 
L 114.233769 101.518391 
L 114.485455 102.291136 
L 114.871374 104.006838 
L 114.881861 103.986441 
L 115.018191 103.479594 
L 115.064334 103.269949 
L 115.13145 103.473135 
L 115.395721 105.651658 
L 115.622238 106.740521 
L 115.701939 107.104514 
L 115.985086 108.048884 
L 116.062689 107.994924 
L 116.23048 108.686446 
L 116.910033 111.745959 
L 117.180596 112.357621 
L 117.247712 112.616975 
L 117.310634 112.5241 
L 117.333705 112.558805 
L 117.388237 112.446218 
L 117.402919 112.415975 
L 117.47423 112.523007 
L 117.491009 112.548119 
L 117.541346 112.429844 
L 118.021648 111.41624 
L 118.099251 111.532868 
L 119.093412 113.069727 
L 119.162625 112.933537 
L 119.441578 112.355426 
L 119.521278 112.46775 
L 119.718433 112.930947 
L 119.846373 113.252676 
L 119.884126 113.179794 
L 119.923976 113.109951 
L 119.970119 113.242042 
L 120.689522 116.066075 
L 120.739859 116.129004 
L 120.783904 116.015571 
L 120.899261 115.904263 
L 120.913942 115.922593 
L 121.058662 116.276124 
L 121.452971 117.516101 
L 121.534769 117.612634 
L 121.589301 117.505694 
L 121.895519 116.663514 
L 122.140913 115.574588 
L 122.658967 113.258503 
L 122.707207 113.319276 
L 122.824661 113.644481 
L 123.034399 114.245253 
L 123.06586 114.188966 
L 123.317546 113.930204 
L 123.328033 113.943 
L 123.332228 113.948116 
L 123.388857 113.848148 
L 123.539869 113.576833 
L 123.594401 113.705631 
L 123.789458 114.449362 
L 123.850282 114.305426 
L 124.154403 113.886934 
L 124.190059 113.929483 
L 124.192156 113.931984 
L 124.248786 113.834325 
L 124.269759 113.85322 
L 124.276052 113.84239 
L 124.336876 113.957457 
L 124.550809 115.301579 
L 125.073058 119.337091 
L 125.186317 119.745015 
L 125.232459 119.660519 
L 125.305868 119.52651 
L 125.385569 119.607086 
L 125.421224 119.643025 
L 125.475756 119.543936 
L 125.595307 119.097488 
L 125.737929 118.600952 
L 125.792461 118.709651 
L 125.888941 118.966112 
L 125.998005 119.344932 
L 126.069316 119.217843 
L 126.157407 119.084756 
L 126.228718 119.15611 
L 126.33149 119.414896 
L 126.60415 120.511363 
L 126.610442 120.500117 
L 126.748869 120.253608 
L 126.830667 120.331851 
L 126.851641 120.351862 
L 126.883102 120.233293 
L 127.094938 119.792482 
L 127.222878 119.348586 
L 127.392767 119.095125 
L 127.491344 118.92616 
L 127.550071 119.039454 
L 128.107975 120.659741 
L 128.28835 120.128891 
L 128.571497 119.221393 
L 128.602958 119.25099 
L 128.720412 119.508616 
L 128.97839 120.437088 
L 129.058091 120.303003 
L 129.257343 119.754182 
L 129.525808 118.65229 
L 129.624385 118.679939 
L 129.853 118.098869 
L 130.335399 116.573852 
L 130.492703 116.127244 
L 130.675175 114.940875 
L 131.092555 112.191431 
L 131.51413 110.998986 
L 131.732258 110.510768 
L 131.832932 110.109351 
L 131.897951 110.179154 
L 132.262896 110.622693 
L 132.350986 110.50408 
L 132.455856 110.363469 
L 132.499901 110.485094 
L 132.79773 111.114979 
L 133.080877 111.563514 
L 133.227694 112.442475 
L 133.445822 113.301546 
L 133.726871 114.612576 
L 134.010018 116.133219 
L 134.026798 116.109474 
L 134.192491 115.69699 
L 134.282679 115.937649 
L 134.333016 115.98278 
L 134.395937 115.894623 
L 135.023056 114.828927 
L 135.291521 114.272315 
L 135.585155 113.693266 
L 136.271 111.660646 
L 136.354896 111.555028 
L 136.417817 111.646951 
L 136.457668 111.744587 
L 136.5122 111.593075 
L 136.518492 111.599017 
L 136.621264 111.847669 
L 136.684185 111.94333 
L 136.72823 111.82837 
L 137.225311 110.511723 
L 137.386809 110.144025 
L 137.921643 108.731433 
L 138.164939 108.39618 
L 138.234153 108.530505 
L 138.359996 108.817056 
L 138.406139 108.710503 
L 138.913706 107.42767 
L 139.266067 107.198604 
L 139.293333 107.225272 
L 139.366741 107.14431 
L 139.482098 107.017536 
L 139.559701 107.093322 
L 139.658278 107.341055 
L 139.939328 108.547968 
L 140.287494 109.743465 
L 140.375584 109.973476 
L 140.597907 110.285026 
L 140.700679 110.521667 
L 141.136935 112.122416 
L 141.296336 112.397073 
L 141.548023 113.069929 
L 142.273718 114.789249 
L 142.810649 115.352238 
L 142.879862 115.450555 
L 142.938589 115.381314 
L 143.496494 114.552724 
L 143.886608 113.38756 
L 143.955821 113.486404 
L 144.492752 114.923448 
L 144.587134 114.87571 
L 144.99193 115.317626 
L 145.260395 115.712413 
L 145.619048 116.110257 
L 146.202121 117.395734 
L 146.225193 117.369279 
L 146.317478 117.097994 
L 146.506242 116.729874 
L 147.139653 116.021525 
L 147.187893 116.120083 
L 147.515085 117.04391 
L 147.745797 117.490917 
L 147.79194 117.439291 
L 148.0646 117.300518 
L 148.490369 118.288102 
L 148.557485 118.220502 
L 148.645576 118.148222 
L 148.813366 118.120825 
L 149.631347 120.042113 
L 149.692171 119.955417 
L 149.807527 119.989771 
L 149.971123 120.213203 
L 150.141012 120.623939 
L 150.17457 120.586146 
L 150.239589 120.552804 
L 150.275244 120.635603 
L 150.696819 121.38504 
L 150.711501 121.36847 
L 151.130978 121.062229 
L 151.300866 121.289127 
L 152.185963 123.029071 
L 152.471207 123.309365 
L 152.620121 123.904991 
L 153.356304 126.44291 
L 153.38357 126.411303 
L 153.643646 125.966984 
L 153.790463 126.103607 
L 154.20994 127.25195 
L 154.585372 128.22096 
L 154.820279 128.447376 
L 155.973841 133.089406 
L 156.17519 133.547138 
L 156.254891 133.688232 
L 157.337142 137.889341 
L 158.10898 141.495365 
L 158.163512 141.424899 
L 158.272576 141.329227 
L 158.310329 141.412165 
L 158.861941 142.849506 
L 159.858199 144.359003 
L 160.017601 144.499831 
L 160.242021 144.846154 
L 160.447565 144.772586 
L 160.493707 144.715908 
L 160.552434 144.817234 
L 160.917379 145.606712 
L 161.097754 145.749602 
L 161.248766 145.78506 
L 161.452212 145.930826 
L 161.896858 146.446233 
L 162.289069 146.619186 
L 163.000083 148.435982 
L 163.088173 148.550071 
L 163.157387 148.478119 
L 163.237088 148.377688 
L 163.469897 147.894219 
L 163.744655 147.225977 
L 164.153645 147.176766 
L 164.644433 146.179268 
L 164.734621 146.30561 
L 164.959041 146.625902 
L 165.099566 146.536166 
L 165.384811 146.358313 
L 165.598744 146.281096 
L 165.89867 146.087307 
L 166.647437 146.096142 
L 167.066914 145.761637 
L 167.373132 145.921787 
L 167.631111 146.112956 
L 167.876505 146.040594 
L 168.121899 145.917874 
L 168.279203 146.052345 
L 168.5225 146.238753 
L 168.528792 146.231287 
L 168.595908 146.174165 
L 168.648343 146.257876 
L 168.696583 146.34365 
L 168.749017 146.214325 
L 169.212539 145.346005 
L 169.724302 144.919051 
L 169.864826 145.050069 
L 170.101831 145.383609 
L 170.508724 146.180215 
L 170.684904 146.395232 
L 170.697488 146.380662 
L 170.735241 146.369787 
L 170.787676 146.445783 
L 170.825429 146.456741 
L 170.882058 146.391277 
L 171.865732 145.089964 
L 172.157269 144.434607 
L 172.333449 144.07219 
L 172.641765 143.35999 
L 172.683713 143.255234 
L 173.019294 143.05171 
L 173.250007 142.981894 
L 173.474427 142.73654 
L 173.514277 142.709455 
L 173.568809 142.793549 
L 173.667387 142.89347 
L 173.719821 142.818493 
L 174.191733 141.998043 
L 174.296602 142.128196 
L 174.525217 142.4277 
L 174.657353 142.56446 
L 174.864994 142.969911 
L 174.909039 142.923057 
L 175.045369 142.617075 
L 175.915784 140.893746 
L 176.156983 140.831275 
L 176.555487 140.199567 
L 176.557584 140.202555 
L 176.63309 140.19508 
L 176.656161 140.153845 
L 177.151144 139.320411 
L 177.256013 139.22358 
L 177.316838 139.310181 
L 177.518187 139.403743 
L 178.036241 139.623814 
L 178.923435 141.628564 
L 179.080739 141.769546 
L 179.252725 142.193259 
L 179.571527 142.955038 
L 179.781266 143.185517 
L 180.471306 143.92694 
L 180.674752 143.848869 
L 180.865614 143.813065 
L 180.995652 143.945679 
L 181.469661 144.387984 
L 181.681497 144.308598 
L 181.836704 144.310323 
L 182.270863 144.265052 
L 182.426069 143.954775 
L 182.843449 143.323238 
L 183.053187 142.963186 
L 183.422327 142.441145 
L 183.514612 142.383055 
L 183.552365 142.467707 
L 183.791467 142.815335 
L 183.808246 142.799147 
L 184.080906 142.633627 
L 184.106075 142.666085 
L 184.309521 142.784236 
L 184.324203 142.770151 
L 184.689148 142.57383 
L 184.819186 142.482775 
L 185.135891 142.334159 
L 185.303682 142.250129 
L 185.536492 142.181905 
L 185.756718 142.107255 
L 185.955969 141.770118 
L 186.274772 141.371968 
L 186.58938 141.23097 
L 186.836871 141.386566 
L 187.178745 142.168136 
L 187.449308 142.520425 
L 187.661144 142.66133 
L 187.684215 142.639961 
L 187.849908 142.63672 
L 188.156127 142.57419 
L 188.890212 141.349719 
L 189.280325 141.303656 
L 189.716582 140.203933 
L 189.93471 139.532899 
L 189.980852 139.590408 
L 190.064748 139.610355 
L 190.106695 139.573649 
L 190.226246 139.322696 
L 190.677184 138.692821 
L 190.786248 138.455461 
L 191.188946 137.605337 
L 191.386101 137.293818 
L 191.58745 137.098266 
L 191.604229 137.119244 
L 192.149549 137.793035 
L 192.22925 137.723889 
L 192.311048 137.70096 
L 192.344606 137.74243 
L 192.539663 138.158829 
L 193.118541 139.235773 
L 193.131126 139.225118 
L 193.351351 139.170502 
L 193.357643 139.178117 
L 193.726783 139.498779 
L 193.749854 139.479301 
L 193.867308 139.523943 
L 194.251129 139.481231 
L 194.672704 138.930487 
L 195.062818 138.462959 
L 195.222219 137.942091 
L 195.507463 137.284717 
L 196.178627 136.882759 
L 196.457579 137.051243 
L 196.956757 137.818266 
L 197.334286 138.647664 
L 197.455935 138.557631 
L 197.468519 138.555769 
L 197.512564 138.650873 
L 197.814588 139.040393 
L 197.934139 139.17101 
L 198.154364 139.593096 
L 198.231967 139.55075 
L 198.498335 139.707353 
L 198.55916 139.742328 
L 198.603205 139.663532 
L 198.789872 139.553751 
L 198.913618 139.462215 
L 199.129649 139.429664 
L 199.364556 139.645244 
L 199.419088 139.593293 
L 199.647703 139.522074 
L 199.958116 139.195167 
L 200.100738 139.108225 
L 200.432125 138.704572 
L 200.715272 138.254326 
L 200.99003 138.190848 
L 201.210255 138.158022 
L 201.751381 138.606148 
L 202.034528 138.545861 
L 202.288311 138.327644 
L 202.590335 138.231981 
L 202.68262 138.224482 
L 202.701496 138.192151 
L 203.104194 137.722106 
L 203.36427 137.656564 
L 203.827792 137.166865 
L 204.226296 136.277759 
L 204.498956 135.875066 
L 204.557683 135.775286 
L 204.750642 135.583019 
L 205.304352 134.853807 
L 205.312741 134.863243 
L 205.635739 135.059341 
L 206.267052 135.07262 
L 206.6299 134.948609 
L 207.011624 135.136633 
L 207.338816 135.333861 
L 207.569528 135.304286 
L 207.863162 135.249046 
L 208.104362 135.212322 
L 208.330879 135.367523 
L 208.538521 135.43179 
L 208.836349 135.085821 
L 209.010432 135.014191 
L 209.138373 135.151552 
L 209.616577 135.508627 
L 209.824218 135.659714 
L 210.329688 136.042012 
L 210.776431 135.595656 
L 211.208493 134.824855 
L 211.835611 134.448566 
L 211.864974 134.505666 
L 212.039057 134.601597 
L 212.294938 134.762294 
L 212.471119 134.788501 
L 213.022731 134.781886 
L 213.337339 134.701537 
L 213.49674 134.619314 
L 213.7694 134.567867 
L 213.916217 134.563186 
L 214.132248 134.551783 
L 214.327305 134.70032 
L 214.560115 135.089117 
L 214.578991 135.076426 
L 215.189331 134.798655 
L 215.300492 134.706715 
L 215.520717 134.51935 
L 215.541691 134.541123 
L 215.990532 134.847156 
L 216.099596 134.975594 
L 216.472931 135.672523 
L 216.741396 136.105324 
L 216.999374 136.352883 
L 217.244768 136.507546 
L 217.456604 136.879203 
L 217.607616 136.925432 
L 217.760725 136.84038 
L 217.892861 136.839613 
L 218.144547 136.993356 
L 218.645822 137.680211 
L 219.021254 137.896146 
L 219.93152 137.153267 
L 220.327925 136.515421 
L 220.529274 136.516154 
L 220.640436 136.424738 
L 220.791448 136.348687 
L 220.814519 136.364526 
L 221.571675 136.379096 
L 221.678642 136.306532 
L 221.724784 136.351629 
L 221.911452 136.379069 
L 222.247033 136.546217 
L 222.404337 136.544787 
L 222.603589 136.288068 
L 223.306213 134.4937 
L 223.776027 134.014936 
L 223.962695 133.93798 
L 224.18292 133.817141 
L 224.579326 133.443578 
L 225.237905 132.70754 
L 226.016035 132.36763 
L 226.162852 132.283274 
L 226.297085 132.277383 
L 226.320156 132.316317 
L 226.649446 132.483476 
L 226.802555 132.623668 
L 227.209448 132.864359 
L 227.580685 132.819842 
L 228.304283 132.262216 
L 228.562262 131.85177 
L 228.822337 131.82649 
L 228.988031 131.831926 
L 229.227133 131.82054 
L 229.476722 131.754824 
L 229.738895 131.730277 
L 230.047211 131.676024 
L 230.366013 131.368009 
L 230.584141 131.080363 
L 230.724666 130.872713 
L 231.093806 130.358056 
L 231.284668 130.288946 
L 231.540549 130.27247 
L 231.813209 130.422479 
L 231.832086 130.397649 
L 232.264147 130.012668 
L 232.415159 130.055005 
L 233.495313 130.15453 
L 233.91479 129.547315 
L 234.208424 129.513392 
L 234.495766 129.632319 
L 234.867003 129.593431 
L 235.387154 129.435516 
L 236.058318 129.913216 
L 236.244985 129.938376 
L 236.536522 129.88387 
L 236.93922 129.551076 
L 237.574728 129.08577 
L 238.243794 128.42172 
L 238.336079 128.327973 
L 239.326045 126.624398 
L 239.678406 126.367706 
L 240.13983 126.011018 
L 240.546723 125.691073 
L 240.731293 125.475443 
L 241.087849 125.218662 
L 241.228374 125.362141 
L 241.484255 125.568697 
L 241.748525 125.675548 
L 241.754817 125.667994 
L 242.07362 125.456153 
L 242.688154 125.475085 
L 242.941938 125.47313 
L 243.239766 125.423263 
L 243.483063 125.181677 
L 243.967559 124.779215 
L 244.626138 124.58296 
L 245.093855 124.860703 
L 245.406366 124.588416 
L 245.911836 123.883886 
L 246.192885 123.727604 
L 246.855659 123.539318 
L 247.214312 123.730977 
L 248.005027 124.391088 
L 248.051169 124.338216 
L 248.177012 124.360715 
L 248.875442 124.620515 
L 249.355743 125.16483 
L 249.596942 125.229988 
L 250.421215 124.966027 
L 250.624661 125.120054 
L 250.901516 125.214446 
L 251.073502 125.136203 
L 251.646088 124.993482 
L 251.74886 124.904444 
L 251.979572 124.719356 
L 252.669612 124.281691 
L 252.998902 124.080295 
L 253.44984 124.286915 
L 255.224228 125.673433 
L 255.836665 125.905776 
L 256.121909 126.001671 
L 256.457491 126.178672 
L 256.700788 126.240072 
L 256.841312 126.296593 
L 257.239816 126.687673 
L 257.772552 126.675808 
L 257.980193 126.70254 
L 258.135399 126.687253 
L 258.84851 126.486012 
L 259.618251 126.517703 
L 259.815405 126.550359 
L 260.077578 126.711647 
L 260.37331 126.811098 
L 260.834735 126.725289 
L 261.208069 126.681712 
L 262.569273 125.38459 
L 262.799985 125.315969 
L 263.527778 124.708482 
L 263.748003 124.637798 
L 264.194747 124.327226 
L 264.618418 124.046015 
L 264.832352 123.976647 
L 265.423815 123.206673 
L 265.792954 122.64834 
L 266.661272 122.172099 
L 267.328241 121.652837 
L 267.623972 121.414809 
L 267.877756 121.195517 
L 267.886145 121.202327 
L 268.129442 121.25893 
L 268.481803 121.23538 
L 268.664275 121.303254 
L 269.471769 120.863495 
L 270.264581 120.231702 
L 271.474772 121.065771 
L 271.913126 121.267751 
L 272.338895 121.465016 
L 273.041519 121.493117 
L 273.67493 121.36587 
L 274.44467 121.40625 
L 274.618753 121.390635 
L 275.057107 121.365163 
L 275.684225 121.00857 
L 276.01771 120.560134 
L 276.470745 120.279295 
L 276.646925 120.202376 
L 276.915391 119.983585 
L 277.831948 119.265997 
L 278.310152 119.254015 
L 279.784614 117.227732 
L 279.929334 117.294471 
L 280.145364 117.401299 
L 280.889936 117.255384 
L 281.105967 117.187914 
L 281.305219 117.235129 
L 281.647093 117.363242 
L 281.777131 117.391967 
L 282.144173 117.8153 
L 282.490242 118.093002 
L 282.830018 118.275842 
L 283.129944 118.365632 
L 283.385825 118.392379 
L 283.832568 118.370589 
L 284.048599 118.412394 
L 284.317065 118.583428 
L 284.516316 118.512269 
L 284.700886 118.493995 
L 284.933696 118.531923 
L 285.038565 118.378151 
L 285.334297 118.031973 
L 286.28651 117.325292 
L 287.517675 116.787913 
L 288.098651 116.422561 
L 289.034085 115.993113 
L 289.954837 115.044267 
L 290.252666 114.707226 
L 290.470794 114.753177 
L 290.772818 114.841853 
L 291.120984 114.845686 
L 291.680986 115.078724 
L 292.14241 115.489963 
L 292.412973 115.433918 
L 292.851327 115.40881 
L 293.06526 115.42917 
L 293.583314 115.42527 
L 293.822416 115.465224 
L 294.382418 115.468873 
L 295.076653 115.363549 
L 295.334631 115.530605 
L 295.594707 115.681173 
L 296.154709 115.683116 
L 296.427369 115.597634 
L 296.672764 115.639236 
L 296.86782 115.566532 
L 297.639658 115.207772 
L 298.008798 114.894278 
L 299.864984 114.201554 
L 300.578096 113.433086 
L 300.752179 113.582651 
L 301.236675 114.00596 
L 302.090311 113.86287 
L 302.574807 114.281862 
L 302.975407 114.046314 
L 303.201925 113.93057 
L 303.550091 113.942007 
L 303.938107 114.082245 
L 304.244326 113.978077 
L 304.743504 113.713551 
L 305.328674 113.133668 
L 305.54051 112.957176 
L 305.987253 112.560792 
L 306.425607 112.355697 
L 306.622761 112.184 
L 306.87235 112.04252 
L 307.180666 112.068128 
L 307.352651 112.054459 
L 307.639993 112.087015 
L 308.533479 112.58455 
L 308.892132 112.596893 
L 309.63251 112.637569 
L 310.175732 112.597269 
L 310.54697 112.561772 
L 311.176185 112.214878 
L 311.494988 112.168299 
L 312.803757 111.30193 
L 313.076417 111.246287 
L 313.581887 110.993308 
L 314.070578 110.564019 
L 314.546684 110.344752 
L 314.836123 110.51894 
L 315.180095 110.623652 
L 315.574403 110.403134 
L 315.750583 110.410165 
L 317.222948 110.833194 
L 317.801827 111.094312 
L 318.546399 111.135117 
L 319.087524 110.871927 
L 319.343405 110.917602 
L 319.553144 110.926077 
L 319.878238 111.105053 
L 320.241086 111.352222 
L 320.408877 111.597684 
L 321.679893 113.433322 
L 321.931579 113.594126 
L 324.509266 116.323635 
L 325.178332 116.620826 
L 326.445153 116.377116 
L 327.395269 117.109542 
L 327.816843 117.555976 
L 328.320216 117.753938 
L 328.498494 117.734684 
L 328.915873 117.731229 
L 329.316474 117.687053 
L 329.706588 117.461513 
L 330.040072 117.127857 
L 330.518276 116.879379 
L 331.839629 116.054457 
L 332.387047 116.476938 
L 332.993191 116.721766 
L 333.479785 116.692735 
L 333.777613 116.725681 
L 335.524736 116.910394 
L 335.778519 116.954809 
L 336.292379 117.333622 
L 336.955153 117.331083 
L 337.13343 117.396325 
L 337.471109 117.587603 
L 338.045793 117.570914 
L 338.310064 117.518169 
L 338.612087 117.457113 
L 339.30003 116.839533 
L 339.746773 116.801678 
L 340.256438 116.779801 
L 340.428423 116.696768 
L 340.579435 116.726274 
L 341.575693 117.193358 
L 341.875619 116.999794 
L 342.381089 116.597596 
L 342.60551 116.603069 
L 342.930604 116.51292 
L 343.161317 116.566101 
L 343.364763 116.557395 
L 343.838772 116.54745 
L 344.002368 116.515278 
L 344.342145 116.540561 
L 344.669337 116.706304 
L 345.453759 117.295566 
L 346.261253 117.952205 
L 346.470991 118.097487 
L 346.674438 118.086809 
L 347.2659 117.815489 
L 347.735715 117.627498 
L 348.769726 117.901797 
L 348.91864 117.860086 
L 349.436695 117.641356 
L 349.992502 117.611014 
L 350.147708 117.572388 
L 350.472803 117.601277 
L 350.867112 117.834915 
L 351.037 118.059459 
L 351.982921 119.192231 
L 352.163296 119.107358 
L 353.415435 118.394212 
L 353.662927 118.542654 
L 353.931392 118.649228 
L 354.728399 118.968998 
L 355.049299 118.999366 
L 357.54309 119.480268 
L 357.81575 119.503592 
L 358.044365 119.425623 
L 358.386239 119.329495 
L 358.713431 119.4884 
L 358.983994 119.639647 
L 360.716435 121.129887 
L 360.949245 121.129082 
L 361.297411 121.15243 
L 362.060859 121.368383 
L 362.681685 121.57396 
L 363.206031 121.360007 
L 363.862513 121.337288 
L 364.068057 121.398123 
L 364.403639 121.451468 
L 365.024465 121.17689 
L 365.926341 121.186915 
L 366.368889 121.187079 
L 366.647841 121.113591 
L 368.164251 119.997793 
L 368.969647 119.045364 
L 369.722609 118.697596 
L 370.691601 118.345122 
L 371.211753 118.147392 
L 371.664788 118.323178 
L 371.920669 118.406949 
L 372.451307 118.369931 
L 372.684117 118.35372 
L 373.034381 118.514664 
L 373.332209 118.545985 
L 373.54824 118.606674 
L 373.766368 118.655552 
L 374.19004 118.602603 
L 374.336857 118.68141 
L 374.653562 118.818026 
L 375.943455 118.391797 
L 376.750948 118.02289 
L 377.12638 117.820579 
L 377.440988 117.664756 
L 377.761888 117.475407 
L 379.183915 116.226418 
L 379.622269 115.832416 
L 380.094181 115.526811 
L 380.681449 115.724864 
L 381.079952 115.808019 
L 381.264522 115.878594 
L 381.488942 115.871415 
L 381.769992 115.830394 
L 383.03891 116.361473 
L 384.267978 116.425063 
L 387.019748 115.688601 
L 387.959377 115.26566 
L 388.374659 115.061006 
L 389.073089 114.782398 
L 389.37721 114.603214 
L 390.069347 114.074827 
L 390.503506 113.819253 
L 390.74051 113.742325 
L 391.331973 113.503583 
L 392.047182 113.221686 
L 392.789656 113.474684 
L 396.657235 114.158305 
L 397.083005 114.246058 
L 397.875816 114.471594 
L 398.725258 114.768805 
L 399.335597 114.753811 
L 399.528556 114.725061 
L 400.589834 114.257029 
L 401.447664 114.489157 
L 401.75598 114.682732 
L 402.06849 114.711763 
L 402.659953 114.475399 
L 403.077333 114.248159 
L 403.410817 114.066303 
L 403.698159 113.957357 
L 404.413368 113.947349 
L 404.769923 113.877526 
L 405.401236 114.078108 
L 405.978017 114.234309 
L 406.588357 114.207739 
L 407.311955 113.948176 
L 407.525888 113.906354 
L 407.838398 114.059466 
L 408.090085 114.238198 
L 408.662671 114.205865 
L 409.587618 113.829916 
L 411.462681 113.567218 
L 413.014746 113.894572 
L 413.417444 113.963157 
L 413.880966 113.984366 
L 414.516474 114.161505 
L 415.46659 114.086009 
L 415.846217 114.025702 
L 416.825696 113.944434 
L 417.360529 114.073129 
L 418.444878 113.374905 
L 418.790946 113.224139 
L 419.212521 113.170471 
L 420.334622 112.709611 
L 420.626159 112.541838 
L 420.995299 112.374795 
L 421.471405 112.32873 
L 422.127887 112.091855 
L 422.4383 112.056193 
L 422.85568 112.002621 
L 423.442948 112.004851 
L 423.71351 112.008225 
L 425.125051 112.315027 
L 425.896889 112.779778 
L 426.603708 112.982793 
L 426.79457 113.059821 
L 427.365059 113.441272 
L 427.637719 113.635925 
L 428.39907 113.625303 
L 428.749333 113.569962 
L 429.21705 113.659769 
L 429.548437 113.710002 
L 429.812708 113.707796 
L 430.962075 113.746461 
L 432.272941 113.612928 
L 434.116543 113.742299 
L 434.630403 113.607815 
L 434.854823 113.748473 
L 435.13797 113.824584 
L 435.5952 113.852414 
L 435.798647 113.868009 
L 435.966438 113.947468 
L 437.004643 114.8965 
L 438.642702 114.475854 
L 439.452292 113.949717 
L 440.006002 113.646331 
L 441.482562 113.041948 
L 441.74893 112.881942 
L 442.101291 112.743001 
L 442.365561 112.737713 
L 443.103841 112.254936 
L 443.336651 112.210473 
L 443.917627 112.344638 
L 444.186092 112.336999 
L 445.822053 112.43806 
L 446.484827 112.24211 
L 447.34056 112.203795 
L 447.812472 112.287468 
L 448.366182 112.303211 
L 449.540718 112.565526 
L 449.834352 112.57117 
L 450.480346 112.569651 
L 450.899823 112.843713 
L 451.359151 113.159952 
L 451.826868 113.597327 
L 452.286195 113.792964 
L 452.65953 113.839397 
L 454.639462 114.555012 
L 455.289652 114.551786 
L 455.493098 114.562423 
L 456.105535 114.39349 
L 456.455798 114.419289 
L 456.715874 114.485824 
L 456.860593 114.45342 
L 457.3367 114.227397 
L 457.953331 114.058503 
L 458.44412 114.00673 
L 458.905544 113.792821 
L 459.228542 113.8083 
L 459.643824 113.735607 
L 459.861952 113.650373 
L 460.438733 113.438152 
L 461.021807 113.134606 
L 461.37207 113.06552 
L 461.816716 113.101831 
L 462.47949 113.496097 
L 462.741663 113.545949 
L 464.149009 113.417045 
L 465.124293 113.422555 
L 466.896584 113.233881 
L 467.490144 113.416436 
L 467.894939 113.461501 
L 468.775841 112.944207 
L 469.476368 112.746843 
L 469.719665 112.727409 
L 469.931501 112.753417 
L 470.225135 112.754421 
L 470.808208 112.612872 
L 471.470982 112.391102 
L 472.04986 112.251844 
L 472.324618 112.173447 
L 473.062898 112.164157 
L 473.302 112.142386 
L 473.792788 111.646682 
L 474.298258 111.173014 
L 476.009725 110.536262 
L 477.597446 110.620703 
L 478.287485 110.400118 
L 479.290036 110.08365 
L 479.543819 110.066479 
L 480.160451 110.031667 
L 480.584123 109.866293 
L 481.540531 109.830263 
L 482.064877 110.301535 
L 483.616942 111.218269 
L 484.466384 111.208102 
L 484.825037 111.172921 
L 485.336799 111.494031 
L 485.810808 111.677393 
L 486.540698 111.651671 
L 486.878377 111.548888 
L 487.415308 111.501327 
L 488.178756 111.294436 
L 488.638084 111.111227 
L 488.969471 111.090415 
L 489.393142 111.029168 
L 490.112546 110.842895 
L 490.464907 110.773619 
L 491.112999 110.618468 
L 491.970829 110.83482 
L 492.272853 110.901071 
L 495.244848 111.362978 
L 495.704176 111.658402 
L 496.081705 111.935962 
L 496.610247 112.107865 
L 497.13669 112.190024 
L 497.461785 112.337651 
L 497.906431 112.493447 
L 499.276024 112.758263 
L 499.653553 112.869851 
L 500.003817 112.797989 
L 501.04412 112.22019 
L 501.721575 112.184704 
L 502.650717 112.155388 
L 502.998883 112.082753 
L 503.634391 111.784347 
L 504.320236 112.09095 
L 506.975526 112.498623 
L 507.898376 112.722652 
L 509.437857 112.602368 
L 509.922353 112.662737 
L 510.404752 112.60391 
L 511.010896 112.475774 
L 511.711423 112.662306 
L 512.074271 112.83507 
L 512.986634 113.28594 
L 513.643116 113.715477 
L 514.737951 113.995419 
L 515.70904 113.48406 
L 516.094959 113.446521 
L 516.589942 113.38738 
L 516.843726 113.40449 
L 517.206574 113.418096 
L 518.211221 113.131903 
L 518.561485 113.057592 
L 519.085831 112.846012 
L 520.040142 112.817526 
L 521.074153 113.071229 
L 522.23191 112.788679 
L 522.569589 112.773606 
L 522.9618 112.795919 
L 523.339329 112.94723 
L 523.559555 112.991343 
L 523.91611 113.051225 
L 525.457689 113.481452 
L 525.719862 113.496407 
L 528.352081 113.655946 
L 528.731708 113.71231 
L 529.249762 113.653791 
L 529.541299 113.658004 
L 530.153735 113.608735 
L 530.533362 113.664911 
L 531.017858 113.716082 
L 531.412167 113.644811 
L 532.13157 113.652535 
L 532.857266 114.022101 
L 533.125731 114.10201 
L 533.530526 114.154757 
L 534.352702 114.554985 
L 535.174877 115.095749 
L 535.829261 115.202272 
L 536.454282 115.374153 
L 536.695481 115.387665 
L 537.205146 115.423901 
L 538.255936 115.664611 
L 538.711069 115.606211 
L 539.136838 115.633039 
L 540.758117 115.506284 
L 541.443962 115.619956 
L 542.203216 115.580713 
L 543.170111 115.551157 
L 544.363523 115.833959 
L 544.766221 115.797356 
L 545.057758 115.713788 
L 545.286373 115.701124 
L 547.574621 115.804841 
L 548.027656 115.750277 
L 548.333874 115.818108 
L 548.765936 115.844767 
L 549.46856 115.85468 
L 549.850284 115.863679 
L 551.286993 115.768493 
L 551.48205 115.675209 
L 551.874261 115.564196 
L 552.849546 115.536557 
L 553.709474 115.727288 
L 554.110074 115.741487 
L 554.867231 115.69997 
L 556.006111 115.649501 
L 557.329561 115.964002 
L 557.595929 116.036997 
L 558.04477 116.159565 
L 558.315333 116.232717 
L 558.747394 116.345614 
L 559.236085 116.500831 
L 559.56118 116.488998 
L 560.614067 116.694348 
L 562.226957 117.094021 
L 562.753401 117.13085 
L 563.13093 117.274777 
L 564.016027 117.632401 
L 565.071012 117.849361 
L 565.320601 117.759217 
L 565.819779 117.691499 
L 566.528695 117.70129 
L 567.099184 117.764329 
L 567.862632 117.940607 
L 568.223383 118.143983 
L 568.85889 118.086806 
L 569.255296 117.979137 
L 571.050658 117.610762 
L 571.421896 117.449181 
L 571.70714 117.297571 
L 572.682425 116.642162 
L 574.316288 116.163047 
L 574.937114 116.370644 
L 575.704757 116.493975 
L 576.273149 116.406312 
L 577.456074 116.657225 
L 579.119301 116.910806 
L 579.960353 117.053367 
L 580.673464 117.066939 
L 582.309425 117.316151 
L 583.014146 117.562055 
L 583.536395 117.602053 
L 583.842614 117.579268 
L 585.057 117.790643 
L 585.424042 117.925856 
L 586.040674 117.95272 
L 586.778954 118.059765 
L 587.080977 118.13024 
L 589.266453 118.19685 
L 589.560087 117.975434 
L 590.289977 117.3962 
L 591.65957 116.741475 
L 592.328636 116.827001 
L 594.065271 116.705672 
L 594.300179 116.702004 
L 595.300631 116.894909 
L 595.583779 116.96425 
L 597.362362 116.839011 
L 598.373301 116.810724 
L 599.908588 116.395747 
L 601.083124 116.353327 
L 602.488372 116.357695 
L 602.779909 116.208313 
L 603.13227 116.138468 
L 603.448975 116.116054 
L 604.749354 115.788449 
L 605.275798 115.942846 
L 605.735125 116.051555 
L 606.030857 116.067427 
L 606.511158 116.092662 
L 607.037602 115.91307 
L 607.381573 115.849047 
L 607.687791 115.823039 
L 608.115658 115.794283 
L 608.533038 115.801281 
L 608.986073 115.678693 
L 610.001208 115.873297 
L 610.4081 116.026417 
L 610.682858 115.99175 
L 610.982784 115.825419 
L 610.982784 115.825419 
" clip-path="url(#p2930b5321b)" style="fill: none; stroke: #1f2937; stroke-linecap: square"/>
   </g>
   <g id="line2d_24">
    <path d="M 60.42125 115.825419 
L 637.2 115.825419 
" clip-path="url(#p2930b5321b)" style="fill: none; stroke-dasharray: 2.96,1.28; stroke-dashoffset: 0; stroke: #888888; stroke-width: 0.8"/>
   </g>
   <g id="patch_3">
    <path d="M 60.42125 282.04 
L 60.42125 26.88 
" style="fill: none; stroke: #000000; stroke-width: 0.8; stroke-linejoin: miter; stroke-linecap: square"/>
   </g>
   <g id="patch_4">
    <path d="M 637.2 282.04 
L 637.2 26.88 
" style="fill: none; stroke: #000000; stroke-width: 0.8; stroke-linejoin: miter; stroke-linecap: square"/>
   </g>
   <g id="patch_5">
    <path d="M 60.42125 282.04 
L 637.2 282.04 
" style="fill: none; stroke: #000000; stroke-width: 0.8; stroke-linejoin: miter; stroke-linecap: square"/>
   </g>
   <g id="patch_6">
    <path d="M 60.42125 26.88 
L 637.2 26.88 
" style="fill: none; stroke: #000000; stroke-width: 0.8; stroke-linejoin: miter; stroke-linecap: square"/>
   </g>
   <g id="text_14">
    <!-- Running mean — seats_at_50_50  (canonical ReCom ensemble) -->
    <g transform="translate(157.726562 20.88) scale(0.12 -0.12)">
     <defs>
      <path id="DejaVuSans-2014" d="M 313 1978 
L 6088 1978 
L 6088 1528 
L 313 1528 
L 313 1978 
z
" transform="scale(0.015625)"/>
      <path id="DejaVuSans-28" d="M 1984 4856 
Q 1566 4138 1362 3434 
Q 1159 2731 1159 2009 
Q 1159 1288 1364 580 
Q 1569 -128 1984 -844 
L 1484 -844 
Q 1016 -109 783 600 
Q 550 1309 550 2009 
Q 550 2706 781 3412 
Q 1013 4119 1484 4856 
L 1984 4856 
z
" transform="scale(0.015625)"/>
      <path id="DejaVuSans-63" d="M 3122 3366 
L 3122 2828 
Q 2878 2963 2633 3030 
Q 2388 3097 2138 3097 
Q 1578 3097 1268 2742 
Q 959 2388 959 1747 
Q 959 1106 1268 751 
Q 1578 397 2138 397 
Q 2388 397 2633 464 
Q 2878 531 3122 666 
L 3122 134 
Q 2881 22 2623 -34 
Q 2366 -91 2075 -91 
Q 1284 -91 818 406 
Q 353 903 353 1747 
Q 353 2603 823 3093 
Q 1294 3584 2113 3584 
Q 2378 3584 2631 3529 
Q 2884 3475 3122 3366 
z
" transform="scale(0.015625)"/>
      <path id="DejaVuSans-43" d="M 4122 4306 
L 4122 3641 
Q 3803 3938 3442 4084 
Q 3081 4231 2675 4231 
Q 1875 4231 1450 3742 
Q 1025 3253 1025 2328 
Q 1025 1406 1450 917 
Q 1875 428 2675 428 
Q 3081 428 3442 575 
Q 3803 722 4122 1019 
L 4122 359 
Q 3791 134 3420 21 
Q 3050 -91 2638 -91 
Q 1578 -91 968 557 
Q 359 1206 359 2328 
Q 359 3453 968 4101 
Q 1578 4750 2638 4750 
Q 3056 4750 3426 4639 
Q 3797 4528 4122 4306 
z
" transform="scale(0.015625)"/>
      <path id="DejaVuSans-62" d="M 3116 1747 
Q 3116 2381 2855 2742 
Q 2594 3103 2138 3103 
Q 1681 3103 1420 2742 
Q 1159 2381 1159 1747 
Q 1159 1113 1420 752 
Q 1681 391 2138 391 
Q 2594 391 2855 752 
Q 3116 1113 3116 1747 
z
M 1159 2969 
Q 1341 3281 1617 3432 
Q 1894 3584 2278 3584 
Q 2916 3584 3314 3078 
Q 3713 2572 3713 1747 
Q 3713 922 3314 415 
Q 2916 -91 2278 -91 
Q 1894 -91 1617 61 
Q 1341 213 1159 525 
L 1159 0 
L 581 0 
L 581 4863 
L 1159 4863 
L 1159 2969 
z
" transform="scale(0.015625)"/>
      <path id="DejaVuSans-29" d="M 513 4856 
L 1013 4856 
Q 1481 4119 1714 3412 
Q 1947 2706 1947 2009 
Q 1947 1309 1714 600 
Q 1481 -109 1013 -844 
L 513 -844 
Q 928 -128 1133 580 
Q 1338 1288 1338 2009 
Q 1338 2731 1133 3434 
Q 928 4138 513 4856 
z
" transform="scale(0.015625)"/>
     </defs>
     <use xlink:href="#DejaVuSans-52"/>
     <use xlink:href="#DejaVuSans-75" transform="translate(64.982422 0)"/>
     <use xlink:href="#DejaVuSans-6e" transform="translate(128.361328 0)"/>
     <use xlink:href="#DejaVuSans-6e" transform="translate(191.740234 0)"/>
     <use xlink:href="#DejaVuSans-69" transform="translate(255.119141 0)"/>
     <use xlink:href="#DejaVuSans-6e" transform="translate(282.902344 0)"/>
     <use xlink:href="#DejaVuSans-67" transform="translate(346.28125 0)"/>
     <use xlink:href="#DejaVuSans-20" transform="translate(409.757812 0)"/>
     <use xlink:href="#DejaVuSans-6d" transform="translate(441.544922 0)"/>
     <use xlink:href="#DejaVuSans-65" transform="translate(538.957031 0)"/>
     <use xlink:href="#DejaVuSans-61" transform="translate(600.480469 0)"/>
     <use xlink:href="#DejaVuSans-6e" transform="translate(661.759766 0)"/>
     <use xlink:href="#DejaVuSans-20" transform="translate(725.138672 0)"/>
     <use xlink:href="#DejaVuSans-2014" transform="translate(756.925781 0)"/>
     <use xlink:href="#DejaVuSans-20" transform="translate(856.925781 0)"/>
     <use xlink:href="#DejaVuSans-73" transform="translate(888.712891 0)"/>
     <use xlink:href="#DejaVuSans-65" transform="translate(940.8125 0)"/>
     <use xlink:href="#DejaVuSans-61" transform="translate(1002.335938 0)"/>
     <use xlink:href="#DejaVuSans-74" transform="translate(1063.615234 0)"/>
     <use xlink:href="#DejaVuSans-73" transform="translate(1102.824219 0)"/>
     <use xlink:href="#DejaVuSans-5f" transform="translate(1154.923828 0)"/>
     <use xlink:href="#DejaVuSans-61" transform="translate(1204.923828 0)"/>
     <use xlink:href="#DejaVuSans-74" transform="translate(1266.203125 0)"/>
     <use xlink:href="#DejaVuSans-5f" transform="translate(1305.412109 0)"/>
     <use xlink:href="#DejaVuSans-35" transform="translate(1355.412109 0)"/>
     <use xlink:href="#DejaVuSans-30" transform="translate(1419.035156 0)"/>
     <use xlink:href="#DejaVuSans-5f" transform="translate(1482.658203 0)"/>
     <use xlink:href="#DejaVuSans-35" transform="translate(1532.658203 0)"/>
     <use xlink:href="#DejaVuSans-30" transform="translate(1596.28125 0)"/>
     <use xlink:href="#DejaVuSans-20" transform="translate(1659.904297 0)"/>
     <use xlink:href="#DejaVuSans-20" transform="translate(1691.691406 0)"/>
     <use xlink:href="#DejaVuSans-28" transform="translate(1723.478516 0)"/>
     <use xlink:href="#DejaVuSans-63" transform="translate(1762.492188 0)"/>
     <use xlink:href="#DejaVuSans-61" transform="translate(1817.472656 0)"/>
     <use xlink:href="#DejaVuSans-6e" transform="translate(1878.751953 0)"/>
     <use xlink:href="#DejaVuSans-6f" transform="translate(1942.130859 0)"/>
     <use xlink:href="#DejaVuSans-6e" transform="translate(2003.3125 0)"/>
     <use xlink:href="#DejaVuSans-69" transform="translate(2066.691406 0)"/>
     <use xlink:href="#DejaVuSans-63" transform="translate(2094.474609 0)"/>
     <use xlink:href="#DejaVuSans-61" transform="translate(2149.455078 0)"/>
     <use xlink:href="#DejaVuSans-6c" transform="translate(2210.734375 0)"/>
     <use xlink:href="#DejaVuSans-20" transform="translate(2238.517578 0)"/>
     <use xlink:href="#DejaVuSans-52" transform="translate(2270.304688 0)"/>
     <use xlink:href="#DejaVuSans-65" transform="translate(2335.287109 0)"/>
     <use xlink:href="#DejaVuSans-43" transform="translate(2396.810547 0)"/>
     <use xlink:href="#DejaVuSans-6f" transform="translate(2466.634766 0)"/>
     <use xlink:href="#DejaVuSans-6d" transform="translate(2527.816406 0)"/>
     <use xlink:href="#DejaVuSans-20" transform="translate(2625.228516 0)"/>
     <use xlink:href="#DejaVuSans-65" transform="translate(2657.015625 0)"/>
     <use xlink:href="#DejaVuSans-6e" transform="translate(2718.539062 0)"/>
     <use xlink:href="#DejaVuSans-73" transform="translate(2781.917969 0)"/>
     <use xlink:href="#DejaVuSans-65" transform="translate(2834.017578 0)"/>
     <use xlink:href="#DejaVuSans-6d" transform="translate(2895.541016 0)"/>
     <use xlink:href="#DejaVuSans-62" transform="translate(2992.953125 0)"/>
     <use xlink:href="#DejaVuSans-6c" transform="translate(3056.429688 0)"/>
     <use xlink:href="#DejaVuSans-65" transform="translate(3084.212891 0)"/>
     <use xlink:href="#DejaVuSans-29" transform="translate(3145.736328 0)"/>
    </g>
   </g>
   <g id="legend_1">
    <g id="patch_7">
     <path d="M 496.306406 47.290312 
L 630.9 47.290312 
Q 632.7 47.290312 632.7 45.490312 
L 632.7 33.18 
Q 632.7 31.38 630.9 31.38 
L 496.306406 31.38 
Q 494.506406 31.38 494.506406 33.18 
L 494.506406 45.490312 
Q 494.506406 47.290312 496.306406 47.290312 
z
" style="fill: #ffffff; opacity: 0.8; stroke: #cccccc; stroke-linejoin: miter"/>
    </g>
    <g id="line2d_25">
     <path d="M 498.106406 38.668594 
L 507.106406 38.668594 
L 516.106406 38.668594 
" style="fill: none; stroke-dasharray: 2.96,1.28; stroke-dashoffset: 0; stroke: #888888; stroke-width: 0.8"/>
    </g>
    <g id="text_15">
     <!-- final mean = +0.45277 -->
     <g transform="translate(523.306406 41.818594) scale(0.09 -0.09)">
      <defs>
       <path id="DejaVuSans-3d" d="M 678 2906 
L 4684 2906 
L 4684 2381 
L 678 2381 
L 678 2906 
z
M 678 1631 
L 4684 1631 
L 4684 1100 
L 678 1100 
L 678 1631 
z
" transform="scale(0.015625)"/>
       <path id="DejaVuSans-2b" d="M 2944 4013 
L 2944 2272 
L 4684 2272 
L 4684 1741 
L 2944 1741 
L 2944 0 
L 2419 0 
L 2419 1741 
L 678 1741 
L 678 2272 
L 2419 2272 
L 2419 4013 
L 2944 4013 
z
" transform="scale(0.015625)"/>
       <path id="DejaVuSans-37" d="M 525 4666 
L 3525 4666 
L 3525 4397 
L 1831 0 
L 1172 0 
L 2766 4134 
L 525 4134 
L 525 4666 
z
" transform="scale(0.015625)"/>
      </defs>
      <use xlink:href="#DejaVuSans-66"/>
      <use xlink:href="#DejaVuSans-69" transform="translate(35.205078 0)"/>
      <use xlink:href="#DejaVuSans-6e" transform="translate(62.988281 0)"/>
      <use xlink:href="#DejaVuSans-61" transform="translate(126.367188 0)"/>
      <use xlink:href="#DejaVuSans-6c" transform="translate(187.646484 0)"/>
      <use xlink:href="#DejaVuSans-20" transform="translate(215.429688 0)"/>
      <use xlink:href="#DejaVuSans-6d" transform="translate(247.216797 0)"/>
      <use xlink:href="#DejaVuSans-65" transform="translate(344.628906 0)"/>
      <use xlink:href="#DejaVuSans-61" transform="translate(406.152344 0)"/>
      <use xlink:href="#DejaVuSans-6e" transform="translate(467.431641 0)"/>
      <use xlink:href="#DejaVuSans-20" transform="translate(530.810547 0)"/>
      <use xlink:href="#DejaVuSans-3d" transform="translate(562.597656 0)"/>
      <use xlink:href="#DejaVuSans-20" transform="translate(646.386719 0)"/>
      <use xlink:href="#DejaVuSans-2b" transform="translate(678.173828 0)"/>
      <use xlink:href="#DejaVuSans-30" transform="translate(761.962891 0)"/>
      <use xlink:href="#DejaVuSans-2e" transform="translate(825.585938 0)"/>
      <use xlink:href="#DejaVuSans-34" transform="translate(857.373047 0)"/>
      <use xlink:href="#DejaVuSans-35" transform="translate(920.996094 0)"/>
      <use xlink:href="#DejaVuSans-32" transform="translate(984.619141 0)"/>
      <use xlink:href="#DejaVuSans-37" transform="translate(1048.242188 0)"/>
      <use xlink:href="#DejaVuSans-37" transform="translate(1111.865234 0)"/>
     </g>
    </g>
   </g>
  </g>
 </g>
 <defs>
  <clipPath id="p2930b5321b">
   <rect x="60.42125" y="26.88" width="576.77875" height="255.16"/>
  </clipPath>
 </defs>
</svg>
