<?xml version="1.0" encoding="utf-8" standalone="no"?>
<!DOCTYPE svg PUBLIC "-//W3C//DTD SVG 1.1//EN"
  "http://www.w3.org/Graphics/SVG/1.1/DTD/svg11.dtd">
<svg xmlns:xlink="http://www.w3.org/1999/xlink" width="648pt" height="324pt" viewBox="0 0 648 324" xmlns="http://www.w3.org/2000/svg" version="1.1">
 <metadata>
  <rdf:RDF xmlns:dc="http://purl.org/dc/elements/1.1/" xmlns:cc="http://creativecommons.org/ns#" xmlns:rdf="http://www.w3.org/1999/02/22-rdf-syntax-ns#">
   <cc:Work>
    <dc:type rdf:resource="http://purl.org/dc/dcmitype/StillImage"/>
    <dc:date>2026-05-08T00:08:24.268574</dc:date>
    <dc:format>image/svg+xml</dc:format>
    <dc:creator>
     <cc:Agent>
      <dc:title>Matplotlib v3.10.8, https://matplotlib.org/</dc:title>
     </cc:Agent>
    </dc:creator>
   </cc:Work>
  </rdf:RDF>
 </metadata>
 <defs>
  <style type="text/css">*{stroke-linejoin: round; stroke-linecap: butt}</style>
 </defs>
 <g id="figure_1">
  <g id="patch_1">
   <path d="M 0 324 
L 648 324 
L 648 0 
L 0 0 
z
" style="fill: #ffffff"/>
  </g>
  <g id="axes_1">
   <g id="patch_2">
    <path d="M 66.63125 282.04 
L 637.2 282.04 
L 637.2 26.88 
L 66.63125 26.88 
z
" style="fill: #ffffff"/>
   </g>
   <g id="matplotlib.axis_1">
    <g id="xtick_1">
     <g id="line2d_1">
      <path d="M 92.564118 282.04 
L 92.564118 26.88 
" clip-path="url(#pba3209d78d)" style="fill: none; stroke-dasharray: 0.5,0.825; stroke-dashoffset: 0; stroke: #b0b0b0; stroke-opacity: 0.6; stroke-width: 0.5"/>
     </g>
     <g id="line2d_2">
      <defs>
       <path id="m02611ff842" d="M 0 0 
L 0 3.5 
" style="stroke: #000000; stroke-width: 0.8"/>
      </defs>
      <g>
       <use xlink:href="#m02611ff842" x="92.564118" y="282.04" style="stroke: #000000; stroke-width: 0.8"/>
      </g>
     </g>
     <g id="text_1">
      <!-- 0 -->
      <g transform="translate(89.382868 296.638438) scale(0.1 -0.1)">
       <defs>
        <path id="DejaVuSans-30" d="M 2034 4250 
Q 1547 4250 1301 3770 
Q 1056 3291 1056 2328 
Q 1056 1369 1301 889 
Q 1547 409 2034 409 
Q 2525 409 2770 889 
Q 3016 1369 3016 2328 
Q 3016 3291 2770 3770 
Q 2525 4250 2034 4250 
z
M 2034 4750 
Q 2819 4750 3233 4129 
Q 3647 3509 3647 2328 
Q 3647 1150 3233 529 
Q 2819 -91 2034 -91 
Q 1250 -91 836 529 
Q 422 1150 422 2328 
Q 422 3509 836 4129 
Q 1250 4750 2034 4750 
z
" transform="scale(0.015625)"/>
       </defs>
       <use xlink:href="#DejaVuSans-30"/>
      </g>
     </g>
    </g>
    <g id="xtick_2">
     <g id="line2d_3">
      <path d="M 196.304306 282.04 
L 196.304306 26.88 
" clip-path="url(#pba3209d78d)" style="fill: none; stroke-dasharray: 0.5,0.825; stroke-dashoffset: 0; stroke: #b0b0b0; stroke-opacity: 0.6; stroke-width: 0.5"/>
     </g>
     <g id="line2d_4">
      <g>
       <use xlink:href="#m02611ff842" x="196.304306" y="282.04" style="stroke: #000000; stroke-width: 0.8"/>
      </g>
     </g>
     <g id="text_2">
      <!-- 50000 -->
      <g transform="translate(180.398056 296.638438) scale(0.1 -0.1)">
       <defs>
        <path id="DejaVuSans-35" d="M 691 4666 
L 3169 4666 
L 3169 4134 
L 1269 4134 
L 1269 2991 
Q 1406 3038 1543 3061 
Q 1681 3084 1819 3084 
Q 2600 3084 3056 2656 
Q 3513 2228 3513 1497 
Q 3513 744 3044 326 
Q 2575 -91 1722 -91 
Q 1428 -91 1123 -41 
Q 819 9 494 109 
L 494 744 
Q 775 591 1075 516 
Q 1375 441 1709 441 
Q 2250 441 2565 725 
Q 2881 1009 2881 1497 
Q 2881 1984 2565 2268 
Q 2250 2553 1709 2553 
Q 1456 2553 1204 2497 
Q 953 2441 691 2322 
L 691 4666 
z
" transform="scale(0.015625)"/>
       </defs>
       <use xlink:href="#DejaVuSans-35"/>
       <use xlink:href="#DejaVuSans-30" transform="translate(63.623047 0)"/>
       <use xlink:href="#DejaVuSans-30" transform="translate(127.246094 0)"/>
       <use xlink:href="#DejaVuSans-30" transform="translate(190.869141 0)"/>
       <use xlink:href="#DejaVuSans-30" transform="translate(254.492188 0)"/>
      </g>
     </g>
    </g>
    <g id="xtick_3">
     <g id="line2d_5">
      <path d="M 300.044494 282.04 
L 300.044494 26.88 
" clip-path="url(#pba3209d78d)" style="fill: none; stroke-dasharray: 0.5,0.825; stroke-dashoffset: 0; stroke: #b0b0b0; stroke-opacity: 0.6; stroke-width: 0.5"/>
     </g>
     <g id="line2d_6">
      <g>
       <use xlink:href="#m02611ff842" x="300.044494" y="282.04" style="stroke: #000000; stroke-width: 0.8"/>
      </g>
     </g>
     <g id="text_3">
      <!-- 100000 -->
      <g transform="translate(280.956994 296.638438) scale(0.1 -0.1)">
       <defs>
        <path id="DejaVuSans-31" d="M 794 531 
L 1825 531 
L 1825 4091 
L 703 3866 
L 703 4441 
L 1819 4666 
L 2450 4666 
L 2450 531 
L 3481 531 
L 3481 0 
L 794 0 
L 794 531 
z
" transform="scale(0.015625)"/>
       </defs>
       <use xlink:href="#DejaVuSans-31"/>
       <use xlink:href="#DejaVuSans-30" transform="translate(63.623047 0)"/>
       <use xlink:href="#DejaVuSans-30" transform="translate(127.246094 0)"/>
       <use xlink:href="#DejaVuSans-30" transform="translate(190.869141 0)"/>
       <use xlink:href="#DejaVuSans-30" transform="translate(254.492188 0)"/>
       <use xlink:href="#DejaVuSans-30" transform="translate(318.115234 0)"/>
      </g>
     </g>
    </g>
    <g id="xtick_4">
     <g id="line2d_7">
      <path d="M 403.784681 282.04 
L 403.784681 26.88 
" clip-path="url(#pba3209d78d)" style="fill: none; stroke-dasharray: 0.5,0.825; stroke-dashoffset: 0; stroke: #b0b0b0; stroke-opacity: 0.6; stroke-width: 0.5"/>
     </g>
     <g id="line2d_8">
      <g>
       <use xlink:href="#m02611ff842" x="403.784681" y="282.04" style="stroke: #000000; stroke-width: 0.8"/>
      </g>
     </g>
     <g id="text_4">
      <!-- 150000 -->
      <g transform="translate(384.697181 296.638438) scale(0.1 -0.1)">
       <use xlink:href="#DejaVuSans-31"/>
       <use xlink:href="#DejaVuSans-35" transform="translate(63.623047 0)"/>
       <use xlink:href="#DejaVuSans-30" transform="translate(127.246094 0)"/>
       <use xlink:href="#DejaVuSans-30" transform="translate(190.869141 0)"/>
       <use xlink:href="#DejaVuSans-30" transform="translate(254.492188 0)"/>
       <use xlink:href="#DejaVuSans-30" transform="translate(318.115234 0)"/>
      </g>
     </g>
    </g>
    <g id="xtick_5">
     <g id="line2d_9">
      <path d="M 507.524869 282.04 
L 507.524869 26.88 
" clip-path="url(#pba3209d78d)" style="fill: none; stroke-dasharray: 0.5,0.825; stroke-dashoffset: 0; stroke: #b0b0b0; stroke-opacity: 0.6; stroke-width: 0.5"/>
     </g>
     <g id="line2d_10">
      <g>
       <use xlink:href="#m02611ff842" x="507.524869" y="282.04" style="stroke: #000000; stroke-width: 0.8"/>
      </g>
     </g>
     <g id="text_5">
      <!-- 200000 -->
      <g transform="translate(488.437369 296.638438) scale(0.1 -0.1)">
       <defs>
        <path id="DejaVuSans-32" d="M 1228 531 
L 3431 531 
L 3431 0 
L 469 0 
L 469 531 
Q 828 903 1448 1529 
Q 2069 2156 2228 2338 
Q 2531 2678 2651 2914 
Q 2772 3150 2772 3378 
Q 2772 3750 2511 3984 
Q 2250 4219 1831 4219 
Q 1534 4219 1204 4116 
Q 875 4013 500 3803 
L 500 4441 
Q 881 4594 1212 4672 
Q 1544 4750 1819 4750 
Q 2544 4750 2975 4387 
Q 3406 4025 3406 3419 
Q 3406 3131 3298 2873 
Q 3191 2616 2906 2266 
Q 2828 2175 2409 1742 
Q 1991 1309 1228 531 
z
" transform="scale(0.015625)"/>
       </defs>
       <use xlink:href="#DejaVuSans-32"/>
       <use xlink:href="#DejaVuSans-30" transform="translate(63.623047 0)"/>
       <use xlink:href="#DejaVuSans-30" transform="translate(127.246094 0)"/>
       <use xlink:href="#DejaVuSans-30" transform="translate(190.869141 0)"/>
       <use xlink:href="#DejaVuSans-30" transform="translate(254.492188 0)"/>
       <use xlink:href="#DejaVuSans-30" transform="translate(318.115234 0)"/>
      </g>
     </g>
    </g>
    <g id="xtick_6">
     <g id="line2d_11">
      <path d="M 611.265057 282.04 
L 611.265057 26.88 
" clip-path="url(#pba3209d78d)" style="fill: none; stroke-dasharray: 0.5,0.825; stroke-dashoffset: 0; stroke: #b0b0b0; stroke-opacity: 0.6; stroke-width: 0.5"/>
     </g>
     <g id="line2d_12">
      <g>
       <use xlink:href="#m02611ff842" x="611.265057" y="282.04" style="stroke: #000000; stroke-width: 0.8"/>
      </g>
     </g>
     <g id="text_6">
      <!-- 250000 -->
      <g transform="translate(592.177557 296.638438) scale(0.1 -0.1)">
       <use xlink:href="#DejaVuSans-32"/>
       <use xlink:href="#DejaVuSans-35" transform="translate(63.623047 0)"/>
       <use xlink:href="#DejaVuSans-30" transform="translate(127.246094 0)"/>
       <use xlink:href="#DejaVuSans-30" transform="translate(190.869141 0)"/>
       <use xlink:href="#DejaVuSans-30" transform="translate(254.492188 0)"/>
       <use xlink:href="#DejaVuSans-30" transform="translate(318.115234 0)"/>
      </g>
     </g>
    </g>
    <g id="text_7">
     <!-- Sample index -->
     <g transform="translate(317.897656 310.316563) scale(0.1 -0.1)">
      <defs>
       <path id="DejaVuSans-53" d="M 3425 4513 
L 3425 3897 
Q 3066 4069 2747 4153 
Q 2428 4238 2131 4238 
Q 1616 4238 1336 4038 
Q 1056 3838 1056 3469 
Q 1056 3159 1242 3001 
Q 1428 2844 1947 2747 
L 2328 2669 
Q 3034 2534 3370 2195 
Q 3706 1856 3706 1288 
Q 3706 609 3251 259 
Q 2797 -91 1919 -91 
Q 1588 -91 1214 -16 
Q 841 59 441 206 
L 441 856 
Q 825 641 1194 531 
Q 1563 422 1919 422 
Q 2459 422 2753 634 
Q 3047 847 3047 1241 
Q 3047 1584 2836 1778 
Q 2625 1972 2144 2069 
L 1759 2144 
Q 1053 2284 737 2584 
Q 422 2884 422 3419 
Q 422 4038 858 4394 
Q 1294 4750 2059 4750 
Q 2388 4750 2728 4690 
Q 3069 4631 3425 4513 
z
" transform="scale(0.015625)"/>
       <path id="DejaVuSans-61" d="M 2194 1759 
Q 1497 1759 1228 1600 
Q 959 1441 959 1056 
Q 959 750 1161 570 
Q 1363 391 1709 391 
Q 2188 391 2477 730 
Q 2766 1069 2766 1631 
L 2766 1759 
L 2194 1759 
z
M 3341 1997 
L 3341 0 
L 2766 0 
L 2766 531 
Q 2569 213 2275 61 
Q 1981 -91 1556 -91 
Q 1019 -91 701 211 
Q 384 513 384 1019 
Q 384 1609 779 1909 
Q 1175 2209 1959 2209 
L 2766 2209 
L 2766 2266 
Q 2766 2663 2505 2880 
Q 2244 3097 1772 3097 
Q 1472 3097 1187 3025 
Q 903 2953 641 2809 
L 641 3341 
Q 956 3463 1253 3523 
Q 1550 3584 1831 3584 
Q 2591 3584 2966 3190 
Q 3341 2797 3341 1997 
z
" transform="scale(0.015625)"/>
       <path id="DejaVuSans-6d" d="M 3328 2828 
Q 3544 3216 3844 3400 
Q 4144 3584 4550 3584 
Q 5097 3584 5394 3201 
Q 5691 2819 5691 2113 
L 5691 0 
L 5113 0 
L 5113 2094 
Q 5113 2597 4934 2840 
Q 4756 3084 4391 3084 
Q 3944 3084 3684 2787 
Q 3425 2491 3425 1978 
L 3425 0 
L 2847 0 
L 2847 2094 
Q 2847 2600 2669 2842 
Q 2491 3084 2119 3084 
Q 1678 3084 1418 2786 
Q 1159 2488 1159 1978 
L 1159 0 
L 581 0 
L 581 3500 
L 1159 3500 
L 1159 2956 
Q 1356 3278 1631 3431 
Q 1906 3584 2284 3584 
Q 2666 3584 2933 3390 
Q 3200 3197 3328 2828 
z
" transform="scale(0.015625)"/>
       <path id="DejaVuSans-70" d="M 1159 525 
L 1159 -1331 
L 581 -1331 
L 581 3500 
L 1159 3500 
L 1159 2969 
Q 1341 3281 1617 3432 
Q 1894 3584 2278 3584 
Q 2916 3584 3314 3078 
Q 3713 2572 3713 1747 
Q 3713 922 3314 415 
Q 2916 -91 2278 -91 
Q 1894 -91 1617 61 
Q 1341 213 1159 525 
z
M 3116 1747 
Q 3116 2381 2855 2742 
Q 2594 3103 2138 3103 
Q 1681 3103 1420 2742 
Q 1159 2381 1159 1747 
Q 1159 1113 1420 752 
Q 1681 391 2138 391 
Q 2594 391 2855 752 
Q 3116 1113 3116 1747 
z
" transform="scale(0.015625)"/>
       <path id="DejaVuSans-6c" d="M 603 4863 
L 1178 4863 
L 1178 0 
L 603 0 
L 603 4863 
z
" transform="scale(0.015625)"/>
       <path id="DejaVuSans-65" d="M 3597 1894 
L 3597 1613 
L 953 1613 
Q 991 1019 1311 708 
Q 1631 397 2203 397 
Q 2534 397 2845 478 
Q 3156 559 3463 722 
L 3463 178 
Q 3153 47 2828 -22 
Q 2503 -91 2169 -91 
Q 1331 -91 842 396 
Q 353 884 353 1716 
Q 353 2575 817 3079 
Q 1281 3584 2069 3584 
Q 2775 3584 3186 3129 
Q 3597 2675 3597 1894 
z
M 3022 2063 
Q 3016 2534 2758 2815 
Q 2500 3097 2075 3097 
Q 1594 3097 1305 2825 
Q 1016 2553 972 2059 
L 3022 2063 
z
" transform="scale(0.015625)"/>
       <path id="DejaVuSans-20" transform="scale(0.015625)"/>
       <path id="DejaVuSans-69" d="M 603 3500 
L 1178 3500 
L 1178 0 
L 603 0 
L 603 3500 
z
M 603 4863 
L 1178 4863 
L 1178 4134 
L 603 4134 
L 603 4863 
z
" transform="scale(0.015625)"/>
       <path id="DejaVuSans-6e" d="M 3513 2113 
L 3513 0 
L 2938 0 
L 2938 2094 
Q 2938 2591 2744 2837 
Q 2550 3084 2163 3084 
Q 1697 3084 1428 2787 
Q 1159 2491 1159 1978 
L 1159 0 
L 581 0 
L 581 3500 
L 1159 3500 
L 1159 2956 
Q 1366 3272 1645 3428 
Q 1925 3584 2291 3584 
Q 2894 3584 3203 3211 
Q 3513 2838 3513 2113 
z
" transform="scale(0.015625)"/>
       <path id="DejaVuSans-64" d="M 2906 2969 
L 2906 4863 
L 3481 4863 
L 3481 0 
L 2906 0 
L 2906 525 
Q 2725 213 2448 61 
Q 2172 -91 1784 -91 
Q 1150 -91 751 415 
Q 353 922 353 1747 
Q 353 2572 751 3078 
Q 1150 3584 1784 3584 
Q 2172 3584 2448 3432 
Q 2725 3281 2906 2969 
z
M 947 1747 
Q 947 1113 1208 752 
Q 1469 391 1925 391 
Q 2381 391 2643 752 
Q 2906 1113 2906 1747 
Q 2906 2381 2643 2742 
Q 2381 3103 1925 3103 
Q 1469 3103 1208 2742 
Q 947 2381 947 1747 
z
" transform="scale(0.015625)"/>
       <path id="DejaVuSans-78" d="M 3513 3500 
L 2247 1797 
L 3578 0 
L 2900 0 
L 1881 1375 
L 863 0 
L 184 0 
L 1544 1831 
L 300 3500 
L 978 3500 
L 1906 2253 
L 2834 3500 
L 3513 3500 
z
" transform="scale(0.015625)"/>
      </defs>
      <use xlink:href="#DejaVuSans-53"/>
      <use xlink:href="#DejaVuSans-61" transform="translate(63.476562 0)"/>
      <use xlink:href="#DejaVuSans-6d" transform="translate(124.755859 0)"/>
      <use xlink:href="#DejaVuSans-70" transform="translate(222.167969 0)"/>
      <use xlink:href="#DejaVuSans-6c" transform="translate(285.644531 0)"/>
      <use xlink:href="#DejaVuSans-65" transform="translate(313.427734 0)"/>
      <use xlink:href="#DejaVuSans-20" transform="translate(374.951172 0)"/>
      <use xlink:href="#DejaVuSans-69" transform="translate(406.738281 0)"/>
      <use xlink:href="#DejaVuSans-6e" transform="translate(434.521484 0)"/>
      <use xlink:href="#DejaVuSans-64" transform="translate(497.900391 0)"/>
      <use xlink:href="#DejaVuSans-65" transform="translate(561.376953 0)"/>
      <use xlink:href="#DejaVuSans-78" transform="translate(621.150391 0)"/>
     </g>
    </g>
   </g>
   <g id="matplotlib.axis_2">
    <g id="ytick_1">
     <g id="line2d_13">
      <path d="M 66.63125 261.338594 
L 637.2 261.338594 
" clip-path="url(#pba3209d78d)" style="fill: none; stroke-dasharray: 0.5,0.825; stroke-dashoffset: 0; stroke: #b0b0b0; stroke-opacity: 0.6; stroke-width: 0.5"/>
     </g>
     <g id="line2d_14">
      <defs>
       <path id="mc6f1eedf20" d="M 0 0 
L -3.5 0 
" style="stroke: #000000; stroke-width: 0.8"/>
      </defs>
      <g>
       <use xlink:href="#mc6f1eedf20" x="66.63125" y="261.338594" style="stroke: #000000; stroke-width: 0.8"/>
      </g>
     </g>
     <g id="text_8">
      <!-- 0.4375 -->
      <g transform="translate(24.640625 265.137813) scale(0.1 -0.1)">
       <defs>
        <path id="DejaVuSans-2e" d="M 684 794 
L 1344 794 
L 1344 0 
L 684 0 
L 684 794 
z
" transform="scale(0.015625)"/>
        <path id="DejaVuSans-34" d="M 2419 4116 
L 825 1625 
L 2419 1625 
L 2419 4116 
z
M 2253 4666 
L 3047 4666 
L 3047 1625 
L 3713 1625 
L 3713 1100 
L 3047 1100 
L 3047 0 
L 2419 0 
L 2419 1100 
L 313 1100 
L 313 1709 
L 2253 4666 
z
" transform="scale(0.015625)"/>
        <path id="DejaVuSans-33" d="M 2597 2516 
Q 3050 2419 3304 2112 
Q 3559 1806 3559 1356 
Q 3559 666 3084 287 
Q 2609 -91 1734 -91 
Q 1441 -91 1130 -33 
Q 819 25 488 141 
L 488 750 
Q 750 597 1062 519 
Q 1375 441 1716 441 
Q 2309 441 2620 675 
Q 2931 909 2931 1356 
Q 2931 1769 2642 2001 
Q 2353 2234 1838 2234 
L 1294 2234 
L 1294 2753 
L 1863 2753 
Q 2328 2753 2575 2939 
Q 2822 3125 2822 3475 
Q 2822 3834 2567 4026 
Q 2313 4219 1838 4219 
Q 1578 4219 1281 4162 
Q 984 4106 628 3988 
L 628 4550 
Q 988 4650 1302 4700 
Q 1616 4750 1894 4750 
Q 2613 4750 3031 4423 
Q 3450 4097 3450 3541 
Q 3450 3153 3228 2886 
Q 3006 2619 2597 2516 
z
" transform="scale(0.015625)"/>
        <path id="DejaVuSans-37" d="M 525 4666 
L 3525 4666 
L 3525 4397 
L 1831 0 
L 1172 0 
L 2766 4134 
L 525 4134 
L 525 4666 
z
" transform="scale(0.015625)"/>
       </defs>
       <use xlink:href="#DejaVuSans-30"/>
       <use xlink:href="#DejaVuSans-2e" transform="translate(63.623047 0)"/>
       <use xlink:href="#DejaVuSans-34" transform="translate(95.410156 0)"/>
       <use xlink:href="#DejaVuSans-33" transform="translate(159.033203 0)"/>
       <use xlink:href="#DejaVuSans-37" transform="translate(222.65625 0)"/>
       <use xlink:href="#DejaVuSans-35" transform="translate(286.279297 0)"/>
      </g>
     </g>
    </g>
    <g id="ytick_2">
     <g id="line2d_15">
      <path d="M 66.63125 229.659374 
L 637.2 229.659374 
" clip-path="url(#pba3209d78d)" style="fill: none; stroke-dasharray: 0.5,0.825; stroke-dashoffset: 0; stroke: #b0b0b0; stroke-opacity: 0.6; stroke-width: 0.5"/>
     </g>
     <g id="line2d_16">
      <g>
       <use xlink:href="#mc6f1eedf20" x="66.63125" y="229.659374" style="stroke: #000000; stroke-width: 0.8"/>
      </g>
     </g>
     <g id="text_9">
      <!-- 0.4400 -->
      <g transform="translate(24.640625 233.458593) scale(0.1 -0.1)">
       <use xlink:href="#DejaVuSans-30"/>
       <use xlink:href="#DejaVuSans-2e" transform="translate(63.623047 0)"/>
       <use xlink:href="#DejaVuSans-34" transform="translate(95.410156 0)"/>
       <use xlink:href="#DejaVuSans-34" transform="translate(159.033203 0)"/>
       <use xlink:href="#DejaVuSans-30" transform="translate(222.65625 0)"/>
       <use xlink:href="#DejaVuSans-30" transform="translate(286.279297 0)"/>
      </g>
     </g>
    </g>
    <g id="ytick_3">
     <g id="line2d_17">
      <path d="M 66.63125 197.980154 
L 637.2 197.980154 
" clip-path="url(#pba3209d78d)" style="fill: none; stroke-dasharray: 0.5,0.825; stroke-dashoffset: 0; stroke: #b0b0b0; stroke-opacity: 0.6; stroke-width: 0.5"/>
     </g>
     <g id="line2d_18">
      <g>
       <use xlink:href="#mc6f1eedf20" x="66.63125" y="197.980154" style="stroke: #000000; stroke-width: 0.8"/>
      </g>
     </g>
     <g id="text_10">
      <!-- 0.4425 -->
      <g transform="translate(24.640625 201.779373) scale(0.1 -0.1)">
       <use xlink:href="#DejaVuSans-30"/>
       <use xlink:href="#DejaVuSans-2e" transform="translate(63.623047 0)"/>
       <use xlink:href="#DejaVuSans-34" transform="translate(95.410156 0)"/>
       <use xlink:href="#DejaVuSans-34" transform="translate(159.033203 0)"/>
       <use xlink:href="#DejaVuSans-32" transform="translate(222.65625 0)"/>
       <use xlink:href="#DejaVuSans-35" transform="translate(286.279297 0)"/>
      </g>
     </g>
    </g>
    <g id="ytick_4">
     <g id="line2d_19">
      <path d="M 66.63125 166.300934 
L 637.2 166.300934 
" clip-path="url(#pba3209d78d)" style="fill: none; stroke-dasharray: 0.5,0.825; stroke-dashoffset: 0; stroke: #b0b0b0; stroke-opacity: 0.6; stroke-width: 0.5"/>
     </g>
     <g id="line2d_20">
      <g>
       <use xlink:href="#mc6f1eedf20" x="66.63125" y="166.300934" style="stroke: #000000; stroke-width: 0.8"/>
      </g>
     </g>
     <g id="text_11">
      <!-- 0.4450 -->
      <g transform="translate(24.640625 170.100153) scale(0.1 -0.1)">
       <use xlink:href="#DejaVuSans-30"/>
       <use xlink:href="#DejaVuSans-2e" transform="translate(63.623047 0)"/>
       <use xlink:href="#DejaVuSans-34" transform="translate(95.410156 0)"/>
       <use xlink:href="#DejaVuSans-34" transform="translate(159.033203 0)"/>
       <use xlink:href="#DejaVuSans-35" transform="translate(222.65625 0)"/>
       <use xlink:href="#DejaVuSans-30" transform="translate(286.279297 0)"/>
      </g>
     </g>
    </g>
    <g id="ytick_5">
     <g id="line2d_21">
      <path d="M 66.63125 134.621715 
L 637.2 134.621715 
" clip-path="url(#pba3209d78d)" style="fill: none; stroke-dasharray: 0.5,0.825; stroke-dashoffset: 0; stroke: #b0b0b0; stroke-opacity: 0.6; stroke-width: 0.5"/>
     </g>
     <g id="line2d_22">
      <g>
       <use xlink:href="#mc6f1eedf20" x="66.63125" y="134.621715" style="stroke: #000000; stroke-width: 0.8"/>
      </g>
     </g>
     <g id="text_12">
      <!-- 0.4475 -->
      <g transform="translate(24.640625 138.420933) scale(0.1 -0.1)">
       <use xlink:href="#DejaVuSans-30"/>
       <use xlink:href="#DejaVuSans-2e" transform="translate(63.623047 0)"/>
       <use xlink:href="#DejaVuSans-34" transform="translate(95.410156 0)"/>
       <use xlink:href="#DejaVuSans-34" transform="translate(159.033203 0)"/>
       <use xlink:href="#DejaVuSans-37" transform="translate(222.65625 0)"/>
       <use xlink:href="#DejaVuSans-35" transform="translate(286.279297 0)"/>
      </g>
     </g>
    </g>
    <g id="ytick_6">
     <g id="line2d_23">
      <path d="M 66.63125 102.942495 
L 637.2 102.942495 
" clip-path="url(#pba3209d78d)" style="fill: none; stroke-dasharray: 0.5,0.825; stroke-dashoffset: 0; stroke: #b0b0b0; stroke-opacity: 0.6; stroke-width: 0.5"/>
     </g>
     <g id="line2d_24">
      <g>
       <use xlink:href="#mc6f1eedf20" x="66.63125" y="102.942495" style="stroke: #000000; stroke-width: 0.8"/>
      </g>
     </g>
     <g id="text_13">
      <!-- 0.4500 -->
      <g transform="translate(24.640625 106.741713) scale(0.1 -0.1)">
       <use xlink:href="#DejaVuSans-30"/>
       <use xlink:href="#DejaVuSans-2e" transform="translate(63.623047 0)"/>
       <use xlink:href="#DejaVuSans-34" transform="translate(95.410156 0)"/>
       <use xlink:href="#DejaVuSans-35" transform="translate(159.033203 0)"/>
       <use xlink:href="#DejaVuSans-30" transform="translate(222.65625 0)"/>
       <use xlink:href="#DejaVuSans-30" transform="translate(286.279297 0)"/>
      </g>
     </g>
    </g>
    <g id="ytick_7">
     <g id="line2d_25">
      <path d="M 66.63125 71.263275 
L 637.2 71.263275 
" clip-path="url(#pba3209d78d)" style="fill: none; stroke-dasharray: 0.5,0.825; stroke-dashoffset: 0; stroke: #b0b0b0; stroke-opacity: 0.6; stroke-width: 0.5"/>
     </g>
     <g id="line2d_26">
      <g>
       <use xlink:href="#mc6f1eedf20" x="66.63125" y="71.263275" style="stroke: #000000; stroke-width: 0.8"/>
      </g>
     </g>
     <g id="text_14">
      <!-- 0.4525 -->
      <g transform="translate(24.640625 75.062494) scale(0.1 -0.1)">
       <use xlink:href="#DejaVuSans-30"/>
       <use xlink:href="#DejaVuSans-2e" transform="translate(63.623047 0)"/>
       <use xlink:href="#DejaVuSans-34" transform="translate(95.410156 0)"/>
       <use xlink:href="#DejaVuSans-35" transform="translate(159.033203 0)"/>
       <use xlink:href="#DejaVuSans-32" transform="translate(222.65625 0)"/>
       <use xlink:href="#DejaVuSans-35" transform="translate(286.279297 0)"/>
      </g>
     </g>
    </g>
    <g id="ytick_8">
     <g id="line2d_27">
      <path d="M 66.63125 39.584055 
L 637.2 39.584055 
" clip-path="url(#pba3209d78d)" style="fill: none; stroke-dasharray: 0.5,0.825; stroke-dashoffset: 0; stroke: #b0b0b0; stroke-opacity: 0.6; stroke-width: 0.5"/>
     </g>
     <g id="line2d_28">
      <g>
       <use xlink:href="#mc6f1eedf20" x="66.63125" y="39.584055" style="stroke: #000000; stroke-width: 0.8"/>
      </g>
     </g>
     <g id="text_15">
      <!-- 0.4550 -->
      <g transform="translate(24.640625 43.383274) scale(0.1 -0.1)">
       <use xlink:href="#DejaVuSans-30"/>
       <use xlink:href="#DejaVuSans-2e" transform="translate(63.623047 0)"/>
       <use xlink:href="#DejaVuSans-34" transform="translate(95.410156 0)"/>
       <use xlink:href="#DejaVuSans-35" transform="translate(159.033203 0)"/>
       <use xlink:href="#DejaVuSans-35" transform="translate(222.65625 0)"/>
       <use xlink:href="#DejaVuSans-30" transform="translate(286.279297 0)"/>
      </g>
     </g>
    </g>
    <g id="text_16">
     <!-- Running mean of seats_at_50_50 -->
     <g transform="translate(18.282813 237.273281) rotate(-90) scale(0.1 -0.1)">
      <defs>
       <path id="DejaVuSans-52" d="M 2841 2188 
Q 3044 2119 3236 1894 
Q 3428 1669 3622 1275 
L 4263 0 
L 3584 0 
L 2988 1197 
Q 2756 1666 2539 1819 
Q 2322 1972 1947 1972 
L 1259 1972 
L 1259 0 
L 628 0 
L 628 4666 
L 2053 4666 
Q 2853 4666 3247 4331 
Q 3641 3997 3641 3322 
Q 3641 2881 3436 2590 
Q 3231 2300 2841 2188 
z
M 1259 4147 
L 1259 2491 
L 2053 2491 
Q 2509 2491 2742 2702 
Q 2975 2913 2975 3322 
Q 2975 3731 2742 3939 
Q 2509 4147 2053 4147 
L 1259 4147 
z
" transform="scale(0.015625)"/>
       <path id="DejaVuSans-75" d="M 544 1381 
L 544 3500 
L 1119 3500 
L 1119 1403 
Q 1119 906 1312 657 
Q 1506 409 1894 409 
Q 2359 409 2629 706 
Q 2900 1003 2900 1516 
L 2900 3500 
L 3475 3500 
L 3475 0 
L 2900 0 
L 2900 538 
Q 2691 219 2414 64 
Q 2138 -91 1772 -91 
Q 1169 -91 856 284 
Q 544 659 544 1381 
z
M 1991 3584 
L 1991 3584 
z
" transform="scale(0.015625)"/>
       <path id="DejaVuSans-67" d="M 2906 1791 
Q 2906 2416 2648 2759 
Q 2391 3103 1925 3103 
Q 1463 3103 1205 2759 
Q 947 2416 947 1791 
Q 947 1169 1205 825 
Q 1463 481 1925 481 
Q 2391 481 2648 825 
Q 2906 1169 2906 1791 
z
M 3481 434 
Q 3481 -459 3084 -895 
Q 2688 -1331 1869 -1331 
Q 1566 -1331 1297 -1286 
Q 1028 -1241 775 -1147 
L 775 -588 
Q 1028 -725 1275 -790 
Q 1522 -856 1778 -856 
Q 2344 -856 2625 -561 
Q 2906 -266 2906 331 
L 2906 616 
Q 2728 306 2450 153 
Q 2172 0 1784 0 
Q 1141 0 747 490 
Q 353 981 353 1791 
Q 353 2603 747 3093 
Q 1141 3584 1784 3584 
Q 2172 3584 2450 3431 
Q 2728 3278 2906 2969 
L 2906 3500 
L 3481 3500 
L 3481 434 
z
" transform="scale(0.015625)"/>
       <path id="DejaVuSans-6f" d="M 1959 3097 
Q 1497 3097 1228 2736 
Q 959 2375 959 1747 
Q 959 1119 1226 758 
Q 1494 397 1959 397 
Q 2419 397 2687 759 
Q 2956 1122 2956 1747 
Q 2956 2369 2687 2733 
Q 2419 3097 1959 3097 
z
M 1959 3584 
Q 2709 3584 3137 3096 
Q 3566 2609 3566 1747 
Q 3566 888 3137 398 
Q 2709 -91 1959 -91 
Q 1206 -91 779 398 
Q 353 888 353 1747 
Q 353 2609 779 3096 
Q 1206 3584 1959 3584 
z
" transform="scale(0.015625)"/>
       <path id="DejaVuSans-66" d="M 2375 4863 
L 2375 4384 
L 1825 4384 
Q 1516 4384 1395 4259 
Q 1275 4134 1275 3809 
L 1275 3500 
L 2222 3500 
L 2222 3053 
L 1275 3053 
L 1275 0 
L 697 0 
L 697 3053 
L 147 3053 
L 147 3500 
L 697 3500 
L 697 3744 
Q 697 4328 969 4595 
Q 1241 4863 1831 4863 
L 2375 4863 
z
" transform="scale(0.015625)"/>
       <path id="DejaVuSans-73" d="M 2834 3397 
L 2834 2853 
Q 2591 2978 2328 3040 
Q 2066 3103 1784 3103 
Q 1356 3103 1142 2972 
Q 928 2841 928 2578 
Q 928 2378 1081 2264 
Q 1234 2150 1697 2047 
L 1894 2003 
Q 2506 1872 2764 1633 
Q 3022 1394 3022 966 
Q 3022 478 2636 193 
Q 2250 -91 1575 -91 
Q 1294 -91 989 -36 
Q 684 19 347 128 
L 347 722 
Q 666 556 975 473 
Q 1284 391 1588 391 
Q 1994 391 2212 530 
Q 2431 669 2431 922 
Q 2431 1156 2273 1281 
Q 2116 1406 1581 1522 
L 1381 1569 
Q 847 1681 609 1914 
Q 372 2147 372 2553 
Q 372 3047 722 3315 
Q 1072 3584 1716 3584 
Q 2034 3584 2315 3537 
Q 2597 3491 2834 3397 
z
" transform="scale(0.015625)"/>
       <path id="DejaVuSans-74" d="M 1172 4494 
L 1172 3500 
L 2356 3500 
L 2356 3053 
L 1172 3053 
L 1172 1153 
Q 1172 725 1289 603 
Q 1406 481 1766 481 
L 2356 481 
L 2356 0 
L 1766 0 
Q 1100 0 847 248 
Q 594 497 594 1153 
L 594 3053 
L 172 3053 
L 172 3500 
L 594 3500 
L 594 4494 
L 1172 4494 
z
" transform="scale(0.015625)"/>
       <path id="DejaVuSans-5f" d="M 3263 -1063 
L 3263 -1509 
L -63 -1509 
L -63 -1063 
L 3263 -1063 
z
" transform="scale(0.015625)"/>
      </defs>
      <use xlink:href="#DejaVuSans-52"/>
      <use xlink:href="#DejaVuSans-75" transform="translate(64.982422 0)"/>
      <use xlink:href="#DejaVuSans-6e" transform="translate(128.361328 0)"/>
      <use xlink:href="#DejaVuSans-6e" transform="translate(191.740234 0)"/>
      <use xlink:href="#DejaVuSans-69" transform="translate(255.119141 0)"/>
      <use xlink:href="#DejaVuSans-6e" transform="translate(282.902344 0)"/>
      <use xlink:href="#DejaVuSans-67" transform="translate(346.28125 0)"/>
      <use xlink:href="#DejaVuSans-20" transform="translate(409.757812 0)"/>
      <use xlink:href="#DejaVuSans-6d" transform="translate(441.544922 0)"/>
      <use xlink:href="#DejaVuSans-65" transform="translate(538.957031 0)"/>
      <use xlink:href="#DejaVuSans-61" transform="translate(600.480469 0)"/>
      <use xlink:href="#DejaVuSans-6e" transform="translate(661.759766 0)"/>
      <use xlink:href="#DejaVuSans-20" transform="translate(725.138672 0)"/>
      <use xlink:href="#DejaVuSans-6f" transform="translate(756.925781 0)"/>
      <use xlink:href="#DejaVuSans-66" transform="translate(818.107422 0)"/>
      <use xlink:href="#DejaVuSans-20" transform="translate(853.3125 0)"/>
      <use xlink:href="#DejaVuSans-73" transform="translate(885.099609 0)"/>
      <use xlink:href="#DejaVuSans-65" transform="translate(937.199219 0)"/>
      <use xlink:href="#DejaVuSans-61" transform="translate(998.722656 0)"/>
      <use xlink:href="#DejaVuSans-74" transform="translate(1060.001953 0)"/>
      <use xlink:href="#DejaVuSans-73" transform="translate(1099.210938 0)"/>
      <use xlink:href="#DejaVuSans-5f" transform="translate(1151.310547 0)"/>
      <use xlink:href="#DejaVuSans-61" transform="translate(1201.310547 0)"/>
      <use xlink:href="#DejaVuSans-74" transform="translate(1262.589844 0)"/>
      <use xlink:href="#DejaVuSans-5f" transform="translate(1301.798828 0)"/>
      <use xlink:href="#DejaVuSans-35" transform="translate(1351.798828 0)"/>
      <use xlink:href="#DejaVuSans-30" transform="translate(1415.421875 0)"/>
      <use xlink:href="#DejaVuSans-5f" transform="translate(1479.044922 0)"/>
      <use xlink:href="#DejaVuSans-35" transform="translate(1529.044922 0)"/>
      <use xlink:href="#DejaVuSans-30" transform="translate(1592.667969 0)"/>
     </g>
    </g>
   </g>
   <g id="line2d_29">
    <path d="M 92.566193 270.441818 
L 92.674083 270.441818 
L 92.86289 167.271945 
L 92.947957 157.857079 
L 92.979079 166.300934 
L 92.987378 168.342913 
L 93.045473 155.552852 
L 93.203158 138.031286 
L 93.248804 137.148549 
L 93.279926 138.722123 
L 93.44176 163.010861 
L 93.499855 159.023199 
L 93.771654 128.043618 
L 93.821449 127.674422 
L 94.095324 101.107048 
L 94.149268 101.91302 
L 94.165867 102.15009 
L 94.182465 100.888434 
L 94.275831 101.485979 
L 94.373347 94.89157 
L 94.414843 92.296213 
L 94.501985 93.7574 
L 94.539332 94.344155 
L 94.562154 93.028205 
L 94.572528 92.439932 
L 94.65967 93.785192 
L 94.690792 94.238924 
L 94.713615 93.016817 
L 94.856777 79.578926 
L 95.091229 66.31435 
L 95.244765 57.262911 
L 95.296635 57.549409 
L 95.435647 50.596325 
L 95.589182 38.478182 
L 95.657651 42.049191 
L 95.943974 63.275014 
L 95.960572 63.219739 
L 96.080911 67.64669 
L 96.139005 69.082516 
L 96.19295 67.745443 
L 96.317438 64.806578 
L 96.371383 66.053353 
L 96.848588 85.714698 
L 97.172258 94.88608 
L 97.230352 95.970777 
L 97.390112 97.801482 
L 97.603817 99.60552 
L 97.765651 101.376755 
L 98.128742 94.052426 
L 98.176463 94.313782 
L 98.267754 94.801583 
L 98.290577 94.340608 
L 98.315474 93.841898 
L 98.369419 94.96237 
L 98.396392 95.100315 
L 98.419215 94.648303 
L 98.508431 93.626385 
L 98.566526 93.928006 
L 98.608022 94.689905 
L 98.917167 100.483257 
L 98.93999 100.99684 
L 99.126723 108.90348 
L 99.307231 112.241788 
L 99.46699 112.751102 
L 99.641274 119.239161 
L 99.807258 121.619359 
L 99.844605 121.71864 
L 100.141302 125.508121 
L 100.309361 127.911617 
L 100.37368 127.885909 
L 100.668302 122.478303 
L 100.751294 122.797028 
L 100.790715 122.806579 
L 100.79694 122.697959 
L 100.825987 122.19323 
L 100.886156 123.047207 
L 100.906904 123.051542 
L 100.913129 122.944251 
L 101.021018 121.109636 
L 101.126833 121.155119 
L 101.176629 121.176136 
L 101.182853 121.073558 
L 101.201526 120.766708 
L 101.309416 120.816346 
L 101.398633 120.959096 
L 101.774172 125.774587 
L 101.792845 125.772595 
L 102.072944 125.648315 
L 102.516952 117.108379 
L 102.884192 103.179684 
L 102.940212 103.645851 
L 103.050177 105.049169 
L 103.118645 104.74775 
L 103.452688 105.612404 
L 103.606224 106.262212 
L 103.624897 106.293492 
L 103.639421 106.126747 
L 103.658094 105.913003 
L 103.753535 106.074017 
L 103.776358 106.112115 
L 103.792956 105.924423 
L 104.832433 92.940495 
L 105.446575 82.284085 
L 105.678953 80.341267 
L 105.76402 80.627719 
L 105.930004 81.176152 
L 105.963201 80.923349 
L 106.087689 80.723812 
L 106.095988 80.750839 
L 106.152008 81.310488 
L 106.282721 81.989109 
L 106.297244 81.814323 
L 107.50478 61.986709 
L 107.562875 61.665815 
L 107.625119 61.926695 
L 107.797328 62.637356 
L 107.845048 62.3766 
L 108.046304 61.294573 
L 108.098174 61.603863 
L 108.228887 62.381904 
L 108.25171 62.203008 
L 108.484088 60.421077 
L 108.755887 59.131304 
L 108.807757 59.34097 
L 108.843029 59.482779 
L 108.888674 59.258126 
L 108.923946 59.362469 
L 109.172922 58.360009 
L 108.950918 59.433279 
L 109.210269 58.509049 
L 109.262139 58.714942 
L 109.314009 58.468515 
L 109.370029 58.204082 
L 109.430198 58.441626 
L 109.596182 59.08822 
L 109.645978 58.855159 
L 109.679175 58.700539 
L 109.741419 58.940023 
L 110.218624 60.942493 
L 109.822336 58.846031 
L 110.305765 60.693996 
L 110.326513 60.581719 
L 110.401206 60.867535 
L 110.469675 61.517023 
L 110.583789 62.320209 
L 110.633584 62.141152 
L 110.662632 62.007937 
L 110.695828 62.372886 
L 111.100415 68.283808 
L 111.415785 75.368723 
L 111.569321 78.105401 
L 111.801699 81.214143 
L 112.098396 83.036262 
L 112.233258 83.58374 
L 112.328699 83.874461 
L 112.357746 83.72076 
L 112.588049 82.51792 
L 112.451112 83.776813 
L 112.637845 82.833543 
L 112.971888 84.912262 
L 113.011309 85.225616 
L 113.050731 85.47876 
L 113.102601 85.06306 
L 113.467766 81.954932 
L 113.492664 81.832617 
L 113.58603 81.92278 
L 113.683546 82.120714 
L 113.718817 81.94901 
L 114.102656 79.54157 
L 114.206396 78.473838 
L 114.291463 78.655176 
L 114.341259 79.010452 
L 114.43255 79.477941 
L 114.476121 79.237048 
L 114.525916 78.913767 
L 114.594385 79.124935 
L 114.953326 81.274274 
L 114.961625 81.290398 
L 114.998971 81.12035 
L 115.013495 81.054373 
L 115.092338 81.207436 
L 115.322641 81.621912 
L 115.353763 81.481959 
L 115.555019 80.073448 
L 115.988653 75.998887 
L 116.036373 76.098082 
L 116.12144 76.273913 
L 116.160861 76.111636 
L 116.200283 75.949901 
L 116.274976 76.103756 
L 116.453409 76.467403 
L 116.49283 76.307059 
L 116.588271 75.455617 
L 116.687862 74.907665 
L 116.741807 75.018962 
L 116.75633 75.048842 
L 116.797826 74.884612 
L 117.069626 73.366381 
L 117.422342 69.999172 
L 117.505334 70.18149 
L 117.55098 70.281248 
L 117.596626 70.115054 
L 117.71074 69.281596 
L 118.092504 66.737943 
L 118.117401 66.652591 
L 118.156823 66.907454 
L 118.60498 69.586297 
L 118.692122 69.770413 
L 118.737768 69.612355 
L 118.802087 69.67851 
L 118.87678 68.743888 
L 119.214973 64.19373 
L 119.223272 64.167252 
L 119.275142 64.364171 
L 119.312488 64.708389 
L 119.673504 68.005511 
L 119.698402 67.979655 
L 119.843638 68.61445 
L 119.914181 69.11292 
L 119.966052 68.722037 
L 120.125811 67.895767 
L 120.152784 68.060928 
L 120.356115 68.736935 
L 120.486827 69.248255 
L 120.912162 71.510087 
L 121.134166 71.924101 
L 121.171513 71.771281 
L 121.291851 71.383249 
L 121.329198 71.62068 
L 121.544977 72.339812 
L 121.8313 73.080099 
L 122.210989 74.884 
L 122.279458 74.998991 
L 122.323029 74.858639 
L 122.372824 74.698739 
L 122.447517 74.823942 
L 122.588603 75.058736 
L 122.632174 74.919741 
L 122.715167 74.656099 
L 122.789859 74.779989 
L 122.864552 74.903268 
L 122.908123 74.76576 
L 122.99734 74.485424 
L 123.047135 74.676649 
L 123.181997 74.936864 
L 123.192371 74.904416 
L 123.418525 73.840091 
L 123.638454 72.99479 
L 124.001545 71.583954 
L 124.142632 71.82167 
L 124.150931 71.835587 
L 124.196576 71.701825 
L 124.20695 71.71923 
L 124.321065 71.386554 
L 124.393683 71.508393 
L 124.592864 71.839744 
L 124.63851 71.707819 
L 124.883336 71.18424 
L 124.916533 71.239246 
L 125.078368 71.505787 
L 125.124014 71.376298 
L 125.348092 70.414009 
L 125.418636 70.144443 
L 125.474656 70.292555 
L 125.5369 70.413763 
L 125.58462 70.281854 
L 125.69251 69.665755 
L 125.752679 69.219363 
L 125.812849 69.556243 
L 126.068049 70.418932 
L 126.082573 70.442491 
L 126.130294 70.312686 
L 126.339849 69.424915 
L 126.53488 68.141524 
L 126.615798 68.276139 
L 127.097152 69.282662 
L 127.38555 70.30649 
L 127.449869 70.406942 
L 127.483066 70.259594 
L 127.655274 69.846869 
L 127.721668 69.675569 
L 127.794286 69.789174 
L 127.86068 70.098114 
L 128.200948 71.392 
L 128.252818 71.46961 
L 128.288089 71.336151 
L 128.715499 69.234652 
L 129.572393 67.10773 
L 129.638787 67.22733 
L 129.867015 67.765842 
L 130.142964 69.961803 
L 130.539251 70.350933 
L 130.736358 69.594947 
L 130.933464 69.067258 
L 131.159618 68.258438 
L 131.547606 66.580761 
L 131.748862 66.131652 
L 131.819405 66.237063 
L 131.898248 66.354429 
L 131.950118 66.239569 
L 131.979165 66.175379 
L 132.051783 66.283172 
L 132.226067 66.730749 
L 132.294535 67.226328 
L 132.344331 66.819792 
L 132.56841 65.505255 
L 132.589158 65.535987 
L 132.705347 65.707499 
L 132.748917 65.576035 
L 133.053914 63.163528 
L 133.304965 61.681469 
L 133.321563 61.70717 
L 133.367209 61.977709 
L 133.564315 62.721916 
L 133.695028 63.117542 
L 133.952304 64.20186 
L 133.995875 64.075935 
L 134.085091 63.704196 
L 134.136961 63.918526 
L 135.039501 67.894193 
L 135.045725 67.881188 
L 135.161914 67.639135 
L 135.199261 67.809694 
L 135.757383 70.658889 
L 135.863198 70.43523 
L 136.056155 70.030184 
L 136.114249 70.158745 
L 136.26156 70.557303 
L 136.271934 70.535605 
L 136.392273 70.029539 
L 136.969068 66.310461 
L 137.155801 65.281272 
L 137.195222 65.333835 
L 137.354982 66.065413 
L 137.429675 65.893753 
L 137.556238 65.40791 
L 137.728446 64.543684 
L 137.809364 64.684825 
L 138.029293 64.297599 
L 138.093612 64.383056 
L 138.203577 64.528602 
L 138.259596 64.42392 
L 138.365411 64.299463 
L 138.415207 64.365157 
L 138.502348 64.657396 
L 138.647585 65.817439 
L 138.946356 68.432093 
L 139.767979 73.868835 
L 139.780427 73.843859 
L 140.149742 73.25491 
L 140.180865 73.288593 
L 140.423617 73.71399 
L 140.5979 74.119511 
L 140.624873 74.072494 
L 140.635247 74.052007 
L 140.716164 74.13727 
L 140.96514 74.535191 
L 141.046058 74.33234 
L 141.365577 72.185742 
L 141.620778 71.054876 
L 141.732818 70.937621 
L 141.780538 70.989837 
L 141.842782 71.217236 
L 141.929924 71.330169 
L 141.967271 71.260476 
L 142.085534 71.138115 
L 142.129105 71.191376 
L 142.195499 71.263077 
L 142.243219 71.162419 
L 142.423727 70.756531 
L 142.438251 70.772266 
L 142.544066 70.850351 
L 142.587637 70.77047 
L 142.726649 70.691244 
L 142.745322 70.711375 
L 142.828314 70.800666 
L 142.863586 70.682318 
L 143.098039 70.108097 
L 143.18518 69.724644 
L 143.544121 68.577055 
L 143.548271 68.569776 
L 143.610515 68.679769 
L 144.04 70.087231 
L 144.066972 70.0396 
L 144.108468 69.96642 
L 144.181086 70.061114 
L 144.434212 70.840885 
L 144.450811 70.671769 
L 144.606421 70.223875 
L 145.004783 69.307207 
L 145.264134 68.35311 
L 145.313929 68.412115 
L 145.596102 69.053998 
L 145.766236 69.391281 
L 146.019362 70.778618 
L 146.278713 71.737026 
L 146.343032 71.659996 
L 146.450921 72.05238 
L 146.99867 74.83145 
L 147.36591 76.599978 
L 147.382508 76.548416 
L 147.461351 76.20484 
L 147.531894 76.377147 
L 147.975902 77.850359 
L 148.025698 77.72904 
L 148.249776 77.240056 
L 148.511202 76.90589 
L 148.548548 76.937833 
L 148.556847 76.944925 
L 148.612867 76.84717 
L 148.712458 76.453196 
L 149.005005 75.552576 
L 149.027828 75.572478 
L 149.031977 75.576094 
L 149.087997 75.480517 
L 149.090072 75.476981 
L 149.150241 75.593503 
L 149.432414 76.48592 
L 149.492584 76.383031 
L 149.729111 76.096971 
L 149.768533 76.130527 
L 149.816253 76.097188 
L 149.799655 76.083067 
L 149.843226 76.05153 
L 149.886796 75.977867 
L 149.971863 76.050197 
L 150.214615 76.223978 
L 150.258186 76.150659 
L 150.366076 75.891159 
L 150.403423 76.011555 
L 150.500938 76.291864 
L 150.567332 76.180657 
L 151.032088 75.616024 
L 151.527966 76.178202 
L 152.393159 78.649047 
L 152.455404 78.813054 
L 152.515573 78.607162 
L 152.733427 77.915534 
L 153.046723 77.18903 
L 153.181585 76.931004 
L 153.216857 76.958836 
L 153.380766 77.008244 
L 153.39529 76.960038 
L 153.851746 74.683208 
L 154.333101 71.467985 
L 154.650546 70.684397 
L 154.743912 70.357393 
L 154.783333 70.226743 
L 154.864251 70.297612 
L 155.003263 70.418932 
L 155.065507 70.328028 
L 155.241865 69.883408 
L 155.524038 68.847928 
L 155.6672 68.615672 
L 155.756416 68.704545 
L 156.013692 69.155813 
L 156.136105 69.410305 
L 156.40583 70.027698 
L 156.432802 69.989314 
L 156.530318 69.742154 
L 156.627834 69.90142 
L 156.663106 69.931624 
L 156.727424 69.840611 
L 156.744023 69.817153 
L 156.789669 69.936213 
L 157.011673 70.992646 
L 157.111263 71.234833 
L 157.165208 71.214063 
L 157.231602 71.409263 
L 157.486803 71.837868 
L 157.710881 71.955061 
L 157.517925 71.798105 
L 157.744078 71.907788 
L 157.789724 71.842867 
L 157.874791 71.911831 
L 157.976456 72.132613 
L 158.275228 73.392988 
L 158.667366 74.854505 
L 158.746209 74.913994 
L 158.808453 74.824002 
L 159.040831 74.489521 
L 159.127972 74.555372 
L 159.200591 74.741632 
L 159.68402 76.641916 
L 159.762862 76.833319 
L 160.057484 78.018746 
L 161.7443 85.908165 
L 162.387489 86.396175 
L 162.829422 87.867689 
L 163.053501 88.628134 
L 163.198737 88.826561 
L 163.572202 89.990296 
L 163.688391 89.779466 
L 164.263112 88.681857 
L 164.404198 88.407834 
L 164.447769 88.429886 
L 164.516238 88.342686 
L 164.70297 87.858932 
L 164.976844 87.063797 
L 165.034939 87.094039 
L 165.205073 87.057523 
L 165.638707 86.21448 
L 165.804691 85.753132 
L 165.860711 85.836566 
L 165.883533 85.852813 
L 165.941628 85.743615 
L 166.306793 84.818212 
L 166.323392 84.827207 
L 166.456179 84.809048 
L 166.462404 84.78379 
L 166.757026 83.71664 
L 166.771549 83.724679 
L 166.900187 83.921767 
L 167.337971 84.722811 
L 167.50603 84.937668 
L 167.520554 84.949422 
L 167.593172 84.859094 
L 167.931365 84.573153 
L 168.012282 84.492119 
L 168.447991 83.696048 
L 168.894074 82.534684 
L 168.912747 82.545019 
L 169.46672 82.888631 
L 169.501991 82.7468 
L 169.927326 81.743582 
L 169.991645 81.482714 
L 170.460551 78.992849 
L 170.549767 78.979366 
L 170.570515 79.030291 
L 170.643133 79.107684 
L 170.692929 79.043969 
L 171.020748 78.803712 
L 171.076767 78.774939 
L 171.093366 78.723094 
L 171.500027 77.81573 
L 171.624515 77.836182 
L 171.908764 78.133888 
L 172.26148 78.700599 
L 172.84865 79.165659 
L 172.95239 79.273407 
L 172.981437 79.199659 
L 173.228339 78.691082 
L 173.257386 78.707677 
L 173.379799 78.650341 
L 173.504288 78.32181 
L 173.722142 77.809814 
L 173.778162 77.84222 
L 173.973193 77.828482 
L 174.531315 77.130686 
L 174.583186 77.252939 
L 174.680701 77.504437 
L 174.74917 77.47029 
L 175.637186 78.107079 
L 175.705654 78.207314 
L 175.767899 78.133201 
L 175.904836 78.140968 
L 176.361292 78.521295 
L 176.581222 78.750318 
L 176.689111 78.935093 
L 176.751355 78.997713 
L 176.801151 78.920746 
L 176.842647 78.857273 
L 176.923564 78.901332 
L 177.274206 79.216141 
L 177.498285 79.450235 
L 177.826104 79.500508 
L 178.120726 78.985359 
L 178.656025 77.381684 
L 178.734868 77.551312 
L 179.226596 78.729475 
L 179.346935 78.650574 
L 179.496321 78.855006 
L 179.622884 79.119644 
L 179.697577 79.033937 
L 179.977675 78.879785 
L 180.068967 79.052008 
L 180.376038 79.459734 
L 180.587668 79.448559 
L 180.71838 79.258686 
L 180.757802 79.29617 
L 181.695613 81.066616 
L 181.871971 81.031142 
L 182.056629 80.986362 
L 182.342952 81.085669 
L 182.367849 81.017023 
L 182.409345 80.949788 
L 182.494412 80.991258 
L 182.635499 80.93908 
L 182.917672 80.594401 
L 182.975767 80.716389 
L 183.185322 80.89834 
L 183.409401 80.963359 
L 183.434298 80.895553 
L 183.726846 80.270664 
L 183.764192 80.31209 
L 183.99657 80.540813 
L 184.270444 80.794886 
L 184.664657 81.862553 
L 184.996626 83.004084 
L 185.778827 84.492656 
L 185.826547 84.438749 
L 186.00498 84.402609 
L 186.087972 84.558005 
L 186.204161 84.630516 
L 186.231134 84.600138 
L 186.247732 84.604033 
L 186.293378 84.694535 
L 186.451063 84.900283 
L 186.500858 84.860305 
L 186.801705 85.106429 
L 187.17102 85.615904 
L 187.179319 85.606564 
L 187.287209 85.520391 
L 187.316256 85.615352 
L 188.011315 88.237235 
L 188.169001 88.186891 
L 188.459473 88.181166 
L 188.592261 88.197172 
L 188.735422 88.147949 
L 188.739572 88.136961 
L 188.91593 87.884136 
L 188.947052 87.896053 
L 189.254123 87.897582 
L 189.519698 87.76487 
L 189.540446 87.769675 
L 189.571568 87.67252 
L 189.828844 87.077846 
L 189.930509 86.800644 
L 190.362068 85.370738 
L 190.779104 84.135049 
L 191.100698 83.632895 
L 191.171242 83.463135 
L 191.231411 83.555719 
L 191.411919 83.66159 
L 191.642222 83.638238 
L 192.351805 82.919376 
L 192.385002 83.008986 
L 192.658876 83.536926 
L 193.387132 85.03383 
L 193.505396 84.885812 
L 193.762671 84.77524 
L 194.007498 84.990973 
L 194.217053 85.144367 
L 194.283447 85.28908 
L 194.551097 85.878695 
L 194.571845 85.856985 
L 194.783475 85.757251 
L 194.795924 85.77974 
L 196.437094 88.761365 
L 196.501412 88.638285 
L 196.918448 87.908202 
L 197.034637 87.876905 
L 197.059535 87.920404 
L 197.175724 87.975798 
L 197.202696 87.947743 
L 197.267015 87.886674 
L 197.337558 87.966323 
L 197.403952 87.877226 
L 197.702724 87.441756 
L 198.298192 86.911846 
L 198.325165 86.958652 
L 198.48285 87.09486 
L 198.505673 87.051636 
L 198.781622 86.677394 
L 198.90611 86.395208 
L 199.123964 86.16175 
L 199.424811 86.38362 
L 199.653039 86.758954 
L 199.659264 86.752699 
L 199.769228 86.487276 
L 200.02028 86.177418 
L 200.11987 86.095164 
L 200.366772 85.645563 
L 200.410343 85.695003 
L 200.790032 85.949437 
L 201.045233 86.166168 
L 201.528662 86.221045 
L 201.783863 85.815892 
L 202.244469 85.029 
L 202.410454 85.023055 
L 202.773544 85.271978 
L 202.87521 85.431677 
L 202.962351 85.372412 
L 203.061942 85.525538 
L 203.219627 85.573298 
L 203.271497 85.477025 
L 203.732104 84.702067 
L 203.866966 84.633891 
L 204.039174 84.514294 
L 204.190635 84.452532 
L 204.427163 84.192031 
L 204.580698 83.896963 
L 205.487387 82.140592 
L 205.929321 81.885672 
L 206.122277 81.841483 
L 207.543518 80.406409 
L 207.755148 80.212489 
L 208.178408 80.258063 
L 208.394188 80.082733 
L 208.446058 80.16794 
L 208.479254 80.198969 
L 208.551873 80.130486 
L 208.902514 79.678036 
L 209.340298 78.589466 
L 209.670192 78.164797 
L 210.329979 76.529673 
L 210.608003 75.993086 
L 210.973169 74.99255 
L 211.267791 74.174194 
L 212.338389 72.252418 
L 212.547945 72.223281 
L 213.550075 70.475619 
L 213.925614 70.329941 
L 214.622748 70.524625 
L 214.929819 70.102664 
L 214.948493 70.133232 
L 215.164272 70.475921 
L 215.24104 70.403984 
L 215.647701 69.856925 
L 215.759741 69.786687 
L 215.900828 69.776101 
L 215.919501 69.806477 
L 216.066812 69.835357 
L 216.421603 70.112331 
L 216.658131 70.545306 
L 216.685103 70.525442 
L 217.174757 70.028108 
L 217.701757 68.766305 
L 217.82832 68.543061 
L 218.062773 68.1834 
L 218.94249 67.424871 
L 219.241262 66.639335 
L 219.668671 65.707914 
L 219.743364 65.524007 
L 219.992341 65.129928 
L 220.125128 64.910115 
L 220.455022 63.590102 
L 220.896955 62.253748 
L 221.706128 61.037974 
L 221.791195 60.960677 
L 222.172959 60.512156 
L 222.297447 60.303627 
L 222.409487 60.038093 
L 222.492479 60.079453 
L 222.936487 60.176986 
L 223.079649 60.217759 
L 223.206212 60.402914 
L 223.536105 61.139624 
L 224.009161 62.509023 
L 224.220791 62.73079 
L 224.70007 63.422444 
L 224.749866 63.360973 
L 224.924149 63.380214 
L 225.953252 63.736187 
L 226.198079 63.712359 
L 226.291445 63.635233 
L 226.540421 63.424073 
L 226.725079 63.386901 
L 227.119291 63.270338 
L 227.241705 63.205086 
L 227.467858 62.974553 
L 227.532177 63.154026 
L 227.745882 63.52196 
L 227.893193 63.470301 
L 228.50526 62.646001 
L 228.797808 62.659664 
L 229.214843 62.274295 
L 229.497017 61.586563 
L 229.708647 61.32933 
L 229.880855 61.098612 
L 230.594588 59.47942 
L 230.831115 59.215218 
L 231.030296 59.102212 
L 231.424509 59.179881 
L 231.428659 59.168784 
L 231.810423 58.461065 
L 231.963958 58.499435 
L 232.188037 58.638289 
L 232.31045 58.575137 
L 233.067754 58.271728 
L 233.221289 58.4668 
L 233.567781 59.332747 
L 233.659073 59.28086 
L 233.866553 59.287226 
L 234.565762 60.531241 
L 234.939227 61.168883 
L 235.194428 61.161948 
L 235.374936 61.183122 
L 235.578266 61.284121 
L 235.665408 61.358694 
L 235.984928 61.630648 
L 236.163361 61.826978 
L 236.337644 61.962156 
L 236.993282 62.130193 
L 237.088723 62.048204 
L 237.134369 62.114001 
L 237.354298 62.236336 
L 237.455964 62.159258 
L 237.617798 62.1083 
L 237.926944 62.123108 
L 238.327381 61.700253 
L 239.646956 61.078707 
L 240.151134 61.177594 
L 240.427083 61.151203 
L 241.174012 61.353117 
L 241.422988 61.341474 
L 241.535028 61.271535 
L 241.900193 60.912857 
L 242.209339 60.925672 
L 243.539288 60.325304 
L 244.024792 60.414227 
L 244.250946 60.275121 
L 244.551793 60.239782 
L 244.767572 60.35115 
L 244.927332 60.381033 
L 244.929407 60.385877 
L 245.269675 60.901431 
L 245.452257 61.096325 
L 245.894191 61.514443 
L 246.022828 61.44736 
L 246.769758 60.921298 
L 247.226215 60.443506 
L 247.800935 60.562984 
L 248.232494 60.461494 
L 248.612184 60.499885 
L 248.906806 60.222855 
L 249.02092 60.179168 
L 249.045817 60.212622 
L 249.321766 60.397631 
L 249.44003 60.328666 
L 249.59979 60.290329 
L 249.699381 60.211972 
L 249.848767 60.190689 
L 250.184885 60.142471 
L 250.769979 60.501898 
L 251.07705 60.725574 
L 251.689117 60.856149 
L 252.220267 60.130014 
L 252.278362 60.206513 
L 252.40285 60.217109 
L 252.415299 60.205124 
L 253.073012 59.748678 
L 253.326138 59.441295 
L 253.649807 59.156126 
L 253.863512 58.941447 
L 254.500477 58.241254 
L 254.753603 58.240775 
L 254.900914 58.615767 
L 255.189311 58.983984 
L 255.647843 59.2876 
L 256.26406 59.914459 
L 256.266135 59.911589 
L 256.52341 59.694531 
L 256.542083 59.716687 
L 256.89065 60.027588 
L 256.905174 60.007567 
L 257.081532 59.880466 
L 257.27034 60.074134 
L 258.199852 61.081347 
L 258.411482 60.852878 
L 258.560868 60.464393 
L 258.990352 59.203167 
L 259.282899 58.821596 
L 259.525651 58.678592 
L 259.861769 58.92883 
L 260.100372 59.260728 
L 260.131494 59.245847 
L 260.374246 59.009309 
L 260.590026 58.800626 
L 260.942742 58.820406 
L 261.090053 58.870898 
L 261.395049 59.0759 
L 261.563109 58.874812 
L 261.679298 58.882573 
L 262.278916 59.234733 
L 262.581837 59.616374 
L 262.76442 59.805251 
L 263.144109 60.098713 
L 263.752026 60.446719 
L 263.907637 60.464589 
L 264.173212 60.460239 
L 264.291475 60.432391 
L 264.393141 60.503885 
L 264.940889 61.383117 
L 265.057078 61.387285 
L 265.069527 61.367335 
L 265.289456 61.155909 
L 265.51561 61.038178 
L 265.72309 60.999383 
L 265.866252 60.992791 
L 266.25009 61.017206 
L 266.588283 60.979643 
L 266.775016 61.165998 
L 267.279193 61.624616 
L 267.289567 61.611071 
L 267.509496 61.505665 
L 268.013673 61.804646 
L 268.144386 61.818834 
L 268.299996 61.864277 
L 268.752304 62.528373 
L 269.175564 62.561233 
L 269.324949 62.612115 
L 269.478485 62.549922 
L 269.733686 62.550878 
L 270.476465 63.254056 
L 270.843706 63.202831 
L 271.252442 63.460401 
L 272.366612 64.581639 
L 272.505624 64.742353 
L 272.881163 65.457339 
L 273.65714 65.596435 
L 273.895742 65.471005 
L 274.196589 65.206552 
L 274.327301 65.068178 
L 274.372947 65.091483 
L 274.570053 65.149493 
L 274.843927 65.142946 
L 275.117801 65.618138 
L 275.329431 65.785864 
L 275.435246 65.856361 
L 275.671774 65.955594 
L 275.808711 66.012754 
L 275.989219 66.185923 
L 276.157278 66.328454 
L 276.207073 66.265319 
L 276.314963 66.265145 
L 276.331562 66.283587 
L 276.522444 66.331154 
L 277.240326 66.674581 
L 277.400086 66.685573 
L 277.605491 66.710877 
L 277.734129 66.635352 
L 278.066098 66.394058 
L 279.860803 66.843903 
L 280.302736 66.758172 
L 280.470795 66.925868 
L 281.037217 67.702648 
L 281.273744 67.907117 
L 281.672107 68.173961 
L 282.130638 67.835849 
L 282.433559 67.637042 
L 282.788351 67.349656 
L 282.979233 67.289796 
L 283.093347 67.44002 
L 283.437765 67.83957 
L 283.881773 68.087048 
L 284.095477 68.153472 
L 284.224115 67.973894 
L 284.477241 67.718154 
L 284.759415 67.915154 
L 285.027064 68.170106 
L 285.805116 68.285481 
L 286.610139 67.481142 
L 286.852891 67.437646 
L 286.954557 67.43344 
L 286.97738 67.457272 
L 287.670364 68.020252 
L 287.902742 67.7923 
L 288.045904 67.61143 
L 288.101923 67.644812 
L 288.927695 67.771243 
L 289.118577 67.806629 
L 289.396601 67.771969 
L 289.664251 67.772736 
L 290.187101 68.151432 
L 290.390432 68.322689 
L 290.753523 68.737198 
L 291.2577 69.093881 
L 291.950684 68.658468 
L 292.137417 68.609535 
L 292.319999 68.547423 
L 292.855299 67.747196 
L 293.326279 67.089253 
L 294.340858 66.525704 
L 294.865784 65.774631 
L 295.197752 65.757972 
L 295.59404 65.41922 
L 295.616863 65.442264 
L 295.878288 65.549788 
L 296.255902 65.545374 
L 296.486205 65.327752 
L 296.683312 65.271173 
L 296.8078 65.192042 
L 297.482111 64.178881 
L 299.002942 63.665108 
L 299.123281 63.630494 
L 299.760246 63.488888 
L 299.928305 63.423441 
L 300.469829 62.657378 
L 300.739553 62.398194 
L 300.930435 62.340775 
L 301.281077 62.08227 
L 301.557026 61.942388 
L 301.859947 61.91784 
L 302.088175 61.944498 
L 302.299805 62.042491 
L 302.320553 62.019884 
L 302.467865 61.958838 
L 302.498987 61.989745 
L 302.895274 61.993126 
L 303.138026 62.01529 
L 303.62768 62.654891 
L 304.764672 64.342154 
L 304.930657 64.655502 
L 305.337318 65.888198 
L 306.127818 68.390076 
L 306.428665 68.671479 
L 306.733661 68.663914 
L 307.154846 68.662823 
L 307.401748 68.447407 
L 307.526236 68.593907 
L 307.872728 68.838734 
L 307.908 68.800186 
L 308.22752 68.459961 
L 308.459898 68.370819 
L 309.071965 68.237202 
L 309.275296 68.175916 
L 309.499374 68.095091 
L 309.733827 68.042193 
L 309.982804 68.05992 
L 310.808576 68.677512 
L 311.408194 68.550937 
L 311.914446 68.793707 
L 312.109478 68.897133 
L 312.314883 68.835237 
L 312.441446 68.664035 
L 312.995419 67.924943 
L 313.209124 67.866341 
L 313.447726 67.774601 
L 314.151084 67.37324 
L 314.478903 67.03046 
L 314.93536 66.968278 
L 315.227908 67.087677 
L 315.783955 66.749458 
L 315.904294 66.783437 
L 316.541258 67.061738 
L 316.827581 67.309271 
L 316.829656 67.307107 
L 316.875302 67.303985 
L 316.927172 67.363071 
L 317.188597 67.450087 
L 317.495668 67.642564 
L 317.653353 67.747042 
L 317.678251 67.721133 
L 317.835936 67.716811 
L 318.041342 67.752721 
L 318.767523 68.050721 
L 318.906535 68.026823 
L 319.659688 67.8478 
L 319.881692 67.899423 
L 320.186689 67.89865 
L 321.527012 68.119499 
L 321.854831 68.1109 
L 323.238725 69.185884 
L 323.776099 68.794924 
L 324.579048 68.601869 
L 324.942139 68.945854 
L 325.40897 69.172028 
L 325.604001 69.193936 
L 325.734714 69.026808 
L 325.977466 68.840106 
L 326.280387 69.026409 
L 326.714021 69.25358 
L 327.317789 69.283134 
L 328.116589 68.636177 
L 328.36349 68.582195 
L 328.481754 68.619338 
L 329.176813 69.069155 
L 329.415416 68.859901 
L 329.604223 68.762939 
L 330.454892 68.850227 
L 330.6437 68.897128 
L 330.921723 68.849485 
L 331.174849 68.872101 
L 331.705999 69.175741 
L 331.903105 69.33518 
L 332.262046 69.661546 
L 332.577417 69.847302 
L 332.811869 69.900919 
L 333.042173 69.827821 
L 333.233055 69.758403 
L 333.874169 69.398673 
L 334.175016 69.006113 
L 335.278811 68.08445 
L 335.872205 67.74953 
L 336.368083 67.180095 
L 336.710426 67.147001 
L 337.121237 66.90525 
L 337.397186 66.991475 
L 337.783099 66.969058 
L 338.011328 66.770424 
L 338.19391 66.749576 
L 338.411765 66.556395 
L 338.868222 65.842271 
L 339.098525 65.78334 
L 340.513541 65.403436 
L 340.675376 65.328898 
L 341.252171 65.245649 
L 341.438903 65.177399 
L 341.988726 64.51401 
L 342.241852 64.331837 
L 342.457632 64.270367 
L 342.808274 64.033942 
L 343.06555 63.946751 
L 343.385069 63.911005 
L 343.600849 63.954907 
L 343.822853 63.996632 
L 344.005436 63.97828 
L 344.422471 63.964986 
L 344.648625 64.00397 
L 345.146578 64.554524 
L 346.760775 66.991343 
L 347.628043 69.312208 
L 347.930964 69.538958 
L 348.339701 69.510283 
L 348.601126 69.576168 
L 348.729764 69.413963 
L 348.904047 69.351407 
L 349.053433 69.496804 
L 349.404075 69.644064 
L 349.408225 69.637896 
L 349.740193 69.342468 
L 349.978796 69.274118 
L 350.599162 69.17453 
L 350.785894 69.102399 
L 351.007898 69.049675 
L 351.261024 68.990904 
L 351.493402 69.026976 
L 351.943635 69.237948 
L 352.184312 69.168391 
L 352.439513 69.334647 
L 352.777706 69.600666 
L 353.223789 69.805255 
L 353.510112 69.97908 
L 353.864903 70.112484 
L 354.11388 70.036282 
L 354.37323 70.096293 
L 355.686581 68.760232 
L 355.952156 68.571194 
L 356.107766 68.579162 
L 356.526876 68.761145 
L 357.734412 68.234499 
L 358.317432 67.865054 
L 358.539436 67.800086 
L 358.834058 67.393282 
L 359.089259 67.135299 
L 359.242794 67.056306 
L 359.749047 66.465581 
L 360.159858 65.90238 
L 360.618389 65.649116 
L 360.844543 65.586328 
L 361.176512 65.445739 
L 361.35287 65.371122 
L 361.479433 65.445162 
L 361.713886 65.568715 
L 362.060378 65.694196 
L 362.419319 65.695531 
L 362.908973 65.928879 
L 363.767941 65.768764 
L 364.050115 65.84458 
L 364.220249 65.903745 
L 364.41528 65.976006 
L 364.757623 65.937844 
L 365.089591 65.799954 
L 365.404962 65.816083 
L 365.691285 65.765049 
L 366.259781 65.701051 
L 366.793005 65.704646 
L 367.672722 64.814887 
L 367.892651 64.701449 
L 368.056561 64.624215 
L 368.979848 63.994293 
L 369.145833 63.980518 
L 370.048372 63.371309 
L 370.886593 63.444448 
L 371.206113 63.323914 
L 371.824404 63.022819 
L 372.670924 62.071281 
L 373.011192 61.856438 
L 373.689653 60.830165 
L 373.834889 60.749304 
L 374.071417 60.794525 
L 374.241551 60.782754 
L 374.490527 60.726731 
L 374.984331 60.470653 
L 375.490583 60.473591 
L 376.552882 59.760724 
L 376.656622 59.701499 
L 377.57576 58.828836 
L 378.121434 58.068047 
L 378.708603 57.746611 
L 379.358017 57.68136 
L 379.953486 58.248381 
L 380.254332 58.206621 
L 381.179695 57.195039 
L 382.204648 56.805094 
L 382.453624 56.511133 
L 383.140384 56.121308 
L 383.410109 56.298245 
L 383.827144 56.742853 
L 384.24003 57.237031 
L 384.491081 57.284774 
L 384.781554 57.201924 
L 385.03468 57.24802 
L 385.341751 57.336407 
L 385.750487 57.341802 
L 385.941369 57.273409 
L 386.466295 57.012525 
L 387.130232 56.722099 
L 387.364685 56.534311 
L 388.431134 56.139921 
L 388.686335 55.809246 
L 389.063949 55.16428 
L 389.414591 54.653019 
L 390.00176 54.353578 
L 390.398048 54.367141 
L 390.663623 54.317354 
L 390.842056 54.272381 
L 391.767418 53.92588 
L 391.972824 53.846312 
L 392.27782 53.931614 
L 393.004001 53.863491 
L 393.327671 53.959915 
L 393.630592 53.770204 
L 394.242659 53.459512 
L 394.512383 53.507217 
L 394.919045 53.48915 
L 395.194994 53.308516 
L 395.487541 53.129146 
L 396.002093 52.893131 
L 396.209573 52.829796 
L 396.906707 52.462407 
L 398.313424 52.237729 
L 398.612196 52.42211 
L 398.979436 52.548293 
L 399.228412 52.602018 
L 400.085306 52.69114 
L 400.240917 52.713854 
L 401.224374 53.275408 
L 401.377909 53.301178 
L 401.882086 53.522239 
L 402.288748 53.368961 
L 402.496228 53.206162 
L 402.792925 53.027199 
L 403.498359 52.745851 
L 404.149847 52.42125 
L 404.749465 52.446993 
L 404.909225 52.521728 
L 405.264017 52.63465 
L 406.027544 52.232931 
L 406.645836 52.529712 
L 407.259978 52.236681 
L 407.620994 52.352431 
L 408.011057 52.215915 
L 408.367923 52.184053 
L 408.625199 52.140847 
L 409.266313 52.106616 
L 410.463475 52.26816 
L 411.442782 51.459794 
L 411.870192 51.140579 
L 412.890995 51.023392 
L 413.032082 51.169027 
L 413.231263 51.279782 
L 413.656598 51.491038 
L 414.154551 51.891143 
L 414.476145 51.932052 
L 414.924303 52.102714 
L 415.098586 52.174785 
L 415.453378 52.408066 
L 415.750075 52.587658 
L 416.752205 53.129652 
L 417.075874 53.088447 
L 417.382945 52.908755 
L 418.098753 52.953559 
L 418.764765 52.915872 
L 418.91415 52.944142 
L 420.256548 53.706017 
L 420.694332 53.687577 
L 421.161163 53.508094 
L 421.497281 53.545103 
L 421.897718 53.518864 
L 422.281557 53.545926 
L 422.584478 53.724866 
L 422.916447 54.075286 
L 423.341782 54.377257 
L 424.271294 54.688449 
L 424.729825 55.024492 
L 424.879211 54.944001 
L 425.165534 54.886012 
L 425.779676 54.859768 
L 426.617897 55.148321 
L 427.354452 55.491093 
L 427.765263 55.463331 
L 428.636681 55.378725 
L 429.167831 55.375133 
L 429.891937 54.748324 
L 431.091174 54.592062 
L 431.331851 54.687429 
L 432.286261 54.772292 
L 432.894178 54.523532 
L 433.66393 54.154959 
L 435.439962 54.635414 
L 436.543758 55.199648 
L 436.747089 55.127496 
L 436.935896 55.059507 
L 436.948345 55.072558 
L 437.516841 55.508093 
L 438.282443 55.8547 
L 438.529345 56.015704 
L 439.307397 56.665928 
L 439.84892 56.869615 
L 440.353098 57.081035 
L 441.309582 57.537962 
L 441.529511 57.468634 
L 443.716354 55.933485 
L 443.957032 55.774247 
L 444.13754 55.756389 
L 444.40104 55.719622 
L 444.747532 55.801305 
L 445.029705 55.96971 
L 445.318103 56.015695 
L 445.693642 55.975872 
L 446.394926 55.663871 
L 446.62108 55.596213 
L 446.859682 55.444073 
L 447.216548 55.531746 
L 447.384608 55.608838 
L 447.793344 55.726722 
L 448.282998 55.734286 
L 448.550647 55.674151 
L 448.853569 55.615865 
L 449.197986 55.655554 
L 449.926242 55.909757 
L 450.801809 56.305871 
L 451.299762 56.085033 
L 452.009345 55.774234 
L 453.721058 56.668654 
L 454.152617 56.688112 
L 454.428566 56.978888 
L 454.775058 57.271525 
L 455.02196 57.360039 
L 455.39335 57.541501 
L 455.687972 57.586909 
L 457.588492 57.288573 
L 457.808422 57.288676 
L 458.119642 57.234542 
L 458.576099 56.929084 
L 458.970312 56.889927 
L 462.644789 55.997093 
L 463.630321 55.53398 
L 464.090927 55.73209 
L 465.057786 56.515748 
L 465.460298 56.544872 
L 465.783967 56.702841 
L 466.016345 56.856878 
L 466.296444 56.972479 
L 466.487326 56.894761 
L 468.636822 56.334622 
L 468.848452 56.281568 
L 469.221917 56.318206 
L 469.655551 56.437014 
L 470.19085 56.646744 
L 470.800843 56.8653 
L 471.331992 56.868799 
L 471.605867 57.029493 
L 471.771851 57.034449 
L 472.554052 56.986236 
L 473.147446 57.192797 
L 473.402647 57.170646 
L 474.772017 57.810618 
L 475.074938 57.860501 
L 475.32184 57.872093 
L 475.728502 57.900526 
L 476.330195 58.107769 
L 476.575022 58.025157 
L 476.85927 57.962876 
L 477.815754 57.531065 
L 478.38425 57.909011 
L 478.923699 58.115025 
L 479.942428 58.548585 
L 480.307593 58.586029 
L 481.334621 59.021325 
L 482.218488 59.058831 
L 483.019362 58.72231 
L 483.428098 58.94603 
L 483.675 58.953599 
L 484.04224 58.903428 
L 484.341012 58.955216 
L 484.633559 58.988153 
L 484.795394 59.067694 
L 485.888816 59.782844 
L 486.058949 59.789447 
L 487.137847 59.297031 
L 487.353627 59.140696 
L 488.195997 58.219505 
L 489.308092 57.714486 
L 489.882813 57.700464 
L 490.108966 57.699101 
L 490.440935 57.751281 
L 490.926439 57.767745 
L 491.156742 57.765529 
L 491.671294 57.552096 
L 491.87255 57.472464 
L 492.542711 57.47419 
L 492.797912 57.458219 
L 493.167227 57.529344 
L 493.385082 57.455071 
L 493.704601 57.311329 
L 494.354015 57.075919 
L 494.663161 57.128731 
L 495.167338 57.27051 
L 495.798078 57.48854 
L 495.964063 57.489264 
L 496.25246 57.455747 
L 496.488988 57.522858 
L 496.8915 57.610004 
L 497.374929 57.802955 
L 497.713122 57.954346 
L 498.04924 58.122285 
L 498.715252 58.346193 
L 500.287954 58.491308 
L 501.182194 58.430062 
L 501.534911 58.598872 
L 501.75069 58.641162 
L 502.086808 58.688813 
L 502.271466 58.83072 
L 502.582687 59.116637 
L 503.315092 59.618522 
L 503.771549 59.868712 
L 504.163687 60.042897 
L 504.49773 60.185636 
L 504.92099 60.526037 
L 505.155443 60.639461 
L 506.178321 60.202645 
L 508.072617 59.718163 
L 509.597598 59.014084 
L 509.910893 59.067082 
L 510.195142 59.087935 
L 510.881902 59.068655 
L 511.052036 59.031105 
L 511.415126 58.961127 
L 511.645429 59.029752 
L 511.946276 59.058191 
L 512.149607 59.07492 
L 512.711879 59.234072 
L 513.025174 59.06155 
L 513.687036 58.625217 
L 514.593726 58.566154 
L 515.303308 58.798839 
L 515.610379 58.853883 
L 516.573088 59.459017 
L 516.894683 59.585446 
L 518.797278 59.989234 
L 519.382373 60.333662 
L 521.552617 61.278249 
L 522.353492 61.2848 
L 522.677161 61.335399 
L 523.293378 61.537734 
L 523.874323 61.873064 
L 524.050681 61.786721 
L 524.476016 61.68714 
L 525.142028 61.671821 
L 525.366107 61.65702 
L 525.845386 61.67873 
L 526.355788 61.865147 
L 526.824694 61.967887 
L 530.227372 62.347903 
L 530.472199 62.413178 
L 530.872636 62.594269 
L 532.159014 62.664905 
L 532.522105 62.483324 
L 532.775231 62.412059 
L 534.082357 62.485166 
L 534.760818 62.053857 
L 535.439279 61.814246 
L 535.833492 61.624823 
L 536.441409 61.823667 
L 537.346023 62.675324 
L 537.59085 62.910497 
L 538.02241 63.340173 
L 538.366827 63.471705 
L 538.893827 63.59421 
L 539.371032 63.391058 
L 539.898032 63.244512 
L 540.503875 63.242748 
L 540.879414 63.294304 
L 541.416788 63.305988 
L 543.012313 63.412403 
L 544.031041 63.334025 
L 544.933581 63.626988 
L 545.288372 63.672918 
L 545.738605 63.757645 
L 546.417065 63.517954 
L 546.636995 63.479747 
L 546.912944 63.485058 
L 547.137022 63.494005 
L 547.462767 63.606987 
L 547.690995 63.748554 
L 548.531291 64.260031 
L 549.622637 63.943719 
L 550.141338 63.660683 
L 550.834323 63.420108 
L 552.415323 62.750501 
L 553.678879 63.199689 
L 554.052343 63.243638 
L 554.305469 63.236146 
L 555.498482 62.766139 
L 555.969462 62.793962 
L 556.214289 62.715896 
L 556.440442 62.673847 
L 556.923872 62.769101 
L 558.857589 62.91548 
L 559.16466 62.973039 
L 559.380439 62.997081 
L 559.992506 62.966795 
L 560.318251 62.930383 
L 561.260212 62.874172 
L 563.386885 63.266809 
L 563.936708 63.387936 
L 564.511429 63.574766 
L 565.698217 64.322961 
L 566.808237 64.352978 
L 567.169253 64.400861 
L 567.737749 64.363087 
L 568.165158 64.165771 
L 570.026257 64.291317 
L 570.445368 64.211578 
L 571.432974 64.516999 
L 574.271306 64.985065 
L 574.580452 65.347553 
L 575.001637 65.622447 
L 575.331531 65.774302 
L 577.277697 67.049936 
L 577.987279 67.022904 
L 578.400165 66.946972 
L 580.128477 66.747276 
L 580.690749 66.862426 
L 581.253021 66.874039 
L 582.435659 66.903436 
L 583.695065 66.426103 
L 584.031183 66.254496 
L 584.471041 66.055573 
L 585.506368 65.688493 
L 586.469077 65.407211 
L 586.917235 65.318611 
L 588.545956 65.874608 
L 589.062582 66.047297 
L 590.164303 66.380807 
L 590.390456 66.453476 
L 590.583413 66.414185 
L 590.797118 66.348849 
L 591.388437 66.471439 
L 592.94039 66.541798 
L 594.010989 66.165355 
L 594.340883 66.315315 
L 594.668702 66.408864 
L 595.658383 66.633636 
L 595.975828 66.859404 
L 596.43021 66.92364 
L 596.820273 67.079272 
L 597.214486 67.310589 
L 597.525706 67.316691 
L 598.600455 66.941299 
L 598.9096 66.775489 
L 599.511294 66.462833 
L 600.536247 66.469869 
L 601.685688 66.063766 
L 602.71894 66.071344 
L 603.546787 65.815771 
L 603.700322 65.677401 
L 603.920252 65.57222 
L 604.67548 65.556282 
L 605.171358 65.635985 
L 605.613291 65.673982 
L 605.883016 65.724472 
L 606.343622 65.534503 
L 606.594674 65.542867 
L 607.852005 66.163057 
L 608.318835 66.458114 
L 609.723478 66.895864 
L 611.265057 66.117113 
L 611.265057 66.117113 
" clip-path="url(#pba3209d78d)" style="fill: none; stroke: #1f2937; stroke-linecap: square"/>
   </g>
   <g id="line2d_30">
    <path d="M 66.63125 66.117113 
L 637.2 66.117113 
" clip-path="url(#pba3209d78d)" style="fill: none; stroke-dasharray: 2.96,1.28; stroke-dashoffset: 0; stroke: #888888; stroke-width: 0.8"/>
   </g>
   <g id="patch_3">
    <path d="M 66.63125 282.04 
L 66.63125 26.88 
" style="fill: none; stroke: #000000; stroke-width: 0.8; stroke-linejoin: miter; stroke-linecap: square"/>
   </g>
   <g id="patch_4">
    <path d="M 637.2 282.04 
L 637.2 26.88 
" style="fill: none; stroke: #000000; stroke-width: 0.8; stroke-linejoin: miter; stroke-linecap: square"/>
   </g>
   <g id="patch_5">
    <path d="M 66.63125 282.04 
L 637.2 282.04 
" style="fill: none; stroke: #000000; stroke-width: 0.8; stroke-linejoin: miter; stroke-linecap: square"/>
   </g>
   <g id="patch_6">
    <path d="M 66.63125 26.88 
L 637.2 26.88 
" style="fill: none; stroke: #000000; stroke-width: 0.8; stroke-linejoin: miter; stroke-linecap: square"/>
   </g>
   <g id="text_17">
    <!-- Running mean — seats_at_50_50  (100k ReCom samples, seed 42) -->
    <g transform="translate(151.17625 20.88) scale(0.12 -0.12)">
     <defs>
      <path id="DejaVuSans-2014" d="M 313 1978 
L 6088 1978 
L 6088 1528 
L 313 1528 
L 313 1978 
z
" transform="scale(0.015625)"/>
      <path id="DejaVuSans-28" d="M 1984 4856 
Q 1566 4138 1362 3434 
Q 1159 2731 1159 2009 
Q 1159 1288 1364 580 
Q 1569 -128 1984 -844 
L 1484 -844 
Q 1016 -109 783 600 
Q 550 1309 550 2009 
Q 550 2706 781 3412 
Q 1013 4119 1484 4856 
L 1984 4856 
z
" transform="scale(0.015625)"/>
      <path id="DejaVuSans-6b" d="M 581 4863 
L 1159 4863 
L 1159 1991 
L 2875 3500 
L 3609 3500 
L 1753 1863 
L 3688 0 
L 2938 0 
L 1159 1709 
L 1159 0 
L 581 0 
L 581 4863 
z
" transform="scale(0.015625)"/>
      <path id="DejaVuSans-43" d="M 4122 4306 
L 4122 3641 
Q 3803 3938 3442 4084 
Q 3081 4231 2675 4231 
Q 1875 4231 1450 3742 
Q 1025 3253 1025 2328 
Q 1025 1406 1450 917 
Q 1875 428 2675 428 
Q 3081 428 3442 575 
Q 3803 722 4122 1019 
L 4122 359 
Q 3791 134 3420 21 
Q 3050 -91 2638 -91 
Q 1578 -91 968 557 
Q 359 1206 359 2328 
Q 359 3453 968 4101 
Q 1578 4750 2638 4750 
Q 3056 4750 3426 4639 
Q 3797 4528 4122 4306 
z
" transform="scale(0.015625)"/>
      <path id="DejaVuSans-2c" d="M 750 794 
L 1409 794 
L 1409 256 
L 897 -744 
L 494 -744 
L 750 256 
L 750 794 
z
" transform="scale(0.015625)"/>
      <path id="DejaVuSans-29" d="M 513 4856 
L 1013 4856 
Q 1481 4119 1714 3412 
Q 1947 2706 1947 2009 
Q 1947 1309 1714 600 
Q 1481 -109 1013 -844 
L 513 -844 
Q 928 -128 1133 580 
Q 1338 1288 1338 2009 
Q 1338 2731 1133 3434 
Q 928 4138 513 4856 
z
" transform="scale(0.015625)"/>
     </defs>
     <use xlink:href="#DejaVuSans-52"/>
     <use xlink:href="#DejaVuSans-75" transform="translate(64.982422 0)"/>
     <use xlink:href="#DejaVuSans-6e" transform="translate(128.361328 0)"/>
     <use xlink:href="#DejaVuSans-6e" transform="translate(191.740234 0)"/>
     <use xlink:href="#DejaVuSans-69" transform="translate(255.119141 0)"/>
     <use xlink:href="#DejaVuSans-6e" transform="translate(282.902344 0)"/>
     <use xlink:href="#DejaVuSans-67" transform="translate(346.28125 0)"/>
     <use xlink:href="#DejaVuSans-20" transform="translate(409.757812 0)"/>
     <use xlink:href="#DejaVuSans-6d" transform="translate(441.544922 0)"/>
     <use xlink:href="#DejaVuSans-65" transform="translate(538.957031 0)"/>
     <use xlink:href="#DejaVuSans-61" transform="translate(600.480469 0)"/>
     <use xlink:href="#DejaVuSans-6e" transform="translate(661.759766 0)"/>
     <use xlink:href="#DejaVuSans-20" transform="translate(725.138672 0)"/>
     <use xlink:href="#DejaVuSans-2014" transform="translate(756.925781 0)"/>
     <use xlink:href="#DejaVuSans-20" transform="translate(856.925781 0)"/>
     <use xlink:href="#DejaVuSans-73" transform="translate(888.712891 0)"/>
     <use xlink:href="#DejaVuSans-65" transform="translate(940.8125 0)"/>
     <use xlink:href="#DejaVuSans-61" transform="translate(1002.335938 0)"/>
     <use xlink:href="#DejaVuSans-74" transform="translate(1063.615234 0)"/>
     <use xlink:href="#DejaVuSans-73" transform="translate(1102.824219 0)"/>
     <use xlink:href="#DejaVuSans-5f" transform="translate(1154.923828 0)"/>
     <use xlink:href="#DejaVuSans-61" transform="translate(1204.923828 0)"/>
     <use xlink:href="#DejaVuSans-74" transform="translate(1266.203125 0)"/>
     <use xlink:href="#DejaVuSans-5f" transform="translate(1305.412109 0)"/>
     <use xlink:href="#DejaVuSans-35" transform="translate(1355.412109 0)"/>
     <use xlink:href="#DejaVuSans-30" transform="translate(1419.035156 0)"/>
     <use xlink:href="#DejaVuSans-5f" transform="translate(1482.658203 0)"/>
     <use xlink:href="#DejaVuSans-35" transform="translate(1532.658203 0)"/>
     <use xlink:href="#DejaVuSans-30" transform="translate(1596.28125 0)"/>
     <use xlink:href="#DejaVuSans-20" transform="translate(1659.904297 0)"/>
     <use xlink:href="#DejaVuSans-20" transform="translate(1691.691406 0)"/>
     <use xlink:href="#DejaVuSans-28" transform="translate(1723.478516 0)"/>
     <use xlink:href="#DejaVuSans-31" transform="translate(1762.492188 0)"/>
     <use xlink:href="#DejaVuSans-30" transform="translate(1826.115234 0)"/>
     <use xlink:href="#DejaVuSans-30" transform="translate(1889.738281 0)"/>
     <use xlink:href="#DejaVuSans-6b" transform="translate(1953.361328 0)"/>
     <use xlink:href="#DejaVuSans-20" transform="translate(2011.271484 0)"/>
     <use xlink:href="#DejaVuSans-52" transform="translate(2043.058594 0)"/>
     <use xlink:href="#DejaVuSans-65" transform="translate(2108.041016 0)"/>
     <use xlink:href="#DejaVuSans-43" transform="translate(2169.564453 0)"/>
     <use xlink:href="#DejaVuSans-6f" transform="translate(2239.388672 0)"/>
     <use xlink:href="#DejaVuSans-6d" transform="translate(2300.570312 0)"/>
     <use xlink:href="#DejaVuSans-20" transform="translate(2397.982422 0)"/>
     <use xlink:href="#DejaVuSans-73" transform="translate(2429.769531 0)"/>
     <use xlink:href="#DejaVuSans-61" transform="translate(2481.869141 0)"/>
     <use xlink:href="#DejaVuSans-6d" transform="translate(2543.148438 0)"/>
     <use xlink:href="#DejaVuSans-70" transform="translate(2640.560547 0)"/>
     <use xlink:href="#DejaVuSans-6c" transform="translate(2704.037109 0)"/>
     <use xlink:href="#DejaVuSans-65" transform="translate(2731.820312 0)"/>
     <use xlink:href="#DejaVuSans-73" transform="translate(2793.34375 0)"/>
     <use xlink:href="#DejaVuSans-2c" transform="translate(2845.443359 0)"/>
     <use xlink:href="#DejaVuSans-20" transform="translate(2877.230469 0)"/>
     <use xlink:href="#DejaVuSans-73" transform="translate(2909.017578 0)"/>
     <use xlink:href="#DejaVuSans-65" transform="translate(2961.117188 0)"/>
     <use xlink:href="#DejaVuSans-65" transform="translate(3022.640625 0)"/>
     <use xlink:href="#DejaVuSans-64" transform="translate(3084.164062 0)"/>
     <use xlink:href="#DejaVuSans-20" transform="translate(3147.640625 0)"/>
     <use xlink:href="#DejaVuSans-34" transform="translate(3179.427734 0)"/>
     <use xlink:href="#DejaVuSans-32" transform="translate(3243.050781 0)"/>
     <use xlink:href="#DejaVuSans-29" transform="translate(3306.673828 0)"/>
    </g>
   </g>
   <g id="legend_1">
    <g id="patch_7">
     <path d="M 496.306406 47.290312 
L 630.9 47.290312 
Q 632.7 47.290312 632.7 45.490312 
L 632.7 33.18 
Q 632.7 31.38 630.9 31.38 
L 496.306406 31.38 
Q 494.506406 31.38 494.506406 33.18 
L 494.506406 45.490312 
Q 494.506406 47.290312 496.306406 47.290312 
z
" style="fill: #ffffff; opacity: 0.8; stroke: #cccccc; stroke-linejoin: miter"/>
    </g>
    <g id="line2d_31">
     <path d="M 498.106406 38.668594 
L 507.106406 38.668594 
L 516.106406 38.668594 
" style="fill: none; stroke-dasharray: 2.96,1.28; stroke-dashoffset: 0; stroke: #888888; stroke-width: 0.8"/>
    </g>
    <g id="text_18">
     <!-- final mean = +0.45291 -->
     <g transform="translate(523.306406 41.818594) scale(0.09 -0.09)">
      <defs>
       <path id="DejaVuSans-3d" d="M 678 2906 
L 4684 2906 
L 4684 2381 
L 678 2381 
L 678 2906 
z
M 678 1631 
L 4684 1631 
L 4684 1100 
L 678 1100 
L 678 1631 
z
" transform="scale(0.015625)"/>
       <path id="DejaVuSans-2b" d="M 2944 4013 
L 2944 2272 
L 4684 2272 
L 4684 1741 
L 2944 1741 
L 2944 0 
L 2419 0 
L 2419 1741 
L 678 1741 
L 678 2272 
L 2419 2272 
L 2419 4013 
L 2944 4013 
z
" transform="scale(0.015625)"/>
       <path id="DejaVuSans-39" d="M 703 97 
L 703 672 
Q 941 559 1184 500 
Q 1428 441 1663 441 
Q 2288 441 2617 861 
Q 2947 1281 2994 2138 
Q 2813 1869 2534 1725 
Q 2256 1581 1919 1581 
Q 1219 1581 811 2004 
Q 403 2428 403 3163 
Q 403 3881 828 4315 
Q 1253 4750 1959 4750 
Q 2769 4750 3195 4129 
Q 3622 3509 3622 2328 
Q 3622 1225 3098 567 
Q 2575 -91 1691 -91 
Q 1453 -91 1209 -44 
Q 966 3 703 97 
z
M 1959 2075 
Q 2384 2075 2632 2365 
Q 2881 2656 2881 3163 
Q 2881 3666 2632 3958 
Q 2384 4250 1959 4250 
Q 1534 4250 1286 3958 
Q 1038 3666 1038 3163 
Q 1038 2656 1286 2365 
Q 1534 2075 1959 2075 
z
" transform="scale(0.015625)"/>
      </defs>
      <use xlink:href="#DejaVuSans-66"/>
      <use xlink:href="#DejaVuSans-69" transform="translate(35.205078 0)"/>
      <use xlink:href="#DejaVuSans-6e" transform="translate(62.988281 0)"/>
      <use xlink:href="#DejaVuSans-61" transform="translate(126.367188 0)"/>
      <use xlink:href="#DejaVuSans-6c" transform="translate(187.646484 0)"/>
      <use xlink:href="#DejaVuSans-20" transform="translate(215.429688 0)"/>
      <use xlink:href="#DejaVuSans-6d" transform="translate(247.216797 0)"/>
      <use xlink:href="#DejaVuSans-65" transform="translate(344.628906 0)"/>
      <use xlink:href="#DejaVuSans-61" transform="translate(406.152344 0)"/>
      <use xlink:href="#DejaVuSans-6e" transform="translate(467.431641 0)"/>
      <use xlink:href="#DejaVuSans-20" transform="translate(530.810547 0)"/>
      <use xlink:href="#DejaVuSans-3d" transform="translate(562.597656 0)"/>
      <use xlink:href="#DejaVuSans-20" transform="translate(646.386719 0)"/>
      <use xlink:href="#DejaVuSans-2b" transform="translate(678.173828 0)"/>
      <use xlink:href="#DejaVuSans-30" transform="translate(761.962891 0)"/>
      <use xlink:href="#DejaVuSans-2e" transform="translate(825.585938 0)"/>
      <use xlink:href="#DejaVuSans-34" transform="translate(857.373047 0)"/>
      <use xlink:href="#DejaVuSans-35" transform="translate(920.996094 0)"/>
      <use xlink:href="#DejaVuSans-32" transform="translate(984.619141 0)"/>
      <use xlink:href="#DejaVuSans-39" transform="translate(1048.242188 0)"/>
      <use xlink:href="#DejaVuSans-31" transform="translate(1111.865234 0)"/>
     </g>
    </g>
   </g>
  </g>
 </g>
 <defs>
  <clipPath id="pba3209d78d">
   <rect x="66.63125" y="26.88" width="570.56875" height="255.16"/>
  </clipPath>
 </defs>
</svg>
