<?xml version="1.0" encoding="utf-8" standalone="no"?>
<!DOCTYPE svg PUBLIC "-//W3C//DTD SVG 1.1//EN"
  "http://www.w3.org/Graphics/SVG/1.1/DTD/svg11.dtd">
<svg xmlns:xlink="http://www.w3.org/1999/xlink" width="648pt" height="324pt" viewBox="0 0 648 324" xmlns="http://www.w3.org/2000/svg" version="1.1">
 <metadata>
  <rdf:RDF xmlns:dc="http://purl.org/dc/elements/1.1/" xmlns:cc="http://creativecommons.org/ns#" xmlns:rdf="http://www.w3.org/1999/02/22-rdf-syntax-ns#">
   <cc:Work>
    <dc:type rdf:resource="http://purl.org/dc/dcmitype/StillImage"/>
    <dc:date>2026-05-18T20:46:09.232533</dc:date>
    <dc:format>image/svg+xml</dc:format>
    <dc:creator>
     <cc:Agent>
      <dc:title>Matplotlib v3.10.8, https://matplotlib.org/</dc:title>
     </cc:Agent>
    </dc:creator>
   </cc:Work>
  </rdf:RDF>
 </metadata>
 <defs>
  <style type="text/css">*{stroke-linejoin: round; stroke-linecap: butt}</style>
 </defs>
 <g id="figure_1">
  <g id="patch_1">
   <path d="M 0 324 
L 648 324 
L 648 0 
L 0 0 
z
" style="fill: #ffffff"/>
  </g>
  <g id="axes_1">
   <g id="patch_2">
    <path d="M 60.42125 282.04 
L 637.2 282.04 
L 637.2 26.88 
L 60.42125 26.88 
z
" style="fill: #ffffff"/>
   </g>
   <g id="matplotlib.axis_1">
    <g id="xtick_1">
     <g id="line2d_1">
      <path d="M 86.633222 282.04 
L 86.633222 26.88 
" clip-path="url(#p44a3119110)" style="fill: none; stroke-dasharray: 0.5,0.825; stroke-dashoffset: 0; stroke: #b0b0b0; stroke-opacity: 0.6; stroke-width: 0.5"/>
     </g>
     <g id="line2d_2">
      <defs>
       <path id="m9043a8649f" d="M 0 0 
L 0 3.5 
" style="stroke: #000000; stroke-width: 0.8"/>
      </defs>
      <g>
       <use xlink:href="#m9043a8649f" x="86.633222" y="282.04" style="stroke: #000000; stroke-width: 0.8"/>
      </g>
     </g>
     <g id="text_1">
      <!-- 0 -->
      <g transform="translate(83.451972 296.638438) scale(0.1 -0.1)">
       <defs>
        <path id="DejaVuSans-30" d="M 2034 4250 
Q 1547 4250 1301 3770 
Q 1056 3291 1056 2328 
Q 1056 1369 1301 889 
Q 1547 409 2034 409 
Q 2525 409 2770 889 
Q 3016 1369 3016 2328 
Q 3016 3291 2770 3770 
Q 2525 4250 2034 4250 
z
M 2034 4750 
Q 2819 4750 3233 4129 
Q 3647 3509 3647 2328 
Q 3647 1150 3233 529 
Q 2819 -91 2034 -91 
Q 1250 -91 836 529 
Q 422 1150 422 2328 
Q 422 3509 836 4129 
Q 1250 4750 2034 4750 
z
" transform="scale(0.015625)"/>
       </defs>
       <use xlink:href="#DejaVuSans-30"/>
      </g>
     </g>
    </g>
    <g id="xtick_2">
     <g id="line2d_3">
      <path d="M 191.503135 282.04 
L 191.503135 26.88 
" clip-path="url(#p44a3119110)" style="fill: none; stroke-dasharray: 0.5,0.825; stroke-dashoffset: 0; stroke: #b0b0b0; stroke-opacity: 0.6; stroke-width: 0.5"/>
     </g>
     <g id="line2d_4">
      <g>
       <use xlink:href="#m9043a8649f" x="191.503135" y="282.04" style="stroke: #000000; stroke-width: 0.8"/>
      </g>
     </g>
     <g id="text_2">
      <!-- 20000 -->
      <g transform="translate(175.596885 296.638438) scale(0.1 -0.1)">
       <defs>
        <path id="DejaVuSans-32" d="M 1228 531 
L 3431 531 
L 3431 0 
L 469 0 
L 469 531 
Q 828 903 1448 1529 
Q 2069 2156 2228 2338 
Q 2531 2678 2651 2914 
Q 2772 3150 2772 3378 
Q 2772 3750 2511 3984 
Q 2250 4219 1831 4219 
Q 1534 4219 1204 4116 
Q 875 4013 500 3803 
L 500 4441 
Q 881 4594 1212 4672 
Q 1544 4750 1819 4750 
Q 2544 4750 2975 4387 
Q 3406 4025 3406 3419 
Q 3406 3131 3298 2873 
Q 3191 2616 2906 2266 
Q 2828 2175 2409 1742 
Q 1991 1309 1228 531 
z
" transform="scale(0.015625)"/>
       </defs>
       <use xlink:href="#DejaVuSans-32"/>
       <use xlink:href="#DejaVuSans-30" transform="translate(63.623047 0)"/>
       <use xlink:href="#DejaVuSans-30" transform="translate(127.246094 0)"/>
       <use xlink:href="#DejaVuSans-30" transform="translate(190.869141 0)"/>
       <use xlink:href="#DejaVuSans-30" transform="translate(254.492188 0)"/>
      </g>
     </g>
    </g>
    <g id="xtick_3">
     <g id="line2d_5">
      <path d="M 296.373047 282.04 
L 296.373047 26.88 
" clip-path="url(#p44a3119110)" style="fill: none; stroke-dasharray: 0.5,0.825; stroke-dashoffset: 0; stroke: #b0b0b0; stroke-opacity: 0.6; stroke-width: 0.5"/>
     </g>
     <g id="line2d_6">
      <g>
       <use xlink:href="#m9043a8649f" x="296.373047" y="282.04" style="stroke: #000000; stroke-width: 0.8"/>
      </g>
     </g>
     <g id="text_3">
      <!-- 40000 -->
      <g transform="translate(280.466797 296.638438) scale(0.1 -0.1)">
       <defs>
        <path id="DejaVuSans-34" d="M 2419 4116 
L 825 1625 
L 2419 1625 
L 2419 4116 
z
M 2253 4666 
L 3047 4666 
L 3047 1625 
L 3713 1625 
L 3713 1100 
L 3047 1100 
L 3047 0 
L 2419 0 
L 2419 1100 
L 313 1100 
L 313 1709 
L 2253 4666 
z
" transform="scale(0.015625)"/>
       </defs>
       <use xlink:href="#DejaVuSans-34"/>
       <use xlink:href="#DejaVuSans-30" transform="translate(63.623047 0)"/>
       <use xlink:href="#DejaVuSans-30" transform="translate(127.246094 0)"/>
       <use xlink:href="#DejaVuSans-30" transform="translate(190.869141 0)"/>
       <use xlink:href="#DejaVuSans-30" transform="translate(254.492188 0)"/>
      </g>
     </g>
    </g>
    <g id="xtick_4">
     <g id="line2d_7">
      <path d="M 401.242959 282.04 
L 401.242959 26.88 
" clip-path="url(#p44a3119110)" style="fill: none; stroke-dasharray: 0.5,0.825; stroke-dashoffset: 0; stroke: #b0b0b0; stroke-opacity: 0.6; stroke-width: 0.5"/>
     </g>
     <g id="line2d_8">
      <g>
       <use xlink:href="#m9043a8649f" x="401.242959" y="282.04" style="stroke: #000000; stroke-width: 0.8"/>
      </g>
     </g>
     <g id="text_4">
      <!-- 60000 -->
      <g transform="translate(385.336709 296.638438) scale(0.1 -0.1)">
       <defs>
        <path id="DejaVuSans-36" d="M 2113 2584 
Q 1688 2584 1439 2293 
Q 1191 2003 1191 1497 
Q 1191 994 1439 701 
Q 1688 409 2113 409 
Q 2538 409 2786 701 
Q 3034 994 3034 1497 
Q 3034 2003 2786 2293 
Q 2538 2584 2113 2584 
z
M 3366 4563 
L 3366 3988 
Q 3128 4100 2886 4159 
Q 2644 4219 2406 4219 
Q 1781 4219 1451 3797 
Q 1122 3375 1075 2522 
Q 1259 2794 1537 2939 
Q 1816 3084 2150 3084 
Q 2853 3084 3261 2657 
Q 3669 2231 3669 1497 
Q 3669 778 3244 343 
Q 2819 -91 2113 -91 
Q 1303 -91 875 529 
Q 447 1150 447 2328 
Q 447 3434 972 4092 
Q 1497 4750 2381 4750 
Q 2619 4750 2861 4703 
Q 3103 4656 3366 4563 
z
" transform="scale(0.015625)"/>
       </defs>
       <use xlink:href="#DejaVuSans-36"/>
       <use xlink:href="#DejaVuSans-30" transform="translate(63.623047 0)"/>
       <use xlink:href="#DejaVuSans-30" transform="translate(127.246094 0)"/>
       <use xlink:href="#DejaVuSans-30" transform="translate(190.869141 0)"/>
       <use xlink:href="#DejaVuSans-30" transform="translate(254.492188 0)"/>
      </g>
     </g>
    </g>
    <g id="xtick_5">
     <g id="line2d_9">
      <path d="M 506.112872 282.04 
L 506.112872 26.88 
" clip-path="url(#p44a3119110)" style="fill: none; stroke-dasharray: 0.5,0.825; stroke-dashoffset: 0; stroke: #b0b0b0; stroke-opacity: 0.6; stroke-width: 0.5"/>
     </g>
     <g id="line2d_10">
      <g>
       <use xlink:href="#m9043a8649f" x="506.112872" y="282.04" style="stroke: #000000; stroke-width: 0.8"/>
      </g>
     </g>
     <g id="text_5">
      <!-- 80000 -->
      <g transform="translate(490.206622 296.638438) scale(0.1 -0.1)">
       <defs>
        <path id="DejaVuSans-38" d="M 2034 2216 
Q 1584 2216 1326 1975 
Q 1069 1734 1069 1313 
Q 1069 891 1326 650 
Q 1584 409 2034 409 
Q 2484 409 2743 651 
Q 3003 894 3003 1313 
Q 3003 1734 2745 1975 
Q 2488 2216 2034 2216 
z
M 1403 2484 
Q 997 2584 770 2862 
Q 544 3141 544 3541 
Q 544 4100 942 4425 
Q 1341 4750 2034 4750 
Q 2731 4750 3128 4425 
Q 3525 4100 3525 3541 
Q 3525 3141 3298 2862 
Q 3072 2584 2669 2484 
Q 3125 2378 3379 2068 
Q 3634 1759 3634 1313 
Q 3634 634 3220 271 
Q 2806 -91 2034 -91 
Q 1263 -91 848 271 
Q 434 634 434 1313 
Q 434 1759 690 2068 
Q 947 2378 1403 2484 
z
M 1172 3481 
Q 1172 3119 1398 2916 
Q 1625 2713 2034 2713 
Q 2441 2713 2670 2916 
Q 2900 3119 2900 3481 
Q 2900 3844 2670 4047 
Q 2441 4250 2034 4250 
Q 1625 4250 1398 4047 
Q 1172 3844 1172 3481 
z
" transform="scale(0.015625)"/>
       </defs>
       <use xlink:href="#DejaVuSans-38"/>
       <use xlink:href="#DejaVuSans-30" transform="translate(63.623047 0)"/>
       <use xlink:href="#DejaVuSans-30" transform="translate(127.246094 0)"/>
       <use xlink:href="#DejaVuSans-30" transform="translate(190.869141 0)"/>
       <use xlink:href="#DejaVuSans-30" transform="translate(254.492188 0)"/>
      </g>
     </g>
    </g>
    <g id="xtick_6">
     <g id="line2d_11">
      <path d="M 610.982784 282.04 
L 610.982784 26.88 
" clip-path="url(#p44a3119110)" style="fill: none; stroke-dasharray: 0.5,0.825; stroke-dashoffset: 0; stroke: #b0b0b0; stroke-opacity: 0.6; stroke-width: 0.5"/>
     </g>
     <g id="line2d_12">
      <g>
       <use xlink:href="#m9043a8649f" x="610.982784" y="282.04" style="stroke: #000000; stroke-width: 0.8"/>
      </g>
     </g>
     <g id="text_6">
      <!-- 100000 -->
      <g transform="translate(591.895284 296.638438) scale(0.1 -0.1)">
       <defs>
        <path id="DejaVuSans-31" d="M 794 531 
L 1825 531 
L 1825 4091 
L 703 3866 
L 703 4441 
L 1819 4666 
L 2450 4666 
L 2450 531 
L 3481 531 
L 3481 0 
L 794 0 
L 794 531 
z
" transform="scale(0.015625)"/>
       </defs>
       <use xlink:href="#DejaVuSans-31"/>
       <use xlink:href="#DejaVuSans-30" transform="translate(63.623047 0)"/>
       <use xlink:href="#DejaVuSans-30" transform="translate(127.246094 0)"/>
       <use xlink:href="#DejaVuSans-30" transform="translate(190.869141 0)"/>
       <use xlink:href="#DejaVuSans-30" transform="translate(254.492188 0)"/>
       <use xlink:href="#DejaVuSans-30" transform="translate(318.115234 0)"/>
      </g>
     </g>
    </g>
    <g id="text_7">
     <!-- Sample index -->
     <g transform="translate(314.792656 310.316563) scale(0.1 -0.1)">
      <defs>
       <path id="DejaVuSans-53" d="M 3425 4513 
L 3425 3897 
Q 3066 4069 2747 4153 
Q 2428 4238 2131 4238 
Q 1616 4238 1336 4038 
Q 1056 3838 1056 3469 
Q 1056 3159 1242 3001 
Q 1428 2844 1947 2747 
L 2328 2669 
Q 3034 2534 3370 2195 
Q 3706 1856 3706 1288 
Q 3706 609 3251 259 
Q 2797 -91 1919 -91 
Q 1588 -91 1214 -16 
Q 841 59 441 206 
L 441 856 
Q 825 641 1194 531 
Q 1563 422 1919 422 
Q 2459 422 2753 634 
Q 3047 847 3047 1241 
Q 3047 1584 2836 1778 
Q 2625 1972 2144 2069 
L 1759 2144 
Q 1053 2284 737 2584 
Q 422 2884 422 3419 
Q 422 4038 858 4394 
Q 1294 4750 2059 4750 
Q 2388 4750 2728 4690 
Q 3069 4631 3425 4513 
z
" transform="scale(0.015625)"/>
       <path id="DejaVuSans-61" d="M 2194 1759 
Q 1497 1759 1228 1600 
Q 959 1441 959 1056 
Q 959 750 1161 570 
Q 1363 391 1709 391 
Q 2188 391 2477 730 
Q 2766 1069 2766 1631 
L 2766 1759 
L 2194 1759 
z
M 3341 1997 
L 3341 0 
L 2766 0 
L 2766 531 
Q 2569 213 2275 61 
Q 1981 -91 1556 -91 
Q 1019 -91 701 211 
Q 384 513 384 1019 
Q 384 1609 779 1909 
Q 1175 2209 1959 2209 
L 2766 2209 
L 2766 2266 
Q 2766 2663 2505 2880 
Q 2244 3097 1772 3097 
Q 1472 3097 1187 3025 
Q 903 2953 641 2809 
L 641 3341 
Q 956 3463 1253 3523 
Q 1550 3584 1831 3584 
Q 2591 3584 2966 3190 
Q 3341 2797 3341 1997 
z
" transform="scale(0.015625)"/>
       <path id="DejaVuSans-6d" d="M 3328 2828 
Q 3544 3216 3844 3400 
Q 4144 3584 4550 3584 
Q 5097 3584 5394 3201 
Q 5691 2819 5691 2113 
L 5691 0 
L 5113 0 
L 5113 2094 
Q 5113 2597 4934 2840 
Q 4756 3084 4391 3084 
Q 3944 3084 3684 2787 
Q 3425 2491 3425 1978 
L 3425 0 
L 2847 0 
L 2847 2094 
Q 2847 2600 2669 2842 
Q 2491 3084 2119 3084 
Q 1678 3084 1418 2786 
Q 1159 2488 1159 1978 
L 1159 0 
L 581 0 
L 581 3500 
L 1159 3500 
L 1159 2956 
Q 1356 3278 1631 3431 
Q 1906 3584 2284 3584 
Q 2666 3584 2933 3390 
Q 3200 3197 3328 2828 
z
" transform="scale(0.015625)"/>
       <path id="DejaVuSans-70" d="M 1159 525 
L 1159 -1331 
L 581 -1331 
L 581 3500 
L 1159 3500 
L 1159 2969 
Q 1341 3281 1617 3432 
Q 1894 3584 2278 3584 
Q 2916 3584 3314 3078 
Q 3713 2572 3713 1747 
Q 3713 922 3314 415 
Q 2916 -91 2278 -91 
Q 1894 -91 1617 61 
Q 1341 213 1159 525 
z
M 3116 1747 
Q 3116 2381 2855 2742 
Q 2594 3103 2138 3103 
Q 1681 3103 1420 2742 
Q 1159 2381 1159 1747 
Q 1159 1113 1420 752 
Q 1681 391 2138 391 
Q 2594 391 2855 752 
Q 3116 1113 3116 1747 
z
" transform="scale(0.015625)"/>
       <path id="DejaVuSans-6c" d="M 603 4863 
L 1178 4863 
L 1178 0 
L 603 0 
L 603 4863 
z
" transform="scale(0.015625)"/>
       <path id="DejaVuSans-65" d="M 3597 1894 
L 3597 1613 
L 953 1613 
Q 991 1019 1311 708 
Q 1631 397 2203 397 
Q 2534 397 2845 478 
Q 3156 559 3463 722 
L 3463 178 
Q 3153 47 2828 -22 
Q 2503 -91 2169 -91 
Q 1331 -91 842 396 
Q 353 884 353 1716 
Q 353 2575 817 3079 
Q 1281 3584 2069 3584 
Q 2775 3584 3186 3129 
Q 3597 2675 3597 1894 
z
M 3022 2063 
Q 3016 2534 2758 2815 
Q 2500 3097 2075 3097 
Q 1594 3097 1305 2825 
Q 1016 2553 972 2059 
L 3022 2063 
z
" transform="scale(0.015625)"/>
       <path id="DejaVuSans-20" transform="scale(0.015625)"/>
       <path id="DejaVuSans-69" d="M 603 3500 
L 1178 3500 
L 1178 0 
L 603 0 
L 603 3500 
z
M 603 4863 
L 1178 4863 
L 1178 4134 
L 603 4134 
L 603 4863 
z
" transform="scale(0.015625)"/>
       <path id="DejaVuSans-6e" d="M 3513 2113 
L 3513 0 
L 2938 0 
L 2938 2094 
Q 2938 2591 2744 2837 
Q 2550 3084 2163 3084 
Q 1697 3084 1428 2787 
Q 1159 2491 1159 1978 
L 1159 0 
L 581 0 
L 581 3500 
L 1159 3500 
L 1159 2956 
Q 1366 3272 1645 3428 
Q 1925 3584 2291 3584 
Q 2894 3584 3203 3211 
Q 3513 2838 3513 2113 
z
" transform="scale(0.015625)"/>
       <path id="DejaVuSans-64" d="M 2906 2969 
L 2906 4863 
L 3481 4863 
L 3481 0 
L 2906 0 
L 2906 525 
Q 2725 213 2448 61 
Q 2172 -91 1784 -91 
Q 1150 -91 751 415 
Q 353 922 353 1747 
Q 353 2572 751 3078 
Q 1150 3584 1784 3584 
Q 2172 3584 2448 3432 
Q 2725 3281 2906 2969 
z
M 947 1747 
Q 947 1113 1208 752 
Q 1469 391 1925 391 
Q 2381 391 2643 752 
Q 2906 1113 2906 1747 
Q 2906 2381 2643 2742 
Q 2381 3103 1925 3103 
Q 1469 3103 1208 2742 
Q 947 2381 947 1747 
z
" transform="scale(0.015625)"/>
       <path id="DejaVuSans-78" d="M 3513 3500 
L 2247 1797 
L 3578 0 
L 2900 0 
L 1881 1375 
L 863 0 
L 184 0 
L 1544 1831 
L 300 3500 
L 978 3500 
L 1906 2253 
L 2834 3500 
L 3513 3500 
z
" transform="scale(0.015625)"/>
      </defs>
      <use xlink:href="#DejaVuSans-53"/>
      <use xlink:href="#DejaVuSans-61" transform="translate(63.476562 0)"/>
      <use xlink:href="#DejaVuSans-6d" transform="translate(124.755859 0)"/>
      <use xlink:href="#DejaVuSans-70" transform="translate(222.167969 0)"/>
      <use xlink:href="#DejaVuSans-6c" transform="translate(285.644531 0)"/>
      <use xlink:href="#DejaVuSans-65" transform="translate(313.427734 0)"/>
      <use xlink:href="#DejaVuSans-20" transform="translate(374.951172 0)"/>
      <use xlink:href="#DejaVuSans-69" transform="translate(406.738281 0)"/>
      <use xlink:href="#DejaVuSans-6e" transform="translate(434.521484 0)"/>
      <use xlink:href="#DejaVuSans-64" transform="translate(497.900391 0)"/>
      <use xlink:href="#DejaVuSans-65" transform="translate(561.376953 0)"/>
      <use xlink:href="#DejaVuSans-78" transform="translate(621.150391 0)"/>
     </g>
    </g>
   </g>
   <g id="matplotlib.axis_2">
    <g id="ytick_1">
     <g id="line2d_13">
      <path d="M 60.42125 264.865421 
L 637.2 264.865421 
" clip-path="url(#p44a3119110)" style="fill: none; stroke-dasharray: 0.5,0.825; stroke-dashoffset: 0; stroke: #b0b0b0; stroke-opacity: 0.6; stroke-width: 0.5"/>
     </g>
     <g id="line2d_14">
      <defs>
       <path id="m56533cfbed" d="M 0 0 
L -3.5 0 
" style="stroke: #000000; stroke-width: 0.8"/>
      </defs>
      <g>
       <use xlink:href="#m56533cfbed" x="60.42125" y="264.865421" style="stroke: #000000; stroke-width: 0.8"/>
      </g>
     </g>
     <g id="text_8">
      <!-- 0.080 -->
      <g transform="translate(24.793125 268.66464) scale(0.1 -0.1)">
       <defs>
        <path id="DejaVuSans-2e" d="M 684 794 
L 1344 794 
L 1344 0 
L 684 0 
L 684 794 
z
" transform="scale(0.015625)"/>
       </defs>
       <use xlink:href="#DejaVuSans-30"/>
       <use xlink:href="#DejaVuSans-2e" transform="translate(63.623047 0)"/>
       <use xlink:href="#DejaVuSans-30" transform="translate(95.410156 0)"/>
       <use xlink:href="#DejaVuSans-38" transform="translate(159.033203 0)"/>
       <use xlink:href="#DejaVuSans-30" transform="translate(222.65625 0)"/>
      </g>
     </g>
    </g>
    <g id="ytick_2">
     <g id="line2d_15">
      <path d="M 60.42125 210.766643 
L 637.2 210.766643 
" clip-path="url(#p44a3119110)" style="fill: none; stroke-dasharray: 0.5,0.825; stroke-dashoffset: 0; stroke: #b0b0b0; stroke-opacity: 0.6; stroke-width: 0.5"/>
     </g>
     <g id="line2d_16">
      <g>
       <use xlink:href="#m56533cfbed" x="60.42125" y="210.766643" style="stroke: #000000; stroke-width: 0.8"/>
      </g>
     </g>
     <g id="text_9">
      <!-- 0.085 -->
      <g transform="translate(24.793125 214.565861) scale(0.1 -0.1)">
       <defs>
        <path id="DejaVuSans-35" d="M 691 4666 
L 3169 4666 
L 3169 4134 
L 1269 4134 
L 1269 2991 
Q 1406 3038 1543 3061 
Q 1681 3084 1819 3084 
Q 2600 3084 3056 2656 
Q 3513 2228 3513 1497 
Q 3513 744 3044 326 
Q 2575 -91 1722 -91 
Q 1428 -91 1123 -41 
Q 819 9 494 109 
L 494 744 
Q 775 591 1075 516 
Q 1375 441 1709 441 
Q 2250 441 2565 725 
Q 2881 1009 2881 1497 
Q 2881 1984 2565 2268 
Q 2250 2553 1709 2553 
Q 1456 2553 1204 2497 
Q 953 2441 691 2322 
L 691 4666 
z
" transform="scale(0.015625)"/>
       </defs>
       <use xlink:href="#DejaVuSans-30"/>
       <use xlink:href="#DejaVuSans-2e" transform="translate(63.623047 0)"/>
       <use xlink:href="#DejaVuSans-30" transform="translate(95.410156 0)"/>
       <use xlink:href="#DejaVuSans-38" transform="translate(159.033203 0)"/>
       <use xlink:href="#DejaVuSans-35" transform="translate(222.65625 0)"/>
      </g>
     </g>
    </g>
    <g id="ytick_3">
     <g id="line2d_17">
      <path d="M 60.42125 156.667864 
L 637.2 156.667864 
" clip-path="url(#p44a3119110)" style="fill: none; stroke-dasharray: 0.5,0.825; stroke-dashoffset: 0; stroke: #b0b0b0; stroke-opacity: 0.6; stroke-width: 0.5"/>
     </g>
     <g id="line2d_18">
      <g>
       <use xlink:href="#m56533cfbed" x="60.42125" y="156.667864" style="stroke: #000000; stroke-width: 0.8"/>
      </g>
     </g>
     <g id="text_10">
      <!-- 0.090 -->
      <g transform="translate(24.793125 160.467082) scale(0.1 -0.1)">
       <defs>
        <path id="DejaVuSans-39" d="M 703 97 
L 703 672 
Q 941 559 1184 500 
Q 1428 441 1663 441 
Q 2288 441 2617 861 
Q 2947 1281 2994 2138 
Q 2813 1869 2534 1725 
Q 2256 1581 1919 1581 
Q 1219 1581 811 2004 
Q 403 2428 403 3163 
Q 403 3881 828 4315 
Q 1253 4750 1959 4750 
Q 2769 4750 3195 4129 
Q 3622 3509 3622 2328 
Q 3622 1225 3098 567 
Q 2575 -91 1691 -91 
Q 1453 -91 1209 -44 
Q 966 3 703 97 
z
M 1959 2075 
Q 2384 2075 2632 2365 
Q 2881 2656 2881 3163 
Q 2881 3666 2632 3958 
Q 2384 4250 1959 4250 
Q 1534 4250 1286 3958 
Q 1038 3666 1038 3163 
Q 1038 2656 1286 2365 
Q 1534 2075 1959 2075 
z
" transform="scale(0.015625)"/>
       </defs>
       <use xlink:href="#DejaVuSans-30"/>
       <use xlink:href="#DejaVuSans-2e" transform="translate(63.623047 0)"/>
       <use xlink:href="#DejaVuSans-30" transform="translate(95.410156 0)"/>
       <use xlink:href="#DejaVuSans-39" transform="translate(159.033203 0)"/>
       <use xlink:href="#DejaVuSans-30" transform="translate(222.65625 0)"/>
      </g>
     </g>
    </g>
    <g id="ytick_4">
     <g id="line2d_19">
      <path d="M 60.42125 102.569085 
L 637.2 102.569085 
" clip-path="url(#p44a3119110)" style="fill: none; stroke-dasharray: 0.5,0.825; stroke-dashoffset: 0; stroke: #b0b0b0; stroke-opacity: 0.6; stroke-width: 0.5"/>
     </g>
     <g id="line2d_20">
      <g>
       <use xlink:href="#m56533cfbed" x="60.42125" y="102.569085" style="stroke: #000000; stroke-width: 0.8"/>
      </g>
     </g>
     <g id="text_11">
      <!-- 0.095 -->
      <g transform="translate(24.793125 106.368304) scale(0.1 -0.1)">
       <use xlink:href="#DejaVuSans-30"/>
       <use xlink:href="#DejaVuSans-2e" transform="translate(63.623047 0)"/>
       <use xlink:href="#DejaVuSans-30" transform="translate(95.410156 0)"/>
       <use xlink:href="#DejaVuSans-39" transform="translate(159.033203 0)"/>
       <use xlink:href="#DejaVuSans-35" transform="translate(222.65625 0)"/>
      </g>
     </g>
    </g>
    <g id="ytick_5">
     <g id="line2d_21">
      <path d="M 60.42125 48.470306 
L 637.2 48.470306 
" clip-path="url(#p44a3119110)" style="fill: none; stroke-dasharray: 0.5,0.825; stroke-dashoffset: 0; stroke: #b0b0b0; stroke-opacity: 0.6; stroke-width: 0.5"/>
     </g>
     <g id="line2d_22">
      <g>
       <use xlink:href="#m56533cfbed" x="60.42125" y="48.470306" style="stroke: #000000; stroke-width: 0.8"/>
      </g>
     </g>
     <g id="text_12">
      <!-- 0.100 -->
      <g transform="translate(24.793125 52.269525) scale(0.1 -0.1)">
       <use xlink:href="#DejaVuSans-30"/>
       <use xlink:href="#DejaVuSans-2e" transform="translate(63.623047 0)"/>
       <use xlink:href="#DejaVuSans-31" transform="translate(95.410156 0)"/>
       <use xlink:href="#DejaVuSans-30" transform="translate(159.033203 0)"/>
       <use xlink:href="#DejaVuSans-30" transform="translate(222.65625 0)"/>
      </g>
     </g>
    </g>
    <g id="text_13">
     <!-- Running mean of efficiency_gap -->
     <g transform="translate(18.435313 234.704531) rotate(-90) scale(0.1 -0.1)">
      <defs>
       <path id="DejaVuSans-52" d="M 2841 2188 
Q 3044 2119 3236 1894 
Q 3428 1669 3622 1275 
L 4263 0 
L 3584 0 
L 2988 1197 
Q 2756 1666 2539 1819 
Q 2322 1972 1947 1972 
L 1259 1972 
L 1259 0 
L 628 0 
L 628 4666 
L 2053 4666 
Q 2853 4666 3247 4331 
Q 3641 3997 3641 3322 
Q 3641 2881 3436 2590 
Q 3231 2300 2841 2188 
z
M 1259 4147 
L 1259 2491 
L 2053 2491 
Q 2509 2491 2742 2702 
Q 2975 2913 2975 3322 
Q 2975 3731 2742 3939 
Q 2509 4147 2053 4147 
L 1259 4147 
z
" transform="scale(0.015625)"/>
       <path id="DejaVuSans-75" d="M 544 1381 
L 544 3500 
L 1119 3500 
L 1119 1403 
Q 1119 906 1312 657 
Q 1506 409 1894 409 
Q 2359 409 2629 706 
Q 2900 1003 2900 1516 
L 2900 3500 
L 3475 3500 
L 3475 0 
L 2900 0 
L 2900 538 
Q 2691 219 2414 64 
Q 2138 -91 1772 -91 
Q 1169 -91 856 284 
Q 544 659 544 1381 
z
M 1991 3584 
L 1991 3584 
z
" transform="scale(0.015625)"/>
       <path id="DejaVuSans-67" d="M 2906 1791 
Q 2906 2416 2648 2759 
Q 2391 3103 1925 3103 
Q 1463 3103 1205 2759 
Q 947 2416 947 1791 
Q 947 1169 1205 825 
Q 1463 481 1925 481 
Q 2391 481 2648 825 
Q 2906 1169 2906 1791 
z
M 3481 434 
Q 3481 -459 3084 -895 
Q 2688 -1331 1869 -1331 
Q 1566 -1331 1297 -1286 
Q 1028 -1241 775 -1147 
L 775 -588 
Q 1028 -725 1275 -790 
Q 1522 -856 1778 -856 
Q 2344 -856 2625 -561 
Q 2906 -266 2906 331 
L 2906 616 
Q 2728 306 2450 153 
Q 2172 0 1784 0 
Q 1141 0 747 490 
Q 353 981 353 1791 
Q 353 2603 747 3093 
Q 1141 3584 1784 3584 
Q 2172 3584 2450 3431 
Q 2728 3278 2906 2969 
L 2906 3500 
L 3481 3500 
L 3481 434 
z
" transform="scale(0.015625)"/>
       <path id="DejaVuSans-6f" d="M 1959 3097 
Q 1497 3097 1228 2736 
Q 959 2375 959 1747 
Q 959 1119 1226 758 
Q 1494 397 1959 397 
Q 2419 397 2687 759 
Q 2956 1122 2956 1747 
Q 2956 2369 2687 2733 
Q 2419 3097 1959 3097 
z
M 1959 3584 
Q 2709 3584 3137 3096 
Q 3566 2609 3566 1747 
Q 3566 888 3137 398 
Q 2709 -91 1959 -91 
Q 1206 -91 779 398 
Q 353 888 353 1747 
Q 353 2609 779 3096 
Q 1206 3584 1959 3584 
z
" transform="scale(0.015625)"/>
       <path id="DejaVuSans-66" d="M 2375 4863 
L 2375 4384 
L 1825 4384 
Q 1516 4384 1395 4259 
Q 1275 4134 1275 3809 
L 1275 3500 
L 2222 3500 
L 2222 3053 
L 1275 3053 
L 1275 0 
L 697 0 
L 697 3053 
L 147 3053 
L 147 3500 
L 697 3500 
L 697 3744 
Q 697 4328 969 4595 
Q 1241 4863 1831 4863 
L 2375 4863 
z
" transform="scale(0.015625)"/>
       <path id="DejaVuSans-63" d="M 3122 3366 
L 3122 2828 
Q 2878 2963 2633 3030 
Q 2388 3097 2138 3097 
Q 1578 3097 1268 2742 
Q 959 2388 959 1747 
Q 959 1106 1268 751 
Q 1578 397 2138 397 
Q 2388 397 2633 464 
Q 2878 531 3122 666 
L 3122 134 
Q 2881 22 2623 -34 
Q 2366 -91 2075 -91 
Q 1284 -91 818 406 
Q 353 903 353 1747 
Q 353 2603 823 3093 
Q 1294 3584 2113 3584 
Q 2378 3584 2631 3529 
Q 2884 3475 3122 3366 
z
" transform="scale(0.015625)"/>
       <path id="DejaVuSans-79" d="M 2059 -325 
Q 1816 -950 1584 -1140 
Q 1353 -1331 966 -1331 
L 506 -1331 
L 506 -850 
L 844 -850 
Q 1081 -850 1212 -737 
Q 1344 -625 1503 -206 
L 1606 56 
L 191 3500 
L 800 3500 
L 1894 763 
L 2988 3500 
L 3597 3500 
L 2059 -325 
z
" transform="scale(0.015625)"/>
       <path id="DejaVuSans-5f" d="M 3263 -1063 
L 3263 -1509 
L -63 -1509 
L -63 -1063 
L 3263 -1063 
z
" transform="scale(0.015625)"/>
      </defs>
      <use xlink:href="#DejaVuSans-52"/>
      <use xlink:href="#DejaVuSans-75" transform="translate(64.982422 0)"/>
      <use xlink:href="#DejaVuSans-6e" transform="translate(128.361328 0)"/>
      <use xlink:href="#DejaVuSans-6e" transform="translate(191.740234 0)"/>
      <use xlink:href="#DejaVuSans-69" transform="translate(255.119141 0)"/>
      <use xlink:href="#DejaVuSans-6e" transform="translate(282.902344 0)"/>
      <use xlink:href="#DejaVuSans-67" transform="translate(346.28125 0)"/>
      <use xlink:href="#DejaVuSans-20" transform="translate(409.757812 0)"/>
      <use xlink:href="#DejaVuSans-6d" transform="translate(441.544922 0)"/>
      <use xlink:href="#DejaVuSans-65" transform="translate(538.957031 0)"/>
      <use xlink:href="#DejaVuSans-61" transform="translate(600.480469 0)"/>
      <use xlink:href="#DejaVuSans-6e" transform="translate(661.759766 0)"/>
      <use xlink:href="#DejaVuSans-20" transform="translate(725.138672 0)"/>
      <use xlink:href="#DejaVuSans-6f" transform="translate(756.925781 0)"/>
      <use xlink:href="#DejaVuSans-66" transform="translate(818.107422 0)"/>
      <use xlink:href="#DejaVuSans-20" transform="translate(853.3125 0)"/>
      <use xlink:href="#DejaVuSans-65" transform="translate(885.099609 0)"/>
      <use xlink:href="#DejaVuSans-66" transform="translate(946.623047 0)"/>
      <use xlink:href="#DejaVuSans-66" transform="translate(981.828125 0)"/>
      <use xlink:href="#DejaVuSans-69" transform="translate(1017.033203 0)"/>
      <use xlink:href="#DejaVuSans-63" transform="translate(1044.816406 0)"/>
      <use xlink:href="#DejaVuSans-69" transform="translate(1099.796875 0)"/>
      <use xlink:href="#DejaVuSans-65" transform="translate(1127.580078 0)"/>
      <use xlink:href="#DejaVuSans-6e" transform="translate(1189.103516 0)"/>
      <use xlink:href="#DejaVuSans-63" transform="translate(1252.482422 0)"/>
      <use xlink:href="#DejaVuSans-79" transform="translate(1307.462891 0)"/>
      <use xlink:href="#DejaVuSans-5f" transform="translate(1366.642578 0)"/>
      <use xlink:href="#DejaVuSans-67" transform="translate(1416.642578 0)"/>
      <use xlink:href="#DejaVuSans-61" transform="translate(1480.119141 0)"/>
      <use xlink:href="#DejaVuSans-70" transform="translate(1541.398438 0)"/>
     </g>
    </g>
   </g>
   <g id="line2d_23">
    <path d="M 86.638466 40.215487 
L 86.680414 40.215487 
L 86.743336 38.478182 
L 86.748579 40.542311 
L 87.005511 95.864386 
L 87.115624 71.459876 
L 87.183789 76.427187 
L 87.283416 88.956738 
L 87.619 204.369038 
L 87.744843 231.238406 
L 87.818252 226.74055 
L 87.870687 221.290101 
L 87.959827 223.122048 
L 88.043723 220.841604 
L 88.27968 211.710192 
L 88.552342 207.488022 
L 88.657212 206.240896 
L 89.087178 194.321801 
L 89.102909 194.639739 
L 89.648232 203.37408 
L 89.669206 203.572042 
L 89.737372 203.229346 
L 89.905164 201.247778 
L 90.057225 199.622719 
L 90.308913 199.231292 
L 90.518653 199.167323 
L 90.539627 199.317193 
L 90.555357 199.461503 
L 90.628766 199.172024 
L 90.922402 197.619668 
L 91.27896 192.932543 
L 91.572595 191.454781 
L 91.583082 191.551593 
L 91.803309 192.566994 
L 91.992075 193.770124 
L 92.290954 205.194567 
L 92.79433 220.968315 
L 92.820547 221.364748 
L 93.046018 225.100891 
L 93.884977 235.023333 
L 94.398839 240.559599 
L 94.540414 240.077558 
L 94.62431 239.759578 
L 94.650527 240.080281 
L 95.70447 251.565849 
L 96.396611 255.749505 
L 96.459533 255.789726 
L 96.480507 255.693756 
L 96.55916 255.337483 
L 96.653543 255.400527 
L 96.957665 255.726143 
L 97.539693 258.154475 
L 97.980147 259.586212 
L 98.745697 264.393601 
L 99.296264 266.117832 
L 99.506004 266.567755 
L 99.647579 266.648802 
L 99.7105 267.015545 
L 100.014623 269.142382 
L 100.21912 269.92475 
L 100.261068 269.745974 
L 101.503776 264.011882 
L 102.059587 257.400871 
L 102.421388 255.494138 
L 102.856598 254.749605 
L 102.992929 254.08544 
L 103.029633 254.32291 
L 103.23413 256.357195 
L 103.805671 263.567741 
L 103.99968 264.111054 
L 104.036384 263.898371 
L 104.052115 263.807495 
L 104.146498 263.906276 
L 104.429647 264.172669 
L 104.487325 264.104824 
L 104.602682 263.809364 
L 105.106057 262.443015 
L 105.121788 262.451351 
L 105.630407 262.722288 
L 105.661868 262.629104 
L 105.908312 262.247033 
L 106.044643 262.028793 
L 106.081348 262.151187 
L 106.527045 263.769591 
L 106.626671 263.597893 
L 106.810194 262.651573 
L 107.921815 255.880827 
L 108.341294 252.720735 
L 109.085871 247.250364 
L 109.269393 246.994226 
L 109.290367 247.004128 
L 109.688873 247.07165 
L 109.94056 246.899729 
L 110.627458 243.283794 
L 110.664163 243.076093 
L 110.763789 243.124215 
L 111.157051 243.241572 
L 111.172782 243.20322 
L 111.791514 241.98434 
L 111.922602 241.577945 
L 112.682909 237.572165 
L 112.71437 237.412172 
L 113.280667 234.726776 
L 113.710634 233.378149 
L 114.224496 231.611505 
L 114.33461 231.418636 
L 114.87469 229.874936 
L 115.367578 228.988969 
L 115.734623 228.263999 
L 116.096424 227.845668 
L 116.28519 227.742679 
L 116.300921 227.778025 
L 116.673209 228.477238 
L 116.699426 228.399777 
L 117.076958 227.628323 
L 117.286698 227.476686 
L 117.858239 227.017667 
L 118.241014 226.765367 
L 118.812555 226.668583 
L 118.817799 226.664932 
L 118.844016 226.760176 
L 118.954129 227.041097 
L 118.996077 226.925501 
L 119.924176 224.321479 
L 119.997585 224.475902 
L 120.957145 227.337685 
L 121.109206 227.136398 
L 121.402842 226.945933 
L 121.544416 227.10225 
L 121.916704 228.297946 
L 122.047792 228.762569 
L 122.100227 228.727123 
L 122.577385 228.537697 
L 122.781881 228.455216 
L 123.038812 228.268318 
L 123.27477 228.401974 
L 123.961668 231.135296 
L 124.758679 233.961416 
L 125.036584 234.514515 
L 125.686778 235.936155 
L 126.242588 237.636947 
L 127.018626 240.359209 
L 127.338479 241.698751 
L 127.480053 241.888572 
L 127.542975 241.794341 
L 127.558706 241.770829 
L 127.626871 241.86414 
L 128.22463 242.333234 
L 128.455343 242.458469 
L 128.670327 242.483036 
L 128.874823 242.580424 
L 129.781948 243.699579 
L 130.117532 244.444817 
L 130.914543 246.377717 
L 130.930273 246.391583 
L 130.998439 246.309397 
L 131.412675 245.639293 
L 131.957999 243.853789 
L 132.65014 242.829941 
L 132.749766 242.645877 
L 133.457638 241.081419 
L 133.499586 241.129818 
L 133.614943 241.066697 
L 133.83517 240.823605 
L 134.071127 240.695423 
L 134.301841 240.64634 
L 134.396224 240.522233 
L 134.91533 239.382119 
L 135.523576 238.974884 
L 135.691367 238.892176 
L 135.722828 238.994741 
L 137.070407 243.148209 
L 137.096624 243.109189 
L 137.28539 243.01973 
L 137.888392 244.400008 
L 138.313115 244.904405 
L 138.34982 244.863981 
L 138.790273 244.214694 
L 138.989526 244.12122 
L 139.697398 244.075135 
L 139.797024 244.023367 
L 139.828485 244.080533 
L 140.053956 244.65747 
L 140.174556 244.535689 
L 140.483922 244.444479 
L 140.625497 244.701652 
L 140.96108 245.735317 
L 141.013515 245.674435 
L 141.17082 245.657088 
L 141.532622 246.001435 
L 142.177571 247.021136 
L 142.77533 249.986056 
L 142.812034 249.96566 
L 143.053235 249.832286 
L 143.08994 249.934931 
L 144.563362 253.723856 
L 145.276477 254.065811 
L 145.785096 255.876304 
L 146.167872 256.869777 
L 146.33042 257.115246 
L 146.388098 257.016709 
L 146.393342 257.006813 
L 146.445777 257.139049 
L 147.153649 258.62238 
L 147.237545 258.503002 
L 147.704216 257.658255 
L 148.364896 256.577796 
L 148.941681 255.343425 
L 149.209099 254.937121 
L 149.350673 254.74122 
L 150.907992 252.018768 
L 151.59489 251.747189 
L 151.919986 251.702688 
L 152.087778 251.823802 
L 152.355196 252.067998 
L 152.46531 251.999399 
L 152.811381 251.817817 
L 153.188912 251.874622 
L 154.305777 252.894408 
L 154.463082 252.899745 
L 154.735743 252.997443 
L 154.845857 252.968779 
L 155.338745 252.683674 
L 155.821147 252.326247 
L 156.12527 252.277594 
L 156.418906 252.09545 
L 158.353755 253.163882 
L 158.82567 253.837609 
L 159.281854 254.331831 
L 159.837665 254.665946 
L 160.388232 254.670711 
L 160.618946 254.778724 
L 161.101347 254.850063 
L 161.783002 254.991101 
L 162.490874 255.918766 
L 163.869913 259.048702 
L 164.341827 259.689615 
L 164.929099 259.672998 
L 165.51637 259.781247 
L 166.135103 260.2472 
L 166.260947 260.179933 
L 166.586044 260.030223 
L 166.769566 259.890384 
L 167.01601 259.674389 
L 167.351594 259.889309 
L 167.797291 260.283154 
L 168.772581 261.098614 
L 169.333635 261.4525 
L 169.454236 261.563796 
L 171.247511 263.390251 
L 171.54639 263.634729 
L 172.117931 263.897587 
L 172.605577 263.379687 
L 173.187605 263.76582 
L 173.297718 263.713321 
L 174.120947 263.34305 
L 174.823575 263.357449 
L 175.169646 263.077966 
L 175.62583 262.911427 
L 175.893248 262.661979 
L 176.606364 262.708114 
L 176.962921 262.672254 
L 177.193635 262.744324 
L 177.717985 262.864616 
L 178.719492 261.964277 
L 179.291033 262.224846 
L 179.589913 261.757027 
L 180.119506 260.927413 
L 181.241614 260.813106 
L 182.940506 260.409892 
L 183.092568 260.402863 
L 183.533021 260.332285 
L 183.884336 260.133254 
L 185.163749 258.467361 
L 185.530793 258.267719 
L 187.166764 257.419612 
L 187.313582 257.226864 
L 188.047671 256.240637 
L 188.21022 255.995393 
L 188.634943 255.473908 
L 189.851434 255.230215 
L 190.276157 255.688482 
L 190.643201 255.844467 
L 190.984029 255.877127 
L 191.550326 255.683167 
L 192.027484 255.869258 
L 192.604269 255.904422 
L 192.735356 255.933202 
L 192.75633 255.902792 
L 193.527124 254.978497 
L 195.624522 253.44171 
L 195.944376 253.14927 
L 196.699439 252.723172 
L 197.15038 252.463122 
L 199.300213 250.986673 
L 199.599092 250.773869 
L 200.081494 250.411011 
L 200.6006 249.960079 
L 201.439559 249.29736 
L 202.042561 249.074443 
L 202.635076 248.687302 
L 203.909245 247.344886 
L 204.265803 247.429955 
L 204.475543 247.463131 
L 204.952701 247.977075 
L 205.361694 248.061489 
L 205.634355 248.312501 
L 207.029125 250.619086 
L 207.679319 251.486318 
L 208.423895 252.093983 
L 208.612661 252.069534 
L 208.864349 251.951783 
L 209.383455 251.910698 
L 210.295823 251.245205 
L 210.521293 251.208559 
L 211.47561 250.732192 
L 212.875623 250.156247 
L 213.274129 250.187646 
L 213.945296 250.787584 
L 214.799986 252.521814 
L 215.004482 252.560124 
L 215.350553 252.361365 
L 216.158051 252.825129 
L 216.477904 252.624546 
L 217.107124 252.976562 
L 218.208258 253.742366 
L 218.716877 253.382319 
L 218.868938 253.328798 
L 219.545349 253.426873 
L 219.949098 253.701103 
L 220.609779 254.109806 
L 220.898171 254.246749 
L 221.275703 254.027571 
L 221.862974 254.174476 
L 222.062227 254.260195 
L 222.738638 254.952257 
L 223.147631 254.728928 
L 223.981347 254.389115 
L 224.164869 254.56028 
L 224.479479 254.766751 
L 224.668245 254.599529 
L 225.108698 253.855067 
L 226.021066 253.055193 
L 226.04204 253.093009 
L 226.230806 253.211336 
L 226.970139 253.324754 
L 227.289992 253.469986 
L 227.709472 253.585808 
L 227.892994 253.673872 
L 228.107978 253.667901 
L 228.72671 253.544535 
L 229.015102 253.688578 
L 229.80687 254.920449 
L 230.860813 256.162482 
L 231.301266 256.420255 
L 232.313261 257.968263 
L 234.101293 260.679366 
L 234.772461 261.179822 
L 235.459359 261.892621 
L 236.628658 262.596099 
L 237.00619 262.695779 
L 237.588218 263.321457 
L 237.955262 263.576103 
L 238.390473 264.190947 
L 238.684108 264.478328 
L 240.215209 265.623737 
L 240.571767 265.6092 
L 242.658678 267.29125 
L 243.230219 267.761166 
L 244.635476 268.767434 
L 244.860946 268.903535 
L 245.086416 269.087164 
L 246.633248 270.421976 
L 248.180079 270.30948 
L 248.641506 270.38652 
L 249.338891 270.214064 
L 250.025789 270.189763 
L 250.287964 269.916332 
L 250.733661 269.515371 
L 250.89621 269.554694 
L 251.410072 269.828035 
L 252.065509 269.916199 
L 252.705216 270.135043 
L 252.972634 270.148895 
L 253.187617 270.276171 
L 253.439305 270.240456 
L 254.141933 269.911254 
L 254.954675 269.741277 
L 255.21685 269.65857 
L 256.328471 269.477011 
L 256.884282 269.370174 
L 257.497771 269.328219 
L 258.12699 269.349129 
L 259.065576 268.980321 
L 259.741987 269.101271 
L 260.407911 268.714986 
L 260.685816 268.506643 
L 262.914302 268.575689 
L 263.884348 268.378566 
L 264.204201 268.378285 
L 264.476863 268.353681 
L 264.864882 268.167855 
L 266.049912 267.90319 
L 266.972767 268.214126 
L 267.135316 268.207991 
L 267.255916 268.287486 
L 267.874648 268.604288 
L 269.175035 267.917338 
L 270.118865 266.775775 
L 270.512127 266.251704 
L 270.779545 265.919092 
L 271.225242 265.472397 
L 272.058958 265.286514 
L 272.504655 265.610588 
L 272.908404 265.648189 
L 274.156356 265.513607 
L 274.486696 265.828731 
L 274.780332 265.907532 
L 274.969098 265.737773 
L 275.330899 265.38291 
L 276.432033 265.46731 
L 277.255262 265.870555 
L 277.41781 265.791326 
L 277.706203 265.768551 
L 278.16763 266.039623 
L 278.665762 265.991616 
L 278.985616 265.963168 
L 279.305469 266.182399 
L 279.567644 266.290631 
L 280.590125 266.13799 
L 282.063548 266.961978 
L 283.500265 266.995485 
L 283.86731 266.710102 
L 284.417877 266.578976 
L 285.141479 266.948675 
L 285.639612 267.19373 
L 286.420892 267.151052 
L 286.630632 267.101458 
L 287.265095 266.775963 
L 287.983454 267.385485 
L 288.17222 267.484049 
L 288.890579 268.015445 
L 289.677103 268.392574 
L 290.42168 269.032847 
L 291.276369 269.382422 
L 291.921319 269.670645 
L 293.095862 269.759994 
L 293.78276 269.696586 
L 295.780532 269.941647 
L 296.509378 269.575404 
L 297.416503 268.627291 
L 297.956583 268.21184 
L 299.036743 267.93274 
L 299.833754 267.68482 
L 301.097437 267.437092 
L 301.74763 267.509233 
L 302.072727 267.512171 
L 303.797837 266.819561 
L 304.212073 266.714868 
L 305.538677 266.747752 
L 306.104975 266.753178 
L 308.09226 267.028005 
L 308.700505 267.473999 
L 309.219611 267.436643 
L 309.387403 267.545549 
L 309.796396 267.691753 
L 310.540972 267.641773 
L 311.411393 267.770952 
L 313.482573 268.343903 
L 313.933514 268.420295 
L 314.499811 268.736171 
L 314.735769 268.678849 
L 314.987457 268.610898 
L 315.239144 268.462988 
L 315.490832 268.294338 
L 315.737276 268.331782 
L 316.209191 268.347943 
L 317.582987 267.813785 
L 318.123067 267.640968 
L 319.234688 267.830291 
L 319.643681 267.826161 
L 321.447443 267.934381 
L 322.024228 268.157769 
L 322.165802 268.204983 
L 322.779291 268.705127 
L 323.550085 268.787275 
L 325.579318 268.870458 
L 325.946362 268.656313 
L 326.42352 268.440711 
L 327.440759 267.625854 
L 327.92316 267.327549 
L 328.835528 266.731475 
L 329.401826 266.603864 
L 329.742653 266.572214 
L 330.392847 266.815824 
L 331.651286 267.407671 
L 331.892486 267.391236 
L 332.359158 267.335183 
L 333.171899 267.248725 
L 333.654301 267.145405 
L 334.529965 266.533313 
L 335.547203 266.041297 
L 335.830352 265.968969 
L 336.30751 265.772482 
L 336.700772 265.898754 
L 337.004895 265.935459 
L 337.644601 265.956401 
L 337.912019 266.002129 
L 338.944988 266.136344 
L 339.610912 266.316258 
L 342.87761 267.742343 
L 345.483627 269.321124 
L 345.709097 269.334451 
L 346.878397 269.417062 
L 347.628217 269.495138 
L 347.9638 269.480648 
L 348.986282 269.010684 
L 349.667937 269.270819 
L 351.06795 269.829202 
L 351.828257 270.079789 
L 352.35785 270.309267 
L 352.976582 270.41426 
L 353.175835 270.304971 
L 353.904681 269.773664 
L 354.476222 269.847047 
L 355.210311 269.917816 
L 355.551139 269.836839 
L 356.217063 269.623975 
L 356.977369 269.461235 
L 359.247803 270.008898 
L 359.515221 269.95857 
L 359.861292 269.844011 
L 360.354181 269.775147 
L 361.345201 269.877698 
L 361.586402 269.853896 
L 362.079291 269.905863 
L 363.148964 270.079744 
L 363.736235 270.012764 
L 364.664334 270.108373 
L 365.345988 270.066844 
L 367.233647 270.088148 
L 368.166989 270.0577 
L 369.247149 270.063132 
L 369.624681 269.897762 
L 370.379744 269.695985 
L 371.166269 269.340126 
L 371.937062 269.200326 
L 373.16404 268.927013 
L 373.70412 268.710215 
L 374.22847 268.624253 
L 375.062186 268.467731 
L 376.184294 268.429145 
L 376.698156 268.421909 
L 377.159584 268.553986 
L 378.459971 268.800814 
L 379.314661 268.728513 
L 382.607576 266.69197 
L 384.45853 266.622354 
L 385.622586 266.815357 
L 386.094501 266.875191 
L 386.493006 266.836836 
L 386.739451 266.752772 
L 387.47354 266.351077 
L 387.69901 266.179766 
L 390.137236 264.145211 
L 390.750725 263.935836 
L 391.731258 263.656839 
L 394.457876 262.982399 
L 395.344027 262.723532 
L 395.747776 262.745214 
L 396.282613 262.528766 
L 398.186001 261.663147 
L 398.809977 261.316543 
L 399.171779 261.045878 
L 399.65418 260.787844 
L 400.241452 260.679538 
L 400.571792 260.574444 
L 402.265441 259.738631 
L 404.357596 259.41639 
L 404.881945 259.446292 
L 405.626522 259.621925 
L 406.559864 259.654688 
L 408.48947 259.00936 
L 409.307456 259.069315 
L 409.837049 259.0894 
L 410.42432 259.037676 
L 412.14943 258.819903 
L 413.140451 258.934179 
L 414.509003 258.782785 
L 414.991405 258.703287 
L 415.924747 258.612497 
L 416.297035 258.486813 
L 418.07458 257.689599 
L 418.305294 257.69452 
L 418.667095 257.759121 
L 418.981705 257.77249 
L 420.948016 257.548977 
L 423.900104 256.777493 
L 424.739063 256.633177 
L 425.436448 256.341556 
L 425.892632 256.277323 
L 426.479904 256.28818 
L 426.747322 256.244156 
L 427.402759 256.180857 
L 427.664934 256.193791 
L 428.205014 256.079047 
L 428.923373 255.856092 
L 429.2642 255.932012 
L 430.270951 256.224617 
L 430.527882 256.321739 
L 431.73913 256.930587 
L 432.06947 256.990972 
L 432.661985 257.201831 
L 433.181091 257.060373 
L 434.145894 257.708006 
L 434.63354 257.767781 
L 435.802839 257.561723 
L 437.029817 257.034138 
L 437.234313 257.141582 
L 437.433566 257.132179 
L 437.795367 257.127416 
L 438.32496 257.285565 
L 438.948936 257.47534 
L 440.002879 257.433245 
L 442.83961 257.091085 
L 443.657595 256.860743 
L 445.199183 256.668025 
L 445.655367 256.737661 
L 446.793206 256.983611 
L 450.028443 256.885889 
L 450.301104 256.909124 
L 451.57003 256.952162 
L 452.288389 256.989294 
L 453.662185 256.448077 
L 453.913873 256.399711 
L 454.469683 256.657625 
L 455.12512 256.521509 
L 455.906401 256.581606 
L 456.572325 256.457093 
L 457.668216 256.746414 
L 458.145374 256.91393 
L 458.937142 256.970413 
L 461.24428 258.052838 
L 462.633806 258.647661 
L 463.782132 259.241087 
L 465.837582 259.602655 
L 470.82939 259.998661 
L 471.946254 260.246722 
L 473.272859 260.307803 
L 474.117062 260.344234 
L 477.037689 259.852701 
L 477.383759 259.862111 
L 477.976274 259.824717 
L 479.863933 259.87887 
L 480.073673 259.883593 
L 480.346334 259.982099 
L 480.750083 260.152337 
L 481.007015 260.075099 
L 481.793539 259.594259 
L 483.586815 259.101667 
L 484.126895 259.26537 
L 484.698436 259.373509 
L 484.887201 259.421329 
L 485.254246 259.564487 
L 485.663239 259.584216 
L 486.475981 259.523942 
L 487.356888 259.565761 
L 487.781611 259.65352 
L 489.139676 259.781037 
L 492.679036 259.704179 
L 495.40041 259.197244 
L 497.476834 258.458176 
L 498.210924 258.235474 
L 500.266374 258.111955 
L 500.66488 258.123537 
L 505.803506 259.91837 
L 506.647708 259.779189 
L 507.313632 259.518282 
L 507.722625 259.481189 
L 508.052965 259.486441 
L 509.426761 259.745944 
L 510.286694 259.470477 
L 510.873966 259.244935 
L 511.969856 258.977927 
L 512.399823 258.990068 
L 513.039529 259.040387 
L 514.481491 259.175351 
L 514.937675 259.126521 
L 516.29574 259.192922 
L 517.124213 259.026353 
L 517.653806 259.005431 
L 518.424599 258.871062 
L 523.306294 257.918452 
L 525.477101 257.817816 
L 525.96999 257.769298 
L 526.683105 257.730873 
L 528.780503 258.016167 
L 529.577515 258.044397 
L 531.019476 258.301147 
L 531.391764 258.412559 
L 532.382785 258.654573 
L 533.982051 258.811429 
L 534.270443 258.827092 
L 535.549856 258.96024 
L 537.274966 258.642367 
L 539.309443 258.212277 
L 540.31095 258.237175 
L 541.70572 258.153179 
L 543.457048 258.110143 
L 544.610617 257.869626 
L 546.466814 257.602335 
L 547.059329 257.412528 
L 547.573192 257.304522 
L 548.317768 257.331024 
L 548.941744 257.377791 
L 549.854112 257.391728 
L 550.876594 257.114806 
L 551.731284 256.920134 
L 552.423425 256.744209 
L 553.466881 256.799389 
L 553.980743 256.721073 
L 554.735807 256.624466 
L 555.485626 256.710787 
L 557.467668 257.155362 
L 558.547828 257.216969 
L 559.056447 257.247209 
L 559.932111 257.21546 
L 560.493165 257.118468 
L 562.28644 257.134118 
L 562.81079 257.24157 
L 563.765106 257.273858 
L 564.651257 257.237976 
L 565.579356 257.21451 
L 567.293979 257.253397 
L 568.054285 257.217269 
L 570.429589 257.309302 
L 572.207134 256.929795 
L 572.364439 256.978053 
L 572.894032 257.097584 
L 574.514272 257.198009 
L 575.211657 257.308751 
L 575.756981 257.25613 
L 576.40193 257.250043 
L 576.858115 257.398621 
L 578.158502 257.803119 
L 579.689602 257.516263 
L 580.816954 257.576087 
L 582.531577 257.609718 
L 583.370536 257.427466 
L 584.943585 257.345743 
L 585.719622 257.282666 
L 586.873191 256.929002 
L 587.429002 256.824317 
L 588.13163 256.782134 
L 588.944372 256.839084 
L 589.951123 257.087809 
L 590.438768 257.237813 
L 592.01706 257.547795 
L 592.887481 257.767085 
L 593.658275 257.757886 
L 594.932444 257.93183 
L 598.907014 258.472136 
L 600.432871 258.507311 
L 601.513031 258.592165 
L 603.683838 258.948095 
L 604.522797 258.768305 
L 605.917567 258.571939 
L 606.98724 258.617068 
L 608.009722 258.568567 
L 608.59175 258.484362 
L 610.044198 258.169385 
L 610.982784 257.999483 
L 610.982784 257.999483 
" clip-path="url(#p44a3119110)" style="fill: none; stroke: #1f2937; stroke-linecap: square"/>
   </g>
   <g id="line2d_24">
    <path d="M 60.42125 257.999483 
L 637.2 257.999483 
" clip-path="url(#p44a3119110)" style="fill: none; stroke-dasharray: 2.96,1.28; stroke-dashoffset: 0; stroke: #888888; stroke-width: 0.8"/>
   </g>
   <g id="patch_3">
    <path d="M 60.42125 282.04 
L 60.42125 26.88 
" style="fill: none; stroke: #000000; stroke-width: 0.8; stroke-linejoin: miter; stroke-linecap: square"/>
   </g>
   <g id="patch_4">
    <path d="M 637.2 282.04 
L 637.2 26.88 
" style="fill: none; stroke: #000000; stroke-width: 0.8; stroke-linejoin: miter; stroke-linecap: square"/>
   </g>
   <g id="patch_5">
    <path d="M 60.42125 282.04 
L 637.2 282.04 
" style="fill: none; stroke: #000000; stroke-width: 0.8; stroke-linejoin: miter; stroke-linecap: square"/>
   </g>
   <g id="patch_6">
    <path d="M 60.42125 26.88 
L 637.2 26.88 
" style="fill: none; stroke: #000000; stroke-width: 0.8; stroke-linejoin: miter; stroke-linecap: square"/>
   </g>
   <g id="text_14">
    <!-- Running mean — efficiency_gap  (canonical ReCom ensemble) -->
    <g transform="translate(160.809062 20.88) scale(0.12 -0.12)">
     <defs>
      <path id="DejaVuSans-2014" d="M 313 1978 
L 6088 1978 
L 6088 1528 
L 313 1528 
L 313 1978 
z
" transform="scale(0.015625)"/>
      <path id="DejaVuSans-28" d="M 1984 4856 
Q 1566 4138 1362 3434 
Q 1159 2731 1159 2009 
Q 1159 1288 1364 580 
Q 1569 -128 1984 -844 
L 1484 -844 
Q 1016 -109 783 600 
Q 550 1309 550 2009 
Q 550 2706 781 3412 
Q 1013 4119 1484 4856 
L 1984 4856 
z
" transform="scale(0.015625)"/>
      <path id="DejaVuSans-43" d="M 4122 4306 
L 4122 3641 
Q 3803 3938 3442 4084 
Q 3081 4231 2675 4231 
Q 1875 4231 1450 3742 
Q 1025 3253 1025 2328 
Q 1025 1406 1450 917 
Q 1875 428 2675 428 
Q 3081 428 3442 575 
Q 3803 722 4122 1019 
L 4122 359 
Q 3791 134 3420 21 
Q 3050 -91 2638 -91 
Q 1578 -91 968 557 
Q 359 1206 359 2328 
Q 359 3453 968 4101 
Q 1578 4750 2638 4750 
Q 3056 4750 3426 4639 
Q 3797 4528 4122 4306 
z
" transform="scale(0.015625)"/>
      <path id="DejaVuSans-73" d="M 2834 3397 
L 2834 2853 
Q 2591 2978 2328 3040 
Q 2066 3103 1784 3103 
Q 1356 3103 1142 2972 
Q 928 2841 928 2578 
Q 928 2378 1081 2264 
Q 1234 2150 1697 2047 
L 1894 2003 
Q 2506 1872 2764 1633 
Q 3022 1394 3022 966 
Q 3022 478 2636 193 
Q 2250 -91 1575 -91 
Q 1294 -91 989 -36 
Q 684 19 347 128 
L 347 722 
Q 666 556 975 473 
Q 1284 391 1588 391 
Q 1994 391 2212 530 
Q 2431 669 2431 922 
Q 2431 1156 2273 1281 
Q 2116 1406 1581 1522 
L 1381 1569 
Q 847 1681 609 1914 
Q 372 2147 372 2553 
Q 372 3047 722 3315 
Q 1072 3584 1716 3584 
Q 2034 3584 2315 3537 
Q 2597 3491 2834 3397 
z
" transform="scale(0.015625)"/>
      <path id="DejaVuSans-62" d="M 3116 1747 
Q 3116 2381 2855 2742 
Q 2594 3103 2138 3103 
Q 1681 3103 1420 2742 
Q 1159 2381 1159 1747 
Q 1159 1113 1420 752 
Q 1681 391 2138 391 
Q 2594 391 2855 752 
Q 3116 1113 3116 1747 
z
M 1159 2969 
Q 1341 3281 1617 3432 
Q 1894 3584 2278 3584 
Q 2916 3584 3314 3078 
Q 3713 2572 3713 1747 
Q 3713 922 3314 415 
Q 2916 -91 2278 -91 
Q 1894 -91 1617 61 
Q 1341 213 1159 525 
L 1159 0 
L 581 0 
L 581 4863 
L 1159 4863 
L 1159 2969 
z
" transform="scale(0.015625)"/>
      <path id="DejaVuSans-29" d="M 513 4856 
L 1013 4856 
Q 1481 4119 1714 3412 
Q 1947 2706 1947 2009 
Q 1947 1309 1714 600 
Q 1481 -109 1013 -844 
L 513 -844 
Q 928 -128 1133 580 
Q 1338 1288 1338 2009 
Q 1338 2731 1133 3434 
Q 928 4138 513 4856 
z
" transform="scale(0.015625)"/>
     </defs>
     <use xlink:href="#DejaVuSans-52"/>
     <use xlink:href="#DejaVuSans-75" transform="translate(64.982422 0)"/>
     <use xlink:href="#DejaVuSans-6e" transform="translate(128.361328 0)"/>
     <use xlink:href="#DejaVuSans-6e" transform="translate(191.740234 0)"/>
     <use xlink:href="#DejaVuSans-69" transform="translate(255.119141 0)"/>
     <use xlink:href="#DejaVuSans-6e" transform="translate(282.902344 0)"/>
     <use xlink:href="#DejaVuSans-67" transform="translate(346.28125 0)"/>
     <use xlink:href="#DejaVuSans-20" transform="translate(409.757812 0)"/>
     <use xlink:href="#DejaVuSans-6d" transform="translate(441.544922 0)"/>
     <use xlink:href="#DejaVuSans-65" transform="translate(538.957031 0)"/>
     <use xlink:href="#DejaVuSans-61" transform="translate(600.480469 0)"/>
     <use xlink:href="#DejaVuSans-6e" transform="translate(661.759766 0)"/>
     <use xlink:href="#DejaVuSans-20" transform="translate(725.138672 0)"/>
     <use xlink:href="#DejaVuSans-2014" transform="translate(756.925781 0)"/>
     <use xlink:href="#DejaVuSans-20" transform="translate(856.925781 0)"/>
     <use xlink:href="#DejaVuSans-65" transform="translate(888.712891 0)"/>
     <use xlink:href="#DejaVuSans-66" transform="translate(950.236328 0)"/>
     <use xlink:href="#DejaVuSans-66" transform="translate(985.441406 0)"/>
     <use xlink:href="#DejaVuSans-69" transform="translate(1020.646484 0)"/>
     <use xlink:href="#DejaVuSans-63" transform="translate(1048.429688 0)"/>
     <use xlink:href="#DejaVuSans-69" transform="translate(1103.410156 0)"/>
     <use xlink:href="#DejaVuSans-65" transform="translate(1131.193359 0)"/>
     <use xlink:href="#DejaVuSans-6e" transform="translate(1192.716797 0)"/>
     <use xlink:href="#DejaVuSans-63" transform="translate(1256.095703 0)"/>
     <use xlink:href="#DejaVuSans-79" transform="translate(1311.076172 0)"/>
     <use xlink:href="#DejaVuSans-5f" transform="translate(1370.255859 0)"/>
     <use xlink:href="#DejaVuSans-67" transform="translate(1420.255859 0)"/>
     <use xlink:href="#DejaVuSans-61" transform="translate(1483.732422 0)"/>
     <use xlink:href="#DejaVuSans-70" transform="translate(1545.011719 0)"/>
     <use xlink:href="#DejaVuSans-20" transform="translate(1608.488281 0)"/>
     <use xlink:href="#DejaVuSans-20" transform="translate(1640.275391 0)"/>
     <use xlink:href="#DejaVuSans-28" transform="translate(1672.0625 0)"/>
     <use xlink:href="#DejaVuSans-63" transform="translate(1711.076172 0)"/>
     <use xlink:href="#DejaVuSans-61" transform="translate(1766.056641 0)"/>
     <use xlink:href="#DejaVuSans-6e" transform="translate(1827.335938 0)"/>
     <use xlink:href="#DejaVuSans-6f" transform="translate(1890.714844 0)"/>
     <use xlink:href="#DejaVuSans-6e" transform="translate(1951.896484 0)"/>
     <use xlink:href="#DejaVuSans-69" transform="translate(2015.275391 0)"/>
     <use xlink:href="#DejaVuSans-63" transform="translate(2043.058594 0)"/>
     <use xlink:href="#DejaVuSans-61" transform="translate(2098.039062 0)"/>
     <use xlink:href="#DejaVuSans-6c" transform="translate(2159.318359 0)"/>
     <use xlink:href="#DejaVuSans-20" transform="translate(2187.101562 0)"/>
     <use xlink:href="#DejaVuSans-52" transform="translate(2218.888672 0)"/>
     <use xlink:href="#DejaVuSans-65" transform="translate(2283.871094 0)"/>
     <use xlink:href="#DejaVuSans-43" transform="translate(2345.394531 0)"/>
     <use xlink:href="#DejaVuSans-6f" transform="translate(2415.21875 0)"/>
     <use xlink:href="#DejaVuSans-6d" transform="translate(2476.400391 0)"/>
     <use xlink:href="#DejaVuSans-20" transform="translate(2573.8125 0)"/>
     <use xlink:href="#DejaVuSans-65" transform="translate(2605.599609 0)"/>
     <use xlink:href="#DejaVuSans-6e" transform="translate(2667.123047 0)"/>
     <use xlink:href="#DejaVuSans-73" transform="translate(2730.501953 0)"/>
     <use xlink:href="#DejaVuSans-65" transform="translate(2782.601562 0)"/>
     <use xlink:href="#DejaVuSans-6d" transform="translate(2844.125 0)"/>
     <use xlink:href="#DejaVuSans-62" transform="translate(2941.537109 0)"/>
     <use xlink:href="#DejaVuSans-6c" transform="translate(3005.013672 0)"/>
     <use xlink:href="#DejaVuSans-65" transform="translate(3032.796875 0)"/>
     <use xlink:href="#DejaVuSans-29" transform="translate(3094.320312 0)"/>
    </g>
   </g>
   <g id="legend_1">
    <g id="patch_7">
     <path d="M 496.306406 47.290312 
L 630.9 47.290312 
Q 632.7 47.290312 632.7 45.490312 
L 632.7 33.18 
Q 632.7 31.38 630.9 31.38 
L 496.306406 31.38 
Q 494.506406 31.38 494.506406 33.18 
L 494.506406 45.490312 
Q 494.506406 47.290312 496.306406 47.290312 
z
" style="fill: #ffffff; opacity: 0.8; stroke: #cccccc; stroke-linejoin: miter"/>
    </g>
    <g id="line2d_25">
     <path d="M 498.106406 38.668594 
L 507.106406 38.668594 
L 516.106406 38.668594 
" style="fill: none; stroke-dasharray: 2.96,1.28; stroke-dashoffset: 0; stroke: #888888; stroke-width: 0.8"/>
    </g>
    <g id="text_15">
     <!-- final mean = +0.08063 -->
     <g transform="translate(523.306406 41.818594) scale(0.09 -0.09)">
      <defs>
       <path id="DejaVuSans-3d" d="M 678 2906 
L 4684 2906 
L 4684 2381 
L 678 2381 
L 678 2906 
z
M 678 1631 
L 4684 1631 
L 4684 1100 
L 678 1100 
L 678 1631 
z
" transform="scale(0.015625)"/>
       <path id="DejaVuSans-2b" d="M 2944 4013 
L 2944 2272 
L 4684 2272 
L 4684 1741 
L 2944 1741 
L 2944 0 
L 2419 0 
L 2419 1741 
L 678 1741 
L 678 2272 
L 2419 2272 
L 2419 4013 
L 2944 4013 
z
" transform="scale(0.015625)"/>
       <path id="DejaVuSans-33" d="M 2597 2516 
Q 3050 2419 3304 2112 
Q 3559 1806 3559 1356 
Q 3559 666 3084 287 
Q 2609 -91 1734 -91 
Q 1441 -91 1130 -33 
Q 819 25 488 141 
L 488 750 
Q 750 597 1062 519 
Q 1375 441 1716 441 
Q 2309 441 2620 675 
Q 2931 909 2931 1356 
Q 2931 1769 2642 2001 
Q 2353 2234 1838 2234 
L 1294 2234 
L 1294 2753 
L 1863 2753 
Q 2328 2753 2575 2939 
Q 2822 3125 2822 3475 
Q 2822 3834 2567 4026 
Q 2313 4219 1838 4219 
Q 1578 4219 1281 4162 
Q 984 4106 628 3988 
L 628 4550 
Q 988 4650 1302 4700 
Q 1616 4750 1894 4750 
Q 2613 4750 3031 4423 
Q 3450 4097 3450 3541 
Q 3450 3153 3228 2886 
Q 3006 2619 2597 2516 
z
" transform="scale(0.015625)"/>
      </defs>
      <use xlink:href="#DejaVuSans-66"/>
      <use xlink:href="#DejaVuSans-69" transform="translate(35.205078 0)"/>
      <use xlink:href="#DejaVuSans-6e" transform="translate(62.988281 0)"/>
      <use xlink:href="#DejaVuSans-61" transform="translate(126.367188 0)"/>
      <use xlink:href="#DejaVuSans-6c" transform="translate(187.646484 0)"/>
      <use xlink:href="#DejaVuSans-20" transform="translate(215.429688 0)"/>
      <use xlink:href="#DejaVuSans-6d" transform="translate(247.216797 0)"/>
      <use xlink:href="#DejaVuSans-65" transform="translate(344.628906 0)"/>
      <use xlink:href="#DejaVuSans-61" transform="translate(406.152344 0)"/>
      <use xlink:href="#DejaVuSans-6e" transform="translate(467.431641 0)"/>
      <use xlink:href="#DejaVuSans-20" transform="translate(530.810547 0)"/>
      <use xlink:href="#DejaVuSans-3d" transform="translate(562.597656 0)"/>
      <use xlink:href="#DejaVuSans-20" transform="translate(646.386719 0)"/>
      <use xlink:href="#DejaVuSans-2b" transform="translate(678.173828 0)"/>
      <use xlink:href="#DejaVuSans-30" transform="translate(761.962891 0)"/>
      <use xlink:href="#DejaVuSans-2e" transform="translate(825.585938 0)"/>
      <use xlink:href="#DejaVuSans-30" transform="translate(857.373047 0)"/>
      <use xlink:href="#DejaVuSans-38" transform="translate(920.996094 0)"/>
      <use xlink:href="#DejaVuSans-30" transform="translate(984.619141 0)"/>
      <use xlink:href="#DejaVuSans-36" transform="translate(1048.242188 0)"/>
      <use xlink:href="#DejaVuSans-33" transform="translate(1111.865234 0)"/>
     </g>
    </g>
   </g>
  </g>
 </g>
 <defs>
  <clipPath id="p44a3119110">
   <rect x="60.42125" y="26.88" width="576.77875" height="255.16"/>
  </clipPath>
 </defs>
</svg>
