<?xml version="1.0" encoding="utf-8" standalone="no"?>
<!DOCTYPE svg PUBLIC "-//W3C//DTD SVG 1.1//EN"
  "http://www.w3.org/Graphics/SVG/1.1/DTD/svg11.dtd">
<svg xmlns:xlink="http://www.w3.org/1999/xlink" width="648pt" height="324pt" viewBox="0 0 648 324" xmlns="http://www.w3.org/2000/svg" version="1.1">
 <metadata>
  <rdf:RDF xmlns:dc="http://purl.org/dc/elements/1.1/" xmlns:cc="http://creativecommons.org/ns#" xmlns:rdf="http://www.w3.org/1999/02/22-rdf-syntax-ns#">
   <cc:Work>
    <dc:type rdf:resource="http://purl.org/dc/dcmitype/StillImage"/>
    <dc:date>2026-05-07T00:11:13.791273</dc:date>
    <dc:format>image/svg+xml</dc:format>
    <dc:creator>
     <cc:Agent>
      <dc:title>Matplotlib v3.10.8, https://matplotlib.org/</dc:title>
     </cc:Agent>
    </dc:creator>
   </cc:Work>
  </rdf:RDF>
 </metadata>
 <defs>
  <style type="text/css">*{stroke-linejoin: round; stroke-linecap: butt}</style>
 </defs>
 <g id="figure_1">
  <g id="patch_1">
   <path d="M 0 324 
L 648 324 
L 648 0 
L 0 0 
z
" style="fill: #ffffff"/>
  </g>
  <g id="axes_1">
   <g id="patch_2">
    <path d="M 57.27125 282.04 
L 637.2 282.04 
L 637.2 26.88 
L 57.27125 26.88 
z
" style="fill: #ffffff"/>
   </g>
   <g id="matplotlib.axis_1">
    <g id="xtick_1">
     <g id="line2d_1">
      <path d="M 83.621103 282.04 
L 83.621103 26.88 
" clip-path="url(#pd0b8f2e343)" style="fill: none; stroke-dasharray: 0.5,0.825; stroke-dashoffset: 0; stroke: #b0b0b0; stroke-opacity: 0.6; stroke-width: 0.5"/>
     </g>
     <g id="line2d_2">
      <defs>
       <path id="m4a2902bcc3" d="M 0 0 
L 0 3.5 
" style="stroke: #000000; stroke-width: 0.8"/>
      </defs>
      <g>
       <use xlink:href="#m4a2902bcc3" x="83.621103" y="282.04" style="stroke: #000000; stroke-width: 0.8"/>
      </g>
     </g>
     <g id="text_1">
      <!-- 0 -->
      <g transform="translate(80.439853 296.638438) scale(0.1 -0.1)">
       <defs>
        <path id="DejaVuSans-30" d="M 2034 4250 
Q 1547 4250 1301 3770 
Q 1056 3291 1056 2328 
Q 1056 1369 1301 889 
Q 1547 409 2034 409 
Q 2525 409 2770 889 
Q 3016 1369 3016 2328 
Q 3016 3291 2770 3770 
Q 2525 4250 2034 4250 
z
M 2034 4750 
Q 2819 4750 3233 4129 
Q 3647 3509 3647 2328 
Q 3647 1150 3233 529 
Q 2819 -91 2034 -91 
Q 1250 -91 836 529 
Q 422 1150 422 2328 
Q 422 3509 836 4129 
Q 1250 4750 2034 4750 
z
" transform="scale(0.015625)"/>
       </defs>
       <use xlink:href="#DejaVuSans-30"/>
      </g>
     </g>
    </g>
    <g id="xtick_2">
     <g id="line2d_3">
      <path d="M 189.064803 282.04 
L 189.064803 26.88 
" clip-path="url(#pd0b8f2e343)" style="fill: none; stroke-dasharray: 0.5,0.825; stroke-dashoffset: 0; stroke: #b0b0b0; stroke-opacity: 0.6; stroke-width: 0.5"/>
     </g>
     <g id="line2d_4">
      <g>
       <use xlink:href="#m4a2902bcc3" x="189.064803" y="282.04" style="stroke: #000000; stroke-width: 0.8"/>
      </g>
     </g>
     <g id="text_2">
      <!-- 10000 -->
      <g transform="translate(173.158553 296.638438) scale(0.1 -0.1)">
       <defs>
        <path id="DejaVuSans-31" d="M 794 531 
L 1825 531 
L 1825 4091 
L 703 3866 
L 703 4441 
L 1819 4666 
L 2450 4666 
L 2450 531 
L 3481 531 
L 3481 0 
L 794 0 
L 794 531 
z
" transform="scale(0.015625)"/>
       </defs>
       <use xlink:href="#DejaVuSans-31"/>
       <use xlink:href="#DejaVuSans-30" transform="translate(63.623047 0)"/>
       <use xlink:href="#DejaVuSans-30" transform="translate(127.246094 0)"/>
       <use xlink:href="#DejaVuSans-30" transform="translate(190.869141 0)"/>
       <use xlink:href="#DejaVuSans-30" transform="translate(254.492188 0)"/>
      </g>
     </g>
    </g>
    <g id="xtick_3">
     <g id="line2d_5">
      <path d="M 294.508503 282.04 
L 294.508503 26.88 
" clip-path="url(#pd0b8f2e343)" style="fill: none; stroke-dasharray: 0.5,0.825; stroke-dashoffset: 0; stroke: #b0b0b0; stroke-opacity: 0.6; stroke-width: 0.5"/>
     </g>
     <g id="line2d_6">
      <g>
       <use xlink:href="#m4a2902bcc3" x="294.508503" y="282.04" style="stroke: #000000; stroke-width: 0.8"/>
      </g>
     </g>
     <g id="text_3">
      <!-- 20000 -->
      <g transform="translate(278.602253 296.638438) scale(0.1 -0.1)">
       <defs>
        <path id="DejaVuSans-32" d="M 1228 531 
L 3431 531 
L 3431 0 
L 469 0 
L 469 531 
Q 828 903 1448 1529 
Q 2069 2156 2228 2338 
Q 2531 2678 2651 2914 
Q 2772 3150 2772 3378 
Q 2772 3750 2511 3984 
Q 2250 4219 1831 4219 
Q 1534 4219 1204 4116 
Q 875 4013 500 3803 
L 500 4441 
Q 881 4594 1212 4672 
Q 1544 4750 1819 4750 
Q 2544 4750 2975 4387 
Q 3406 4025 3406 3419 
Q 3406 3131 3298 2873 
Q 3191 2616 2906 2266 
Q 2828 2175 2409 1742 
Q 1991 1309 1228 531 
z
" transform="scale(0.015625)"/>
       </defs>
       <use xlink:href="#DejaVuSans-32"/>
       <use xlink:href="#DejaVuSans-30" transform="translate(63.623047 0)"/>
       <use xlink:href="#DejaVuSans-30" transform="translate(127.246094 0)"/>
       <use xlink:href="#DejaVuSans-30" transform="translate(190.869141 0)"/>
       <use xlink:href="#DejaVuSans-30" transform="translate(254.492188 0)"/>
      </g>
     </g>
    </g>
    <g id="xtick_4">
     <g id="line2d_7">
      <path d="M 399.952203 282.04 
L 399.952203 26.88 
" clip-path="url(#pd0b8f2e343)" style="fill: none; stroke-dasharray: 0.5,0.825; stroke-dashoffset: 0; stroke: #b0b0b0; stroke-opacity: 0.6; stroke-width: 0.5"/>
     </g>
     <g id="line2d_8">
      <g>
       <use xlink:href="#m4a2902bcc3" x="399.952203" y="282.04" style="stroke: #000000; stroke-width: 0.8"/>
      </g>
     </g>
     <g id="text_4">
      <!-- 30000 -->
      <g transform="translate(384.045953 296.638438) scale(0.1 -0.1)">
       <defs>
        <path id="DejaVuSans-33" d="M 2597 2516 
Q 3050 2419 3304 2112 
Q 3559 1806 3559 1356 
Q 3559 666 3084 287 
Q 2609 -91 1734 -91 
Q 1441 -91 1130 -33 
Q 819 25 488 141 
L 488 750 
Q 750 597 1062 519 
Q 1375 441 1716 441 
Q 2309 441 2620 675 
Q 2931 909 2931 1356 
Q 2931 1769 2642 2001 
Q 2353 2234 1838 2234 
L 1294 2234 
L 1294 2753 
L 1863 2753 
Q 2328 2753 2575 2939 
Q 2822 3125 2822 3475 
Q 2822 3834 2567 4026 
Q 2313 4219 1838 4219 
Q 1578 4219 1281 4162 
Q 984 4106 628 3988 
L 628 4550 
Q 988 4650 1302 4700 
Q 1616 4750 1894 4750 
Q 2613 4750 3031 4423 
Q 3450 4097 3450 3541 
Q 3450 3153 3228 2886 
Q 3006 2619 2597 2516 
z
" transform="scale(0.015625)"/>
       </defs>
       <use xlink:href="#DejaVuSans-33"/>
       <use xlink:href="#DejaVuSans-30" transform="translate(63.623047 0)"/>
       <use xlink:href="#DejaVuSans-30" transform="translate(127.246094 0)"/>
       <use xlink:href="#DejaVuSans-30" transform="translate(190.869141 0)"/>
       <use xlink:href="#DejaVuSans-30" transform="translate(254.492188 0)"/>
      </g>
     </g>
    </g>
    <g id="xtick_5">
     <g id="line2d_9">
      <path d="M 505.395902 282.04 
L 505.395902 26.88 
" clip-path="url(#pd0b8f2e343)" style="fill: none; stroke-dasharray: 0.5,0.825; stroke-dashoffset: 0; stroke: #b0b0b0; stroke-opacity: 0.6; stroke-width: 0.5"/>
     </g>
     <g id="line2d_10">
      <g>
       <use xlink:href="#m4a2902bcc3" x="505.395902" y="282.04" style="stroke: #000000; stroke-width: 0.8"/>
      </g>
     </g>
     <g id="text_5">
      <!-- 40000 -->
      <g transform="translate(489.489652 296.638438) scale(0.1 -0.1)">
       <defs>
        <path id="DejaVuSans-34" d="M 2419 4116 
L 825 1625 
L 2419 1625 
L 2419 4116 
z
M 2253 4666 
L 3047 4666 
L 3047 1625 
L 3713 1625 
L 3713 1100 
L 3047 1100 
L 3047 0 
L 2419 0 
L 2419 1100 
L 313 1100 
L 313 1709 
L 2253 4666 
z
" transform="scale(0.015625)"/>
       </defs>
       <use xlink:href="#DejaVuSans-34"/>
       <use xlink:href="#DejaVuSans-30" transform="translate(63.623047 0)"/>
       <use xlink:href="#DejaVuSans-30" transform="translate(127.246094 0)"/>
       <use xlink:href="#DejaVuSans-30" transform="translate(190.869141 0)"/>
       <use xlink:href="#DejaVuSans-30" transform="translate(254.492188 0)"/>
      </g>
     </g>
    </g>
    <g id="xtick_6">
     <g id="line2d_11">
      <path d="M 610.839602 282.04 
L 610.839602 26.88 
" clip-path="url(#pd0b8f2e343)" style="fill: none; stroke-dasharray: 0.5,0.825; stroke-dashoffset: 0; stroke: #b0b0b0; stroke-opacity: 0.6; stroke-width: 0.5"/>
     </g>
     <g id="line2d_12">
      <g>
       <use xlink:href="#m4a2902bcc3" x="610.839602" y="282.04" style="stroke: #000000; stroke-width: 0.8"/>
      </g>
     </g>
     <g id="text_6">
      <!-- 50000 -->
      <g transform="translate(594.933352 296.638438) scale(0.1 -0.1)">
       <defs>
        <path id="DejaVuSans-35" d="M 691 4666 
L 3169 4666 
L 3169 4134 
L 1269 4134 
L 1269 2991 
Q 1406 3038 1543 3061 
Q 1681 3084 1819 3084 
Q 2600 3084 3056 2656 
Q 3513 2228 3513 1497 
Q 3513 744 3044 326 
Q 2575 -91 1722 -91 
Q 1428 -91 1123 -41 
Q 819 9 494 109 
L 494 744 
Q 775 591 1075 516 
Q 1375 441 1709 441 
Q 2250 441 2565 725 
Q 2881 1009 2881 1497 
Q 2881 1984 2565 2268 
Q 2250 2553 1709 2553 
Q 1456 2553 1204 2497 
Q 953 2441 691 2322 
L 691 4666 
z
" transform="scale(0.015625)"/>
       </defs>
       <use xlink:href="#DejaVuSans-35"/>
       <use xlink:href="#DejaVuSans-30" transform="translate(63.623047 0)"/>
       <use xlink:href="#DejaVuSans-30" transform="translate(127.246094 0)"/>
       <use xlink:href="#DejaVuSans-30" transform="translate(190.869141 0)"/>
       <use xlink:href="#DejaVuSans-30" transform="translate(254.492188 0)"/>
      </g>
     </g>
    </g>
    <g id="text_7">
     <!-- Sample index -->
     <g transform="translate(313.217656 310.316563) scale(0.1 -0.1)">
      <defs>
       <path id="DejaVuSans-53" d="M 3425 4513 
L 3425 3897 
Q 3066 4069 2747 4153 
Q 2428 4238 2131 4238 
Q 1616 4238 1336 4038 
Q 1056 3838 1056 3469 
Q 1056 3159 1242 3001 
Q 1428 2844 1947 2747 
L 2328 2669 
Q 3034 2534 3370 2195 
Q 3706 1856 3706 1288 
Q 3706 609 3251 259 
Q 2797 -91 1919 -91 
Q 1588 -91 1214 -16 
Q 841 59 441 206 
L 441 856 
Q 825 641 1194 531 
Q 1563 422 1919 422 
Q 2459 422 2753 634 
Q 3047 847 3047 1241 
Q 3047 1584 2836 1778 
Q 2625 1972 2144 2069 
L 1759 2144 
Q 1053 2284 737 2584 
Q 422 2884 422 3419 
Q 422 4038 858 4394 
Q 1294 4750 2059 4750 
Q 2388 4750 2728 4690 
Q 3069 4631 3425 4513 
z
" transform="scale(0.015625)"/>
       <path id="DejaVuSans-61" d="M 2194 1759 
Q 1497 1759 1228 1600 
Q 959 1441 959 1056 
Q 959 750 1161 570 
Q 1363 391 1709 391 
Q 2188 391 2477 730 
Q 2766 1069 2766 1631 
L 2766 1759 
L 2194 1759 
z
M 3341 1997 
L 3341 0 
L 2766 0 
L 2766 531 
Q 2569 213 2275 61 
Q 1981 -91 1556 -91 
Q 1019 -91 701 211 
Q 384 513 384 1019 
Q 384 1609 779 1909 
Q 1175 2209 1959 2209 
L 2766 2209 
L 2766 2266 
Q 2766 2663 2505 2880 
Q 2244 3097 1772 3097 
Q 1472 3097 1187 3025 
Q 903 2953 641 2809 
L 641 3341 
Q 956 3463 1253 3523 
Q 1550 3584 1831 3584 
Q 2591 3584 2966 3190 
Q 3341 2797 3341 1997 
z
" transform="scale(0.015625)"/>
       <path id="DejaVuSans-6d" d="M 3328 2828 
Q 3544 3216 3844 3400 
Q 4144 3584 4550 3584 
Q 5097 3584 5394 3201 
Q 5691 2819 5691 2113 
L 5691 0 
L 5113 0 
L 5113 2094 
Q 5113 2597 4934 2840 
Q 4756 3084 4391 3084 
Q 3944 3084 3684 2787 
Q 3425 2491 3425 1978 
L 3425 0 
L 2847 0 
L 2847 2094 
Q 2847 2600 2669 2842 
Q 2491 3084 2119 3084 
Q 1678 3084 1418 2786 
Q 1159 2488 1159 1978 
L 1159 0 
L 581 0 
L 581 3500 
L 1159 3500 
L 1159 2956 
Q 1356 3278 1631 3431 
Q 1906 3584 2284 3584 
Q 2666 3584 2933 3390 
Q 3200 3197 3328 2828 
z
" transform="scale(0.015625)"/>
       <path id="DejaVuSans-70" d="M 1159 525 
L 1159 -1331 
L 581 -1331 
L 581 3500 
L 1159 3500 
L 1159 2969 
Q 1341 3281 1617 3432 
Q 1894 3584 2278 3584 
Q 2916 3584 3314 3078 
Q 3713 2572 3713 1747 
Q 3713 922 3314 415 
Q 2916 -91 2278 -91 
Q 1894 -91 1617 61 
Q 1341 213 1159 525 
z
M 3116 1747 
Q 3116 2381 2855 2742 
Q 2594 3103 2138 3103 
Q 1681 3103 1420 2742 
Q 1159 2381 1159 1747 
Q 1159 1113 1420 752 
Q 1681 391 2138 391 
Q 2594 391 2855 752 
Q 3116 1113 3116 1747 
z
" transform="scale(0.015625)"/>
       <path id="DejaVuSans-6c" d="M 603 4863 
L 1178 4863 
L 1178 0 
L 603 0 
L 603 4863 
z
" transform="scale(0.015625)"/>
       <path id="DejaVuSans-65" d="M 3597 1894 
L 3597 1613 
L 953 1613 
Q 991 1019 1311 708 
Q 1631 397 2203 397 
Q 2534 397 2845 478 
Q 3156 559 3463 722 
L 3463 178 
Q 3153 47 2828 -22 
Q 2503 -91 2169 -91 
Q 1331 -91 842 396 
Q 353 884 353 1716 
Q 353 2575 817 3079 
Q 1281 3584 2069 3584 
Q 2775 3584 3186 3129 
Q 3597 2675 3597 1894 
z
M 3022 2063 
Q 3016 2534 2758 2815 
Q 2500 3097 2075 3097 
Q 1594 3097 1305 2825 
Q 1016 2553 972 2059 
L 3022 2063 
z
" transform="scale(0.015625)"/>
       <path id="DejaVuSans-20" transform="scale(0.015625)"/>
       <path id="DejaVuSans-69" d="M 603 3500 
L 1178 3500 
L 1178 0 
L 603 0 
L 603 3500 
z
M 603 4863 
L 1178 4863 
L 1178 4134 
L 603 4134 
L 603 4863 
z
" transform="scale(0.015625)"/>
       <path id="DejaVuSans-6e" d="M 3513 2113 
L 3513 0 
L 2938 0 
L 2938 2094 
Q 2938 2591 2744 2837 
Q 2550 3084 2163 3084 
Q 1697 3084 1428 2787 
Q 1159 2491 1159 1978 
L 1159 0 
L 581 0 
L 581 3500 
L 1159 3500 
L 1159 2956 
Q 1366 3272 1645 3428 
Q 1925 3584 2291 3584 
Q 2894 3584 3203 3211 
Q 3513 2838 3513 2113 
z
" transform="scale(0.015625)"/>
       <path id="DejaVuSans-64" d="M 2906 2969 
L 2906 4863 
L 3481 4863 
L 3481 0 
L 2906 0 
L 2906 525 
Q 2725 213 2448 61 
Q 2172 -91 1784 -91 
Q 1150 -91 751 415 
Q 353 922 353 1747 
Q 353 2572 751 3078 
Q 1150 3584 1784 3584 
Q 2172 3584 2448 3432 
Q 2725 3281 2906 2969 
z
M 947 1747 
Q 947 1113 1208 752 
Q 1469 391 1925 391 
Q 2381 391 2643 752 
Q 2906 1113 2906 1747 
Q 2906 2381 2643 2742 
Q 2381 3103 1925 3103 
Q 1469 3103 1208 2742 
Q 947 2381 947 1747 
z
" transform="scale(0.015625)"/>
       <path id="DejaVuSans-78" d="M 3513 3500 
L 2247 1797 
L 3578 0 
L 2900 0 
L 1881 1375 
L 863 0 
L 184 0 
L 1544 1831 
L 300 3500 
L 978 3500 
L 1906 2253 
L 2834 3500 
L 3513 3500 
z
" transform="scale(0.015625)"/>
      </defs>
      <use xlink:href="#DejaVuSans-53"/>
      <use xlink:href="#DejaVuSans-61" transform="translate(63.476562 0)"/>
      <use xlink:href="#DejaVuSans-6d" transform="translate(124.755859 0)"/>
      <use xlink:href="#DejaVuSans-70" transform="translate(222.167969 0)"/>
      <use xlink:href="#DejaVuSans-6c" transform="translate(285.644531 0)"/>
      <use xlink:href="#DejaVuSans-65" transform="translate(313.427734 0)"/>
      <use xlink:href="#DejaVuSans-20" transform="translate(374.951172 0)"/>
      <use xlink:href="#DejaVuSans-69" transform="translate(406.738281 0)"/>
      <use xlink:href="#DejaVuSans-6e" transform="translate(434.521484 0)"/>
      <use xlink:href="#DejaVuSans-64" transform="translate(497.900391 0)"/>
      <use xlink:href="#DejaVuSans-65" transform="translate(561.376953 0)"/>
      <use xlink:href="#DejaVuSans-78" transform="translate(621.150391 0)"/>
     </g>
    </g>
   </g>
   <g id="matplotlib.axis_2">
    <g id="ytick_1">
     <g id="line2d_13">
      <path d="M 57.27125 255.332841 
L 637.2 255.332841 
" clip-path="url(#pd0b8f2e343)" style="fill: none; stroke-dasharray: 0.5,0.825; stroke-dashoffset: 0; stroke: #b0b0b0; stroke-opacity: 0.6; stroke-width: 0.5"/>
     </g>
     <g id="line2d_14">
      <defs>
       <path id="mf0e43f93a4" d="M 0 0 
L -3.5 0 
" style="stroke: #000000; stroke-width: 0.8"/>
      </defs>
      <g>
       <use xlink:href="#mf0e43f93a4" x="57.27125" y="255.332841" style="stroke: #000000; stroke-width: 0.8"/>
      </g>
     </g>
     <g id="text_8">
      <!-- 2200 -->
      <g transform="translate(24.82125 259.132059) scale(0.1 -0.1)">
       <use xlink:href="#DejaVuSans-32"/>
       <use xlink:href="#DejaVuSans-32" transform="translate(63.623047 0)"/>
       <use xlink:href="#DejaVuSans-30" transform="translate(127.246094 0)"/>
       <use xlink:href="#DejaVuSans-30" transform="translate(190.869141 0)"/>
      </g>
     </g>
    </g>
    <g id="ytick_2">
     <g id="line2d_15">
      <path d="M 57.27125 213.155574 
L 637.2 213.155574 
" clip-path="url(#pd0b8f2e343)" style="fill: none; stroke-dasharray: 0.5,0.825; stroke-dashoffset: 0; stroke: #b0b0b0; stroke-opacity: 0.6; stroke-width: 0.5"/>
     </g>
     <g id="line2d_16">
      <g>
       <use xlink:href="#mf0e43f93a4" x="57.27125" y="213.155574" style="stroke: #000000; stroke-width: 0.8"/>
      </g>
     </g>
     <g id="text_9">
      <!-- 2400 -->
      <g transform="translate(24.82125 216.954793) scale(0.1 -0.1)">
       <use xlink:href="#DejaVuSans-32"/>
       <use xlink:href="#DejaVuSans-34" transform="translate(63.623047 0)"/>
       <use xlink:href="#DejaVuSans-30" transform="translate(127.246094 0)"/>
       <use xlink:href="#DejaVuSans-30" transform="translate(190.869141 0)"/>
      </g>
     </g>
    </g>
    <g id="ytick_3">
     <g id="line2d_17">
      <path d="M 57.27125 170.978308 
L 637.2 170.978308 
" clip-path="url(#pd0b8f2e343)" style="fill: none; stroke-dasharray: 0.5,0.825; stroke-dashoffset: 0; stroke: #b0b0b0; stroke-opacity: 0.6; stroke-width: 0.5"/>
     </g>
     <g id="line2d_18">
      <g>
       <use xlink:href="#mf0e43f93a4" x="57.27125" y="170.978308" style="stroke: #000000; stroke-width: 0.8"/>
      </g>
     </g>
     <g id="text_10">
      <!-- 2600 -->
      <g transform="translate(24.82125 174.777527) scale(0.1 -0.1)">
       <defs>
        <path id="DejaVuSans-36" d="M 2113 2584 
Q 1688 2584 1439 2293 
Q 1191 2003 1191 1497 
Q 1191 994 1439 701 
Q 1688 409 2113 409 
Q 2538 409 2786 701 
Q 3034 994 3034 1497 
Q 3034 2003 2786 2293 
Q 2538 2584 2113 2584 
z
M 3366 4563 
L 3366 3988 
Q 3128 4100 2886 4159 
Q 2644 4219 2406 4219 
Q 1781 4219 1451 3797 
Q 1122 3375 1075 2522 
Q 1259 2794 1537 2939 
Q 1816 3084 2150 3084 
Q 2853 3084 3261 2657 
Q 3669 2231 3669 1497 
Q 3669 778 3244 343 
Q 2819 -91 2113 -91 
Q 1303 -91 875 529 
Q 447 1150 447 2328 
Q 447 3434 972 4092 
Q 1497 4750 2381 4750 
Q 2619 4750 2861 4703 
Q 3103 4656 3366 4563 
z
" transform="scale(0.015625)"/>
       </defs>
       <use xlink:href="#DejaVuSans-32"/>
       <use xlink:href="#DejaVuSans-36" transform="translate(63.623047 0)"/>
       <use xlink:href="#DejaVuSans-30" transform="translate(127.246094 0)"/>
       <use xlink:href="#DejaVuSans-30" transform="translate(190.869141 0)"/>
      </g>
     </g>
    </g>
    <g id="ytick_4">
     <g id="line2d_19">
      <path d="M 57.27125 128.801042 
L 637.2 128.801042 
" clip-path="url(#pd0b8f2e343)" style="fill: none; stroke-dasharray: 0.5,0.825; stroke-dashoffset: 0; stroke: #b0b0b0; stroke-opacity: 0.6; stroke-width: 0.5"/>
     </g>
     <g id="line2d_20">
      <g>
       <use xlink:href="#mf0e43f93a4" x="57.27125" y="128.801042" style="stroke: #000000; stroke-width: 0.8"/>
      </g>
     </g>
     <g id="text_11">
      <!-- 2800 -->
      <g transform="translate(24.82125 132.60026) scale(0.1 -0.1)">
       <defs>
        <path id="DejaVuSans-38" d="M 2034 2216 
Q 1584 2216 1326 1975 
Q 1069 1734 1069 1313 
Q 1069 891 1326 650 
Q 1584 409 2034 409 
Q 2484 409 2743 651 
Q 3003 894 3003 1313 
Q 3003 1734 2745 1975 
Q 2488 2216 2034 2216 
z
M 1403 2484 
Q 997 2584 770 2862 
Q 544 3141 544 3541 
Q 544 4100 942 4425 
Q 1341 4750 2034 4750 
Q 2731 4750 3128 4425 
Q 3525 4100 3525 3541 
Q 3525 3141 3298 2862 
Q 3072 2584 2669 2484 
Q 3125 2378 3379 2068 
Q 3634 1759 3634 1313 
Q 3634 634 3220 271 
Q 2806 -91 2034 -91 
Q 1263 -91 848 271 
Q 434 634 434 1313 
Q 434 1759 690 2068 
Q 947 2378 1403 2484 
z
M 1172 3481 
Q 1172 3119 1398 2916 
Q 1625 2713 2034 2713 
Q 2441 2713 2670 2916 
Q 2900 3119 2900 3481 
Q 2900 3844 2670 4047 
Q 2441 4250 2034 4250 
Q 1625 4250 1398 4047 
Q 1172 3844 1172 3481 
z
" transform="scale(0.015625)"/>
       </defs>
       <use xlink:href="#DejaVuSans-32"/>
       <use xlink:href="#DejaVuSans-38" transform="translate(63.623047 0)"/>
       <use xlink:href="#DejaVuSans-30" transform="translate(127.246094 0)"/>
       <use xlink:href="#DejaVuSans-30" transform="translate(190.869141 0)"/>
      </g>
     </g>
    </g>
    <g id="ytick_5">
     <g id="line2d_21">
      <path d="M 57.27125 86.623775 
L 637.2 86.623775 
" clip-path="url(#pd0b8f2e343)" style="fill: none; stroke-dasharray: 0.5,0.825; stroke-dashoffset: 0; stroke: #b0b0b0; stroke-opacity: 0.6; stroke-width: 0.5"/>
     </g>
     <g id="line2d_22">
      <g>
       <use xlink:href="#mf0e43f93a4" x="57.27125" y="86.623775" style="stroke: #000000; stroke-width: 0.8"/>
      </g>
     </g>
     <g id="text_12">
      <!-- 3000 -->
      <g transform="translate(24.82125 90.422994) scale(0.1 -0.1)">
       <use xlink:href="#DejaVuSans-33"/>
       <use xlink:href="#DejaVuSans-30" transform="translate(63.623047 0)"/>
       <use xlink:href="#DejaVuSans-30" transform="translate(127.246094 0)"/>
       <use xlink:href="#DejaVuSans-30" transform="translate(190.869141 0)"/>
      </g>
     </g>
    </g>
    <g id="ytick_6">
     <g id="line2d_23">
      <path d="M 57.27125 44.446509 
L 637.2 44.446509 
" clip-path="url(#pd0b8f2e343)" style="fill: none; stroke-dasharray: 0.5,0.825; stroke-dashoffset: 0; stroke: #b0b0b0; stroke-opacity: 0.6; stroke-width: 0.5"/>
     </g>
     <g id="line2d_24">
      <g>
       <use xlink:href="#mf0e43f93a4" x="57.27125" y="44.446509" style="stroke: #000000; stroke-width: 0.8"/>
      </g>
     </g>
     <g id="text_13">
      <!-- 3200 -->
      <g transform="translate(24.82125 48.245728) scale(0.1 -0.1)">
       <use xlink:href="#DejaVuSans-33"/>
       <use xlink:href="#DejaVuSans-32" transform="translate(63.623047 0)"/>
       <use xlink:href="#DejaVuSans-30" transform="translate(127.246094 0)"/>
       <use xlink:href="#DejaVuSans-30" transform="translate(190.869141 0)"/>
      </g>
     </g>
    </g>
    <g id="text_14">
     <!-- Running mean of population_mad -->
     <g transform="translate(18.463438 238.929531) rotate(-90) scale(0.1 -0.1)">
      <defs>
       <path id="DejaVuSans-52" d="M 2841 2188 
Q 3044 2119 3236 1894 
Q 3428 1669 3622 1275 
L 4263 0 
L 3584 0 
L 2988 1197 
Q 2756 1666 2539 1819 
Q 2322 1972 1947 1972 
L 1259 1972 
L 1259 0 
L 628 0 
L 628 4666 
L 2053 4666 
Q 2853 4666 3247 4331 
Q 3641 3997 3641 3322 
Q 3641 2881 3436 2590 
Q 3231 2300 2841 2188 
z
M 1259 4147 
L 1259 2491 
L 2053 2491 
Q 2509 2491 2742 2702 
Q 2975 2913 2975 3322 
Q 2975 3731 2742 3939 
Q 2509 4147 2053 4147 
L 1259 4147 
z
" transform="scale(0.015625)"/>
       <path id="DejaVuSans-75" d="M 544 1381 
L 544 3500 
L 1119 3500 
L 1119 1403 
Q 1119 906 1312 657 
Q 1506 409 1894 409 
Q 2359 409 2629 706 
Q 2900 1003 2900 1516 
L 2900 3500 
L 3475 3500 
L 3475 0 
L 2900 0 
L 2900 538 
Q 2691 219 2414 64 
Q 2138 -91 1772 -91 
Q 1169 -91 856 284 
Q 544 659 544 1381 
z
M 1991 3584 
L 1991 3584 
z
" transform="scale(0.015625)"/>
       <path id="DejaVuSans-67" d="M 2906 1791 
Q 2906 2416 2648 2759 
Q 2391 3103 1925 3103 
Q 1463 3103 1205 2759 
Q 947 2416 947 1791 
Q 947 1169 1205 825 
Q 1463 481 1925 481 
Q 2391 481 2648 825 
Q 2906 1169 2906 1791 
z
M 3481 434 
Q 3481 -459 3084 -895 
Q 2688 -1331 1869 -1331 
Q 1566 -1331 1297 -1286 
Q 1028 -1241 775 -1147 
L 775 -588 
Q 1028 -725 1275 -790 
Q 1522 -856 1778 -856 
Q 2344 -856 2625 -561 
Q 2906 -266 2906 331 
L 2906 616 
Q 2728 306 2450 153 
Q 2172 0 1784 0 
Q 1141 0 747 490 
Q 353 981 353 1791 
Q 353 2603 747 3093 
Q 1141 3584 1784 3584 
Q 2172 3584 2450 3431 
Q 2728 3278 2906 2969 
L 2906 3500 
L 3481 3500 
L 3481 434 
z
" transform="scale(0.015625)"/>
       <path id="DejaVuSans-6f" d="M 1959 3097 
Q 1497 3097 1228 2736 
Q 959 2375 959 1747 
Q 959 1119 1226 758 
Q 1494 397 1959 397 
Q 2419 397 2687 759 
Q 2956 1122 2956 1747 
Q 2956 2369 2687 2733 
Q 2419 3097 1959 3097 
z
M 1959 3584 
Q 2709 3584 3137 3096 
Q 3566 2609 3566 1747 
Q 3566 888 3137 398 
Q 2709 -91 1959 -91 
Q 1206 -91 779 398 
Q 353 888 353 1747 
Q 353 2609 779 3096 
Q 1206 3584 1959 3584 
z
" transform="scale(0.015625)"/>
       <path id="DejaVuSans-66" d="M 2375 4863 
L 2375 4384 
L 1825 4384 
Q 1516 4384 1395 4259 
Q 1275 4134 1275 3809 
L 1275 3500 
L 2222 3500 
L 2222 3053 
L 1275 3053 
L 1275 0 
L 697 0 
L 697 3053 
L 147 3053 
L 147 3500 
L 697 3500 
L 697 3744 
Q 697 4328 969 4595 
Q 1241 4863 1831 4863 
L 2375 4863 
z
" transform="scale(0.015625)"/>
       <path id="DejaVuSans-74" d="M 1172 4494 
L 1172 3500 
L 2356 3500 
L 2356 3053 
L 1172 3053 
L 1172 1153 
Q 1172 725 1289 603 
Q 1406 481 1766 481 
L 2356 481 
L 2356 0 
L 1766 0 
Q 1100 0 847 248 
Q 594 497 594 1153 
L 594 3053 
L 172 3053 
L 172 3500 
L 594 3500 
L 594 4494 
L 1172 4494 
z
" transform="scale(0.015625)"/>
       <path id="DejaVuSans-5f" d="M 3263 -1063 
L 3263 -1509 
L -63 -1509 
L -63 -1063 
L 3263 -1063 
z
" transform="scale(0.015625)"/>
      </defs>
      <use xlink:href="#DejaVuSans-52"/>
      <use xlink:href="#DejaVuSans-75" transform="translate(64.982422 0)"/>
      <use xlink:href="#DejaVuSans-6e" transform="translate(128.361328 0)"/>
      <use xlink:href="#DejaVuSans-6e" transform="translate(191.740234 0)"/>
      <use xlink:href="#DejaVuSans-69" transform="translate(255.119141 0)"/>
      <use xlink:href="#DejaVuSans-6e" transform="translate(282.902344 0)"/>
      <use xlink:href="#DejaVuSans-67" transform="translate(346.28125 0)"/>
      <use xlink:href="#DejaVuSans-20" transform="translate(409.757812 0)"/>
      <use xlink:href="#DejaVuSans-6d" transform="translate(441.544922 0)"/>
      <use xlink:href="#DejaVuSans-65" transform="translate(538.957031 0)"/>
      <use xlink:href="#DejaVuSans-61" transform="translate(600.480469 0)"/>
      <use xlink:href="#DejaVuSans-6e" transform="translate(661.759766 0)"/>
      <use xlink:href="#DejaVuSans-20" transform="translate(725.138672 0)"/>
      <use xlink:href="#DejaVuSans-6f" transform="translate(756.925781 0)"/>
      <use xlink:href="#DejaVuSans-66" transform="translate(818.107422 0)"/>
      <use xlink:href="#DejaVuSans-20" transform="translate(853.3125 0)"/>
      <use xlink:href="#DejaVuSans-70" transform="translate(885.099609 0)"/>
      <use xlink:href="#DejaVuSans-6f" transform="translate(948.576172 0)"/>
      <use xlink:href="#DejaVuSans-70" transform="translate(1009.757812 0)"/>
      <use xlink:href="#DejaVuSans-75" transform="translate(1073.234375 0)"/>
      <use xlink:href="#DejaVuSans-6c" transform="translate(1136.613281 0)"/>
      <use xlink:href="#DejaVuSans-61" transform="translate(1164.396484 0)"/>
      <use xlink:href="#DejaVuSans-74" transform="translate(1225.675781 0)"/>
      <use xlink:href="#DejaVuSans-69" transform="translate(1264.884766 0)"/>
      <use xlink:href="#DejaVuSans-6f" transform="translate(1292.667969 0)"/>
      <use xlink:href="#DejaVuSans-6e" transform="translate(1353.849609 0)"/>
      <use xlink:href="#DejaVuSans-5f" transform="translate(1417.228516 0)"/>
      <use xlink:href="#DejaVuSans-6d" transform="translate(1467.228516 0)"/>
      <use xlink:href="#DejaVuSans-61" transform="translate(1564.640625 0)"/>
      <use xlink:href="#DejaVuSans-64" transform="translate(1625.919922 0)"/>
     </g>
    </g>
   </g>
   <g id="line2d_25">
    <path d="M 83.631648 240.31838 
L 83.642192 240.31838 
L 83.716003 235.196539 
L 83.737091 240.812052 
L 83.779269 252.115372 
L 83.831991 270.441818 
L 83.905801 263.563655 
L 84.021789 253.450944 
L 84.274854 209.443393 
L 84.696629 149.230982 
L 84.791528 148.265923 
L 84.812617 148.988635 
L 84.970783 151.724527 
L 84.981327 151.602646 
L 85.255481 137.247488 
L 85.403102 138.379792 
L 85.434735 138.722662 
L 85.508546 138.370345 
L 85.888143 128.828534 
L 86.236107 120.660014 
L 86.257196 120.587774 
L 86.309918 120.764226 
L 86.43645 121.427813 
L 86.468083 121.311679 
L 86.520805 121.118152 
L 86.573527 121.270885 
L 86.657882 122.064388 
L 86.700059 121.661703 
L 87.005846 118.014959 
L 87.058568 118.45019 
L 87.100745 118.942838 
L 87.1851 118.748069 
L 87.322177 117.284927 
L 87.986473 104.34264 
L 88.239537 99.33629 
L 88.798389 86.154312 
L 89.135809 80.731601 
L 89.336152 79.191839 
L 89.557584 74.127932 
L 89.715749 73.153884 
L 90.221879 66.775819 
L 90.264056 66.533113 
L 90.348411 66.14871 
L 90.401133 66.295748 
L 90.411678 66.32146 
L 90.443311 66.158294 
L 90.559299 65.594076 
L 90.643654 65.765386 
L 90.685831 65.79566 
L 90.696376 65.738323 
L 90.833452 64.903222 
L 90.907263 65.074403 
L 91.065429 65.730355 
L 91.191961 65.624321 
L 91.276316 65.409641 
L 91.445026 64.614245 
L 91.476659 64.696127 
L 91.930067 65.981007 
L 92.046055 65.879331 
L 92.256942 65.6394 
L 92.288575 65.603452 
L 92.29912 65.691687 
L 92.457285 67.322027 
L 92.54164 66.810792 
L 93.016137 62.434547 
L 93.944042 56.853301 
L 93.996763 56.98503 
L 94.102207 57.184325 
L 94.13384 57.058986 
L 94.334183 56.313972 
L 94.787591 51.847048 
L 95.55733 44.077161 
L 96.580134 40.397647 
L 96.6434 40.356109 
L 96.675033 40.428287 
L 96.959731 41.100722 
L 97.022998 40.98574 
L 97.254974 40.299807 
L 97.265518 40.310845 
L 97.402595 40.9275 
L 97.676749 41.757471 
L 97.866547 41.491465 
L 98.425399 38.960225 
L 98.646831 38.478182 
L 98.678464 38.556881 
L 99.110783 39.936712 
L 99.384936 41.02041 
L 100.660805 49.608295 
L 100.945503 50.074929 
L 101.209112 50.540873 
L 101.841775 52.130522 
L 102.052662 52.064323 
L 102.284638 51.527449 
L 102.379538 51.610739 
L 102.527159 51.74575 
L 102.548247 51.72878 
L 102.611514 51.567108 
L 103.201998 49.130411 
L 103.275809 49.415387 
L 103.982282 50.565805 
L 104.625488 54.06758 
L 104.878553 55.039012 
L 105.300328 57.375228 
L 105.574482 58.2877 
L 105.59557 58.237237 
L 105.732647 58.32879 
L 105.985712 58.400698 
L 105.996256 58.374685 
L 106.164966 58.03652 
L 106.207144 58.12148 
L 106.881984 59.691384 
L 106.987427 59.572726 
L 107.029605 59.529518 
L 107.071782 59.628105 
L 107.335391 60.081296 
L 107.52519 60.272016 
L 107.683356 60.530886 
L 108.379284 62.828558 
L 108.484728 62.729402 
L 108.695615 62.629986 
L 108.969769 62.678005 
L 109.085757 62.625302 
L 109.180656 62.447073 
L 109.296644 62.253562 
L 109.35991 62.318027 
L 109.728963 62.948595 
L 109.982028 64.159212 
L 110.224549 64.852648 
L 110.361626 65.2631 
L 110.435436 65.481721 
L 110.509247 65.39009 
L 111.321163 62.830467 
L 111.858926 61.362641 
L 112.059269 61.122906 
L 112.122535 60.956662 
L 112.428322 59.881013 
L 114.294676 53.137293 
L 114.47393 53.02474 
L 114.684817 52.871479 
L 114.958971 52.666433 
L 115.486189 51.92072 
L 115.496734 51.935436 
L 115.855242 52.614634 
L 115.992319 52.77745 
L 116.013408 52.762765 
L 116.076674 52.650003 
L 116.593348 51.20025 
L 116.804236 50.707628 
L 117.247099 50.088083 
L 117.299821 50.12497 
L 118.280447 51.427363 
L 118.40698 51.471884 
L 118.596779 51.803816 
L 118.902565 52.375344 
L 119.050186 52.325919 
L 119.208352 52.259152 
L 119.377062 52.323761 
L 119.672304 52.246853 
L 119.967547 51.781856 
L 119.988635 51.80675 
L 120.547487 52.552063 
L 120.874362 52.726059 
L 121.369948 53.983368 
L 121.454303 53.929989 
L 121.739001 53.802843 
L 121.749545 53.825656 
L 121.949888 54.009356 
L 122.034243 54.135348 
L 122.17132 54.174088 
L 122.329486 54.302314 
L 122.540373 54.380453 
L 122.645817 54.35501 
L 122.698538 54.295061 
L 122.761805 54.345012 
L 123.078136 54.603476 
L 123.278479 54.812257 
L 123.4261 54.717675 
L 123.679165 54.41781 
L 123.689709 54.423881 
L 124.206383 54.836583 
L 124.43836 55.121967 
L 124.596525 55.45597 
L 124.765235 55.902749 
L 125.176465 56.797956 
L 125.35572 56.996561 
L 125.397897 56.966247 
L 125.76695 56.835359 
L 125.925116 56.666218 
L 126.157092 56.522671 
L 126.6105 56.725473 
L 126.810843 56.771534 
L 127.074452 56.925611 
L 127.338061 56.832684 
L 127.918002 56.335112 
L 128.392498 56.504033 
L 128.687741 55.925172 
L 128.972439 55.468614 
L 129.320403 55.350111 
L 129.425847 55.271722 
L 129.889799 54.704392 
L 130.132319 54.475029 
L 130.469739 53.750868 
L 131.04968 52.153677 
L 131.070768 52.160488 
L 131.2922 52.17601 
L 131.450366 52.165259 
L 131.682342 52.255428 
L 131.861596 52.240108 
L 131.87214 52.258732 
L 132.061939 52.381674 
L 132.167383 52.315684 
L 132.852767 51.512307 
L 133.274542 50.763091 
L 134.30789 49.817798 
L 134.518777 49.798699 
L 134.877286 49.438932 
L 135.130351 49.354137 
L 135.161984 49.418982 
L 135.784102 50.632114 
L 136.14261 50.344234 
L 136.606562 49.814428 
L 136.838539 49.763726 
L 137.017793 49.733109 
L 137.439568 49.785323 
L 137.745354 49.821951 
L 138.293662 49.829685 
L 138.472916 49.84294 
L 139.147756 49.769032 
L 139.421909 49.505128 
L 140.24437 49.552547 
L 140.592334 49.594052 
L 140.845399 49.441503 
L 141.130097 49.482859 
L 141.752215 50.107349 
L 141.963102 50.415036 
L 142.521954 51.563295 
L 142.785563 51.948233 
L 142.943729 52.225893 
L 143.702923 53.659154 
L 144.082521 53.893441 
L 144.303953 53.88533 
L 144.546473 54.228603 
L 145.442745 55.934292 
L 145.590366 56.073589 
L 145.632543 56.044592 
L 145.853975 56.038744 
L 146.012141 55.932481 
L 146.265205 55.792057 
L 146.570992 55.807439 
L 147.003311 55.52947 
L 147.288009 54.969562 
L 147.53053 54.611157 
L 147.720328 54.440054 
L 148.078837 54.2065 
L 148.711499 54.395806 
L 149.228173 54.79341 
L 149.892469 55.029648 
L 150.366965 54.965579 
L 150.641119 54.963452 
L 150.862551 55.072599 
L 151.083982 55.155357 
L 151.63229 55.02799 
L 151.779911 55.032068 
L 152.011887 55.019934 
L 152.317674 55.257053 
L 152.602372 55.807834 
L 152.88707 56.111862 
L 153.329933 56.513688 
L 153.751708 56.485776 
L 154.521447 56.873028 
L 155.048666 57.37994 
L 155.206831 57.538855 
L 156.008203 58.330876 
L 156.461611 58.397032 
L 156.683043 58.493126 
L 157.009918 58.409467 
L 157.210261 58.484063 
L 157.421149 58.704886 
L 158.138166 59.39731 
L 158.802461 59.586293 
L 158.950082 59.652496 
L 159.582745 59.832539 
L 159.888531 59.854112 
L 160.183774 60.044117 
L 160.626637 60.160931 
L 161.364743 60.302441 
L 162.282103 61.045518 
L 162.956943 61.521755 
L 163.652871 61.230023 
L 163.84267 61.183674 
L 164.791663 60.203463 
L 165.455959 59.399894 
L 165.698479 58.986537 
L 166.236242 57.810961 
L 168.134229 56.070872 
L 168.418927 56.059471 
L 168.735258 56.012444 
L 168.967234 55.934171 
L 169.631529 55.352303 
L 169.968949 55.181437 
L 170.158748 55.167937 
L 170.432901 55.197686 
L 171.645504 54.457425 
L 173.532946 54.654801 
L 174.924803 56.106764 
L 175.336033 56.27684 
L 176.833334 55.43608 
L 177.086399 55.504351 
L 177.434363 55.617106 
L 177.90886 55.96271 
L 178.414989 55.750827 
L 178.90003 55.413832 
L 179.891201 54.547548 
L 180.787473 54.5925 
L 181.251425 54.875007 
L 181.588845 54.79716 
L 182.506205 54.539084 
L 182.75927 54.59651 
L 183.117778 55.00557 
L 184.003506 55.953337 
L 184.794333 56.613652 
L 184.941954 56.552805 
L 185.342641 56.429113 
L 185.68006 56.574313 
L 186.723953 56.502237 
L 186.987562 56.527143 
L 187.36716 56.326338 
L 187.841656 56.631242 
L 188.094721 56.745726 
L 188.590306 56.538951 
L 188.959359 56.474811 
L 189.454945 56.213033 
L 190.098151 55.715369 
L 190.941701 55.462413 
L 191.616541 55.82478 
L 192.069949 56.141052 
L 193.029486 56.014686 
L 194.273722 55.471218 
L 194.653319 55.358295 
L 195.412514 55.636407 
L 195.971365 55.972916 
L 196.456406 55.816167 
L 196.930903 55.451165 
L 197.342134 55.219667 
L 197.848263 54.639363 
L 198.280583 54.300854 
L 198.744535 54.354266 
L 198.923789 54.279373 
L 199.24012 54.229382 
L 200.115303 54.433576 
L 200.442178 54.832063 
L 200.821776 55.139864 
L 201.591515 55.240063 
L 201.865668 55.044239 
L 202.456153 54.581285 
L 202.614319 54.674759 
L 202.804117 54.640247 
L 203.246981 54.542991 
L 203.816377 54.527938 
L 204.343595 54.424765 
L 205.092246 54.563701 
L 206.209949 54.758463 
L 206.779345 55.058635 
L 207.317108 55.522583 
L 207.633439 55.810686 
L 208.002492 56.14916 
L 208.561343 56.430042 
L 208.951485 56.514643 
L 209.27836 56.442493 
L 209.647413 56.491462 
L 211.155258 55.985084 
L 212.283506 55.78548 
L 213.1376 55.386562 
L 213.348487 55.429537 
L 214.698167 55.607524 
L 215.119941 55.415978 
L 215.952947 55.094188 
L 216.469621 54.524322 
L 216.754319 54.370673 
L 217.060105 54.427043 
L 217.260448 54.42711 
L 217.48188 54.327311 
L 218.114542 54.215384 
L 218.378152 54.199274 
L 219.74892 53.855395 
L 221.530918 54.890698 
L 221.836705 55.031825 
L 222.511545 55.132445 
L 223.186384 55.08669 
L 223.92449 55.250066 
L 224.609874 55.427772 
L 225.833021 55.235972 
L 226.170441 54.992885 
L 226.855825 54.659149 
L 227.10889 54.645566 
L 227.467399 54.573767 
L 228.458569 54.385507 
L 228.954155 54.100805 
L 229.586817 54.08787 
L 230.767786 53.340032 
L 231.031396 53.133013 
L 231.442626 52.875015 
L 231.843312 52.855881 
L 232.212365 52.861177 
L 233.024282 52.74902 
L 233.804565 52.367102 
L 234.321239 52.253557 
L 234.827369 52.189502 
L 235.291321 52.209005 
L 235.692007 52.244532 
L 235.98725 52.41886 
L 237.199852 53.385912 
L 239.013484 53.272291 
L 239.308726 53.270162 
L 240.679494 53.492072 
L 242.472037 53.131601 
L 242.957078 53.059694 
L 243.494841 53.085225 
L 244.791798 53.538537 
L 245.118674 53.590078 
L 245.846235 53.950379 
L 246.0993 53.77944 
L 246.710874 53.334233 
L 246.879584 53.312248 
L 247.238092 53.457959 
L 247.765311 53.278718 
L 248.745937 53.148687 
L 249.557854 53.207738 
L 250.411948 53.14299 
L 251.234409 53.063223 
L 251.571828 53.01908 
L 251.782716 52.906652 
L 252.816064 52.017859 
L 253.533081 51.372385 
L 254.176288 51.02034 
L 254.555885 51.01486 
L 255.199092 50.755262 
L 255.420523 50.731594 
L 255.968831 50.921455 
L 256.221896 50.929318 
L 257.940628 50.351441 
L 258.299136 50.254371 
L 258.657645 50.250313 
L 259.300852 50.287735 
L 259.796437 50.334018 
L 260.2393 50.229147 
L 261.884222 49.771365 
L 263.139002 50.370182 
L 264.309427 50.542518 
L 264.720658 50.659803 
L 265.237332 50.854108 
L 265.69074 50.997241 
L 266.639733 51.321018 
L 267.061508 51.479864 
L 267.45165 51.68715 
L 268.600986 51.882156 
L 269.159837 51.740687 
L 269.771411 51.42809 
L 270.277541 51.449306 
L 270.846937 51.142117 
L 271.142179 51.051011 
L 271.542865 50.973847 
L 272.882 50.519711 
L 273.135065 50.476039 
L 274.748354 49.937192 
L 275.507548 49.68035 
L 275.89769 49.771903 
L 276.245654 49.757971 
L 276.604163 49.748643 
L 278.597049 49.799641 
L 278.976646 49.762881 
L 280.611023 49.521658 
L 281.623283 49.13579 
L 281.876348 49.249912 
L 284.196109 49.666226 
L 284.617884 49.796644 
L 285.113469 49.81358 
L 285.35599 49.962859 
L 285.703954 50.100861 
L 286.494782 50.032317 
L 287.401598 49.828218 
L 287.876094 49.766669 
L 289.246862 49.469591 
L 289.774081 49.409539 
L 290.164222 49.342323 
L 290.554364 49.315201 
L 290.986683 49.21631 
L 291.419003 49.115722 
L 292.557794 49.088408 
L 294.244894 49.446042 
L 295.120076 49.13701 
L 296.037437 48.883244 
L 296.543566 48.787087 
L 297.619092 48.496685 
L 298.051411 48.476403 
L 298.884416 48.633838 
L 301.130367 48.42755 
L 301.615408 48.513306 
L 302.153171 48.27354 
L 302.880733 47.965618 
L 304.335856 47.825054 
L 305.18995 47.515087 
L 307.741687 47.068836 
L 308.089651 47.097474 
L 308.595781 47.164669 
L 309.133544 47.027914 
L 310.251247 47.234302 
L 310.673022 47.181396 
L 311.042075 47.19763 
L 312.781896 47.348622 
L 313.46728 47.679924 
L 313.794156 47.773288 
L 314.14212 47.703992 
L 314.669338 47.651294 
L 315.987385 47.682552 
L 316.630591 47.447754 
L 317.347608 46.830293 
L 317.885371 46.396598 
L 319.203417 45.543091 
L 319.677914 45.617984 
L 321.017049 46.001806 
L 321.818421 45.950108 
L 322.809592 45.775666 
L 323.263 45.7328 
L 324.074916 45.382175 
L 324.581046 45.23407 
L 325.930725 45.267068 
L 326.373589 45.42381 
L 327.385849 45.826023 
L 327.976333 46.012157 
L 328.271576 46.090391 
L 330.601881 47.33351 
L 332.151904 47.705216 
L 332.911098 47.673959 
L 334.176423 47.747301 
L 335.578824 47.936182 
L 336.89687 47.98302 
L 338.963567 48.37895 
L 339.459152 48.40005 
L 341.283328 48.639853 
L 341.546937 48.701619 
L 341.873813 48.724109 
L 342.369398 48.657033 
L 343.297303 48.673663 
L 344.889503 48.823844 
L 346.639868 48.318063 
L 348.18989 48.292847 
L 349.413037 47.994021 
L 350.0457 47.924643 
L 350.973604 47.710651 
L 351.311024 47.861245 
L 352.55526 48.054679 
L 353.873306 47.876696 
L 354.906654 47.843876 
L 355.486595 47.84204 
L 357.078794 47.991296 
L 358.08051 47.735546 
L 359.156035 47.819108 
L 361.739406 48.529629 
L 362.372068 48.78417 
L 362.804387 48.788813 
L 363.51086 48.760797 
L 364.660196 48.951973 
L 365.914976 48.952735 
L 367.138123 48.943081 
L 367.686431 48.802176 
L 368.466714 48.575414 
L 369.95347 48.772213 
L 370.554499 48.754494 
L 371.387504 49.029368 
L 372.884805 49.391795 
L 377.028742 49.661918 
L 377.619227 49.657658 
L 377.977736 49.705672 
L 380.508384 50.25199 
L 381.720987 50.337312 
L 385.190085 50.954561 
L 386.02309 50.886599 
L 386.645208 50.833273 
L 387.963254 50.605925 
L 388.469384 50.447281 
L 388.87007 50.426426 
L 390.746968 50.759099 
L 391.137109 50.765864 
L 392.191546 50.687445 
L 394.39532 50.558463 
L 394.933083 50.510148 
L 395.639555 50.777472 
L 396.630726 50.985407 
L 397.326655 50.978107 
L 397.727341 51.043155 
L 399.161375 50.918652 
L 401.692024 51.233275 
L 402.809727 51.175536 
L 404.043418 51.241131 
L 404.760435 51.295869 
L 405.393098 51.277799 
L 406.02576 51.062849 
L 406.732233 50.952467 
L 407.501972 50.845109 
L 407.828847 50.852464 
L 408.218989 50.82411 
L 409.347236 50.536446 
L 410.53875 50.234707 
L 411.308489 50.26872 
L 413.290831 50.449371 
L 414.524522 50.880696 
L 415.22045 50.991795 
L 417.297691 51.316354 
L 418.246685 51.183355 
L 419.543642 51.253641 
L 420.218482 51.480938 
L 420.91441 51.59798 
L 422.833486 51.642104 
L 424.668206 51.871647 
L 425.416856 51.761237 
L 425.828087 51.69598 
L 428.010771 51.572764 
L 428.44309 51.540205 
L 431.163538 51.857217 
L 432.038721 52.045666 
L 432.724105 52.105613 
L 433.46221 52.053812 
L 433.89453 52.018882 
L 435.961226 51.819655 
L 437.005119 51.722681 
L 438.112278 51.926068 
L 439.198348 52.246778 
L 440.284418 52.434317 
L 441.001435 52.392992 
L 441.908251 52.533608 
L 443.753516 52.572268 
L 445.640958 52.405579 
L 447.275335 52.320893 
L 448.255962 52.305094 
L 448.846446 52.412015 
L 449.647818 52.491274 
L 452.410443 52.570588 
L 453.264537 52.478896 
L 455.3945 52.225781 
L 456.259138 52.286509 
L 460.1711 52.010981 
L 461.183359 52.059531 
L 461.900376 51.933702 
L 462.786103 51.838779 
L 465.727983 52.135017 
L 466.824597 51.898101 
L 467.372904 51.81472 
L 469.19708 51.943279 
L 471.696096 51.878333 
L 472.476379 51.841362 
L 475.871667 51.874517 
L 477.274068 51.650952 
L 478.592114 51.423818 
L 479.636007 51.426245 
L 480.17377 51.314479 
L 480.595544 51.270503 
L 481.713248 51.415082 
L 484.697304 51.203328 
L 485.319422 51.150927 
L 486.827267 50.972128 
L 488.314023 51.008365 
L 491.825298 51.190708 
L 492.658304 51.185497 
L 495.30494 50.527448 
L 496.222301 50.341915 
L 497.044761 50.131437 
L 497.593069 50.178979 
L 498.32063 50.264796 
L 500.070996 49.952237 
L 503.392472 49.646932 
L 504.193844 49.47143 
L 505.353725 49.482549 
L 505.986387 49.467898 
L 508.822823 49.533955 
L 509.961615 49.809427 
L 510.330668 49.817963 
L 511.279661 49.766652 
L 512.144299 49.843398 
L 513.926298 50.025126 
L 515.855918 50.112742 
L 517.247774 50.350271 
L 517.764448 50.310371 
L 518.165135 50.296918 
L 518.702897 50.343168 
L 519.430459 50.479108 
L 521.212457 50.826872 
L 522.846835 50.797076 
L 524.902987 50.977934 
L 525.85198 51.069032 
L 527.20166 51.27911 
L 529.025836 51.444422 
L 529.985373 51.450601 
L 532.516022 51.473439 
L 533.770802 51.639877 
L 535.616067 51.831555 
L 536.554516 51.967525 
L 543.271279 52.20641 
L 543.830131 52.216875 
L 545.34852 52.218896 
L 546.550579 52.345149 
L 547.098886 52.234956 
L 548.469654 52.056825 
L 549.777156 51.800645 
L 550.947581 51.563815 
L 551.991473 51.440333 
L 552.782301 51.326231 
L 555.924523 51.103689 
L 556.894605 51.224168 
L 557.548356 51.086027 
L 558.181019 51.006477 
L 558.992935 50.947772 
L 560.131727 50.917747 
L 560.796022 50.932161 
L 563.316127 51.471702 
L 564.465463 51.483257 
L 565.372279 51.433543 
L 567.1121 51.841698 
L 567.850206 51.825639 
L 568.261436 51.807642 
L 570.180512 51.695971 
L 571.825433 51.782486 
L 573.090758 51.860351 
L 576.496589 52.178675 
L 577.772458 52.307417 
L 578.858528 52.252248 
L 579.512279 52.239478 
L 582.274904 52.55104 
L 584.193979 52.532103 
L 584.84773 52.509728 
L 585.986522 52.480387 
L 587.262391 52.523476 
L 588.70697 52.540255 
L 590.510057 52.7347 
L 592.945806 52.806828 
L 594.010788 52.785865 
L 594.801616 52.861702 
L 597.933293 53.175723 
L 603.690519 53.261169 
L 604.882033 53.065717 
L 605.52524 52.964226 
L 607.486493 52.898619 
L 609.057604 52.866765 
L 610.839602 52.532572 
L 610.839602 52.532572 
" clip-path="url(#pd0b8f2e343)" style="fill: none; stroke: #1f2937; stroke-linecap: square"/>
   </g>
   <g id="line2d_26">
    <path d="M 57.27125 52.532572 
L 637.2 52.532572 
" clip-path="url(#pd0b8f2e343)" style="fill: none; stroke-dasharray: 2.96,1.28; stroke-dashoffset: 0; stroke: #888888; stroke-width: 0.8"/>
   </g>
   <g id="patch_3">
    <path d="M 57.27125 282.04 
L 57.27125 26.88 
" style="fill: none; stroke: #000000; stroke-width: 0.8; stroke-linejoin: miter; stroke-linecap: square"/>
   </g>
   <g id="patch_4">
    <path d="M 637.2 282.04 
L 637.2 26.88 
" style="fill: none; stroke: #000000; stroke-width: 0.8; stroke-linejoin: miter; stroke-linecap: square"/>
   </g>
   <g id="patch_5">
    <path d="M 57.27125 282.04 
L 637.2 282.04 
" style="fill: none; stroke: #000000; stroke-width: 0.8; stroke-linejoin: miter; stroke-linecap: square"/>
   </g>
   <g id="patch_6">
    <path d="M 57.27125 26.88 
L 637.2 26.88 
" style="fill: none; stroke: #000000; stroke-width: 0.8; stroke-linejoin: miter; stroke-linecap: square"/>
   </g>
   <g id="text_15">
    <!-- Running mean — population_mad  (100k ReCom samples, seed 42) -->
    <g transform="translate(144.50875 20.88) scale(0.12 -0.12)">
     <defs>
      <path id="DejaVuSans-2014" d="M 313 1978 
L 6088 1978 
L 6088 1528 
L 313 1528 
L 313 1978 
z
" transform="scale(0.015625)"/>
      <path id="DejaVuSans-28" d="M 1984 4856 
Q 1566 4138 1362 3434 
Q 1159 2731 1159 2009 
Q 1159 1288 1364 580 
Q 1569 -128 1984 -844 
L 1484 -844 
Q 1016 -109 783 600 
Q 550 1309 550 2009 
Q 550 2706 781 3412 
Q 1013 4119 1484 4856 
L 1984 4856 
z
" transform="scale(0.015625)"/>
      <path id="DejaVuSans-6b" d="M 581 4863 
L 1159 4863 
L 1159 1991 
L 2875 3500 
L 3609 3500 
L 1753 1863 
L 3688 0 
L 2938 0 
L 1159 1709 
L 1159 0 
L 581 0 
L 581 4863 
z
" transform="scale(0.015625)"/>
      <path id="DejaVuSans-43" d="M 4122 4306 
L 4122 3641 
Q 3803 3938 3442 4084 
Q 3081 4231 2675 4231 
Q 1875 4231 1450 3742 
Q 1025 3253 1025 2328 
Q 1025 1406 1450 917 
Q 1875 428 2675 428 
Q 3081 428 3442 575 
Q 3803 722 4122 1019 
L 4122 359 
Q 3791 134 3420 21 
Q 3050 -91 2638 -91 
Q 1578 -91 968 557 
Q 359 1206 359 2328 
Q 359 3453 968 4101 
Q 1578 4750 2638 4750 
Q 3056 4750 3426 4639 
Q 3797 4528 4122 4306 
z
" transform="scale(0.015625)"/>
      <path id="DejaVuSans-73" d="M 2834 3397 
L 2834 2853 
Q 2591 2978 2328 3040 
Q 2066 3103 1784 3103 
Q 1356 3103 1142 2972 
Q 928 2841 928 2578 
Q 928 2378 1081 2264 
Q 1234 2150 1697 2047 
L 1894 2003 
Q 2506 1872 2764 1633 
Q 3022 1394 3022 966 
Q 3022 478 2636 193 
Q 2250 -91 1575 -91 
Q 1294 -91 989 -36 
Q 684 19 347 128 
L 347 722 
Q 666 556 975 473 
Q 1284 391 1588 391 
Q 1994 391 2212 530 
Q 2431 669 2431 922 
Q 2431 1156 2273 1281 
Q 2116 1406 1581 1522 
L 1381 1569 
Q 847 1681 609 1914 
Q 372 2147 372 2553 
Q 372 3047 722 3315 
Q 1072 3584 1716 3584 
Q 2034 3584 2315 3537 
Q 2597 3491 2834 3397 
z
" transform="scale(0.015625)"/>
      <path id="DejaVuSans-2c" d="M 750 794 
L 1409 794 
L 1409 256 
L 897 -744 
L 494 -744 
L 750 256 
L 750 794 
z
" transform="scale(0.015625)"/>
      <path id="DejaVuSans-29" d="M 513 4856 
L 1013 4856 
Q 1481 4119 1714 3412 
Q 1947 2706 1947 2009 
Q 1947 1309 1714 600 
Q 1481 -109 1013 -844 
L 513 -844 
Q 928 -128 1133 580 
Q 1338 1288 1338 2009 
Q 1338 2731 1133 3434 
Q 928 4138 513 4856 
z
" transform="scale(0.015625)"/>
     </defs>
     <use xlink:href="#DejaVuSans-52"/>
     <use xlink:href="#DejaVuSans-75" transform="translate(64.982422 0)"/>
     <use xlink:href="#DejaVuSans-6e" transform="translate(128.361328 0)"/>
     <use xlink:href="#DejaVuSans-6e" transform="translate(191.740234 0)"/>
     <use xlink:href="#DejaVuSans-69" transform="translate(255.119141 0)"/>
     <use xlink:href="#DejaVuSans-6e" transform="translate(282.902344 0)"/>
     <use xlink:href="#DejaVuSans-67" transform="translate(346.28125 0)"/>
     <use xlink:href="#DejaVuSans-20" transform="translate(409.757812 0)"/>
     <use xlink:href="#DejaVuSans-6d" transform="translate(441.544922 0)"/>
     <use xlink:href="#DejaVuSans-65" transform="translate(538.957031 0)"/>
     <use xlink:href="#DejaVuSans-61" transform="translate(600.480469 0)"/>
     <use xlink:href="#DejaVuSans-6e" transform="translate(661.759766 0)"/>
     <use xlink:href="#DejaVuSans-20" transform="translate(725.138672 0)"/>
     <use xlink:href="#DejaVuSans-2014" transform="translate(756.925781 0)"/>
     <use xlink:href="#DejaVuSans-20" transform="translate(856.925781 0)"/>
     <use xlink:href="#DejaVuSans-70" transform="translate(888.712891 0)"/>
     <use xlink:href="#DejaVuSans-6f" transform="translate(952.189453 0)"/>
     <use xlink:href="#DejaVuSans-70" transform="translate(1013.371094 0)"/>
     <use xlink:href="#DejaVuSans-75" transform="translate(1076.847656 0)"/>
     <use xlink:href="#DejaVuSans-6c" transform="translate(1140.226562 0)"/>
     <use xlink:href="#DejaVuSans-61" transform="translate(1168.009766 0)"/>
     <use xlink:href="#DejaVuSans-74" transform="translate(1229.289062 0)"/>
     <use xlink:href="#DejaVuSans-69" transform="translate(1268.498047 0)"/>
     <use xlink:href="#DejaVuSans-6f" transform="translate(1296.28125 0)"/>
     <use xlink:href="#DejaVuSans-6e" transform="translate(1357.462891 0)"/>
     <use xlink:href="#DejaVuSans-5f" transform="translate(1420.841797 0)"/>
     <use xlink:href="#DejaVuSans-6d" transform="translate(1470.841797 0)"/>
     <use xlink:href="#DejaVuSans-61" transform="translate(1568.253906 0)"/>
     <use xlink:href="#DejaVuSans-64" transform="translate(1629.533203 0)"/>
     <use xlink:href="#DejaVuSans-20" transform="translate(1693.009766 0)"/>
     <use xlink:href="#DejaVuSans-20" transform="translate(1724.796875 0)"/>
     <use xlink:href="#DejaVuSans-28" transform="translate(1756.583984 0)"/>
     <use xlink:href="#DejaVuSans-31" transform="translate(1795.597656 0)"/>
     <use xlink:href="#DejaVuSans-30" transform="translate(1859.220703 0)"/>
     <use xlink:href="#DejaVuSans-30" transform="translate(1922.84375 0)"/>
     <use xlink:href="#DejaVuSans-6b" transform="translate(1986.466797 0)"/>
     <use xlink:href="#DejaVuSans-20" transform="translate(2044.376953 0)"/>
     <use xlink:href="#DejaVuSans-52" transform="translate(2076.164062 0)"/>
     <use xlink:href="#DejaVuSans-65" transform="translate(2141.146484 0)"/>
     <use xlink:href="#DejaVuSans-43" transform="translate(2202.669922 0)"/>
     <use xlink:href="#DejaVuSans-6f" transform="translate(2272.494141 0)"/>
     <use xlink:href="#DejaVuSans-6d" transform="translate(2333.675781 0)"/>
     <use xlink:href="#DejaVuSans-20" transform="translate(2431.087891 0)"/>
     <use xlink:href="#DejaVuSans-73" transform="translate(2462.875 0)"/>
     <use xlink:href="#DejaVuSans-61" transform="translate(2514.974609 0)"/>
     <use xlink:href="#DejaVuSans-6d" transform="translate(2576.253906 0)"/>
     <use xlink:href="#DejaVuSans-70" transform="translate(2673.666016 0)"/>
     <use xlink:href="#DejaVuSans-6c" transform="translate(2737.142578 0)"/>
     <use xlink:href="#DejaVuSans-65" transform="translate(2764.925781 0)"/>
     <use xlink:href="#DejaVuSans-73" transform="translate(2826.449219 0)"/>
     <use xlink:href="#DejaVuSans-2c" transform="translate(2878.548828 0)"/>
     <use xlink:href="#DejaVuSans-20" transform="translate(2910.335938 0)"/>
     <use xlink:href="#DejaVuSans-73" transform="translate(2942.123047 0)"/>
     <use xlink:href="#DejaVuSans-65" transform="translate(2994.222656 0)"/>
     <use xlink:href="#DejaVuSans-65" transform="translate(3055.746094 0)"/>
     <use xlink:href="#DejaVuSans-64" transform="translate(3117.269531 0)"/>
     <use xlink:href="#DejaVuSans-20" transform="translate(3180.746094 0)"/>
     <use xlink:href="#DejaVuSans-34" transform="translate(3212.533203 0)"/>
     <use xlink:href="#DejaVuSans-32" transform="translate(3276.15625 0)"/>
     <use xlink:href="#DejaVuSans-29" transform="translate(3339.779297 0)"/>
    </g>
   </g>
   <g id="legend_1">
    <g id="patch_7">
     <path d="M 479.127656 47.290312 
L 630.9 47.290312 
Q 632.7 47.290312 632.7 45.490312 
L 632.7 33.18 
Q 632.7 31.38 630.9 31.38 
L 479.127656 31.38 
Q 477.327656 31.38 477.327656 33.18 
L 477.327656 45.490312 
Q 477.327656 47.290312 479.127656 47.290312 
z
" style="fill: #ffffff; opacity: 0.8; stroke: #cccccc; stroke-linejoin: miter"/>
    </g>
    <g id="line2d_27">
     <path d="M 480.927656 38.668594 
L 489.927656 38.668594 
L 498.927656 38.668594 
" style="fill: none; stroke-dasharray: 2.96,1.28; stroke-dashoffset: 0; stroke: #888888; stroke-width: 0.8"/>
    </g>
    <g id="text_16">
     <!-- final mean = +3161.65677 -->
     <g transform="translate(506.127656 41.818594) scale(0.09 -0.09)">
      <defs>
       <path id="DejaVuSans-3d" d="M 678 2906 
L 4684 2906 
L 4684 2381 
L 678 2381 
L 678 2906 
z
M 678 1631 
L 4684 1631 
L 4684 1100 
L 678 1100 
L 678 1631 
z
" transform="scale(0.015625)"/>
       <path id="DejaVuSans-2b" d="M 2944 4013 
L 2944 2272 
L 4684 2272 
L 4684 1741 
L 2944 1741 
L 2944 0 
L 2419 0 
L 2419 1741 
L 678 1741 
L 678 2272 
L 2419 2272 
L 2419 4013 
L 2944 4013 
z
" transform="scale(0.015625)"/>
       <path id="DejaVuSans-2e" d="M 684 794 
L 1344 794 
L 1344 0 
L 684 0 
L 684 794 
z
" transform="scale(0.015625)"/>
       <path id="DejaVuSans-37" d="M 525 4666 
L 3525 4666 
L 3525 4397 
L 1831 0 
L 1172 0 
L 2766 4134 
L 525 4134 
L 525 4666 
z
" transform="scale(0.015625)"/>
      </defs>
      <use xlink:href="#DejaVuSans-66"/>
      <use xlink:href="#DejaVuSans-69" transform="translate(35.205078 0)"/>
      <use xlink:href="#DejaVuSans-6e" transform="translate(62.988281 0)"/>
      <use xlink:href="#DejaVuSans-61" transform="translate(126.367188 0)"/>
      <use xlink:href="#DejaVuSans-6c" transform="translate(187.646484 0)"/>
      <use xlink:href="#DejaVuSans-20" transform="translate(215.429688 0)"/>
      <use xlink:href="#DejaVuSans-6d" transform="translate(247.216797 0)"/>
      <use xlink:href="#DejaVuSans-65" transform="translate(344.628906 0)"/>
      <use xlink:href="#DejaVuSans-61" transform="translate(406.152344 0)"/>
      <use xlink:href="#DejaVuSans-6e" transform="translate(467.431641 0)"/>
      <use xlink:href="#DejaVuSans-20" transform="translate(530.810547 0)"/>
      <use xlink:href="#DejaVuSans-3d" transform="translate(562.597656 0)"/>
      <use xlink:href="#DejaVuSans-20" transform="translate(646.386719 0)"/>
      <use xlink:href="#DejaVuSans-2b" transform="translate(678.173828 0)"/>
      <use xlink:href="#DejaVuSans-33" transform="translate(761.962891 0)"/>
      <use xlink:href="#DejaVuSans-31" transform="translate(825.585938 0)"/>
      <use xlink:href="#DejaVuSans-36" transform="translate(889.208984 0)"/>
      <use xlink:href="#DejaVuSans-31" transform="translate(952.832031 0)"/>
      <use xlink:href="#DejaVuSans-2e" transform="translate(1016.455078 0)"/>
      <use xlink:href="#DejaVuSans-36" transform="translate(1048.242188 0)"/>
      <use xlink:href="#DejaVuSans-35" transform="translate(1111.865234 0)"/>
      <use xlink:href="#DejaVuSans-36" transform="translate(1175.488281 0)"/>
      <use xlink:href="#DejaVuSans-37" transform="translate(1239.111328 0)"/>
      <use xlink:href="#DejaVuSans-37" transform="translate(1302.734375 0)"/>
     </g>
    </g>
   </g>
  </g>
 </g>
 <defs>
  <clipPath id="pd0b8f2e343">
   <rect x="57.27125" y="26.88" width="579.92875" height="255.16"/>
  </clipPath>
 </defs>
</svg>
