<?xml version="1.0" encoding="utf-8" standalone="no"?>
<!DOCTYPE svg PUBLIC "-//W3C//DTD SVG 1.1//EN"
  "http://www.w3.org/Graphics/SVG/1.1/DTD/svg11.dtd">
<svg xmlns:xlink="http://www.w3.org/1999/xlink" width="648pt" height="324pt" viewBox="0 0 648 324" xmlns="http://www.w3.org/2000/svg" version="1.1">
 <metadata>
  <rdf:RDF xmlns:dc="http://purl.org/dc/elements/1.1/" xmlns:cc="http://creativecommons.org/ns#" xmlns:rdf="http://www.w3.org/1999/02/22-rdf-syntax-ns#">
   <cc:Work>
    <dc:type rdf:resource="http://purl.org/dc/dcmitype/StillImage"/>
    <dc:date>2026-05-06T21:03:14.897326</dc:date>
    <dc:format>image/svg+xml</dc:format>
    <dc:creator>
     <cc:Agent>
      <dc:title>Matplotlib v3.10.8, https://matplotlib.org/</dc:title>
     </cc:Agent>
    </dc:creator>
   </cc:Work>
  </rdf:RDF>
 </metadata>
 <defs>
  <style type="text/css">*{stroke-linejoin: round; stroke-linecap: butt}</style>
 </defs>
 <g id="figure_1">
  <g id="patch_1">
   <path d="M 0 324 
L 648 324 
L 648 0 
L 0 0 
z
" style="fill: #ffffff"/>
  </g>
  <g id="axes_1">
   <g id="patch_2">
    <path d="M 62.39 282.04 
L 637.2 282.04 
L 637.2 26.88 
L 62.39 26.88 
z
" style="fill: #ffffff"/>
   </g>
   <g id="matplotlib.axis_1">
    <g id="xtick_1">
     <g id="line2d_1">
      <path d="M 88.512502 282.04 
L 88.512502 26.88 
" clip-path="url(#pe98607b275)" style="fill: none; stroke-dasharray: 0.5,0.825; stroke-dashoffset: 0; stroke: #b0b0b0; stroke-opacity: 0.6; stroke-width: 0.5"/>
     </g>
     <g id="line2d_2">
      <defs>
       <path id="m0f0ecea41e" d="M 0 0 
L 0 3.5 
" style="stroke: #000000; stroke-width: 0.8"/>
      </defs>
      <g>
       <use xlink:href="#m0f0ecea41e" x="88.512502" y="282.04" style="stroke: #000000; stroke-width: 0.8"/>
      </g>
     </g>
     <g id="text_1">
      <!-- 0 -->
      <g transform="translate(85.331252 296.638438) scale(0.1 -0.1)">
       <defs>
        <path id="DejaVuSans-30" d="M 2034 4250 
Q 1547 4250 1301 3770 
Q 1056 3291 1056 2328 
Q 1056 1369 1301 889 
Q 1547 409 2034 409 
Q 2525 409 2770 889 
Q 3016 1369 3016 2328 
Q 3016 3291 2770 3770 
Q 2525 4250 2034 4250 
z
M 2034 4750 
Q 2819 4750 3233 4129 
Q 3647 3509 3647 2328 
Q 3647 1150 3233 529 
Q 2819 -91 2034 -91 
Q 1250 -91 836 529 
Q 422 1150 422 2328 
Q 422 3509 836 4129 
Q 1250 4750 2034 4750 
z
" transform="scale(0.015625)"/>
       </defs>
       <use xlink:href="#DejaVuSans-30"/>
      </g>
     </g>
    </g>
    <g id="xtick_2">
     <g id="line2d_3">
      <path d="M 193.024456 282.04 
L 193.024456 26.88 
" clip-path="url(#pe98607b275)" style="fill: none; stroke-dasharray: 0.5,0.825; stroke-dashoffset: 0; stroke: #b0b0b0; stroke-opacity: 0.6; stroke-width: 0.5"/>
     </g>
     <g id="line2d_4">
      <g>
       <use xlink:href="#m0f0ecea41e" x="193.024456" y="282.04" style="stroke: #000000; stroke-width: 0.8"/>
      </g>
     </g>
     <g id="text_2">
      <!-- 20000 -->
      <g transform="translate(177.118206 296.638438) scale(0.1 -0.1)">
       <defs>
        <path id="DejaVuSans-32" d="M 1228 531 
L 3431 531 
L 3431 0 
L 469 0 
L 469 531 
Q 828 903 1448 1529 
Q 2069 2156 2228 2338 
Q 2531 2678 2651 2914 
Q 2772 3150 2772 3378 
Q 2772 3750 2511 3984 
Q 2250 4219 1831 4219 
Q 1534 4219 1204 4116 
Q 875 4013 500 3803 
L 500 4441 
Q 881 4594 1212 4672 
Q 1544 4750 1819 4750 
Q 2544 4750 2975 4387 
Q 3406 4025 3406 3419 
Q 3406 3131 3298 2873 
Q 3191 2616 2906 2266 
Q 2828 2175 2409 1742 
Q 1991 1309 1228 531 
z
" transform="scale(0.015625)"/>
       </defs>
       <use xlink:href="#DejaVuSans-32"/>
       <use xlink:href="#DejaVuSans-30" transform="translate(63.623047 0)"/>
       <use xlink:href="#DejaVuSans-30" transform="translate(127.246094 0)"/>
       <use xlink:href="#DejaVuSans-30" transform="translate(190.869141 0)"/>
       <use xlink:href="#DejaVuSans-30" transform="translate(254.492188 0)"/>
      </g>
     </g>
    </g>
    <g id="xtick_3">
     <g id="line2d_5">
      <path d="M 297.53641 282.04 
L 297.53641 26.88 
" clip-path="url(#pe98607b275)" style="fill: none; stroke-dasharray: 0.5,0.825; stroke-dashoffset: 0; stroke: #b0b0b0; stroke-opacity: 0.6; stroke-width: 0.5"/>
     </g>
     <g id="line2d_6">
      <g>
       <use xlink:href="#m0f0ecea41e" x="297.53641" y="282.04" style="stroke: #000000; stroke-width: 0.8"/>
      </g>
     </g>
     <g id="text_3">
      <!-- 40000 -->
      <g transform="translate(281.63016 296.638438) scale(0.1 -0.1)">
       <defs>
        <path id="DejaVuSans-34" d="M 2419 4116 
L 825 1625 
L 2419 1625 
L 2419 4116 
z
M 2253 4666 
L 3047 4666 
L 3047 1625 
L 3713 1625 
L 3713 1100 
L 3047 1100 
L 3047 0 
L 2419 0 
L 2419 1100 
L 313 1100 
L 313 1709 
L 2253 4666 
z
" transform="scale(0.015625)"/>
       </defs>
       <use xlink:href="#DejaVuSans-34"/>
       <use xlink:href="#DejaVuSans-30" transform="translate(63.623047 0)"/>
       <use xlink:href="#DejaVuSans-30" transform="translate(127.246094 0)"/>
       <use xlink:href="#DejaVuSans-30" transform="translate(190.869141 0)"/>
       <use xlink:href="#DejaVuSans-30" transform="translate(254.492188 0)"/>
      </g>
     </g>
    </g>
    <g id="xtick_4">
     <g id="line2d_7">
      <path d="M 402.048364 282.04 
L 402.048364 26.88 
" clip-path="url(#pe98607b275)" style="fill: none; stroke-dasharray: 0.5,0.825; stroke-dashoffset: 0; stroke: #b0b0b0; stroke-opacity: 0.6; stroke-width: 0.5"/>
     </g>
     <g id="line2d_8">
      <g>
       <use xlink:href="#m0f0ecea41e" x="402.048364" y="282.04" style="stroke: #000000; stroke-width: 0.8"/>
      </g>
     </g>
     <g id="text_4">
      <!-- 60000 -->
      <g transform="translate(386.142114 296.638438) scale(0.1 -0.1)">
       <defs>
        <path id="DejaVuSans-36" d="M 2113 2584 
Q 1688 2584 1439 2293 
Q 1191 2003 1191 1497 
Q 1191 994 1439 701 
Q 1688 409 2113 409 
Q 2538 409 2786 701 
Q 3034 994 3034 1497 
Q 3034 2003 2786 2293 
Q 2538 2584 2113 2584 
z
M 3366 4563 
L 3366 3988 
Q 3128 4100 2886 4159 
Q 2644 4219 2406 4219 
Q 1781 4219 1451 3797 
Q 1122 3375 1075 2522 
Q 1259 2794 1537 2939 
Q 1816 3084 2150 3084 
Q 2853 3084 3261 2657 
Q 3669 2231 3669 1497 
Q 3669 778 3244 343 
Q 2819 -91 2113 -91 
Q 1303 -91 875 529 
Q 447 1150 447 2328 
Q 447 3434 972 4092 
Q 1497 4750 2381 4750 
Q 2619 4750 2861 4703 
Q 3103 4656 3366 4563 
z
" transform="scale(0.015625)"/>
       </defs>
       <use xlink:href="#DejaVuSans-36"/>
       <use xlink:href="#DejaVuSans-30" transform="translate(63.623047 0)"/>
       <use xlink:href="#DejaVuSans-30" transform="translate(127.246094 0)"/>
       <use xlink:href="#DejaVuSans-30" transform="translate(190.869141 0)"/>
       <use xlink:href="#DejaVuSans-30" transform="translate(254.492188 0)"/>
      </g>
     </g>
    </g>
    <g id="xtick_5">
     <g id="line2d_9">
      <path d="M 506.560319 282.04 
L 506.560319 26.88 
" clip-path="url(#pe98607b275)" style="fill: none; stroke-dasharray: 0.5,0.825; stroke-dashoffset: 0; stroke: #b0b0b0; stroke-opacity: 0.6; stroke-width: 0.5"/>
     </g>
     <g id="line2d_10">
      <g>
       <use xlink:href="#m0f0ecea41e" x="506.560319" y="282.04" style="stroke: #000000; stroke-width: 0.8"/>
      </g>
     </g>
     <g id="text_5">
      <!-- 80000 -->
      <g transform="translate(490.654069 296.638438) scale(0.1 -0.1)">
       <defs>
        <path id="DejaVuSans-38" d="M 2034 2216 
Q 1584 2216 1326 1975 
Q 1069 1734 1069 1313 
Q 1069 891 1326 650 
Q 1584 409 2034 409 
Q 2484 409 2743 651 
Q 3003 894 3003 1313 
Q 3003 1734 2745 1975 
Q 2488 2216 2034 2216 
z
M 1403 2484 
Q 997 2584 770 2862 
Q 544 3141 544 3541 
Q 544 4100 942 4425 
Q 1341 4750 2034 4750 
Q 2731 4750 3128 4425 
Q 3525 4100 3525 3541 
Q 3525 3141 3298 2862 
Q 3072 2584 2669 2484 
Q 3125 2378 3379 2068 
Q 3634 1759 3634 1313 
Q 3634 634 3220 271 
Q 2806 -91 2034 -91 
Q 1263 -91 848 271 
Q 434 634 434 1313 
Q 434 1759 690 2068 
Q 947 2378 1403 2484 
z
M 1172 3481 
Q 1172 3119 1398 2916 
Q 1625 2713 2034 2713 
Q 2441 2713 2670 2916 
Q 2900 3119 2900 3481 
Q 2900 3844 2670 4047 
Q 2441 4250 2034 4250 
Q 1625 4250 1398 4047 
Q 1172 3844 1172 3481 
z
" transform="scale(0.015625)"/>
       </defs>
       <use xlink:href="#DejaVuSans-38"/>
       <use xlink:href="#DejaVuSans-30" transform="translate(63.623047 0)"/>
       <use xlink:href="#DejaVuSans-30" transform="translate(127.246094 0)"/>
       <use xlink:href="#DejaVuSans-30" transform="translate(190.869141 0)"/>
       <use xlink:href="#DejaVuSans-30" transform="translate(254.492188 0)"/>
      </g>
     </g>
    </g>
    <g id="xtick_6">
     <g id="line2d_11">
      <path d="M 611.072273 282.04 
L 611.072273 26.88 
" clip-path="url(#pe98607b275)" style="fill: none; stroke-dasharray: 0.5,0.825; stroke-dashoffset: 0; stroke: #b0b0b0; stroke-opacity: 0.6; stroke-width: 0.5"/>
     </g>
     <g id="line2d_12">
      <g>
       <use xlink:href="#m0f0ecea41e" x="611.072273" y="282.04" style="stroke: #000000; stroke-width: 0.8"/>
      </g>
     </g>
     <g id="text_6">
      <!-- 100000 -->
      <g transform="translate(591.984773 296.638438) scale(0.1 -0.1)">
       <defs>
        <path id="DejaVuSans-31" d="M 794 531 
L 1825 531 
L 1825 4091 
L 703 3866 
L 703 4441 
L 1819 4666 
L 2450 4666 
L 2450 531 
L 3481 531 
L 3481 0 
L 794 0 
L 794 531 
z
" transform="scale(0.015625)"/>
       </defs>
       <use xlink:href="#DejaVuSans-31"/>
       <use xlink:href="#DejaVuSans-30" transform="translate(63.623047 0)"/>
       <use xlink:href="#DejaVuSans-30" transform="translate(127.246094 0)"/>
       <use xlink:href="#DejaVuSans-30" transform="translate(190.869141 0)"/>
       <use xlink:href="#DejaVuSans-30" transform="translate(254.492188 0)"/>
       <use xlink:href="#DejaVuSans-30" transform="translate(318.115234 0)"/>
      </g>
     </g>
    </g>
    <g id="text_7">
     <!-- Sample index -->
     <g transform="translate(315.777031 310.316563) scale(0.1 -0.1)">
      <defs>
       <path id="DejaVuSans-53" d="M 3425 4513 
L 3425 3897 
Q 3066 4069 2747 4153 
Q 2428 4238 2131 4238 
Q 1616 4238 1336 4038 
Q 1056 3838 1056 3469 
Q 1056 3159 1242 3001 
Q 1428 2844 1947 2747 
L 2328 2669 
Q 3034 2534 3370 2195 
Q 3706 1856 3706 1288 
Q 3706 609 3251 259 
Q 2797 -91 1919 -91 
Q 1588 -91 1214 -16 
Q 841 59 441 206 
L 441 856 
Q 825 641 1194 531 
Q 1563 422 1919 422 
Q 2459 422 2753 634 
Q 3047 847 3047 1241 
Q 3047 1584 2836 1778 
Q 2625 1972 2144 2069 
L 1759 2144 
Q 1053 2284 737 2584 
Q 422 2884 422 3419 
Q 422 4038 858 4394 
Q 1294 4750 2059 4750 
Q 2388 4750 2728 4690 
Q 3069 4631 3425 4513 
z
" transform="scale(0.015625)"/>
       <path id="DejaVuSans-61" d="M 2194 1759 
Q 1497 1759 1228 1600 
Q 959 1441 959 1056 
Q 959 750 1161 570 
Q 1363 391 1709 391 
Q 2188 391 2477 730 
Q 2766 1069 2766 1631 
L 2766 1759 
L 2194 1759 
z
M 3341 1997 
L 3341 0 
L 2766 0 
L 2766 531 
Q 2569 213 2275 61 
Q 1981 -91 1556 -91 
Q 1019 -91 701 211 
Q 384 513 384 1019 
Q 384 1609 779 1909 
Q 1175 2209 1959 2209 
L 2766 2209 
L 2766 2266 
Q 2766 2663 2505 2880 
Q 2244 3097 1772 3097 
Q 1472 3097 1187 3025 
Q 903 2953 641 2809 
L 641 3341 
Q 956 3463 1253 3523 
Q 1550 3584 1831 3584 
Q 2591 3584 2966 3190 
Q 3341 2797 3341 1997 
z
" transform="scale(0.015625)"/>
       <path id="DejaVuSans-6d" d="M 3328 2828 
Q 3544 3216 3844 3400 
Q 4144 3584 4550 3584 
Q 5097 3584 5394 3201 
Q 5691 2819 5691 2113 
L 5691 0 
L 5113 0 
L 5113 2094 
Q 5113 2597 4934 2840 
Q 4756 3084 4391 3084 
Q 3944 3084 3684 2787 
Q 3425 2491 3425 1978 
L 3425 0 
L 2847 0 
L 2847 2094 
Q 2847 2600 2669 2842 
Q 2491 3084 2119 3084 
Q 1678 3084 1418 2786 
Q 1159 2488 1159 1978 
L 1159 0 
L 581 0 
L 581 3500 
L 1159 3500 
L 1159 2956 
Q 1356 3278 1631 3431 
Q 1906 3584 2284 3584 
Q 2666 3584 2933 3390 
Q 3200 3197 3328 2828 
z
" transform="scale(0.015625)"/>
       <path id="DejaVuSans-70" d="M 1159 525 
L 1159 -1331 
L 581 -1331 
L 581 3500 
L 1159 3500 
L 1159 2969 
Q 1341 3281 1617 3432 
Q 1894 3584 2278 3584 
Q 2916 3584 3314 3078 
Q 3713 2572 3713 1747 
Q 3713 922 3314 415 
Q 2916 -91 2278 -91 
Q 1894 -91 1617 61 
Q 1341 213 1159 525 
z
M 3116 1747 
Q 3116 2381 2855 2742 
Q 2594 3103 2138 3103 
Q 1681 3103 1420 2742 
Q 1159 2381 1159 1747 
Q 1159 1113 1420 752 
Q 1681 391 2138 391 
Q 2594 391 2855 752 
Q 3116 1113 3116 1747 
z
" transform="scale(0.015625)"/>
       <path id="DejaVuSans-6c" d="M 603 4863 
L 1178 4863 
L 1178 0 
L 603 0 
L 603 4863 
z
" transform="scale(0.015625)"/>
       <path id="DejaVuSans-65" d="M 3597 1894 
L 3597 1613 
L 953 1613 
Q 991 1019 1311 708 
Q 1631 397 2203 397 
Q 2534 397 2845 478 
Q 3156 559 3463 722 
L 3463 178 
Q 3153 47 2828 -22 
Q 2503 -91 2169 -91 
Q 1331 -91 842 396 
Q 353 884 353 1716 
Q 353 2575 817 3079 
Q 1281 3584 2069 3584 
Q 2775 3584 3186 3129 
Q 3597 2675 3597 1894 
z
M 3022 2063 
Q 3016 2534 2758 2815 
Q 2500 3097 2075 3097 
Q 1594 3097 1305 2825 
Q 1016 2553 972 2059 
L 3022 2063 
z
" transform="scale(0.015625)"/>
       <path id="DejaVuSans-20" transform="scale(0.015625)"/>
       <path id="DejaVuSans-69" d="M 603 3500 
L 1178 3500 
L 1178 0 
L 603 0 
L 603 3500 
z
M 603 4863 
L 1178 4863 
L 1178 4134 
L 603 4134 
L 603 4863 
z
" transform="scale(0.015625)"/>
       <path id="DejaVuSans-6e" d="M 3513 2113 
L 3513 0 
L 2938 0 
L 2938 2094 
Q 2938 2591 2744 2837 
Q 2550 3084 2163 3084 
Q 1697 3084 1428 2787 
Q 1159 2491 1159 1978 
L 1159 0 
L 581 0 
L 581 3500 
L 1159 3500 
L 1159 2956 
Q 1366 3272 1645 3428 
Q 1925 3584 2291 3584 
Q 2894 3584 3203 3211 
Q 3513 2838 3513 2113 
z
" transform="scale(0.015625)"/>
       <path id="DejaVuSans-64" d="M 2906 2969 
L 2906 4863 
L 3481 4863 
L 3481 0 
L 2906 0 
L 2906 525 
Q 2725 213 2448 61 
Q 2172 -91 1784 -91 
Q 1150 -91 751 415 
Q 353 922 353 1747 
Q 353 2572 751 3078 
Q 1150 3584 1784 3584 
Q 2172 3584 2448 3432 
Q 2725 3281 2906 2969 
z
M 947 1747 
Q 947 1113 1208 752 
Q 1469 391 1925 391 
Q 2381 391 2643 752 
Q 2906 1113 2906 1747 
Q 2906 2381 2643 2742 
Q 2381 3103 1925 3103 
Q 1469 3103 1208 2742 
Q 947 2381 947 1747 
z
" transform="scale(0.015625)"/>
       <path id="DejaVuSans-78" d="M 3513 3500 
L 2247 1797 
L 3578 0 
L 2900 0 
L 1881 1375 
L 863 0 
L 184 0 
L 1544 1831 
L 300 3500 
L 978 3500 
L 1906 2253 
L 2834 3500 
L 3513 3500 
z
" transform="scale(0.015625)"/>
      </defs>
      <use xlink:href="#DejaVuSans-53"/>
      <use xlink:href="#DejaVuSans-61" transform="translate(63.476562 0)"/>
      <use xlink:href="#DejaVuSans-6d" transform="translate(124.755859 0)"/>
      <use xlink:href="#DejaVuSans-70" transform="translate(222.167969 0)"/>
      <use xlink:href="#DejaVuSans-6c" transform="translate(285.644531 0)"/>
      <use xlink:href="#DejaVuSans-65" transform="translate(313.427734 0)"/>
      <use xlink:href="#DejaVuSans-20" transform="translate(374.951172 0)"/>
      <use xlink:href="#DejaVuSans-69" transform="translate(406.738281 0)"/>
      <use xlink:href="#DejaVuSans-6e" transform="translate(434.521484 0)"/>
      <use xlink:href="#DejaVuSans-64" transform="translate(497.900391 0)"/>
      <use xlink:href="#DejaVuSans-65" transform="translate(561.376953 0)"/>
      <use xlink:href="#DejaVuSans-78" transform="translate(621.150391 0)"/>
     </g>
    </g>
   </g>
   <g id="matplotlib.axis_2">
    <g id="ytick_1">
     <g id="line2d_13">
      <path d="M 62.39 246.662956 
L 637.2 246.662956 
" clip-path="url(#pe98607b275)" style="fill: none; stroke-dasharray: 0.5,0.825; stroke-dashoffset: 0; stroke: #b0b0b0; stroke-opacity: 0.6; stroke-width: 0.5"/>
     </g>
     <g id="line2d_14">
      <defs>
       <path id="mb2bd3a7aef" d="M 0 0 
L -3.5 0 
" style="stroke: #000000; stroke-width: 0.8"/>
      </defs>
      <g>
       <use xlink:href="#mb2bd3a7aef" x="62.39" y="246.662956" style="stroke: #000000; stroke-width: 0.8"/>
      </g>
     </g>
     <g id="text_8">
      <!-- −0.02 -->
      <g transform="translate(24.744688 250.462175) scale(0.1 -0.1)">
       <defs>
        <path id="DejaVuSans-2212" d="M 678 2272 
L 4684 2272 
L 4684 1741 
L 678 1741 
L 678 2272 
z
" transform="scale(0.015625)"/>
        <path id="DejaVuSans-2e" d="M 684 794 
L 1344 794 
L 1344 0 
L 684 0 
L 684 794 
z
" transform="scale(0.015625)"/>
       </defs>
       <use xlink:href="#DejaVuSans-2212"/>
       <use xlink:href="#DejaVuSans-30" transform="translate(83.789062 0)"/>
       <use xlink:href="#DejaVuSans-2e" transform="translate(147.412109 0)"/>
       <use xlink:href="#DejaVuSans-30" transform="translate(179.199219 0)"/>
       <use xlink:href="#DejaVuSans-32" transform="translate(242.822266 0)"/>
      </g>
     </g>
    </g>
    <g id="ytick_2">
     <g id="line2d_15">
      <path d="M 62.39 197.359854 
L 637.2 197.359854 
" clip-path="url(#pe98607b275)" style="fill: none; stroke-dasharray: 0.5,0.825; stroke-dashoffset: 0; stroke: #b0b0b0; stroke-opacity: 0.6; stroke-width: 0.5"/>
     </g>
     <g id="line2d_16">
      <g>
       <use xlink:href="#mb2bd3a7aef" x="62.39" y="197.359854" style="stroke: #000000; stroke-width: 0.8"/>
      </g>
     </g>
     <g id="text_9">
      <!-- −0.01 -->
      <g transform="translate(24.744688 201.159072) scale(0.1 -0.1)">
       <use xlink:href="#DejaVuSans-2212"/>
       <use xlink:href="#DejaVuSans-30" transform="translate(83.789062 0)"/>
       <use xlink:href="#DejaVuSans-2e" transform="translate(147.412109 0)"/>
       <use xlink:href="#DejaVuSans-30" transform="translate(179.199219 0)"/>
       <use xlink:href="#DejaVuSans-31" transform="translate(242.822266 0)"/>
      </g>
     </g>
    </g>
    <g id="ytick_3">
     <g id="line2d_17">
      <path d="M 62.39 148.056751 
L 637.2 148.056751 
" clip-path="url(#pe98607b275)" style="fill: none; stroke-dasharray: 0.5,0.825; stroke-dashoffset: 0; stroke: #b0b0b0; stroke-opacity: 0.6; stroke-width: 0.5"/>
     </g>
     <g id="line2d_18">
      <g>
       <use xlink:href="#mb2bd3a7aef" x="62.39" y="148.056751" style="stroke: #000000; stroke-width: 0.8"/>
      </g>
     </g>
     <g id="text_10">
      <!-- 0.00 -->
      <g transform="translate(33.124375 151.85597) scale(0.1 -0.1)">
       <use xlink:href="#DejaVuSans-30"/>
       <use xlink:href="#DejaVuSans-2e" transform="translate(63.623047 0)"/>
       <use xlink:href="#DejaVuSans-30" transform="translate(95.410156 0)"/>
       <use xlink:href="#DejaVuSans-30" transform="translate(159.033203 0)"/>
      </g>
     </g>
    </g>
    <g id="ytick_4">
     <g id="line2d_19">
      <path d="M 62.39 98.753649 
L 637.2 98.753649 
" clip-path="url(#pe98607b275)" style="fill: none; stroke-dasharray: 0.5,0.825; stroke-dashoffset: 0; stroke: #b0b0b0; stroke-opacity: 0.6; stroke-width: 0.5"/>
     </g>
     <g id="line2d_20">
      <g>
       <use xlink:href="#mb2bd3a7aef" x="62.39" y="98.753649" style="stroke: #000000; stroke-width: 0.8"/>
      </g>
     </g>
     <g id="text_11">
      <!-- 0.01 -->
      <g transform="translate(33.124375 102.552867) scale(0.1 -0.1)">
       <use xlink:href="#DejaVuSans-30"/>
       <use xlink:href="#DejaVuSans-2e" transform="translate(63.623047 0)"/>
       <use xlink:href="#DejaVuSans-30" transform="translate(95.410156 0)"/>
       <use xlink:href="#DejaVuSans-31" transform="translate(159.033203 0)"/>
      </g>
     </g>
    </g>
    <g id="ytick_5">
     <g id="line2d_21">
      <path d="M 62.39 49.450546 
L 637.2 49.450546 
" clip-path="url(#pe98607b275)" style="fill: none; stroke-dasharray: 0.5,0.825; stroke-dashoffset: 0; stroke: #b0b0b0; stroke-opacity: 0.6; stroke-width: 0.5"/>
     </g>
     <g id="line2d_22">
      <g>
       <use xlink:href="#mb2bd3a7aef" x="62.39" y="49.450546" style="stroke: #000000; stroke-width: 0.8"/>
      </g>
     </g>
     <g id="text_12">
      <!-- 0.02 -->
      <g transform="translate(33.124375 53.249765) scale(0.1 -0.1)">
       <use xlink:href="#DejaVuSans-30"/>
       <use xlink:href="#DejaVuSans-2e" transform="translate(63.623047 0)"/>
       <use xlink:href="#DejaVuSans-30" transform="translate(95.410156 0)"/>
       <use xlink:href="#DejaVuSans-32" transform="translate(159.033203 0)"/>
      </g>
     </g>
    </g>
    <g id="text_13">
     <!-- Running mean of declination -->
     <g transform="translate(18.665 226.302188) rotate(-90) scale(0.1 -0.1)">
      <defs>
       <path id="DejaVuSans-52" d="M 2841 2188 
Q 3044 2119 3236 1894 
Q 3428 1669 3622 1275 
L 4263 0 
L 3584 0 
L 2988 1197 
Q 2756 1666 2539 1819 
Q 2322 1972 1947 1972 
L 1259 1972 
L 1259 0 
L 628 0 
L 628 4666 
L 2053 4666 
Q 2853 4666 3247 4331 
Q 3641 3997 3641 3322 
Q 3641 2881 3436 2590 
Q 3231 2300 2841 2188 
z
M 1259 4147 
L 1259 2491 
L 2053 2491 
Q 2509 2491 2742 2702 
Q 2975 2913 2975 3322 
Q 2975 3731 2742 3939 
Q 2509 4147 2053 4147 
L 1259 4147 
z
" transform="scale(0.015625)"/>
       <path id="DejaVuSans-75" d="M 544 1381 
L 544 3500 
L 1119 3500 
L 1119 1403 
Q 1119 906 1312 657 
Q 1506 409 1894 409 
Q 2359 409 2629 706 
Q 2900 1003 2900 1516 
L 2900 3500 
L 3475 3500 
L 3475 0 
L 2900 0 
L 2900 538 
Q 2691 219 2414 64 
Q 2138 -91 1772 -91 
Q 1169 -91 856 284 
Q 544 659 544 1381 
z
M 1991 3584 
L 1991 3584 
z
" transform="scale(0.015625)"/>
       <path id="DejaVuSans-67" d="M 2906 1791 
Q 2906 2416 2648 2759 
Q 2391 3103 1925 3103 
Q 1463 3103 1205 2759 
Q 947 2416 947 1791 
Q 947 1169 1205 825 
Q 1463 481 1925 481 
Q 2391 481 2648 825 
Q 2906 1169 2906 1791 
z
M 3481 434 
Q 3481 -459 3084 -895 
Q 2688 -1331 1869 -1331 
Q 1566 -1331 1297 -1286 
Q 1028 -1241 775 -1147 
L 775 -588 
Q 1028 -725 1275 -790 
Q 1522 -856 1778 -856 
Q 2344 -856 2625 -561 
Q 2906 -266 2906 331 
L 2906 616 
Q 2728 306 2450 153 
Q 2172 0 1784 0 
Q 1141 0 747 490 
Q 353 981 353 1791 
Q 353 2603 747 3093 
Q 1141 3584 1784 3584 
Q 2172 3584 2450 3431 
Q 2728 3278 2906 2969 
L 2906 3500 
L 3481 3500 
L 3481 434 
z
" transform="scale(0.015625)"/>
       <path id="DejaVuSans-6f" d="M 1959 3097 
Q 1497 3097 1228 2736 
Q 959 2375 959 1747 
Q 959 1119 1226 758 
Q 1494 397 1959 397 
Q 2419 397 2687 759 
Q 2956 1122 2956 1747 
Q 2956 2369 2687 2733 
Q 2419 3097 1959 3097 
z
M 1959 3584 
Q 2709 3584 3137 3096 
Q 3566 2609 3566 1747 
Q 3566 888 3137 398 
Q 2709 -91 1959 -91 
Q 1206 -91 779 398 
Q 353 888 353 1747 
Q 353 2609 779 3096 
Q 1206 3584 1959 3584 
z
" transform="scale(0.015625)"/>
       <path id="DejaVuSans-66" d="M 2375 4863 
L 2375 4384 
L 1825 4384 
Q 1516 4384 1395 4259 
Q 1275 4134 1275 3809 
L 1275 3500 
L 2222 3500 
L 2222 3053 
L 1275 3053 
L 1275 0 
L 697 0 
L 697 3053 
L 147 3053 
L 147 3500 
L 697 3500 
L 697 3744 
Q 697 4328 969 4595 
Q 1241 4863 1831 4863 
L 2375 4863 
z
" transform="scale(0.015625)"/>
       <path id="DejaVuSans-63" d="M 3122 3366 
L 3122 2828 
Q 2878 2963 2633 3030 
Q 2388 3097 2138 3097 
Q 1578 3097 1268 2742 
Q 959 2388 959 1747 
Q 959 1106 1268 751 
Q 1578 397 2138 397 
Q 2388 397 2633 464 
Q 2878 531 3122 666 
L 3122 134 
Q 2881 22 2623 -34 
Q 2366 -91 2075 -91 
Q 1284 -91 818 406 
Q 353 903 353 1747 
Q 353 2603 823 3093 
Q 1294 3584 2113 3584 
Q 2378 3584 2631 3529 
Q 2884 3475 3122 3366 
z
" transform="scale(0.015625)"/>
       <path id="DejaVuSans-74" d="M 1172 4494 
L 1172 3500 
L 2356 3500 
L 2356 3053 
L 1172 3053 
L 1172 1153 
Q 1172 725 1289 603 
Q 1406 481 1766 481 
L 2356 481 
L 2356 0 
L 1766 0 
Q 1100 0 847 248 
Q 594 497 594 1153 
L 594 3053 
L 172 3053 
L 172 3500 
L 594 3500 
L 594 4494 
L 1172 4494 
z
" transform="scale(0.015625)"/>
      </defs>
      <use xlink:href="#DejaVuSans-52"/>
      <use xlink:href="#DejaVuSans-75" transform="translate(64.982422 0)"/>
      <use xlink:href="#DejaVuSans-6e" transform="translate(128.361328 0)"/>
      <use xlink:href="#DejaVuSans-6e" transform="translate(191.740234 0)"/>
      <use xlink:href="#DejaVuSans-69" transform="translate(255.119141 0)"/>
      <use xlink:href="#DejaVuSans-6e" transform="translate(282.902344 0)"/>
      <use xlink:href="#DejaVuSans-67" transform="translate(346.28125 0)"/>
      <use xlink:href="#DejaVuSans-20" transform="translate(409.757812 0)"/>
      <use xlink:href="#DejaVuSans-6d" transform="translate(441.544922 0)"/>
      <use xlink:href="#DejaVuSans-65" transform="translate(538.957031 0)"/>
      <use xlink:href="#DejaVuSans-61" transform="translate(600.480469 0)"/>
      <use xlink:href="#DejaVuSans-6e" transform="translate(661.759766 0)"/>
      <use xlink:href="#DejaVuSans-20" transform="translate(725.138672 0)"/>
      <use xlink:href="#DejaVuSans-6f" transform="translate(756.925781 0)"/>
      <use xlink:href="#DejaVuSans-66" transform="translate(818.107422 0)"/>
      <use xlink:href="#DejaVuSans-20" transform="translate(853.3125 0)"/>
      <use xlink:href="#DejaVuSans-64" transform="translate(885.099609 0)"/>
      <use xlink:href="#DejaVuSans-65" transform="translate(948.576172 0)"/>
      <use xlink:href="#DejaVuSans-63" transform="translate(1010.099609 0)"/>
      <use xlink:href="#DejaVuSans-6c" transform="translate(1065.080078 0)"/>
      <use xlink:href="#DejaVuSans-69" transform="translate(1092.863281 0)"/>
      <use xlink:href="#DejaVuSans-6e" transform="translate(1120.646484 0)"/>
      <use xlink:href="#DejaVuSans-61" transform="translate(1184.025391 0)"/>
      <use xlink:href="#DejaVuSans-74" transform="translate(1245.304688 0)"/>
      <use xlink:href="#DejaVuSans-69" transform="translate(1284.513672 0)"/>
      <use xlink:href="#DejaVuSans-6f" transform="translate(1312.296875 0)"/>
      <use xlink:href="#DejaVuSans-6e" transform="translate(1373.478516 0)"/>
     </g>
    </g>
   </g>
   <g id="line2d_23">
    <path d="M 88.517727 269.294064 
L 88.522953 269.252049 
L 88.533404 269.885143 
L 88.543855 270.441818 
L 88.601337 267.231834 
L 88.810361 258.758091 
L 88.89397 259.69809 
L 88.998482 260.994877 
L 89.035061 260.268879 
L 89.186604 258.384239 
L 89.207506 258.582216 
L 89.322469 259.725959 
L 89.3695 259.613862 
L 89.437432 259.461062 
L 89.458335 259.664691 
L 89.46356 259.723032 
L 89.468786 259.10326 
L 90.493003 151.8882 
L 90.72293 143.935789 
L 90.848344 143.303129 
L 91.099173 141.180608 
L 91.135752 139.916303 
L 91.501544 123.372506 
L 91.532897 124.581163 
L 91.715793 131.245926 
L 91.768049 129.454328 
L 92.118164 118.911755 
L 92.154743 118.439455 
L 92.416023 108.476554 
L 92.489182 109.90707 
L 92.672077 112.299106 
L 92.755687 113.169088 
L 93.006516 117.84089 
L 93.037869 117.942615 
L 93.04832 117.700801 
L 93.414112 109.873528 
L 93.487271 110.229422 
L 93.534301 110.505999 
L 93.555203 110.142856 
L 93.926221 99.727439 
L 93.947123 99.534601 
L 93.994154 100.080992 
L 94.380848 105.90891 
L 94.668256 111.353423 
L 94.966115 112.629407 
L 95.18559 114.242234 
L 95.540931 120.016517 
L 95.629766 120.270507 
L 95.650668 120.012473 
L 95.953753 115.069718 
L 96.157551 106.507401 
L 96.371801 102.008793 
L 96.732367 96.857043 
L 97.066805 84.633221 
L 97.432597 72.1334 
L 97.463951 71.901142 
L 97.521432 72.283779 
L 97.568463 72.855781 
L 97.625944 72.173141 
L 98.012638 61.481788 
L 98.138053 63.039651 
L 98.185083 63.288139 
L 98.232113 62.982484 
L 98.582228 60.906369 
L 98.634484 61.158728 
L 98.780801 61.764662 
L 98.822606 61.510532 
L 99.03163 59.662051 
L 99.245879 56.116166 
L 99.329489 56.501483 
L 99.386971 56.799852 
L 99.444452 56.521444 
L 99.695281 54.837392 
L 100.405962 46.000877 
L 100.672468 44.003307 
L 101.080064 39.705642 
L 101.236832 38.478182 
L 101.283862 38.646356 
L 101.461533 39.239627 
L 101.498112 39.016644 
L 101.539917 38.760065 
L 101.60785 39.032222 
L 101.670557 39.807708 
L 101.884806 41.177946 
L 102.146086 42.430623 
L 103.849631 62.270718 
L 103.854857 62.255826 
L 103.907113 61.789672 
L 104.058655 60.411536 
L 104.116136 60.669257 
L 104.372191 62.39802 
L 104.445349 62.633399 
L 104.492379 62.412681 
L 104.523733 62.246457 
L 104.596891 62.461663 
L 104.643922 62.906363 
L 104.826818 65.871239 
L 105.694267 78.864105 
L 106.519911 85.388262 
L 106.608747 85.561762 
L 106.906606 88.339216 
L 107.638189 99.937041 
L 107.951725 103.899348 
L 108.108493 104.645584 
L 108.981168 110.841656 
L 109.268576 111.2953 
L 109.503728 112.720913 
L 109.555984 112.730184 
L 109.57166 112.642848 
L 109.796361 112.035266 
L 109.848617 112.017659 
L 109.86952 112.122598 
L 110.026287 112.896483 
L 110.099446 112.762733 
L 110.339823 111.456947 
L 110.381628 111.654403 
L 111.259529 119.666959 
L 111.656674 119.894717 
L 111.667125 119.853391 
L 112.19491 118.20338 
L 112.257618 118.190819 
L 112.273294 118.273398 
L 112.32555 118.554289 
L 112.430062 118.533147 
L 112.529349 118.491277 
L 112.555477 118.604746 
L 112.811531 119.986153 
L 112.874238 120.087167 
L 112.994427 120.585284 
L 113.041457 120.333154 
L 113.177323 119.975152 
L 113.198225 120.038379 
L 113.365444 120.882726 
L 113.537889 121.380516 
L 113.569243 121.359829 
L 113.773041 122.206284 
L 113.982065 123.489142 
L 114.02387 123.44729 
L 114.097028 123.360868 
L 114.133607 123.492365 
L 115.716963 128.799354 
L 115.983469 129.523195 
L 116.249974 129.398625 
L 116.793436 127.329415 
L 117.059942 127.134448 
L 118.883676 119.409038 
L 119.191986 119.097551 
L 119.233791 119.190118 
L 119.3174 119.374099 
L 119.364431 119.226623 
L 120.383422 114.074741 
L 120.451355 114.096152 
L 120.602897 114.175555 
L 120.634251 114.074699 
L 120.869403 113.308712 
L 120.963463 113.374582 
L 121.010494 113.405628 
L 121.041847 113.308435 
L 121.271774 112.625768 
L 121.350158 112.689177 
L 122.614752 113.616061 
L 122.734941 113.64311 
L 123.712128 113.94924 
L 124.537772 116.754861 
L 125.781465 121.880992 
L 126.021842 122.728395 
L 126.899742 125.389198 
L 126.904968 125.372903 
L 127.05651 124.53613 
L 127.44843 122.622192 
L 127.694033 121.721628 
L 127.725387 121.850423 
L 128.023246 122.712459 
L 128.153886 123.030775 
L 128.263623 122.960416 
L 128.744378 122.812317 
L 129.115396 122.808058 
L 129.209457 122.929617 
L 129.831303 124.289446 
L 129.935815 124.365765 
L 130.207546 125.188653 
L 130.338186 125.128228 
L 130.578563 125.156628 
L 130.761459 125.644077 
L 130.845069 125.602076 
L 131.069769 125.484267 
L 131.095897 125.607062 
L 131.466915 126.801691 
L 131.853609 127.267227 
L 132.449327 127.009304 
L 132.475455 127.06062 
L 132.877826 127.786848 
L 132.935308 127.727807 
L 133.452642 127.151946 
L 133.494447 127.229491 
L 134.168549 128.587465 
L 134.273061 128.509348 
L 134.685883 128.043157 
L 134.921035 127.666938 
L 135.610814 126.953528 
L 136.478263 124.829873 
L 136.546196 124.766289 
L 136.603677 124.870015 
L 136.838829 125.067545 
L 137.0165 125.187927 
L 137.293456 125.903976 
L 137.800339 127.682705 
L 137.857821 127.755043 
L 137.936205 127.67494 
L 138.228838 127.350361 
L 138.281094 127.43947 
L 138.427411 127.703649 
L 138.448313 127.676269 
L 138.714819 127.287939 
L 138.80888 127.386777 
L 139.211251 127.812003 
L 139.284409 127.72586 
L 139.362793 127.622508 
L 139.441177 127.695316 
L 139.827871 128.187881 
L 140.026444 128.42541 
L 140.083925 128.380372 
L 140.407913 127.979287 
L 140.60126 127.123411 
L 141.134271 123.993445 
L 141.463483 122.385682 
L 142.012171 120.716411 
L 142.080104 120.798006 
L 143.349924 122.291197 
L 143.386503 122.250277 
L 143.595527 121.992572 
L 143.668686 122.0969 
L 144.065831 122.781609 
L 144.290532 123.161279 
L 144.342788 123.052963 
L 144.421172 122.944587 
L 144.473428 123.02811 
L 144.604067 122.872839 
L 145.152755 121.739526 
L 145.157981 121.749374 
L 145.403584 122.450684 
L 146.37032 126.002169 
L 146.636825 126.445029 
L 146.715209 126.391195 
L 147.169836 125.025959 
L 147.269122 125.193139 
L 147.587884 125.893427 
L 148.225407 126.825457 
L 148.439656 127.9975 
L 148.753192 129.102762 
L 148.82635 129.241716 
L 148.894283 129.199358 
L 149.453422 129.026371 
L 149.495227 129.079258 
L 149.578837 129.016251 
L 150.00211 128.619249 
L 150.388804 127.944451 
L 150.61873 127.953741 
L 150.770273 127.982213 
L 150.822529 128.005661 
L 150.838206 128.061146 
L 151.235351 129.059094 
L 151.622045 129.818686 
L 151.84152 130.837687 
L 152.123703 131.721644 
L 152.536525 131.962585 
L 153.529388 131.451188 
L 153.607772 131.645822 
L 153.785443 132.436276 
L 154.193039 133.832685 
L 154.323679 134.001615 
L 154.360258 133.965304 
L 154.553606 133.639434 
L 154.893269 133.038564 
L 155.039586 133.056406 
L 155.253836 133.337143 
L 155.50989 133.899576 
L 155.551695 133.866029 
L 155.760719 133.81574 
L 155.77117 133.845173 
L 155.886133 134.017723 
L 155.933163 133.97241 
L 156.21012 133.610846 
L 156.941704 131.989025 
L 157.020088 132.046235 
L 157.260465 132.347012 
L 157.47994 132.809779 
L 157.621031 133.044828 
L 157.850958 133.532044 
L 157.908439 133.482714 
L 158.420548 133.154031 
L 158.545962 133.225982 
L 158.969236 133.6005 
L 159.491795 134.066362 
L 160.097965 133.955938 
L 160.322665 134.036964 
L 160.531689 133.7908 
L 161.111731 132.772686 
L 161.32598 132.425842 
L 161.529778 132.183167 
L 162.041887 131.752275 
L 162.412904 131.798859 
L 162.642831 131.635726 
L 162.925013 131.800282 
L 163.651371 132.219812 
L 164.07987 132.084941 
L 164.142577 132.116628 
L 164.179157 132.029091 
L 164.801003 130.798563 
L 164.806228 130.804322 
L 164.99435 131.17414 
L 165.135441 131.364926 
L 165.17202 131.342372 
L 165.475105 131.029995 
L 165.877476 130.334706 
L 166.039469 130.032859 
L 167.330192 126.634758 
L 168.004294 123.879443 
L 168.458921 122.745757 
L 168.897871 121.85102 
L 169.40998 120.733733 
L 169.441333 120.750105 
L 169.498815 120.669293 
L 169.67126 120.618826 
L 170.752958 120.543735 
L 170.805214 120.497753 
L 170.862696 120.566479 
L 171.296421 120.927415 
L 171.599505 120.895592 
L 171.719694 120.863876 
L 172.012327 120.582613 
L 172.2109 120.232945 
L 172.226577 120.249468 
L 172.367668 120.408915 
L 172.42515 120.309722 
L 172.639399 119.71914 
L 172.973837 119.027636 
L 173.961475 116.934668 
L 174.076439 116.724918 
L 174.113018 116.80082 
L 174.949113 119.177227 
L 175.100656 119.576417 
L 175.152912 119.546346 
L 175.612764 118.738461 
L 175.66502 118.849491 
L 175.905398 119.376976 
L 175.983782 119.335768 
L 177.41037 118.715814 
L 178.068795 118.613932 
L 178.335301 119.078623 
L 178.737672 119.700135 
L 178.863086 119.75757 
L 178.904891 119.673969 
L 179.15572 119.391816 
L 179.160945 119.397577 
L 179.735761 119.880185 
L 180.545729 119.307955 
L 181.235507 118.176524 
L 181.622202 118.467005 
L 181.904384 119.073771 
L 182.249273 119.801037 
L 182.359011 120.182005 
L 182.630742 120.89046 
L 183.153302 121.302222 
L 184.412671 123.142141 
L 184.611244 123.152949 
L 184.741884 123.116844 
L 185.259218 122.788661 
L 185.818357 122.550492 
L 185.938545 122.749453 
L 186.126667 122.876646 
L 186.356593 122.671899 
L 186.753739 121.881842 
L 187.150884 120.493497 
L 187.344231 120.355647 
L 187.678669 120.109933 
L 187.819761 119.960974 
L 187.960852 119.553423 
L 188.405028 118.384076 
L 188.6036 118.195697 
L 188.81785 118.243311 
L 189.011197 118.288279 
L 189.073904 118.389652 
L 189.904774 120.007649 
L 190.08767 120.015609 
L 190.307145 120.022523 
L 190.845382 120.004197 
L 192.005464 121.305593 
L 192.177909 121.423537 
L 192.339903 121.472426 
L 192.345128 121.466543 
L 192.867688 121.025043 
L 192.872914 121.030493 
L 193.36412 121.397853 
L 193.49476 121.282474 
L 193.641076 121.280832 
L 193.782168 121.179312 
L 194.043447 120.729791 
L 194.482398 120.030832 
L 194.555556 120.128266 
L 194.874317 120.602742 
L 195.647706 121.233986 
L 195.893309 121.379878 
L 196.478576 122.04175 
L 196.515155 122.000374 
L 196.896624 121.736178 
L 197.460988 121.898195 
L 197.753622 122.376964 
L 198.234377 123.184502 
L 198.641973 123.456104 
L 198.830095 123.54182 
L 199.211564 123.79297 
L 199.593032 123.739781 
L 199.755026 123.854919 
L 200.977816 125.203908 
L 201.249547 125.135047 
L 201.547406 124.669815 
L 201.860942 124.26074 
L 202.012484 124.347023 
L 202.320794 124.837079 
L 203.28753 126.558132 
L 203.4652 126.616962 
L 204.066144 127.532477 
L 204.191558 127.638503 
L 204.499868 128.009515 
L 205.027654 128.29868 
L 205.309836 128.559927 
L 205.639049 129.169983 
L 205.743561 129.041083 
L 206.036194 128.850686 
L 206.313151 128.923912 
L 206.579656 129.040545 
L 206.893192 129.229302 
L 207.342594 129.048509 
L 207.468008 129.091625 
L 207.494136 129.072907 
L 207.661355 129.085907 
L 208.413841 129.124443 
L 208.936401 128.814055 
L 209.077492 128.743438 
L 209.683661 128.403032 
L 209.694113 128.425772 
L 210.075581 129.514693 
L 210.488403 130.381431 
L 210.84897 130.839251 
L 211.172957 131.259318 
L 211.580553 131.751031 
L 211.742547 131.728713 
L 212.103113 131.426811 
L 212.369619 131.474957 
L 212.667478 131.543294 
L 212.907855 131.594623 
L 213.190037 131.866605 
L 213.409513 131.930329 
L 213.947749 132.026124 
L 214.182901 131.871621 
L 214.977192 132.244978 
L 215.238472 132.579771 
L 215.818513 132.633873 
L 216.121598 132.380466 
L 216.440359 132.139067 
L 216.827053 131.527529 
L 217.083108 131.295243 
L 217.861722 130.450323 
L 218.316349 130.452686 
L 218.467891 130.748797 
L 218.818006 131.184543 
L 219.011353 131.285452 
L 220.307302 132.364018 
L 220.573807 132.281124 
L 221.514415 131.628347 
L 221.874981 131.487202 
L 222.209419 131.29675 
L 222.43412 131.345315 
L 223.123899 130.780975 
L 223.359051 130.831811 
L 223.500142 130.940869 
L 223.688263 130.96039 
L 224.754285 130.185223 
L 225.036467 130.341495 
L 225.350003 130.517988 
L 225.898691 130.659545 
L 226.238355 130.841871 
L 226.405574 130.741498 
L 226.651177 130.409511 
L 227.058774 129.713043 
L 227.429791 129.268441 
L 227.717199 128.510652 
L 228.103893 127.604002 
L 228.29724 127.498521 
L 228.872056 126.681552 
L 229.415518 126.345117 
L 229.551384 126.227369 
L 230.000785 125.688634 
L 230.17323 125.563793 
L 230.471089 125.154798 
L 231.281057 124.01606 
L 231.500532 123.646917 
L 231.929031 123.157415 
L 232.817382 123.030953 
L 234.270099 124.109028 
L 234.489574 124.15549 
L 234.959878 123.950724 
L 235.41973 124.072619 
L 236.396917 125.361341 
L 237.170305 125.841908 
L 237.363652 125.902508 
L 237.572676 126.140908 
L 238.204974 127.229844 
L 238.602119 127.858102 
L 238.847722 128.018332 
L 239.709946 128.634377 
L 239.966 128.74186 
L 240.22728 128.800532 
L 240.504237 128.706047 
L 240.775968 128.739799 
L 241.021571 128.586354 
L 241.047699 128.622766 
L 241.930825 129.678875 
L 242.427257 129.593468 
L 242.876658 129.387153 
L 243.231999 129.479748 
L 243.723205 129.626502 
L 243.947906 129.677624 
L 244.480917 130.019722 
L 244.684715 130.11395 
L 244.888513 130.184045 
L 246.717472 131.093768 
L 246.968301 131.000269 
L 247.501312 130.685825 
L 247.83575 130.54206 
L 249.727417 129.106882 
L 250.19772 128.882361 
L 251.164456 128.018015 
L 251.389157 127.911969 
L 251.927393 127.653975 
L 254.096016 127.712828 
L 254.545418 127.823077 
L 255.501702 128.490573 
L 256.390054 129.258035 
L 256.682687 129.493146 
L 256.917839 129.603245 
L 257.126863 129.860046 
L 257.576264 130.02393 
L 257.764386 129.744714 
L 258.156306 129.327672 
L 258.339202 129.184498 
L 258.391458 129.238344 
L 258.725896 129.430875 
L 258.966273 129.434776 
L 259.661278 129.379943 
L 260.000942 129.486317 
L 261.030384 129.888923 
L 261.328244 129.964833 
L 261.573847 129.986282 
L 261.808999 130.071636 
L 262.180016 130.311479 
L 262.561485 130.37621 
L 263.235587 130.377541 
L 263.679763 130.451931 
L 264.233676 130.396789 
L 264.960034 130.655185 
L 265.827483 130.361561 
L 266.046958 130.327213 
L 266.344817 130.161054 
L 267.191364 129.634141 
L 268.215581 130.211681 
L 268.555245 130.399301 
L 269.009872 130.37192 
L 269.213671 130.334507 
L 269.527206 130.321551 
L 270.044541 130.366871 
L 270.990374 130.48789 
L 271.293458 130.113121 
L 272.00414 128.933475 
L 272.44309 128.48555 
L 272.7514 128.341491 
L 274.172763 128.665902 
L 274.334756 128.661909 
L 275.270138 128.833194 
L 275.871082 128.535273 
L 276.132362 128.806349 
L 277.114774 129.809153 
L 277.396957 129.828613 
L 277.788876 129.443797 
L 277.940419 129.521384 
L 278.274857 129.716235 
L 278.431625 129.782812 
L 278.964636 130.148047 
L 279.419263 130.712878 
L 279.675317 130.69623 
L 280.725662 130.451843 
L 281.081003 130.294139 
L 281.472923 130.32971 
L 281.92755 130.678841 
L 282.329921 130.980202 
L 282.794999 131.529547 
L 283.28098 131.574813 
L 284.221587 131.472554 
L 284.566477 131.922949 
L 284.932268 132.277838 
L 285.136067 132.217382 
L 285.595919 131.951167 
L 286.0819 132.21313 
L 286.270021 132.233126 
L 286.505173 132.297081 
L 286.708972 132.250944 
L 287.038184 132.045846 
L 287.69661 131.644893 
L 288.036273 131.845086 
L 288.548382 132.13609 
L 289.180679 132.048418 
L 290.126513 132.352767 
L 291.401558 132.088862 
L 291.866637 131.867478 
L 292.488483 131.535331 
L 292.645251 131.534429 
L 293.246194 131.519218 
L 293.455218 131.527654 
L 294.495112 131.668265 
L 295.059477 131.436793 
L 295.524555 131.22418 
L 296.036664 131.304472 
L 296.308395 131.101051 
L 296.810052 130.785789 
L 297.97536 129.610096 
L 298.691267 128.508655 
L 299.192925 128.070654 
L 299.579619 127.716812 
L 299.887929 127.407534 
L 300.316428 127.281483 
L 301.842303 127.365381 
L 302.061778 127.337161 
L 303.180056 126.961394 
L 303.707841 126.490481 
L 304.857472 125.730664 
L 305.599507 126.561153 
L 305.787629 126.689744 
L 305.808531 126.674119 
L 306.331091 126.415017 
L 306.649853 126.567701 
L 308.599 126.179295 
L 308.81325 126.258969 
L 309.152914 126.537814 
L 309.492578 126.655567 
L 310.051717 126.596793 
L 310.506344 126.656149 
L 311.232702 126.37357 
L 311.917255 125.934475 
L 312.39801 126.112588 
L 312.669741 126.40792 
L 313.380422 127.03447 
L 313.850726 127.236683 
L 314.138134 127.431408 
L 314.838364 127.867854 
L 315.287766 127.916718 
L 316.609842 127.740734 
L 316.81364 127.757679 
L 317.153304 127.582302 
L 317.409358 127.293543 
L 317.801278 126.718721 
L 318.177521 126.571687 
L 318.773239 126.085431 
L 319.159933 125.692886 
L 319.719072 125.757872 
L 320.617875 126.445686 
L 320.978441 126.42491 
L 321.589836 126.460285 
L 322.969394 127.015531 
L 323.188869 126.903523 
L 323.450149 126.793548 
L 324.035416 126.956608 
L 324.510945 126.817445 
L 324.777451 126.548461 
L 325.148468 126.328953 
L 327.144647 127.162962 
L 327.625402 127.031377 
L 328.231571 127.163231 
L 328.96838 127.702477 
L 329.841055 127.92163 
L 330.603992 128.054284 
L 331.727496 128.549705 
L 331.967873 128.442709 
L 332.474756 128.096577 
L 332.762164 128.183532 
L 333.101828 128.471438 
L 334.031985 129.12926 
L 334.131271 129.195401 
L 334.747891 129.59319 
L 334.883757 129.692198 
L 335.207744 129.840754 
L 336.153577 130.267022 
L 336.331247 130.326375 
L 336.723167 130.220687 
L 337.088959 130.235825 
L 337.318885 130.344101 
L 337.580165 130.363051 
L 338.06092 130.315931 
L 338.886565 130.344422 
L 339.23668 130.250127 
L 340.32883 129.974074 
L 341.724064 131.265973 
L 342.262301 131.594946 
L 342.42952 131.539876 
L 342.82144 131.417602 
L 343.526896 131.487683 
L 343.866559 131.634465 
L 344.206223 131.70165 
L 344.629497 131.686976 
L 344.864649 131.648839 
L 345.690293 131.908739 
L 345.904543 131.985501 
L 346.176274 132.013222 
L 346.568193 131.965977 
L 347.090753 131.764274 
L 347.372935 131.525225 
L 347.743953 131.342391 
L 348.162001 131.047233 
L 348.559146 130.931881 
L 349.013773 130.992391 
L 349.478851 131.302195 
L 349.755808 131.402856 
L 349.839418 131.329055 
L 350.273142 130.722332 
L 352.514924 129.530234 
L 352.896392 129.645991 
L 353.643653 130.167438 
L 354.255048 130.004733 
L 354.626065 130.069281 
L 355.712989 130.50829 
L 356.355738 130.869183 
L 356.517731 130.804999 
L 356.831267 130.645967 
L 357.139578 130.567028 
L 358.38327 130.904221 
L 359.470194 131.460744 
L 360.280162 131.471078 
L 361.461147 131.739608 
L 361.75378 131.80968 
L 362.286791 132.090066 
L 363.049729 132.467699 
L 363.624544 132.778833 
L 364.272518 132.835303 
L 364.622634 133.118894 
L 364.936169 133.369701 
L 366.320953 134.101947 
L 366.880092 134.594909 
L 367.543743 134.877851 
L 367.78412 134.996996 
L 368.358936 135.290868 
L 370.266279 136.560383 
L 370.825418 136.622605 
L 371.442039 136.449259 
L 371.786928 136.534235 
L 373.192614 136.590937 
L 374.389276 136.584249 
L 375.314206 136.472483 
L 376.406356 136.423615 
L 377.263354 136.527725 
L 377.712756 136.730646 
L 379.364045 136.557741 
L 380.383036 136.123822 
L 381.041462 136.399894 
L 381.402028 136.558533 
L 382.091807 136.379239 
L 383.873735 136.248685 
L 384.495582 135.876809 
L 385.237616 135.703196 
L 386.591046 135.799275 
L 386.894131 135.825225 
L 387.923574 135.753066 
L 388.451359 135.82725 
L 388.947791 135.980928 
L 390.494568 136.233907 
L 391.027579 136.14523 
L 392.370557 136.492885 
L 393.123043 136.519033 
L 393.645603 136.764881 
L 394.189065 137.155541 
L 396.519682 138.51597 
L 397.737246 139.649004 
L 398.16052 139.913053 
L 398.505409 140.115749 
L 398.923457 140.230849 
L 399.905869 139.894253 
L 400.198503 139.855114 
L 401.024147 139.533324 
L 402.126748 139.026871 
L 402.83743 138.518555 
L 403.877324 137.87701 
L 404.765675 137.576172 
L 405.873502 137.874374 
L 406.902945 138.696155 
L 407.232157 138.882203 
L 407.864455 139.393039 
L 408.167539 139.64244 
L 408.805062 139.911995 
L 409.228336 139.789426 
L 409.886761 139.532943 
L 410.83782 139.095005 
L 411.423087 139.291428 
L 411.820232 139.304384 
L 412.149445 139.151293 
L 412.781742 138.657758 
L 413.194564 138.38599 
L 414.354647 138.30392 
L 414.919011 138.084008 
L 415.373638 138.067138 
L 415.713302 138.236575 
L 416.565075 138.788387 
L 417.30711 139.050183 
L 417.688578 138.847773 
L 418.44629 138.067136 
L 418.62396 138.101697 
L 419.136069 138.103169 
L 419.841525 137.827313 
L 420.217768 137.890741 
L 422.046727 138.252707 
L 423.509894 138.153875 
L 424.967836 137.931803 
L 425.694194 137.735798 
L 426.263784 137.772769 
L 426.770667 138.246091 
L 427.214843 138.541344 
L 429.216247 139.687286 
L 429.858995 139.762167 
L 430.60103 139.7914 
L 431.144492 139.859687 
L 431.583443 139.802628 
L 432.200063 139.798802 
L 432.513599 139.78551 
L 432.743525 139.728854 
L 432.983903 139.733732 
L 433.553493 139.952258 
L 434.718801 139.935406 
L 435.533994 140.321542 
L 435.941591 140.562318 
L 439.395711 142.22467 
L 440.028008 142.308865 
L 440.932037 142.470527 
L 441.532981 142.296674 
L 442.024187 142.225396 
L 443.142465 142.692887 
L 443.591866 142.984317 
L 443.968109 142.96261 
L 444.480218 143.026689 
L 445.138643 143.128559 
L 445.54624 143.10975 
L 446.429366 143.358338 
L 447.46926 142.909267 
L 447.740991 142.852884 
L 448.059752 142.832799 
L 448.937653 142.402349 
L 449.240737 142.423605 
L 449.664011 142.536828 
L 450.656874 142.593935 
L 451.038343 142.844141 
L 451.639287 143.28566 
L 451.973725 143.442382 
L 452.689632 143.71301 
L 453.018844 143.848449 
L 453.77133 144.100591 
L 454.518591 144.631849 
L 455.354687 145.479463 
L 455.783186 145.730691 
L 456.39458 145.898393 
L 456.770824 145.830336 
L 457.638273 145.852482 
L 458.077223 145.757729 
L 459.012605 145.777114 
L 459.618774 145.744519 
L 460.068176 145.560376 
L 460.345132 145.534848 
L 460.836339 145.662282 
L 461.531343 145.937154 
L 462.315183 146.475762 
L 464.206849 147.112517 
L 464.536062 147.132996 
L 465.61776 147.413726 
L 465.889492 147.388653 
L 466.265735 147.52617 
L 466.689008 147.796293 
L 467.295177 147.73812 
L 471.240504 148.19921 
L 471.653326 148.125819 
L 472.714122 148.40813 
L 473.466608 148.866032 
L 474.004845 149.205377 
L 475.107446 149.8918 
L 475.546396 149.832469 
L 476.257077 149.819884 
L 476.711704 149.879796 
L 477.479867 149.823686 
L 480.421879 149.360688 
L 480.651805 149.090941 
L 481.090755 148.784628 
L 481.649894 148.624092 
L 482.135875 148.313782 
L 482.700239 148.044448 
L 483.661749 148.096036 
L 484.299272 148.334446 
L 484.994277 148.190418 
L 485.391422 148.250486 
L 486.729175 148.60504 
L 487.07929 148.666809 
L 487.889258 148.443936 
L 488.223696 148.476031 
L 488.626067 148.534147 
L 488.965731 148.599664 
L 490.162393 148.942003 
L 490.998489 148.934777 
L 492.205602 149.035906 
L 492.440754 149.109385 
L 493.02602 149.273204 
L 493.794183 149.529173 
L 494.316743 149.658429 
L 494.98562 149.695277 
L 495.335735 149.907507 
L 495.628368 150.023886 
L 496.971347 150.46025 
L 497.551388 150.769475 
L 498.235941 150.967891 
L 498.810757 151.116296 
L 499.124293 151.263256 
L 499.62595 151.515403 
L 501.219758 152.02553 
L 501.54897 151.964944 
L 502.11856 151.852268 
L 503.665337 151.847616 
L 504.250604 151.910372 
L 506.105692 151.709804 
L 506.607349 151.633393 
L 507.480024 151.69419 
L 508.01826 151.750594 
L 508.415406 151.817098 
L 509.946506 151.664477 
L 511.090912 151.313671 
L 511.754563 151.510989 
L 512.07855 151.556623 
L 512.846713 151.417144 
L 514.471873 151.29303 
L 515.172104 150.981525 
L 515.75737 150.849035 
L 517.136928 150.829975 
L 517.617683 150.865543 
L 518.67848 150.738973 
L 518.944985 150.755267 
L 519.598185 150.904881 
L 521.212894 151.003134 
L 521.735454 150.960209 
L 523.135914 151.130334 
L 523.930205 151.158494 
L 524.327351 151.320025 
L 524.876038 151.562979 
L 527.222332 152.470629 
L 528.47125 153.205485 
L 528.988584 153.436725 
L 529.599979 153.549831 
L 531.460292 153.065375 
L 531.852211 152.934835 
L 532.285936 152.757051 
L 533.675945 152.07925 
L 534.1567 151.831537 
L 534.705388 151.671098 
L 535.133887 151.531631 
L 535.797538 151.520517 
L 536.638859 151.737648 
L 538.567104 152.751903 
L 539.047859 152.959312 
L 539.507712 153.013463 
L 540.030272 152.907389 
L 540.615539 152.684866 
L 540.918623 152.607196 
L 541.665884 152.44605 
L 542.669199 152.452086 
L 543.479166 151.98447 
L 543.860635 151.823564 
L 545.062522 151.698875 
L 545.663466 151.534429 
L 546.165124 151.547031 
L 546.536141 151.787108 
L 546.948963 151.985893 
L 547.983632 152.171366 
L 548.370326 151.984464 
L 549.122812 151.443093 
L 549.817816 151.429424 
L 550.528498 151.228319 
L 552.86434 151.44911 
L 554.233446 151.351497 
L 555.780223 151.097083 
L 556.360265 150.993082 
L 556.961208 151.032063 
L 557.452415 151.362146 
L 557.990651 151.593822 
L 560.054762 152.3455 
L 560.587773 152.335344 
L 561.021498 152.300865 
L 561.962105 152.362149 
L 562.756396 152.338134 
L 563.195347 152.297407 
L 563.451401 152.221256 
L 563.74926 152.291801 
L 564.266594 152.37816 
L 565.58867 152.384337 
L 566.137358 152.576345 
L 566.68082 152.819632 
L 567.140673 152.970081 
L 568.138762 153.249086 
L 569.486966 153.75008 
L 569.915465 153.870733 
L 571.362956 154.054434 
L 573.186689 153.948565 
L 574.310193 154.35148 
L 575.208996 154.374173 
L 575.841293 154.397506 
L 576.243664 154.406798 
L 577.12679 154.537743 
L 580.089704 153.881291 
L 580.575684 153.871466 
L 581.490164 153.985078 
L 582.94288 154.526261 
L 583.360928 154.690894 
L 583.700592 154.769031 
L 584.453078 154.960642 
L 586.34997 156.067392 
L 587.102456 156.186504 
L 587.797461 156.16516 
L 588.168478 156.184554 
L 588.999348 155.996984 
L 589.548036 156.050238 
L 590.321424 156.010955 
L 590.990301 155.854976 
L 591.59647 155.953798 
L 591.993615 156.027014 
L 592.652041 156.403702 
L 593.122345 156.536598 
L 594.846792 156.945019 
L 595.223035 156.970285 
L 596.0121 157.226919 
L 596.336087 157.121653 
L 596.738458 157.156735 
L 597.903766 157.347647 
L 601.875221 157.622409 
L 602.35075 157.562779 
L 603.045755 157.586087 
L 603.615345 157.893722 
L 604.514148 158.25528 
L 605.073287 158.526501 
L 605.574944 158.786724 
L 605.972089 158.797808 
L 606.923148 158.74858 
L 607.414354 158.768642 
L 608.459474 158.695102 
L 610.701255 158.421474 
L 611.072273 158.321044 
L 611.072273 158.321044 
" clip-path="url(#pe98607b275)" style="fill: none; stroke: #1f2937; stroke-linecap: square"/>
   </g>
   <g id="line2d_24">
    <path d="M 62.39 158.321044 
L 637.2 158.321044 
" clip-path="url(#pe98607b275)" style="fill: none; stroke-dasharray: 2.96,1.28; stroke-dashoffset: 0; stroke: #888888; stroke-width: 0.8"/>
   </g>
   <g id="patch_3">
    <path d="M 62.39 282.04 
L 62.39 26.88 
" style="fill: none; stroke: #000000; stroke-width: 0.8; stroke-linejoin: miter; stroke-linecap: square"/>
   </g>
   <g id="patch_4">
    <path d="M 637.2 282.04 
L 637.2 26.88 
" style="fill: none; stroke: #000000; stroke-width: 0.8; stroke-linejoin: miter; stroke-linecap: square"/>
   </g>
   <g id="patch_5">
    <path d="M 62.39 282.04 
L 637.2 282.04 
" style="fill: none; stroke: #000000; stroke-width: 0.8; stroke-linejoin: miter; stroke-linecap: square"/>
   </g>
   <g id="patch_6">
    <path d="M 62.39 26.88 
L 637.2 26.88 
" style="fill: none; stroke: #000000; stroke-width: 0.8; stroke-linejoin: miter; stroke-linecap: square"/>
   </g>
   <g id="text_14">
    <!-- Running mean — declination  (100k ReCom samples, seed 42) -->
    <g transform="translate(162.220937 20.88) scale(0.12 -0.12)">
     <defs>
      <path id="DejaVuSans-2014" d="M 313 1978 
L 6088 1978 
L 6088 1528 
L 313 1528 
L 313 1978 
z
" transform="scale(0.015625)"/>
      <path id="DejaVuSans-28" d="M 1984 4856 
Q 1566 4138 1362 3434 
Q 1159 2731 1159 2009 
Q 1159 1288 1364 580 
Q 1569 -128 1984 -844 
L 1484 -844 
Q 1016 -109 783 600 
Q 550 1309 550 2009 
Q 550 2706 781 3412 
Q 1013 4119 1484 4856 
L 1984 4856 
z
" transform="scale(0.015625)"/>
      <path id="DejaVuSans-6b" d="M 581 4863 
L 1159 4863 
L 1159 1991 
L 2875 3500 
L 3609 3500 
L 1753 1863 
L 3688 0 
L 2938 0 
L 1159 1709 
L 1159 0 
L 581 0 
L 581 4863 
z
" transform="scale(0.015625)"/>
      <path id="DejaVuSans-43" d="M 4122 4306 
L 4122 3641 
Q 3803 3938 3442 4084 
Q 3081 4231 2675 4231 
Q 1875 4231 1450 3742 
Q 1025 3253 1025 2328 
Q 1025 1406 1450 917 
Q 1875 428 2675 428 
Q 3081 428 3442 575 
Q 3803 722 4122 1019 
L 4122 359 
Q 3791 134 3420 21 
Q 3050 -91 2638 -91 
Q 1578 -91 968 557 
Q 359 1206 359 2328 
Q 359 3453 968 4101 
Q 1578 4750 2638 4750 
Q 3056 4750 3426 4639 
Q 3797 4528 4122 4306 
z
" transform="scale(0.015625)"/>
      <path id="DejaVuSans-73" d="M 2834 3397 
L 2834 2853 
Q 2591 2978 2328 3040 
Q 2066 3103 1784 3103 
Q 1356 3103 1142 2972 
Q 928 2841 928 2578 
Q 928 2378 1081 2264 
Q 1234 2150 1697 2047 
L 1894 2003 
Q 2506 1872 2764 1633 
Q 3022 1394 3022 966 
Q 3022 478 2636 193 
Q 2250 -91 1575 -91 
Q 1294 -91 989 -36 
Q 684 19 347 128 
L 347 722 
Q 666 556 975 473 
Q 1284 391 1588 391 
Q 1994 391 2212 530 
Q 2431 669 2431 922 
Q 2431 1156 2273 1281 
Q 2116 1406 1581 1522 
L 1381 1569 
Q 847 1681 609 1914 
Q 372 2147 372 2553 
Q 372 3047 722 3315 
Q 1072 3584 1716 3584 
Q 2034 3584 2315 3537 
Q 2597 3491 2834 3397 
z
" transform="scale(0.015625)"/>
      <path id="DejaVuSans-2c" d="M 750 794 
L 1409 794 
L 1409 256 
L 897 -744 
L 494 -744 
L 750 256 
L 750 794 
z
" transform="scale(0.015625)"/>
      <path id="DejaVuSans-29" d="M 513 4856 
L 1013 4856 
Q 1481 4119 1714 3412 
Q 1947 2706 1947 2009 
Q 1947 1309 1714 600 
Q 1481 -109 1013 -844 
L 513 -844 
Q 928 -128 1133 580 
Q 1338 1288 1338 2009 
Q 1338 2731 1133 3434 
Q 928 4138 513 4856 
z
" transform="scale(0.015625)"/>
     </defs>
     <use xlink:href="#DejaVuSans-52"/>
     <use xlink:href="#DejaVuSans-75" transform="translate(64.982422 0)"/>
     <use xlink:href="#DejaVuSans-6e" transform="translate(128.361328 0)"/>
     <use xlink:href="#DejaVuSans-6e" transform="translate(191.740234 0)"/>
     <use xlink:href="#DejaVuSans-69" transform="translate(255.119141 0)"/>
     <use xlink:href="#DejaVuSans-6e" transform="translate(282.902344 0)"/>
     <use xlink:href="#DejaVuSans-67" transform="translate(346.28125 0)"/>
     <use xlink:href="#DejaVuSans-20" transform="translate(409.757812 0)"/>
     <use xlink:href="#DejaVuSans-6d" transform="translate(441.544922 0)"/>
     <use xlink:href="#DejaVuSans-65" transform="translate(538.957031 0)"/>
     <use xlink:href="#DejaVuSans-61" transform="translate(600.480469 0)"/>
     <use xlink:href="#DejaVuSans-6e" transform="translate(661.759766 0)"/>
     <use xlink:href="#DejaVuSans-20" transform="translate(725.138672 0)"/>
     <use xlink:href="#DejaVuSans-2014" transform="translate(756.925781 0)"/>
     <use xlink:href="#DejaVuSans-20" transform="translate(856.925781 0)"/>
     <use xlink:href="#DejaVuSans-64" transform="translate(888.712891 0)"/>
     <use xlink:href="#DejaVuSans-65" transform="translate(952.189453 0)"/>
     <use xlink:href="#DejaVuSans-63" transform="translate(1013.712891 0)"/>
     <use xlink:href="#DejaVuSans-6c" transform="translate(1068.693359 0)"/>
     <use xlink:href="#DejaVuSans-69" transform="translate(1096.476562 0)"/>
     <use xlink:href="#DejaVuSans-6e" transform="translate(1124.259766 0)"/>
     <use xlink:href="#DejaVuSans-61" transform="translate(1187.638672 0)"/>
     <use xlink:href="#DejaVuSans-74" transform="translate(1248.917969 0)"/>
     <use xlink:href="#DejaVuSans-69" transform="translate(1288.126953 0)"/>
     <use xlink:href="#DejaVuSans-6f" transform="translate(1315.910156 0)"/>
     <use xlink:href="#DejaVuSans-6e" transform="translate(1377.091797 0)"/>
     <use xlink:href="#DejaVuSans-20" transform="translate(1440.470703 0)"/>
     <use xlink:href="#DejaVuSans-20" transform="translate(1472.257812 0)"/>
     <use xlink:href="#DejaVuSans-28" transform="translate(1504.044922 0)"/>
     <use xlink:href="#DejaVuSans-31" transform="translate(1543.058594 0)"/>
     <use xlink:href="#DejaVuSans-30" transform="translate(1606.681641 0)"/>
     <use xlink:href="#DejaVuSans-30" transform="translate(1670.304688 0)"/>
     <use xlink:href="#DejaVuSans-6b" transform="translate(1733.927734 0)"/>
     <use xlink:href="#DejaVuSans-20" transform="translate(1791.837891 0)"/>
     <use xlink:href="#DejaVuSans-52" transform="translate(1823.625 0)"/>
     <use xlink:href="#DejaVuSans-65" transform="translate(1888.607422 0)"/>
     <use xlink:href="#DejaVuSans-43" transform="translate(1950.130859 0)"/>
     <use xlink:href="#DejaVuSans-6f" transform="translate(2019.955078 0)"/>
     <use xlink:href="#DejaVuSans-6d" transform="translate(2081.136719 0)"/>
     <use xlink:href="#DejaVuSans-20" transform="translate(2178.548828 0)"/>
     <use xlink:href="#DejaVuSans-73" transform="translate(2210.335938 0)"/>
     <use xlink:href="#DejaVuSans-61" transform="translate(2262.435547 0)"/>
     <use xlink:href="#DejaVuSans-6d" transform="translate(2323.714844 0)"/>
     <use xlink:href="#DejaVuSans-70" transform="translate(2421.126953 0)"/>
     <use xlink:href="#DejaVuSans-6c" transform="translate(2484.603516 0)"/>
     <use xlink:href="#DejaVuSans-65" transform="translate(2512.386719 0)"/>
     <use xlink:href="#DejaVuSans-73" transform="translate(2573.910156 0)"/>
     <use xlink:href="#DejaVuSans-2c" transform="translate(2626.009766 0)"/>
     <use xlink:href="#DejaVuSans-20" transform="translate(2657.796875 0)"/>
     <use xlink:href="#DejaVuSans-73" transform="translate(2689.583984 0)"/>
     <use xlink:href="#DejaVuSans-65" transform="translate(2741.683594 0)"/>
     <use xlink:href="#DejaVuSans-65" transform="translate(2803.207031 0)"/>
     <use xlink:href="#DejaVuSans-64" transform="translate(2864.730469 0)"/>
     <use xlink:href="#DejaVuSans-20" transform="translate(2928.207031 0)"/>
     <use xlink:href="#DejaVuSans-34" transform="translate(2959.994141 0)"/>
     <use xlink:href="#DejaVuSans-32" transform="translate(3023.617188 0)"/>
     <use xlink:href="#DejaVuSans-29" transform="translate(3087.240234 0)"/>
    </g>
   </g>
   <g id="legend_1">
    <g id="patch_7">
     <path d="M 500.601094 47.290312 
L 630.9 47.290312 
Q 632.7 47.290312 632.7 45.490312 
L 632.7 33.18 
Q 632.7 31.38 630.9 31.38 
L 500.601094 31.38 
Q 498.801094 31.38 498.801094 33.18 
L 498.801094 45.490312 
Q 498.801094 47.290312 500.601094 47.290312 
z
" style="fill: #ffffff; opacity: 0.8; stroke: #cccccc; stroke-linejoin: miter"/>
    </g>
    <g id="line2d_25">
     <path d="M 502.401094 38.668594 
L 511.401094 38.668594 
L 520.401094 38.668594 
" style="fill: none; stroke-dasharray: 2.96,1.28; stroke-dashoffset: 0; stroke: #888888; stroke-width: 0.8"/>
    </g>
    <g id="text_15">
     <!-- final mean = -0.00208 -->
     <g transform="translate(527.601094 41.818594) scale(0.09 -0.09)">
      <defs>
       <path id="DejaVuSans-3d" d="M 678 2906 
L 4684 2906 
L 4684 2381 
L 678 2381 
L 678 2906 
z
M 678 1631 
L 4684 1631 
L 4684 1100 
L 678 1100 
L 678 1631 
z
" transform="scale(0.015625)"/>
       <path id="DejaVuSans-2d" d="M 313 2009 
L 1997 2009 
L 1997 1497 
L 313 1497 
L 313 2009 
z
" transform="scale(0.015625)"/>
      </defs>
      <use xlink:href="#DejaVuSans-66"/>
      <use xlink:href="#DejaVuSans-69" transform="translate(35.205078 0)"/>
      <use xlink:href="#DejaVuSans-6e" transform="translate(62.988281 0)"/>
      <use xlink:href="#DejaVuSans-61" transform="translate(126.367188 0)"/>
      <use xlink:href="#DejaVuSans-6c" transform="translate(187.646484 0)"/>
      <use xlink:href="#DejaVuSans-20" transform="translate(215.429688 0)"/>
      <use xlink:href="#DejaVuSans-6d" transform="translate(247.216797 0)"/>
      <use xlink:href="#DejaVuSans-65" transform="translate(344.628906 0)"/>
      <use xlink:href="#DejaVuSans-61" transform="translate(406.152344 0)"/>
      <use xlink:href="#DejaVuSans-6e" transform="translate(467.431641 0)"/>
      <use xlink:href="#DejaVuSans-20" transform="translate(530.810547 0)"/>
      <use xlink:href="#DejaVuSans-3d" transform="translate(562.597656 0)"/>
      <use xlink:href="#DejaVuSans-20" transform="translate(646.386719 0)"/>
      <use xlink:href="#DejaVuSans-2d" transform="translate(678.173828 0)"/>
      <use xlink:href="#DejaVuSans-30" transform="translate(714.257812 0)"/>
      <use xlink:href="#DejaVuSans-2e" transform="translate(777.880859 0)"/>
      <use xlink:href="#DejaVuSans-30" transform="translate(809.667969 0)"/>
      <use xlink:href="#DejaVuSans-30" transform="translate(873.291016 0)"/>
      <use xlink:href="#DejaVuSans-32" transform="translate(936.914062 0)"/>
      <use xlink:href="#DejaVuSans-30" transform="translate(1000.537109 0)"/>
      <use xlink:href="#DejaVuSans-38" transform="translate(1064.160156 0)"/>
     </g>
    </g>
   </g>
  </g>
 </g>
 <defs>
  <clipPath id="pe98607b275">
   <rect x="62.39" y="26.88" width="574.81" height="255.16"/>
  </clipPath>
 </defs>
</svg>
