<?xml version="1.0" encoding="utf-8" standalone="no"?>
<!DOCTYPE svg PUBLIC "-//W3C//DTD SVG 1.1//EN"
  "http://www.w3.org/Graphics/SVG/1.1/DTD/svg11.dtd">
<svg xmlns:xlink="http://www.w3.org/1999/xlink" width="648pt" height="324pt" viewBox="0 0 648 324" xmlns="http://www.w3.org/2000/svg" version="1.1">
 <metadata>
  <rdf:RDF xmlns:dc="http://purl.org/dc/elements/1.1/" xmlns:cc="http://creativecommons.org/ns#" xmlns:rdf="http://www.w3.org/1999/02/22-rdf-syntax-ns#">
   <cc:Work>
    <dc:type rdf:resource="http://purl.org/dc/dcmitype/StillImage"/>
    <dc:date>2026-05-18T20:46:09.840703</dc:date>
    <dc:format>image/svg+xml</dc:format>
    <dc:creator>
     <cc:Agent>
      <dc:title>Matplotlib v3.10.8, https://matplotlib.org/</dc:title>
     </cc:Agent>
    </dc:creator>
   </cc:Work>
  </rdf:RDF>
 </metadata>
 <defs>
  <style type="text/css">*{stroke-linejoin: round; stroke-linecap: butt}</style>
 </defs>
 <g id="figure_1">
  <g id="patch_1">
   <path d="M 0 324 
L 648 324 
L 648 0 
L 0 0 
z
" style="fill: #ffffff"/>
  </g>
  <g id="axes_1">
   <g id="patch_2">
    <path d="M 62.39 282.04 
L 637.2 282.04 
L 637.2 26.88 
L 62.39 26.88 
z
" style="fill: #ffffff"/>
   </g>
   <g id="matplotlib.axis_1">
    <g id="xtick_1">
     <g id="line2d_1">
      <path d="M 88.512502 282.04 
L 88.512502 26.88 
" clip-path="url(#p4c4db7c953)" style="fill: none; stroke-dasharray: 0.5,0.825; stroke-dashoffset: 0; stroke: #b0b0b0; stroke-opacity: 0.6; stroke-width: 0.5"/>
     </g>
     <g id="line2d_2">
      <defs>
       <path id="md9b9b555e8" d="M 0 0 
L 0 3.5 
" style="stroke: #000000; stroke-width: 0.8"/>
      </defs>
      <g>
       <use xlink:href="#md9b9b555e8" x="88.512502" y="282.04" style="stroke: #000000; stroke-width: 0.8"/>
      </g>
     </g>
     <g id="text_1">
      <!-- 0 -->
      <g transform="translate(85.331252 296.638438) scale(0.1 -0.1)">
       <defs>
        <path id="DejaVuSans-30" d="M 2034 4250 
Q 1547 4250 1301 3770 
Q 1056 3291 1056 2328 
Q 1056 1369 1301 889 
Q 1547 409 2034 409 
Q 2525 409 2770 889 
Q 3016 1369 3016 2328 
Q 3016 3291 2770 3770 
Q 2525 4250 2034 4250 
z
M 2034 4750 
Q 2819 4750 3233 4129 
Q 3647 3509 3647 2328 
Q 3647 1150 3233 529 
Q 2819 -91 2034 -91 
Q 1250 -91 836 529 
Q 422 1150 422 2328 
Q 422 3509 836 4129 
Q 1250 4750 2034 4750 
z
" transform="scale(0.015625)"/>
       </defs>
       <use xlink:href="#DejaVuSans-30"/>
      </g>
     </g>
    </g>
    <g id="xtick_2">
     <g id="line2d_3">
      <path d="M 193.024456 282.04 
L 193.024456 26.88 
" clip-path="url(#p4c4db7c953)" style="fill: none; stroke-dasharray: 0.5,0.825; stroke-dashoffset: 0; stroke: #b0b0b0; stroke-opacity: 0.6; stroke-width: 0.5"/>
     </g>
     <g id="line2d_4">
      <g>
       <use xlink:href="#md9b9b555e8" x="193.024456" y="282.04" style="stroke: #000000; stroke-width: 0.8"/>
      </g>
     </g>
     <g id="text_2">
      <!-- 20000 -->
      <g transform="translate(177.118206 296.638438) scale(0.1 -0.1)">
       <defs>
        <path id="DejaVuSans-32" d="M 1228 531 
L 3431 531 
L 3431 0 
L 469 0 
L 469 531 
Q 828 903 1448 1529 
Q 2069 2156 2228 2338 
Q 2531 2678 2651 2914 
Q 2772 3150 2772 3378 
Q 2772 3750 2511 3984 
Q 2250 4219 1831 4219 
Q 1534 4219 1204 4116 
Q 875 4013 500 3803 
L 500 4441 
Q 881 4594 1212 4672 
Q 1544 4750 1819 4750 
Q 2544 4750 2975 4387 
Q 3406 4025 3406 3419 
Q 3406 3131 3298 2873 
Q 3191 2616 2906 2266 
Q 2828 2175 2409 1742 
Q 1991 1309 1228 531 
z
" transform="scale(0.015625)"/>
       </defs>
       <use xlink:href="#DejaVuSans-32"/>
       <use xlink:href="#DejaVuSans-30" transform="translate(63.623047 0)"/>
       <use xlink:href="#DejaVuSans-30" transform="translate(127.246094 0)"/>
       <use xlink:href="#DejaVuSans-30" transform="translate(190.869141 0)"/>
       <use xlink:href="#DejaVuSans-30" transform="translate(254.492188 0)"/>
      </g>
     </g>
    </g>
    <g id="xtick_3">
     <g id="line2d_5">
      <path d="M 297.53641 282.04 
L 297.53641 26.88 
" clip-path="url(#p4c4db7c953)" style="fill: none; stroke-dasharray: 0.5,0.825; stroke-dashoffset: 0; stroke: #b0b0b0; stroke-opacity: 0.6; stroke-width: 0.5"/>
     </g>
     <g id="line2d_6">
      <g>
       <use xlink:href="#md9b9b555e8" x="297.53641" y="282.04" style="stroke: #000000; stroke-width: 0.8"/>
      </g>
     </g>
     <g id="text_3">
      <!-- 40000 -->
      <g transform="translate(281.63016 296.638438) scale(0.1 -0.1)">
       <defs>
        <path id="DejaVuSans-34" d="M 2419 4116 
L 825 1625 
L 2419 1625 
L 2419 4116 
z
M 2253 4666 
L 3047 4666 
L 3047 1625 
L 3713 1625 
L 3713 1100 
L 3047 1100 
L 3047 0 
L 2419 0 
L 2419 1100 
L 313 1100 
L 313 1709 
L 2253 4666 
z
" transform="scale(0.015625)"/>
       </defs>
       <use xlink:href="#DejaVuSans-34"/>
       <use xlink:href="#DejaVuSans-30" transform="translate(63.623047 0)"/>
       <use xlink:href="#DejaVuSans-30" transform="translate(127.246094 0)"/>
       <use xlink:href="#DejaVuSans-30" transform="translate(190.869141 0)"/>
       <use xlink:href="#DejaVuSans-30" transform="translate(254.492188 0)"/>
      </g>
     </g>
    </g>
    <g id="xtick_4">
     <g id="line2d_7">
      <path d="M 402.048364 282.04 
L 402.048364 26.88 
" clip-path="url(#p4c4db7c953)" style="fill: none; stroke-dasharray: 0.5,0.825; stroke-dashoffset: 0; stroke: #b0b0b0; stroke-opacity: 0.6; stroke-width: 0.5"/>
     </g>
     <g id="line2d_8">
      <g>
       <use xlink:href="#md9b9b555e8" x="402.048364" y="282.04" style="stroke: #000000; stroke-width: 0.8"/>
      </g>
     </g>
     <g id="text_4">
      <!-- 60000 -->
      <g transform="translate(386.142114 296.638438) scale(0.1 -0.1)">
       <defs>
        <path id="DejaVuSans-36" d="M 2113 2584 
Q 1688 2584 1439 2293 
Q 1191 2003 1191 1497 
Q 1191 994 1439 701 
Q 1688 409 2113 409 
Q 2538 409 2786 701 
Q 3034 994 3034 1497 
Q 3034 2003 2786 2293 
Q 2538 2584 2113 2584 
z
M 3366 4563 
L 3366 3988 
Q 3128 4100 2886 4159 
Q 2644 4219 2406 4219 
Q 1781 4219 1451 3797 
Q 1122 3375 1075 2522 
Q 1259 2794 1537 2939 
Q 1816 3084 2150 3084 
Q 2853 3084 3261 2657 
Q 3669 2231 3669 1497 
Q 3669 778 3244 343 
Q 2819 -91 2113 -91 
Q 1303 -91 875 529 
Q 447 1150 447 2328 
Q 447 3434 972 4092 
Q 1497 4750 2381 4750 
Q 2619 4750 2861 4703 
Q 3103 4656 3366 4563 
z
" transform="scale(0.015625)"/>
       </defs>
       <use xlink:href="#DejaVuSans-36"/>
       <use xlink:href="#DejaVuSans-30" transform="translate(63.623047 0)"/>
       <use xlink:href="#DejaVuSans-30" transform="translate(127.246094 0)"/>
       <use xlink:href="#DejaVuSans-30" transform="translate(190.869141 0)"/>
       <use xlink:href="#DejaVuSans-30" transform="translate(254.492188 0)"/>
      </g>
     </g>
    </g>
    <g id="xtick_5">
     <g id="line2d_9">
      <path d="M 506.560319 282.04 
L 506.560319 26.88 
" clip-path="url(#p4c4db7c953)" style="fill: none; stroke-dasharray: 0.5,0.825; stroke-dashoffset: 0; stroke: #b0b0b0; stroke-opacity: 0.6; stroke-width: 0.5"/>
     </g>
     <g id="line2d_10">
      <g>
       <use xlink:href="#md9b9b555e8" x="506.560319" y="282.04" style="stroke: #000000; stroke-width: 0.8"/>
      </g>
     </g>
     <g id="text_5">
      <!-- 80000 -->
      <g transform="translate(490.654069 296.638438) scale(0.1 -0.1)">
       <defs>
        <path id="DejaVuSans-38" d="M 2034 2216 
Q 1584 2216 1326 1975 
Q 1069 1734 1069 1313 
Q 1069 891 1326 650 
Q 1584 409 2034 409 
Q 2484 409 2743 651 
Q 3003 894 3003 1313 
Q 3003 1734 2745 1975 
Q 2488 2216 2034 2216 
z
M 1403 2484 
Q 997 2584 770 2862 
Q 544 3141 544 3541 
Q 544 4100 942 4425 
Q 1341 4750 2034 4750 
Q 2731 4750 3128 4425 
Q 3525 4100 3525 3541 
Q 3525 3141 3298 2862 
Q 3072 2584 2669 2484 
Q 3125 2378 3379 2068 
Q 3634 1759 3634 1313 
Q 3634 634 3220 271 
Q 2806 -91 2034 -91 
Q 1263 -91 848 271 
Q 434 634 434 1313 
Q 434 1759 690 2068 
Q 947 2378 1403 2484 
z
M 1172 3481 
Q 1172 3119 1398 2916 
Q 1625 2713 2034 2713 
Q 2441 2713 2670 2916 
Q 2900 3119 2900 3481 
Q 2900 3844 2670 4047 
Q 2441 4250 2034 4250 
Q 1625 4250 1398 4047 
Q 1172 3844 1172 3481 
z
" transform="scale(0.015625)"/>
       </defs>
       <use xlink:href="#DejaVuSans-38"/>
       <use xlink:href="#DejaVuSans-30" transform="translate(63.623047 0)"/>
       <use xlink:href="#DejaVuSans-30" transform="translate(127.246094 0)"/>
       <use xlink:href="#DejaVuSans-30" transform="translate(190.869141 0)"/>
       <use xlink:href="#DejaVuSans-30" transform="translate(254.492188 0)"/>
      </g>
     </g>
    </g>
    <g id="xtick_6">
     <g id="line2d_11">
      <path d="M 611.072273 282.04 
L 611.072273 26.88 
" clip-path="url(#p4c4db7c953)" style="fill: none; stroke-dasharray: 0.5,0.825; stroke-dashoffset: 0; stroke: #b0b0b0; stroke-opacity: 0.6; stroke-width: 0.5"/>
     </g>
     <g id="line2d_12">
      <g>
       <use xlink:href="#md9b9b555e8" x="611.072273" y="282.04" style="stroke: #000000; stroke-width: 0.8"/>
      </g>
     </g>
     <g id="text_6">
      <!-- 100000 -->
      <g transform="translate(591.984773 296.638438) scale(0.1 -0.1)">
       <defs>
        <path id="DejaVuSans-31" d="M 794 531 
L 1825 531 
L 1825 4091 
L 703 3866 
L 703 4441 
L 1819 4666 
L 2450 4666 
L 2450 531 
L 3481 531 
L 3481 0 
L 794 0 
L 794 531 
z
" transform="scale(0.015625)"/>
       </defs>
       <use xlink:href="#DejaVuSans-31"/>
       <use xlink:href="#DejaVuSans-30" transform="translate(63.623047 0)"/>
       <use xlink:href="#DejaVuSans-30" transform="translate(127.246094 0)"/>
       <use xlink:href="#DejaVuSans-30" transform="translate(190.869141 0)"/>
       <use xlink:href="#DejaVuSans-30" transform="translate(254.492188 0)"/>
       <use xlink:href="#DejaVuSans-30" transform="translate(318.115234 0)"/>
      </g>
     </g>
    </g>
    <g id="text_7">
     <!-- Sample index -->
     <g transform="translate(315.777031 310.316563) scale(0.1 -0.1)">
      <defs>
       <path id="DejaVuSans-53" d="M 3425 4513 
L 3425 3897 
Q 3066 4069 2747 4153 
Q 2428 4238 2131 4238 
Q 1616 4238 1336 4038 
Q 1056 3838 1056 3469 
Q 1056 3159 1242 3001 
Q 1428 2844 1947 2747 
L 2328 2669 
Q 3034 2534 3370 2195 
Q 3706 1856 3706 1288 
Q 3706 609 3251 259 
Q 2797 -91 1919 -91 
Q 1588 -91 1214 -16 
Q 841 59 441 206 
L 441 856 
Q 825 641 1194 531 
Q 1563 422 1919 422 
Q 2459 422 2753 634 
Q 3047 847 3047 1241 
Q 3047 1584 2836 1778 
Q 2625 1972 2144 2069 
L 1759 2144 
Q 1053 2284 737 2584 
Q 422 2884 422 3419 
Q 422 4038 858 4394 
Q 1294 4750 2059 4750 
Q 2388 4750 2728 4690 
Q 3069 4631 3425 4513 
z
" transform="scale(0.015625)"/>
       <path id="DejaVuSans-61" d="M 2194 1759 
Q 1497 1759 1228 1600 
Q 959 1441 959 1056 
Q 959 750 1161 570 
Q 1363 391 1709 391 
Q 2188 391 2477 730 
Q 2766 1069 2766 1631 
L 2766 1759 
L 2194 1759 
z
M 3341 1997 
L 3341 0 
L 2766 0 
L 2766 531 
Q 2569 213 2275 61 
Q 1981 -91 1556 -91 
Q 1019 -91 701 211 
Q 384 513 384 1019 
Q 384 1609 779 1909 
Q 1175 2209 1959 2209 
L 2766 2209 
L 2766 2266 
Q 2766 2663 2505 2880 
Q 2244 3097 1772 3097 
Q 1472 3097 1187 3025 
Q 903 2953 641 2809 
L 641 3341 
Q 956 3463 1253 3523 
Q 1550 3584 1831 3584 
Q 2591 3584 2966 3190 
Q 3341 2797 3341 1997 
z
" transform="scale(0.015625)"/>
       <path id="DejaVuSans-6d" d="M 3328 2828 
Q 3544 3216 3844 3400 
Q 4144 3584 4550 3584 
Q 5097 3584 5394 3201 
Q 5691 2819 5691 2113 
L 5691 0 
L 5113 0 
L 5113 2094 
Q 5113 2597 4934 2840 
Q 4756 3084 4391 3084 
Q 3944 3084 3684 2787 
Q 3425 2491 3425 1978 
L 3425 0 
L 2847 0 
L 2847 2094 
Q 2847 2600 2669 2842 
Q 2491 3084 2119 3084 
Q 1678 3084 1418 2786 
Q 1159 2488 1159 1978 
L 1159 0 
L 581 0 
L 581 3500 
L 1159 3500 
L 1159 2956 
Q 1356 3278 1631 3431 
Q 1906 3584 2284 3584 
Q 2666 3584 2933 3390 
Q 3200 3197 3328 2828 
z
" transform="scale(0.015625)"/>
       <path id="DejaVuSans-70" d="M 1159 525 
L 1159 -1331 
L 581 -1331 
L 581 3500 
L 1159 3500 
L 1159 2969 
Q 1341 3281 1617 3432 
Q 1894 3584 2278 3584 
Q 2916 3584 3314 3078 
Q 3713 2572 3713 1747 
Q 3713 922 3314 415 
Q 2916 -91 2278 -91 
Q 1894 -91 1617 61 
Q 1341 213 1159 525 
z
M 3116 1747 
Q 3116 2381 2855 2742 
Q 2594 3103 2138 3103 
Q 1681 3103 1420 2742 
Q 1159 2381 1159 1747 
Q 1159 1113 1420 752 
Q 1681 391 2138 391 
Q 2594 391 2855 752 
Q 3116 1113 3116 1747 
z
" transform="scale(0.015625)"/>
       <path id="DejaVuSans-6c" d="M 603 4863 
L 1178 4863 
L 1178 0 
L 603 0 
L 603 4863 
z
" transform="scale(0.015625)"/>
       <path id="DejaVuSans-65" d="M 3597 1894 
L 3597 1613 
L 953 1613 
Q 991 1019 1311 708 
Q 1631 397 2203 397 
Q 2534 397 2845 478 
Q 3156 559 3463 722 
L 3463 178 
Q 3153 47 2828 -22 
Q 2503 -91 2169 -91 
Q 1331 -91 842 396 
Q 353 884 353 1716 
Q 353 2575 817 3079 
Q 1281 3584 2069 3584 
Q 2775 3584 3186 3129 
Q 3597 2675 3597 1894 
z
M 3022 2063 
Q 3016 2534 2758 2815 
Q 2500 3097 2075 3097 
Q 1594 3097 1305 2825 
Q 1016 2553 972 2059 
L 3022 2063 
z
" transform="scale(0.015625)"/>
       <path id="DejaVuSans-20" transform="scale(0.015625)"/>
       <path id="DejaVuSans-69" d="M 603 3500 
L 1178 3500 
L 1178 0 
L 603 0 
L 603 3500 
z
M 603 4863 
L 1178 4863 
L 1178 4134 
L 603 4134 
L 603 4863 
z
" transform="scale(0.015625)"/>
       <path id="DejaVuSans-6e" d="M 3513 2113 
L 3513 0 
L 2938 0 
L 2938 2094 
Q 2938 2591 2744 2837 
Q 2550 3084 2163 3084 
Q 1697 3084 1428 2787 
Q 1159 2491 1159 1978 
L 1159 0 
L 581 0 
L 581 3500 
L 1159 3500 
L 1159 2956 
Q 1366 3272 1645 3428 
Q 1925 3584 2291 3584 
Q 2894 3584 3203 3211 
Q 3513 2838 3513 2113 
z
" transform="scale(0.015625)"/>
       <path id="DejaVuSans-64" d="M 2906 2969 
L 2906 4863 
L 3481 4863 
L 3481 0 
L 2906 0 
L 2906 525 
Q 2725 213 2448 61 
Q 2172 -91 1784 -91 
Q 1150 -91 751 415 
Q 353 922 353 1747 
Q 353 2572 751 3078 
Q 1150 3584 1784 3584 
Q 2172 3584 2448 3432 
Q 2725 3281 2906 2969 
z
M 947 1747 
Q 947 1113 1208 752 
Q 1469 391 1925 391 
Q 2381 391 2643 752 
Q 2906 1113 2906 1747 
Q 2906 2381 2643 2742 
Q 2381 3103 1925 3103 
Q 1469 3103 1208 2742 
Q 947 2381 947 1747 
z
" transform="scale(0.015625)"/>
       <path id="DejaVuSans-78" d="M 3513 3500 
L 2247 1797 
L 3578 0 
L 2900 0 
L 1881 1375 
L 863 0 
L 184 0 
L 1544 1831 
L 300 3500 
L 978 3500 
L 1906 2253 
L 2834 3500 
L 3513 3500 
z
" transform="scale(0.015625)"/>
      </defs>
      <use xlink:href="#DejaVuSans-53"/>
      <use xlink:href="#DejaVuSans-61" transform="translate(63.476562 0)"/>
      <use xlink:href="#DejaVuSans-6d" transform="translate(124.755859 0)"/>
      <use xlink:href="#DejaVuSans-70" transform="translate(222.167969 0)"/>
      <use xlink:href="#DejaVuSans-6c" transform="translate(285.644531 0)"/>
      <use xlink:href="#DejaVuSans-65" transform="translate(313.427734 0)"/>
      <use xlink:href="#DejaVuSans-20" transform="translate(374.951172 0)"/>
      <use xlink:href="#DejaVuSans-69" transform="translate(406.738281 0)"/>
      <use xlink:href="#DejaVuSans-6e" transform="translate(434.521484 0)"/>
      <use xlink:href="#DejaVuSans-64" transform="translate(497.900391 0)"/>
      <use xlink:href="#DejaVuSans-65" transform="translate(561.376953 0)"/>
      <use xlink:href="#DejaVuSans-78" transform="translate(621.150391 0)"/>
     </g>
    </g>
   </g>
   <g id="matplotlib.axis_2">
    <g id="ytick_1">
     <g id="line2d_13">
      <path d="M 62.39 252.01922 
L 637.2 252.01922 
" clip-path="url(#p4c4db7c953)" style="fill: none; stroke-dasharray: 0.5,0.825; stroke-dashoffset: 0; stroke: #b0b0b0; stroke-opacity: 0.6; stroke-width: 0.5"/>
     </g>
     <g id="line2d_14">
      <defs>
       <path id="mff995549d9" d="M 0 0 
L -3.5 0 
" style="stroke: #000000; stroke-width: 0.8"/>
      </defs>
      <g>
       <use xlink:href="#mff995549d9" x="62.39" y="252.01922" style="stroke: #000000; stroke-width: 0.8"/>
      </g>
     </g>
     <g id="text_8">
      <!-- −0.31 -->
      <g transform="translate(24.744688 255.818439) scale(0.1 -0.1)">
       <defs>
        <path id="DejaVuSans-2212" d="M 678 2272 
L 4684 2272 
L 4684 1741 
L 678 1741 
L 678 2272 
z
" transform="scale(0.015625)"/>
        <path id="DejaVuSans-2e" d="M 684 794 
L 1344 794 
L 1344 0 
L 684 0 
L 684 794 
z
" transform="scale(0.015625)"/>
        <path id="DejaVuSans-33" d="M 2597 2516 
Q 3050 2419 3304 2112 
Q 3559 1806 3559 1356 
Q 3559 666 3084 287 
Q 2609 -91 1734 -91 
Q 1441 -91 1130 -33 
Q 819 25 488 141 
L 488 750 
Q 750 597 1062 519 
Q 1375 441 1716 441 
Q 2309 441 2620 675 
Q 2931 909 2931 1356 
Q 2931 1769 2642 2001 
Q 2353 2234 1838 2234 
L 1294 2234 
L 1294 2753 
L 1863 2753 
Q 2328 2753 2575 2939 
Q 2822 3125 2822 3475 
Q 2822 3834 2567 4026 
Q 2313 4219 1838 4219 
Q 1578 4219 1281 4162 
Q 984 4106 628 3988 
L 628 4550 
Q 988 4650 1302 4700 
Q 1616 4750 1894 4750 
Q 2613 4750 3031 4423 
Q 3450 4097 3450 3541 
Q 3450 3153 3228 2886 
Q 3006 2619 2597 2516 
z
" transform="scale(0.015625)"/>
       </defs>
       <use xlink:href="#DejaVuSans-2212"/>
       <use xlink:href="#DejaVuSans-30" transform="translate(83.789062 0)"/>
       <use xlink:href="#DejaVuSans-2e" transform="translate(147.412109 0)"/>
       <use xlink:href="#DejaVuSans-33" transform="translate(179.199219 0)"/>
       <use xlink:href="#DejaVuSans-31" transform="translate(242.822266 0)"/>
      </g>
     </g>
    </g>
    <g id="ytick_2">
     <g id="line2d_15">
      <path d="M 62.39 214.519525 
L 637.2 214.519525 
" clip-path="url(#p4c4db7c953)" style="fill: none; stroke-dasharray: 0.5,0.825; stroke-dashoffset: 0; stroke: #b0b0b0; stroke-opacity: 0.6; stroke-width: 0.5"/>
     </g>
     <g id="line2d_16">
      <g>
       <use xlink:href="#mff995549d9" x="62.39" y="214.519525" style="stroke: #000000; stroke-width: 0.8"/>
      </g>
     </g>
     <g id="text_9">
      <!-- −0.30 -->
      <g transform="translate(24.744688 218.318743) scale(0.1 -0.1)">
       <use xlink:href="#DejaVuSans-2212"/>
       <use xlink:href="#DejaVuSans-30" transform="translate(83.789062 0)"/>
       <use xlink:href="#DejaVuSans-2e" transform="translate(147.412109 0)"/>
       <use xlink:href="#DejaVuSans-33" transform="translate(179.199219 0)"/>
       <use xlink:href="#DejaVuSans-30" transform="translate(242.822266 0)"/>
      </g>
     </g>
    </g>
    <g id="ytick_3">
     <g id="line2d_17">
      <path d="M 62.39 177.019829 
L 637.2 177.019829 
" clip-path="url(#p4c4db7c953)" style="fill: none; stroke-dasharray: 0.5,0.825; stroke-dashoffset: 0; stroke: #b0b0b0; stroke-opacity: 0.6; stroke-width: 0.5"/>
     </g>
     <g id="line2d_18">
      <g>
       <use xlink:href="#mff995549d9" x="62.39" y="177.019829" style="stroke: #000000; stroke-width: 0.8"/>
      </g>
     </g>
     <g id="text_10">
      <!-- −0.29 -->
      <g transform="translate(24.744688 180.819048) scale(0.1 -0.1)">
       <defs>
        <path id="DejaVuSans-39" d="M 703 97 
L 703 672 
Q 941 559 1184 500 
Q 1428 441 1663 441 
Q 2288 441 2617 861 
Q 2947 1281 2994 2138 
Q 2813 1869 2534 1725 
Q 2256 1581 1919 1581 
Q 1219 1581 811 2004 
Q 403 2428 403 3163 
Q 403 3881 828 4315 
Q 1253 4750 1959 4750 
Q 2769 4750 3195 4129 
Q 3622 3509 3622 2328 
Q 3622 1225 3098 567 
Q 2575 -91 1691 -91 
Q 1453 -91 1209 -44 
Q 966 3 703 97 
z
M 1959 2075 
Q 2384 2075 2632 2365 
Q 2881 2656 2881 3163 
Q 2881 3666 2632 3958 
Q 2384 4250 1959 4250 
Q 1534 4250 1286 3958 
Q 1038 3666 1038 3163 
Q 1038 2656 1286 2365 
Q 1534 2075 1959 2075 
z
" transform="scale(0.015625)"/>
       </defs>
       <use xlink:href="#DejaVuSans-2212"/>
       <use xlink:href="#DejaVuSans-30" transform="translate(83.789062 0)"/>
       <use xlink:href="#DejaVuSans-2e" transform="translate(147.412109 0)"/>
       <use xlink:href="#DejaVuSans-32" transform="translate(179.199219 0)"/>
       <use xlink:href="#DejaVuSans-39" transform="translate(242.822266 0)"/>
      </g>
     </g>
    </g>
    <g id="ytick_4">
     <g id="line2d_19">
      <path d="M 62.39 139.520133 
L 637.2 139.520133 
" clip-path="url(#p4c4db7c953)" style="fill: none; stroke-dasharray: 0.5,0.825; stroke-dashoffset: 0; stroke: #b0b0b0; stroke-opacity: 0.6; stroke-width: 0.5"/>
     </g>
     <g id="line2d_20">
      <g>
       <use xlink:href="#mff995549d9" x="62.39" y="139.520133" style="stroke: #000000; stroke-width: 0.8"/>
      </g>
     </g>
     <g id="text_11">
      <!-- −0.28 -->
      <g transform="translate(24.744688 143.319352) scale(0.1 -0.1)">
       <use xlink:href="#DejaVuSans-2212"/>
       <use xlink:href="#DejaVuSans-30" transform="translate(83.789062 0)"/>
       <use xlink:href="#DejaVuSans-2e" transform="translate(147.412109 0)"/>
       <use xlink:href="#DejaVuSans-32" transform="translate(179.199219 0)"/>
       <use xlink:href="#DejaVuSans-38" transform="translate(242.822266 0)"/>
      </g>
     </g>
    </g>
    <g id="ytick_5">
     <g id="line2d_21">
      <path d="M 62.39 102.020438 
L 637.2 102.020438 
" clip-path="url(#p4c4db7c953)" style="fill: none; stroke-dasharray: 0.5,0.825; stroke-dashoffset: 0; stroke: #b0b0b0; stroke-opacity: 0.6; stroke-width: 0.5"/>
     </g>
     <g id="line2d_22">
      <g>
       <use xlink:href="#mff995549d9" x="62.39" y="102.020438" style="stroke: #000000; stroke-width: 0.8"/>
      </g>
     </g>
     <g id="text_12">
      <!-- −0.27 -->
      <g transform="translate(24.744688 105.819656) scale(0.1 -0.1)">
       <defs>
        <path id="DejaVuSans-37" d="M 525 4666 
L 3525 4666 
L 3525 4397 
L 1831 0 
L 1172 0 
L 2766 4134 
L 525 4134 
L 525 4666 
z
" transform="scale(0.015625)"/>
       </defs>
       <use xlink:href="#DejaVuSans-2212"/>
       <use xlink:href="#DejaVuSans-30" transform="translate(83.789062 0)"/>
       <use xlink:href="#DejaVuSans-2e" transform="translate(147.412109 0)"/>
       <use xlink:href="#DejaVuSans-32" transform="translate(179.199219 0)"/>
       <use xlink:href="#DejaVuSans-37" transform="translate(242.822266 0)"/>
      </g>
     </g>
    </g>
    <g id="ytick_6">
     <g id="line2d_23">
      <path d="M 62.39 64.520742 
L 637.2 64.520742 
" clip-path="url(#p4c4db7c953)" style="fill: none; stroke-dasharray: 0.5,0.825; stroke-dashoffset: 0; stroke: #b0b0b0; stroke-opacity: 0.6; stroke-width: 0.5"/>
     </g>
     <g id="line2d_24">
      <g>
       <use xlink:href="#mff995549d9" x="62.39" y="64.520742" style="stroke: #000000; stroke-width: 0.8"/>
      </g>
     </g>
     <g id="text_13">
      <!-- −0.26 -->
      <g transform="translate(24.744688 68.319961) scale(0.1 -0.1)">
       <use xlink:href="#DejaVuSans-2212"/>
       <use xlink:href="#DejaVuSans-30" transform="translate(83.789062 0)"/>
       <use xlink:href="#DejaVuSans-2e" transform="translate(147.412109 0)"/>
       <use xlink:href="#DejaVuSans-32" transform="translate(179.199219 0)"/>
       <use xlink:href="#DejaVuSans-36" transform="translate(242.822266 0)"/>
      </g>
     </g>
    </g>
    <g id="ytick_7">
     <g id="line2d_25">
      <path d="M 62.39 27.021046 
L 637.2 27.021046 
" clip-path="url(#p4c4db7c953)" style="fill: none; stroke-dasharray: 0.5,0.825; stroke-dashoffset: 0; stroke: #b0b0b0; stroke-opacity: 0.6; stroke-width: 0.5"/>
     </g>
     <g id="line2d_26">
      <g>
       <use xlink:href="#mff995549d9" x="62.39" y="27.021046" style="stroke: #000000; stroke-width: 0.8"/>
      </g>
     </g>
     <g id="text_14">
      <!-- −0.25 -->
      <g transform="translate(24.744688 30.820265) scale(0.1 -0.1)">
       <defs>
        <path id="DejaVuSans-35" d="M 691 4666 
L 3169 4666 
L 3169 4134 
L 1269 4134 
L 1269 2991 
Q 1406 3038 1543 3061 
Q 1681 3084 1819 3084 
Q 2600 3084 3056 2656 
Q 3513 2228 3513 1497 
Q 3513 744 3044 326 
Q 2575 -91 1722 -91 
Q 1428 -91 1123 -41 
Q 819 9 494 109 
L 494 744 
Q 775 591 1075 516 
Q 1375 441 1709 441 
Q 2250 441 2565 725 
Q 2881 1009 2881 1497 
Q 2881 1984 2565 2268 
Q 2250 2553 1709 2553 
Q 1456 2553 1204 2497 
Q 953 2441 691 2322 
L 691 4666 
z
" transform="scale(0.015625)"/>
       </defs>
       <use xlink:href="#DejaVuSans-2212"/>
       <use xlink:href="#DejaVuSans-30" transform="translate(83.789062 0)"/>
       <use xlink:href="#DejaVuSans-2e" transform="translate(147.412109 0)"/>
       <use xlink:href="#DejaVuSans-32" transform="translate(179.199219 0)"/>
       <use xlink:href="#DejaVuSans-35" transform="translate(242.822266 0)"/>
      </g>
     </g>
    </g>
    <g id="text_15">
     <!-- Running mean of declination -->
     <g transform="translate(18.665 226.302188) rotate(-90) scale(0.1 -0.1)">
      <defs>
       <path id="DejaVuSans-52" d="M 2841 2188 
Q 3044 2119 3236 1894 
Q 3428 1669 3622 1275 
L 4263 0 
L 3584 0 
L 2988 1197 
Q 2756 1666 2539 1819 
Q 2322 1972 1947 1972 
L 1259 1972 
L 1259 0 
L 628 0 
L 628 4666 
L 2053 4666 
Q 2853 4666 3247 4331 
Q 3641 3997 3641 3322 
Q 3641 2881 3436 2590 
Q 3231 2300 2841 2188 
z
M 1259 4147 
L 1259 2491 
L 2053 2491 
Q 2509 2491 2742 2702 
Q 2975 2913 2975 3322 
Q 2975 3731 2742 3939 
Q 2509 4147 2053 4147 
L 1259 4147 
z
" transform="scale(0.015625)"/>
       <path id="DejaVuSans-75" d="M 544 1381 
L 544 3500 
L 1119 3500 
L 1119 1403 
Q 1119 906 1312 657 
Q 1506 409 1894 409 
Q 2359 409 2629 706 
Q 2900 1003 2900 1516 
L 2900 3500 
L 3475 3500 
L 3475 0 
L 2900 0 
L 2900 538 
Q 2691 219 2414 64 
Q 2138 -91 1772 -91 
Q 1169 -91 856 284 
Q 544 659 544 1381 
z
M 1991 3584 
L 1991 3584 
z
" transform="scale(0.015625)"/>
       <path id="DejaVuSans-67" d="M 2906 1791 
Q 2906 2416 2648 2759 
Q 2391 3103 1925 3103 
Q 1463 3103 1205 2759 
Q 947 2416 947 1791 
Q 947 1169 1205 825 
Q 1463 481 1925 481 
Q 2391 481 2648 825 
Q 2906 1169 2906 1791 
z
M 3481 434 
Q 3481 -459 3084 -895 
Q 2688 -1331 1869 -1331 
Q 1566 -1331 1297 -1286 
Q 1028 -1241 775 -1147 
L 775 -588 
Q 1028 -725 1275 -790 
Q 1522 -856 1778 -856 
Q 2344 -856 2625 -561 
Q 2906 -266 2906 331 
L 2906 616 
Q 2728 306 2450 153 
Q 2172 0 1784 0 
Q 1141 0 747 490 
Q 353 981 353 1791 
Q 353 2603 747 3093 
Q 1141 3584 1784 3584 
Q 2172 3584 2450 3431 
Q 2728 3278 2906 2969 
L 2906 3500 
L 3481 3500 
L 3481 434 
z
" transform="scale(0.015625)"/>
       <path id="DejaVuSans-6f" d="M 1959 3097 
Q 1497 3097 1228 2736 
Q 959 2375 959 1747 
Q 959 1119 1226 758 
Q 1494 397 1959 397 
Q 2419 397 2687 759 
Q 2956 1122 2956 1747 
Q 2956 2369 2687 2733 
Q 2419 3097 1959 3097 
z
M 1959 3584 
Q 2709 3584 3137 3096 
Q 3566 2609 3566 1747 
Q 3566 888 3137 398 
Q 2709 -91 1959 -91 
Q 1206 -91 779 398 
Q 353 888 353 1747 
Q 353 2609 779 3096 
Q 1206 3584 1959 3584 
z
" transform="scale(0.015625)"/>
       <path id="DejaVuSans-66" d="M 2375 4863 
L 2375 4384 
L 1825 4384 
Q 1516 4384 1395 4259 
Q 1275 4134 1275 3809 
L 1275 3500 
L 2222 3500 
L 2222 3053 
L 1275 3053 
L 1275 0 
L 697 0 
L 697 3053 
L 147 3053 
L 147 3500 
L 697 3500 
L 697 3744 
Q 697 4328 969 4595 
Q 1241 4863 1831 4863 
L 2375 4863 
z
" transform="scale(0.015625)"/>
       <path id="DejaVuSans-63" d="M 3122 3366 
L 3122 2828 
Q 2878 2963 2633 3030 
Q 2388 3097 2138 3097 
Q 1578 3097 1268 2742 
Q 959 2388 959 1747 
Q 959 1106 1268 751 
Q 1578 397 2138 397 
Q 2388 397 2633 464 
Q 2878 531 3122 666 
L 3122 134 
Q 2881 22 2623 -34 
Q 2366 -91 2075 -91 
Q 1284 -91 818 406 
Q 353 903 353 1747 
Q 353 2603 823 3093 
Q 1294 3584 2113 3584 
Q 2378 3584 2631 3529 
Q 2884 3475 3122 3366 
z
" transform="scale(0.015625)"/>
       <path id="DejaVuSans-74" d="M 1172 4494 
L 1172 3500 
L 2356 3500 
L 2356 3053 
L 1172 3053 
L 1172 1153 
Q 1172 725 1289 603 
Q 1406 481 1766 481 
L 2356 481 
L 2356 0 
L 1766 0 
Q 1100 0 847 248 
Q 594 497 594 1153 
L 594 3053 
L 172 3053 
L 172 3500 
L 594 3500 
L 594 4494 
L 1172 4494 
z
" transform="scale(0.015625)"/>
      </defs>
      <use xlink:href="#DejaVuSans-52"/>
      <use xlink:href="#DejaVuSans-75" transform="translate(64.982422 0)"/>
      <use xlink:href="#DejaVuSans-6e" transform="translate(128.361328 0)"/>
      <use xlink:href="#DejaVuSans-6e" transform="translate(191.740234 0)"/>
      <use xlink:href="#DejaVuSans-69" transform="translate(255.119141 0)"/>
      <use xlink:href="#DejaVuSans-6e" transform="translate(282.902344 0)"/>
      <use xlink:href="#DejaVuSans-67" transform="translate(346.28125 0)"/>
      <use xlink:href="#DejaVuSans-20" transform="translate(409.757812 0)"/>
      <use xlink:href="#DejaVuSans-6d" transform="translate(441.544922 0)"/>
      <use xlink:href="#DejaVuSans-65" transform="translate(538.957031 0)"/>
      <use xlink:href="#DejaVuSans-61" transform="translate(600.480469 0)"/>
      <use xlink:href="#DejaVuSans-6e" transform="translate(661.759766 0)"/>
      <use xlink:href="#DejaVuSans-20" transform="translate(725.138672 0)"/>
      <use xlink:href="#DejaVuSans-6f" transform="translate(756.925781 0)"/>
      <use xlink:href="#DejaVuSans-66" transform="translate(818.107422 0)"/>
      <use xlink:href="#DejaVuSans-20" transform="translate(853.3125 0)"/>
      <use xlink:href="#DejaVuSans-64" transform="translate(885.099609 0)"/>
      <use xlink:href="#DejaVuSans-65" transform="translate(948.576172 0)"/>
      <use xlink:href="#DejaVuSans-63" transform="translate(1010.099609 0)"/>
      <use xlink:href="#DejaVuSans-6c" transform="translate(1065.080078 0)"/>
      <use xlink:href="#DejaVuSans-69" transform="translate(1092.863281 0)"/>
      <use xlink:href="#DejaVuSans-6e" transform="translate(1120.646484 0)"/>
      <use xlink:href="#DejaVuSans-61" transform="translate(1184.025391 0)"/>
      <use xlink:href="#DejaVuSans-74" transform="translate(1245.304688 0)"/>
      <use xlink:href="#DejaVuSans-69" transform="translate(1284.513672 0)"/>
      <use xlink:href="#DejaVuSans-6f" transform="translate(1312.296875 0)"/>
      <use xlink:href="#DejaVuSans-6e" transform="translate(1373.478516 0)"/>
     </g>
    </g>
   </g>
   <g id="line2d_27">
    <path d="M 88.517727 270.342961 
L 88.522953 270.441818 
L 88.564758 269.397652 
L 88.611788 270.190823 
L 88.627465 265.297937 
L 88.836489 181.927705 
L 88.883519 177.837983 
L 88.909647 184.046435 
L 88.993257 199.390324 
L 89.055964 192.26446 
L 89.233634 161.887553 
L 89.505365 126.167841 
L 89.620328 116.714764 
L 89.67781 119.862727 
L 89.871157 129.919213 
L 89.912962 131.771793 
L 90.289205 156.561037 
L 90.299656 156.473281 
L 90.613192 154.401911 
L 90.618418 154.684656 
L 90.958081 170.131209 
L 91.005112 169.788393 
L 91.271617 167.349496 
L 91.747147 163.622393 
L 91.752372 163.758574 
L 91.809854 165.173448 
L 91.883012 164.321165 
L 92.421249 159.022291 
L 92.4317 159.242851 
L 92.980388 169.603665 
L 93.022192 169.437478 
L 93.288698 167.33303 
L 93.44024 165.956695 
L 93.858288 162.407173 
L 94.04641 155.295913 
L 94.527165 135.647487 
L 94.605549 135.762129 
L 94.66303 136.030175 
L 94.678707 135.654143 
L 94.898182 132.318107 
L 95.979881 117.716977 
L 96.251612 114.230754 
L 96.319545 114.423705 
L 96.476313 114.755731 
L 96.486764 114.622259 
L 97.160866 107.451795 
L 97.599816 104.355416 
L 98.11715 102.947505 
L 98.305272 102.946218 
L 98.404558 103.9141 
L 98.482942 103.684702 
L 98.94802 102.713266 
L 99.136142 102.508973 
L 99.324263 102.035046 
L 99.569866 101.47828 
L 99.763214 101.323548 
L 100.327578 95.200644 
L 100.379834 95.238244 
L 100.484346 95.204931 
L 100.489572 95.197882 
L 101.048711 93.767031 
L 101.534691 92.80907 
L 101.900483 89.729803 
L 102.052025 88.753994 
L 102.114733 88.948152 
L 102.302854 89.800037 
L 103.374102 96.284126 
L 103.781698 100.532442 
L 104.163167 102.747424 
L 104.257228 102.532067 
L 104.643922 101.049646 
L 104.71708 101.209808 
L 104.816367 101.517794 
L 104.884299 101.303734 
L 105.046293 100.401053 
L 105.819681 93.710568 
L 105.840584 93.773913 
L 105.871937 93.867417 
L 105.918968 93.673898 
L 106.347467 92.238774 
L 106.812545 92.997819 
L 106.922282 93.199242 
L 106.964087 93.068812 
L 107.444842 91.755736 
L 107.486647 91.873847 
L 107.794957 92.36664 
L 107.800183 92.37515 
L 107.831536 92.235744 
L 107.936048 91.298277 
L 108.422029 86.967986 
L 108.458608 87.025238 
L 108.552669 87.400174 
L 109.143161 91.450216 
L 110.015836 93.756807 
L 110.825804 100.293129 
L 110.977346 100.717231 
L 111.034828 100.576162 
L 111.714156 98.714089 
L 111.797765 98.939913 
L 111.865698 99.440969 
L 112.095624 100.317556 
L 112.461416 101.138994 
L 112.513672 101.01677 
L 112.952622 99.901074 
L 113.031006 100.080244 
L 113.710334 101.881921 
L 114.410564 106.389723 
L 114.499399 106.51486 
L 115.131696 109.101916 
L 115.534067 109.69655 
L 115.737866 110.149345 
L 115.805799 110.013212 
L 116.07753 109.47298 
L 116.129786 109.596923 
L 116.474675 110.194299 
L 116.490352 110.143051 
L 117.033814 108.592783 
L 117.065168 108.62772 
L 117.211484 108.817566 
L 117.26374 108.689674 
L 118.449951 105.7115 
L 118.549237 105.920138 
L 118.883676 106.370559 
L 119.83996 107.275987 
L 119.892216 107.120617 
L 120.723086 104.347921 
L 120.811921 104.514471 
L 121.543505 106.126129 
L 121.689822 106.538855 
L 121.747303 106.389135 
L 122.54682 103.184431 
L 122.787197 102.225573 
L 123.309757 101.711599 
L 123.680774 100.515471 
L 123.889798 99.987138 
L 125.08646 98.218325 
L 126.189061 92.502878 
L 126.413762 91.787861 
L 126.669816 91.781069 
L 127.171474 90.681717 
L 127.234181 90.717818 
L 127.542491 90.763598 
L 127.584296 90.646283 
L 128.242721 88.920703 
L 128.342007 88.736712 
L 128.425617 88.807461 
L 128.446519 88.823165 
L 128.498775 88.724942 
L 128.817537 87.881329 
L 129.120621 87.037298 
L 129.219908 86.940021 
L 129.266938 87.038608 
L 129.298292 87.101867 
L 129.376676 87.016785 
L 130.578563 85.437409 
L 130.740557 85.150897 
L 130.829392 85.234974 
L 131.655036 85.79026 
L 132.005151 86.051573 
L 132.07831 85.909318 
L 132.658351 85.01591 
L 132.804668 85.221667 
L 132.872601 85.127007 
L 133.050271 84.878949 
L 133.123429 84.96341 
L 133.316776 85.324706 
L 133.713922 87.076118 
L 134.304414 87.869908 
L 134.403701 87.819335 
L 134.450731 87.918623 
L 134.952389 88.808296 
L 134.96284 88.803251 
L 135.704875 88.569271 
L 135.913899 88.450705 
L 136.065441 88.29974 
L 136.133374 88.402366 
L 136.457361 88.92272 
L 136.509617 88.859799 
L 137.627895 87.399786 
L 137.779437 86.8618 
L 138.824556 82.961354 
L 138.965648 82.614135 
L 139.320988 80.866072 
L 139.60317 80.077495 
L 140.094377 79.252091 
L 140.115279 79.292331 
L 140.669192 80.15933 
L 140.972277 80.239558 
L 141.118594 80.281774 
L 141.21788 80.360834 
L 141.578446 81.126627 
L 141.682958 80.97693 
L 141.750891 80.887301 
L 141.818824 80.95895 
L 142.153262 81.335301 
L 142.210744 81.274413 
L 142.341384 80.979737 
L 142.65492 80.120677 
L 142.712401 80.171724 
L 142.848267 80.158328 
L 143.219284 79.905266 
L 143.527594 79.727573 
L 143.825453 79.450383 
L 143.956093 79.072484 
L 144.462976 77.558457 
L 144.489104 77.566751 
L 144.771287 77.546126 
L 146.323289 74.619822 
L 146.945135 74.435142 
L 147.431116 73.019936 
L 147.812584 72.26616 
L 148.026834 72.144703 
L 148.063413 72.19306 
L 148.1627 72.151187 
L 148.261986 71.97231 
L 148.747966 70.997574 
L 148.904734 71.09395 
L 149.808763 72.68926 
L 150.895687 74.454532 
L 151.162193 74.485607 
L 151.334637 74.418236 
L 151.465277 74.4228 
L 151.721332 74.649032 
L 152.395434 75.693284 
L 152.552202 75.801551 
L 153.45623 76.923373 
L 153.686156 77.035924 
L 153.701833 77.002442 
L 153.811571 76.765581 
L 154.010143 76.56953 
L 154.098979 76.635867 
L 154.605862 77.125373 
L 156.225797 76.198128 
L 156.267602 76.20272 
L 156.304181 76.12158 
L 156.528881 75.897707 
L 156.643845 75.746267 
L 156.795387 75.61759 
L 156.826741 75.635526 
L 157.589678 75.930999 
L 158.08611 75.867762 
L 158.305585 75.756299 
L 158.399645 75.658975 
L 159.528375 73.837292 
L 161.467071 70.467567 
L 162.000082 70.114488 
L 163.421445 67.607383 
L 164.011937 66.46935 
L 165.506458 62.415766 
L 165.929732 62.079522 
L 166.697895 62.252526 
L 167.100266 62.32347 
L 167.643728 61.820788 
L 167.857977 61.903376 
L 168.155836 62.103295 
L 168.328281 62.189094 
L 168.610463 62.630436 
L 168.93445 62.522081 
L 169.206182 62.312754 
L 169.995247 62.34031 
L 170.517807 62.141842 
L 170.914952 62.073027 
L 171.019464 61.962321 
L 172.106388 60.523107 
L 172.116839 60.534041 
L 172.231803 60.495355 
L 172.681204 60.169851 
L 173.240343 59.45685 
L 173.64794 59.107506 
L 173.752452 59.270548 
L 174.13392 59.684272 
L 174.985693 58.804168 
L 176.239836 58.828984 
L 176.835554 59.455722 
L 177.19612 59.590227 
L 177.504431 59.878346 
L 178.852635 60.294842 
L 179.33339 60.447528 
L 180.331479 61.517349 
L 180.880167 61.565444 
L 181.69536 62.543146 
L 184.0103 62.274135 
L 184.444024 62.452104 
L 184.62692 62.523967 
L 185.170383 62.585477 
L 185.468242 62.823947 
L 186.717159 64.280082 
L 187.062049 64.36338 
L 188.405028 64.857658 
L 188.938038 65.027393 
L 189.2568 65.182195 
L 189.700976 65.248078 
L 190.249664 65.689807 
L 190.939442 65.674069 
L 191.451551 65.570221 
L 191.676252 65.484076 
L 191.70238 65.524021 
L 191.995013 65.782345 
L 192.120427 65.823816 
L 193.181224 66.148213 
L 193.630625 66.027705 
L 193.996417 66.107864 
L 194.477172 65.989658 
L 195.569322 66.401592 
L 195.908986 66.645538 
L 196.206845 66.770966 
L 196.353162 66.751855 
L 197.12655 66.733854 
L 197.325123 66.783186 
L 198.568815 66.676682 
L 199.953598 67.7405 
L 200.486609 68.160926 
L 201.066651 68.35448 
L 201.296577 68.454023 
L 201.725076 68.628877 
L 202.738842 69.626582 
L 202.921738 69.607752 
L 203.412944 69.534143 
L 204.233363 69.529195 
L 204.792502 69.921221 
L 205.059007 70.192625 
L 205.268031 70.250681 
L 205.801042 70.019965 
L 205.983938 69.88907 
L 206.386309 69.51289 
L 206.903643 69.140187 
L 207.253758 68.649198 
L 209.563473 65.043236 
L 210.101709 64.790952 
L 210.315959 64.728993 
L 210.937805 64.459161 
L 211.28792 64.586093 
L 211.491718 64.646821 
L 211.648486 64.551801 
L 212.009052 64.404808 
L 212.390521 64.565719 
L 212.677929 64.704797 
L 214.731589 64.902025 
L 215.426593 64.257032 
L 216.01186 63.454848 
L 216.205207 63.353307 
L 216.377652 63.343484 
L 216.633706 63.427864 
L 216.905437 63.3134 
L 217.548186 62.882753 
L 217.6736 62.984283 
L 217.955783 63.10594 
L 219.439852 62.078634 
L 219.878803 62.153171 
L 220.11918 62.218571 
L 220.349106 62.141794 
L 221.671183 61.395677 
L 221.848853 61.197001 
L 222.334833 60.705056 
L 222.711076 60.723798 
L 223.301569 60.495529 
L 223.453111 60.409626 
L 224.195146 59.559858 
L 225.041693 59.199542 
L 225.553802 59.2061 
L 225.930045 59.096085 
L 226.092038 59.245712 
L 226.562342 59.938489 
L 227.424566 60.790941 
L 227.440242 60.776498 
L 227.638815 60.744611 
L 227.795583 60.665326 
L 229.713377 59.412088 
L 230.48154 59.126906 
L 232.174634 56.750443 
L 232.827834 56.101694 
L 234.463446 53.960489 
L 235.456309 52.872248 
L 236.198344 52.289398 
L 236.64252 51.908646 
L 238.346065 50.911865 
L 239.020167 50.106536 
L 239.302349 49.796619 
L 239.772653 48.989058 
L 240.164573 48.415064 
L 241.491875 46.735677 
L 241.71135 46.724644 
L 241.915148 46.644992 
L 242.10327 46.396676 
L 243.294706 44.958213 
L 248.070902 39.383268 
L 249.048089 38.892463 
L 249.716965 38.526025 
L 249.983471 38.535896 
L 250.312684 38.776918 
L 250.965883 39.192574 
L 251.28987 39.305516 
L 251.629534 39.679355 
L 252.000552 40.028965 
L 252.272283 39.976667 
L 252.486532 39.994637 
L 254.294589 39.962825 
L 254.587223 39.764219 
L 254.707411 39.825975 
L 255.433769 40.182542 
L 256.238511 40.358511 
L 256.515468 40.434852 
L 258.563902 40.609285 
L 259.509736 40.222552 
L 261.286439 40.434601 
L 261.511139 40.468336 
L 261.756743 40.611099 
L 262.164339 40.768768 
L 263.277392 40.75291 
L 263.590927 40.719665 
L 264.536761 41.053826 
L 264.902552 41.228347 
L 265.289247 41.376175 
L 265.487819 41.395658 
L 265.921544 41.533683 
L 266.741963 41.70797 
L 266.98234 41.693016 
L 267.384711 41.595588 
L 268.33577 41.081436 
L 268.576148 40.975899 
L 269.438371 40.577437 
L 270.002736 40.643683 
L 270.499168 40.928701 
L 271.403196 41.989951 
L 271.706281 42.271591 
L 271.998914 42.473952 
L 272.57373 42.927612 
L 273.550917 43.218786 
L 274.063025 43.303604 
L 274.449719 43.370554 
L 274.987956 43.415582 
L 275.463485 43.42799 
L 275.724765 43.360909 
L 276.095783 43.403711 
L 276.268227 43.603345 
L 276.592214 43.812921 
L 276.874397 43.877554 
L 277.114774 43.862589 
L 277.496243 43.717577 
L 278.248729 43.35723 
L 278.478655 43.358569 
L 278.666777 43.458782 
L 278.948959 43.495469 
L 279.309525 43.391181 
L 279.988853 43.584311 
L 280.88243 43.999497 
L 281.164612 44.055144 
L 281.995483 44.314397 
L 282.434433 44.396702 
L 282.857706 44.54224 
L 284.090947 44.640996 
L 284.623958 44.803733 
L 285.721334 45.524253 
L 286.729874 45.508047 
L 287.095666 45.616297 
L 287.947438 46.072819 
L 288.480449 46.450927 
L 289.091844 46.394326 
L 289.441959 46.446216 
L 291.202986 45.915459 
L 291.709869 45.70455 
L 291.992051 45.737328 
L 292.274233 45.621248 
L 293.261871 45.510461 
L 297.191521 45.505165 
L 297.938781 45.882476 
L 299.057059 46.973146 
L 300.541129 47.362615 
L 300.838988 47.378488 
L 301.095042 47.45078 
L 302.762008 47.945179 
L 303.153928 47.988847 
L 304.428973 48.59273 
L 305.583831 48.892072 
L 306.461731 49.060239 
L 307.867417 49.7195 
L 308.489263 49.937279 
L 308.72964 50.037645 
L 309.111109 50.11634 
L 309.633669 49.914387 
L 309.884497 49.870411 
L 310.443636 50.023696 
L 310.976647 49.990155 
L 311.692554 50.050708 
L 312.486845 49.877998 
L 312.873539 49.804929 
L 313.09824 49.714724 
L 314.4987 49.131865 
L 316.045477 49.343197 
L 318.705306 51.166544 
L 319.238317 51.535591 
L 320.70671 51.60384 
L 321.558483 51.873295 
L 322.791724 51.626675 
L 325.033505 50.705112 
L 326.271972 50.399281 
L 326.60641 50.524578 
L 326.977428 50.774903 
L 327.771718 50.977965 
L 328.383113 51.238287 
L 329.010185 51.373396 
L 329.966469 51.731708 
L 330.347938 51.795373 
L 330.823468 51.8935 
L 331.649112 51.742148 
L 332.835323 51.198851 
L 333.133182 51.284989 
L 333.509425 51.306734 
L 333.864765 51.406186 
L 334.3821 51.479514 
L 334.779245 51.622592 
L 336.111772 52.103713 
L 336.911289 52.225924 
L 337.507007 52.3603 
L 338.0975 52.297686 
L 338.620059 52.368173 
L 339.038107 52.286098 
L 339.93691 52.231981 
L 340.799134 51.971276 
L 342.685574 51.372501 
L 343.856108 50.938457 
L 345.502171 50.069211 
L 345.909768 49.987142 
L 346.442779 49.876023 
L 346.803345 49.939298 
L 348.992871 50.173559 
L 349.928253 50.779067 
L 352.729173 49.323536 
L 353.037483 49.21806 
L 353.769067 48.921145 
L 354.14531 49.032955 
L 354.918699 49.52021 
L 356.225098 49.497394 
L 356.601341 49.657914 
L 358.069734 50.002911 
L 359.041695 49.603908 
L 359.444066 49.380147 
L 360.301064 49.089508 
L 360.750466 49.214474 
L 361.408891 49.245377 
L 363.661124 48.505124 
L 364.026915 48.467818 
L 364.800304 48.519853 
L 365.343766 48.319568 
L 365.746137 48.245864 
L 366.25302 48.29285 
L 366.833061 48.314639 
L 367.841602 48.494491 
L 368.385064 48.566215 
L 369.681012 48.593631 
L 370.104286 48.831612 
L 370.731357 49.377464 
L 372.252006 50.403111 
L 374.237733 51.269663 
L 374.582623 51.464115 
L 375.162664 51.669015 
L 375.920376 51.948864 
L 376.777374 51.89356 
L 377.592567 51.960502 
L 377.958359 51.803684 
L 379.092314 51.291064 
L 380.383036 51.223719 
L 380.827212 51.616908 
L 381.496089 52.10803 
L 383.617681 53.368751 
L 385.054721 53.407278 
L 387.390563 52.989937 
L 387.960153 53.208984 
L 390.82378 54.665965 
L 391.82187 54.944859 
L 393.107367 55.488749 
L 393.561994 55.659564 
L 396.321109 56.49735 
L 396.692127 56.536643 
L 400.020832 58.547429 
L 400.543392 58.871768 
L 401.034598 59.006405 
L 401.426518 59.164624 
L 402.999423 59.847556 
L 404.708194 60.019271 
L 405.178497 60.059942 
L 405.721959 59.919106 
L 406.25497 59.767897 
L 407.441181 59.77226 
L 409.322396 60.345953 
L 410.832594 60.309746 
L 411.621659 60.404841 
L 412.510011 60.393834 
L 412.80787 60.355569 
L 413.63874 60.045304 
L 414.067239 60.14805 
L 416.397856 60.826968 
L 417.328012 61.014951 
L 418.441064 61.36826 
L 419.460056 61.210412 
L 419.815397 61.194281 
L 420.343182 61.282066 
L 420.766455 61.317479 
L 421.63913 61.422019 
L 422.47 61.6298 
L 423.368803 61.797666 
L 424.732684 61.810014 
L 424.926031 61.758184 
L 425.270921 61.74784 
L 425.579231 61.96294 
L 426.295138 62.28449 
L 429.017674 62.860485 
L 429.665648 63.104656 
L 430.193434 63.072678 
L 431.003401 63.047608 
L 431.238553 62.996383 
L 432.456117 62.62403 
L 432.931647 62.513705 
L 433.428079 62.445695 
L 433.934962 62.462145 
L 435.110721 62.129601 
L 435.528769 62.126571 
L 436.37009 62.175691 
L 437.321149 62.597247 
L 437.822806 62.561202 
L 438.104989 62.506158 
L 438.549164 62.582611 
L 440.759592 62.180869 
L 442.609454 62.078958 
L 443.294007 62.216708 
L 444.401834 62.442594 
L 446.643615 62.253336 
L 447.427455 62.049722 
L 449.434084 61.799282 
L 450.040254 61.667329 
L 450.886801 61.540653 
L 453.018844 61.505889 
L 454.131897 61.95345 
L 454.576072 62.077872 
L 455.135211 61.984231 
L 455.960856 62.135983 
L 456.817854 62.25107 
L 457.335188 62.252001 
L 458.463917 61.989733 
L 458.991703 61.919748 
L 459.785993 61.808242 
L 461.196905 61.497777 
L 461.609727 61.590276 
L 462.111384 61.616506 
L 462.879547 61.57617 
L 464.73986 61.084614 
L 465.398285 60.946265 
L 465.952199 60.884781 
L 466.349344 60.927566 
L 469.50038 60.906947 
L 470.754523 60.696929 
L 471.412948 60.634011 
L 472.91792 60.260775 
L 473.926461 59.986237 
L 474.553533 59.870327 
L 476.999112 59.865956 
L 477.829982 59.953246 
L 478.310737 59.853695 
L 480.312141 59.66315 
L 480.933987 59.399081 
L 481.576736 59.376343 
L 482.574825 59.780549 
L 483.525884 60.041559 
L 484.037992 60.08497 
L 484.649387 59.973838 
L 485.271233 59.888456 
L 485.589995 59.790647 
L 485.89308 59.798606 
L 488.019898 60.069269 
L 490.700629 60.009734 
L 492.796094 59.980194 
L 495.257351 60.057417 
L 497.075859 60.573942 
L 497.457327 60.68601 
L 498.842111 61.421561 
L 501.219758 61.841155 
L 503.827331 61.130844 
L 506.837275 60.459463 
L 507.276225 60.607226 
L 508.472887 60.904911 
L 509.350788 60.860244 
L 510.134627 60.825045 
L 511.174521 61.057717 
L 512.130806 61.271249 
L 513.766418 61.159997 
L 514.936952 61.098165 
L 515.485639 61.121714 
L 516.891325 61.1249 
L 517.230989 61.141185 
L 518.28656 61.102524 
L 518.526937 61.073305 
L 518.950211 61.086916 
L 522.388654 61.613923 
L 523.637572 61.627864 
L 524.646112 61.622338 
L 526.077926 61.692408 
L 527.175301 61.932225 
L 529.359601 61.65738 
L 530.007575 61.684508 
L 531.057921 61.504346 
L 531.669316 61.497969 
L 532.944361 61.222711 
L 535.285429 60.866353 
L 536.074494 60.806516 
L 537.17187 60.884037 
L 537.595143 61.077779 
L 538.232666 61.253028 
L 540.098205 61.538762 
L 540.981331 61.702109 
L 541.801749 61.787318 
L 543.322398 61.767855 
L 544.048756 61.993831 
L 544.712407 62.189351 
L 545.720948 62.445671 
L 546.666781 62.70902 
L 549.514732 63.092909 
L 550.28812 63.206676 
L 552.670993 64.123507 
L 553.094266 64.153035 
L 553.836301 64.161215 
L 554.379763 64.201165 
L 555.027737 64.171989 
L 555.822028 63.985316 
L 558.147419 63.56101 
L 559.270923 63.597782 
L 559.730775 63.620632 
L 561.51793 63.94344 
L 561.993459 63.927954 
L 562.44286 63.778253 
L 562.939292 63.613452 
L 563.853772 63.68088 
L 564.742123 63.813702 
L 565.698408 63.957035 
L 567.51169 64.036864 
L 568.478426 64.152443 
L 569.617606 64.238922 
L 572.909733 64.358915 
L 573.442744 64.30303 
L 574.660308 64.322892 
L 576.94912 64.516421 
L 578.213714 64.204751 
L 579.608949 64.51187 
L 580.40324 64.679794 
L 582.822692 65.146656 
L 585.404137 65.869897 
L 586.370872 66.134291 
L 587.713851 66.572134 
L 588.016936 66.61122 
L 588.607428 66.661734 
L 589.892925 66.558017 
L 590.776051 66.434384 
L 591.915232 66.34938 
L 593.111893 66.126269 
L 593.749416 66.120139 
L 596.937031 65.684582 
L 599.81111 64.971548 
L 601.269051 64.80802 
L 602.261915 64.56951 
L 603.824369 64.557172 
L 604.602983 64.824658 
L 605.80487 65.12258 
L 606.677545 65.123356 
L 607.388226 65.162456 
L 608.088456 65.190544 
L 608.982034 65.26156 
L 611.072273 65.556783 
L 611.072273 65.556783 
" clip-path="url(#p4c4db7c953)" style="fill: none; stroke: #1f2937; stroke-linecap: square"/>
   </g>
   <g id="line2d_28">
    <path d="M 62.39 65.556783 
L 637.2 65.556783 
" clip-path="url(#p4c4db7c953)" style="fill: none; stroke-dasharray: 2.96,1.28; stroke-dashoffset: 0; stroke: #888888; stroke-width: 0.8"/>
   </g>
   <g id="patch_3">
    <path d="M 62.39 282.04 
L 62.39 26.88 
" style="fill: none; stroke: #000000; stroke-width: 0.8; stroke-linejoin: miter; stroke-linecap: square"/>
   </g>
   <g id="patch_4">
    <path d="M 637.2 282.04 
L 637.2 26.88 
" style="fill: none; stroke: #000000; stroke-width: 0.8; stroke-linejoin: miter; stroke-linecap: square"/>
   </g>
   <g id="patch_5">
    <path d="M 62.39 282.04 
L 637.2 282.04 
" style="fill: none; stroke: #000000; stroke-width: 0.8; stroke-linejoin: miter; stroke-linecap: square"/>
   </g>
   <g id="patch_6">
    <path d="M 62.39 26.88 
L 637.2 26.88 
" style="fill: none; stroke: #000000; stroke-width: 0.8; stroke-linejoin: miter; stroke-linecap: square"/>
   </g>
   <g id="text_16">
    <!-- Running mean — declination  (canonical ReCom ensemble) -->
    <g transform="translate(171.87625 20.88) scale(0.12 -0.12)">
     <defs>
      <path id="DejaVuSans-2014" d="M 313 1978 
L 6088 1978 
L 6088 1528 
L 313 1528 
L 313 1978 
z
" transform="scale(0.015625)"/>
      <path id="DejaVuSans-28" d="M 1984 4856 
Q 1566 4138 1362 3434 
Q 1159 2731 1159 2009 
Q 1159 1288 1364 580 
Q 1569 -128 1984 -844 
L 1484 -844 
Q 1016 -109 783 600 
Q 550 1309 550 2009 
Q 550 2706 781 3412 
Q 1013 4119 1484 4856 
L 1984 4856 
z
" transform="scale(0.015625)"/>
      <path id="DejaVuSans-43" d="M 4122 4306 
L 4122 3641 
Q 3803 3938 3442 4084 
Q 3081 4231 2675 4231 
Q 1875 4231 1450 3742 
Q 1025 3253 1025 2328 
Q 1025 1406 1450 917 
Q 1875 428 2675 428 
Q 3081 428 3442 575 
Q 3803 722 4122 1019 
L 4122 359 
Q 3791 134 3420 21 
Q 3050 -91 2638 -91 
Q 1578 -91 968 557 
Q 359 1206 359 2328 
Q 359 3453 968 4101 
Q 1578 4750 2638 4750 
Q 3056 4750 3426 4639 
Q 3797 4528 4122 4306 
z
" transform="scale(0.015625)"/>
      <path id="DejaVuSans-73" d="M 2834 3397 
L 2834 2853 
Q 2591 2978 2328 3040 
Q 2066 3103 1784 3103 
Q 1356 3103 1142 2972 
Q 928 2841 928 2578 
Q 928 2378 1081 2264 
Q 1234 2150 1697 2047 
L 1894 2003 
Q 2506 1872 2764 1633 
Q 3022 1394 3022 966 
Q 3022 478 2636 193 
Q 2250 -91 1575 -91 
Q 1294 -91 989 -36 
Q 684 19 347 128 
L 347 722 
Q 666 556 975 473 
Q 1284 391 1588 391 
Q 1994 391 2212 530 
Q 2431 669 2431 922 
Q 2431 1156 2273 1281 
Q 2116 1406 1581 1522 
L 1381 1569 
Q 847 1681 609 1914 
Q 372 2147 372 2553 
Q 372 3047 722 3315 
Q 1072 3584 1716 3584 
Q 2034 3584 2315 3537 
Q 2597 3491 2834 3397 
z
" transform="scale(0.015625)"/>
      <path id="DejaVuSans-62" d="M 3116 1747 
Q 3116 2381 2855 2742 
Q 2594 3103 2138 3103 
Q 1681 3103 1420 2742 
Q 1159 2381 1159 1747 
Q 1159 1113 1420 752 
Q 1681 391 2138 391 
Q 2594 391 2855 752 
Q 3116 1113 3116 1747 
z
M 1159 2969 
Q 1341 3281 1617 3432 
Q 1894 3584 2278 3584 
Q 2916 3584 3314 3078 
Q 3713 2572 3713 1747 
Q 3713 922 3314 415 
Q 2916 -91 2278 -91 
Q 1894 -91 1617 61 
Q 1341 213 1159 525 
L 1159 0 
L 581 0 
L 581 4863 
L 1159 4863 
L 1159 2969 
z
" transform="scale(0.015625)"/>
      <path id="DejaVuSans-29" d="M 513 4856 
L 1013 4856 
Q 1481 4119 1714 3412 
Q 1947 2706 1947 2009 
Q 1947 1309 1714 600 
Q 1481 -109 1013 -844 
L 513 -844 
Q 928 -128 1133 580 
Q 1338 1288 1338 2009 
Q 1338 2731 1133 3434 
Q 928 4138 513 4856 
z
" transform="scale(0.015625)"/>
     </defs>
     <use xlink:href="#DejaVuSans-52"/>
     <use xlink:href="#DejaVuSans-75" transform="translate(64.982422 0)"/>
     <use xlink:href="#DejaVuSans-6e" transform="translate(128.361328 0)"/>
     <use xlink:href="#DejaVuSans-6e" transform="translate(191.740234 0)"/>
     <use xlink:href="#DejaVuSans-69" transform="translate(255.119141 0)"/>
     <use xlink:href="#DejaVuSans-6e" transform="translate(282.902344 0)"/>
     <use xlink:href="#DejaVuSans-67" transform="translate(346.28125 0)"/>
     <use xlink:href="#DejaVuSans-20" transform="translate(409.757812 0)"/>
     <use xlink:href="#DejaVuSans-6d" transform="translate(441.544922 0)"/>
     <use xlink:href="#DejaVuSans-65" transform="translate(538.957031 0)"/>
     <use xlink:href="#DejaVuSans-61" transform="translate(600.480469 0)"/>
     <use xlink:href="#DejaVuSans-6e" transform="translate(661.759766 0)"/>
     <use xlink:href="#DejaVuSans-20" transform="translate(725.138672 0)"/>
     <use xlink:href="#DejaVuSans-2014" transform="translate(756.925781 0)"/>
     <use xlink:href="#DejaVuSans-20" transform="translate(856.925781 0)"/>
     <use xlink:href="#DejaVuSans-64" transform="translate(888.712891 0)"/>
     <use xlink:href="#DejaVuSans-65" transform="translate(952.189453 0)"/>
     <use xlink:href="#DejaVuSans-63" transform="translate(1013.712891 0)"/>
     <use xlink:href="#DejaVuSans-6c" transform="translate(1068.693359 0)"/>
     <use xlink:href="#DejaVuSans-69" transform="translate(1096.476562 0)"/>
     <use xlink:href="#DejaVuSans-6e" transform="translate(1124.259766 0)"/>
     <use xlink:href="#DejaVuSans-61" transform="translate(1187.638672 0)"/>
     <use xlink:href="#DejaVuSans-74" transform="translate(1248.917969 0)"/>
     <use xlink:href="#DejaVuSans-69" transform="translate(1288.126953 0)"/>
     <use xlink:href="#DejaVuSans-6f" transform="translate(1315.910156 0)"/>
     <use xlink:href="#DejaVuSans-6e" transform="translate(1377.091797 0)"/>
     <use xlink:href="#DejaVuSans-20" transform="translate(1440.470703 0)"/>
     <use xlink:href="#DejaVuSans-20" transform="translate(1472.257812 0)"/>
     <use xlink:href="#DejaVuSans-28" transform="translate(1504.044922 0)"/>
     <use xlink:href="#DejaVuSans-63" transform="translate(1543.058594 0)"/>
     <use xlink:href="#DejaVuSans-61" transform="translate(1598.039062 0)"/>
     <use xlink:href="#DejaVuSans-6e" transform="translate(1659.318359 0)"/>
     <use xlink:href="#DejaVuSans-6f" transform="translate(1722.697266 0)"/>
     <use xlink:href="#DejaVuSans-6e" transform="translate(1783.878906 0)"/>
     <use xlink:href="#DejaVuSans-69" transform="translate(1847.257812 0)"/>
     <use xlink:href="#DejaVuSans-63" transform="translate(1875.041016 0)"/>
     <use xlink:href="#DejaVuSans-61" transform="translate(1930.021484 0)"/>
     <use xlink:href="#DejaVuSans-6c" transform="translate(1991.300781 0)"/>
     <use xlink:href="#DejaVuSans-20" transform="translate(2019.083984 0)"/>
     <use xlink:href="#DejaVuSans-52" transform="translate(2050.871094 0)"/>
     <use xlink:href="#DejaVuSans-65" transform="translate(2115.853516 0)"/>
     <use xlink:href="#DejaVuSans-43" transform="translate(2177.376953 0)"/>
     <use xlink:href="#DejaVuSans-6f" transform="translate(2247.201172 0)"/>
     <use xlink:href="#DejaVuSans-6d" transform="translate(2308.382812 0)"/>
     <use xlink:href="#DejaVuSans-20" transform="translate(2405.794922 0)"/>
     <use xlink:href="#DejaVuSans-65" transform="translate(2437.582031 0)"/>
     <use xlink:href="#DejaVuSans-6e" transform="translate(2499.105469 0)"/>
     <use xlink:href="#DejaVuSans-73" transform="translate(2562.484375 0)"/>
     <use xlink:href="#DejaVuSans-65" transform="translate(2614.583984 0)"/>
     <use xlink:href="#DejaVuSans-6d" transform="translate(2676.107422 0)"/>
     <use xlink:href="#DejaVuSans-62" transform="translate(2773.519531 0)"/>
     <use xlink:href="#DejaVuSans-6c" transform="translate(2836.996094 0)"/>
     <use xlink:href="#DejaVuSans-65" transform="translate(2864.779297 0)"/>
     <use xlink:href="#DejaVuSans-29" transform="translate(2926.302734 0)"/>
    </g>
   </g>
   <g id="legend_1">
    <g id="patch_7">
     <path d="M 500.601094 47.290312 
L 630.9 47.290312 
Q 632.7 47.290312 632.7 45.490312 
L 632.7 33.18 
Q 632.7 31.38 630.9 31.38 
L 500.601094 31.38 
Q 498.801094 31.38 498.801094 33.18 
L 498.801094 45.490312 
Q 498.801094 47.290312 500.601094 47.290312 
z
" style="fill: #ffffff; opacity: 0.8; stroke: #cccccc; stroke-linejoin: miter"/>
    </g>
    <g id="line2d_29">
     <path d="M 502.401094 38.668594 
L 511.401094 38.668594 
L 520.401094 38.668594 
" style="fill: none; stroke-dasharray: 2.96,1.28; stroke-dashoffset: 0; stroke: #888888; stroke-width: 0.8"/>
    </g>
    <g id="text_17">
     <!-- final mean = -0.26028 -->
     <g transform="translate(527.601094 41.818594) scale(0.09 -0.09)">
      <defs>
       <path id="DejaVuSans-3d" d="M 678 2906 
L 4684 2906 
L 4684 2381 
L 678 2381 
L 678 2906 
z
M 678 1631 
L 4684 1631 
L 4684 1100 
L 678 1100 
L 678 1631 
z
" transform="scale(0.015625)"/>
       <path id="DejaVuSans-2d" d="M 313 2009 
L 1997 2009 
L 1997 1497 
L 313 1497 
L 313 2009 
z
" transform="scale(0.015625)"/>
      </defs>
      <use xlink:href="#DejaVuSans-66"/>
      <use xlink:href="#DejaVuSans-69" transform="translate(35.205078 0)"/>
      <use xlink:href="#DejaVuSans-6e" transform="translate(62.988281 0)"/>
      <use xlink:href="#DejaVuSans-61" transform="translate(126.367188 0)"/>
      <use xlink:href="#DejaVuSans-6c" transform="translate(187.646484 0)"/>
      <use xlink:href="#DejaVuSans-20" transform="translate(215.429688 0)"/>
      <use xlink:href="#DejaVuSans-6d" transform="translate(247.216797 0)"/>
      <use xlink:href="#DejaVuSans-65" transform="translate(344.628906 0)"/>
      <use xlink:href="#DejaVuSans-61" transform="translate(406.152344 0)"/>
      <use xlink:href="#DejaVuSans-6e" transform="translate(467.431641 0)"/>
      <use xlink:href="#DejaVuSans-20" transform="translate(530.810547 0)"/>
      <use xlink:href="#DejaVuSans-3d" transform="translate(562.597656 0)"/>
      <use xlink:href="#DejaVuSans-20" transform="translate(646.386719 0)"/>
      <use xlink:href="#DejaVuSans-2d" transform="translate(678.173828 0)"/>
      <use xlink:href="#DejaVuSans-30" transform="translate(714.257812 0)"/>
      <use xlink:href="#DejaVuSans-2e" transform="translate(777.880859 0)"/>
      <use xlink:href="#DejaVuSans-32" transform="translate(809.667969 0)"/>
      <use xlink:href="#DejaVuSans-36" transform="translate(873.291016 0)"/>
      <use xlink:href="#DejaVuSans-30" transform="translate(936.914062 0)"/>
      <use xlink:href="#DejaVuSans-32" transform="translate(1000.537109 0)"/>
      <use xlink:href="#DejaVuSans-38" transform="translate(1064.160156 0)"/>
     </g>
    </g>
   </g>
  </g>
 </g>
 <defs>
  <clipPath id="p4c4db7c953">
   <rect x="62.39" y="26.88" width="574.81" height="255.16"/>
  </clipPath>
 </defs>
</svg>
