<?xml version="1.0" encoding="utf-8" standalone="no"?>
<!DOCTYPE svg PUBLIC "-//W3C//DTD SVG 1.1//EN"
  "http://www.w3.org/Graphics/SVG/1.1/DTD/svg11.dtd">
<svg xmlns:xlink="http://www.w3.org/1999/xlink" width="648pt" height="324pt" viewBox="0 0 648 324" xmlns="http://www.w3.org/2000/svg" version="1.1">
 <metadata>
  <rdf:RDF xmlns:dc="http://purl.org/dc/elements/1.1/" xmlns:cc="http://creativecommons.org/ns#" xmlns:rdf="http://www.w3.org/1999/02/22-rdf-syntax-ns#">
   <cc:Work>
    <dc:type rdf:resource="http://purl.org/dc/dcmitype/StillImage"/>
    <dc:date>2026-05-07T00:11:13.342928</dc:date>
    <dc:format>image/svg+xml</dc:format>
    <dc:creator>
     <cc:Agent>
      <dc:title>Matplotlib v3.10.8, https://matplotlib.org/</dc:title>
     </cc:Agent>
    </dc:creator>
   </cc:Work>
  </rdf:RDF>
 </metadata>
 <defs>
  <style type="text/css">*{stroke-linejoin: round; stroke-linecap: butt}</style>
 </defs>
 <g id="figure_1">
  <g id="patch_1">
   <path d="M 0 324 
L 648 324 
L 648 0 
L 0 0 
z
" style="fill: #ffffff"/>
  </g>
  <g id="axes_1">
   <g id="patch_2">
    <path d="M 66.63125 282.04 
L 637.2 282.04 
L 637.2 26.88 
L 66.63125 26.88 
z
" style="fill: #ffffff"/>
   </g>
   <g id="matplotlib.axis_1">
    <g id="xtick_1">
     <g id="line2d_1">
      <path d="M 92.555819 282.04 
L 92.555819 26.88 
" clip-path="url(#pcf2616ff23)" style="fill: none; stroke-dasharray: 0.5,0.825; stroke-dashoffset: 0; stroke: #b0b0b0; stroke-opacity: 0.6; stroke-width: 0.5"/>
     </g>
     <g id="line2d_2">
      <defs>
       <path id="mfe009d20bc" d="M 0 0 
L 0 3.5 
" style="stroke: #000000; stroke-width: 0.8"/>
      </defs>
      <g>
       <use xlink:href="#mfe009d20bc" x="92.555819" y="282.04" style="stroke: #000000; stroke-width: 0.8"/>
      </g>
     </g>
     <g id="text_1">
      <!-- 0 -->
      <g transform="translate(89.374569 296.638438) scale(0.1 -0.1)">
       <defs>
        <path id="DejaVuSans-30" d="M 2034 4250 
Q 1547 4250 1301 3770 
Q 1056 3291 1056 2328 
Q 1056 1369 1301 889 
Q 1547 409 2034 409 
Q 2525 409 2770 889 
Q 3016 1369 3016 2328 
Q 3016 3291 2770 3770 
Q 2525 4250 2034 4250 
z
M 2034 4750 
Q 2819 4750 3233 4129 
Q 3647 3509 3647 2328 
Q 3647 1150 3233 529 
Q 2819 -91 2034 -91 
Q 1250 -91 836 529 
Q 422 1150 422 2328 
Q 422 3509 836 4129 
Q 1250 4750 2034 4750 
z
" transform="scale(0.015625)"/>
       </defs>
       <use xlink:href="#DejaVuSans-30"/>
      </g>
     </g>
    </g>
    <g id="xtick_2">
     <g id="line2d_3">
      <path d="M 196.297667 282.04 
L 196.297667 26.88 
" clip-path="url(#pcf2616ff23)" style="fill: none; stroke-dasharray: 0.5,0.825; stroke-dashoffset: 0; stroke: #b0b0b0; stroke-opacity: 0.6; stroke-width: 0.5"/>
     </g>
     <g id="line2d_4">
      <g>
       <use xlink:href="#mfe009d20bc" x="196.297667" y="282.04" style="stroke: #000000; stroke-width: 0.8"/>
      </g>
     </g>
     <g id="text_2">
      <!-- 10000 -->
      <g transform="translate(180.391417 296.638438) scale(0.1 -0.1)">
       <defs>
        <path id="DejaVuSans-31" d="M 794 531 
L 1825 531 
L 1825 4091 
L 703 3866 
L 703 4441 
L 1819 4666 
L 2450 4666 
L 2450 531 
L 3481 531 
L 3481 0 
L 794 0 
L 794 531 
z
" transform="scale(0.015625)"/>
       </defs>
       <use xlink:href="#DejaVuSans-31"/>
       <use xlink:href="#DejaVuSans-30" transform="translate(63.623047 0)"/>
       <use xlink:href="#DejaVuSans-30" transform="translate(127.246094 0)"/>
       <use xlink:href="#DejaVuSans-30" transform="translate(190.869141 0)"/>
       <use xlink:href="#DejaVuSans-30" transform="translate(254.492188 0)"/>
      </g>
     </g>
    </g>
    <g id="xtick_3">
     <g id="line2d_5">
      <path d="M 300.039514 282.04 
L 300.039514 26.88 
" clip-path="url(#pcf2616ff23)" style="fill: none; stroke-dasharray: 0.5,0.825; stroke-dashoffset: 0; stroke: #b0b0b0; stroke-opacity: 0.6; stroke-width: 0.5"/>
     </g>
     <g id="line2d_6">
      <g>
       <use xlink:href="#mfe009d20bc" x="300.039514" y="282.04" style="stroke: #000000; stroke-width: 0.8"/>
      </g>
     </g>
     <g id="text_3">
      <!-- 20000 -->
      <g transform="translate(284.133264 296.638438) scale(0.1 -0.1)">
       <defs>
        <path id="DejaVuSans-32" d="M 1228 531 
L 3431 531 
L 3431 0 
L 469 0 
L 469 531 
Q 828 903 1448 1529 
Q 2069 2156 2228 2338 
Q 2531 2678 2651 2914 
Q 2772 3150 2772 3378 
Q 2772 3750 2511 3984 
Q 2250 4219 1831 4219 
Q 1534 4219 1204 4116 
Q 875 4013 500 3803 
L 500 4441 
Q 881 4594 1212 4672 
Q 1544 4750 1819 4750 
Q 2544 4750 2975 4387 
Q 3406 4025 3406 3419 
Q 3406 3131 3298 2873 
Q 3191 2616 2906 2266 
Q 2828 2175 2409 1742 
Q 1991 1309 1228 531 
z
" transform="scale(0.015625)"/>
       </defs>
       <use xlink:href="#DejaVuSans-32"/>
       <use xlink:href="#DejaVuSans-30" transform="translate(63.623047 0)"/>
       <use xlink:href="#DejaVuSans-30" transform="translate(127.246094 0)"/>
       <use xlink:href="#DejaVuSans-30" transform="translate(190.869141 0)"/>
       <use xlink:href="#DejaVuSans-30" transform="translate(254.492188 0)"/>
      </g>
     </g>
    </g>
    <g id="xtick_4">
     <g id="line2d_7">
      <path d="M 403.781362 282.04 
L 403.781362 26.88 
" clip-path="url(#pcf2616ff23)" style="fill: none; stroke-dasharray: 0.5,0.825; stroke-dashoffset: 0; stroke: #b0b0b0; stroke-opacity: 0.6; stroke-width: 0.5"/>
     </g>
     <g id="line2d_8">
      <g>
       <use xlink:href="#mfe009d20bc" x="403.781362" y="282.04" style="stroke: #000000; stroke-width: 0.8"/>
      </g>
     </g>
     <g id="text_4">
      <!-- 30000 -->
      <g transform="translate(387.875112 296.638438) scale(0.1 -0.1)">
       <defs>
        <path id="DejaVuSans-33" d="M 2597 2516 
Q 3050 2419 3304 2112 
Q 3559 1806 3559 1356 
Q 3559 666 3084 287 
Q 2609 -91 1734 -91 
Q 1441 -91 1130 -33 
Q 819 25 488 141 
L 488 750 
Q 750 597 1062 519 
Q 1375 441 1716 441 
Q 2309 441 2620 675 
Q 2931 909 2931 1356 
Q 2931 1769 2642 2001 
Q 2353 2234 1838 2234 
L 1294 2234 
L 1294 2753 
L 1863 2753 
Q 2328 2753 2575 2939 
Q 2822 3125 2822 3475 
Q 2822 3834 2567 4026 
Q 2313 4219 1838 4219 
Q 1578 4219 1281 4162 
Q 984 4106 628 3988 
L 628 4550 
Q 988 4650 1302 4700 
Q 1616 4750 1894 4750 
Q 2613 4750 3031 4423 
Q 3450 4097 3450 3541 
Q 3450 3153 3228 2886 
Q 3006 2619 2597 2516 
z
" transform="scale(0.015625)"/>
       </defs>
       <use xlink:href="#DejaVuSans-33"/>
       <use xlink:href="#DejaVuSans-30" transform="translate(63.623047 0)"/>
       <use xlink:href="#DejaVuSans-30" transform="translate(127.246094 0)"/>
       <use xlink:href="#DejaVuSans-30" transform="translate(190.869141 0)"/>
       <use xlink:href="#DejaVuSans-30" transform="translate(254.492188 0)"/>
      </g>
     </g>
    </g>
    <g id="xtick_5">
     <g id="line2d_9">
      <path d="M 507.523209 282.04 
L 507.523209 26.88 
" clip-path="url(#pcf2616ff23)" style="fill: none; stroke-dasharray: 0.5,0.825; stroke-dashoffset: 0; stroke: #b0b0b0; stroke-opacity: 0.6; stroke-width: 0.5"/>
     </g>
     <g id="line2d_10">
      <g>
       <use xlink:href="#mfe009d20bc" x="507.523209" y="282.04" style="stroke: #000000; stroke-width: 0.8"/>
      </g>
     </g>
     <g id="text_5">
      <!-- 40000 -->
      <g transform="translate(491.616959 296.638438) scale(0.1 -0.1)">
       <defs>
        <path id="DejaVuSans-34" d="M 2419 4116 
L 825 1625 
L 2419 1625 
L 2419 4116 
z
M 2253 4666 
L 3047 4666 
L 3047 1625 
L 3713 1625 
L 3713 1100 
L 3047 1100 
L 3047 0 
L 2419 0 
L 2419 1100 
L 313 1100 
L 313 1709 
L 2253 4666 
z
" transform="scale(0.015625)"/>
       </defs>
       <use xlink:href="#DejaVuSans-34"/>
       <use xlink:href="#DejaVuSans-30" transform="translate(63.623047 0)"/>
       <use xlink:href="#DejaVuSans-30" transform="translate(127.246094 0)"/>
       <use xlink:href="#DejaVuSans-30" transform="translate(190.869141 0)"/>
       <use xlink:href="#DejaVuSans-30" transform="translate(254.492188 0)"/>
      </g>
     </g>
    </g>
    <g id="xtick_6">
     <g id="line2d_11">
      <path d="M 611.265057 282.04 
L 611.265057 26.88 
" clip-path="url(#pcf2616ff23)" style="fill: none; stroke-dasharray: 0.5,0.825; stroke-dashoffset: 0; stroke: #b0b0b0; stroke-opacity: 0.6; stroke-width: 0.5"/>
     </g>
     <g id="line2d_12">
      <g>
       <use xlink:href="#mfe009d20bc" x="611.265057" y="282.04" style="stroke: #000000; stroke-width: 0.8"/>
      </g>
     </g>
     <g id="text_6">
      <!-- 50000 -->
      <g transform="translate(595.358807 296.638438) scale(0.1 -0.1)">
       <defs>
        <path id="DejaVuSans-35" d="M 691 4666 
L 3169 4666 
L 3169 4134 
L 1269 4134 
L 1269 2991 
Q 1406 3038 1543 3061 
Q 1681 3084 1819 3084 
Q 2600 3084 3056 2656 
Q 3513 2228 3513 1497 
Q 3513 744 3044 326 
Q 2575 -91 1722 -91 
Q 1428 -91 1123 -41 
Q 819 9 494 109 
L 494 744 
Q 775 591 1075 516 
Q 1375 441 1709 441 
Q 2250 441 2565 725 
Q 2881 1009 2881 1497 
Q 2881 1984 2565 2268 
Q 2250 2553 1709 2553 
Q 1456 2553 1204 2497 
Q 953 2441 691 2322 
L 691 4666 
z
" transform="scale(0.015625)"/>
       </defs>
       <use xlink:href="#DejaVuSans-35"/>
       <use xlink:href="#DejaVuSans-30" transform="translate(63.623047 0)"/>
       <use xlink:href="#DejaVuSans-30" transform="translate(127.246094 0)"/>
       <use xlink:href="#DejaVuSans-30" transform="translate(190.869141 0)"/>
       <use xlink:href="#DejaVuSans-30" transform="translate(254.492188 0)"/>
      </g>
     </g>
    </g>
    <g id="text_7">
     <!-- Sample index -->
     <g transform="translate(317.897656 310.316563) scale(0.1 -0.1)">
      <defs>
       <path id="DejaVuSans-53" d="M 3425 4513 
L 3425 3897 
Q 3066 4069 2747 4153 
Q 2428 4238 2131 4238 
Q 1616 4238 1336 4038 
Q 1056 3838 1056 3469 
Q 1056 3159 1242 3001 
Q 1428 2844 1947 2747 
L 2328 2669 
Q 3034 2534 3370 2195 
Q 3706 1856 3706 1288 
Q 3706 609 3251 259 
Q 2797 -91 1919 -91 
Q 1588 -91 1214 -16 
Q 841 59 441 206 
L 441 856 
Q 825 641 1194 531 
Q 1563 422 1919 422 
Q 2459 422 2753 634 
Q 3047 847 3047 1241 
Q 3047 1584 2836 1778 
Q 2625 1972 2144 2069 
L 1759 2144 
Q 1053 2284 737 2584 
Q 422 2884 422 3419 
Q 422 4038 858 4394 
Q 1294 4750 2059 4750 
Q 2388 4750 2728 4690 
Q 3069 4631 3425 4513 
z
" transform="scale(0.015625)"/>
       <path id="DejaVuSans-61" d="M 2194 1759 
Q 1497 1759 1228 1600 
Q 959 1441 959 1056 
Q 959 750 1161 570 
Q 1363 391 1709 391 
Q 2188 391 2477 730 
Q 2766 1069 2766 1631 
L 2766 1759 
L 2194 1759 
z
M 3341 1997 
L 3341 0 
L 2766 0 
L 2766 531 
Q 2569 213 2275 61 
Q 1981 -91 1556 -91 
Q 1019 -91 701 211 
Q 384 513 384 1019 
Q 384 1609 779 1909 
Q 1175 2209 1959 2209 
L 2766 2209 
L 2766 2266 
Q 2766 2663 2505 2880 
Q 2244 3097 1772 3097 
Q 1472 3097 1187 3025 
Q 903 2953 641 2809 
L 641 3341 
Q 956 3463 1253 3523 
Q 1550 3584 1831 3584 
Q 2591 3584 2966 3190 
Q 3341 2797 3341 1997 
z
" transform="scale(0.015625)"/>
       <path id="DejaVuSans-6d" d="M 3328 2828 
Q 3544 3216 3844 3400 
Q 4144 3584 4550 3584 
Q 5097 3584 5394 3201 
Q 5691 2819 5691 2113 
L 5691 0 
L 5113 0 
L 5113 2094 
Q 5113 2597 4934 2840 
Q 4756 3084 4391 3084 
Q 3944 3084 3684 2787 
Q 3425 2491 3425 1978 
L 3425 0 
L 2847 0 
L 2847 2094 
Q 2847 2600 2669 2842 
Q 2491 3084 2119 3084 
Q 1678 3084 1418 2786 
Q 1159 2488 1159 1978 
L 1159 0 
L 581 0 
L 581 3500 
L 1159 3500 
L 1159 2956 
Q 1356 3278 1631 3431 
Q 1906 3584 2284 3584 
Q 2666 3584 2933 3390 
Q 3200 3197 3328 2828 
z
" transform="scale(0.015625)"/>
       <path id="DejaVuSans-70" d="M 1159 525 
L 1159 -1331 
L 581 -1331 
L 581 3500 
L 1159 3500 
L 1159 2969 
Q 1341 3281 1617 3432 
Q 1894 3584 2278 3584 
Q 2916 3584 3314 3078 
Q 3713 2572 3713 1747 
Q 3713 922 3314 415 
Q 2916 -91 2278 -91 
Q 1894 -91 1617 61 
Q 1341 213 1159 525 
z
M 3116 1747 
Q 3116 2381 2855 2742 
Q 2594 3103 2138 3103 
Q 1681 3103 1420 2742 
Q 1159 2381 1159 1747 
Q 1159 1113 1420 752 
Q 1681 391 2138 391 
Q 2594 391 2855 752 
Q 3116 1113 3116 1747 
z
" transform="scale(0.015625)"/>
       <path id="DejaVuSans-6c" d="M 603 4863 
L 1178 4863 
L 1178 0 
L 603 0 
L 603 4863 
z
" transform="scale(0.015625)"/>
       <path id="DejaVuSans-65" d="M 3597 1894 
L 3597 1613 
L 953 1613 
Q 991 1019 1311 708 
Q 1631 397 2203 397 
Q 2534 397 2845 478 
Q 3156 559 3463 722 
L 3463 178 
Q 3153 47 2828 -22 
Q 2503 -91 2169 -91 
Q 1331 -91 842 396 
Q 353 884 353 1716 
Q 353 2575 817 3079 
Q 1281 3584 2069 3584 
Q 2775 3584 3186 3129 
Q 3597 2675 3597 1894 
z
M 3022 2063 
Q 3016 2534 2758 2815 
Q 2500 3097 2075 3097 
Q 1594 3097 1305 2825 
Q 1016 2553 972 2059 
L 3022 2063 
z
" transform="scale(0.015625)"/>
       <path id="DejaVuSans-20" transform="scale(0.015625)"/>
       <path id="DejaVuSans-69" d="M 603 3500 
L 1178 3500 
L 1178 0 
L 603 0 
L 603 3500 
z
M 603 4863 
L 1178 4863 
L 1178 4134 
L 603 4134 
L 603 4863 
z
" transform="scale(0.015625)"/>
       <path id="DejaVuSans-6e" d="M 3513 2113 
L 3513 0 
L 2938 0 
L 2938 2094 
Q 2938 2591 2744 2837 
Q 2550 3084 2163 3084 
Q 1697 3084 1428 2787 
Q 1159 2491 1159 1978 
L 1159 0 
L 581 0 
L 581 3500 
L 1159 3500 
L 1159 2956 
Q 1366 3272 1645 3428 
Q 1925 3584 2291 3584 
Q 2894 3584 3203 3211 
Q 3513 2838 3513 2113 
z
" transform="scale(0.015625)"/>
       <path id="DejaVuSans-64" d="M 2906 2969 
L 2906 4863 
L 3481 4863 
L 3481 0 
L 2906 0 
L 2906 525 
Q 2725 213 2448 61 
Q 2172 -91 1784 -91 
Q 1150 -91 751 415 
Q 353 922 353 1747 
Q 353 2572 751 3078 
Q 1150 3584 1784 3584 
Q 2172 3584 2448 3432 
Q 2725 3281 2906 2969 
z
M 947 1747 
Q 947 1113 1208 752 
Q 1469 391 1925 391 
Q 2381 391 2643 752 
Q 2906 1113 2906 1747 
Q 2906 2381 2643 2742 
Q 2381 3103 1925 3103 
Q 1469 3103 1208 2742 
Q 947 2381 947 1747 
z
" transform="scale(0.015625)"/>
       <path id="DejaVuSans-78" d="M 3513 3500 
L 2247 1797 
L 3578 0 
L 2900 0 
L 1881 1375 
L 863 0 
L 184 0 
L 1544 1831 
L 300 3500 
L 978 3500 
L 1906 2253 
L 2834 3500 
L 3513 3500 
z
" transform="scale(0.015625)"/>
      </defs>
      <use xlink:href="#DejaVuSans-53"/>
      <use xlink:href="#DejaVuSans-61" transform="translate(63.476562 0)"/>
      <use xlink:href="#DejaVuSans-6d" transform="translate(124.755859 0)"/>
      <use xlink:href="#DejaVuSans-70" transform="translate(222.167969 0)"/>
      <use xlink:href="#DejaVuSans-6c" transform="translate(285.644531 0)"/>
      <use xlink:href="#DejaVuSans-65" transform="translate(313.427734 0)"/>
      <use xlink:href="#DejaVuSans-20" transform="translate(374.951172 0)"/>
      <use xlink:href="#DejaVuSans-69" transform="translate(406.738281 0)"/>
      <use xlink:href="#DejaVuSans-6e" transform="translate(434.521484 0)"/>
      <use xlink:href="#DejaVuSans-64" transform="translate(497.900391 0)"/>
      <use xlink:href="#DejaVuSans-65" transform="translate(561.376953 0)"/>
      <use xlink:href="#DejaVuSans-78" transform="translate(621.150391 0)"/>
     </g>
    </g>
   </g>
   <g id="matplotlib.axis_2">
    <g id="ytick_1">
     <g id="line2d_13">
      <path d="M 66.63125 261.338594 
L 637.2 261.338594 
" clip-path="url(#pcf2616ff23)" style="fill: none; stroke-dasharray: 0.5,0.825; stroke-dashoffset: 0; stroke: #b0b0b0; stroke-opacity: 0.6; stroke-width: 0.5"/>
     </g>
     <g id="line2d_14">
      <defs>
       <path id="m7245e6bb92" d="M 0 0 
L -3.5 0 
" style="stroke: #000000; stroke-width: 0.8"/>
      </defs>
      <g>
       <use xlink:href="#m7245e6bb92" x="66.63125" y="261.338594" style="stroke: #000000; stroke-width: 0.8"/>
      </g>
     </g>
     <g id="text_8">
      <!-- 0.4375 -->
      <g transform="translate(24.640625 265.137813) scale(0.1 -0.1)">
       <defs>
        <path id="DejaVuSans-2e" d="M 684 794 
L 1344 794 
L 1344 0 
L 684 0 
L 684 794 
z
" transform="scale(0.015625)"/>
        <path id="DejaVuSans-37" d="M 525 4666 
L 3525 4666 
L 3525 4397 
L 1831 0 
L 1172 0 
L 2766 4134 
L 525 4134 
L 525 4666 
z
" transform="scale(0.015625)"/>
       </defs>
       <use xlink:href="#DejaVuSans-30"/>
       <use xlink:href="#DejaVuSans-2e" transform="translate(63.623047 0)"/>
       <use xlink:href="#DejaVuSans-34" transform="translate(95.410156 0)"/>
       <use xlink:href="#DejaVuSans-33" transform="translate(159.033203 0)"/>
       <use xlink:href="#DejaVuSans-37" transform="translate(222.65625 0)"/>
       <use xlink:href="#DejaVuSans-35" transform="translate(286.279297 0)"/>
      </g>
     </g>
    </g>
    <g id="ytick_2">
     <g id="line2d_15">
      <path d="M 66.63125 229.659374 
L 637.2 229.659374 
" clip-path="url(#pcf2616ff23)" style="fill: none; stroke-dasharray: 0.5,0.825; stroke-dashoffset: 0; stroke: #b0b0b0; stroke-opacity: 0.6; stroke-width: 0.5"/>
     </g>
     <g id="line2d_16">
      <g>
       <use xlink:href="#m7245e6bb92" x="66.63125" y="229.659374" style="stroke: #000000; stroke-width: 0.8"/>
      </g>
     </g>
     <g id="text_9">
      <!-- 0.4400 -->
      <g transform="translate(24.640625 233.458593) scale(0.1 -0.1)">
       <use xlink:href="#DejaVuSans-30"/>
       <use xlink:href="#DejaVuSans-2e" transform="translate(63.623047 0)"/>
       <use xlink:href="#DejaVuSans-34" transform="translate(95.410156 0)"/>
       <use xlink:href="#DejaVuSans-34" transform="translate(159.033203 0)"/>
       <use xlink:href="#DejaVuSans-30" transform="translate(222.65625 0)"/>
       <use xlink:href="#DejaVuSans-30" transform="translate(286.279297 0)"/>
      </g>
     </g>
    </g>
    <g id="ytick_3">
     <g id="line2d_17">
      <path d="M 66.63125 197.980154 
L 637.2 197.980154 
" clip-path="url(#pcf2616ff23)" style="fill: none; stroke-dasharray: 0.5,0.825; stroke-dashoffset: 0; stroke: #b0b0b0; stroke-opacity: 0.6; stroke-width: 0.5"/>
     </g>
     <g id="line2d_18">
      <g>
       <use xlink:href="#m7245e6bb92" x="66.63125" y="197.980154" style="stroke: #000000; stroke-width: 0.8"/>
      </g>
     </g>
     <g id="text_10">
      <!-- 0.4425 -->
      <g transform="translate(24.640625 201.779373) scale(0.1 -0.1)">
       <use xlink:href="#DejaVuSans-30"/>
       <use xlink:href="#DejaVuSans-2e" transform="translate(63.623047 0)"/>
       <use xlink:href="#DejaVuSans-34" transform="translate(95.410156 0)"/>
       <use xlink:href="#DejaVuSans-34" transform="translate(159.033203 0)"/>
       <use xlink:href="#DejaVuSans-32" transform="translate(222.65625 0)"/>
       <use xlink:href="#DejaVuSans-35" transform="translate(286.279297 0)"/>
      </g>
     </g>
    </g>
    <g id="ytick_4">
     <g id="line2d_19">
      <path d="M 66.63125 166.300934 
L 637.2 166.300934 
" clip-path="url(#pcf2616ff23)" style="fill: none; stroke-dasharray: 0.5,0.825; stroke-dashoffset: 0; stroke: #b0b0b0; stroke-opacity: 0.6; stroke-width: 0.5"/>
     </g>
     <g id="line2d_20">
      <g>
       <use xlink:href="#m7245e6bb92" x="66.63125" y="166.300934" style="stroke: #000000; stroke-width: 0.8"/>
      </g>
     </g>
     <g id="text_11">
      <!-- 0.4450 -->
      <g transform="translate(24.640625 170.100153) scale(0.1 -0.1)">
       <use xlink:href="#DejaVuSans-30"/>
       <use xlink:href="#DejaVuSans-2e" transform="translate(63.623047 0)"/>
       <use xlink:href="#DejaVuSans-34" transform="translate(95.410156 0)"/>
       <use xlink:href="#DejaVuSans-34" transform="translate(159.033203 0)"/>
       <use xlink:href="#DejaVuSans-35" transform="translate(222.65625 0)"/>
       <use xlink:href="#DejaVuSans-30" transform="translate(286.279297 0)"/>
      </g>
     </g>
    </g>
    <g id="ytick_5">
     <g id="line2d_21">
      <path d="M 66.63125 134.621715 
L 637.2 134.621715 
" clip-path="url(#pcf2616ff23)" style="fill: none; stroke-dasharray: 0.5,0.825; stroke-dashoffset: 0; stroke: #b0b0b0; stroke-opacity: 0.6; stroke-width: 0.5"/>
     </g>
     <g id="line2d_22">
      <g>
       <use xlink:href="#m7245e6bb92" x="66.63125" y="134.621715" style="stroke: #000000; stroke-width: 0.8"/>
      </g>
     </g>
     <g id="text_12">
      <!-- 0.4475 -->
      <g transform="translate(24.640625 138.420933) scale(0.1 -0.1)">
       <use xlink:href="#DejaVuSans-30"/>
       <use xlink:href="#DejaVuSans-2e" transform="translate(63.623047 0)"/>
       <use xlink:href="#DejaVuSans-34" transform="translate(95.410156 0)"/>
       <use xlink:href="#DejaVuSans-34" transform="translate(159.033203 0)"/>
       <use xlink:href="#DejaVuSans-37" transform="translate(222.65625 0)"/>
       <use xlink:href="#DejaVuSans-35" transform="translate(286.279297 0)"/>
      </g>
     </g>
    </g>
    <g id="ytick_6">
     <g id="line2d_23">
      <path d="M 66.63125 102.942495 
L 637.2 102.942495 
" clip-path="url(#pcf2616ff23)" style="fill: none; stroke-dasharray: 0.5,0.825; stroke-dashoffset: 0; stroke: #b0b0b0; stroke-opacity: 0.6; stroke-width: 0.5"/>
     </g>
     <g id="line2d_24">
      <g>
       <use xlink:href="#m7245e6bb92" x="66.63125" y="102.942495" style="stroke: #000000; stroke-width: 0.8"/>
      </g>
     </g>
     <g id="text_13">
      <!-- 0.4500 -->
      <g transform="translate(24.640625 106.741713) scale(0.1 -0.1)">
       <use xlink:href="#DejaVuSans-30"/>
       <use xlink:href="#DejaVuSans-2e" transform="translate(63.623047 0)"/>
       <use xlink:href="#DejaVuSans-34" transform="translate(95.410156 0)"/>
       <use xlink:href="#DejaVuSans-35" transform="translate(159.033203 0)"/>
       <use xlink:href="#DejaVuSans-30" transform="translate(222.65625 0)"/>
       <use xlink:href="#DejaVuSans-30" transform="translate(286.279297 0)"/>
      </g>
     </g>
    </g>
    <g id="ytick_7">
     <g id="line2d_25">
      <path d="M 66.63125 71.263275 
L 637.2 71.263275 
" clip-path="url(#pcf2616ff23)" style="fill: none; stroke-dasharray: 0.5,0.825; stroke-dashoffset: 0; stroke: #b0b0b0; stroke-opacity: 0.6; stroke-width: 0.5"/>
     </g>
     <g id="line2d_26">
      <g>
       <use xlink:href="#m7245e6bb92" x="66.63125" y="71.263275" style="stroke: #000000; stroke-width: 0.8"/>
      </g>
     </g>
     <g id="text_14">
      <!-- 0.4525 -->
      <g transform="translate(24.640625 75.062494) scale(0.1 -0.1)">
       <use xlink:href="#DejaVuSans-30"/>
       <use xlink:href="#DejaVuSans-2e" transform="translate(63.623047 0)"/>
       <use xlink:href="#DejaVuSans-34" transform="translate(95.410156 0)"/>
       <use xlink:href="#DejaVuSans-35" transform="translate(159.033203 0)"/>
       <use xlink:href="#DejaVuSans-32" transform="translate(222.65625 0)"/>
       <use xlink:href="#DejaVuSans-35" transform="translate(286.279297 0)"/>
      </g>
     </g>
    </g>
    <g id="ytick_8">
     <g id="line2d_27">
      <path d="M 66.63125 39.584055 
L 637.2 39.584055 
" clip-path="url(#pcf2616ff23)" style="fill: none; stroke-dasharray: 0.5,0.825; stroke-dashoffset: 0; stroke: #b0b0b0; stroke-opacity: 0.6; stroke-width: 0.5"/>
     </g>
     <g id="line2d_28">
      <g>
       <use xlink:href="#m7245e6bb92" x="66.63125" y="39.584055" style="stroke: #000000; stroke-width: 0.8"/>
      </g>
     </g>
     <g id="text_15">
      <!-- 0.4550 -->
      <g transform="translate(24.640625 43.383274) scale(0.1 -0.1)">
       <use xlink:href="#DejaVuSans-30"/>
       <use xlink:href="#DejaVuSans-2e" transform="translate(63.623047 0)"/>
       <use xlink:href="#DejaVuSans-34" transform="translate(95.410156 0)"/>
       <use xlink:href="#DejaVuSans-35" transform="translate(159.033203 0)"/>
       <use xlink:href="#DejaVuSans-35" transform="translate(222.65625 0)"/>
       <use xlink:href="#DejaVuSans-30" transform="translate(286.279297 0)"/>
      </g>
     </g>
    </g>
    <g id="text_16">
     <!-- Running mean of seats_at_50_50 -->
     <g transform="translate(18.282813 237.273281) rotate(-90) scale(0.1 -0.1)">
      <defs>
       <path id="DejaVuSans-52" d="M 2841 2188 
Q 3044 2119 3236 1894 
Q 3428 1669 3622 1275 
L 4263 0 
L 3584 0 
L 2988 1197 
Q 2756 1666 2539 1819 
Q 2322 1972 1947 1972 
L 1259 1972 
L 1259 0 
L 628 0 
L 628 4666 
L 2053 4666 
Q 2853 4666 3247 4331 
Q 3641 3997 3641 3322 
Q 3641 2881 3436 2590 
Q 3231 2300 2841 2188 
z
M 1259 4147 
L 1259 2491 
L 2053 2491 
Q 2509 2491 2742 2702 
Q 2975 2913 2975 3322 
Q 2975 3731 2742 3939 
Q 2509 4147 2053 4147 
L 1259 4147 
z
" transform="scale(0.015625)"/>
       <path id="DejaVuSans-75" d="M 544 1381 
L 544 3500 
L 1119 3500 
L 1119 1403 
Q 1119 906 1312 657 
Q 1506 409 1894 409 
Q 2359 409 2629 706 
Q 2900 1003 2900 1516 
L 2900 3500 
L 3475 3500 
L 3475 0 
L 2900 0 
L 2900 538 
Q 2691 219 2414 64 
Q 2138 -91 1772 -91 
Q 1169 -91 856 284 
Q 544 659 544 1381 
z
M 1991 3584 
L 1991 3584 
z
" transform="scale(0.015625)"/>
       <path id="DejaVuSans-67" d="M 2906 1791 
Q 2906 2416 2648 2759 
Q 2391 3103 1925 3103 
Q 1463 3103 1205 2759 
Q 947 2416 947 1791 
Q 947 1169 1205 825 
Q 1463 481 1925 481 
Q 2391 481 2648 825 
Q 2906 1169 2906 1791 
z
M 3481 434 
Q 3481 -459 3084 -895 
Q 2688 -1331 1869 -1331 
Q 1566 -1331 1297 -1286 
Q 1028 -1241 775 -1147 
L 775 -588 
Q 1028 -725 1275 -790 
Q 1522 -856 1778 -856 
Q 2344 -856 2625 -561 
Q 2906 -266 2906 331 
L 2906 616 
Q 2728 306 2450 153 
Q 2172 0 1784 0 
Q 1141 0 747 490 
Q 353 981 353 1791 
Q 353 2603 747 3093 
Q 1141 3584 1784 3584 
Q 2172 3584 2450 3431 
Q 2728 3278 2906 2969 
L 2906 3500 
L 3481 3500 
L 3481 434 
z
" transform="scale(0.015625)"/>
       <path id="DejaVuSans-6f" d="M 1959 3097 
Q 1497 3097 1228 2736 
Q 959 2375 959 1747 
Q 959 1119 1226 758 
Q 1494 397 1959 397 
Q 2419 397 2687 759 
Q 2956 1122 2956 1747 
Q 2956 2369 2687 2733 
Q 2419 3097 1959 3097 
z
M 1959 3584 
Q 2709 3584 3137 3096 
Q 3566 2609 3566 1747 
Q 3566 888 3137 398 
Q 2709 -91 1959 -91 
Q 1206 -91 779 398 
Q 353 888 353 1747 
Q 353 2609 779 3096 
Q 1206 3584 1959 3584 
z
" transform="scale(0.015625)"/>
       <path id="DejaVuSans-66" d="M 2375 4863 
L 2375 4384 
L 1825 4384 
Q 1516 4384 1395 4259 
Q 1275 4134 1275 3809 
L 1275 3500 
L 2222 3500 
L 2222 3053 
L 1275 3053 
L 1275 0 
L 697 0 
L 697 3053 
L 147 3053 
L 147 3500 
L 697 3500 
L 697 3744 
Q 697 4328 969 4595 
Q 1241 4863 1831 4863 
L 2375 4863 
z
" transform="scale(0.015625)"/>
       <path id="DejaVuSans-73" d="M 2834 3397 
L 2834 2853 
Q 2591 2978 2328 3040 
Q 2066 3103 1784 3103 
Q 1356 3103 1142 2972 
Q 928 2841 928 2578 
Q 928 2378 1081 2264 
Q 1234 2150 1697 2047 
L 1894 2003 
Q 2506 1872 2764 1633 
Q 3022 1394 3022 966 
Q 3022 478 2636 193 
Q 2250 -91 1575 -91 
Q 1294 -91 989 -36 
Q 684 19 347 128 
L 347 722 
Q 666 556 975 473 
Q 1284 391 1588 391 
Q 1994 391 2212 530 
Q 2431 669 2431 922 
Q 2431 1156 2273 1281 
Q 2116 1406 1581 1522 
L 1381 1569 
Q 847 1681 609 1914 
Q 372 2147 372 2553 
Q 372 3047 722 3315 
Q 1072 3584 1716 3584 
Q 2034 3584 2315 3537 
Q 2597 3491 2834 3397 
z
" transform="scale(0.015625)"/>
       <path id="DejaVuSans-74" d="M 1172 4494 
L 1172 3500 
L 2356 3500 
L 2356 3053 
L 1172 3053 
L 1172 1153 
Q 1172 725 1289 603 
Q 1406 481 1766 481 
L 2356 481 
L 2356 0 
L 1766 0 
Q 1100 0 847 248 
Q 594 497 594 1153 
L 594 3053 
L 172 3053 
L 172 3500 
L 594 3500 
L 594 4494 
L 1172 4494 
z
" transform="scale(0.015625)"/>
       <path id="DejaVuSans-5f" d="M 3263 -1063 
L 3263 -1509 
L -63 -1509 
L -63 -1063 
L 3263 -1063 
z
" transform="scale(0.015625)"/>
      </defs>
      <use xlink:href="#DejaVuSans-52"/>
      <use xlink:href="#DejaVuSans-75" transform="translate(64.982422 0)"/>
      <use xlink:href="#DejaVuSans-6e" transform="translate(128.361328 0)"/>
      <use xlink:href="#DejaVuSans-6e" transform="translate(191.740234 0)"/>
      <use xlink:href="#DejaVuSans-69" transform="translate(255.119141 0)"/>
      <use xlink:href="#DejaVuSans-6e" transform="translate(282.902344 0)"/>
      <use xlink:href="#DejaVuSans-67" transform="translate(346.28125 0)"/>
      <use xlink:href="#DejaVuSans-20" transform="translate(409.757812 0)"/>
      <use xlink:href="#DejaVuSans-6d" transform="translate(441.544922 0)"/>
      <use xlink:href="#DejaVuSans-65" transform="translate(538.957031 0)"/>
      <use xlink:href="#DejaVuSans-61" transform="translate(600.480469 0)"/>
      <use xlink:href="#DejaVuSans-6e" transform="translate(661.759766 0)"/>
      <use xlink:href="#DejaVuSans-20" transform="translate(725.138672 0)"/>
      <use xlink:href="#DejaVuSans-6f" transform="translate(756.925781 0)"/>
      <use xlink:href="#DejaVuSans-66" transform="translate(818.107422 0)"/>
      <use xlink:href="#DejaVuSans-20" transform="translate(853.3125 0)"/>
      <use xlink:href="#DejaVuSans-73" transform="translate(885.099609 0)"/>
      <use xlink:href="#DejaVuSans-65" transform="translate(937.199219 0)"/>
      <use xlink:href="#DejaVuSans-61" transform="translate(998.722656 0)"/>
      <use xlink:href="#DejaVuSans-74" transform="translate(1060.001953 0)"/>
      <use xlink:href="#DejaVuSans-73" transform="translate(1099.210938 0)"/>
      <use xlink:href="#DejaVuSans-5f" transform="translate(1151.310547 0)"/>
      <use xlink:href="#DejaVuSans-61" transform="translate(1201.310547 0)"/>
      <use xlink:href="#DejaVuSans-74" transform="translate(1262.589844 0)"/>
      <use xlink:href="#DejaVuSans-5f" transform="translate(1301.798828 0)"/>
      <use xlink:href="#DejaVuSans-35" transform="translate(1351.798828 0)"/>
      <use xlink:href="#DejaVuSans-30" transform="translate(1415.421875 0)"/>
      <use xlink:href="#DejaVuSans-5f" transform="translate(1479.044922 0)"/>
      <use xlink:href="#DejaVuSans-35" transform="translate(1529.044922 0)"/>
      <use xlink:href="#DejaVuSans-30" transform="translate(1592.667969 0)"/>
     </g>
    </g>
   </g>
   <g id="line2d_29">
    <path d="M 92.566193 270.441818 
L 93.105651 270.441818 
L 93.416876 217.796667 
L 93.572489 190.184822 
L 93.738476 178.451343 
L 94.163818 164.257114 
L 94.475043 157.857079 
L 94.485417 158.462373 
L 94.672153 168.342913 
L 94.734398 167.09855 
L 94.869262 162.672708 
L 95.253107 140.475788 
L 95.865184 137.574698 
L 95.9793 137.148549 
L 96.000048 137.95152 
L 96.093416 137.604155 
L 96.10379 137.566687 
L 96.788486 159.061194 
L 96.944099 163.010861 
L 97.016718 162.388665 
L 97.213828 159.824467 
L 97.56655 147.708494 
L 97.608047 148.716571 
L 97.680666 150.441423 
L 97.742911 149.842305 
L 98.510601 128.088962 
L 98.832201 127.919936 
L 99.724381 109.403017 
L 100.211967 101.107048 
L 100.274212 101.298041 
L 100.56469 102.15009 
L 100.575064 101.990955 
L 100.68918 100.267262 
L 100.772173 100.514968 
L 101.114521 101.485979 
L 101.124896 101.337859 
L 101.809592 92.296213 
L 101.851089 92.441275 
L 102.432043 94.344155 
L 102.442417 94.223268 
L 102.59803 92.439932 
L 102.681023 92.705098 
L 103.189358 94.238924 
L 103.210107 94.014776 
L 103.625074 88.34321 
L 104.455009 71.710579 
L 105.699911 61.218546 
L 106.031885 56.617666 
L 106.063008 56.774746 
L 106.21862 57.549409 
L 106.270491 57.252848 
L 106.332736 56.351536 
L 106.529846 54.938024 
L 106.73733 53.296294 
L 107.266413 43.438994 
L 107.55689 38.970626 
L 107.68138 38.478182 
L 107.722877 38.71433 
L 107.951109 40.579275 
L 108.158593 45.282286 
L 108.552812 52.058896 
L 108.77067 56.484019 
L 109.133766 62.081665 
L 109.745843 63.962896 
L 110.015572 65.162222 
L 110.295675 68.659007 
L 110.430539 69.082516 
L 110.472036 68.874192 
L 111.322719 64.806578 
L 111.364216 64.938919 
L 111.582074 65.941909 
L 112.640241 76.114315 
L 113.293814 81.364347 
L 113.542795 82.095527 
L 114.320859 88.134352 
L 114.735826 89.024525 
L 114.953684 89.912109 
L 115.005555 90.194616 
L 115.721374 95.046783 
L 115.793993 95.269777 
L 116.167464 97.272578 
L 117.692469 99.182484 
L 118.055565 100.910009 
L 118.5639 101.376755 
L 118.584649 101.279315 
L 118.781758 99.842789 
L 119.269345 95.999298 
L 119.559822 94.742249 
L 119.642815 94.834315 
L 120.078531 95.308551 
L 120.09928 95.221041 
L 120.379383 94.052426 
L 120.462376 94.143839 
L 121.074453 94.801583 
L 121.095201 94.717495 
L 121.313059 93.841898 
L 121.385678 93.919853 
L 121.676156 95.058006 
L 121.717652 95.100315 
L 121.748775 94.976688 
L 121.997755 93.997085 
L 122.080749 94.083644 
L 122.142994 94.148244 
L 122.174116 94.027393 
L 122.277858 93.626385 
L 122.360852 93.713163 
L 122.692826 94.205906 
L 123.159664 96.30177 
L 123.450141 96.716354 
L 123.833986 99.621252 
L 124.155586 100.020856 
L 124.944024 104.869276 
L 125.690965 110.972941 
L 126.043687 112.156266 
L 127.039609 112.608782 
L 127.610189 115.738196 
L 128.045905 119.936599 
L 128.543866 121.599249 
L 128.958833 121.71864 
L 129.477543 123.398787 
L 129.664278 123.487227 
L 130.21411 125.231601 
L 130.390471 125.309418 
L 131.054419 127.419889 
L 131.168535 127.490383 
L 131.386393 127.903277 
L 131.624999 127.806914 
L 133.13963 122.481849 
L 133.191501 122.559164 
L 133.367862 122.790948 
L 133.720584 122.697959 
L 133.928068 122.197138 
L 133.948816 122.271446 
L 134.270416 123.051542 
L 134.944738 121.118643 
L 135.650182 121.073558 
L 135.847292 120.77635 
L 136.729098 120.959096 
L 137.299678 122.527618 
L 137.631652 122.644847 
L 138.700193 125.772595 
L 140.100708 125.648315 
L 140.567546 124.56993 
L 140.785404 124.476936 
L 141.542719 121.859927 
L 142.497144 115.592459 
L 143.461944 108.286813 
L 144.157014 103.179684 
L 144.188137 103.19271 
L 144.354123 103.378604 
L 144.986949 105.049169 
L 145.235929 104.712227 
L 145.85838 104.833301 
L 145.98287 104.823238 
L 146.885425 105.26619 
L 147.144779 105.718788 
L 147.227773 105.85829 
L 147.435256 106.150134 
L 147.902095 106.198156 
L 148.130327 105.948241 
L 148.65941 106.018199 
L 148.887642 105.772374 
L 149.053629 105.721268 
L 149.852441 103.666401 
L 150.153293 102.779843 
L 150.848363 101.046354 
L 151.242582 99.738263 
L 152.9232 96.530971 
L 152.975071 96.455197 
L 153.255174 95.689788 
L 155.309263 87.299818 
L 156.056204 85.813383 
L 157.114371 82.052036 
L 158.131041 80.341267 
L 158.255531 80.425491 
L 159.386317 81.176152 
L 159.438188 81.097016 
L 159.770162 80.773285 
L 160.071013 80.857525 
L 160.247375 80.771087 
L 160.371865 80.963298 
L 160.797206 81.989303 
L 160.828329 81.942418 
L 160.994316 81.891789 
L 161.191425 81.926926 
L 164.065075 71.943197 
L 167.115085 62.148094 
L 167.633794 61.735594 
L 168.785329 62.569175 
L 170.040605 61.354082 
L 170.248089 61.659635 
L 170.486695 61.98865 
L 170.963907 62.293793 
L 170.974282 62.263523 
L 171.482617 61.115525 
L 173.526331 59.139716 
L 174.024292 59.411162 
L 174.262898 59.32469 
L 174.522253 59.402791 
L 175.673787 58.418048 
L 176.119877 58.645788 
L 176.669709 58.269781 
L 177.790121 59.020103 
L 178.215463 58.764571 
L 178.682301 58.999646 
L 178.931281 58.909393 
L 179.190636 59.246147 
L 179.52261 59.774339 
L 180.09319 60.077292 
L 180.228054 60.090664 
L 180.445912 60.388575 
L 180.777886 60.904953 
L 180.912751 60.865655 
L 181.057989 60.868121 
L 181.203228 60.853533 
L 181.369215 60.581719 
L 181.400337 60.621219 
L 181.919046 61.128958 
L 182.500001 62.212129 
L 182.738607 62.243658 
L 183.060207 62.015134 
L 183.080955 62.062905 
L 183.983509 64.41746 
L 184.782321 67.053878 
L 185.238786 68.283808 
L 185.747121 71.024157 
L 186.660049 74.82135 
L 186.919404 75.583183 
L 187.116513 76.24503 
L 188.454783 80.640974 
L 189.295092 82.070974 
L 189.38846 82.221395 
L 189.865672 82.91152 
L 190.830471 83.445662 
L 191.120948 83.766799 
L 191.452922 83.797554 
L 191.722651 83.665258 
L 192.064999 83.70045 
L 192.230986 83.374732 
L 192.677076 82.51792 
L 192.68745 82.522299 
L 192.863811 82.717125 
L 193.984223 84.582231 
L 194.648171 84.962124 
L 194.990519 85.47876 
L 195.032016 85.435699 
L 195.249874 85.06306 
L 195.778957 84.051704 
L 195.893073 83.789626 
L 196.453279 82.71634 
L 197.407704 81.917623 
L 198.16502 82.110598 
L 199.824889 80.348187 
L 200.748192 78.492888 
L 200.872682 78.518198 
L 201.33952 78.827893 
L 201.702617 79.243829 
L 201.816733 79.402034 
L 201.899726 79.477941 
L 201.951597 79.430365 
L 202.574048 79.000286 
L 202.740035 79.178974 
L 203.279493 80.097181 
L 203.352112 80.031009 
L 203.590718 79.963892 
L 203.735957 80.131176 
L 204.534769 81.286368 
L 204.628137 81.214751 
L 204.918614 81.098791 
L 206.412497 81.565885 
L 207.221683 80.698112 
L 207.740392 79.322485 
L 208.269476 77.911158 
L 209.04754 76.525066 
L 209.784107 76.042065 
L 210.43768 76.196977 
L 210.852648 75.997015 
L 212.09755 76.391385 
L 212.408775 76.000166 
L 213.000104 75.047895 
L 213.290581 74.954813 
L 213.612181 74.974869 
L 213.996026 74.80882 
L 214.110142 74.743865 
L 214.680722 74.161088 
L 215.406915 72.492433 
L 215.79076 71.649903 
L 215.91525 71.421806 
L 216.724436 70.090268 
L 216.963043 70.049431 
L 217.585494 70.213186 
L 217.990087 69.786913 
L 218.571041 68.925349 
L 218.737028 68.675513 
L 218.944512 68.516571 
L 219.338731 68.10756 
L 220.199788 66.737943 
L 220.376149 66.676184 
L 220.407272 66.725786 
L 220.87411 67.266747 
L 221.19571 67.528016 
L 221.569181 68.314521 
L 221.89078 68.863856 
L 222.378367 69.423076 
L 223.301669 69.6985 
L 223.602521 69.61743 
L 223.851501 69.606971 
L 223.955243 69.409052 
L 225.189771 64.91188 
L 225.677358 64.279899 
L 225.957461 64.225723 
L 227.658827 67.057492 
L 228.146414 68.022889 
L 228.519884 68.067686 
L 228.644375 68.108471 
L 228.758491 68.255806 
L 229.100839 68.829127 
L 229.339445 69.092448 
L 229.370568 69.038852 
L 230.013767 68.145506 
L 230.449483 67.984799 
L 230.926695 68.497391 
L 232.047107 69.068698 
L 232.814797 69.987746 
L 232.949661 70.15878 
L 233.935209 71.373251 
L 235.512085 71.856768 
L 236.279775 71.477168 
L 236.881477 72.128683 
L 237.846277 72.592781 
L 238.095257 72.744371 
L 238.956314 73.164012 
L 240.221965 74.691163 
L 241.249009 74.925422 
L 241.726222 74.740543 
L 242.794763 74.985879 
L 243.437962 74.697464 
L 244.174529 74.831191 
L 244.859225 74.529969 
L 245.201574 74.791173 
L 245.782528 74.872269 
L 246.560592 74.261053 
L 247.22454 73.422868 
L 249.154138 72.126016 
L 249.371996 71.987197 
L 249.63135 71.708834 
L 249.818086 71.608524 
L 250.616898 71.762578 
L 251.426084 71.414452 
L 252.816225 71.773734 
L 253.615037 71.436251 
L 253.801773 71.385588 
L 254.289359 71.228941 
L 255.254159 71.435112 
L 256.25008 70.744347 
L 256.779164 70.173188 
L 256.965899 70.189269 
L 257.629847 70.299038 
L 257.972195 69.991621 
L 258.532401 69.229783 
L 258.584272 69.292646 
L 259.300091 69.993049 
L 259.860297 70.293943 
L 260.119651 70.432397 
L 260.275264 70.374721 
L 261.208941 69.744201 
L 262.474591 68.162276 
L 263.169662 68.508108 
L 263.43939 68.658842 
L 263.864732 68.683545 
L 264.227828 68.617377 
L 264.954021 68.967935 
L 265.721711 69.69533 
L 265.887698 69.861418 
L 266.323414 70.199149 
L 267.101478 70.329958 
L 267.391955 70.117953 
L 268.429373 69.701578 
L 268.927334 69.968487 
L 269.601656 70.569881 
L 270.244856 70.876696 
L 270.888055 71.435489 
L 271.126661 71.405241 
L 272.361189 69.939788 
L 272.962892 69.519685 
L 273.315614 69.234652 
L 273.689085 68.932099 
L 274.010685 68.689682 
L 274.228542 68.698736 
L 274.64351 68.718687 
L 275.182967 68.329972 
L 275.805419 67.705431 
L 276.500489 67.485768 
L 276.832463 67.474206 
L 277.745391 67.152968 
L 279.011042 67.657663 
L 279.187403 68.003116 
L 279.92397 69.645692 
L 280.338937 69.928484 
L 281.915813 70.273625 
L 282.164794 70.27349 
L 282.579761 70.281218 
L 283.202212 69.864756 
L 283.648302 69.479003 
L 283.918031 69.44642 
L 284.301876 69.147434 
L 284.88283 68.608427 
L 285.629771 68.144906 
L 285.951371 67.926578 
L 286.272971 67.662175 
L 287.206648 66.70193 
L 288.638285 66.178204 
L 289.374852 66.29007 
L 289.78982 66.221625 
L 290.816864 66.639346 
L 291.25258 67.207932 
L 291.491186 66.760502 
L 292.113637 65.813304 
L 292.881327 65.59429 
L 293.420784 65.640433 
L 293.597145 65.444295 
L 294.323338 64.4372 
L 295.827595 61.8584 
L 296.429298 61.73285 
L 296.65753 62.121702 
L 296.896136 62.320588 
L 297.134742 62.504238 
L 297.47709 62.696778 
L 298.089167 62.991967 
L 299.417063 64.177552 
L 299.655669 64.137944 
L 299.83203 63.948985 
L 300.184753 63.710301 
L 300.381862 63.87729 
L 301.159926 64.807102 
L 301.917242 65.868497 
L 302.456699 66.243089 
L 303.048028 66.52242 
L 303.514866 67.124095 
L 303.950582 67.643232 
L 305.070994 67.837867 
L 305.6312 67.711036 
L 307.291069 69.432919 
L 307.654166 69.99 
L 307.975765 70.303283 
L 308.515223 70.656288 
L 308.691584 70.588603 
L 310.185467 70.071949 
L 310.351454 70.224656 
L 310.621183 70.45152 
L 311.212511 70.487905 
L 311.492614 70.253707 
L 312.312175 69.205687 
L 312.69602 68.76036 
L 313.2666 68.309594 
L 313.442961 68.122107 
L 315.144327 65.405442 
L 315.663036 65.320012 
L 315.880894 65.486282 
L 316.326984 65.982645 
L 316.555216 66.04931 
L 317.281409 65.654156 
L 318.464066 64.572505 
L 318.754543 64.696595 
L 319.179885 64.649363 
L 319.36662 64.585623 
L 319.750465 64.34815 
L 320.061691 64.344492 
L 320.933122 64.462661 
L 321.628193 64.3159 
L 322.146902 64.564411 
L 322.779727 65.274705 
L 324.263236 68.212075 
L 324.626332 68.671725 
L 324.84419 69.192711 
L 325.321402 70.189551 
L 326.10984 71.163173 
L 326.763414 71.86121 
L 327.831955 73.238344 
L 328.693012 73.823056 
L 329.388083 73.660012 
L 329.616315 73.60088 
L 330.674482 73.295325 
L 331.774145 73.645738 
L 332.448467 74.060347 
L 334.793033 74.44531 
L 335.093884 74.208718 
L 335.871948 73.283698 
L 337.272463 71.269187 
L 338.434372 70.944437 
L 338.870088 71.150109 
L 339.22281 71.294194 
L 339.575532 71.260476 
L 340.197983 71.144858 
L 340.913802 71.189962 
L 342.262446 70.807773 
L 342.646291 70.781873 
L 342.967891 70.778826 
L 343.258368 70.732918 
L 343.569593 70.733726 
L 344.015683 70.72146 
L 344.575889 70.344011 
L 345.468069 69.908758 
L 346.806339 68.806964 
L 347.677771 68.613212 
L 347.916377 68.77813 
L 348.912299 69.426008 
L 349.119782 69.582681 
L 349.939343 70.087231 
L 350.489175 70.010521 
L 351.453974 70.325551 
L 351.868941 70.785636 
L 351.910438 70.840885 
L 351.972683 70.748986 
L 352.792244 69.734688 
L 353.632553 69.801926 
L 354.04752 69.77362 
L 355.448035 69.957506 
L 355.738512 69.972095 
L 356.392086 70.216705 
L 357.657736 71.315114 
L 358.674406 72.813988 
L 359.421348 74.312706 
L 360.002302 75.145528 
L 360.635127 75.471268 
L 361.475436 75.737754 
L 364.151976 77.539701 
L 364.338711 77.466532 
L 364.670685 77.313257 
L 364.961162 77.325056 
L 368.498759 78.054029 
L 368.758114 78.103385 
L 369.63992 78.142898 
L 369.8889 78.168431 
L 370.148255 78.103124 
L 371.247918 77.826488 
L 371.92224 77.831672 
L 372.223092 77.612043 
L 372.627685 77.405046 
L 373.571736 77.187845 
L 374.017826 77.161289 
L 374.992999 76.459051 
L 375.397592 76.432026 
L 376.569875 76.519902 
L 377.316816 76.147729 
L 377.835526 75.84952 
L 378.105254 75.869291 
L 379.132299 76.925148 
L 380.034853 76.965045 
L 380.698801 76.545603 
L 381.155265 76.276354 
L 383.012244 74.859383 
L 383.240476 74.810218 
L 384.412759 74.907425 
L 384.755107 74.764193 
L 385.968886 74.250167 
L 386.560215 73.904687 
L 386.954434 73.664873 
L 387.473143 73.098983 
L 388.697297 71.679907 
L 389.879954 71.194921 
L 390.31567 70.704991 
L 392.971461 67.466138 
L 393.510919 67.182294 
L 394.143744 66.882317 
L 394.444595 66.789869 
L 394.755821 66.584599 
L 395.492388 66.152513 
L 396.125213 66.384255 
L 396.374194 66.422172 
L 396.623174 66.579292 
L 396.913651 66.644777 
L 397.18338 66.587137 
L 397.899199 66.268313 
L 399.164849 64.873739 
L 399.434578 64.80823 
L 400.357881 64.664158 
L 400.67948 64.839704 
L 401.239686 65.08067 
L 402.941053 64.72155 
L 403.387143 64.69595 
L 405.71096 64.167211 
L 406.748379 64.477991 
L 407.007733 64.772803 
L 407.640558 65.574317 
L 407.982907 65.92601 
L 408.584609 66.434929 
L 409.829511 66.201938 
L 410.140737 66.368784 
L 411.001794 66.79247 
L 411.520504 66.995744 
L 412.277819 67.609969 
L 414.798746 70.195506 
L 415.172217 70.300859 
L 416.334125 70.389062 
L 417.402666 70.19589 
L 418.263724 70.600012 
L 418.855052 70.540771 
L 419.933967 71.074951 
L 421.344856 71.411153 
L 421.853192 71.787225 
L 424.311873 72.293901 
L 424.67497 72.383141 
L 425.079563 72.38329 
L 425.411537 72.326609 
L 425.69164 72.134862 
L 426.13773 71.947085 
L 426.407459 72.098403 
L 426.843174 72.234884 
L 427.123277 72.269851 
L 427.839096 72.27382 
L 428.264438 71.948773 
L 428.596412 71.9695 
L 430.173288 72.113267 
L 431.106964 71.589065 
L 431.791661 71.291113 
L 432.372615 71.017958 
L 433.337414 70.864251 
L 433.638265 70.916246 
L 434.156975 70.661878 
L 434.800174 70.348593 
L 437.881307 69.63542 
L 438.171784 69.677404 
L 439.095087 69.549545 
L 439.478931 69.501777 
L 439.738286 69.547432 
L 440.277744 69.737427 
L 440.734208 69.727146 
L 440.983188 69.74481 
L 442.342206 69.505095 
L 443.265509 69.762662 
L 443.618231 69.843774 
L 444.603779 69.701442 
L 445.620449 69.971346 
L 446.056165 70.094482 
L 447.487802 69.838294 
L 448.079131 69.819191 
L 448.587466 69.575129 
L 449.61451 69.027232 
L 450.485941 68.922367 
L 451.502612 68.971157 
L 454.500751 68.331405 
L 454.811977 68.271461 
L 455.320312 68.259023 
L 455.641911 68.196732 
L 455.963511 68.005656 
L 456.668956 67.679938 
L 458.027974 67.462324 
L 460.580023 67.753113 
L 463.370679 67.19217 
L 464.138369 67.49009 
L 464.584459 67.449135 
L 465.196535 67.417619 
L 469.211345 69.481383 
L 470.705228 69.591994 
L 471.587033 69.493179 
L 472.033123 69.446691 
L 473.464761 68.992232 
L 475.041637 68.14773 
L 475.985688 67.814296 
L 476.846745 67.415076 
L 479.378046 67.681155 
L 481.110535 67.395248 
L 481.525502 67.347709 
L 481.930095 67.36859 
L 482.708159 67.374663 
L 482.915643 67.374213 
L 483.818197 67.394664 
L 484.336906 67.165968 
L 484.876364 66.971749 
L 485.384699 66.746541 
L 485.664802 66.70718 
L 486.795588 66.984927 
L 487.335046 67.140467 
L 487.687768 67.081031 
L 488.144232 66.868785 
L 488.341342 66.828911 
L 489.067535 66.824552 
L 489.513625 66.684142 
L 490.084205 66.657313 
L 490.696282 66.632827 
L 491.246113 66.603123 
L 491.827068 66.589392 
L 492.605132 66.812124 
L 493.279454 67.034121 
L 494.140511 67.052605 
L 494.296124 67.086253 
L 495.240175 67.442923 
L 497.46025 67.649134 
L 497.844095 67.677154 
L 498.393927 67.866227 
L 498.79852 67.945237 
L 499.306855 67.726521 
L 500.199035 67.043349 
L 501.620298 66.350078 
L 502.128633 66.533288 
L 502.481355 66.587101 
L 504.172348 66.334305 
L 504.504321 66.377744 
L 505.448372 66.06849 
L 506.703649 65.068011 
L 508.052293 64.898196 
L 508.228654 64.818189 
L 508.519131 64.700235 
L 508.809608 64.527996 
L 509.307569 64.222929 
L 510.023388 63.964833 
L 510.469478 63.59227 
L 510.874071 63.376938 
L 511.610638 62.846662 
L 511.880367 62.688317 
L 512.450947 62.68634 
L 512.959282 62.650013 
L 513.571359 62.417345 
L 513.986326 62.317416 
L 514.3183 62.47765 
L 514.805887 62.835884 
L 515.552828 63.548981 
L 515.957421 63.743115 
L 516.559124 63.940221 
L 516.932595 64.000893 
L 517.804026 64.235615 
L 518.270865 64.341062 
L 518.654709 64.37424 
L 518.986683 64.531119 
L 521.590604 65.668142 
L 522.130061 65.633346 
L 522.482784 65.449917 
L 523.16748 65.19688 
L 523.73806 65.345827 
L 524.277518 65.532105 
L 525.180072 65.840843 
L 525.978884 65.534626 
L 526.725825 65.747936 
L 528.333824 66.385354 
L 528.790288 66.557308 
L 530.522777 67.805434 
L 531.404583 67.809757 
L 532.39013 67.4977 
L 533.074826 67.010496 
L 535.035547 64.845378 
L 535.554256 64.260678 
L 535.917353 64.000113 
L 536.321946 63.912528 
L 536.705791 63.726997 
L 538.11668 63.116626 
L 539.745427 63.452757 
L 540.79322 64.057968 
L 541.145942 64.196667 
L 541.560909 64.141614 
L 542.390844 63.873937 
L 542.930302 63.473844 
L 543.231153 63.363901 
L 543.957346 63.338867 
L 544.922145 63.359701 
L 545.648338 63.334768 
L 546.561266 63.568175 
L 547.173343 63.727047 
L 548.024027 63.731618 
L 548.356 63.557293 
L 548.750219 63.371727 
L 549.632025 63.59931 
L 550.01587 63.660563 
L 550.503457 63.537576 
L 550.876927 63.580895 
L 551.333391 63.753777 
L 553.823196 64.754774 
L 554.196666 64.91463 
L 555.140717 65.21648 
L 555.61793 65.38882 
L 556.292252 65.56643 
L 558.024741 65.897234 
L 558.740559 66.091383 
L 560.379681 66.187231 
L 561.375602 66.111895 
L 562.900607 66.414588 
L 564.373742 67.371867 
L 565.784631 67.862354 
L 566.199598 67.676155 
L 566.562695 67.525452 
L 567.434126 67.25189 
L 567.942461 67.122706 
L 568.554538 67.120674 
L 569.280731 67.097587 
L 569.726821 67.00269 
L 571.625297 67.121301 
L 573.077683 66.96543 
L 574.426327 67.237019 
L 575.349629 67.744561 
L 576.075822 68.136491 
L 576.957628 68.130446 
L 577.683821 67.885105 
L 578.057291 67.823062 
L 578.482633 67.882255 
L 579.09471 67.882417 
L 580.412231 68.147605 
L 581.335534 68.412264 
L 582.092849 68.385276 
L 582.528565 68.685229 
L 583.23401 69.05228 
L 585.080614 69.690762 
L 585.983169 69.681305 
L 586.698987 69.660227 
L 587.777903 69.670493 
L 589.199166 69.5179 
L 590.859035 70.071958 
L 591.3155 70.228071 
L 591.668222 70.339287 
L 592.238802 70.510326 
L 593.193227 70.77377 
L 594.707858 70.608709 
L 595.102077 70.651212 
L 595.662283 70.660438 
L 596.585585 70.870516 
L 597.16654 71.217063 
L 597.560759 71.357623 
L 597.923855 71.50664 
L 599.822331 72.373296 
L 600.289169 72.558387 
L 601.150227 72.756742 
L 602.083903 73.003332 
L 602.685606 73.005174 
L 603.131696 73.159918 
L 603.474044 73.522791 
L 604.48034 74.334913 
L 605.216907 74.498774 
L 608.764878 74.736129 
L 609.304336 74.525216 
L 609.657058 74.477684 
L 610.217264 74.421212 
L 611.265057 74.260784 
L 611.265057 74.260784 
" clip-path="url(#pcf2616ff23)" style="fill: none; stroke: #1f2937; stroke-linecap: square"/>
   </g>
   <g id="line2d_30">
    <path d="M 66.63125 74.260784 
L 637.2 74.260784 
" clip-path="url(#pcf2616ff23)" style="fill: none; stroke-dasharray: 2.96,1.28; stroke-dashoffset: 0; stroke: #888888; stroke-width: 0.8"/>
   </g>
   <g id="patch_3">
    <path d="M 66.63125 282.04 
L 66.63125 26.88 
" style="fill: none; stroke: #000000; stroke-width: 0.8; stroke-linejoin: miter; stroke-linecap: square"/>
   </g>
   <g id="patch_4">
    <path d="M 637.2 282.04 
L 637.2 26.88 
" style="fill: none; stroke: #000000; stroke-width: 0.8; stroke-linejoin: miter; stroke-linecap: square"/>
   </g>
   <g id="patch_5">
    <path d="M 66.63125 282.04 
L 637.2 282.04 
" style="fill: none; stroke: #000000; stroke-width: 0.8; stroke-linejoin: miter; stroke-linecap: square"/>
   </g>
   <g id="patch_6">
    <path d="M 66.63125 26.88 
L 637.2 26.88 
" style="fill: none; stroke: #000000; stroke-width: 0.8; stroke-linejoin: miter; stroke-linecap: square"/>
   </g>
   <g id="text_17">
    <!-- Running mean — seats_at_50_50  (100k ReCom samples, seed 42) -->
    <g transform="translate(151.17625 20.88) scale(0.12 -0.12)">
     <defs>
      <path id="DejaVuSans-2014" d="M 313 1978 
L 6088 1978 
L 6088 1528 
L 313 1528 
L 313 1978 
z
" transform="scale(0.015625)"/>
      <path id="DejaVuSans-28" d="M 1984 4856 
Q 1566 4138 1362 3434 
Q 1159 2731 1159 2009 
Q 1159 1288 1364 580 
Q 1569 -128 1984 -844 
L 1484 -844 
Q 1016 -109 783 600 
Q 550 1309 550 2009 
Q 550 2706 781 3412 
Q 1013 4119 1484 4856 
L 1984 4856 
z
" transform="scale(0.015625)"/>
      <path id="DejaVuSans-6b" d="M 581 4863 
L 1159 4863 
L 1159 1991 
L 2875 3500 
L 3609 3500 
L 1753 1863 
L 3688 0 
L 2938 0 
L 1159 1709 
L 1159 0 
L 581 0 
L 581 4863 
z
" transform="scale(0.015625)"/>
      <path id="DejaVuSans-43" d="M 4122 4306 
L 4122 3641 
Q 3803 3938 3442 4084 
Q 3081 4231 2675 4231 
Q 1875 4231 1450 3742 
Q 1025 3253 1025 2328 
Q 1025 1406 1450 917 
Q 1875 428 2675 428 
Q 3081 428 3442 575 
Q 3803 722 4122 1019 
L 4122 359 
Q 3791 134 3420 21 
Q 3050 -91 2638 -91 
Q 1578 -91 968 557 
Q 359 1206 359 2328 
Q 359 3453 968 4101 
Q 1578 4750 2638 4750 
Q 3056 4750 3426 4639 
Q 3797 4528 4122 4306 
z
" transform="scale(0.015625)"/>
      <path id="DejaVuSans-2c" d="M 750 794 
L 1409 794 
L 1409 256 
L 897 -744 
L 494 -744 
L 750 256 
L 750 794 
z
" transform="scale(0.015625)"/>
      <path id="DejaVuSans-29" d="M 513 4856 
L 1013 4856 
Q 1481 4119 1714 3412 
Q 1947 2706 1947 2009 
Q 1947 1309 1714 600 
Q 1481 -109 1013 -844 
L 513 -844 
Q 928 -128 1133 580 
Q 1338 1288 1338 2009 
Q 1338 2731 1133 3434 
Q 928 4138 513 4856 
z
" transform="scale(0.015625)"/>
     </defs>
     <use xlink:href="#DejaVuSans-52"/>
     <use xlink:href="#DejaVuSans-75" transform="translate(64.982422 0)"/>
     <use xlink:href="#DejaVuSans-6e" transform="translate(128.361328 0)"/>
     <use xlink:href="#DejaVuSans-6e" transform="translate(191.740234 0)"/>
     <use xlink:href="#DejaVuSans-69" transform="translate(255.119141 0)"/>
     <use xlink:href="#DejaVuSans-6e" transform="translate(282.902344 0)"/>
     <use xlink:href="#DejaVuSans-67" transform="translate(346.28125 0)"/>
     <use xlink:href="#DejaVuSans-20" transform="translate(409.757812 0)"/>
     <use xlink:href="#DejaVuSans-6d" transform="translate(441.544922 0)"/>
     <use xlink:href="#DejaVuSans-65" transform="translate(538.957031 0)"/>
     <use xlink:href="#DejaVuSans-61" transform="translate(600.480469 0)"/>
     <use xlink:href="#DejaVuSans-6e" transform="translate(661.759766 0)"/>
     <use xlink:href="#DejaVuSans-20" transform="translate(725.138672 0)"/>
     <use xlink:href="#DejaVuSans-2014" transform="translate(756.925781 0)"/>
     <use xlink:href="#DejaVuSans-20" transform="translate(856.925781 0)"/>
     <use xlink:href="#DejaVuSans-73" transform="translate(888.712891 0)"/>
     <use xlink:href="#DejaVuSans-65" transform="translate(940.8125 0)"/>
     <use xlink:href="#DejaVuSans-61" transform="translate(1002.335938 0)"/>
     <use xlink:href="#DejaVuSans-74" transform="translate(1063.615234 0)"/>
     <use xlink:href="#DejaVuSans-73" transform="translate(1102.824219 0)"/>
     <use xlink:href="#DejaVuSans-5f" transform="translate(1154.923828 0)"/>
     <use xlink:href="#DejaVuSans-61" transform="translate(1204.923828 0)"/>
     <use xlink:href="#DejaVuSans-74" transform="translate(1266.203125 0)"/>
     <use xlink:href="#DejaVuSans-5f" transform="translate(1305.412109 0)"/>
     <use xlink:href="#DejaVuSans-35" transform="translate(1355.412109 0)"/>
     <use xlink:href="#DejaVuSans-30" transform="translate(1419.035156 0)"/>
     <use xlink:href="#DejaVuSans-5f" transform="translate(1482.658203 0)"/>
     <use xlink:href="#DejaVuSans-35" transform="translate(1532.658203 0)"/>
     <use xlink:href="#DejaVuSans-30" transform="translate(1596.28125 0)"/>
     <use xlink:href="#DejaVuSans-20" transform="translate(1659.904297 0)"/>
     <use xlink:href="#DejaVuSans-20" transform="translate(1691.691406 0)"/>
     <use xlink:href="#DejaVuSans-28" transform="translate(1723.478516 0)"/>
     <use xlink:href="#DejaVuSans-31" transform="translate(1762.492188 0)"/>
     <use xlink:href="#DejaVuSans-30" transform="translate(1826.115234 0)"/>
     <use xlink:href="#DejaVuSans-30" transform="translate(1889.738281 0)"/>
     <use xlink:href="#DejaVuSans-6b" transform="translate(1953.361328 0)"/>
     <use xlink:href="#DejaVuSans-20" transform="translate(2011.271484 0)"/>
     <use xlink:href="#DejaVuSans-52" transform="translate(2043.058594 0)"/>
     <use xlink:href="#DejaVuSans-65" transform="translate(2108.041016 0)"/>
     <use xlink:href="#DejaVuSans-43" transform="translate(2169.564453 0)"/>
     <use xlink:href="#DejaVuSans-6f" transform="translate(2239.388672 0)"/>
     <use xlink:href="#DejaVuSans-6d" transform="translate(2300.570312 0)"/>
     <use xlink:href="#DejaVuSans-20" transform="translate(2397.982422 0)"/>
     <use xlink:href="#DejaVuSans-73" transform="translate(2429.769531 0)"/>
     <use xlink:href="#DejaVuSans-61" transform="translate(2481.869141 0)"/>
     <use xlink:href="#DejaVuSans-6d" transform="translate(2543.148438 0)"/>
     <use xlink:href="#DejaVuSans-70" transform="translate(2640.560547 0)"/>
     <use xlink:href="#DejaVuSans-6c" transform="translate(2704.037109 0)"/>
     <use xlink:href="#DejaVuSans-65" transform="translate(2731.820312 0)"/>
     <use xlink:href="#DejaVuSans-73" transform="translate(2793.34375 0)"/>
     <use xlink:href="#DejaVuSans-2c" transform="translate(2845.443359 0)"/>
     <use xlink:href="#DejaVuSans-20" transform="translate(2877.230469 0)"/>
     <use xlink:href="#DejaVuSans-73" transform="translate(2909.017578 0)"/>
     <use xlink:href="#DejaVuSans-65" transform="translate(2961.117188 0)"/>
     <use xlink:href="#DejaVuSans-65" transform="translate(3022.640625 0)"/>
     <use xlink:href="#DejaVuSans-64" transform="translate(3084.164062 0)"/>
     <use xlink:href="#DejaVuSans-20" transform="translate(3147.640625 0)"/>
     <use xlink:href="#DejaVuSans-34" transform="translate(3179.427734 0)"/>
     <use xlink:href="#DejaVuSans-32" transform="translate(3243.050781 0)"/>
     <use xlink:href="#DejaVuSans-29" transform="translate(3306.673828 0)"/>
    </g>
   </g>
   <g id="legend_1">
    <g id="patch_7">
     <path d="M 496.306406 47.290312 
L 630.9 47.290312 
Q 632.7 47.290312 632.7 45.490312 
L 632.7 33.18 
Q 632.7 31.38 630.9 31.38 
L 496.306406 31.38 
Q 494.506406 31.38 494.506406 33.18 
L 494.506406 45.490312 
Q 494.506406 47.290312 496.306406 47.290312 
z
" style="fill: #ffffff; opacity: 0.8; stroke: #cccccc; stroke-linejoin: miter"/>
    </g>
    <g id="line2d_31">
     <path d="M 498.106406 38.668594 
L 507.106406 38.668594 
L 516.106406 38.668594 
" style="fill: none; stroke-dasharray: 2.96,1.28; stroke-dashoffset: 0; stroke: #888888; stroke-width: 0.8"/>
    </g>
    <g id="text_18">
     <!-- final mean = +0.45226 -->
     <g transform="translate(523.306406 41.818594) scale(0.09 -0.09)">
      <defs>
       <path id="DejaVuSans-3d" d="M 678 2906 
L 4684 2906 
L 4684 2381 
L 678 2381 
L 678 2906 
z
M 678 1631 
L 4684 1631 
L 4684 1100 
L 678 1100 
L 678 1631 
z
" transform="scale(0.015625)"/>
       <path id="DejaVuSans-2b" d="M 2944 4013 
L 2944 2272 
L 4684 2272 
L 4684 1741 
L 2944 1741 
L 2944 0 
L 2419 0 
L 2419 1741 
L 678 1741 
L 678 2272 
L 2419 2272 
L 2419 4013 
L 2944 4013 
z
" transform="scale(0.015625)"/>
       <path id="DejaVuSans-36" d="M 2113 2584 
Q 1688 2584 1439 2293 
Q 1191 2003 1191 1497 
Q 1191 994 1439 701 
Q 1688 409 2113 409 
Q 2538 409 2786 701 
Q 3034 994 3034 1497 
Q 3034 2003 2786 2293 
Q 2538 2584 2113 2584 
z
M 3366 4563 
L 3366 3988 
Q 3128 4100 2886 4159 
Q 2644 4219 2406 4219 
Q 1781 4219 1451 3797 
Q 1122 3375 1075 2522 
Q 1259 2794 1537 2939 
Q 1816 3084 2150 3084 
Q 2853 3084 3261 2657 
Q 3669 2231 3669 1497 
Q 3669 778 3244 343 
Q 2819 -91 2113 -91 
Q 1303 -91 875 529 
Q 447 1150 447 2328 
Q 447 3434 972 4092 
Q 1497 4750 2381 4750 
Q 2619 4750 2861 4703 
Q 3103 4656 3366 4563 
z
" transform="scale(0.015625)"/>
      </defs>
      <use xlink:href="#DejaVuSans-66"/>
      <use xlink:href="#DejaVuSans-69" transform="translate(35.205078 0)"/>
      <use xlink:href="#DejaVuSans-6e" transform="translate(62.988281 0)"/>
      <use xlink:href="#DejaVuSans-61" transform="translate(126.367188 0)"/>
      <use xlink:href="#DejaVuSans-6c" transform="translate(187.646484 0)"/>
      <use xlink:href="#DejaVuSans-20" transform="translate(215.429688 0)"/>
      <use xlink:href="#DejaVuSans-6d" transform="translate(247.216797 0)"/>
      <use xlink:href="#DejaVuSans-65" transform="translate(344.628906 0)"/>
      <use xlink:href="#DejaVuSans-61" transform="translate(406.152344 0)"/>
      <use xlink:href="#DejaVuSans-6e" transform="translate(467.431641 0)"/>
      <use xlink:href="#DejaVuSans-20" transform="translate(530.810547 0)"/>
      <use xlink:href="#DejaVuSans-3d" transform="translate(562.597656 0)"/>
      <use xlink:href="#DejaVuSans-20" transform="translate(646.386719 0)"/>
      <use xlink:href="#DejaVuSans-2b" transform="translate(678.173828 0)"/>
      <use xlink:href="#DejaVuSans-30" transform="translate(761.962891 0)"/>
      <use xlink:href="#DejaVuSans-2e" transform="translate(825.585938 0)"/>
      <use xlink:href="#DejaVuSans-34" transform="translate(857.373047 0)"/>
      <use xlink:href="#DejaVuSans-35" transform="translate(920.996094 0)"/>
      <use xlink:href="#DejaVuSans-32" transform="translate(984.619141 0)"/>
      <use xlink:href="#DejaVuSans-32" transform="translate(1048.242188 0)"/>
      <use xlink:href="#DejaVuSans-36" transform="translate(1111.865234 0)"/>
     </g>
    </g>
   </g>
  </g>
 </g>
 <defs>
  <clipPath id="pcf2616ff23">
   <rect x="66.63125" y="26.88" width="570.56875" height="255.16"/>
  </clipPath>
 </defs>
</svg>
