<?xml version="1.0" encoding="utf-8" standalone="no"?>
<!DOCTYPE svg PUBLIC "-//W3C//DTD SVG 1.1//EN"
  "http://www.w3.org/Graphics/SVG/1.1/DTD/svg11.dtd">
<svg xmlns:xlink="http://www.w3.org/1999/xlink" width="648pt" height="324pt" viewBox="0 0 648 324" xmlns="http://www.w3.org/2000/svg" version="1.1">
 <metadata>
  <rdf:RDF xmlns:dc="http://purl.org/dc/elements/1.1/" xmlns:cc="http://creativecommons.org/ns#" xmlns:rdf="http://www.w3.org/1999/02/22-rdf-syntax-ns#">
   <cc:Work>
    <dc:type rdf:resource="http://purl.org/dc/dcmitype/StillImage"/>
    <dc:date>2026-05-12T12:07:54.170249</dc:date>
    <dc:format>image/svg+xml</dc:format>
    <dc:creator>
     <cc:Agent>
      <dc:title>Matplotlib v3.10.8, https://matplotlib.org/</dc:title>
     </cc:Agent>
    </dc:creator>
   </cc:Work>
  </rdf:RDF>
 </metadata>
 <defs>
  <style type="text/css">*{stroke-linejoin: round; stroke-linecap: butt}</style>
 </defs>
 <g id="figure_1">
  <g id="patch_1">
   <path d="M 0 324 
L 648 324 
L 648 0 
L 0 0 
z
" style="fill: #ffffff"/>
  </g>
  <g id="axes_1">
   <g id="patch_2">
    <path d="M 54.12125 282.04 
L 637.2 282.04 
L 637.2 26.88 
L 54.12125 26.88 
z
" style="fill: #ffffff"/>
   </g>
   <g id="matplotlib.axis_1">
    <g id="xtick_1">
     <g id="line2d_1">
      <path d="M 80.619529 282.04 
L 80.619529 26.88 
" clip-path="url(#pe08960030b)" style="fill: none; stroke-dasharray: 0.5,0.825; stroke-dashoffset: 0; stroke: #b0b0b0; stroke-opacity: 0.6; stroke-width: 0.5"/>
     </g>
     <g id="line2d_2">
      <defs>
       <path id="m79debfe136" d="M 0 0 
L 0 3.5 
" style="stroke: #000000; stroke-width: 0.8"/>
      </defs>
      <g>
       <use xlink:href="#m79debfe136" x="80.619529" y="282.04" style="stroke: #000000; stroke-width: 0.8"/>
      </g>
     </g>
     <g id="text_1">
      <!-- 0 -->
      <g transform="translate(77.438279 296.638438) scale(0.1 -0.1)">
       <defs>
        <path id="DejaVuSans-30" d="M 2034 4250 
Q 1547 4250 1301 3770 
Q 1056 3291 1056 2328 
Q 1056 1369 1301 889 
Q 1547 409 2034 409 
Q 2525 409 2770 889 
Q 3016 1369 3016 2328 
Q 3016 3291 2770 3770 
Q 2525 4250 2034 4250 
z
M 2034 4750 
Q 2819 4750 3233 4129 
Q 3647 3509 3647 2328 
Q 3647 1150 3233 529 
Q 2819 -91 2034 -91 
Q 1250 -91 836 529 
Q 422 1150 422 2328 
Q 422 3509 836 4129 
Q 1250 4750 2034 4750 
z
" transform="scale(0.015625)"/>
       </defs>
       <use xlink:href="#DejaVuSans-30"/>
      </g>
     </g>
    </g>
    <g id="xtick_2">
     <g id="line2d_3">
      <path d="M 186.634907 282.04 
L 186.634907 26.88 
" clip-path="url(#pe08960030b)" style="fill: none; stroke-dasharray: 0.5,0.825; stroke-dashoffset: 0; stroke: #b0b0b0; stroke-opacity: 0.6; stroke-width: 0.5"/>
     </g>
     <g id="line2d_4">
      <g>
       <use xlink:href="#m79debfe136" x="186.634907" y="282.04" style="stroke: #000000; stroke-width: 0.8"/>
      </g>
     </g>
     <g id="text_2">
      <!-- 20000 -->
      <g transform="translate(170.728657 296.638438) scale(0.1 -0.1)">
       <defs>
        <path id="DejaVuSans-32" d="M 1228 531 
L 3431 531 
L 3431 0 
L 469 0 
L 469 531 
Q 828 903 1448 1529 
Q 2069 2156 2228 2338 
Q 2531 2678 2651 2914 
Q 2772 3150 2772 3378 
Q 2772 3750 2511 3984 
Q 2250 4219 1831 4219 
Q 1534 4219 1204 4116 
Q 875 4013 500 3803 
L 500 4441 
Q 881 4594 1212 4672 
Q 1544 4750 1819 4750 
Q 2544 4750 2975 4387 
Q 3406 4025 3406 3419 
Q 3406 3131 3298 2873 
Q 3191 2616 2906 2266 
Q 2828 2175 2409 1742 
Q 1991 1309 1228 531 
z
" transform="scale(0.015625)"/>
       </defs>
       <use xlink:href="#DejaVuSans-32"/>
       <use xlink:href="#DejaVuSans-30" transform="translate(63.623047 0)"/>
       <use xlink:href="#DejaVuSans-30" transform="translate(127.246094 0)"/>
       <use xlink:href="#DejaVuSans-30" transform="translate(190.869141 0)"/>
       <use xlink:href="#DejaVuSans-30" transform="translate(254.492188 0)"/>
      </g>
     </g>
    </g>
    <g id="xtick_3">
     <g id="line2d_5">
      <path d="M 292.650285 282.04 
L 292.650285 26.88 
" clip-path="url(#pe08960030b)" style="fill: none; stroke-dasharray: 0.5,0.825; stroke-dashoffset: 0; stroke: #b0b0b0; stroke-opacity: 0.6; stroke-width: 0.5"/>
     </g>
     <g id="line2d_6">
      <g>
       <use xlink:href="#m79debfe136" x="292.650285" y="282.04" style="stroke: #000000; stroke-width: 0.8"/>
      </g>
     </g>
     <g id="text_3">
      <!-- 40000 -->
      <g transform="translate(276.744035 296.638438) scale(0.1 -0.1)">
       <defs>
        <path id="DejaVuSans-34" d="M 2419 4116 
L 825 1625 
L 2419 1625 
L 2419 4116 
z
M 2253 4666 
L 3047 4666 
L 3047 1625 
L 3713 1625 
L 3713 1100 
L 3047 1100 
L 3047 0 
L 2419 0 
L 2419 1100 
L 313 1100 
L 313 1709 
L 2253 4666 
z
" transform="scale(0.015625)"/>
       </defs>
       <use xlink:href="#DejaVuSans-34"/>
       <use xlink:href="#DejaVuSans-30" transform="translate(63.623047 0)"/>
       <use xlink:href="#DejaVuSans-30" transform="translate(127.246094 0)"/>
       <use xlink:href="#DejaVuSans-30" transform="translate(190.869141 0)"/>
       <use xlink:href="#DejaVuSans-30" transform="translate(254.492188 0)"/>
      </g>
     </g>
    </g>
    <g id="xtick_4">
     <g id="line2d_7">
      <path d="M 398.665664 282.04 
L 398.665664 26.88 
" clip-path="url(#pe08960030b)" style="fill: none; stroke-dasharray: 0.5,0.825; stroke-dashoffset: 0; stroke: #b0b0b0; stroke-opacity: 0.6; stroke-width: 0.5"/>
     </g>
     <g id="line2d_8">
      <g>
       <use xlink:href="#m79debfe136" x="398.665664" y="282.04" style="stroke: #000000; stroke-width: 0.8"/>
      </g>
     </g>
     <g id="text_4">
      <!-- 60000 -->
      <g transform="translate(382.759414 296.638438) scale(0.1 -0.1)">
       <defs>
        <path id="DejaVuSans-36" d="M 2113 2584 
Q 1688 2584 1439 2293 
Q 1191 2003 1191 1497 
Q 1191 994 1439 701 
Q 1688 409 2113 409 
Q 2538 409 2786 701 
Q 3034 994 3034 1497 
Q 3034 2003 2786 2293 
Q 2538 2584 2113 2584 
z
M 3366 4563 
L 3366 3988 
Q 3128 4100 2886 4159 
Q 2644 4219 2406 4219 
Q 1781 4219 1451 3797 
Q 1122 3375 1075 2522 
Q 1259 2794 1537 2939 
Q 1816 3084 2150 3084 
Q 2853 3084 3261 2657 
Q 3669 2231 3669 1497 
Q 3669 778 3244 343 
Q 2819 -91 2113 -91 
Q 1303 -91 875 529 
Q 447 1150 447 2328 
Q 447 3434 972 4092 
Q 1497 4750 2381 4750 
Q 2619 4750 2861 4703 
Q 3103 4656 3366 4563 
z
" transform="scale(0.015625)"/>
       </defs>
       <use xlink:href="#DejaVuSans-36"/>
       <use xlink:href="#DejaVuSans-30" transform="translate(63.623047 0)"/>
       <use xlink:href="#DejaVuSans-30" transform="translate(127.246094 0)"/>
       <use xlink:href="#DejaVuSans-30" transform="translate(190.869141 0)"/>
       <use xlink:href="#DejaVuSans-30" transform="translate(254.492188 0)"/>
      </g>
     </g>
    </g>
    <g id="xtick_5">
     <g id="line2d_9">
      <path d="M 504.681042 282.04 
L 504.681042 26.88 
" clip-path="url(#pe08960030b)" style="fill: none; stroke-dasharray: 0.5,0.825; stroke-dashoffset: 0; stroke: #b0b0b0; stroke-opacity: 0.6; stroke-width: 0.5"/>
     </g>
     <g id="line2d_10">
      <g>
       <use xlink:href="#m79debfe136" x="504.681042" y="282.04" style="stroke: #000000; stroke-width: 0.8"/>
      </g>
     </g>
     <g id="text_5">
      <!-- 80000 -->
      <g transform="translate(488.774792 296.638438) scale(0.1 -0.1)">
       <defs>
        <path id="DejaVuSans-38" d="M 2034 2216 
Q 1584 2216 1326 1975 
Q 1069 1734 1069 1313 
Q 1069 891 1326 650 
Q 1584 409 2034 409 
Q 2484 409 2743 651 
Q 3003 894 3003 1313 
Q 3003 1734 2745 1975 
Q 2488 2216 2034 2216 
z
M 1403 2484 
Q 997 2584 770 2862 
Q 544 3141 544 3541 
Q 544 4100 942 4425 
Q 1341 4750 2034 4750 
Q 2731 4750 3128 4425 
Q 3525 4100 3525 3541 
Q 3525 3141 3298 2862 
Q 3072 2584 2669 2484 
Q 3125 2378 3379 2068 
Q 3634 1759 3634 1313 
Q 3634 634 3220 271 
Q 2806 -91 2034 -91 
Q 1263 -91 848 271 
Q 434 634 434 1313 
Q 434 1759 690 2068 
Q 947 2378 1403 2484 
z
M 1172 3481 
Q 1172 3119 1398 2916 
Q 1625 2713 2034 2713 
Q 2441 2713 2670 2916 
Q 2900 3119 2900 3481 
Q 2900 3844 2670 4047 
Q 2441 4250 2034 4250 
Q 1625 4250 1398 4047 
Q 1172 3844 1172 3481 
z
" transform="scale(0.015625)"/>
       </defs>
       <use xlink:href="#DejaVuSans-38"/>
       <use xlink:href="#DejaVuSans-30" transform="translate(63.623047 0)"/>
       <use xlink:href="#DejaVuSans-30" transform="translate(127.246094 0)"/>
       <use xlink:href="#DejaVuSans-30" transform="translate(190.869141 0)"/>
       <use xlink:href="#DejaVuSans-30" transform="translate(254.492188 0)"/>
      </g>
     </g>
    </g>
    <g id="xtick_6">
     <g id="line2d_11">
      <path d="M 610.69642 282.04 
L 610.69642 26.88 
" clip-path="url(#pe08960030b)" style="fill: none; stroke-dasharray: 0.5,0.825; stroke-dashoffset: 0; stroke: #b0b0b0; stroke-opacity: 0.6; stroke-width: 0.5"/>
     </g>
     <g id="line2d_12">
      <g>
       <use xlink:href="#m79debfe136" x="610.69642" y="282.04" style="stroke: #000000; stroke-width: 0.8"/>
      </g>
     </g>
     <g id="text_6">
      <!-- 100000 -->
      <g transform="translate(591.60892 296.638438) scale(0.1 -0.1)">
       <defs>
        <path id="DejaVuSans-31" d="M 794 531 
L 1825 531 
L 1825 4091 
L 703 3866 
L 703 4441 
L 1819 4666 
L 2450 4666 
L 2450 531 
L 3481 531 
L 3481 0 
L 794 0 
L 794 531 
z
" transform="scale(0.015625)"/>
       </defs>
       <use xlink:href="#DejaVuSans-31"/>
       <use xlink:href="#DejaVuSans-30" transform="translate(63.623047 0)"/>
       <use xlink:href="#DejaVuSans-30" transform="translate(127.246094 0)"/>
       <use xlink:href="#DejaVuSans-30" transform="translate(190.869141 0)"/>
       <use xlink:href="#DejaVuSans-30" transform="translate(254.492188 0)"/>
       <use xlink:href="#DejaVuSans-30" transform="translate(318.115234 0)"/>
      </g>
     </g>
    </g>
    <g id="text_7">
     <!-- Sample index -->
     <g transform="translate(311.642656 310.316563) scale(0.1 -0.1)">
      <defs>
       <path id="DejaVuSans-53" d="M 3425 4513 
L 3425 3897 
Q 3066 4069 2747 4153 
Q 2428 4238 2131 4238 
Q 1616 4238 1336 4038 
Q 1056 3838 1056 3469 
Q 1056 3159 1242 3001 
Q 1428 2844 1947 2747 
L 2328 2669 
Q 3034 2534 3370 2195 
Q 3706 1856 3706 1288 
Q 3706 609 3251 259 
Q 2797 -91 1919 -91 
Q 1588 -91 1214 -16 
Q 841 59 441 206 
L 441 856 
Q 825 641 1194 531 
Q 1563 422 1919 422 
Q 2459 422 2753 634 
Q 3047 847 3047 1241 
Q 3047 1584 2836 1778 
Q 2625 1972 2144 2069 
L 1759 2144 
Q 1053 2284 737 2584 
Q 422 2884 422 3419 
Q 422 4038 858 4394 
Q 1294 4750 2059 4750 
Q 2388 4750 2728 4690 
Q 3069 4631 3425 4513 
z
" transform="scale(0.015625)"/>
       <path id="DejaVuSans-61" d="M 2194 1759 
Q 1497 1759 1228 1600 
Q 959 1441 959 1056 
Q 959 750 1161 570 
Q 1363 391 1709 391 
Q 2188 391 2477 730 
Q 2766 1069 2766 1631 
L 2766 1759 
L 2194 1759 
z
M 3341 1997 
L 3341 0 
L 2766 0 
L 2766 531 
Q 2569 213 2275 61 
Q 1981 -91 1556 -91 
Q 1019 -91 701 211 
Q 384 513 384 1019 
Q 384 1609 779 1909 
Q 1175 2209 1959 2209 
L 2766 2209 
L 2766 2266 
Q 2766 2663 2505 2880 
Q 2244 3097 1772 3097 
Q 1472 3097 1187 3025 
Q 903 2953 641 2809 
L 641 3341 
Q 956 3463 1253 3523 
Q 1550 3584 1831 3584 
Q 2591 3584 2966 3190 
Q 3341 2797 3341 1997 
z
" transform="scale(0.015625)"/>
       <path id="DejaVuSans-6d" d="M 3328 2828 
Q 3544 3216 3844 3400 
Q 4144 3584 4550 3584 
Q 5097 3584 5394 3201 
Q 5691 2819 5691 2113 
L 5691 0 
L 5113 0 
L 5113 2094 
Q 5113 2597 4934 2840 
Q 4756 3084 4391 3084 
Q 3944 3084 3684 2787 
Q 3425 2491 3425 1978 
L 3425 0 
L 2847 0 
L 2847 2094 
Q 2847 2600 2669 2842 
Q 2491 3084 2119 3084 
Q 1678 3084 1418 2786 
Q 1159 2488 1159 1978 
L 1159 0 
L 581 0 
L 581 3500 
L 1159 3500 
L 1159 2956 
Q 1356 3278 1631 3431 
Q 1906 3584 2284 3584 
Q 2666 3584 2933 3390 
Q 3200 3197 3328 2828 
z
" transform="scale(0.015625)"/>
       <path id="DejaVuSans-70" d="M 1159 525 
L 1159 -1331 
L 581 -1331 
L 581 3500 
L 1159 3500 
L 1159 2969 
Q 1341 3281 1617 3432 
Q 1894 3584 2278 3584 
Q 2916 3584 3314 3078 
Q 3713 2572 3713 1747 
Q 3713 922 3314 415 
Q 2916 -91 2278 -91 
Q 1894 -91 1617 61 
Q 1341 213 1159 525 
z
M 3116 1747 
Q 3116 2381 2855 2742 
Q 2594 3103 2138 3103 
Q 1681 3103 1420 2742 
Q 1159 2381 1159 1747 
Q 1159 1113 1420 752 
Q 1681 391 2138 391 
Q 2594 391 2855 752 
Q 3116 1113 3116 1747 
z
" transform="scale(0.015625)"/>
       <path id="DejaVuSans-6c" d="M 603 4863 
L 1178 4863 
L 1178 0 
L 603 0 
L 603 4863 
z
" transform="scale(0.015625)"/>
       <path id="DejaVuSans-65" d="M 3597 1894 
L 3597 1613 
L 953 1613 
Q 991 1019 1311 708 
Q 1631 397 2203 397 
Q 2534 397 2845 478 
Q 3156 559 3463 722 
L 3463 178 
Q 3153 47 2828 -22 
Q 2503 -91 2169 -91 
Q 1331 -91 842 396 
Q 353 884 353 1716 
Q 353 2575 817 3079 
Q 1281 3584 2069 3584 
Q 2775 3584 3186 3129 
Q 3597 2675 3597 1894 
z
M 3022 2063 
Q 3016 2534 2758 2815 
Q 2500 3097 2075 3097 
Q 1594 3097 1305 2825 
Q 1016 2553 972 2059 
L 3022 2063 
z
" transform="scale(0.015625)"/>
       <path id="DejaVuSans-20" transform="scale(0.015625)"/>
       <path id="DejaVuSans-69" d="M 603 3500 
L 1178 3500 
L 1178 0 
L 603 0 
L 603 3500 
z
M 603 4863 
L 1178 4863 
L 1178 4134 
L 603 4134 
L 603 4863 
z
" transform="scale(0.015625)"/>
       <path id="DejaVuSans-6e" d="M 3513 2113 
L 3513 0 
L 2938 0 
L 2938 2094 
Q 2938 2591 2744 2837 
Q 2550 3084 2163 3084 
Q 1697 3084 1428 2787 
Q 1159 2491 1159 1978 
L 1159 0 
L 581 0 
L 581 3500 
L 1159 3500 
L 1159 2956 
Q 1366 3272 1645 3428 
Q 1925 3584 2291 3584 
Q 2894 3584 3203 3211 
Q 3513 2838 3513 2113 
z
" transform="scale(0.015625)"/>
       <path id="DejaVuSans-64" d="M 2906 2969 
L 2906 4863 
L 3481 4863 
L 3481 0 
L 2906 0 
L 2906 525 
Q 2725 213 2448 61 
Q 2172 -91 1784 -91 
Q 1150 -91 751 415 
Q 353 922 353 1747 
Q 353 2572 751 3078 
Q 1150 3584 1784 3584 
Q 2172 3584 2448 3432 
Q 2725 3281 2906 2969 
z
M 947 1747 
Q 947 1113 1208 752 
Q 1469 391 1925 391 
Q 2381 391 2643 752 
Q 2906 1113 2906 1747 
Q 2906 2381 2643 2742 
Q 2381 3103 1925 3103 
Q 1469 3103 1208 2742 
Q 947 2381 947 1747 
z
" transform="scale(0.015625)"/>
       <path id="DejaVuSans-78" d="M 3513 3500 
L 2247 1797 
L 3578 0 
L 2900 0 
L 1881 1375 
L 863 0 
L 184 0 
L 1544 1831 
L 300 3500 
L 978 3500 
L 1906 2253 
L 2834 3500 
L 3513 3500 
z
" transform="scale(0.015625)"/>
      </defs>
      <use xlink:href="#DejaVuSans-53"/>
      <use xlink:href="#DejaVuSans-61" transform="translate(63.476562 0)"/>
      <use xlink:href="#DejaVuSans-6d" transform="translate(124.755859 0)"/>
      <use xlink:href="#DejaVuSans-70" transform="translate(222.167969 0)"/>
      <use xlink:href="#DejaVuSans-6c" transform="translate(285.644531 0)"/>
      <use xlink:href="#DejaVuSans-65" transform="translate(313.427734 0)"/>
      <use xlink:href="#DejaVuSans-20" transform="translate(374.951172 0)"/>
      <use xlink:href="#DejaVuSans-69" transform="translate(406.738281 0)"/>
      <use xlink:href="#DejaVuSans-6e" transform="translate(434.521484 0)"/>
      <use xlink:href="#DejaVuSans-64" transform="translate(497.900391 0)"/>
      <use xlink:href="#DejaVuSans-65" transform="translate(561.376953 0)"/>
      <use xlink:href="#DejaVuSans-78" transform="translate(621.150391 0)"/>
     </g>
    </g>
   </g>
   <g id="matplotlib.axis_2">
    <g id="ytick_1">
     <g id="line2d_13">
      <path d="M 54.12125 233.755235 
L 637.2 233.755235 
" clip-path="url(#pe08960030b)" style="fill: none; stroke-dasharray: 0.5,0.825; stroke-dashoffset: 0; stroke: #b0b0b0; stroke-opacity: 0.6; stroke-width: 0.5"/>
     </g>
     <g id="line2d_14">
      <defs>
       <path id="m128df973e2" d="M 0 0 
L -3.5 0 
" style="stroke: #000000; stroke-width: 0.8"/>
      </defs>
      <g>
       <use xlink:href="#m128df973e2" x="54.12125" y="233.755235" style="stroke: #000000; stroke-width: 0.8"/>
      </g>
     </g>
     <g id="text_8">
      <!-- 0.47 -->
      <g transform="translate(24.855625 237.554453) scale(0.1 -0.1)">
       <defs>
        <path id="DejaVuSans-2e" d="M 684 794 
L 1344 794 
L 1344 0 
L 684 0 
L 684 794 
z
" transform="scale(0.015625)"/>
        <path id="DejaVuSans-37" d="M 525 4666 
L 3525 4666 
L 3525 4397 
L 1831 0 
L 1172 0 
L 2766 4134 
L 525 4134 
L 525 4666 
z
" transform="scale(0.015625)"/>
       </defs>
       <use xlink:href="#DejaVuSans-30"/>
       <use xlink:href="#DejaVuSans-2e" transform="translate(63.623047 0)"/>
       <use xlink:href="#DejaVuSans-34" transform="translate(95.410156 0)"/>
       <use xlink:href="#DejaVuSans-37" transform="translate(159.033203 0)"/>
      </g>
     </g>
    </g>
    <g id="ytick_2">
     <g id="line2d_15">
      <path d="M 54.12125 177.619231 
L 637.2 177.619231 
" clip-path="url(#pe08960030b)" style="fill: none; stroke-dasharray: 0.5,0.825; stroke-dashoffset: 0; stroke: #b0b0b0; stroke-opacity: 0.6; stroke-width: 0.5"/>
     </g>
     <g id="line2d_16">
      <g>
       <use xlink:href="#m128df973e2" x="54.12125" y="177.619231" style="stroke: #000000; stroke-width: 0.8"/>
      </g>
     </g>
     <g id="text_9">
      <!-- 0.48 -->
      <g transform="translate(24.855625 181.41845) scale(0.1 -0.1)">
       <use xlink:href="#DejaVuSans-30"/>
       <use xlink:href="#DejaVuSans-2e" transform="translate(63.623047 0)"/>
       <use xlink:href="#DejaVuSans-34" transform="translate(95.410156 0)"/>
       <use xlink:href="#DejaVuSans-38" transform="translate(159.033203 0)"/>
      </g>
     </g>
    </g>
    <g id="ytick_3">
     <g id="line2d_17">
      <path d="M 54.12125 121.483227 
L 637.2 121.483227 
" clip-path="url(#pe08960030b)" style="fill: none; stroke-dasharray: 0.5,0.825; stroke-dashoffset: 0; stroke: #b0b0b0; stroke-opacity: 0.6; stroke-width: 0.5"/>
     </g>
     <g id="line2d_18">
      <g>
       <use xlink:href="#m128df973e2" x="54.12125" y="121.483227" style="stroke: #000000; stroke-width: 0.8"/>
      </g>
     </g>
     <g id="text_10">
      <!-- 0.49 -->
      <g transform="translate(24.855625 125.282446) scale(0.1 -0.1)">
       <defs>
        <path id="DejaVuSans-39" d="M 703 97 
L 703 672 
Q 941 559 1184 500 
Q 1428 441 1663 441 
Q 2288 441 2617 861 
Q 2947 1281 2994 2138 
Q 2813 1869 2534 1725 
Q 2256 1581 1919 1581 
Q 1219 1581 811 2004 
Q 403 2428 403 3163 
Q 403 3881 828 4315 
Q 1253 4750 1959 4750 
Q 2769 4750 3195 4129 
Q 3622 3509 3622 2328 
Q 3622 1225 3098 567 
Q 2575 -91 1691 -91 
Q 1453 -91 1209 -44 
Q 966 3 703 97 
z
M 1959 2075 
Q 2384 2075 2632 2365 
Q 2881 2656 2881 3163 
Q 2881 3666 2632 3958 
Q 2384 4250 1959 4250 
Q 1534 4250 1286 3958 
Q 1038 3666 1038 3163 
Q 1038 2656 1286 2365 
Q 1534 2075 1959 2075 
z
" transform="scale(0.015625)"/>
       </defs>
       <use xlink:href="#DejaVuSans-30"/>
       <use xlink:href="#DejaVuSans-2e" transform="translate(63.623047 0)"/>
       <use xlink:href="#DejaVuSans-34" transform="translate(95.410156 0)"/>
       <use xlink:href="#DejaVuSans-39" transform="translate(159.033203 0)"/>
      </g>
     </g>
    </g>
    <g id="ytick_4">
     <g id="line2d_19">
      <path d="M 54.12125 65.347224 
L 637.2 65.347224 
" clip-path="url(#pe08960030b)" style="fill: none; stroke-dasharray: 0.5,0.825; stroke-dashoffset: 0; stroke: #b0b0b0; stroke-opacity: 0.6; stroke-width: 0.5"/>
     </g>
     <g id="line2d_20">
      <g>
       <use xlink:href="#m128df973e2" x="54.12125" y="65.347224" style="stroke: #000000; stroke-width: 0.8"/>
      </g>
     </g>
     <g id="text_11">
      <!-- 0.50 -->
      <g transform="translate(24.855625 69.146443) scale(0.1 -0.1)">
       <defs>
        <path id="DejaVuSans-35" d="M 691 4666 
L 3169 4666 
L 3169 4134 
L 1269 4134 
L 1269 2991 
Q 1406 3038 1543 3061 
Q 1681 3084 1819 3084 
Q 2600 3084 3056 2656 
Q 3513 2228 3513 1497 
Q 3513 744 3044 326 
Q 2575 -91 1722 -91 
Q 1428 -91 1123 -41 
Q 819 9 494 109 
L 494 744 
Q 775 591 1075 516 
Q 1375 441 1709 441 
Q 2250 441 2565 725 
Q 2881 1009 2881 1497 
Q 2881 1984 2565 2268 
Q 2250 2553 1709 2553 
Q 1456 2553 1204 2497 
Q 953 2441 691 2322 
L 691 4666 
z
" transform="scale(0.015625)"/>
       </defs>
       <use xlink:href="#DejaVuSans-30"/>
       <use xlink:href="#DejaVuSans-2e" transform="translate(63.623047 0)"/>
       <use xlink:href="#DejaVuSans-35" transform="translate(95.410156 0)"/>
       <use xlink:href="#DejaVuSans-30" transform="translate(159.033203 0)"/>
      </g>
     </g>
    </g>
    <g id="text_12">
     <!-- Running mean of seats_at_50_50 -->
     <g transform="translate(18.497813 237.273281) rotate(-90) scale(0.1 -0.1)">
      <defs>
       <path id="DejaVuSans-52" d="M 2841 2188 
Q 3044 2119 3236 1894 
Q 3428 1669 3622 1275 
L 4263 0 
L 3584 0 
L 2988 1197 
Q 2756 1666 2539 1819 
Q 2322 1972 1947 1972 
L 1259 1972 
L 1259 0 
L 628 0 
L 628 4666 
L 2053 4666 
Q 2853 4666 3247 4331 
Q 3641 3997 3641 3322 
Q 3641 2881 3436 2590 
Q 3231 2300 2841 2188 
z
M 1259 4147 
L 1259 2491 
L 2053 2491 
Q 2509 2491 2742 2702 
Q 2975 2913 2975 3322 
Q 2975 3731 2742 3939 
Q 2509 4147 2053 4147 
L 1259 4147 
z
" transform="scale(0.015625)"/>
       <path id="DejaVuSans-75" d="M 544 1381 
L 544 3500 
L 1119 3500 
L 1119 1403 
Q 1119 906 1312 657 
Q 1506 409 1894 409 
Q 2359 409 2629 706 
Q 2900 1003 2900 1516 
L 2900 3500 
L 3475 3500 
L 3475 0 
L 2900 0 
L 2900 538 
Q 2691 219 2414 64 
Q 2138 -91 1772 -91 
Q 1169 -91 856 284 
Q 544 659 544 1381 
z
M 1991 3584 
L 1991 3584 
z
" transform="scale(0.015625)"/>
       <path id="DejaVuSans-67" d="M 2906 1791 
Q 2906 2416 2648 2759 
Q 2391 3103 1925 3103 
Q 1463 3103 1205 2759 
Q 947 2416 947 1791 
Q 947 1169 1205 825 
Q 1463 481 1925 481 
Q 2391 481 2648 825 
Q 2906 1169 2906 1791 
z
M 3481 434 
Q 3481 -459 3084 -895 
Q 2688 -1331 1869 -1331 
Q 1566 -1331 1297 -1286 
Q 1028 -1241 775 -1147 
L 775 -588 
Q 1028 -725 1275 -790 
Q 1522 -856 1778 -856 
Q 2344 -856 2625 -561 
Q 2906 -266 2906 331 
L 2906 616 
Q 2728 306 2450 153 
Q 2172 0 1784 0 
Q 1141 0 747 490 
Q 353 981 353 1791 
Q 353 2603 747 3093 
Q 1141 3584 1784 3584 
Q 2172 3584 2450 3431 
Q 2728 3278 2906 2969 
L 2906 3500 
L 3481 3500 
L 3481 434 
z
" transform="scale(0.015625)"/>
       <path id="DejaVuSans-6f" d="M 1959 3097 
Q 1497 3097 1228 2736 
Q 959 2375 959 1747 
Q 959 1119 1226 758 
Q 1494 397 1959 397 
Q 2419 397 2687 759 
Q 2956 1122 2956 1747 
Q 2956 2369 2687 2733 
Q 2419 3097 1959 3097 
z
M 1959 3584 
Q 2709 3584 3137 3096 
Q 3566 2609 3566 1747 
Q 3566 888 3137 398 
Q 2709 -91 1959 -91 
Q 1206 -91 779 398 
Q 353 888 353 1747 
Q 353 2609 779 3096 
Q 1206 3584 1959 3584 
z
" transform="scale(0.015625)"/>
       <path id="DejaVuSans-66" d="M 2375 4863 
L 2375 4384 
L 1825 4384 
Q 1516 4384 1395 4259 
Q 1275 4134 1275 3809 
L 1275 3500 
L 2222 3500 
L 2222 3053 
L 1275 3053 
L 1275 0 
L 697 0 
L 697 3053 
L 147 3053 
L 147 3500 
L 697 3500 
L 697 3744 
Q 697 4328 969 4595 
Q 1241 4863 1831 4863 
L 2375 4863 
z
" transform="scale(0.015625)"/>
       <path id="DejaVuSans-73" d="M 2834 3397 
L 2834 2853 
Q 2591 2978 2328 3040 
Q 2066 3103 1784 3103 
Q 1356 3103 1142 2972 
Q 928 2841 928 2578 
Q 928 2378 1081 2264 
Q 1234 2150 1697 2047 
L 1894 2003 
Q 2506 1872 2764 1633 
Q 3022 1394 3022 966 
Q 3022 478 2636 193 
Q 2250 -91 1575 -91 
Q 1294 -91 989 -36 
Q 684 19 347 128 
L 347 722 
Q 666 556 975 473 
Q 1284 391 1588 391 
Q 1994 391 2212 530 
Q 2431 669 2431 922 
Q 2431 1156 2273 1281 
Q 2116 1406 1581 1522 
L 1381 1569 
Q 847 1681 609 1914 
Q 372 2147 372 2553 
Q 372 3047 722 3315 
Q 1072 3584 1716 3584 
Q 2034 3584 2315 3537 
Q 2597 3491 2834 3397 
z
" transform="scale(0.015625)"/>
       <path id="DejaVuSans-74" d="M 1172 4494 
L 1172 3500 
L 2356 3500 
L 2356 3053 
L 1172 3053 
L 1172 1153 
Q 1172 725 1289 603 
Q 1406 481 1766 481 
L 2356 481 
L 2356 0 
L 1766 0 
Q 1100 0 847 248 
Q 594 497 594 1153 
L 594 3053 
L 172 3053 
L 172 3500 
L 594 3500 
L 594 4494 
L 1172 4494 
z
" transform="scale(0.015625)"/>
       <path id="DejaVuSans-5f" d="M 3263 -1063 
L 3263 -1509 
L -63 -1509 
L -63 -1063 
L 3263 -1063 
z
" transform="scale(0.015625)"/>
      </defs>
      <use xlink:href="#DejaVuSans-52"/>
      <use xlink:href="#DejaVuSans-75" transform="translate(64.982422 0)"/>
      <use xlink:href="#DejaVuSans-6e" transform="translate(128.361328 0)"/>
      <use xlink:href="#DejaVuSans-6e" transform="translate(191.740234 0)"/>
      <use xlink:href="#DejaVuSans-69" transform="translate(255.119141 0)"/>
      <use xlink:href="#DejaVuSans-6e" transform="translate(282.902344 0)"/>
      <use xlink:href="#DejaVuSans-67" transform="translate(346.28125 0)"/>
      <use xlink:href="#DejaVuSans-20" transform="translate(409.757812 0)"/>
      <use xlink:href="#DejaVuSans-6d" transform="translate(441.544922 0)"/>
      <use xlink:href="#DejaVuSans-65" transform="translate(538.957031 0)"/>
      <use xlink:href="#DejaVuSans-61" transform="translate(600.480469 0)"/>
      <use xlink:href="#DejaVuSans-6e" transform="translate(661.759766 0)"/>
      <use xlink:href="#DejaVuSans-20" transform="translate(725.138672 0)"/>
      <use xlink:href="#DejaVuSans-6f" transform="translate(756.925781 0)"/>
      <use xlink:href="#DejaVuSans-66" transform="translate(818.107422 0)"/>
      <use xlink:href="#DejaVuSans-20" transform="translate(853.3125 0)"/>
      <use xlink:href="#DejaVuSans-73" transform="translate(885.099609 0)"/>
      <use xlink:href="#DejaVuSans-65" transform="translate(937.199219 0)"/>
      <use xlink:href="#DejaVuSans-61" transform="translate(998.722656 0)"/>
      <use xlink:href="#DejaVuSans-74" transform="translate(1060.001953 0)"/>
      <use xlink:href="#DejaVuSans-73" transform="translate(1099.210938 0)"/>
      <use xlink:href="#DejaVuSans-5f" transform="translate(1151.310547 0)"/>
      <use xlink:href="#DejaVuSans-61" transform="translate(1201.310547 0)"/>
      <use xlink:href="#DejaVuSans-74" transform="translate(1262.589844 0)"/>
      <use xlink:href="#DejaVuSans-5f" transform="translate(1301.798828 0)"/>
      <use xlink:href="#DejaVuSans-35" transform="translate(1351.798828 0)"/>
      <use xlink:href="#DejaVuSans-30" transform="translate(1415.421875 0)"/>
      <use xlink:href="#DejaVuSans-5f" transform="translate(1479.044922 0)"/>
      <use xlink:href="#DejaVuSans-35" transform="translate(1529.044922 0)"/>
      <use xlink:href="#DejaVuSans-30" transform="translate(1592.667969 0)"/>
     </g>
    </g>
   </g>
   <g id="line2d_21">
    <path d="M 80.62483 226.657579 
L 80.799755 226.657579 
L 80.96938 253.053819 
L 80.979981 252.277459 
L 81.001184 250.854132 
L 81.04359 254.886891 
L 81.324531 269.350244 
L 81.361636 270.441818 
L 81.398742 268.356854 
L 81.616073 262.694999 
L 81.859909 250.095836 
L 82.273369 213.215049 
L 82.745137 173.718819 
L 83.444839 152.69088 
L 83.540252 150.891481 
L 83.630366 151.227948 
L 83.789389 152.206646 
L 84.038525 155.530967 
L 84.080931 155.611854 
L 84.091532 155.434747 
L 84.563301 145.742223 
L 84.923753 137.976615 
L 84.939655 138.065536 
L 84.966159 138.212292 
L 84.992663 137.809791 
L 85.300108 130.638641 
L 85.379619 131.164723 
L 85.432627 131.505788 
L 85.485635 131.136545 
L 85.52274 130.882825 
L 85.581048 131.250087 
L 85.649958 131.197204 
L 86.036915 134.732774 
L 86.328457 138.82806 
L 86.370863 138.524143 
L 86.476878 137.082888 
L 86.800225 130.922789 
L 87.187181 128.90793 
L 87.234888 129.147537 
L 87.473423 130.295539 
L 87.526431 130.044685 
L 87.674852 128.82909 
L 87.939891 126.717579 
L 87.971695 126.59166 
L 88.019402 126.820798 
L 88.035304 126.896522 
L 88.067109 126.541828 
L 88.438163 116.332232 
L 89.10606 101.155906 
L 89.307489 98.672231 
L 89.699746 94.445239 
L 90.160913 92.088896 
L 90.293432 91.280626 
L 90.383545 91.374063 
L 90.569072 91.49033 
L 90.584974 91.39713 
L 90.648584 91.027287 
L 90.749298 91.092728 
L 90.90302 91.190141 
L 90.918923 91.100426 
L 91.088547 89.539693 
L 91.263473 88.38697 
L 91.295277 88.414445 
L 91.31118 88.428121 
L 91.332383 88.318585 
L 91.751144 86.240756 
L 91.79885 86.442243 
L 91.894264 86.627753 
L 91.915467 86.496972 
L 92.238814 84.274698 
L 92.429642 82.955248 
L 92.843102 80.009258 
L 92.848403 79.988918 
L 92.927914 80.102745 
L 92.949117 80.132851 
L 92.980922 80.011802 
L 93.097539 79.134668 
L 93.924459 72.416602 
L 93.956263 72.47668 
L 94.353821 73.204178 
L 94.396227 73.080687 
L 94.618859 72.444635 
L 94.687769 72.567898 
L 94.730176 72.643154 
L 94.777883 72.509863 
L 95.154237 71.489019 
L 95.212546 71.616824 
L 95.45108 72.403831 
L 95.535893 72.753513 
L 95.79563 74.981898 
L 96.00236 76.375472 
L 96.362812 77.774096 
L 96.431722 77.860538 
L 96.474129 77.740778 
L 96.511234 77.636512 
L 96.590746 77.735945 
L 96.654355 77.814781 
L 96.728566 77.736114 
L 97.136725 76.280711 
L 97.444169 74.230983 
L 97.968945 71.093875 
L 98.037855 71.198774 
L 98.175675 71.406103 
L 98.228683 71.290748 
L 98.578534 69.803732 
L 98.589135 69.820136 
L 98.626241 69.8774 
L 98.679248 69.76941 
L 98.711053 69.704919 
L 98.779963 69.810803 
L 98.944287 70.060081 
L 98.981392 69.948108 
L 99.135115 69.568171 
L 99.156318 69.600245 
L 99.272935 69.775351 
L 99.31004 69.647613 
L 99.665191 68.33728 
L 99.712898 68.249198 
L 99.781808 68.354781 
L 99.850718 68.459607 
L 99.909027 68.352677 
L 99.993839 68.198291 
L 100.062749 68.302528 
L 100.13696 68.413961 
L 100.195268 68.30873 
L 100.269479 68.36717 
L 100.75715 67.071151 
L 100.990384 65.389199 
L 102.20426 56.66372 
L 103.338624 49.374262 
L 103.343925 49.385514 
L 103.502948 49.720634 
L 103.593061 49.655381 
L 103.900506 49.304336 
L 104.329868 47.423851 
L 104.722125 45.728876 
L 104.844043 45.665243 
L 104.886449 45.756014 
L 104.912953 45.812586 
L 105.003066 45.76555 
L 105.119683 45.691233 
L 105.130284 45.713689 
L 105.252202 45.970542 
L 105.347616 45.920824 
L 105.432428 45.752892 
L 106.004911 44.321974 
L 106.084423 44.40777 
L 106.264649 44.528252 
L 106.328258 44.619675 
L 106.503183 45.228853 
L 106.598597 45.63188 
L 106.68871 45.588509 
L 106.911343 45.274492 
L 107.012057 45.34461 
L 107.245291 46.046503 
L 107.393713 46.613378 
L 107.478525 46.57066 
L 108.029805 46.41174 
L 108.54928 47.1558 
L 108.830221 47.136916 
L 108.952139 47.185096 
L 108.96274 47.155688 
L 109.116462 46.40766 
L 109.78966 42.500542 
L 110.187218 39.863774 
L 110.431053 39.257626 
L 110.871017 38.478182 
L 111.03004 39.023578 
L 111.289778 39.62009 
L 112.318127 41.792675 
L 113.086738 44.441402 
L 113.123844 44.428438 
L 113.187453 44.521805 
L 113.929561 45.529975 
L 114.26881 45.018257 
L 114.316517 45.082563 
L 114.321818 45.100973 
L 114.486141 45.386046 
L 114.512645 45.376427 
L 114.698172 45.199111 
L 114.788285 45.007004 
L 114.857195 45.112877 
L 115.079828 45.650537 
L 115.307761 46.810337 
L 115.662912 48.066935 
L 115.917349 48.239945 
L 116.293704 47.121311 
L 116.972202 44.723585 
L 116.993405 44.754413 
L 117.141827 44.78191 
L 117.216037 44.860996 
L 118.949389 50.048283 
L 119.585481 51.009013 
L 119.834617 51.392287 
L 120.364694 51.853778 
L 120.703943 51.575475 
L 121.16511 50.875899 
L 121.817105 50.710572 
L 122.935567 51.820836 
L 123.02568 51.902006 
L 124.027525 52.822969 
L 124.202451 52.626033 
L 124.642415 51.809197 
L 124.711325 51.880776 
L 124.859746 51.879568 
L 125.246702 51.831566 
L 125.718471 52.469698 
L 125.930501 53.269706 
L 126.386368 55.071489 
L 126.704414 55.216622 
L 126.995956 55.195494 
L 128.172727 56.273854 
L 128.225734 56.176189 
L 128.782315 55.312818 
L 128.803518 55.33143 
L 128.909534 55.310922 
L 128.914834 55.301401 
L 129.429009 53.778006 
L 129.482017 53.888554 
L 129.953785 55.200981 
L 130.441456 56.494805 
L 131.119954 56.911744 
L 131.284278 56.712951 
L 131.453903 56.607197 
L 131.464504 56.615746 
L 131.607625 56.87168 
L 131.904468 57.234188 
L 132.370936 57.465933 
L 132.487553 57.292422 
L 133.075938 55.899419 
L 133.362179 55.89233 
L 133.717331 56.036088 
L 133.955866 55.818018 
L 134.284513 55.487599 
L 134.692672 55.432354 
L 135.010719 55.540636 
L 135.376472 55.271963 
L 136.076173 54.369115 
L 136.251099 54.185377 
L 136.818281 53.515972 
L 137.030312 53.554379 
L 137.062116 53.554964 
L 137.109823 53.483186 
L 137.311252 53.380545 
L 137.798923 53.668037 
L 137.814825 53.644374 
L 138.461519 52.758157 
L 138.514527 52.799222 
L 138.800768 52.884471 
L 138.917385 52.733394 
L 139.818516 50.735695 
L 140.18957 50.281256 
L 140.247878 50.327536 
L 141.875214 51.477549 
L 142.103147 51.298106 
L 142.612021 50.795499 
L 143.401836 50.676208 
L 144.016725 51.989216 
L 144.408982 52.746947 
L 145.580452 53.440137 
L 145.781881 53.492691 
L 146.004513 53.512131 
L 146.205943 53.068707 
L 146.651207 52.270946 
L 146.667109 52.281862 
L 147.138878 52.474789 
L 147.642451 52.216837 
L 147.838579 51.794661 
L 148.342152 50.953532 
L 148.925237 50.350343 
L 148.957042 50.377343 
L 149.529525 51.524167 
L 149.852872 52.045696 
L 150.133812 52.082233 
L 150.266332 52.296542 
L 151.01374 54.463634 
L 151.474907 55.627813 
L 152.132202 56.927185 
L 152.609271 57.073253 
L 152.990927 56.833327 
L 153.346078 56.571564 
L 153.992772 56.248024 
L 155.227851 54.943136 
L 155.609507 54.945916 
L 155.959357 55.271143 
L 156.367517 55.743106 
L 156.399321 55.706516 
L 156.59545 55.314987 
L 157.141429 54.226687 
L 157.236843 54.280713 
L 157.401167 54.248715 
L 157.554889 54.313124 
L 157.894138 54.600577 
L 158.350004 54.976015 
L 159.298842 56.802981 
L 160.146965 57.11774 
L 160.761854 57.044313 
L 160.952682 57.017202 
L 161.170013 56.837986 
L 161.864414 56.235036 
L 161.991632 56.18203 
L 162.346784 55.960296 
L 162.489905 55.811688 
L 163.232012 54.667723 
L 163.581863 54.461274 
L 164.016526 54.563125 
L 164.212655 54.627297 
L 164.567806 54.690983 
L 164.885852 54.52014 
L 165.415929 54.273208 
L 166.189841 53.334134 
L 166.582098 52.871708 
L 166.942551 52.666259 
L 167.196987 52.675872 
L 167.409018 52.738356 
L 168.167028 53.251877 
L 169.253686 54.61764 
L 169.338498 54.535373 
L 169.661845 54.372973 
L 169.953387 54.192469 
L 172.73099 51.376338 
L 174.072085 49.437613 
L 174.676372 49.441645 
L 175.678218 50.078825 
L 176.043971 50.526241 
L 176.377919 50.751159 
L 176.738372 50.574601 
L 177.888638 49.738359 
L 178.238489 49.790795 
L 178.922288 50.005126 
L 180.125563 49.910514 
L 180.364097 50.148029 
L 180.867671 50.550206 
L 181.169814 50.609977 
L 182.420796 51.8326 
L 182.601022 52.030882 
L 182.99858 52.929484 
L 183.34843 53.464527 
L 183.62407 53.599261 
L 183.793695 53.674931 
L 184.148846 54.208872 
L 184.482795 54.549293 
L 185.707273 55.174704 
L 186.004116 55.320196 
L 186.512989 55.642925 
L 186.836336 55.812541 
L 186.974156 55.985692 
L 187.313406 56.319999 
L 188.182732 57.337352 
L 188.453071 57.562015 
L 188.627996 57.744041 
L 189.661646 59.157034 
L 190.228828 59.540114 
L 190.387852 59.61396 
L 191.27308 60.295022 
L 191.628231 60.143267 
L 191.909172 59.961248 
L 192.402144 59.698914 
L 193.128349 59.639611 
L 194.23621 59.898465 
L 194.368729 59.975474 
L 194.760986 60.182716 
L 194.988919 60.01507 
L 195.33877 59.873316 
L 195.704523 60.109151 
L 196.112682 60.617783 
L 197.056219 61.787028 
L 197.34246 61.827992 
L 198.635848 63.083778 
L 199.118218 63.564909 
L 199.722506 64.211468 
L 200.485816 65.069017 
L 201.052999 65.335864 
L 201.498263 65.553778 
L 202.107852 65.83005 
L 202.659132 66.377178 
L 202.881764 66.548747 
L 203.512555 66.902995 
L 204.111542 66.938378 
L 204.816544 66.517636 
L 205.277711 66.278718 
L 205.553351 66.202746 
L 205.998616 66.205163 
L 206.539294 65.924424 
L 207.302605 66.228731 
L 207.588847 66.412614 
L 207.81678 66.355582 
L 208.463474 66.299649 
L 209.40171 66.641956 
L 210.191524 67.089407 
L 210.827616 67.036241 
L 212.380742 67.513431 
L 213.138752 68.194029 
L 213.488602 68.570085 
L 214.426839 68.66379 
L 214.91981 68.642702 
L 216.128385 69.350326 
L 216.997711 69.643316 
L 217.718616 70.304287 
L 218.073768 70.322582 
L 218.609145 70.316911 
L 219.144523 70.286594 
L 219.568584 70.259211 
L 219.955541 70.26889 
L 220.300091 70.363265 
L 221.12171 70.410614 
L 221.736599 70.134061 
L 222.165961 69.961269 
L 222.881565 69.888773 
L 223.60777 69.917136 
L 225.362325 69.352513 
L 225.67507 69.269603 
L 227.503835 68.700337 
L 227.922596 68.545684 
L 229.056961 68.880694 
L 229.53403 69.227676 
L 230.064107 69.687664 
L 230.488168 69.972067 
L 231.972384 71.011419 
L 232.63498 71.779839 
L 233.430095 72.379791 
L 234.140398 73.202763 
L 234.91431 73.777391 
L 236.319014 75.013873 
L 236.642361 75.069469 
L 237.156536 75.032072 
L 237.665409 74.780725 
L 237.956952 74.714333 
L 238.328006 74.657594 
L 238.805075 74.644651 
L 239.319249 74.831124 
L 239.812221 74.976859 
L 240.395305 74.719087 
L 242.176364 74.368071 
L 242.409598 74.289532 
L 243.554564 73.670414 
L 244.238363 73.659669 
L 245.208404 73.530672 
L 245.982316 73.82124 
L 246.199647 73.964007 
L 246.671416 74.399883 
L 247.000064 74.550569 
L 247.291606 74.57859 
L 248.092022 74.492603 
L 249.205183 74.537715 
L 250.260036 74.005754 
L 250.684098 73.953996 
L 251.139964 73.957062 
L 253.38749 74.379574 
L 253.795649 74.594302 
L 254.118996 74.526799 
L 254.930014 74.159349 
L 255.518399 74.12677 
L 255.809941 74.077994 
L 256.499041 74.059344 
L 256.790584 73.878933 
L 257.156337 73.680107 
L 257.52209 73.484037 
L 258.136979 73.047386 
L 258.709462 72.582831 
L 259.271344 72.203979 
L 260.066459 71.870542 
L 261.343944 71.480935 
L 262.600226 70.892605 
L 263.686884 70.780285 
L 264.826549 71.226643 
L 265.171099 71.164701 
L 265.573958 71.194563 
L 265.764786 71.330781 
L 266.793135 72.050959 
L 268.325057 72.372522 
L 270.026604 73.063323 
L 270.848223 73.279017 
L 271.235179 73.452217 
L 271.733451 73.45972 
L 272.194618 73.628545 
L 273.604623 74.401021 
L 274.1347 74.97892 
L 274.458047 75.092543 
L 275.767336 75.134948 
L 276.408729 74.663535 
L 276.774483 74.214607 
L 277.071326 74.178575 
L 277.760426 74.14944 
L 278.878888 74.029915 
L 279.249942 73.963759 
L 279.684605 73.762819 
L 280.580435 73.144411 
L 281.587581 72.742831 
L 282.663637 72.4182 
L 283.310331 72.022717 
L 283.697287 71.83568 
L 284.428793 71.587517 
L 285.494247 71.61266 
L 286.040227 71.461974 
L 287.476735 71.306249 
L 287.969706 71.401775 
L 288.324858 71.448233 
L 289.51223 71.845811 
L 290.052909 71.802904 
L 291.224379 71.348809 
L 291.447011 71.198086 
L 292.512465 70.494757 
L 293.689236 70.397302 
L 295.809544 71.189936 
L 296.101086 71.116159 
L 296.768983 70.921109 
L 297.357368 71.05037 
L 297.754926 70.98716 
L 298.104777 70.943489 
L 298.9529 70.685203 
L 299.318653 70.545688 
L 299.758617 70.610949 
L 300.187979 70.553146 
L 300.574935 70.599189 
L 302.292384 70.698906 
L 303.235921 70.144629 
L 303.978029 69.534548 
L 304.645926 69.352597 
L 305.048784 69.400271 
L 307.031272 69.760571 
L 307.418228 69.895553 
L 307.614356 69.973742 
L 307.932402 70.060557 
L 308.351163 70.222355 
L 308.844134 70.540777 
L 309.257594 70.689954 
L 309.830078 71.037722 
L 310.429064 71.312366 
L 310.831923 71.248442 
L 311.839069 70.918015 
L 312.369146 70.868377 
L 313.132457 70.411892 
L 313.57242 70.131439 
L 314.653777 70.071336 
L 315.08314 70.232632 
L 315.735134 70.369648 
L 317.123936 70.419695 
L 317.70702 70.438957 
L 318.353714 70.623647 
L 318.867889 70.829752 
L 320.087065 71.077498 
L 320.691353 71.483357 
L 321.163121 71.658302 
L 322.270982 71.591861 
L 323.331136 72.142354 
L 324.147454 72.122385 
L 324.74114 72.223597 
L 325.165202 72.158525 
L 326.11934 71.87292 
L 326.437387 71.794907 
L 327.062877 71.65086 
L 327.895098 71.848879 
L 328.960553 72.120537 
L 330.428866 71.62822 
L 330.932439 71.791166 
L 332.554474 72.664703 
L 333.111055 72.746782 
L 333.455605 72.805012 
L 334.224216 72.961108 
L 334.738391 72.990791 
L 335.740236 73.46687 
L 336.975315 73.472447 
L 337.579603 73.489277 
L 338.067274 73.646563 
L 338.501937 73.911096 
L 339.381864 74.509821 
L 339.922543 74.534244 
L 342.117061 75.159518 
L 344.401692 75.24504 
L 345.159702 75.234134 
L 345.790494 75.324765 
L 346.172149 75.374825 
L 346.988468 75.525143 
L 349.872086 75.177327 
L 350.10532 75.137089 
L 350.746713 75.000522 
L 352.44826 75.032577 
L 353.026043 75.055351 
L 353.720444 75.161541 
L 353.985483 75.293408 
L 354.685184 75.704807 
L 355.082742 75.625626 
L 355.766541 75.631781 
L 356.885003 75.611809 
L 357.234854 75.595118 
L 358.851588 75.6124 
L 360.796971 75.426985 
L 361.793515 75.616299 
L 362.525021 75.725538 
L 363.108106 75.660529 
L 363.675288 75.563134 
L 364.438599 75.733293 
L 365.769092 76.023682 
L 366.283266 75.947593 
L 367.041276 75.945213 
L 367.608459 75.877193 
L 368.366469 75.652734 
L 371.303095 74.441412 
L 372.808513 73.687533 
L 373.179567 73.667602 
L 373.884569 73.911761 
L 375.331679 74.231218 
L 376.216907 74.412308 
L 378.464433 74.964007 
L 378.946803 75.007502 
L 379.54579 75.068809 
L 380.277296 74.925231 
L 382.127265 74.555073 
L 382.731552 74.458539 
L 383.139712 74.378976 
L 384.560318 73.705463 
L 385.270621 73.575952 
L 385.795397 73.507446 
L 386.150548 73.500759 
L 386.585211 73.426575 
L 387.486342 73.052872 
L 389.092475 72.731676 
L 390.09432 72.30714 
L 390.677405 72.245515 
L 391.393009 72.122325 
L 391.870078 72.050403 
L 393.121059 72.004963 
L 393.651136 72.04395 
L 394.658282 72.030097 
L 395.612421 71.996824 
L 396.720282 71.971896 
L 397.266261 72.126277 
L 397.912955 72.318349 
L 398.15679 72.397012 
L 399.513787 72.934388 
L 399.805329 73.066225 
L 400.239992 73.230155 
L 400.748866 73.377885 
L 401.358454 73.77051 
L 402.715451 73.76157 
L 403.335641 73.442815 
L 404.109553 73.161235 
L 404.756247 73.099217 
L 405.498355 72.975178 
L 406.394185 72.932679 
L 407.115089 72.733653 
L 407.634565 72.590135 
L 408.959757 72.541111 
L 409.420924 72.552345 
L 411.270892 72.083272 
L 412.527175 72.046956 
L 413.518418 72.012109 
L 413.868269 72.081061 
L 414.536166 72.146463 
L 415.039739 72.106053 
L 416.269517 72.310565 
L 416.794293 72.338865 
L 417.175949 72.337034 
L 418.193696 72.302789 
L 419.237948 72.292955 
L 420.160282 72.250919 
L 421.559685 72.200513 
L 422.741756 72.177334 
L 424.236573 72.11776 
L 425.535261 72.103671 
L 426.674927 72.085867 
L 428.551399 72.113421 
L 430.199938 72.039932 
L 432.299043 72.304394 
L 433.645438 72.533636 
L 434.339839 72.567391 
L 434.848712 72.669989 
L 436.311725 72.616791 
L 438.007971 72.9316 
L 438.442634 72.91952 
L 439.152937 73.079093 
L 440.82798 73.609056 
L 441.326252 73.700051 
L 443.902426 73.760387 
L 444.665736 73.785965 
L 445.879613 73.967204 
L 446.319576 73.954496 
L 447.088188 74.027441 
L 448.789735 73.651493 
L 449.436428 73.694429 
L 450.088423 73.732002 
L 450.470078 73.827849 
L 453.44381 74.423942 
L 454.747799 74.390477 
L 455.272575 74.31345 
L 455.845058 74.173979 
L 459.423077 73.671201 
L 459.836537 73.606206 
L 461.416166 73.817152 
L 461.887935 74.029595 
L 462.598238 74.07971 
L 463.610685 74.082077 
L 464.782154 74.043422 
L 469.118183 73.691933 
L 469.627057 73.695085 
L 470.40627 73.724464 
L 471.222589 73.796272 
L 472.356953 73.789268 
L 473.395904 73.909748 
L 475.410196 73.81148 
L 476.571065 73.771547 
L 477.583511 73.388617 
L 478.113588 73.20408 
L 479.587202 73.405669 
L 480.096076 73.408247 
L 480.981304 73.153356 
L 483.488568 73.19604 
L 483.902028 73.203259 
L 485.041693 73.382824 
L 487.405836 74.160111 
L 489.515542 74.391511 
L 491.434421 75.28423 
L 492.547582 75.406002 
L 494.567175 75.404437 
L 495.01244 75.403535 
L 499.237152 75.740388 
L 500.557044 76.125953 
L 501.118925 76.367767 
L 501.924642 76.539094 
L 503.064308 76.706857 
L 503.785212 76.740042 
L 504.537921 76.773063 
L 506.138754 77.208333 
L 507.410938 77.538412 
L 507.750187 77.564763 
L 509.085981 77.716659 
L 510.273353 77.48187 
L 511.381214 77.315284 
L 511.985502 77.362742 
L 513.035054 77.608836 
L 514.105809 77.610109 
L 519.046126 77.727028 
L 519.751128 77.665483 
L 520.503837 77.5892 
L 521.431472 77.606501 
L 522.189482 77.74618 
L 523.28144 77.84231 
L 524.235579 77.635793 
L 525.661485 76.995047 
L 526.292277 76.955154 
L 527.458446 76.898069 
L 529.626461 76.796972 
L 530.410974 76.834033 
L 531.889889 76.801315 
L 532.72741 76.84667 
L 533.808767 76.700741 
L 535.017343 76.815816 
L 536.305429 76.764258 
L 536.750694 76.772609 
L 537.227763 76.616102 
L 538.10239 76.404287 
L 539.295063 76.009031 
L 539.931155 75.805124 
L 543.238835 74.919308 
L 544.521621 74.390012 
L 545.168315 74.443686 
L 545.714294 74.581925 
L 546.92287 74.861654 
L 549.578555 74.880343 
L 550.469084 74.911047 
L 551.237696 75.043324 
L 552.594692 75.033563 
L 552.997551 75.163597 
L 553.522327 75.346897 
L 554.773308 75.630691 
L 556.98903 75.62235 
L 557.662227 75.671302 
L 558.632268 75.987718 
L 559.284263 76.127924 
L 560.37092 76.353386 
L 562.947094 76.358421 
L 563.413562 76.308819 
L 565.385448 76.020815 
L 566.169962 75.733779 
L 567.929817 74.9937 
L 568.70903 74.739695 
L 569.016474 74.784905 
L 569.747981 74.896657 
L 572.308252 75.242391 
L 572.695208 75.271796 
L 573.712956 75.208306 
L 574.43386 75.075472 
L 575.46751 75.011953 
L 575.981685 75.014004 
L 578.8441 75.03398 
L 580.036773 75.044747 
L 581.25595 74.989022 
L 582.485728 74.996745 
L 584.600735 75.251802 
L 585.904724 75.198489 
L 586.752847 75.13265 
L 587.558564 75.175795 
L 592.048315 76.402639 
L 594.385954 76.316055 
L 596.320735 76.507364 
L 597.709537 76.850446 
L 599.262662 77.186289 
L 600.317515 77.207341 
L 602.114476 77.389138 
L 604.505122 77.2973 
L 608.501902 78.056898 
L 609.005475 78.0833 
L 610.176945 78.094847 
L 610.69642 78.157847 
L 610.69642 78.157847 
" clip-path="url(#pe08960030b)" style="fill: none; stroke: #1f2937; stroke-linecap: square"/>
   </g>
   <g id="line2d_22">
    <path d="M 54.12125 78.157847 
L 637.2 78.157847 
" clip-path="url(#pe08960030b)" style="fill: none; stroke-dasharray: 2.96,1.28; stroke-dashoffset: 0; stroke: #888888; stroke-width: 0.8"/>
   </g>
   <g id="patch_3">
    <path d="M 54.12125 282.04 
L 54.12125 26.88 
" style="fill: none; stroke: #000000; stroke-width: 0.8; stroke-linejoin: miter; stroke-linecap: square"/>
   </g>
   <g id="patch_4">
    <path d="M 637.2 282.04 
L 637.2 26.88 
" style="fill: none; stroke: #000000; stroke-width: 0.8; stroke-linejoin: miter; stroke-linecap: square"/>
   </g>
   <g id="patch_5">
    <path d="M 54.12125 282.04 
L 637.2 282.04 
" style="fill: none; stroke: #000000; stroke-width: 0.8; stroke-linejoin: miter; stroke-linecap: square"/>
   </g>
   <g id="patch_6">
    <path d="M 54.12125 26.88 
L 637.2 26.88 
" style="fill: none; stroke: #000000; stroke-width: 0.8; stroke-linejoin: miter; stroke-linecap: square"/>
   </g>
   <g id="text_13">
    <!-- Running mean — seats_at_50_50  (100k ReCom samples, seed 42) -->
    <g transform="translate(144.92125 20.88) scale(0.12 -0.12)">
     <defs>
      <path id="DejaVuSans-2014" d="M 313 1978 
L 6088 1978 
L 6088 1528 
L 313 1528 
L 313 1978 
z
" transform="scale(0.015625)"/>
      <path id="DejaVuSans-28" d="M 1984 4856 
Q 1566 4138 1362 3434 
Q 1159 2731 1159 2009 
Q 1159 1288 1364 580 
Q 1569 -128 1984 -844 
L 1484 -844 
Q 1016 -109 783 600 
Q 550 1309 550 2009 
Q 550 2706 781 3412 
Q 1013 4119 1484 4856 
L 1984 4856 
z
" transform="scale(0.015625)"/>
      <path id="DejaVuSans-6b" d="M 581 4863 
L 1159 4863 
L 1159 1991 
L 2875 3500 
L 3609 3500 
L 1753 1863 
L 3688 0 
L 2938 0 
L 1159 1709 
L 1159 0 
L 581 0 
L 581 4863 
z
" transform="scale(0.015625)"/>
      <path id="DejaVuSans-43" d="M 4122 4306 
L 4122 3641 
Q 3803 3938 3442 4084 
Q 3081 4231 2675 4231 
Q 1875 4231 1450 3742 
Q 1025 3253 1025 2328 
Q 1025 1406 1450 917 
Q 1875 428 2675 428 
Q 3081 428 3442 575 
Q 3803 722 4122 1019 
L 4122 359 
Q 3791 134 3420 21 
Q 3050 -91 2638 -91 
Q 1578 -91 968 557 
Q 359 1206 359 2328 
Q 359 3453 968 4101 
Q 1578 4750 2638 4750 
Q 3056 4750 3426 4639 
Q 3797 4528 4122 4306 
z
" transform="scale(0.015625)"/>
      <path id="DejaVuSans-2c" d="M 750 794 
L 1409 794 
L 1409 256 
L 897 -744 
L 494 -744 
L 750 256 
L 750 794 
z
" transform="scale(0.015625)"/>
      <path id="DejaVuSans-29" d="M 513 4856 
L 1013 4856 
Q 1481 4119 1714 3412 
Q 1947 2706 1947 2009 
Q 1947 1309 1714 600 
Q 1481 -109 1013 -844 
L 513 -844 
Q 928 -128 1133 580 
Q 1338 1288 1338 2009 
Q 1338 2731 1133 3434 
Q 928 4138 513 4856 
z
" transform="scale(0.015625)"/>
     </defs>
     <use xlink:href="#DejaVuSans-52"/>
     <use xlink:href="#DejaVuSans-75" transform="translate(64.982422 0)"/>
     <use xlink:href="#DejaVuSans-6e" transform="translate(128.361328 0)"/>
     <use xlink:href="#DejaVuSans-6e" transform="translate(191.740234 0)"/>
     <use xlink:href="#DejaVuSans-69" transform="translate(255.119141 0)"/>
     <use xlink:href="#DejaVuSans-6e" transform="translate(282.902344 0)"/>
     <use xlink:href="#DejaVuSans-67" transform="translate(346.28125 0)"/>
     <use xlink:href="#DejaVuSans-20" transform="translate(409.757812 0)"/>
     <use xlink:href="#DejaVuSans-6d" transform="translate(441.544922 0)"/>
     <use xlink:href="#DejaVuSans-65" transform="translate(538.957031 0)"/>
     <use xlink:href="#DejaVuSans-61" transform="translate(600.480469 0)"/>
     <use xlink:href="#DejaVuSans-6e" transform="translate(661.759766 0)"/>
     <use xlink:href="#DejaVuSans-20" transform="translate(725.138672 0)"/>
     <use xlink:href="#DejaVuSans-2014" transform="translate(756.925781 0)"/>
     <use xlink:href="#DejaVuSans-20" transform="translate(856.925781 0)"/>
     <use xlink:href="#DejaVuSans-73" transform="translate(888.712891 0)"/>
     <use xlink:href="#DejaVuSans-65" transform="translate(940.8125 0)"/>
     <use xlink:href="#DejaVuSans-61" transform="translate(1002.335938 0)"/>
     <use xlink:href="#DejaVuSans-74" transform="translate(1063.615234 0)"/>
     <use xlink:href="#DejaVuSans-73" transform="translate(1102.824219 0)"/>
     <use xlink:href="#DejaVuSans-5f" transform="translate(1154.923828 0)"/>
     <use xlink:href="#DejaVuSans-61" transform="translate(1204.923828 0)"/>
     <use xlink:href="#DejaVuSans-74" transform="translate(1266.203125 0)"/>
     <use xlink:href="#DejaVuSans-5f" transform="translate(1305.412109 0)"/>
     <use xlink:href="#DejaVuSans-35" transform="translate(1355.412109 0)"/>
     <use xlink:href="#DejaVuSans-30" transform="translate(1419.035156 0)"/>
     <use xlink:href="#DejaVuSans-5f" transform="translate(1482.658203 0)"/>
     <use xlink:href="#DejaVuSans-35" transform="translate(1532.658203 0)"/>
     <use xlink:href="#DejaVuSans-30" transform="translate(1596.28125 0)"/>
     <use xlink:href="#DejaVuSans-20" transform="translate(1659.904297 0)"/>
     <use xlink:href="#DejaVuSans-20" transform="translate(1691.691406 0)"/>
     <use xlink:href="#DejaVuSans-28" transform="translate(1723.478516 0)"/>
     <use xlink:href="#DejaVuSans-31" transform="translate(1762.492188 0)"/>
     <use xlink:href="#DejaVuSans-30" transform="translate(1826.115234 0)"/>
     <use xlink:href="#DejaVuSans-30" transform="translate(1889.738281 0)"/>
     <use xlink:href="#DejaVuSans-6b" transform="translate(1953.361328 0)"/>
     <use xlink:href="#DejaVuSans-20" transform="translate(2011.271484 0)"/>
     <use xlink:href="#DejaVuSans-52" transform="translate(2043.058594 0)"/>
     <use xlink:href="#DejaVuSans-65" transform="translate(2108.041016 0)"/>
     <use xlink:href="#DejaVuSans-43" transform="translate(2169.564453 0)"/>
     <use xlink:href="#DejaVuSans-6f" transform="translate(2239.388672 0)"/>
     <use xlink:href="#DejaVuSans-6d" transform="translate(2300.570312 0)"/>
     <use xlink:href="#DejaVuSans-20" transform="translate(2397.982422 0)"/>
     <use xlink:href="#DejaVuSans-73" transform="translate(2429.769531 0)"/>
     <use xlink:href="#DejaVuSans-61" transform="translate(2481.869141 0)"/>
     <use xlink:href="#DejaVuSans-6d" transform="translate(2543.148438 0)"/>
     <use xlink:href="#DejaVuSans-70" transform="translate(2640.560547 0)"/>
     <use xlink:href="#DejaVuSans-6c" transform="translate(2704.037109 0)"/>
     <use xlink:href="#DejaVuSans-65" transform="translate(2731.820312 0)"/>
     <use xlink:href="#DejaVuSans-73" transform="translate(2793.34375 0)"/>
     <use xlink:href="#DejaVuSans-2c" transform="translate(2845.443359 0)"/>
     <use xlink:href="#DejaVuSans-20" transform="translate(2877.230469 0)"/>
     <use xlink:href="#DejaVuSans-73" transform="translate(2909.017578 0)"/>
     <use xlink:href="#DejaVuSans-65" transform="translate(2961.117188 0)"/>
     <use xlink:href="#DejaVuSans-65" transform="translate(3022.640625 0)"/>
     <use xlink:href="#DejaVuSans-64" transform="translate(3084.164062 0)"/>
     <use xlink:href="#DejaVuSans-20" transform="translate(3147.640625 0)"/>
     <use xlink:href="#DejaVuSans-34" transform="translate(3179.427734 0)"/>
     <use xlink:href="#DejaVuSans-32" transform="translate(3243.050781 0)"/>
     <use xlink:href="#DejaVuSans-29" transform="translate(3306.673828 0)"/>
    </g>
   </g>
   <g id="legend_1">
    <g id="patch_7">
     <path d="M 496.306406 47.290312 
L 630.9 47.290312 
Q 632.7 47.290312 632.7 45.490312 
L 632.7 33.18 
Q 632.7 31.38 630.9 31.38 
L 496.306406 31.38 
Q 494.506406 31.38 494.506406 33.18 
L 494.506406 45.490312 
Q 494.506406 47.290312 496.306406 47.290312 
z
" style="fill: #ffffff; opacity: 0.8; stroke: #cccccc; stroke-linejoin: miter"/>
    </g>
    <g id="line2d_23">
     <path d="M 498.106406 38.668594 
L 507.106406 38.668594 
L 516.106406 38.668594 
" style="fill: none; stroke-dasharray: 2.96,1.28; stroke-dashoffset: 0; stroke: #888888; stroke-width: 0.8"/>
    </g>
    <g id="text_14">
     <!-- final mean = +0.49772 -->
     <g transform="translate(523.306406 41.818594) scale(0.09 -0.09)">
      <defs>
       <path id="DejaVuSans-3d" d="M 678 2906 
L 4684 2906 
L 4684 2381 
L 678 2381 
L 678 2906 
z
M 678 1631 
L 4684 1631 
L 4684 1100 
L 678 1100 
L 678 1631 
z
" transform="scale(0.015625)"/>
       <path id="DejaVuSans-2b" d="M 2944 4013 
L 2944 2272 
L 4684 2272 
L 4684 1741 
L 2944 1741 
L 2944 0 
L 2419 0 
L 2419 1741 
L 678 1741 
L 678 2272 
L 2419 2272 
L 2419 4013 
L 2944 4013 
z
" transform="scale(0.015625)"/>
      </defs>
      <use xlink:href="#DejaVuSans-66"/>
      <use xlink:href="#DejaVuSans-69" transform="translate(35.205078 0)"/>
      <use xlink:href="#DejaVuSans-6e" transform="translate(62.988281 0)"/>
      <use xlink:href="#DejaVuSans-61" transform="translate(126.367188 0)"/>
      <use xlink:href="#DejaVuSans-6c" transform="translate(187.646484 0)"/>
      <use xlink:href="#DejaVuSans-20" transform="translate(215.429688 0)"/>
      <use xlink:href="#DejaVuSans-6d" transform="translate(247.216797 0)"/>
      <use xlink:href="#DejaVuSans-65" transform="translate(344.628906 0)"/>
      <use xlink:href="#DejaVuSans-61" transform="translate(406.152344 0)"/>
      <use xlink:href="#DejaVuSans-6e" transform="translate(467.431641 0)"/>
      <use xlink:href="#DejaVuSans-20" transform="translate(530.810547 0)"/>
      <use xlink:href="#DejaVuSans-3d" transform="translate(562.597656 0)"/>
      <use xlink:href="#DejaVuSans-20" transform="translate(646.386719 0)"/>
      <use xlink:href="#DejaVuSans-2b" transform="translate(678.173828 0)"/>
      <use xlink:href="#DejaVuSans-30" transform="translate(761.962891 0)"/>
      <use xlink:href="#DejaVuSans-2e" transform="translate(825.585938 0)"/>
      <use xlink:href="#DejaVuSans-34" transform="translate(857.373047 0)"/>
      <use xlink:href="#DejaVuSans-39" transform="translate(920.996094 0)"/>
      <use xlink:href="#DejaVuSans-37" transform="translate(984.619141 0)"/>
      <use xlink:href="#DejaVuSans-37" transform="translate(1048.242188 0)"/>
      <use xlink:href="#DejaVuSans-32" transform="translate(1111.865234 0)"/>
     </g>
    </g>
   </g>
  </g>
 </g>
 <defs>
  <clipPath id="pe08960030b">
   <rect x="54.12125" y="26.88" width="583.07875" height="255.16"/>
  </clipPath>
 </defs>
</svg>
