<?xml version="1.0" encoding="utf-8" standalone="no"?>
<!DOCTYPE svg PUBLIC "-//W3C//DTD SVG 1.1//EN"
  "http://www.w3.org/Graphics/SVG/1.1/DTD/svg11.dtd">
<svg xmlns:xlink="http://www.w3.org/1999/xlink" width="648pt" height="324pt" viewBox="0 0 648 324" xmlns="http://www.w3.org/2000/svg" version="1.1">
 <metadata>
  <rdf:RDF xmlns:dc="http://purl.org/dc/elements/1.1/" xmlns:cc="http://creativecommons.org/ns#" xmlns:rdf="http://www.w3.org/1999/02/22-rdf-syntax-ns#">
   <cc:Work>
    <dc:type rdf:resource="http://purl.org/dc/dcmitype/StillImage"/>
    <dc:date>2026-05-07T00:11:12.931762</dc:date>
    <dc:format>image/svg+xml</dc:format>
    <dc:creator>
     <cc:Agent>
      <dc:title>Matplotlib v3.10.8, https://matplotlib.org/</dc:title>
     </cc:Agent>
    </dc:creator>
   </cc:Work>
  </rdf:RDF>
 </metadata>
 <defs>
  <style type="text/css">*{stroke-linejoin: round; stroke-linecap: butt}</style>
 </defs>
 <g id="figure_1">
  <g id="patch_1">
   <path d="M 0 324 
L 648 324 
L 648 0 
L 0 0 
z
" style="fill: #ffffff"/>
  </g>
  <g id="axes_1">
   <g id="patch_2">
    <path d="M 62.39 282.04 
L 637.2 282.04 
L 637.2 26.88 
L 62.39 26.88 
z
" style="fill: #ffffff"/>
   </g>
   <g id="matplotlib.axis_1">
    <g id="xtick_1">
     <g id="line2d_1">
      <path d="M 88.507276 282.04 
L 88.507276 26.88 
" clip-path="url(#p33c4b2036d)" style="fill: none; stroke-dasharray: 0.5,0.825; stroke-dashoffset: 0; stroke: #b0b0b0; stroke-opacity: 0.6; stroke-width: 0.5"/>
     </g>
     <g id="line2d_2">
      <defs>
       <path id="md5932534b4" d="M 0 0 
L 0 3.5 
" style="stroke: #000000; stroke-width: 0.8"/>
      </defs>
      <g>
       <use xlink:href="#md5932534b4" x="88.507276" y="282.04" style="stroke: #000000; stroke-width: 0.8"/>
      </g>
     </g>
     <g id="text_1">
      <!-- 0 -->
      <g transform="translate(85.326026 296.638438) scale(0.1 -0.1)">
       <defs>
        <path id="DejaVuSans-30" d="M 2034 4250 
Q 1547 4250 1301 3770 
Q 1056 3291 1056 2328 
Q 1056 1369 1301 889 
Q 1547 409 2034 409 
Q 2525 409 2770 889 
Q 3016 1369 3016 2328 
Q 3016 3291 2770 3770 
Q 2525 4250 2034 4250 
z
M 2034 4750 
Q 2819 4750 3233 4129 
Q 3647 3509 3647 2328 
Q 3647 1150 3233 529 
Q 2819 -91 2034 -91 
Q 1250 -91 836 529 
Q 422 1150 422 2328 
Q 422 3509 836 4129 
Q 1250 4750 2034 4750 
z
" transform="scale(0.015625)"/>
       </defs>
       <use xlink:href="#DejaVuSans-30"/>
      </g>
     </g>
    </g>
    <g id="xtick_2">
     <g id="line2d_3">
      <path d="M 193.020275 282.04 
L 193.020275 26.88 
" clip-path="url(#p33c4b2036d)" style="fill: none; stroke-dasharray: 0.5,0.825; stroke-dashoffset: 0; stroke: #b0b0b0; stroke-opacity: 0.6; stroke-width: 0.5"/>
     </g>
     <g id="line2d_4">
      <g>
       <use xlink:href="#md5932534b4" x="193.020275" y="282.04" style="stroke: #000000; stroke-width: 0.8"/>
      </g>
     </g>
     <g id="text_2">
      <!-- 10000 -->
      <g transform="translate(177.114025 296.638438) scale(0.1 -0.1)">
       <defs>
        <path id="DejaVuSans-31" d="M 794 531 
L 1825 531 
L 1825 4091 
L 703 3866 
L 703 4441 
L 1819 4666 
L 2450 4666 
L 2450 531 
L 3481 531 
L 3481 0 
L 794 0 
L 794 531 
z
" transform="scale(0.015625)"/>
       </defs>
       <use xlink:href="#DejaVuSans-31"/>
       <use xlink:href="#DejaVuSans-30" transform="translate(63.623047 0)"/>
       <use xlink:href="#DejaVuSans-30" transform="translate(127.246094 0)"/>
       <use xlink:href="#DejaVuSans-30" transform="translate(190.869141 0)"/>
       <use xlink:href="#DejaVuSans-30" transform="translate(254.492188 0)"/>
      </g>
     </g>
    </g>
    <g id="xtick_3">
     <g id="line2d_5">
      <path d="M 297.533275 282.04 
L 297.533275 26.88 
" clip-path="url(#p33c4b2036d)" style="fill: none; stroke-dasharray: 0.5,0.825; stroke-dashoffset: 0; stroke: #b0b0b0; stroke-opacity: 0.6; stroke-width: 0.5"/>
     </g>
     <g id="line2d_6">
      <g>
       <use xlink:href="#md5932534b4" x="297.533275" y="282.04" style="stroke: #000000; stroke-width: 0.8"/>
      </g>
     </g>
     <g id="text_3">
      <!-- 20000 -->
      <g transform="translate(281.627025 296.638438) scale(0.1 -0.1)">
       <defs>
        <path id="DejaVuSans-32" d="M 1228 531 
L 3431 531 
L 3431 0 
L 469 0 
L 469 531 
Q 828 903 1448 1529 
Q 2069 2156 2228 2338 
Q 2531 2678 2651 2914 
Q 2772 3150 2772 3378 
Q 2772 3750 2511 3984 
Q 2250 4219 1831 4219 
Q 1534 4219 1204 4116 
Q 875 4013 500 3803 
L 500 4441 
Q 881 4594 1212 4672 
Q 1544 4750 1819 4750 
Q 2544 4750 2975 4387 
Q 3406 4025 3406 3419 
Q 3406 3131 3298 2873 
Q 3191 2616 2906 2266 
Q 2828 2175 2409 1742 
Q 1991 1309 1228 531 
z
" transform="scale(0.015625)"/>
       </defs>
       <use xlink:href="#DejaVuSans-32"/>
       <use xlink:href="#DejaVuSans-30" transform="translate(63.623047 0)"/>
       <use xlink:href="#DejaVuSans-30" transform="translate(127.246094 0)"/>
       <use xlink:href="#DejaVuSans-30" transform="translate(190.869141 0)"/>
       <use xlink:href="#DejaVuSans-30" transform="translate(254.492188 0)"/>
      </g>
     </g>
    </g>
    <g id="xtick_4">
     <g id="line2d_7">
      <path d="M 402.046274 282.04 
L 402.046274 26.88 
" clip-path="url(#p33c4b2036d)" style="fill: none; stroke-dasharray: 0.5,0.825; stroke-dashoffset: 0; stroke: #b0b0b0; stroke-opacity: 0.6; stroke-width: 0.5"/>
     </g>
     <g id="line2d_8">
      <g>
       <use xlink:href="#md5932534b4" x="402.046274" y="282.04" style="stroke: #000000; stroke-width: 0.8"/>
      </g>
     </g>
     <g id="text_4">
      <!-- 30000 -->
      <g transform="translate(386.140024 296.638438) scale(0.1 -0.1)">
       <defs>
        <path id="DejaVuSans-33" d="M 2597 2516 
Q 3050 2419 3304 2112 
Q 3559 1806 3559 1356 
Q 3559 666 3084 287 
Q 2609 -91 1734 -91 
Q 1441 -91 1130 -33 
Q 819 25 488 141 
L 488 750 
Q 750 597 1062 519 
Q 1375 441 1716 441 
Q 2309 441 2620 675 
Q 2931 909 2931 1356 
Q 2931 1769 2642 2001 
Q 2353 2234 1838 2234 
L 1294 2234 
L 1294 2753 
L 1863 2753 
Q 2328 2753 2575 2939 
Q 2822 3125 2822 3475 
Q 2822 3834 2567 4026 
Q 2313 4219 1838 4219 
Q 1578 4219 1281 4162 
Q 984 4106 628 3988 
L 628 4550 
Q 988 4650 1302 4700 
Q 1616 4750 1894 4750 
Q 2613 4750 3031 4423 
Q 3450 4097 3450 3541 
Q 3450 3153 3228 2886 
Q 3006 2619 2597 2516 
z
" transform="scale(0.015625)"/>
       </defs>
       <use xlink:href="#DejaVuSans-33"/>
       <use xlink:href="#DejaVuSans-30" transform="translate(63.623047 0)"/>
       <use xlink:href="#DejaVuSans-30" transform="translate(127.246094 0)"/>
       <use xlink:href="#DejaVuSans-30" transform="translate(190.869141 0)"/>
       <use xlink:href="#DejaVuSans-30" transform="translate(254.492188 0)"/>
      </g>
     </g>
    </g>
    <g id="xtick_5">
     <g id="line2d_9">
      <path d="M 506.559273 282.04 
L 506.559273 26.88 
" clip-path="url(#p33c4b2036d)" style="fill: none; stroke-dasharray: 0.5,0.825; stroke-dashoffset: 0; stroke: #b0b0b0; stroke-opacity: 0.6; stroke-width: 0.5"/>
     </g>
     <g id="line2d_10">
      <g>
       <use xlink:href="#md5932534b4" x="506.559273" y="282.04" style="stroke: #000000; stroke-width: 0.8"/>
      </g>
     </g>
     <g id="text_5">
      <!-- 40000 -->
      <g transform="translate(490.653023 296.638438) scale(0.1 -0.1)">
       <defs>
        <path id="DejaVuSans-34" d="M 2419 4116 
L 825 1625 
L 2419 1625 
L 2419 4116 
z
M 2253 4666 
L 3047 4666 
L 3047 1625 
L 3713 1625 
L 3713 1100 
L 3047 1100 
L 3047 0 
L 2419 0 
L 2419 1100 
L 313 1100 
L 313 1709 
L 2253 4666 
z
" transform="scale(0.015625)"/>
       </defs>
       <use xlink:href="#DejaVuSans-34"/>
       <use xlink:href="#DejaVuSans-30" transform="translate(63.623047 0)"/>
       <use xlink:href="#DejaVuSans-30" transform="translate(127.246094 0)"/>
       <use xlink:href="#DejaVuSans-30" transform="translate(190.869141 0)"/>
       <use xlink:href="#DejaVuSans-30" transform="translate(254.492188 0)"/>
      </g>
     </g>
    </g>
    <g id="xtick_6">
     <g id="line2d_11">
      <path d="M 611.072273 282.04 
L 611.072273 26.88 
" clip-path="url(#p33c4b2036d)" style="fill: none; stroke-dasharray: 0.5,0.825; stroke-dashoffset: 0; stroke: #b0b0b0; stroke-opacity: 0.6; stroke-width: 0.5"/>
     </g>
     <g id="line2d_12">
      <g>
       <use xlink:href="#md5932534b4" x="611.072273" y="282.04" style="stroke: #000000; stroke-width: 0.8"/>
      </g>
     </g>
     <g id="text_6">
      <!-- 50000 -->
      <g transform="translate(595.166023 296.638438) scale(0.1 -0.1)">
       <defs>
        <path id="DejaVuSans-35" d="M 691 4666 
L 3169 4666 
L 3169 4134 
L 1269 4134 
L 1269 2991 
Q 1406 3038 1543 3061 
Q 1681 3084 1819 3084 
Q 2600 3084 3056 2656 
Q 3513 2228 3513 1497 
Q 3513 744 3044 326 
Q 2575 -91 1722 -91 
Q 1428 -91 1123 -41 
Q 819 9 494 109 
L 494 744 
Q 775 591 1075 516 
Q 1375 441 1709 441 
Q 2250 441 2565 725 
Q 2881 1009 2881 1497 
Q 2881 1984 2565 2268 
Q 2250 2553 1709 2553 
Q 1456 2553 1204 2497 
Q 953 2441 691 2322 
L 691 4666 
z
" transform="scale(0.015625)"/>
       </defs>
       <use xlink:href="#DejaVuSans-35"/>
       <use xlink:href="#DejaVuSans-30" transform="translate(63.623047 0)"/>
       <use xlink:href="#DejaVuSans-30" transform="translate(127.246094 0)"/>
       <use xlink:href="#DejaVuSans-30" transform="translate(190.869141 0)"/>
       <use xlink:href="#DejaVuSans-30" transform="translate(254.492188 0)"/>
      </g>
     </g>
    </g>
    <g id="text_7">
     <!-- Sample index -->
     <g transform="translate(315.777031 310.316563) scale(0.1 -0.1)">
      <defs>
       <path id="DejaVuSans-53" d="M 3425 4513 
L 3425 3897 
Q 3066 4069 2747 4153 
Q 2428 4238 2131 4238 
Q 1616 4238 1336 4038 
Q 1056 3838 1056 3469 
Q 1056 3159 1242 3001 
Q 1428 2844 1947 2747 
L 2328 2669 
Q 3034 2534 3370 2195 
Q 3706 1856 3706 1288 
Q 3706 609 3251 259 
Q 2797 -91 1919 -91 
Q 1588 -91 1214 -16 
Q 841 59 441 206 
L 441 856 
Q 825 641 1194 531 
Q 1563 422 1919 422 
Q 2459 422 2753 634 
Q 3047 847 3047 1241 
Q 3047 1584 2836 1778 
Q 2625 1972 2144 2069 
L 1759 2144 
Q 1053 2284 737 2584 
Q 422 2884 422 3419 
Q 422 4038 858 4394 
Q 1294 4750 2059 4750 
Q 2388 4750 2728 4690 
Q 3069 4631 3425 4513 
z
" transform="scale(0.015625)"/>
       <path id="DejaVuSans-61" d="M 2194 1759 
Q 1497 1759 1228 1600 
Q 959 1441 959 1056 
Q 959 750 1161 570 
Q 1363 391 1709 391 
Q 2188 391 2477 730 
Q 2766 1069 2766 1631 
L 2766 1759 
L 2194 1759 
z
M 3341 1997 
L 3341 0 
L 2766 0 
L 2766 531 
Q 2569 213 2275 61 
Q 1981 -91 1556 -91 
Q 1019 -91 701 211 
Q 384 513 384 1019 
Q 384 1609 779 1909 
Q 1175 2209 1959 2209 
L 2766 2209 
L 2766 2266 
Q 2766 2663 2505 2880 
Q 2244 3097 1772 3097 
Q 1472 3097 1187 3025 
Q 903 2953 641 2809 
L 641 3341 
Q 956 3463 1253 3523 
Q 1550 3584 1831 3584 
Q 2591 3584 2966 3190 
Q 3341 2797 3341 1997 
z
" transform="scale(0.015625)"/>
       <path id="DejaVuSans-6d" d="M 3328 2828 
Q 3544 3216 3844 3400 
Q 4144 3584 4550 3584 
Q 5097 3584 5394 3201 
Q 5691 2819 5691 2113 
L 5691 0 
L 5113 0 
L 5113 2094 
Q 5113 2597 4934 2840 
Q 4756 3084 4391 3084 
Q 3944 3084 3684 2787 
Q 3425 2491 3425 1978 
L 3425 0 
L 2847 0 
L 2847 2094 
Q 2847 2600 2669 2842 
Q 2491 3084 2119 3084 
Q 1678 3084 1418 2786 
Q 1159 2488 1159 1978 
L 1159 0 
L 581 0 
L 581 3500 
L 1159 3500 
L 1159 2956 
Q 1356 3278 1631 3431 
Q 1906 3584 2284 3584 
Q 2666 3584 2933 3390 
Q 3200 3197 3328 2828 
z
" transform="scale(0.015625)"/>
       <path id="DejaVuSans-70" d="M 1159 525 
L 1159 -1331 
L 581 -1331 
L 581 3500 
L 1159 3500 
L 1159 2969 
Q 1341 3281 1617 3432 
Q 1894 3584 2278 3584 
Q 2916 3584 3314 3078 
Q 3713 2572 3713 1747 
Q 3713 922 3314 415 
Q 2916 -91 2278 -91 
Q 1894 -91 1617 61 
Q 1341 213 1159 525 
z
M 3116 1747 
Q 3116 2381 2855 2742 
Q 2594 3103 2138 3103 
Q 1681 3103 1420 2742 
Q 1159 2381 1159 1747 
Q 1159 1113 1420 752 
Q 1681 391 2138 391 
Q 2594 391 2855 752 
Q 3116 1113 3116 1747 
z
" transform="scale(0.015625)"/>
       <path id="DejaVuSans-6c" d="M 603 4863 
L 1178 4863 
L 1178 0 
L 603 0 
L 603 4863 
z
" transform="scale(0.015625)"/>
       <path id="DejaVuSans-65" d="M 3597 1894 
L 3597 1613 
L 953 1613 
Q 991 1019 1311 708 
Q 1631 397 2203 397 
Q 2534 397 2845 478 
Q 3156 559 3463 722 
L 3463 178 
Q 3153 47 2828 -22 
Q 2503 -91 2169 -91 
Q 1331 -91 842 396 
Q 353 884 353 1716 
Q 353 2575 817 3079 
Q 1281 3584 2069 3584 
Q 2775 3584 3186 3129 
Q 3597 2675 3597 1894 
z
M 3022 2063 
Q 3016 2534 2758 2815 
Q 2500 3097 2075 3097 
Q 1594 3097 1305 2825 
Q 1016 2553 972 2059 
L 3022 2063 
z
" transform="scale(0.015625)"/>
       <path id="DejaVuSans-20" transform="scale(0.015625)"/>
       <path id="DejaVuSans-69" d="M 603 3500 
L 1178 3500 
L 1178 0 
L 603 0 
L 603 3500 
z
M 603 4863 
L 1178 4863 
L 1178 4134 
L 603 4134 
L 603 4863 
z
" transform="scale(0.015625)"/>
       <path id="DejaVuSans-6e" d="M 3513 2113 
L 3513 0 
L 2938 0 
L 2938 2094 
Q 2938 2591 2744 2837 
Q 2550 3084 2163 3084 
Q 1697 3084 1428 2787 
Q 1159 2491 1159 1978 
L 1159 0 
L 581 0 
L 581 3500 
L 1159 3500 
L 1159 2956 
Q 1366 3272 1645 3428 
Q 1925 3584 2291 3584 
Q 2894 3584 3203 3211 
Q 3513 2838 3513 2113 
z
" transform="scale(0.015625)"/>
       <path id="DejaVuSans-64" d="M 2906 2969 
L 2906 4863 
L 3481 4863 
L 3481 0 
L 2906 0 
L 2906 525 
Q 2725 213 2448 61 
Q 2172 -91 1784 -91 
Q 1150 -91 751 415 
Q 353 922 353 1747 
Q 353 2572 751 3078 
Q 1150 3584 1784 3584 
Q 2172 3584 2448 3432 
Q 2725 3281 2906 2969 
z
M 947 1747 
Q 947 1113 1208 752 
Q 1469 391 1925 391 
Q 2381 391 2643 752 
Q 2906 1113 2906 1747 
Q 2906 2381 2643 2742 
Q 2381 3103 1925 3103 
Q 1469 3103 1208 2742 
Q 947 2381 947 1747 
z
" transform="scale(0.015625)"/>
       <path id="DejaVuSans-78" d="M 3513 3500 
L 2247 1797 
L 3578 0 
L 2900 0 
L 1881 1375 
L 863 0 
L 184 0 
L 1544 1831 
L 300 3500 
L 978 3500 
L 1906 2253 
L 2834 3500 
L 3513 3500 
z
" transform="scale(0.015625)"/>
      </defs>
      <use xlink:href="#DejaVuSans-53"/>
      <use xlink:href="#DejaVuSans-61" transform="translate(63.476562 0)"/>
      <use xlink:href="#DejaVuSans-6d" transform="translate(124.755859 0)"/>
      <use xlink:href="#DejaVuSans-70" transform="translate(222.167969 0)"/>
      <use xlink:href="#DejaVuSans-6c" transform="translate(285.644531 0)"/>
      <use xlink:href="#DejaVuSans-65" transform="translate(313.427734 0)"/>
      <use xlink:href="#DejaVuSans-20" transform="translate(374.951172 0)"/>
      <use xlink:href="#DejaVuSans-69" transform="translate(406.738281 0)"/>
      <use xlink:href="#DejaVuSans-6e" transform="translate(434.521484 0)"/>
      <use xlink:href="#DejaVuSans-64" transform="translate(497.900391 0)"/>
      <use xlink:href="#DejaVuSans-65" transform="translate(561.376953 0)"/>
      <use xlink:href="#DejaVuSans-78" transform="translate(621.150391 0)"/>
     </g>
    </g>
   </g>
   <g id="matplotlib.axis_2">
    <g id="ytick_1">
     <g id="line2d_13">
      <path d="M 62.39 246.662956 
L 637.2 246.662956 
" clip-path="url(#p33c4b2036d)" style="fill: none; stroke-dasharray: 0.5,0.825; stroke-dashoffset: 0; stroke: #b0b0b0; stroke-opacity: 0.6; stroke-width: 0.5"/>
     </g>
     <g id="line2d_14">
      <defs>
       <path id="ma34710a8c2" d="M 0 0 
L -3.5 0 
" style="stroke: #000000; stroke-width: 0.8"/>
      </defs>
      <g>
       <use xlink:href="#ma34710a8c2" x="62.39" y="246.662956" style="stroke: #000000; stroke-width: 0.8"/>
      </g>
     </g>
     <g id="text_8">
      <!-- −0.02 -->
      <g transform="translate(24.744688 250.462175) scale(0.1 -0.1)">
       <defs>
        <path id="DejaVuSans-2212" d="M 678 2272 
L 4684 2272 
L 4684 1741 
L 678 1741 
L 678 2272 
z
" transform="scale(0.015625)"/>
        <path id="DejaVuSans-2e" d="M 684 794 
L 1344 794 
L 1344 0 
L 684 0 
L 684 794 
z
" transform="scale(0.015625)"/>
       </defs>
       <use xlink:href="#DejaVuSans-2212"/>
       <use xlink:href="#DejaVuSans-30" transform="translate(83.789062 0)"/>
       <use xlink:href="#DejaVuSans-2e" transform="translate(147.412109 0)"/>
       <use xlink:href="#DejaVuSans-30" transform="translate(179.199219 0)"/>
       <use xlink:href="#DejaVuSans-32" transform="translate(242.822266 0)"/>
      </g>
     </g>
    </g>
    <g id="ytick_2">
     <g id="line2d_15">
      <path d="M 62.39 197.359854 
L 637.2 197.359854 
" clip-path="url(#p33c4b2036d)" style="fill: none; stroke-dasharray: 0.5,0.825; stroke-dashoffset: 0; stroke: #b0b0b0; stroke-opacity: 0.6; stroke-width: 0.5"/>
     </g>
     <g id="line2d_16">
      <g>
       <use xlink:href="#ma34710a8c2" x="62.39" y="197.359854" style="stroke: #000000; stroke-width: 0.8"/>
      </g>
     </g>
     <g id="text_9">
      <!-- −0.01 -->
      <g transform="translate(24.744688 201.159072) scale(0.1 -0.1)">
       <use xlink:href="#DejaVuSans-2212"/>
       <use xlink:href="#DejaVuSans-30" transform="translate(83.789062 0)"/>
       <use xlink:href="#DejaVuSans-2e" transform="translate(147.412109 0)"/>
       <use xlink:href="#DejaVuSans-30" transform="translate(179.199219 0)"/>
       <use xlink:href="#DejaVuSans-31" transform="translate(242.822266 0)"/>
      </g>
     </g>
    </g>
    <g id="ytick_3">
     <g id="line2d_17">
      <path d="M 62.39 148.056751 
L 637.2 148.056751 
" clip-path="url(#p33c4b2036d)" style="fill: none; stroke-dasharray: 0.5,0.825; stroke-dashoffset: 0; stroke: #b0b0b0; stroke-opacity: 0.6; stroke-width: 0.5"/>
     </g>
     <g id="line2d_18">
      <g>
       <use xlink:href="#ma34710a8c2" x="62.39" y="148.056751" style="stroke: #000000; stroke-width: 0.8"/>
      </g>
     </g>
     <g id="text_10">
      <!-- 0.00 -->
      <g transform="translate(33.124375 151.85597) scale(0.1 -0.1)">
       <use xlink:href="#DejaVuSans-30"/>
       <use xlink:href="#DejaVuSans-2e" transform="translate(63.623047 0)"/>
       <use xlink:href="#DejaVuSans-30" transform="translate(95.410156 0)"/>
       <use xlink:href="#DejaVuSans-30" transform="translate(159.033203 0)"/>
      </g>
     </g>
    </g>
    <g id="ytick_4">
     <g id="line2d_19">
      <path d="M 62.39 98.753649 
L 637.2 98.753649 
" clip-path="url(#p33c4b2036d)" style="fill: none; stroke-dasharray: 0.5,0.825; stroke-dashoffset: 0; stroke: #b0b0b0; stroke-opacity: 0.6; stroke-width: 0.5"/>
     </g>
     <g id="line2d_20">
      <g>
       <use xlink:href="#ma34710a8c2" x="62.39" y="98.753649" style="stroke: #000000; stroke-width: 0.8"/>
      </g>
     </g>
     <g id="text_11">
      <!-- 0.01 -->
      <g transform="translate(33.124375 102.552867) scale(0.1 -0.1)">
       <use xlink:href="#DejaVuSans-30"/>
       <use xlink:href="#DejaVuSans-2e" transform="translate(63.623047 0)"/>
       <use xlink:href="#DejaVuSans-30" transform="translate(95.410156 0)"/>
       <use xlink:href="#DejaVuSans-31" transform="translate(159.033203 0)"/>
      </g>
     </g>
    </g>
    <g id="ytick_5">
     <g id="line2d_21">
      <path d="M 62.39 49.450546 
L 637.2 49.450546 
" clip-path="url(#p33c4b2036d)" style="fill: none; stroke-dasharray: 0.5,0.825; stroke-dashoffset: 0; stroke: #b0b0b0; stroke-opacity: 0.6; stroke-width: 0.5"/>
     </g>
     <g id="line2d_22">
      <g>
       <use xlink:href="#ma34710a8c2" x="62.39" y="49.450546" style="stroke: #000000; stroke-width: 0.8"/>
      </g>
     </g>
     <g id="text_12">
      <!-- 0.02 -->
      <g transform="translate(33.124375 53.249765) scale(0.1 -0.1)">
       <use xlink:href="#DejaVuSans-30"/>
       <use xlink:href="#DejaVuSans-2e" transform="translate(63.623047 0)"/>
       <use xlink:href="#DejaVuSans-30" transform="translate(95.410156 0)"/>
       <use xlink:href="#DejaVuSans-32" transform="translate(159.033203 0)"/>
      </g>
     </g>
    </g>
    <g id="text_13">
     <!-- Running mean of declination -->
     <g transform="translate(18.665 226.302188) rotate(-90) scale(0.1 -0.1)">
      <defs>
       <path id="DejaVuSans-52" d="M 2841 2188 
Q 3044 2119 3236 1894 
Q 3428 1669 3622 1275 
L 4263 0 
L 3584 0 
L 2988 1197 
Q 2756 1666 2539 1819 
Q 2322 1972 1947 1972 
L 1259 1972 
L 1259 0 
L 628 0 
L 628 4666 
L 2053 4666 
Q 2853 4666 3247 4331 
Q 3641 3997 3641 3322 
Q 3641 2881 3436 2590 
Q 3231 2300 2841 2188 
z
M 1259 4147 
L 1259 2491 
L 2053 2491 
Q 2509 2491 2742 2702 
Q 2975 2913 2975 3322 
Q 2975 3731 2742 3939 
Q 2509 4147 2053 4147 
L 1259 4147 
z
" transform="scale(0.015625)"/>
       <path id="DejaVuSans-75" d="M 544 1381 
L 544 3500 
L 1119 3500 
L 1119 1403 
Q 1119 906 1312 657 
Q 1506 409 1894 409 
Q 2359 409 2629 706 
Q 2900 1003 2900 1516 
L 2900 3500 
L 3475 3500 
L 3475 0 
L 2900 0 
L 2900 538 
Q 2691 219 2414 64 
Q 2138 -91 1772 -91 
Q 1169 -91 856 284 
Q 544 659 544 1381 
z
M 1991 3584 
L 1991 3584 
z
" transform="scale(0.015625)"/>
       <path id="DejaVuSans-67" d="M 2906 1791 
Q 2906 2416 2648 2759 
Q 2391 3103 1925 3103 
Q 1463 3103 1205 2759 
Q 947 2416 947 1791 
Q 947 1169 1205 825 
Q 1463 481 1925 481 
Q 2391 481 2648 825 
Q 2906 1169 2906 1791 
z
M 3481 434 
Q 3481 -459 3084 -895 
Q 2688 -1331 1869 -1331 
Q 1566 -1331 1297 -1286 
Q 1028 -1241 775 -1147 
L 775 -588 
Q 1028 -725 1275 -790 
Q 1522 -856 1778 -856 
Q 2344 -856 2625 -561 
Q 2906 -266 2906 331 
L 2906 616 
Q 2728 306 2450 153 
Q 2172 0 1784 0 
Q 1141 0 747 490 
Q 353 981 353 1791 
Q 353 2603 747 3093 
Q 1141 3584 1784 3584 
Q 2172 3584 2450 3431 
Q 2728 3278 2906 2969 
L 2906 3500 
L 3481 3500 
L 3481 434 
z
" transform="scale(0.015625)"/>
       <path id="DejaVuSans-6f" d="M 1959 3097 
Q 1497 3097 1228 2736 
Q 959 2375 959 1747 
Q 959 1119 1226 758 
Q 1494 397 1959 397 
Q 2419 397 2687 759 
Q 2956 1122 2956 1747 
Q 2956 2369 2687 2733 
Q 2419 3097 1959 3097 
z
M 1959 3584 
Q 2709 3584 3137 3096 
Q 3566 2609 3566 1747 
Q 3566 888 3137 398 
Q 2709 -91 1959 -91 
Q 1206 -91 779 398 
Q 353 888 353 1747 
Q 353 2609 779 3096 
Q 1206 3584 1959 3584 
z
" transform="scale(0.015625)"/>
       <path id="DejaVuSans-66" d="M 2375 4863 
L 2375 4384 
L 1825 4384 
Q 1516 4384 1395 4259 
Q 1275 4134 1275 3809 
L 1275 3500 
L 2222 3500 
L 2222 3053 
L 1275 3053 
L 1275 0 
L 697 0 
L 697 3053 
L 147 3053 
L 147 3500 
L 697 3500 
L 697 3744 
Q 697 4328 969 4595 
Q 1241 4863 1831 4863 
L 2375 4863 
z
" transform="scale(0.015625)"/>
       <path id="DejaVuSans-63" d="M 3122 3366 
L 3122 2828 
Q 2878 2963 2633 3030 
Q 2388 3097 2138 3097 
Q 1578 3097 1268 2742 
Q 959 2388 959 1747 
Q 959 1106 1268 751 
Q 1578 397 2138 397 
Q 2388 397 2633 464 
Q 2878 531 3122 666 
L 3122 134 
Q 2881 22 2623 -34 
Q 2366 -91 2075 -91 
Q 1284 -91 818 406 
Q 353 903 353 1747 
Q 353 2603 823 3093 
Q 1294 3584 2113 3584 
Q 2378 3584 2631 3529 
Q 2884 3475 3122 3366 
z
" transform="scale(0.015625)"/>
       <path id="DejaVuSans-74" d="M 1172 4494 
L 1172 3500 
L 2356 3500 
L 2356 3053 
L 1172 3053 
L 1172 1153 
Q 1172 725 1289 603 
Q 1406 481 1766 481 
L 2356 481 
L 2356 0 
L 1766 0 
Q 1100 0 847 248 
Q 594 497 594 1153 
L 594 3053 
L 172 3053 
L 172 3500 
L 594 3500 
L 594 4494 
L 1172 4494 
z
" transform="scale(0.015625)"/>
      </defs>
      <use xlink:href="#DejaVuSans-52"/>
      <use xlink:href="#DejaVuSans-75" transform="translate(64.982422 0)"/>
      <use xlink:href="#DejaVuSans-6e" transform="translate(128.361328 0)"/>
      <use xlink:href="#DejaVuSans-6e" transform="translate(191.740234 0)"/>
      <use xlink:href="#DejaVuSans-69" transform="translate(255.119141 0)"/>
      <use xlink:href="#DejaVuSans-6e" transform="translate(282.902344 0)"/>
      <use xlink:href="#DejaVuSans-67" transform="translate(346.28125 0)"/>
      <use xlink:href="#DejaVuSans-20" transform="translate(409.757812 0)"/>
      <use xlink:href="#DejaVuSans-6d" transform="translate(441.544922 0)"/>
      <use xlink:href="#DejaVuSans-65" transform="translate(538.957031 0)"/>
      <use xlink:href="#DejaVuSans-61" transform="translate(600.480469 0)"/>
      <use xlink:href="#DejaVuSans-6e" transform="translate(661.759766 0)"/>
      <use xlink:href="#DejaVuSans-20" transform="translate(725.138672 0)"/>
      <use xlink:href="#DejaVuSans-6f" transform="translate(756.925781 0)"/>
      <use xlink:href="#DejaVuSans-66" transform="translate(818.107422 0)"/>
      <use xlink:href="#DejaVuSans-20" transform="translate(853.3125 0)"/>
      <use xlink:href="#DejaVuSans-64" transform="translate(885.099609 0)"/>
      <use xlink:href="#DejaVuSans-65" transform="translate(948.576172 0)"/>
      <use xlink:href="#DejaVuSans-63" transform="translate(1010.099609 0)"/>
      <use xlink:href="#DejaVuSans-6c" transform="translate(1065.080078 0)"/>
      <use xlink:href="#DejaVuSans-69" transform="translate(1092.863281 0)"/>
      <use xlink:href="#DejaVuSans-6e" transform="translate(1120.646484 0)"/>
      <use xlink:href="#DejaVuSans-61" transform="translate(1184.025391 0)"/>
      <use xlink:href="#DejaVuSans-74" transform="translate(1245.304688 0)"/>
      <use xlink:href="#DejaVuSans-69" transform="translate(1284.513672 0)"/>
      <use xlink:href="#DejaVuSans-6f" transform="translate(1312.296875 0)"/>
      <use xlink:href="#DejaVuSans-6e" transform="translate(1373.478516 0)"/>
     </g>
    </g>
   </g>
   <g id="line2d_23">
    <path d="M 88.517727 269.294064 
L 88.528179 269.252049 
L 88.53863 269.335475 
L 88.569984 270.441818 
L 88.632692 269.202138 
L 88.925328 263.502354 
L 89.071646 263.164047 
L 89.082097 263.175778 
L 89.103 258.758091 
L 89.207513 259.268788 
L 89.479247 260.994877 
L 89.521052 260.670078 
L 89.803237 258.529858 
L 89.855494 258.384239 
L 89.897299 258.582216 
L 90.127227 259.725959 
L 90.23174 259.595366 
L 90.357156 259.461062 
L 90.378059 259.537089 
L 90.409413 259.723032 
L 90.419864 259.10326 
L 90.963331 233.491724 
L 91.214163 221.009817 
L 91.862143 181.333836 
L 92.656442 149.614124 
L 92.698247 149.579044 
L 93.011786 143.75977 
L 93.722475 140.761247 
L 94.474968 123.396239 
L 94.48542 123.372506 
L 94.495871 123.574477 
L 94.913923 131.245926 
L 94.966179 130.641338 
L 95.561903 119.243515 
L 95.802283 118.24772 
L 96.314397 108.476554 
L 96.408459 109.072811 
L 96.701095 112.038707 
L 96.972829 112.824414 
L 97.369978 117.631857 
L 97.558102 117.942615 
L 97.568553 117.821569 
L 98.310595 109.873528 
L 98.352401 109.96948 
L 98.550975 110.505999 
L 98.571878 110.320504 
L 98.676391 108.50391 
L 99.198956 100.421434 
L 99.376628 99.534601 
L 99.418433 99.777247 
L 100.160475 104.650104 
L 100.703943 111.137034 
L 101.790878 113.522456 
L 102.355248 118.757822 
L 102.438859 119.080798 
L 102.637433 120.111937 
L 102.741946 120.270507 
L 102.762849 120.138885 
L 103.306317 116.249344 
L 103.661661 109.449077 
L 104.069262 102.869073 
L 104.874012 97.86042 
L 105.281612 90.995405 
L 106.347645 72.1334 
L 106.410353 71.901142 
L 106.473061 72.086378 
L 106.567122 72.632682 
L 106.619379 72.855781 
L 106.671635 72.612653 
L 106.7866 71.582154 
L 107.079236 67.142123 
L 107.507739 61.481788 
L 107.518191 61.51253 
L 107.800376 63.147261 
L 107.852632 63.288139 
L 107.904889 63.115154 
L 108.646931 60.906369 
L 108.667834 60.958525 
L 109.04408 61.764662 
L 109.064983 61.699833 
L 109.378522 60.38293 
L 109.974246 56.116166 
L 109.984697 56.13943 
L 110.256431 56.799852 
L 110.319139 56.643798 
L 110.831253 55.138862 
L 111.604649 48.796801 
L 111.876383 46.951464 
L 112.200373 46.241896 
L 112.57662 44.931152 
L 112.785646 44.206665 
L 112.858805 43.777386 
L 113.423175 40.506826 
L 113.559042 40.169503 
L 113.956191 38.478182 
L 113.966643 38.49926 
L 114.405597 39.239627 
L 114.4265 39.176243 
L 114.562367 38.760065 
L 114.625075 38.878954 
L 114.760941 39.396998 
L 115.105834 40.977247 
L 115.398471 41.440248 
L 115.753815 42.300229 
L 118.993718 61.837844 
L 119.181841 62.270718 
L 119.234098 62.116307 
L 119.599893 60.411536 
L 119.65215 60.529196 
L 119.788017 61.095745 
L 120.070202 62.108696 
L 120.373289 62.633399 
L 120.415095 62.550476 
L 120.530059 62.246457 
L 120.624121 62.39067 
L 120.728634 62.692038 
L 120.989916 64.606749 
L 122.599416 77.628226 
L 124.355235 85.345448 
L 124.700128 85.561762 
L 125.222693 87.696536 
L 125.745258 91.895171 
L 127.501076 104.063963 
L 127.657846 104.476617 
L 128.964258 109.283815 
L 129.570433 110.905756 
L 129.988485 111.19838 
L 130.594661 112.730184 
L 130.960456 112.0338 
L 131.23219 112.148901 
L 131.535278 112.896483 
L 131.62934 112.840771 
L 131.702499 112.699985 
L 132.162356 111.456947 
L 132.204161 111.556389 
L 132.340028 112.151383 
L 133.813661 119.623457 
L 134.252616 119.745375 
L 134.84834 119.791072 
L 135.308197 118.633949 
L 135.49632 118.216617 
L 136.060691 118.358379 
L 136.238363 118.54038 
L 136.583256 118.582397 
L 137.032662 119.802462 
L 137.398457 120.433332 
L 137.471616 120.585284 
L 137.523873 120.458451 
L 137.785155 120.007248 
L 137.889668 120.05426 
L 138.150951 120.626098 
L 138.401782 121.208359 
L 138.987055 122.029772 
L 139.446912 123.489142 
L 139.729097 123.455893 
L 140.512944 124.650837 
L 140.586104 124.763612 
L 141.129571 125.854525 
L 141.547623 126.077661 
L 142.226958 127.47839 
L 142.467338 127.675008 
L 143.251185 129.526747 
L 143.993227 129.373732 
L 144.954747 127.34895 
L 145.613179 127.110855 
L 149.072559 119.490641 
L 149.772796 119.16028 
L 149.940017 119.178537 
L 150.180397 119.318065 
L 152.092985 114.061982 
L 152.782771 114.023834 
L 153.315787 113.340851 
L 153.556167 113.325195 
L 154.099634 112.656274 
L 155.426949 113.089288 
L 156.07493 113.222206 
L 156.681105 113.556441 
L 156.848326 113.63928 
L 158.290606 113.818102 
L 158.719109 113.849737 
L 158.823622 113.821354 
L 158.834073 113.839087 
L 161.969463 119.374647 
L 162.889178 121.353835 
L 163.296778 122.325767 
L 163.693928 122.799967 
L 163.798441 122.917667 
L 164.247847 123.936626 
L 164.59274 124.69762 
L 165.178012 125.387912 
L 165.345233 125.291353 
L 165.502003 124.849974 
L 166.149983 123.137165 
L 166.871123 121.721628 
L 166.892025 121.753525 
L 167.341431 122.523467 
L 167.958058 122.974441 
L 169.09725 122.79621 
L 169.828841 122.828395 
L 170.999386 124.311521 
L 171.354731 124.365765 
L 172.065419 125.147421 
L 172.619338 125.126113 
L 173.089646 125.622159 
L 173.664468 125.582982 
L 174.239289 126.634064 
L 175.12765 127.282451 
L 176.454965 127.080963 
L 177.30152 127.756106 
L 178.482517 127.23967 
L 179.966602 128.530972 
L 180.792254 128.139553 
L 181.199855 127.713846 
L 181.858287 127.396935 
L 182.015056 127.352873 
L 182.579427 127.141286 
L 184.188927 124.924297 
L 184.711492 124.888545 
L 185.077287 125.071723 
L 185.463985 125.139878 
L 186.028356 125.809449 
L 186.916716 127.527704 
L 187.136193 127.713314 
L 187.313866 127.698167 
L 188.035005 127.417199 
L 188.264934 127.654821 
L 188.432155 127.642465 
L 189.048781 127.35797 
L 189.947593 127.789607 
L 190.344743 127.686036 
L 191.055431 128.121238 
L 191.588447 128.405595 
L 192.267782 128.022533 
L 192.549967 127.454675 
L 193.030727 126.005811 
L 193.54284 124.636806 
L 194.765642 121.819673 
L 195.54949 120.740279 
L 195.925737 120.835846 
L 196.051152 120.88992 
L 197.096282 121.580973 
L 197.221698 121.634609 
L 197.545688 121.990231 
L 198.277279 122.238446 
L 198.778942 122.069064 
L 199.291055 122.554154 
L 199.520984 122.711497 
L 200.033098 123.151018 
L 200.074903 123.16106 
L 200.127159 123.101564 
L 200.325734 122.944587 
L 200.367539 122.982042 
L 200.545211 123.005945 
L 200.701981 122.859463 
L 201.475377 122.053562 
L 201.788916 121.739526 
L 201.851624 121.799274 
L 202.206968 122.279009 
L 204.077751 125.879091 
L 204.872049 126.405273 
L 204.997465 126.25749 
L 205.499127 125.350601 
L 205.84402 125.040628 
L 205.854472 125.048403 
L 206.136657 125.390807 
L 206.492001 125.795196 
L 207.578936 126.534643 
L 207.986537 126.961565 
L 208.707677 128.653232 
L 209.167534 129.231214 
L 210.296274 128.961114 
L 210.588911 129.034761 
L 211.519076 128.578814 
L 212.104349 127.989519 
L 212.689622 127.932318 
L 212.971807 127.999268 
L 213.149479 128.04258 
L 213.787008 128.955814 
L 214.487245 129.512195 
L 215.135226 130.757736 
L 215.605534 131.653351 
L 216.441638 132.000642 
L 218.448288 131.415855 
L 218.678217 131.617974 
L 218.918597 132.110722 
L 219.650188 133.589005 
L 219.806957 133.753599 
L 220.130947 134.001615 
L 220.590805 133.639434 
L 220.904344 133.398277 
L 221.186529 133.13837 
L 221.416457 133.002687 
L 221.991279 133.337143 
L 222.513844 133.895489 
L 223.005055 133.81574 
L 223.266337 134.013739 
L 223.485815 133.915445 
L 223.903867 133.610846 
L 225.043058 132.484755 
L 225.147571 132.32875 
L 225.419305 132.00921 
L 226.004578 132.347012 
L 226.244958 132.611505 
L 227.112416 133.499333 
L 227.321442 133.472834 
L 228.105289 133.213633 
L 228.533793 133.199533 
L 228.889137 133.29859 
L 229.045906 133.369507 
L 230.373221 134.083334 
L 231.679634 133.955938 
L 232.087234 134.051268 
L 232.557543 133.779254 
L 233.550416 132.839213 
L 234.06253 132.51828 
L 234.417874 132.251602 
L 235.567517 131.752275 
L 236.299108 131.806519 
L 236.54994 131.757855 
L 237.291982 131.783712 
L 238.72381 132.238686 
L 239.653976 132.0892 
L 239.831648 132.041701 
L 240.887229 130.940127 
L 241.315732 130.962268 
L 241.754687 131.364926 
L 242.402668 131.051805 
L 242.58034 130.850208 
L 243.071551 130.425405 
L 243.552311 130.045542 
L 246.060622 126.826879 
L 246.614541 125.732226 
L 247.126655 124.489397 
L 248.265847 122.851327 
L 249.196012 121.968701 
L 250.199337 120.747691 
L 250.502425 120.662423 
L 252.540428 120.643992 
L 253.366081 120.664175 
L 254.024513 120.939435 
L 254.693396 120.90062 
L 254.88152 120.874509 
L 255.477244 120.613868 
L 255.958004 120.261409 
L 256.302896 120.337004 
L 256.658241 119.883496 
L 257.191257 119.249868 
L 258.643988 117.776082 
L 259.657764 116.735572 
L 259.71002 116.80082 
L 261.194105 118.825707 
L 261.71667 119.568808 
L 261.936147 119.413928 
L 262.730446 118.748373 
L 262.772251 118.798675 
L 263.367975 119.357839 
L 266.064411 118.74703 
L 267.663459 118.637698 
L 268.091963 119.008054 
L 268.7922 119.64992 
L 269.283411 119.684598 
L 269.711914 119.402734 
L 269.952294 119.48089 
L 270.892911 119.894439 
L 271.488635 119.699681 
L 271.749918 119.589971 
L 271.92759 119.63254 
L 272.16797 119.615381 
L 272.460606 119.420405 
L 273.913337 118.167415 
L 274.676282 118.430315 
L 275.198847 118.924411 
L 275.773668 119.641624 
L 276.139464 120.044146 
L 276.630675 120.855025 
L 276.871055 120.926011 
L 277.80122 121.310711 
L 279.504782 122.70567 
L 279.755613 122.932176 
L 280.110958 123.160034 
L 280.257276 123.156007 
L 280.706682 123.152949 
L 280.93661 123.123166 
L 281.971289 122.799259 
L 282.420695 122.756354 
L 282.61927 122.713919 
L 283.005968 122.517412 
L 283.340409 122.730049 
L 283.674851 122.889125 
L 284.207867 122.664045 
L 284.94991 121.987967 
L 285.462023 120.830738 
L 285.765111 120.495265 
L 286.183163 120.349037 
L 286.747533 120.121207 
L 287.113329 119.968854 
L 287.343257 119.66505 
L 288.043494 118.631533 
L 288.513803 118.211126 
L 289.193137 118.281548 
L 289.443969 118.290554 
L 289.632092 118.389652 
L 290.49955 119.543206 
L 290.802638 119.822488 
L 291.586485 120.008196 
L 291.795511 120.05964 
L 292.046342 120.02846 
L 293.195985 120.017478 
L 294.795034 120.906315 
L 295.96558 121.458782 
L 296.341826 121.371233 
L 297.136125 121.015792 
L 297.972229 121.352213 
L 299.247288 121.091749 
L 300.062489 120.339621 
L 300.595506 120.128266 
L 301.055363 120.507346 
L 302.602155 121.224395 
L 303.229233 121.353214 
L 304.472938 122.024012 
L 305.21498 121.732408 
L 306.437782 121.915155 
L 306.928993 122.30467 
L 307.744195 123.074249 
L 308.663909 123.459429 
L 309.176023 123.559053 
L 309.792649 123.786491 
L 310.68101 123.740026 
L 310.994549 123.854919 
L 313.356543 125.19862 
L 314.004523 125.124103 
L 314.401673 124.786232 
L 315.028751 124.273544 
L 315.509511 124.347023 
L 316.052978 124.762695 
L 317.955115 126.534252 
L 318.247751 126.536204 
L 318.373167 126.577877 
L 319.554164 127.533276 
L 319.867703 127.638503 
L 320.379816 127.993469 
L 320.65155 128.07249 
L 322.208794 128.64576 
L 322.89858 129.086849 
L 323.504755 128.831244 
L 324.079577 128.923218 
L 324.664849 129.052192 
L 325.22922 129.246816 
L 326.044421 129.025922 
L 327.141807 129.119447 
L 328.354158 129.106383 
L 329.315678 128.807861 
L 329.639668 128.743438 
L 330.852019 128.403032 
L 331.385035 129.145191 
L 332.095724 130.03305 
L 333.1095 130.808436 
L 333.767932 131.204496 
L 334.509974 131.70372 
L 334.948928 131.742645 
L 335.60736 131.437045 
L 336.213536 131.471219 
L 336.757003 131.552989 
L 337.269117 131.567157 
L 337.781231 131.877402 
L 338.272442 131.924203 
L 339.369828 132.033798 
L 339.78788 131.862176 
L 341.397381 132.206969 
L 341.690017 132.529154 
L 341.87814 132.572859 
L 342.233484 132.562757 
L 343.16365 132.603223 
L 343.498092 132.495659 
L 344.292391 132.223343 
L 344.950822 131.631658 
L 345.473387 131.417305 
L 347.009729 130.472068 
L 348.128018 130.457699 
L 349.016378 131.169161 
L 349.800226 131.400544 
L 350.500463 130.281675 
L 351.085736 129.821634 
L 351.597849 129.607625 
L 352.141317 129.452473 
L 352.528015 129.13044 
L 353.562694 128.233024 
L 354.837752 127.755502 
L 355.924687 127.846926 
L 357.346064 128.983408 
L 357.649152 128.873213 
L 358.328486 128.657163 
L 359.331811 128.727241 
L 361.098081 129.422159 
L 361.453425 129.552308 
L 362.143211 129.873516 
L 362.906156 130.340704 
L 363.094279 130.287458 
L 364.327533 129.729065 
L 364.839646 129.720094 
L 365.174088 129.752177 
L 365.91613 130.154166 
L 366.574562 130.194016 
L 366.87765 130.361988 
L 367.797364 130.80549 
L 368.278124 131.046739 
L 369.072423 131.515996 
L 370.514702 131.436773 
L 371.831566 131.713222 
L 372.134654 131.7726 
L 372.604962 131.956652 
L 373.273845 132.010736 
L 373.587384 132.07139 
L 374.486196 132.613249 
L 375.844865 133.113268 
L 376.221112 133.377012 
L 377.234888 134.023527 
L 378.259115 134.008065 
L 379.440112 134.630051 
L 379.879067 135.034009 
L 382.376928 136.206811 
L 384.090941 137.430065 
L 385.156973 137.795525 
L 385.909467 138.175625 
L 386.358873 138.405124 
L 390.612552 140.983183 
L 390.894737 141.048142 
L 391.72039 141.169163 
L 392.723714 140.793047 
L 393.434403 140.836649 
L 393.967419 140.902418 
L 396.444377 140.944964 
L 396.78927 140.987963 
L 398.503283 140.996352 
L 398.921335 140.930664 
L 399.820147 140.812301 
L 400.16504 140.775337 
L 401.335586 140.563536 
L 401.743186 140.4889 
L 402.359813 140.557505 
L 402.798768 140.581212 
L 403.373589 140.681628 
L 403.791641 140.720947 
L 404.753161 140.761532 
L 405.348885 141.037141 
L 405.787839 141.107945 
L 406.299953 141.184706 
L 408.578336 140.925691 
L 410.835817 139.905684 
L 412.100425 140.287433 
L 412.852918 140.719817 
L 413.197811 140.615678 
L 413.626314 140.429838 
L 414.054818 140.377765 
L 416.019662 140.314638 
L 416.719899 140.403378 
L 417.77548 140.2159 
L 418.82061 139.529388 
L 419.573104 139.381594 
L 419.970253 139.260948 
L 420.639137 139.072663 
L 423.1579 139.115717 
L 423.732721 139.244479 
L 425.498991 139.231725 
L 426.512767 138.955314 
L 427.003978 139.174098 
L 427.411579 139.26978 
L 427.756472 139.42102 
L 428.132719 139.495708 
L 431.048631 139.9574 
L 432.08331 139.686017 
L 433.023927 140.075765 
L 433.640554 140.281813 
L 434.131765 140.330303 
L 434.675232 140.343663 
L 436.305635 140.313882 
L 437.382119 140.686757 
L 438.145064 141.231992 
L 440.28758 142.18344 
L 440.799694 142.403496 
L 441.510383 142.714748 
L 442.503256 143.067055 
L 444.196367 144.425389 
L 446.203016 145.933402 
L 446.547909 146.129399 
L 446.945059 146.335156 
L 447.885676 146.663067 
L 448.753133 146.403551 
L 449.463822 146.188217 
L 449.787812 146.134649 
L 450.425341 145.938029 
L 450.864296 145.880472 
L 451.752657 145.581981 
L 452.149806 145.402693 
L 452.526053 145.229133 
L 453.94743 144.655576 
L 454.449092 144.462474 
L 455.525576 143.826899 
L 457.270943 142.631787 
L 457.950277 142.447316 
L 459.559778 141.894448 
L 459.841963 141.950961 
L 460.165953 141.986786 
L 460.636261 142.006566 
L 461.273791 142.212553 
L 462.130797 142.489615 
L 463.823908 143.580032 
L 464.24196 143.90945 
L 465.955973 144.937794 
L 466.363574 145.270165 
L 466.865236 145.48308 
L 467.743145 145.779633 
L 469.519866 145.318674 
L 471.745993 144.304707 
L 471.986373 144.372683 
L 472.582097 144.530329 
L 473.752643 144.661051 
L 474.275208 144.496653 
L 475.487559 143.783745 
L 476.469981 143.075328 
L 477.713686 143.180823 
L 478.330312 143.116772 
L 479.051452 142.838125 
L 479.500858 142.722957 
L 480.817722 142.475185 
L 481.486605 142.667355 
L 482.176391 143.282554 
L 482.563089 143.501943 
L 483.817245 143.795022 
L 484.130784 143.944452 
L 484.590641 144.133305 
L 485.489453 143.823076 
L 486.283752 143.056795 
L 487.025794 142.456597 
L 487.31843 142.453581 
L 488.112729 142.477763 
L 488.907028 142.249124 
L 489.575911 142.059365 
L 490.526979 142.071168 
L 493.683272 142.617841 
L 494.352155 142.64763 
L 494.770207 142.591225 
L 495.449542 142.400213 
L 495.888496 142.335298 
L 496.891821 142.421921 
L 497.9265 142.445392 
L 498.292295 142.408733 
L 500.497519 141.929731 
L 501.155951 141.780003 
L 501.594906 141.730128 
L 502.619133 141.720325 
L 503.31937 142.192997 
L 504.333146 142.865066 
L 505.900841 143.68154 
L 507.217705 144.318354 
L 507.844783 144.533806 
L 508.70179 144.842553 
L 509.705115 144.954124 
L 511.27281 144.928234 
L 512.359745 145.088676 
L 513.760219 145.120372 
L 514.021502 145.121859 
L 514.57542 144.947176 
L 515.097985 144.880366 
L 515.557843 144.865374 
L 516.080408 144.76933 
L 517.156892 145.142709 
L 517.658554 145.124713 
L 519.675655 145.103419 
L 521.117934 145.571394 
L 521.692756 145.89662 
L 523.469477 146.58905 
L 524.650474 146.932866 
L 526.928857 148.082354 
L 527.587289 148.306988 
L 528.245721 148.427098 
L 528.716029 148.578383 
L 529.384912 148.625552 
L 531.611039 149.027991 
L 533.084673 148.749652 
L 534.035741 148.52511 
L 534.43289 148.603 
L 535.728851 149.04676 
L 536.073744 149.092003 
L 536.502248 149.275323 
L 536.857592 149.411352 
L 537.683245 149.717561 
L 538.916498 149.69212 
L 540.233362 149.915953 
L 541.769703 150.035351 
L 542.354976 150.253194 
L 542.689417 150.23112 
L 543.379203 150.132975 
L 545.030508 149.546888 
L 545.584427 149.365831 
L 546.253311 149.38346 
L 547.7792 148.72073 
L 548.573499 148.633609 
L 549.859009 148.835521 
L 551.363996 148.887245 
L 551.970172 149.12708 
L 554.384422 150.219492 
L 555.262331 150.446873 
L 556.506036 150.823773 
L 557.58252 151.082426 
L 558.115536 151.412004 
L 558.86803 151.79012 
L 559.505559 152.138131 
L 560.759715 153.136462 
L 561.219572 153.442577 
L 562.902231 153.907181 
L 563.61292 153.762517 
L 565.452349 153.770566 
L 566.131683 153.618478 
L 567.845696 153.555998 
L 568.890826 153.563375 
L 570.249495 153.269034 
L 570.803414 153.143706 
L 571.524554 153.306511 
L 571.97396 153.375425 
L 573.123603 153.665304 
L 574.565882 154.481878 
L 577.345928 155.216074 
L 577.60721 155.3351 
L 578.077519 155.556646 
L 578.735951 155.451583 
L 579.164454 155.468395 
L 580.481318 155.920755 
L 580.993432 156.066695 
L 581.275617 155.964649 
L 581.819084 155.83798 
L 582.59248 155.974617 
L 583.052338 156.209338 
L 583.773477 156.43697 
L 584.505068 156.336029 
L 585.56065 156.27884 
L 587.630007 156.449095 
L 588.570624 156.590856 
L 589.615754 156.838086 
L 589.918842 156.83628 
L 590.984874 157.037065 
L 591.549244 157.10756 
L 592.688436 156.894328 
L 593.242355 156.8037 
L 594.48606 156.762772 
L 595.269907 156.968304 
L 596.680833 157.695253 
L 597.997697 158.20247 
L 600.27608 159.30753 
L 600.986768 159.26439 
L 602.397694 159.141829 
L 605.271801 159.119424 
L 607.769662 158.746978 
L 608.07275 158.770654 
L 608.574412 158.756957 
L 609.671799 158.642501 
L 611.072273 158.321044 
L 611.072273 158.321044 
" clip-path="url(#p33c4b2036d)" style="fill: none; stroke: #1f2937; stroke-linecap: square"/>
   </g>
   <g id="line2d_24">
    <path d="M 62.39 158.321044 
L 637.2 158.321044 
" clip-path="url(#p33c4b2036d)" style="fill: none; stroke-dasharray: 2.96,1.28; stroke-dashoffset: 0; stroke: #888888; stroke-width: 0.8"/>
   </g>
   <g id="patch_3">
    <path d="M 62.39 282.04 
L 62.39 26.88 
" style="fill: none; stroke: #000000; stroke-width: 0.8; stroke-linejoin: miter; stroke-linecap: square"/>
   </g>
   <g id="patch_4">
    <path d="M 637.2 282.04 
L 637.2 26.88 
" style="fill: none; stroke: #000000; stroke-width: 0.8; stroke-linejoin: miter; stroke-linecap: square"/>
   </g>
   <g id="patch_5">
    <path d="M 62.39 282.04 
L 637.2 282.04 
" style="fill: none; stroke: #000000; stroke-width: 0.8; stroke-linejoin: miter; stroke-linecap: square"/>
   </g>
   <g id="patch_6">
    <path d="M 62.39 26.88 
L 637.2 26.88 
" style="fill: none; stroke: #000000; stroke-width: 0.8; stroke-linejoin: miter; stroke-linecap: square"/>
   </g>
   <g id="text_14">
    <!-- Running mean — declination  (100k ReCom samples, seed 42) -->
    <g transform="translate(162.220937 20.88) scale(0.12 -0.12)">
     <defs>
      <path id="DejaVuSans-2014" d="M 313 1978 
L 6088 1978 
L 6088 1528 
L 313 1528 
L 313 1978 
z
" transform="scale(0.015625)"/>
      <path id="DejaVuSans-28" d="M 1984 4856 
Q 1566 4138 1362 3434 
Q 1159 2731 1159 2009 
Q 1159 1288 1364 580 
Q 1569 -128 1984 -844 
L 1484 -844 
Q 1016 -109 783 600 
Q 550 1309 550 2009 
Q 550 2706 781 3412 
Q 1013 4119 1484 4856 
L 1984 4856 
z
" transform="scale(0.015625)"/>
      <path id="DejaVuSans-6b" d="M 581 4863 
L 1159 4863 
L 1159 1991 
L 2875 3500 
L 3609 3500 
L 1753 1863 
L 3688 0 
L 2938 0 
L 1159 1709 
L 1159 0 
L 581 0 
L 581 4863 
z
" transform="scale(0.015625)"/>
      <path id="DejaVuSans-43" d="M 4122 4306 
L 4122 3641 
Q 3803 3938 3442 4084 
Q 3081 4231 2675 4231 
Q 1875 4231 1450 3742 
Q 1025 3253 1025 2328 
Q 1025 1406 1450 917 
Q 1875 428 2675 428 
Q 3081 428 3442 575 
Q 3803 722 4122 1019 
L 4122 359 
Q 3791 134 3420 21 
Q 3050 -91 2638 -91 
Q 1578 -91 968 557 
Q 359 1206 359 2328 
Q 359 3453 968 4101 
Q 1578 4750 2638 4750 
Q 3056 4750 3426 4639 
Q 3797 4528 4122 4306 
z
" transform="scale(0.015625)"/>
      <path id="DejaVuSans-73" d="M 2834 3397 
L 2834 2853 
Q 2591 2978 2328 3040 
Q 2066 3103 1784 3103 
Q 1356 3103 1142 2972 
Q 928 2841 928 2578 
Q 928 2378 1081 2264 
Q 1234 2150 1697 2047 
L 1894 2003 
Q 2506 1872 2764 1633 
Q 3022 1394 3022 966 
Q 3022 478 2636 193 
Q 2250 -91 1575 -91 
Q 1294 -91 989 -36 
Q 684 19 347 128 
L 347 722 
Q 666 556 975 473 
Q 1284 391 1588 391 
Q 1994 391 2212 530 
Q 2431 669 2431 922 
Q 2431 1156 2273 1281 
Q 2116 1406 1581 1522 
L 1381 1569 
Q 847 1681 609 1914 
Q 372 2147 372 2553 
Q 372 3047 722 3315 
Q 1072 3584 1716 3584 
Q 2034 3584 2315 3537 
Q 2597 3491 2834 3397 
z
" transform="scale(0.015625)"/>
      <path id="DejaVuSans-2c" d="M 750 794 
L 1409 794 
L 1409 256 
L 897 -744 
L 494 -744 
L 750 256 
L 750 794 
z
" transform="scale(0.015625)"/>
      <path id="DejaVuSans-29" d="M 513 4856 
L 1013 4856 
Q 1481 4119 1714 3412 
Q 1947 2706 1947 2009 
Q 1947 1309 1714 600 
Q 1481 -109 1013 -844 
L 513 -844 
Q 928 -128 1133 580 
Q 1338 1288 1338 2009 
Q 1338 2731 1133 3434 
Q 928 4138 513 4856 
z
" transform="scale(0.015625)"/>
     </defs>
     <use xlink:href="#DejaVuSans-52"/>
     <use xlink:href="#DejaVuSans-75" transform="translate(64.982422 0)"/>
     <use xlink:href="#DejaVuSans-6e" transform="translate(128.361328 0)"/>
     <use xlink:href="#DejaVuSans-6e" transform="translate(191.740234 0)"/>
     <use xlink:href="#DejaVuSans-69" transform="translate(255.119141 0)"/>
     <use xlink:href="#DejaVuSans-6e" transform="translate(282.902344 0)"/>
     <use xlink:href="#DejaVuSans-67" transform="translate(346.28125 0)"/>
     <use xlink:href="#DejaVuSans-20" transform="translate(409.757812 0)"/>
     <use xlink:href="#DejaVuSans-6d" transform="translate(441.544922 0)"/>
     <use xlink:href="#DejaVuSans-65" transform="translate(538.957031 0)"/>
     <use xlink:href="#DejaVuSans-61" transform="translate(600.480469 0)"/>
     <use xlink:href="#DejaVuSans-6e" transform="translate(661.759766 0)"/>
     <use xlink:href="#DejaVuSans-20" transform="translate(725.138672 0)"/>
     <use xlink:href="#DejaVuSans-2014" transform="translate(756.925781 0)"/>
     <use xlink:href="#DejaVuSans-20" transform="translate(856.925781 0)"/>
     <use xlink:href="#DejaVuSans-64" transform="translate(888.712891 0)"/>
     <use xlink:href="#DejaVuSans-65" transform="translate(952.189453 0)"/>
     <use xlink:href="#DejaVuSans-63" transform="translate(1013.712891 0)"/>
     <use xlink:href="#DejaVuSans-6c" transform="translate(1068.693359 0)"/>
     <use xlink:href="#DejaVuSans-69" transform="translate(1096.476562 0)"/>
     <use xlink:href="#DejaVuSans-6e" transform="translate(1124.259766 0)"/>
     <use xlink:href="#DejaVuSans-61" transform="translate(1187.638672 0)"/>
     <use xlink:href="#DejaVuSans-74" transform="translate(1248.917969 0)"/>
     <use xlink:href="#DejaVuSans-69" transform="translate(1288.126953 0)"/>
     <use xlink:href="#DejaVuSans-6f" transform="translate(1315.910156 0)"/>
     <use xlink:href="#DejaVuSans-6e" transform="translate(1377.091797 0)"/>
     <use xlink:href="#DejaVuSans-20" transform="translate(1440.470703 0)"/>
     <use xlink:href="#DejaVuSans-20" transform="translate(1472.257812 0)"/>
     <use xlink:href="#DejaVuSans-28" transform="translate(1504.044922 0)"/>
     <use xlink:href="#DejaVuSans-31" transform="translate(1543.058594 0)"/>
     <use xlink:href="#DejaVuSans-30" transform="translate(1606.681641 0)"/>
     <use xlink:href="#DejaVuSans-30" transform="translate(1670.304688 0)"/>
     <use xlink:href="#DejaVuSans-6b" transform="translate(1733.927734 0)"/>
     <use xlink:href="#DejaVuSans-20" transform="translate(1791.837891 0)"/>
     <use xlink:href="#DejaVuSans-52" transform="translate(1823.625 0)"/>
     <use xlink:href="#DejaVuSans-65" transform="translate(1888.607422 0)"/>
     <use xlink:href="#DejaVuSans-43" transform="translate(1950.130859 0)"/>
     <use xlink:href="#DejaVuSans-6f" transform="translate(2019.955078 0)"/>
     <use xlink:href="#DejaVuSans-6d" transform="translate(2081.136719 0)"/>
     <use xlink:href="#DejaVuSans-20" transform="translate(2178.548828 0)"/>
     <use xlink:href="#DejaVuSans-73" transform="translate(2210.335938 0)"/>
     <use xlink:href="#DejaVuSans-61" transform="translate(2262.435547 0)"/>
     <use xlink:href="#DejaVuSans-6d" transform="translate(2323.714844 0)"/>
     <use xlink:href="#DejaVuSans-70" transform="translate(2421.126953 0)"/>
     <use xlink:href="#DejaVuSans-6c" transform="translate(2484.603516 0)"/>
     <use xlink:href="#DejaVuSans-65" transform="translate(2512.386719 0)"/>
     <use xlink:href="#DejaVuSans-73" transform="translate(2573.910156 0)"/>
     <use xlink:href="#DejaVuSans-2c" transform="translate(2626.009766 0)"/>
     <use xlink:href="#DejaVuSans-20" transform="translate(2657.796875 0)"/>
     <use xlink:href="#DejaVuSans-73" transform="translate(2689.583984 0)"/>
     <use xlink:href="#DejaVuSans-65" transform="translate(2741.683594 0)"/>
     <use xlink:href="#DejaVuSans-65" transform="translate(2803.207031 0)"/>
     <use xlink:href="#DejaVuSans-64" transform="translate(2864.730469 0)"/>
     <use xlink:href="#DejaVuSans-20" transform="translate(2928.207031 0)"/>
     <use xlink:href="#DejaVuSans-34" transform="translate(2959.994141 0)"/>
     <use xlink:href="#DejaVuSans-32" transform="translate(3023.617188 0)"/>
     <use xlink:href="#DejaVuSans-29" transform="translate(3087.240234 0)"/>
    </g>
   </g>
   <g id="legend_1">
    <g id="patch_7">
     <path d="M 500.601094 47.290312 
L 630.9 47.290312 
Q 632.7 47.290312 632.7 45.490312 
L 632.7 33.18 
Q 632.7 31.38 630.9 31.38 
L 500.601094 31.38 
Q 498.801094 31.38 498.801094 33.18 
L 498.801094 45.490312 
Q 498.801094 47.290312 500.601094 47.290312 
z
" style="fill: #ffffff; opacity: 0.8; stroke: #cccccc; stroke-linejoin: miter"/>
    </g>
    <g id="line2d_25">
     <path d="M 502.401094 38.668594 
L 511.401094 38.668594 
L 520.401094 38.668594 
" style="fill: none; stroke-dasharray: 2.96,1.28; stroke-dashoffset: 0; stroke: #888888; stroke-width: 0.8"/>
    </g>
    <g id="text_15">
     <!-- final mean = -0.00208 -->
     <g transform="translate(527.601094 41.818594) scale(0.09 -0.09)">
      <defs>
       <path id="DejaVuSans-3d" d="M 678 2906 
L 4684 2906 
L 4684 2381 
L 678 2381 
L 678 2906 
z
M 678 1631 
L 4684 1631 
L 4684 1100 
L 678 1100 
L 678 1631 
z
" transform="scale(0.015625)"/>
       <path id="DejaVuSans-2d" d="M 313 2009 
L 1997 2009 
L 1997 1497 
L 313 1497 
L 313 2009 
z
" transform="scale(0.015625)"/>
       <path id="DejaVuSans-38" d="M 2034 2216 
Q 1584 2216 1326 1975 
Q 1069 1734 1069 1313 
Q 1069 891 1326 650 
Q 1584 409 2034 409 
Q 2484 409 2743 651 
Q 3003 894 3003 1313 
Q 3003 1734 2745 1975 
Q 2488 2216 2034 2216 
z
M 1403 2484 
Q 997 2584 770 2862 
Q 544 3141 544 3541 
Q 544 4100 942 4425 
Q 1341 4750 2034 4750 
Q 2731 4750 3128 4425 
Q 3525 4100 3525 3541 
Q 3525 3141 3298 2862 
Q 3072 2584 2669 2484 
Q 3125 2378 3379 2068 
Q 3634 1759 3634 1313 
Q 3634 634 3220 271 
Q 2806 -91 2034 -91 
Q 1263 -91 848 271 
Q 434 634 434 1313 
Q 434 1759 690 2068 
Q 947 2378 1403 2484 
z
M 1172 3481 
Q 1172 3119 1398 2916 
Q 1625 2713 2034 2713 
Q 2441 2713 2670 2916 
Q 2900 3119 2900 3481 
Q 2900 3844 2670 4047 
Q 2441 4250 2034 4250 
Q 1625 4250 1398 4047 
Q 1172 3844 1172 3481 
z
" transform="scale(0.015625)"/>
      </defs>
      <use xlink:href="#DejaVuSans-66"/>
      <use xlink:href="#DejaVuSans-69" transform="translate(35.205078 0)"/>
      <use xlink:href="#DejaVuSans-6e" transform="translate(62.988281 0)"/>
      <use xlink:href="#DejaVuSans-61" transform="translate(126.367188 0)"/>
      <use xlink:href="#DejaVuSans-6c" transform="translate(187.646484 0)"/>
      <use xlink:href="#DejaVuSans-20" transform="translate(215.429688 0)"/>
      <use xlink:href="#DejaVuSans-6d" transform="translate(247.216797 0)"/>
      <use xlink:href="#DejaVuSans-65" transform="translate(344.628906 0)"/>
      <use xlink:href="#DejaVuSans-61" transform="translate(406.152344 0)"/>
      <use xlink:href="#DejaVuSans-6e" transform="translate(467.431641 0)"/>
      <use xlink:href="#DejaVuSans-20" transform="translate(530.810547 0)"/>
      <use xlink:href="#DejaVuSans-3d" transform="translate(562.597656 0)"/>
      <use xlink:href="#DejaVuSans-20" transform="translate(646.386719 0)"/>
      <use xlink:href="#DejaVuSans-2d" transform="translate(678.173828 0)"/>
      <use xlink:href="#DejaVuSans-30" transform="translate(714.257812 0)"/>
      <use xlink:href="#DejaVuSans-2e" transform="translate(777.880859 0)"/>
      <use xlink:href="#DejaVuSans-30" transform="translate(809.667969 0)"/>
      <use xlink:href="#DejaVuSans-30" transform="translate(873.291016 0)"/>
      <use xlink:href="#DejaVuSans-32" transform="translate(936.914062 0)"/>
      <use xlink:href="#DejaVuSans-30" transform="translate(1000.537109 0)"/>
      <use xlink:href="#DejaVuSans-38" transform="translate(1064.160156 0)"/>
     </g>
    </g>
   </g>
  </g>
 </g>
 <defs>
  <clipPath id="p33c4b2036d">
   <rect x="62.39" y="26.88" width="574.81" height="255.16"/>
  </clipPath>
 </defs>
</svg>
