<?xml version="1.0" encoding="utf-8" standalone="no"?>
<!DOCTYPE svg PUBLIC "-//W3C//DTD SVG 1.1//EN"
  "http://www.w3.org/Graphics/SVG/1.1/DTD/svg11.dtd">
<svg xmlns:xlink="http://www.w3.org/1999/xlink" width="648pt" height="324pt" viewBox="0 0 648 324" xmlns="http://www.w3.org/2000/svg" version="1.1">
 <metadata>
  <rdf:RDF xmlns:dc="http://purl.org/dc/elements/1.1/" xmlns:cc="http://creativecommons.org/ns#" xmlns:rdf="http://www.w3.org/1999/02/22-rdf-syntax-ns#">
   <cc:Work>
    <dc:type rdf:resource="http://purl.org/dc/dcmitype/StillImage"/>
    <dc:date>2026-05-08T00:08:24.693741</dc:date>
    <dc:format>image/svg+xml</dc:format>
    <dc:creator>
     <cc:Agent>
      <dc:title>Matplotlib v3.10.8, https://matplotlib.org/</dc:title>
     </cc:Agent>
    </dc:creator>
   </cc:Work>
  </rdf:RDF>
 </metadata>
 <defs>
  <style type="text/css">*{stroke-linejoin: round; stroke-linecap: butt}</style>
 </defs>
 <g id="figure_1">
  <g id="patch_1">
   <path d="M 0 324 
L 648 324 
L 648 0 
L 0 0 
z
" style="fill: #ffffff"/>
  </g>
  <g id="axes_1">
   <g id="patch_2">
    <path d="M 57.27125 282.04 
L 637.2 282.04 
L 637.2 26.88 
L 57.27125 26.88 
z
" style="fill: #ffffff"/>
   </g>
   <g id="matplotlib.axis_1">
    <g id="xtick_1">
     <g id="line2d_1">
      <path d="M 83.629539 282.04 
L 83.629539 26.88 
" clip-path="url(#p46bb20bfb9)" style="fill: none; stroke-dasharray: 0.5,0.825; stroke-dashoffset: 0; stroke: #b0b0b0; stroke-opacity: 0.6; stroke-width: 0.5"/>
     </g>
     <g id="line2d_2">
      <defs>
       <path id="m8030e32eba" d="M 0 0 
L 0 3.5 
" style="stroke: #000000; stroke-width: 0.8"/>
      </defs>
      <g>
       <use xlink:href="#m8030e32eba" x="83.629539" y="282.04" style="stroke: #000000; stroke-width: 0.8"/>
      </g>
     </g>
     <g id="text_1">
      <!-- 0 -->
      <g transform="translate(80.448289 296.638438) scale(0.1 -0.1)">
       <defs>
        <path id="DejaVuSans-30" d="M 2034 4250 
Q 1547 4250 1301 3770 
Q 1056 3291 1056 2328 
Q 1056 1369 1301 889 
Q 1547 409 2034 409 
Q 2525 409 2770 889 
Q 3016 1369 3016 2328 
Q 3016 3291 2770 3770 
Q 2525 4250 2034 4250 
z
M 2034 4750 
Q 2819 4750 3233 4129 
Q 3647 3509 3647 2328 
Q 3647 1150 3233 529 
Q 2819 -91 2034 -91 
Q 1250 -91 836 529 
Q 422 1150 422 2328 
Q 422 3509 836 4129 
Q 1250 4750 2034 4750 
z
" transform="scale(0.015625)"/>
       </defs>
       <use xlink:href="#DejaVuSans-30"/>
      </g>
     </g>
    </g>
    <g id="xtick_2">
     <g id="line2d_3">
      <path d="M 189.071552 282.04 
L 189.071552 26.88 
" clip-path="url(#p46bb20bfb9)" style="fill: none; stroke-dasharray: 0.5,0.825; stroke-dashoffset: 0; stroke: #b0b0b0; stroke-opacity: 0.6; stroke-width: 0.5"/>
     </g>
     <g id="line2d_4">
      <g>
       <use xlink:href="#m8030e32eba" x="189.071552" y="282.04" style="stroke: #000000; stroke-width: 0.8"/>
      </g>
     </g>
     <g id="text_2">
      <!-- 50000 -->
      <g transform="translate(173.165302 296.638438) scale(0.1 -0.1)">
       <defs>
        <path id="DejaVuSans-35" d="M 691 4666 
L 3169 4666 
L 3169 4134 
L 1269 4134 
L 1269 2991 
Q 1406 3038 1543 3061 
Q 1681 3084 1819 3084 
Q 2600 3084 3056 2656 
Q 3513 2228 3513 1497 
Q 3513 744 3044 326 
Q 2575 -91 1722 -91 
Q 1428 -91 1123 -41 
Q 819 9 494 109 
L 494 744 
Q 775 591 1075 516 
Q 1375 441 1709 441 
Q 2250 441 2565 725 
Q 2881 1009 2881 1497 
Q 2881 1984 2565 2268 
Q 2250 2553 1709 2553 
Q 1456 2553 1204 2497 
Q 953 2441 691 2322 
L 691 4666 
z
" transform="scale(0.015625)"/>
       </defs>
       <use xlink:href="#DejaVuSans-35"/>
       <use xlink:href="#DejaVuSans-30" transform="translate(63.623047 0)"/>
       <use xlink:href="#DejaVuSans-30" transform="translate(127.246094 0)"/>
       <use xlink:href="#DejaVuSans-30" transform="translate(190.869141 0)"/>
       <use xlink:href="#DejaVuSans-30" transform="translate(254.492188 0)"/>
      </g>
     </g>
    </g>
    <g id="xtick_3">
     <g id="line2d_5">
      <path d="M 294.513564 282.04 
L 294.513564 26.88 
" clip-path="url(#p46bb20bfb9)" style="fill: none; stroke-dasharray: 0.5,0.825; stroke-dashoffset: 0; stroke: #b0b0b0; stroke-opacity: 0.6; stroke-width: 0.5"/>
     </g>
     <g id="line2d_6">
      <g>
       <use xlink:href="#m8030e32eba" x="294.513564" y="282.04" style="stroke: #000000; stroke-width: 0.8"/>
      </g>
     </g>
     <g id="text_3">
      <!-- 100000 -->
      <g transform="translate(275.426064 296.638438) scale(0.1 -0.1)">
       <defs>
        <path id="DejaVuSans-31" d="M 794 531 
L 1825 531 
L 1825 4091 
L 703 3866 
L 703 4441 
L 1819 4666 
L 2450 4666 
L 2450 531 
L 3481 531 
L 3481 0 
L 794 0 
L 794 531 
z
" transform="scale(0.015625)"/>
       </defs>
       <use xlink:href="#DejaVuSans-31"/>
       <use xlink:href="#DejaVuSans-30" transform="translate(63.623047 0)"/>
       <use xlink:href="#DejaVuSans-30" transform="translate(127.246094 0)"/>
       <use xlink:href="#DejaVuSans-30" transform="translate(190.869141 0)"/>
       <use xlink:href="#DejaVuSans-30" transform="translate(254.492188 0)"/>
       <use xlink:href="#DejaVuSans-30" transform="translate(318.115234 0)"/>
      </g>
     </g>
    </g>
    <g id="xtick_4">
     <g id="line2d_7">
      <path d="M 399.955577 282.04 
L 399.955577 26.88 
" clip-path="url(#p46bb20bfb9)" style="fill: none; stroke-dasharray: 0.5,0.825; stroke-dashoffset: 0; stroke: #b0b0b0; stroke-opacity: 0.6; stroke-width: 0.5"/>
     </g>
     <g id="line2d_8">
      <g>
       <use xlink:href="#m8030e32eba" x="399.955577" y="282.04" style="stroke: #000000; stroke-width: 0.8"/>
      </g>
     </g>
     <g id="text_4">
      <!-- 150000 -->
      <g transform="translate(380.868077 296.638438) scale(0.1 -0.1)">
       <use xlink:href="#DejaVuSans-31"/>
       <use xlink:href="#DejaVuSans-35" transform="translate(63.623047 0)"/>
       <use xlink:href="#DejaVuSans-30" transform="translate(127.246094 0)"/>
       <use xlink:href="#DejaVuSans-30" transform="translate(190.869141 0)"/>
       <use xlink:href="#DejaVuSans-30" transform="translate(254.492188 0)"/>
       <use xlink:href="#DejaVuSans-30" transform="translate(318.115234 0)"/>
      </g>
     </g>
    </g>
    <g id="xtick_5">
     <g id="line2d_9">
      <path d="M 505.39759 282.04 
L 505.39759 26.88 
" clip-path="url(#p46bb20bfb9)" style="fill: none; stroke-dasharray: 0.5,0.825; stroke-dashoffset: 0; stroke: #b0b0b0; stroke-opacity: 0.6; stroke-width: 0.5"/>
     </g>
     <g id="line2d_10">
      <g>
       <use xlink:href="#m8030e32eba" x="505.39759" y="282.04" style="stroke: #000000; stroke-width: 0.8"/>
      </g>
     </g>
     <g id="text_5">
      <!-- 200000 -->
      <g transform="translate(486.31009 296.638438) scale(0.1 -0.1)">
       <defs>
        <path id="DejaVuSans-32" d="M 1228 531 
L 3431 531 
L 3431 0 
L 469 0 
L 469 531 
Q 828 903 1448 1529 
Q 2069 2156 2228 2338 
Q 2531 2678 2651 2914 
Q 2772 3150 2772 3378 
Q 2772 3750 2511 3984 
Q 2250 4219 1831 4219 
Q 1534 4219 1204 4116 
Q 875 4013 500 3803 
L 500 4441 
Q 881 4594 1212 4672 
Q 1544 4750 1819 4750 
Q 2544 4750 2975 4387 
Q 3406 4025 3406 3419 
Q 3406 3131 3298 2873 
Q 3191 2616 2906 2266 
Q 2828 2175 2409 1742 
Q 1991 1309 1228 531 
z
" transform="scale(0.015625)"/>
       </defs>
       <use xlink:href="#DejaVuSans-32"/>
       <use xlink:href="#DejaVuSans-30" transform="translate(63.623047 0)"/>
       <use xlink:href="#DejaVuSans-30" transform="translate(127.246094 0)"/>
       <use xlink:href="#DejaVuSans-30" transform="translate(190.869141 0)"/>
       <use xlink:href="#DejaVuSans-30" transform="translate(254.492188 0)"/>
       <use xlink:href="#DejaVuSans-30" transform="translate(318.115234 0)"/>
      </g>
     </g>
    </g>
    <g id="xtick_6">
     <g id="line2d_11">
      <path d="M 610.839602 282.04 
L 610.839602 26.88 
" clip-path="url(#p46bb20bfb9)" style="fill: none; stroke-dasharray: 0.5,0.825; stroke-dashoffset: 0; stroke: #b0b0b0; stroke-opacity: 0.6; stroke-width: 0.5"/>
     </g>
     <g id="line2d_12">
      <g>
       <use xlink:href="#m8030e32eba" x="610.839602" y="282.04" style="stroke: #000000; stroke-width: 0.8"/>
      </g>
     </g>
     <g id="text_6">
      <!-- 250000 -->
      <g transform="translate(591.752102 296.638438) scale(0.1 -0.1)">
       <use xlink:href="#DejaVuSans-32"/>
       <use xlink:href="#DejaVuSans-35" transform="translate(63.623047 0)"/>
       <use xlink:href="#DejaVuSans-30" transform="translate(127.246094 0)"/>
       <use xlink:href="#DejaVuSans-30" transform="translate(190.869141 0)"/>
       <use xlink:href="#DejaVuSans-30" transform="translate(254.492188 0)"/>
       <use xlink:href="#DejaVuSans-30" transform="translate(318.115234 0)"/>
      </g>
     </g>
    </g>
    <g id="text_7">
     <!-- Sample index -->
     <g transform="translate(313.217656 310.316563) scale(0.1 -0.1)">
      <defs>
       <path id="DejaVuSans-53" d="M 3425 4513 
L 3425 3897 
Q 3066 4069 2747 4153 
Q 2428 4238 2131 4238 
Q 1616 4238 1336 4038 
Q 1056 3838 1056 3469 
Q 1056 3159 1242 3001 
Q 1428 2844 1947 2747 
L 2328 2669 
Q 3034 2534 3370 2195 
Q 3706 1856 3706 1288 
Q 3706 609 3251 259 
Q 2797 -91 1919 -91 
Q 1588 -91 1214 -16 
Q 841 59 441 206 
L 441 856 
Q 825 641 1194 531 
Q 1563 422 1919 422 
Q 2459 422 2753 634 
Q 3047 847 3047 1241 
Q 3047 1584 2836 1778 
Q 2625 1972 2144 2069 
L 1759 2144 
Q 1053 2284 737 2584 
Q 422 2884 422 3419 
Q 422 4038 858 4394 
Q 1294 4750 2059 4750 
Q 2388 4750 2728 4690 
Q 3069 4631 3425 4513 
z
" transform="scale(0.015625)"/>
       <path id="DejaVuSans-61" d="M 2194 1759 
Q 1497 1759 1228 1600 
Q 959 1441 959 1056 
Q 959 750 1161 570 
Q 1363 391 1709 391 
Q 2188 391 2477 730 
Q 2766 1069 2766 1631 
L 2766 1759 
L 2194 1759 
z
M 3341 1997 
L 3341 0 
L 2766 0 
L 2766 531 
Q 2569 213 2275 61 
Q 1981 -91 1556 -91 
Q 1019 -91 701 211 
Q 384 513 384 1019 
Q 384 1609 779 1909 
Q 1175 2209 1959 2209 
L 2766 2209 
L 2766 2266 
Q 2766 2663 2505 2880 
Q 2244 3097 1772 3097 
Q 1472 3097 1187 3025 
Q 903 2953 641 2809 
L 641 3341 
Q 956 3463 1253 3523 
Q 1550 3584 1831 3584 
Q 2591 3584 2966 3190 
Q 3341 2797 3341 1997 
z
" transform="scale(0.015625)"/>
       <path id="DejaVuSans-6d" d="M 3328 2828 
Q 3544 3216 3844 3400 
Q 4144 3584 4550 3584 
Q 5097 3584 5394 3201 
Q 5691 2819 5691 2113 
L 5691 0 
L 5113 0 
L 5113 2094 
Q 5113 2597 4934 2840 
Q 4756 3084 4391 3084 
Q 3944 3084 3684 2787 
Q 3425 2491 3425 1978 
L 3425 0 
L 2847 0 
L 2847 2094 
Q 2847 2600 2669 2842 
Q 2491 3084 2119 3084 
Q 1678 3084 1418 2786 
Q 1159 2488 1159 1978 
L 1159 0 
L 581 0 
L 581 3500 
L 1159 3500 
L 1159 2956 
Q 1356 3278 1631 3431 
Q 1906 3584 2284 3584 
Q 2666 3584 2933 3390 
Q 3200 3197 3328 2828 
z
" transform="scale(0.015625)"/>
       <path id="DejaVuSans-70" d="M 1159 525 
L 1159 -1331 
L 581 -1331 
L 581 3500 
L 1159 3500 
L 1159 2969 
Q 1341 3281 1617 3432 
Q 1894 3584 2278 3584 
Q 2916 3584 3314 3078 
Q 3713 2572 3713 1747 
Q 3713 922 3314 415 
Q 2916 -91 2278 -91 
Q 1894 -91 1617 61 
Q 1341 213 1159 525 
z
M 3116 1747 
Q 3116 2381 2855 2742 
Q 2594 3103 2138 3103 
Q 1681 3103 1420 2742 
Q 1159 2381 1159 1747 
Q 1159 1113 1420 752 
Q 1681 391 2138 391 
Q 2594 391 2855 752 
Q 3116 1113 3116 1747 
z
" transform="scale(0.015625)"/>
       <path id="DejaVuSans-6c" d="M 603 4863 
L 1178 4863 
L 1178 0 
L 603 0 
L 603 4863 
z
" transform="scale(0.015625)"/>
       <path id="DejaVuSans-65" d="M 3597 1894 
L 3597 1613 
L 953 1613 
Q 991 1019 1311 708 
Q 1631 397 2203 397 
Q 2534 397 2845 478 
Q 3156 559 3463 722 
L 3463 178 
Q 3153 47 2828 -22 
Q 2503 -91 2169 -91 
Q 1331 -91 842 396 
Q 353 884 353 1716 
Q 353 2575 817 3079 
Q 1281 3584 2069 3584 
Q 2775 3584 3186 3129 
Q 3597 2675 3597 1894 
z
M 3022 2063 
Q 3016 2534 2758 2815 
Q 2500 3097 2075 3097 
Q 1594 3097 1305 2825 
Q 1016 2553 972 2059 
L 3022 2063 
z
" transform="scale(0.015625)"/>
       <path id="DejaVuSans-20" transform="scale(0.015625)"/>
       <path id="DejaVuSans-69" d="M 603 3500 
L 1178 3500 
L 1178 0 
L 603 0 
L 603 3500 
z
M 603 4863 
L 1178 4863 
L 1178 4134 
L 603 4134 
L 603 4863 
z
" transform="scale(0.015625)"/>
       <path id="DejaVuSans-6e" d="M 3513 2113 
L 3513 0 
L 2938 0 
L 2938 2094 
Q 2938 2591 2744 2837 
Q 2550 3084 2163 3084 
Q 1697 3084 1428 2787 
Q 1159 2491 1159 1978 
L 1159 0 
L 581 0 
L 581 3500 
L 1159 3500 
L 1159 2956 
Q 1366 3272 1645 3428 
Q 1925 3584 2291 3584 
Q 2894 3584 3203 3211 
Q 3513 2838 3513 2113 
z
" transform="scale(0.015625)"/>
       <path id="DejaVuSans-64" d="M 2906 2969 
L 2906 4863 
L 3481 4863 
L 3481 0 
L 2906 0 
L 2906 525 
Q 2725 213 2448 61 
Q 2172 -91 1784 -91 
Q 1150 -91 751 415 
Q 353 922 353 1747 
Q 353 2572 751 3078 
Q 1150 3584 1784 3584 
Q 2172 3584 2448 3432 
Q 2725 3281 2906 2969 
z
M 947 1747 
Q 947 1113 1208 752 
Q 1469 391 1925 391 
Q 2381 391 2643 752 
Q 2906 1113 2906 1747 
Q 2906 2381 2643 2742 
Q 2381 3103 1925 3103 
Q 1469 3103 1208 2742 
Q 947 2381 947 1747 
z
" transform="scale(0.015625)"/>
       <path id="DejaVuSans-78" d="M 3513 3500 
L 2247 1797 
L 3578 0 
L 2900 0 
L 1881 1375 
L 863 0 
L 184 0 
L 1544 1831 
L 300 3500 
L 978 3500 
L 1906 2253 
L 2834 3500 
L 3513 3500 
z
" transform="scale(0.015625)"/>
      </defs>
      <use xlink:href="#DejaVuSans-53"/>
      <use xlink:href="#DejaVuSans-61" transform="translate(63.476562 0)"/>
      <use xlink:href="#DejaVuSans-6d" transform="translate(124.755859 0)"/>
      <use xlink:href="#DejaVuSans-70" transform="translate(222.167969 0)"/>
      <use xlink:href="#DejaVuSans-6c" transform="translate(285.644531 0)"/>
      <use xlink:href="#DejaVuSans-65" transform="translate(313.427734 0)"/>
      <use xlink:href="#DejaVuSans-20" transform="translate(374.951172 0)"/>
      <use xlink:href="#DejaVuSans-69" transform="translate(406.738281 0)"/>
      <use xlink:href="#DejaVuSans-6e" transform="translate(434.521484 0)"/>
      <use xlink:href="#DejaVuSans-64" transform="translate(497.900391 0)"/>
      <use xlink:href="#DejaVuSans-65" transform="translate(561.376953 0)"/>
      <use xlink:href="#DejaVuSans-78" transform="translate(621.150391 0)"/>
     </g>
    </g>
   </g>
   <g id="matplotlib.axis_2">
    <g id="ytick_1">
     <g id="line2d_13">
      <path d="M 57.27125 255.332841 
L 637.2 255.332841 
" clip-path="url(#p46bb20bfb9)" style="fill: none; stroke-dasharray: 0.5,0.825; stroke-dashoffset: 0; stroke: #b0b0b0; stroke-opacity: 0.6; stroke-width: 0.5"/>
     </g>
     <g id="line2d_14">
      <defs>
       <path id="mc1b4add3b5" d="M 0 0 
L -3.5 0 
" style="stroke: #000000; stroke-width: 0.8"/>
      </defs>
      <g>
       <use xlink:href="#mc1b4add3b5" x="57.27125" y="255.332841" style="stroke: #000000; stroke-width: 0.8"/>
      </g>
     </g>
     <g id="text_8">
      <!-- 2200 -->
      <g transform="translate(24.82125 259.132059) scale(0.1 -0.1)">
       <use xlink:href="#DejaVuSans-32"/>
       <use xlink:href="#DejaVuSans-32" transform="translate(63.623047 0)"/>
       <use xlink:href="#DejaVuSans-30" transform="translate(127.246094 0)"/>
       <use xlink:href="#DejaVuSans-30" transform="translate(190.869141 0)"/>
      </g>
     </g>
    </g>
    <g id="ytick_2">
     <g id="line2d_15">
      <path d="M 57.27125 213.155574 
L 637.2 213.155574 
" clip-path="url(#p46bb20bfb9)" style="fill: none; stroke-dasharray: 0.5,0.825; stroke-dashoffset: 0; stroke: #b0b0b0; stroke-opacity: 0.6; stroke-width: 0.5"/>
     </g>
     <g id="line2d_16">
      <g>
       <use xlink:href="#mc1b4add3b5" x="57.27125" y="213.155574" style="stroke: #000000; stroke-width: 0.8"/>
      </g>
     </g>
     <g id="text_9">
      <!-- 2400 -->
      <g transform="translate(24.82125 216.954793) scale(0.1 -0.1)">
       <defs>
        <path id="DejaVuSans-34" d="M 2419 4116 
L 825 1625 
L 2419 1625 
L 2419 4116 
z
M 2253 4666 
L 3047 4666 
L 3047 1625 
L 3713 1625 
L 3713 1100 
L 3047 1100 
L 3047 0 
L 2419 0 
L 2419 1100 
L 313 1100 
L 313 1709 
L 2253 4666 
z
" transform="scale(0.015625)"/>
       </defs>
       <use xlink:href="#DejaVuSans-32"/>
       <use xlink:href="#DejaVuSans-34" transform="translate(63.623047 0)"/>
       <use xlink:href="#DejaVuSans-30" transform="translate(127.246094 0)"/>
       <use xlink:href="#DejaVuSans-30" transform="translate(190.869141 0)"/>
      </g>
     </g>
    </g>
    <g id="ytick_3">
     <g id="line2d_17">
      <path d="M 57.27125 170.978308 
L 637.2 170.978308 
" clip-path="url(#p46bb20bfb9)" style="fill: none; stroke-dasharray: 0.5,0.825; stroke-dashoffset: 0; stroke: #b0b0b0; stroke-opacity: 0.6; stroke-width: 0.5"/>
     </g>
     <g id="line2d_18">
      <g>
       <use xlink:href="#mc1b4add3b5" x="57.27125" y="170.978308" style="stroke: #000000; stroke-width: 0.8"/>
      </g>
     </g>
     <g id="text_10">
      <!-- 2600 -->
      <g transform="translate(24.82125 174.777527) scale(0.1 -0.1)">
       <defs>
        <path id="DejaVuSans-36" d="M 2113 2584 
Q 1688 2584 1439 2293 
Q 1191 2003 1191 1497 
Q 1191 994 1439 701 
Q 1688 409 2113 409 
Q 2538 409 2786 701 
Q 3034 994 3034 1497 
Q 3034 2003 2786 2293 
Q 2538 2584 2113 2584 
z
M 3366 4563 
L 3366 3988 
Q 3128 4100 2886 4159 
Q 2644 4219 2406 4219 
Q 1781 4219 1451 3797 
Q 1122 3375 1075 2522 
Q 1259 2794 1537 2939 
Q 1816 3084 2150 3084 
Q 2853 3084 3261 2657 
Q 3669 2231 3669 1497 
Q 3669 778 3244 343 
Q 2819 -91 2113 -91 
Q 1303 -91 875 529 
Q 447 1150 447 2328 
Q 447 3434 972 4092 
Q 1497 4750 2381 4750 
Q 2619 4750 2861 4703 
Q 3103 4656 3366 4563 
z
" transform="scale(0.015625)"/>
       </defs>
       <use xlink:href="#DejaVuSans-32"/>
       <use xlink:href="#DejaVuSans-36" transform="translate(63.623047 0)"/>
       <use xlink:href="#DejaVuSans-30" transform="translate(127.246094 0)"/>
       <use xlink:href="#DejaVuSans-30" transform="translate(190.869141 0)"/>
      </g>
     </g>
    </g>
    <g id="ytick_4">
     <g id="line2d_19">
      <path d="M 57.27125 128.801042 
L 637.2 128.801042 
" clip-path="url(#p46bb20bfb9)" style="fill: none; stroke-dasharray: 0.5,0.825; stroke-dashoffset: 0; stroke: #b0b0b0; stroke-opacity: 0.6; stroke-width: 0.5"/>
     </g>
     <g id="line2d_20">
      <g>
       <use xlink:href="#mc1b4add3b5" x="57.27125" y="128.801042" style="stroke: #000000; stroke-width: 0.8"/>
      </g>
     </g>
     <g id="text_11">
      <!-- 2800 -->
      <g transform="translate(24.82125 132.60026) scale(0.1 -0.1)">
       <defs>
        <path id="DejaVuSans-38" d="M 2034 2216 
Q 1584 2216 1326 1975 
Q 1069 1734 1069 1313 
Q 1069 891 1326 650 
Q 1584 409 2034 409 
Q 2484 409 2743 651 
Q 3003 894 3003 1313 
Q 3003 1734 2745 1975 
Q 2488 2216 2034 2216 
z
M 1403 2484 
Q 997 2584 770 2862 
Q 544 3141 544 3541 
Q 544 4100 942 4425 
Q 1341 4750 2034 4750 
Q 2731 4750 3128 4425 
Q 3525 4100 3525 3541 
Q 3525 3141 3298 2862 
Q 3072 2584 2669 2484 
Q 3125 2378 3379 2068 
Q 3634 1759 3634 1313 
Q 3634 634 3220 271 
Q 2806 -91 2034 -91 
Q 1263 -91 848 271 
Q 434 634 434 1313 
Q 434 1759 690 2068 
Q 947 2378 1403 2484 
z
M 1172 3481 
Q 1172 3119 1398 2916 
Q 1625 2713 2034 2713 
Q 2441 2713 2670 2916 
Q 2900 3119 2900 3481 
Q 2900 3844 2670 4047 
Q 2441 4250 2034 4250 
Q 1625 4250 1398 4047 
Q 1172 3844 1172 3481 
z
" transform="scale(0.015625)"/>
       </defs>
       <use xlink:href="#DejaVuSans-32"/>
       <use xlink:href="#DejaVuSans-38" transform="translate(63.623047 0)"/>
       <use xlink:href="#DejaVuSans-30" transform="translate(127.246094 0)"/>
       <use xlink:href="#DejaVuSans-30" transform="translate(190.869141 0)"/>
      </g>
     </g>
    </g>
    <g id="ytick_5">
     <g id="line2d_21">
      <path d="M 57.27125 86.623775 
L 637.2 86.623775 
" clip-path="url(#p46bb20bfb9)" style="fill: none; stroke-dasharray: 0.5,0.825; stroke-dashoffset: 0; stroke: #b0b0b0; stroke-opacity: 0.6; stroke-width: 0.5"/>
     </g>
     <g id="line2d_22">
      <g>
       <use xlink:href="#mc1b4add3b5" x="57.27125" y="86.623775" style="stroke: #000000; stroke-width: 0.8"/>
      </g>
     </g>
     <g id="text_12">
      <!-- 3000 -->
      <g transform="translate(24.82125 90.422994) scale(0.1 -0.1)">
       <defs>
        <path id="DejaVuSans-33" d="M 2597 2516 
Q 3050 2419 3304 2112 
Q 3559 1806 3559 1356 
Q 3559 666 3084 287 
Q 2609 -91 1734 -91 
Q 1441 -91 1130 -33 
Q 819 25 488 141 
L 488 750 
Q 750 597 1062 519 
Q 1375 441 1716 441 
Q 2309 441 2620 675 
Q 2931 909 2931 1356 
Q 2931 1769 2642 2001 
Q 2353 2234 1838 2234 
L 1294 2234 
L 1294 2753 
L 1863 2753 
Q 2328 2753 2575 2939 
Q 2822 3125 2822 3475 
Q 2822 3834 2567 4026 
Q 2313 4219 1838 4219 
Q 1578 4219 1281 4162 
Q 984 4106 628 3988 
L 628 4550 
Q 988 4650 1302 4700 
Q 1616 4750 1894 4750 
Q 2613 4750 3031 4423 
Q 3450 4097 3450 3541 
Q 3450 3153 3228 2886 
Q 3006 2619 2597 2516 
z
" transform="scale(0.015625)"/>
       </defs>
       <use xlink:href="#DejaVuSans-33"/>
       <use xlink:href="#DejaVuSans-30" transform="translate(63.623047 0)"/>
       <use xlink:href="#DejaVuSans-30" transform="translate(127.246094 0)"/>
       <use xlink:href="#DejaVuSans-30" transform="translate(190.869141 0)"/>
      </g>
     </g>
    </g>
    <g id="ytick_6">
     <g id="line2d_23">
      <path d="M 57.27125 44.446509 
L 637.2 44.446509 
" clip-path="url(#p46bb20bfb9)" style="fill: none; stroke-dasharray: 0.5,0.825; stroke-dashoffset: 0; stroke: #b0b0b0; stroke-opacity: 0.6; stroke-width: 0.5"/>
     </g>
     <g id="line2d_24">
      <g>
       <use xlink:href="#mc1b4add3b5" x="57.27125" y="44.446509" style="stroke: #000000; stroke-width: 0.8"/>
      </g>
     </g>
     <g id="text_13">
      <!-- 3200 -->
      <g transform="translate(24.82125 48.245728) scale(0.1 -0.1)">
       <use xlink:href="#DejaVuSans-33"/>
       <use xlink:href="#DejaVuSans-32" transform="translate(63.623047 0)"/>
       <use xlink:href="#DejaVuSans-30" transform="translate(127.246094 0)"/>
       <use xlink:href="#DejaVuSans-30" transform="translate(190.869141 0)"/>
      </g>
     </g>
    </g>
    <g id="text_14">
     <!-- Running mean of population_mad -->
     <g transform="translate(18.463438 238.929531) rotate(-90) scale(0.1 -0.1)">
      <defs>
       <path id="DejaVuSans-52" d="M 2841 2188 
Q 3044 2119 3236 1894 
Q 3428 1669 3622 1275 
L 4263 0 
L 3584 0 
L 2988 1197 
Q 2756 1666 2539 1819 
Q 2322 1972 1947 1972 
L 1259 1972 
L 1259 0 
L 628 0 
L 628 4666 
L 2053 4666 
Q 2853 4666 3247 4331 
Q 3641 3997 3641 3322 
Q 3641 2881 3436 2590 
Q 3231 2300 2841 2188 
z
M 1259 4147 
L 1259 2491 
L 2053 2491 
Q 2509 2491 2742 2702 
Q 2975 2913 2975 3322 
Q 2975 3731 2742 3939 
Q 2509 4147 2053 4147 
L 1259 4147 
z
" transform="scale(0.015625)"/>
       <path id="DejaVuSans-75" d="M 544 1381 
L 544 3500 
L 1119 3500 
L 1119 1403 
Q 1119 906 1312 657 
Q 1506 409 1894 409 
Q 2359 409 2629 706 
Q 2900 1003 2900 1516 
L 2900 3500 
L 3475 3500 
L 3475 0 
L 2900 0 
L 2900 538 
Q 2691 219 2414 64 
Q 2138 -91 1772 -91 
Q 1169 -91 856 284 
Q 544 659 544 1381 
z
M 1991 3584 
L 1991 3584 
z
" transform="scale(0.015625)"/>
       <path id="DejaVuSans-67" d="M 2906 1791 
Q 2906 2416 2648 2759 
Q 2391 3103 1925 3103 
Q 1463 3103 1205 2759 
Q 947 2416 947 1791 
Q 947 1169 1205 825 
Q 1463 481 1925 481 
Q 2391 481 2648 825 
Q 2906 1169 2906 1791 
z
M 3481 434 
Q 3481 -459 3084 -895 
Q 2688 -1331 1869 -1331 
Q 1566 -1331 1297 -1286 
Q 1028 -1241 775 -1147 
L 775 -588 
Q 1028 -725 1275 -790 
Q 1522 -856 1778 -856 
Q 2344 -856 2625 -561 
Q 2906 -266 2906 331 
L 2906 616 
Q 2728 306 2450 153 
Q 2172 0 1784 0 
Q 1141 0 747 490 
Q 353 981 353 1791 
Q 353 2603 747 3093 
Q 1141 3584 1784 3584 
Q 2172 3584 2450 3431 
Q 2728 3278 2906 2969 
L 2906 3500 
L 3481 3500 
L 3481 434 
z
" transform="scale(0.015625)"/>
       <path id="DejaVuSans-6f" d="M 1959 3097 
Q 1497 3097 1228 2736 
Q 959 2375 959 1747 
Q 959 1119 1226 758 
Q 1494 397 1959 397 
Q 2419 397 2687 759 
Q 2956 1122 2956 1747 
Q 2956 2369 2687 2733 
Q 2419 3097 1959 3097 
z
M 1959 3584 
Q 2709 3584 3137 3096 
Q 3566 2609 3566 1747 
Q 3566 888 3137 398 
Q 2709 -91 1959 -91 
Q 1206 -91 779 398 
Q 353 888 353 1747 
Q 353 2609 779 3096 
Q 1206 3584 1959 3584 
z
" transform="scale(0.015625)"/>
       <path id="DejaVuSans-66" d="M 2375 4863 
L 2375 4384 
L 1825 4384 
Q 1516 4384 1395 4259 
Q 1275 4134 1275 3809 
L 1275 3500 
L 2222 3500 
L 2222 3053 
L 1275 3053 
L 1275 0 
L 697 0 
L 697 3053 
L 147 3053 
L 147 3500 
L 697 3500 
L 697 3744 
Q 697 4328 969 4595 
Q 1241 4863 1831 4863 
L 2375 4863 
z
" transform="scale(0.015625)"/>
       <path id="DejaVuSans-74" d="M 1172 4494 
L 1172 3500 
L 2356 3500 
L 2356 3053 
L 1172 3053 
L 1172 1153 
Q 1172 725 1289 603 
Q 1406 481 1766 481 
L 2356 481 
L 2356 0 
L 1766 0 
Q 1100 0 847 248 
Q 594 497 594 1153 
L 594 3053 
L 172 3053 
L 172 3500 
L 594 3500 
L 594 4494 
L 1172 4494 
z
" transform="scale(0.015625)"/>
       <path id="DejaVuSans-5f" d="M 3263 -1063 
L 3263 -1509 
L -63 -1509 
L -63 -1063 
L 3263 -1063 
z
" transform="scale(0.015625)"/>
      </defs>
      <use xlink:href="#DejaVuSans-52"/>
      <use xlink:href="#DejaVuSans-75" transform="translate(64.982422 0)"/>
      <use xlink:href="#DejaVuSans-6e" transform="translate(128.361328 0)"/>
      <use xlink:href="#DejaVuSans-6e" transform="translate(191.740234 0)"/>
      <use xlink:href="#DejaVuSans-69" transform="translate(255.119141 0)"/>
      <use xlink:href="#DejaVuSans-6e" transform="translate(282.902344 0)"/>
      <use xlink:href="#DejaVuSans-67" transform="translate(346.28125 0)"/>
      <use xlink:href="#DejaVuSans-20" transform="translate(409.757812 0)"/>
      <use xlink:href="#DejaVuSans-6d" transform="translate(441.544922 0)"/>
      <use xlink:href="#DejaVuSans-65" transform="translate(538.957031 0)"/>
      <use xlink:href="#DejaVuSans-61" transform="translate(600.480469 0)"/>
      <use xlink:href="#DejaVuSans-6e" transform="translate(661.759766 0)"/>
      <use xlink:href="#DejaVuSans-20" transform="translate(725.138672 0)"/>
      <use xlink:href="#DejaVuSans-6f" transform="translate(756.925781 0)"/>
      <use xlink:href="#DejaVuSans-66" transform="translate(818.107422 0)"/>
      <use xlink:href="#DejaVuSans-20" transform="translate(853.3125 0)"/>
      <use xlink:href="#DejaVuSans-70" transform="translate(885.099609 0)"/>
      <use xlink:href="#DejaVuSans-6f" transform="translate(948.576172 0)"/>
      <use xlink:href="#DejaVuSans-70" transform="translate(1009.757812 0)"/>
      <use xlink:href="#DejaVuSans-75" transform="translate(1073.234375 0)"/>
      <use xlink:href="#DejaVuSans-6c" transform="translate(1136.613281 0)"/>
      <use xlink:href="#DejaVuSans-61" transform="translate(1164.396484 0)"/>
      <use xlink:href="#DejaVuSans-74" transform="translate(1225.675781 0)"/>
      <use xlink:href="#DejaVuSans-69" transform="translate(1264.884766 0)"/>
      <use xlink:href="#DejaVuSans-6f" transform="translate(1292.667969 0)"/>
      <use xlink:href="#DejaVuSans-6e" transform="translate(1353.849609 0)"/>
      <use xlink:href="#DejaVuSans-5f" transform="translate(1417.228516 0)"/>
      <use xlink:href="#DejaVuSans-6d" transform="translate(1467.228516 0)"/>
      <use xlink:href="#DejaVuSans-61" transform="translate(1564.640625 0)"/>
      <use xlink:href="#DejaVuSans-64" transform="translate(1625.919922 0)"/>
     </g>
    </g>
   </g>
   <g id="line2d_25">
    <path d="M 83.631648 240.31838 
L 83.633757 240.31838 
L 83.671716 270.441818 
L 83.829879 153.730616 
L 83.956409 137.247488 
L 83.977498 137.59123 
L 83.992259 138.722662 
L 84.057633 133.439205 
L 84.156749 120.587774 
L 84.238994 122.008846 
L 84.407701 111.884498 
L 84.711374 81.672411 
L 84.915931 68.541957 
L 85.071986 64.903222 
L 85.08253 65.009518 
L 85.11838 65.730355 
L 85.177428 64.807015 
L 85.194298 64.614245 
L 85.247019 65.318976 
L 85.396747 67.322027 
L 85.4094 66.939205 
L 85.947154 47.219113 
L 86.130623 41.958996 
L 86.134841 41.985655 
L 86.345725 40.29709 
L 86.375249 40.587199 
L 86.440623 41.757471 
L 86.497562 41.002527 
L 86.634636 38.478182 
L 86.659942 38.912145 
L 86.824432 42.584361 
L 87.113343 50.12675 
L 87.303139 52.176709 
L 87.410689 51.74575 
L 87.448649 51.163712 
L 87.545655 49.130411 
L 87.611029 49.769824 
L 88.207831 58.740397 
L 88.214158 58.739994 
L 88.581096 62.828558 
L 88.741368 62.447073 
L 88.764565 62.253562 
L 88.834157 62.601693 
L 88.99232 65.481721 
L 89.055585 64.861591 
L 89.759938 53.140758 
L 89.867488 52.809586 
L 89.998236 51.912084 
L 90.065719 52.46164 
L 90.099461 52.782315 
L 90.158508 52.244924 
L 90.352522 50.086051 
L 90.417896 50.563273 
L 90.698371 52.41984 
L 90.706807 52.382458 
L 90.746875 52.259152 
L 90.820684 52.381972 
L 90.822793 52.384672 
L 90.839664 52.246853 
L 90.898711 51.781856 
L 90.949323 52.238539 
L 91.174969 53.988832 
L 91.225581 53.829294 
L 91.242452 53.749674 
L 91.309935 54.115347 
L 91.417486 54.400073 
L 91.438574 54.294742 
L 91.474425 54.396979 
L 91.556669 54.799773 
L 91.565105 54.813046 
L 91.60939 54.563146 
L 91.660003 54.419475 
L 91.704288 54.676773 
L 91.822383 55.436441 
L 91.972111 56.999527 
L 92.077553 56.797287 
L 92.117621 56.485211 
L 92.197757 56.709026 
L 92.35592 56.930934 
L 92.370682 56.844755 
L 92.484559 56.332801 
L 92.554151 56.437556 
L 92.579457 56.512413 
L 92.615307 56.271454 
L 92.8283 55.025093 
L 93.049728 52.956643 
L 93.176259 52.123473 
L 93.21 52.223236 
L 93.31966 52.385919 
L 93.254286 52.205679 
L 93.340748 52.305671 
L 93.612789 50.557111 
L 93.922788 49.297148 
L 93.948094 49.552048 
L 94.089387 50.682531 
L 94.11891 50.487167 
L 94.289726 49.696905 
L 94.291835 49.707353 
L 94.454216 49.821951 
L 94.532243 49.924995 
L 94.612379 49.827232 
L 94.745236 49.662406 
L 94.84646 49.4133 
L 94.892855 49.475635 
L 95.004623 49.647361 
L 95.029929 49.552823 
L 95.099521 49.355753 
L 95.139589 49.539876 
L 96.018975 56.075443 
L 96.097002 55.997249 
L 96.255165 55.715525 
L 96.297342 55.578911 
L 96.598906 54.164573 
L 96.643192 54.370978 
L 96.854076 55.049194 
L 96.870947 55.04387 
L 97.058634 54.988533 
L 97.075504 55.061381 
L 97.117681 55.1653 
L 97.172511 54.989942 
L 97.197817 54.903204 
L 97.244212 55.063596 
L 97.282171 55.000786 
L 97.377068 55.309284 
L 97.703939 56.519395 
L 97.714483 56.506979 
L 97.779857 56.698855 
L 98.106727 58.330876 
L 98.108836 58.32982 
L 98.163666 58.267747 
L 98.197407 58.397032 
L 98.241693 58.493126 
L 98.311285 58.407849 
L 98.35557 58.519176 
L 98.625502 59.608219 
L 98.671896 59.581368 
L 98.954481 60.086064 
L 99.04727 60.181406 
L 99.076794 60.147408 
L 99.112644 60.097694 
L 99.152712 60.238588 
L 99.291895 60.746053 
L 99.485909 61.543228 
L 99.502779 61.504207 
L 99.903459 59.889542 
L 100.626791 55.982034 
L 100.649989 56.008489 
L 100.660533 56.015542 
L 100.709036 55.883244 
L 101.166654 54.488845 
L 101.196178 54.532141 
L 101.240464 54.454933 
L 101.316382 54.524378 
L 101.343797 54.532103 
L 101.383865 54.416684 
L 101.419715 54.414944 
L 101.449239 54.512965 
L 101.544137 54.583814 
L 101.577878 54.54845 
L 101.584205 54.542022 
L 101.613729 54.667083 
L 101.951143 56.30316 
L 101.991211 56.213422 
L 102.267469 55.436052 
L 102.370802 55.545834 
L 102.415088 55.760422 
L 102.467809 55.97402 
L 102.537401 55.864149 
L 103.005563 54.478714 
L 103.064611 54.602351 
L 103.136311 54.89168 
L 103.216447 54.806236 
L 103.431549 54.537491 
L 103.467399 54.65701 
L 103.872296 56.625828 
L 103.874405 56.625162 
L 103.937671 56.470511 
L 103.969303 56.410295 
L 104.028351 56.572106 
L 104.034677 56.579906 
L 104.112704 56.480035 
L 104.201276 56.369423 
L 104.24767 56.494085 
L 104.279303 56.564695 
L 104.33835 56.404857 
L 104.369983 56.314362 
L 104.433248 56.472664 
L 104.507057 56.78319 
L 104.591411 56.629094 
L 104.968893 55.652401 
L 105.03005 55.525817 
L 105.089097 55.457584 
L 105.141818 55.557313 
L 105.272566 56.047118 
L 105.399097 56.159084 
L 105.401206 56.158322 
L 105.546716 55.935574 
L 105.825083 55.347674 
L 105.852497 55.376434 
L 105.981137 55.622245 
L 106.160388 55.971469 
L 106.19413 55.827832 
L 106.584265 54.286454 
L 106.913244 54.373471 
L 107.181067 55.303747 
L 107.240114 55.201496 
L 107.543787 54.537794 
L 107.55644 54.54473 
L 107.623923 54.594096 
L 107.670318 54.523542 
L 107.748345 54.371264 
L 107.817937 54.462363 
L 107.965555 54.5784 
L 107.971882 54.575953 
L 108.094195 54.653898 
L 108.186984 54.81439 
L 108.279773 55.168743 
L 108.608752 56.417589 
L 108.815418 56.521822 
L 108.834398 56.491462 
L 109.163377 55.943634 
L 109.195009 55.998186 
L 109.222424 56.057319 
L 109.292016 55.948725 
L 109.53875 55.377222 
L 109.580927 55.43449 
L 109.798138 55.739757 
L 109.850859 55.581347 
L 109.949974 55.38327 
L 109.996369 55.441139 
L 110.046981 55.293053 
L 110.268409 54.364285 
L 110.348545 54.4256 
L 110.403375 54.323544 
L 110.637456 54.130202 
L 110.696504 54.043947 
L 110.698612 54.039373 
L 110.831469 53.785575 
L 110.882081 53.9116 
L 111.402965 55.137405 
L 111.455686 55.074335 
L 111.582216 55.11463 
L 111.586434 55.123082 
L 111.864801 55.445771 
L 111.879563 55.421183 
L 112.022964 55.312065 
L 112.111535 55.099637 
L 112.276025 54.659149 
L 112.305549 54.666625 
L 112.910786 53.659683 
L 113.201806 52.860665 
L 113.326227 52.867272 
L 113.566635 52.575126 
L 113.817587 52.189979 
L 113.819696 52.192408 
L 113.960988 52.211038 
L 113.971532 52.200874 
L 114.017927 52.214203 
L 114.055886 52.271809 
L 114.171872 52.770116 
L 114.433368 53.453946 
L 114.437586 53.448 
L 114.608402 53.410624 
L 114.756021 53.249639 
L 114.836157 53.382021 
L 115.006973 53.54262 
L 115.025953 53.522382 
L 115.338061 53.082331 
L 115.650169 53.148733 
L 116.042414 53.994882 
L 116.082482 53.933832 
L 116.261733 53.260966 
L 116.381937 53.407119 
L 116.651868 53.146475 
L 116.683501 53.213295 
L 116.72146 53.283629 
L 116.805814 53.215036 
L 117.259214 52.914339 
L 117.974111 50.722408 
L 118.147036 50.932975 
L 118.250369 50.781941 
L 118.347376 50.532651 
L 118.57724 50.243014 
L 118.93996 50.254095 
L 119.233089 49.66214 
L 119.271048 49.741215 
L 119.621115 50.417469 
L 119.865741 50.699125 
L 120.618597 51.882249 
L 120.696624 51.847664 
L 120.713495 51.8085 
L 120.960229 51.449306 
L 121.33982 50.59991 
L 121.441045 50.471878 
L 121.481113 50.519711 
L 121.508528 50.517479 
L 121.55914 50.441541 
L 121.761588 50.134279 
L 122.027302 49.665643 
L 122.039955 49.678425 
L 122.26771 49.775841 
L 122.59458 49.827549 
L 122.828662 49.71713 
L 122.917233 49.640841 
L 123.077505 49.411906 
L 123.23145 49.135951 
L 123.256756 49.205173 
L 123.423354 49.364965 
L 123.678524 49.55148 
L 123.771313 49.738907 
L 124.074986 50.107154 
L 124.081313 50.100865 
L 124.494645 49.774336 
L 124.509407 49.789516 
L 124.549475 49.801297 
L 124.585325 49.712637 
L 124.802536 49.42575 
L 125.435188 49.107015 
L 125.456276 49.15313 
L 125.690358 49.497637 
L 125.747296 49.45994 
L 126.43267 48.490319 
L 126.510697 48.471789 
L 126.552873 48.511403 
L 126.639336 48.668498 
L 126.713145 48.601315 
L 126.917703 48.4791 
L 127.092737 48.365174 
L 127.118043 48.408022 
L 127.248791 48.493143 
L 127.288859 48.401377 
L 127.600967 47.9346 
L 127.735933 47.862505 
L 127.797089 47.754865 
L 128.005864 47.449127 
L 128.571034 47.140183 
L 128.575251 47.147517 
L 128.61321 47.177336 
L 128.665931 47.083801 
L 128.727088 47.021839 
L 128.779809 47.11154 
L 128.984366 47.246061 
L 129.283822 47.138789 
L 129.374502 47.213055 
L 129.376611 47.220006 
L 129.676066 47.771912 
L 129.690828 47.766201 
L 130.228582 47.453382 
L 130.418378 46.632142 
L 130.757901 45.539515 
L 130.806404 45.570466 
L 130.920282 45.771013 
L 131.120621 46.006259 
L 131.261914 45.960175 
L 131.508648 45.762896 
L 131.662593 45.538363 
L 131.900892 45.162579 
L 131.915654 45.179818 
L 132.28681 45.632454 
L 133.248441 47.738592 
L 133.417148 47.693031 
L 133.77776 47.78426 
L 134.024494 47.935174 
L 134.285991 47.98561 
L 134.711976 48.367797 
L 134.724629 48.352875 
L 134.758371 48.349891 
L 134.800548 48.403855 
L 134.819527 48.408199 
L 135.011432 48.562976 
L 135.270819 48.739984 
L 135.294016 48.707096 
L 135.458506 48.632163 
L 135.848641 48.884268 
L 135.876056 48.837297 
L 136.240886 48.3203 
L 136.350545 48.314658 
L 136.358981 48.239608 
L 136.588844 47.184101 
L 136.749116 46.956471 
L 137.029592 46.592302 
L 137.088639 46.664613 
L 137.217279 46.639274 
L 137.345918 46.720048 
L 138.067141 47.021008 
L 139.011902 47.859997 
L 139.073058 47.968293 
L 139.37884 48.386146 
L 139.76054 48.785828 
L 139.768975 48.777321 
L 140.013601 48.618364 
L 140.213941 48.388861 
L 140.222376 48.393503 
L 140.536593 48.616828 
L 140.572443 48.57349 
L 140.642035 48.522459 
L 140.703192 48.556126 
L 140.86979 48.651568 
L 141.154483 48.765682 
L 141.257816 48.86898 
L 141.443394 49.053544 
L 141.702782 49.20895 
L 142.440876 49.8434 
L 142.647542 49.748684 
L 142.782508 49.651418 
L 142.816249 49.684273 
L 143.484752 50.188205 
L 143.486861 50.185393 
L 143.672439 50.116588 
L 144.060465 50.163988 
L 144.321961 50.16855 
L 144.722641 50.4178 
L 144.853389 50.325326 
L 145.116994 50.12034 
L 145.281484 50.262143 
L 145.481824 50.340981 
L 145.772843 50.371864 
L 145.954204 50.59943 
L 145.994272 50.566856 
L 146.222026 50.509776 
L 146.338013 50.583473 
L 146.671209 50.889988 
L 146.812502 51.112931 
L 146.858896 51.13262 
L 146.926379 51.090982 
L 147.076107 51.134419 
L 147.377671 51.173936 
L 147.702432 50.84988 
L 147.860595 51.028054 
L 148.027194 51.133081 
L 148.174813 51.146675 
L 148.497465 51.041152 
L 148.602907 51.15622 
L 149.092158 51.943 
L 149.444334 52.097012 
L 149.739572 52.468305 
L 149.92515 52.617427 
L 150.199299 52.962602 
L 150.382768 52.998665 
L 150.465013 52.860103 
L 150.734945 52.64567 
L 151.331746 52.690812 
L 152.274398 51.741591 
L 152.68984 51.650454 
L 152.807935 51.688478 
L 153.200179 52.093423 
L 153.495416 52.531205 
L 154.840857 53.194838 
L 155.186706 53.024534 
L 155.334325 53.10122 
L 155.952215 53.225677 
L 156.002828 53.228421 
L 156.049222 53.1651 
L 156.158882 53.237908 
L 156.352895 53.358766 
L 156.460446 53.452925 
L 156.899085 53.760487 
L 157.063574 53.812364 
L 157.464254 54.086264 
L 157.474798 54.075649 
L 157.675138 54.04563 
L 157.715206 54.026524 
L 157.751056 53.965699 
L 157.96194 53.876734 
L 158.092688 53.752366 
L 158.356293 53.564527 
L 158.721123 53.738661 
L 158.915136 53.804716 
L 159.026904 53.945073 
L 159.142891 53.895446 
L 159.857788 53.63418 
L 160.330168 53.202367 
L 160.347038 53.223212 
L 160.614861 53.434965 
L 161.002888 53.826547 
L 161.304452 54.193807 
L 161.412003 54.189183 
L 161.4352 54.158668 
L 161.56173 54.172849 
L 161.565948 54.178432 
L 161.70724 54.196785 
L 162.230233 54.220883 
L 162.584518 54.039874 
L 163.202408 54.131983 
L 163.299415 54.191738 
L 163.341592 54.143318 
L 163.710639 53.810649 
L 163.906761 53.831598 
L 164.391794 54.103801 
L 164.495127 54.180498 
L 164.902133 54.58407 
L 165.446214 55.18745 
L 165.709819 55.464259 
L 165.935465 55.497682 
L 166.184308 55.559893 
L 166.186417 55.556667 
L 166.390975 55.429545 
L 166.397301 55.434063 
L 166.610294 55.443624 
L 167.557163 54.995636 
L 168.0907 54.919683 
L 168.385938 54.85978 
L 168.584169 54.954678 
L 168.769746 55.052911 
L 169.153555 54.938418 
L 169.34546 54.940563 
L 169.518385 54.966808 
L 170.005527 54.772119 
L 170.298656 54.403529 
L 170.92709 54.328416 
L 171.112668 54.146733 
L 171.137974 54.159805 
L 171.310899 54.105218 
L 171.517565 54.056948 
L 171.802259 54.117977 
L 172.173415 54.010835 
L 172.466543 54.278181 
L 172.622598 54.317517 
L 172.846135 54.15248 
L 173.434501 53.470527 
L 173.679127 53.429153 
L 173.925861 53.284702 
L 174.067153 53.255317 
L 174.752526 53.291387 
L 175.011914 53.375001 
L 175.172185 53.359859 
L 175.378852 53.485572 
L 175.705722 53.569401 
L 175.876538 53.661331 
L 175.992524 53.604269 
L 176.165449 53.603348 
L 176.370007 53.665954 
L 176.698986 53.842663 
L 177.05538 53.695759 
L 178.301704 53.744103 
L 178.514697 53.889408 
L 179.495308 54.262367 
L 179.997212 54.150231 
L 180.355715 54.166397 
L 180.534966 54.385922 
L 181.279387 54.880234 
L 181.720134 54.802032 
L 181.962651 54.959933 
L 182.517276 55.161176 
L 182.650133 55.195933 
L 183.354486 55.509147 
L 183.554825 55.547248 
L 183.755165 55.485346 
L 183.987138 55.420459 
L 184.415232 55.600093 
L 184.748429 55.475913 
L 184.870742 55.567753 
L 184.925572 55.60746 
L 184.995163 55.56064 
L 186.03693 54.879924 
L 186.260468 54.879899 
L 187.578493 53.741368 
L 188.021349 53.820173 
L 188.930259 53.414835 
L 189.11162 53.47264 
L 189.221279 53.403822 
L 190.935766 52.916534 
L 191.247875 52.693976 
L 191.513589 52.657584 
L 191.688622 52.605272 
L 191.907942 52.590017 
L 192.770457 52.772828 
L 193.017192 52.867863 
L 193.287123 52.892629 
L 193.666714 53.03239 
L 193.940864 53.059857 
L 194.158074 53.075903 
L 194.411135 53.075173 
L 194.630454 53.161932 
L 195.151338 53.247507 
L 195.370657 53.207451 
L 195.587868 53.173134 
L 195.798752 53.067525 
L 195.910521 52.99614 
L 196.176234 52.905879 
L 196.393445 52.982565 
L 196.943852 53.241841 
L 197.05773 53.159654 
L 197.251743 53.144972 
L 197.838 53.292831 
L 198.316707 53.257882 
L 198.519156 53.419915 
L 199.52929 53.403787 
L 199.714868 53.342479 
L 200.113439 53.237308 
L 200.60269 53.091347 
L 200.916907 52.931841 
L 202.169558 53.073857 
L 202.323504 53.10457 
L 203.188128 53.154796 
L 203.656291 52.790293 
L 203.87561 52.890419 
L 203.959964 52.922586 
L 204.006358 52.877475 
L 204.316358 52.691865 
L 205.271662 52.70214 
L 205.493091 52.683418 
L 205.919076 52.809294 
L 206.47581 52.611321 
L 207.485945 52.664359 
L 207.899277 52.624805 
L 208.11227 52.583173 
L 208.407508 52.467448 
L 208.808187 52.497517 
L 209.200432 52.35695 
L 209.571588 52.463882 
L 209.854172 52.543204 
L 210.611246 52.328468 
L 211.534918 52.441511 
L 211.927162 52.357635 
L 212.675801 52.391069 
L 212.973147 52.380324 
L 213.255732 52.469099 
L 213.704915 52.624719 
L 214.198383 53.081734 
L 214.879539 53.231149 
L 215.225388 53.15943 
L 215.415184 53.094762 
L 215.680898 53.042835 
L 216.366271 52.930178 
L 216.562393 52.944126 
L 217.211916 52.865847 
L 217.462868 52.849554 
L 217.777085 52.783755 
L 218.063887 52.945017 
L 218.62273 53.14009 
L 218.829396 53.201098 
L 219.379804 53.221344 
L 219.597014 53.080515 
L 219.757286 53.080838 
L 220.345653 53.274985 
L 220.693611 53.391566 
L 221.60463 53.484038 
L 222.178235 53.662284 
L 222.376466 53.739048 
L 223.411906 53.877684 
L 223.869525 53.76082 
L 224.582313 53.783837 
L 224.729931 53.810263 
L 224.87755 53.753424 
L 225.065237 53.801172 
L 225.38789 53.90606 
L 226.016324 53.955363 
L 226.374827 53.991229 
L 226.499248 53.96506 
L 226.518228 53.981769 
L 226.788159 54.021193 
L 227.785641 53.740627 
L 228.097749 53.541127 
L 228.42462 53.554602 
L 228.637612 53.617984 
L 228.998224 53.845299 
L 229.449516 54.001257 
L 229.80591 53.91718 
L 230.938357 54.234211 
L 231.581553 54.089213 
L 231.771349 54.087682 
L 232.220532 54.208325 
L 232.492572 54.305468 
L 232.73298 54.274093 
L 233.635564 54.240476 
L 234.038352 54.453935 
L 234.270325 54.466317 
L 234.584542 54.531897 
L 234.829167 54.46784 
L 235.099099 54.421935 
L 235.436513 54.380473 
L 235.727533 54.402522 
L 235.997465 54.471391 
L 236.765083 54.398611 
L 237.207939 54.341339 
L 237.57066 54.270641 
L 237.901748 54.127692 
L 238.034605 54.196685 
L 238.871814 54.192429 
L 239.3695 54.106654 
L 239.584602 54.128599 
L 239.831336 54.135147 
L 240.310043 54.101419 
L 240.613716 54.09592 
L 240.913172 54.156962 
L 241.347593 54.054771 
L 242.106775 53.767344 
L 242.465278 53.841953 
L 242.82589 53.75759 
L 243.18861 53.622572 
L 243.591399 53.621934 
L 243.827589 53.602095 
L 244.023711 53.599989 
L 244.375887 53.700934 
L 244.565683 53.6465 
L 245.383913 53.137889 
L 245.575817 53.197915 
L 245.702348 53.156761 
L 246.003912 53.029504 
L 246.421462 52.928123 
L 247.011938 52.749914 
L 247.399964 52.767071 
L 247.847038 52.836393 
L 248.20765 52.899798 
L 248.502888 52.954756 
L 248.863499 53.030715 
L 249.203023 53.06511 
L 249.957987 53.284276 
L 250.37132 53.396079 
L 251.010299 53.498117 
L 252.17227 53.665083 
L 252.549752 53.759398 
L 252.893493 53.825451 
L 253.559887 54.007013 
L 254.114512 54.036198 
L 254.302198 54.114591 
L 254.578456 54.113639 
L 255.15417 54.131959 
L 255.377707 54.115049 
L 255.672944 53.996113 
L 256.050427 53.763 
L 256.419474 53.628254 
L 256.853895 53.516733 
L 257.296751 53.520335 
L 257.532942 53.442041 
L 258.22675 53.412582 
L 258.713892 53.654166 
L 266.875104 54.506766 
L 267.220954 54.369964 
L 268.070816 54.170996 
L 268.205782 54.006341 
L 268.562176 53.607766 
L 269.059862 53.37099 
L 269.884419 53.361975 
L 270.276663 53.356458 
L 270.869247 53.324441 
L 272.39183 53.148448 
L 272.642782 53.071767 
L 273.197407 53.124338 
L 274.142167 53.132085 
L 274.635636 52.91567 
L 275.190261 52.919612 
L 275.626791 52.946039 
L 275.898831 52.964037 
L 276.293184 52.980499 
L 277.105088 53.097512 
L 277.345496 53.099903 
L 277.849509 53.110181 
L 278.267059 53.180964 
L 278.636106 53.226373 
L 278.809031 53.213775 
L 279.57454 53.214004 
L 279.84658 53.097389 
L 281.137191 52.959084 
L 281.423993 52.907622 
L 282.075624 52.926359 
L 282.714603 52.874322 
L 283.250248 52.988978 
L 283.783785 52.954548 
L 284.125417 52.875882 
L 285.013239 52.421457 
L 286.470448 52.474041 
L 286.980787 52.599019 
L 287.278133 52.49054 
L 287.541738 52.417027 
L 287.995139 52.44619 
L 290.135612 52.341157 
L 290.856835 52.139799 
L 292.455336 52.056055 
L 293.237716 51.940906 
L 293.870368 51.878621 
L 294.804584 51.796149 
L 295.082951 51.764883 
L 296.871248 51.378906 
L 297.274036 51.367817 
L 299.716073 50.963564 
L 300.015528 50.89053 
L 300.81267 50.901546 
L 301.133214 50.971322 
L 304.427222 50.733347 
L 304.642324 50.754164 
L 305.192731 50.965312 
L 306.787015 51.348173 
L 307.172932 51.308136 
L 308.235788 51.479028 
L 308.566876 51.576752 
L 309.06878 51.545527 
L 309.756262 51.81738 
L 310.201227 52.040391 
L 310.369934 52.000456 
L 310.635648 51.740004 
L 311.034219 51.492299 
L 311.517143 51.462967 
L 312.14136 51.451057 
L 312.847821 51.42797 
L 313.444623 51.4484 
L 315.637817 51.367754 
L 316.226183 51.358525 
L 316.882033 51.145624 
L 317.434549 51.175784 
L 317.746657 51.181575 
L 319.138492 51.267757 
L 319.783797 51.302882 
L 320.028422 51.325922 
L 320.492367 51.386057 
L 321.797739 51.393113 
L 322.139372 51.324827 
L 323.21488 51.264682 
L 323.657737 51.195884 
L 324.007804 51.175565 
L 325.798209 51.232034 
L 326.439297 51.080519 
L 326.8695 50.856054 
L 328.860245 50.900961 
L 329.263034 50.950661 
L 330.28793 50.843494 
L 330.880514 50.822075 
L 331.239017 50.779911 
L 331.922281 50.827328 
L 333.03364 50.611927 
L 334.777651 50.536465 
L 335.298535 50.459417 
L 336.08935 50.40323 
L 336.844315 50.308175 
L 337.991524 50.187307 
L 338.879345 50.010142 
L 339.897915 49.917835 
L 340.539003 49.87635 
L 341.395192 49.758079 
L 342.932536 49.605439 
L 343.39859 49.70018 
L 346.673619 49.495754 
L 346.956204 49.592064 
L 347.257768 49.653115 
L 347.641577 49.465851 
L 348.489331 49.296509 
L 349.969736 49.240267 
L 350.262865 49.194589 
L 350.918715 49.054195 
L 352.658508 48.969411 
L 353.426126 48.949399 
L 353.687622 48.916953 
L 354.037689 48.996631 
L 354.252791 48.993137 
L 355.939863 49.288674 
L 356.256189 49.261527 
L 356.796052 49.23563 
L 357.506731 49.245758 
L 358.772036 49.23222 
L 359.113668 49.203373 
L 359.505912 49.20011 
L 359.784279 49.195694 
L 360.250333 49.095303 
L 360.596182 49.012706 
L 361.403868 48.839515 
L 361.760262 48.693128 
L 362.087132 48.721819 
L 362.835771 48.739358 
L 363.261757 48.809199 
L 364.145361 48.75291 
L 364.417401 48.827734 
L 367.985559 49.200777 
L 368.616102 49.239692 
L 372.131539 49.197812 
L 373.498067 49.453602 
L 373.827046 49.53623 
L 374.210855 49.587228 
L 374.527181 49.540562 
L 375.735547 49.403174 
L 376.935477 49.435056 
L 377.38466 49.392463 
L 378.032074 49.591375 
L 378.690032 49.810016 
L 379.063297 49.8242 
L 379.626357 49.891795 
L 380.199961 50.028349 
L 381.146831 49.988375 
L 381.54751 49.949568 
L 382.019891 49.933559 
L 382.403699 49.802146 
L 382.861318 49.792589 
L 383.363222 49.838393 
L 383.69431 49.905149 
L 384.523084 49.899199 
L 385.204239 49.801417 
L 385.950769 49.763631 
L 387.882466 49.634813 
L 388.272602 49.685733 
L 388.934778 49.657672 
L 389.717157 49.661545 
L 390.820081 49.544075 
L 391.262937 49.409769 
L 391.960964 49.369722 
L 393.884226 49.493029 
L 394.445177 49.475304 
L 394.963952 49.487984 
L 395.392047 49.535362 
L 395.893951 49.485745 
L 396.826058 49.652237 
L 397.441839 49.743908 
L 397.882587 49.819467 
L 398.215784 49.932805 
L 400.858161 50.163218 
L 401.526663 50.363847 
L 402.302716 50.348699 
L 403.293871 50.320796 
L 403.905435 50.286261 
L 404.325094 50.296903 
L 405.843459 50.379781 
L 406.847267 50.118974 
L 407.330191 50.002276 
L 407.948081 49.98587 
L 408.935019 49.962259 
L 409.371549 49.884372 
L 410.463928 50.09986 
L 410.761274 50.108259 
L 413.203311 50.053854 
L 413.692562 50.010613 
L 414.179704 49.926137 
L 414.681608 49.936706 
L 418.747452 50.149399 
L 419.101738 50.16377 
L 419.814526 50.25913 
L 420.291123 50.175579 
L 420.913231 50.146416 
L 424.082818 49.816551 
L 424.633226 49.858414 
L 425.105606 49.825128 
L 426.963494 49.921135 
L 429.040702 49.748634 
L 431.790629 50.134561 
L 432.29886 50.117463 
L 432.929403 50.247407 
L 433.31743 50.329022 
L 434.852665 50.315597 
L 435.713072 50.224375 
L 435.997766 50.251026 
L 439.325516 50.331178 
L 439.71776 50.308684 
L 440.369392 50.358694 
L 440.976738 50.436616 
L 441.596737 50.484056 
L 443.24585 50.359219 
L 444.207481 50.332517 
L 445.257683 50.328578 
L 445.719519 50.328618 
L 446.210879 50.311951 
L 446.552511 50.311967 
L 447.775639 50.414285 
L 448.19108 50.425048 
L 448.716181 50.414684 
L 449.199106 50.482686 
L 451.407061 50.50106 
L 451.712843 50.517514 
L 452.788352 50.596763 
L 453.705697 50.540924 
L 454.230799 50.4963 
L 454.785424 50.378686 
L 455.274674 50.274703 
L 459.75596 50.397974 
L 460.690176 50.423578 
L 461.784664 50.353415 
L 462.900241 50.341053 
L 465.006972 50.503027 
L 465.344387 50.522024 
L 465.673366 50.481849 
L 466.240644 50.414868 
L 467.385744 50.497161 
L 467.733703 50.55919 
L 468.486559 50.619859 
L 468.927306 50.523768 
L 470.420365 50.528581 
L 471.97458 50.639368 
L 474.136142 50.9013 
L 474.549474 50.866057 
L 475.445731 50.852421 
L 476.017227 50.947136 
L 476.881852 50.885554 
L 477.776 50.87055 
L 478.140829 50.91638 
L 478.735522 50.793154 
L 479.328106 50.696871 
L 479.688718 50.675723 
L 480.074636 50.705108 
L 480.833818 50.55708 
L 481.276675 50.437351 
L 484.264901 50.292698 
L 486.725918 50.455159 
L 487.316393 50.477966 
L 488.609112 50.434182 
L 488.92333 50.448673 
L 489.423125 50.439617 
L 491.913665 50.376734 
L 492.588494 50.222674 
L 493.74203 50.160513 
L 494.378899 50.177968 
L 496.399168 50.153944 
L 498.254948 50.268931 
L 500.983787 50.155049 
L 501.612221 50.116101 
L 504.111197 50.073655 
L 505.079155 50.147116 
L 505.395481 50.196593 
L 512.846013 50.283021 
L 513.588325 50.39743 
L 514.111318 50.40888 
L 515.01601 50.417646 
L 519.132466 50.425541 
L 519.750356 50.378893 
L 521.502803 50.574444 
L 528.942791 50.596771 
L 529.636599 50.61488 
L 530.056259 50.660678 
L 533.797341 50.924937 
L 537.852641 50.918156 
L 538.932367 51.083574 
L 539.666244 51.164294 
L 540.088012 51.135167 
L 540.874609 51.007413 
L 542.551137 50.991584 
L 542.987667 50.96821 
L 543.919775 51.022614 
L 544.562971 50.934937 
L 548.204938 50.8876 
L 548.898746 50.836193 
L 550.708131 51.078928 
L 554.103364 51.020336 
L 555.381321 50.940793 
L 557.660978 50.958481 
L 558.386419 50.772443 
L 558.926282 50.656062 
L 559.464036 50.598541 
L 562.030495 50.695622 
L 562.971037 50.663852 
L 563.618451 50.592523 
L 565.723074 50.628215 
L 566.425318 50.595535 
L 568.082866 50.535876 
L 568.783001 50.48427 
L 569.805789 50.532222 
L 572.659049 50.741575 
L 577.612715 50.718271 
L 578.053463 50.701813 
L 578.854822 50.690743 
L 580.364752 50.6154 
L 581.098628 50.61542 
L 582.910122 50.839521 
L 584.907194 50.866257 
L 585.453383 50.887647 
L 585.997464 50.876747 
L 586.988619 50.956351 
L 587.646577 50.863619 
L 589.500248 50.773501 
L 590.776096 50.783131 
L 592.218543 50.878064 
L 593.310922 50.855027 
L 595.350171 50.905355 
L 596.020782 50.881041 
L 597.486426 50.994793 
L 598.327853 50.961223 
L 602.847098 50.958303 
L 603.732811 50.936295 
L 604.829408 50.943384 
L 605.713012 50.894065 
L 606.773758 50.858832 
L 607.69743 50.824235 
L 608.545184 50.830561 
L 609.622801 50.818681 
L 610.386202 50.83183 
L 610.839602 50.84353 
L 610.839602 50.84353 
" clip-path="url(#p46bb20bfb9)" style="fill: none; stroke: #1f2937; stroke-linecap: square"/>
   </g>
   <g id="line2d_26">
    <path d="M 57.27125 50.84353 
L 637.2 50.84353 
" clip-path="url(#p46bb20bfb9)" style="fill: none; stroke-dasharray: 2.96,1.28; stroke-dashoffset: 0; stroke: #888888; stroke-width: 0.8"/>
   </g>
   <g id="patch_3">
    <path d="M 57.27125 282.04 
L 57.27125 26.88 
" style="fill: none; stroke: #000000; stroke-width: 0.8; stroke-linejoin: miter; stroke-linecap: square"/>
   </g>
   <g id="patch_4">
    <path d="M 637.2 282.04 
L 637.2 26.88 
" style="fill: none; stroke: #000000; stroke-width: 0.8; stroke-linejoin: miter; stroke-linecap: square"/>
   </g>
   <g id="patch_5">
    <path d="M 57.27125 282.04 
L 637.2 282.04 
" style="fill: none; stroke: #000000; stroke-width: 0.8; stroke-linejoin: miter; stroke-linecap: square"/>
   </g>
   <g id="patch_6">
    <path d="M 57.27125 26.88 
L 637.2 26.88 
" style="fill: none; stroke: #000000; stroke-width: 0.8; stroke-linejoin: miter; stroke-linecap: square"/>
   </g>
   <g id="text_15">
    <!-- Running mean — population_mad  (100k ReCom samples, seed 42) -->
    <g transform="translate(144.50875 20.88) scale(0.12 -0.12)">
     <defs>
      <path id="DejaVuSans-2014" d="M 313 1978 
L 6088 1978 
L 6088 1528 
L 313 1528 
L 313 1978 
z
" transform="scale(0.015625)"/>
      <path id="DejaVuSans-28" d="M 1984 4856 
Q 1566 4138 1362 3434 
Q 1159 2731 1159 2009 
Q 1159 1288 1364 580 
Q 1569 -128 1984 -844 
L 1484 -844 
Q 1016 -109 783 600 
Q 550 1309 550 2009 
Q 550 2706 781 3412 
Q 1013 4119 1484 4856 
L 1984 4856 
z
" transform="scale(0.015625)"/>
      <path id="DejaVuSans-6b" d="M 581 4863 
L 1159 4863 
L 1159 1991 
L 2875 3500 
L 3609 3500 
L 1753 1863 
L 3688 0 
L 2938 0 
L 1159 1709 
L 1159 0 
L 581 0 
L 581 4863 
z
" transform="scale(0.015625)"/>
      <path id="DejaVuSans-43" d="M 4122 4306 
L 4122 3641 
Q 3803 3938 3442 4084 
Q 3081 4231 2675 4231 
Q 1875 4231 1450 3742 
Q 1025 3253 1025 2328 
Q 1025 1406 1450 917 
Q 1875 428 2675 428 
Q 3081 428 3442 575 
Q 3803 722 4122 1019 
L 4122 359 
Q 3791 134 3420 21 
Q 3050 -91 2638 -91 
Q 1578 -91 968 557 
Q 359 1206 359 2328 
Q 359 3453 968 4101 
Q 1578 4750 2638 4750 
Q 3056 4750 3426 4639 
Q 3797 4528 4122 4306 
z
" transform="scale(0.015625)"/>
      <path id="DejaVuSans-73" d="M 2834 3397 
L 2834 2853 
Q 2591 2978 2328 3040 
Q 2066 3103 1784 3103 
Q 1356 3103 1142 2972 
Q 928 2841 928 2578 
Q 928 2378 1081 2264 
Q 1234 2150 1697 2047 
L 1894 2003 
Q 2506 1872 2764 1633 
Q 3022 1394 3022 966 
Q 3022 478 2636 193 
Q 2250 -91 1575 -91 
Q 1294 -91 989 -36 
Q 684 19 347 128 
L 347 722 
Q 666 556 975 473 
Q 1284 391 1588 391 
Q 1994 391 2212 530 
Q 2431 669 2431 922 
Q 2431 1156 2273 1281 
Q 2116 1406 1581 1522 
L 1381 1569 
Q 847 1681 609 1914 
Q 372 2147 372 2553 
Q 372 3047 722 3315 
Q 1072 3584 1716 3584 
Q 2034 3584 2315 3537 
Q 2597 3491 2834 3397 
z
" transform="scale(0.015625)"/>
      <path id="DejaVuSans-2c" d="M 750 794 
L 1409 794 
L 1409 256 
L 897 -744 
L 494 -744 
L 750 256 
L 750 794 
z
" transform="scale(0.015625)"/>
      <path id="DejaVuSans-29" d="M 513 4856 
L 1013 4856 
Q 1481 4119 1714 3412 
Q 1947 2706 1947 2009 
Q 1947 1309 1714 600 
Q 1481 -109 1013 -844 
L 513 -844 
Q 928 -128 1133 580 
Q 1338 1288 1338 2009 
Q 1338 2731 1133 3434 
Q 928 4138 513 4856 
z
" transform="scale(0.015625)"/>
     </defs>
     <use xlink:href="#DejaVuSans-52"/>
     <use xlink:href="#DejaVuSans-75" transform="translate(64.982422 0)"/>
     <use xlink:href="#DejaVuSans-6e" transform="translate(128.361328 0)"/>
     <use xlink:href="#DejaVuSans-6e" transform="translate(191.740234 0)"/>
     <use xlink:href="#DejaVuSans-69" transform="translate(255.119141 0)"/>
     <use xlink:href="#DejaVuSans-6e" transform="translate(282.902344 0)"/>
     <use xlink:href="#DejaVuSans-67" transform="translate(346.28125 0)"/>
     <use xlink:href="#DejaVuSans-20" transform="translate(409.757812 0)"/>
     <use xlink:href="#DejaVuSans-6d" transform="translate(441.544922 0)"/>
     <use xlink:href="#DejaVuSans-65" transform="translate(538.957031 0)"/>
     <use xlink:href="#DejaVuSans-61" transform="translate(600.480469 0)"/>
     <use xlink:href="#DejaVuSans-6e" transform="translate(661.759766 0)"/>
     <use xlink:href="#DejaVuSans-20" transform="translate(725.138672 0)"/>
     <use xlink:href="#DejaVuSans-2014" transform="translate(756.925781 0)"/>
     <use xlink:href="#DejaVuSans-20" transform="translate(856.925781 0)"/>
     <use xlink:href="#DejaVuSans-70" transform="translate(888.712891 0)"/>
     <use xlink:href="#DejaVuSans-6f" transform="translate(952.189453 0)"/>
     <use xlink:href="#DejaVuSans-70" transform="translate(1013.371094 0)"/>
     <use xlink:href="#DejaVuSans-75" transform="translate(1076.847656 0)"/>
     <use xlink:href="#DejaVuSans-6c" transform="translate(1140.226562 0)"/>
     <use xlink:href="#DejaVuSans-61" transform="translate(1168.009766 0)"/>
     <use xlink:href="#DejaVuSans-74" transform="translate(1229.289062 0)"/>
     <use xlink:href="#DejaVuSans-69" transform="translate(1268.498047 0)"/>
     <use xlink:href="#DejaVuSans-6f" transform="translate(1296.28125 0)"/>
     <use xlink:href="#DejaVuSans-6e" transform="translate(1357.462891 0)"/>
     <use xlink:href="#DejaVuSans-5f" transform="translate(1420.841797 0)"/>
     <use xlink:href="#DejaVuSans-6d" transform="translate(1470.841797 0)"/>
     <use xlink:href="#DejaVuSans-61" transform="translate(1568.253906 0)"/>
     <use xlink:href="#DejaVuSans-64" transform="translate(1629.533203 0)"/>
     <use xlink:href="#DejaVuSans-20" transform="translate(1693.009766 0)"/>
     <use xlink:href="#DejaVuSans-20" transform="translate(1724.796875 0)"/>
     <use xlink:href="#DejaVuSans-28" transform="translate(1756.583984 0)"/>
     <use xlink:href="#DejaVuSans-31" transform="translate(1795.597656 0)"/>
     <use xlink:href="#DejaVuSans-30" transform="translate(1859.220703 0)"/>
     <use xlink:href="#DejaVuSans-30" transform="translate(1922.84375 0)"/>
     <use xlink:href="#DejaVuSans-6b" transform="translate(1986.466797 0)"/>
     <use xlink:href="#DejaVuSans-20" transform="translate(2044.376953 0)"/>
     <use xlink:href="#DejaVuSans-52" transform="translate(2076.164062 0)"/>
     <use xlink:href="#DejaVuSans-65" transform="translate(2141.146484 0)"/>
     <use xlink:href="#DejaVuSans-43" transform="translate(2202.669922 0)"/>
     <use xlink:href="#DejaVuSans-6f" transform="translate(2272.494141 0)"/>
     <use xlink:href="#DejaVuSans-6d" transform="translate(2333.675781 0)"/>
     <use xlink:href="#DejaVuSans-20" transform="translate(2431.087891 0)"/>
     <use xlink:href="#DejaVuSans-73" transform="translate(2462.875 0)"/>
     <use xlink:href="#DejaVuSans-61" transform="translate(2514.974609 0)"/>
     <use xlink:href="#DejaVuSans-6d" transform="translate(2576.253906 0)"/>
     <use xlink:href="#DejaVuSans-70" transform="translate(2673.666016 0)"/>
     <use xlink:href="#DejaVuSans-6c" transform="translate(2737.142578 0)"/>
     <use xlink:href="#DejaVuSans-65" transform="translate(2764.925781 0)"/>
     <use xlink:href="#DejaVuSans-73" transform="translate(2826.449219 0)"/>
     <use xlink:href="#DejaVuSans-2c" transform="translate(2878.548828 0)"/>
     <use xlink:href="#DejaVuSans-20" transform="translate(2910.335938 0)"/>
     <use xlink:href="#DejaVuSans-73" transform="translate(2942.123047 0)"/>
     <use xlink:href="#DejaVuSans-65" transform="translate(2994.222656 0)"/>
     <use xlink:href="#DejaVuSans-65" transform="translate(3055.746094 0)"/>
     <use xlink:href="#DejaVuSans-64" transform="translate(3117.269531 0)"/>
     <use xlink:href="#DejaVuSans-20" transform="translate(3180.746094 0)"/>
     <use xlink:href="#DejaVuSans-34" transform="translate(3212.533203 0)"/>
     <use xlink:href="#DejaVuSans-32" transform="translate(3276.15625 0)"/>
     <use xlink:href="#DejaVuSans-29" transform="translate(3339.779297 0)"/>
    </g>
   </g>
   <g id="legend_1">
    <g id="patch_7">
     <path d="M 479.127656 47.290312 
L 630.9 47.290312 
Q 632.7 47.290312 632.7 45.490312 
L 632.7 33.18 
Q 632.7 31.38 630.9 31.38 
L 479.127656 31.38 
Q 477.327656 31.38 477.327656 33.18 
L 477.327656 45.490312 
Q 477.327656 47.290312 479.127656 47.290312 
z
" style="fill: #ffffff; opacity: 0.8; stroke: #cccccc; stroke-linejoin: miter"/>
    </g>
    <g id="line2d_27">
     <path d="M 480.927656 38.668594 
L 489.927656 38.668594 
L 498.927656 38.668594 
" style="fill: none; stroke-dasharray: 2.96,1.28; stroke-dashoffset: 0; stroke: #888888; stroke-width: 0.8"/>
    </g>
    <g id="text_16">
     <!-- final mean = +3169.66603 -->
     <g transform="translate(506.127656 41.818594) scale(0.09 -0.09)">
      <defs>
       <path id="DejaVuSans-3d" d="M 678 2906 
L 4684 2906 
L 4684 2381 
L 678 2381 
L 678 2906 
z
M 678 1631 
L 4684 1631 
L 4684 1100 
L 678 1100 
L 678 1631 
z
" transform="scale(0.015625)"/>
       <path id="DejaVuSans-2b" d="M 2944 4013 
L 2944 2272 
L 4684 2272 
L 4684 1741 
L 2944 1741 
L 2944 0 
L 2419 0 
L 2419 1741 
L 678 1741 
L 678 2272 
L 2419 2272 
L 2419 4013 
L 2944 4013 
z
" transform="scale(0.015625)"/>
       <path id="DejaVuSans-39" d="M 703 97 
L 703 672 
Q 941 559 1184 500 
Q 1428 441 1663 441 
Q 2288 441 2617 861 
Q 2947 1281 2994 2138 
Q 2813 1869 2534 1725 
Q 2256 1581 1919 1581 
Q 1219 1581 811 2004 
Q 403 2428 403 3163 
Q 403 3881 828 4315 
Q 1253 4750 1959 4750 
Q 2769 4750 3195 4129 
Q 3622 3509 3622 2328 
Q 3622 1225 3098 567 
Q 2575 -91 1691 -91 
Q 1453 -91 1209 -44 
Q 966 3 703 97 
z
M 1959 2075 
Q 2384 2075 2632 2365 
Q 2881 2656 2881 3163 
Q 2881 3666 2632 3958 
Q 2384 4250 1959 4250 
Q 1534 4250 1286 3958 
Q 1038 3666 1038 3163 
Q 1038 2656 1286 2365 
Q 1534 2075 1959 2075 
z
" transform="scale(0.015625)"/>
       <path id="DejaVuSans-2e" d="M 684 794 
L 1344 794 
L 1344 0 
L 684 0 
L 684 794 
z
" transform="scale(0.015625)"/>
      </defs>
      <use xlink:href="#DejaVuSans-66"/>
      <use xlink:href="#DejaVuSans-69" transform="translate(35.205078 0)"/>
      <use xlink:href="#DejaVuSans-6e" transform="translate(62.988281 0)"/>
      <use xlink:href="#DejaVuSans-61" transform="translate(126.367188 0)"/>
      <use xlink:href="#DejaVuSans-6c" transform="translate(187.646484 0)"/>
      <use xlink:href="#DejaVuSans-20" transform="translate(215.429688 0)"/>
      <use xlink:href="#DejaVuSans-6d" transform="translate(247.216797 0)"/>
      <use xlink:href="#DejaVuSans-65" transform="translate(344.628906 0)"/>
      <use xlink:href="#DejaVuSans-61" transform="translate(406.152344 0)"/>
      <use xlink:href="#DejaVuSans-6e" transform="translate(467.431641 0)"/>
      <use xlink:href="#DejaVuSans-20" transform="translate(530.810547 0)"/>
      <use xlink:href="#DejaVuSans-3d" transform="translate(562.597656 0)"/>
      <use xlink:href="#DejaVuSans-20" transform="translate(646.386719 0)"/>
      <use xlink:href="#DejaVuSans-2b" transform="translate(678.173828 0)"/>
      <use xlink:href="#DejaVuSans-33" transform="translate(761.962891 0)"/>
      <use xlink:href="#DejaVuSans-31" transform="translate(825.585938 0)"/>
      <use xlink:href="#DejaVuSans-36" transform="translate(889.208984 0)"/>
      <use xlink:href="#DejaVuSans-39" transform="translate(952.832031 0)"/>
      <use xlink:href="#DejaVuSans-2e" transform="translate(1016.455078 0)"/>
      <use xlink:href="#DejaVuSans-36" transform="translate(1048.242188 0)"/>
      <use xlink:href="#DejaVuSans-36" transform="translate(1111.865234 0)"/>
      <use xlink:href="#DejaVuSans-36" transform="translate(1175.488281 0)"/>
      <use xlink:href="#DejaVuSans-30" transform="translate(1239.111328 0)"/>
      <use xlink:href="#DejaVuSans-33" transform="translate(1302.734375 0)"/>
     </g>
    </g>
   </g>
  </g>
 </g>
 <defs>
  <clipPath id="p46bb20bfb9">
   <rect x="57.27125" y="26.88" width="579.92875" height="255.16"/>
  </clipPath>
 </defs>
</svg>
