<?xml version="1.0" encoding="utf-8" standalone="no"?>
<!DOCTYPE svg PUBLIC "-//W3C//DTD SVG 1.1//EN"
  "http://www.w3.org/Graphics/SVG/1.1/DTD/svg11.dtd">
<svg xmlns:xlink="http://www.w3.org/1999/xlink" width="648pt" height="324pt" viewBox="0 0 648 324" xmlns="http://www.w3.org/2000/svg" version="1.1">
 <metadata>
  <rdf:RDF xmlns:dc="http://purl.org/dc/elements/1.1/" xmlns:cc="http://creativecommons.org/ns#" xmlns:rdf="http://www.w3.org/1999/02/22-rdf-syntax-ns#">
   <cc:Work>
    <dc:type rdf:resource="http://purl.org/dc/dcmitype/StillImage"/>
    <dc:date>2026-05-18T20:46:01.184165</dc:date>
    <dc:format>image/svg+xml</dc:format>
    <dc:creator>
     <cc:Agent>
      <dc:title>Matplotlib v3.10.8, https://matplotlib.org/</dc:title>
     </cc:Agent>
    </dc:creator>
   </cc:Work>
  </rdf:RDF>
 </metadata>
 <defs>
  <style type="text/css">*{stroke-linejoin: round; stroke-linecap: butt}</style>
 </defs>
 <g id="figure_1">
  <g id="patch_1">
   <path d="M 0 324 
L 648 324 
L 648 0 
L 0 0 
z
" style="fill: #ffffff"/>
  </g>
  <g id="axes_1">
   <g id="patch_2">
    <path d="M 57.27125 282.04 
L 637.2 282.04 
L 637.2 26.88 
L 57.27125 26.88 
z
" style="fill: #ffffff"/>
   </g>
   <g id="matplotlib.axis_1">
    <g id="xtick_1">
     <g id="line2d_1">
      <path d="M 83.631126 282.04 
L 83.631126 26.88 
" clip-path="url(#p10d22da729)" style="fill: none; stroke-dasharray: 0.5,0.825; stroke-dashoffset: 0; stroke: #b0b0b0; stroke-opacity: 0.6; stroke-width: 0.5"/>
     </g>
     <g id="line2d_2">
      <defs>
       <path id="m70c5bb55ca" d="M 0 0 
L 0 3.5 
" style="stroke: #000000; stroke-width: 0.8"/>
      </defs>
      <g>
       <use xlink:href="#m70c5bb55ca" x="83.631126" y="282.04" style="stroke: #000000; stroke-width: 0.8"/>
      </g>
     </g>
     <g id="text_1">
      <!-- 0.0 -->
      <g transform="translate(75.679563 296.638438) scale(0.1 -0.1)">
       <defs>
        <path id="DejaVuSans-30" d="M 2034 4250 
Q 1547 4250 1301 3770 
Q 1056 3291 1056 2328 
Q 1056 1369 1301 889 
Q 1547 409 2034 409 
Q 2525 409 2770 889 
Q 3016 1369 3016 2328 
Q 3016 3291 2770 3770 
Q 2525 4250 2034 4250 
z
M 2034 4750 
Q 2819 4750 3233 4129 
Q 3647 3509 3647 2328 
Q 3647 1150 3233 529 
Q 2819 -91 2034 -91 
Q 1250 -91 836 529 
Q 422 1150 422 2328 
Q 422 3509 836 4129 
Q 1250 4750 2034 4750 
z
" transform="scale(0.015625)"/>
        <path id="DejaVuSans-2e" d="M 684 794 
L 1344 794 
L 1344 0 
L 684 0 
L 684 794 
z
" transform="scale(0.015625)"/>
       </defs>
       <use xlink:href="#DejaVuSans-30"/>
       <use xlink:href="#DejaVuSans-2e" transform="translate(63.623047 0)"/>
       <use xlink:href="#DejaVuSans-30" transform="translate(95.410156 0)"/>
      </g>
     </g>
    </g>
    <g id="xtick_2">
     <g id="line2d_3">
      <path d="M 188.028844 282.04 
L 188.028844 26.88 
" clip-path="url(#p10d22da729)" style="fill: none; stroke-dasharray: 0.5,0.825; stroke-dashoffset: 0; stroke: #b0b0b0; stroke-opacity: 0.6; stroke-width: 0.5"/>
     </g>
     <g id="line2d_4">
      <g>
       <use xlink:href="#m70c5bb55ca" x="188.028844" y="282.04" style="stroke: #000000; stroke-width: 0.8"/>
      </g>
     </g>
     <g id="text_2">
      <!-- 0.2 -->
      <g transform="translate(180.077281 296.638438) scale(0.1 -0.1)">
       <defs>
        <path id="DejaVuSans-32" d="M 1228 531 
L 3431 531 
L 3431 0 
L 469 0 
L 469 531 
Q 828 903 1448 1529 
Q 2069 2156 2228 2338 
Q 2531 2678 2651 2914 
Q 2772 3150 2772 3378 
Q 2772 3750 2511 3984 
Q 2250 4219 1831 4219 
Q 1534 4219 1204 4116 
Q 875 4013 500 3803 
L 500 4441 
Q 881 4594 1212 4672 
Q 1544 4750 1819 4750 
Q 2544 4750 2975 4387 
Q 3406 4025 3406 3419 
Q 3406 3131 3298 2873 
Q 3191 2616 2906 2266 
Q 2828 2175 2409 1742 
Q 1991 1309 1228 531 
z
" transform="scale(0.015625)"/>
       </defs>
       <use xlink:href="#DejaVuSans-30"/>
       <use xlink:href="#DejaVuSans-2e" transform="translate(63.623047 0)"/>
       <use xlink:href="#DejaVuSans-32" transform="translate(95.410156 0)"/>
      </g>
     </g>
    </g>
    <g id="xtick_3">
     <g id="line2d_5">
      <path d="M 292.426562 282.04 
L 292.426562 26.88 
" clip-path="url(#p10d22da729)" style="fill: none; stroke-dasharray: 0.5,0.825; stroke-dashoffset: 0; stroke: #b0b0b0; stroke-opacity: 0.6; stroke-width: 0.5"/>
     </g>
     <g id="line2d_6">
      <g>
       <use xlink:href="#m70c5bb55ca" x="292.426562" y="282.04" style="stroke: #000000; stroke-width: 0.8"/>
      </g>
     </g>
     <g id="text_3">
      <!-- 0.4 -->
      <g transform="translate(284.474999 296.638438) scale(0.1 -0.1)">
       <defs>
        <path id="DejaVuSans-34" d="M 2419 4116 
L 825 1625 
L 2419 1625 
L 2419 4116 
z
M 2253 4666 
L 3047 4666 
L 3047 1625 
L 3713 1625 
L 3713 1100 
L 3047 1100 
L 3047 0 
L 2419 0 
L 2419 1100 
L 313 1100 
L 313 1709 
L 2253 4666 
z
" transform="scale(0.015625)"/>
       </defs>
       <use xlink:href="#DejaVuSans-30"/>
       <use xlink:href="#DejaVuSans-2e" transform="translate(63.623047 0)"/>
       <use xlink:href="#DejaVuSans-34" transform="translate(95.410156 0)"/>
      </g>
     </g>
    </g>
    <g id="xtick_4">
     <g id="line2d_7">
      <path d="M 396.82428 282.04 
L 396.82428 26.88 
" clip-path="url(#p10d22da729)" style="fill: none; stroke-dasharray: 0.5,0.825; stroke-dashoffset: 0; stroke: #b0b0b0; stroke-opacity: 0.6; stroke-width: 0.5"/>
     </g>
     <g id="line2d_8">
      <g>
       <use xlink:href="#m70c5bb55ca" x="396.82428" y="282.04" style="stroke: #000000; stroke-width: 0.8"/>
      </g>
     </g>
     <g id="text_4">
      <!-- 0.6 -->
      <g transform="translate(388.872718 296.638438) scale(0.1 -0.1)">
       <defs>
        <path id="DejaVuSans-36" d="M 2113 2584 
Q 1688 2584 1439 2293 
Q 1191 2003 1191 1497 
Q 1191 994 1439 701 
Q 1688 409 2113 409 
Q 2538 409 2786 701 
Q 3034 994 3034 1497 
Q 3034 2003 2786 2293 
Q 2538 2584 2113 2584 
z
M 3366 4563 
L 3366 3988 
Q 3128 4100 2886 4159 
Q 2644 4219 2406 4219 
Q 1781 4219 1451 3797 
Q 1122 3375 1075 2522 
Q 1259 2794 1537 2939 
Q 1816 3084 2150 3084 
Q 2853 3084 3261 2657 
Q 3669 2231 3669 1497 
Q 3669 778 3244 343 
Q 2819 -91 2113 -91 
Q 1303 -91 875 529 
Q 447 1150 447 2328 
Q 447 3434 972 4092 
Q 1497 4750 2381 4750 
Q 2619 4750 2861 4703 
Q 3103 4656 3366 4563 
z
" transform="scale(0.015625)"/>
       </defs>
       <use xlink:href="#DejaVuSans-30"/>
       <use xlink:href="#DejaVuSans-2e" transform="translate(63.623047 0)"/>
       <use xlink:href="#DejaVuSans-36" transform="translate(95.410156 0)"/>
      </g>
     </g>
    </g>
    <g id="xtick_5">
     <g id="line2d_9">
      <path d="M 501.221998 282.04 
L 501.221998 26.88 
" clip-path="url(#p10d22da729)" style="fill: none; stroke-dasharray: 0.5,0.825; stroke-dashoffset: 0; stroke: #b0b0b0; stroke-opacity: 0.6; stroke-width: 0.5"/>
     </g>
     <g id="line2d_10">
      <g>
       <use xlink:href="#m70c5bb55ca" x="501.221998" y="282.04" style="stroke: #000000; stroke-width: 0.8"/>
      </g>
     </g>
     <g id="text_5">
      <!-- 0.8 -->
      <g transform="translate(493.270436 296.638438) scale(0.1 -0.1)">
       <defs>
        <path id="DejaVuSans-38" d="M 2034 2216 
Q 1584 2216 1326 1975 
Q 1069 1734 1069 1313 
Q 1069 891 1326 650 
Q 1584 409 2034 409 
Q 2484 409 2743 651 
Q 3003 894 3003 1313 
Q 3003 1734 2745 1975 
Q 2488 2216 2034 2216 
z
M 1403 2484 
Q 997 2584 770 2862 
Q 544 3141 544 3541 
Q 544 4100 942 4425 
Q 1341 4750 2034 4750 
Q 2731 4750 3128 4425 
Q 3525 4100 3525 3541 
Q 3525 3141 3298 2862 
Q 3072 2584 2669 2484 
Q 3125 2378 3379 2068 
Q 3634 1759 3634 1313 
Q 3634 634 3220 271 
Q 2806 -91 2034 -91 
Q 1263 -91 848 271 
Q 434 634 434 1313 
Q 434 1759 690 2068 
Q 947 2378 1403 2484 
z
M 1172 3481 
Q 1172 3119 1398 2916 
Q 1625 2713 2034 2713 
Q 2441 2713 2670 2916 
Q 2900 3119 2900 3481 
Q 2900 3844 2670 4047 
Q 2441 4250 2034 4250 
Q 1625 4250 1398 4047 
Q 1172 3844 1172 3481 
z
" transform="scale(0.015625)"/>
       </defs>
       <use xlink:href="#DejaVuSans-30"/>
       <use xlink:href="#DejaVuSans-2e" transform="translate(63.623047 0)"/>
       <use xlink:href="#DejaVuSans-38" transform="translate(95.410156 0)"/>
      </g>
     </g>
    </g>
    <g id="xtick_6">
     <g id="line2d_11">
      <path d="M 605.619716 282.04 
L 605.619716 26.88 
" clip-path="url(#p10d22da729)" style="fill: none; stroke-dasharray: 0.5,0.825; stroke-dashoffset: 0; stroke: #b0b0b0; stroke-opacity: 0.6; stroke-width: 0.5"/>
     </g>
     <g id="line2d_12">
      <g>
       <use xlink:href="#m70c5bb55ca" x="605.619716" y="282.04" style="stroke: #000000; stroke-width: 0.8"/>
      </g>
     </g>
     <g id="text_6">
      <!-- 1.0 -->
      <g transform="translate(597.668154 296.638438) scale(0.1 -0.1)">
       <defs>
        <path id="DejaVuSans-31" d="M 794 531 
L 1825 531 
L 1825 4091 
L 703 3866 
L 703 4441 
L 1819 4666 
L 2450 4666 
L 2450 531 
L 3481 531 
L 3481 0 
L 794 0 
L 794 531 
z
" transform="scale(0.015625)"/>
       </defs>
       <use xlink:href="#DejaVuSans-31"/>
       <use xlink:href="#DejaVuSans-2e" transform="translate(63.623047 0)"/>
       <use xlink:href="#DejaVuSans-30" transform="translate(95.410156 0)"/>
      </g>
     </g>
    </g>
    <g id="text_7">
     <!-- Sample index -->
     <g transform="translate(313.217656 310.316563) scale(0.1 -0.1)">
      <defs>
       <path id="DejaVuSans-53" d="M 3425 4513 
L 3425 3897 
Q 3066 4069 2747 4153 
Q 2428 4238 2131 4238 
Q 1616 4238 1336 4038 
Q 1056 3838 1056 3469 
Q 1056 3159 1242 3001 
Q 1428 2844 1947 2747 
L 2328 2669 
Q 3034 2534 3370 2195 
Q 3706 1856 3706 1288 
Q 3706 609 3251 259 
Q 2797 -91 1919 -91 
Q 1588 -91 1214 -16 
Q 841 59 441 206 
L 441 856 
Q 825 641 1194 531 
Q 1563 422 1919 422 
Q 2459 422 2753 634 
Q 3047 847 3047 1241 
Q 3047 1584 2836 1778 
Q 2625 1972 2144 2069 
L 1759 2144 
Q 1053 2284 737 2584 
Q 422 2884 422 3419 
Q 422 4038 858 4394 
Q 1294 4750 2059 4750 
Q 2388 4750 2728 4690 
Q 3069 4631 3425 4513 
z
" transform="scale(0.015625)"/>
       <path id="DejaVuSans-61" d="M 2194 1759 
Q 1497 1759 1228 1600 
Q 959 1441 959 1056 
Q 959 750 1161 570 
Q 1363 391 1709 391 
Q 2188 391 2477 730 
Q 2766 1069 2766 1631 
L 2766 1759 
L 2194 1759 
z
M 3341 1997 
L 3341 0 
L 2766 0 
L 2766 531 
Q 2569 213 2275 61 
Q 1981 -91 1556 -91 
Q 1019 -91 701 211 
Q 384 513 384 1019 
Q 384 1609 779 1909 
Q 1175 2209 1959 2209 
L 2766 2209 
L 2766 2266 
Q 2766 2663 2505 2880 
Q 2244 3097 1772 3097 
Q 1472 3097 1187 3025 
Q 903 2953 641 2809 
L 641 3341 
Q 956 3463 1253 3523 
Q 1550 3584 1831 3584 
Q 2591 3584 2966 3190 
Q 3341 2797 3341 1997 
z
" transform="scale(0.015625)"/>
       <path id="DejaVuSans-6d" d="M 3328 2828 
Q 3544 3216 3844 3400 
Q 4144 3584 4550 3584 
Q 5097 3584 5394 3201 
Q 5691 2819 5691 2113 
L 5691 0 
L 5113 0 
L 5113 2094 
Q 5113 2597 4934 2840 
Q 4756 3084 4391 3084 
Q 3944 3084 3684 2787 
Q 3425 2491 3425 1978 
L 3425 0 
L 2847 0 
L 2847 2094 
Q 2847 2600 2669 2842 
Q 2491 3084 2119 3084 
Q 1678 3084 1418 2786 
Q 1159 2488 1159 1978 
L 1159 0 
L 581 0 
L 581 3500 
L 1159 3500 
L 1159 2956 
Q 1356 3278 1631 3431 
Q 1906 3584 2284 3584 
Q 2666 3584 2933 3390 
Q 3200 3197 3328 2828 
z
" transform="scale(0.015625)"/>
       <path id="DejaVuSans-70" d="M 1159 525 
L 1159 -1331 
L 581 -1331 
L 581 3500 
L 1159 3500 
L 1159 2969 
Q 1341 3281 1617 3432 
Q 1894 3584 2278 3584 
Q 2916 3584 3314 3078 
Q 3713 2572 3713 1747 
Q 3713 922 3314 415 
Q 2916 -91 2278 -91 
Q 1894 -91 1617 61 
Q 1341 213 1159 525 
z
M 3116 1747 
Q 3116 2381 2855 2742 
Q 2594 3103 2138 3103 
Q 1681 3103 1420 2742 
Q 1159 2381 1159 1747 
Q 1159 1113 1420 752 
Q 1681 391 2138 391 
Q 2594 391 2855 752 
Q 3116 1113 3116 1747 
z
" transform="scale(0.015625)"/>
       <path id="DejaVuSans-6c" d="M 603 4863 
L 1178 4863 
L 1178 0 
L 603 0 
L 603 4863 
z
" transform="scale(0.015625)"/>
       <path id="DejaVuSans-65" d="M 3597 1894 
L 3597 1613 
L 953 1613 
Q 991 1019 1311 708 
Q 1631 397 2203 397 
Q 2534 397 2845 478 
Q 3156 559 3463 722 
L 3463 178 
Q 3153 47 2828 -22 
Q 2503 -91 2169 -91 
Q 1331 -91 842 396 
Q 353 884 353 1716 
Q 353 2575 817 3079 
Q 1281 3584 2069 3584 
Q 2775 3584 3186 3129 
Q 3597 2675 3597 1894 
z
M 3022 2063 
Q 3016 2534 2758 2815 
Q 2500 3097 2075 3097 
Q 1594 3097 1305 2825 
Q 1016 2553 972 2059 
L 3022 2063 
z
" transform="scale(0.015625)"/>
       <path id="DejaVuSans-20" transform="scale(0.015625)"/>
       <path id="DejaVuSans-69" d="M 603 3500 
L 1178 3500 
L 1178 0 
L 603 0 
L 603 3500 
z
M 603 4863 
L 1178 4863 
L 1178 4134 
L 603 4134 
L 603 4863 
z
" transform="scale(0.015625)"/>
       <path id="DejaVuSans-6e" d="M 3513 2113 
L 3513 0 
L 2938 0 
L 2938 2094 
Q 2938 2591 2744 2837 
Q 2550 3084 2163 3084 
Q 1697 3084 1428 2787 
Q 1159 2491 1159 1978 
L 1159 0 
L 581 0 
L 581 3500 
L 1159 3500 
L 1159 2956 
Q 1366 3272 1645 3428 
Q 1925 3584 2291 3584 
Q 2894 3584 3203 3211 
Q 3513 2838 3513 2113 
z
" transform="scale(0.015625)"/>
       <path id="DejaVuSans-64" d="M 2906 2969 
L 2906 4863 
L 3481 4863 
L 3481 0 
L 2906 0 
L 2906 525 
Q 2725 213 2448 61 
Q 2172 -91 1784 -91 
Q 1150 -91 751 415 
Q 353 922 353 1747 
Q 353 2572 751 3078 
Q 1150 3584 1784 3584 
Q 2172 3584 2448 3432 
Q 2725 3281 2906 2969 
z
M 947 1747 
Q 947 1113 1208 752 
Q 1469 391 1925 391 
Q 2381 391 2643 752 
Q 2906 1113 2906 1747 
Q 2906 2381 2643 2742 
Q 2381 3103 1925 3103 
Q 1469 3103 1208 2742 
Q 947 2381 947 1747 
z
" transform="scale(0.015625)"/>
       <path id="DejaVuSans-78" d="M 3513 3500 
L 2247 1797 
L 3578 0 
L 2900 0 
L 1881 1375 
L 863 0 
L 184 0 
L 1544 1831 
L 300 3500 
L 978 3500 
L 1906 2253 
L 2834 3500 
L 3513 3500 
z
" transform="scale(0.015625)"/>
      </defs>
      <use xlink:href="#DejaVuSans-53"/>
      <use xlink:href="#DejaVuSans-61" transform="translate(63.476562 0)"/>
      <use xlink:href="#DejaVuSans-6d" transform="translate(124.755859 0)"/>
      <use xlink:href="#DejaVuSans-70" transform="translate(222.167969 0)"/>
      <use xlink:href="#DejaVuSans-6c" transform="translate(285.644531 0)"/>
      <use xlink:href="#DejaVuSans-65" transform="translate(313.427734 0)"/>
      <use xlink:href="#DejaVuSans-20" transform="translate(374.951172 0)"/>
      <use xlink:href="#DejaVuSans-69" transform="translate(406.738281 0)"/>
      <use xlink:href="#DejaVuSans-6e" transform="translate(434.521484 0)"/>
      <use xlink:href="#DejaVuSans-64" transform="translate(497.900391 0)"/>
      <use xlink:href="#DejaVuSans-65" transform="translate(561.376953 0)"/>
      <use xlink:href="#DejaVuSans-78" transform="translate(621.150391 0)"/>
     </g>
    </g>
    <g id="text_8">
     <!-- 1e6 -->
     <g transform="translate(618.321875 309.316563) scale(0.1 -0.1)">
      <use xlink:href="#DejaVuSans-31"/>
      <use xlink:href="#DejaVuSans-65" transform="translate(63.623047 0)"/>
      <use xlink:href="#DejaVuSans-36" transform="translate(125.146484 0)"/>
     </g>
    </g>
   </g>
   <g id="matplotlib.axis_2">
    <g id="ytick_1">
     <g id="line2d_13">
      <path d="M 57.27125 255.332841 
L 637.2 255.332841 
" clip-path="url(#p10d22da729)" style="fill: none; stroke-dasharray: 0.5,0.825; stroke-dashoffset: 0; stroke: #b0b0b0; stroke-opacity: 0.6; stroke-width: 0.5"/>
     </g>
     <g id="line2d_14">
      <defs>
       <path id="m579abb9a5d" d="M 0 0 
L -3.5 0 
" style="stroke: #000000; stroke-width: 0.8"/>
      </defs>
      <g>
       <use xlink:href="#m579abb9a5d" x="57.27125" y="255.332841" style="stroke: #000000; stroke-width: 0.8"/>
      </g>
     </g>
     <g id="text_9">
      <!-- 2200 -->
      <g transform="translate(24.82125 259.132059) scale(0.1 -0.1)">
       <use xlink:href="#DejaVuSans-32"/>
       <use xlink:href="#DejaVuSans-32" transform="translate(63.623047 0)"/>
       <use xlink:href="#DejaVuSans-30" transform="translate(127.246094 0)"/>
       <use xlink:href="#DejaVuSans-30" transform="translate(190.869141 0)"/>
      </g>
     </g>
    </g>
    <g id="ytick_2">
     <g id="line2d_15">
      <path d="M 57.27125 213.155574 
L 637.2 213.155574 
" clip-path="url(#p10d22da729)" style="fill: none; stroke-dasharray: 0.5,0.825; stroke-dashoffset: 0; stroke: #b0b0b0; stroke-opacity: 0.6; stroke-width: 0.5"/>
     </g>
     <g id="line2d_16">
      <g>
       <use xlink:href="#m579abb9a5d" x="57.27125" y="213.155574" style="stroke: #000000; stroke-width: 0.8"/>
      </g>
     </g>
     <g id="text_10">
      <!-- 2400 -->
      <g transform="translate(24.82125 216.954793) scale(0.1 -0.1)">
       <use xlink:href="#DejaVuSans-32"/>
       <use xlink:href="#DejaVuSans-34" transform="translate(63.623047 0)"/>
       <use xlink:href="#DejaVuSans-30" transform="translate(127.246094 0)"/>
       <use xlink:href="#DejaVuSans-30" transform="translate(190.869141 0)"/>
      </g>
     </g>
    </g>
    <g id="ytick_3">
     <g id="line2d_17">
      <path d="M 57.27125 170.978308 
L 637.2 170.978308 
" clip-path="url(#p10d22da729)" style="fill: none; stroke-dasharray: 0.5,0.825; stroke-dashoffset: 0; stroke: #b0b0b0; stroke-opacity: 0.6; stroke-width: 0.5"/>
     </g>
     <g id="line2d_18">
      <g>
       <use xlink:href="#m579abb9a5d" x="57.27125" y="170.978308" style="stroke: #000000; stroke-width: 0.8"/>
      </g>
     </g>
     <g id="text_11">
      <!-- 2600 -->
      <g transform="translate(24.82125 174.777527) scale(0.1 -0.1)">
       <use xlink:href="#DejaVuSans-32"/>
       <use xlink:href="#DejaVuSans-36" transform="translate(63.623047 0)"/>
       <use xlink:href="#DejaVuSans-30" transform="translate(127.246094 0)"/>
       <use xlink:href="#DejaVuSans-30" transform="translate(190.869141 0)"/>
      </g>
     </g>
    </g>
    <g id="ytick_4">
     <g id="line2d_19">
      <path d="M 57.27125 128.801042 
L 637.2 128.801042 
" clip-path="url(#p10d22da729)" style="fill: none; stroke-dasharray: 0.5,0.825; stroke-dashoffset: 0; stroke: #b0b0b0; stroke-opacity: 0.6; stroke-width: 0.5"/>
     </g>
     <g id="line2d_20">
      <g>
       <use xlink:href="#m579abb9a5d" x="57.27125" y="128.801042" style="stroke: #000000; stroke-width: 0.8"/>
      </g>
     </g>
     <g id="text_12">
      <!-- 2800 -->
      <g transform="translate(24.82125 132.60026) scale(0.1 -0.1)">
       <use xlink:href="#DejaVuSans-32"/>
       <use xlink:href="#DejaVuSans-38" transform="translate(63.623047 0)"/>
       <use xlink:href="#DejaVuSans-30" transform="translate(127.246094 0)"/>
       <use xlink:href="#DejaVuSans-30" transform="translate(190.869141 0)"/>
      </g>
     </g>
    </g>
    <g id="ytick_5">
     <g id="line2d_21">
      <path d="M 57.27125 86.623775 
L 637.2 86.623775 
" clip-path="url(#p10d22da729)" style="fill: none; stroke-dasharray: 0.5,0.825; stroke-dashoffset: 0; stroke: #b0b0b0; stroke-opacity: 0.6; stroke-width: 0.5"/>
     </g>
     <g id="line2d_22">
      <g>
       <use xlink:href="#m579abb9a5d" x="57.27125" y="86.623775" style="stroke: #000000; stroke-width: 0.8"/>
      </g>
     </g>
     <g id="text_13">
      <!-- 3000 -->
      <g transform="translate(24.82125 90.422994) scale(0.1 -0.1)">
       <defs>
        <path id="DejaVuSans-33" d="M 2597 2516 
Q 3050 2419 3304 2112 
Q 3559 1806 3559 1356 
Q 3559 666 3084 287 
Q 2609 -91 1734 -91 
Q 1441 -91 1130 -33 
Q 819 25 488 141 
L 488 750 
Q 750 597 1062 519 
Q 1375 441 1716 441 
Q 2309 441 2620 675 
Q 2931 909 2931 1356 
Q 2931 1769 2642 2001 
Q 2353 2234 1838 2234 
L 1294 2234 
L 1294 2753 
L 1863 2753 
Q 2328 2753 2575 2939 
Q 2822 3125 2822 3475 
Q 2822 3834 2567 4026 
Q 2313 4219 1838 4219 
Q 1578 4219 1281 4162 
Q 984 4106 628 3988 
L 628 4550 
Q 988 4650 1302 4700 
Q 1616 4750 1894 4750 
Q 2613 4750 3031 4423 
Q 3450 4097 3450 3541 
Q 3450 3153 3228 2886 
Q 3006 2619 2597 2516 
z
" transform="scale(0.015625)"/>
       </defs>
       <use xlink:href="#DejaVuSans-33"/>
       <use xlink:href="#DejaVuSans-30" transform="translate(63.623047 0)"/>
       <use xlink:href="#DejaVuSans-30" transform="translate(127.246094 0)"/>
       <use xlink:href="#DejaVuSans-30" transform="translate(190.869141 0)"/>
      </g>
     </g>
    </g>
    <g id="ytick_6">
     <g id="line2d_23">
      <path d="M 57.27125 44.446509 
L 637.2 44.446509 
" clip-path="url(#p10d22da729)" style="fill: none; stroke-dasharray: 0.5,0.825; stroke-dashoffset: 0; stroke: #b0b0b0; stroke-opacity: 0.6; stroke-width: 0.5"/>
     </g>
     <g id="line2d_24">
      <g>
       <use xlink:href="#m579abb9a5d" x="57.27125" y="44.446509" style="stroke: #000000; stroke-width: 0.8"/>
      </g>
     </g>
     <g id="text_14">
      <!-- 3200 -->
      <g transform="translate(24.82125 48.245728) scale(0.1 -0.1)">
       <use xlink:href="#DejaVuSans-33"/>
       <use xlink:href="#DejaVuSans-32" transform="translate(63.623047 0)"/>
       <use xlink:href="#DejaVuSans-30" transform="translate(127.246094 0)"/>
       <use xlink:href="#DejaVuSans-30" transform="translate(190.869141 0)"/>
      </g>
     </g>
    </g>
    <g id="text_15">
     <!-- Running mean of population_mad -->
     <g transform="translate(18.463438 238.929531) rotate(-90) scale(0.1 -0.1)">
      <defs>
       <path id="DejaVuSans-52" d="M 2841 2188 
Q 3044 2119 3236 1894 
Q 3428 1669 3622 1275 
L 4263 0 
L 3584 0 
L 2988 1197 
Q 2756 1666 2539 1819 
Q 2322 1972 1947 1972 
L 1259 1972 
L 1259 0 
L 628 0 
L 628 4666 
L 2053 4666 
Q 2853 4666 3247 4331 
Q 3641 3997 3641 3322 
Q 3641 2881 3436 2590 
Q 3231 2300 2841 2188 
z
M 1259 4147 
L 1259 2491 
L 2053 2491 
Q 2509 2491 2742 2702 
Q 2975 2913 2975 3322 
Q 2975 3731 2742 3939 
Q 2509 4147 2053 4147 
L 1259 4147 
z
" transform="scale(0.015625)"/>
       <path id="DejaVuSans-75" d="M 544 1381 
L 544 3500 
L 1119 3500 
L 1119 1403 
Q 1119 906 1312 657 
Q 1506 409 1894 409 
Q 2359 409 2629 706 
Q 2900 1003 2900 1516 
L 2900 3500 
L 3475 3500 
L 3475 0 
L 2900 0 
L 2900 538 
Q 2691 219 2414 64 
Q 2138 -91 1772 -91 
Q 1169 -91 856 284 
Q 544 659 544 1381 
z
M 1991 3584 
L 1991 3584 
z
" transform="scale(0.015625)"/>
       <path id="DejaVuSans-67" d="M 2906 1791 
Q 2906 2416 2648 2759 
Q 2391 3103 1925 3103 
Q 1463 3103 1205 2759 
Q 947 2416 947 1791 
Q 947 1169 1205 825 
Q 1463 481 1925 481 
Q 2391 481 2648 825 
Q 2906 1169 2906 1791 
z
M 3481 434 
Q 3481 -459 3084 -895 
Q 2688 -1331 1869 -1331 
Q 1566 -1331 1297 -1286 
Q 1028 -1241 775 -1147 
L 775 -588 
Q 1028 -725 1275 -790 
Q 1522 -856 1778 -856 
Q 2344 -856 2625 -561 
Q 2906 -266 2906 331 
L 2906 616 
Q 2728 306 2450 153 
Q 2172 0 1784 0 
Q 1141 0 747 490 
Q 353 981 353 1791 
Q 353 2603 747 3093 
Q 1141 3584 1784 3584 
Q 2172 3584 2450 3431 
Q 2728 3278 2906 2969 
L 2906 3500 
L 3481 3500 
L 3481 434 
z
" transform="scale(0.015625)"/>
       <path id="DejaVuSans-6f" d="M 1959 3097 
Q 1497 3097 1228 2736 
Q 959 2375 959 1747 
Q 959 1119 1226 758 
Q 1494 397 1959 397 
Q 2419 397 2687 759 
Q 2956 1122 2956 1747 
Q 2956 2369 2687 2733 
Q 2419 3097 1959 3097 
z
M 1959 3584 
Q 2709 3584 3137 3096 
Q 3566 2609 3566 1747 
Q 3566 888 3137 398 
Q 2709 -91 1959 -91 
Q 1206 -91 779 398 
Q 353 888 353 1747 
Q 353 2609 779 3096 
Q 1206 3584 1959 3584 
z
" transform="scale(0.015625)"/>
       <path id="DejaVuSans-66" d="M 2375 4863 
L 2375 4384 
L 1825 4384 
Q 1516 4384 1395 4259 
Q 1275 4134 1275 3809 
L 1275 3500 
L 2222 3500 
L 2222 3053 
L 1275 3053 
L 1275 0 
L 697 0 
L 697 3053 
L 147 3053 
L 147 3500 
L 697 3500 
L 697 3744 
Q 697 4328 969 4595 
Q 1241 4863 1831 4863 
L 2375 4863 
z
" transform="scale(0.015625)"/>
       <path id="DejaVuSans-74" d="M 1172 4494 
L 1172 3500 
L 2356 3500 
L 2356 3053 
L 1172 3053 
L 1172 1153 
Q 1172 725 1289 603 
Q 1406 481 1766 481 
L 2356 481 
L 2356 0 
L 1766 0 
Q 1100 0 847 248 
Q 594 497 594 1153 
L 594 3053 
L 172 3053 
L 172 3500 
L 594 3500 
L 594 4494 
L 1172 4494 
z
" transform="scale(0.015625)"/>
       <path id="DejaVuSans-5f" d="M 3263 -1063 
L 3263 -1509 
L -63 -1509 
L -63 -1063 
L 3263 -1063 
z
" transform="scale(0.015625)"/>
      </defs>
      <use xlink:href="#DejaVuSans-52"/>
      <use xlink:href="#DejaVuSans-75" transform="translate(64.982422 0)"/>
      <use xlink:href="#DejaVuSans-6e" transform="translate(128.361328 0)"/>
      <use xlink:href="#DejaVuSans-6e" transform="translate(191.740234 0)"/>
      <use xlink:href="#DejaVuSans-69" transform="translate(255.119141 0)"/>
      <use xlink:href="#DejaVuSans-6e" transform="translate(282.902344 0)"/>
      <use xlink:href="#DejaVuSans-67" transform="translate(346.28125 0)"/>
      <use xlink:href="#DejaVuSans-20" transform="translate(409.757812 0)"/>
      <use xlink:href="#DejaVuSans-6d" transform="translate(441.544922 0)"/>
      <use xlink:href="#DejaVuSans-65" transform="translate(538.957031 0)"/>
      <use xlink:href="#DejaVuSans-61" transform="translate(600.480469 0)"/>
      <use xlink:href="#DejaVuSans-6e" transform="translate(661.759766 0)"/>
      <use xlink:href="#DejaVuSans-20" transform="translate(725.138672 0)"/>
      <use xlink:href="#DejaVuSans-6f" transform="translate(756.925781 0)"/>
      <use xlink:href="#DejaVuSans-66" transform="translate(818.107422 0)"/>
      <use xlink:href="#DejaVuSans-20" transform="translate(853.3125 0)"/>
      <use xlink:href="#DejaVuSans-70" transform="translate(885.099609 0)"/>
      <use xlink:href="#DejaVuSans-6f" transform="translate(948.576172 0)"/>
      <use xlink:href="#DejaVuSans-70" transform="translate(1009.757812 0)"/>
      <use xlink:href="#DejaVuSans-75" transform="translate(1073.234375 0)"/>
      <use xlink:href="#DejaVuSans-6c" transform="translate(1136.613281 0)"/>
      <use xlink:href="#DejaVuSans-61" transform="translate(1164.396484 0)"/>
      <use xlink:href="#DejaVuSans-74" transform="translate(1225.675781 0)"/>
      <use xlink:href="#DejaVuSans-69" transform="translate(1264.884766 0)"/>
      <use xlink:href="#DejaVuSans-6f" transform="translate(1292.667969 0)"/>
      <use xlink:href="#DejaVuSans-6e" transform="translate(1353.849609 0)"/>
      <use xlink:href="#DejaVuSans-5f" transform="translate(1417.228516 0)"/>
      <use xlink:href="#DejaVuSans-6d" transform="translate(1467.228516 0)"/>
      <use xlink:href="#DejaVuSans-61" transform="translate(1564.640625 0)"/>
      <use xlink:href="#DejaVuSans-64" transform="translate(1625.919922 0)"/>
     </g>
    </g>
   </g>
   <g id="line2d_25">
    <path d="M 83.631648 240.31838 
L 83.63217 240.31838 
L 83.761623 120.587774 
L 83.641566 270.441818 
L 83.772063 121.311679 
L 83.781458 122.064388 
L 83.858191 100.17925 
L 84.018441 64.614245 
L 84.033057 65.502739 
L 84.068552 67.322027 
L 84.103003 61.416368 
L 84.374959 38.478182 
L 84.376003 38.511617 
L 84.54043 52.176709 
L 84.617684 49.846645 
L 84.619772 49.821508 
L 84.656833 52.351106 
L 84.828046 60.947149 
L 84.958543 65.481721 
L 84.976812 64.617487 
L 85.207531 51.912084 
L 85.229455 52.726798 
L 85.232587 52.782315 
L 85.261818 51.334843 
L 85.295225 50.086051 
L 85.365694 51.995453 
L 85.498801 53.988832 
L 85.43042 51.781856 
L 85.509241 53.897684 
L 85.515505 53.749674 
L 85.585973 54.679902 
L 85.695069 56.999616 
L 85.61416 54.41781 
L 85.73474 56.510347 
L 85.791115 56.930934 
L 85.82139 56.342558 
L 85.846445 56.512413 
L 85.90282 55.139754 
L 86.178952 49.297148 
L 86.281262 49.757673 
L 86.329807 49.924995 
L 86.382528 49.662406 
L 86.470222 49.355753 
L 86.490057 49.732948 
L 86.697809 56.075443 
L 86.788635 54.713164 
L 86.841356 54.164573 
L 86.891988 54.931877 
L 86.969765 55.1653 
L 86.9896 54.903204 
L 87.009958 54.997923 
L 87.01309 54.995738 
L 87.045975 55.807834 
L 87.214577 58.330876 
L 87.221885 58.303403 
L 87.226061 58.267409 
L 87.288178 58.77729 
L 87.555958 61.543228 
L 87.598761 61.217201 
L 88.02888 54.402363 
L 88.075859 54.546582 
L 88.166163 56.30316 
L 88.324325 55.746124 
L 88.427157 54.478714 
L 88.553478 54.923628 
L 88.641694 56.625828 
L 88.720514 56.372448 
L 88.764884 56.314362 
L 88.740872 56.566309 
L 88.782631 56.497872 
L 88.798813 56.78319 
L 88.869803 56.222635 
L 88.94236 55.457313 
L 88.989339 56.068856 
L 89.019614 56.159084 
L 89.081209 55.760114 
L 89.125056 55.347674 
L 89.18143 55.883506 
L 89.192914 55.972916 
L 89.257119 55.266737 
L 89.351599 54.224143 
L 89.415281 54.857573 
L 89.45965 55.304165 
L 89.512371 54.584859 
L 89.601109 54.371264 
L 89.523333 54.688054 
L 89.643912 54.557575 
L 89.83235 56.552319 
L 89.67471 54.549063 
L 89.904385 56.307948 
L 90.044278 55.377222 
L 90.078207 55.568405 
L 90.107438 55.741681 
L 90.146065 55.38327 
L 90.162769 55.402094 
L 90.360603 53.781657 
L 90.39662 54.15608 
L 90.586624 55.361628 
L 90.620031 55.445771 
L 90.67223 55.228162 
L 91.112788 52.173866 
L 91.169163 52.344119 
L 91.255813 53.453946 
L 91.346639 53.325874 
L 91.397794 53.54262 
L 91.442685 53.235987 
L 91.47296 53.093049 
L 91.529335 53.032867 
L 91.570572 53.298639 
L 91.65409 53.994882 
L 91.695849 53.486397 
L 91.801813 53.140133 
L 91.824259 53.276571 
L 91.934398 53.020041 
L 91.998603 52.203788 
L 92.132232 50.722408 
L 92.170337 50.927473 
L 92.173469 50.936474 
L 92.207398 50.737676 
L 92.29457 50.24304 
L 92.359819 50.3324 
L 92.40993 49.948763 
L 92.443337 49.661747 
L 92.494492 50.274837 
L 92.495536 50.27343 
L 92.566004 50.505838 
L 92.775322 51.89832 
L 92.823345 51.642404 
L 92.984639 50.468521 
L 92.994035 50.490182 
L 93.003431 50.526052 
L 93.057718 50.249726 
L 93.135494 49.665643 
L 93.233628 49.896928 
L 93.243546 49.92998 
L 93.308794 49.743892 
L 93.43094 49.134951 
L 93.489924 49.406638 
L 93.642345 50.107154 
L 93.715423 49.843597 
L 93.798941 49.568295 
L 93.960758 49.023794 
L 93.96128 49.024508 
L 94.042188 49.497637 
L 94.104305 49.111765 
L 94.244198 48.470363 
L 94.270297 48.652364 
L 94.275517 48.669355 
L 94.352249 48.433976 
L 94.793852 47.021839 
L 94.412278 48.540375 
L 94.823083 47.243182 
L 94.825693 47.256554 
L 94.924871 47.157328 
L 94.938965 47.1259 
L 94.975504 47.348622 
L 95.026137 47.774507 
L 95.138364 47.67024 
L 95.190563 47.031696 
L 95.296527 45.539515 
L 95.352902 45.892574 
L 95.387875 46.009276 
L 95.454167 45.803172 
L 95.579445 45.162579 
L 95.662441 45.523469 
L 95.915083 47.742243 
L 96.003299 47.714429 
L 96.024701 47.701661 
L 96.049234 47.815178 
L 96.240282 48.368038 
L 96.259074 48.358036 
L 96.280997 48.340057 
L 96.3238 48.458582 
L 96.408884 48.753893 
L 96.454819 48.630976 
L 96.458473 48.629394 
L 96.505974 48.771605 
L 96.543558 48.917365 
L 96.59941 48.665867 
L 96.710594 47.616442 
L 96.848399 46.591965 
L 96.868756 46.66966 
L 96.908428 46.625228 
L 96.939225 46.755068 
L 96.954363 46.748428 
L 97.470609 48.578703 
L 97.506626 48.81404 
L 97.588579 48.607739 
L 97.633992 48.38665 
L 97.700806 48.599875 
L 97.738389 48.521784 
L 98.092298 49.554334 
L 98.166942 49.87753 
L 98.231147 49.789552 
L 98.270296 49.646712 
L 98.330324 49.837219 
L 98.408623 50.293326 
L 98.472305 50.108163 
L 98.545384 50.261533 
L 98.550604 50.264947 
L 98.600193 50.138768 
L 98.600715 50.138646 
L 98.660221 50.18975 
L 98.667529 50.236418 
L 98.761487 50.439476 
L 98.792284 50.286729 
L 98.834565 50.115037 
L 98.901902 50.303851 
L 99.386829 51.280665 
L 99.433808 51.083304 
L 99.481831 50.840771 
L 99.554388 51.070914 
L 99.600323 51.159239 
L 99.659307 51.034316 
L 99.71777 51.189503 
L 99.997034 52.470034 
L 99.9986 52.469431 
L 100.007474 52.465809 
L 100.034617 52.57315 
L 100.145801 53.019851 
L 100.185994 52.810824 
L 100.240281 52.644268 
L 100.309183 52.739842 
L 100.363992 52.833196 
L 100.392701 52.668107 
L 100.602541 51.730354 
L 100.619766 51.740977 
L 100.722598 51.660581 
L 100.72312 51.658555 
L 100.734082 51.629418 
L 100.802462 51.79221 
L 101.085902 52.911041 
L 101.087468 52.910602 
L 101.11409 52.927861 
L 101.148541 53.010577 
L 101.155849 53.003 
L 101.200218 53.111939 
L 101.248763 53.222722 
L 101.309313 53.091451 
L 101.343765 53.023991 
L 101.409535 53.148921 
L 101.411101 53.146569 
L 101.492531 53.14586 
L 101.456514 53.218146 
L 101.514977 53.186588 
L 101.563522 53.161001 
L 101.537944 53.242744 
L 101.589099 53.26644 
L 101.756658 53.77264 
L 101.778581 53.761775 
L 101.895507 54.110801 
L 101.979025 53.96087 
L 102.154935 53.492678 
L 102.181034 53.59229 
L 102.301092 53.952125 
L 102.36634 53.888502 
L 102.509365 53.576405 
L 102.581922 53.138635 
L 102.646648 53.337946 
L 102.868493 54.220822 
L 102.892505 54.148907 
L 102.905554 54.139167 
L 102.979155 54.235603 
L 103.03553 54.366363 
L 103.08825 54.216124 
L 103.254765 54.020831 
L 103.270946 54.044028 
L 103.344025 54.204144 
L 103.38213 54.026631 
L 103.472956 53.776212 
L 103.527765 53.925221 
L 104.047665 55.6043 
L 104.113436 55.425506 
L 104.211048 55.41927 
L 104.22723 55.383258 
L 104.443855 54.947308 
L 104.58688 54.838949 
L 104.598885 54.846882 
L 104.662046 54.972698 
L 104.688145 55.077619 
L 104.765922 54.915144 
L 104.781059 54.892733 
L 104.814989 54.958117 
L 104.869798 54.955309 
L 104.947574 54.962333 
L 104.974717 54.897074 
L 105.269119 54.123968 
L 105.313488 54.178882 
L 105.543163 53.99939 
L 105.548905 54.017748 
L 105.642341 54.345551 
L 105.695583 54.24691 
L 106.095949 53.186545 
L 106.150236 53.288823 
L 106.241584 53.397917 
L 106.174769 53.266628 
L 106.277601 53.334598 
L 106.466561 53.666298 
L 106.546947 53.601136 
L 106.567304 53.602801 
L 106.607498 53.722337 
L 106.656042 53.86275 
L 106.718681 53.709369 
L 106.945746 53.65225 
L 106.9494 53.663732 
L 107.171767 54.098992 
L 106.982807 53.595059 
L 107.210916 54.068745 
L 107.212482 54.065975 
L 107.279819 54.171955 
L 107.354463 54.265867 
L 107.401964 54.185635 
L 107.525675 54.031383 
L 107.558561 54.11888 
L 107.588836 54.232209 
L 107.779884 54.905787 
L 107.815901 54.861622 
L 107.884282 54.75443 
L 107.934393 54.874631 
L 108.367121 55.54929 
L 108.371819 55.54076 
L 108.456381 55.380559 
L 108.493442 55.509035 
L 108.544597 55.623523 
L 108.609324 55.52401 
L 108.662045 55.474856 
L 108.695974 55.599264 
L 108.70276 55.610622 
L 108.785756 55.480344 
L 108.900071 55.065481 
L 109.191863 54.175066 
L 109.393873 53.720688 
L 109.419972 53.783569 
L 109.457555 53.836941 
L 109.518106 53.719705 
L 109.651735 53.386836 
L 109.688796 53.417369 
L 109.793194 53.32843 
L 109.87619 53.335926 
L 109.89707 53.367563 
L 109.961796 53.240971 
L 110.081332 53.130582 
L 110.106909 53.17001 
L 110.113695 53.177385 
L 110.15702 53.030041 
L 110.378343 52.605272 
L 110.455597 52.568896 
L 110.495791 52.606724 
L 110.935827 53.059857 
L 110.964536 53.021862 
L 111.069978 53.106008 
L 111.221355 53.273629 
L 111.231794 53.256813 
L 111.459381 52.956978 
L 111.523586 52.931779 
L 111.557515 53.025079 
L 111.682793 53.242711 
L 111.709936 53.150704 
L 111.725074 53.115257 
L 111.798674 53.242055 
L 111.894198 53.30478 
L 111.918209 53.247247 
L 112.009557 53.212474 
L 112.024695 53.297338 
L 112.158324 53.486165 
L 112.166676 53.471456 
L 112.216787 53.286384 
L 112.303437 53.385368 
L 112.578525 53.114178 
L 112.692319 52.929593 
L 112.720506 52.984314 
L 112.795672 53.084485 
L 112.839519 53.134012 
L 112.90268 53.051343 
L 113.062408 53.144076 
L 113.142273 53.22806 
L 113.188208 53.165659 
L 113.216395 53.186298 
L 113.243016 53.067142 
L 113.3542 52.776674 
L 113.396481 52.898273 
L 113.411097 52.930915 
L 113.469038 52.734203 
L 113.496703 52.676907 
L 113.565605 52.783289 
L 113.570825 52.781557 
L 113.728466 52.709141 
L 113.636074 52.817003 
L 113.72951 52.710215 
L 113.899678 52.811476 
L 113.754043 52.667302 
L 113.923168 52.702508 
L 113.986328 52.547258 
L 114.048967 52.617468 
L 114.294824 52.656657 
L 114.303175 52.630491 
L 114.426365 52.60298 
L 114.481173 52.504051 
L 114.511449 52.462612 
L 114.584005 52.544305 
L 114.584527 52.54417 
L 114.687359 52.403064 
L 114.727552 52.357441 
L 114.793845 52.433951 
L 114.870577 52.551315 
L 114.936869 52.487449 
L 115.009948 52.323306 
L 115.032393 52.294976 
L 115.105994 52.376776 
L 115.11017 52.377498 
L 115.237013 52.510316 
L 115.280338 52.456473 
L 115.65095 52.38113 
L 115.664 52.415055 
L 116.159367 53.220517 
L 116.200604 53.16329 
L 116.215742 53.176019 
L 116.277336 52.85854 
L 116.423493 52.370149 
L 116.463164 52.388217 
L 116.622371 52.417388 
L 116.892761 52.825706 
L 116.904766 52.810918 
L 116.916772 52.806643 
L 116.959053 52.937444 
L 117.121914 53.165465 
L 117.149057 53.135765 
L 117.317659 53.025365 
L 117.320791 53.029546 
L 117.777009 53.52974 
L 117.813549 53.48555 
L 117.844868 53.437017 
L 117.912204 53.539132 
L 117.983195 53.699914 
L 118.047921 53.613855 
L 118.746864 53.787215 
L 118.961402 54.045902 
L 118.979149 54.015943 
L 119.059013 53.842204 
L 119.114866 53.943221 
L 119.332013 54.101644 
L 119.57265 54.540301 
L 119.625893 54.641334 
L 119.720895 54.783501 
L 119.75639 54.696473 
L 119.814853 54.606605 
L 119.886887 54.646317 
L 120.009033 54.472547 
L 120.261153 54.141637 
L 120.371293 54.157854 
L 120.38382 54.193563 
L 120.823335 54.827404 
L 120.836907 54.806971 
L 120.920947 54.729473 
L 120.977843 54.78082 
L 121.11356 54.824733 
L 121.129742 54.791261 
L 121.138094 54.784428 
L 121.181941 54.869259 
L 121.217436 54.879419 
L 121.473733 55.227511 
L 121.500354 55.201461 
L 121.643901 55.026771 
L 121.729507 54.920491 
L 121.770222 54.988474 
L 121.981627 55.106365 
L 122.017123 55.038171 
L 122.161192 54.732696 
L 122.274985 54.890451 
L 122.351195 55.035652 
L 122.443065 55.25515 
L 122.498396 55.237503 
L 122.610624 55.323077 
L 122.630459 55.288106 
L 122.813677 55.149466 
L 122.888322 55.166105 
L 122.907635 55.21367 
L 122.920685 55.233528 
L 122.97706 55.10303 
L 123.056402 55.018399 
L 123.102337 55.088868 
L 123.623282 55.930675 
L 123.720893 55.860525 
L 124.017383 55.589234 
L 124.144748 55.542382 
L 124.197469 55.539827 
L 124.238184 55.604613 
L 124.262718 55.652857 
L 124.34206 55.564562 
L 124.432886 55.574744 
L 124.452199 55.593905 
L 124.522146 55.589109 
L 124.558163 55.542248 
L 124.958528 55.104061 
L 125.004985 55.153979 
L 125.099987 55.098535 
L 125.107817 55.083142 
L 125.118779 55.071995 
L 125.174632 55.183238 
L 125.217957 55.252057 
L 125.287903 55.151636 
L 125.543156 54.699353 
L 125.543678 54.699734 
L 125.653295 54.647942 
L 125.561425 54.664909 
L 125.655383 54.644986 
L 125.752473 54.663748 
L 125.765001 54.681712 
L 125.944043 54.791491 
L 125.945609 54.789131 
L 126.023385 54.83503 
L 126.032781 54.856756 
L 126.231659 54.969227 
L 126.246274 54.951933 
L 126.459768 54.820138 
L 126.46029 54.820754 
L 126.88571 55.152576 
L 126.886232 55.15207 
L 127.100248 55.040202 
L 127.121649 55.078301 
L 127.2558 55.352556 
L 127.361242 55.515358 
L 127.412919 55.469221 
L 127.458854 55.432063 
L 127.51836 55.509931 
L 127.756387 55.708712 
L 128.179198 55.859871 
L 128.752863 55.114373 
L 128.968445 54.822081 
L 128.974187 54.825996 
L 129.077018 54.858282 
L 129.110426 54.782046 
L 129.275896 54.637358 
L 129.520709 54.558366 
L 129.672607 54.472564 
L 129.685135 54.492815 
L 129.746208 54.377903 
L 130.057835 54.139155 
L 130.059923 54.141288 
L 130.471772 54.378854 
L 130.76513 54.478835 
L 130.888841 54.494529 
L 130.893017 54.49066 
L 131.10129 54.312209 
L 131.161319 54.432672 
L 131.258409 54.487333 
L 131.287118 54.427254 
L 131.321569 54.418578 
L 131.381076 54.486296 
L 131.990237 54.483579 
L 132.188592 54.327355 
L 132.326919 54.293337 
L 132.356673 54.344053 
L 132.424009 54.389136 
L 132.488736 54.351394 
L 132.823853 54.328798 
L 132.928772 54.164425 
L 132.971053 54.236593 
L 132.986713 54.255529 
L 133.047264 54.132235 
L 133.181415 54.137425 
L 133.189767 54.155216 
L 133.257625 54.156455 
L 133.296774 54.113849 
L 135.286595 53.909052 
L 135.476599 54.165246 
L 135.684872 54.381797 
L 135.693224 54.374336 
L 135.871222 54.277371 
L 135.88636 54.287761 
L 136.06488 54.497216 
L 136.180239 54.595419 
L 136.200075 54.580408 
L 136.383815 54.502263 
L 136.565467 54.369355 
L 136.605138 54.402007 
L 136.721019 54.481329 
L 136.757559 54.518848 
L 136.837423 54.460631 
L 137.032125 54.42676 
L 137.043086 54.446461 
L 137.197595 54.52871 
L 137.466941 54.636611 
L 137.470595 54.632546 
L 137.509222 54.602861 
L 137.567163 54.691617 
L 137.843817 54.824594 
L 138.017639 54.861048 
L 138.140828 54.894541 
L 138.166406 54.873969 
L 138.518748 54.62668 
L 138.559985 54.694864 
L 138.599134 54.718871 
L 138.666993 54.660608 
L 138.795924 54.535627 
L 138.847601 54.579242 
L 138.958784 54.588344 
L 138.980186 54.556814 
L 139.128431 54.402493 
L 139.1728 54.443775 
L 139.32783 54.626274 
L 139.341924 54.649151 
L 139.42231 54.564856 
L 139.534538 54.491887 
L 139.576819 54.55457 
L 139.741245 54.644016 
L 139.749075 54.635656 
L 140.108725 54.266801 
L 140.130649 54.28385 
L 140.218865 54.238717 
L 140.227739 54.227917 
L 140.430792 54.068341 
L 140.490299 54.167648 
L 140.759645 54.358807 
L 140.859345 54.482205 
L 140.987754 54.501095 
L 141.014375 54.446076 
L 141.232045 54.269536 
L 141.463286 54.163381 
L 141.470594 54.173478 
L 141.759253 54.289508 
L 141.760297 54.288174 
L 142.224345 53.874446 
L 142.363716 53.925047 
L 142.381464 53.896535 
L 142.516137 53.726577 
L 142.580863 53.797672 
L 142.756251 53.743229 
L 142.864825 53.731962 
L 142.888837 53.784349 
L 142.919112 53.801444 
L 142.985404 53.728722 
L 143.229695 53.657266 
L 143.232305 53.660667 
L 143.491733 53.810278 
L 143.682781 53.535375 
L 143.779871 53.569214 
L 143.72715 53.573311 
L 143.787179 53.577659 
L 143.91611 53.634021 
L 143.942209 53.612892 
L 144.056003 53.643555 
L 144.063311 53.656871 
L 144.285678 53.951825 
L 144.317519 53.924613 
L 144.716841 53.806477 
L 144.903712 53.8398 
L 145.269104 53.886382 
L 145.368282 53.896741 
L 145.398558 53.849748 
L 145.419959 53.842488 
L 145.492516 53.908999 
L 145.592737 53.853171 
L 145.823978 53.914427 
L 145.951866 53.958372 
L 145.965959 53.946739 
L 146.255663 53.921045 
L 146.451409 53.796965 
L 146.47803 53.824612 
L 147.011502 53.602379 
L 147.204116 53.51955 
L 147.370631 53.313553 
L 147.817975 53.056271 
L 147.96622 53.097641 
L 148.343095 52.998714 
L 148.569638 52.781598 
L 148.786786 52.684077 
L 148.807665 52.727539 
L 148.976267 52.861053 
L 149.599 52.817176 
L 150.04791 52.568367 
L 150.462891 52.567499 
L 150.592344 52.57119 
L 150.598608 52.582712 
L 150.732237 52.616737 
L 150.774518 52.659218 
L 150.836113 52.57368 
L 151.04021 52.438723 
L 151.04804 52.446546 
L 151.35236 52.590716 
L 151.457801 52.524324 
L 151.638409 52.460313 
L 151.656679 52.492131 
L 151.768906 52.546264 
L 151.69113 52.46032 
L 151.791874 52.520983 
L 151.99284 52.49442 
L 152.332132 52.619435 
L 152.460019 52.672523 
L 152.487163 52.634604 
L 152.610874 52.682239 
L 152.731975 52.65251 
L 153.35001 52.821239 
L 153.479463 52.801753 
L 153.481551 52.80284 
L 153.62301 52.807893 
L 153.63345 52.795199 
L 153.854251 52.521139 
L 153.868867 52.53569 
L 154.093322 52.587795 
L 154.267666 52.596474 
L 154.442532 52.576396 
L 155.44736 52.343304 
L 155.722448 52.384751 
L 155.966739 52.394893 
L 156.273668 52.433133 
L 156.431309 52.5069 
L 156.551888 52.462188 
L 156.792003 52.397345 
L 157.064481 52.432471 
L 157.108328 52.409433 
L 157.176708 52.467686 
L 157.307205 52.439267 
L 157.43979 52.501194 
L 157.559326 52.436281 
L 157.625618 52.531447 
L 157.764989 52.509101 
L 158.20346 52.21157 
L 158.474372 52.229454 
L 158.602259 52.16663 
L 158.613743 52.175666 
L 158.82567 51.956652 
L 158.989575 51.891651 
L 158.992185 51.893676 
L 159.273014 52.247142 
L 159.422825 52.354321 
L 159.461974 52.326295 
L 159.583598 52.393335 
L 159.745936 52.43657 
L 159.748546 52.43423 
L 159.881653 52.455186 
L 159.884263 52.459217 
L 159.977699 52.502781 
L 160.015282 52.471921 
L 160.196412 52.416174 
L 160.334217 52.402312 
L 160.804529 52.530224 
L 161.02011 52.555601 
L 161.261269 52.552923 
L 161.312946 52.58014 
L 161.371409 52.520896 
L 161.544709 52.461658 
L 161.846418 52.400208 
L 162.287499 52.219486 
L 162.567806 52.165936 
L 162.864818 51.855845 
L 163.017239 51.973009 
L 163.325734 52.134102 
L 163.967258 52.073759 
L 164.089403 51.917533 
L 164.276797 51.791112 
L 164.287759 51.800565 
L 164.529961 51.890178 
L 164.820709 52.123481 
L 165.011757 52.209363 
L 165.015411 52.206343 
L 165.77386 51.898297 
L 166.004579 51.929296 
L 166.14656 51.953701 
L 166.291151 51.861698 
L 166.448792 51.821987 
L 166.782864 51.781621 
L 166.993226 51.661797 
L 167.253698 51.545507 
L 167.258396 51.550587 
L 167.707828 51.705162 
L 168.016323 51.64448 
L 168.018411 51.649014 
L 168.170832 51.714095 
L 168.486113 51.834603 
L 168.72153 51.809412 
L 169.534266 51.772659 
L 169.775425 51.766341 
L 169.924192 51.725993 
L 169.942461 51.747195 
L 169.99727 51.73486 
L 170.030155 51.679114 
L 170.249912 51.500041 
L 170.797478 51.166096 
L 170.930586 51.126619 
L 171.712003 51.183265 
L 171.922886 51.34462 
L 172.119154 51.367125 
L 172.248607 51.415195 
L 172.46471 51.42559 
L 172.612955 51.445913 
L 173.993615 51.841877 
L 174.971299 51.886072 
L 175.120588 51.987303 
L 175.154517 51.933471 
L 175.329905 51.86976 
L 175.851894 51.853804 
L 176.060167 51.964002 
L 176.694384 52.026233 
L 176.795649 51.976292 
L 176.988785 51.974925 
L 177.155822 51.977528 
L 177.599512 51.913629 
L 177.905397 52.008291 
L 178.191447 52.08127 
L 178.354307 52.101042 
L 178.518212 52.166316 
L 178.723875 52.278924 
L 178.727529 52.276415 
L 178.885692 52.305808 
L 179.286579 52.496917 
L 179.505292 52.609716 
L 179.657713 52.658853 
L 180.130634 52.603934 
L 180.277835 52.604866 
L 180.569105 52.698954 
L 180.763807 52.651636 
L 180.952245 52.724175 
L 180.971558 52.729658 
L 181.042549 52.659631 
L 181.192359 52.668259 
L 181.288927 52.690859 
L 181.329642 52.635393 
L 181.502943 52.621985 
L 181.846411 52.811158 
L 182.183616 52.842069 
L 182.308371 52.877224 
L 182.566755 52.890195 
L 182.681071 52.964522 
L 182.872119 52.9725 
L 183.0616 53.037255 
L 183.117453 53.070046 
L 183.179048 53.01274 
L 183.587765 52.692309 
L 183.711998 52.63459 
L 183.823182 52.675675 
L 184.047637 52.699508 
L 184.312285 52.812218 
L 184.524212 52.869083 
L 185.11667 53.016174 
L 185.469534 53.460519 
L 185.470056 53.46016 
L 185.861025 53.325756 
L 186.128283 53.422789 
L 186.129327 53.421586 
L 186.273396 53.427804 
L 186.746318 53.426024 
L 186.885167 53.415921 
L 187.435343 53.383798 
L 187.698947 53.406667 
L 188.166649 53.340359 
L 188.357697 53.282191 
L 189.060815 53.20263 
L 189.875639 53.149378 
L 190.126194 53.029288 
L 190.545351 53.117499 
L 190.693596 53.148793 
L 190.874726 53.095683 
L 191.548091 52.913254 
L 191.76315 52.940983 
L 192.040326 52.954326 
L 192.171867 52.903266 
L 192.462093 52.87435 
L 193.244554 52.959247 
L 193.474229 52.884025 
L 194.411198 53.093115 
L 194.635653 53.221512 
L 194.650791 53.208693 
L 194.852801 53.194965 
L 195.127367 53.250234 
L 195.429598 53.170388 
L 195.771501 53.108183 
L 196.050765 53.031387 
L 196.205273 52.993095 
L 196.652617 52.866381 
L 196.837401 52.880181 
L 197.34895 52.921361 
L 197.662665 52.917693 
L 197.966985 53.002779 
L 198.368916 53.061739 
L 198.845491 53.174153 
L 199.114838 53.188679 
L 199.362782 53.275419 
L 199.510505 53.27305 
L 200.288268 53.256424 
L 200.316977 53.258355 
L 200.373352 53.185192 
L 200.507503 53.164584 
L 200.669842 53.053594 
L 201.022706 52.977661 
L 201.371916 52.843955 
L 201.549914 52.831189 
L 201.853712 52.758334 
L 201.964895 52.795757 
L 201.965939 52.796629 
L 202.148635 52.804461 
L 202.39136 52.775136 
L 202.715515 52.726364 
L 202.935272 52.662707 
L 203.181651 52.71358 
L 203.346077 52.660364 
L 203.5674 52.612062 
L 204.072685 52.629426 
L 204.366043 52.62403 
L 204.544563 52.572557 
L 204.809733 52.490568 
L 205.034188 52.466197 
L 205.324936 52.317716 
L 206.012917 52.55003 
L 206.492624 52.557252 
L 206.628863 52.56541 
L 206.865324 52.56163 
L 208.094607 52.680402 
L 208.286699 52.677521 
L 208.542995 52.712449 
L 209.130233 52.766993 
L 209.880852 52.646091 
L 210.358994 52.483663 
L 210.723864 52.477729 
L 211.012523 52.398336 
L 211.491709 52.370108 
L 212.019961 52.053216 
L 212.189608 52.015054 
L 213.042015 51.87583 
L 213.212705 51.906599 
L 213.53425 52.082308 
L 213.731562 52.17821 
L 214.067201 52.245 
L 215.062111 51.861261 
L 215.340853 51.685429 
L 215.84927 51.589705 
L 217.694499 51.854952 
L 217.848486 51.884094 
L 218.047364 51.899936 
L 218.331326 51.911092 
L 218.568308 51.800677 
L 219.275603 51.995569 
L 219.955754 52.02479 
L 220.202133 52.089357 
L 222.785454 51.78741 
L 223.053756 51.704546 
L 223.854487 51.761076 
L 224.385349 51.909879 
L 224.931349 52.019291 
L 225.207481 52.034113 
L 225.501361 51.944185 
L 225.796806 51.883063 
L 225.972717 51.831958 
L 226.071894 51.90658 
L 226.35429 51.982575 
L 226.515063 51.96967 
L 226.906554 52.050235 
L 227.042793 52.095232 
L 227.219225 52.0939 
L 227.716158 52.16909 
L 228.166113 52.219839 
L 228.363946 52.172732 
L 228.526285 52.019634 
L 228.827994 51.875886 
L 229.495618 51.819978 
L 229.731556 51.799803 
L 230.061975 51.744394 
L 230.247281 51.751066 
L 230.812595 51.800579 
L 231.342413 51.815293 
L 231.642557 51.796989 
L 232.165067 51.764267 
L 232.385346 51.7525 
L 233.068107 51.625144 
L 233.229402 51.603214 
L 233.381823 51.602309 
L 233.818727 51.596802 
L 234.170547 51.524748 
L 234.424234 51.503987 
L 234.960838 51.379757 
L 235.255762 51.346362 
L 236.513232 51.050428 
L 236.781012 51.088199 
L 237.558775 51.060114 
L 237.861007 51.174774 
L 238.06667 51.22828 
L 238.254586 51.25087 
L 238.765091 51.387773 
L 238.922731 51.501896 
L 238.956661 51.430862 
L 239.215567 51.277973 
L 239.685879 51.275353 
L 240.987718 51.190471 
L 241.215305 51.222369 
L 241.43976 51.252379 
L 242.068757 51.225836 
L 242.579784 51.185535 
L 242.867399 51.181782 
L 243.301694 51.007334 
L 244.439629 50.994641 
L 244.769526 50.947996 
L 245.264893 50.888107 
L 245.506052 50.847055 
L 245.667868 50.82097 
L 246.978059 50.549025 
L 248.221958 50.387045 
L 248.401522 50.379568 
L 248.674 50.358977 
L 249.689268 50.266602 
L 249.882404 50.280373 
L 250.676349 50.370702 
L 251.4562 50.288775 
L 252.041349 50.262803 
L 252.297645 50.142028 
L 252.642158 50.195312 
L 252.81598 50.173369 
L 252.98928 50.176356 
L 254.132957 50.058673 
L 254.413787 50.028326 
L 255.496913 49.828362 
L 255.678565 49.78967 
L 256.128519 49.7295 
L 256.352974 49.750678 
L 257.163101 49.739142 
L 259.02138 50.133759 
L 259.243225 50.112726 
L 260.003241 50.025506 
L 260.238136 49.915201 
L 260.614489 49.815079 
L 262.820935 49.914117 
L 263.075144 49.936705 
L 263.893622 49.96794 
L 264.123297 50.00412 
L 264.588388 50.011595 
L 265.390163 50.081772 
L 266.196113 50.050164 
L 266.530186 49.984512 
L 266.970744 49.897917 
L 267.172232 49.870382 
L 268.790919 49.907611 
L 269.123947 49.903017 
L 269.372414 49.896028 
L 269.886573 49.933908 
L 270.201332 49.901694 
L 270.525487 49.909865 
L 270.84651 49.940787 
L 271.213468 50.014251 
L 271.420175 50.016869 
L 271.707791 50.021291 
L 271.985489 50.113452 
L 272.607177 50.218756 
L 272.821715 50.250992 
L 274.170533 50.50143 
L 274.412214 50.543404 
L 275.826281 50.644382 
L 276.171315 50.645514 
L 276.370193 50.686583 
L 277.593212 50.882111 
L 278.40386 50.83955 
L 278.62153 50.840018 
L 279.217119 50.85648 
L 280.368626 51.059149 
L 280.641104 51.131237 
L 281.194411 51.117548 
L 281.376064 51.112281 
L 282.71392 51.049967 
L 282.961343 51.008929 
L 283.417561 51.032639 
L 283.776167 51.054158 
L 284.101888 51.016456 
L 285.703871 51.00847 
L 287.645146 51.096868 
L 287.991747 51.150906 
L 288.309638 51.238748 
L 288.630139 51.305639 
L 290.357399 51.133394 
L 292.863988 51.407785 
L 293.347872 51.452119 
L 293.674637 51.528661 
L 294.168438 51.554181 
L 294.927409 51.588987 
L 295.266702 51.635441 
L 295.780339 51.73684 
L 296.221419 51.72738 
L 296.538266 51.679679 
L 297.039375 51.768567 
L 298.01706 51.852771 
L 298.333385 51.868086 
L 298.76246 51.9174 
L 298.983783 51.920477 
L 299.494809 51.930012 
L 299.924928 51.870908 
L 303.226506 51.789853 
L 303.486978 51.825149 
L 304.290319 51.844942 
L 304.837885 51.864864 
L 305.040416 51.867893 
L 305.451743 51.860719 
L 305.646967 51.87425 
L 305.911093 51.871836 
L 306.195055 51.869009 
L 306.874162 51.82957 
L 307.580413 51.721477 
L 307.959376 51.714181 
L 308.624912 51.762005 
L 310.069254 51.789845 
L 310.308325 51.760418 
L 310.820396 51.73004 
L 311.331423 51.724126 
L 311.81635 51.682235 
L 312.11284 51.68186 
L 312.476144 51.666829 
L 314.228459 51.741572 
L 314.557312 51.77199 
L 314.873115 51.808769 
L 315.890471 51.867539 
L 316.700075 51.84575 
L 317.003873 51.930063 
L 317.403716 52.0051 
L 317.689244 51.982681 
L 317.991997 51.972041 
L 322.328156 52.146058 
L 322.734264 52.106052 
L 323.423288 52.119408 
L 323.858105 52.033907 
L 324.260036 51.99886 
L 325.252337 51.951004 
L 325.645916 51.941001 
L 325.999824 51.902643 
L 326.317715 51.867198 
L 326.682585 51.969699 
L 326.993168 52.017543 
L 329.67619 51.924211 
L 330.053066 51.991228 
L 330.376177 51.992883 
L 330.880939 51.91613 
L 331.069377 51.938282 
L 331.296964 51.940237 
L 331.687412 51.96269 
L 331.896207 51.940732 
L 332.525726 51.911191 
L 333.329066 51.885257 
L 333.640171 51.879267 
L 334.148588 51.824176 
L 334.68728 51.864089 
L 335.030749 51.946639 
L 335.342898 52.020263 
L 335.612766 52.094368 
L 336.320583 52.110537 
L 336.648391 52.114468 
L 337.91056 52.149246 
L 338.218011 52.197598 
L 338.460214 52.15992 
L 339.109568 52.165934 
L 339.340287 52.141686 
L 342.401228 52.013067 
L 342.733734 52.06967 
L 343.5804 52.140767 
L 344.328932 52.049943 
L 346.49936 52.039717 
L 347.263551 52.107876 
L 347.460341 52.051763 
L 347.743259 52.02841 
L 348.077332 51.976947 
L 349.173508 51.971438 
L 349.498185 52.010607 
L 350.697192 51.89452 
L 351.137751 51.876239 
L 351.35542 51.855277 
L 351.597101 51.890591 
L 352.27934 51.947968 
L 352.813856 51.953512 
L 353.312877 51.946662 
L 353.873493 52.048336 
L 356.91251 52.055587 
L 357.293562 52.033601 
L 357.583266 52.04224 
L 358.128744 51.966918 
L 358.386084 51.947691 
L 358.892935 51.983881 
L 359.336104 51.983038 
L 360.180681 52.11789 
L 360.516842 52.160652 
L 360.859788 52.208009 
L 361.606232 52.209989 
L 361.845825 52.189092 
L 362.366769 52.101133 
L 365.614582 52.098917 
L 366.227919 52.005172 
L 367.82677 52.030199 
L 369.013772 52.157538 
L 369.754996 52.164668 
L 373.918377 52.110427 
L 374.296819 52.146279 
L 374.710755 52.120311 
L 379.961439 52.184861 
L 380.466724 52.128356 
L 381.931424 52.131212 
L 382.231567 52.113414 
L 382.681521 52.105114 
L 383.233785 52.034761 
L 383.72602 51.985378 
L 384.227129 52.010959 
L 384.861346 52.051544 
L 385.285722 52.07712 
L 386.924766 52.107736 
L 387.520877 52.165431 
L 388.008937 52.248468 
L 388.989753 52.210646 
L 389.183933 52.186725 
L 389.682954 52.124704 
L 391.341312 52.086846 
L 393.5274 52.289486 
L 395.406037 52.211131 
L 395.767775 52.192147 
L 397.700699 52.224622 
L 398.101064 52.208368 
L 400.197892 52.116796 
L 400.649934 52.176977 
L 422.765547 52.3094 
L 423.093878 52.264942 
L 426.156907 52.104806 
L 426.499853 52.080087 
L 427.332947 52.164494 
L 427.790731 52.167477 
L 428.171783 52.195139 
L 428.512641 52.210828 
L 429.276311 52.231159 
L 429.938714 52.327951 
L 435.764107 52.481501 
L 436.110707 52.463542 
L 436.702642 52.442399 
L 437.064903 52.432054 
L 437.72313 52.444061 
L 438.275394 52.430765 
L 438.944583 52.402591 
L 439.564184 52.357222 
L 439.929576 52.329597 
L 441.070121 52.366956 
L 442.057201 52.423209 
L 442.30358 52.425687 
L 442.918483 52.421067 
L 448.449474 52.428635 
L 449.06542 52.430346 
L 449.70068 52.455122 
L 451.320411 52.471219 
L 451.605417 52.469514 
L 452.458868 52.458119 
L 458.874108 52.426085 
L 459.355381 52.431143 
L 460.662963 52.398676 
L 462.178818 52.432401 
L 462.79633 52.416181 
L 463.877369 52.336657 
L 466.616765 52.412542 
L 468.266249 52.368578 
L 472.893155 52.537064 
L 473.291433 52.595029 
L 474.893416 52.609585 
L 475.60854 52.606221 
L 476.259982 52.536398 
L 476.835213 52.50207 
L 477.813942 52.501612 
L 478.329145 52.483869 
L 478.953443 52.387244 
L 480.376906 52.25806 
L 481.146317 52.300396 
L 483.040092 52.20583 
L 483.400264 52.200566 
L 485.090463 52.139106 
L 485.462641 52.190264 
L 487.58609 52.240373 
L 488.026649 52.249785 
L 489.257498 52.253858 
L 489.965314 52.280284 
L 490.658515 52.2434 
L 492.181678 52.346849 
L 492.497481 52.362374 
L 493.839514 52.400937 
L 498.523317 52.341488 
L 499.05418 52.248581 
L 501.464201 52.212629 
L 502.798404 52.27486 
L 503.120471 52.269025 
L 503.433664 52.266313 
L 503.819935 52.267896 
L 504.108595 52.234967 
L 504.484949 52.254005 
L 505.341532 52.312693 
L 506.717494 52.276396 
L 507.247313 52.283416 
L 508.244833 52.330148 
L 508.515745 52.321336 
L 511.331351 52.27194 
L 512.084059 52.230173 
L 512.556458 52.167556 
L 513.870304 52.198234 
L 516.177493 52.120957 
L 517.357188 52.075863 
L 517.923545 52.082221 
L 518.393335 52.112047 
L 524.241695 52.189827 
L 525.453753 52.257347 
L 526.204372 52.254252 
L 526.823973 52.3023 
L 528.441615 52.25096 
L 528.815359 52.236403 
L 529.285671 52.277614 
L 529.704306 52.287194 
L 531.166396 52.237708 
L 531.635141 52.158845 
L 533.013713 52.168487 
L 536.310593 52.163056 
L 537.493941 52.207966 
L 538.071261 52.212205 
L 538.276402 52.237197 
L 540.65667 52.214934 
L 541.069041 52.234822 
L 541.793561 52.230038 
L 545.280967 52.144624 
L 545.715262 52.115359 
L 546.215849 52.13991 
L 549.43182 52.177107 
L 550.184006 52.176388 
L 550.788469 52.156177 
L 551.834534 52.136476 
L 553.208408 52.087111 
L 555.188311 52.15281 
L 555.494718 52.1109 
L 555.825659 52.112173 
L 556.125802 52.111707 
L 556.644659 52.107289 
L 556.997001 52.114424 
L 560.717736 52.19642 
L 561.499153 52.18378 
L 561.943365 52.176215 
L 566.193396 52.205502 
L 566.612553 52.219743 
L 567.256687 52.208784 
L 567.592326 52.203684 
L 568.874852 52.21145 
L 569.716297 52.223876 
L 574.555131 52.174883 
L 575.102697 52.176508 
L 576.82787 52.113824 
L 577.616072 52.132856 
L 578.229931 52.156812 
L 582.829694 52.129776 
L 585.172901 52.041999 
L 586.33537 51.998736 
L 586.920519 52.004802 
L 587.293219 52.001837 
L 594.348939 51.887837 
L 595.107388 51.892432 
L 597.453205 51.952508 
L 598.30509 51.986595 
L 599.284341 52.012898 
L 600.24219 52.033044 
L 604.749561 52.105915 
L 605.26633 52.06128 
L 606.910594 51.995804 
L 607.377774 52.024842 
L 608.082981 52.057039 
L 608.820028 52.120185 
L 610.041482 52.132569 
L 610.429319 52.169618 
L 610.839602 52.194351 
L 610.839602 52.194351 
" clip-path="url(#p10d22da729)" style="fill: none; stroke: #1f2937; stroke-linecap: square"/>
   </g>
   <g id="line2d_26">
    <path d="M 57.27125 52.194351 
L 637.2 52.194351 
" clip-path="url(#p10d22da729)" style="fill: none; stroke-dasharray: 2.96,1.28; stroke-dashoffset: 0; stroke: #888888; stroke-width: 0.8"/>
   </g>
   <g id="patch_3">
    <path d="M 57.27125 282.04 
L 57.27125 26.88 
" style="fill: none; stroke: #000000; stroke-width: 0.8; stroke-linejoin: miter; stroke-linecap: square"/>
   </g>
   <g id="patch_4">
    <path d="M 637.2 282.04 
L 637.2 26.88 
" style="fill: none; stroke: #000000; stroke-width: 0.8; stroke-linejoin: miter; stroke-linecap: square"/>
   </g>
   <g id="patch_5">
    <path d="M 57.27125 282.04 
L 637.2 282.04 
" style="fill: none; stroke: #000000; stroke-width: 0.8; stroke-linejoin: miter; stroke-linecap: square"/>
   </g>
   <g id="patch_6">
    <path d="M 57.27125 26.88 
L 637.2 26.88 
" style="fill: none; stroke: #000000; stroke-width: 0.8; stroke-linejoin: miter; stroke-linecap: square"/>
   </g>
   <g id="text_16">
    <!-- Running mean — population_mad  (canonical ReCom ensemble) -->
    <g transform="translate(154.164063 20.88) scale(0.12 -0.12)">
     <defs>
      <path id="DejaVuSans-2014" d="M 313 1978 
L 6088 1978 
L 6088 1528 
L 313 1528 
L 313 1978 
z
" transform="scale(0.015625)"/>
      <path id="DejaVuSans-28" d="M 1984 4856 
Q 1566 4138 1362 3434 
Q 1159 2731 1159 2009 
Q 1159 1288 1364 580 
Q 1569 -128 1984 -844 
L 1484 -844 
Q 1016 -109 783 600 
Q 550 1309 550 2009 
Q 550 2706 781 3412 
Q 1013 4119 1484 4856 
L 1984 4856 
z
" transform="scale(0.015625)"/>
      <path id="DejaVuSans-63" d="M 3122 3366 
L 3122 2828 
Q 2878 2963 2633 3030 
Q 2388 3097 2138 3097 
Q 1578 3097 1268 2742 
Q 959 2388 959 1747 
Q 959 1106 1268 751 
Q 1578 397 2138 397 
Q 2388 397 2633 464 
Q 2878 531 3122 666 
L 3122 134 
Q 2881 22 2623 -34 
Q 2366 -91 2075 -91 
Q 1284 -91 818 406 
Q 353 903 353 1747 
Q 353 2603 823 3093 
Q 1294 3584 2113 3584 
Q 2378 3584 2631 3529 
Q 2884 3475 3122 3366 
z
" transform="scale(0.015625)"/>
      <path id="DejaVuSans-43" d="M 4122 4306 
L 4122 3641 
Q 3803 3938 3442 4084 
Q 3081 4231 2675 4231 
Q 1875 4231 1450 3742 
Q 1025 3253 1025 2328 
Q 1025 1406 1450 917 
Q 1875 428 2675 428 
Q 3081 428 3442 575 
Q 3803 722 4122 1019 
L 4122 359 
Q 3791 134 3420 21 
Q 3050 -91 2638 -91 
Q 1578 -91 968 557 
Q 359 1206 359 2328 
Q 359 3453 968 4101 
Q 1578 4750 2638 4750 
Q 3056 4750 3426 4639 
Q 3797 4528 4122 4306 
z
" transform="scale(0.015625)"/>
      <path id="DejaVuSans-73" d="M 2834 3397 
L 2834 2853 
Q 2591 2978 2328 3040 
Q 2066 3103 1784 3103 
Q 1356 3103 1142 2972 
Q 928 2841 928 2578 
Q 928 2378 1081 2264 
Q 1234 2150 1697 2047 
L 1894 2003 
Q 2506 1872 2764 1633 
Q 3022 1394 3022 966 
Q 3022 478 2636 193 
Q 2250 -91 1575 -91 
Q 1294 -91 989 -36 
Q 684 19 347 128 
L 347 722 
Q 666 556 975 473 
Q 1284 391 1588 391 
Q 1994 391 2212 530 
Q 2431 669 2431 922 
Q 2431 1156 2273 1281 
Q 2116 1406 1581 1522 
L 1381 1569 
Q 847 1681 609 1914 
Q 372 2147 372 2553 
Q 372 3047 722 3315 
Q 1072 3584 1716 3584 
Q 2034 3584 2315 3537 
Q 2597 3491 2834 3397 
z
" transform="scale(0.015625)"/>
      <path id="DejaVuSans-62" d="M 3116 1747 
Q 3116 2381 2855 2742 
Q 2594 3103 2138 3103 
Q 1681 3103 1420 2742 
Q 1159 2381 1159 1747 
Q 1159 1113 1420 752 
Q 1681 391 2138 391 
Q 2594 391 2855 752 
Q 3116 1113 3116 1747 
z
M 1159 2969 
Q 1341 3281 1617 3432 
Q 1894 3584 2278 3584 
Q 2916 3584 3314 3078 
Q 3713 2572 3713 1747 
Q 3713 922 3314 415 
Q 2916 -91 2278 -91 
Q 1894 -91 1617 61 
Q 1341 213 1159 525 
L 1159 0 
L 581 0 
L 581 4863 
L 1159 4863 
L 1159 2969 
z
" transform="scale(0.015625)"/>
      <path id="DejaVuSans-29" d="M 513 4856 
L 1013 4856 
Q 1481 4119 1714 3412 
Q 1947 2706 1947 2009 
Q 1947 1309 1714 600 
Q 1481 -109 1013 -844 
L 513 -844 
Q 928 -128 1133 580 
Q 1338 1288 1338 2009 
Q 1338 2731 1133 3434 
Q 928 4138 513 4856 
z
" transform="scale(0.015625)"/>
     </defs>
     <use xlink:href="#DejaVuSans-52"/>
     <use xlink:href="#DejaVuSans-75" transform="translate(64.982422 0)"/>
     <use xlink:href="#DejaVuSans-6e" transform="translate(128.361328 0)"/>
     <use xlink:href="#DejaVuSans-6e" transform="translate(191.740234 0)"/>
     <use xlink:href="#DejaVuSans-69" transform="translate(255.119141 0)"/>
     <use xlink:href="#DejaVuSans-6e" transform="translate(282.902344 0)"/>
     <use xlink:href="#DejaVuSans-67" transform="translate(346.28125 0)"/>
     <use xlink:href="#DejaVuSans-20" transform="translate(409.757812 0)"/>
     <use xlink:href="#DejaVuSans-6d" transform="translate(441.544922 0)"/>
     <use xlink:href="#DejaVuSans-65" transform="translate(538.957031 0)"/>
     <use xlink:href="#DejaVuSans-61" transform="translate(600.480469 0)"/>
     <use xlink:href="#DejaVuSans-6e" transform="translate(661.759766 0)"/>
     <use xlink:href="#DejaVuSans-20" transform="translate(725.138672 0)"/>
     <use xlink:href="#DejaVuSans-2014" transform="translate(756.925781 0)"/>
     <use xlink:href="#DejaVuSans-20" transform="translate(856.925781 0)"/>
     <use xlink:href="#DejaVuSans-70" transform="translate(888.712891 0)"/>
     <use xlink:href="#DejaVuSans-6f" transform="translate(952.189453 0)"/>
     <use xlink:href="#DejaVuSans-70" transform="translate(1013.371094 0)"/>
     <use xlink:href="#DejaVuSans-75" transform="translate(1076.847656 0)"/>
     <use xlink:href="#DejaVuSans-6c" transform="translate(1140.226562 0)"/>
     <use xlink:href="#DejaVuSans-61" transform="translate(1168.009766 0)"/>
     <use xlink:href="#DejaVuSans-74" transform="translate(1229.289062 0)"/>
     <use xlink:href="#DejaVuSans-69" transform="translate(1268.498047 0)"/>
     <use xlink:href="#DejaVuSans-6f" transform="translate(1296.28125 0)"/>
     <use xlink:href="#DejaVuSans-6e" transform="translate(1357.462891 0)"/>
     <use xlink:href="#DejaVuSans-5f" transform="translate(1420.841797 0)"/>
     <use xlink:href="#DejaVuSans-6d" transform="translate(1470.841797 0)"/>
     <use xlink:href="#DejaVuSans-61" transform="translate(1568.253906 0)"/>
     <use xlink:href="#DejaVuSans-64" transform="translate(1629.533203 0)"/>
     <use xlink:href="#DejaVuSans-20" transform="translate(1693.009766 0)"/>
     <use xlink:href="#DejaVuSans-20" transform="translate(1724.796875 0)"/>
     <use xlink:href="#DejaVuSans-28" transform="translate(1756.583984 0)"/>
     <use xlink:href="#DejaVuSans-63" transform="translate(1795.597656 0)"/>
     <use xlink:href="#DejaVuSans-61" transform="translate(1850.578125 0)"/>
     <use xlink:href="#DejaVuSans-6e" transform="translate(1911.857422 0)"/>
     <use xlink:href="#DejaVuSans-6f" transform="translate(1975.236328 0)"/>
     <use xlink:href="#DejaVuSans-6e" transform="translate(2036.417969 0)"/>
     <use xlink:href="#DejaVuSans-69" transform="translate(2099.796875 0)"/>
     <use xlink:href="#DejaVuSans-63" transform="translate(2127.580078 0)"/>
     <use xlink:href="#DejaVuSans-61" transform="translate(2182.560547 0)"/>
     <use xlink:href="#DejaVuSans-6c" transform="translate(2243.839844 0)"/>
     <use xlink:href="#DejaVuSans-20" transform="translate(2271.623047 0)"/>
     <use xlink:href="#DejaVuSans-52" transform="translate(2303.410156 0)"/>
     <use xlink:href="#DejaVuSans-65" transform="translate(2368.392578 0)"/>
     <use xlink:href="#DejaVuSans-43" transform="translate(2429.916016 0)"/>
     <use xlink:href="#DejaVuSans-6f" transform="translate(2499.740234 0)"/>
     <use xlink:href="#DejaVuSans-6d" transform="translate(2560.921875 0)"/>
     <use xlink:href="#DejaVuSans-20" transform="translate(2658.333984 0)"/>
     <use xlink:href="#DejaVuSans-65" transform="translate(2690.121094 0)"/>
     <use xlink:href="#DejaVuSans-6e" transform="translate(2751.644531 0)"/>
     <use xlink:href="#DejaVuSans-73" transform="translate(2815.023438 0)"/>
     <use xlink:href="#DejaVuSans-65" transform="translate(2867.123047 0)"/>
     <use xlink:href="#DejaVuSans-6d" transform="translate(2928.646484 0)"/>
     <use xlink:href="#DejaVuSans-62" transform="translate(3026.058594 0)"/>
     <use xlink:href="#DejaVuSans-6c" transform="translate(3089.535156 0)"/>
     <use xlink:href="#DejaVuSans-65" transform="translate(3117.318359 0)"/>
     <use xlink:href="#DejaVuSans-29" transform="translate(3178.841797 0)"/>
    </g>
   </g>
   <g id="legend_1">
    <g id="patch_7">
     <path d="M 479.127656 47.290312 
L 630.9 47.290312 
Q 632.7 47.290312 632.7 45.490312 
L 632.7 33.18 
Q 632.7 31.38 630.9 31.38 
L 479.127656 31.38 
Q 477.327656 31.38 477.327656 33.18 
L 477.327656 45.490312 
Q 477.327656 47.290312 479.127656 47.290312 
z
" style="fill: #ffffff; opacity: 0.8; stroke: #cccccc; stroke-linejoin: miter"/>
    </g>
    <g id="line2d_27">
     <path d="M 480.927656 38.668594 
L 489.927656 38.668594 
L 498.927656 38.668594 
" style="fill: none; stroke-dasharray: 2.96,1.28; stroke-dashoffset: 0; stroke: #888888; stroke-width: 0.8"/>
    </g>
    <g id="text_17">
     <!-- final mean = +3163.26058 -->
     <g transform="translate(506.127656 41.818594) scale(0.09 -0.09)">
      <defs>
       <path id="DejaVuSans-3d" d="M 678 2906 
L 4684 2906 
L 4684 2381 
L 678 2381 
L 678 2906 
z
M 678 1631 
L 4684 1631 
L 4684 1100 
L 678 1100 
L 678 1631 
z
" transform="scale(0.015625)"/>
       <path id="DejaVuSans-2b" d="M 2944 4013 
L 2944 2272 
L 4684 2272 
L 4684 1741 
L 2944 1741 
L 2944 0 
L 2419 0 
L 2419 1741 
L 678 1741 
L 678 2272 
L 2419 2272 
L 2419 4013 
L 2944 4013 
z
" transform="scale(0.015625)"/>
       <path id="DejaVuSans-35" d="M 691 4666 
L 3169 4666 
L 3169 4134 
L 1269 4134 
L 1269 2991 
Q 1406 3038 1543 3061 
Q 1681 3084 1819 3084 
Q 2600 3084 3056 2656 
Q 3513 2228 3513 1497 
Q 3513 744 3044 326 
Q 2575 -91 1722 -91 
Q 1428 -91 1123 -41 
Q 819 9 494 109 
L 494 744 
Q 775 591 1075 516 
Q 1375 441 1709 441 
Q 2250 441 2565 725 
Q 2881 1009 2881 1497 
Q 2881 1984 2565 2268 
Q 2250 2553 1709 2553 
Q 1456 2553 1204 2497 
Q 953 2441 691 2322 
L 691 4666 
z
" transform="scale(0.015625)"/>
      </defs>
      <use xlink:href="#DejaVuSans-66"/>
      <use xlink:href="#DejaVuSans-69" transform="translate(35.205078 0)"/>
      <use xlink:href="#DejaVuSans-6e" transform="translate(62.988281 0)"/>
      <use xlink:href="#DejaVuSans-61" transform="translate(126.367188 0)"/>
      <use xlink:href="#DejaVuSans-6c" transform="translate(187.646484 0)"/>
      <use xlink:href="#DejaVuSans-20" transform="translate(215.429688 0)"/>
      <use xlink:href="#DejaVuSans-6d" transform="translate(247.216797 0)"/>
      <use xlink:href="#DejaVuSans-65" transform="translate(344.628906 0)"/>
      <use xlink:href="#DejaVuSans-61" transform="translate(406.152344 0)"/>
      <use xlink:href="#DejaVuSans-6e" transform="translate(467.431641 0)"/>
      <use xlink:href="#DejaVuSans-20" transform="translate(530.810547 0)"/>
      <use xlink:href="#DejaVuSans-3d" transform="translate(562.597656 0)"/>
      <use xlink:href="#DejaVuSans-20" transform="translate(646.386719 0)"/>
      <use xlink:href="#DejaVuSans-2b" transform="translate(678.173828 0)"/>
      <use xlink:href="#DejaVuSans-33" transform="translate(761.962891 0)"/>
      <use xlink:href="#DejaVuSans-31" transform="translate(825.585938 0)"/>
      <use xlink:href="#DejaVuSans-36" transform="translate(889.208984 0)"/>
      <use xlink:href="#DejaVuSans-33" transform="translate(952.832031 0)"/>
      <use xlink:href="#DejaVuSans-2e" transform="translate(1016.455078 0)"/>
      <use xlink:href="#DejaVuSans-32" transform="translate(1048.242188 0)"/>
      <use xlink:href="#DejaVuSans-36" transform="translate(1111.865234 0)"/>
      <use xlink:href="#DejaVuSans-30" transform="translate(1175.488281 0)"/>
      <use xlink:href="#DejaVuSans-35" transform="translate(1239.111328 0)"/>
      <use xlink:href="#DejaVuSans-38" transform="translate(1302.734375 0)"/>
     </g>
    </g>
   </g>
  </g>
 </g>
 <defs>
  <clipPath id="p10d22da729">
   <rect x="57.27125" y="26.88" width="579.92875" height="255.16"/>
  </clipPath>
 </defs>
</svg>
