<?xml version="1.0" encoding="utf-8" standalone="no"?>
<!DOCTYPE svg PUBLIC "-//W3C//DTD SVG 1.1//EN"
  "http://www.w3.org/Graphics/SVG/1.1/DTD/svg11.dtd">
<svg xmlns:xlink="http://www.w3.org/1999/xlink" width="648pt" height="324pt" viewBox="0 0 648 324" xmlns="http://www.w3.org/2000/svg" version="1.1">
 <metadata>
  <rdf:RDF xmlns:dc="http://purl.org/dc/elements/1.1/" xmlns:cc="http://creativecommons.org/ns#" xmlns:rdf="http://www.w3.org/1999/02/22-rdf-syntax-ns#">
   <cc:Work>
    <dc:type rdf:resource="http://purl.org/dc/dcmitype/StillImage"/>
    <dc:date>2026-05-12T12:07:56.062167</dc:date>
    <dc:format>image/svg+xml</dc:format>
    <dc:creator>
     <cc:Agent>
      <dc:title>Matplotlib v3.10.8, https://matplotlib.org/</dc:title>
     </cc:Agent>
    </dc:creator>
   </cc:Work>
  </rdf:RDF>
 </metadata>
 <defs>
  <style type="text/css">*{stroke-linejoin: round; stroke-linecap: butt}</style>
 </defs>
 <g id="figure_1">
  <g id="patch_1">
   <path d="M 0 324 
L 648 324 
L 648 0 
L 0 0 
z
" style="fill: #ffffff"/>
  </g>
  <g id="axes_1">
   <g id="patch_2">
    <path d="M 54.21125 282.04 
L 637.2 282.04 
L 637.2 26.88 
L 54.21125 26.88 
z
" style="fill: #ffffff"/>
   </g>
   <g id="matplotlib.axis_1">
    <g id="xtick_1">
     <g id="line2d_1">
      <path d="M 80.705439 282.04 
L 80.705439 26.88 
" clip-path="url(#p5753aa5573)" style="fill: none; stroke-dasharray: 0.5,0.825; stroke-dashoffset: 0; stroke: #b0b0b0; stroke-opacity: 0.6; stroke-width: 0.5"/>
     </g>
     <g id="line2d_2">
      <defs>
       <path id="me2390fd54b" d="M 0 0 
L 0 3.5 
" style="stroke: #000000; stroke-width: 0.8"/>
      </defs>
      <g>
       <use xlink:href="#me2390fd54b" x="80.705439" y="282.04" style="stroke: #000000; stroke-width: 0.8"/>
      </g>
     </g>
     <g id="text_1">
      <!-- 0 -->
      <g transform="translate(77.524189 296.638438) scale(0.1 -0.1)">
       <defs>
        <path id="DejaVuSans-30" d="M 2034 4250 
Q 1547 4250 1301 3770 
Q 1056 3291 1056 2328 
Q 1056 1369 1301 889 
Q 1547 409 2034 409 
Q 2525 409 2770 889 
Q 3016 1369 3016 2328 
Q 3016 3291 2770 3770 
Q 2525 4250 2034 4250 
z
M 2034 4750 
Q 2819 4750 3233 4129 
Q 3647 3509 3647 2328 
Q 3647 1150 3233 529 
Q 2819 -91 2034 -91 
Q 1250 -91 836 529 
Q 422 1150 422 2328 
Q 422 3509 836 4129 
Q 1250 4750 2034 4750 
z
" transform="scale(0.015625)"/>
       </defs>
       <use xlink:href="#DejaVuSans-30"/>
      </g>
     </g>
    </g>
    <g id="xtick_2">
     <g id="line2d_3">
      <path d="M 186.704453 282.04 
L 186.704453 26.88 
" clip-path="url(#p5753aa5573)" style="fill: none; stroke-dasharray: 0.5,0.825; stroke-dashoffset: 0; stroke: #b0b0b0; stroke-opacity: 0.6; stroke-width: 0.5"/>
     </g>
     <g id="line2d_4">
      <g>
       <use xlink:href="#me2390fd54b" x="186.704453" y="282.04" style="stroke: #000000; stroke-width: 0.8"/>
      </g>
     </g>
     <g id="text_2">
      <!-- 20000 -->
      <g transform="translate(170.798203 296.638438) scale(0.1 -0.1)">
       <defs>
        <path id="DejaVuSans-32" d="M 1228 531 
L 3431 531 
L 3431 0 
L 469 0 
L 469 531 
Q 828 903 1448 1529 
Q 2069 2156 2228 2338 
Q 2531 2678 2651 2914 
Q 2772 3150 2772 3378 
Q 2772 3750 2511 3984 
Q 2250 4219 1831 4219 
Q 1534 4219 1204 4116 
Q 875 4013 500 3803 
L 500 4441 
Q 881 4594 1212 4672 
Q 1544 4750 1819 4750 
Q 2544 4750 2975 4387 
Q 3406 4025 3406 3419 
Q 3406 3131 3298 2873 
Q 3191 2616 2906 2266 
Q 2828 2175 2409 1742 
Q 1991 1309 1228 531 
z
" transform="scale(0.015625)"/>
       </defs>
       <use xlink:href="#DejaVuSans-32"/>
       <use xlink:href="#DejaVuSans-30" transform="translate(63.623047 0)"/>
       <use xlink:href="#DejaVuSans-30" transform="translate(127.246094 0)"/>
       <use xlink:href="#DejaVuSans-30" transform="translate(190.869141 0)"/>
       <use xlink:href="#DejaVuSans-30" transform="translate(254.492188 0)"/>
      </g>
     </g>
    </g>
    <g id="xtick_3">
     <g id="line2d_5">
      <path d="M 292.703468 282.04 
L 292.703468 26.88 
" clip-path="url(#p5753aa5573)" style="fill: none; stroke-dasharray: 0.5,0.825; stroke-dashoffset: 0; stroke: #b0b0b0; stroke-opacity: 0.6; stroke-width: 0.5"/>
     </g>
     <g id="line2d_6">
      <g>
       <use xlink:href="#me2390fd54b" x="292.703468" y="282.04" style="stroke: #000000; stroke-width: 0.8"/>
      </g>
     </g>
     <g id="text_3">
      <!-- 40000 -->
      <g transform="translate(276.797218 296.638438) scale(0.1 -0.1)">
       <defs>
        <path id="DejaVuSans-34" d="M 2419 4116 
L 825 1625 
L 2419 1625 
L 2419 4116 
z
M 2253 4666 
L 3047 4666 
L 3047 1625 
L 3713 1625 
L 3713 1100 
L 3047 1100 
L 3047 0 
L 2419 0 
L 2419 1100 
L 313 1100 
L 313 1709 
L 2253 4666 
z
" transform="scale(0.015625)"/>
       </defs>
       <use xlink:href="#DejaVuSans-34"/>
       <use xlink:href="#DejaVuSans-30" transform="translate(63.623047 0)"/>
       <use xlink:href="#DejaVuSans-30" transform="translate(127.246094 0)"/>
       <use xlink:href="#DejaVuSans-30" transform="translate(190.869141 0)"/>
       <use xlink:href="#DejaVuSans-30" transform="translate(254.492188 0)"/>
      </g>
     </g>
    </g>
    <g id="xtick_4">
     <g id="line2d_7">
      <path d="M 398.702482 282.04 
L 398.702482 26.88 
" clip-path="url(#p5753aa5573)" style="fill: none; stroke-dasharray: 0.5,0.825; stroke-dashoffset: 0; stroke: #b0b0b0; stroke-opacity: 0.6; stroke-width: 0.5"/>
     </g>
     <g id="line2d_8">
      <g>
       <use xlink:href="#me2390fd54b" x="398.702482" y="282.04" style="stroke: #000000; stroke-width: 0.8"/>
      </g>
     </g>
     <g id="text_4">
      <!-- 60000 -->
      <g transform="translate(382.796232 296.638438) scale(0.1 -0.1)">
       <defs>
        <path id="DejaVuSans-36" d="M 2113 2584 
Q 1688 2584 1439 2293 
Q 1191 2003 1191 1497 
Q 1191 994 1439 701 
Q 1688 409 2113 409 
Q 2538 409 2786 701 
Q 3034 994 3034 1497 
Q 3034 2003 2786 2293 
Q 2538 2584 2113 2584 
z
M 3366 4563 
L 3366 3988 
Q 3128 4100 2886 4159 
Q 2644 4219 2406 4219 
Q 1781 4219 1451 3797 
Q 1122 3375 1075 2522 
Q 1259 2794 1537 2939 
Q 1816 3084 2150 3084 
Q 2853 3084 3261 2657 
Q 3669 2231 3669 1497 
Q 3669 778 3244 343 
Q 2819 -91 2113 -91 
Q 1303 -91 875 529 
Q 447 1150 447 2328 
Q 447 3434 972 4092 
Q 1497 4750 2381 4750 
Q 2619 4750 2861 4703 
Q 3103 4656 3366 4563 
z
" transform="scale(0.015625)"/>
       </defs>
       <use xlink:href="#DejaVuSans-36"/>
       <use xlink:href="#DejaVuSans-30" transform="translate(63.623047 0)"/>
       <use xlink:href="#DejaVuSans-30" transform="translate(127.246094 0)"/>
       <use xlink:href="#DejaVuSans-30" transform="translate(190.869141 0)"/>
       <use xlink:href="#DejaVuSans-30" transform="translate(254.492188 0)"/>
      </g>
     </g>
    </g>
    <g id="xtick_5">
     <g id="line2d_9">
      <path d="M 504.701497 282.04 
L 504.701497 26.88 
" clip-path="url(#p5753aa5573)" style="fill: none; stroke-dasharray: 0.5,0.825; stroke-dashoffset: 0; stroke: #b0b0b0; stroke-opacity: 0.6; stroke-width: 0.5"/>
     </g>
     <g id="line2d_10">
      <g>
       <use xlink:href="#me2390fd54b" x="504.701497" y="282.04" style="stroke: #000000; stroke-width: 0.8"/>
      </g>
     </g>
     <g id="text_5">
      <!-- 80000 -->
      <g transform="translate(488.795247 296.638438) scale(0.1 -0.1)">
       <defs>
        <path id="DejaVuSans-38" d="M 2034 2216 
Q 1584 2216 1326 1975 
Q 1069 1734 1069 1313 
Q 1069 891 1326 650 
Q 1584 409 2034 409 
Q 2484 409 2743 651 
Q 3003 894 3003 1313 
Q 3003 1734 2745 1975 
Q 2488 2216 2034 2216 
z
M 1403 2484 
Q 997 2584 770 2862 
Q 544 3141 544 3541 
Q 544 4100 942 4425 
Q 1341 4750 2034 4750 
Q 2731 4750 3128 4425 
Q 3525 4100 3525 3541 
Q 3525 3141 3298 2862 
Q 3072 2584 2669 2484 
Q 3125 2378 3379 2068 
Q 3634 1759 3634 1313 
Q 3634 634 3220 271 
Q 2806 -91 2034 -91 
Q 1263 -91 848 271 
Q 434 634 434 1313 
Q 434 1759 690 2068 
Q 947 2378 1403 2484 
z
M 1172 3481 
Q 1172 3119 1398 2916 
Q 1625 2713 2034 2713 
Q 2441 2713 2670 2916 
Q 2900 3119 2900 3481 
Q 2900 3844 2670 4047 
Q 2441 4250 2034 4250 
Q 1625 4250 1398 4047 
Q 1172 3844 1172 3481 
z
" transform="scale(0.015625)"/>
       </defs>
       <use xlink:href="#DejaVuSans-38"/>
       <use xlink:href="#DejaVuSans-30" transform="translate(63.623047 0)"/>
       <use xlink:href="#DejaVuSans-30" transform="translate(127.246094 0)"/>
       <use xlink:href="#DejaVuSans-30" transform="translate(190.869141 0)"/>
       <use xlink:href="#DejaVuSans-30" transform="translate(254.492188 0)"/>
      </g>
     </g>
    </g>
    <g id="xtick_6">
     <g id="line2d_11">
      <path d="M 610.700511 282.04 
L 610.700511 26.88 
" clip-path="url(#p5753aa5573)" style="fill: none; stroke-dasharray: 0.5,0.825; stroke-dashoffset: 0; stroke: #b0b0b0; stroke-opacity: 0.6; stroke-width: 0.5"/>
     </g>
     <g id="line2d_12">
      <g>
       <use xlink:href="#me2390fd54b" x="610.700511" y="282.04" style="stroke: #000000; stroke-width: 0.8"/>
      </g>
     </g>
     <g id="text_6">
      <!-- 100000 -->
      <g transform="translate(591.613011 296.638438) scale(0.1 -0.1)">
       <defs>
        <path id="DejaVuSans-31" d="M 794 531 
L 1825 531 
L 1825 4091 
L 703 3866 
L 703 4441 
L 1819 4666 
L 2450 4666 
L 2450 531 
L 3481 531 
L 3481 0 
L 794 0 
L 794 531 
z
" transform="scale(0.015625)"/>
       </defs>
       <use xlink:href="#DejaVuSans-31"/>
       <use xlink:href="#DejaVuSans-30" transform="translate(63.623047 0)"/>
       <use xlink:href="#DejaVuSans-30" transform="translate(127.246094 0)"/>
       <use xlink:href="#DejaVuSans-30" transform="translate(190.869141 0)"/>
       <use xlink:href="#DejaVuSans-30" transform="translate(254.492188 0)"/>
       <use xlink:href="#DejaVuSans-30" transform="translate(318.115234 0)"/>
      </g>
     </g>
    </g>
    <g id="text_7">
     <!-- Sample index -->
     <g transform="translate(311.687656 310.316563) scale(0.1 -0.1)">
      <defs>
       <path id="DejaVuSans-53" d="M 3425 4513 
L 3425 3897 
Q 3066 4069 2747 4153 
Q 2428 4238 2131 4238 
Q 1616 4238 1336 4038 
Q 1056 3838 1056 3469 
Q 1056 3159 1242 3001 
Q 1428 2844 1947 2747 
L 2328 2669 
Q 3034 2534 3370 2195 
Q 3706 1856 3706 1288 
Q 3706 609 3251 259 
Q 2797 -91 1919 -91 
Q 1588 -91 1214 -16 
Q 841 59 441 206 
L 441 856 
Q 825 641 1194 531 
Q 1563 422 1919 422 
Q 2459 422 2753 634 
Q 3047 847 3047 1241 
Q 3047 1584 2836 1778 
Q 2625 1972 2144 2069 
L 1759 2144 
Q 1053 2284 737 2584 
Q 422 2884 422 3419 
Q 422 4038 858 4394 
Q 1294 4750 2059 4750 
Q 2388 4750 2728 4690 
Q 3069 4631 3425 4513 
z
" transform="scale(0.015625)"/>
       <path id="DejaVuSans-61" d="M 2194 1759 
Q 1497 1759 1228 1600 
Q 959 1441 959 1056 
Q 959 750 1161 570 
Q 1363 391 1709 391 
Q 2188 391 2477 730 
Q 2766 1069 2766 1631 
L 2766 1759 
L 2194 1759 
z
M 3341 1997 
L 3341 0 
L 2766 0 
L 2766 531 
Q 2569 213 2275 61 
Q 1981 -91 1556 -91 
Q 1019 -91 701 211 
Q 384 513 384 1019 
Q 384 1609 779 1909 
Q 1175 2209 1959 2209 
L 2766 2209 
L 2766 2266 
Q 2766 2663 2505 2880 
Q 2244 3097 1772 3097 
Q 1472 3097 1187 3025 
Q 903 2953 641 2809 
L 641 3341 
Q 956 3463 1253 3523 
Q 1550 3584 1831 3584 
Q 2591 3584 2966 3190 
Q 3341 2797 3341 1997 
z
" transform="scale(0.015625)"/>
       <path id="DejaVuSans-6d" d="M 3328 2828 
Q 3544 3216 3844 3400 
Q 4144 3584 4550 3584 
Q 5097 3584 5394 3201 
Q 5691 2819 5691 2113 
L 5691 0 
L 5113 0 
L 5113 2094 
Q 5113 2597 4934 2840 
Q 4756 3084 4391 3084 
Q 3944 3084 3684 2787 
Q 3425 2491 3425 1978 
L 3425 0 
L 2847 0 
L 2847 2094 
Q 2847 2600 2669 2842 
Q 2491 3084 2119 3084 
Q 1678 3084 1418 2786 
Q 1159 2488 1159 1978 
L 1159 0 
L 581 0 
L 581 3500 
L 1159 3500 
L 1159 2956 
Q 1356 3278 1631 3431 
Q 1906 3584 2284 3584 
Q 2666 3584 2933 3390 
Q 3200 3197 3328 2828 
z
" transform="scale(0.015625)"/>
       <path id="DejaVuSans-70" d="M 1159 525 
L 1159 -1331 
L 581 -1331 
L 581 3500 
L 1159 3500 
L 1159 2969 
Q 1341 3281 1617 3432 
Q 1894 3584 2278 3584 
Q 2916 3584 3314 3078 
Q 3713 2572 3713 1747 
Q 3713 922 3314 415 
Q 2916 -91 2278 -91 
Q 1894 -91 1617 61 
Q 1341 213 1159 525 
z
M 3116 1747 
Q 3116 2381 2855 2742 
Q 2594 3103 2138 3103 
Q 1681 3103 1420 2742 
Q 1159 2381 1159 1747 
Q 1159 1113 1420 752 
Q 1681 391 2138 391 
Q 2594 391 2855 752 
Q 3116 1113 3116 1747 
z
" transform="scale(0.015625)"/>
       <path id="DejaVuSans-6c" d="M 603 4863 
L 1178 4863 
L 1178 0 
L 603 0 
L 603 4863 
z
" transform="scale(0.015625)"/>
       <path id="DejaVuSans-65" d="M 3597 1894 
L 3597 1613 
L 953 1613 
Q 991 1019 1311 708 
Q 1631 397 2203 397 
Q 2534 397 2845 478 
Q 3156 559 3463 722 
L 3463 178 
Q 3153 47 2828 -22 
Q 2503 -91 2169 -91 
Q 1331 -91 842 396 
Q 353 884 353 1716 
Q 353 2575 817 3079 
Q 1281 3584 2069 3584 
Q 2775 3584 3186 3129 
Q 3597 2675 3597 1894 
z
M 3022 2063 
Q 3016 2534 2758 2815 
Q 2500 3097 2075 3097 
Q 1594 3097 1305 2825 
Q 1016 2553 972 2059 
L 3022 2063 
z
" transform="scale(0.015625)"/>
       <path id="DejaVuSans-20" transform="scale(0.015625)"/>
       <path id="DejaVuSans-69" d="M 603 3500 
L 1178 3500 
L 1178 0 
L 603 0 
L 603 3500 
z
M 603 4863 
L 1178 4863 
L 1178 4134 
L 603 4134 
L 603 4863 
z
" transform="scale(0.015625)"/>
       <path id="DejaVuSans-6e" d="M 3513 2113 
L 3513 0 
L 2938 0 
L 2938 2094 
Q 2938 2591 2744 2837 
Q 2550 3084 2163 3084 
Q 1697 3084 1428 2787 
Q 1159 2491 1159 1978 
L 1159 0 
L 581 0 
L 581 3500 
L 1159 3500 
L 1159 2956 
Q 1366 3272 1645 3428 
Q 1925 3584 2291 3584 
Q 2894 3584 3203 3211 
Q 3513 2838 3513 2113 
z
" transform="scale(0.015625)"/>
       <path id="DejaVuSans-64" d="M 2906 2969 
L 2906 4863 
L 3481 4863 
L 3481 0 
L 2906 0 
L 2906 525 
Q 2725 213 2448 61 
Q 2172 -91 1784 -91 
Q 1150 -91 751 415 
Q 353 922 353 1747 
Q 353 2572 751 3078 
Q 1150 3584 1784 3584 
Q 2172 3584 2448 3432 
Q 2725 3281 2906 2969 
z
M 947 1747 
Q 947 1113 1208 752 
Q 1469 391 1925 391 
Q 2381 391 2643 752 
Q 2906 1113 2906 1747 
Q 2906 2381 2643 2742 
Q 2381 3103 1925 3103 
Q 1469 3103 1208 2742 
Q 947 2381 947 1747 
z
" transform="scale(0.015625)"/>
       <path id="DejaVuSans-78" d="M 3513 3500 
L 2247 1797 
L 3578 0 
L 2900 0 
L 1881 1375 
L 863 0 
L 184 0 
L 1544 1831 
L 300 3500 
L 978 3500 
L 1906 2253 
L 2834 3500 
L 3513 3500 
z
" transform="scale(0.015625)"/>
      </defs>
      <use xlink:href="#DejaVuSans-53"/>
      <use xlink:href="#DejaVuSans-61" transform="translate(63.476562 0)"/>
      <use xlink:href="#DejaVuSans-6d" transform="translate(124.755859 0)"/>
      <use xlink:href="#DejaVuSans-70" transform="translate(222.167969 0)"/>
      <use xlink:href="#DejaVuSans-6c" transform="translate(285.644531 0)"/>
      <use xlink:href="#DejaVuSans-65" transform="translate(313.427734 0)"/>
      <use xlink:href="#DejaVuSans-20" transform="translate(374.951172 0)"/>
      <use xlink:href="#DejaVuSans-69" transform="translate(406.738281 0)"/>
      <use xlink:href="#DejaVuSans-6e" transform="translate(434.521484 0)"/>
      <use xlink:href="#DejaVuSans-64" transform="translate(497.900391 0)"/>
      <use xlink:href="#DejaVuSans-65" transform="translate(561.376953 0)"/>
      <use xlink:href="#DejaVuSans-78" transform="translate(621.150391 0)"/>
     </g>
    </g>
   </g>
   <g id="matplotlib.axis_2">
    <g id="ytick_1">
     <g id="line2d_13">
      <path d="M 54.21125 258.760869 
L 637.2 258.760869 
" clip-path="url(#p5753aa5573)" style="fill: none; stroke-dasharray: 0.5,0.825; stroke-dashoffset: 0; stroke: #b0b0b0; stroke-opacity: 0.6; stroke-width: 0.5"/>
     </g>
     <g id="line2d_14">
      <defs>
       <path id="maca7466a3c" d="M 0 0 
L -3.5 0 
" style="stroke: #000000; stroke-width: 0.8"/>
      </defs>
      <g>
       <use xlink:href="#maca7466a3c" x="54.21125" y="258.760869" style="stroke: #000000; stroke-width: 0.8"/>
      </g>
     </g>
     <g id="text_8">
      <!-- 0.07 -->
      <g transform="translate(24.945625 262.560088) scale(0.1 -0.1)">
       <defs>
        <path id="DejaVuSans-2e" d="M 684 794 
L 1344 794 
L 1344 0 
L 684 0 
L 684 794 
z
" transform="scale(0.015625)"/>
        <path id="DejaVuSans-37" d="M 525 4666 
L 3525 4666 
L 3525 4397 
L 1831 0 
L 1172 0 
L 2766 4134 
L 525 4134 
L 525 4666 
z
" transform="scale(0.015625)"/>
       </defs>
       <use xlink:href="#DejaVuSans-30"/>
       <use xlink:href="#DejaVuSans-2e" transform="translate(63.623047 0)"/>
       <use xlink:href="#DejaVuSans-30" transform="translate(95.410156 0)"/>
       <use xlink:href="#DejaVuSans-37" transform="translate(159.033203 0)"/>
      </g>
     </g>
    </g>
    <g id="ytick_2">
     <g id="line2d_15">
      <path d="M 54.21125 226.333469 
L 637.2 226.333469 
" clip-path="url(#p5753aa5573)" style="fill: none; stroke-dasharray: 0.5,0.825; stroke-dashoffset: 0; stroke: #b0b0b0; stroke-opacity: 0.6; stroke-width: 0.5"/>
     </g>
     <g id="line2d_16">
      <g>
       <use xlink:href="#maca7466a3c" x="54.21125" y="226.333469" style="stroke: #000000; stroke-width: 0.8"/>
      </g>
     </g>
     <g id="text_9">
      <!-- 0.08 -->
      <g transform="translate(24.945625 230.132688) scale(0.1 -0.1)">
       <use xlink:href="#DejaVuSans-30"/>
       <use xlink:href="#DejaVuSans-2e" transform="translate(63.623047 0)"/>
       <use xlink:href="#DejaVuSans-30" transform="translate(95.410156 0)"/>
       <use xlink:href="#DejaVuSans-38" transform="translate(159.033203 0)"/>
      </g>
     </g>
    </g>
    <g id="ytick_3">
     <g id="line2d_17">
      <path d="M 54.21125 193.906068 
L 637.2 193.906068 
" clip-path="url(#p5753aa5573)" style="fill: none; stroke-dasharray: 0.5,0.825; stroke-dashoffset: 0; stroke: #b0b0b0; stroke-opacity: 0.6; stroke-width: 0.5"/>
     </g>
     <g id="line2d_18">
      <g>
       <use xlink:href="#maca7466a3c" x="54.21125" y="193.906068" style="stroke: #000000; stroke-width: 0.8"/>
      </g>
     </g>
     <g id="text_10">
      <!-- 0.09 -->
      <g transform="translate(24.945625 197.705287) scale(0.1 -0.1)">
       <defs>
        <path id="DejaVuSans-39" d="M 703 97 
L 703 672 
Q 941 559 1184 500 
Q 1428 441 1663 441 
Q 2288 441 2617 861 
Q 2947 1281 2994 2138 
Q 2813 1869 2534 1725 
Q 2256 1581 1919 1581 
Q 1219 1581 811 2004 
Q 403 2428 403 3163 
Q 403 3881 828 4315 
Q 1253 4750 1959 4750 
Q 2769 4750 3195 4129 
Q 3622 3509 3622 2328 
Q 3622 1225 3098 567 
Q 2575 -91 1691 -91 
Q 1453 -91 1209 -44 
Q 966 3 703 97 
z
M 1959 2075 
Q 2384 2075 2632 2365 
Q 2881 2656 2881 3163 
Q 2881 3666 2632 3958 
Q 2384 4250 1959 4250 
Q 1534 4250 1286 3958 
Q 1038 3666 1038 3163 
Q 1038 2656 1286 2365 
Q 1534 2075 1959 2075 
z
" transform="scale(0.015625)"/>
       </defs>
       <use xlink:href="#DejaVuSans-30"/>
       <use xlink:href="#DejaVuSans-2e" transform="translate(63.623047 0)"/>
       <use xlink:href="#DejaVuSans-30" transform="translate(95.410156 0)"/>
       <use xlink:href="#DejaVuSans-39" transform="translate(159.033203 0)"/>
      </g>
     </g>
    </g>
    <g id="ytick_4">
     <g id="line2d_19">
      <path d="M 54.21125 161.478667 
L 637.2 161.478667 
" clip-path="url(#p5753aa5573)" style="fill: none; stroke-dasharray: 0.5,0.825; stroke-dashoffset: 0; stroke: #b0b0b0; stroke-opacity: 0.6; stroke-width: 0.5"/>
     </g>
     <g id="line2d_20">
      <g>
       <use xlink:href="#maca7466a3c" x="54.21125" y="161.478667" style="stroke: #000000; stroke-width: 0.8"/>
      </g>
     </g>
     <g id="text_11">
      <!-- 0.10 -->
      <g transform="translate(24.945625 165.277886) scale(0.1 -0.1)">
       <use xlink:href="#DejaVuSans-30"/>
       <use xlink:href="#DejaVuSans-2e" transform="translate(63.623047 0)"/>
       <use xlink:href="#DejaVuSans-31" transform="translate(95.410156 0)"/>
       <use xlink:href="#DejaVuSans-30" transform="translate(159.033203 0)"/>
      </g>
     </g>
    </g>
    <g id="ytick_5">
     <g id="line2d_21">
      <path d="M 54.21125 129.051267 
L 637.2 129.051267 
" clip-path="url(#p5753aa5573)" style="fill: none; stroke-dasharray: 0.5,0.825; stroke-dashoffset: 0; stroke: #b0b0b0; stroke-opacity: 0.6; stroke-width: 0.5"/>
     </g>
     <g id="line2d_22">
      <g>
       <use xlink:href="#maca7466a3c" x="54.21125" y="129.051267" style="stroke: #000000; stroke-width: 0.8"/>
      </g>
     </g>
     <g id="text_12">
      <!-- 0.11 -->
      <g transform="translate(24.945625 132.850485) scale(0.1 -0.1)">
       <use xlink:href="#DejaVuSans-30"/>
       <use xlink:href="#DejaVuSans-2e" transform="translate(63.623047 0)"/>
       <use xlink:href="#DejaVuSans-31" transform="translate(95.410156 0)"/>
       <use xlink:href="#DejaVuSans-31" transform="translate(159.033203 0)"/>
      </g>
     </g>
    </g>
    <g id="ytick_6">
     <g id="line2d_23">
      <path d="M 54.21125 96.623866 
L 637.2 96.623866 
" clip-path="url(#p5753aa5573)" style="fill: none; stroke-dasharray: 0.5,0.825; stroke-dashoffset: 0; stroke: #b0b0b0; stroke-opacity: 0.6; stroke-width: 0.5"/>
     </g>
     <g id="line2d_24">
      <g>
       <use xlink:href="#maca7466a3c" x="54.21125" y="96.623866" style="stroke: #000000; stroke-width: 0.8"/>
      </g>
     </g>
     <g id="text_13">
      <!-- 0.12 -->
      <g transform="translate(24.945625 100.423085) scale(0.1 -0.1)">
       <use xlink:href="#DejaVuSans-30"/>
       <use xlink:href="#DejaVuSans-2e" transform="translate(63.623047 0)"/>
       <use xlink:href="#DejaVuSans-31" transform="translate(95.410156 0)"/>
       <use xlink:href="#DejaVuSans-32" transform="translate(159.033203 0)"/>
      </g>
     </g>
    </g>
    <g id="ytick_7">
     <g id="line2d_25">
      <path d="M 54.21125 64.196465 
L 637.2 64.196465 
" clip-path="url(#p5753aa5573)" style="fill: none; stroke-dasharray: 0.5,0.825; stroke-dashoffset: 0; stroke: #b0b0b0; stroke-opacity: 0.6; stroke-width: 0.5"/>
     </g>
     <g id="line2d_26">
      <g>
       <use xlink:href="#maca7466a3c" x="54.21125" y="64.196465" style="stroke: #000000; stroke-width: 0.8"/>
      </g>
     </g>
     <g id="text_14">
      <!-- 0.13 -->
      <g transform="translate(24.945625 67.995684) scale(0.1 -0.1)">
       <defs>
        <path id="DejaVuSans-33" d="M 2597 2516 
Q 3050 2419 3304 2112 
Q 3559 1806 3559 1356 
Q 3559 666 3084 287 
Q 2609 -91 1734 -91 
Q 1441 -91 1130 -33 
Q 819 25 488 141 
L 488 750 
Q 750 597 1062 519 
Q 1375 441 1716 441 
Q 2309 441 2620 675 
Q 2931 909 2931 1356 
Q 2931 1769 2642 2001 
Q 2353 2234 1838 2234 
L 1294 2234 
L 1294 2753 
L 1863 2753 
Q 2328 2753 2575 2939 
Q 2822 3125 2822 3475 
Q 2822 3834 2567 4026 
Q 2313 4219 1838 4219 
Q 1578 4219 1281 4162 
Q 984 4106 628 3988 
L 628 4550 
Q 988 4650 1302 4700 
Q 1616 4750 1894 4750 
Q 2613 4750 3031 4423 
Q 3450 4097 3450 3541 
Q 3450 3153 3228 2886 
Q 3006 2619 2597 2516 
z
" transform="scale(0.015625)"/>
       </defs>
       <use xlink:href="#DejaVuSans-30"/>
       <use xlink:href="#DejaVuSans-2e" transform="translate(63.623047 0)"/>
       <use xlink:href="#DejaVuSans-31" transform="translate(95.410156 0)"/>
       <use xlink:href="#DejaVuSans-33" transform="translate(159.033203 0)"/>
      </g>
     </g>
    </g>
    <g id="ytick_8">
     <g id="line2d_27">
      <path d="M 54.21125 31.769064 
L 637.2 31.769064 
" clip-path="url(#p5753aa5573)" style="fill: none; stroke-dasharray: 0.5,0.825; stroke-dashoffset: 0; stroke: #b0b0b0; stroke-opacity: 0.6; stroke-width: 0.5"/>
     </g>
     <g id="line2d_28">
      <g>
       <use xlink:href="#maca7466a3c" x="54.21125" y="31.769064" style="stroke: #000000; stroke-width: 0.8"/>
      </g>
     </g>
     <g id="text_15">
      <!-- 0.14 -->
      <g transform="translate(24.945625 35.568283) scale(0.1 -0.1)">
       <use xlink:href="#DejaVuSans-30"/>
       <use xlink:href="#DejaVuSans-2e" transform="translate(63.623047 0)"/>
       <use xlink:href="#DejaVuSans-31" transform="translate(95.410156 0)"/>
       <use xlink:href="#DejaVuSans-34" transform="translate(159.033203 0)"/>
      </g>
     </g>
    </g>
    <g id="text_16">
     <!-- Running mean of reock_proxy_pct_below_030 -->
     <g transform="translate(18.587812 268.592031) rotate(-90) scale(0.1 -0.1)">
      <defs>
       <path id="DejaVuSans-52" d="M 2841 2188 
Q 3044 2119 3236 1894 
Q 3428 1669 3622 1275 
L 4263 0 
L 3584 0 
L 2988 1197 
Q 2756 1666 2539 1819 
Q 2322 1972 1947 1972 
L 1259 1972 
L 1259 0 
L 628 0 
L 628 4666 
L 2053 4666 
Q 2853 4666 3247 4331 
Q 3641 3997 3641 3322 
Q 3641 2881 3436 2590 
Q 3231 2300 2841 2188 
z
M 1259 4147 
L 1259 2491 
L 2053 2491 
Q 2509 2491 2742 2702 
Q 2975 2913 2975 3322 
Q 2975 3731 2742 3939 
Q 2509 4147 2053 4147 
L 1259 4147 
z
" transform="scale(0.015625)"/>
       <path id="DejaVuSans-75" d="M 544 1381 
L 544 3500 
L 1119 3500 
L 1119 1403 
Q 1119 906 1312 657 
Q 1506 409 1894 409 
Q 2359 409 2629 706 
Q 2900 1003 2900 1516 
L 2900 3500 
L 3475 3500 
L 3475 0 
L 2900 0 
L 2900 538 
Q 2691 219 2414 64 
Q 2138 -91 1772 -91 
Q 1169 -91 856 284 
Q 544 659 544 1381 
z
M 1991 3584 
L 1991 3584 
z
" transform="scale(0.015625)"/>
       <path id="DejaVuSans-67" d="M 2906 1791 
Q 2906 2416 2648 2759 
Q 2391 3103 1925 3103 
Q 1463 3103 1205 2759 
Q 947 2416 947 1791 
Q 947 1169 1205 825 
Q 1463 481 1925 481 
Q 2391 481 2648 825 
Q 2906 1169 2906 1791 
z
M 3481 434 
Q 3481 -459 3084 -895 
Q 2688 -1331 1869 -1331 
Q 1566 -1331 1297 -1286 
Q 1028 -1241 775 -1147 
L 775 -588 
Q 1028 -725 1275 -790 
Q 1522 -856 1778 -856 
Q 2344 -856 2625 -561 
Q 2906 -266 2906 331 
L 2906 616 
Q 2728 306 2450 153 
Q 2172 0 1784 0 
Q 1141 0 747 490 
Q 353 981 353 1791 
Q 353 2603 747 3093 
Q 1141 3584 1784 3584 
Q 2172 3584 2450 3431 
Q 2728 3278 2906 2969 
L 2906 3500 
L 3481 3500 
L 3481 434 
z
" transform="scale(0.015625)"/>
       <path id="DejaVuSans-6f" d="M 1959 3097 
Q 1497 3097 1228 2736 
Q 959 2375 959 1747 
Q 959 1119 1226 758 
Q 1494 397 1959 397 
Q 2419 397 2687 759 
Q 2956 1122 2956 1747 
Q 2956 2369 2687 2733 
Q 2419 3097 1959 3097 
z
M 1959 3584 
Q 2709 3584 3137 3096 
Q 3566 2609 3566 1747 
Q 3566 888 3137 398 
Q 2709 -91 1959 -91 
Q 1206 -91 779 398 
Q 353 888 353 1747 
Q 353 2609 779 3096 
Q 1206 3584 1959 3584 
z
" transform="scale(0.015625)"/>
       <path id="DejaVuSans-66" d="M 2375 4863 
L 2375 4384 
L 1825 4384 
Q 1516 4384 1395 4259 
Q 1275 4134 1275 3809 
L 1275 3500 
L 2222 3500 
L 2222 3053 
L 1275 3053 
L 1275 0 
L 697 0 
L 697 3053 
L 147 3053 
L 147 3500 
L 697 3500 
L 697 3744 
Q 697 4328 969 4595 
Q 1241 4863 1831 4863 
L 2375 4863 
z
" transform="scale(0.015625)"/>
       <path id="DejaVuSans-72" d="M 2631 2963 
Q 2534 3019 2420 3045 
Q 2306 3072 2169 3072 
Q 1681 3072 1420 2755 
Q 1159 2438 1159 1844 
L 1159 0 
L 581 0 
L 581 3500 
L 1159 3500 
L 1159 2956 
Q 1341 3275 1631 3429 
Q 1922 3584 2338 3584 
Q 2397 3584 2469 3576 
Q 2541 3569 2628 3553 
L 2631 2963 
z
" transform="scale(0.015625)"/>
       <path id="DejaVuSans-63" d="M 3122 3366 
L 3122 2828 
Q 2878 2963 2633 3030 
Q 2388 3097 2138 3097 
Q 1578 3097 1268 2742 
Q 959 2388 959 1747 
Q 959 1106 1268 751 
Q 1578 397 2138 397 
Q 2388 397 2633 464 
Q 2878 531 3122 666 
L 3122 134 
Q 2881 22 2623 -34 
Q 2366 -91 2075 -91 
Q 1284 -91 818 406 
Q 353 903 353 1747 
Q 353 2603 823 3093 
Q 1294 3584 2113 3584 
Q 2378 3584 2631 3529 
Q 2884 3475 3122 3366 
z
" transform="scale(0.015625)"/>
       <path id="DejaVuSans-6b" d="M 581 4863 
L 1159 4863 
L 1159 1991 
L 2875 3500 
L 3609 3500 
L 1753 1863 
L 3688 0 
L 2938 0 
L 1159 1709 
L 1159 0 
L 581 0 
L 581 4863 
z
" transform="scale(0.015625)"/>
       <path id="DejaVuSans-5f" d="M 3263 -1063 
L 3263 -1509 
L -63 -1509 
L -63 -1063 
L 3263 -1063 
z
" transform="scale(0.015625)"/>
       <path id="DejaVuSans-79" d="M 2059 -325 
Q 1816 -950 1584 -1140 
Q 1353 -1331 966 -1331 
L 506 -1331 
L 506 -850 
L 844 -850 
Q 1081 -850 1212 -737 
Q 1344 -625 1503 -206 
L 1606 56 
L 191 3500 
L 800 3500 
L 1894 763 
L 2988 3500 
L 3597 3500 
L 2059 -325 
z
" transform="scale(0.015625)"/>
       <path id="DejaVuSans-74" d="M 1172 4494 
L 1172 3500 
L 2356 3500 
L 2356 3053 
L 1172 3053 
L 1172 1153 
Q 1172 725 1289 603 
Q 1406 481 1766 481 
L 2356 481 
L 2356 0 
L 1766 0 
Q 1100 0 847 248 
Q 594 497 594 1153 
L 594 3053 
L 172 3053 
L 172 3500 
L 594 3500 
L 594 4494 
L 1172 4494 
z
" transform="scale(0.015625)"/>
       <path id="DejaVuSans-62" d="M 3116 1747 
Q 3116 2381 2855 2742 
Q 2594 3103 2138 3103 
Q 1681 3103 1420 2742 
Q 1159 2381 1159 1747 
Q 1159 1113 1420 752 
Q 1681 391 2138 391 
Q 2594 391 2855 752 
Q 3116 1113 3116 1747 
z
M 1159 2969 
Q 1341 3281 1617 3432 
Q 1894 3584 2278 3584 
Q 2916 3584 3314 3078 
Q 3713 2572 3713 1747 
Q 3713 922 3314 415 
Q 2916 -91 2278 -91 
Q 1894 -91 1617 61 
Q 1341 213 1159 525 
L 1159 0 
L 581 0 
L 581 4863 
L 1159 4863 
L 1159 2969 
z
" transform="scale(0.015625)"/>
       <path id="DejaVuSans-77" d="M 269 3500 
L 844 3500 
L 1563 769 
L 2278 3500 
L 2956 3500 
L 3675 769 
L 4391 3500 
L 4966 3500 
L 4050 0 
L 3372 0 
L 2619 2869 
L 1863 0 
L 1184 0 
L 269 3500 
z
" transform="scale(0.015625)"/>
      </defs>
      <use xlink:href="#DejaVuSans-52"/>
      <use xlink:href="#DejaVuSans-75" transform="translate(64.982422 0)"/>
      <use xlink:href="#DejaVuSans-6e" transform="translate(128.361328 0)"/>
      <use xlink:href="#DejaVuSans-6e" transform="translate(191.740234 0)"/>
      <use xlink:href="#DejaVuSans-69" transform="translate(255.119141 0)"/>
      <use xlink:href="#DejaVuSans-6e" transform="translate(282.902344 0)"/>
      <use xlink:href="#DejaVuSans-67" transform="translate(346.28125 0)"/>
      <use xlink:href="#DejaVuSans-20" transform="translate(409.757812 0)"/>
      <use xlink:href="#DejaVuSans-6d" transform="translate(441.544922 0)"/>
      <use xlink:href="#DejaVuSans-65" transform="translate(538.957031 0)"/>
      <use xlink:href="#DejaVuSans-61" transform="translate(600.480469 0)"/>
      <use xlink:href="#DejaVuSans-6e" transform="translate(661.759766 0)"/>
      <use xlink:href="#DejaVuSans-20" transform="translate(725.138672 0)"/>
      <use xlink:href="#DejaVuSans-6f" transform="translate(756.925781 0)"/>
      <use xlink:href="#DejaVuSans-66" transform="translate(818.107422 0)"/>
      <use xlink:href="#DejaVuSans-20" transform="translate(853.3125 0)"/>
      <use xlink:href="#DejaVuSans-72" transform="translate(885.099609 0)"/>
      <use xlink:href="#DejaVuSans-65" transform="translate(923.962891 0)"/>
      <use xlink:href="#DejaVuSans-6f" transform="translate(985.486328 0)"/>
      <use xlink:href="#DejaVuSans-63" transform="translate(1046.667969 0)"/>
      <use xlink:href="#DejaVuSans-6b" transform="translate(1101.648438 0)"/>
      <use xlink:href="#DejaVuSans-5f" transform="translate(1159.558594 0)"/>
      <use xlink:href="#DejaVuSans-70" transform="translate(1209.558594 0)"/>
      <use xlink:href="#DejaVuSans-72" transform="translate(1273.035156 0)"/>
      <use xlink:href="#DejaVuSans-6f" transform="translate(1311.898438 0)"/>
      <use xlink:href="#DejaVuSans-78" transform="translate(1369.955078 0)"/>
      <use xlink:href="#DejaVuSans-79" transform="translate(1429.134766 0)"/>
      <use xlink:href="#DejaVuSans-5f" transform="translate(1488.314453 0)"/>
      <use xlink:href="#DejaVuSans-70" transform="translate(1538.314453 0)"/>
      <use xlink:href="#DejaVuSans-63" transform="translate(1601.791016 0)"/>
      <use xlink:href="#DejaVuSans-74" transform="translate(1656.771484 0)"/>
      <use xlink:href="#DejaVuSans-5f" transform="translate(1695.980469 0)"/>
      <use xlink:href="#DejaVuSans-62" transform="translate(1745.980469 0)"/>
      <use xlink:href="#DejaVuSans-65" transform="translate(1809.457031 0)"/>
      <use xlink:href="#DejaVuSans-6c" transform="translate(1870.980469 0)"/>
      <use xlink:href="#DejaVuSans-6f" transform="translate(1898.763672 0)"/>
      <use xlink:href="#DejaVuSans-77" transform="translate(1959.945312 0)"/>
      <use xlink:href="#DejaVuSans-5f" transform="translate(2041.732422 0)"/>
      <use xlink:href="#DejaVuSans-30" transform="translate(2091.732422 0)"/>
      <use xlink:href="#DejaVuSans-33" transform="translate(2155.355469 0)"/>
      <use xlink:href="#DejaVuSans-30" transform="translate(2218.978516 0)"/>
     </g>
    </g>
   </g>
   <g id="line2d_29">
    <path d="M 80.710739 38.478182 
L 80.716039 57.114619 
L 80.822038 41.866625 
L 80.827338 41.719301 
L 80.837937 44.441842 
L 80.986336 68.015177 
L 81.028736 64.141472 
L 81.097635 60.640431 
L 81.140035 63.932828 
L 81.717729 156.151183 
L 81.797229 161.876727 
L 82.274224 199.658179 
L 82.311324 199.255894 
L 82.549822 189.497587 
L 82.618721 193.041874 
L 82.910218 199.575846 
L 82.979118 201.557868 
L 83.159316 214.055156 
L 83.593912 230.245411 
L 83.668111 231.443653 
L 83.731711 231.04382 
L 83.901309 230.15842 
L 83.954308 229.889289 
L 84.081507 228.821448 
L 84.108007 229.196862 
L 85.242197 250.271711 
L 85.252796 250.299319 
L 85.289896 250.09331 
L 85.321696 249.919367 
L 85.353495 250.300309 
L 85.507194 251.336738 
L 85.517794 251.31943 
L 85.544294 251.174431 
L 85.618493 251.379875 
L 85.846391 252.547443 
L 85.856991 252.56713 
L 85.872891 252.367138 
L 86.068989 250.071723 
L 86.137888 250.369927 
L 86.217387 252.044584 
L 86.514185 257.762392 
L 86.577784 257.674977 
L 86.821582 256.010945 
L 86.938181 256.251923 
L 87.07068 256.591222 
L 87.086579 256.512114 
L 87.282678 254.99724 
L 87.378077 254.003619 
L 87.441676 254.432113 
L 87.976971 258.746743 
L 88.443367 264.387542 
L 88.846163 267.114264 
L 88.920362 267.405772 
L 88.957462 267.118659 
L 89.445057 259.60646 
L 89.551056 260.284167 
L 89.630556 260.610348 
L 89.667655 260.330033 
L 89.895553 256.182722 
L 90.388449 250.221566 
L 90.674646 248.403132 
L 90.992643 247.386786 
L 91.135742 247.058551 
L 91.188741 246.701267 
L 91.384839 245.911439 
L 91.443139 245.613075 
L 91.496138 245.877197 
L 91.787636 247.552091 
L 91.893635 247.301624 
L 92.063233 247.088007 
L 92.089733 247.140339 
L 92.222232 247.312625 
L 92.153332 247.068231 
L 92.275231 247.209693 
L 92.34943 246.982336 
L 92.39713 247.162348 
L 92.736327 248.733317 
L 92.837026 248.648994 
L 93.197423 248.025428 
L 93.229222 248.108525 
L 93.287522 248.251929 
L 93.340521 248.122466 
L 93.552519 246.569687 
L 93.785717 245.638643 
L 93.918216 245.430098 
L 93.950016 245.55965 
L 94.368712 247.700744 
L 94.55951 248.441103 
L 94.760908 248.763531 
L 94.957006 249.099724 
L 95.147804 250.17443 
L 95.375702 251.194799 
L 95.386302 251.202684 
L 95.439302 251.107863 
L 95.804998 250.249336 
L 95.995797 248.265681 
L 96.626491 242.374701 
L 96.73779 242.068166 
L 96.785489 242.201345 
L 96.976287 243.272594 
L 97.267785 244.749251 
L 97.347284 244.986524 
L 97.553982 245.618752 
L 97.569882 245.599164 
L 97.617581 245.540621 
L 97.665281 245.657125 
L 97.967378 246.048153 
L 98.004478 245.888481 
L 98.253576 244.509033 
L 98.481473 244.045752 
L 98.502673 244.067276 
L 98.598072 244.318072 
L 98.693471 244.621118 
L 98.778271 244.517385 
L 99.218167 243.046826 
L 99.313566 243.18705 
L 99.403665 243.13035 
L 99.562663 243.080911 
L 99.573263 243.112544 
L 100.230457 245.411434 
L 101.783343 254.898905 
L 101.910542 255.053984 
L 101.947641 255.001219 
L 102.06954 254.681196 
L 102.143739 254.891217 
L 102.763834 256.822716 
L 102.800933 256.929948 
L 102.991731 257.213668 
L 103.087131 256.881515 
L 103.574726 254.470818 
L 103.786724 254.018955 
L 103.871523 253.869519 
L 103.961622 253.960925 
L 104.019922 254.0491 
L 104.078221 253.959346 
L 104.518117 252.384495 
L 105.233611 247.876353 
L 105.34491 247.627993 
L 105.949104 245.689696 
L 106.155802 245.489336 
L 106.177002 245.495418 
L 106.208802 245.585853 
L 106.632798 247.029514 
L 106.717597 246.995157 
L 106.839496 247.148831 
L 106.876595 247.079469 
L 107.178693 246.557081 
L 107.215792 246.578854 
L 107.395991 246.80957 
L 107.49669 246.918713 
L 107.528489 246.870447 
L 107.904786 246.093612 
L 107.947185 246.205567 
L 108.318182 247.063196 
L 108.47718 247.078242 
L 108.49308 247.044192 
L 108.625579 246.769023 
L 108.673279 246.809323 
L 108.758078 246.735878 
L 109.023075 246.663544 
L 109.240373 246.905825 
L 109.415272 247.459489 
L 109.61137 247.832277 
L 109.791568 247.927557 
L 109.961167 248.124596 
L 110.358663 248.978322 
L 110.448762 249.137667 
L 110.62896 250.008016 
L 112.266645 258.410048 
L 112.293145 258.363125 
L 112.78604 257.010652 
L 112.79664 257.024649 
L 113.162337 257.520226 
L 113.215336 257.406188 
L 113.448534 256.969141 
L 113.459134 256.982869 
L 113.602233 257.053235 
L 113.628733 257.027309 
L 113.745332 256.758275 
L 113.962629 256.496282 
L 113.978529 256.516779 
L 114.111028 256.858315 
L 114.365426 257.349947 
L 114.482025 257.465823 
L 114.662223 257.775555 
L 114.858321 258.002918 
L 114.874221 257.987488 
L 115.494315 257.510263 
L 115.504915 257.523019 
L 115.626814 257.499452 
L 115.833512 257.419766 
L 116.06671 257.054094 
L 116.289308 256.980276 
L 116.670904 256.002149 
L 117.534796 252.22999 
L 118.085991 251.028162 
L 118.20259 250.820298 
L 118.525887 250.049798 
L 118.976383 249.624034 
L 119.734276 247.958417 
L 119.893274 248.131799 
L 120.062873 248.533365 
L 120.174172 248.666762 
L 120.211271 248.644389 
L 120.301371 248.630141 
L 120.32787 248.689017 
L 120.576968 249.37735 
L 120.661767 249.172016 
L 120.783666 249.152236 
L 121.011564 249.338257 
L 121.642258 250.297553 
L 121.870156 250.521342 
L 122.140453 250.673256 
L 122.209353 250.725569 
L 122.219953 250.747511 
L 122.54855 251.294728 
L 122.861247 251.871714 
L 123.433641 252.679316 
L 123.762238 253.278949 
L 124.037836 253.41265 
L 124.408832 253.59049 
L 124.869928 254.538295 
L 124.975927 254.444882 
L 125.262124 254.205971 
L 125.73382 254.398504 
L 126.221416 255.379576 
L 126.656011 255.54646 
L 126.915709 255.912545 
L 127.360905 256.183439 
L 127.652402 256.081414 
L 127.668302 256.108695 
L 127.9121 256.311288 
L 128.155898 256.232867 
L 128.256597 256.253633 
L 128.272496 256.28051 
L 128.685893 257.191275 
L 128.860791 257.50452 
L 128.871391 257.497332 
L 129.427886 257.254101 
L 129.724683 257.174727 
L 129.814782 256.986687 
L 129.984381 256.87606 
L 130.164579 256.891155 
L 130.265278 256.909742 
L 130.297078 256.865279 
L 130.874772 256.244537 
L 131.060271 256.372087 
L 131.547866 256.947814 
L 131.701565 257.067979 
L 132.284559 257.779948 
L 132.358758 257.778527 
L 132.385258 257.838088 
L 132.676756 258.226977 
L 132.803954 258.187178 
L 132.888754 258.250345 
L 133.196151 258.72459 
L 133.21735 258.714673 
L 133.402849 258.621682 
L 133.662546 258.224755 
L 133.879844 258.530426 
L 134.033543 258.600028 
L 134.574138 258.741654 
L 134.754336 258.807726 
L 135.019334 258.871146 
L 135.098833 258.984841 
L 136.604019 262.422884 
L 137.054515 263.538753 
L 137.240013 263.603967 
L 137.452011 263.706322 
L 138.072105 264.226318 
L 138.337103 264.970707 
L 138.713399 265.626468 
L 138.872398 265.990449 
L 139.089696 266.239941 
L 139.275194 266.220133 
L 139.561392 266.018927 
L 139.71509 266.226358 
L 139.974788 266.574974 
L 140.133786 266.666089 
L 140.335184 267.01182 
L 140.377584 266.981857 
L 140.700881 266.879902 
L 140.971178 267.025706 
L 141.416374 266.579713 
L 141.548873 266.453108 
L 141.585973 266.492647 
L 142.857961 268.519866 
L 143.504555 268.199126 
L 143.891451 268.515158 
L 144.161749 268.646664 
L 144.490346 268.551077 
L 144.654644 268.512919 
L 144.956741 268.304515 
L 145.08394 268.488669 
L 145.433737 269.272137 
L 145.682835 269.636887 
L 145.863033 269.597896 
L 146.864724 269.042695 
L 148.34341 270.398289 
L 148.550108 269.971237 
L 148.756806 269.828359 
L 148.910505 269.918142 
L 149.233802 270.212838 
L 149.477599 270.077852 
L 149.965195 269.665267 
L 150.155993 269.630304 
L 150.781387 269.354631 
L 150.993385 269.327176 
L 151.131184 269.116715 
L 151.470381 268.508095 
L 151.984476 268.085074 
L 152.138175 267.961611 
L 152.318373 267.723462 
L 152.535671 267.57999 
L 152.699969 267.537336 
L 153.293564 267.041239 
L 153.823559 267.399985 
L 154.056757 267.13811 
L 154.81995 266.470683 
L 155.450644 266.325574 
L 155.773941 266.02587 
L 156.017739 266.018457 
L 156.595433 265.57226 
L 157.342726 266.023151 
L 159.022811 268.199354 
L 159.208309 268.217691 
L 159.494506 268.185496 
L 159.722404 268.27799 
L 159.892002 268.227371 
L 160.040401 267.922118 
L 160.443197 267.228835 
L 160.649895 267.104419 
L 160.861893 266.987715 
L 161.434288 266.561647 
L 161.863584 266.134073 
L 162.234581 266.006752 
L 162.382979 265.808614 
L 163.252171 264.7694 
L 163.501269 264.386826 
L 163.766266 264.056129 
L 163.877565 264.117661 
L 163.978265 264.174546 
L 164.015364 264.126205 
L 164.190263 264.067569 
L 164.46586 264.072938 
L 164.953455 263.597339 
L 165.340352 263.485531 
L 165.50995 263.387286 
L 165.53115 263.405598 
L 165.759048 263.457883 
L 166.130044 263.341053 
L 166.458641 263.193531 
L 166.702439 263.176692 
L 166.988637 263.278488 
L 167.810129 264.154267 
L 168.085726 264.258613 
L 168.361324 264.346527 
L 168.880719 264.232569 
L 169.209316 264.365327 
L 169.82411 263.977409 
L 170.513104 262.77092 
L 170.703902 262.877085 
L 170.9477 262.93632 
L 172.240888 262.508206 
L 172.521785 262.504853 
L 172.887482 262.471163 
L 173.125979 262.448871 
L 173.300878 262.446107 
L 173.565875 262.4324 
L 174.064071 262.538623 
L 174.980962 263.125408 
L 175.27246 263.228831 
L 176.131052 264.06343 
L 177.069143 264.526214 
L 177.307641 264.634778 
L 177.599138 264.735253 
L 177.832336 264.773709 
L 178.213932 264.653906 
L 178.971825 264.459432 
L 179.183823 264.530613 
L 179.353422 264.474395 
L 179.55482 264.579503 
L 180.026515 264.935756 
L 180.265013 264.974636 
L 180.461111 264.8601 
L 181.075906 263.985173 
L 181.801999 263.088529 
L 182.146496 262.841801 
L 182.543992 262.565457 
L 182.79839 262.587555 
L 184.043878 263.356073 
L 184.478474 263.242371 
L 184.84947 263.107475 
L 185.119768 262.998959 
L 185.284066 262.950347 
L 186.492455 263.254529 
L 187.292748 263.081027 
L 187.700844 263.335825 
L 188.252039 263.579379 
L 188.707835 263.463456 
L 189.105331 263.436644 
L 189.502827 263.577074 
L 189.916223 263.303833 
L 190.419719 263.406412 
L 191.750006 264.161238 
L 192.322401 264.22685 
L 193.48309 263.931866 
L 194.251583 264.060493 
L 194.57488 263.973434 
L 195.088975 264.073886 
L 195.512971 264.218071 
L 195.69847 264.224987 
L 196.069466 264.42711 
L 196.906858 264.517552 
L 197.150656 264.64824 
L 197.712451 265.125689 
L 197.935049 265.184007 
L 198.237146 264.85173 
L 198.767141 264.347517 
L 199.880131 263.754798 
L 200.293527 263.767302 
L 201.00372 263.049795 
L 201.385317 262.680169 
L 201.586715 262.342582 
L 201.814613 262.188829 
L 202.334008 261.912408 
L 202.657305 261.76392 
L 203.2138 261.875166 
L 204.146591 262.838769 
L 204.438088 262.811521 
L 204.793185 262.588244 
L 204.999883 262.547725 
L 205.688877 262.655981 
L 206.589868 263.033441 
L 207.024464 263.377458 
L 207.692258 263.680391 
L 207.904256 263.718162 
L 208.349452 263.608881 
L 208.778748 263.170452 
L 208.996046 263.168665 
L 209.61084 263.056368 
L 209.849338 262.707401 
L 210.204435 262.165768 
L 210.74503 261.843508 
L 211.736121 262.017433 
L 212.213116 261.619718 
L 212.621212 261.417591 
L 213.442705 261.075151 
L 214.015099 260.882532 
L 214.757092 260.778833 
L 215.154589 260.594716 
L 215.499086 260.532654 
L 216.156279 260.836393 
L 216.622675 261.084956 
L 217.19507 260.821523 
L 217.746265 260.382745 
L 218.398159 260.501418 
L 219.177251 260.607508 
L 219.866245 260.542577 
L 220.168342 260.511989 
L 220.459839 260.235458 
L 220.920935 260.010587 
L 221.371431 260.128272 
L 222.023325 260.4254 
L 222.52682 260.801914 
L 222.765318 261.053032 
L 223.093915 261.306596 
L 223.475511 261.633917 
L 224.318204 262.556975 
L 224.599101 262.665941 
L 225.961188 263.244209 
L 226.952279 262.867802 
L 227.206677 262.612993 
L 227.487574 262.433045 
L 227.87977 262.446963 
L 228.086468 262.555068 
L 228.425665 262.742616 
L 228.648263 262.75369 
L 229.655254 262.889957 
L 229.994451 262.915985 
L 230.545646 263.065971 
L 230.985542 262.95277 
L 231.981932 262.342646 
L 232.829924 262.018035 
L 233.375819 261.412826 
L 235.130103 259.85759 
L 235.538199 259.974541 
L 236.751888 260.457056 
L 237.038085 260.28824 
L 237.218284 260.133836 
L 237.477981 259.81706 
L 237.695279 259.642818 
L 237.705879 259.650534 
L 237.986776 259.721504 
L 238.70227 259.273482 
L 238.983167 259.15871 
L 239.401863 259.151573 
L 239.71986 258.971154 
L 240.027257 258.892907 
L 241.431744 259.459401 
L 241.961739 259.104295 
L 242.253237 258.752664 
L 242.613633 258.64424 
L 243.090629 258.878276 
L 243.604724 259.002483 
L 245.629305 258.690942 
L 246.069201 258.689301 
L 246.312999 258.659752 
L 246.922493 258.825736 
L 247.526688 258.815152 
L 248.231581 258.876206 
L 248.841076 258.613019 
L 249.291571 258.541526 
L 250.044164 258.667066 
L 251.173054 259.067683 
L 251.528151 258.884365 
L 251.904447 258.575301 
L 252.254244 258.473124 
L 252.847838 258.347976 
L 253.971428 258.264095 
L 254.262925 258.163572 
L 254.724021 258.06393 
L 254.989018 257.987347 
L 255.837011 257.526817 
L 256.409405 256.912156 
L 257.061299 256.150648 
L 257.421696 256.127041 
L 257.797992 256.028217 
L 258.693684 255.947862 
L 259.398577 255.391807 
L 259.684775 255.30543 
L 260.352569 255.038244 
L 260.972663 255.198473 
L 261.428459 255.231222 
L 262.149252 255.434945 
L 262.509648 255.098309 
L 262.907145 254.928219 
L 263.166842 254.99583 
L 263.559039 254.97869 
L 263.892936 254.912977 
L 264.316932 254.818793 
L 264.624329 254.822396 
L 265.970516 255.300834 
L 266.961607 255.226793 
L 267.311404 255.217475 
L 269.155787 255.174919 
L 269.516183 255.101327 
L 270.014379 255.229354 
L 271.726263 256.173196 
L 272.229758 256.298149 
L 272.494756 256.331937 
L 272.998251 256.332698 
L 273.236749 256.326523 
L 274.323239 256.248817 
L 275.680026 255.379806 
L 276.596917 255.521253 
L 277.291211 255.813848 
L 278.065004 255.948658 
L 278.928896 256.338287 
L 279.204493 256.456774 
L 280.259183 256.951949 
L 281.345673 256.685523 
L 281.605371 256.783989 
L 281.971068 256.837844 
L 282.379164 256.947456 
L 282.77136 256.985838 
L 283.555753 256.750526 
L 283.932049 256.562164 
L 284.255346 256.517606 
L 285.161638 256.652566 
L 285.590934 256.772964 
L 287.477716 256.587647 
L 288.898103 257.268683 
L 289.2426 257.325949 
L 289.719595 257.388861 
L 290.085292 257.350886 
L 290.36089 257.331708 
L 290.832585 257.394154 
L 291.198282 257.448342 
L 291.760077 257.673234 
L 292.735267 257.920064 
L 293.069164 257.872707 
L 293.689259 257.994506 
L 294.261653 258.322834 
L 294.802248 258.575077 
L 295.332243 258.691507 
L 295.67144 258.798914 
L 296.662531 258.753762 
L 297.340925 258.991346 
L 298.607613 259.339499 
L 299.105808 259.625324 
L 299.667603 259.615473 
L 299.9856 259.728105 
L 300.701093 260.088762 
L 301.268188 260.170102 
L 301.835283 260.191171 
L 303.20797 260.323787 
L 303.785665 260.019377 
L 304.209661 259.812113 
L 304.644257 259.708962 
L 304.935754 259.649541 
L 305.38095 259.840826 
L 306.594639 260.335782 
L 306.870236 260.40346 
L 307.257132 260.530202 
L 307.50093 260.602459 
L 307.803027 260.671451 
L 308.449621 260.564524 
L 309.408912 259.978491 
L 310.007807 259.550737 
L 310.500702 259.508958 
L 310.924698 259.600423 
L 311.168496 259.603941 
L 311.555392 259.674041 
L 313.532274 259.805918 
L 314.756563 259.903245 
L 315.583355 259.532559 
L 315.922552 259.45146 
L 317.894134 259.674323 
L 318.408229 259.632232 
L 321.317902 260.006262 
L 321.837297 259.888739 
L 322.139394 259.826068 
L 323.845978 259.200286 
L 324.354773 259.022328 
L 325.027867 258.920888 
L 325.647961 258.762837 
L 325.997758 258.759565 
L 327.137248 258.491309 
L 327.96934 258.128811 
L 329.03463 257.784758 
L 329.840222 257.566436 
L 330.486816 257.063356 
L 330.958512 256.798175 
L 331.318909 256.718326 
L 331.769405 256.683948 
L 332.410699 256.530619 
L 333.253391 256.660327 
L 333.608487 256.609403 
L 334.064283 256.53822 
L 334.785077 256.557929 
L 335.654268 256.717122 
L 336.258463 256.531222 
L 337.069355 255.98021 
L 338.177045 256.278978 
L 338.828939 256.455198 
L 340.180426 256.595833 
L 341.139717 256.642712 
L 341.844611 256.472906 
L 342.353406 256.593353 
L 343.153699 256.830732 
L 343.911592 256.948022 
L 344.881483 256.543004 
L 345.634076 256.342595 
L 345.983872 256.237763 
L 346.556267 256.280883 
L 347.197561 256.590693 
L 347.489058 256.632272 
L 348.702747 256.880449 
L 349.296342 256.862599 
L 349.693838 256.872565 
L 350.58953 257.142491 
L 351.130125 257.047241 
L 352.322613 257.122584 
L 352.614111 257.196955 
L 353.276605 257.445901 
L 354.193496 257.47528 
L 354.686392 257.52833 
L 355.635083 257.785584 
L 356.276377 257.938314 
L 357.267468 257.796855 
L 357.574865 257.808071 
L 357.961761 257.776319 
L 359.477547 257.892742 
L 359.811444 257.920443 
L 360.124141 257.930793 
L 361.25833 257.908279 
L 361.989724 258.273877 
L 363.145113 258.400101 
L 364.591999 258.498364 
L 364.841097 258.520307 
L 367.279074 258.440599 
L 368.063467 258.359887 
L 370.103948 258.49763 
L 371.174538 258.672145 
L 371.815832 258.628158 
L 374.23261 258.854733 
L 374.905704 258.7232 
L 375.345599 258.672617 
L 377.046884 257.95511 
L 377.44438 257.973998 
L 377.767677 257.868781 
L 378.090974 257.798999 
L 378.981366 257.811884 
L 379.680959 257.965335 
L 380.142055 257.973704 
L 380.820449 257.846813 
L 381.302744 257.860891 
L 381.816839 257.62804 
L 382.076537 257.549316 
L 383.502224 257.68107 
L 383.984519 257.693984 
L 384.843111 257.711013 
L 385.288307 257.762851 
L 386.814693 258.081411 
L 387.259889 258.276079 
L 388.712075 258.358959 
L 389.549467 258.379378 
L 390.646557 258.543019 
L 391.510449 258.545322 
L 391.886746 258.530595 
L 392.634039 258.518284 
L 395.326414 257.7008 
L 397.303295 257.838182 
L 397.86509 257.988393 
L 398.389785 257.945463 
L 399.025779 257.91718 
L 399.481575 257.864931 
L 400.00627 257.74818 
L 400.727063 257.648757 
L 401.13516 257.583549 
L 403.074942 257.72541 
L 403.419438 257.763763 
L 404.527128 258.047067 
L 405.555319 257.820957 
L 406.122413 257.939531 
L 406.546409 258.017716 
L 406.959806 257.864269 
L 407.722998 257.64464 
L 408.60279 257.743993 
L 414.135939 257.708115 
L 414.867332 257.435185 
L 415.323128 257.331163 
L 416.10752 257.031371 
L 417.088011 256.941071 
L 418.587897 257.072786 
L 419.022493 257.191373 
L 419.552488 257.029425 
L 420.177883 256.948597 
L 421.815567 257.084016 
L 422.435662 257.116847 
L 422.843758 257.10491 
L 424.285344 257.480683 
L 424.889539 257.599017 
L 425.313535 257.625211 
L 426.082028 257.663228 
L 426.601423 257.560832 
L 427.380516 257.355673 
L 428.212608 257.214154 
L 429.293798 257.003244 
L 429.797293 256.866317 
L 430.724785 257.089612 
L 431.122281 257.143795 
L 434.265152 257.634414 
L 435.028345 257.768952 
L 435.452341 257.839856 
L 435.897536 257.870243 
L 436.761428 257.811746 
L 437.201324 257.795445 
L 437.66242 257.683702 
L 438.79131 257.5741 
L 442.448276 257.890871 
L 442.755673 257.941927 
L 443.465866 258.053564 
L 451.585391 258.035428 
L 452.269084 257.886097 
L 452.910378 258.003778 
L 453.392674 258.168645 
L 454.018068 258.286382 
L 454.585163 258.348196 
L 454.86076 258.409049 
L 455.491454 258.547584 
L 456.265247 258.743243 
L 456.890641 258.935794 
L 458.639625 259.012187 
L 460.415109 258.962186 
L 461.724196 259.117671 
L 462.026294 259.172887 
L 462.704687 259.324462 
L 466.139055 259.125869 
L 466.923448 259.170814 
L 467.686641 258.999486 
L 468.089437 259.074118 
L 468.725431 259.146815 
L 469.801321 259.162639 
L 472.382397 259.540694 
L 472.896493 259.575802 
L 474.968773 259.478419 
L 475.663067 259.401027 
L 476.993354 259.520803 
L 477.894346 259.584382 
L 479.860628 259.301391 
L 480.539021 258.937098 
L 481.344614 258.689556 
L 481.667911 258.743557 
L 482.266805 258.747602 
L 482.643102 258.860846 
L 483.263196 258.923765 
L 484.084689 258.819587 
L 484.837282 258.664906 
L 486.151669 258.66586 
L 486.851263 258.687367 
L 487.418358 258.582376 
L 487.868853 258.500895 
L 488.918244 258.399368 
L 490.020633 258.320574 
L 490.667227 258.331378 
L 492.103514 258.364756 
L 496.698571 257.461661 
L 497.281566 257.423124 
L 497.965259 257.557219 
L 499.247848 257.801043 
L 500.721234 257.795953 
L 502.406618 257.851629 
L 502.931313 257.831663 
L 504.950595 258.096046 
L 506.153683 258.008512 
L 510.939539 258.584522 
L 511.91473 258.812861 
L 513.070119 258.733963 
L 513.907511 258.850398 
L 514.956901 259.102574 
L 516.488587 259.134015 
L 517.479678 259.081984 
L 517.961974 259.170717 
L 518.481369 259.150746 
L 519.308161 259.127959 
L 520.039554 258.95937 
L 521.799138 258.490967 
L 522.790229 258.304714 
L 523.373223 258.229406 
L 524.189416 257.986668 
L 524.671711 257.835419 
L 526.044398 257.73816 
L 526.590293 257.634531 
L 527.077889 257.629247 
L 527.464785 257.584936 
L 528.143179 257.535734 
L 530.809054 257.230183 
L 534.179823 256.033679 
L 534.948316 255.847399 
L 535.685009 255.73207 
L 539.654672 254.925136 
L 540.433765 254.890054 
L 542.580245 254.687114 
L 543.12614 254.671533 
L 544.758524 254.676859 
L 547.085203 254.975312 
L 548.166393 254.795321 
L 548.47379 254.795486 
L 549.332382 254.901636 
L 550.853468 254.675812 
L 551.67496 254.707244 
L 552.920449 254.641861 
L 555.331926 254.790961 
L 556.079219 254.807877 
L 556.429016 254.646735 
L 557.377707 254.265824 
L 559.312189 254.035869 
L 559.985283 253.953241 
L 560.812075 253.856203 
L 561.33677 253.817953 
L 562.317261 254.021885 
L 562.905556 254.054701 
L 564.57504 254.193559 
L 565.825829 254.199325 
L 566.673821 254.259072 
L 567.659612 254.239277 
L 568.762001 254.200402 
L 569.185997 254.220617 
L 570.728283 254.13541 
L 571.237078 254.103415 
L 571.936672 254.160268 
L 572.567366 254.186533 
L 573.001962 254.083986 
L 574.210351 253.764207 
L 574.899344 253.732279 
L 575.879835 253.638373 
L 576.908026 253.389203 
L 578.937907 252.629395 
L 581.047287 252.872719 
L 582.388175 252.908054 
L 582.822771 252.960087 
L 583.506464 253.08333 
L 584.524055 253.139998 
L 589.585508 253.716066 
L 590.4229 253.964724 
L 591.784987 254.270155 
L 593.427972 254.405872 
L 594.927858 254.641568 
L 595.314754 254.565423 
L 596.183946 254.319859 
L 596.751041 254.317708 
L 599.793213 254.472247 
L 601.457397 254.368834 
L 603.762876 254.621651 
L 604.716867 254.457357 
L 605.321061 254.36865 
L 606.985246 254.151039 
L 607.711339 254.103162 
L 609.704121 253.684108 
L 610.504413 253.643151 
L 610.700511 253.617958 
L 610.700511 253.617958 
" clip-path="url(#p5753aa5573)" style="fill: none; stroke: #1f2937; stroke-linecap: square"/>
   </g>
   <g id="line2d_30">
    <path d="M 54.21125 253.617958 
L 637.2 253.617958 
" clip-path="url(#p5753aa5573)" style="fill: none; stroke-dasharray: 2.96,1.28; stroke-dashoffset: 0; stroke: #888888; stroke-width: 0.8"/>
   </g>
   <g id="patch_3">
    <path d="M 54.21125 282.04 
L 54.21125 26.88 
" style="fill: none; stroke: #000000; stroke-width: 0.8; stroke-linejoin: miter; stroke-linecap: square"/>
   </g>
   <g id="patch_4">
    <path d="M 637.2 282.04 
L 637.2 26.88 
" style="fill: none; stroke: #000000; stroke-width: 0.8; stroke-linejoin: miter; stroke-linecap: square"/>
   </g>
   <g id="patch_5">
    <path d="M 54.21125 282.04 
L 637.2 282.04 
" style="fill: none; stroke: #000000; stroke-width: 0.8; stroke-linejoin: miter; stroke-linecap: square"/>
   </g>
   <g id="patch_6">
    <path d="M 54.21125 26.88 
L 637.2 26.88 
" style="fill: none; stroke: #000000; stroke-width: 0.8; stroke-linejoin: miter; stroke-linecap: square"/>
   </g>
   <g id="text_17">
    <!-- Running mean — reock_proxy_pct_below_030  (100k ReCom samples, seed 42) -->
    <g transform="translate(107.38375 20.88) scale(0.12 -0.12)">
     <defs>
      <path id="DejaVuSans-2014" d="M 313 1978 
L 6088 1978 
L 6088 1528 
L 313 1528 
L 313 1978 
z
" transform="scale(0.015625)"/>
      <path id="DejaVuSans-28" d="M 1984 4856 
Q 1566 4138 1362 3434 
Q 1159 2731 1159 2009 
Q 1159 1288 1364 580 
Q 1569 -128 1984 -844 
L 1484 -844 
Q 1016 -109 783 600 
Q 550 1309 550 2009 
Q 550 2706 781 3412 
Q 1013 4119 1484 4856 
L 1984 4856 
z
" transform="scale(0.015625)"/>
      <path id="DejaVuSans-43" d="M 4122 4306 
L 4122 3641 
Q 3803 3938 3442 4084 
Q 3081 4231 2675 4231 
Q 1875 4231 1450 3742 
Q 1025 3253 1025 2328 
Q 1025 1406 1450 917 
Q 1875 428 2675 428 
Q 3081 428 3442 575 
Q 3803 722 4122 1019 
L 4122 359 
Q 3791 134 3420 21 
Q 3050 -91 2638 -91 
Q 1578 -91 968 557 
Q 359 1206 359 2328 
Q 359 3453 968 4101 
Q 1578 4750 2638 4750 
Q 3056 4750 3426 4639 
Q 3797 4528 4122 4306 
z
" transform="scale(0.015625)"/>
      <path id="DejaVuSans-73" d="M 2834 3397 
L 2834 2853 
Q 2591 2978 2328 3040 
Q 2066 3103 1784 3103 
Q 1356 3103 1142 2972 
Q 928 2841 928 2578 
Q 928 2378 1081 2264 
Q 1234 2150 1697 2047 
L 1894 2003 
Q 2506 1872 2764 1633 
Q 3022 1394 3022 966 
Q 3022 478 2636 193 
Q 2250 -91 1575 -91 
Q 1294 -91 989 -36 
Q 684 19 347 128 
L 347 722 
Q 666 556 975 473 
Q 1284 391 1588 391 
Q 1994 391 2212 530 
Q 2431 669 2431 922 
Q 2431 1156 2273 1281 
Q 2116 1406 1581 1522 
L 1381 1569 
Q 847 1681 609 1914 
Q 372 2147 372 2553 
Q 372 3047 722 3315 
Q 1072 3584 1716 3584 
Q 2034 3584 2315 3537 
Q 2597 3491 2834 3397 
z
" transform="scale(0.015625)"/>
      <path id="DejaVuSans-2c" d="M 750 794 
L 1409 794 
L 1409 256 
L 897 -744 
L 494 -744 
L 750 256 
L 750 794 
z
" transform="scale(0.015625)"/>
      <path id="DejaVuSans-29" d="M 513 4856 
L 1013 4856 
Q 1481 4119 1714 3412 
Q 1947 2706 1947 2009 
Q 1947 1309 1714 600 
Q 1481 -109 1013 -844 
L 513 -844 
Q 928 -128 1133 580 
Q 1338 1288 1338 2009 
Q 1338 2731 1133 3434 
Q 928 4138 513 4856 
z
" transform="scale(0.015625)"/>
     </defs>
     <use xlink:href="#DejaVuSans-52"/>
     <use xlink:href="#DejaVuSans-75" transform="translate(64.982422 0)"/>
     <use xlink:href="#DejaVuSans-6e" transform="translate(128.361328 0)"/>
     <use xlink:href="#DejaVuSans-6e" transform="translate(191.740234 0)"/>
     <use xlink:href="#DejaVuSans-69" transform="translate(255.119141 0)"/>
     <use xlink:href="#DejaVuSans-6e" transform="translate(282.902344 0)"/>
     <use xlink:href="#DejaVuSans-67" transform="translate(346.28125 0)"/>
     <use xlink:href="#DejaVuSans-20" transform="translate(409.757812 0)"/>
     <use xlink:href="#DejaVuSans-6d" transform="translate(441.544922 0)"/>
     <use xlink:href="#DejaVuSans-65" transform="translate(538.957031 0)"/>
     <use xlink:href="#DejaVuSans-61" transform="translate(600.480469 0)"/>
     <use xlink:href="#DejaVuSans-6e" transform="translate(661.759766 0)"/>
     <use xlink:href="#DejaVuSans-20" transform="translate(725.138672 0)"/>
     <use xlink:href="#DejaVuSans-2014" transform="translate(756.925781 0)"/>
     <use xlink:href="#DejaVuSans-20" transform="translate(856.925781 0)"/>
     <use xlink:href="#DejaVuSans-72" transform="translate(888.712891 0)"/>
     <use xlink:href="#DejaVuSans-65" transform="translate(927.576172 0)"/>
     <use xlink:href="#DejaVuSans-6f" transform="translate(989.099609 0)"/>
     <use xlink:href="#DejaVuSans-63" transform="translate(1050.28125 0)"/>
     <use xlink:href="#DejaVuSans-6b" transform="translate(1105.261719 0)"/>
     <use xlink:href="#DejaVuSans-5f" transform="translate(1163.171875 0)"/>
     <use xlink:href="#DejaVuSans-70" transform="translate(1213.171875 0)"/>
     <use xlink:href="#DejaVuSans-72" transform="translate(1276.648438 0)"/>
     <use xlink:href="#DejaVuSans-6f" transform="translate(1315.511719 0)"/>
     <use xlink:href="#DejaVuSans-78" transform="translate(1373.568359 0)"/>
     <use xlink:href="#DejaVuSans-79" transform="translate(1432.748047 0)"/>
     <use xlink:href="#DejaVuSans-5f" transform="translate(1491.927734 0)"/>
     <use xlink:href="#DejaVuSans-70" transform="translate(1541.927734 0)"/>
     <use xlink:href="#DejaVuSans-63" transform="translate(1605.404297 0)"/>
     <use xlink:href="#DejaVuSans-74" transform="translate(1660.384766 0)"/>
     <use xlink:href="#DejaVuSans-5f" transform="translate(1699.59375 0)"/>
     <use xlink:href="#DejaVuSans-62" transform="translate(1749.59375 0)"/>
     <use xlink:href="#DejaVuSans-65" transform="translate(1813.070312 0)"/>
     <use xlink:href="#DejaVuSans-6c" transform="translate(1874.59375 0)"/>
     <use xlink:href="#DejaVuSans-6f" transform="translate(1902.376953 0)"/>
     <use xlink:href="#DejaVuSans-77" transform="translate(1963.558594 0)"/>
     <use xlink:href="#DejaVuSans-5f" transform="translate(2045.345703 0)"/>
     <use xlink:href="#DejaVuSans-30" transform="translate(2095.345703 0)"/>
     <use xlink:href="#DejaVuSans-33" transform="translate(2158.96875 0)"/>
     <use xlink:href="#DejaVuSans-30" transform="translate(2222.591797 0)"/>
     <use xlink:href="#DejaVuSans-20" transform="translate(2286.214844 0)"/>
     <use xlink:href="#DejaVuSans-20" transform="translate(2318.001953 0)"/>
     <use xlink:href="#DejaVuSans-28" transform="translate(2349.789062 0)"/>
     <use xlink:href="#DejaVuSans-31" transform="translate(2388.802734 0)"/>
     <use xlink:href="#DejaVuSans-30" transform="translate(2452.425781 0)"/>
     <use xlink:href="#DejaVuSans-30" transform="translate(2516.048828 0)"/>
     <use xlink:href="#DejaVuSans-6b" transform="translate(2579.671875 0)"/>
     <use xlink:href="#DejaVuSans-20" transform="translate(2637.582031 0)"/>
     <use xlink:href="#DejaVuSans-52" transform="translate(2669.369141 0)"/>
     <use xlink:href="#DejaVuSans-65" transform="translate(2734.351562 0)"/>
     <use xlink:href="#DejaVuSans-43" transform="translate(2795.875 0)"/>
     <use xlink:href="#DejaVuSans-6f" transform="translate(2865.699219 0)"/>
     <use xlink:href="#DejaVuSans-6d" transform="translate(2926.880859 0)"/>
     <use xlink:href="#DejaVuSans-20" transform="translate(3024.292969 0)"/>
     <use xlink:href="#DejaVuSans-73" transform="translate(3056.080078 0)"/>
     <use xlink:href="#DejaVuSans-61" transform="translate(3108.179688 0)"/>
     <use xlink:href="#DejaVuSans-6d" transform="translate(3169.458984 0)"/>
     <use xlink:href="#DejaVuSans-70" transform="translate(3266.871094 0)"/>
     <use xlink:href="#DejaVuSans-6c" transform="translate(3330.347656 0)"/>
     <use xlink:href="#DejaVuSans-65" transform="translate(3358.130859 0)"/>
     <use xlink:href="#DejaVuSans-73" transform="translate(3419.654297 0)"/>
     <use xlink:href="#DejaVuSans-2c" transform="translate(3471.753906 0)"/>
     <use xlink:href="#DejaVuSans-20" transform="translate(3503.541016 0)"/>
     <use xlink:href="#DejaVuSans-73" transform="translate(3535.328125 0)"/>
     <use xlink:href="#DejaVuSans-65" transform="translate(3587.427734 0)"/>
     <use xlink:href="#DejaVuSans-65" transform="translate(3648.951172 0)"/>
     <use xlink:href="#DejaVuSans-64" transform="translate(3710.474609 0)"/>
     <use xlink:href="#DejaVuSans-20" transform="translate(3773.951172 0)"/>
     <use xlink:href="#DejaVuSans-34" transform="translate(3805.738281 0)"/>
     <use xlink:href="#DejaVuSans-32" transform="translate(3869.361328 0)"/>
     <use xlink:href="#DejaVuSans-29" transform="translate(3932.984375 0)"/>
    </g>
   </g>
   <g id="legend_1">
    <g id="patch_7">
     <path d="M 496.306406 47.290312 
L 630.9 47.290312 
Q 632.7 47.290312 632.7 45.490312 
L 632.7 33.18 
Q 632.7 31.38 630.9 31.38 
L 496.306406 31.38 
Q 494.506406 31.38 494.506406 33.18 
L 494.506406 45.490312 
Q 494.506406 47.290312 496.306406 47.290312 
z
" style="fill: #ffffff; opacity: 0.8; stroke: #cccccc; stroke-linejoin: miter"/>
    </g>
    <g id="line2d_31">
     <path d="M 498.106406 38.668594 
L 507.106406 38.668594 
L 516.106406 38.668594 
" style="fill: none; stroke-dasharray: 2.96,1.28; stroke-dashoffset: 0; stroke: #888888; stroke-width: 0.8"/>
    </g>
    <g id="text_18">
     <!-- final mean = +0.07159 -->
     <g transform="translate(523.306406 41.818594) scale(0.09 -0.09)">
      <defs>
       <path id="DejaVuSans-3d" d="M 678 2906 
L 4684 2906 
L 4684 2381 
L 678 2381 
L 678 2906 
z
M 678 1631 
L 4684 1631 
L 4684 1100 
L 678 1100 
L 678 1631 
z
" transform="scale(0.015625)"/>
       <path id="DejaVuSans-2b" d="M 2944 4013 
L 2944 2272 
L 4684 2272 
L 4684 1741 
L 2944 1741 
L 2944 0 
L 2419 0 
L 2419 1741 
L 678 1741 
L 678 2272 
L 2419 2272 
L 2419 4013 
L 2944 4013 
z
" transform="scale(0.015625)"/>
       <path id="DejaVuSans-35" d="M 691 4666 
L 3169 4666 
L 3169 4134 
L 1269 4134 
L 1269 2991 
Q 1406 3038 1543 3061 
Q 1681 3084 1819 3084 
Q 2600 3084 3056 2656 
Q 3513 2228 3513 1497 
Q 3513 744 3044 326 
Q 2575 -91 1722 -91 
Q 1428 -91 1123 -41 
Q 819 9 494 109 
L 494 744 
Q 775 591 1075 516 
Q 1375 441 1709 441 
Q 2250 441 2565 725 
Q 2881 1009 2881 1497 
Q 2881 1984 2565 2268 
Q 2250 2553 1709 2553 
Q 1456 2553 1204 2497 
Q 953 2441 691 2322 
L 691 4666 
z
" transform="scale(0.015625)"/>
      </defs>
      <use xlink:href="#DejaVuSans-66"/>
      <use xlink:href="#DejaVuSans-69" transform="translate(35.205078 0)"/>
      <use xlink:href="#DejaVuSans-6e" transform="translate(62.988281 0)"/>
      <use xlink:href="#DejaVuSans-61" transform="translate(126.367188 0)"/>
      <use xlink:href="#DejaVuSans-6c" transform="translate(187.646484 0)"/>
      <use xlink:href="#DejaVuSans-20" transform="translate(215.429688 0)"/>
      <use xlink:href="#DejaVuSans-6d" transform="translate(247.216797 0)"/>
      <use xlink:href="#DejaVuSans-65" transform="translate(344.628906 0)"/>
      <use xlink:href="#DejaVuSans-61" transform="translate(406.152344 0)"/>
      <use xlink:href="#DejaVuSans-6e" transform="translate(467.431641 0)"/>
      <use xlink:href="#DejaVuSans-20" transform="translate(530.810547 0)"/>
      <use xlink:href="#DejaVuSans-3d" transform="translate(562.597656 0)"/>
      <use xlink:href="#DejaVuSans-20" transform="translate(646.386719 0)"/>
      <use xlink:href="#DejaVuSans-2b" transform="translate(678.173828 0)"/>
      <use xlink:href="#DejaVuSans-30" transform="translate(761.962891 0)"/>
      <use xlink:href="#DejaVuSans-2e" transform="translate(825.585938 0)"/>
      <use xlink:href="#DejaVuSans-30" transform="translate(857.373047 0)"/>
      <use xlink:href="#DejaVuSans-37" transform="translate(920.996094 0)"/>
      <use xlink:href="#DejaVuSans-31" transform="translate(984.619141 0)"/>
      <use xlink:href="#DejaVuSans-35" transform="translate(1048.242188 0)"/>
      <use xlink:href="#DejaVuSans-39" transform="translate(1111.865234 0)"/>
     </g>
    </g>
   </g>
  </g>
 </g>
 <defs>
  <clipPath id="p5753aa5573">
   <rect x="54.21125" y="26.88" width="582.98875" height="255.16"/>
  </clipPath>
 </defs>
</svg>
