<?xml version="1.0" encoding="utf-8" standalone="no"?>
<!DOCTYPE svg PUBLIC "-//W3C//DTD SVG 1.1//EN"
  "http://www.w3.org/Graphics/SVG/1.1/DTD/svg11.dtd">
<svg xmlns:xlink="http://www.w3.org/1999/xlink" width="648pt" height="324pt" viewBox="0 0 648 324" xmlns="http://www.w3.org/2000/svg" version="1.1">
 <metadata>
  <rdf:RDF xmlns:dc="http://purl.org/dc/elements/1.1/" xmlns:cc="http://creativecommons.org/ns#" xmlns:rdf="http://www.w3.org/1999/02/22-rdf-syntax-ns#">
   <cc:Work>
    <dc:type rdf:resource="http://purl.org/dc/dcmitype/StillImage"/>
    <dc:date>2026-05-07T14:19:22.190083</dc:date>
    <dc:format>image/svg+xml</dc:format>
    <dc:creator>
     <cc:Agent>
      <dc:title>Matplotlib v3.10.8, https://matplotlib.org/</dc:title>
     </cc:Agent>
    </dc:creator>
   </cc:Work>
  </rdf:RDF>
 </metadata>
 <defs>
  <style type="text/css">*{stroke-linejoin: round; stroke-linecap: butt}</style>
 </defs>
 <g id="figure_1">
  <g id="patch_1">
   <path d="M 0 324 
L 648 324 
L 648 0 
L 0 0 
z
" style="fill: #ffffff"/>
  </g>
  <g id="axes_1">
   <g id="patch_2">
    <path d="M 68.78 282.04 
L 637.2 282.04 
L 637.2 26.88 
L 68.78 26.88 
z
" style="fill: #ffffff"/>
   </g>
   <g id="matplotlib.axis_1">
    <g id="xtick_1">
     <g id="line2d_1">
      <path d="M 94.615206 282.04 
L 94.615206 26.88 
" clip-path="url(#p5106e6c502)" style="fill: none; stroke-dasharray: 0.5,0.825; stroke-dashoffset: 0; stroke: #b0b0b0; stroke-opacity: 0.6; stroke-width: 0.5"/>
     </g>
     <g id="line2d_2">
      <defs>
       <path id="m5b8bf5add3" d="M 0 0 
L 0 3.5 
" style="stroke: #000000; stroke-width: 0.8"/>
      </defs>
      <g>
       <use xlink:href="#m5b8bf5add3" x="94.615206" y="282.04" style="stroke: #000000; stroke-width: 0.8"/>
      </g>
     </g>
     <g id="text_1">
      <!-- 0 -->
      <g transform="translate(91.433956 296.638438) scale(0.1 -0.1)">
       <defs>
        <path id="DejaVuSans-30" d="M 2034 4250 
Q 1547 4250 1301 3770 
Q 1056 3291 1056 2328 
Q 1056 1369 1301 889 
Q 1547 409 2034 409 
Q 2525 409 2770 889 
Q 3016 1369 3016 2328 
Q 3016 3291 2770 3770 
Q 2525 4250 2034 4250 
z
M 2034 4750 
Q 2819 4750 3233 4129 
Q 3647 3509 3647 2328 
Q 3647 1150 3233 529 
Q 2819 -91 2034 -91 
Q 1250 -91 836 529 
Q 422 1150 422 2328 
Q 422 3509 836 4129 
Q 1250 4750 2034 4750 
z
" transform="scale(0.015625)"/>
       </defs>
       <use xlink:href="#DejaVuSans-30"/>
      </g>
     </g>
    </g>
    <g id="xtick_2">
     <g id="line2d_3">
      <path d="M 197.96471 282.04 
L 197.96471 26.88 
" clip-path="url(#p5106e6c502)" style="fill: none; stroke-dasharray: 0.5,0.825; stroke-dashoffset: 0; stroke: #b0b0b0; stroke-opacity: 0.6; stroke-width: 0.5"/>
     </g>
     <g id="line2d_4">
      <g>
       <use xlink:href="#m5b8bf5add3" x="197.96471" y="282.04" style="stroke: #000000; stroke-width: 0.8"/>
      </g>
     </g>
     <g id="text_2">
      <!-- 50000 -->
      <g transform="translate(182.05846 296.638438) scale(0.1 -0.1)">
       <defs>
        <path id="DejaVuSans-35" d="M 691 4666 
L 3169 4666 
L 3169 4134 
L 1269 4134 
L 1269 2991 
Q 1406 3038 1543 3061 
Q 1681 3084 1819 3084 
Q 2600 3084 3056 2656 
Q 3513 2228 3513 1497 
Q 3513 744 3044 326 
Q 2575 -91 1722 -91 
Q 1428 -91 1123 -41 
Q 819 9 494 109 
L 494 744 
Q 775 591 1075 516 
Q 1375 441 1709 441 
Q 2250 441 2565 725 
Q 2881 1009 2881 1497 
Q 2881 1984 2565 2268 
Q 2250 2553 1709 2553 
Q 1456 2553 1204 2497 
Q 953 2441 691 2322 
L 691 4666 
z
" transform="scale(0.015625)"/>
       </defs>
       <use xlink:href="#DejaVuSans-35"/>
       <use xlink:href="#DejaVuSans-30" transform="translate(63.623047 0)"/>
       <use xlink:href="#DejaVuSans-30" transform="translate(127.246094 0)"/>
       <use xlink:href="#DejaVuSans-30" transform="translate(190.869141 0)"/>
       <use xlink:href="#DejaVuSans-30" transform="translate(254.492188 0)"/>
      </g>
     </g>
    </g>
    <g id="xtick_3">
     <g id="line2d_5">
      <path d="M 301.314214 282.04 
L 301.314214 26.88 
" clip-path="url(#p5106e6c502)" style="fill: none; stroke-dasharray: 0.5,0.825; stroke-dashoffset: 0; stroke: #b0b0b0; stroke-opacity: 0.6; stroke-width: 0.5"/>
     </g>
     <g id="line2d_6">
      <g>
       <use xlink:href="#m5b8bf5add3" x="301.314214" y="282.04" style="stroke: #000000; stroke-width: 0.8"/>
      </g>
     </g>
     <g id="text_3">
      <!-- 100000 -->
      <g transform="translate(282.226714 296.638438) scale(0.1 -0.1)">
       <defs>
        <path id="DejaVuSans-31" d="M 794 531 
L 1825 531 
L 1825 4091 
L 703 3866 
L 703 4441 
L 1819 4666 
L 2450 4666 
L 2450 531 
L 3481 531 
L 3481 0 
L 794 0 
L 794 531 
z
" transform="scale(0.015625)"/>
       </defs>
       <use xlink:href="#DejaVuSans-31"/>
       <use xlink:href="#DejaVuSans-30" transform="translate(63.623047 0)"/>
       <use xlink:href="#DejaVuSans-30" transform="translate(127.246094 0)"/>
       <use xlink:href="#DejaVuSans-30" transform="translate(190.869141 0)"/>
       <use xlink:href="#DejaVuSans-30" transform="translate(254.492188 0)"/>
       <use xlink:href="#DejaVuSans-30" transform="translate(318.115234 0)"/>
      </g>
     </g>
    </g>
    <g id="xtick_4">
     <g id="line2d_7">
      <path d="M 404.663719 282.04 
L 404.663719 26.88 
" clip-path="url(#p5106e6c502)" style="fill: none; stroke-dasharray: 0.5,0.825; stroke-dashoffset: 0; stroke: #b0b0b0; stroke-opacity: 0.6; stroke-width: 0.5"/>
     </g>
     <g id="line2d_8">
      <g>
       <use xlink:href="#m5b8bf5add3" x="404.663719" y="282.04" style="stroke: #000000; stroke-width: 0.8"/>
      </g>
     </g>
     <g id="text_4">
      <!-- 150000 -->
      <g transform="translate(385.576219 296.638438) scale(0.1 -0.1)">
       <use xlink:href="#DejaVuSans-31"/>
       <use xlink:href="#DejaVuSans-35" transform="translate(63.623047 0)"/>
       <use xlink:href="#DejaVuSans-30" transform="translate(127.246094 0)"/>
       <use xlink:href="#DejaVuSans-30" transform="translate(190.869141 0)"/>
       <use xlink:href="#DejaVuSans-30" transform="translate(254.492188 0)"/>
       <use xlink:href="#DejaVuSans-30" transform="translate(318.115234 0)"/>
      </g>
     </g>
    </g>
    <g id="xtick_5">
     <g id="line2d_9">
      <path d="M 508.013223 282.04 
L 508.013223 26.88 
" clip-path="url(#p5106e6c502)" style="fill: none; stroke-dasharray: 0.5,0.825; stroke-dashoffset: 0; stroke: #b0b0b0; stroke-opacity: 0.6; stroke-width: 0.5"/>
     </g>
     <g id="line2d_10">
      <g>
       <use xlink:href="#m5b8bf5add3" x="508.013223" y="282.04" style="stroke: #000000; stroke-width: 0.8"/>
      </g>
     </g>
     <g id="text_5">
      <!-- 200000 -->
      <g transform="translate(488.925723 296.638438) scale(0.1 -0.1)">
       <defs>
        <path id="DejaVuSans-32" d="M 1228 531 
L 3431 531 
L 3431 0 
L 469 0 
L 469 531 
Q 828 903 1448 1529 
Q 2069 2156 2228 2338 
Q 2531 2678 2651 2914 
Q 2772 3150 2772 3378 
Q 2772 3750 2511 3984 
Q 2250 4219 1831 4219 
Q 1534 4219 1204 4116 
Q 875 4013 500 3803 
L 500 4441 
Q 881 4594 1212 4672 
Q 1544 4750 1819 4750 
Q 2544 4750 2975 4387 
Q 3406 4025 3406 3419 
Q 3406 3131 3298 2873 
Q 3191 2616 2906 2266 
Q 2828 2175 2409 1742 
Q 1991 1309 1228 531 
z
" transform="scale(0.015625)"/>
       </defs>
       <use xlink:href="#DejaVuSans-32"/>
       <use xlink:href="#DejaVuSans-30" transform="translate(63.623047 0)"/>
       <use xlink:href="#DejaVuSans-30" transform="translate(127.246094 0)"/>
       <use xlink:href="#DejaVuSans-30" transform="translate(190.869141 0)"/>
       <use xlink:href="#DejaVuSans-30" transform="translate(254.492188 0)"/>
       <use xlink:href="#DejaVuSans-30" transform="translate(318.115234 0)"/>
      </g>
     </g>
    </g>
    <g id="xtick_6">
     <g id="line2d_11">
      <path d="M 611.362727 282.04 
L 611.362727 26.88 
" clip-path="url(#p5106e6c502)" style="fill: none; stroke-dasharray: 0.5,0.825; stroke-dashoffset: 0; stroke: #b0b0b0; stroke-opacity: 0.6; stroke-width: 0.5"/>
     </g>
     <g id="line2d_12">
      <g>
       <use xlink:href="#m5b8bf5add3" x="611.362727" y="282.04" style="stroke: #000000; stroke-width: 0.8"/>
      </g>
     </g>
     <g id="text_6">
      <!-- 250000 -->
      <g transform="translate(592.275227 296.638438) scale(0.1 -0.1)">
       <use xlink:href="#DejaVuSans-32"/>
       <use xlink:href="#DejaVuSans-35" transform="translate(63.623047 0)"/>
       <use xlink:href="#DejaVuSans-30" transform="translate(127.246094 0)"/>
       <use xlink:href="#DejaVuSans-30" transform="translate(190.869141 0)"/>
       <use xlink:href="#DejaVuSans-30" transform="translate(254.492188 0)"/>
       <use xlink:href="#DejaVuSans-30" transform="translate(318.115234 0)"/>
      </g>
     </g>
    </g>
    <g id="text_7">
     <!-- Sample index -->
     <g transform="translate(318.972031 310.316563) scale(0.1 -0.1)">
      <defs>
       <path id="DejaVuSans-53" d="M 3425 4513 
L 3425 3897 
Q 3066 4069 2747 4153 
Q 2428 4238 2131 4238 
Q 1616 4238 1336 4038 
Q 1056 3838 1056 3469 
Q 1056 3159 1242 3001 
Q 1428 2844 1947 2747 
L 2328 2669 
Q 3034 2534 3370 2195 
Q 3706 1856 3706 1288 
Q 3706 609 3251 259 
Q 2797 -91 1919 -91 
Q 1588 -91 1214 -16 
Q 841 59 441 206 
L 441 856 
Q 825 641 1194 531 
Q 1563 422 1919 422 
Q 2459 422 2753 634 
Q 3047 847 3047 1241 
Q 3047 1584 2836 1778 
Q 2625 1972 2144 2069 
L 1759 2144 
Q 1053 2284 737 2584 
Q 422 2884 422 3419 
Q 422 4038 858 4394 
Q 1294 4750 2059 4750 
Q 2388 4750 2728 4690 
Q 3069 4631 3425 4513 
z
" transform="scale(0.015625)"/>
       <path id="DejaVuSans-61" d="M 2194 1759 
Q 1497 1759 1228 1600 
Q 959 1441 959 1056 
Q 959 750 1161 570 
Q 1363 391 1709 391 
Q 2188 391 2477 730 
Q 2766 1069 2766 1631 
L 2766 1759 
L 2194 1759 
z
M 3341 1997 
L 3341 0 
L 2766 0 
L 2766 531 
Q 2569 213 2275 61 
Q 1981 -91 1556 -91 
Q 1019 -91 701 211 
Q 384 513 384 1019 
Q 384 1609 779 1909 
Q 1175 2209 1959 2209 
L 2766 2209 
L 2766 2266 
Q 2766 2663 2505 2880 
Q 2244 3097 1772 3097 
Q 1472 3097 1187 3025 
Q 903 2953 641 2809 
L 641 3341 
Q 956 3463 1253 3523 
Q 1550 3584 1831 3584 
Q 2591 3584 2966 3190 
Q 3341 2797 3341 1997 
z
" transform="scale(0.015625)"/>
       <path id="DejaVuSans-6d" d="M 3328 2828 
Q 3544 3216 3844 3400 
Q 4144 3584 4550 3584 
Q 5097 3584 5394 3201 
Q 5691 2819 5691 2113 
L 5691 0 
L 5113 0 
L 5113 2094 
Q 5113 2597 4934 2840 
Q 4756 3084 4391 3084 
Q 3944 3084 3684 2787 
Q 3425 2491 3425 1978 
L 3425 0 
L 2847 0 
L 2847 2094 
Q 2847 2600 2669 2842 
Q 2491 3084 2119 3084 
Q 1678 3084 1418 2786 
Q 1159 2488 1159 1978 
L 1159 0 
L 581 0 
L 581 3500 
L 1159 3500 
L 1159 2956 
Q 1356 3278 1631 3431 
Q 1906 3584 2284 3584 
Q 2666 3584 2933 3390 
Q 3200 3197 3328 2828 
z
" transform="scale(0.015625)"/>
       <path id="DejaVuSans-70" d="M 1159 525 
L 1159 -1331 
L 581 -1331 
L 581 3500 
L 1159 3500 
L 1159 2969 
Q 1341 3281 1617 3432 
Q 1894 3584 2278 3584 
Q 2916 3584 3314 3078 
Q 3713 2572 3713 1747 
Q 3713 922 3314 415 
Q 2916 -91 2278 -91 
Q 1894 -91 1617 61 
Q 1341 213 1159 525 
z
M 3116 1747 
Q 3116 2381 2855 2742 
Q 2594 3103 2138 3103 
Q 1681 3103 1420 2742 
Q 1159 2381 1159 1747 
Q 1159 1113 1420 752 
Q 1681 391 2138 391 
Q 2594 391 2855 752 
Q 3116 1113 3116 1747 
z
" transform="scale(0.015625)"/>
       <path id="DejaVuSans-6c" d="M 603 4863 
L 1178 4863 
L 1178 0 
L 603 0 
L 603 4863 
z
" transform="scale(0.015625)"/>
       <path id="DejaVuSans-65" d="M 3597 1894 
L 3597 1613 
L 953 1613 
Q 991 1019 1311 708 
Q 1631 397 2203 397 
Q 2534 397 2845 478 
Q 3156 559 3463 722 
L 3463 178 
Q 3153 47 2828 -22 
Q 2503 -91 2169 -91 
Q 1331 -91 842 396 
Q 353 884 353 1716 
Q 353 2575 817 3079 
Q 1281 3584 2069 3584 
Q 2775 3584 3186 3129 
Q 3597 2675 3597 1894 
z
M 3022 2063 
Q 3016 2534 2758 2815 
Q 2500 3097 2075 3097 
Q 1594 3097 1305 2825 
Q 1016 2553 972 2059 
L 3022 2063 
z
" transform="scale(0.015625)"/>
       <path id="DejaVuSans-20" transform="scale(0.015625)"/>
       <path id="DejaVuSans-69" d="M 603 3500 
L 1178 3500 
L 1178 0 
L 603 0 
L 603 3500 
z
M 603 4863 
L 1178 4863 
L 1178 4134 
L 603 4134 
L 603 4863 
z
" transform="scale(0.015625)"/>
       <path id="DejaVuSans-6e" d="M 3513 2113 
L 3513 0 
L 2938 0 
L 2938 2094 
Q 2938 2591 2744 2837 
Q 2550 3084 2163 3084 
Q 1697 3084 1428 2787 
Q 1159 2491 1159 1978 
L 1159 0 
L 581 0 
L 581 3500 
L 1159 3500 
L 1159 2956 
Q 1366 3272 1645 3428 
Q 1925 3584 2291 3584 
Q 2894 3584 3203 3211 
Q 3513 2838 3513 2113 
z
" transform="scale(0.015625)"/>
       <path id="DejaVuSans-64" d="M 2906 2969 
L 2906 4863 
L 3481 4863 
L 3481 0 
L 2906 0 
L 2906 525 
Q 2725 213 2448 61 
Q 2172 -91 1784 -91 
Q 1150 -91 751 415 
Q 353 922 353 1747 
Q 353 2572 751 3078 
Q 1150 3584 1784 3584 
Q 2172 3584 2448 3432 
Q 2725 3281 2906 2969 
z
M 947 1747 
Q 947 1113 1208 752 
Q 1469 391 1925 391 
Q 2381 391 2643 752 
Q 2906 1113 2906 1747 
Q 2906 2381 2643 2742 
Q 2381 3103 1925 3103 
Q 1469 3103 1208 2742 
Q 947 2381 947 1747 
z
" transform="scale(0.015625)"/>
       <path id="DejaVuSans-78" d="M 3513 3500 
L 2247 1797 
L 3578 0 
L 2900 0 
L 1881 1375 
L 863 0 
L 184 0 
L 1544 1831 
L 300 3500 
L 978 3500 
L 1906 2253 
L 2834 3500 
L 3513 3500 
z
" transform="scale(0.015625)"/>
      </defs>
      <use xlink:href="#DejaVuSans-53"/>
      <use xlink:href="#DejaVuSans-61" transform="translate(63.476562 0)"/>
      <use xlink:href="#DejaVuSans-6d" transform="translate(124.755859 0)"/>
      <use xlink:href="#DejaVuSans-70" transform="translate(222.167969 0)"/>
      <use xlink:href="#DejaVuSans-6c" transform="translate(285.644531 0)"/>
      <use xlink:href="#DejaVuSans-65" transform="translate(313.427734 0)"/>
      <use xlink:href="#DejaVuSans-20" transform="translate(374.951172 0)"/>
      <use xlink:href="#DejaVuSans-69" transform="translate(406.738281 0)"/>
      <use xlink:href="#DejaVuSans-6e" transform="translate(434.521484 0)"/>
      <use xlink:href="#DejaVuSans-64" transform="translate(497.900391 0)"/>
      <use xlink:href="#DejaVuSans-65" transform="translate(561.376953 0)"/>
      <use xlink:href="#DejaVuSans-78" transform="translate(621.150391 0)"/>
     </g>
    </g>
   </g>
   <g id="matplotlib.axis_2">
    <g id="ytick_1">
     <g id="line2d_13">
      <path d="M 68.78 264.589448 
L 637.2 264.589448 
" clip-path="url(#p5106e6c502)" style="fill: none; stroke-dasharray: 0.5,0.825; stroke-dashoffset: 0; stroke: #b0b0b0; stroke-opacity: 0.6; stroke-width: 0.5"/>
     </g>
     <g id="line2d_14">
      <defs>
       <path id="mf014e0fa48" d="M 0 0 
L -3.5 0 
" style="stroke: #000000; stroke-width: 0.8"/>
      </defs>
      <g>
       <use xlink:href="#mf014e0fa48" x="68.78" y="264.589448" style="stroke: #000000; stroke-width: 0.8"/>
      </g>
     </g>
     <g id="text_8">
      <!-- −0.028 -->
      <g transform="translate(24.772188 268.388667) scale(0.1 -0.1)">
       <defs>
        <path id="DejaVuSans-2212" d="M 678 2272 
L 4684 2272 
L 4684 1741 
L 678 1741 
L 678 2272 
z
" transform="scale(0.015625)"/>
        <path id="DejaVuSans-2e" d="M 684 794 
L 1344 794 
L 1344 0 
L 684 0 
L 684 794 
z
" transform="scale(0.015625)"/>
        <path id="DejaVuSans-38" d="M 2034 2216 
Q 1584 2216 1326 1975 
Q 1069 1734 1069 1313 
Q 1069 891 1326 650 
Q 1584 409 2034 409 
Q 2484 409 2743 651 
Q 3003 894 3003 1313 
Q 3003 1734 2745 1975 
Q 2488 2216 2034 2216 
z
M 1403 2484 
Q 997 2584 770 2862 
Q 544 3141 544 3541 
Q 544 4100 942 4425 
Q 1341 4750 2034 4750 
Q 2731 4750 3128 4425 
Q 3525 4100 3525 3541 
Q 3525 3141 3298 2862 
Q 3072 2584 2669 2484 
Q 3125 2378 3379 2068 
Q 3634 1759 3634 1313 
Q 3634 634 3220 271 
Q 2806 -91 2034 -91 
Q 1263 -91 848 271 
Q 434 634 434 1313 
Q 434 1759 690 2068 
Q 947 2378 1403 2484 
z
M 1172 3481 
Q 1172 3119 1398 2916 
Q 1625 2713 2034 2713 
Q 2441 2713 2670 2916 
Q 2900 3119 2900 3481 
Q 2900 3844 2670 4047 
Q 2441 4250 2034 4250 
Q 1625 4250 1398 4047 
Q 1172 3844 1172 3481 
z
" transform="scale(0.015625)"/>
       </defs>
       <use xlink:href="#DejaVuSans-2212"/>
       <use xlink:href="#DejaVuSans-30" transform="translate(83.789062 0)"/>
       <use xlink:href="#DejaVuSans-2e" transform="translate(147.412109 0)"/>
       <use xlink:href="#DejaVuSans-30" transform="translate(179.199219 0)"/>
       <use xlink:href="#DejaVuSans-32" transform="translate(242.822266 0)"/>
       <use xlink:href="#DejaVuSans-38" transform="translate(306.445312 0)"/>
      </g>
     </g>
    </g>
    <g id="ytick_2">
     <g id="line2d_15">
      <path d="M 68.78 220.931231 
L 637.2 220.931231 
" clip-path="url(#p5106e6c502)" style="fill: none; stroke-dasharray: 0.5,0.825; stroke-dashoffset: 0; stroke: #b0b0b0; stroke-opacity: 0.6; stroke-width: 0.5"/>
     </g>
     <g id="line2d_16">
      <g>
       <use xlink:href="#mf014e0fa48" x="68.78" y="220.931231" style="stroke: #000000; stroke-width: 0.8"/>
      </g>
     </g>
     <g id="text_9">
      <!-- −0.026 -->
      <g transform="translate(24.772188 224.730449) scale(0.1 -0.1)">
       <defs>
        <path id="DejaVuSans-36" d="M 2113 2584 
Q 1688 2584 1439 2293 
Q 1191 2003 1191 1497 
Q 1191 994 1439 701 
Q 1688 409 2113 409 
Q 2538 409 2786 701 
Q 3034 994 3034 1497 
Q 3034 2003 2786 2293 
Q 2538 2584 2113 2584 
z
M 3366 4563 
L 3366 3988 
Q 3128 4100 2886 4159 
Q 2644 4219 2406 4219 
Q 1781 4219 1451 3797 
Q 1122 3375 1075 2522 
Q 1259 2794 1537 2939 
Q 1816 3084 2150 3084 
Q 2853 3084 3261 2657 
Q 3669 2231 3669 1497 
Q 3669 778 3244 343 
Q 2819 -91 2113 -91 
Q 1303 -91 875 529 
Q 447 1150 447 2328 
Q 447 3434 972 4092 
Q 1497 4750 2381 4750 
Q 2619 4750 2861 4703 
Q 3103 4656 3366 4563 
z
" transform="scale(0.015625)"/>
       </defs>
       <use xlink:href="#DejaVuSans-2212"/>
       <use xlink:href="#DejaVuSans-30" transform="translate(83.789062 0)"/>
       <use xlink:href="#DejaVuSans-2e" transform="translate(147.412109 0)"/>
       <use xlink:href="#DejaVuSans-30" transform="translate(179.199219 0)"/>
       <use xlink:href="#DejaVuSans-32" transform="translate(242.822266 0)"/>
       <use xlink:href="#DejaVuSans-36" transform="translate(306.445312 0)"/>
      </g>
     </g>
    </g>
    <g id="ytick_3">
     <g id="line2d_17">
      <path d="M 68.78 177.273013 
L 637.2 177.273013 
" clip-path="url(#p5106e6c502)" style="fill: none; stroke-dasharray: 0.5,0.825; stroke-dashoffset: 0; stroke: #b0b0b0; stroke-opacity: 0.6; stroke-width: 0.5"/>
     </g>
     <g id="line2d_18">
      <g>
       <use xlink:href="#mf014e0fa48" x="68.78" y="177.273013" style="stroke: #000000; stroke-width: 0.8"/>
      </g>
     </g>
     <g id="text_10">
      <!-- −0.024 -->
      <g transform="translate(24.772188 181.072232) scale(0.1 -0.1)">
       <defs>
        <path id="DejaVuSans-34" d="M 2419 4116 
L 825 1625 
L 2419 1625 
L 2419 4116 
z
M 2253 4666 
L 3047 4666 
L 3047 1625 
L 3713 1625 
L 3713 1100 
L 3047 1100 
L 3047 0 
L 2419 0 
L 2419 1100 
L 313 1100 
L 313 1709 
L 2253 4666 
z
" transform="scale(0.015625)"/>
       </defs>
       <use xlink:href="#DejaVuSans-2212"/>
       <use xlink:href="#DejaVuSans-30" transform="translate(83.789062 0)"/>
       <use xlink:href="#DejaVuSans-2e" transform="translate(147.412109 0)"/>
       <use xlink:href="#DejaVuSans-30" transform="translate(179.199219 0)"/>
       <use xlink:href="#DejaVuSans-32" transform="translate(242.822266 0)"/>
       <use xlink:href="#DejaVuSans-34" transform="translate(306.445312 0)"/>
      </g>
     </g>
    </g>
    <g id="ytick_4">
     <g id="line2d_19">
      <path d="M 68.78 133.614796 
L 637.2 133.614796 
" clip-path="url(#p5106e6c502)" style="fill: none; stroke-dasharray: 0.5,0.825; stroke-dashoffset: 0; stroke: #b0b0b0; stroke-opacity: 0.6; stroke-width: 0.5"/>
     </g>
     <g id="line2d_20">
      <g>
       <use xlink:href="#mf014e0fa48" x="68.78" y="133.614796" style="stroke: #000000; stroke-width: 0.8"/>
      </g>
     </g>
     <g id="text_11">
      <!-- −0.022 -->
      <g transform="translate(24.772188 137.414015) scale(0.1 -0.1)">
       <use xlink:href="#DejaVuSans-2212"/>
       <use xlink:href="#DejaVuSans-30" transform="translate(83.789062 0)"/>
       <use xlink:href="#DejaVuSans-2e" transform="translate(147.412109 0)"/>
       <use xlink:href="#DejaVuSans-30" transform="translate(179.199219 0)"/>
       <use xlink:href="#DejaVuSans-32" transform="translate(242.822266 0)"/>
       <use xlink:href="#DejaVuSans-32" transform="translate(306.445312 0)"/>
      </g>
     </g>
    </g>
    <g id="ytick_5">
     <g id="line2d_21">
      <path d="M 68.78 89.956578 
L 637.2 89.956578 
" clip-path="url(#p5106e6c502)" style="fill: none; stroke-dasharray: 0.5,0.825; stroke-dashoffset: 0; stroke: #b0b0b0; stroke-opacity: 0.6; stroke-width: 0.5"/>
     </g>
     <g id="line2d_22">
      <g>
       <use xlink:href="#mf014e0fa48" x="68.78" y="89.956578" style="stroke: #000000; stroke-width: 0.8"/>
      </g>
     </g>
     <g id="text_12">
      <!-- −0.020 -->
      <g transform="translate(24.772188 93.755797) scale(0.1 -0.1)">
       <use xlink:href="#DejaVuSans-2212"/>
       <use xlink:href="#DejaVuSans-30" transform="translate(83.789062 0)"/>
       <use xlink:href="#DejaVuSans-2e" transform="translate(147.412109 0)"/>
       <use xlink:href="#DejaVuSans-30" transform="translate(179.199219 0)"/>
       <use xlink:href="#DejaVuSans-32" transform="translate(242.822266 0)"/>
       <use xlink:href="#DejaVuSans-30" transform="translate(306.445312 0)"/>
      </g>
     </g>
    </g>
    <g id="ytick_6">
     <g id="line2d_23">
      <path d="M 68.78 46.298361 
L 637.2 46.298361 
" clip-path="url(#p5106e6c502)" style="fill: none; stroke-dasharray: 0.5,0.825; stroke-dashoffset: 0; stroke: #b0b0b0; stroke-opacity: 0.6; stroke-width: 0.5"/>
     </g>
     <g id="line2d_24">
      <g>
       <use xlink:href="#mf014e0fa48" x="68.78" y="46.298361" style="stroke: #000000; stroke-width: 0.8"/>
      </g>
     </g>
     <g id="text_13">
      <!-- −0.018 -->
      <g transform="translate(24.772188 50.09758) scale(0.1 -0.1)">
       <use xlink:href="#DejaVuSans-2212"/>
       <use xlink:href="#DejaVuSans-30" transform="translate(83.789062 0)"/>
       <use xlink:href="#DejaVuSans-2e" transform="translate(147.412109 0)"/>
       <use xlink:href="#DejaVuSans-30" transform="translate(179.199219 0)"/>
       <use xlink:href="#DejaVuSans-31" transform="translate(242.822266 0)"/>
       <use xlink:href="#DejaVuSans-38" transform="translate(306.445312 0)"/>
      </g>
     </g>
    </g>
    <g id="text_14">
     <!-- Running mean of Mean-median (UCP share; UCP-favoured if positive) -->
     <g transform="translate(18.6925 327.262344) rotate(-90) scale(0.1 -0.1)">
      <defs>
       <path id="DejaVuSans-52" d="M 2841 2188 
Q 3044 2119 3236 1894 
Q 3428 1669 3622 1275 
L 4263 0 
L 3584 0 
L 2988 1197 
Q 2756 1666 2539 1819 
Q 2322 1972 1947 1972 
L 1259 1972 
L 1259 0 
L 628 0 
L 628 4666 
L 2053 4666 
Q 2853 4666 3247 4331 
Q 3641 3997 3641 3322 
Q 3641 2881 3436 2590 
Q 3231 2300 2841 2188 
z
M 1259 4147 
L 1259 2491 
L 2053 2491 
Q 2509 2491 2742 2702 
Q 2975 2913 2975 3322 
Q 2975 3731 2742 3939 
Q 2509 4147 2053 4147 
L 1259 4147 
z
" transform="scale(0.015625)"/>
       <path id="DejaVuSans-75" d="M 544 1381 
L 544 3500 
L 1119 3500 
L 1119 1403 
Q 1119 906 1312 657 
Q 1506 409 1894 409 
Q 2359 409 2629 706 
Q 2900 1003 2900 1516 
L 2900 3500 
L 3475 3500 
L 3475 0 
L 2900 0 
L 2900 538 
Q 2691 219 2414 64 
Q 2138 -91 1772 -91 
Q 1169 -91 856 284 
Q 544 659 544 1381 
z
M 1991 3584 
L 1991 3584 
z
" transform="scale(0.015625)"/>
       <path id="DejaVuSans-67" d="M 2906 1791 
Q 2906 2416 2648 2759 
Q 2391 3103 1925 3103 
Q 1463 3103 1205 2759 
Q 947 2416 947 1791 
Q 947 1169 1205 825 
Q 1463 481 1925 481 
Q 2391 481 2648 825 
Q 2906 1169 2906 1791 
z
M 3481 434 
Q 3481 -459 3084 -895 
Q 2688 -1331 1869 -1331 
Q 1566 -1331 1297 -1286 
Q 1028 -1241 775 -1147 
L 775 -588 
Q 1028 -725 1275 -790 
Q 1522 -856 1778 -856 
Q 2344 -856 2625 -561 
Q 2906 -266 2906 331 
L 2906 616 
Q 2728 306 2450 153 
Q 2172 0 1784 0 
Q 1141 0 747 490 
Q 353 981 353 1791 
Q 353 2603 747 3093 
Q 1141 3584 1784 3584 
Q 2172 3584 2450 3431 
Q 2728 3278 2906 2969 
L 2906 3500 
L 3481 3500 
L 3481 434 
z
" transform="scale(0.015625)"/>
       <path id="DejaVuSans-6f" d="M 1959 3097 
Q 1497 3097 1228 2736 
Q 959 2375 959 1747 
Q 959 1119 1226 758 
Q 1494 397 1959 397 
Q 2419 397 2687 759 
Q 2956 1122 2956 1747 
Q 2956 2369 2687 2733 
Q 2419 3097 1959 3097 
z
M 1959 3584 
Q 2709 3584 3137 3096 
Q 3566 2609 3566 1747 
Q 3566 888 3137 398 
Q 2709 -91 1959 -91 
Q 1206 -91 779 398 
Q 353 888 353 1747 
Q 353 2609 779 3096 
Q 1206 3584 1959 3584 
z
" transform="scale(0.015625)"/>
       <path id="DejaVuSans-66" d="M 2375 4863 
L 2375 4384 
L 1825 4384 
Q 1516 4384 1395 4259 
Q 1275 4134 1275 3809 
L 1275 3500 
L 2222 3500 
L 2222 3053 
L 1275 3053 
L 1275 0 
L 697 0 
L 697 3053 
L 147 3053 
L 147 3500 
L 697 3500 
L 697 3744 
Q 697 4328 969 4595 
Q 1241 4863 1831 4863 
L 2375 4863 
z
" transform="scale(0.015625)"/>
       <path id="DejaVuSans-4d" d="M 628 4666 
L 1569 4666 
L 2759 1491 
L 3956 4666 
L 4897 4666 
L 4897 0 
L 4281 0 
L 4281 4097 
L 3078 897 
L 2444 897 
L 1241 4097 
L 1241 0 
L 628 0 
L 628 4666 
z
" transform="scale(0.015625)"/>
       <path id="DejaVuSans-2d" d="M 313 2009 
L 1997 2009 
L 1997 1497 
L 313 1497 
L 313 2009 
z
" transform="scale(0.015625)"/>
       <path id="DejaVuSans-28" d="M 1984 4856 
Q 1566 4138 1362 3434 
Q 1159 2731 1159 2009 
Q 1159 1288 1364 580 
Q 1569 -128 1984 -844 
L 1484 -844 
Q 1016 -109 783 600 
Q 550 1309 550 2009 
Q 550 2706 781 3412 
Q 1013 4119 1484 4856 
L 1984 4856 
z
" transform="scale(0.015625)"/>
       <path id="DejaVuSans-55" d="M 556 4666 
L 1191 4666 
L 1191 1831 
Q 1191 1081 1462 751 
Q 1734 422 2344 422 
Q 2950 422 3222 751 
Q 3494 1081 3494 1831 
L 3494 4666 
L 4128 4666 
L 4128 1753 
Q 4128 841 3676 375 
Q 3225 -91 2344 -91 
Q 1459 -91 1007 375 
Q 556 841 556 1753 
L 556 4666 
z
" transform="scale(0.015625)"/>
       <path id="DejaVuSans-43" d="M 4122 4306 
L 4122 3641 
Q 3803 3938 3442 4084 
Q 3081 4231 2675 4231 
Q 1875 4231 1450 3742 
Q 1025 3253 1025 2328 
Q 1025 1406 1450 917 
Q 1875 428 2675 428 
Q 3081 428 3442 575 
Q 3803 722 4122 1019 
L 4122 359 
Q 3791 134 3420 21 
Q 3050 -91 2638 -91 
Q 1578 -91 968 557 
Q 359 1206 359 2328 
Q 359 3453 968 4101 
Q 1578 4750 2638 4750 
Q 3056 4750 3426 4639 
Q 3797 4528 4122 4306 
z
" transform="scale(0.015625)"/>
       <path id="DejaVuSans-50" d="M 1259 4147 
L 1259 2394 
L 2053 2394 
Q 2494 2394 2734 2622 
Q 2975 2850 2975 3272 
Q 2975 3691 2734 3919 
Q 2494 4147 2053 4147 
L 1259 4147 
z
M 628 4666 
L 2053 4666 
Q 2838 4666 3239 4311 
Q 3641 3956 3641 3272 
Q 3641 2581 3239 2228 
Q 2838 1875 2053 1875 
L 1259 1875 
L 1259 0 
L 628 0 
L 628 4666 
z
" transform="scale(0.015625)"/>
       <path id="DejaVuSans-73" d="M 2834 3397 
L 2834 2853 
Q 2591 2978 2328 3040 
Q 2066 3103 1784 3103 
Q 1356 3103 1142 2972 
Q 928 2841 928 2578 
Q 928 2378 1081 2264 
Q 1234 2150 1697 2047 
L 1894 2003 
Q 2506 1872 2764 1633 
Q 3022 1394 3022 966 
Q 3022 478 2636 193 
Q 2250 -91 1575 -91 
Q 1294 -91 989 -36 
Q 684 19 347 128 
L 347 722 
Q 666 556 975 473 
Q 1284 391 1588 391 
Q 1994 391 2212 530 
Q 2431 669 2431 922 
Q 2431 1156 2273 1281 
Q 2116 1406 1581 1522 
L 1381 1569 
Q 847 1681 609 1914 
Q 372 2147 372 2553 
Q 372 3047 722 3315 
Q 1072 3584 1716 3584 
Q 2034 3584 2315 3537 
Q 2597 3491 2834 3397 
z
" transform="scale(0.015625)"/>
       <path id="DejaVuSans-68" d="M 3513 2113 
L 3513 0 
L 2938 0 
L 2938 2094 
Q 2938 2591 2744 2837 
Q 2550 3084 2163 3084 
Q 1697 3084 1428 2787 
Q 1159 2491 1159 1978 
L 1159 0 
L 581 0 
L 581 4863 
L 1159 4863 
L 1159 2956 
Q 1366 3272 1645 3428 
Q 1925 3584 2291 3584 
Q 2894 3584 3203 3211 
Q 3513 2838 3513 2113 
z
" transform="scale(0.015625)"/>
       <path id="DejaVuSans-72" d="M 2631 2963 
Q 2534 3019 2420 3045 
Q 2306 3072 2169 3072 
Q 1681 3072 1420 2755 
Q 1159 2438 1159 1844 
L 1159 0 
L 581 0 
L 581 3500 
L 1159 3500 
L 1159 2956 
Q 1341 3275 1631 3429 
Q 1922 3584 2338 3584 
Q 2397 3584 2469 3576 
Q 2541 3569 2628 3553 
L 2631 2963 
z
" transform="scale(0.015625)"/>
       <path id="DejaVuSans-3b" d="M 750 3309 
L 1409 3309 
L 1409 2516 
L 750 2516 
L 750 3309 
z
M 750 794 
L 1409 794 
L 1409 256 
L 897 -744 
L 494 -744 
L 750 256 
L 750 794 
z
" transform="scale(0.015625)"/>
       <path id="DejaVuSans-76" d="M 191 3500 
L 800 3500 
L 1894 563 
L 2988 3500 
L 3597 3500 
L 2284 0 
L 1503 0 
L 191 3500 
z
" transform="scale(0.015625)"/>
       <path id="DejaVuSans-74" d="M 1172 4494 
L 1172 3500 
L 2356 3500 
L 2356 3053 
L 1172 3053 
L 1172 1153 
Q 1172 725 1289 603 
Q 1406 481 1766 481 
L 2356 481 
L 2356 0 
L 1766 0 
Q 1100 0 847 248 
Q 594 497 594 1153 
L 594 3053 
L 172 3053 
L 172 3500 
L 594 3500 
L 594 4494 
L 1172 4494 
z
" transform="scale(0.015625)"/>
       <path id="DejaVuSans-29" d="M 513 4856 
L 1013 4856 
Q 1481 4119 1714 3412 
Q 1947 2706 1947 2009 
Q 1947 1309 1714 600 
Q 1481 -109 1013 -844 
L 513 -844 
Q 928 -128 1133 580 
Q 1338 1288 1338 2009 
Q 1338 2731 1133 3434 
Q 928 4138 513 4856 
z
" transform="scale(0.015625)"/>
      </defs>
      <use xlink:href="#DejaVuSans-52"/>
      <use xlink:href="#DejaVuSans-75" transform="translate(64.982422 0)"/>
      <use xlink:href="#DejaVuSans-6e" transform="translate(128.361328 0)"/>
      <use xlink:href="#DejaVuSans-6e" transform="translate(191.740234 0)"/>
      <use xlink:href="#DejaVuSans-69" transform="translate(255.119141 0)"/>
      <use xlink:href="#DejaVuSans-6e" transform="translate(282.902344 0)"/>
      <use xlink:href="#DejaVuSans-67" transform="translate(346.28125 0)"/>
      <use xlink:href="#DejaVuSans-20" transform="translate(409.757812 0)"/>
      <use xlink:href="#DejaVuSans-6d" transform="translate(441.544922 0)"/>
      <use xlink:href="#DejaVuSans-65" transform="translate(538.957031 0)"/>
      <use xlink:href="#DejaVuSans-61" transform="translate(600.480469 0)"/>
      <use xlink:href="#DejaVuSans-6e" transform="translate(661.759766 0)"/>
      <use xlink:href="#DejaVuSans-20" transform="translate(725.138672 0)"/>
      <use xlink:href="#DejaVuSans-6f" transform="translate(756.925781 0)"/>
      <use xlink:href="#DejaVuSans-66" transform="translate(818.107422 0)"/>
      <use xlink:href="#DejaVuSans-20" transform="translate(853.3125 0)"/>
      <use xlink:href="#DejaVuSans-4d" transform="translate(885.099609 0)"/>
      <use xlink:href="#DejaVuSans-65" transform="translate(971.378906 0)"/>
      <use xlink:href="#DejaVuSans-61" transform="translate(1032.902344 0)"/>
      <use xlink:href="#DejaVuSans-6e" transform="translate(1094.181641 0)"/>
      <use xlink:href="#DejaVuSans-2d" transform="translate(1157.560547 0)"/>
      <use xlink:href="#DejaVuSans-6d" transform="translate(1193.644531 0)"/>
      <use xlink:href="#DejaVuSans-65" transform="translate(1291.056641 0)"/>
      <use xlink:href="#DejaVuSans-64" transform="translate(1352.580078 0)"/>
      <use xlink:href="#DejaVuSans-69" transform="translate(1416.056641 0)"/>
      <use xlink:href="#DejaVuSans-61" transform="translate(1443.839844 0)"/>
      <use xlink:href="#DejaVuSans-6e" transform="translate(1505.119141 0)"/>
      <use xlink:href="#DejaVuSans-20" transform="translate(1568.498047 0)"/>
      <use xlink:href="#DejaVuSans-28" transform="translate(1600.285156 0)"/>
      <use xlink:href="#DejaVuSans-55" transform="translate(1639.298828 0)"/>
      <use xlink:href="#DejaVuSans-43" transform="translate(1712.492188 0)"/>
      <use xlink:href="#DejaVuSans-50" transform="translate(1782.316406 0)"/>
      <use xlink:href="#DejaVuSans-20" transform="translate(1842.619141 0)"/>
      <use xlink:href="#DejaVuSans-73" transform="translate(1874.40625 0)"/>
      <use xlink:href="#DejaVuSans-68" transform="translate(1926.505859 0)"/>
      <use xlink:href="#DejaVuSans-61" transform="translate(1989.884766 0)"/>
      <use xlink:href="#DejaVuSans-72" transform="translate(2051.164062 0)"/>
      <use xlink:href="#DejaVuSans-65" transform="translate(2090.027344 0)"/>
      <use xlink:href="#DejaVuSans-3b" transform="translate(2151.550781 0)"/>
      <use xlink:href="#DejaVuSans-20" transform="translate(2185.242188 0)"/>
      <use xlink:href="#DejaVuSans-55" transform="translate(2217.029297 0)"/>
      <use xlink:href="#DejaVuSans-43" transform="translate(2290.222656 0)"/>
      <use xlink:href="#DejaVuSans-50" transform="translate(2360.046875 0)"/>
      <use xlink:href="#DejaVuSans-2d" transform="translate(2418.099609 0)"/>
      <use xlink:href="#DejaVuSans-66" transform="translate(2454.183594 0)"/>
      <use xlink:href="#DejaVuSans-61" transform="translate(2489.388672 0)"/>
      <use xlink:href="#DejaVuSans-76" transform="translate(2550.667969 0)"/>
      <use xlink:href="#DejaVuSans-6f" transform="translate(2609.847656 0)"/>
      <use xlink:href="#DejaVuSans-75" transform="translate(2671.029297 0)"/>
      <use xlink:href="#DejaVuSans-72" transform="translate(2734.408203 0)"/>
      <use xlink:href="#DejaVuSans-65" transform="translate(2773.271484 0)"/>
      <use xlink:href="#DejaVuSans-64" transform="translate(2834.794922 0)"/>
      <use xlink:href="#DejaVuSans-20" transform="translate(2898.271484 0)"/>
      <use xlink:href="#DejaVuSans-69" transform="translate(2930.058594 0)"/>
      <use xlink:href="#DejaVuSans-66" transform="translate(2957.841797 0)"/>
      <use xlink:href="#DejaVuSans-20" transform="translate(2993.046875 0)"/>
      <use xlink:href="#DejaVuSans-70" transform="translate(3024.833984 0)"/>
      <use xlink:href="#DejaVuSans-6f" transform="translate(3088.310547 0)"/>
      <use xlink:href="#DejaVuSans-73" transform="translate(3149.492188 0)"/>
      <use xlink:href="#DejaVuSans-69" transform="translate(3201.591797 0)"/>
      <use xlink:href="#DejaVuSans-74" transform="translate(3229.375 0)"/>
      <use xlink:href="#DejaVuSans-69" transform="translate(3268.583984 0)"/>
      <use xlink:href="#DejaVuSans-76" transform="translate(3296.367188 0)"/>
      <use xlink:href="#DejaVuSans-65" transform="translate(3355.546875 0)"/>
      <use xlink:href="#DejaVuSans-29" transform="translate(3417.070312 0)"/>
     </g>
    </g>
   </g>
   <g id="line2d_25">
    <path d="M 94.617273 88.851991 
L 94.623474 87.847938 
L 94.743359 267.096245 
L 94.782632 270.441818 
L 94.795034 263.466334 
L 94.976929 225.689043 
L 95.150556 196.154148 
L 95.051341 227.184304 
L 95.189829 205.932653 
L 95.419265 229.18177 
L 95.425466 228.186291 
L 95.634232 216.682035 
L 95.646634 216.584218 
L 95.652835 217.305673 
L 95.712777 222.239299 
L 95.77272 218.50853 
L 95.913276 209.9306 
L 95.960816 209.998796 
L 96.144778 188.228873 
L 96.572645 132.471963 
L 96.977775 111.318586 
L 97.143135 104.893316 
L 97.209278 106.984562 
L 97.215479 107.074531 
L 97.269221 106.281616 
L 97.370504 102.366688 
L 97.9844 74.153497 
L 98.182831 65.177722 
L 98.220036 66.034582 
L 98.406066 73.333974 
L 98.699578 88.882815 
L 98.759521 87.745403 
L 99.123311 80.640184 
L 99.15845 80.584925 
L 99.234929 80.663313 
L 99.294871 80.776948 
L 99.400288 82.127527 
L 99.640059 84.398996 
L 99.64626 84.397035 
L 99.772346 84.490288 
L 99.821954 84.726216 
L 99.881896 85.116817 
L 99.914968 84.628876 
L 100.270491 78.394205 
L 100.322165 78.903462 
L 100.429649 79.67072 
L 100.506127 79.534045 
L 101.227507 72.388287 
L 101.301919 72.566633 
L 101.343258 72.706214 
L 101.498283 73.158564 
L 101.516886 73.110002 
L 101.549957 73.029238 
L 101.562359 73.33084 
L 101.86414 78.114067 
L 101.870341 78.068567 
L 101.913748 77.861965 
L 101.936485 78.377503 
L 102.579319 90.478686 
L 102.705405 92.563275 
L 103.05886 101.221816 
L 103.12087 101.518867 
L 103.577675 107.475223 
L 103.968336 112.28941 
L 104.191571 113.719139 
L 104.41894 117.539858 
L 104.65251 120.314316 
L 104.671113 120.309186 
L 104.702117 120.299727 
L 104.718653 120.401799 
L 105.123783 123.095308 
L 105.160989 122.879059 
L 105.305678 121.413136 
L 105.332549 122.062388 
L 105.731478 129.23248 
L 105.803823 129.352092 
L 106.010522 132.501253 
L 106.132474 135.766718 
L 106.196551 134.734888 
L 106.380513 132.711992 
L 106.419786 132.885132 
L 106.581011 134.000936 
L 106.630619 133.484379 
L 107.013012 130.585854 
L 107.070888 130.119528 
L 107.531827 124.987678 
L 107.779866 121.170931 
L 107.823272 120.603648 
L 107.885282 121.210057 
L 107.908019 121.419208 
L 107.949359 120.793239 
L 108.304881 117.223112 
L 108.447503 116.961735 
L 108.472307 117.105577 
L 108.666604 118.145595 
L 108.697609 117.75051 
L 109.001457 115.379035 
L 109.144079 115.017478 
L 109.168883 115.205057 
L 109.195754 115.405468 
L 109.251563 114.974689 
L 109.311505 114.540599 
L 109.392118 114.695135 
L 109.497534 115.301417 
L 109.80965 117.669355 
L 110.003947 118.967835 
L 110.047354 118.712227 
L 110.363603 116.429183 
L 110.636446 113.239928 
L 110.708791 113.002893 
L 111.649271 108.214421 
L 113.145772 90.664743 
L 113.158174 90.674649 
L 113.350404 90.713821 
L 113.418615 90.590856 
L 113.681122 88.103432 
L 113.819611 87.765387 
L 113.825812 87.835252 
L 113.848548 88.096384 
L 113.949831 87.983388 
L 114.450043 90.804377 
L 114.491382 90.694104 
L 114.807632 89.306767 
L 114.8159 89.249786 
L 114.896512 89.465612 
L 115.053604 89.726474 
L 115.063939 89.689259 
L 115.545547 87.846568 
L 115.62616 88.086747 
L 115.762581 88.282695 
L 116.062295 89.469614 
L 116.308267 90.76322 
L 116.492229 92.29934 
L 116.548038 92.17771 
L 116.58731 91.862293 
L 116.740268 89.574429 
L 116.971771 86.824363 
L 117.393436 83.240871 
L 118.753516 69.29916 
L 118.852731 68.416724 
L 119.735336 57.456924 
L 120.099127 54.007175 
L 120.942458 47.162179 
L 121.087148 47.189983 
L 121.262842 47.312493 
L 121.308316 47.353039 
L 121.349656 47.243134 
L 121.355856 47.228387 
L 121.417866 47.364698 
L 121.481943 47.450746 
L 121.52535 47.328257 
L 121.969753 45.734204 
L 122.354213 42.861669 
L 122.498902 42.782024 
L 122.517505 42.830418 
L 122.536108 42.877292 
L 122.560912 42.637784 
L 122.767611 41.713186 
L 122.775879 41.70801 
L 122.825486 41.805742 
L 123.110731 42.437939 
L 123.133468 42.252783 
L 123.582005 39.043309 
L 123.635747 39.071293 
L 123.761833 39.007698 
L 123.803173 39.096875 
L 124.235174 40.400007 
L 124.297183 40.176468 
L 124.466677 39.900295 
L 124.485279 39.922543 
L 124.536954 40.043663 
L 124.563825 39.84751 
L 124.718849 39.01443 
L 124.772591 39.130443 
L 124.824266 39.219814 
L 124.888343 39.14651 
L 124.985491 38.870283 
L 125.068171 38.478182 
L 125.121912 38.749246 
L 125.299674 39.610297 
L 125.353415 39.359965 
L 125.409224 39.055129 
L 125.477435 39.289014 
L 125.779215 40.079961 
L 125.890833 40.201587 
L 126.130604 40.976731 
L 127.267448 48.361596 
L 127.273649 48.347941 
L 127.445209 48.098781 
L 127.478281 48.163473 
L 127.505152 48.13 
L 127.565095 48.22992 
L 127.879277 48.906999 
L 128.073574 49.349837 
L 128.412561 50.216217 
L 128.437365 50.050157 
L 128.635796 49.705309 
L 128.854897 49.543205 
L 128.8797 49.667561 
L 128.964447 49.850756 
L 128.989251 49.651388 
L 129.007854 49.443887 
L 129.102935 49.589474 
L 129.291031 49.926741 
L 129.537003 51.346265 
L 129.549405 51.336229 
L 129.681693 51.093054 
L 130.018612 49.300711 
L 130.043416 49.413506 
L 130.551895 51.63275 
L 130.576699 51.611379 
L 130.597369 51.591293 
L 130.613905 51.656656 
L 130.646977 51.68688 
L 131.234002 54.191229 
L 131.252605 54.126576 
L 131.779687 52.672069 
L 132.042195 52.341291 
L 132.271631 52.031044 
L 132.786312 51.218817 
L 133.090159 50.61295 
L 133.263786 50.501501 
L 133.346466 50.423619 
L 133.394007 50.497389 
L 133.447748 50.590445 
L 133.478753 50.446406 
L 133.497356 50.455856 
L 133.668916 50.420933 
L 133.751596 50.393818 
L 133.770199 50.478446 
L 134.080247 51.36995 
L 134.596995 52.420964 
L 134.663139 52.33297 
L 134.845034 51.759956 
L 135.113742 51.254246 
L 135.12201 51.248191 
L 135.150948 51.359881 
L 135.572614 53.089201 
L 135.946739 54.473661 
L 136.273324 55.177392 
L 136.585439 56.033684 
L 136.765268 56.401929 
L 136.785937 56.375107 
L 136.852081 56.467983 
L 136.934761 56.707743 
L 137.064981 56.796413 
L 137.085651 56.742292 
L 137.244809 55.993345 
L 137.472178 55.004888 
L 137.488714 55.085302 
L 138.379587 59.092646 
L 138.462266 59.448504 
L 138.666898 60.484665 
L 138.74131 60.411525 
L 138.788851 60.37983 
L 138.813655 60.490996 
L 138.991416 61.492293 
L 139.08443 61.450246 
L 139.303531 61.033319 
L 139.332469 60.970172 
L 139.40068 61.084489 
L 139.460623 61.266928 
L 140.256414 65.114243 
L 140.61607 66.843963 
L 140.74009 66.794927 
L 140.859975 66.797676 
L 140.864109 66.812396 
L 140.967458 67.114563 
L 141.039803 67.028004 
L 141.128684 66.723986 
L 141.188626 66.859701 
L 141.397392 67.499871 
L 141.585488 67.779781 
L 142.205585 68.569095 
L 142.315136 68.418469 
L 142.561108 68.017831 
L 142.618983 68.158848 
L 142.732668 68.328326 
L 142.769874 68.251522 
L 143.218411 67.807876 
L 143.32176 67.926953 
L 143.520191 68.139544 
L 143.547062 68.096706 
L 143.691751 67.805623 
L 143.724823 67.907224 
L 143.728957 67.919862 
L 143.7889 67.752191 
L 143.834374 67.632655 
L 143.883981 67.805294 
L 143.906718 67.776911 
L 144.222968 68.586008 
L 144.297379 68.627304 
L 144.328384 68.540818 
L 144.845132 67.287705 
L 144.927811 67.154284 
L 145.762875 65.881064 
L 145.789746 65.846978 
L 145.868292 65.921506 
L 146.168005 66.330839 
L 146.271355 66.175861 
L 146.525595 65.580937 
L 146.575203 65.419667 
L 146.662016 65.45248 
L 146.845978 65.40385 
L 146.889385 65.418914 
L 146.92039 65.312791 
L 147.15396 64.276089 
L 147.259376 64.514069 
L 147.616966 65.11248 
L 147.631434 65.131592 
L 147.666573 65.008507 
L 148.117177 63.50357 
L 148.183321 63.605399 
L 148.245331 63.702147 
L 148.297005 63.581119 
L 148.398288 63.549723 
L 148.416891 63.577367 
L 148.507838 63.623646 
L 148.530575 63.547856 
L 148.71247 63.213062 
L 148.737274 63.240278 
L 148.832356 63.350145 
L 148.867495 63.228608 
L 149.094863 62.831694 
L 149.254022 63.574983 
L 149.334634 64.078552 
L 149.41318 63.886411 
L 149.452453 63.819359 
L 149.489659 63.971494 
L 150.068416 65.902625 
L 150.630637 65.909224 
L 150.775326 65.562077 
L 150.864207 65.313242 
L 150.913815 65.492595 
L 151.221796 66.652933 
L 151.248667 66.598833 
L 151.486371 65.883042 
L 151.748879 65.170765 
L 151.80262 65.110636 
L 151.858429 65.193249 
L 151.910104 65.20319 
L 151.94731 65.11858 
L 152.141607 64.84919 
L 152.158143 64.874638 
L 152.309033 64.909161 
L 152.360708 64.750668 
L 152.58601 64.361674 
L 152.697627 64.343759 
L 152.722431 64.433426 
L 153.12136 65.469507 
L 153.625706 65.817579 
L 153.631907 65.81102 
L 154.280942 65.051893 
L 154.324348 65.188759 
L 154.4401 65.380509 
L 154.493842 65.360196 
L 154.781153 65.467831 
L 155.134608 65.657998 
L 155.184216 65.65042 
L 155.215221 65.740405 
L 155.59348 66.497673 
L 155.843586 66.593869 
L 156.219778 67.089453 
L 156.641444 67.385541 
L 156.753062 67.447761 
L 156.800602 67.565103 
L 157.001101 68.000271 
L 157.381427 69.035191 
L 157.610863 69.170447 
L 157.662537 69.083108 
L 157.836165 68.977352 
L 157.842365 68.995951 
L 157.993256 69.466078 
L 158.071801 69.384467 
L 158.791114 68.641676 
L 158.86966 68.743716 
L 159.06189 68.773369 
L 159.252053 68.946932 
L 159.545565 69.589059 
L 159.743996 69.621598 
L 159.94036 69.494473 
L 160.151193 68.999066 
L 160.23594 69.037642 
L 160.583194 68.98113 
L 160.907712 68.794163 
L 161.17642 67.231082 
L 161.209492 67.262847 
L 161.562948 67.850992 
L 161.982547 68.379401 
L 162.575773 68.156212 
L 162.579907 68.174144 
L 162.739065 68.373887 
L 162.970568 68.782491 
L 163.503851 69.887013 
L 163.650608 69.924776 
L 164.016465 69.808965 
L 164.43193 69.496598 
L 164.648964 69.58239 
L 164.944543 69.974587 
L 165.477827 70.512763 
L 165.479894 70.510869 
L 165.614248 70.43708 
L 165.645253 70.500866 
L 165.874689 71.478912 
L 167.005333 76.839911 
L 167.110749 76.77102 
L 167.238902 76.837619 
L 167.315381 77.164781 
L 167.792856 79.000348 
L 168.377814 80.665401 
L 168.625853 81.11995 
L 168.913164 81.634516 
L 168.942102 81.603543 
L 169.777166 80.850028 
L 170.025205 80.716098 
L 170.064478 80.87697 
L 170.484077 82.176301 
L 170.490278 82.16303 
L 170.504747 82.135346 
L 170.601895 82.185379 
L 170.820996 82.470943 
L 171.255064 82.904206 
L 171.449361 83.059947 
L 171.58785 83.299431 
L 171.747008 83.493492 
L 172.069458 83.475324 
L 172.441516 83.000223 
L 173.16703 83.461932 
L 173.466744 84.30349 
L 173.816065 84.375154 
L 173.93595 84.359133 
L 174.119912 84.473049 
L 174.370018 84.951721 
L 174.421693 84.802479 
L 174.601521 84.415029 
L 174.644928 84.488656 
L 175.335303 85.437973 
L 175.378709 85.51596 
L 175.38491 85.532591 
L 175.521332 85.840382 
L 175.579207 85.739219 
L 175.883055 85.812982 
L 176.081486 85.970776 
L 176.10629 85.946345 
L 176.242711 85.965522 
L 176.418405 86.059957 
L 176.623037 86.186501 
L 176.697449 86.282026 
L 176.829736 86.305992 
L 177.176991 86.397813 
L 177.546982 86.949352 
L 177.724743 86.915886 
L 178.185682 86.453617 
L 178.396515 86.409414 
L 178.435788 86.300849 
L 178.503998 86.430319 
L 178.543271 86.50394 
L 178.632152 86.436183 
L 178.927731 86.686432 
L 179.235713 86.718282 
L 179.566431 87.123775 
L 179.582967 87.080316 
L 179.841341 86.708189 
L 179.948824 86.576918 
L 180.258873 86.059245 
L 180.382892 86.005085 
L 180.943047 85.417941 
L 181.079468 85.263876 
L 181.087736 85.267256 
L 181.131143 85.286853 
L 181.170416 85.184154 
L 181.368847 84.802323 
L 182.154303 84.010938 
L 182.633845 84.291585 
L 182.917022 84.64201 
L 182.943893 84.624914 
L 183.086515 84.65027 
L 183.193999 84.775306 
L 183.260143 84.654098 
L 183.280812 84.622705 
L 183.346956 84.717971 
L 183.597062 85.000606 
L 184.250231 86.091412 
L 185.023285 87.738669 
L 185.172108 87.664266 
L 185.28786 87.679262 
L 185.291994 87.692004 
L 185.492492 88.420518 
L 185.577238 88.217237 
L 185.649583 88.092172 
L 185.678521 88.257505 
L 185.982369 89.34938 
L 186.317221 89.985234 
L 186.391633 90.11162 
L 186.497049 90.466516 
L 186.587997 90.398031 
L 186.75749 90.52684 
L 187.005529 90.694277 
L 188.132038 90.521258 
L 188.435886 90.891447 
L 188.526833 91.014211 
L 188.737666 91.247333 
L 189.066318 91.097749 
L 189.142796 91.000211 
L 189.192404 91.109103 
L 189.446644 91.433812 
L 189.609936 91.472302 
L 191.18705 90.756577 
L 191.302801 90.685551 
L 191.769941 90.418348 
L 192.01798 90.321404 
L 192.303224 89.992785 
L 192.447914 89.607339 
L 192.720756 89.116621 
L 192.739359 89.153524 
L 192.805503 89.284268 
L 192.894383 89.213923 
L 193.072145 88.96033 
L 193.111417 89.020658 
L 193.142422 89.058983 
L 193.2127 88.979997 
L 193.36359 88.92923 
L 193.508279 88.877424 
L 193.717045 88.703409 
L 193.923744 88.274518 
L 193.983687 88.419258 
L 194.018826 88.437152 
L 194.074635 88.352188 
L 194.411554 88.094398 
L 194.634789 87.872909 
L 194.926235 87.974358 
L 194.965507 88.005275 
L 195.013048 87.907432 
L 195.114331 87.794877 
L 195.163938 87.840924 
L 195.496724 87.934279 
L 195.765433 87.817291 
L 196.118888 87.863255 
L 196.51575 87.408646 
L 196.703846 87.298036 
L 196.873339 87.23163 
L 196.889875 87.249021 
L 197.803485 88.085647 
L 198.051524 88.444194 
L 198.270625 88.676464 
L 198.570338 89.103121 
L 198.746032 89.285531 
L 198.826645 89.349289 
L 198.874186 89.278963 
L 199.341325 88.687274 
L 199.378531 88.740561 
L 199.597632 88.831148 
L 199.876676 88.903754 
L 200.370687 89.768765 
L 200.558783 89.815265 
L 200.6704 89.735512 
L 200.724142 89.828381 
L 201.555072 90.20931 
L 201.813446 90.617334 
L 201.829982 90.606534 
L 202.051149 90.58493 
L 202.735323 90.93613 
L 203.018501 91.260873 
L 203.35542 91.436685 
L 203.820493 91.966446 
L 203.977584 92.033441 
L 204.085068 91.949797 
L 204.24836 91.944855 
L 204.430255 91.876449 
L 204.622485 91.906519 
L 205.009012 92.348784 
L 205.1413 92.514792 
L 205.341798 93.287907 
L 205.821339 95.046357 
L 205.850277 95.036399 
L 206.14379 95.051194 
L 206.739083 96.377583 
L 206.751485 96.364451 
L 206.993323 95.962674 
L 207.474931 94.642816 
L 208.092961 93.252698 
L 208.440216 92.444282 
L 209.231873 90.511275 
L 209.484046 90.034296 
L 209.752755 90.082301 
L 209.932583 90.275808 
L 210.172353 90.282045 
L 210.488603 90.149351 
L 210.91647 90.434102 
L 211.675055 89.790158 
L 211.954099 89.563365 
L 212.255879 89.47965 
L 212.373698 89.302488 
L 212.394368 89.203584 
L 212.491516 89.271043 
L 212.623804 89.363641 
L 212.663077 89.260082 
L 212.937986 88.850976 
L 213.0248 88.703191 
L 213.92394 86.271466 
L 214.064496 86.228184 
L 214.246391 86.086714 
L 214.575042 85.371138 
L 214.715598 85.300768 
L 215.031847 84.988167 
L 216.56142 83.394425 
L 216.985153 83.122939 
L 217.570111 81.992622 
L 217.888427 81.761477 
L 218.045519 81.655001 
L 218.401041 81.350398 
L 218.996334 81.586409 
L 219.124488 81.655688 
L 219.155492 81.609004 
L 219.353923 81.504984 
L 219.641235 81.436874 
L 220.298538 81.286367 
L 220.734673 80.683064 
L 220.82562 80.537258 
L 220.891764 80.596741 
L 221.625546 81.121734 
L 221.974867 80.988048 
L 222.400667 81.033062 
L 222.993893 81.863044 
L 223.508574 82.517167 
L 223.640861 82.478056 
L 223.793818 82.47825 
L 223.940574 82.66247 
L 224.207216 83.10805 
L 224.556538 83.584249 
L 225.050548 83.543462 
L 225.271716 83.442858 
L 225.734722 83.631614 
L 226.203929 83.671397 
L 226.371355 83.654475 
L 227.824449 82.351607 
L 228.130363 81.771535 
L 228.376335 81.600394 
L 228.576833 81.387602 
L 229.037772 80.976973 
L 229.397428 80.803016 
L 229.579323 80.819843 
L 230.015458 80.755505 
L 230.215956 80.966216 
L 230.43299 81.111197 
L 231.020016 80.91565 
L 231.631845 80.110334 
L 232.045243 79.648903 
L 232.311884 79.338043 
L 232.313951 79.339626 
L 232.698411 79.495861 
L 232.812096 79.559375 
L 233.064269 79.824957 
L 233.093207 79.795019 
L 233.862127 79.175848 
L 234.271391 79.114526 
L 234.645516 79.320924 
L 234.810875 79.129503 
L 235.170532 78.653069 
L 235.490915 78.347217 
L 236.237098 77.959405 
L 236.567817 77.948702 
L 236.795186 78.173831 
L 236.962612 78.270812 
L 237.818346 77.780764 
L 238.233811 77.412395 
L 238.655477 77.326043 
L 239.155688 76.630215 
L 239.285909 76.584595 
L 239.626962 76.522969 
L 239.984552 76.550993 
L 240.309069 76.658693 
L 240.567443 76.582435 
L 240.801013 76.378624 
L 241.33843 75.883441 
L 242.235504 74.900005 
L 242.365724 74.803119 
L 243.612119 73.61766 
L 244.046187 73.145237 
L 244.573269 72.815603 
L 244.796504 72.739609 
L 245.110687 72.378461 
L 245.443472 72.342253 
L 245.780392 72.339929 
L 245.875473 72.408199 
L 245.912679 72.375628 
L 246.104909 72.357614 
L 246.501771 72.409622 
L 246.694001 72.51753 
L 246.877963 72.733495 
L 247.241754 73.311339 
L 247.287227 73.25742 
L 247.51873 73.130123 
L 247.83498 73.074796 
L 248.502618 73.465321 
L 248.684513 73.43046 
L 248.984226 73.329879 
L 249.219863 73.316447 
L 249.531979 73.434264 
L 250.710163 73.654822 
L 251.222777 73.595097 
L 251.408806 73.607819 
L 251.656845 73.401764 
L 253.279432 72.560717 
L 253.434456 72.489968 
L 253.740371 72.24332 
L 254.364602 71.917156 
L 254.641578 71.814776 
L 255.127321 72.190882 
L 255.416699 72.318181 
L 255.720547 71.987749 
L 256.63209 71.621436 
L 256.875994 72.129933 
L 257.177775 72.609473 
L 257.580838 72.831049 
L 257.766867 72.962166 
L 258.568859 73.951249 
L 258.87064 74.236478 
L 259.178621 74.654948 
L 259.643694 74.951435 
L 260.952099 75.603133 
L 261.557727 75.390008 
L 261.731354 75.357217 
L 262.310111 75.133498 
L 262.837194 74.130736 
L 263.012888 73.966498 
L 263.544105 73.935491 
L 263.719799 73.842736 
L 264.350231 73.021566 
L 264.377102 73.070379 
L 264.519724 73.104306 
L 264.751227 73.087595 
L 265.005466 72.953905 
L 265.47674 72.722371 
L 266.324206 72.240057 
L 266.60325 72.16371 
L 267.086926 71.980806 
L 267.618142 71.858686 
L 268.14109 71.889802 
L 268.490412 71.743135 
L 268.686776 71.704163 
L 269.30894 71.363052 
L 269.451562 71.262535 
L 269.774013 70.92642 
L 270.123334 71.011124 
L 270.340368 71.391672 
L 271.070015 72.359374 
L 271.235375 72.423994 
L 271.409002 72.408068 
L 271.516485 72.487037 
L 271.853405 72.663907 
L 272.512774 72.652983 
L 273.399513 72.871472 
L 275.321814 73.096469 
L 275.545049 73.121917 
L 275.74348 73.129369 
L 275.879901 73.082257 
L 276.342907 73.006152 
L 276.68396 72.917578 
L 277.359866 72.732422 
L 277.812537 72.898598 
L 278.060576 73.01037 
L 278.285878 73.17982 
L 278.538051 73.293152 
L 278.98452 73.477496 
L 279.110607 73.444108 
L 279.645957 73.373799 
L 280.077958 73.505135 
L 280.307394 73.376598 
L 280.555433 73.223046 
L 280.698055 73.126877 
L 281.074247 72.59577 
L 281.187932 72.629236 
L 281.758421 72.785439 
L 282.306174 72.789195 
L 282.994481 73.082851 
L 285.73531 73.154983 
L 286.99204 71.9213 
L 287.30829 71.755377 
L 287.43851 71.636608 
L 287.856042 71.298639 
L 288.294244 71.260678 
L 288.689039 71.176978 
L 288.937078 70.911623 
L 289.311203 70.955834 
L 289.714266 71.0439 
L 290.034649 70.690754 
L 290.696086 70.703752 
L 290.989599 71.083422 
L 291.25004 71.378106 
L 291.444337 71.359137 
L 291.55182 71.414828 
L 291.839132 71.708463 
L 292.192587 72.069422 
L 293.496858 73.042494 
L 293.612609 72.937542 
L 294.637836 71.168961 
L 295.197991 71.206337 
L 295.605188 71.053874 
L 296.115734 70.430441 
L 296.992138 69.892727 
L 297.572962 69.558409 
L 297.955355 69.627486 
L 298.170322 69.764371 
L 298.451433 69.916891 
L 298.459701 69.90601 
L 298.581653 69.950472 
L 298.902037 69.992219 
L 299.821848 69.49736 
L 300.009944 69.513787 
L 300.373734 69.281728 
L 300.642443 69.540815 
L 300.892548 69.67244 
L 301.649067 69.978212 
L 303.106295 70.946641 
L 303.420477 71.085471 
L 303.63131 71.222615 
L 303.924823 71.300955 
L 304.317551 71.000255 
L 304.69581 70.480794 
L 304.848767 70.532942 
L 305.317974 70.733734 
L 305.580482 70.691788 
L 306.270857 70.609824 
L 306.675987 70.981797 
L 307.128657 71.127049 
L 307.521386 70.94007 
L 308.468067 70.728741 
L 308.960011 70.205132 
L 309.212183 70.136469 
L 309.478825 70.145468 
L 310.563995 70.634124 
L 311.039403 70.740798 
L 311.760782 71.170656 
L 312.227922 71.097953 
L 312.442889 71.17468 
L 312.91623 71.394531 
L 313.34203 71.52856 
L 313.792634 71.717017 
L 313.914586 71.575076 
L 314.522281 70.818834 
L 314.795124 70.598326 
L 315.150646 70.381589 
L 315.489632 70.370792 
L 316.134533 70.641392 
L 316.750496 70.47889 
L 317.480144 70.798137 
L 317.945217 70.666687 
L 318.780281 70.687951 
L 319.142004 70.774373 
L 319.609144 70.776229 
L 319.850981 70.875552 
L 320.347059 71.064888 
L 320.621969 71.094247 
L 320.805931 71.035255 
L 321.208994 70.894285 
L 321.539712 70.869797 
L 321.783617 70.850518 
L 321.90557 71.032363 
L 322.215618 71.380963 
L 322.680691 71.537802 
L 322.970069 71.582289 
L 323.218108 71.610663 
L 323.604635 71.669628 
L 323.912617 71.708677 
L 324.226799 71.666798 
L 324.499642 71.63432 
L 324.826227 71.706069 
L 325.24996 71.906411 
L 325.514534 71.97602 
L 325.919664 71.991441 
L 326.430211 71.685508 
L 327.050308 70.993268 
L 327.76962 70.642619 
L 328.123076 70.418499 
L 328.743173 70.45218 
L 328.931269 70.480077 
L 329.305394 70.381035 
L 329.758065 70.289963 
L 330.522851 70.338778 
L 331.072671 69.996124 
L 332.197113 69.415556 
L 333.524121 69.899909 
L 333.718418 69.693643 
L 333.883777 69.654203 
L 334.162821 69.702348 
L 334.326113 69.675243 
L 334.512142 69.58599 
L 335.508431 69.978676 
L 335.888758 69.875776 
L 336.209141 69.730214 
L 336.531591 69.859929 
L 336.707286 69.86906 
L 337.265373 69.520335 
L 337.381124 69.449549 
L 338.174849 69.034353 
L 339.078123 69.405833 
L 339.284822 69.319189 
L 339.7809 69.350846 
L 340.045475 69.504947 
L 340.605629 69.896578 
L 340.915677 70.077931 
L 342.277824 71.579062 
L 342.67882 71.727128 
L 343.096352 71.861339 
L 343.172831 71.749024 
L 343.577961 71.036553 
L 343.960354 71.104155 
L 344.293139 71.137334 
L 344.971112 71.21343 
L 345.758635 71.436291 
L 346.426273 71.170095 
L 347.288208 70.710206 
L 347.792553 70.889417 
L 348.222487 70.909238 
L 349.297322 71.154645 
L 349.549495 71.03512 
L 349.762395 71.000589 
L 351.213422 71.06074 
L 352.809138 70.445979 
L 353.367226 70.577087 
L 353.640068 70.569512 
L 353.914978 70.684988 
L 354.97121 71.167733 
L 355.359804 71.362025 
L 355.74013 71.6065 
L 356.151461 71.773418 
L 356.471845 71.500444 
L 356.587596 71.539007 
L 356.750888 71.529502 
L 357.645895 71.10514 
L 357.912537 71.007722 
L 358.532634 70.645269 
L 359.010109 70.171354 
L 359.330492 70.020849 
L 359.712885 69.957891 
L 360.351585 69.66872 
L 360.810457 69.685746 
L 360.97995 69.609684 
L 361.63932 69.485127 
L 361.825349 69.453788 
L 362.050651 69.483473 
L 362.197407 69.612745 
L 362.598403 69.987583 
L 363.381793 69.831634 
L 363.923344 69.75106 
L 364.285067 69.712028 
L 364.541374 69.736244 
L 364.948571 69.778284 
L 365.17594 69.745878 
L 365.672018 69.771948 
L 366.385129 69.526493 
L 367.472366 68.986059 
L 367.933305 68.719518 
L 368.408713 68.61905 
L 368.993671 68.524556 
L 369.154896 68.439644 
L 369.411203 68.383192 
L 369.636505 68.317243 
L 369.896945 68.293989 
L 370.405425 68.118555 
L 370.680335 67.992267 
L 371.050326 67.932275 
L 371.333504 67.95302 
L 371.796509 67.966342 
L 372.18717 68.006097 
L 372.486884 68.023966 
L 373.119383 67.921065 
L 373.710542 67.26109 
L 373.929643 66.91798 
L 374.291366 66.50052 
L 375.901552 65.445793 
L 376.263275 65.402625 
L 376.61673 65.229869 
L 376.901975 65.05796 
L 377.536541 65.031794 
L 377.923068 65.189452 
L 378.687854 65.178435 
L 379.080582 65.076653 
L 379.65934 64.997081 
L 380.440662 65.133472 
L 380.973945 65.067936 
L 381.691191 64.66627 
L 382.127326 64.478488 
L 382.786696 64.73746 
L 383.016131 64.799663 
L 383.30551 64.748331 
L 383.491539 64.780785 
L 384.274928 65.17991 
L 384.467159 65.212632 
L 384.971504 65.358183 
L 385.430376 65.633706 
L 385.885114 65.741867 
L 386.321249 65.888989 
L 386.430799 65.964214 
L 387.792946 66.565891 
L 388.049252 66.780823 
L 388.317961 66.92835 
L 388.485387 67.005961 
L 388.650746 67.03172 
L 389.140623 67.208074 
L 389.893008 67.40577 
L 390.281602 67.435075 
L 390.465564 67.423808 
L 391.377106 67.325852 
L 391.844246 67.344256 
L 393.419293 67.391009 
L 394.020787 66.795675 
L 394.816578 66.220418 
L 395.885212 65.391115 
L 396.271739 65.271184 
L 396.507376 65.201612 
L 397.00552 65.258176 
L 397.224621 65.296974 
L 397.522268 65.262172 
L 398.512356 64.571354 
L 399.262674 63.861551 
L 399.49831 63.718178 
L 400.469796 63.13077 
L 401.001012 62.894625 
L 401.28419 62.749033 
L 401.761665 62.900798 
L 401.927024 62.881764 
L 402.218469 62.834789 
L 403.11761 62.887727 
L 403.35118 62.874255 
L 403.553745 62.857696 
L 404.24412 62.594978 
L 404.791872 62.522929 
L 405.256945 62.344977 
L 405.877042 62.216872 
L 406.319378 61.859032 
L 406.596354 61.579625 
L 406.987016 61.256452 
L 407.412815 61.316007 
L 407.640184 61.246544 
L 408.111458 61.203678 
L 408.338827 61.200552 
L 408.686081 61.179755 
L 409.051939 61.422838 
L 409.262772 61.487449 
L 409.494274 61.620076 
L 409.984151 61.990357 
L 412.522415 62.19363 
L 412.784923 62.114193 
L 413.32234 62.11903 
L 415.651838 61.919437 
L 416.195456 62.237363 
L 416.691534 62.508319 
L 417.66922 62.806374 
L 417.81391 62.910448 
L 418.502217 63.386722 
L 418.921816 63.485383 
L 419.269071 63.587697 
L 419.690737 63.59453 
L 419.868498 63.590297 
L 420.769705 63.705178 
L 421.511755 63.962995 
L 422.088445 64.083754 
L 422.557652 64.230005 
L 422.729212 64.354536 
L 422.875968 64.350455 
L 423.462993 64.039929 
L 423.69863 64.044821 
L 424.074823 64.074319 
L 424.229847 64.091008 
L 424.645312 64.167341 
L 424.835475 64.189491 
L 425.085581 64.261908 
L 425.91031 64.241085 
L 426.280301 64.356044 
L 426.852857 64.300742 
L 427.086427 64.341644 
L 427.365471 64.256165 
L 427.720993 64.127478 
L 428.084783 64.320358 
L 428.351425 64.385137 
L 428.566392 64.27369 
L 428.932249 64.091885 
L 429.787983 64.014327 
L 430.451487 64.147591 
L 430.678856 64.191178 
L 431.096388 64.252102 
L 431.499451 64.365956 
L 431.749557 64.358262 
L 432.510209 64.54258 
L 432.74998 64.420999 
L 433.471359 63.86521 
L 434.118327 64.016979 
L 434.513122 64.012621 
L 434.771496 64.017346 
L 435.023669 63.907568 
L 435.26344 63.85771 
L 435.579689 63.955019 
L 436.580113 63.995841 
L 436.964573 64.027596 
L 437.272554 64.044636 
L 438.068345 64.356321 
L 438.684308 64.391885 
L 439.112175 64.239271 
L 439.893498 64.14408 
L 440.112599 64.159155 
L 440.457786 64.095204 
L 440.749232 64.082347 
L 440.968333 64.120933 
L 441.631836 64.216446 
L 441.888143 64.207517 
L 442.146517 64.20793 
L 442.477235 64.279431 
L 442.710805 64.035613 
L 443.122136 63.548896 
L 443.335036 63.538954 
L 443.537601 63.444845 
L 443.84765 63.03979 
L 444.250713 62.66545 
L 444.943154 62.355222 
L 445.251136 62.322233 
L 446.032458 62.156025 
L 448.167659 61.228977 
L 448.442569 61.295513 
L 448.57899 61.235605 
L 449.110206 60.823599 
L 449.854323 60.710818 
L 451.60093 60.802314 
L 452.109409 60.585603 
L 454.391366 60.330767 
L 454.870908 60.045212 
L 455.960212 59.136772 
L 456.235121 59.035472 
L 458.281441 59.000688 
L 458.455069 59.001434 
L 458.787854 59.080474 
L 459.850287 58.884387 
L 460.183072 58.764001 
L 460.536528 58.548527 
L 460.749428 58.521732 
L 460.858978 58.43062 
L 461.071878 58.403347 
L 462.283134 58.978392 
L 463.10993 59.546393 
L 464.273646 59.611455 
L 466.34477 58.884215 
L 466.696158 59.025193 
L 467.020676 59.157728 
L 467.283183 59.182414 
L 467.801998 59.09327 
L 468.00663 59.062825 
L 468.163721 58.984125 
L 468.459301 58.898009 
L 468.77555 58.898792 
L 470.298922 58.438137 
L 471.712743 58.031551 
L 472.485797 58.212256 
L 472.789645 58.242468 
L 473.558565 58.434773 
L 474.362624 58.581866 
L 474.879372 58.749169 
L 475.445727 58.846813 
L 476.007948 58.881571 
L 476.200179 58.8753 
L 477.308085 58.836796 
L 477.547856 58.827446 
L 478.025331 58.52792 
L 478.368451 58.310342 
L 478.664031 58.258631 
L 479.025754 58.088503 
L 480.00344 57.788975 
L 480.21634 57.803544 
L 480.516054 57.850871 
L 480.877777 57.870283 
L 481.072074 57.934944 
L 481.4524 58.120087 
L 482.649188 58.439368 
L 483.936922 58.719787 
L 484.712044 58.890826 
L 486.917522 59.095139 
L 487.308183 59.073219 
L 487.719514 59.040441 
L 488.54631 58.748594 
L 488.885297 58.538288 
L 489.635614 58.588489 
L 491.074239 58.193201 
L 491.359484 58.151208 
L 493.579431 58.958514 
L 493.804733 59.023828 
L 494.426897 59.154831 
L 495.175148 59.263469 
L 495.855187 59.655402 
L 496.611706 59.59737 
L 497.291745 59.468941 
L 497.51498 59.434726 
L 497.922177 59.459333 
L 498.966007 59.710899 
L 500.803562 59.184669 
L 501.83499 58.86814 
L 504.590287 59.033764 
L 505.284796 59.422679 
L 505.658921 59.68295 
L 505.884223 59.694198 
L 506.11986 59.696244 
L 507.304245 59.844879 
L 508.707732 60.342647 
L 508.935101 60.407978 
L 510.257974 60.51712 
L 510.627965 60.55618 
L 511.121976 60.395843 
L 511.281134 60.442142 
L 512.395242 60.976323 
L 512.645348 61.070068 
L 512.907855 61.070617 
L 513.36466 61.042106 
L 513.656106 61.078163 
L 514.207992 60.997301 
L 516.452743 61.632904 
L 516.806199 61.665257 
L 517.568918 61.659547 
L 517.930641 61.605083 
L 518.823581 61.595474 
L 519.303123 61.541468 
L 519.805401 61.404483 
L 520.260139 61.197913 
L 520.566054 61.127175 
L 520.969117 61.074812 
L 521.752506 60.962302 
L 522.24445 60.903797 
L 522.426345 60.83286 
L 522.7798 60.774533 
L 523.124987 60.753591 
L 523.48051 60.747343 
L 524.214291 60.871764 
L 525.111365 61.236628 
L 525.791405 61.347128 
L 526.250276 61.472715 
L 527.608289 61.884825 
L 528.319334 62.254555 
L 529.036579 62.419211 
L 529.613269 62.278892 
L 530.311912 62.272787 
L 530.667434 62.218091 
L 532.401639 60.978433 
L 533.118885 60.578406 
L 533.645967 60.368631 
L 534.935769 60.083836 
L 536.254509 59.493075 
L 536.475676 59.411841 
L 537.486435 59.279876 
L 537.912235 59.236491 
L 539.323989 58.857733 
L 539.582363 58.82858 
L 539.993694 58.668438 
L 540.400891 58.569675 
L 541.010653 58.18747 
L 541.554271 57.800456 
L 541.729965 57.820755 
L 542.542292 57.879042 
L 543.065241 57.691935 
L 547.056599 57.189502 
L 548.261654 57.355242 
L 549.166996 57.405774 
L 549.997926 57.631505 
L 550.473333 57.95022 
L 551.109966 58.113405 
L 551.591575 58.006366 
L 552.180667 57.959143 
L 552.786295 57.932274 
L 553.437397 57.934417 
L 555.181937 57.588499 
L 555.436177 57.5131 
L 555.950857 57.596193 
L 557.153845 57.990326 
L 559.733449 58.150441 
L 559.981488 58.169681 
L 560.438293 58.220569 
L 561.180342 58.20655 
L 561.432515 58.208359 
L 561.775635 57.977253 
L 562.515618 57.476469 
L 563.290739 57.316715 
L 567.860854 57.818663 
L 568.423075 57.786558 
L 569.022502 57.864185 
L 569.650867 57.874274 
L 569.981586 57.878644 
L 570.992344 58.000659 
L 572.325553 58.315446 
L 573.869594 58.484122 
L 574.216848 58.533793 
L 574.764601 58.629003 
L 576.230097 58.82423 
L 576.655897 58.727772 
L 576.968012 58.760472 
L 577.162309 58.717776 
L 577.937431 58.566351 
L 578.25368 58.445207 
L 578.667078 58.229402 
L 578.879978 58.089039 
L 579.305778 57.917388 
L 579.70264 57.898187 
L 580.010622 57.894742 
L 581.910186 58.034833 
L 582.522015 58.197699 
L 582.968484 58.062236 
L 583.464562 57.96724 
L 584.316162 57.818361 
L 585.058211 57.63905 
L 585.45094 57.48588 
L 585.862271 57.420819 
L 586.166118 57.42433 
L 587.104532 57.409184 
L 590.205017 57.417562 
L 591.852408 57.325752 
L 592.261672 57.32501 
L 593.417119 57.177753 
L 593.844986 57.100515 
L 594.293523 57.084263 
L 594.711055 57.0767 
L 595.519248 57.159952 
L 596.112474 57.25185 
L 596.550676 57.185386 
L 597.931426 57.566192 
L 599.221228 57.419413 
L 599.587085 57.361262 
L 600.130703 57.291081 
L 600.453154 57.324095 
L 600.965767 57.160493 
L 602.43333 57.324235 
L 602.997618 57.486575 
L 604.845508 57.804616 
L 605.986486 57.360803 
L 606.346142 57.273072 
L 607.478853 57.305136 
L 607.790968 57.346102 
L 608.196098 57.345273 
L 609.006359 57.228849 
L 609.401154 57.283185 
L 609.969576 57.161467 
L 610.438783 57.114322 
L 610.70129 57.086997 
L 611.218038 56.956619 
L 611.362727 56.970385 
L 611.362727 56.970385 
" clip-path="url(#p5106e6c502)" style="fill: none; stroke: #1f2937; stroke-linecap: square"/>
   </g>
   <g id="line2d_26">
    <path d="M 68.78 56.970385 
L 637.2 56.970385 
" clip-path="url(#p5106e6c502)" style="fill: none; stroke-dasharray: 2.96,1.28; stroke-dashoffset: 0; stroke: #888888; stroke-width: 0.8"/>
   </g>
   <g id="patch_3">
    <path d="M 68.78 282.04 
L 68.78 26.88 
" style="fill: none; stroke: #000000; stroke-width: 0.8; stroke-linejoin: miter; stroke-linecap: square"/>
   </g>
   <g id="patch_4">
    <path d="M 637.2 282.04 
L 637.2 26.88 
" style="fill: none; stroke: #000000; stroke-width: 0.8; stroke-linejoin: miter; stroke-linecap: square"/>
   </g>
   <g id="patch_5">
    <path d="M 68.78 282.04 
L 637.2 282.04 
" style="fill: none; stroke: #000000; stroke-width: 0.8; stroke-linejoin: miter; stroke-linecap: square"/>
   </g>
   <g id="patch_6">
    <path d="M 68.78 26.88 
L 637.2 26.88 
" style="fill: none; stroke: #000000; stroke-width: 0.8; stroke-linejoin: miter; stroke-linecap: square"/>
   </g>
   <g id="text_15">
    <!-- Running mean — Mean-median (UCP share; UCP-favoured if positive)  (100k ReCom samples, seed 42) -->
    <g transform="translate(44.26375 20.88) scale(0.12 -0.12)">
     <defs>
      <path id="DejaVuSans-2014" d="M 313 1978 
L 6088 1978 
L 6088 1528 
L 313 1528 
L 313 1978 
z
" transform="scale(0.015625)"/>
      <path id="DejaVuSans-6b" d="M 581 4863 
L 1159 4863 
L 1159 1991 
L 2875 3500 
L 3609 3500 
L 1753 1863 
L 3688 0 
L 2938 0 
L 1159 1709 
L 1159 0 
L 581 0 
L 581 4863 
z
" transform="scale(0.015625)"/>
      <path id="DejaVuSans-2c" d="M 750 794 
L 1409 794 
L 1409 256 
L 897 -744 
L 494 -744 
L 750 256 
L 750 794 
z
" transform="scale(0.015625)"/>
     </defs>
     <use xlink:href="#DejaVuSans-52"/>
     <use xlink:href="#DejaVuSans-75" transform="translate(64.982422 0)"/>
     <use xlink:href="#DejaVuSans-6e" transform="translate(128.361328 0)"/>
     <use xlink:href="#DejaVuSans-6e" transform="translate(191.740234 0)"/>
     <use xlink:href="#DejaVuSans-69" transform="translate(255.119141 0)"/>
     <use xlink:href="#DejaVuSans-6e" transform="translate(282.902344 0)"/>
     <use xlink:href="#DejaVuSans-67" transform="translate(346.28125 0)"/>
     <use xlink:href="#DejaVuSans-20" transform="translate(409.757812 0)"/>
     <use xlink:href="#DejaVuSans-6d" transform="translate(441.544922 0)"/>
     <use xlink:href="#DejaVuSans-65" transform="translate(538.957031 0)"/>
     <use xlink:href="#DejaVuSans-61" transform="translate(600.480469 0)"/>
     <use xlink:href="#DejaVuSans-6e" transform="translate(661.759766 0)"/>
     <use xlink:href="#DejaVuSans-20" transform="translate(725.138672 0)"/>
     <use xlink:href="#DejaVuSans-2014" transform="translate(756.925781 0)"/>
     <use xlink:href="#DejaVuSans-20" transform="translate(856.925781 0)"/>
     <use xlink:href="#DejaVuSans-4d" transform="translate(888.712891 0)"/>
     <use xlink:href="#DejaVuSans-65" transform="translate(974.992188 0)"/>
     <use xlink:href="#DejaVuSans-61" transform="translate(1036.515625 0)"/>
     <use xlink:href="#DejaVuSans-6e" transform="translate(1097.794922 0)"/>
     <use xlink:href="#DejaVuSans-2d" transform="translate(1161.173828 0)"/>
     <use xlink:href="#DejaVuSans-6d" transform="translate(1197.257812 0)"/>
     <use xlink:href="#DejaVuSans-65" transform="translate(1294.669922 0)"/>
     <use xlink:href="#DejaVuSans-64" transform="translate(1356.193359 0)"/>
     <use xlink:href="#DejaVuSans-69" transform="translate(1419.669922 0)"/>
     <use xlink:href="#DejaVuSans-61" transform="translate(1447.453125 0)"/>
     <use xlink:href="#DejaVuSans-6e" transform="translate(1508.732422 0)"/>
     <use xlink:href="#DejaVuSans-20" transform="translate(1572.111328 0)"/>
     <use xlink:href="#DejaVuSans-28" transform="translate(1603.898438 0)"/>
     <use xlink:href="#DejaVuSans-55" transform="translate(1642.912109 0)"/>
     <use xlink:href="#DejaVuSans-43" transform="translate(1716.105469 0)"/>
     <use xlink:href="#DejaVuSans-50" transform="translate(1785.929688 0)"/>
     <use xlink:href="#DejaVuSans-20" transform="translate(1846.232422 0)"/>
     <use xlink:href="#DejaVuSans-73" transform="translate(1878.019531 0)"/>
     <use xlink:href="#DejaVuSans-68" transform="translate(1930.119141 0)"/>
     <use xlink:href="#DejaVuSans-61" transform="translate(1993.498047 0)"/>
     <use xlink:href="#DejaVuSans-72" transform="translate(2054.777344 0)"/>
     <use xlink:href="#DejaVuSans-65" transform="translate(2093.640625 0)"/>
     <use xlink:href="#DejaVuSans-3b" transform="translate(2155.164062 0)"/>
     <use xlink:href="#DejaVuSans-20" transform="translate(2188.855469 0)"/>
     <use xlink:href="#DejaVuSans-55" transform="translate(2220.642578 0)"/>
     <use xlink:href="#DejaVuSans-43" transform="translate(2293.835938 0)"/>
     <use xlink:href="#DejaVuSans-50" transform="translate(2363.660156 0)"/>
     <use xlink:href="#DejaVuSans-2d" transform="translate(2421.712891 0)"/>
     <use xlink:href="#DejaVuSans-66" transform="translate(2457.796875 0)"/>
     <use xlink:href="#DejaVuSans-61" transform="translate(2493.001953 0)"/>
     <use xlink:href="#DejaVuSans-76" transform="translate(2554.28125 0)"/>
     <use xlink:href="#DejaVuSans-6f" transform="translate(2613.460938 0)"/>
     <use xlink:href="#DejaVuSans-75" transform="translate(2674.642578 0)"/>
     <use xlink:href="#DejaVuSans-72" transform="translate(2738.021484 0)"/>
     <use xlink:href="#DejaVuSans-65" transform="translate(2776.884766 0)"/>
     <use xlink:href="#DejaVuSans-64" transform="translate(2838.408203 0)"/>
     <use xlink:href="#DejaVuSans-20" transform="translate(2901.884766 0)"/>
     <use xlink:href="#DejaVuSans-69" transform="translate(2933.671875 0)"/>
     <use xlink:href="#DejaVuSans-66" transform="translate(2961.455078 0)"/>
     <use xlink:href="#DejaVuSans-20" transform="translate(2996.660156 0)"/>
     <use xlink:href="#DejaVuSans-70" transform="translate(3028.447266 0)"/>
     <use xlink:href="#DejaVuSans-6f" transform="translate(3091.923828 0)"/>
     <use xlink:href="#DejaVuSans-73" transform="translate(3153.105469 0)"/>
     <use xlink:href="#DejaVuSans-69" transform="translate(3205.205078 0)"/>
     <use xlink:href="#DejaVuSans-74" transform="translate(3232.988281 0)"/>
     <use xlink:href="#DejaVuSans-69" transform="translate(3272.197266 0)"/>
     <use xlink:href="#DejaVuSans-76" transform="translate(3299.980469 0)"/>
     <use xlink:href="#DejaVuSans-65" transform="translate(3359.160156 0)"/>
     <use xlink:href="#DejaVuSans-29" transform="translate(3420.683594 0)"/>
     <use xlink:href="#DejaVuSans-20" transform="translate(3459.697266 0)"/>
     <use xlink:href="#DejaVuSans-20" transform="translate(3491.484375 0)"/>
     <use xlink:href="#DejaVuSans-28" transform="translate(3523.271484 0)"/>
     <use xlink:href="#DejaVuSans-31" transform="translate(3562.285156 0)"/>
     <use xlink:href="#DejaVuSans-30" transform="translate(3625.908203 0)"/>
     <use xlink:href="#DejaVuSans-30" transform="translate(3689.53125 0)"/>
     <use xlink:href="#DejaVuSans-6b" transform="translate(3753.154297 0)"/>
     <use xlink:href="#DejaVuSans-20" transform="translate(3811.064453 0)"/>
     <use xlink:href="#DejaVuSans-52" transform="translate(3842.851562 0)"/>
     <use xlink:href="#DejaVuSans-65" transform="translate(3907.833984 0)"/>
     <use xlink:href="#DejaVuSans-43" transform="translate(3969.357422 0)"/>
     <use xlink:href="#DejaVuSans-6f" transform="translate(4039.181641 0)"/>
     <use xlink:href="#DejaVuSans-6d" transform="translate(4100.363281 0)"/>
     <use xlink:href="#DejaVuSans-20" transform="translate(4197.775391 0)"/>
     <use xlink:href="#DejaVuSans-73" transform="translate(4229.5625 0)"/>
     <use xlink:href="#DejaVuSans-61" transform="translate(4281.662109 0)"/>
     <use xlink:href="#DejaVuSans-6d" transform="translate(4342.941406 0)"/>
     <use xlink:href="#DejaVuSans-70" transform="translate(4440.353516 0)"/>
     <use xlink:href="#DejaVuSans-6c" transform="translate(4503.830078 0)"/>
     <use xlink:href="#DejaVuSans-65" transform="translate(4531.613281 0)"/>
     <use xlink:href="#DejaVuSans-73" transform="translate(4593.136719 0)"/>
     <use xlink:href="#DejaVuSans-2c" transform="translate(4645.236328 0)"/>
     <use xlink:href="#DejaVuSans-20" transform="translate(4677.023438 0)"/>
     <use xlink:href="#DejaVuSans-73" transform="translate(4708.810547 0)"/>
     <use xlink:href="#DejaVuSans-65" transform="translate(4760.910156 0)"/>
     <use xlink:href="#DejaVuSans-65" transform="translate(4822.433594 0)"/>
     <use xlink:href="#DejaVuSans-64" transform="translate(4883.957031 0)"/>
     <use xlink:href="#DejaVuSans-20" transform="translate(4947.433594 0)"/>
     <use xlink:href="#DejaVuSans-34" transform="translate(4979.220703 0)"/>
     <use xlink:href="#DejaVuSans-32" transform="translate(5042.84375 0)"/>
     <use xlink:href="#DejaVuSans-29" transform="translate(5106.466797 0)"/>
    </g>
   </g>
   <g id="legend_1">
    <g id="patch_7">
     <path d="M 500.601094 47.290312 
L 630.9 47.290312 
Q 632.7 47.290312 632.7 45.490312 
L 632.7 33.18 
Q 632.7 31.38 630.9 31.38 
L 500.601094 31.38 
Q 498.801094 31.38 498.801094 33.18 
L 498.801094 45.490312 
Q 498.801094 47.290312 500.601094 47.290312 
z
" style="fill: #ffffff; opacity: 0.8; stroke: #cccccc; stroke-linejoin: miter"/>
    </g>
    <g id="line2d_27">
     <path d="M 502.401094 38.668594 
L 511.401094 38.668594 
L 520.401094 38.668594 
" style="fill: none; stroke-dasharray: 2.96,1.28; stroke-dashoffset: 0; stroke: #888888; stroke-width: 0.8"/>
    </g>
    <g id="text_16">
     <!-- final mean = -0.01849 -->
     <g transform="translate(527.601094 41.818594) scale(0.09 -0.09)">
      <defs>
       <path id="DejaVuSans-3d" d="M 678 2906 
L 4684 2906 
L 4684 2381 
L 678 2381 
L 678 2906 
z
M 678 1631 
L 4684 1631 
L 4684 1100 
L 678 1100 
L 678 1631 
z
" transform="scale(0.015625)"/>
       <path id="DejaVuSans-39" d="M 703 97 
L 703 672 
Q 941 559 1184 500 
Q 1428 441 1663 441 
Q 2288 441 2617 861 
Q 2947 1281 2994 2138 
Q 2813 1869 2534 1725 
Q 2256 1581 1919 1581 
Q 1219 1581 811 2004 
Q 403 2428 403 3163 
Q 403 3881 828 4315 
Q 1253 4750 1959 4750 
Q 2769 4750 3195 4129 
Q 3622 3509 3622 2328 
Q 3622 1225 3098 567 
Q 2575 -91 1691 -91 
Q 1453 -91 1209 -44 
Q 966 3 703 97 
z
M 1959 2075 
Q 2384 2075 2632 2365 
Q 2881 2656 2881 3163 
Q 2881 3666 2632 3958 
Q 2384 4250 1959 4250 
Q 1534 4250 1286 3958 
Q 1038 3666 1038 3163 
Q 1038 2656 1286 2365 
Q 1534 2075 1959 2075 
z
" transform="scale(0.015625)"/>
      </defs>
      <use xlink:href="#DejaVuSans-66"/>
      <use xlink:href="#DejaVuSans-69" transform="translate(35.205078 0)"/>
      <use xlink:href="#DejaVuSans-6e" transform="translate(62.988281 0)"/>
      <use xlink:href="#DejaVuSans-61" transform="translate(126.367188 0)"/>
      <use xlink:href="#DejaVuSans-6c" transform="translate(187.646484 0)"/>
      <use xlink:href="#DejaVuSans-20" transform="translate(215.429688 0)"/>
      <use xlink:href="#DejaVuSans-6d" transform="translate(247.216797 0)"/>
      <use xlink:href="#DejaVuSans-65" transform="translate(344.628906 0)"/>
      <use xlink:href="#DejaVuSans-61" transform="translate(406.152344 0)"/>
      <use xlink:href="#DejaVuSans-6e" transform="translate(467.431641 0)"/>
      <use xlink:href="#DejaVuSans-20" transform="translate(530.810547 0)"/>
      <use xlink:href="#DejaVuSans-3d" transform="translate(562.597656 0)"/>
      <use xlink:href="#DejaVuSans-20" transform="translate(646.386719 0)"/>
      <use xlink:href="#DejaVuSans-2d" transform="translate(678.173828 0)"/>
      <use xlink:href="#DejaVuSans-30" transform="translate(714.257812 0)"/>
      <use xlink:href="#DejaVuSans-2e" transform="translate(777.880859 0)"/>
      <use xlink:href="#DejaVuSans-30" transform="translate(809.667969 0)"/>
      <use xlink:href="#DejaVuSans-31" transform="translate(873.291016 0)"/>
      <use xlink:href="#DejaVuSans-38" transform="translate(936.914062 0)"/>
      <use xlink:href="#DejaVuSans-34" transform="translate(1000.537109 0)"/>
      <use xlink:href="#DejaVuSans-39" transform="translate(1064.160156 0)"/>
     </g>
    </g>
   </g>
  </g>
 </g>
 <defs>
  <clipPath id="p5106e6c502">
   <rect x="68.78" y="26.88" width="568.42" height="255.16"/>
  </clipPath>
 </defs>
</svg>
