<?xml version="1.0" encoding="utf-8" standalone="no"?>
<!DOCTYPE svg PUBLIC "-//W3C//DTD SVG 1.1//EN"
  "http://www.w3.org/Graphics/SVG/1.1/DTD/svg11.dtd">
<svg xmlns:xlink="http://www.w3.org/1999/xlink" width="648pt" height="324pt" viewBox="0 0 648 324" xmlns="http://www.w3.org/2000/svg" version="1.1">
 <metadata>
  <rdf:RDF xmlns:dc="http://purl.org/dc/elements/1.1/" xmlns:cc="http://creativecommons.org/ns#" xmlns:rdf="http://www.w3.org/1999/02/22-rdf-syntax-ns#">
   <cc:Work>
    <dc:type rdf:resource="http://purl.org/dc/dcmitype/StillImage"/>
    <dc:date>2026-05-18T20:46:05.045130</dc:date>
    <dc:format>image/svg+xml</dc:format>
    <dc:creator>
     <cc:Agent>
      <dc:title>Matplotlib v3.10.8, https://matplotlib.org/</dc:title>
     </cc:Agent>
    </dc:creator>
   </cc:Work>
  </rdf:RDF>
 </metadata>
 <defs>
  <style type="text/css">*{stroke-linejoin: round; stroke-linecap: butt}</style>
 </defs>
 <g id="figure_1">
  <g id="patch_1">
   <path d="M 0 324 
L 648 324 
L 648 0 
L 0 0 
z
" style="fill: #ffffff"/>
  </g>
  <g id="axes_1">
   <g id="patch_2">
    <path d="M 60.42125 282.04 
L 637.2 282.04 
L 637.2 26.88 
L 60.42125 26.88 
z
" style="fill: #ffffff"/>
   </g>
   <g id="matplotlib.axis_1">
    <g id="xtick_1">
     <g id="line2d_1">
      <path d="M 86.635844 282.04 
L 86.635844 26.88 
" clip-path="url(#pcf673f739d)" style="fill: none; stroke-dasharray: 0.5,0.825; stroke-dashoffset: 0; stroke: #b0b0b0; stroke-opacity: 0.6; stroke-width: 0.5"/>
     </g>
     <g id="line2d_2">
      <defs>
       <path id="m36b7074d9f" d="M 0 0 
L 0 3.5 
" style="stroke: #000000; stroke-width: 0.8"/>
      </defs>
      <g>
       <use xlink:href="#m36b7074d9f" x="86.635844" y="282.04" style="stroke: #000000; stroke-width: 0.8"/>
      </g>
     </g>
     <g id="text_1">
      <!-- 0 -->
      <g transform="translate(83.454594 296.638438) scale(0.1 -0.1)">
       <defs>
        <path id="DejaVuSans-30" d="M 2034 4250 
Q 1547 4250 1301 3770 
Q 1056 3291 1056 2328 
Q 1056 1369 1301 889 
Q 1547 409 2034 409 
Q 2525 409 2770 889 
Q 3016 1369 3016 2328 
Q 3016 3291 2770 3770 
Q 2525 4250 2034 4250 
z
M 2034 4750 
Q 2819 4750 3233 4129 
Q 3647 3509 3647 2328 
Q 3647 1150 3233 529 
Q 2819 -91 2034 -91 
Q 1250 -91 836 529 
Q 422 1150 422 2328 
Q 422 3509 836 4129 
Q 1250 4750 2034 4750 
z
" transform="scale(0.015625)"/>
       </defs>
       <use xlink:href="#DejaVuSans-30"/>
      </g>
     </g>
    </g>
    <g id="xtick_2">
     <g id="line2d_3">
      <path d="M 152.179212 282.04 
L 152.179212 26.88 
" clip-path="url(#pcf673f739d)" style="fill: none; stroke-dasharray: 0.5,0.825; stroke-dashoffset: 0; stroke: #b0b0b0; stroke-opacity: 0.6; stroke-width: 0.5"/>
     </g>
     <g id="line2d_4">
      <g>
       <use xlink:href="#m36b7074d9f" x="152.179212" y="282.04" style="stroke: #000000; stroke-width: 0.8"/>
      </g>
     </g>
     <g id="text_2">
      <!-- 25000 -->
      <g transform="translate(136.272962 296.638438) scale(0.1 -0.1)">
       <defs>
        <path id="DejaVuSans-32" d="M 1228 531 
L 3431 531 
L 3431 0 
L 469 0 
L 469 531 
Q 828 903 1448 1529 
Q 2069 2156 2228 2338 
Q 2531 2678 2651 2914 
Q 2772 3150 2772 3378 
Q 2772 3750 2511 3984 
Q 2250 4219 1831 4219 
Q 1534 4219 1204 4116 
Q 875 4013 500 3803 
L 500 4441 
Q 881 4594 1212 4672 
Q 1544 4750 1819 4750 
Q 2544 4750 2975 4387 
Q 3406 4025 3406 3419 
Q 3406 3131 3298 2873 
Q 3191 2616 2906 2266 
Q 2828 2175 2409 1742 
Q 1991 1309 1228 531 
z
" transform="scale(0.015625)"/>
        <path id="DejaVuSans-35" d="M 691 4666 
L 3169 4666 
L 3169 4134 
L 1269 4134 
L 1269 2991 
Q 1406 3038 1543 3061 
Q 1681 3084 1819 3084 
Q 2600 3084 3056 2656 
Q 3513 2228 3513 1497 
Q 3513 744 3044 326 
Q 2575 -91 1722 -91 
Q 1428 -91 1123 -41 
Q 819 9 494 109 
L 494 744 
Q 775 591 1075 516 
Q 1375 441 1709 441 
Q 2250 441 2565 725 
Q 2881 1009 2881 1497 
Q 2881 1984 2565 2268 
Q 2250 2553 1709 2553 
Q 1456 2553 1204 2497 
Q 953 2441 691 2322 
L 691 4666 
z
" transform="scale(0.015625)"/>
       </defs>
       <use xlink:href="#DejaVuSans-32"/>
       <use xlink:href="#DejaVuSans-35" transform="translate(63.623047 0)"/>
       <use xlink:href="#DejaVuSans-30" transform="translate(127.246094 0)"/>
       <use xlink:href="#DejaVuSans-30" transform="translate(190.869141 0)"/>
       <use xlink:href="#DejaVuSans-30" transform="translate(254.492188 0)"/>
      </g>
     </g>
    </g>
    <g id="xtick_3">
     <g id="line2d_5">
      <path d="M 217.722579 282.04 
L 217.722579 26.88 
" clip-path="url(#pcf673f739d)" style="fill: none; stroke-dasharray: 0.5,0.825; stroke-dashoffset: 0; stroke: #b0b0b0; stroke-opacity: 0.6; stroke-width: 0.5"/>
     </g>
     <g id="line2d_6">
      <g>
       <use xlink:href="#m36b7074d9f" x="217.722579" y="282.04" style="stroke: #000000; stroke-width: 0.8"/>
      </g>
     </g>
     <g id="text_3">
      <!-- 50000 -->
      <g transform="translate(201.816329 296.638438) scale(0.1 -0.1)">
       <use xlink:href="#DejaVuSans-35"/>
       <use xlink:href="#DejaVuSans-30" transform="translate(63.623047 0)"/>
       <use xlink:href="#DejaVuSans-30" transform="translate(127.246094 0)"/>
       <use xlink:href="#DejaVuSans-30" transform="translate(190.869141 0)"/>
       <use xlink:href="#DejaVuSans-30" transform="translate(254.492188 0)"/>
      </g>
     </g>
    </g>
    <g id="xtick_4">
     <g id="line2d_7">
      <path d="M 283.265947 282.04 
L 283.265947 26.88 
" clip-path="url(#pcf673f739d)" style="fill: none; stroke-dasharray: 0.5,0.825; stroke-dashoffset: 0; stroke: #b0b0b0; stroke-opacity: 0.6; stroke-width: 0.5"/>
     </g>
     <g id="line2d_8">
      <g>
       <use xlink:href="#m36b7074d9f" x="283.265947" y="282.04" style="stroke: #000000; stroke-width: 0.8"/>
      </g>
     </g>
     <g id="text_4">
      <!-- 75000 -->
      <g transform="translate(267.359697 296.638438) scale(0.1 -0.1)">
       <defs>
        <path id="DejaVuSans-37" d="M 525 4666 
L 3525 4666 
L 3525 4397 
L 1831 0 
L 1172 0 
L 2766 4134 
L 525 4134 
L 525 4666 
z
" transform="scale(0.015625)"/>
       </defs>
       <use xlink:href="#DejaVuSans-37"/>
       <use xlink:href="#DejaVuSans-35" transform="translate(63.623047 0)"/>
       <use xlink:href="#DejaVuSans-30" transform="translate(127.246094 0)"/>
       <use xlink:href="#DejaVuSans-30" transform="translate(190.869141 0)"/>
       <use xlink:href="#DejaVuSans-30" transform="translate(254.492188 0)"/>
      </g>
     </g>
    </g>
    <g id="xtick_5">
     <g id="line2d_9">
      <path d="M 348.809314 282.04 
L 348.809314 26.88 
" clip-path="url(#pcf673f739d)" style="fill: none; stroke-dasharray: 0.5,0.825; stroke-dashoffset: 0; stroke: #b0b0b0; stroke-opacity: 0.6; stroke-width: 0.5"/>
     </g>
     <g id="line2d_10">
      <g>
       <use xlink:href="#m36b7074d9f" x="348.809314" y="282.04" style="stroke: #000000; stroke-width: 0.8"/>
      </g>
     </g>
     <g id="text_5">
      <!-- 100000 -->
      <g transform="translate(329.721814 296.638438) scale(0.1 -0.1)">
       <defs>
        <path id="DejaVuSans-31" d="M 794 531 
L 1825 531 
L 1825 4091 
L 703 3866 
L 703 4441 
L 1819 4666 
L 2450 4666 
L 2450 531 
L 3481 531 
L 3481 0 
L 794 0 
L 794 531 
z
" transform="scale(0.015625)"/>
       </defs>
       <use xlink:href="#DejaVuSans-31"/>
       <use xlink:href="#DejaVuSans-30" transform="translate(63.623047 0)"/>
       <use xlink:href="#DejaVuSans-30" transform="translate(127.246094 0)"/>
       <use xlink:href="#DejaVuSans-30" transform="translate(190.869141 0)"/>
       <use xlink:href="#DejaVuSans-30" transform="translate(254.492188 0)"/>
       <use xlink:href="#DejaVuSans-30" transform="translate(318.115234 0)"/>
      </g>
     </g>
    </g>
    <g id="xtick_6">
     <g id="line2d_11">
      <path d="M 414.352682 282.04 
L 414.352682 26.88 
" clip-path="url(#pcf673f739d)" style="fill: none; stroke-dasharray: 0.5,0.825; stroke-dashoffset: 0; stroke: #b0b0b0; stroke-opacity: 0.6; stroke-width: 0.5"/>
     </g>
     <g id="line2d_12">
      <g>
       <use xlink:href="#m36b7074d9f" x="414.352682" y="282.04" style="stroke: #000000; stroke-width: 0.8"/>
      </g>
     </g>
     <g id="text_6">
      <!-- 125000 -->
      <g transform="translate(395.265182 296.638438) scale(0.1 -0.1)">
       <use xlink:href="#DejaVuSans-31"/>
       <use xlink:href="#DejaVuSans-32" transform="translate(63.623047 0)"/>
       <use xlink:href="#DejaVuSans-35" transform="translate(127.246094 0)"/>
       <use xlink:href="#DejaVuSans-30" transform="translate(190.869141 0)"/>
       <use xlink:href="#DejaVuSans-30" transform="translate(254.492188 0)"/>
       <use xlink:href="#DejaVuSans-30" transform="translate(318.115234 0)"/>
      </g>
     </g>
    </g>
    <g id="xtick_7">
     <g id="line2d_13">
      <path d="M 479.896049 282.04 
L 479.896049 26.88 
" clip-path="url(#pcf673f739d)" style="fill: none; stroke-dasharray: 0.5,0.825; stroke-dashoffset: 0; stroke: #b0b0b0; stroke-opacity: 0.6; stroke-width: 0.5"/>
     </g>
     <g id="line2d_14">
      <g>
       <use xlink:href="#m36b7074d9f" x="479.896049" y="282.04" style="stroke: #000000; stroke-width: 0.8"/>
      </g>
     </g>
     <g id="text_7">
      <!-- 150000 -->
      <g transform="translate(460.808549 296.638438) scale(0.1 -0.1)">
       <use xlink:href="#DejaVuSans-31"/>
       <use xlink:href="#DejaVuSans-35" transform="translate(63.623047 0)"/>
       <use xlink:href="#DejaVuSans-30" transform="translate(127.246094 0)"/>
       <use xlink:href="#DejaVuSans-30" transform="translate(190.869141 0)"/>
       <use xlink:href="#DejaVuSans-30" transform="translate(254.492188 0)"/>
       <use xlink:href="#DejaVuSans-30" transform="translate(318.115234 0)"/>
      </g>
     </g>
    </g>
    <g id="xtick_8">
     <g id="line2d_15">
      <path d="M 545.439417 282.04 
L 545.439417 26.88 
" clip-path="url(#pcf673f739d)" style="fill: none; stroke-dasharray: 0.5,0.825; stroke-dashoffset: 0; stroke: #b0b0b0; stroke-opacity: 0.6; stroke-width: 0.5"/>
     </g>
     <g id="line2d_16">
      <g>
       <use xlink:href="#m36b7074d9f" x="545.439417" y="282.04" style="stroke: #000000; stroke-width: 0.8"/>
      </g>
     </g>
     <g id="text_8">
      <!-- 175000 -->
      <g transform="translate(526.351917 296.638438) scale(0.1 -0.1)">
       <use xlink:href="#DejaVuSans-31"/>
       <use xlink:href="#DejaVuSans-37" transform="translate(63.623047 0)"/>
       <use xlink:href="#DejaVuSans-35" transform="translate(127.246094 0)"/>
       <use xlink:href="#DejaVuSans-30" transform="translate(190.869141 0)"/>
       <use xlink:href="#DejaVuSans-30" transform="translate(254.492188 0)"/>
       <use xlink:href="#DejaVuSans-30" transform="translate(318.115234 0)"/>
      </g>
     </g>
    </g>
    <g id="xtick_9">
     <g id="line2d_17">
      <path d="M 610.982784 282.04 
L 610.982784 26.88 
" clip-path="url(#pcf673f739d)" style="fill: none; stroke-dasharray: 0.5,0.825; stroke-dashoffset: 0; stroke: #b0b0b0; stroke-opacity: 0.6; stroke-width: 0.5"/>
     </g>
     <g id="line2d_18">
      <g>
       <use xlink:href="#m36b7074d9f" x="610.982784" y="282.04" style="stroke: #000000; stroke-width: 0.8"/>
      </g>
     </g>
     <g id="text_9">
      <!-- 200000 -->
      <g transform="translate(591.895284 296.638438) scale(0.1 -0.1)">
       <use xlink:href="#DejaVuSans-32"/>
       <use xlink:href="#DejaVuSans-30" transform="translate(63.623047 0)"/>
       <use xlink:href="#DejaVuSans-30" transform="translate(127.246094 0)"/>
       <use xlink:href="#DejaVuSans-30" transform="translate(190.869141 0)"/>
       <use xlink:href="#DejaVuSans-30" transform="translate(254.492188 0)"/>
       <use xlink:href="#DejaVuSans-30" transform="translate(318.115234 0)"/>
      </g>
     </g>
    </g>
    <g id="text_10">
     <!-- Sample index -->
     <g transform="translate(314.792656 310.316563) scale(0.1 -0.1)">
      <defs>
       <path id="DejaVuSans-53" d="M 3425 4513 
L 3425 3897 
Q 3066 4069 2747 4153 
Q 2428 4238 2131 4238 
Q 1616 4238 1336 4038 
Q 1056 3838 1056 3469 
Q 1056 3159 1242 3001 
Q 1428 2844 1947 2747 
L 2328 2669 
Q 3034 2534 3370 2195 
Q 3706 1856 3706 1288 
Q 3706 609 3251 259 
Q 2797 -91 1919 -91 
Q 1588 -91 1214 -16 
Q 841 59 441 206 
L 441 856 
Q 825 641 1194 531 
Q 1563 422 1919 422 
Q 2459 422 2753 634 
Q 3047 847 3047 1241 
Q 3047 1584 2836 1778 
Q 2625 1972 2144 2069 
L 1759 2144 
Q 1053 2284 737 2584 
Q 422 2884 422 3419 
Q 422 4038 858 4394 
Q 1294 4750 2059 4750 
Q 2388 4750 2728 4690 
Q 3069 4631 3425 4513 
z
" transform="scale(0.015625)"/>
       <path id="DejaVuSans-61" d="M 2194 1759 
Q 1497 1759 1228 1600 
Q 959 1441 959 1056 
Q 959 750 1161 570 
Q 1363 391 1709 391 
Q 2188 391 2477 730 
Q 2766 1069 2766 1631 
L 2766 1759 
L 2194 1759 
z
M 3341 1997 
L 3341 0 
L 2766 0 
L 2766 531 
Q 2569 213 2275 61 
Q 1981 -91 1556 -91 
Q 1019 -91 701 211 
Q 384 513 384 1019 
Q 384 1609 779 1909 
Q 1175 2209 1959 2209 
L 2766 2209 
L 2766 2266 
Q 2766 2663 2505 2880 
Q 2244 3097 1772 3097 
Q 1472 3097 1187 3025 
Q 903 2953 641 2809 
L 641 3341 
Q 956 3463 1253 3523 
Q 1550 3584 1831 3584 
Q 2591 3584 2966 3190 
Q 3341 2797 3341 1997 
z
" transform="scale(0.015625)"/>
       <path id="DejaVuSans-6d" d="M 3328 2828 
Q 3544 3216 3844 3400 
Q 4144 3584 4550 3584 
Q 5097 3584 5394 3201 
Q 5691 2819 5691 2113 
L 5691 0 
L 5113 0 
L 5113 2094 
Q 5113 2597 4934 2840 
Q 4756 3084 4391 3084 
Q 3944 3084 3684 2787 
Q 3425 2491 3425 1978 
L 3425 0 
L 2847 0 
L 2847 2094 
Q 2847 2600 2669 2842 
Q 2491 3084 2119 3084 
Q 1678 3084 1418 2786 
Q 1159 2488 1159 1978 
L 1159 0 
L 581 0 
L 581 3500 
L 1159 3500 
L 1159 2956 
Q 1356 3278 1631 3431 
Q 1906 3584 2284 3584 
Q 2666 3584 2933 3390 
Q 3200 3197 3328 2828 
z
" transform="scale(0.015625)"/>
       <path id="DejaVuSans-70" d="M 1159 525 
L 1159 -1331 
L 581 -1331 
L 581 3500 
L 1159 3500 
L 1159 2969 
Q 1341 3281 1617 3432 
Q 1894 3584 2278 3584 
Q 2916 3584 3314 3078 
Q 3713 2572 3713 1747 
Q 3713 922 3314 415 
Q 2916 -91 2278 -91 
Q 1894 -91 1617 61 
Q 1341 213 1159 525 
z
M 3116 1747 
Q 3116 2381 2855 2742 
Q 2594 3103 2138 3103 
Q 1681 3103 1420 2742 
Q 1159 2381 1159 1747 
Q 1159 1113 1420 752 
Q 1681 391 2138 391 
Q 2594 391 2855 752 
Q 3116 1113 3116 1747 
z
" transform="scale(0.015625)"/>
       <path id="DejaVuSans-6c" d="M 603 4863 
L 1178 4863 
L 1178 0 
L 603 0 
L 603 4863 
z
" transform="scale(0.015625)"/>
       <path id="DejaVuSans-65" d="M 3597 1894 
L 3597 1613 
L 953 1613 
Q 991 1019 1311 708 
Q 1631 397 2203 397 
Q 2534 397 2845 478 
Q 3156 559 3463 722 
L 3463 178 
Q 3153 47 2828 -22 
Q 2503 -91 2169 -91 
Q 1331 -91 842 396 
Q 353 884 353 1716 
Q 353 2575 817 3079 
Q 1281 3584 2069 3584 
Q 2775 3584 3186 3129 
Q 3597 2675 3597 1894 
z
M 3022 2063 
Q 3016 2534 2758 2815 
Q 2500 3097 2075 3097 
Q 1594 3097 1305 2825 
Q 1016 2553 972 2059 
L 3022 2063 
z
" transform="scale(0.015625)"/>
       <path id="DejaVuSans-20" transform="scale(0.015625)"/>
       <path id="DejaVuSans-69" d="M 603 3500 
L 1178 3500 
L 1178 0 
L 603 0 
L 603 3500 
z
M 603 4863 
L 1178 4863 
L 1178 4134 
L 603 4134 
L 603 4863 
z
" transform="scale(0.015625)"/>
       <path id="DejaVuSans-6e" d="M 3513 2113 
L 3513 0 
L 2938 0 
L 2938 2094 
Q 2938 2591 2744 2837 
Q 2550 3084 2163 3084 
Q 1697 3084 1428 2787 
Q 1159 2491 1159 1978 
L 1159 0 
L 581 0 
L 581 3500 
L 1159 3500 
L 1159 2956 
Q 1366 3272 1645 3428 
Q 1925 3584 2291 3584 
Q 2894 3584 3203 3211 
Q 3513 2838 3513 2113 
z
" transform="scale(0.015625)"/>
       <path id="DejaVuSans-64" d="M 2906 2969 
L 2906 4863 
L 3481 4863 
L 3481 0 
L 2906 0 
L 2906 525 
Q 2725 213 2448 61 
Q 2172 -91 1784 -91 
Q 1150 -91 751 415 
Q 353 922 353 1747 
Q 353 2572 751 3078 
Q 1150 3584 1784 3584 
Q 2172 3584 2448 3432 
Q 2725 3281 2906 2969 
z
M 947 1747 
Q 947 1113 1208 752 
Q 1469 391 1925 391 
Q 2381 391 2643 752 
Q 2906 1113 2906 1747 
Q 2906 2381 2643 2742 
Q 2381 3103 1925 3103 
Q 1469 3103 1208 2742 
Q 947 2381 947 1747 
z
" transform="scale(0.015625)"/>
       <path id="DejaVuSans-78" d="M 3513 3500 
L 2247 1797 
L 3578 0 
L 2900 0 
L 1881 1375 
L 863 0 
L 184 0 
L 1544 1831 
L 300 3500 
L 978 3500 
L 1906 2253 
L 2834 3500 
L 3513 3500 
z
" transform="scale(0.015625)"/>
      </defs>
      <use xlink:href="#DejaVuSans-53"/>
      <use xlink:href="#DejaVuSans-61" transform="translate(63.476562 0)"/>
      <use xlink:href="#DejaVuSans-6d" transform="translate(124.755859 0)"/>
      <use xlink:href="#DejaVuSans-70" transform="translate(222.167969 0)"/>
      <use xlink:href="#DejaVuSans-6c" transform="translate(285.644531 0)"/>
      <use xlink:href="#DejaVuSans-65" transform="translate(313.427734 0)"/>
      <use xlink:href="#DejaVuSans-20" transform="translate(374.951172 0)"/>
      <use xlink:href="#DejaVuSans-69" transform="translate(406.738281 0)"/>
      <use xlink:href="#DejaVuSans-6e" transform="translate(434.521484 0)"/>
      <use xlink:href="#DejaVuSans-64" transform="translate(497.900391 0)"/>
      <use xlink:href="#DejaVuSans-65" transform="translate(561.376953 0)"/>
      <use xlink:href="#DejaVuSans-78" transform="translate(621.150391 0)"/>
     </g>
    </g>
   </g>
   <g id="matplotlib.axis_2">
    <g id="ytick_1">
     <g id="line2d_19">
      <path d="M 60.42125 260.531128 
L 637.2 260.531128 
" clip-path="url(#pcf673f739d)" style="fill: none; stroke-dasharray: 0.5,0.825; stroke-dashoffset: 0; stroke: #b0b0b0; stroke-opacity: 0.6; stroke-width: 0.5"/>
     </g>
     <g id="line2d_20">
      <defs>
       <path id="m741ac13ed8" d="M 0 0 
L -3.5 0 
" style="stroke: #000000; stroke-width: 0.8"/>
      </defs>
      <g>
       <use xlink:href="#m741ac13ed8" x="60.42125" y="260.531128" style="stroke: #000000; stroke-width: 0.8"/>
      </g>
     </g>
     <g id="text_11">
      <!-- 0.436 -->
      <g transform="translate(24.793125 264.330347) scale(0.1 -0.1)">
       <defs>
        <path id="DejaVuSans-2e" d="M 684 794 
L 1344 794 
L 1344 0 
L 684 0 
L 684 794 
z
" transform="scale(0.015625)"/>
        <path id="DejaVuSans-34" d="M 2419 4116 
L 825 1625 
L 2419 1625 
L 2419 4116 
z
M 2253 4666 
L 3047 4666 
L 3047 1625 
L 3713 1625 
L 3713 1100 
L 3047 1100 
L 3047 0 
L 2419 0 
L 2419 1100 
L 313 1100 
L 313 1709 
L 2253 4666 
z
" transform="scale(0.015625)"/>
        <path id="DejaVuSans-33" d="M 2597 2516 
Q 3050 2419 3304 2112 
Q 3559 1806 3559 1356 
Q 3559 666 3084 287 
Q 2609 -91 1734 -91 
Q 1441 -91 1130 -33 
Q 819 25 488 141 
L 488 750 
Q 750 597 1062 519 
Q 1375 441 1716 441 
Q 2309 441 2620 675 
Q 2931 909 2931 1356 
Q 2931 1769 2642 2001 
Q 2353 2234 1838 2234 
L 1294 2234 
L 1294 2753 
L 1863 2753 
Q 2328 2753 2575 2939 
Q 2822 3125 2822 3475 
Q 2822 3834 2567 4026 
Q 2313 4219 1838 4219 
Q 1578 4219 1281 4162 
Q 984 4106 628 3988 
L 628 4550 
Q 988 4650 1302 4700 
Q 1616 4750 1894 4750 
Q 2613 4750 3031 4423 
Q 3450 4097 3450 3541 
Q 3450 3153 3228 2886 
Q 3006 2619 2597 2516 
z
" transform="scale(0.015625)"/>
        <path id="DejaVuSans-36" d="M 2113 2584 
Q 1688 2584 1439 2293 
Q 1191 2003 1191 1497 
Q 1191 994 1439 701 
Q 1688 409 2113 409 
Q 2538 409 2786 701 
Q 3034 994 3034 1497 
Q 3034 2003 2786 2293 
Q 2538 2584 2113 2584 
z
M 3366 4563 
L 3366 3988 
Q 3128 4100 2886 4159 
Q 2644 4219 2406 4219 
Q 1781 4219 1451 3797 
Q 1122 3375 1075 2522 
Q 1259 2794 1537 2939 
Q 1816 3084 2150 3084 
Q 2853 3084 3261 2657 
Q 3669 2231 3669 1497 
Q 3669 778 3244 343 
Q 2819 -91 2113 -91 
Q 1303 -91 875 529 
Q 447 1150 447 2328 
Q 447 3434 972 4092 
Q 1497 4750 2381 4750 
Q 2619 4750 2861 4703 
Q 3103 4656 3366 4563 
z
" transform="scale(0.015625)"/>
       </defs>
       <use xlink:href="#DejaVuSans-30"/>
       <use xlink:href="#DejaVuSans-2e" transform="translate(63.623047 0)"/>
       <use xlink:href="#DejaVuSans-34" transform="translate(95.410156 0)"/>
       <use xlink:href="#DejaVuSans-33" transform="translate(159.033203 0)"/>
       <use xlink:href="#DejaVuSans-36" transform="translate(222.65625 0)"/>
      </g>
     </g>
    </g>
    <g id="ytick_2">
     <g id="line2d_21">
      <path d="M 60.42125 231.813474 
L 637.2 231.813474 
" clip-path="url(#pcf673f739d)" style="fill: none; stroke-dasharray: 0.5,0.825; stroke-dashoffset: 0; stroke: #b0b0b0; stroke-opacity: 0.6; stroke-width: 0.5"/>
     </g>
     <g id="line2d_22">
      <g>
       <use xlink:href="#m741ac13ed8" x="60.42125" y="231.813474" style="stroke: #000000; stroke-width: 0.8"/>
      </g>
     </g>
     <g id="text_12">
      <!-- 0.438 -->
      <g transform="translate(24.793125 235.612693) scale(0.1 -0.1)">
       <defs>
        <path id="DejaVuSans-38" d="M 2034 2216 
Q 1584 2216 1326 1975 
Q 1069 1734 1069 1313 
Q 1069 891 1326 650 
Q 1584 409 2034 409 
Q 2484 409 2743 651 
Q 3003 894 3003 1313 
Q 3003 1734 2745 1975 
Q 2488 2216 2034 2216 
z
M 1403 2484 
Q 997 2584 770 2862 
Q 544 3141 544 3541 
Q 544 4100 942 4425 
Q 1341 4750 2034 4750 
Q 2731 4750 3128 4425 
Q 3525 4100 3525 3541 
Q 3525 3141 3298 2862 
Q 3072 2584 2669 2484 
Q 3125 2378 3379 2068 
Q 3634 1759 3634 1313 
Q 3634 634 3220 271 
Q 2806 -91 2034 -91 
Q 1263 -91 848 271 
Q 434 634 434 1313 
Q 434 1759 690 2068 
Q 947 2378 1403 2484 
z
M 1172 3481 
Q 1172 3119 1398 2916 
Q 1625 2713 2034 2713 
Q 2441 2713 2670 2916 
Q 2900 3119 2900 3481 
Q 2900 3844 2670 4047 
Q 2441 4250 2034 4250 
Q 1625 4250 1398 4047 
Q 1172 3844 1172 3481 
z
" transform="scale(0.015625)"/>
       </defs>
       <use xlink:href="#DejaVuSans-30"/>
       <use xlink:href="#DejaVuSans-2e" transform="translate(63.623047 0)"/>
       <use xlink:href="#DejaVuSans-34" transform="translate(95.410156 0)"/>
       <use xlink:href="#DejaVuSans-33" transform="translate(159.033203 0)"/>
       <use xlink:href="#DejaVuSans-38" transform="translate(222.65625 0)"/>
      </g>
     </g>
    </g>
    <g id="ytick_3">
     <g id="line2d_23">
      <path d="M 60.42125 203.09582 
L 637.2 203.09582 
" clip-path="url(#pcf673f739d)" style="fill: none; stroke-dasharray: 0.5,0.825; stroke-dashoffset: 0; stroke: #b0b0b0; stroke-opacity: 0.6; stroke-width: 0.5"/>
     </g>
     <g id="line2d_24">
      <g>
       <use xlink:href="#m741ac13ed8" x="60.42125" y="203.09582" style="stroke: #000000; stroke-width: 0.8"/>
      </g>
     </g>
     <g id="text_13">
      <!-- 0.440 -->
      <g transform="translate(24.793125 206.895038) scale(0.1 -0.1)">
       <use xlink:href="#DejaVuSans-30"/>
       <use xlink:href="#DejaVuSans-2e" transform="translate(63.623047 0)"/>
       <use xlink:href="#DejaVuSans-34" transform="translate(95.410156 0)"/>
       <use xlink:href="#DejaVuSans-34" transform="translate(159.033203 0)"/>
       <use xlink:href="#DejaVuSans-30" transform="translate(222.65625 0)"/>
      </g>
     </g>
    </g>
    <g id="ytick_4">
     <g id="line2d_25">
      <path d="M 60.42125 174.378166 
L 637.2 174.378166 
" clip-path="url(#pcf673f739d)" style="fill: none; stroke-dasharray: 0.5,0.825; stroke-dashoffset: 0; stroke: #b0b0b0; stroke-opacity: 0.6; stroke-width: 0.5"/>
     </g>
     <g id="line2d_26">
      <g>
       <use xlink:href="#m741ac13ed8" x="60.42125" y="174.378166" style="stroke: #000000; stroke-width: 0.8"/>
      </g>
     </g>
     <g id="text_14">
      <!-- 0.442 -->
      <g transform="translate(24.793125 178.177384) scale(0.1 -0.1)">
       <use xlink:href="#DejaVuSans-30"/>
       <use xlink:href="#DejaVuSans-2e" transform="translate(63.623047 0)"/>
       <use xlink:href="#DejaVuSans-34" transform="translate(95.410156 0)"/>
       <use xlink:href="#DejaVuSans-34" transform="translate(159.033203 0)"/>
       <use xlink:href="#DejaVuSans-32" transform="translate(222.65625 0)"/>
      </g>
     </g>
    </g>
    <g id="ytick_5">
     <g id="line2d_27">
      <path d="M 60.42125 145.660512 
L 637.2 145.660512 
" clip-path="url(#pcf673f739d)" style="fill: none; stroke-dasharray: 0.5,0.825; stroke-dashoffset: 0; stroke: #b0b0b0; stroke-opacity: 0.6; stroke-width: 0.5"/>
     </g>
     <g id="line2d_28">
      <g>
       <use xlink:href="#m741ac13ed8" x="60.42125" y="145.660512" style="stroke: #000000; stroke-width: 0.8"/>
      </g>
     </g>
     <g id="text_15">
      <!-- 0.444 -->
      <g transform="translate(24.793125 149.45973) scale(0.1 -0.1)">
       <use xlink:href="#DejaVuSans-30"/>
       <use xlink:href="#DejaVuSans-2e" transform="translate(63.623047 0)"/>
       <use xlink:href="#DejaVuSans-34" transform="translate(95.410156 0)"/>
       <use xlink:href="#DejaVuSans-34" transform="translate(159.033203 0)"/>
       <use xlink:href="#DejaVuSans-34" transform="translate(222.65625 0)"/>
      </g>
     </g>
    </g>
    <g id="ytick_6">
     <g id="line2d_29">
      <path d="M 60.42125 116.942857 
L 637.2 116.942857 
" clip-path="url(#pcf673f739d)" style="fill: none; stroke-dasharray: 0.5,0.825; stroke-dashoffset: 0; stroke: #b0b0b0; stroke-opacity: 0.6; stroke-width: 0.5"/>
     </g>
     <g id="line2d_30">
      <g>
       <use xlink:href="#m741ac13ed8" x="60.42125" y="116.942857" style="stroke: #000000; stroke-width: 0.8"/>
      </g>
     </g>
     <g id="text_16">
      <!-- 0.446 -->
      <g transform="translate(24.793125 120.742076) scale(0.1 -0.1)">
       <use xlink:href="#DejaVuSans-30"/>
       <use xlink:href="#DejaVuSans-2e" transform="translate(63.623047 0)"/>
       <use xlink:href="#DejaVuSans-34" transform="translate(95.410156 0)"/>
       <use xlink:href="#DejaVuSans-34" transform="translate(159.033203 0)"/>
       <use xlink:href="#DejaVuSans-36" transform="translate(222.65625 0)"/>
      </g>
     </g>
    </g>
    <g id="ytick_7">
     <g id="line2d_31">
      <path d="M 60.42125 88.225203 
L 637.2 88.225203 
" clip-path="url(#pcf673f739d)" style="fill: none; stroke-dasharray: 0.5,0.825; stroke-dashoffset: 0; stroke: #b0b0b0; stroke-opacity: 0.6; stroke-width: 0.5"/>
     </g>
     <g id="line2d_32">
      <g>
       <use xlink:href="#m741ac13ed8" x="60.42125" y="88.225203" style="stroke: #000000; stroke-width: 0.8"/>
      </g>
     </g>
     <g id="text_17">
      <!-- 0.448 -->
      <g transform="translate(24.793125 92.024422) scale(0.1 -0.1)">
       <use xlink:href="#DejaVuSans-30"/>
       <use xlink:href="#DejaVuSans-2e" transform="translate(63.623047 0)"/>
       <use xlink:href="#DejaVuSans-34" transform="translate(95.410156 0)"/>
       <use xlink:href="#DejaVuSans-34" transform="translate(159.033203 0)"/>
       <use xlink:href="#DejaVuSans-38" transform="translate(222.65625 0)"/>
      </g>
     </g>
    </g>
    <g id="ytick_8">
     <g id="line2d_33">
      <path d="M 60.42125 59.507549 
L 637.2 59.507549 
" clip-path="url(#pcf673f739d)" style="fill: none; stroke-dasharray: 0.5,0.825; stroke-dashoffset: 0; stroke: #b0b0b0; stroke-opacity: 0.6; stroke-width: 0.5"/>
     </g>
     <g id="line2d_34">
      <g>
       <use xlink:href="#m741ac13ed8" x="60.42125" y="59.507549" style="stroke: #000000; stroke-width: 0.8"/>
      </g>
     </g>
     <g id="text_18">
      <!-- 0.450 -->
      <g transform="translate(24.793125 63.306768) scale(0.1 -0.1)">
       <use xlink:href="#DejaVuSans-30"/>
       <use xlink:href="#DejaVuSans-2e" transform="translate(63.623047 0)"/>
       <use xlink:href="#DejaVuSans-34" transform="translate(95.410156 0)"/>
       <use xlink:href="#DejaVuSans-35" transform="translate(159.033203 0)"/>
       <use xlink:href="#DejaVuSans-30" transform="translate(222.65625 0)"/>
      </g>
     </g>
    </g>
    <g id="ytick_9">
     <g id="line2d_35">
      <path d="M 60.42125 30.789895 
L 637.2 30.789895 
" clip-path="url(#pcf673f739d)" style="fill: none; stroke-dasharray: 0.5,0.825; stroke-dashoffset: 0; stroke: #b0b0b0; stroke-opacity: 0.6; stroke-width: 0.5"/>
     </g>
     <g id="line2d_36">
      <g>
       <use xlink:href="#m741ac13ed8" x="60.42125" y="30.789895" style="stroke: #000000; stroke-width: 0.8"/>
      </g>
     </g>
     <g id="text_19">
      <!-- 0.452 -->
      <g transform="translate(24.793125 34.589114) scale(0.1 -0.1)">
       <use xlink:href="#DejaVuSans-30"/>
       <use xlink:href="#DejaVuSans-2e" transform="translate(63.623047 0)"/>
       <use xlink:href="#DejaVuSans-34" transform="translate(95.410156 0)"/>
       <use xlink:href="#DejaVuSans-35" transform="translate(159.033203 0)"/>
       <use xlink:href="#DejaVuSans-32" transform="translate(222.65625 0)"/>
      </g>
     </g>
    </g>
    <g id="text_20">
     <!-- Running mean of seats_at_50_50 -->
     <g transform="translate(18.435313 237.273281) rotate(-90) scale(0.1 -0.1)">
      <defs>
       <path id="DejaVuSans-52" d="M 2841 2188 
Q 3044 2119 3236 1894 
Q 3428 1669 3622 1275 
L 4263 0 
L 3584 0 
L 2988 1197 
Q 2756 1666 2539 1819 
Q 2322 1972 1947 1972 
L 1259 1972 
L 1259 0 
L 628 0 
L 628 4666 
L 2053 4666 
Q 2853 4666 3247 4331 
Q 3641 3997 3641 3322 
Q 3641 2881 3436 2590 
Q 3231 2300 2841 2188 
z
M 1259 4147 
L 1259 2491 
L 2053 2491 
Q 2509 2491 2742 2702 
Q 2975 2913 2975 3322 
Q 2975 3731 2742 3939 
Q 2509 4147 2053 4147 
L 1259 4147 
z
" transform="scale(0.015625)"/>
       <path id="DejaVuSans-75" d="M 544 1381 
L 544 3500 
L 1119 3500 
L 1119 1403 
Q 1119 906 1312 657 
Q 1506 409 1894 409 
Q 2359 409 2629 706 
Q 2900 1003 2900 1516 
L 2900 3500 
L 3475 3500 
L 3475 0 
L 2900 0 
L 2900 538 
Q 2691 219 2414 64 
Q 2138 -91 1772 -91 
Q 1169 -91 856 284 
Q 544 659 544 1381 
z
M 1991 3584 
L 1991 3584 
z
" transform="scale(0.015625)"/>
       <path id="DejaVuSans-67" d="M 2906 1791 
Q 2906 2416 2648 2759 
Q 2391 3103 1925 3103 
Q 1463 3103 1205 2759 
Q 947 2416 947 1791 
Q 947 1169 1205 825 
Q 1463 481 1925 481 
Q 2391 481 2648 825 
Q 2906 1169 2906 1791 
z
M 3481 434 
Q 3481 -459 3084 -895 
Q 2688 -1331 1869 -1331 
Q 1566 -1331 1297 -1286 
Q 1028 -1241 775 -1147 
L 775 -588 
Q 1028 -725 1275 -790 
Q 1522 -856 1778 -856 
Q 2344 -856 2625 -561 
Q 2906 -266 2906 331 
L 2906 616 
Q 2728 306 2450 153 
Q 2172 0 1784 0 
Q 1141 0 747 490 
Q 353 981 353 1791 
Q 353 2603 747 3093 
Q 1141 3584 1784 3584 
Q 2172 3584 2450 3431 
Q 2728 3278 2906 2969 
L 2906 3500 
L 3481 3500 
L 3481 434 
z
" transform="scale(0.015625)"/>
       <path id="DejaVuSans-6f" d="M 1959 3097 
Q 1497 3097 1228 2736 
Q 959 2375 959 1747 
Q 959 1119 1226 758 
Q 1494 397 1959 397 
Q 2419 397 2687 759 
Q 2956 1122 2956 1747 
Q 2956 2369 2687 2733 
Q 2419 3097 1959 3097 
z
M 1959 3584 
Q 2709 3584 3137 3096 
Q 3566 2609 3566 1747 
Q 3566 888 3137 398 
Q 2709 -91 1959 -91 
Q 1206 -91 779 398 
Q 353 888 353 1747 
Q 353 2609 779 3096 
Q 1206 3584 1959 3584 
z
" transform="scale(0.015625)"/>
       <path id="DejaVuSans-66" d="M 2375 4863 
L 2375 4384 
L 1825 4384 
Q 1516 4384 1395 4259 
Q 1275 4134 1275 3809 
L 1275 3500 
L 2222 3500 
L 2222 3053 
L 1275 3053 
L 1275 0 
L 697 0 
L 697 3053 
L 147 3053 
L 147 3500 
L 697 3500 
L 697 3744 
Q 697 4328 969 4595 
Q 1241 4863 1831 4863 
L 2375 4863 
z
" transform="scale(0.015625)"/>
       <path id="DejaVuSans-73" d="M 2834 3397 
L 2834 2853 
Q 2591 2978 2328 3040 
Q 2066 3103 1784 3103 
Q 1356 3103 1142 2972 
Q 928 2841 928 2578 
Q 928 2378 1081 2264 
Q 1234 2150 1697 2047 
L 1894 2003 
Q 2506 1872 2764 1633 
Q 3022 1394 3022 966 
Q 3022 478 2636 193 
Q 2250 -91 1575 -91 
Q 1294 -91 989 -36 
Q 684 19 347 128 
L 347 722 
Q 666 556 975 473 
Q 1284 391 1588 391 
Q 1994 391 2212 530 
Q 2431 669 2431 922 
Q 2431 1156 2273 1281 
Q 2116 1406 1581 1522 
L 1381 1569 
Q 847 1681 609 1914 
Q 372 2147 372 2553 
Q 372 3047 722 3315 
Q 1072 3584 1716 3584 
Q 2034 3584 2315 3537 
Q 2597 3491 2834 3397 
z
" transform="scale(0.015625)"/>
       <path id="DejaVuSans-74" d="M 1172 4494 
L 1172 3500 
L 2356 3500 
L 2356 3053 
L 1172 3053 
L 1172 1153 
Q 1172 725 1289 603 
Q 1406 481 1766 481 
L 2356 481 
L 2356 0 
L 1766 0 
Q 1100 0 847 248 
Q 594 497 594 1153 
L 594 3053 
L 172 3053 
L 172 3500 
L 594 3500 
L 594 4494 
L 1172 4494 
z
" transform="scale(0.015625)"/>
       <path id="DejaVuSans-5f" d="M 3263 -1063 
L 3263 -1509 
L -63 -1509 
L -63 -1063 
L 3263 -1063 
z
" transform="scale(0.015625)"/>
      </defs>
      <use xlink:href="#DejaVuSans-52"/>
      <use xlink:href="#DejaVuSans-75" transform="translate(64.982422 0)"/>
      <use xlink:href="#DejaVuSans-6e" transform="translate(128.361328 0)"/>
      <use xlink:href="#DejaVuSans-6e" transform="translate(191.740234 0)"/>
      <use xlink:href="#DejaVuSans-69" transform="translate(255.119141 0)"/>
      <use xlink:href="#DejaVuSans-6e" transform="translate(282.902344 0)"/>
      <use xlink:href="#DejaVuSans-67" transform="translate(346.28125 0)"/>
      <use xlink:href="#DejaVuSans-20" transform="translate(409.757812 0)"/>
      <use xlink:href="#DejaVuSans-6d" transform="translate(441.544922 0)"/>
      <use xlink:href="#DejaVuSans-65" transform="translate(538.957031 0)"/>
      <use xlink:href="#DejaVuSans-61" transform="translate(600.480469 0)"/>
      <use xlink:href="#DejaVuSans-6e" transform="translate(661.759766 0)"/>
      <use xlink:href="#DejaVuSans-20" transform="translate(725.138672 0)"/>
      <use xlink:href="#DejaVuSans-6f" transform="translate(756.925781 0)"/>
      <use xlink:href="#DejaVuSans-66" transform="translate(818.107422 0)"/>
      <use xlink:href="#DejaVuSans-20" transform="translate(853.3125 0)"/>
      <use xlink:href="#DejaVuSans-73" transform="translate(885.099609 0)"/>
      <use xlink:href="#DejaVuSans-65" transform="translate(937.199219 0)"/>
      <use xlink:href="#DejaVuSans-61" transform="translate(998.722656 0)"/>
      <use xlink:href="#DejaVuSans-74" transform="translate(1060.001953 0)"/>
      <use xlink:href="#DejaVuSans-73" transform="translate(1099.210938 0)"/>
      <use xlink:href="#DejaVuSans-5f" transform="translate(1151.310547 0)"/>
      <use xlink:href="#DejaVuSans-61" transform="translate(1201.310547 0)"/>
      <use xlink:href="#DejaVuSans-74" transform="translate(1262.589844 0)"/>
      <use xlink:href="#DejaVuSans-5f" transform="translate(1301.798828 0)"/>
      <use xlink:href="#DejaVuSans-35" transform="translate(1351.798828 0)"/>
      <use xlink:href="#DejaVuSans-30" transform="translate(1415.421875 0)"/>
      <use xlink:href="#DejaVuSans-5f" transform="translate(1479.044922 0)"/>
      <use xlink:href="#DejaVuSans-35" transform="translate(1529.044922 0)"/>
      <use xlink:href="#DejaVuSans-30" transform="translate(1592.667969 0)"/>
     </g>
    </g>
   </g>
   <g id="line2d_37">
    <path d="M 86.638466 249.308137 
L 86.643709 249.308137 
L 86.764309 97.737126 
L 86.787905 95.646492 
L 86.798392 105.560146 
L 86.963561 226.862154 
L 87.021239 205.520956 
L 87.32536 140.115536 
L 87.335847 141.75138 
L 87.545586 157.511336 
L 87.548208 157.300855 
L 87.563938 156.062945 
L 87.598021 162.064175 
L 87.828733 193.447094 
L 88.122368 207.974369 
L 88.166937 204.373215 
L 88.193155 202.351177 
L 88.271807 204.608723 
L 88.350459 209.687485 
L 88.785667 270.441818 
L 88.924619 264.999604 
L 88.940349 264.892495 
L 88.950836 265.569549 
L 88.958701 266.073327 
L 89.058327 265.38385 
L 89.12387 264.264705 
L 89.548591 241.583305 
L 89.671813 235.198158 
L 89.768817 235.635036 
L 89.821252 236.267624 
L 89.873687 236.746084 
L 89.897282 234.581543 
L 90.143725 219.087077 
L 90.164699 219.266697 
L 90.303651 220.404793 
L 90.322003 219.726995 
L 90.631368 207.07247 
L 90.744102 208.231458 
L 90.772942 207.994844 
L 90.993167 211.771056 
L 91.378562 224.583471 
L 91.475566 225.079035 
L 91.491297 224.622832 
L 91.585679 221.946501 
L 91.648601 223.239473 
L 91.659088 223.293896 
L 91.669575 222.83233 
L 91.871448 212.448037 
L 91.942235 212.939748 
L 91.965831 213.100749 
L 91.989426 212.532909 
L 92.254222 207.411762 
L 92.290926 207.836722 
L 92.4325 210.04394 
L 92.450852 209.64698 
L 92.529504 207.973721 
L 92.610778 208.535971 
L 92.650104 208.802572 
L 92.676321 208.26204 
L 92.956847 200.226204 
L 93.095798 195.923372 
L 93.153477 196.395804 
L 93.192803 196.713151 
L 93.221642 196.089334 
L 93.557224 183.478091 
L 93.617524 184.046657 
L 93.709284 185.933202 
L 93.992432 191.489804 
L 94.480074 195.359934 
L 94.5194 194.805749 
L 94.8209 189.042234 
L 94.9415 187.312446 
L 94.975582 187.565808 
L 95.101426 188.483625 
L 95.140752 188.001723 
L 95.248243 185.350451 
L 95.662477 170.165637 
L 96.076711 155.580017 
L 96.433267 144.902466 
L 96.435888 144.930397 
L 96.477836 145.375268 
L 96.511919 144.682428 
L 97.956495 91.946834 
L 98.651254 82.787647 
L 98.666985 82.789577 
L 98.874102 82.708463 
L 98.895076 82.428757 
L 99.002567 82.44471 
L 99.327662 88.321209 
L 99.346014 88.587701 
L 99.424666 87.985927 
L 99.474479 87.971487 
L 99.482344 88.070264 
L 99.647513 90.549321 
L 99.739274 89.976955 
L 99.744518 89.842634 
L 99.852009 89.928224 
L 99.896578 89.909187 
L 99.904443 90.003674 
L 100.287217 93.55124 
L 100.305569 93.538771 
L 100.434034 92.354847 
L 100.47336 92.800906 
L 101.57711 106.505556 
L 101.896962 115.310904 
L 101.965127 115.285756 
L 102.222057 117.689373 
L 102.319061 117.45504 
L 102.471122 116.917718 
L 102.534043 116.788483 
L 102.557639 116.984873 
L 102.620561 117.505745 
L 102.7097 117.321401 
L 102.780486 117.17646 
L 102.804082 117.36929 
L 102.98236 118.940591 
L 103.032173 118.36022 
L 103.241912 117.147873 
L 103.252399 117.127119 
L 103.275994 117.314551 
L 103.412325 118.387166 
L 103.498842 118.212095 
L 103.650902 117.679834 
L 103.740041 117.227409 
L 103.776746 117.510237 
L 104.185736 121.493969 
L 104.58424 126.308658 
L 104.694353 126.052289 
L 104.723192 126.248812 
L 104.767761 126.813805 
L 104.82544 126.203115 
L 104.980122 124.835201 
L 105.027313 125.15459 
L 105.074504 125.472344 
L 105.1584 125.285697 
L 105.250161 125.083478 
L 105.279 125.275641 
L 105.541173 126.698145 
L 105.362895 125.115019 
L 105.588364 126.592486 
L 105.638177 126.481526 
L 105.667016 126.667652 
L 105.758777 127.256138 
L 105.840051 127.074193 
L 105.999977 126.452484 
L 106.204472 124.861785 
L 106.238555 125.078155 
L 106.301476 125.475638 
L 106.353911 125.124659 
L 106.665897 122.198342 
L 106.713089 122.497111 
L 106.859906 124.123747 
L 107.148296 126.664252 
L 107.588748 129.345608 
L 107.675265 129.160226 
L 107.869274 128.485095 
L 108.005604 127.615783 
L 108.058038 127.691461 
L 108.210099 128.548645 
L 108.291373 128.382444 
L 108.335942 128.072489 
L 108.75542 122.742461 
L 109.127706 118.296414 
L 109.54194 113.392891 
L 109.58651 113.656834 
L 109.628457 113.283285 
L 111.253933 89.625001 
L 111.822849 86.463131 
L 111.99064 86.346183 
L 112.11124 86.251402 
L 112.113862 86.26818 
L 112.42847 88.995028 
L 112.454687 89.224852 
L 112.53334 88.925746 
L 112.583152 88.916797 
L 112.598883 89.013975 
L 112.756187 90.194665 
L 112.850569 89.876204 
L 113.579412 81.967632 
L 113.642333 81.828783 
L 113.676416 82.039878 
L 113.77342 82.31889 
L 113.81799 82.226568 
L 113.854694 82.340595 
L 114.027728 82.71607 
L 114.069676 82.60803 
L 114.531101 79.191837 
L 115.034474 74.466946 
L 115.047583 74.471467 
L 115.236348 74.536099 
L 115.2547 74.436501 
L 115.275674 74.322831 
L 115.380543 74.3591 
L 115.414626 74.476078 
L 116.083168 78.033855 
L 116.098899 77.949064 
L 116.125116 77.807946 
L 116.219499 77.901676 
L 116.565568 80.577548 
L 116.683546 80.620824 
L 116.880176 80.544363 
L 116.998154 80.516063 
L 117.047967 80.621798 
L 117.373062 81.800594 
L 117.399279 81.901152 
L 117.532988 82.023415 
L 117.619505 82.12743 
L 117.907896 83.696844 
L 117.965574 83.394041 
L 118.225126 82.62042 
L 118.429621 82.739869 
L 118.605277 84.250613 
L 119.446854 91.926198 
L 119.459963 91.923138 
L 119.499289 91.80864 
L 119.580562 91.382868 
L 119.627754 91.608763 
L 119.74311 92.694095 
L 119.926631 94.402304 
L 120.026257 94.372055 
L 120.055096 94.363333 
L 120.07607 94.460515 
L 120.167831 94.884257 
L 120.235996 94.682421 
L 121.848363 86.844688 
L 121.895554 86.730788 
L 123.15923 81.266794 
L 123.334886 80.986377 
L 123.455486 80.891346 
L 123.71766 79.549939 
L 123.948372 79.034044 
L 124.082081 78.948721 
L 124.147624 78.727307 
L 124.213168 78.875144 
L 124.370472 79.081081 
L 124.415041 78.984114 
L 124.543506 78.922106 
L 124.653619 79.040012 
L 124.928901 80.230141 
L 124.981336 80.009971 
L 125.316918 78.36892 
L 125.413922 78.673786 
L 125.883213 80.240029 
L 125.922539 80.133918 
L 126.630407 75.186999 
L 126.751007 74.858334 
L 126.787711 75.017805 
L 126.882094 75.21151 
L 126.931907 75.158272 
L 126.971233 75.274426 
L 127.141645 75.525896 
L 127.186215 75.428793 
L 127.63191 73.276695 
L 128.143148 70.05527 
L 128.156257 70.059756 
L 128.345022 70.124041 
L 128.373861 70.019773 
L 128.384348 69.981893 
L 128.489217 70.01768 
L 128.533786 70.146437 
L 129.191842 72.632166 
L 129.210194 72.566036 
L 129.315063 72.503534 
L 129.32555 72.546967 
L 129.448772 73.520623 
L 129.679484 74.482944 
L 130.193344 74.70761 
L 130.486979 75.432725 
L 130.51844 75.547522 
L 130.649526 75.612807 
L 130.738665 75.738216 
L 131.016569 76.844578 
L 131.076869 76.630705 
L 131.331177 76.131994 
L 131.54616 76.276905 
L 131.719194 77.382516 
L 132.576501 82.954947 
L 132.610584 82.861801 
L 132.689236 82.591722 
L 132.736427 82.762382 
L 132.859649 83.618238 
L 133.137553 84.822452 
L 133.192609 84.924026 
L 133.307965 85.21907 
L 133.347291 85.079317 
L 134.97801 79.699234 
L 135.012093 79.595117 
L 136.338691 75.575789 
L 136.56416 75.537026 
L 136.566782 75.520153 
L 136.823712 74.58205 
L 137.057046 74.214932 
L 137.201241 74.132345 
L 137.256298 74.006597 
L 137.319219 74.113242 
L 137.484389 74.290878 
L 137.534202 74.190122 
L 137.649558 74.187456 
L 137.772779 74.321739 
L 138.037575 75.197924 
L 138.092631 75.031035 
L 138.425591 73.845506 
L 138.522596 74.081807 
L 138.99713 75.297959 
L 139.02859 75.237272 
L 139.033834 75.205144 
L 139.044321 75.165675 
L 139.138703 75.247962 
L 139.791515 77.035587 
L 139.901628 77.156135 
L 140.402379 79.145756 
L 141.1889 83.351996 
L 141.288526 84.002877 
L 141.532347 85.217886 
L 141.757816 85.323883 
L 141.999016 86.390016 
L 142.373924 89.527545 
L 142.60988 90.626265 
L 142.835349 91.078102 
L 142.858945 91.005977 
L 142.990032 90.260861 
L 143.163066 89.699018 
L 143.315127 89.791316 
L 143.802769 90.834117 
L 143.907639 90.716314 
L 145.040228 87.672157 
L 145.257832 87.770225 
L 145.520006 88.173471 
L 145.637984 88.055649 
L 145.734988 87.441731 
L 146.2069 83.995394 
L 146.248848 84.031875 
L 146.309148 84.140878 
L 146.377313 84.191719 
L 146.411395 84.097656 
L 146.537239 83.426214 
L 146.697164 81.929945 
L 146.920012 80.689654 
L 146.940986 80.662196 
L 146.964581 80.728157 
L 147.02226 80.731534 
L 147.344733 80.643386 
L 147.777319 79.805603 
L 147.939867 79.711551 
L 149.069834 76.744507 
L 149.127512 76.910703 
L 150.304671 79.833072 
L 150.448867 79.741373 
L 152.139886 71.686851 
L 152.289325 71.827521 
L 152.926406 73.23293 
L 153.020789 73.359421 
L 153.516296 74.986489 
L 154.305439 78.419732 
L 154.399821 78.951477 
L 154.643642 79.931266 
L 154.874355 80.053712 
L 155.107689 80.914861 
L 155.487841 83.522575 
L 155.721175 84.40194 
L 155.944023 84.782329 
L 155.972862 84.719708 
L 156.012188 84.613421 
L 156.318931 83.692868 
L 156.431665 83.799183 
L 156.919308 84.670478 
L 157.026799 84.559209 
L 158.151523 82.194896 
L 158.374371 82.309894 
L 158.636544 82.641533 
L 158.754522 82.53619 
L 158.84104 82.076825 
L 159.315574 79.269129 
L 159.357521 79.301761 
L 159.441417 79.414457 
L 159.485986 79.441183 
L 159.527934 79.348979 
L 159.805838 77.60538 
L 160.028685 76.599749 
L 160.049659 76.578362 
L 160.073255 76.633861 
L 160.130933 76.639849 
L 160.463893 76.562876 
L 160.888614 75.919292 
L 161.059027 75.827933 
L 162.178508 73.455582 
L 162.238808 73.601563 
L 163.42121 76.070554 
L 163.562784 75.978762 
L 165.256424 69.371223 
L 165.730958 69.35116 
L 165.964293 69.144115 
L 166.145192 69.069673 
L 166.265792 69.076384 
L 166.478153 69.00839 
L 166.606618 69.000433 
L 166.947443 68.957453 
L 167.254186 68.199866 
L 168.326476 66.360855 
L 168.34745 66.407815 
L 169.249326 68.409743 
L 169.312248 68.296201 
L 169.757943 67.720707 
L 170.062064 67.672095 
L 170.305885 67.187778 
L 171.108136 65.546868 
L 171.375553 64.982974 
L 171.648214 64.663074 
L 171.671809 64.693955 
L 172.363947 64.740916 
L 172.510764 64.708791 
L 172.633986 64.847504 
L 173.092789 65.611179 
L 173.103276 65.593424 
L 173.315637 65.449472 
L 173.491293 65.597124 
L 173.661706 65.698315 
L 173.753467 65.608599 
L 174.07594 65.281516 
L 174.277813 65.211686 
L 174.571448 64.93578 
L 174.880812 64.895665 
L 175.347481 63.656208 
L 175.643737 63.384503 
L 176.168084 63.617942 
L 176.516775 64.535703 
L 176.621644 64.669291 
L 176.807787 64.800915 
L 176.891683 64.708741 
L 177.701799 63.195915 
L 178.013785 61.747818 
L 178.205172 61.185302 
L 178.291689 61.065459 
L 178.344124 61.173088 
L 178.540754 61.363735 
L 178.551241 61.347517 
L 178.705923 61.310823 
L 178.960232 61.261566 
L 179.130644 61.201028 
L 179.537013 61.190127 
L 179.715291 61.118103 
L 180.06136 61.092685 
L 180.360238 60.487915 
L 181.435149 58.986523 
L 181.456123 59.028622 
L 182.358 60.825921 
L 182.423543 60.729027 
L 182.866616 60.27083 
L 183.175981 60.235665 
L 183.411937 59.856076 
L 184.21681 58.492099 
L 184.481605 58.026748 
L 184.756887 57.765208 
L 184.780483 57.793622 
L 185.480486 57.871643 
L 185.619438 57.864978 
L 185.753146 58.014095 
L 186.201463 58.688566 
L 186.214572 58.670206 
L 186.42431 58.563561 
L 186.610453 58.723944 
L 186.778244 58.805625 
L 186.872627 58.71736 
L 187.184613 58.469569 
L 187.394352 58.411608 
L 187.680121 58.202091 
L 187.994729 58.171991 
L 188.456155 57.138577 
L 188.752411 56.92066 
L 189.282001 57.175553 
L 189.62807 57.980796 
L 189.740805 58.122845 
L 189.924326 58.232131 
L 190.010843 58.140903 
L 190.810472 56.883501 
L 191.122459 55.635927 
L 191.313846 55.155029 
L 191.400363 55.055161 
L 191.452797 55.152336 
L 191.665158 55.487226 
L 191.725458 55.425506 
L 191.974523 55.608709 
L 192.283887 56.270112 
L 192.978647 56.343141 
L 193.156925 55.934914 
L 194.87154 51.410463 
L 195.304126 50.713021 
L 196.56518 45.839167 
L 196.950575 45.130087 
L 197.050201 45.051749 
L 197.45657 44.293594 
L 197.750204 44.103262 
L 197.755448 44.112945 
L 198.049082 44.708118 
L 199.144967 46.489481 
L 199.488414 46.719468 
L 199.842349 47.127339 
L 199.978679 47.286537 
L 200.445347 47.951428 
L 200.4637 47.930673 
L 200.597408 47.946724 
L 200.738982 47.878019 
L 201.108646 47.625085 
L 201.402281 47.835706 
L 201.876815 48.447544 
L 201.994793 48.600453 
L 202.215018 48.784463 
L 202.222884 48.775647 
L 202.361836 48.784607 
L 202.553222 48.955171 
L 203.190304 50.59602 
L 203.924389 52.064762 
L 204.307163 52.886558 
L 204.57458 53.548392 
L 204.773831 53.834609 
L 204.781697 53.825647 
L 204.96784 53.778455 
L 205.067466 53.917361 
L 205.211661 54.366619 
L 205.384696 54.537719 
L 206.097807 54.602882 
L 206.270842 54.240696 
L 207.988078 50.23343 
L 208.415421 49.613793 
L 209.679097 45.267881 
L 210.059249 44.648261 
L 210.164118 44.566299 
L 210.567865 43.899578 
L 210.858878 43.732894 
L 210.866743 43.749392 
L 211.162999 44.283598 
L 212.258884 45.875817 
L 212.604953 46.094634 
L 212.977239 46.48452 
L 213.116191 46.638921 
L 213.554021 47.19147 
L 213.574995 47.170325 
L 213.711325 47.18969 
L 213.858142 47.116836 
L 214.225185 46.904912 
L 214.518819 47.105734 
L 214.990732 47.646888 
L 215.111331 47.795771 
L 215.323692 47.950099 
L 215.334179 47.939609 
L 215.475753 47.952656 
L 215.667139 48.120533 
L 216.301599 49.588825 
L 217.038306 50.926184 
L 217.418458 51.658332 
L 217.688497 52.267002 
L 218.037187 52.908424 
L 218.139435 53.044678 
L 218.312469 53.10542 
L 218.417339 53.23857 
L 218.810599 54.63709 
L 219.460789 56.766046 
L 219.565659 56.898414 
L 219.861915 58.011578 
L 221.15443 62.625626 
L 221.345817 62.701338 
L 221.476903 62.834614 
L 221.878029 63.573259 
L 222.129715 64.097108 
L 222.648819 64.778529 
L 222.714362 64.708419 
L 223.105 64.450498 
L 223.590021 65.291577 
L 223.87579 65.715734 
L 224.465681 65.68524 
L 224.588902 65.585781 
L 224.641337 65.655586 
L 225.031975 65.992626 
L 225.246958 66.130224 
L 225.349205 66.202859 
L 225.38591 66.13591 
L 225.776548 65.530635 
L 225.89977 65.245825 
L 226.198647 64.616866 
L 226.605016 64.562617 
L 227.129363 64.177246 
L 227.294533 64.311578 
L 227.572436 64.553553 
L 227.596032 64.529226 
L 227.960453 64.31068 
L 228.311766 64.470108 
L 228.537235 64.672321 
L 228.573939 64.634708 
L 228.799408 64.562354 
L 229.247725 64.515061 
L 229.323755 64.461901 
L 229.365703 64.516227 
L 229.51252 64.703087 
L 229.58855 64.625711 
L 229.832372 64.471802 
L 229.858589 64.505637 
L 230.144358 64.69574 
L 230.613649 64.648325 
L 230.697544 64.605684 
L 230.747357 64.669528 
L 231.394926 65.319136 
L 231.531256 65.447455 
L 231.916651 66.664896 
L 232.566841 68.557957 
L 232.676954 68.676462 
L 232.967966 69.650739 
L 234.263103 73.762228 
L 234.451868 73.816621 
L 234.593442 73.937749 
L 234.986702 74.571806 
L 235.235767 75.027741 
L 235.757492 75.614275 
L 235.823036 75.545565 
L 236.213674 75.281945 
L 236.218917 75.288046 
L 236.698695 76.014543 
L 236.981842 76.3812 
L 237.58222 76.303624 
L 237.697576 76.212313 
L 237.755254 76.278379 
L 238.140649 76.552879 
L 238.366118 76.675558 
L 238.457879 76.722895 
L 238.494583 76.659182 
L 238.893087 76.070918 
L 239.016308 75.785063 
L 239.309943 75.214701 
L 239.721555 75.128798 
L 240.245902 74.748717 
L 240.668001 75.061327 
L 240.783358 74.958739 
L 241.082235 74.814252 
L 241.428304 74.944398 
L 241.645908 75.105427 
L 241.682613 75.068525 
L 241.918569 74.987755 
L 242.361642 74.903004 
L 242.432429 74.860043 
L 242.47962 74.912867 
L 242.621194 75.068376 
L 242.697224 74.99245 
L 242.941045 74.835277 
L 242.972506 74.870388 
L 243.255653 75.019982 
L 243.730187 74.93773 
L 243.806218 74.900945 
L 243.861274 74.962019 
L 244.186369 74.874102 
L 244.435434 74.543419 
L 244.45903 74.569547 
L 245.274389 75.568578 
L 245.397611 75.447229 
L 245.945553 74.752355 
L 246.519713 73.844704 
L 246.891999 73.593503 
L 246.912973 73.616497 
L 247.620842 74.227761 
L 247.75455 74.3462 
L 248.014102 74.523029 
L 248.040319 74.497803 
L 248.244815 74.453934 
L 248.441445 74.356213 
L 248.984144 73.989544 
L 249.214856 73.895003 
L 249.618604 72.856079 
L 249.933212 72.059276 
L 250.381528 71.487554 
L 250.706623 71.098816 
L 250.827223 71.219171 
L 250.937336 71.248982 
L 250.960932 71.203454 
L 251.445953 70.123446 
L 251.647826 69.498296 
L 252.159064 68.349238 
L 252.290151 68.252125 
L 252.591651 68.12999 
L 252.717494 68.25164 
L 253.02948 68.648329 
L 253.21038 68.771791 
L 253.412254 68.935836 
L 253.666562 69.070567 
L 253.970683 69.444684 
L 254.107013 69.345647 
L 254.710012 68.953787 
L 254.846342 68.855583 
L 254.972186 68.890236 
L 255.236981 69.011906 
L 255.349716 69.129815 
L 255.902902 70.449769 
L 256.120506 70.641113 
L 256.702531 71.094824 
L 257.620138 70.424018 
L 257.756468 70.546304 
L 258.233624 71.204763 
L 258.383063 71.3295 
L 258.406658 71.308605 
L 259.05947 70.582212 
L 259.631008 69.764489 
L 260.024269 69.567783 
L 260.73738 70.147415 
L 260.871089 70.267519 
L 261.154236 70.401801 
L 261.358731 70.370972 
L 261.560605 70.275692 
L 262.095439 69.95828 
L 262.328773 69.866452 
L 262.727277 68.923505 
L 263.041885 68.192926 
L 263.492824 67.668735 
L 263.815297 67.320403 
L 263.943762 67.442497 
L 264.051253 67.460006 
L 264.072227 67.415658 
L 264.554626 66.432597 
L 264.759121 65.850621 
L 265.267738 64.803321 
L 265.409312 64.707395 
L 265.705568 64.609265 
L 265.831411 64.734143 
L 266.140776 65.098044 
L 266.324297 65.225982 
L 266.523549 65.372151 
L 266.777857 65.506911 
L 267.081978 65.855054 
L 267.223552 65.759266 
L 267.823929 65.4146 
L 268.458389 65.589846 
L 269.016819 66.835654 
L 269.234423 67.012823 
L 269.813826 67.438254 
L 270.663268 66.608323 
L 271.132558 66.029381 
L 271.483871 65.609912 
L 272.233687 64.563875 
L 272.309717 64.462411 
L 272.561404 64.256488 
L 272.773764 63.951542 
L 273.450172 62.961948 
L 273.479011 62.99071 
L 273.683506 63.039414 
L 274.013845 62.924422 
L 274.435944 62.861791 
L 274.632574 62.849651 
L 275.542316 63.596427 
L 275.655051 63.370678 
L 276.263293 62.143886 
L 277.094383 61.656534 
L 277.178279 61.77549 
L 277.55843 62.26901 
L 277.566295 62.263117 
L 277.741952 62.269754 
L 278.019856 62.69509 
L 278.276786 63.003984 
L 278.303003 62.984316 
L 279.136714 62.496548 
L 279.325479 62.625661 
L 279.443457 62.820682 
L 279.524731 62.760176 
L 279.944209 62.583 
L 280.240465 62.71675 
L 280.382038 62.620828 
L 280.539343 62.575904 
L 280.670429 62.479055 
L 280.869681 62.200658 
L 281.15545 61.487877 
L 281.401893 61.30564 
L 281.606389 61.019015 
L 281.758449 60.941774 
L 282.482048 60.917474 
L 282.870065 60.500583 
L 283.963328 58.998598 
L 284.37494 58.571965 
L 285.287304 57.3678 
L 285.423634 57.275234 
L 285.670077 57.099947 
L 285.887681 56.814726 
L 286.558845 55.922102 
L 286.587685 55.949994 
L 286.797423 55.999119 
L 287.127762 55.907565 
L 287.555105 55.85589 
L 287.74387 55.861038 
L 288.656233 56.584753 
L 288.763724 56.381118 
L 289.371967 55.254618 
L 290.205678 54.827155 
L 290.292196 54.950143 
L 290.667104 55.415435 
L 290.677591 55.408435 
L 290.853247 55.42478 
L 291.139016 55.848051 
L 291.385459 56.127399 
L 291.414298 56.108118 
L 292.250631 55.681804 
L 292.439396 55.81735 
L 292.552131 55.994728 
L 292.636026 55.939025 
L 293.055504 55.791156 
L 293.359625 55.925142 
L 294.015059 55.361628 
L 294.434536 54.689081 
L 294.715062 54.377517 
L 294.864501 54.309611 
L 295.601208 54.303399 
L 295.983982 53.92413 
L 296.998593 52.663524 
L 297.158519 52.691641 
L 297.313201 52.82573 
L 297.709083 53.046646 
L 298.083991 52.940332 
L 298.401221 53.099638 
L 298.545416 53.08409 
L 298.778751 53.067393 
L 299.539054 53.290581 
L 299.717332 53.304312 
L 300.102727 53.191964 
L 300.435687 53.347619 
L 300.689995 53.27317 
L 300.904978 53.267914 
L 301.164529 53.194481 
L 301.948428 52.290718 
L 302.152923 52.329087 
L 302.302362 52.106442 
L 302.561914 51.808436 
L 303.004987 51.664915 
L 303.476899 51.62611 
L 303.728586 51.351022 
L 303.975029 51.071788 
L 304.315855 50.791798 
L 304.486267 50.927224 
L 305.136458 51.79677 
L 305.451066 51.954189 
L 305.812865 52.430005 
L 306.069795 52.640806 
L 306.185151 52.889983 
L 306.630846 53.671453 
L 306.746203 53.648169 
L 307.01362 53.797237 
L 307.828979 55.081317 
L 307.899766 55.037852 
L 308.264187 54.943385 
L 308.508008 55.08677 
L 309.483294 55.917357 
L 309.535728 55.844435 
L 309.884419 55.468233 
L 309.923745 55.502372 
L 309.999775 55.529597 
L 310.046967 55.465942 
L 310.201649 55.441352 
L 310.42974 55.580937 
L 310.820378 55.775675 
L 311.20053 55.673608 
L 311.51776 55.825538 
L 311.656712 55.800795 
L 311.89529 55.784839 
L 312.655593 55.991678 
L 312.828627 55.994176 
L 313.214022 55.887574 
L 313.549604 56.028699 
L 313.806534 55.950158 
L 314.024138 55.94871 
L 314.275825 55.87167 
L 315.057102 55.014047 
L 315.059723 55.016277 
L 315.264219 55.046223 
L 315.413658 54.83078 
L 315.675831 54.548975 
L 316.124148 54.412818 
L 316.588195 54.36392 
L 316.839881 54.105265 
L 317.091568 53.830278 
L 317.42715 53.572678 
L 317.600184 53.706205 
L 318.245131 54.51057 
L 318.570226 54.664212 
L 318.926782 55.108276 
L 319.18109 55.298322 
L 319.296447 55.535859 
L 319.742142 56.266459 
L 319.854876 56.239175 
L 320.124915 56.380926 
L 321.011061 57.536832 
L 321.380726 57.446204 
L 321.624547 57.584513 
L 323.491222 59.250784 
L 323.915943 59.689452 
L 324.377368 59.626126 
L 324.57662 59.635846 
L 324.815198 59.68595 
L 325.064263 59.664439 
L 325.344789 59.747729 
L 325.732805 59.648165 
L 326.089361 59.57459 
L 326.320074 59.567666 
L 326.561273 59.482481 
L 326.823447 59.457287 
L 326.970264 59.362616 
L 327.528694 58.726993 
L 327.578507 58.766394 
L 327.76465 58.77531 
L 328.08188 58.466504 
L 329.337691 56.268017 
L 330.790132 54.635733 
L 331.178148 54.803066 
L 331.322344 54.709019 
L 331.6186 54.518679 
L 331.809986 54.811925 
L 332.053808 55.072154 
L 332.845572 55.557942 
L 333.228345 55.713048 
L 333.456436 56.032201 
L 334.531347 57.397415 
L 334.935094 57.571801 
L 335.260189 57.514463 
L 336.50027 58.610072 
L 337.027238 59.168669 
L 337.493907 59.104961 
L 337.687916 59.120956 
L 337.926493 59.165491 
L 338.17818 59.151039 
L 338.456084 59.225147 
L 338.846722 59.133541 
L 339.2059 59.057921 
L 339.363204 59.039368 
L 339.551969 59.042797 
L 339.939986 58.955023 
L 340.084181 58.85845 
L 340.689802 58.302459 
L 340.878567 58.306417 
L 341.195797 58.007304 
L 342.448986 55.930249 
L 343.901427 54.388104 
L 344.292065 54.545918 
L 344.433639 54.453139 
L 344.729895 54.277792 
L 344.921282 54.559681 
L 345.165103 54.803603 
L 345.96211 55.264567 
L 346.347505 55.419228 
L 346.572974 55.725572 
L 347.645264 57.016538 
L 348.049011 57.176144 
L 348.376728 57.127401 
L 348.675606 57.268989 
L 350.623555 58.833552 
L 351.121684 59.319899 
L 351.347153 59.452299 
L 351.682735 59.718801 
L 351.9318 59.852753 
L 352.545286 60.154789 
L 352.715699 60.061274 
L 353.423567 59.389151 
L 353.434054 59.403103 
L 353.822071 59.735571 
L 354.254657 59.907802 
L 354.482748 59.66522 
L 354.768517 59.386437 
L 355.300729 58.947718 
L 355.60485 59.087346 
L 355.827698 59.379841 
L 355.992867 59.45775 
L 356.317962 59.376944 
L 356.679762 59.312545 
L 357.143809 59.46572 
L 357.707482 59.727993 
L 357.985386 59.467684 
L 358.237072 59.213454 
L 358.68801 58.653764 
L 359.117975 58.338464 
L 359.335579 58.359152 
L 360.145695 57.617969 
L 360.339703 57.621048 
L 360.971541 57.425316 
L 361.228471 57.472489 
L 361.556188 57.183347 
L 361.865553 57.006263 
L 362.104131 57.011022 
L 363.713876 58.268763 
L 364.232979 58.756938 
L 364.458449 58.886662 
L 364.794031 59.138173 
L 365.048339 59.27147 
L 365.661825 59.555933 
L 365.829616 59.460745 
L 366.220254 59.142534 
L 366.524375 58.821985 
L 366.534862 58.830668 
L 366.935988 59.161913 
L 367.365952 59.322126 
L 367.596665 59.083874 
L 367.882434 58.821757 
L 368.412024 58.410425 
L 368.718767 58.547449 
L 369.140867 58.901395 
L 369.434501 58.817564 
L 369.7963 58.761447 
L 370.262969 58.914777 
L 370.816155 59.159019 
L 370.818777 59.154683 
L 371.094059 58.911261 
L 371.348367 58.664905 
L 371.883201 57.99691 
L 372.200431 57.818501 
L 372.446874 57.853415 
L 373.25699 57.152096 
L 373.45362 57.151071 
L 374.082837 56.969569 
L 374.342388 57.010736 
L 374.672727 56.729525 
L 374.97947 56.568235 
L 375.388461 56.496573 
L 376.290337 55.945155 
L 376.568241 55.705156 
L 376.91431 55.663181 
L 377.113562 55.663435 
L 377.270866 55.467503 
L 377.884352 54.691723 
L 378.343156 54.357017 
L 379.40758 52.321246 
L 380.398596 51.468635 
L 380.666012 51.391033 
L 381.882497 49.682804 
L 382.071262 49.479348 
L 382.9443 48.324512 
L 383.599734 47.829744 
L 384.808353 47.186535 
L 384.931575 47.196049 
L 384.942062 47.208957 
L 385.083635 47.210586 
L 385.295996 47.238382 
L 385.46903 47.275748 
L 385.927834 47.443773 
L 386.596376 47.760969 
L 387.25181 47.95139 
L 387.7814 48.173303 
L 388.743577 48.177962 
L 389.336089 47.805462 
L 389.842084 47.468147 
L 390.306131 47.416084 
L 390.993025 46.579411 
L 391.454451 46.265958 
L 392.516253 44.35092 
L 393.509891 43.560817 
L 393.779929 43.485309 
L 394.993793 41.887571 
L 395.182557 41.694724 
L 396.052973 40.614613 
L 396.711029 40.156037 
L 397.924892 39.563518 
L 398.040248 39.582856 
L 398.050735 39.595476 
L 398.197552 39.598471 
L 398.336504 39.55036 
L 398.367965 39.588186 
L 398.582947 39.673072 
L 399.046994 39.851495 
L 399.715537 40.166083 
L 400.37097 40.369925 
L 400.900561 40.589842 
L 402.971731 40.766366 
L 403.2575 40.537768 
L 404.319303 39.723668 
L 404.733537 40.128541 
L 405.438784 41.105687 
L 405.950022 41.533887 
L 406.414069 41.968006 
L 406.788977 42.574373 
L 407.287107 43.19376 
L 407.418193 43.515393 
L 407.814075 44.264833 
L 408.786739 45.669667 
L 409.012208 45.681896 
L 409.329438 45.83112 
L 409.78562 46.183974 
L 410.270641 46.3587 
L 411.2669 46.586992 
L 411.361282 46.651244 
L 411.421582 46.596943 
L 411.605104 46.580932 
L 411.922334 46.575115 
L 412.147803 46.48956 
L 412.88451 46.320211 
L 413.196497 46.245159 
L 414.300247 45.93348 
L 414.549312 45.958635 
L 414.853433 45.958533 
L 415.207367 46.047205 
L 415.944075 46.022328 
L 416.374039 45.73888 
L 417.43322 44.950519 
L 417.844832 45.333823 
L 418.306258 46.050726 
L 418.47667 46.181186 
L 419.056074 46.658892 
L 419.527986 47.076152 
L 419.900272 47.651326 
L 420.398402 48.237508 
L 420.526867 48.541659 
L 420.922749 49.255758 
L 421.895412 50.591183 
L 422.128747 50.600415 
L 422.440733 50.741218 
L 422.896915 51.072367 
L 423.387179 51.232478 
L 424.378195 51.43958 
L 424.530256 51.444108 
L 424.721642 51.423011 
L 425.041494 51.416971 
L 425.264341 51.327418 
L 426.003671 51.158193 
L 426.313035 51.077519 
L 427.414164 50.768276 
L 427.568846 50.732706 
L 427.880833 50.607397 
L 428.287202 50.758882 
L 429.928407 51.584578 
L 430.366237 51.735723 
L 431.485718 52.756035 
L 431.965495 52.485305 
L 432.225047 52.397738 
L 432.384973 52.453777 
L 432.731042 52.524342 
L 432.948646 52.481813 
L 433.189845 52.491447 
L 433.525427 52.246514 
L 433.792844 51.989488 
L 434.503335 51.60015 
L 435.187607 50.594166 
L 435.662141 50.150246 
L 435.945289 50.184092 
L 436.231058 50.100556 
L 436.792109 49.480582 
L 437.416082 48.843038 
L 437.935185 48.533254 
L 438.160654 48.48724 
L 438.407097 48.401599 
L 438.664027 48.424086 
L 439.214592 48.611367 
L 439.371896 48.670201 
L 439.686504 48.839187 
L 441.183515 48.406616 
L 443.044946 49.334466 
L 443.480154 49.487411 
L 444.594391 50.472045 
L 445.079412 50.214771 
L 445.341586 50.128679 
L 445.49889 50.189461 
L 445.842337 50.254565 
L 446.059941 50.218573 
L 446.301141 50.226968 
L 446.636723 49.98946 
L 446.90414 49.747067 
L 447.61463 49.372688 
L 448.298903 48.408584 
L 448.770815 47.986923 
L 449.061827 48.022021 
L 449.342353 47.940297 
L 449.906026 47.341539 
L 450.527377 46.736314 
L 451.051724 46.435284 
L 451.27195 46.398797 
L 451.526258 46.313718 
L 451.777944 46.343432 
L 452.328509 46.522397 
L 452.483191 46.584481 
L 452.797799 46.745663 
L 454.323649 46.330603 
L 454.564848 46.415449 
L 455.267473 46.377252 
L 455.660734 46.206567 
L 455.970098 46.251333 
L 457.152501 45.727997 
L 457.868234 45.305756 
L 458.174977 45.348402 
L 458.654755 45.302051 
L 458.990337 45.360407 
L 459.855509 45.339291 
L 460.138656 45.36069 
L 460.361504 45.495037 
L 460.836038 45.628614 
L 461.056264 45.669829 
L 461.258137 45.653665 
L 461.557015 45.5598 
L 461.743158 45.468267 
L 462.191475 45.258799 
L 462.354022 45.387385 
L 462.597844 45.394183 
L 463.386986 45.012752 
L 463.945415 44.511203 
L 464.409462 44.015969 
L 464.731936 43.698959 
L 466.548798 42.447628 
L 466.96041 42.381388 
L 467.53457 42.311609 
L 468.412851 42.298183 
L 468.769407 42.165226 
L 469.084015 42.21004 
L 470.269039 41.712828 
L 470.976908 41.31835 
L 471.288894 41.361057 
L 471.76605 41.32433 
L 472.109497 41.383917 
L 472.972048 41.368771 
L 473.255195 41.39571 
L 473.984037 41.661808 
L 474.497897 41.60669 
L 475.4391 41.423936 
L 475.646217 41.471216 
L 476.498281 41.088603 
L 477.05671 40.610618 
L 477.520757 40.134413 
L 477.843231 39.833439 
L 479.660093 38.643924 
L 479.940619 38.565345 
L 480.218522 38.499767 
L 481.42452 38.528868 
L 481.778455 38.536982 
L 482.174337 38.62432 
L 482.672466 38.588855 
L 483.891573 39.362955 
L 484.179964 39.649133 
L 485.00581 40.209767 
L 486.046639 41.431752 
L 486.665368 41.858198 
L 487.666871 42.502507 
L 487.994588 42.656274 
L 488.298709 42.798737 
L 489.394594 43.486337 
L 491.919324 45.962147 
L 493.067644 47.294694 
L 493.332439 47.238969 
L 494.541059 47.238352 
L 494.892372 47.243717 
L 495.285632 47.316403 
L 495.786383 47.274903 
L 497.000246 47.995888 
L 497.288637 48.266869 
L 498.117105 48.795726 
L 499.155312 49.953845 
L 499.776663 50.35526 
L 500.780788 50.961968 
L 501.105883 51.099796 
L 501.415248 51.235112 
L 502.508511 51.87963 
L 505.027998 54.222679 
L 506.362461 55.720233 
L 507.329881 56.287801 
L 508.417901 57.068857 
L 509.167717 57.226693 
L 509.508543 57.37025 
L 509.875585 57.415043 
L 510.546749 57.567792 
L 510.932144 57.747051 
L 511.737017 57.988619 
L 513.656127 57.99727 
L 514.225043 57.728631 
L 515.70108 57.930849 
L 517.643785 58.918945 
L 518.178619 59.216069 
L 519.014953 59.463667 
L 519.25353 59.588365 
L 519.840799 59.927461 
L 520.12919 60.05345 
L 521.492492 61.025887 
L 522.281634 61.178231 
L 522.62246 61.312397 
L 523.020963 61.364095 
L 523.676397 61.509326 
L 524.046061 61.665071 
L 524.850934 61.890239 
L 526.770044 61.877687 
L 527.336339 61.615826 
L 528.817619 61.802273 
L 530.757702 62.7451 
L 531.292536 63.026913 
L 532.131491 63.258249 
L 532.364826 63.378942 
L 533.717641 64.303512 
L 535.510907 64.272399 
L 536.01428 64.058885 
L 536.341997 63.836911 
L 537.2229 63.067308 
L 538.502307 62.773017 
L 538.709424 62.793392 
L 539.115793 62.780161 
L 539.59557 62.69306 
L 540.227408 62.396859 
L 540.945763 62.055223 
L 541.436028 61.705259 
L 541.999701 61.278023 
L 542.159626 61.174954 
L 542.647269 60.828632 
L 542.95139 60.848044 
L 543.137534 60.851905 
L 543.674989 60.800856 
L 544.862635 61.171398 
L 545.463012 61.312896 
L 546.828936 62.225373 
L 548.622203 62.201336 
L 549.130819 61.995446 
L 549.453292 61.78097 
L 550.334195 61.0389 
L 551.613602 60.761281 
L 551.818097 60.779984 
L 552.232331 60.76928 
L 552.709487 60.682854 
L 553.341325 60.399551 
L 554.05968 60.066867 
L 554.961557 59.313339 
L 555.270922 59.219011 
L 555.758564 58.886245 
L 556.062686 58.909139 
L 556.248829 58.910896 
L 556.786284 58.865331 
L 557.981795 59.229942 
L 558.590038 59.372225 
L 559.316258 59.780299 
L 559.69641 59.910651 
L 560.312518 60.276667 
L 560.67956 60.41299 
L 561.023008 60.539713 
L 561.922263 61.072575 
L 562.483314 61.175394 
L 563.500547 61.113945 
L 564.043246 61.067752 
L 565.306922 61.018706 
L 565.579583 61.052719 
L 566.164229 61.401352 
L 569.302446 63.84858 
L 569.774358 64.19094 
L 570.15451 64.330218 
L 570.927921 64.251262 
L 571.218934 64.279353 
L 572.401336 64.996961 
L 573.583739 65.563576 
L 573.832803 65.606885 
L 574.136925 65.728586 
L 575.03618 66.235815 
L 575.597231 66.328181 
L 576.617086 66.255126 
L 577.162406 66.207224 
L 578.426083 66.142761 
L 578.6935 66.178111 
L 579.280768 66.514989 
L 582.413741 68.862323 
L 582.888275 69.19182 
L 583.265805 69.320029 
L 584.04446 69.232944 
L 584.330229 69.261571 
L 585.381545 69.855387 
L 587.94298 70.89487 
L 588.677065 71.263482 
L 589.19879 71.566271 
L 590.066585 72.023928 
L 593.886452 73.25149 
L 594.172221 73.28071 
L 594.57859 73.178754 
L 594.885333 73.199917 
L 596.052005 73.849571 
L 597.386468 74.192782 
L 597.787593 74.187142 
L 598.925426 74.694348 
L 599.365878 74.85363 
L 599.714568 74.96966 
L 599.91382 74.970739 
L 600.120937 75.02252 
L 600.938918 75.416661 
L 601.790982 75.845387 
L 602.312707 76.137519 
L 603.180502 76.574202 
L 606.997747 77.734898 
L 607.28876 77.761818 
L 607.702994 77.656542 
L 607.99925 77.680215 
L 609.165922 78.301905 
L 610.500385 78.621879 
L 610.898889 78.615439 
L 610.982784 78.647701 
L 610.982784 78.647701 
" clip-path="url(#pcf673f739d)" style="fill: none; stroke: #1f2937; stroke-linecap: square"/>
   </g>
   <g id="line2d_38">
    <path d="M 60.42125 78.647701 
L 637.2 78.647701 
" clip-path="url(#pcf673f739d)" style="fill: none; stroke-dasharray: 2.96,1.28; stroke-dashoffset: 0; stroke: #888888; stroke-width: 0.8"/>
   </g>
   <g id="patch_3">
    <path d="M 60.42125 282.04 
L 60.42125 26.88 
" style="fill: none; stroke: #000000; stroke-width: 0.8; stroke-linejoin: miter; stroke-linecap: square"/>
   </g>
   <g id="patch_4">
    <path d="M 637.2 282.04 
L 637.2 26.88 
" style="fill: none; stroke: #000000; stroke-width: 0.8; stroke-linejoin: miter; stroke-linecap: square"/>
   </g>
   <g id="patch_5">
    <path d="M 60.42125 282.04 
L 637.2 282.04 
" style="fill: none; stroke: #000000; stroke-width: 0.8; stroke-linejoin: miter; stroke-linecap: square"/>
   </g>
   <g id="patch_6">
    <path d="M 60.42125 26.88 
L 637.2 26.88 
" style="fill: none; stroke: #000000; stroke-width: 0.8; stroke-linejoin: miter; stroke-linecap: square"/>
   </g>
   <g id="text_21">
    <!-- Running mean — seats_at_50_50  (canonical ReCom ensemble) -->
    <g transform="translate(157.726562 20.88) scale(0.12 -0.12)">
     <defs>
      <path id="DejaVuSans-2014" d="M 313 1978 
L 6088 1978 
L 6088 1528 
L 313 1528 
L 313 1978 
z
" transform="scale(0.015625)"/>
      <path id="DejaVuSans-28" d="M 1984 4856 
Q 1566 4138 1362 3434 
Q 1159 2731 1159 2009 
Q 1159 1288 1364 580 
Q 1569 -128 1984 -844 
L 1484 -844 
Q 1016 -109 783 600 
Q 550 1309 550 2009 
Q 550 2706 781 3412 
Q 1013 4119 1484 4856 
L 1984 4856 
z
" transform="scale(0.015625)"/>
      <path id="DejaVuSans-63" d="M 3122 3366 
L 3122 2828 
Q 2878 2963 2633 3030 
Q 2388 3097 2138 3097 
Q 1578 3097 1268 2742 
Q 959 2388 959 1747 
Q 959 1106 1268 751 
Q 1578 397 2138 397 
Q 2388 397 2633 464 
Q 2878 531 3122 666 
L 3122 134 
Q 2881 22 2623 -34 
Q 2366 -91 2075 -91 
Q 1284 -91 818 406 
Q 353 903 353 1747 
Q 353 2603 823 3093 
Q 1294 3584 2113 3584 
Q 2378 3584 2631 3529 
Q 2884 3475 3122 3366 
z
" transform="scale(0.015625)"/>
      <path id="DejaVuSans-43" d="M 4122 4306 
L 4122 3641 
Q 3803 3938 3442 4084 
Q 3081 4231 2675 4231 
Q 1875 4231 1450 3742 
Q 1025 3253 1025 2328 
Q 1025 1406 1450 917 
Q 1875 428 2675 428 
Q 3081 428 3442 575 
Q 3803 722 4122 1019 
L 4122 359 
Q 3791 134 3420 21 
Q 3050 -91 2638 -91 
Q 1578 -91 968 557 
Q 359 1206 359 2328 
Q 359 3453 968 4101 
Q 1578 4750 2638 4750 
Q 3056 4750 3426 4639 
Q 3797 4528 4122 4306 
z
" transform="scale(0.015625)"/>
      <path id="DejaVuSans-62" d="M 3116 1747 
Q 3116 2381 2855 2742 
Q 2594 3103 2138 3103 
Q 1681 3103 1420 2742 
Q 1159 2381 1159 1747 
Q 1159 1113 1420 752 
Q 1681 391 2138 391 
Q 2594 391 2855 752 
Q 3116 1113 3116 1747 
z
M 1159 2969 
Q 1341 3281 1617 3432 
Q 1894 3584 2278 3584 
Q 2916 3584 3314 3078 
Q 3713 2572 3713 1747 
Q 3713 922 3314 415 
Q 2916 -91 2278 -91 
Q 1894 -91 1617 61 
Q 1341 213 1159 525 
L 1159 0 
L 581 0 
L 581 4863 
L 1159 4863 
L 1159 2969 
z
" transform="scale(0.015625)"/>
      <path id="DejaVuSans-29" d="M 513 4856 
L 1013 4856 
Q 1481 4119 1714 3412 
Q 1947 2706 1947 2009 
Q 1947 1309 1714 600 
Q 1481 -109 1013 -844 
L 513 -844 
Q 928 -128 1133 580 
Q 1338 1288 1338 2009 
Q 1338 2731 1133 3434 
Q 928 4138 513 4856 
z
" transform="scale(0.015625)"/>
     </defs>
     <use xlink:href="#DejaVuSans-52"/>
     <use xlink:href="#DejaVuSans-75" transform="translate(64.982422 0)"/>
     <use xlink:href="#DejaVuSans-6e" transform="translate(128.361328 0)"/>
     <use xlink:href="#DejaVuSans-6e" transform="translate(191.740234 0)"/>
     <use xlink:href="#DejaVuSans-69" transform="translate(255.119141 0)"/>
     <use xlink:href="#DejaVuSans-6e" transform="translate(282.902344 0)"/>
     <use xlink:href="#DejaVuSans-67" transform="translate(346.28125 0)"/>
     <use xlink:href="#DejaVuSans-20" transform="translate(409.757812 0)"/>
     <use xlink:href="#DejaVuSans-6d" transform="translate(441.544922 0)"/>
     <use xlink:href="#DejaVuSans-65" transform="translate(538.957031 0)"/>
     <use xlink:href="#DejaVuSans-61" transform="translate(600.480469 0)"/>
     <use xlink:href="#DejaVuSans-6e" transform="translate(661.759766 0)"/>
     <use xlink:href="#DejaVuSans-20" transform="translate(725.138672 0)"/>
     <use xlink:href="#DejaVuSans-2014" transform="translate(756.925781 0)"/>
     <use xlink:href="#DejaVuSans-20" transform="translate(856.925781 0)"/>
     <use xlink:href="#DejaVuSans-73" transform="translate(888.712891 0)"/>
     <use xlink:href="#DejaVuSans-65" transform="translate(940.8125 0)"/>
     <use xlink:href="#DejaVuSans-61" transform="translate(1002.335938 0)"/>
     <use xlink:href="#DejaVuSans-74" transform="translate(1063.615234 0)"/>
     <use xlink:href="#DejaVuSans-73" transform="translate(1102.824219 0)"/>
     <use xlink:href="#DejaVuSans-5f" transform="translate(1154.923828 0)"/>
     <use xlink:href="#DejaVuSans-61" transform="translate(1204.923828 0)"/>
     <use xlink:href="#DejaVuSans-74" transform="translate(1266.203125 0)"/>
     <use xlink:href="#DejaVuSans-5f" transform="translate(1305.412109 0)"/>
     <use xlink:href="#DejaVuSans-35" transform="translate(1355.412109 0)"/>
     <use xlink:href="#DejaVuSans-30" transform="translate(1419.035156 0)"/>
     <use xlink:href="#DejaVuSans-5f" transform="translate(1482.658203 0)"/>
     <use xlink:href="#DejaVuSans-35" transform="translate(1532.658203 0)"/>
     <use xlink:href="#DejaVuSans-30" transform="translate(1596.28125 0)"/>
     <use xlink:href="#DejaVuSans-20" transform="translate(1659.904297 0)"/>
     <use xlink:href="#DejaVuSans-20" transform="translate(1691.691406 0)"/>
     <use xlink:href="#DejaVuSans-28" transform="translate(1723.478516 0)"/>
     <use xlink:href="#DejaVuSans-63" transform="translate(1762.492188 0)"/>
     <use xlink:href="#DejaVuSans-61" transform="translate(1817.472656 0)"/>
     <use xlink:href="#DejaVuSans-6e" transform="translate(1878.751953 0)"/>
     <use xlink:href="#DejaVuSans-6f" transform="translate(1942.130859 0)"/>
     <use xlink:href="#DejaVuSans-6e" transform="translate(2003.3125 0)"/>
     <use xlink:href="#DejaVuSans-69" transform="translate(2066.691406 0)"/>
     <use xlink:href="#DejaVuSans-63" transform="translate(2094.474609 0)"/>
     <use xlink:href="#DejaVuSans-61" transform="translate(2149.455078 0)"/>
     <use xlink:href="#DejaVuSans-6c" transform="translate(2210.734375 0)"/>
     <use xlink:href="#DejaVuSans-20" transform="translate(2238.517578 0)"/>
     <use xlink:href="#DejaVuSans-52" transform="translate(2270.304688 0)"/>
     <use xlink:href="#DejaVuSans-65" transform="translate(2335.287109 0)"/>
     <use xlink:href="#DejaVuSans-43" transform="translate(2396.810547 0)"/>
     <use xlink:href="#DejaVuSans-6f" transform="translate(2466.634766 0)"/>
     <use xlink:href="#DejaVuSans-6d" transform="translate(2527.816406 0)"/>
     <use xlink:href="#DejaVuSans-20" transform="translate(2625.228516 0)"/>
     <use xlink:href="#DejaVuSans-65" transform="translate(2657.015625 0)"/>
     <use xlink:href="#DejaVuSans-6e" transform="translate(2718.539062 0)"/>
     <use xlink:href="#DejaVuSans-73" transform="translate(2781.917969 0)"/>
     <use xlink:href="#DejaVuSans-65" transform="translate(2834.017578 0)"/>
     <use xlink:href="#DejaVuSans-6d" transform="translate(2895.541016 0)"/>
     <use xlink:href="#DejaVuSans-62" transform="translate(2992.953125 0)"/>
     <use xlink:href="#DejaVuSans-6c" transform="translate(3056.429688 0)"/>
     <use xlink:href="#DejaVuSans-65" transform="translate(3084.212891 0)"/>
     <use xlink:href="#DejaVuSans-29" transform="translate(3145.736328 0)"/>
    </g>
   </g>
   <g id="legend_1">
    <g id="patch_7">
     <path d="M 496.306406 277.54 
L 630.9 277.54 
Q 632.7 277.54 632.7 275.74 
L 632.7 263.429688 
Q 632.7 261.629687 630.9 261.629687 
L 496.306406 261.629687 
Q 494.506406 261.629687 494.506406 263.429688 
L 494.506406 275.74 
Q 494.506406 277.54 496.306406 277.54 
z
" style="fill: #ffffff; opacity: 0.8; stroke: #cccccc; stroke-linejoin: miter"/>
    </g>
    <g id="line2d_39">
     <path d="M 498.106406 268.918281 
L 507.106406 268.918281 
L 516.106406 268.918281 
" style="fill: none; stroke-dasharray: 2.96,1.28; stroke-dashoffset: 0; stroke: #888888; stroke-width: 0.8"/>
    </g>
    <g id="text_22">
     <!-- final mean = +0.44867 -->
     <g transform="translate(523.306406 272.068281) scale(0.09 -0.09)">
      <defs>
       <path id="DejaVuSans-3d" d="M 678 2906 
L 4684 2906 
L 4684 2381 
L 678 2381 
L 678 2906 
z
M 678 1631 
L 4684 1631 
L 4684 1100 
L 678 1100 
L 678 1631 
z
" transform="scale(0.015625)"/>
       <path id="DejaVuSans-2b" d="M 2944 4013 
L 2944 2272 
L 4684 2272 
L 4684 1741 
L 2944 1741 
L 2944 0 
L 2419 0 
L 2419 1741 
L 678 1741 
L 678 2272 
L 2419 2272 
L 2419 4013 
L 2944 4013 
z
" transform="scale(0.015625)"/>
      </defs>
      <use xlink:href="#DejaVuSans-66"/>
      <use xlink:href="#DejaVuSans-69" transform="translate(35.205078 0)"/>
      <use xlink:href="#DejaVuSans-6e" transform="translate(62.988281 0)"/>
      <use xlink:href="#DejaVuSans-61" transform="translate(126.367188 0)"/>
      <use xlink:href="#DejaVuSans-6c" transform="translate(187.646484 0)"/>
      <use xlink:href="#DejaVuSans-20" transform="translate(215.429688 0)"/>
      <use xlink:href="#DejaVuSans-6d" transform="translate(247.216797 0)"/>
      <use xlink:href="#DejaVuSans-65" transform="translate(344.628906 0)"/>
      <use xlink:href="#DejaVuSans-61" transform="translate(406.152344 0)"/>
      <use xlink:href="#DejaVuSans-6e" transform="translate(467.431641 0)"/>
      <use xlink:href="#DejaVuSans-20" transform="translate(530.810547 0)"/>
      <use xlink:href="#DejaVuSans-3d" transform="translate(562.597656 0)"/>
      <use xlink:href="#DejaVuSans-20" transform="translate(646.386719 0)"/>
      <use xlink:href="#DejaVuSans-2b" transform="translate(678.173828 0)"/>
      <use xlink:href="#DejaVuSans-30" transform="translate(761.962891 0)"/>
      <use xlink:href="#DejaVuSans-2e" transform="translate(825.585938 0)"/>
      <use xlink:href="#DejaVuSans-34" transform="translate(857.373047 0)"/>
      <use xlink:href="#DejaVuSans-34" transform="translate(920.996094 0)"/>
      <use xlink:href="#DejaVuSans-38" transform="translate(984.619141 0)"/>
      <use xlink:href="#DejaVuSans-36" transform="translate(1048.242188 0)"/>
      <use xlink:href="#DejaVuSans-37" transform="translate(1111.865234 0)"/>
     </g>
    </g>
   </g>
  </g>
 </g>
 <defs>
  <clipPath id="pcf673f739d">
   <rect x="60.42125" y="26.88" width="576.77875" height="255.16"/>
  </clipPath>
 </defs>
</svg>
