<?xml version="1.0" encoding="utf-8" standalone="no"?>
<!DOCTYPE svg PUBLIC "-//W3C//DTD SVG 1.1//EN"
  "http://www.w3.org/Graphics/SVG/1.1/DTD/svg11.dtd">
<svg xmlns:xlink="http://www.w3.org/1999/xlink" width="648pt" height="324pt" viewBox="0 0 648 324" xmlns="http://www.w3.org/2000/svg" version="1.1">
 <metadata>
  <rdf:RDF xmlns:dc="http://purl.org/dc/elements/1.1/" xmlns:cc="http://creativecommons.org/ns#" xmlns:rdf="http://www.w3.org/1999/02/22-rdf-syntax-ns#">
   <cc:Work>
    <dc:type rdf:resource="http://purl.org/dc/dcmitype/StillImage"/>
    <dc:date>2026-05-08T00:08:22.869545</dc:date>
    <dc:format>image/svg+xml</dc:format>
    <dc:creator>
     <cc:Agent>
      <dc:title>Matplotlib v3.10.8, https://matplotlib.org/</dc:title>
     </cc:Agent>
    </dc:creator>
   </cc:Work>
  </rdf:RDF>
 </metadata>
 <defs>
  <style type="text/css">*{stroke-linejoin: round; stroke-linecap: butt}</style>
 </defs>
 <g id="figure_1">
  <g id="patch_1">
   <path d="M 0 324 
L 648 324 
L 648 0 
L 0 0 
z
" style="fill: #ffffff"/>
  </g>
  <g id="axes_1">
   <g id="patch_2">
    <path d="M 66.72125 282.04 
L 637.2 282.04 
L 637.2 26.88 
L 66.72125 26.88 
z
" style="fill: #ffffff"/>
   </g>
   <g id="matplotlib.axis_1">
    <g id="xtick_1">
     <g id="line2d_1">
      <path d="M 92.650028 282.04 
L 92.650028 26.88 
" clip-path="url(#p4444e1e699)" style="fill: none; stroke-dasharray: 0.5,0.825; stroke-dashoffset: 0; stroke: #b0b0b0; stroke-opacity: 0.6; stroke-width: 0.5"/>
     </g>
     <g id="line2d_2">
      <defs>
       <path id="m5d51926e63" d="M 0 0 
L 0 3.5 
" style="stroke: #000000; stroke-width: 0.8"/>
      </defs>
      <g>
       <use xlink:href="#m5d51926e63" x="92.650028" y="282.04" style="stroke: #000000; stroke-width: 0.8"/>
      </g>
     </g>
     <g id="text_1">
      <!-- 0 -->
      <g transform="translate(89.468778 296.638438) scale(0.1 -0.1)">
       <defs>
        <path id="DejaVuSans-30" d="M 2034 4250 
Q 1547 4250 1301 3770 
Q 1056 3291 1056 2328 
Q 1056 1369 1301 889 
Q 1547 409 2034 409 
Q 2525 409 2770 889 
Q 3016 1369 3016 2328 
Q 3016 3291 2770 3770 
Q 2525 4250 2034 4250 
z
M 2034 4750 
Q 2819 4750 3233 4129 
Q 3647 3509 3647 2328 
Q 3647 1150 3233 529 
Q 2819 -91 2034 -91 
Q 1250 -91 836 529 
Q 422 1150 422 2328 
Q 422 3509 836 4129 
Q 1250 4750 2034 4750 
z
" transform="scale(0.015625)"/>
       </defs>
       <use xlink:href="#DejaVuSans-30"/>
      </g>
     </g>
    </g>
    <g id="xtick_2">
     <g id="line2d_3">
      <path d="M 196.373852 282.04 
L 196.373852 26.88 
" clip-path="url(#p4444e1e699)" style="fill: none; stroke-dasharray: 0.5,0.825; stroke-dashoffset: 0; stroke: #b0b0b0; stroke-opacity: 0.6; stroke-width: 0.5"/>
     </g>
     <g id="line2d_4">
      <g>
       <use xlink:href="#m5d51926e63" x="196.373852" y="282.04" style="stroke: #000000; stroke-width: 0.8"/>
      </g>
     </g>
     <g id="text_2">
      <!-- 50000 -->
      <g transform="translate(180.467602 296.638438) scale(0.1 -0.1)">
       <defs>
        <path id="DejaVuSans-35" d="M 691 4666 
L 3169 4666 
L 3169 4134 
L 1269 4134 
L 1269 2991 
Q 1406 3038 1543 3061 
Q 1681 3084 1819 3084 
Q 2600 3084 3056 2656 
Q 3513 2228 3513 1497 
Q 3513 744 3044 326 
Q 2575 -91 1722 -91 
Q 1428 -91 1123 -41 
Q 819 9 494 109 
L 494 744 
Q 775 591 1075 516 
Q 1375 441 1709 441 
Q 2250 441 2565 725 
Q 2881 1009 2881 1497 
Q 2881 1984 2565 2268 
Q 2250 2553 1709 2553 
Q 1456 2553 1204 2497 
Q 953 2441 691 2322 
L 691 4666 
z
" transform="scale(0.015625)"/>
       </defs>
       <use xlink:href="#DejaVuSans-35"/>
       <use xlink:href="#DejaVuSans-30" transform="translate(63.623047 0)"/>
       <use xlink:href="#DejaVuSans-30" transform="translate(127.246094 0)"/>
       <use xlink:href="#DejaVuSans-30" transform="translate(190.869141 0)"/>
       <use xlink:href="#DejaVuSans-30" transform="translate(254.492188 0)"/>
      </g>
     </g>
    </g>
    <g id="xtick_3">
     <g id="line2d_5">
      <path d="M 300.097676 282.04 
L 300.097676 26.88 
" clip-path="url(#p4444e1e699)" style="fill: none; stroke-dasharray: 0.5,0.825; stroke-dashoffset: 0; stroke: #b0b0b0; stroke-opacity: 0.6; stroke-width: 0.5"/>
     </g>
     <g id="line2d_6">
      <g>
       <use xlink:href="#m5d51926e63" x="300.097676" y="282.04" style="stroke: #000000; stroke-width: 0.8"/>
      </g>
     </g>
     <g id="text_3">
      <!-- 100000 -->
      <g transform="translate(281.010176 296.638438) scale(0.1 -0.1)">
       <defs>
        <path id="DejaVuSans-31" d="M 794 531 
L 1825 531 
L 1825 4091 
L 703 3866 
L 703 4441 
L 1819 4666 
L 2450 4666 
L 2450 531 
L 3481 531 
L 3481 0 
L 794 0 
L 794 531 
z
" transform="scale(0.015625)"/>
       </defs>
       <use xlink:href="#DejaVuSans-31"/>
       <use xlink:href="#DejaVuSans-30" transform="translate(63.623047 0)"/>
       <use xlink:href="#DejaVuSans-30" transform="translate(127.246094 0)"/>
       <use xlink:href="#DejaVuSans-30" transform="translate(190.869141 0)"/>
       <use xlink:href="#DejaVuSans-30" transform="translate(254.492188 0)"/>
       <use xlink:href="#DejaVuSans-30" transform="translate(318.115234 0)"/>
      </g>
     </g>
    </g>
    <g id="xtick_4">
     <g id="line2d_7">
      <path d="M 403.8215 282.04 
L 403.8215 26.88 
" clip-path="url(#p4444e1e699)" style="fill: none; stroke-dasharray: 0.5,0.825; stroke-dashoffset: 0; stroke: #b0b0b0; stroke-opacity: 0.6; stroke-width: 0.5"/>
     </g>
     <g id="line2d_8">
      <g>
       <use xlink:href="#m5d51926e63" x="403.8215" y="282.04" style="stroke: #000000; stroke-width: 0.8"/>
      </g>
     </g>
     <g id="text_4">
      <!-- 150000 -->
      <g transform="translate(384.734 296.638438) scale(0.1 -0.1)">
       <use xlink:href="#DejaVuSans-31"/>
       <use xlink:href="#DejaVuSans-35" transform="translate(63.623047 0)"/>
       <use xlink:href="#DejaVuSans-30" transform="translate(127.246094 0)"/>
       <use xlink:href="#DejaVuSans-30" transform="translate(190.869141 0)"/>
       <use xlink:href="#DejaVuSans-30" transform="translate(254.492188 0)"/>
       <use xlink:href="#DejaVuSans-30" transform="translate(318.115234 0)"/>
      </g>
     </g>
    </g>
    <g id="xtick_5">
     <g id="line2d_9">
      <path d="M 507.545324 282.04 
L 507.545324 26.88 
" clip-path="url(#p4444e1e699)" style="fill: none; stroke-dasharray: 0.5,0.825; stroke-dashoffset: 0; stroke: #b0b0b0; stroke-opacity: 0.6; stroke-width: 0.5"/>
     </g>
     <g id="line2d_10">
      <g>
       <use xlink:href="#m5d51926e63" x="507.545324" y="282.04" style="stroke: #000000; stroke-width: 0.8"/>
      </g>
     </g>
     <g id="text_5">
      <!-- 200000 -->
      <g transform="translate(488.457824 296.638438) scale(0.1 -0.1)">
       <defs>
        <path id="DejaVuSans-32" d="M 1228 531 
L 3431 531 
L 3431 0 
L 469 0 
L 469 531 
Q 828 903 1448 1529 
Q 2069 2156 2228 2338 
Q 2531 2678 2651 2914 
Q 2772 3150 2772 3378 
Q 2772 3750 2511 3984 
Q 2250 4219 1831 4219 
Q 1534 4219 1204 4116 
Q 875 4013 500 3803 
L 500 4441 
Q 881 4594 1212 4672 
Q 1544 4750 1819 4750 
Q 2544 4750 2975 4387 
Q 3406 4025 3406 3419 
Q 3406 3131 3298 2873 
Q 3191 2616 2906 2266 
Q 2828 2175 2409 1742 
Q 1991 1309 1228 531 
z
" transform="scale(0.015625)"/>
       </defs>
       <use xlink:href="#DejaVuSans-32"/>
       <use xlink:href="#DejaVuSans-30" transform="translate(63.623047 0)"/>
       <use xlink:href="#DejaVuSans-30" transform="translate(127.246094 0)"/>
       <use xlink:href="#DejaVuSans-30" transform="translate(190.869141 0)"/>
       <use xlink:href="#DejaVuSans-30" transform="translate(254.492188 0)"/>
       <use xlink:href="#DejaVuSans-30" transform="translate(318.115234 0)"/>
      </g>
     </g>
    </g>
    <g id="xtick_6">
     <g id="line2d_11">
      <path d="M 611.269148 282.04 
L 611.269148 26.88 
" clip-path="url(#p4444e1e699)" style="fill: none; stroke-dasharray: 0.5,0.825; stroke-dashoffset: 0; stroke: #b0b0b0; stroke-opacity: 0.6; stroke-width: 0.5"/>
     </g>
     <g id="line2d_12">
      <g>
       <use xlink:href="#m5d51926e63" x="611.269148" y="282.04" style="stroke: #000000; stroke-width: 0.8"/>
      </g>
     </g>
     <g id="text_6">
      <!-- 250000 -->
      <g transform="translate(592.181648 296.638438) scale(0.1 -0.1)">
       <use xlink:href="#DejaVuSans-32"/>
       <use xlink:href="#DejaVuSans-35" transform="translate(63.623047 0)"/>
       <use xlink:href="#DejaVuSans-30" transform="translate(127.246094 0)"/>
       <use xlink:href="#DejaVuSans-30" transform="translate(190.869141 0)"/>
       <use xlink:href="#DejaVuSans-30" transform="translate(254.492188 0)"/>
       <use xlink:href="#DejaVuSans-30" transform="translate(318.115234 0)"/>
      </g>
     </g>
    </g>
    <g id="text_7">
     <!-- Sample index -->
     <g transform="translate(317.942656 310.316563) scale(0.1 -0.1)">
      <defs>
       <path id="DejaVuSans-53" d="M 3425 4513 
L 3425 3897 
Q 3066 4069 2747 4153 
Q 2428 4238 2131 4238 
Q 1616 4238 1336 4038 
Q 1056 3838 1056 3469 
Q 1056 3159 1242 3001 
Q 1428 2844 1947 2747 
L 2328 2669 
Q 3034 2534 3370 2195 
Q 3706 1856 3706 1288 
Q 3706 609 3251 259 
Q 2797 -91 1919 -91 
Q 1588 -91 1214 -16 
Q 841 59 441 206 
L 441 856 
Q 825 641 1194 531 
Q 1563 422 1919 422 
Q 2459 422 2753 634 
Q 3047 847 3047 1241 
Q 3047 1584 2836 1778 
Q 2625 1972 2144 2069 
L 1759 2144 
Q 1053 2284 737 2584 
Q 422 2884 422 3419 
Q 422 4038 858 4394 
Q 1294 4750 2059 4750 
Q 2388 4750 2728 4690 
Q 3069 4631 3425 4513 
z
" transform="scale(0.015625)"/>
       <path id="DejaVuSans-61" d="M 2194 1759 
Q 1497 1759 1228 1600 
Q 959 1441 959 1056 
Q 959 750 1161 570 
Q 1363 391 1709 391 
Q 2188 391 2477 730 
Q 2766 1069 2766 1631 
L 2766 1759 
L 2194 1759 
z
M 3341 1997 
L 3341 0 
L 2766 0 
L 2766 531 
Q 2569 213 2275 61 
Q 1981 -91 1556 -91 
Q 1019 -91 701 211 
Q 384 513 384 1019 
Q 384 1609 779 1909 
Q 1175 2209 1959 2209 
L 2766 2209 
L 2766 2266 
Q 2766 2663 2505 2880 
Q 2244 3097 1772 3097 
Q 1472 3097 1187 3025 
Q 903 2953 641 2809 
L 641 3341 
Q 956 3463 1253 3523 
Q 1550 3584 1831 3584 
Q 2591 3584 2966 3190 
Q 3341 2797 3341 1997 
z
" transform="scale(0.015625)"/>
       <path id="DejaVuSans-6d" d="M 3328 2828 
Q 3544 3216 3844 3400 
Q 4144 3584 4550 3584 
Q 5097 3584 5394 3201 
Q 5691 2819 5691 2113 
L 5691 0 
L 5113 0 
L 5113 2094 
Q 5113 2597 4934 2840 
Q 4756 3084 4391 3084 
Q 3944 3084 3684 2787 
Q 3425 2491 3425 1978 
L 3425 0 
L 2847 0 
L 2847 2094 
Q 2847 2600 2669 2842 
Q 2491 3084 2119 3084 
Q 1678 3084 1418 2786 
Q 1159 2488 1159 1978 
L 1159 0 
L 581 0 
L 581 3500 
L 1159 3500 
L 1159 2956 
Q 1356 3278 1631 3431 
Q 1906 3584 2284 3584 
Q 2666 3584 2933 3390 
Q 3200 3197 3328 2828 
z
" transform="scale(0.015625)"/>
       <path id="DejaVuSans-70" d="M 1159 525 
L 1159 -1331 
L 581 -1331 
L 581 3500 
L 1159 3500 
L 1159 2969 
Q 1341 3281 1617 3432 
Q 1894 3584 2278 3584 
Q 2916 3584 3314 3078 
Q 3713 2572 3713 1747 
Q 3713 922 3314 415 
Q 2916 -91 2278 -91 
Q 1894 -91 1617 61 
Q 1341 213 1159 525 
z
M 3116 1747 
Q 3116 2381 2855 2742 
Q 2594 3103 2138 3103 
Q 1681 3103 1420 2742 
Q 1159 2381 1159 1747 
Q 1159 1113 1420 752 
Q 1681 391 2138 391 
Q 2594 391 2855 752 
Q 3116 1113 3116 1747 
z
" transform="scale(0.015625)"/>
       <path id="DejaVuSans-6c" d="M 603 4863 
L 1178 4863 
L 1178 0 
L 603 0 
L 603 4863 
z
" transform="scale(0.015625)"/>
       <path id="DejaVuSans-65" d="M 3597 1894 
L 3597 1613 
L 953 1613 
Q 991 1019 1311 708 
Q 1631 397 2203 397 
Q 2534 397 2845 478 
Q 3156 559 3463 722 
L 3463 178 
Q 3153 47 2828 -22 
Q 2503 -91 2169 -91 
Q 1331 -91 842 396 
Q 353 884 353 1716 
Q 353 2575 817 3079 
Q 1281 3584 2069 3584 
Q 2775 3584 3186 3129 
Q 3597 2675 3597 1894 
z
M 3022 2063 
Q 3016 2534 2758 2815 
Q 2500 3097 2075 3097 
Q 1594 3097 1305 2825 
Q 1016 2553 972 2059 
L 3022 2063 
z
" transform="scale(0.015625)"/>
       <path id="DejaVuSans-20" transform="scale(0.015625)"/>
       <path id="DejaVuSans-69" d="M 603 3500 
L 1178 3500 
L 1178 0 
L 603 0 
L 603 3500 
z
M 603 4863 
L 1178 4863 
L 1178 4134 
L 603 4134 
L 603 4863 
z
" transform="scale(0.015625)"/>
       <path id="DejaVuSans-6e" d="M 3513 2113 
L 3513 0 
L 2938 0 
L 2938 2094 
Q 2938 2591 2744 2837 
Q 2550 3084 2163 3084 
Q 1697 3084 1428 2787 
Q 1159 2491 1159 1978 
L 1159 0 
L 581 0 
L 581 3500 
L 1159 3500 
L 1159 2956 
Q 1366 3272 1645 3428 
Q 1925 3584 2291 3584 
Q 2894 3584 3203 3211 
Q 3513 2838 3513 2113 
z
" transform="scale(0.015625)"/>
       <path id="DejaVuSans-64" d="M 2906 2969 
L 2906 4863 
L 3481 4863 
L 3481 0 
L 2906 0 
L 2906 525 
Q 2725 213 2448 61 
Q 2172 -91 1784 -91 
Q 1150 -91 751 415 
Q 353 922 353 1747 
Q 353 2572 751 3078 
Q 1150 3584 1784 3584 
Q 2172 3584 2448 3432 
Q 2725 3281 2906 2969 
z
M 947 1747 
Q 947 1113 1208 752 
Q 1469 391 1925 391 
Q 2381 391 2643 752 
Q 2906 1113 2906 1747 
Q 2906 2381 2643 2742 
Q 2381 3103 1925 3103 
Q 1469 3103 1208 2742 
Q 947 2381 947 1747 
z
" transform="scale(0.015625)"/>
       <path id="DejaVuSans-78" d="M 3513 3500 
L 2247 1797 
L 3578 0 
L 2900 0 
L 1881 1375 
L 863 0 
L 184 0 
L 1544 1831 
L 300 3500 
L 978 3500 
L 1906 2253 
L 2834 3500 
L 3513 3500 
z
" transform="scale(0.015625)"/>
      </defs>
      <use xlink:href="#DejaVuSans-53"/>
      <use xlink:href="#DejaVuSans-61" transform="translate(63.476562 0)"/>
      <use xlink:href="#DejaVuSans-6d" transform="translate(124.755859 0)"/>
      <use xlink:href="#DejaVuSans-70" transform="translate(222.167969 0)"/>
      <use xlink:href="#DejaVuSans-6c" transform="translate(285.644531 0)"/>
      <use xlink:href="#DejaVuSans-65" transform="translate(313.427734 0)"/>
      <use xlink:href="#DejaVuSans-20" transform="translate(374.951172 0)"/>
      <use xlink:href="#DejaVuSans-69" transform="translate(406.738281 0)"/>
      <use xlink:href="#DejaVuSans-6e" transform="translate(434.521484 0)"/>
      <use xlink:href="#DejaVuSans-64" transform="translate(497.900391 0)"/>
      <use xlink:href="#DejaVuSans-65" transform="translate(561.376953 0)"/>
      <use xlink:href="#DejaVuSans-78" transform="translate(621.150391 0)"/>
     </g>
    </g>
   </g>
   <g id="matplotlib.axis_2">
    <g id="ytick_1">
     <g id="line2d_13">
      <path d="M 66.72125 278.492453 
L 637.2 278.492453 
" clip-path="url(#p4444e1e699)" style="fill: none; stroke-dasharray: 0.5,0.825; stroke-dashoffset: 0; stroke: #b0b0b0; stroke-opacity: 0.6; stroke-width: 0.5"/>
     </g>
     <g id="line2d_14">
      <defs>
       <path id="m07e3009f52" d="M 0 0 
L -3.5 0 
" style="stroke: #000000; stroke-width: 0.8"/>
      </defs>
      <g>
       <use xlink:href="#m07e3009f52" x="66.72125" y="278.492453" style="stroke: #000000; stroke-width: 0.8"/>
      </g>
     </g>
     <g id="text_8">
      <!-- 0.0050 -->
      <g transform="translate(24.730625 282.291672) scale(0.1 -0.1)">
       <defs>
        <path id="DejaVuSans-2e" d="M 684 794 
L 1344 794 
L 1344 0 
L 684 0 
L 684 794 
z
" transform="scale(0.015625)"/>
       </defs>
       <use xlink:href="#DejaVuSans-30"/>
       <use xlink:href="#DejaVuSans-2e" transform="translate(63.623047 0)"/>
       <use xlink:href="#DejaVuSans-30" transform="translate(95.410156 0)"/>
       <use xlink:href="#DejaVuSans-30" transform="translate(159.033203 0)"/>
       <use xlink:href="#DejaVuSans-35" transform="translate(222.65625 0)"/>
       <use xlink:href="#DejaVuSans-30" transform="translate(286.279297 0)"/>
      </g>
     </g>
    </g>
    <g id="ytick_2">
     <g id="line2d_15">
      <path d="M 66.72125 243.844135 
L 637.2 243.844135 
" clip-path="url(#p4444e1e699)" style="fill: none; stroke-dasharray: 0.5,0.825; stroke-dashoffset: 0; stroke: #b0b0b0; stroke-opacity: 0.6; stroke-width: 0.5"/>
     </g>
     <g id="line2d_16">
      <g>
       <use xlink:href="#m07e3009f52" x="66.72125" y="243.844135" style="stroke: #000000; stroke-width: 0.8"/>
      </g>
     </g>
     <g id="text_9">
      <!-- 0.0075 -->
      <g transform="translate(24.730625 247.643354) scale(0.1 -0.1)">
       <defs>
        <path id="DejaVuSans-37" d="M 525 4666 
L 3525 4666 
L 3525 4397 
L 1831 0 
L 1172 0 
L 2766 4134 
L 525 4134 
L 525 4666 
z
" transform="scale(0.015625)"/>
       </defs>
       <use xlink:href="#DejaVuSans-30"/>
       <use xlink:href="#DejaVuSans-2e" transform="translate(63.623047 0)"/>
       <use xlink:href="#DejaVuSans-30" transform="translate(95.410156 0)"/>
       <use xlink:href="#DejaVuSans-30" transform="translate(159.033203 0)"/>
       <use xlink:href="#DejaVuSans-37" transform="translate(222.65625 0)"/>
       <use xlink:href="#DejaVuSans-35" transform="translate(286.279297 0)"/>
      </g>
     </g>
    </g>
    <g id="ytick_3">
     <g id="line2d_17">
      <path d="M 66.72125 209.195818 
L 637.2 209.195818 
" clip-path="url(#p4444e1e699)" style="fill: none; stroke-dasharray: 0.5,0.825; stroke-dashoffset: 0; stroke: #b0b0b0; stroke-opacity: 0.6; stroke-width: 0.5"/>
     </g>
     <g id="line2d_18">
      <g>
       <use xlink:href="#m07e3009f52" x="66.72125" y="209.195818" style="stroke: #000000; stroke-width: 0.8"/>
      </g>
     </g>
     <g id="text_10">
      <!-- 0.0100 -->
      <g transform="translate(24.730625 212.995036) scale(0.1 -0.1)">
       <use xlink:href="#DejaVuSans-30"/>
       <use xlink:href="#DejaVuSans-2e" transform="translate(63.623047 0)"/>
       <use xlink:href="#DejaVuSans-30" transform="translate(95.410156 0)"/>
       <use xlink:href="#DejaVuSans-31" transform="translate(159.033203 0)"/>
       <use xlink:href="#DejaVuSans-30" transform="translate(222.65625 0)"/>
       <use xlink:href="#DejaVuSans-30" transform="translate(286.279297 0)"/>
      </g>
     </g>
    </g>
    <g id="ytick_4">
     <g id="line2d_19">
      <path d="M 66.72125 174.5475 
L 637.2 174.5475 
" clip-path="url(#p4444e1e699)" style="fill: none; stroke-dasharray: 0.5,0.825; stroke-dashoffset: 0; stroke: #b0b0b0; stroke-opacity: 0.6; stroke-width: 0.5"/>
     </g>
     <g id="line2d_20">
      <g>
       <use xlink:href="#m07e3009f52" x="66.72125" y="174.5475" style="stroke: #000000; stroke-width: 0.8"/>
      </g>
     </g>
     <g id="text_11">
      <!-- 0.0125 -->
      <g transform="translate(24.730625 178.346719) scale(0.1 -0.1)">
       <use xlink:href="#DejaVuSans-30"/>
       <use xlink:href="#DejaVuSans-2e" transform="translate(63.623047 0)"/>
       <use xlink:href="#DejaVuSans-30" transform="translate(95.410156 0)"/>
       <use xlink:href="#DejaVuSans-31" transform="translate(159.033203 0)"/>
       <use xlink:href="#DejaVuSans-32" transform="translate(222.65625 0)"/>
       <use xlink:href="#DejaVuSans-35" transform="translate(286.279297 0)"/>
      </g>
     </g>
    </g>
    <g id="ytick_5">
     <g id="line2d_21">
      <path d="M 66.72125 139.899182 
L 637.2 139.899182 
" clip-path="url(#p4444e1e699)" style="fill: none; stroke-dasharray: 0.5,0.825; stroke-dashoffset: 0; stroke: #b0b0b0; stroke-opacity: 0.6; stroke-width: 0.5"/>
     </g>
     <g id="line2d_22">
      <g>
       <use xlink:href="#m07e3009f52" x="66.72125" y="139.899182" style="stroke: #000000; stroke-width: 0.8"/>
      </g>
     </g>
     <g id="text_12">
      <!-- 0.0150 -->
      <g transform="translate(24.730625 143.698401) scale(0.1 -0.1)">
       <use xlink:href="#DejaVuSans-30"/>
       <use xlink:href="#DejaVuSans-2e" transform="translate(63.623047 0)"/>
       <use xlink:href="#DejaVuSans-30" transform="translate(95.410156 0)"/>
       <use xlink:href="#DejaVuSans-31" transform="translate(159.033203 0)"/>
       <use xlink:href="#DejaVuSans-35" transform="translate(222.65625 0)"/>
       <use xlink:href="#DejaVuSans-30" transform="translate(286.279297 0)"/>
      </g>
     </g>
    </g>
    <g id="ytick_6">
     <g id="line2d_23">
      <path d="M 66.72125 105.250864 
L 637.2 105.250864 
" clip-path="url(#p4444e1e699)" style="fill: none; stroke-dasharray: 0.5,0.825; stroke-dashoffset: 0; stroke: #b0b0b0; stroke-opacity: 0.6; stroke-width: 0.5"/>
     </g>
     <g id="line2d_24">
      <g>
       <use xlink:href="#m07e3009f52" x="66.72125" y="105.250864" style="stroke: #000000; stroke-width: 0.8"/>
      </g>
     </g>
     <g id="text_13">
      <!-- 0.0175 -->
      <g transform="translate(24.730625 109.050083) scale(0.1 -0.1)">
       <use xlink:href="#DejaVuSans-30"/>
       <use xlink:href="#DejaVuSans-2e" transform="translate(63.623047 0)"/>
       <use xlink:href="#DejaVuSans-30" transform="translate(95.410156 0)"/>
       <use xlink:href="#DejaVuSans-31" transform="translate(159.033203 0)"/>
       <use xlink:href="#DejaVuSans-37" transform="translate(222.65625 0)"/>
       <use xlink:href="#DejaVuSans-35" transform="translate(286.279297 0)"/>
      </g>
     </g>
    </g>
    <g id="ytick_7">
     <g id="line2d_25">
      <path d="M 66.72125 70.602546 
L 637.2 70.602546 
" clip-path="url(#p4444e1e699)" style="fill: none; stroke-dasharray: 0.5,0.825; stroke-dashoffset: 0; stroke: #b0b0b0; stroke-opacity: 0.6; stroke-width: 0.5"/>
     </g>
     <g id="line2d_26">
      <g>
       <use xlink:href="#m07e3009f52" x="66.72125" y="70.602546" style="stroke: #000000; stroke-width: 0.8"/>
      </g>
     </g>
     <g id="text_14">
      <!-- 0.0200 -->
      <g transform="translate(24.730625 74.401765) scale(0.1 -0.1)">
       <use xlink:href="#DejaVuSans-30"/>
       <use xlink:href="#DejaVuSans-2e" transform="translate(63.623047 0)"/>
       <use xlink:href="#DejaVuSans-30" transform="translate(95.410156 0)"/>
       <use xlink:href="#DejaVuSans-32" transform="translate(159.033203 0)"/>
       <use xlink:href="#DejaVuSans-30" transform="translate(222.65625 0)"/>
       <use xlink:href="#DejaVuSans-30" transform="translate(286.279297 0)"/>
      </g>
     </g>
    </g>
    <g id="ytick_8">
     <g id="line2d_27">
      <path d="M 66.72125 35.954229 
L 637.2 35.954229 
" clip-path="url(#p4444e1e699)" style="fill: none; stroke-dasharray: 0.5,0.825; stroke-dashoffset: 0; stroke: #b0b0b0; stroke-opacity: 0.6; stroke-width: 0.5"/>
     </g>
     <g id="line2d_28">
      <g>
       <use xlink:href="#m07e3009f52" x="66.72125" y="35.954229" style="stroke: #000000; stroke-width: 0.8"/>
      </g>
     </g>
     <g id="text_15">
      <!-- 0.0225 -->
      <g transform="translate(24.730625 39.753447) scale(0.1 -0.1)">
       <use xlink:href="#DejaVuSans-30"/>
       <use xlink:href="#DejaVuSans-2e" transform="translate(63.623047 0)"/>
       <use xlink:href="#DejaVuSans-30" transform="translate(95.410156 0)"/>
       <use xlink:href="#DejaVuSans-32" transform="translate(159.033203 0)"/>
       <use xlink:href="#DejaVuSans-32" transform="translate(222.65625 0)"/>
       <use xlink:href="#DejaVuSans-35" transform="translate(286.279297 0)"/>
      </g>
     </g>
    </g>
    <g id="text_16">
     <!-- Running mean of efficiency_gap -->
     <g transform="translate(18.372813 234.704531) rotate(-90) scale(0.1 -0.1)">
      <defs>
       <path id="DejaVuSans-52" d="M 2841 2188 
Q 3044 2119 3236 1894 
Q 3428 1669 3622 1275 
L 4263 0 
L 3584 0 
L 2988 1197 
Q 2756 1666 2539 1819 
Q 2322 1972 1947 1972 
L 1259 1972 
L 1259 0 
L 628 0 
L 628 4666 
L 2053 4666 
Q 2853 4666 3247 4331 
Q 3641 3997 3641 3322 
Q 3641 2881 3436 2590 
Q 3231 2300 2841 2188 
z
M 1259 4147 
L 1259 2491 
L 2053 2491 
Q 2509 2491 2742 2702 
Q 2975 2913 2975 3322 
Q 2975 3731 2742 3939 
Q 2509 4147 2053 4147 
L 1259 4147 
z
" transform="scale(0.015625)"/>
       <path id="DejaVuSans-75" d="M 544 1381 
L 544 3500 
L 1119 3500 
L 1119 1403 
Q 1119 906 1312 657 
Q 1506 409 1894 409 
Q 2359 409 2629 706 
Q 2900 1003 2900 1516 
L 2900 3500 
L 3475 3500 
L 3475 0 
L 2900 0 
L 2900 538 
Q 2691 219 2414 64 
Q 2138 -91 1772 -91 
Q 1169 -91 856 284 
Q 544 659 544 1381 
z
M 1991 3584 
L 1991 3584 
z
" transform="scale(0.015625)"/>
       <path id="DejaVuSans-67" d="M 2906 1791 
Q 2906 2416 2648 2759 
Q 2391 3103 1925 3103 
Q 1463 3103 1205 2759 
Q 947 2416 947 1791 
Q 947 1169 1205 825 
Q 1463 481 1925 481 
Q 2391 481 2648 825 
Q 2906 1169 2906 1791 
z
M 3481 434 
Q 3481 -459 3084 -895 
Q 2688 -1331 1869 -1331 
Q 1566 -1331 1297 -1286 
Q 1028 -1241 775 -1147 
L 775 -588 
Q 1028 -725 1275 -790 
Q 1522 -856 1778 -856 
Q 2344 -856 2625 -561 
Q 2906 -266 2906 331 
L 2906 616 
Q 2728 306 2450 153 
Q 2172 0 1784 0 
Q 1141 0 747 490 
Q 353 981 353 1791 
Q 353 2603 747 3093 
Q 1141 3584 1784 3584 
Q 2172 3584 2450 3431 
Q 2728 3278 2906 2969 
L 2906 3500 
L 3481 3500 
L 3481 434 
z
" transform="scale(0.015625)"/>
       <path id="DejaVuSans-6f" d="M 1959 3097 
Q 1497 3097 1228 2736 
Q 959 2375 959 1747 
Q 959 1119 1226 758 
Q 1494 397 1959 397 
Q 2419 397 2687 759 
Q 2956 1122 2956 1747 
Q 2956 2369 2687 2733 
Q 2419 3097 1959 3097 
z
M 1959 3584 
Q 2709 3584 3137 3096 
Q 3566 2609 3566 1747 
Q 3566 888 3137 398 
Q 2709 -91 1959 -91 
Q 1206 -91 779 398 
Q 353 888 353 1747 
Q 353 2609 779 3096 
Q 1206 3584 1959 3584 
z
" transform="scale(0.015625)"/>
       <path id="DejaVuSans-66" d="M 2375 4863 
L 2375 4384 
L 1825 4384 
Q 1516 4384 1395 4259 
Q 1275 4134 1275 3809 
L 1275 3500 
L 2222 3500 
L 2222 3053 
L 1275 3053 
L 1275 0 
L 697 0 
L 697 3053 
L 147 3053 
L 147 3500 
L 697 3500 
L 697 3744 
Q 697 4328 969 4595 
Q 1241 4863 1831 4863 
L 2375 4863 
z
" transform="scale(0.015625)"/>
       <path id="DejaVuSans-63" d="M 3122 3366 
L 3122 2828 
Q 2878 2963 2633 3030 
Q 2388 3097 2138 3097 
Q 1578 3097 1268 2742 
Q 959 2388 959 1747 
Q 959 1106 1268 751 
Q 1578 397 2138 397 
Q 2388 397 2633 464 
Q 2878 531 3122 666 
L 3122 134 
Q 2881 22 2623 -34 
Q 2366 -91 2075 -91 
Q 1284 -91 818 406 
Q 353 903 353 1747 
Q 353 2603 823 3093 
Q 1294 3584 2113 3584 
Q 2378 3584 2631 3529 
Q 2884 3475 3122 3366 
z
" transform="scale(0.015625)"/>
       <path id="DejaVuSans-79" d="M 2059 -325 
Q 1816 -950 1584 -1140 
Q 1353 -1331 966 -1331 
L 506 -1331 
L 506 -850 
L 844 -850 
Q 1081 -850 1212 -737 
Q 1344 -625 1503 -206 
L 1606 56 
L 191 3500 
L 800 3500 
L 1894 763 
L 2988 3500 
L 3597 3500 
L 2059 -325 
z
" transform="scale(0.015625)"/>
       <path id="DejaVuSans-5f" d="M 3263 -1063 
L 3263 -1509 
L -63 -1509 
L -63 -1063 
L 3263 -1063 
z
" transform="scale(0.015625)"/>
      </defs>
      <use xlink:href="#DejaVuSans-52"/>
      <use xlink:href="#DejaVuSans-75" transform="translate(64.982422 0)"/>
      <use xlink:href="#DejaVuSans-6e" transform="translate(128.361328 0)"/>
      <use xlink:href="#DejaVuSans-6e" transform="translate(191.740234 0)"/>
      <use xlink:href="#DejaVuSans-69" transform="translate(255.119141 0)"/>
      <use xlink:href="#DejaVuSans-6e" transform="translate(282.902344 0)"/>
      <use xlink:href="#DejaVuSans-67" transform="translate(346.28125 0)"/>
      <use xlink:href="#DejaVuSans-20" transform="translate(409.757812 0)"/>
      <use xlink:href="#DejaVuSans-6d" transform="translate(441.544922 0)"/>
      <use xlink:href="#DejaVuSans-65" transform="translate(538.957031 0)"/>
      <use xlink:href="#DejaVuSans-61" transform="translate(600.480469 0)"/>
      <use xlink:href="#DejaVuSans-6e" transform="translate(661.759766 0)"/>
      <use xlink:href="#DejaVuSans-20" transform="translate(725.138672 0)"/>
      <use xlink:href="#DejaVuSans-6f" transform="translate(756.925781 0)"/>
      <use xlink:href="#DejaVuSans-66" transform="translate(818.107422 0)"/>
      <use xlink:href="#DejaVuSans-20" transform="translate(853.3125 0)"/>
      <use xlink:href="#DejaVuSans-65" transform="translate(885.099609 0)"/>
      <use xlink:href="#DejaVuSans-66" transform="translate(946.623047 0)"/>
      <use xlink:href="#DejaVuSans-66" transform="translate(981.828125 0)"/>
      <use xlink:href="#DejaVuSans-69" transform="translate(1017.033203 0)"/>
      <use xlink:href="#DejaVuSans-63" transform="translate(1044.816406 0)"/>
      <use xlink:href="#DejaVuSans-69" transform="translate(1099.796875 0)"/>
      <use xlink:href="#DejaVuSans-65" transform="translate(1127.580078 0)"/>
      <use xlink:href="#DejaVuSans-6e" transform="translate(1189.103516 0)"/>
      <use xlink:href="#DejaVuSans-63" transform="translate(1252.482422 0)"/>
      <use xlink:href="#DejaVuSans-79" transform="translate(1307.462891 0)"/>
      <use xlink:href="#DejaVuSans-5f" transform="translate(1366.642578 0)"/>
      <use xlink:href="#DejaVuSans-67" transform="translate(1416.642578 0)"/>
      <use xlink:href="#DejaVuSans-61" transform="translate(1480.119141 0)"/>
      <use xlink:href="#DejaVuSans-70" transform="translate(1541.398438 0)"/>
     </g>
    </g>
   </g>
   <g id="line2d_29">
    <path d="M 92.652102 69.366021 
L 92.656251 69.366021 
L 92.681145 62.050636 
L 92.726783 74.206227 
L 92.764124 70.243446 
L 92.768273 77.257361 
L 92.867848 60.247745 
L 93.027583 38.478182 
L 93.056625 47.379602 
L 93.523382 165.440313 
L 93.560723 164.969786 
L 93.622957 164.506534 
L 93.649925 165.180354 
L 93.693489 168.767771 
L 93.836628 197.278699 
L 93.898863 190.587614 
L 93.921682 187.931942 
L 93.965246 195.553287 
L 94.199662 223.778895 
L 94.224555 222.092845 
L 94.446524 206.063907 
L 94.461046 206.335843 
L 94.595887 209.663106 
L 94.639451 207.640289 
L 94.6436 207.453564 
L 94.68094 210.605512 
L 94.807483 217.65641 
L 94.844824 215.985777 
L 95.052272 200.269263 
L 95.243123 192.470046 
L 95.475465 178.532236 
L 95.585412 182.328845 
L 96.421426 241.78122 
L 96.442171 240.723923 
L 96.489884 239.834987 
L 96.539671 241.368673 
L 96.647544 244.083787 
L 96.722225 243.599888 
L 96.726374 243.515981 
L 96.78031 244.597248 
L 97.018875 251.500032 
L 97.15994 256.27822 
L 97.263663 262.042951 
L 97.388132 261.463154 
L 97.4151 261.638132 
L 97.701378 270.441818 
L 97.747017 269.903334 
L 97.821698 270.016921 
L 97.898453 267.439683 
L 98.234518 257.747948 
L 98.271859 256.640681 
L 98.738616 240.064976 
L 98.778031 240.990831 
L 98.821595 241.886528 
L 98.867234 240.46524 
L 99.184629 232.035617 
L 99.516545 220.035031 
L 100.001972 209.554785 
L 100.377453 193.758639 
L 100.441761 193.121132 
L 100.960381 185.299692 
L 101.022615 185.924508 
L 101.120115 186.734193 
L 101.149158 186.262408 
L 101.190647 185.616789 
L 101.248733 186.412501 
L 101.304744 187.38602 
L 101.356606 186.371019 
L 101.628362 178.162108 
L 101.700969 178.390775 
L 101.856554 179.187183 
L 101.962353 181.436394 
L 102.088896 181.122461 
L 102.184322 181.318112 
L 102.234109 180.480528 
L 102.36895 179.276942 
L 102.393844 179.841062 
L 102.441557 180.368766 
L 102.50794 179.9616 
L 102.761026 177.234523 
L 102.769324 177.315114 
L 102.806665 177.676144 
L 102.860601 177.131098 
L 103.072198 175.437965 
L 103.126134 175.51713 
L 103.165549 175.586749 
L 103.177996 175.439006 
L 103.445603 173.587321 
L 103.516136 172.973992 
L 103.601189 173.181814 
L 103.688317 173.793839 
L 103.955925 176.303608 
L 103.989116 176.444513 
L 104.829279 187.727883 
L 104.847949 187.499251 
L 104.879067 187.115362 
L 104.933003 187.809432 
L 105.161195 192.930679 
L 105.372792 195.163937 
L 105.403909 195.434472 
L 105.706783 198.618852 
L 105.777315 198.596989 
L 105.802209 198.544049 
L 106.003433 198.376838 
L 106.190136 197.952796 
L 106.27104 198.190283 
L 106.445296 198.250084 
L 106.582212 198.140414 
L 106.598808 198.26973 
L 106.607106 198.302985 
L 106.636148 197.965821 
L 107.042746 194.56274 
L 107.839345 188.768995 
L 107.841419 188.753109 
L 107.89743 189.135651 
L 108.204452 193.899523 
L 108.266687 193.17026 
L 108.387006 192.644918 
L 108.447166 192.864125 
L 108.789455 194.156994 
L 108.812274 194.008398 
L 109.507224 190.2243 
L 109.511373 190.254324 
L 109.515522 190.284333 
L 109.559086 189.835096 
L 109.803874 187.404129 
L 109.893076 187.477774 
L 110.092226 187.605202 
L 110.096375 187.571358 
L 110.262333 186.300615 
L 110.339089 186.504116 
L 110.490526 186.968835 
L 110.53409 186.707723 
L 110.890899 185.209643 
L 110.951059 185.155378 
L 110.967655 185.275083 
L 111.133613 185.673762 
L 111.324465 186.171901 
L 111.718616 189.28573 
L 111.751807 189.061632 
L 111.936436 188.573049 
L 112.158405 186.873785 
L 112.239309 186.553413 
L 112.280799 186.78131 
L 112.293246 186.746246 
L 112.322288 186.970522 
L 112.386597 187.250957 
L 112.432236 186.979107 
L 112.465427 186.844633 
L 112.529736 187.05059 
L 112.579523 187.2327 
L 112.654204 187.086888 
L 112.764152 186.885831 
L 112.807716 187.004877 
L 112.836758 187.088993 
L 112.884471 186.90233 
L 113.089845 185.324133 
L 113.224686 184.868525 
L 113.243356 184.895996 
L 113.295218 185.165236 
L 113.461176 187.491288 
L 113.888518 192.665792 
L 113.94038 192.179146 
L 114.461074 188.243495 
L 114.463148 188.252138 
L 114.517084 188.617208 
L 114.587617 188.305904 
L 114.788841 187.050465 
L 114.828256 187.445357 
L 115.131129 189.700912 
L 115.135278 189.71227 
L 115.180917 189.52284 
L 115.268045 188.738559 
L 115.72443 185.226509 
L 115.738951 185.257077 
L 115.776292 185.576434 
L 115.936026 187.52754 
L 115.977516 187.30549 
L 116.222304 185.831599 
L 116.39656 184.341529 
L 116.593635 182.211574 
L 116.618529 182.303379 
L 116.809381 182.937443 
L 116.852945 182.752443 
L 116.859168 182.733179 
L 116.925552 182.882214 
L 117.126776 183.771145 
L 117.276138 184.195443 
L 117.284436 184.148643 
L 117.761566 180.273602 
L 118.012577 177.757636 
L 118.02295 177.765374 
L 118.12045 178.018871 
L 118.263589 178.317335 
L 118.286408 178.299174 
L 118.423324 178.052032 
L 118.587207 175.825718 
L 118.775985 173.979105 
L 118.842368 174.308441 
L 119.024922 175.375995 
L 119.126571 175.145411 
L 119.246891 174.295062 
L 119.323646 174.457106 
L 119.327795 174.46561 
L 119.360987 174.289699 
L 119.396253 174.223797 
L 119.462636 174.364482 
L 119.560137 174.671826 
L 119.815297 176.587233 
L 119.933542 176.229866 
L 120.151362 174.599462 
L 120.296576 174.419359 
L 120.41897 174.28963 
L 120.458385 173.975645 
L 120.877429 171.293781 
L 121.161633 170.422936 
L 121.250835 170.650048 
L 121.779827 173.21328 
L 121.788124 173.187505 
L 121.974827 172.761919 
L 122.014242 172.842959 
L 122.049508 172.845336 
L 122.072328 172.936788 
L 122.078551 172.959975 
L 122.144934 172.779236 
L 122.424989 171.858903 
L 122.545308 171.971924 
L 122.615841 172.059996 
L 122.651107 171.933581 
L 122.673926 171.857982 
L 122.719564 172.095838 
L 122.929086 173.034052 
L 122.966427 172.894007 
L 123.068076 172.159713 
L 123.190471 172.402821 
L 123.254779 172.72589 
L 123.931059 176.967387 
L 124.412337 182.387205 
L 124.563774 183.235457 
L 124.748402 184.192444 
L 124.777445 184.098971 
L 124.802339 184.131375 
L 124.843828 184.029594 
L 124.866648 184.035925 
L 125.285692 183.145742 
L 125.300213 183.200551 
L 125.308511 183.23076 
L 125.362447 183.008803 
L 125.478618 182.512902 
L 125.54915 182.65614 
L 125.833354 183.343426 
L 125.910109 183.11835 
L 125.939152 182.978875 
L 125.997237 183.244072 
L 126.300111 184.963966 
L 126.617506 186.997898 
L 126.66107 186.622814 
L 127.042773 183.103123 
L 127.127827 183.450242 
L 127.227402 183.896744 
L 127.266817 183.562131 
L 127.420328 182.984712 
L 127.441073 182.993972 
L 127.781287 183.050909 
L 127.783361 183.041817 
L 127.955543 182.78421 
L 128.20448 182.314159 
L 128.509428 180.799382 
L 128.557141 181.154213 
L 128.633897 181.485821 
L 128.694057 181.258994 
L 128.89943 180.677231 
L 128.953366 180.709456 
L 129.028047 180.853218 
L 129.063313 180.708112 
L 129.127622 180.646538 
L 129.158739 180.786361 
L 129.384857 182.03938 
L 129.469911 181.762872 
L 130.438691 174.784848 
L 130.895076 173.158886 
L 131.005023 173.242866 
L 131.13779 173.339594 
L 131.144013 173.336839 
L 131.175131 173.443344 
L 131.23529 173.821114 
L 131.316195 173.531808 
L 131.372206 173.246303 
L 131.436515 173.468346 
L 131.585877 174.395654 
L 131.710345 176.182594 
L 131.894974 177.435525 
L 132.048485 178.00749 
L 132.183326 179.325334 
L 132.396997 180.863065 
L 132.438487 180.816399 
L 132.482051 180.714863 
L 132.751733 179.214861 
L 132.919765 178.692933 
L 133.006893 178.70973 
L 132.963329 178.748275 
L 133.017266 178.742895 
L 133.253756 179.129201 
L 133.867801 176.699298 
L 133.923812 176.910117 
L 134.01094 177.264885 
L 134.069025 177.017041 
L 134.170675 176.495784 
L 134.28892 176.04623 
L 134.338707 176.155976 
L 134.477697 176.18082 
L 134.479772 176.191782 
L 134.710038 177.122474 
L 134.741156 176.989791 
L 134.983869 175.682142 
L 135.22036 175.125026 
L 135.276371 174.932778 
L 135.510786 174.184526 
L 135.525308 174.242354 
L 135.761798 174.738528 
L 135.942277 174.834978 
L 135.963022 174.739191 
L 136.315683 173.427015 
L 136.348875 173.472925 
L 136.411109 173.545802 
L 136.442226 173.422639 
L 136.518982 173.127567 
L 136.599886 173.240687 
L 136.776217 173.468959 
L 136.811483 173.292685 
L 137.328028 171.272687 
L 137.392337 171.382492 
L 137.603933 172.432854 
L 137.703508 172.24488 
L 138.091435 170.108977 
L 138.516703 168.119145 
L 138.568565 167.976649 
L 138.813353 167.078698 
L 139.066439 166.051916 
L 139.147344 165.489977 
L 139.230323 165.708462 
L 139.257291 165.786912 
L 139.3216 165.639958 
L 139.477185 165.524454 
L 139.520749 165.363753 
L 139.634846 165.021403 
L 139.703303 165.077858 
L 139.769687 165.124291 
L 139.813251 165.025091 
L 140.008251 164.862035 
L 140.197029 164.902469 
L 140.265486 165.091863 
L 140.653414 166.117977 
L 140.699052 166.244479 
L 140.761286 166.106758 
L 141.437566 161.803027 
L 141.541289 161.704141 
L 141.574481 161.82493 
L 141.784003 162.356042 
L 141.802674 162.328153 
L 141.883578 162.251855 
L 141.929217 162.333962 
L 142.003898 162.4649 
L 142.043313 162.312148 
L 142.225867 161.945371 
L 142.425016 161.670053 
L 142.458208 161.799841 
L 142.526666 161.853067 
L 142.559857 161.759833 
L 142.785975 161.451945 
L 142.841986 161.299016 
L 142.931189 160.829656 
L 143.068104 160.86794 
L 143.167679 160.791362 
L 143.200871 160.887266 
L 143.912416 163.425617 
L 143.935235 163.418076 
L 144.188321 163.261292 
L 144.526461 161.765487 
L 144.746356 161.609886 
L 144.901941 160.731869 
L 145.161251 159.500305 
L 145.238007 159.276279 
L 145.287794 159.407894 
L 145.418486 159.699576 
L 145.457901 159.60623 
L 145.486944 159.538188 
L 145.553327 159.667083 
L 145.729657 159.801315 
L 145.7587 159.764276 
L 145.769073 159.753007 
L 145.820934 159.85281 
L 145.823009 159.854643 
L 145.964073 159.962741 
L 145.986893 159.852035 
L 146.378969 157.952284 
L 146.399713 157.995731 
L 146.445352 157.990914 
L 146.505512 157.963042 
L 146.515884 157.960095 
L 146.553225 158.061387 
L 146.580193 158.120075 
L 146.617533 157.922941 
L 147.436952 153.907435 
L 147.443175 153.918772 
L 147.492962 154.013733 
L 147.56142 153.904966 
L 147.829028 153.116878 
L 147.866368 153.194305 
L 147.9369 153.328324 
L 148.011582 153.248224 
L 148.013656 153.246781 
L 148.050997 153.354916 
L 148.860042 155.85212 
L 148.882862 155.731465 
L 149.399406 152.218633 
L 149.754142 151.258861 
L 150.025898 150.98556 
L 150.233346 150.653522 
L 150.444943 149.581404 
L 150.807976 147.961882 
L 151.162711 146.411757 
L 151.164786 146.412404 
L 151.260212 146.326449 
L 151.351489 145.995888 
L 151.963459 143.556743 
L 151.980055 143.565584 
L 152.094151 143.603576 
L 152.123194 143.529489 
L 152.444738 142.991716 
L 152.525642 142.894926 
L 152.675005 142.176435 
L 152.757984 142.28739 
L 152.91357 142.786628 
L 153.114794 143.08459 
L 153.118943 143.083014 
L 153.245486 142.918192 
L 153.365805 142.693924 
L 153.423891 142.757906 
L 153.74336 143.594749 
L 153.90102 144.305742 
L 153.952882 144.175214 
L 154.085649 143.884496 
L 154.120915 143.935558 
L 154.195596 144.076407 
L 155.023312 148.466832 
L 155.089695 148.602988 
L 155.203792 148.778268 
L 155.241132 148.711753 
L 155.575123 147.699324 
L 155.954752 146.054283 
L 157.245076 142.210596 
L 157.292789 142.096693 
L 157.367471 141.970875 
L 157.421407 142.029273 
L 157.483641 141.902028 
L 157.655823 141.446562 
L 157.680716 141.454483 
L 157.817632 141.620087 
L 158.058271 142.254026 
L 158.116357 142.220394 
L 158.469018 141.461793 
L 158.568592 141.331596 
L 158.877689 140.674676 
L 158.952371 140.569216 
L 159.000084 140.672906 
L 159.311255 141.028391 
L 159.512479 141.221087 
L 159.553969 141.260817 
L 159.605831 141.161093 
L 159.908704 140.581248 
L 159.997907 140.643417 
L 160.155567 140.882192 
L 160.634771 141.861748 
L 160.753016 141.974324 
L 161.130571 142.547085 
L 161.165837 142.465925 
L 161.327646 142.341138 
L 161.335944 142.349706 
L 161.522647 142.573773 
L 161.586956 142.447193 
L 161.711424 142.426042 
L 161.719722 142.430289 
L 161.873233 142.632186 
L 162.176107 143.002351 
L 162.354512 142.83891 
L 162.516321 142.629481 
L 162.576481 142.704611 
L 162.649088 142.97888 
L 163.049462 144.184547 
L 163.134515 144.234304 
L 163.074355 144.162482 
L 163.167707 144.156784 
L 163.265207 143.940648 
L 163.337814 144.030495 
L 163.497549 144.435948 
L 163.65106 144.874101 
L 163.692549 144.774803 
L 163.885476 144.567854 
L 163.891699 144.580257 
L 164.177977 144.926257 
L 164.256807 145.086874 
L 164.377127 145.411662 
L 164.445584 145.379282 
L 164.451808 145.38332 
L 164.505744 145.288364 
L 164.731862 145.104771 
L 164.746383 145.132369 
L 164.928937 145.252986 
L 164.933086 145.250441 
L 165.584472 144.722213 
L 166.00974 143.566624 
L 166.071974 143.652523 
L 166.439156 144.280212 
L 166.530433 144.103508 
L 166.702615 143.757749 
L 166.752402 143.835347 
L 166.926658 144.141204 
L 166.99719 143.981312 
L 167.200489 143.328179 
L 167.283468 143.478112 
L 167.802087 144.448994 
L 167.930705 144.655413 
L 167.947301 144.62753 
L 168.333153 144.081621 
L 168.401611 144.19174 
L 168.831028 144.95923 
L 168.843474 144.953409 
L 169.177465 144.764745 
L 169.428477 144.317291 
L 169.463743 144.359269 
L 169.934649 145.030105 
L 170.223001 145.567451 
L 170.264491 145.522795 
L 170.54662 145.124874 
L 170.64412 145.27833 
L 171.382634 145.901557 
L 171.390932 145.88429 
L 171.544443 145.546676 
L 171.623273 145.655092 
L 171.940668 146.383144 
L 172.007051 146.286661 
L 172.260137 146.081638 
L 172.378382 146.138206 
L 172.648064 146.734492 
L 172.689554 146.712439 
L 172.944714 146.421242 
L 173.048438 146.178039 
L 173.092002 146.343547 
L 173.212322 146.695735 
L 173.268333 146.649527 
L 174.143762 145.897442 
L 174.361582 145.102657 
L 174.423816 145.189442 
L 174.539987 145.274629 
L 174.571104 145.223808 
L 174.641636 145.135992 
L 174.699722 145.219209 
L 175.054457 146.148776 
L 175.089723 146.053526 
L 175.181 145.86313 
L 175.218341 146.000116 
L 175.367703 146.303999 
L 175.400895 146.292217 
L 175.726587 146.772055 
L 175.81579 146.935757 
L 177.22021 151.380113 
L 177.398615 151.805975 
L 177.564574 152.148636 
L 177.720159 152.676094 
L 177.796915 152.547868 
L 178.222183 151.879495 
L 178.267821 151.808448 
L 178.327981 151.917317 
L 178.605961 152.438779 
L 178.722131 152.670509 
L 179.008409 153.185684 
L 179.220006 153.220992 
L 179.240751 153.161526 
L 179.26357 153.126666 
L 179.329953 153.23794 
L 179.603784 153.40229 
L 179.775965 153.471758 
L 180.099584 154.085716 
L 180.163893 153.995871 
L 180.230276 153.911972 
L 180.304957 153.991273 
L 180.375489 154.215986 
L 180.601607 154.878589 
L 180.790384 155.533339 
L 181.174163 156.609846 
L 181.545494 156.775162 
L 181.869112 156.847236 
L 181.889857 156.754336 
L 182.225922 155.607 
L 182.288156 155.492354 
L 182.603477 154.785546 
L 182.684381 154.906008 
L 182.937468 155.453419 
L 183.1055 155.492915 
L 183.163586 155.50639 
L 183.18433 155.568433 
L 183.530768 156.252933 
L 183.873057 156.13728 
L 184.126143 155.652366 
L 184.213271 155.477554 
L 184.414495 155.022454 
L 184.700773 155.076635 
L 184.991199 155.756853 
L 185.198647 156.057101 
L 185.370829 155.945683 
L 185.746309 154.713414 
L 185.99732 154.242669 
L 186.049182 154.349277 
L 186.188172 154.395492 
L 186.410141 155.038322 
L 186.640408 155.321136 
L 186.78977 155.285844 
L 186.895569 155.34856 
L 187.115463 155.548791 
L 187.677646 156.603711 
L 187.717061 156.573017 
L 187.926584 156.490517 
L 188.005414 156.374129 
L 188.084244 156.421106 
L 188.308287 156.764925 
L 188.455575 156.804046 
L 188.61531 157.026388 
L 189.175418 158.455633 
L 189.640101 158.728222 
L 189.818506 159.022757 
L 189.830953 159.009136 
L 189.928453 159.063312 
L 189.936751 159.063123 
L 189.972017 158.962837 
L 190.137975 158.803927 
L 190.245848 158.712515 
L 190.480264 158.662922 
L 190.548722 158.815893 
L 190.959468 159.20153 
L 191.588035 159.708927 
L 191.78511 159.290072 
L 191.944844 159.114311 
L 191.957291 159.131224 
L 192.264314 159.707675 
L 192.382559 159.526891 
L 192.635645 159.264539 
L 192.791231 159.152669 
L 193.017349 158.934661 
L 193.284956 158.466706 
L 193.616873 157.833811 
L 193.720596 157.696581 
L 193.784905 157.740532 
L 194.021395 157.776236 
L 194.139641 157.810716 
L 194.842888 158.547588 
L 195.006772 158.662448 
L 195.313794 158.97401 
L 195.463157 158.954372 
L 195.46938 158.94249 
L 195.720392 158.515774 
L 195.780552 158.587025 
L 196.129064 158.954163 
L 196.166404 158.910084 
L 196.649757 158.395306 
L 196.69747 158.449159 
L 196.755555 158.44846 
L 196.792896 158.38925 
L 197.315664 157.72151 
L 197.334334 157.735332 
L 197.417313 157.788394 
L 197.473324 157.708376 
L 197.709815 157.233267 
L 197.776198 157.28702 
L 198.006465 157.409294 
L 198.023061 157.374001 
L 198.278221 157.136589 
L 198.479445 157.04853 
L 198.678595 156.845077 
L 198.728383 156.80713 
L 198.782319 156.886172 
L 198.960724 156.950496 
L 199.294715 157.028834 
L 199.415034 157.084767 
L 199.446151 157.036781 
L 199.643227 156.872107 
L 199.655674 156.886779 
L 199.894238 156.994245 
L 200.182591 156.855444 
L 200.58089 156.750537 
L 201.178339 156.674675 
L 201.344297 156.062038 
L 201.437649 156.246651 
L 201.846321 157.210905 
L 201.877438 157.225891 
L 201.937598 157.145189 
L 202.555792 156.458069 
L 202.945793 155.348081 
L 202.960315 155.381938 
L 203.093081 155.542536 
L 203.117975 155.508312 
L 203.27771 155.484699 
L 203.537019 155.411088 
L 203.725796 155.444824 
L 203.935319 155.691933 
L 204.24649 156.127254 
L 204.271384 156.092704 
L 204.624045 155.415245 
L 204.790003 154.882167 
L 204.883354 154.973501 
L 205.121919 155.479849 
L 205.153036 155.454641 
L 205.306548 155.582393 
L 205.596974 156.246816 
L 205.679953 156.212469 
L 205.901922 156.079505 
L 206.084476 155.939304 
L 206.426765 155.776847 
L 206.816766 155.411867 
L 207.038735 155.457542 
L 207.188098 155.596421 
L 207.887196 156.799172 
L 207.955654 156.67653 
L 208.001292 156.603678 
L 208.057303 156.716903 
L 208.233634 157.219446 
L 208.710763 158.396664 
L 209.08002 159.234381 
L 209.12151 159.183562 
L 209.41816 158.976877 
L 209.839279 158.982096 
L 210.063322 159.130717 
L 210.353749 159.209539 
L 210.619282 159.462294 
L 210.861996 159.583254 
L 210.96157 159.796693 
L 211.285189 160.501807 
L 211.293487 160.491313 
L 211.390987 160.497185 
L 211.407583 160.521458 
L 212.065192 161.28984 
L 212.699982 161.086634 
L 212.712429 161.120493 
L 212.913653 161.348123 
L 213.033972 161.586463 
L 213.278761 161.847782 
L 213.670837 161.803884 
L 213.828497 161.571236 
L 213.971636 161.297837 
L 214.067062 161.404657 
L 214.37201 161.547908 
L 214.664511 161.41953 
L 214.909299 161.140811 
L 215.008874 161.007638 
L 215.093928 160.919588 
L 215.16446 160.978552 
L 215.772281 160.734106 
L 215.992176 160.634154 
L 216.106272 160.555583 
L 216.31372 160.244647 
L 216.346911 160.261356 
L 216.427816 160.192021 
L 216.431965 160.182025 
L 217.099946 158.359589 
L 217.249309 158.498633 
L 217.297022 158.513445 
L 217.340586 158.431192 
L 217.788672 157.575614 
L 217.861279 157.658558 
L 218.052131 157.739673 
L 218.197344 157.884174 
L 218.854953 158.88878 
L 219.054103 159.119282 
L 219.253253 159.054517 
L 219.778095 158.658994 
L 219.977245 158.423118 
L 220.107937 158.26541 
L 220.143203 158.297678 
L 220.524907 158.515859 
L 220.77177 158.655384 
L 221.103686 158.967624 
L 221.64305 159.025038 
L 221.862944 159.048242 
L 222.257095 158.937319 
L 222.335925 159.186028 
L 222.57449 159.819693 
L 222.914704 160.3049 
L 223.215503 160.789196 
L 223.474813 160.891374 
L 223.632473 160.599954 
L 223.794282 160.288793 
L 223.850293 160.366275 
L 224.074336 160.570927 
L 224.304603 160.535149 
L 224.648966 160.309729 
L 224.924872 160.023957 
L 224.937318 160.041531 
L 225.186256 160.337585 
L 225.250564 160.291969 
L 225.358437 160.251827 
L 225.364661 160.235196 
L 225.497427 159.979301 
L 225.56381 160.019539 
L 225.653013 159.942512 
L 226.065834 159.417567 
L 226.242164 159.468076 
L 226.464133 159.539441 
L 226.684028 159.541737 
L 226.779454 159.553671 
L 226.812645 159.523417 
L 226.935039 159.564681 
L 227.024242 159.610798 
L 227.067806 159.549442 
L 227.312594 159.390585 
L 227.314668 159.392613 
L 227.432914 159.414923 
L 227.451584 159.372301 
L 227.735787 158.862672 
L 227.893447 158.929561 
L 228.067703 158.867067 
L 228.198395 158.587574 
L 228.424513 158.202234 
L 228.8726 157.506461 
L 229.163027 156.898754 
L 229.360102 156.564944 
L 229.575848 156.227042 
L 230.42016 154.632067 
L 230.65665 154.593078 
L 230.920109 154.740071 
L 230.936704 154.723249 
L 231.096439 154.659025 
L 231.123407 154.691779 
L 231.24995 154.666351 
L 231.982241 154.400154 
L 232.12123 154.400163 
L 232.507083 154.565588 
L 232.679265 154.626931 
L 232.685488 154.619839 
L 232.878414 154.571015 
L 233.179213 154.523123 
L 233.718577 154.264502 
L 234.141771 154.599976 
L 234.413527 154.765543 
L 234.415601 154.76357 
L 234.749592 154.294235 
L 234.840869 154.189946 
L 234.892731 154.246619 
L 235.069062 154.350957 
L 235.840767 154.384732 
L 236.127045 154.728819 
L 236.600025 154.737177 
L 236.75976 154.763201 
L 236.888377 154.624242 
L 237.079229 154.542016 
L 237.745136 154.386715 
L 238.160032 153.95673 
L 238.427639 153.762975 
L 238.435937 153.772627 
L 238.626789 153.946803 
L 238.6828 153.892914 
L 238.85913 153.580723 
L 239.060354 153.415346 
L 239.232536 153.406627 
L 239.65158 153.223302 
L 241.147278 150.451352 
L 241.647226 149.405758 
L 241.860898 149.269705 
L 242.192814 149.470061 
L 242.333878 149.462441 
L 242.547549 149.587592 
L 242.939625 150.193378 
L 243.275691 150.796635 
L 243.713405 151.644395 
L 243.825427 151.727166 
L 244.132449 151.918949 
L 244.146971 151.895233 
L 244.402131 151.688423 
L 244.626175 151.418691 
L 245.729796 149.36556 
L 245.789956 149.410119 
L 246.099053 149.565595 
L 246.52847 150.003539 
L 246.567885 149.944094 
L 246.860386 149.718252 
L 247.067834 149.854575 
L 247.291877 150.25009 
L 247.445388 150.571354 
L 247.513846 150.529771 
L 247.953635 150.587163 
L 248.250285 150.850322 
L 248.453584 150.631197 
L 248.926564 149.795601 
L 249.194172 149.645126 
L 249.333162 150.026843 
L 249.563429 150.633938 
L 249.613216 150.59607 
L 249.812366 150.584947 
L 249.926462 150.722425 
L 250.148431 150.844995 
L 250.484496 150.516142 
L 250.820561 150.26139 
L 250.857902 150.311498 
L 252.042428 151.000319 
L 252.121258 151.092767 
L 252.380568 151.378098 
L 252.623282 151.529915 
L 252.652324 151.488602 
L 252.876368 150.977254 
L 253.390838 150.026369 
L 253.650147 149.692157 
L 253.998659 149.382451 
L 254.390735 149.359015 
L 254.618928 149.288253 
L 254.851269 149.148774 
L 254.930099 149.122298 
L 254.969514 149.161646 
L 255.152068 149.191088 
L 255.187334 149.182868 
L 255.249569 149.25154 
L 255.307654 149.254618 
L 255.338771 149.187223 
L 255.6209 148.839444 
L 255.851167 148.890642 
L 255.956965 148.899773 
L 255.981859 148.8787 
L 256.344892 148.426432 
L 256.722447 147.824003 
L 257.08548 147.414056 
L 257.668408 146.643629 
L 257.801175 146.519445 
L 258.008622 146.53648 
L 258.147612 146.492848 
L 258.545912 146.348138 
L 258.716019 146.505288 
L 258.962882 146.643904 
L 259.201446 146.404222 
L 259.645384 145.901254 
L 259.886024 145.885131 
L 260.107993 145.829569 
L 260.439909 145.854296 
L 260.551931 145.78442 
L 260.591346 145.813962 
L 260.786346 145.960133 
L 261.087146 146.3863 
L 261.143156 146.480762 
L 261.22821 146.433135 
L 261.294593 146.456595 
L 261.321561 146.506244 
L 261.736457 147.043918 
L 261.838106 146.931622 
L 261.989543 146.900968 
L 262.369172 146.864569 
L 263.379442 145.180053 
L 263.52673 145.026513 
L 264.176041 143.703936 
L 264.512106 143.016837 
L 264.568117 142.948887 
L 264.646947 142.994954 
L 264.918704 142.868366 
L 265.057694 142.692771 
L 265.107481 142.72178 
L 265.321152 142.737023 
L 265.924825 142.761052 
L 266.153017 143.010915 
L 266.177911 142.982269 
L 266.451742 142.792772 
L 266.572061 142.689707 
L 266.806477 142.240636 
L 267.074085 141.957278 
L 267.476533 141.630934 
L 267.532544 141.522896 
L 267.650789 141.364658 
L 267.698502 141.384498 
L 267.847864 141.327021 
L 268.198451 140.88662 
L 268.266909 140.990397 
L 268.407973 141.019384 
L 268.410048 141.016594 
L 268.845688 140.616677 
L 269.161008 140.586937 
L 270.393247 139.721562 
L 270.488673 139.860429 
L 270.750057 140.056288 
L 270.93676 140.082314 
L 271.036335 139.953699 
L 271.484422 139.275633 
L 272.110914 138.348395 
L 272.492617 138.395164 
L 272.928257 138.403294 
L 273.509111 138.872316 
L 273.677143 138.932123 
L 274.162571 139.195861 
L 274.390763 139.414901 
L 274.768318 139.788549 
L 274.892787 139.907677 
L 275.023479 139.904528 
L 276.413378 139.521584 
L 276.560666 139.514721 
L 276.91955 139.628078 
L 277.189232 139.698614 
L 277.319924 139.989439 
L 277.388382 139.87646 
L 277.670511 139.503912 
L 277.801203 139.438386 
L 277.821947 139.47787 
L 277.942267 139.701188 
L 278.006576 139.618559 
L 278.172534 139.567057 
L 278.765834 138.943524 
L 279.680678 138.256094 
L 280.481426 137.409754 
L 281.056056 137.040375 
L 281.304993 136.798635 
L 281.414941 136.838608 
L 281.421164 136.847999 
L 281.792495 137.210511 
L 282.174199 137.556722 
L 282.771648 138.367447 
L 283.178246 138.509403 
L 283.389842 138.514159 
L 283.67612 138.567641 
L 284.072345 138.967092 
L 284.719582 139.4388 
L 285.362669 139.22199 
L 285.719479 138.686127 
L 285.980863 138.414702 
L 286.308631 138.427616 
L 286.700707 138.098458 
L 286.850069 137.978919 
L 287.009804 137.99545 
L 287.352092 138.053324 
L 288.625821 137.035146 
L 288.88513 136.948909 
L 289.032418 136.92139 
L 289.395452 136.864764 
L 290.169231 135.693252 
L 290.718968 135.067542 
L 290.741787 135.086957 
L 290.972054 135.140871 
L 291.662854 135.159494 
L 291.870302 135.161664 
L 292.700093 135.488011 
L 293.094243 135.158677 
L 293.502915 134.545152 
L 293.822384 134.259663 
L 294.268397 133.325877 
L 294.457174 133.260455 
L 294.776644 132.89967 
L 295.050474 132.632535 
L 295.203986 132.655498 
L 295.799361 133.027374 
L 296.510906 132.833203 
L 296.670641 132.732184 
L 297.330324 132.183683 
L 297.616602 131.745311 
L 298.404903 130.607557 
L 298.755489 130.535876 
L 301.045712 131.696112 
L 301.209595 131.793277 
L 301.232414 131.770906 
L 302.232312 130.94551 
L 302.524813 131.032225 
L 302.858804 131.294569 
L 303.012315 131.304966 
L 303.149231 131.339595 
L 303.300667 131.227845 
L 303.752903 130.628017 
L 303.979021 130.418391 
L 304.246629 130.02163 
L 304.310937 130.075071 
L 304.607588 130.053524 
L 304.761099 130.11776 
L 304.924983 130.068446 
L 305.597113 129.644448 
L 305.777592 129.584798 
L 305.94355 129.457545 
L 306.650947 128.909911 
L 307.497333 128.632922 
L 307.920527 128.597429 
L 308.318826 128.238994 
L 308.698455 127.850321 
L 309.677608 126.562497 
L 311.11522 125.932229 
L 312.193948 125.768275 
L 312.378577 125.782786 
L 312.509269 125.850747 
L 312.683525 125.887437 
L 313.23741 125.849667 
L 314.179222 126.602792 
L 314.992417 126.294581 
L 315.97157 127.111403 
L 316.158273 127.25303 
L 316.944499 127.352232 
L 317.118755 127.32928 
L 317.37599 127.32706 
L 317.865567 127.182499 
L 318.05227 127.148683 
L 318.473388 127.278939 
L 318.707804 127.392992 
L 318.809454 127.576552 
L 318.871688 127.499434 
L 319.166264 127.192183 
L 319.338445 127.23383 
L 319.448392 127.367634 
L 319.504403 127.300912 
L 319.686957 127.251978 
L 320.284406 126.787221 
L 320.433769 126.693946 
L 320.612174 126.692476 
L 320.796802 126.583483 
L 322.323617 125.582096 
L 322.479203 125.460666 
L 322.817342 125.169971 
L 322.985375 125.31191 
L 323.331812 125.562661 
L 323.609792 125.788864 
L 323.829687 126.07143 
L 324.33171 126.545673 
L 324.723786 126.702423 
L 324.943681 126.686258 
L 325.213363 126.78904 
L 325.615811 127.180449 
L 325.83778 127.380391 
L 326.057674 127.396001 
L 326.296239 127.500934 
L 326.580443 127.468613 
L 326.845975 127.376401 
L 327.22353 126.925658 
L 327.478691 126.74115 
L 327.802309 126.760548 
L 328.198534 126.513026 
L 328.37279 126.402279 
L 328.509706 126.448392 
L 328.858218 126.496076 
L 330.15684 125.725269 
L 330.395405 125.645389 
L 330.584182 125.673164 
L 330.936843 125.574104 
L 331.582005 124.824305 
L 332.189827 124.197525 
L 333.195948 124.300002 
L 333.376427 124.3391 
L 334.245633 124.612665 
L 334.589996 124.372828 
L 334.996594 123.891621 
L 335.324361 123.641907 
L 335.755852 122.915058 
L 335.969523 122.857662 
L 336.457025 122.42317 
L 336.697664 122.403567 
L 337.073145 122.737109 
L 337.475593 122.639577 
L 338.429852 122.34707 
L 338.877939 122.003627 
L 339.722251 120.894475 
L 340.28236 120.808274 
L 340.53752 120.905971 
L 340.842468 120.959172 
L 341.215874 121.191233 
L 341.48763 121.264198 
L 342.522794 121.823615 
L 342.730242 121.902053 
L 343.73014 121.264412 
L 344.159556 121.418577 
L 344.32344 121.548512 
L 344.514292 121.588628 
L 344.783974 121.545034 
L 345.246582 121.050504 
L 345.483072 120.865162 
L 345.804616 120.611798 
L 346.32531 120.65383 
L 347.067972 120.319096 
L 347.271271 120.254492 
L 347.578293 120.12978 
L 347.976593 119.81808 
L 348.271169 119.66948 
L 348.955746 119.498123 
L 349.173566 119.520337 
L 349.725377 119.260771 
L 350.18591 118.908017 
L 351.17751 117.853928 
L 352.01145 117.6229 
L 352.795602 117.862738 
L 353.139965 118.063105 
L 353.142039 118.060308 
L 353.19805 118.038816 
L 353.243689 118.106114 
L 353.500924 118.336239 
L 353.818319 118.283708 
L 354.052735 118.377283 
L 354.34731 118.532125 
L 354.994547 119.221187 
L 355.282899 119.512058 
L 355.757954 120.15831 
L 356.087796 120.596983 
L 356.104392 120.588194 
L 356.442531 120.544812 
L 357.042055 121.254133 
L 357.500514 121.900413 
L 358.172645 122.526171 
L 358.286741 122.596871 
L 358.685041 122.807354 
L 359.346799 122.942616 
L 359.655896 122.930144 
L 360.386111 124.13412 
L 361.498031 126.271698 
L 361.713776 126.335861 
L 361.948192 126.415444 
L 362.215799 126.652224 
L 362.481332 126.903267 
L 362.692929 126.883617 
L 362.912824 127.053326 
L 363.062186 127.207513 
L 363.732242 128.077085 
L 364.495649 128.314647 
L 364.922991 128.282639 
L 365.350333 128.407782 
L 365.460281 128.28015 
L 366.109592 127.681674 
L 366.559753 127.486974 
L 367.059702 127.004811 
L 367.240182 126.994525 
L 367.567949 127.008615 
L 368.843752 128.155862 
L 368.854124 128.14206 
L 369.20886 127.738415 
L 370.972165 126.384147 
L 370.986686 126.406137 
L 371.358017 126.84051 
L 371.380837 126.816271 
L 371.615252 126.728248 
L 372.459564 126.393534 
L 372.613076 126.296909 
L 372.714725 126.271424 
L 372.749991 126.310346 
L 374.26021 127.468817 
L 374.426168 127.523391 
L 375.000798 127.357922 
L 376.139686 126.85456 
L 376.593996 126.942413 
L 376.871976 126.932257 
L 377.154105 126.76532 
L 377.473574 126.532706 
L 377.622936 126.412873 
L 377.965225 126.147131 
L 378.195492 126.147946 
L 378.730707 126.372205 
L 379.411135 126.566335 
L 379.763796 126.827425 
L 380.228479 126.788095 
L 380.601885 127.069669 
L 381.220079 127.690804 
L 381.821677 128.040916 
L 382.136997 128.151721 
L 382.663914 128.271304 
L 382.896256 128.122951 
L 383.172161 127.974064 
L 383.367162 127.962373 
L 383.73227 127.98027 
L 383.954239 128.042731 
L 384.136792 128.185425 
L 384.663709 128.64374 
L 384.885678 128.768854 
L 385.369031 129.525935 
L 385.640788 129.81469 
L 385.883502 129.862832 
L 386.196748 129.823491 
L 386.354408 129.826072 
L 386.74026 129.749438 
L 387.211167 129.696266 
L 387.821063 129.877614 
L 388.248405 129.891051 
L 388.520161 130.029793 
L 389.432931 129.833062 
L 389.874794 129.481338 
L 390.341552 129.078094 
L 391.646397 128.16893 
L 392.183687 127.953138 
L 393.115127 127.373291 
L 393.293532 127.248181 
L 393.778959 127.033383 
L 394.617048 126.706862 
L 394.722846 126.614634 
L 394.928219 126.567937 
L 395.131518 126.766661 
L 395.442689 127.071439 
L 395.73519 127.137327 
L 395.926042 127.415128 
L 396.164607 127.622231 
L 396.322267 127.695132 
L 396.720567 127.883418 
L 396.872004 127.808646 
L 397.191473 127.631129 
L 397.612592 127.519176 
L 398.008817 127.450769 
L 398.342807 127.433761 
L 398.940257 127.714085 
L 399.166375 127.775623 
L 399.838505 127.965857 
L 400.126857 128.06989 
L 400.541752 127.928236 
L 400.923456 127.952188 
L 401.761545 127.362287 
L 402.159844 127.26613 
L 402.417079 127.304393 
L 402.765591 127.484289 
L 403.443945 127.378033 
L 403.769638 127.3548 
L 404.211501 127.331191 
L 404.981132 127.389099 
L 405.194803 127.304945 
L 405.56406 127.244647 
L 405.852412 127.119029 
L 406.200924 127.207979 
L 406.530766 127.142859 
L 406.682203 127.163469 
L 406.918693 127.142992 
L 407.283801 127.21833 
L 407.590824 127.366128 
L 408.669551 127.240001 
L 408.916414 127.252868 
L 409.462001 126.990987 
L 409.812588 126.746318 
L 410.77307 125.963261 
L 410.939029 125.826973 
L 411.169295 125.710046 
L 411.66717 125.524018 
L 411.849724 125.510678 
L 412.026054 125.49279 
L 412.264619 125.438933 
L 412.461694 125.381999 
L 412.733451 125.212634 
L 413.368241 124.50229 
L 413.735423 124.121577 
L 413.980211 124.091744 
L 414.93447 123.83513 
L 415.513249 123.58419 
L 416.199901 123.709326 
L 416.525594 123.605905 
L 416.944638 123.660285 
L 417.365757 123.563317 
L 419.523212 122.023104 
L 419.963001 121.607007 
L 420.373748 121.370017 
L 421.305188 121.555893 
L 421.794764 121.50476 
L 422.056148 121.475543 
L 422.593437 121.355392 
L 423.024929 121.443109 
L 423.286313 121.593205 
L 423.605782 121.921238 
L 424.167965 122.148478 
L 424.692808 122.296681 
L 425.016426 122.486473 
L 425.464513 122.467233 
L 426.510049 122.883857 
L 426.864784 122.590605 
L 427.348138 122.033683 
L 427.648937 121.875814 
L 428.854207 122.095965 
L 429.881073 122.553551 
L 430.103042 122.736522 
L 430.345756 122.56837 
L 430.816662 122.28726 
L 432.619382 122.141874 
L 433.266619 122.373755 
L 433.430503 122.304375 
L 433.735451 122.244715 
L 434.467741 122.244445 
L 434.61088 122.163317 
L 435.000881 122.003934 
L 435.336946 122.173737 
L 435.546469 122.073708 
L 435.691682 122.107355 
L 435.992481 122.18812 
L 436.438493 121.853485 
L 437.008974 121.98007 
L 437.687328 122.61179 
L 437.813871 122.523264 
L 438.07733 122.413139 
L 438.560683 122.144313 
L 439.195473 121.526891 
L 439.695422 121.555994 
L 439.963029 121.343256 
L 440.635159 120.934278 
L 441.608089 120.581925 
L 441.875696 120.658323 
L 442.626657 120.748576 
L 443.234478 120.903383 
L 443.400437 120.980746 
L 443.728204 121.068121 
L 444.136876 120.848811 
L 444.377515 121.173391 
L 444.684537 121.459201 
L 444.964592 121.58693 
L 445.14922 121.577305 
L 445.373264 121.507697 
L 445.688584 121.60774 
L 446.626247 122.147928 
L 447.808699 122.347105 
L 448.267158 122.725341 
L 448.702798 123.005736 
L 448.989076 122.918912 
L 449.582376 122.847008 
L 449.839612 122.783515 
L 450.198496 122.575463 
L 452.49909 122.207192 
L 453.403562 122.411565 
L 453.915958 122.528015 
L 454.2458 122.497137 
L 454.76027 122.273423 
L 455.845221 122.59748 
L 456.158467 122.527667 
L 456.314053 122.465761 
L 456.525649 122.422801 
L 456.772512 122.547196 
L 457.114801 122.670269 
L 457.720548 122.789826 
L 458.089804 122.910645 
L 458.494327 123.102058 
L 458.944489 123.206911 
L 459.400874 123.254864 
L 459.662258 123.311637 
L 460.214068 123.175536 
L 460.535612 123.205824 
L 460.815667 123.189861 
L 461.1787 123.115329 
L 461.782373 123.086796 
L 462.027161 123.115693 
L 462.218013 123.080402 
L 462.421311 123.071358 
L 462.578972 123.104757 
L 462.82376 123.18905 
L 463.408762 123.443888 
L 463.844402 123.95976 
L 464.761321 124.342718 
L 465.333876 124.349172 
L 465.732176 124.476575 
L 466.194784 124.45463 
L 466.663616 124.381938 
L 467.553566 124.369759 
L 467.73612 124.351123 
L 468.343942 124.281979 
L 468.717347 124.30646 
L 469.011923 124.348788 
L 469.715171 124.403869 
L 471.198421 124.259937 
L 471.71704 124.42424 
L 473.023961 125.083766 
L 473.304015 125.312879 
L 473.633857 125.437632 
L 474.144178 125.653408 
L 474.992639 125.591601 
L 475.386789 125.657954 
L 476.556794 126.189599 
L 477.18536 126.069847 
L 477.915576 125.910527 
L 478.210152 126.061794 
L 479.0109 126.340136 
L 480.033617 127.03408 
L 480.241064 127.146506 
L 480.483778 127.221648 
L 480.834365 127.255382 
L 481.021067 127.206866 
L 481.417292 127.155616 
L 482.440009 127.082086 
L 483.143257 126.94525 
L 483.46895 126.927814 
L 483.751079 126.872256 
L 484.535231 127.0046 
L 484.997839 126.805364 
L 485.23018 126.557892 
L 485.757097 126.122123 
L 486.001885 126.147822 
L 487.379338 126.655019 
L 487.601307 126.778132 
L 489.302378 126.106934 
L 489.545091 126.042048 
L 489.995253 125.681043 
L 490.439191 125.392185 
L 490.771107 125.318898 
L 491.345737 125.089675 
L 492.828988 125.196552 
L 493.461703 124.747921 
L 493.7708 124.502688 
L 494.32676 124.206882 
L 495.328732 123.708401 
L 495.585967 123.587247 
L 496.193788 123.44979 
L 496.832727 123.098893 
L 497.164643 123.002661 
L 497.459219 122.814926 
L 498.874012 121.901227 
L 499.678909 121.237219 
L 500.301252 121.054042 
L 500.575083 121.167506 
L 500.929818 121.32006 
L 501.382054 121.403575 
L 501.759609 121.287065 
L 502.581102 120.949484 
L 502.819666 120.893073 
L 503.379775 120.697673 
L 504.365151 120.679129 
L 505.02276 120.452561 
L 505.408613 120.463994 
L 506.659522 119.977381 
L 508.617828 119.815066 
L 508.816978 119.778197 
L 509.233948 119.629395 
L 510.667411 118.942088 
L 511.171509 118.564164 
L 512.270981 118.381262 
L 512.453535 118.320043 
L 513.42439 117.925881 
L 513.592423 117.860924 
L 513.808168 117.873784 
L 514.189872 117.83256 
L 514.532161 117.698391 
L 514.797694 117.566737 
L 515.18977 117.442625 
L 516.536105 117.656255 
L 516.814085 117.556705 
L 517.017383 117.547702 
L 517.475843 117.91242 
L 518.170792 118.438457 
L 520.442344 118.898319 
L 520.975484 118.955981 
L 521.25139 119.087263 
L 521.539742 119.167404 
L 522.145489 119.257102 
L 522.46081 119.389901 
L 522.745013 119.447522 
L 524.097572 119.458436 
L 525.085022 119.778592 
L 525.956302 119.776141 
L 526.354602 119.865869 
L 526.941679 120.214152 
L 527.356574 120.274977 
L 527.559873 120.263819 
L 527.777693 120.273871 
L 528.144875 120.444387 
L 528.381366 120.512084 
L 528.810782 120.473339 
L 529.23605 120.451142 
L 529.534774 120.612932 
L 530.136373 120.649063 
L 531.748241 120.853015 
L 532.353988 121.080819 
L 533.009523 121.187017 
L 533.206598 121.198322 
L 534.077878 120.940009 
L 534.884849 121.127538 
L 535.071552 121.119254 
L 535.51549 120.993083 
L 535.785172 120.931014 
L 536.092195 120.809597 
L 537.552626 120.51603 
L 538.121033 119.915974 
L 538.861621 119.361755 
L 539.705933 119.206589 
L 540.272265 119.501698 
L 540.799182 119.456945 
L 541.456791 119.448488 
L 541.879984 119.449598 
L 542.863286 119.407608 
L 543.556161 119.585115 
L 544.083078 119.69618 
L 544.51042 119.818701 
L 545.292498 119.801839 
L 547.196867 119.814928 
L 547.742454 119.931914 
L 548.263148 119.765975 
L 549.109534 119.932192 
L 549.962144 120.09224 
L 550.725552 120.209351 
L 551.078213 120.311587 
L 551.372788 120.36428 
L 552.443218 120.83419 
L 552.735719 120.97199 
L 553.592478 121.270191 
L 554.304024 121.332819 
L 555.03009 120.974861 
L 555.328815 120.982134 
L 555.652433 120.944817 
L 557.670899 120.114715 
L 558.272497 120.130655 
L 558.550477 120.056095 
L 559.739152 119.495811 
L 560.143675 119.320213 
L 560.446548 119.342661 
L 560.89671 119.211959 
L 561.118679 119.318872 
L 561.591659 119.569927 
L 561.857192 119.440865 
L 562.247194 119.199818 
L 563.016825 118.891503 
L 563.628795 118.557613 
L 564.143266 118.300928 
L 565.242738 117.73276 
L 565.985401 117.606921 
L 566.298647 117.521279 
L 566.968703 117.46129 
L 567.155405 117.444813 
L 567.493545 117.41762 
L 567.69062 117.378799 
L 567.881472 117.388733 
L 569.507862 117.576587 
L 570.005736 117.43425 
L 570.289939 117.422088 
L 570.74425 117.585456 
L 570.972442 117.685796 
L 572.038723 117.867815 
L 572.266915 117.902959 
L 572.766864 117.938146 
L 573.183834 117.902481 
L 574.154689 117.61138 
L 574.762511 117.425032 
L 576.225017 117.263308 
L 576.810019 117.182196 
L 577.002945 117.025703 
L 577.376351 116.763127 
L 578.637633 116.603281 
L 579.143805 116.761773 
L 579.415561 116.845322 
L 580.228756 117.00797 
L 580.473544 117.117277 
L 580.722482 117.322189 
L 581.089664 117.55215 
L 581.305409 117.695954 
L 582.120679 118.289475 
L 582.877863 118.651698 
L 587.308944 119.17092 
L 588.003894 119.060394 
L 588.263204 118.988661 
L 588.729961 118.750219 
L 588.922887 118.662658 
L 589.42491 118.520065 
L 589.779646 118.471902 
L 590.265073 118.46559 
L 591.159173 118.221814 
L 591.650824 118.133975 
L 592.171517 118.254787 
L 592.55737 118.205275 
L 592.864392 118.259406 
L 593.258543 118.262032 
L 593.515778 118.316472 
L 594.046844 118.482642 
L 594.316526 118.48573 
L 595.210625 118.305142 
L 596.436641 118.324465 
L 597.144037 117.777465 
L 597.934413 117.072439 
L 598.338936 117.039723 
L 599.475749 117.406543 
L 599.818038 117.544433 
L 600.846978 117.443138 
L 601.434055 117.631958 
L 601.824056 117.567705 
L 603.292786 116.926334 
L 604.58311 117.072452 
L 605.27806 117.319204 
L 605.692955 117.479214 
L 606.136893 117.800489 
L 607.248812 118.176187 
L 607.533016 118.202569 
L 608.263231 118.3598 
L 608.611743 118.42594 
L 609.024564 118.562474 
L 609.377225 118.471806 
L 609.588822 118.524594 
L 610.099143 118.583105 
L 610.327335 118.644641 
L 610.785795 118.915358 
L 611.269148 119.352144 
L 611.269148 119.352144 
" clip-path="url(#p4444e1e699)" style="fill: none; stroke: #1f2937; stroke-linecap: square"/>
   </g>
   <g id="line2d_30">
    <path d="M 66.72125 119.352144 
L 637.2 119.352144 
" clip-path="url(#p4444e1e699)" style="fill: none; stroke-dasharray: 2.96,1.28; stroke-dashoffset: 0; stroke: #888888; stroke-width: 0.8"/>
   </g>
   <g id="patch_3">
    <path d="M 66.72125 282.04 
L 66.72125 26.88 
" style="fill: none; stroke: #000000; stroke-width: 0.8; stroke-linejoin: miter; stroke-linecap: square"/>
   </g>
   <g id="patch_4">
    <path d="M 637.2 282.04 
L 637.2 26.88 
" style="fill: none; stroke: #000000; stroke-width: 0.8; stroke-linejoin: miter; stroke-linecap: square"/>
   </g>
   <g id="patch_5">
    <path d="M 66.72125 282.04 
L 637.2 282.04 
" style="fill: none; stroke: #000000; stroke-width: 0.8; stroke-linejoin: miter; stroke-linecap: square"/>
   </g>
   <g id="patch_6">
    <path d="M 66.72125 26.88 
L 637.2 26.88 
" style="fill: none; stroke: #000000; stroke-width: 0.8; stroke-linejoin: miter; stroke-linecap: square"/>
   </g>
   <g id="text_17">
    <!-- Running mean — efficiency_gap  (100k ReCom samples, seed 42) -->
    <g transform="translate(154.30375 20.88) scale(0.12 -0.12)">
     <defs>
      <path id="DejaVuSans-2014" d="M 313 1978 
L 6088 1978 
L 6088 1528 
L 313 1528 
L 313 1978 
z
" transform="scale(0.015625)"/>
      <path id="DejaVuSans-28" d="M 1984 4856 
Q 1566 4138 1362 3434 
Q 1159 2731 1159 2009 
Q 1159 1288 1364 580 
Q 1569 -128 1984 -844 
L 1484 -844 
Q 1016 -109 783 600 
Q 550 1309 550 2009 
Q 550 2706 781 3412 
Q 1013 4119 1484 4856 
L 1984 4856 
z
" transform="scale(0.015625)"/>
      <path id="DejaVuSans-6b" d="M 581 4863 
L 1159 4863 
L 1159 1991 
L 2875 3500 
L 3609 3500 
L 1753 1863 
L 3688 0 
L 2938 0 
L 1159 1709 
L 1159 0 
L 581 0 
L 581 4863 
z
" transform="scale(0.015625)"/>
      <path id="DejaVuSans-43" d="M 4122 4306 
L 4122 3641 
Q 3803 3938 3442 4084 
Q 3081 4231 2675 4231 
Q 1875 4231 1450 3742 
Q 1025 3253 1025 2328 
Q 1025 1406 1450 917 
Q 1875 428 2675 428 
Q 3081 428 3442 575 
Q 3803 722 4122 1019 
L 4122 359 
Q 3791 134 3420 21 
Q 3050 -91 2638 -91 
Q 1578 -91 968 557 
Q 359 1206 359 2328 
Q 359 3453 968 4101 
Q 1578 4750 2638 4750 
Q 3056 4750 3426 4639 
Q 3797 4528 4122 4306 
z
" transform="scale(0.015625)"/>
      <path id="DejaVuSans-73" d="M 2834 3397 
L 2834 2853 
Q 2591 2978 2328 3040 
Q 2066 3103 1784 3103 
Q 1356 3103 1142 2972 
Q 928 2841 928 2578 
Q 928 2378 1081 2264 
Q 1234 2150 1697 2047 
L 1894 2003 
Q 2506 1872 2764 1633 
Q 3022 1394 3022 966 
Q 3022 478 2636 193 
Q 2250 -91 1575 -91 
Q 1294 -91 989 -36 
Q 684 19 347 128 
L 347 722 
Q 666 556 975 473 
Q 1284 391 1588 391 
Q 1994 391 2212 530 
Q 2431 669 2431 922 
Q 2431 1156 2273 1281 
Q 2116 1406 1581 1522 
L 1381 1569 
Q 847 1681 609 1914 
Q 372 2147 372 2553 
Q 372 3047 722 3315 
Q 1072 3584 1716 3584 
Q 2034 3584 2315 3537 
Q 2597 3491 2834 3397 
z
" transform="scale(0.015625)"/>
      <path id="DejaVuSans-2c" d="M 750 794 
L 1409 794 
L 1409 256 
L 897 -744 
L 494 -744 
L 750 256 
L 750 794 
z
" transform="scale(0.015625)"/>
      <path id="DejaVuSans-34" d="M 2419 4116 
L 825 1625 
L 2419 1625 
L 2419 4116 
z
M 2253 4666 
L 3047 4666 
L 3047 1625 
L 3713 1625 
L 3713 1100 
L 3047 1100 
L 3047 0 
L 2419 0 
L 2419 1100 
L 313 1100 
L 313 1709 
L 2253 4666 
z
" transform="scale(0.015625)"/>
      <path id="DejaVuSans-29" d="M 513 4856 
L 1013 4856 
Q 1481 4119 1714 3412 
Q 1947 2706 1947 2009 
Q 1947 1309 1714 600 
Q 1481 -109 1013 -844 
L 513 -844 
Q 928 -128 1133 580 
Q 1338 1288 1338 2009 
Q 1338 2731 1133 3434 
Q 928 4138 513 4856 
z
" transform="scale(0.015625)"/>
     </defs>
     <use xlink:href="#DejaVuSans-52"/>
     <use xlink:href="#DejaVuSans-75" transform="translate(64.982422 0)"/>
     <use xlink:href="#DejaVuSans-6e" transform="translate(128.361328 0)"/>
     <use xlink:href="#DejaVuSans-6e" transform="translate(191.740234 0)"/>
     <use xlink:href="#DejaVuSans-69" transform="translate(255.119141 0)"/>
     <use xlink:href="#DejaVuSans-6e" transform="translate(282.902344 0)"/>
     <use xlink:href="#DejaVuSans-67" transform="translate(346.28125 0)"/>
     <use xlink:href="#DejaVuSans-20" transform="translate(409.757812 0)"/>
     <use xlink:href="#DejaVuSans-6d" transform="translate(441.544922 0)"/>
     <use xlink:href="#DejaVuSans-65" transform="translate(538.957031 0)"/>
     <use xlink:href="#DejaVuSans-61" transform="translate(600.480469 0)"/>
     <use xlink:href="#DejaVuSans-6e" transform="translate(661.759766 0)"/>
     <use xlink:href="#DejaVuSans-20" transform="translate(725.138672 0)"/>
     <use xlink:href="#DejaVuSans-2014" transform="translate(756.925781 0)"/>
     <use xlink:href="#DejaVuSans-20" transform="translate(856.925781 0)"/>
     <use xlink:href="#DejaVuSans-65" transform="translate(888.712891 0)"/>
     <use xlink:href="#DejaVuSans-66" transform="translate(950.236328 0)"/>
     <use xlink:href="#DejaVuSans-66" transform="translate(985.441406 0)"/>
     <use xlink:href="#DejaVuSans-69" transform="translate(1020.646484 0)"/>
     <use xlink:href="#DejaVuSans-63" transform="translate(1048.429688 0)"/>
     <use xlink:href="#DejaVuSans-69" transform="translate(1103.410156 0)"/>
     <use xlink:href="#DejaVuSans-65" transform="translate(1131.193359 0)"/>
     <use xlink:href="#DejaVuSans-6e" transform="translate(1192.716797 0)"/>
     <use xlink:href="#DejaVuSans-63" transform="translate(1256.095703 0)"/>
     <use xlink:href="#DejaVuSans-79" transform="translate(1311.076172 0)"/>
     <use xlink:href="#DejaVuSans-5f" transform="translate(1370.255859 0)"/>
     <use xlink:href="#DejaVuSans-67" transform="translate(1420.255859 0)"/>
     <use xlink:href="#DejaVuSans-61" transform="translate(1483.732422 0)"/>
     <use xlink:href="#DejaVuSans-70" transform="translate(1545.011719 0)"/>
     <use xlink:href="#DejaVuSans-20" transform="translate(1608.488281 0)"/>
     <use xlink:href="#DejaVuSans-20" transform="translate(1640.275391 0)"/>
     <use xlink:href="#DejaVuSans-28" transform="translate(1672.0625 0)"/>
     <use xlink:href="#DejaVuSans-31" transform="translate(1711.076172 0)"/>
     <use xlink:href="#DejaVuSans-30" transform="translate(1774.699219 0)"/>
     <use xlink:href="#DejaVuSans-30" transform="translate(1838.322266 0)"/>
     <use xlink:href="#DejaVuSans-6b" transform="translate(1901.945312 0)"/>
     <use xlink:href="#DejaVuSans-20" transform="translate(1959.855469 0)"/>
     <use xlink:href="#DejaVuSans-52" transform="translate(1991.642578 0)"/>
     <use xlink:href="#DejaVuSans-65" transform="translate(2056.625 0)"/>
     <use xlink:href="#DejaVuSans-43" transform="translate(2118.148438 0)"/>
     <use xlink:href="#DejaVuSans-6f" transform="translate(2187.972656 0)"/>
     <use xlink:href="#DejaVuSans-6d" transform="translate(2249.154297 0)"/>
     <use xlink:href="#DejaVuSans-20" transform="translate(2346.566406 0)"/>
     <use xlink:href="#DejaVuSans-73" transform="translate(2378.353516 0)"/>
     <use xlink:href="#DejaVuSans-61" transform="translate(2430.453125 0)"/>
     <use xlink:href="#DejaVuSans-6d" transform="translate(2491.732422 0)"/>
     <use xlink:href="#DejaVuSans-70" transform="translate(2589.144531 0)"/>
     <use xlink:href="#DejaVuSans-6c" transform="translate(2652.621094 0)"/>
     <use xlink:href="#DejaVuSans-65" transform="translate(2680.404297 0)"/>
     <use xlink:href="#DejaVuSans-73" transform="translate(2741.927734 0)"/>
     <use xlink:href="#DejaVuSans-2c" transform="translate(2794.027344 0)"/>
     <use xlink:href="#DejaVuSans-20" transform="translate(2825.814453 0)"/>
     <use xlink:href="#DejaVuSans-73" transform="translate(2857.601562 0)"/>
     <use xlink:href="#DejaVuSans-65" transform="translate(2909.701172 0)"/>
     <use xlink:href="#DejaVuSans-65" transform="translate(2971.224609 0)"/>
     <use xlink:href="#DejaVuSans-64" transform="translate(3032.748047 0)"/>
     <use xlink:href="#DejaVuSans-20" transform="translate(3096.224609 0)"/>
     <use xlink:href="#DejaVuSans-34" transform="translate(3128.011719 0)"/>
     <use xlink:href="#DejaVuSans-32" transform="translate(3191.634766 0)"/>
     <use xlink:href="#DejaVuSans-29" transform="translate(3255.257812 0)"/>
    </g>
   </g>
   <g id="legend_1">
    <g id="patch_7">
     <path d="M 496.306406 47.290312 
L 630.9 47.290312 
Q 632.7 47.290312 632.7 45.490312 
L 632.7 33.18 
Q 632.7 31.38 630.9 31.38 
L 496.306406 31.38 
Q 494.506406 31.38 494.506406 33.18 
L 494.506406 45.490312 
Q 494.506406 47.290312 496.306406 47.290312 
z
" style="fill: #ffffff; opacity: 0.8; stroke: #cccccc; stroke-linejoin: miter"/>
    </g>
    <g id="line2d_31">
     <path d="M 498.106406 38.668594 
L 507.106406 38.668594 
L 516.106406 38.668594 
" style="fill: none; stroke-dasharray: 2.96,1.28; stroke-dashoffset: 0; stroke: #888888; stroke-width: 0.8"/>
    </g>
    <g id="text_18">
     <!-- final mean = +0.01648 -->
     <g transform="translate(523.306406 41.818594) scale(0.09 -0.09)">
      <defs>
       <path id="DejaVuSans-3d" d="M 678 2906 
L 4684 2906 
L 4684 2381 
L 678 2381 
L 678 2906 
z
M 678 1631 
L 4684 1631 
L 4684 1100 
L 678 1100 
L 678 1631 
z
" transform="scale(0.015625)"/>
       <path id="DejaVuSans-2b" d="M 2944 4013 
L 2944 2272 
L 4684 2272 
L 4684 1741 
L 2944 1741 
L 2944 0 
L 2419 0 
L 2419 1741 
L 678 1741 
L 678 2272 
L 2419 2272 
L 2419 4013 
L 2944 4013 
z
" transform="scale(0.015625)"/>
       <path id="DejaVuSans-36" d="M 2113 2584 
Q 1688 2584 1439 2293 
Q 1191 2003 1191 1497 
Q 1191 994 1439 701 
Q 1688 409 2113 409 
Q 2538 409 2786 701 
Q 3034 994 3034 1497 
Q 3034 2003 2786 2293 
Q 2538 2584 2113 2584 
z
M 3366 4563 
L 3366 3988 
Q 3128 4100 2886 4159 
Q 2644 4219 2406 4219 
Q 1781 4219 1451 3797 
Q 1122 3375 1075 2522 
Q 1259 2794 1537 2939 
Q 1816 3084 2150 3084 
Q 2853 3084 3261 2657 
Q 3669 2231 3669 1497 
Q 3669 778 3244 343 
Q 2819 -91 2113 -91 
Q 1303 -91 875 529 
Q 447 1150 447 2328 
Q 447 3434 972 4092 
Q 1497 4750 2381 4750 
Q 2619 4750 2861 4703 
Q 3103 4656 3366 4563 
z
" transform="scale(0.015625)"/>
       <path id="DejaVuSans-38" d="M 2034 2216 
Q 1584 2216 1326 1975 
Q 1069 1734 1069 1313 
Q 1069 891 1326 650 
Q 1584 409 2034 409 
Q 2484 409 2743 651 
Q 3003 894 3003 1313 
Q 3003 1734 2745 1975 
Q 2488 2216 2034 2216 
z
M 1403 2484 
Q 997 2584 770 2862 
Q 544 3141 544 3541 
Q 544 4100 942 4425 
Q 1341 4750 2034 4750 
Q 2731 4750 3128 4425 
Q 3525 4100 3525 3541 
Q 3525 3141 3298 2862 
Q 3072 2584 2669 2484 
Q 3125 2378 3379 2068 
Q 3634 1759 3634 1313 
Q 3634 634 3220 271 
Q 2806 -91 2034 -91 
Q 1263 -91 848 271 
Q 434 634 434 1313 
Q 434 1759 690 2068 
Q 947 2378 1403 2484 
z
M 1172 3481 
Q 1172 3119 1398 2916 
Q 1625 2713 2034 2713 
Q 2441 2713 2670 2916 
Q 2900 3119 2900 3481 
Q 2900 3844 2670 4047 
Q 2441 4250 2034 4250 
Q 1625 4250 1398 4047 
Q 1172 3844 1172 3481 
z
" transform="scale(0.015625)"/>
      </defs>
      <use xlink:href="#DejaVuSans-66"/>
      <use xlink:href="#DejaVuSans-69" transform="translate(35.205078 0)"/>
      <use xlink:href="#DejaVuSans-6e" transform="translate(62.988281 0)"/>
      <use xlink:href="#DejaVuSans-61" transform="translate(126.367188 0)"/>
      <use xlink:href="#DejaVuSans-6c" transform="translate(187.646484 0)"/>
      <use xlink:href="#DejaVuSans-20" transform="translate(215.429688 0)"/>
      <use xlink:href="#DejaVuSans-6d" transform="translate(247.216797 0)"/>
      <use xlink:href="#DejaVuSans-65" transform="translate(344.628906 0)"/>
      <use xlink:href="#DejaVuSans-61" transform="translate(406.152344 0)"/>
      <use xlink:href="#DejaVuSans-6e" transform="translate(467.431641 0)"/>
      <use xlink:href="#DejaVuSans-20" transform="translate(530.810547 0)"/>
      <use xlink:href="#DejaVuSans-3d" transform="translate(562.597656 0)"/>
      <use xlink:href="#DejaVuSans-20" transform="translate(646.386719 0)"/>
      <use xlink:href="#DejaVuSans-2b" transform="translate(678.173828 0)"/>
      <use xlink:href="#DejaVuSans-30" transform="translate(761.962891 0)"/>
      <use xlink:href="#DejaVuSans-2e" transform="translate(825.585938 0)"/>
      <use xlink:href="#DejaVuSans-30" transform="translate(857.373047 0)"/>
      <use xlink:href="#DejaVuSans-31" transform="translate(920.996094 0)"/>
      <use xlink:href="#DejaVuSans-36" transform="translate(984.619141 0)"/>
      <use xlink:href="#DejaVuSans-34" transform="translate(1048.242188 0)"/>
      <use xlink:href="#DejaVuSans-38" transform="translate(1111.865234 0)"/>
     </g>
    </g>
   </g>
  </g>
 </g>
 <defs>
  <clipPath id="p4444e1e699">
   <rect x="66.72125" y="26.88" width="570.47875" height="255.16"/>
  </clipPath>
 </defs>
</svg>
