<?xml version="1.0" encoding="utf-8" standalone="no"?>
<!DOCTYPE svg PUBLIC "-//W3C//DTD SVG 1.1//EN"
  "http://www.w3.org/Graphics/SVG/1.1/DTD/svg11.dtd">
<svg xmlns:xlink="http://www.w3.org/1999/xlink" width="648pt" height="324pt" viewBox="0 0 648 324" xmlns="http://www.w3.org/2000/svg" version="1.1">
 <metadata>
  <rdf:RDF xmlns:dc="http://purl.org/dc/elements/1.1/" xmlns:cc="http://creativecommons.org/ns#" xmlns:rdf="http://www.w3.org/1999/02/22-rdf-syntax-ns#">
   <cc:Work>
    <dc:type rdf:resource="http://purl.org/dc/dcmitype/StillImage"/>
    <dc:date>2026-05-06T21:03:15.363087</dc:date>
    <dc:format>image/svg+xml</dc:format>
    <dc:creator>
     <cc:Agent>
      <dc:title>Matplotlib v3.10.8, https://matplotlib.org/</dc:title>
     </cc:Agent>
    </dc:creator>
   </cc:Work>
  </rdf:RDF>
 </metadata>
 <defs>
  <style type="text/css">*{stroke-linejoin: round; stroke-linecap: butt}</style>
 </defs>
 <g id="figure_1">
  <g id="patch_1">
   <path d="M 0 324 
L 648 324 
L 648 0 
L 0 0 
z
" style="fill: #ffffff"/>
  </g>
  <g id="axes_1">
   <g id="patch_2">
    <path d="M 66.63125 282.04 
L 637.2 282.04 
L 637.2 26.88 
L 66.63125 26.88 
z
" style="fill: #ffffff"/>
   </g>
   <g id="matplotlib.axis_1">
    <g id="xtick_1">
     <g id="line2d_1">
      <path d="M 92.561006 282.04 
L 92.561006 26.88 
" clip-path="url(#p4fa424ceca)" style="fill: none; stroke-dasharray: 0.5,0.825; stroke-dashoffset: 0; stroke: #b0b0b0; stroke-opacity: 0.6; stroke-width: 0.5"/>
     </g>
     <g id="line2d_2">
      <defs>
       <path id="ma76a72371a" d="M 0 0 
L 0 3.5 
" style="stroke: #000000; stroke-width: 0.8"/>
      </defs>
      <g>
       <use xlink:href="#ma76a72371a" x="92.561006" y="282.04" style="stroke: #000000; stroke-width: 0.8"/>
      </g>
     </g>
     <g id="text_1">
      <!-- 0 -->
      <g transform="translate(89.379756 296.638438) scale(0.1 -0.1)">
       <defs>
        <path id="DejaVuSans-30" d="M 2034 4250 
Q 1547 4250 1301 3770 
Q 1056 3291 1056 2328 
Q 1056 1369 1301 889 
Q 1547 409 2034 409 
Q 2525 409 2770 889 
Q 3016 1369 3016 2328 
Q 3016 3291 2770 3770 
Q 2525 4250 2034 4250 
z
M 2034 4750 
Q 2819 4750 3233 4129 
Q 3647 3509 3647 2328 
Q 3647 1150 3233 529 
Q 2819 -91 2034 -91 
Q 1250 -91 836 529 
Q 422 1150 422 2328 
Q 422 3509 836 4129 
Q 1250 4750 2034 4750 
z
" transform="scale(0.015625)"/>
       </defs>
       <use xlink:href="#DejaVuSans-30"/>
      </g>
     </g>
    </g>
    <g id="xtick_2">
     <g id="line2d_3">
      <path d="M 196.301816 282.04 
L 196.301816 26.88 
" clip-path="url(#p4fa424ceca)" style="fill: none; stroke-dasharray: 0.5,0.825; stroke-dashoffset: 0; stroke: #b0b0b0; stroke-opacity: 0.6; stroke-width: 0.5"/>
     </g>
     <g id="line2d_4">
      <g>
       <use xlink:href="#ma76a72371a" x="196.301816" y="282.04" style="stroke: #000000; stroke-width: 0.8"/>
      </g>
     </g>
     <g id="text_2">
      <!-- 20000 -->
      <g transform="translate(180.395566 296.638438) scale(0.1 -0.1)">
       <defs>
        <path id="DejaVuSans-32" d="M 1228 531 
L 3431 531 
L 3431 0 
L 469 0 
L 469 531 
Q 828 903 1448 1529 
Q 2069 2156 2228 2338 
Q 2531 2678 2651 2914 
Q 2772 3150 2772 3378 
Q 2772 3750 2511 3984 
Q 2250 4219 1831 4219 
Q 1534 4219 1204 4116 
Q 875 4013 500 3803 
L 500 4441 
Q 881 4594 1212 4672 
Q 1544 4750 1819 4750 
Q 2544 4750 2975 4387 
Q 3406 4025 3406 3419 
Q 3406 3131 3298 2873 
Q 3191 2616 2906 2266 
Q 2828 2175 2409 1742 
Q 1991 1309 1228 531 
z
" transform="scale(0.015625)"/>
       </defs>
       <use xlink:href="#DejaVuSans-32"/>
       <use xlink:href="#DejaVuSans-30" transform="translate(63.623047 0)"/>
       <use xlink:href="#DejaVuSans-30" transform="translate(127.246094 0)"/>
       <use xlink:href="#DejaVuSans-30" transform="translate(190.869141 0)"/>
       <use xlink:href="#DejaVuSans-30" transform="translate(254.492188 0)"/>
      </g>
     </g>
    </g>
    <g id="xtick_3">
     <g id="line2d_5">
      <path d="M 300.042626 282.04 
L 300.042626 26.88 
" clip-path="url(#p4fa424ceca)" style="fill: none; stroke-dasharray: 0.5,0.825; stroke-dashoffset: 0; stroke: #b0b0b0; stroke-opacity: 0.6; stroke-width: 0.5"/>
     </g>
     <g id="line2d_6">
      <g>
       <use xlink:href="#ma76a72371a" x="300.042626" y="282.04" style="stroke: #000000; stroke-width: 0.8"/>
      </g>
     </g>
     <g id="text_3">
      <!-- 40000 -->
      <g transform="translate(284.136376 296.638438) scale(0.1 -0.1)">
       <defs>
        <path id="DejaVuSans-34" d="M 2419 4116 
L 825 1625 
L 2419 1625 
L 2419 4116 
z
M 2253 4666 
L 3047 4666 
L 3047 1625 
L 3713 1625 
L 3713 1100 
L 3047 1100 
L 3047 0 
L 2419 0 
L 2419 1100 
L 313 1100 
L 313 1709 
L 2253 4666 
z
" transform="scale(0.015625)"/>
       </defs>
       <use xlink:href="#DejaVuSans-34"/>
       <use xlink:href="#DejaVuSans-30" transform="translate(63.623047 0)"/>
       <use xlink:href="#DejaVuSans-30" transform="translate(127.246094 0)"/>
       <use xlink:href="#DejaVuSans-30" transform="translate(190.869141 0)"/>
       <use xlink:href="#DejaVuSans-30" transform="translate(254.492188 0)"/>
      </g>
     </g>
    </g>
    <g id="xtick_4">
     <g id="line2d_7">
      <path d="M 403.783437 282.04 
L 403.783437 26.88 
" clip-path="url(#p4fa424ceca)" style="fill: none; stroke-dasharray: 0.5,0.825; stroke-dashoffset: 0; stroke: #b0b0b0; stroke-opacity: 0.6; stroke-width: 0.5"/>
     </g>
     <g id="line2d_8">
      <g>
       <use xlink:href="#ma76a72371a" x="403.783437" y="282.04" style="stroke: #000000; stroke-width: 0.8"/>
      </g>
     </g>
     <g id="text_4">
      <!-- 60000 -->
      <g transform="translate(387.877187 296.638438) scale(0.1 -0.1)">
       <defs>
        <path id="DejaVuSans-36" d="M 2113 2584 
Q 1688 2584 1439 2293 
Q 1191 2003 1191 1497 
Q 1191 994 1439 701 
Q 1688 409 2113 409 
Q 2538 409 2786 701 
Q 3034 994 3034 1497 
Q 3034 2003 2786 2293 
Q 2538 2584 2113 2584 
z
M 3366 4563 
L 3366 3988 
Q 3128 4100 2886 4159 
Q 2644 4219 2406 4219 
Q 1781 4219 1451 3797 
Q 1122 3375 1075 2522 
Q 1259 2794 1537 2939 
Q 1816 3084 2150 3084 
Q 2853 3084 3261 2657 
Q 3669 2231 3669 1497 
Q 3669 778 3244 343 
Q 2819 -91 2113 -91 
Q 1303 -91 875 529 
Q 447 1150 447 2328 
Q 447 3434 972 4092 
Q 1497 4750 2381 4750 
Q 2619 4750 2861 4703 
Q 3103 4656 3366 4563 
z
" transform="scale(0.015625)"/>
       </defs>
       <use xlink:href="#DejaVuSans-36"/>
       <use xlink:href="#DejaVuSans-30" transform="translate(63.623047 0)"/>
       <use xlink:href="#DejaVuSans-30" transform="translate(127.246094 0)"/>
       <use xlink:href="#DejaVuSans-30" transform="translate(190.869141 0)"/>
       <use xlink:href="#DejaVuSans-30" transform="translate(254.492188 0)"/>
      </g>
     </g>
    </g>
    <g id="xtick_5">
     <g id="line2d_9">
      <path d="M 507.524247 282.04 
L 507.524247 26.88 
" clip-path="url(#p4fa424ceca)" style="fill: none; stroke-dasharray: 0.5,0.825; stroke-dashoffset: 0; stroke: #b0b0b0; stroke-opacity: 0.6; stroke-width: 0.5"/>
     </g>
     <g id="line2d_10">
      <g>
       <use xlink:href="#ma76a72371a" x="507.524247" y="282.04" style="stroke: #000000; stroke-width: 0.8"/>
      </g>
     </g>
     <g id="text_5">
      <!-- 80000 -->
      <g transform="translate(491.617997 296.638438) scale(0.1 -0.1)">
       <defs>
        <path id="DejaVuSans-38" d="M 2034 2216 
Q 1584 2216 1326 1975 
Q 1069 1734 1069 1313 
Q 1069 891 1326 650 
Q 1584 409 2034 409 
Q 2484 409 2743 651 
Q 3003 894 3003 1313 
Q 3003 1734 2745 1975 
Q 2488 2216 2034 2216 
z
M 1403 2484 
Q 997 2584 770 2862 
Q 544 3141 544 3541 
Q 544 4100 942 4425 
Q 1341 4750 2034 4750 
Q 2731 4750 3128 4425 
Q 3525 4100 3525 3541 
Q 3525 3141 3298 2862 
Q 3072 2584 2669 2484 
Q 3125 2378 3379 2068 
Q 3634 1759 3634 1313 
Q 3634 634 3220 271 
Q 2806 -91 2034 -91 
Q 1263 -91 848 271 
Q 434 634 434 1313 
Q 434 1759 690 2068 
Q 947 2378 1403 2484 
z
M 1172 3481 
Q 1172 3119 1398 2916 
Q 1625 2713 2034 2713 
Q 2441 2713 2670 2916 
Q 2900 3119 2900 3481 
Q 2900 3844 2670 4047 
Q 2441 4250 2034 4250 
Q 1625 4250 1398 4047 
Q 1172 3844 1172 3481 
z
" transform="scale(0.015625)"/>
       </defs>
       <use xlink:href="#DejaVuSans-38"/>
       <use xlink:href="#DejaVuSans-30" transform="translate(63.623047 0)"/>
       <use xlink:href="#DejaVuSans-30" transform="translate(127.246094 0)"/>
       <use xlink:href="#DejaVuSans-30" transform="translate(190.869141 0)"/>
       <use xlink:href="#DejaVuSans-30" transform="translate(254.492188 0)"/>
      </g>
     </g>
    </g>
    <g id="xtick_6">
     <g id="line2d_11">
      <path d="M 611.265057 282.04 
L 611.265057 26.88 
" clip-path="url(#p4fa424ceca)" style="fill: none; stroke-dasharray: 0.5,0.825; stroke-dashoffset: 0; stroke: #b0b0b0; stroke-opacity: 0.6; stroke-width: 0.5"/>
     </g>
     <g id="line2d_12">
      <g>
       <use xlink:href="#ma76a72371a" x="611.265057" y="282.04" style="stroke: #000000; stroke-width: 0.8"/>
      </g>
     </g>
     <g id="text_6">
      <!-- 100000 -->
      <g transform="translate(592.177557 296.638438) scale(0.1 -0.1)">
       <defs>
        <path id="DejaVuSans-31" d="M 794 531 
L 1825 531 
L 1825 4091 
L 703 3866 
L 703 4441 
L 1819 4666 
L 2450 4666 
L 2450 531 
L 3481 531 
L 3481 0 
L 794 0 
L 794 531 
z
" transform="scale(0.015625)"/>
       </defs>
       <use xlink:href="#DejaVuSans-31"/>
       <use xlink:href="#DejaVuSans-30" transform="translate(63.623047 0)"/>
       <use xlink:href="#DejaVuSans-30" transform="translate(127.246094 0)"/>
       <use xlink:href="#DejaVuSans-30" transform="translate(190.869141 0)"/>
       <use xlink:href="#DejaVuSans-30" transform="translate(254.492188 0)"/>
       <use xlink:href="#DejaVuSans-30" transform="translate(318.115234 0)"/>
      </g>
     </g>
    </g>
    <g id="text_7">
     <!-- Sample index -->
     <g transform="translate(317.897656 310.316563) scale(0.1 -0.1)">
      <defs>
       <path id="DejaVuSans-53" d="M 3425 4513 
L 3425 3897 
Q 3066 4069 2747 4153 
Q 2428 4238 2131 4238 
Q 1616 4238 1336 4038 
Q 1056 3838 1056 3469 
Q 1056 3159 1242 3001 
Q 1428 2844 1947 2747 
L 2328 2669 
Q 3034 2534 3370 2195 
Q 3706 1856 3706 1288 
Q 3706 609 3251 259 
Q 2797 -91 1919 -91 
Q 1588 -91 1214 -16 
Q 841 59 441 206 
L 441 856 
Q 825 641 1194 531 
Q 1563 422 1919 422 
Q 2459 422 2753 634 
Q 3047 847 3047 1241 
Q 3047 1584 2836 1778 
Q 2625 1972 2144 2069 
L 1759 2144 
Q 1053 2284 737 2584 
Q 422 2884 422 3419 
Q 422 4038 858 4394 
Q 1294 4750 2059 4750 
Q 2388 4750 2728 4690 
Q 3069 4631 3425 4513 
z
" transform="scale(0.015625)"/>
       <path id="DejaVuSans-61" d="M 2194 1759 
Q 1497 1759 1228 1600 
Q 959 1441 959 1056 
Q 959 750 1161 570 
Q 1363 391 1709 391 
Q 2188 391 2477 730 
Q 2766 1069 2766 1631 
L 2766 1759 
L 2194 1759 
z
M 3341 1997 
L 3341 0 
L 2766 0 
L 2766 531 
Q 2569 213 2275 61 
Q 1981 -91 1556 -91 
Q 1019 -91 701 211 
Q 384 513 384 1019 
Q 384 1609 779 1909 
Q 1175 2209 1959 2209 
L 2766 2209 
L 2766 2266 
Q 2766 2663 2505 2880 
Q 2244 3097 1772 3097 
Q 1472 3097 1187 3025 
Q 903 2953 641 2809 
L 641 3341 
Q 956 3463 1253 3523 
Q 1550 3584 1831 3584 
Q 2591 3584 2966 3190 
Q 3341 2797 3341 1997 
z
" transform="scale(0.015625)"/>
       <path id="DejaVuSans-6d" d="M 3328 2828 
Q 3544 3216 3844 3400 
Q 4144 3584 4550 3584 
Q 5097 3584 5394 3201 
Q 5691 2819 5691 2113 
L 5691 0 
L 5113 0 
L 5113 2094 
Q 5113 2597 4934 2840 
Q 4756 3084 4391 3084 
Q 3944 3084 3684 2787 
Q 3425 2491 3425 1978 
L 3425 0 
L 2847 0 
L 2847 2094 
Q 2847 2600 2669 2842 
Q 2491 3084 2119 3084 
Q 1678 3084 1418 2786 
Q 1159 2488 1159 1978 
L 1159 0 
L 581 0 
L 581 3500 
L 1159 3500 
L 1159 2956 
Q 1356 3278 1631 3431 
Q 1906 3584 2284 3584 
Q 2666 3584 2933 3390 
Q 3200 3197 3328 2828 
z
" transform="scale(0.015625)"/>
       <path id="DejaVuSans-70" d="M 1159 525 
L 1159 -1331 
L 581 -1331 
L 581 3500 
L 1159 3500 
L 1159 2969 
Q 1341 3281 1617 3432 
Q 1894 3584 2278 3584 
Q 2916 3584 3314 3078 
Q 3713 2572 3713 1747 
Q 3713 922 3314 415 
Q 2916 -91 2278 -91 
Q 1894 -91 1617 61 
Q 1341 213 1159 525 
z
M 3116 1747 
Q 3116 2381 2855 2742 
Q 2594 3103 2138 3103 
Q 1681 3103 1420 2742 
Q 1159 2381 1159 1747 
Q 1159 1113 1420 752 
Q 1681 391 2138 391 
Q 2594 391 2855 752 
Q 3116 1113 3116 1747 
z
" transform="scale(0.015625)"/>
       <path id="DejaVuSans-6c" d="M 603 4863 
L 1178 4863 
L 1178 0 
L 603 0 
L 603 4863 
z
" transform="scale(0.015625)"/>
       <path id="DejaVuSans-65" d="M 3597 1894 
L 3597 1613 
L 953 1613 
Q 991 1019 1311 708 
Q 1631 397 2203 397 
Q 2534 397 2845 478 
Q 3156 559 3463 722 
L 3463 178 
Q 3153 47 2828 -22 
Q 2503 -91 2169 -91 
Q 1331 -91 842 396 
Q 353 884 353 1716 
Q 353 2575 817 3079 
Q 1281 3584 2069 3584 
Q 2775 3584 3186 3129 
Q 3597 2675 3597 1894 
z
M 3022 2063 
Q 3016 2534 2758 2815 
Q 2500 3097 2075 3097 
Q 1594 3097 1305 2825 
Q 1016 2553 972 2059 
L 3022 2063 
z
" transform="scale(0.015625)"/>
       <path id="DejaVuSans-20" transform="scale(0.015625)"/>
       <path id="DejaVuSans-69" d="M 603 3500 
L 1178 3500 
L 1178 0 
L 603 0 
L 603 3500 
z
M 603 4863 
L 1178 4863 
L 1178 4134 
L 603 4134 
L 603 4863 
z
" transform="scale(0.015625)"/>
       <path id="DejaVuSans-6e" d="M 3513 2113 
L 3513 0 
L 2938 0 
L 2938 2094 
Q 2938 2591 2744 2837 
Q 2550 3084 2163 3084 
Q 1697 3084 1428 2787 
Q 1159 2491 1159 1978 
L 1159 0 
L 581 0 
L 581 3500 
L 1159 3500 
L 1159 2956 
Q 1366 3272 1645 3428 
Q 1925 3584 2291 3584 
Q 2894 3584 3203 3211 
Q 3513 2838 3513 2113 
z
" transform="scale(0.015625)"/>
       <path id="DejaVuSans-64" d="M 2906 2969 
L 2906 4863 
L 3481 4863 
L 3481 0 
L 2906 0 
L 2906 525 
Q 2725 213 2448 61 
Q 2172 -91 1784 -91 
Q 1150 -91 751 415 
Q 353 922 353 1747 
Q 353 2572 751 3078 
Q 1150 3584 1784 3584 
Q 2172 3584 2448 3432 
Q 2725 3281 2906 2969 
z
M 947 1747 
Q 947 1113 1208 752 
Q 1469 391 1925 391 
Q 2381 391 2643 752 
Q 2906 1113 2906 1747 
Q 2906 2381 2643 2742 
Q 2381 3103 1925 3103 
Q 1469 3103 1208 2742 
Q 947 2381 947 1747 
z
" transform="scale(0.015625)"/>
       <path id="DejaVuSans-78" d="M 3513 3500 
L 2247 1797 
L 3578 0 
L 2900 0 
L 1881 1375 
L 863 0 
L 184 0 
L 1544 1831 
L 300 3500 
L 978 3500 
L 1906 2253 
L 2834 3500 
L 3513 3500 
z
" transform="scale(0.015625)"/>
      </defs>
      <use xlink:href="#DejaVuSans-53"/>
      <use xlink:href="#DejaVuSans-61" transform="translate(63.476562 0)"/>
      <use xlink:href="#DejaVuSans-6d" transform="translate(124.755859 0)"/>
      <use xlink:href="#DejaVuSans-70" transform="translate(222.167969 0)"/>
      <use xlink:href="#DejaVuSans-6c" transform="translate(285.644531 0)"/>
      <use xlink:href="#DejaVuSans-65" transform="translate(313.427734 0)"/>
      <use xlink:href="#DejaVuSans-20" transform="translate(374.951172 0)"/>
      <use xlink:href="#DejaVuSans-69" transform="translate(406.738281 0)"/>
      <use xlink:href="#DejaVuSans-6e" transform="translate(434.521484 0)"/>
      <use xlink:href="#DejaVuSans-64" transform="translate(497.900391 0)"/>
      <use xlink:href="#DejaVuSans-65" transform="translate(561.376953 0)"/>
      <use xlink:href="#DejaVuSans-78" transform="translate(621.150391 0)"/>
     </g>
    </g>
   </g>
   <g id="matplotlib.axis_2">
    <g id="ytick_1">
     <g id="line2d_13">
      <path d="M 66.63125 261.338594 
L 637.2 261.338594 
" clip-path="url(#p4fa424ceca)" style="fill: none; stroke-dasharray: 0.5,0.825; stroke-dashoffset: 0; stroke: #b0b0b0; stroke-opacity: 0.6; stroke-width: 0.5"/>
     </g>
     <g id="line2d_14">
      <defs>
       <path id="mf3b8fadb3c" d="M 0 0 
L -3.5 0 
" style="stroke: #000000; stroke-width: 0.8"/>
      </defs>
      <g>
       <use xlink:href="#mf3b8fadb3c" x="66.63125" y="261.338594" style="stroke: #000000; stroke-width: 0.8"/>
      </g>
     </g>
     <g id="text_8">
      <!-- 0.4375 -->
      <g transform="translate(24.640625 265.137813) scale(0.1 -0.1)">
       <defs>
        <path id="DejaVuSans-2e" d="M 684 794 
L 1344 794 
L 1344 0 
L 684 0 
L 684 794 
z
" transform="scale(0.015625)"/>
        <path id="DejaVuSans-33" d="M 2597 2516 
Q 3050 2419 3304 2112 
Q 3559 1806 3559 1356 
Q 3559 666 3084 287 
Q 2609 -91 1734 -91 
Q 1441 -91 1130 -33 
Q 819 25 488 141 
L 488 750 
Q 750 597 1062 519 
Q 1375 441 1716 441 
Q 2309 441 2620 675 
Q 2931 909 2931 1356 
Q 2931 1769 2642 2001 
Q 2353 2234 1838 2234 
L 1294 2234 
L 1294 2753 
L 1863 2753 
Q 2328 2753 2575 2939 
Q 2822 3125 2822 3475 
Q 2822 3834 2567 4026 
Q 2313 4219 1838 4219 
Q 1578 4219 1281 4162 
Q 984 4106 628 3988 
L 628 4550 
Q 988 4650 1302 4700 
Q 1616 4750 1894 4750 
Q 2613 4750 3031 4423 
Q 3450 4097 3450 3541 
Q 3450 3153 3228 2886 
Q 3006 2619 2597 2516 
z
" transform="scale(0.015625)"/>
        <path id="DejaVuSans-37" d="M 525 4666 
L 3525 4666 
L 3525 4397 
L 1831 0 
L 1172 0 
L 2766 4134 
L 525 4134 
L 525 4666 
z
" transform="scale(0.015625)"/>
        <path id="DejaVuSans-35" d="M 691 4666 
L 3169 4666 
L 3169 4134 
L 1269 4134 
L 1269 2991 
Q 1406 3038 1543 3061 
Q 1681 3084 1819 3084 
Q 2600 3084 3056 2656 
Q 3513 2228 3513 1497 
Q 3513 744 3044 326 
Q 2575 -91 1722 -91 
Q 1428 -91 1123 -41 
Q 819 9 494 109 
L 494 744 
Q 775 591 1075 516 
Q 1375 441 1709 441 
Q 2250 441 2565 725 
Q 2881 1009 2881 1497 
Q 2881 1984 2565 2268 
Q 2250 2553 1709 2553 
Q 1456 2553 1204 2497 
Q 953 2441 691 2322 
L 691 4666 
z
" transform="scale(0.015625)"/>
       </defs>
       <use xlink:href="#DejaVuSans-30"/>
       <use xlink:href="#DejaVuSans-2e" transform="translate(63.623047 0)"/>
       <use xlink:href="#DejaVuSans-34" transform="translate(95.410156 0)"/>
       <use xlink:href="#DejaVuSans-33" transform="translate(159.033203 0)"/>
       <use xlink:href="#DejaVuSans-37" transform="translate(222.65625 0)"/>
       <use xlink:href="#DejaVuSans-35" transform="translate(286.279297 0)"/>
      </g>
     </g>
    </g>
    <g id="ytick_2">
     <g id="line2d_15">
      <path d="M 66.63125 229.659374 
L 637.2 229.659374 
" clip-path="url(#p4fa424ceca)" style="fill: none; stroke-dasharray: 0.5,0.825; stroke-dashoffset: 0; stroke: #b0b0b0; stroke-opacity: 0.6; stroke-width: 0.5"/>
     </g>
     <g id="line2d_16">
      <g>
       <use xlink:href="#mf3b8fadb3c" x="66.63125" y="229.659374" style="stroke: #000000; stroke-width: 0.8"/>
      </g>
     </g>
     <g id="text_9">
      <!-- 0.4400 -->
      <g transform="translate(24.640625 233.458593) scale(0.1 -0.1)">
       <use xlink:href="#DejaVuSans-30"/>
       <use xlink:href="#DejaVuSans-2e" transform="translate(63.623047 0)"/>
       <use xlink:href="#DejaVuSans-34" transform="translate(95.410156 0)"/>
       <use xlink:href="#DejaVuSans-34" transform="translate(159.033203 0)"/>
       <use xlink:href="#DejaVuSans-30" transform="translate(222.65625 0)"/>
       <use xlink:href="#DejaVuSans-30" transform="translate(286.279297 0)"/>
      </g>
     </g>
    </g>
    <g id="ytick_3">
     <g id="line2d_17">
      <path d="M 66.63125 197.980154 
L 637.2 197.980154 
" clip-path="url(#p4fa424ceca)" style="fill: none; stroke-dasharray: 0.5,0.825; stroke-dashoffset: 0; stroke: #b0b0b0; stroke-opacity: 0.6; stroke-width: 0.5"/>
     </g>
     <g id="line2d_18">
      <g>
       <use xlink:href="#mf3b8fadb3c" x="66.63125" y="197.980154" style="stroke: #000000; stroke-width: 0.8"/>
      </g>
     </g>
     <g id="text_10">
      <!-- 0.4425 -->
      <g transform="translate(24.640625 201.779373) scale(0.1 -0.1)">
       <use xlink:href="#DejaVuSans-30"/>
       <use xlink:href="#DejaVuSans-2e" transform="translate(63.623047 0)"/>
       <use xlink:href="#DejaVuSans-34" transform="translate(95.410156 0)"/>
       <use xlink:href="#DejaVuSans-34" transform="translate(159.033203 0)"/>
       <use xlink:href="#DejaVuSans-32" transform="translate(222.65625 0)"/>
       <use xlink:href="#DejaVuSans-35" transform="translate(286.279297 0)"/>
      </g>
     </g>
    </g>
    <g id="ytick_4">
     <g id="line2d_19">
      <path d="M 66.63125 166.300934 
L 637.2 166.300934 
" clip-path="url(#p4fa424ceca)" style="fill: none; stroke-dasharray: 0.5,0.825; stroke-dashoffset: 0; stroke: #b0b0b0; stroke-opacity: 0.6; stroke-width: 0.5"/>
     </g>
     <g id="line2d_20">
      <g>
       <use xlink:href="#mf3b8fadb3c" x="66.63125" y="166.300934" style="stroke: #000000; stroke-width: 0.8"/>
      </g>
     </g>
     <g id="text_11">
      <!-- 0.4450 -->
      <g transform="translate(24.640625 170.100153) scale(0.1 -0.1)">
       <use xlink:href="#DejaVuSans-30"/>
       <use xlink:href="#DejaVuSans-2e" transform="translate(63.623047 0)"/>
       <use xlink:href="#DejaVuSans-34" transform="translate(95.410156 0)"/>
       <use xlink:href="#DejaVuSans-34" transform="translate(159.033203 0)"/>
       <use xlink:href="#DejaVuSans-35" transform="translate(222.65625 0)"/>
       <use xlink:href="#DejaVuSans-30" transform="translate(286.279297 0)"/>
      </g>
     </g>
    </g>
    <g id="ytick_5">
     <g id="line2d_21">
      <path d="M 66.63125 134.621715 
L 637.2 134.621715 
" clip-path="url(#p4fa424ceca)" style="fill: none; stroke-dasharray: 0.5,0.825; stroke-dashoffset: 0; stroke: #b0b0b0; stroke-opacity: 0.6; stroke-width: 0.5"/>
     </g>
     <g id="line2d_22">
      <g>
       <use xlink:href="#mf3b8fadb3c" x="66.63125" y="134.621715" style="stroke: #000000; stroke-width: 0.8"/>
      </g>
     </g>
     <g id="text_12">
      <!-- 0.4475 -->
      <g transform="translate(24.640625 138.420933) scale(0.1 -0.1)">
       <use xlink:href="#DejaVuSans-30"/>
       <use xlink:href="#DejaVuSans-2e" transform="translate(63.623047 0)"/>
       <use xlink:href="#DejaVuSans-34" transform="translate(95.410156 0)"/>
       <use xlink:href="#DejaVuSans-34" transform="translate(159.033203 0)"/>
       <use xlink:href="#DejaVuSans-37" transform="translate(222.65625 0)"/>
       <use xlink:href="#DejaVuSans-35" transform="translate(286.279297 0)"/>
      </g>
     </g>
    </g>
    <g id="ytick_6">
     <g id="line2d_23">
      <path d="M 66.63125 102.942495 
L 637.2 102.942495 
" clip-path="url(#p4fa424ceca)" style="fill: none; stroke-dasharray: 0.5,0.825; stroke-dashoffset: 0; stroke: #b0b0b0; stroke-opacity: 0.6; stroke-width: 0.5"/>
     </g>
     <g id="line2d_24">
      <g>
       <use xlink:href="#mf3b8fadb3c" x="66.63125" y="102.942495" style="stroke: #000000; stroke-width: 0.8"/>
      </g>
     </g>
     <g id="text_13">
      <!-- 0.4500 -->
      <g transform="translate(24.640625 106.741713) scale(0.1 -0.1)">
       <use xlink:href="#DejaVuSans-30"/>
       <use xlink:href="#DejaVuSans-2e" transform="translate(63.623047 0)"/>
       <use xlink:href="#DejaVuSans-34" transform="translate(95.410156 0)"/>
       <use xlink:href="#DejaVuSans-35" transform="translate(159.033203 0)"/>
       <use xlink:href="#DejaVuSans-30" transform="translate(222.65625 0)"/>
       <use xlink:href="#DejaVuSans-30" transform="translate(286.279297 0)"/>
      </g>
     </g>
    </g>
    <g id="ytick_7">
     <g id="line2d_25">
      <path d="M 66.63125 71.263275 
L 637.2 71.263275 
" clip-path="url(#p4fa424ceca)" style="fill: none; stroke-dasharray: 0.5,0.825; stroke-dashoffset: 0; stroke: #b0b0b0; stroke-opacity: 0.6; stroke-width: 0.5"/>
     </g>
     <g id="line2d_26">
      <g>
       <use xlink:href="#mf3b8fadb3c" x="66.63125" y="71.263275" style="stroke: #000000; stroke-width: 0.8"/>
      </g>
     </g>
     <g id="text_14">
      <!-- 0.4525 -->
      <g transform="translate(24.640625 75.062494) scale(0.1 -0.1)">
       <use xlink:href="#DejaVuSans-30"/>
       <use xlink:href="#DejaVuSans-2e" transform="translate(63.623047 0)"/>
       <use xlink:href="#DejaVuSans-34" transform="translate(95.410156 0)"/>
       <use xlink:href="#DejaVuSans-35" transform="translate(159.033203 0)"/>
       <use xlink:href="#DejaVuSans-32" transform="translate(222.65625 0)"/>
       <use xlink:href="#DejaVuSans-35" transform="translate(286.279297 0)"/>
      </g>
     </g>
    </g>
    <g id="ytick_8">
     <g id="line2d_27">
      <path d="M 66.63125 39.584055 
L 637.2 39.584055 
" clip-path="url(#p4fa424ceca)" style="fill: none; stroke-dasharray: 0.5,0.825; stroke-dashoffset: 0; stroke: #b0b0b0; stroke-opacity: 0.6; stroke-width: 0.5"/>
     </g>
     <g id="line2d_28">
      <g>
       <use xlink:href="#mf3b8fadb3c" x="66.63125" y="39.584055" style="stroke: #000000; stroke-width: 0.8"/>
      </g>
     </g>
     <g id="text_15">
      <!-- 0.4550 -->
      <g transform="translate(24.640625 43.383274) scale(0.1 -0.1)">
       <use xlink:href="#DejaVuSans-30"/>
       <use xlink:href="#DejaVuSans-2e" transform="translate(63.623047 0)"/>
       <use xlink:href="#DejaVuSans-34" transform="translate(95.410156 0)"/>
       <use xlink:href="#DejaVuSans-35" transform="translate(159.033203 0)"/>
       <use xlink:href="#DejaVuSans-35" transform="translate(222.65625 0)"/>
       <use xlink:href="#DejaVuSans-30" transform="translate(286.279297 0)"/>
      </g>
     </g>
    </g>
    <g id="text_16">
     <!-- Running mean of seats_at_50_50 -->
     <g transform="translate(18.282813 237.273281) rotate(-90) scale(0.1 -0.1)">
      <defs>
       <path id="DejaVuSans-52" d="M 2841 2188 
Q 3044 2119 3236 1894 
Q 3428 1669 3622 1275 
L 4263 0 
L 3584 0 
L 2988 1197 
Q 2756 1666 2539 1819 
Q 2322 1972 1947 1972 
L 1259 1972 
L 1259 0 
L 628 0 
L 628 4666 
L 2053 4666 
Q 2853 4666 3247 4331 
Q 3641 3997 3641 3322 
Q 3641 2881 3436 2590 
Q 3231 2300 2841 2188 
z
M 1259 4147 
L 1259 2491 
L 2053 2491 
Q 2509 2491 2742 2702 
Q 2975 2913 2975 3322 
Q 2975 3731 2742 3939 
Q 2509 4147 2053 4147 
L 1259 4147 
z
" transform="scale(0.015625)"/>
       <path id="DejaVuSans-75" d="M 544 1381 
L 544 3500 
L 1119 3500 
L 1119 1403 
Q 1119 906 1312 657 
Q 1506 409 1894 409 
Q 2359 409 2629 706 
Q 2900 1003 2900 1516 
L 2900 3500 
L 3475 3500 
L 3475 0 
L 2900 0 
L 2900 538 
Q 2691 219 2414 64 
Q 2138 -91 1772 -91 
Q 1169 -91 856 284 
Q 544 659 544 1381 
z
M 1991 3584 
L 1991 3584 
z
" transform="scale(0.015625)"/>
       <path id="DejaVuSans-67" d="M 2906 1791 
Q 2906 2416 2648 2759 
Q 2391 3103 1925 3103 
Q 1463 3103 1205 2759 
Q 947 2416 947 1791 
Q 947 1169 1205 825 
Q 1463 481 1925 481 
Q 2391 481 2648 825 
Q 2906 1169 2906 1791 
z
M 3481 434 
Q 3481 -459 3084 -895 
Q 2688 -1331 1869 -1331 
Q 1566 -1331 1297 -1286 
Q 1028 -1241 775 -1147 
L 775 -588 
Q 1028 -725 1275 -790 
Q 1522 -856 1778 -856 
Q 2344 -856 2625 -561 
Q 2906 -266 2906 331 
L 2906 616 
Q 2728 306 2450 153 
Q 2172 0 1784 0 
Q 1141 0 747 490 
Q 353 981 353 1791 
Q 353 2603 747 3093 
Q 1141 3584 1784 3584 
Q 2172 3584 2450 3431 
Q 2728 3278 2906 2969 
L 2906 3500 
L 3481 3500 
L 3481 434 
z
" transform="scale(0.015625)"/>
       <path id="DejaVuSans-6f" d="M 1959 3097 
Q 1497 3097 1228 2736 
Q 959 2375 959 1747 
Q 959 1119 1226 758 
Q 1494 397 1959 397 
Q 2419 397 2687 759 
Q 2956 1122 2956 1747 
Q 2956 2369 2687 2733 
Q 2419 3097 1959 3097 
z
M 1959 3584 
Q 2709 3584 3137 3096 
Q 3566 2609 3566 1747 
Q 3566 888 3137 398 
Q 2709 -91 1959 -91 
Q 1206 -91 779 398 
Q 353 888 353 1747 
Q 353 2609 779 3096 
Q 1206 3584 1959 3584 
z
" transform="scale(0.015625)"/>
       <path id="DejaVuSans-66" d="M 2375 4863 
L 2375 4384 
L 1825 4384 
Q 1516 4384 1395 4259 
Q 1275 4134 1275 3809 
L 1275 3500 
L 2222 3500 
L 2222 3053 
L 1275 3053 
L 1275 0 
L 697 0 
L 697 3053 
L 147 3053 
L 147 3500 
L 697 3500 
L 697 3744 
Q 697 4328 969 4595 
Q 1241 4863 1831 4863 
L 2375 4863 
z
" transform="scale(0.015625)"/>
       <path id="DejaVuSans-73" d="M 2834 3397 
L 2834 2853 
Q 2591 2978 2328 3040 
Q 2066 3103 1784 3103 
Q 1356 3103 1142 2972 
Q 928 2841 928 2578 
Q 928 2378 1081 2264 
Q 1234 2150 1697 2047 
L 1894 2003 
Q 2506 1872 2764 1633 
Q 3022 1394 3022 966 
Q 3022 478 2636 193 
Q 2250 -91 1575 -91 
Q 1294 -91 989 -36 
Q 684 19 347 128 
L 347 722 
Q 666 556 975 473 
Q 1284 391 1588 391 
Q 1994 391 2212 530 
Q 2431 669 2431 922 
Q 2431 1156 2273 1281 
Q 2116 1406 1581 1522 
L 1381 1569 
Q 847 1681 609 1914 
Q 372 2147 372 2553 
Q 372 3047 722 3315 
Q 1072 3584 1716 3584 
Q 2034 3584 2315 3537 
Q 2597 3491 2834 3397 
z
" transform="scale(0.015625)"/>
       <path id="DejaVuSans-74" d="M 1172 4494 
L 1172 3500 
L 2356 3500 
L 2356 3053 
L 1172 3053 
L 1172 1153 
Q 1172 725 1289 603 
Q 1406 481 1766 481 
L 2356 481 
L 2356 0 
L 1766 0 
Q 1100 0 847 248 
Q 594 497 594 1153 
L 594 3053 
L 172 3053 
L 172 3500 
L 594 3500 
L 594 4494 
L 1172 4494 
z
" transform="scale(0.015625)"/>
       <path id="DejaVuSans-5f" d="M 3263 -1063 
L 3263 -1509 
L -63 -1509 
L -63 -1063 
L 3263 -1063 
z
" transform="scale(0.015625)"/>
      </defs>
      <use xlink:href="#DejaVuSans-52"/>
      <use xlink:href="#DejaVuSans-75" transform="translate(64.982422 0)"/>
      <use xlink:href="#DejaVuSans-6e" transform="translate(128.361328 0)"/>
      <use xlink:href="#DejaVuSans-6e" transform="translate(191.740234 0)"/>
      <use xlink:href="#DejaVuSans-69" transform="translate(255.119141 0)"/>
      <use xlink:href="#DejaVuSans-6e" transform="translate(282.902344 0)"/>
      <use xlink:href="#DejaVuSans-67" transform="translate(346.28125 0)"/>
      <use xlink:href="#DejaVuSans-20" transform="translate(409.757812 0)"/>
      <use xlink:href="#DejaVuSans-6d" transform="translate(441.544922 0)"/>
      <use xlink:href="#DejaVuSans-65" transform="translate(538.957031 0)"/>
      <use xlink:href="#DejaVuSans-61" transform="translate(600.480469 0)"/>
      <use xlink:href="#DejaVuSans-6e" transform="translate(661.759766 0)"/>
      <use xlink:href="#DejaVuSans-20" transform="translate(725.138672 0)"/>
      <use xlink:href="#DejaVuSans-6f" transform="translate(756.925781 0)"/>
      <use xlink:href="#DejaVuSans-66" transform="translate(818.107422 0)"/>
      <use xlink:href="#DejaVuSans-20" transform="translate(853.3125 0)"/>
      <use xlink:href="#DejaVuSans-73" transform="translate(885.099609 0)"/>
      <use xlink:href="#DejaVuSans-65" transform="translate(937.199219 0)"/>
      <use xlink:href="#DejaVuSans-61" transform="translate(998.722656 0)"/>
      <use xlink:href="#DejaVuSans-74" transform="translate(1060.001953 0)"/>
      <use xlink:href="#DejaVuSans-73" transform="translate(1099.210938 0)"/>
      <use xlink:href="#DejaVuSans-5f" transform="translate(1151.310547 0)"/>
      <use xlink:href="#DejaVuSans-61" transform="translate(1201.310547 0)"/>
      <use xlink:href="#DejaVuSans-74" transform="translate(1262.589844 0)"/>
      <use xlink:href="#DejaVuSans-5f" transform="translate(1301.798828 0)"/>
      <use xlink:href="#DejaVuSans-35" transform="translate(1351.798828 0)"/>
      <use xlink:href="#DejaVuSans-30" transform="translate(1415.421875 0)"/>
      <use xlink:href="#DejaVuSans-5f" transform="translate(1479.044922 0)"/>
      <use xlink:href="#DejaVuSans-35" transform="translate(1529.044922 0)"/>
      <use xlink:href="#DejaVuSans-30" transform="translate(1592.667969 0)"/>
     </g>
    </g>
   </g>
   <g id="line2d_29">
    <path d="M 92.566193 270.441818 
L 92.835919 270.441818 
L 93.116019 181.961883 
L 93.427242 161.42117 
L 93.520609 157.857079 
L 93.546544 160.819835 
L 93.619162 168.342913 
L 93.696968 165.359852 
L 93.733277 160.236415 
L 93.977068 139.728857 
L 94.27273 137.148549 
L 94.277917 137.551248 
L 94.646196 157.398797 
L 94.755124 163.010861 
L 94.83293 161.701936 
L 94.900361 159.023199 
L 95.066347 147.708494 
L 95.118217 150.198014 
L 95.123404 150.441423 
L 95.180462 148.15217 
L 95.600612 128.021411 
L 95.699166 127.919936 
L 96.347546 102.443688 
L 96.389042 101.107048 
L 96.482409 101.670933 
L 96.565401 102.15009 
L 96.580963 101.673916 
L 96.627646 100.267262 
L 96.715826 100.787724 
L 96.840315 101.485979 
L 96.855876 101.042691 
L 97.187846 92.296213 
L 97.255278 92.762978 
L 97.499069 94.344155 
L 97.519817 93.862124 
L 97.582061 92.439932 
L 97.665054 92.965953 
L 97.877723 94.238924 
L 97.898471 93.791499 
L 98.142262 86.211513 
L 98.603908 70.280283 
L 99.158922 60.323375 
L 99.298972 56.617666 
L 99.356029 57.190107 
L 99.392338 57.549409 
L 99.433835 56.856135 
L 99.703561 51.700003 
L 100.123711 38.478182 
L 100.211891 39.472965 
L 100.279322 41.29507 
L 100.787652 60.597005 
L 101.000321 63.199396 
L 101.316731 66.20171 
L 101.498277 69.082516 
L 101.944362 64.806578 
L 101.996233 65.13634 
L 102.099974 66.497918 
L 102.898778 81.233612 
L 103.06995 82.37442 
L 103.516036 88.377336 
L 103.661273 89.194074 
L 104.128106 95.006769 
L 104.190351 95.426041 
L 104.434142 97.42886 
L 105.139579 99.323729 
L 105.372996 101.026026 
L 105.564917 101.376755 
L 105.580478 101.230653 
L 105.736089 98.756445 
L 106.03175 95.009335 
L 106.062873 94.742249 
L 106.151052 94.937217 
L 106.322225 95.308551 
L 106.342973 95.133662 
L 106.472649 94.052426 
L 106.555641 94.234711 
L 106.82018 94.801583 
L 106.840929 94.633529 
L 106.939482 93.841898 
L 107.001727 94.236883 
L 107.141777 95.100315 
L 107.162525 94.935538 
L 107.421877 93.626385 
L 107.432251 93.648125 
L 107.639733 94.327156 
L 107.930207 96.426761 
L 108.008013 96.716354 
L 108.262178 99.72103 
L 108.365919 100.076787 
L 108.822378 106.159838 
L 109.242528 112.063835 
L 109.367017 112.203058 
L 109.807916 112.656251 
L 110.113951 116.397189 
L 110.388864 120.637234 
L 110.611907 121.609336 
L 110.762331 121.71864 
L 111.078741 123.403075 
L 111.11505 123.487227 
L 111.447021 125.230268 
L 111.478143 125.309418 
L 111.924228 127.911617 
L 112.095401 127.806914 
L 112.86827 122.483617 
L 112.883831 122.596909 
L 113.018694 122.796017 
L 113.143183 122.697959 
L 113.246924 122.197138 
L 113.283233 122.456891 
L 113.418096 123.051542 
L 113.444031 122.872812 
L 113.703383 121.109636 
L 113.807124 121.127607 
L 114.092411 121.176136 
L 114.107972 121.073558 
L 114.154656 120.766708 
L 114.263584 120.786903 
L 114.647425 120.959096 
L 114.989769 122.533374 
L 115.098697 122.644847 
L 115.684833 125.770391 
L 116.333213 125.648315 
L 116.6185 124.570405 
L 116.675557 124.476936 
L 117.111269 121.189718 
L 117.806332 111.74234 
L 118.361346 103.179684 
L 118.42359 103.231695 
L 118.459899 103.378604 
L 118.776309 105.049169 
L 118.807431 104.899868 
L 118.854114 104.676579 
L 118.947481 104.74775 
L 119.191272 104.931232 
L 119.21202 104.833301 
L 119.222394 104.784392 
L 119.315761 104.854207 
L 119.730724 105.297724 
L 119.979702 106.136028 
L 120.213119 106.293492 
L 120.233867 106.198156 
L 120.296112 105.913003 
L 120.394666 105.979843 
L 120.591773 106.112115 
L 120.612521 106.018199 
L 120.674766 105.737285 
L 120.773319 105.803843 
L 120.788881 105.814309 
L 120.814816 105.698029 
L 121.675865 101.332361 
L 122.002648 99.334564 
L 123.024495 94.707588 
L 124.041155 86.94338 
L 124.352377 85.484029 
L 124.933326 81.755218 
L 125.348289 80.341267 
L 125.446843 80.474474 
L 125.975921 81.176152 
L 126.01223 81.065396 
L 126.126345 80.718867 
L 126.204151 80.82079 
L 126.302705 80.904436 
L 126.333827 80.810657 
L 126.370136 80.723812 
L 126.442755 80.81826 
L 126.681359 81.989303 
L 126.733229 81.833185 
L 126.857718 81.989109 
L 126.88884 81.851846 
L 128.984405 67.500332 
L 129.975129 61.848878 
L 130.058122 61.665815 
L 130.125553 61.779128 
L 130.644258 62.637356 
L 130.696128 62.523783 
L 131.266702 61.294573 
L 131.328947 61.39652 
L 131.422314 61.743237 
L 131.60386 62.113803 
L 131.723162 62.381904 
L 131.780219 62.203008 
L 132.107003 60.943486 
L 133.04067 59.131304 
L 133.07698 59.190146 
L 133.258526 59.482779 
L 133.315583 59.370295 
L 133.372641 59.258126 
L 133.440072 59.366224 
L 133.528252 59.433279 
L 133.471195 59.342126 
L 133.564561 59.362177 
L 134.083265 58.360009 
L 134.14551 58.459443 
L 134.306308 58.714942 
L 134.363366 58.606326 
L 134.576034 58.204082 
L 134.643466 58.310777 
L 135.141422 59.08822 
L 135.198479 58.981231 
L 135.348903 58.700539 
L 135.416335 58.804529 
L 135.587507 59.06704 
L 135.644565 58.961187 
L 135.706809 58.846031 
L 135.774241 58.948932 
L 135.893543 59.321989 
L 136.121772 59.890467 
L 136.303319 60.125281 
L 136.137333 59.878968 
L 136.350002 60.038941 
L 136.355189 60.029359 
L 136.422621 60.128921 
L 136.521174 60.46293 
L 136.697534 60.942493 
L 136.723469 60.894452 
L 136.806462 60.860627 
L 136.837584 60.905563 
L 136.847958 60.920528 
L 136.894641 60.800329 
L 136.96726 60.581719 
L 137.029504 60.688584 
L 137.257734 61.20183 
L 137.605266 62.313015 
L 137.610453 62.320209 
L 137.66751 62.214988 
L 137.80756 62.007937 
L 137.833496 62.110655 
L 138.3522 65.015007 
L 138.813846 67.70239 
L 138.933148 68.712743 
L 139.275493 71.905413 
L 140.644872 81.173318 
L 141.194698 82.893653 
L 141.703028 83.4654 
L 141.91051 83.822854 
L 141.972754 83.874461 
L 142.019437 83.775601 
L 142.092056 83.622191 
L 142.180236 83.695352 
L 142.278789 83.776813 
L 142.325473 83.678653 
L 142.434401 83.192806 
L 142.621134 82.51792 
L 142.673004 82.561675 
L 143.368068 84.74534 
L 143.642981 85.093964 
L 143.777844 85.47876 
L 143.829715 85.371172 
L 143.943829 84.885286 
L 144.493656 82.747376 
L 144.882684 81.832617 
L 145.017547 81.943059 
L 145.359891 82.120714 
L 145.370266 82.100484 
L 146.231314 80.181179 
L 146.667026 78.473838 
L 146.708522 78.509333 
L 146.962687 78.864432 
L 147.232413 79.477941 
L 147.242787 79.458905 
L 147.46583 78.913767 
L 147.600693 79.026178 
L 147.662937 79.214984 
L 147.922289 80.097181 
L 147.989721 79.97436 
L 148.020843 79.917774 
L 148.103836 79.984823 
L 148.160893 80.166685 
L 148.555108 81.290398 
L 148.586231 81.233652 
L 148.684784 81.054373 
L 148.772964 81.122981 
L 149.457653 81.621912 
L 149.49915 81.547223 
L 149.924487 80.563989 
L 150.246084 78.68884 
L 150.572867 77.229468 
L 150.88409 76.395149 
L 151.122693 75.998887 
L 151.205686 76.067935 
L 151.454664 76.273913 
L 151.511722 76.179897 
L 151.651772 75.949901 
L 151.734764 76.018401 
L 152.284591 76.467403 
L 152.336461 76.382946 
L 152.51282 75.895255 
L 152.870726 74.907665 
L 153.041898 75.048842 
L 153.098956 74.958446 
L 153.721401 73.773266 
L 154.706938 69.999172 
L 154.779557 70.063122 
L 155.028535 70.281248 
L 155.090779 70.190522 
L 155.303448 69.689236 
L 155.713224 68.5753 
L 155.977763 68.011609 
L 156.444597 66.652591 
L 156.454971 66.66203 
L 156.532777 66.874448 
L 156.792129 67.331782 
L 156.890683 67.560739 
L 157.642803 69.568698 
L 157.881407 69.770413 
L 157.943652 69.684131 
L 158.026644 69.569344 
L 158.109637 69.63926 
L 158.15632 69.67851 
L 158.218565 69.592677 
L 158.343054 68.743888 
L 158.975873 64.568466 
L 159.204103 64.17387 
L 159.20929 64.167252 
L 159.271534 64.257791 
L 160.184453 67.43231 
L 160.360813 68.027232 
L 160.402309 67.983998 
L 160.682409 68.36175 
L 160.936574 69.11292 
L 161.045502 68.793304 
L 161.393034 67.989407 
L 161.465652 67.895767 
L 161.512336 68.00003 
L 161.818371 68.556416 
L 162.316327 69.098646 
L 163.208498 71.341875 
L 164.048798 71.843313 
L 164.251093 71.550104 
L 164.391143 71.390962 
L 164.427452 71.491529 
L 164.790545 72.177847 
L 165.215883 72.621031 
L 165.392242 72.788851 
L 165.770896 73.191966 
L 166.460772 74.736877 
L 166.917232 74.912058 
L 167.171397 74.757941 
L 167.690101 74.972644 
L 168.027258 74.714679 
L 168.379977 74.818097 
L 168.711948 74.529969 
L 168.722322 74.556654 
L 168.945365 74.831917 
L 169.183969 74.859307 
L 169.588558 74.179985 
L 169.977586 73.321793 
L 171.05649 71.834769 
L 171.155044 71.583954 
L 171.23285 71.636575 
L 171.595942 71.756499 
L 172.016093 71.42839 
L 172.700782 71.761743 
L 173.110558 71.449994 
L 173.193551 71.37372 
L 173.447716 71.24268 
L 173.919736 71.423343 
L 174.428066 70.684217 
L 174.697793 70.144443 
L 174.723728 70.161693 
L 175.107569 70.287581 
L 175.294302 69.917482 
L 175.532906 69.219363 
L 175.600338 69.35547 
L 176.015301 70.074701 
L 176.233157 70.343573 
L 176.357646 70.442491 
L 176.378394 70.41989 
L 176.907472 69.686084 
L 177.48842 68.141524 
L 177.555852 68.186467 
L 177.877448 68.532662 
L 178.069369 68.703107 
L 178.22498 68.672701 
L 178.416901 68.630952 
L 178.769619 68.992179 
L 179.392064 70.166538 
L 179.822589 70.358115 
L 179.83815 70.315882 
L 180.061192 70.03166 
L 180.517652 69.714573 
L 180.756256 69.992068 
L 181.145284 70.607979 
L 181.41501 70.899996 
L 181.78329 71.46961 
L 181.938901 71.156705 
L 182.545785 69.856043 
L 182.784389 69.465406 
L 183.022993 69.151995 
L 183.147482 68.878172 
L 183.323841 68.653857 
L 183.344589 68.666687 
L 183.614315 68.708481 
L 183.889228 68.289958 
L 184.262695 67.630286 
L 184.55317 67.498693 
L 184.703594 67.469233 
L 185.175614 67.165881 
L 185.798059 67.680226 
L 185.906987 68.167734 
L 186.332324 69.834515 
L 186.513871 69.96483 
L 187.245244 70.268633 
L 187.385294 70.285419 
L 187.582401 70.271267 
L 187.903998 69.813316 
L 188.101105 69.476 
L 188.147789 69.503015 
L 188.251529 69.43663 
L 188.557565 68.99923 
L 188.848039 68.492752 
L 188.873974 68.507912 
L 188.967341 68.437034 
L 189.081456 68.182738 
L 189.335621 67.855194 
L 189.439362 67.612023 
L 189.963253 66.631984 
L 190.61682 66.187505 
L 190.979913 66.280884 
L 191.197768 66.233945 
L 191.695724 66.65763 
L 191.887645 67.226328 
L 191.934328 67.116523 
L 192.401162 65.759267 
L 192.743506 65.60655 
L 192.997671 65.635966 
L 193.521563 64.146971 
L 194.263309 61.803555 
L 194.496726 61.73285 
L 194.501913 61.743469 
L 194.813136 62.4304 
L 195.082862 62.734477 
L 195.337027 63.012907 
L 196.03209 64.20186 
L 196.042464 64.193332 
L 196.213637 63.914386 
L 196.364061 63.704196 
L 196.405557 63.743157 
L 196.924261 65.016617 
L 197.334037 66.014745 
L 197.458526 66.206936 
L 197.634886 66.312455 
L 197.811245 66.53247 
L 198.106906 67.347045 
L 198.319575 67.676866 
L 198.827905 67.829208 
L 199.061322 67.641919 
L 199.108005 67.730775 
L 199.95868 69.575584 
L 200.202471 70.177907 
L 200.544815 70.658889 
L 200.570751 70.636913 
L 201.39549 70.082381 
L 201.457735 70.224656 
L 201.654842 70.482524 
L 201.893446 70.483571 
L 202.049057 70.20884 
L 203.304321 67.232273 
L 203.973449 65.333409 
L 204.139434 65.333835 
L 204.538837 66.065413 
L 204.616642 65.984829 
L 204.793002 65.841629 
L 204.803376 65.847077 
L 204.839685 65.825766 
L 204.870807 65.761382 
L 205.472504 64.543684 
L 205.539935 64.619764 
L 205.643676 64.708369 
L 205.69036 64.673058 
L 206.307617 64.341736 
L 206.753703 64.458785 
L 207.111609 64.324115 
L 207.365774 64.583015 
L 207.692557 65.383862 
L 208.216448 67.677984 
L 210.151214 73.160054 
L 210.571365 73.868835 
L 210.659544 73.798104 
L 210.996702 73.668969 
L 211.095256 73.596747 
L 211.639895 73.304297 
L 212.17416 73.654273 
L 212.563188 74.084468 
L 213.683589 74.441228 
L 213.844387 74.177833 
L 214.29566 73.037343 
L 214.985536 71.218441 
L 215.519801 70.953523 
L 215.722096 71.158502 
L 215.950326 71.318932 
L 216.074815 71.256608 
L 216.396411 71.151599 
L 216.743943 71.186117 
L 217.428632 70.814501 
L 217.615366 70.774271 
L 217.781351 70.785538 
L 217.921401 70.725338 
L 218.082199 70.740427 
L 218.294868 70.711674 
L 218.6424 70.29148 
L 219.036615 69.869973 
L 219.757613 68.755771 
L 220.136267 68.620064 
L 220.245195 68.786322 
L 221.178863 70.056345 
L 221.355222 70.013974 
L 221.541955 70.01713 
L 222.013976 70.333569 
L 222.776471 71.308066 
L 224.187346 72.007604 
L 224.550439 72.421831 
L 224.576374 72.403505 
L 224.742359 72.297819 
L 224.79423 72.375544 
L 224.825352 72.39359 
L 224.903158 72.338764 
L 225.328495 72.171065 
L 225.484106 72.113307 
L 226.184357 71.756116 
L 226.563011 71.787579 
L 226.983161 71.627263 
L 227.579671 71.74463 
L 227.84421 71.429514 
L 228.342165 70.773898 
L 228.855682 70.295609 
L 229.05279 70.169504 
L 229.135783 70.09206 
L 229.846407 69.076451 
L 229.98127 69.246581 
L 230.520722 70.312586 
L 231.023865 70.625128 
L 231.17429 70.727512 
L 231.179477 70.724085 
L 231.73449 70.483704 
L 232.678531 71.647596 
L 232.844517 71.828957 
L 233.264667 72.234097 
L 233.503271 72.440999 
L 234.079032 73.059709 
L 234.898585 73.474336 
L 235.106066 73.575529 
L 235.329109 73.539121 
L 235.707763 73.115243 
L 235.868561 73.141594 
L 236.112352 73.113524 
L 236.278337 73.136409 
L 236.610308 73.140065 
L 236.698488 73.213595 
L 236.864473 73.26245 
L 237.154947 73.20399 
L 237.403925 73.407416 
L 237.65809 73.570319 
L 237.730709 73.70523 
L 237.958939 73.967281 
L 238.192355 74.16287 
L 238.48283 74.739974 
L 238.949663 75.555021 
L 239.582482 75.879994 
L 239.821086 76.374804 
L 240.095999 76.90029 
L 240.360538 77.067793 
L 240.542085 77.238658 
L 241.060789 77.735445 
L 241.257896 77.909597 
L 241.683234 78.28143 
L 241.875154 78.229895 
L 242.590966 77.888045 
L 243.244533 77.976158 
L 243.514259 77.92968 
L 244.489423 78.344831 
L 244.738401 78.48536 
L 244.878451 78.642017 
L 245.443838 79.178367 
L 246.112966 79.263964 
L 246.320448 79.256608 
L 246.455311 79.183598 
L 246.80803 78.822578 
L 247.440849 77.610416 
L 248.10479 76.228371 
L 248.234466 76.380444 
L 248.514566 76.55459 
L 248.670177 76.588153 
L 250.532325 77.051138 
L 251.372625 76.399864 
L 251.699409 76.100446 
L 252.721256 75.349734 
L 253.779412 73.949717 
L 254.08026 73.646829 
L 254.650835 72.997202 
L 255.190287 72.811296 
L 255.78161 72.88389 
L 255.952782 72.910525 
L 256.310688 73.139262 
L 256.461112 73.14979 
L 256.606349 73.084979 
L 259.656329 68.824648 
L 259.874185 68.829788 
L 260.449946 68.9092 
L 261.062017 68.699688 
L 261.326556 68.845806 
L 261.492541 68.784497 
L 261.829699 68.503279 
L 262.835985 68.094952 
L 263.204265 68.1022 
L 263.904515 67.862081 
L 264.117184 67.818153 
L 264.397284 67.796707 
L 264.952297 67.866253 
L 265.170153 67.876822 
L 266.617337 68.237172 
L 266.783323 68.273705 
L 267.011552 68.460244 
L 267.307214 68.633373 
L 267.551005 68.629578 
L 268.059335 69.382017 
L 268.520981 70.051204 
L 268.624722 70.33663 
L 268.96188 71.143098 
L 270.414251 73.739114 
L 270.927768 74.144465 
L 272.048169 74.355377 
L 272.349017 74.107801 
L 272.359391 74.119129 
L 273.106325 74.772322 
L 273.41236 74.969754 
L 273.531662 74.944151 
L 274.205978 74.226643 
L 274.802487 74.039771 
L 275.175954 74.031859 
L 275.964384 73.500344 
L 276.405283 73.105556 
L 276.83062 73.339656 
L 276.996605 73.357285 
L 277.318202 73.315959 
L 277.696856 73.559985 
L 277.930273 73.738612 
L 278.288179 73.963093 
L 278.516408 73.968596 
L 279.268529 74.060022 
L 279.667931 73.736267 
L 280.80908 72.44845 
L 281.275914 72.465835 
L 281.483395 72.48331 
L 282.10584 72.543476 
L 282.567487 72.137608 
L 282.868335 72.105717 
L 283.470032 71.690029 
L 284.486692 70.597498 
L 284.854972 70.58735 
L 285.083202 70.357289 
L 285.461856 70.064652 
L 285.731582 69.816449 
L 286.146545 69.465968 
L 286.151732 69.471353 
L 287.173579 70.375182 
L 287.83752 70.447996 
L 287.967196 70.275278 
L 288.667447 68.697787 
L 288.90605 68.581257 
L 289.108345 68.754425 
L 289.352136 68.962052 
L 289.813783 69.590626 
L 290.093883 69.863957 
L 290.436227 70.073527 
L 290.628148 70.237163 
L 290.685205 70.168981 
L 291.110543 69.833185 
L 291.229845 69.89661 
L 291.546254 70.059833 
L 292.080519 70.319985 
L 292.946755 71.034271 
L 293.802617 71.150264 
L 294.144961 71.113934 
L 294.523615 71.334275 
L 295.452096 71.694337 
L 296.199029 72.271222 
L 296.681424 72.284302 
L 296.930402 72.292817 
L 297.45948 72.31407 
L 297.786264 72.287189 
L 298.149357 72.265996 
L 298.439831 72.255701 
L 298.683622 72.336162 
L 298.953348 72.291237 
L 299.342376 71.995415 
L 299.705469 71.745118 
L 301.173401 71.209368 
L 301.391257 71.153114 
L 301.801033 71.092065 
L 302.470161 71.151664 
L 303.108167 70.991257 
L 303.683929 71.027041 
L 304.187072 70.687196 
L 304.425676 70.584093 
L 304.876948 70.585439 
L 305.22448 70.212187 
L 305.297098 70.280536 
L 305.748371 70.555394 
L 306.282636 70.577852 
L 306.666477 70.293949 
L 307.262987 69.797892 
L 308.663488 70.269651 
L 309.182192 70.598998 
L 309.57122 70.58474 
L 310.276657 70.406423 
L 310.525635 70.582928 
L 310.883541 70.761765 
L 311.168828 70.942864 
L 311.386684 71.079333 
L 311.573417 71.014741 
L 312.273668 70.415887 
L 312.771624 70.089406 
L 313.046537 69.952018 
L 313.383695 69.922844 
L 313.653421 69.69249 
L 313.995765 69.487666 
L 314.768634 69.289019 
L 315.505194 69.577434 
L 316.00315 70.413911 
L 316.252128 70.487944 
L 317.227292 70.612672 
L 317.663003 70.318144 
L 317.860111 70.271907 
L 318.301009 69.976775 
L 318.586296 69.838722 
L 319.037569 69.541239 
L 319.696323 69.01295 
L 320.381012 68.858909 
L 320.749292 68.836609 
L 320.961961 68.87217 
L 321.413233 69.091376 
L 321.584406 69.264957 
L 321.620715 69.207793 
L 322.118671 68.594444 
L 322.326152 68.536681 
L 322.720368 68.521426 
L 323.249446 67.825182 
L 323.965257 66.858695 
L 324.209048 66.883788 
L 324.530645 67.169252 
L 324.821119 67.277097 
L 325.106406 67.461363 
L 325.749599 67.87868 
L 326.247555 67.805973 
L 326.408353 67.958233 
L 327.030798 68.689094 
L 327.487258 68.910655 
L 328.343119 69.501203 
L 328.597284 69.448712 
L 328.830701 69.477804 
L 329.748807 70.402216 
L 330.101526 70.721514 
L 330.417936 70.682269 
L 331.112999 70.529554 
L 331.351603 70.681852 
L 331.642077 70.633831 
L 333.027017 69.104633 
L 333.67021 68.288084 
L 333.862131 68.333023 
L 334.323777 68.575202 
L 334.728366 68.30723 
L 335.236696 67.961675 
L 335.397495 67.955749 
L 336.07181 67.824596 
L 336.523082 67.818485 
L 336.880988 67.806083 
L 337.129966 67.975302 
L 337.389318 68.328642 
L 337.902835 69.364475 
L 339.91022 72.010394 
L 340.366679 72.238711 
L 341.279598 72.012416 
L 341.94354 72.26502 
L 342.306632 72.413985 
L 343.43222 72.537557 
L 344.02873 71.81728 
L 344.682297 71.016672 
L 345.283994 70.914512 
L 346.357711 71.032298 
L 347.348436 70.790619 
L 347.929384 70.804001 
L 348.359909 70.555211 
L 348.800807 70.279979 
L 349.495871 69.786426 
L 349.858963 69.773021 
L 350.927494 70.465495 
L 351.2854 70.455963 
L 351.544752 70.516208 
L 351.788543 70.675084 
L 351.913031 70.840885 
L 351.975276 70.748986 
L 352.410987 70.298816 
L 353.578071 70.432474 
L 353.93079 70.424894 
L 354.257574 70.605371 
L 355.046004 71.34378 
L 356.145657 73.166124 
L 356.399822 73.218719 
L 356.794037 73.407169 
L 358.106358 74.250037 
L 358.376084 74.150684 
L 361.125215 74.562153 
L 361.685416 74.47862 
L 361.991451 74.423604 
L 362.447911 74.161673 
L 362.805817 74.153243 
L 363.018485 74.084117 
L 363.557937 73.750148 
L 363.796541 73.783906 
L 364.346368 73.775902 
L 364.714647 73.531246 
L 364.979187 73.439583 
L 365.176294 73.715043 
L 365.461581 73.998215 
L 365.819487 74.120036 
L 365.995846 74.042197 
L 366.467867 73.762805 
L 367.572707 72.93762 
L 368.241835 72.951115 
L 369.045826 72.560819 
L 370.057299 71.539656 
L 370.394457 71.258931 
L 370.985779 70.946605 
L 372.547079 68.982939 
L 373.029473 68.712581 
L 373.677853 68.309796 
L 374.269176 68.54099 
L 374.487032 68.563018 
L 374.959052 68.298509 
L 375.633368 67.576353 
L 375.825288 67.503098 
L 376.037957 67.468787 
L 376.395863 67.652862 
L 376.639654 67.691258 
L 378.086838 67.356208 
L 378.325442 67.293124 
L 379.062001 67.17988 
L 379.316166 67.344233 
L 379.523648 67.622716 
L 379.964547 68.162553 
L 380.306891 68.403214 
L 380.944897 68.321 
L 381.582903 68.633861 
L 381.821507 68.792492 
L 382.220909 69.206168 
L 383.465799 70.527011 
L 384.228294 70.557488 
L 384.710689 70.517736 
L 385.151587 70.68731 
L 385.442061 70.712593 
L 386.069693 71.008414 
L 386.692138 71.232677 
L 386.967051 71.385335 
L 388.761767 71.601795 
L 389.07299 71.489457 
L 389.498327 71.642135 
L 389.908103 71.608665 
L 390.162268 71.461149 
L 391.095935 71.519115 
L 391.640575 71.224582 
L 391.998481 70.998454 
L 392.31489 70.888888 
L 392.68317 70.892097 
L 392.838781 70.864677 
L 393.139629 70.657248 
L 393.601276 70.434086 
L 394.898036 70.152459 
L 395.105518 70.157466 
L 395.779833 70.069667 
L 396.158487 70.190174 
L 396.464522 70.212839 
L 396.754997 70.153192 
L 397.299636 70.10457 
L 398.368166 70.184476 
L 398.596396 70.227667 
L 399.047669 70.391817 
L 399.836099 70.270773 
L 400.116199 70.212341 
L 400.894255 69.752198 
L 401.304031 69.746942 
L 401.812361 69.725041 
L 403.565581 69.326124 
L 403.835307 69.264965 
L 404.42663 68.955994 
L 405.07501 68.88327 
L 406.340648 69.000424 
L 406.719301 68.853636 
L 407.652969 68.700489 
L 408.130176 68.876284 
L 408.607384 68.85553 
L 410.811876 70.130828 
L 411.299458 70.103039 
L 413.021556 69.496335 
L 413.612878 69.198132 
L 414.053777 68.959475 
L 414.447992 68.807223 
L 415.744752 68.921982 
L 416.818469 68.738848 
L 417.809194 68.80041 
L 418.39533 68.511593 
L 419.147451 68.419122 
L 420.008499 68.456607 
L 420.215981 68.443858 
L 420.527203 68.386755 
L 420.781368 68.33836 
L 421.102965 68.28094 
L 421.414187 68.311446 
L 421.683913 68.245253 
L 421.964014 68.28416 
L 422.56571 68.52455 
L 423.981772 68.876656 
L 424.344865 68.967448 
L 424.645713 68.906543 
L 424.982871 68.929132 
L 425.620877 68.927258 
L 426.336689 68.275208 
L 426.782774 68.095205 
L 427.534895 68.111988 
L 427.87724 68.007631 
L 428.411505 67.985484 
L 428.867964 67.750326 
L 429.4541 67.255289 
L 429.697891 67.187088 
L 429.915747 67.170539 
L 430.112854 67.092276 
L 432.172109 65.798148 
L 432.509267 65.745536 
L 432.960539 65.568575 
L 433.422186 65.972384 
L 433.868271 66.427775 
L 434.791565 66.697816 
L 435.18578 66.804346 
L 435.585182 66.984188 
L 436.90269 67.63759 
L 437.27097 67.429072 
L 437.597754 67.338883 
L 438.111271 67.535766 
L 438.463989 67.736117 
L 438.614414 67.653942 
L 438.889327 67.511691 
L 439.418405 67.710145 
L 440.896711 68.702823 
L 441.285739 68.93871 
L 442.426888 68.531363 
L 443.874073 66.552394 
L 444.978912 65.952497 
L 445.928141 66.221726 
L 446.773628 66.58548 
L 447.214527 66.363865 
L 447.62949 66.081066 
L 448.039266 66.093485 
L 448.635776 66.081485 
L 448.988495 66.107788 
L 450.145205 66.187749 
L 450.388996 66.088326 
L 451.960669 66.458547 
L 453.568651 67.243646 
L 454.00955 67.424623 
L 454.486758 67.567059 
L 455.747208 67.877985 
L 455.985812 67.886247 
L 456.706811 67.820489 
L 456.929854 67.820114 
L 457.256637 67.852517 
L 457.593795 68.165886 
L 458.304419 68.691102 
L 458.911303 68.901582 
L 459.113598 68.738683 
L 459.47669 68.637662 
L 460.980932 68.385027 
L 461.852355 68.407654 
L 462.687469 68.318503 
L 463.185424 68.506491 
L 463.755999 68.943081 
L 464.072408 69.092324 
L 465.369168 68.890892 
L 466.240591 69.130426 
L 466.551814 69.271689 
L 467.039396 69.263277 
L 467.926379 69.933892 
L 468.429522 70.077674 
L 469.18683 70.07736 
L 469.549923 70.101999 
L 469.949325 70.04777 
L 470.613266 70.002023 
L 471.81666 70.514519 
L 472.143443 70.670714 
L 472.46504 70.817949 
L 473.362398 70.714993 
L 473.56988 70.700817 
L 473.891476 70.736527 
L 474.316813 70.907576 
L 474.861453 71.251126 
L 477.04001 72.263857 
L 477.403102 72.289857 
L 477.558714 72.420969 
L 478.341957 73.240139 
L 480.42196 73.409457 
L 480.852484 73.271855 
L 481.163707 73.202299 
L 481.770591 72.941102 
L 482.107748 72.759064 
L 483.352638 72.814617 
L 483.705357 72.844103 
L 484.03214 72.9994 
L 484.763513 73.49087 
L 485.842417 74.659347 
L 486.568603 74.862955 
L 487.808306 75.359794 
L 488.093593 75.313313 
L 490.899782 75.553757 
L 491.496292 75.523219 
L 491.734895 75.441001 
L 492.206916 75.283779 
L 493.607417 75.061058 
L 494.120934 75.013649 
L 494.821184 74.955683 
L 495.163529 75.196972 
L 495.568118 75.273005 
L 496.14388 75.021666 
L 497.290216 74.462623 
L 498.016401 74.440961 
L 499.038248 74.088002 
L 499.582888 73.637976 
L 500.106779 73.294046 
L 500.708475 73.042327 
L 502.285336 71.705494 
L 502.824788 71.519326 
L 503.208629 71.32075 
L 503.493916 71.282492 
L 504.567634 71.313748 
L 505.335316 70.750635 
L 505.931825 70.729923 
L 506.377911 70.824713 
L 508.514971 70.464449 
L 509.111481 70.651067 
L 510.034774 71.273898 
L 510.667593 71.246479 
L 512.265202 72.128924 
L 513.183308 72.737811 
L 514.00286 72.727889 
L 514.438572 72.744052 
L 514.869096 72.825734 
L 515.164757 72.872816 
L 515.833886 73.063768 
L 516.414834 73.243396 
L 516.679373 73.314737 
L 518.48965 73.423544 
L 518.774938 73.38525 
L 519.257332 73.48763 
L 519.635986 73.423437 
L 519.967957 73.364347 
L 520.823819 73.35598 
L 521.581126 73.057593 
L 525.206868 72.377036 
L 526.399887 72.409716 
L 527.074202 72.377987 
L 528.957098 72.493329 
L 529.563982 72.476057 
L 529.844082 72.398993 
L 530.65326 72.081876 
L 531.073411 72.104812 
L 531.581741 72.055678 
L 534.854763 71.475695 
L 536.068531 71.510878 
L 536.478307 71.415399 
L 537.375665 71.339642 
L 537.847685 71.431931 
L 538.319706 71.442672 
L 538.869532 71.728454 
L 540.45158 72.312277 
L 541.074025 72.273932 
L 542.930985 71.775847 
L 543.97358 71.349337 
L 544.357421 71.383035 
L 545.519318 71.409948 
L 546.587849 71.30428 
L 547.552638 71.306443 
L 548.278824 71.046842 
L 548.564111 71.022477 
L 549.176182 71.169006 
L 549.606706 71.108764 
L 549.923116 71.066612 
L 550.249899 70.996025 
L 550.498877 70.988977 
L 551.147257 70.954665 
L 551.68671 70.958681 
L 552.324716 71.115544 
L 552.791549 71.133874 
L 553.522922 71.330456 
L 555.250206 71.418995 
L 556.08532 70.86971 
L 556.500283 70.77952 
L 557.262778 70.75759 
L 557.776295 70.768513 
L 558.061582 70.691258 
L 558.59066 70.47546 
L 559.150861 70.155303 
L 559.446522 70.078248 
L 560.167521 69.824931 
L 561.879244 69.083681 
L 562.864782 69.007646 
L 563.144882 69.247953 
L 563.565032 69.528477 
L 564.566131 69.757728 
L 564.949972 69.800846 
L 565.359748 69.96036 
L 566.620199 70.377071 
L 567.045536 70.182233 
L 567.310076 70.171286 
L 568.217808 70.434352 
L 568.726138 70.305157 
L 571.371528 71.29729 
L 572.035469 71.057802 
L 572.341505 70.783438 
L 572.616418 70.422496 
L 573.560459 69.547521 
L 574.696421 69.111995 
L 575.661211 69.334223 
L 576.211037 69.594089 
L 576.610439 69.528817 
L 576.937223 69.357094 
L 577.341812 69.177384 
L 577.912386 69.183611 
L 579.758973 69.284272 
L 580.210245 69.188457 
L 581.698926 69.467343 
L 582.186508 69.676737 
L 583.545512 70.113954 
L 584.790402 70.36428 
L 585.215739 70.417403 
L 586.019731 70.395758 
L 586.434694 70.430753 
L 586.668111 70.405975 
L 586.979333 70.457017 
L 588.053051 71.073348 
L 588.633999 71.188037 
L 589.598789 70.848241 
L 590.112306 70.865953 
L 590.40278 70.786635 
L 590.817743 70.822513 
L 591.64767 70.80175 
L 592.482783 70.76046 
L 592.959991 70.92371 
L 594.173758 71.289011 
L 595.392713 71.176806 
L 595.932165 71.343827 
L 596.253762 71.431949 
L 596.751717 71.45318 
L 597.680198 71.953561 
L 598.193715 72.037105 
L 599.360799 72.048274 
L 600.335962 71.981434 
L 602.130678 72.566254 
L 603.277014 72.468976 
L 604.039509 72.656279 
L 604.615271 72.909657 
L 606.762706 73.621466 
L 607.125798 73.666382 
L 607.566697 74.091563 
L 607.877919 74.299579 
L 608.43812 74.393949 
L 608.827148 74.434852 
L 609.252485 74.477766 
L 610.149843 74.45552 
L 610.601116 74.366655 
L 611.265057 74.260784 
L 611.265057 74.260784 
" clip-path="url(#p4fa424ceca)" style="fill: none; stroke: #1f2937; stroke-linecap: square"/>
   </g>
   <g id="line2d_30">
    <path d="M 66.63125 74.260784 
L 637.2 74.260784 
" clip-path="url(#p4fa424ceca)" style="fill: none; stroke-dasharray: 2.96,1.28; stroke-dashoffset: 0; stroke: #888888; stroke-width: 0.8"/>
   </g>
   <g id="patch_3">
    <path d="M 66.63125 282.04 
L 66.63125 26.88 
" style="fill: none; stroke: #000000; stroke-width: 0.8; stroke-linejoin: miter; stroke-linecap: square"/>
   </g>
   <g id="patch_4">
    <path d="M 637.2 282.04 
L 637.2 26.88 
" style="fill: none; stroke: #000000; stroke-width: 0.8; stroke-linejoin: miter; stroke-linecap: square"/>
   </g>
   <g id="patch_5">
    <path d="M 66.63125 282.04 
L 637.2 282.04 
" style="fill: none; stroke: #000000; stroke-width: 0.8; stroke-linejoin: miter; stroke-linecap: square"/>
   </g>
   <g id="patch_6">
    <path d="M 66.63125 26.88 
L 637.2 26.88 
" style="fill: none; stroke: #000000; stroke-width: 0.8; stroke-linejoin: miter; stroke-linecap: square"/>
   </g>
   <g id="text_17">
    <!-- Running mean — seats_at_50_50  (100k ReCom samples, seed 42) -->
    <g transform="translate(151.17625 20.88) scale(0.12 -0.12)">
     <defs>
      <path id="DejaVuSans-2014" d="M 313 1978 
L 6088 1978 
L 6088 1528 
L 313 1528 
L 313 1978 
z
" transform="scale(0.015625)"/>
      <path id="DejaVuSans-28" d="M 1984 4856 
Q 1566 4138 1362 3434 
Q 1159 2731 1159 2009 
Q 1159 1288 1364 580 
Q 1569 -128 1984 -844 
L 1484 -844 
Q 1016 -109 783 600 
Q 550 1309 550 2009 
Q 550 2706 781 3412 
Q 1013 4119 1484 4856 
L 1984 4856 
z
" transform="scale(0.015625)"/>
      <path id="DejaVuSans-6b" d="M 581 4863 
L 1159 4863 
L 1159 1991 
L 2875 3500 
L 3609 3500 
L 1753 1863 
L 3688 0 
L 2938 0 
L 1159 1709 
L 1159 0 
L 581 0 
L 581 4863 
z
" transform="scale(0.015625)"/>
      <path id="DejaVuSans-43" d="M 4122 4306 
L 4122 3641 
Q 3803 3938 3442 4084 
Q 3081 4231 2675 4231 
Q 1875 4231 1450 3742 
Q 1025 3253 1025 2328 
Q 1025 1406 1450 917 
Q 1875 428 2675 428 
Q 3081 428 3442 575 
Q 3803 722 4122 1019 
L 4122 359 
Q 3791 134 3420 21 
Q 3050 -91 2638 -91 
Q 1578 -91 968 557 
Q 359 1206 359 2328 
Q 359 3453 968 4101 
Q 1578 4750 2638 4750 
Q 3056 4750 3426 4639 
Q 3797 4528 4122 4306 
z
" transform="scale(0.015625)"/>
      <path id="DejaVuSans-2c" d="M 750 794 
L 1409 794 
L 1409 256 
L 897 -744 
L 494 -744 
L 750 256 
L 750 794 
z
" transform="scale(0.015625)"/>
      <path id="DejaVuSans-29" d="M 513 4856 
L 1013 4856 
Q 1481 4119 1714 3412 
Q 1947 2706 1947 2009 
Q 1947 1309 1714 600 
Q 1481 -109 1013 -844 
L 513 -844 
Q 928 -128 1133 580 
Q 1338 1288 1338 2009 
Q 1338 2731 1133 3434 
Q 928 4138 513 4856 
z
" transform="scale(0.015625)"/>
     </defs>
     <use xlink:href="#DejaVuSans-52"/>
     <use xlink:href="#DejaVuSans-75" transform="translate(64.982422 0)"/>
     <use xlink:href="#DejaVuSans-6e" transform="translate(128.361328 0)"/>
     <use xlink:href="#DejaVuSans-6e" transform="translate(191.740234 0)"/>
     <use xlink:href="#DejaVuSans-69" transform="translate(255.119141 0)"/>
     <use xlink:href="#DejaVuSans-6e" transform="translate(282.902344 0)"/>
     <use xlink:href="#DejaVuSans-67" transform="translate(346.28125 0)"/>
     <use xlink:href="#DejaVuSans-20" transform="translate(409.757812 0)"/>
     <use xlink:href="#DejaVuSans-6d" transform="translate(441.544922 0)"/>
     <use xlink:href="#DejaVuSans-65" transform="translate(538.957031 0)"/>
     <use xlink:href="#DejaVuSans-61" transform="translate(600.480469 0)"/>
     <use xlink:href="#DejaVuSans-6e" transform="translate(661.759766 0)"/>
     <use xlink:href="#DejaVuSans-20" transform="translate(725.138672 0)"/>
     <use xlink:href="#DejaVuSans-2014" transform="translate(756.925781 0)"/>
     <use xlink:href="#DejaVuSans-20" transform="translate(856.925781 0)"/>
     <use xlink:href="#DejaVuSans-73" transform="translate(888.712891 0)"/>
     <use xlink:href="#DejaVuSans-65" transform="translate(940.8125 0)"/>
     <use xlink:href="#DejaVuSans-61" transform="translate(1002.335938 0)"/>
     <use xlink:href="#DejaVuSans-74" transform="translate(1063.615234 0)"/>
     <use xlink:href="#DejaVuSans-73" transform="translate(1102.824219 0)"/>
     <use xlink:href="#DejaVuSans-5f" transform="translate(1154.923828 0)"/>
     <use xlink:href="#DejaVuSans-61" transform="translate(1204.923828 0)"/>
     <use xlink:href="#DejaVuSans-74" transform="translate(1266.203125 0)"/>
     <use xlink:href="#DejaVuSans-5f" transform="translate(1305.412109 0)"/>
     <use xlink:href="#DejaVuSans-35" transform="translate(1355.412109 0)"/>
     <use xlink:href="#DejaVuSans-30" transform="translate(1419.035156 0)"/>
     <use xlink:href="#DejaVuSans-5f" transform="translate(1482.658203 0)"/>
     <use xlink:href="#DejaVuSans-35" transform="translate(1532.658203 0)"/>
     <use xlink:href="#DejaVuSans-30" transform="translate(1596.28125 0)"/>
     <use xlink:href="#DejaVuSans-20" transform="translate(1659.904297 0)"/>
     <use xlink:href="#DejaVuSans-20" transform="translate(1691.691406 0)"/>
     <use xlink:href="#DejaVuSans-28" transform="translate(1723.478516 0)"/>
     <use xlink:href="#DejaVuSans-31" transform="translate(1762.492188 0)"/>
     <use xlink:href="#DejaVuSans-30" transform="translate(1826.115234 0)"/>
     <use xlink:href="#DejaVuSans-30" transform="translate(1889.738281 0)"/>
     <use xlink:href="#DejaVuSans-6b" transform="translate(1953.361328 0)"/>
     <use xlink:href="#DejaVuSans-20" transform="translate(2011.271484 0)"/>
     <use xlink:href="#DejaVuSans-52" transform="translate(2043.058594 0)"/>
     <use xlink:href="#DejaVuSans-65" transform="translate(2108.041016 0)"/>
     <use xlink:href="#DejaVuSans-43" transform="translate(2169.564453 0)"/>
     <use xlink:href="#DejaVuSans-6f" transform="translate(2239.388672 0)"/>
     <use xlink:href="#DejaVuSans-6d" transform="translate(2300.570312 0)"/>
     <use xlink:href="#DejaVuSans-20" transform="translate(2397.982422 0)"/>
     <use xlink:href="#DejaVuSans-73" transform="translate(2429.769531 0)"/>
     <use xlink:href="#DejaVuSans-61" transform="translate(2481.869141 0)"/>
     <use xlink:href="#DejaVuSans-6d" transform="translate(2543.148438 0)"/>
     <use xlink:href="#DejaVuSans-70" transform="translate(2640.560547 0)"/>
     <use xlink:href="#DejaVuSans-6c" transform="translate(2704.037109 0)"/>
     <use xlink:href="#DejaVuSans-65" transform="translate(2731.820312 0)"/>
     <use xlink:href="#DejaVuSans-73" transform="translate(2793.34375 0)"/>
     <use xlink:href="#DejaVuSans-2c" transform="translate(2845.443359 0)"/>
     <use xlink:href="#DejaVuSans-20" transform="translate(2877.230469 0)"/>
     <use xlink:href="#DejaVuSans-73" transform="translate(2909.017578 0)"/>
     <use xlink:href="#DejaVuSans-65" transform="translate(2961.117188 0)"/>
     <use xlink:href="#DejaVuSans-65" transform="translate(3022.640625 0)"/>
     <use xlink:href="#DejaVuSans-64" transform="translate(3084.164062 0)"/>
     <use xlink:href="#DejaVuSans-20" transform="translate(3147.640625 0)"/>
     <use xlink:href="#DejaVuSans-34" transform="translate(3179.427734 0)"/>
     <use xlink:href="#DejaVuSans-32" transform="translate(3243.050781 0)"/>
     <use xlink:href="#DejaVuSans-29" transform="translate(3306.673828 0)"/>
    </g>
   </g>
   <g id="legend_1">
    <g id="patch_7">
     <path d="M 496.306406 47.290312 
L 630.9 47.290312 
Q 632.7 47.290312 632.7 45.490312 
L 632.7 33.18 
Q 632.7 31.38 630.9 31.38 
L 496.306406 31.38 
Q 494.506406 31.38 494.506406 33.18 
L 494.506406 45.490312 
Q 494.506406 47.290312 496.306406 47.290312 
z
" style="fill: #ffffff; opacity: 0.8; stroke: #cccccc; stroke-linejoin: miter"/>
    </g>
    <g id="line2d_31">
     <path d="M 498.106406 38.668594 
L 507.106406 38.668594 
L 516.106406 38.668594 
" style="fill: none; stroke-dasharray: 2.96,1.28; stroke-dashoffset: 0; stroke: #888888; stroke-width: 0.8"/>
    </g>
    <g id="text_18">
     <!-- final mean = +0.45226 -->
     <g transform="translate(523.306406 41.818594) scale(0.09 -0.09)">
      <defs>
       <path id="DejaVuSans-3d" d="M 678 2906 
L 4684 2906 
L 4684 2381 
L 678 2381 
L 678 2906 
z
M 678 1631 
L 4684 1631 
L 4684 1100 
L 678 1100 
L 678 1631 
z
" transform="scale(0.015625)"/>
       <path id="DejaVuSans-2b" d="M 2944 4013 
L 2944 2272 
L 4684 2272 
L 4684 1741 
L 2944 1741 
L 2944 0 
L 2419 0 
L 2419 1741 
L 678 1741 
L 678 2272 
L 2419 2272 
L 2419 4013 
L 2944 4013 
z
" transform="scale(0.015625)"/>
      </defs>
      <use xlink:href="#DejaVuSans-66"/>
      <use xlink:href="#DejaVuSans-69" transform="translate(35.205078 0)"/>
      <use xlink:href="#DejaVuSans-6e" transform="translate(62.988281 0)"/>
      <use xlink:href="#DejaVuSans-61" transform="translate(126.367188 0)"/>
      <use xlink:href="#DejaVuSans-6c" transform="translate(187.646484 0)"/>
      <use xlink:href="#DejaVuSans-20" transform="translate(215.429688 0)"/>
      <use xlink:href="#DejaVuSans-6d" transform="translate(247.216797 0)"/>
      <use xlink:href="#DejaVuSans-65" transform="translate(344.628906 0)"/>
      <use xlink:href="#DejaVuSans-61" transform="translate(406.152344 0)"/>
      <use xlink:href="#DejaVuSans-6e" transform="translate(467.431641 0)"/>
      <use xlink:href="#DejaVuSans-20" transform="translate(530.810547 0)"/>
      <use xlink:href="#DejaVuSans-3d" transform="translate(562.597656 0)"/>
      <use xlink:href="#DejaVuSans-20" transform="translate(646.386719 0)"/>
      <use xlink:href="#DejaVuSans-2b" transform="translate(678.173828 0)"/>
      <use xlink:href="#DejaVuSans-30" transform="translate(761.962891 0)"/>
      <use xlink:href="#DejaVuSans-2e" transform="translate(825.585938 0)"/>
      <use xlink:href="#DejaVuSans-34" transform="translate(857.373047 0)"/>
      <use xlink:href="#DejaVuSans-35" transform="translate(920.996094 0)"/>
      <use xlink:href="#DejaVuSans-32" transform="translate(984.619141 0)"/>
      <use xlink:href="#DejaVuSans-32" transform="translate(1048.242188 0)"/>
      <use xlink:href="#DejaVuSans-36" transform="translate(1111.865234 0)"/>
     </g>
    </g>
   </g>
  </g>
 </g>
 <defs>
  <clipPath id="p4fa424ceca">
   <rect x="66.63125" y="26.88" width="570.56875" height="255.16"/>
  </clipPath>
 </defs>
</svg>
