<?xml version="1.0" encoding="utf-8" standalone="no"?>
<!DOCTYPE svg PUBLIC "-//W3C//DTD SVG 1.1//EN"
  "http://www.w3.org/Graphics/SVG/1.1/DTD/svg11.dtd">
<svg xmlns:xlink="http://www.w3.org/1999/xlink" width="648pt" height="324pt" viewBox="0 0 648 324" xmlns="http://www.w3.org/2000/svg" version="1.1">
 <metadata>
  <rdf:RDF xmlns:dc="http://purl.org/dc/elements/1.1/" xmlns:cc="http://creativecommons.org/ns#" xmlns:rdf="http://www.w3.org/1999/02/22-rdf-syntax-ns#">
   <cc:Work>
    <dc:type rdf:resource="http://purl.org/dc/dcmitype/StillImage"/>
    <dc:date>2026-05-18T20:46:08.163080</dc:date>
    <dc:format>image/svg+xml</dc:format>
    <dc:creator>
     <cc:Agent>
      <dc:title>Matplotlib v3.10.8, https://matplotlib.org/</dc:title>
     </cc:Agent>
    </dc:creator>
   </cc:Work>
  </rdf:RDF>
 </metadata>
 <defs>
  <style type="text/css">*{stroke-linejoin: round; stroke-linecap: butt}</style>
 </defs>
 <g id="figure_1">
  <g id="patch_1">
   <path d="M 0 324 
L 648 324 
L 648 0 
L 0 0 
z
" style="fill: #ffffff"/>
  </g>
  <g id="axes_1">
   <g id="patch_2">
    <path d="M 57.27125 282.04 
L 637.2 282.04 
L 637.2 26.88 
L 57.27125 26.88 
z
" style="fill: #ffffff"/>
   </g>
   <g id="matplotlib.axis_1">
    <g id="xtick_1">
     <g id="line2d_1">
      <path d="M 83.626376 282.04 
L 83.626376 26.88 
" clip-path="url(#p2c7c7ba38b)" style="fill: none; stroke-dasharray: 0.5,0.825; stroke-dashoffset: 0; stroke: #b0b0b0; stroke-opacity: 0.6; stroke-width: 0.5"/>
     </g>
     <g id="line2d_2">
      <defs>
       <path id="me45b562afe" d="M 0 0 
L 0 3.5 
" style="stroke: #000000; stroke-width: 0.8"/>
      </defs>
      <g>
       <use xlink:href="#me45b562afe" x="83.626376" y="282.04" style="stroke: #000000; stroke-width: 0.8"/>
      </g>
     </g>
     <g id="text_1">
      <!-- 0 -->
      <g transform="translate(80.445126 296.638438) scale(0.1 -0.1)">
       <defs>
        <path id="DejaVuSans-30" d="M 2034 4250 
Q 1547 4250 1301 3770 
Q 1056 3291 1056 2328 
Q 1056 1369 1301 889 
Q 1547 409 2034 409 
Q 2525 409 2770 889 
Q 3016 1369 3016 2328 
Q 3016 3291 2770 3770 
Q 2525 4250 2034 4250 
z
M 2034 4750 
Q 2819 4750 3233 4129 
Q 3647 3509 3647 2328 
Q 3647 1150 3233 529 
Q 2819 -91 2034 -91 
Q 1250 -91 836 529 
Q 422 1150 422 2328 
Q 422 3509 836 4129 
Q 1250 4750 2034 4750 
z
" transform="scale(0.015625)"/>
       </defs>
       <use xlink:href="#DejaVuSans-30"/>
      </g>
     </g>
    </g>
    <g id="xtick_2">
     <g id="line2d_3">
      <path d="M 189.069021 282.04 
L 189.069021 26.88 
" clip-path="url(#p2c7c7ba38b)" style="fill: none; stroke-dasharray: 0.5,0.825; stroke-dashoffset: 0; stroke: #b0b0b0; stroke-opacity: 0.6; stroke-width: 0.5"/>
     </g>
     <g id="line2d_4">
      <g>
       <use xlink:href="#me45b562afe" x="189.069021" y="282.04" style="stroke: #000000; stroke-width: 0.8"/>
      </g>
     </g>
     <g id="text_2">
      <!-- 20000 -->
      <g transform="translate(173.162771 296.638438) scale(0.1 -0.1)">
       <defs>
        <path id="DejaVuSans-32" d="M 1228 531 
L 3431 531 
L 3431 0 
L 469 0 
L 469 531 
Q 828 903 1448 1529 
Q 2069 2156 2228 2338 
Q 2531 2678 2651 2914 
Q 2772 3150 2772 3378 
Q 2772 3750 2511 3984 
Q 2250 4219 1831 4219 
Q 1534 4219 1204 4116 
Q 875 4013 500 3803 
L 500 4441 
Q 881 4594 1212 4672 
Q 1544 4750 1819 4750 
Q 2544 4750 2975 4387 
Q 3406 4025 3406 3419 
Q 3406 3131 3298 2873 
Q 3191 2616 2906 2266 
Q 2828 2175 2409 1742 
Q 1991 1309 1228 531 
z
" transform="scale(0.015625)"/>
       </defs>
       <use xlink:href="#DejaVuSans-32"/>
       <use xlink:href="#DejaVuSans-30" transform="translate(63.623047 0)"/>
       <use xlink:href="#DejaVuSans-30" transform="translate(127.246094 0)"/>
       <use xlink:href="#DejaVuSans-30" transform="translate(190.869141 0)"/>
       <use xlink:href="#DejaVuSans-30" transform="translate(254.492188 0)"/>
      </g>
     </g>
    </g>
    <g id="xtick_3">
     <g id="line2d_5">
      <path d="M 294.511666 282.04 
L 294.511666 26.88 
" clip-path="url(#p2c7c7ba38b)" style="fill: none; stroke-dasharray: 0.5,0.825; stroke-dashoffset: 0; stroke: #b0b0b0; stroke-opacity: 0.6; stroke-width: 0.5"/>
     </g>
     <g id="line2d_6">
      <g>
       <use xlink:href="#me45b562afe" x="294.511666" y="282.04" style="stroke: #000000; stroke-width: 0.8"/>
      </g>
     </g>
     <g id="text_3">
      <!-- 40000 -->
      <g transform="translate(278.605416 296.638438) scale(0.1 -0.1)">
       <defs>
        <path id="DejaVuSans-34" d="M 2419 4116 
L 825 1625 
L 2419 1625 
L 2419 4116 
z
M 2253 4666 
L 3047 4666 
L 3047 1625 
L 3713 1625 
L 3713 1100 
L 3047 1100 
L 3047 0 
L 2419 0 
L 2419 1100 
L 313 1100 
L 313 1709 
L 2253 4666 
z
" transform="scale(0.015625)"/>
       </defs>
       <use xlink:href="#DejaVuSans-34"/>
       <use xlink:href="#DejaVuSans-30" transform="translate(63.623047 0)"/>
       <use xlink:href="#DejaVuSans-30" transform="translate(127.246094 0)"/>
       <use xlink:href="#DejaVuSans-30" transform="translate(190.869141 0)"/>
       <use xlink:href="#DejaVuSans-30" transform="translate(254.492188 0)"/>
      </g>
     </g>
    </g>
    <g id="xtick_4">
     <g id="line2d_7">
      <path d="M 399.954312 282.04 
L 399.954312 26.88 
" clip-path="url(#p2c7c7ba38b)" style="fill: none; stroke-dasharray: 0.5,0.825; stroke-dashoffset: 0; stroke: #b0b0b0; stroke-opacity: 0.6; stroke-width: 0.5"/>
     </g>
     <g id="line2d_8">
      <g>
       <use xlink:href="#me45b562afe" x="399.954312" y="282.04" style="stroke: #000000; stroke-width: 0.8"/>
      </g>
     </g>
     <g id="text_4">
      <!-- 60000 -->
      <g transform="translate(384.048062 296.638438) scale(0.1 -0.1)">
       <defs>
        <path id="DejaVuSans-36" d="M 2113 2584 
Q 1688 2584 1439 2293 
Q 1191 2003 1191 1497 
Q 1191 994 1439 701 
Q 1688 409 2113 409 
Q 2538 409 2786 701 
Q 3034 994 3034 1497 
Q 3034 2003 2786 2293 
Q 2538 2584 2113 2584 
z
M 3366 4563 
L 3366 3988 
Q 3128 4100 2886 4159 
Q 2644 4219 2406 4219 
Q 1781 4219 1451 3797 
Q 1122 3375 1075 2522 
Q 1259 2794 1537 2939 
Q 1816 3084 2150 3084 
Q 2853 3084 3261 2657 
Q 3669 2231 3669 1497 
Q 3669 778 3244 343 
Q 2819 -91 2113 -91 
Q 1303 -91 875 529 
Q 447 1150 447 2328 
Q 447 3434 972 4092 
Q 1497 4750 2381 4750 
Q 2619 4750 2861 4703 
Q 3103 4656 3366 4563 
z
" transform="scale(0.015625)"/>
       </defs>
       <use xlink:href="#DejaVuSans-36"/>
       <use xlink:href="#DejaVuSans-30" transform="translate(63.623047 0)"/>
       <use xlink:href="#DejaVuSans-30" transform="translate(127.246094 0)"/>
       <use xlink:href="#DejaVuSans-30" transform="translate(190.869141 0)"/>
       <use xlink:href="#DejaVuSans-30" transform="translate(254.492188 0)"/>
      </g>
     </g>
    </g>
    <g id="xtick_5">
     <g id="line2d_9">
      <path d="M 505.396957 282.04 
L 505.396957 26.88 
" clip-path="url(#p2c7c7ba38b)" style="fill: none; stroke-dasharray: 0.5,0.825; stroke-dashoffset: 0; stroke: #b0b0b0; stroke-opacity: 0.6; stroke-width: 0.5"/>
     </g>
     <g id="line2d_10">
      <g>
       <use xlink:href="#me45b562afe" x="505.396957" y="282.04" style="stroke: #000000; stroke-width: 0.8"/>
      </g>
     </g>
     <g id="text_5">
      <!-- 80000 -->
      <g transform="translate(489.490707 296.638438) scale(0.1 -0.1)">
       <defs>
        <path id="DejaVuSans-38" d="M 2034 2216 
Q 1584 2216 1326 1975 
Q 1069 1734 1069 1313 
Q 1069 891 1326 650 
Q 1584 409 2034 409 
Q 2484 409 2743 651 
Q 3003 894 3003 1313 
Q 3003 1734 2745 1975 
Q 2488 2216 2034 2216 
z
M 1403 2484 
Q 997 2584 770 2862 
Q 544 3141 544 3541 
Q 544 4100 942 4425 
Q 1341 4750 2034 4750 
Q 2731 4750 3128 4425 
Q 3525 4100 3525 3541 
Q 3525 3141 3298 2862 
Q 3072 2584 2669 2484 
Q 3125 2378 3379 2068 
Q 3634 1759 3634 1313 
Q 3634 634 3220 271 
Q 2806 -91 2034 -91 
Q 1263 -91 848 271 
Q 434 634 434 1313 
Q 434 1759 690 2068 
Q 947 2378 1403 2484 
z
M 1172 3481 
Q 1172 3119 1398 2916 
Q 1625 2713 2034 2713 
Q 2441 2713 2670 2916 
Q 2900 3119 2900 3481 
Q 2900 3844 2670 4047 
Q 2441 4250 2034 4250 
Q 1625 4250 1398 4047 
Q 1172 3844 1172 3481 
z
" transform="scale(0.015625)"/>
       </defs>
       <use xlink:href="#DejaVuSans-38"/>
       <use xlink:href="#DejaVuSans-30" transform="translate(63.623047 0)"/>
       <use xlink:href="#DejaVuSans-30" transform="translate(127.246094 0)"/>
       <use xlink:href="#DejaVuSans-30" transform="translate(190.869141 0)"/>
       <use xlink:href="#DejaVuSans-30" transform="translate(254.492188 0)"/>
      </g>
     </g>
    </g>
    <g id="xtick_6">
     <g id="line2d_11">
      <path d="M 610.839602 282.04 
L 610.839602 26.88 
" clip-path="url(#p2c7c7ba38b)" style="fill: none; stroke-dasharray: 0.5,0.825; stroke-dashoffset: 0; stroke: #b0b0b0; stroke-opacity: 0.6; stroke-width: 0.5"/>
     </g>
     <g id="line2d_12">
      <g>
       <use xlink:href="#me45b562afe" x="610.839602" y="282.04" style="stroke: #000000; stroke-width: 0.8"/>
      </g>
     </g>
     <g id="text_6">
      <!-- 100000 -->
      <g transform="translate(591.752102 296.638438) scale(0.1 -0.1)">
       <defs>
        <path id="DejaVuSans-31" d="M 794 531 
L 1825 531 
L 1825 4091 
L 703 3866 
L 703 4441 
L 1819 4666 
L 2450 4666 
L 2450 531 
L 3481 531 
L 3481 0 
L 794 0 
L 794 531 
z
" transform="scale(0.015625)"/>
       </defs>
       <use xlink:href="#DejaVuSans-31"/>
       <use xlink:href="#DejaVuSans-30" transform="translate(63.623047 0)"/>
       <use xlink:href="#DejaVuSans-30" transform="translate(127.246094 0)"/>
       <use xlink:href="#DejaVuSans-30" transform="translate(190.869141 0)"/>
       <use xlink:href="#DejaVuSans-30" transform="translate(254.492188 0)"/>
       <use xlink:href="#DejaVuSans-30" transform="translate(318.115234 0)"/>
      </g>
     </g>
    </g>
    <g id="text_7">
     <!-- Sample index -->
     <g transform="translate(313.217656 310.316563) scale(0.1 -0.1)">
      <defs>
       <path id="DejaVuSans-53" d="M 3425 4513 
L 3425 3897 
Q 3066 4069 2747 4153 
Q 2428 4238 2131 4238 
Q 1616 4238 1336 4038 
Q 1056 3838 1056 3469 
Q 1056 3159 1242 3001 
Q 1428 2844 1947 2747 
L 2328 2669 
Q 3034 2534 3370 2195 
Q 3706 1856 3706 1288 
Q 3706 609 3251 259 
Q 2797 -91 1919 -91 
Q 1588 -91 1214 -16 
Q 841 59 441 206 
L 441 856 
Q 825 641 1194 531 
Q 1563 422 1919 422 
Q 2459 422 2753 634 
Q 3047 847 3047 1241 
Q 3047 1584 2836 1778 
Q 2625 1972 2144 2069 
L 1759 2144 
Q 1053 2284 737 2584 
Q 422 2884 422 3419 
Q 422 4038 858 4394 
Q 1294 4750 2059 4750 
Q 2388 4750 2728 4690 
Q 3069 4631 3425 4513 
z
" transform="scale(0.015625)"/>
       <path id="DejaVuSans-61" d="M 2194 1759 
Q 1497 1759 1228 1600 
Q 959 1441 959 1056 
Q 959 750 1161 570 
Q 1363 391 1709 391 
Q 2188 391 2477 730 
Q 2766 1069 2766 1631 
L 2766 1759 
L 2194 1759 
z
M 3341 1997 
L 3341 0 
L 2766 0 
L 2766 531 
Q 2569 213 2275 61 
Q 1981 -91 1556 -91 
Q 1019 -91 701 211 
Q 384 513 384 1019 
Q 384 1609 779 1909 
Q 1175 2209 1959 2209 
L 2766 2209 
L 2766 2266 
Q 2766 2663 2505 2880 
Q 2244 3097 1772 3097 
Q 1472 3097 1187 3025 
Q 903 2953 641 2809 
L 641 3341 
Q 956 3463 1253 3523 
Q 1550 3584 1831 3584 
Q 2591 3584 2966 3190 
Q 3341 2797 3341 1997 
z
" transform="scale(0.015625)"/>
       <path id="DejaVuSans-6d" d="M 3328 2828 
Q 3544 3216 3844 3400 
Q 4144 3584 4550 3584 
Q 5097 3584 5394 3201 
Q 5691 2819 5691 2113 
L 5691 0 
L 5113 0 
L 5113 2094 
Q 5113 2597 4934 2840 
Q 4756 3084 4391 3084 
Q 3944 3084 3684 2787 
Q 3425 2491 3425 1978 
L 3425 0 
L 2847 0 
L 2847 2094 
Q 2847 2600 2669 2842 
Q 2491 3084 2119 3084 
Q 1678 3084 1418 2786 
Q 1159 2488 1159 1978 
L 1159 0 
L 581 0 
L 581 3500 
L 1159 3500 
L 1159 2956 
Q 1356 3278 1631 3431 
Q 1906 3584 2284 3584 
Q 2666 3584 2933 3390 
Q 3200 3197 3328 2828 
z
" transform="scale(0.015625)"/>
       <path id="DejaVuSans-70" d="M 1159 525 
L 1159 -1331 
L 581 -1331 
L 581 3500 
L 1159 3500 
L 1159 2969 
Q 1341 3281 1617 3432 
Q 1894 3584 2278 3584 
Q 2916 3584 3314 3078 
Q 3713 2572 3713 1747 
Q 3713 922 3314 415 
Q 2916 -91 2278 -91 
Q 1894 -91 1617 61 
Q 1341 213 1159 525 
z
M 3116 1747 
Q 3116 2381 2855 2742 
Q 2594 3103 2138 3103 
Q 1681 3103 1420 2742 
Q 1159 2381 1159 1747 
Q 1159 1113 1420 752 
Q 1681 391 2138 391 
Q 2594 391 2855 752 
Q 3116 1113 3116 1747 
z
" transform="scale(0.015625)"/>
       <path id="DejaVuSans-6c" d="M 603 4863 
L 1178 4863 
L 1178 0 
L 603 0 
L 603 4863 
z
" transform="scale(0.015625)"/>
       <path id="DejaVuSans-65" d="M 3597 1894 
L 3597 1613 
L 953 1613 
Q 991 1019 1311 708 
Q 1631 397 2203 397 
Q 2534 397 2845 478 
Q 3156 559 3463 722 
L 3463 178 
Q 3153 47 2828 -22 
Q 2503 -91 2169 -91 
Q 1331 -91 842 396 
Q 353 884 353 1716 
Q 353 2575 817 3079 
Q 1281 3584 2069 3584 
Q 2775 3584 3186 3129 
Q 3597 2675 3597 1894 
z
M 3022 2063 
Q 3016 2534 2758 2815 
Q 2500 3097 2075 3097 
Q 1594 3097 1305 2825 
Q 1016 2553 972 2059 
L 3022 2063 
z
" transform="scale(0.015625)"/>
       <path id="DejaVuSans-20" transform="scale(0.015625)"/>
       <path id="DejaVuSans-69" d="M 603 3500 
L 1178 3500 
L 1178 0 
L 603 0 
L 603 3500 
z
M 603 4863 
L 1178 4863 
L 1178 4134 
L 603 4134 
L 603 4863 
z
" transform="scale(0.015625)"/>
       <path id="DejaVuSans-6e" d="M 3513 2113 
L 3513 0 
L 2938 0 
L 2938 2094 
Q 2938 2591 2744 2837 
Q 2550 3084 2163 3084 
Q 1697 3084 1428 2787 
Q 1159 2491 1159 1978 
L 1159 0 
L 581 0 
L 581 3500 
L 1159 3500 
L 1159 2956 
Q 1366 3272 1645 3428 
Q 1925 3584 2291 3584 
Q 2894 3584 3203 3211 
Q 3513 2838 3513 2113 
z
" transform="scale(0.015625)"/>
       <path id="DejaVuSans-64" d="M 2906 2969 
L 2906 4863 
L 3481 4863 
L 3481 0 
L 2906 0 
L 2906 525 
Q 2725 213 2448 61 
Q 2172 -91 1784 -91 
Q 1150 -91 751 415 
Q 353 922 353 1747 
Q 353 2572 751 3078 
Q 1150 3584 1784 3584 
Q 2172 3584 2448 3432 
Q 2725 3281 2906 2969 
z
M 947 1747 
Q 947 1113 1208 752 
Q 1469 391 1925 391 
Q 2381 391 2643 752 
Q 2906 1113 2906 1747 
Q 2906 2381 2643 2742 
Q 2381 3103 1925 3103 
Q 1469 3103 1208 2742 
Q 947 2381 947 1747 
z
" transform="scale(0.015625)"/>
       <path id="DejaVuSans-78" d="M 3513 3500 
L 2247 1797 
L 3578 0 
L 2900 0 
L 1881 1375 
L 863 0 
L 184 0 
L 1544 1831 
L 300 3500 
L 978 3500 
L 1906 2253 
L 2834 3500 
L 3513 3500 
z
" transform="scale(0.015625)"/>
      </defs>
      <use xlink:href="#DejaVuSans-53"/>
      <use xlink:href="#DejaVuSans-61" transform="translate(63.476562 0)"/>
      <use xlink:href="#DejaVuSans-6d" transform="translate(124.755859 0)"/>
      <use xlink:href="#DejaVuSans-70" transform="translate(222.167969 0)"/>
      <use xlink:href="#DejaVuSans-6c" transform="translate(285.644531 0)"/>
      <use xlink:href="#DejaVuSans-65" transform="translate(313.427734 0)"/>
      <use xlink:href="#DejaVuSans-20" transform="translate(374.951172 0)"/>
      <use xlink:href="#DejaVuSans-69" transform="translate(406.738281 0)"/>
      <use xlink:href="#DejaVuSans-6e" transform="translate(434.521484 0)"/>
      <use xlink:href="#DejaVuSans-64" transform="translate(497.900391 0)"/>
      <use xlink:href="#DejaVuSans-65" transform="translate(561.376953 0)"/>
      <use xlink:href="#DejaVuSans-78" transform="translate(621.150391 0)"/>
     </g>
    </g>
   </g>
   <g id="matplotlib.axis_2">
    <g id="ytick_1">
     <g id="line2d_13">
      <path d="M 57.27125 250.606375 
L 637.2 250.606375 
" clip-path="url(#p2c7c7ba38b)" style="fill: none; stroke-dasharray: 0.5,0.825; stroke-dashoffset: 0; stroke: #b0b0b0; stroke-opacity: 0.6; stroke-width: 0.5"/>
     </g>
     <g id="line2d_14">
      <defs>
       <path id="m8ed7d8a7ed" d="M 0 0 
L -3.5 0 
" style="stroke: #000000; stroke-width: 0.8"/>
      </defs>
      <g>
       <use xlink:href="#m8ed7d8a7ed" x="57.27125" y="250.606375" style="stroke: #000000; stroke-width: 0.8"/>
      </g>
     </g>
     <g id="text_8">
      <!-- 3200 -->
      <g transform="translate(24.82125 254.405594) scale(0.1 -0.1)">
       <defs>
        <path id="DejaVuSans-33" d="M 2597 2516 
Q 3050 2419 3304 2112 
Q 3559 1806 3559 1356 
Q 3559 666 3084 287 
Q 2609 -91 1734 -91 
Q 1441 -91 1130 -33 
Q 819 25 488 141 
L 488 750 
Q 750 597 1062 519 
Q 1375 441 1716 441 
Q 2309 441 2620 675 
Q 2931 909 2931 1356 
Q 2931 1769 2642 2001 
Q 2353 2234 1838 2234 
L 1294 2234 
L 1294 2753 
L 1863 2753 
Q 2328 2753 2575 2939 
Q 2822 3125 2822 3475 
Q 2822 3834 2567 4026 
Q 2313 4219 1838 4219 
Q 1578 4219 1281 4162 
Q 984 4106 628 3988 
L 628 4550 
Q 988 4650 1302 4700 
Q 1616 4750 1894 4750 
Q 2613 4750 3031 4423 
Q 3450 4097 3450 3541 
Q 3450 3153 3228 2886 
Q 3006 2619 2597 2516 
z
" transform="scale(0.015625)"/>
       </defs>
       <use xlink:href="#DejaVuSans-33"/>
       <use xlink:href="#DejaVuSans-32" transform="translate(63.623047 0)"/>
       <use xlink:href="#DejaVuSans-30" transform="translate(127.246094 0)"/>
       <use xlink:href="#DejaVuSans-30" transform="translate(190.869141 0)"/>
      </g>
     </g>
    </g>
    <g id="ytick_2">
     <g id="line2d_15">
      <path d="M 57.27125 200.066264 
L 637.2 200.066264 
" clip-path="url(#p2c7c7ba38b)" style="fill: none; stroke-dasharray: 0.5,0.825; stroke-dashoffset: 0; stroke: #b0b0b0; stroke-opacity: 0.6; stroke-width: 0.5"/>
     </g>
     <g id="line2d_16">
      <g>
       <use xlink:href="#m8ed7d8a7ed" x="57.27125" y="200.066264" style="stroke: #000000; stroke-width: 0.8"/>
      </g>
     </g>
     <g id="text_9">
      <!-- 3400 -->
      <g transform="translate(24.82125 203.865482) scale(0.1 -0.1)">
       <use xlink:href="#DejaVuSans-33"/>
       <use xlink:href="#DejaVuSans-34" transform="translate(63.623047 0)"/>
       <use xlink:href="#DejaVuSans-30" transform="translate(127.246094 0)"/>
       <use xlink:href="#DejaVuSans-30" transform="translate(190.869141 0)"/>
      </g>
     </g>
    </g>
    <g id="ytick_3">
     <g id="line2d_17">
      <path d="M 57.27125 149.526152 
L 637.2 149.526152 
" clip-path="url(#p2c7c7ba38b)" style="fill: none; stroke-dasharray: 0.5,0.825; stroke-dashoffset: 0; stroke: #b0b0b0; stroke-opacity: 0.6; stroke-width: 0.5"/>
     </g>
     <g id="line2d_18">
      <g>
       <use xlink:href="#m8ed7d8a7ed" x="57.27125" y="149.526152" style="stroke: #000000; stroke-width: 0.8"/>
      </g>
     </g>
     <g id="text_10">
      <!-- 3600 -->
      <g transform="translate(24.82125 153.325371) scale(0.1 -0.1)">
       <use xlink:href="#DejaVuSans-33"/>
       <use xlink:href="#DejaVuSans-36" transform="translate(63.623047 0)"/>
       <use xlink:href="#DejaVuSans-30" transform="translate(127.246094 0)"/>
       <use xlink:href="#DejaVuSans-30" transform="translate(190.869141 0)"/>
      </g>
     </g>
    </g>
    <g id="ytick_4">
     <g id="line2d_19">
      <path d="M 57.27125 98.98604 
L 637.2 98.98604 
" clip-path="url(#p2c7c7ba38b)" style="fill: none; stroke-dasharray: 0.5,0.825; stroke-dashoffset: 0; stroke: #b0b0b0; stroke-opacity: 0.6; stroke-width: 0.5"/>
     </g>
     <g id="line2d_20">
      <g>
       <use xlink:href="#m8ed7d8a7ed" x="57.27125" y="98.98604" style="stroke: #000000; stroke-width: 0.8"/>
      </g>
     </g>
     <g id="text_11">
      <!-- 3800 -->
      <g transform="translate(24.82125 102.785259) scale(0.1 -0.1)">
       <use xlink:href="#DejaVuSans-33"/>
       <use xlink:href="#DejaVuSans-38" transform="translate(63.623047 0)"/>
       <use xlink:href="#DejaVuSans-30" transform="translate(127.246094 0)"/>
       <use xlink:href="#DejaVuSans-30" transform="translate(190.869141 0)"/>
      </g>
     </g>
    </g>
    <g id="ytick_5">
     <g id="line2d_21">
      <path d="M 57.27125 48.445929 
L 637.2 48.445929 
" clip-path="url(#p2c7c7ba38b)" style="fill: none; stroke-dasharray: 0.5,0.825; stroke-dashoffset: 0; stroke: #b0b0b0; stroke-opacity: 0.6; stroke-width: 0.5"/>
     </g>
     <g id="line2d_22">
      <g>
       <use xlink:href="#m8ed7d8a7ed" x="57.27125" y="48.445929" style="stroke: #000000; stroke-width: 0.8"/>
      </g>
     </g>
     <g id="text_12">
      <!-- 4000 -->
      <g transform="translate(24.82125 52.245147) scale(0.1 -0.1)">
       <use xlink:href="#DejaVuSans-34"/>
       <use xlink:href="#DejaVuSans-30" transform="translate(63.623047 0)"/>
       <use xlink:href="#DejaVuSans-30" transform="translate(127.246094 0)"/>
       <use xlink:href="#DejaVuSans-30" transform="translate(190.869141 0)"/>
      </g>
     </g>
    </g>
    <g id="text_13">
     <!-- Running mean of population_mad -->
     <g transform="translate(18.463438 238.929531) rotate(-90) scale(0.1 -0.1)">
      <defs>
       <path id="DejaVuSans-52" d="M 2841 2188 
Q 3044 2119 3236 1894 
Q 3428 1669 3622 1275 
L 4263 0 
L 3584 0 
L 2988 1197 
Q 2756 1666 2539 1819 
Q 2322 1972 1947 1972 
L 1259 1972 
L 1259 0 
L 628 0 
L 628 4666 
L 2053 4666 
Q 2853 4666 3247 4331 
Q 3641 3997 3641 3322 
Q 3641 2881 3436 2590 
Q 3231 2300 2841 2188 
z
M 1259 4147 
L 1259 2491 
L 2053 2491 
Q 2509 2491 2742 2702 
Q 2975 2913 2975 3322 
Q 2975 3731 2742 3939 
Q 2509 4147 2053 4147 
L 1259 4147 
z
" transform="scale(0.015625)"/>
       <path id="DejaVuSans-75" d="M 544 1381 
L 544 3500 
L 1119 3500 
L 1119 1403 
Q 1119 906 1312 657 
Q 1506 409 1894 409 
Q 2359 409 2629 706 
Q 2900 1003 2900 1516 
L 2900 3500 
L 3475 3500 
L 3475 0 
L 2900 0 
L 2900 538 
Q 2691 219 2414 64 
Q 2138 -91 1772 -91 
Q 1169 -91 856 284 
Q 544 659 544 1381 
z
M 1991 3584 
L 1991 3584 
z
" transform="scale(0.015625)"/>
       <path id="DejaVuSans-67" d="M 2906 1791 
Q 2906 2416 2648 2759 
Q 2391 3103 1925 3103 
Q 1463 3103 1205 2759 
Q 947 2416 947 1791 
Q 947 1169 1205 825 
Q 1463 481 1925 481 
Q 2391 481 2648 825 
Q 2906 1169 2906 1791 
z
M 3481 434 
Q 3481 -459 3084 -895 
Q 2688 -1331 1869 -1331 
Q 1566 -1331 1297 -1286 
Q 1028 -1241 775 -1147 
L 775 -588 
Q 1028 -725 1275 -790 
Q 1522 -856 1778 -856 
Q 2344 -856 2625 -561 
Q 2906 -266 2906 331 
L 2906 616 
Q 2728 306 2450 153 
Q 2172 0 1784 0 
Q 1141 0 747 490 
Q 353 981 353 1791 
Q 353 2603 747 3093 
Q 1141 3584 1784 3584 
Q 2172 3584 2450 3431 
Q 2728 3278 2906 2969 
L 2906 3500 
L 3481 3500 
L 3481 434 
z
" transform="scale(0.015625)"/>
       <path id="DejaVuSans-6f" d="M 1959 3097 
Q 1497 3097 1228 2736 
Q 959 2375 959 1747 
Q 959 1119 1226 758 
Q 1494 397 1959 397 
Q 2419 397 2687 759 
Q 2956 1122 2956 1747 
Q 2956 2369 2687 2733 
Q 2419 3097 1959 3097 
z
M 1959 3584 
Q 2709 3584 3137 3096 
Q 3566 2609 3566 1747 
Q 3566 888 3137 398 
Q 2709 -91 1959 -91 
Q 1206 -91 779 398 
Q 353 888 353 1747 
Q 353 2609 779 3096 
Q 1206 3584 1959 3584 
z
" transform="scale(0.015625)"/>
       <path id="DejaVuSans-66" d="M 2375 4863 
L 2375 4384 
L 1825 4384 
Q 1516 4384 1395 4259 
Q 1275 4134 1275 3809 
L 1275 3500 
L 2222 3500 
L 2222 3053 
L 1275 3053 
L 1275 0 
L 697 0 
L 697 3053 
L 147 3053 
L 147 3500 
L 697 3500 
L 697 3744 
Q 697 4328 969 4595 
Q 1241 4863 1831 4863 
L 2375 4863 
z
" transform="scale(0.015625)"/>
       <path id="DejaVuSans-74" d="M 1172 4494 
L 1172 3500 
L 2356 3500 
L 2356 3053 
L 1172 3053 
L 1172 1153 
Q 1172 725 1289 603 
Q 1406 481 1766 481 
L 2356 481 
L 2356 0 
L 1766 0 
Q 1100 0 847 248 
Q 594 497 594 1153 
L 594 3053 
L 172 3053 
L 172 3500 
L 594 3500 
L 594 4494 
L 1172 4494 
z
" transform="scale(0.015625)"/>
       <path id="DejaVuSans-5f" d="M 3263 -1063 
L 3263 -1509 
L -63 -1509 
L -63 -1063 
L 3263 -1063 
z
" transform="scale(0.015625)"/>
      </defs>
      <use xlink:href="#DejaVuSans-52"/>
      <use xlink:href="#DejaVuSans-75" transform="translate(64.982422 0)"/>
      <use xlink:href="#DejaVuSans-6e" transform="translate(128.361328 0)"/>
      <use xlink:href="#DejaVuSans-6e" transform="translate(191.740234 0)"/>
      <use xlink:href="#DejaVuSans-69" transform="translate(255.119141 0)"/>
      <use xlink:href="#DejaVuSans-6e" transform="translate(282.902344 0)"/>
      <use xlink:href="#DejaVuSans-67" transform="translate(346.28125 0)"/>
      <use xlink:href="#DejaVuSans-20" transform="translate(409.757812 0)"/>
      <use xlink:href="#DejaVuSans-6d" transform="translate(441.544922 0)"/>
      <use xlink:href="#DejaVuSans-65" transform="translate(538.957031 0)"/>
      <use xlink:href="#DejaVuSans-61" transform="translate(600.480469 0)"/>
      <use xlink:href="#DejaVuSans-6e" transform="translate(661.759766 0)"/>
      <use xlink:href="#DejaVuSans-20" transform="translate(725.138672 0)"/>
      <use xlink:href="#DejaVuSans-6f" transform="translate(756.925781 0)"/>
      <use xlink:href="#DejaVuSans-66" transform="translate(818.107422 0)"/>
      <use xlink:href="#DejaVuSans-20" transform="translate(853.3125 0)"/>
      <use xlink:href="#DejaVuSans-70" transform="translate(885.099609 0)"/>
      <use xlink:href="#DejaVuSans-6f" transform="translate(948.576172 0)"/>
      <use xlink:href="#DejaVuSans-70" transform="translate(1009.757812 0)"/>
      <use xlink:href="#DejaVuSans-75" transform="translate(1073.234375 0)"/>
      <use xlink:href="#DejaVuSans-6c" transform="translate(1136.613281 0)"/>
      <use xlink:href="#DejaVuSans-61" transform="translate(1164.396484 0)"/>
      <use xlink:href="#DejaVuSans-74" transform="translate(1225.675781 0)"/>
      <use xlink:href="#DejaVuSans-69" transform="translate(1264.884766 0)"/>
      <use xlink:href="#DejaVuSans-6f" transform="translate(1292.667969 0)"/>
      <use xlink:href="#DejaVuSans-6e" transform="translate(1353.849609 0)"/>
      <use xlink:href="#DejaVuSans-5f" transform="translate(1417.228516 0)"/>
      <use xlink:href="#DejaVuSans-6d" transform="translate(1467.228516 0)"/>
      <use xlink:href="#DejaVuSans-61" transform="translate(1564.640625 0)"/>
      <use xlink:href="#DejaVuSans-64" transform="translate(1625.919922 0)"/>
     </g>
    </g>
   </g>
   <g id="line2d_23">
    <path d="M 83.631648 83.279397 
L 83.758179 38.478182 
L 83.8109 40.395454 
L 84.506822 172.569466 
L 84.512094 172.683559 
L 84.580632 171.845587 
L 84.670258 170.638509 
L 84.701891 171.513693 
L 84.881143 175.184403 
L 85.134205 179.271 
L 85.197471 179.198729 
L 85.202743 179.104073 
L 85.266009 179.889081 
L 85.308186 182.368881 
L 85.724684 209.131285 
L 85.956658 219.498877 
L 85.988291 218.921181 
L 86.10955 214.816093 
L 86.225537 211.042688 
L 86.288802 211.519167 
L 86.294075 211.547537 
L 86.309891 211.189886 
L 86.515504 208.547949 
L 86.937275 198.374116 
L 87.037445 198.918481 
L 87.211426 200.24444 
L 87.253603 200.030312 
L 87.269419 199.931228 
L 87.32214 200.273494 
L 87.390678 201.340088 
L 88.619085 232.506606 
L 88.698167 232.117899 
L 88.745616 231.714333 
L 88.777249 232.291237 
L 89.631334 246.969371 
L 90.037288 253.78136 
L 90.126915 253.612727 
L 90.575046 250.326995 
L 90.791203 248.834261 
L 90.859741 248.996048 
L 91.355321 252.702717 
L 91.418587 252.562116 
L 91.687466 252.314867 
L 92.067059 249.31319 
L 92.135597 249.478824 
L 92.204135 249.57937 
L 92.710259 254.139131 
L 92.947505 255.605678 
L 93.068764 255.702102 
L 93.216384 257.062929 
L 93.74887 264.575883 
L 93.859584 264.785321 
L 93.954483 264.996182 
L 93.975571 264.846325 
L 94.460607 261.148199 
L 94.539689 261.556212 
L 94.697853 262.063447 
L 94.718942 262.045772 
L 95.019453 262.012116 
L 95.029998 262.053755 
L 95.156529 262.830008 
L 95.267244 263.244603 
L 95.304149 263.167788 
L 95.367414 262.902843 
L 95.557211 261.409464 
L 95.920988 257.322494 
L 95.963165 256.991611 
L 96.158234 256.207088 
L 96.358575 255.651115 
L 96.427113 255.695924 
L 96.622182 256.104992 
L 96.64327 256.195797 
L 96.71708 256.035927 
L 96.748713 255.895969 
L 96.817251 256.069281 
L 96.917421 256.36374 
L 97.043952 257.065222 
L 97.086129 256.979985 
L 97.123034 257.002387 
L 97.144123 256.88195 
L 97.692424 254.331748 
L 97.745146 254.408151 
L 97.813684 254.381565 
L 97.876949 254.502064 
L 97.924398 254.458526 
L 97.945487 254.565157 
L 98.767939 258.416612 
L 98.783756 258.391266 
L 98.899743 258.164919 
L 98.920831 258.277144 
L 99.374235 260.39203 
L 99.890904 262.331478 
L 99.911992 262.294266 
L 100.117605 262.185506 
L 100.223048 261.800627 
L 100.660635 260.442636 
L 100.739717 260.365628 
L 100.792438 260.400179 
L 100.887337 260.485025 
L 101.282747 261.65612 
L 101.41455 261.400702 
L 101.599074 261.043527 
L 101.651796 260.998707 
L 101.699245 261.089558 
L 101.88377 261.192936 
L 101.889042 261.177552 
L 102.563875 258.857365 
L 102.690406 259.018088 
L 103.054183 259.118627 
L 103.217619 259.213655 
L 103.56558 260.599129 
L 103.797554 261.848658 
L 103.908268 262.119838 
L 103.96099 262.005037 
L 104.024255 261.965476 
L 104.066432 262.041723 
L 104.735993 263.916762 
L 104.77817 263.710597 
L 104.967967 262.977798 
L 104.9996 263.014707 
L 105.168308 264.098715 
L 105.384465 264.960672 
L 105.521541 265.267691 
L 105.943311 266.830337 
L 106.096203 267.579568 
L 106.133108 267.574565 
L 106.143653 267.564876 
L 106.191102 267.642466 
L 106.21219 267.642655 
L 106.296544 267.872467 
L 106.565423 268.578413 
L 106.649777 268.671486 
L 106.749948 269.130692 
L 107.008282 269.879342 
L 107.203351 270.16619 
L 107.2508 270.100636 
L 107.256072 270.093121 
L 107.314066 270.187095 
L 107.356243 270.245809 
L 107.430053 270.180479 
L 107.61985 269.949301 
L 107.640938 270.005534 
L 107.820191 270.441818 
L 107.86764 270.427255 
L 108.099614 270.240836 
L 108.220873 269.956065 
L 108.663732 268.076519 
L 108.806079 267.940719 
L 108.853528 267.981046 
L 108.890433 268.12921 
L 109.090774 268.48575 
L 109.196217 268.443046 
L 109.201489 268.428683 
L 109.575811 267.091297 
L 109.839417 266.456375 
L 109.907955 266.44382 
L 109.934316 266.516734 
L 110.303365 267.378065 
L 110.377175 267.182807 
L 111.494867 263.872883 
L 111.531772 263.897113 
L 111.600309 264.004759 
L 111.647759 263.885308 
L 111.953542 263.828485 
L 112.048441 263.977006 
L 112.570382 264.926936 
L 112.728546 265.031771 
L 112.749634 265.008823 
L 113.450828 264.302088 
L 113.519366 264.14503 
L 113.67753 263.193062 
L 114.304913 260.857139 
L 114.557976 260.685601 
L 114.710867 260.54052 
L 114.905936 260.267642 
L 114.916481 260.273685 
L 115.143182 260.162911 
L 115.253897 259.924672 
L 115.290802 260.002374 
L 115.881281 261.773679 
L 116.028901 261.956925 
L 116.071078 261.888338 
L 116.229242 261.623961 
L 116.577202 260.209485 
L 116.624651 260.255521 
L 116.698461 260.629588 
L 116.89353 261.093885 
L 116.988429 261.123607 
L 117.020061 261.09313 
L 117.278396 261.050877 
L 117.520914 261.419511 
L 117.563091 261.320605 
L 117.990134 260.139758 
L 118.517347 258.377754 
L 118.72296 257.716444 
L 118.918029 257.576075 
L 118.949662 257.60995 
L 119.086737 257.945092 
L 119.450514 259.119611 
L 119.455786 259.115786 
L 119.961911 258.729076 
L 119.977728 258.75625 
L 120.120075 258.798922 
L 120.536574 259.4206 
L 120.684193 259.634576 
L 120.710554 259.606256 
L 121.005793 259.104792 
L 121.032154 259.1192 
L 121.116508 259.118629 
L 121.148141 259.081506 
L 121.406475 258.707819 
L 121.680626 258.117386 
L 121.685898 258.123766 
L 121.76498 258.23485 
L 121.833518 258.136183 
L 121.9126 258.066213 
L 121.960049 258.140011 
L 121.996954 258.171077 
L 122.049676 258.089485 
L 122.2342 257.821855 
L 122.286922 257.896241 
L 122.439813 258.137506 
L 122.48199 258.0435 
L 122.687604 257.643702 
L 122.70342 257.689469 
L 122.940666 258.042703 
L 123.035564 258.065717 
L 123.056653 258.032996 
L 123.278082 257.407973 
L 123.641859 256.423684 
L 123.768391 256.269984 
L 123.942371 256.028344 
L 124.031997 255.996591 
L 124.068902 256.033461 
L 124.142712 256.126751 
L 124.306148 256.443514 
L 124.364142 256.407521 
L 124.833361 256.194367 
L 124.975709 256.060876 
L 125.096968 256.026437 
L 125.123329 256.056293 
L 125.328942 256.28731 
L 125.39748 256.184746 
L 125.613637 256.033986 
L 126.262109 255.927959 
L 126.494083 256.087912 
L 127.042385 256.064976 
L 127.247998 255.955703 
L 127.300719 256.074167 
L 127.759395 256.760771 
L 127.89647 256.725076 
L 128.001913 256.703104 
L 128.028274 256.73783 
L 128.381506 257.104645 
L 128.428956 257.064246 
L 128.703106 257.050856 
L 129.467566 257.384404 
L 129.79971 257.04138 
L 129.836615 257.091438 
L 130.089677 257.553287 
L 130.400733 257.972252 
L 130.532536 257.83527 
L 130.959579 256.805811 
L 131.239002 256.469054 
L 131.328628 256.388373 
L 132.182714 253.545482 
L 132.361966 253.26318 
L 132.372511 253.271184 
L 132.525402 253.250085 
L 132.731016 253.213411 
L 132.931357 253.066403 
L 133.147514 252.972443 
L 133.252957 252.794994 
L 133.474386 251.891563 
L 133.795986 251.187611 
L 133.896157 251.275441 
L 134.165036 251.597828 
L 134.281022 251.710925 
L 134.444459 251.801647 
L 134.592078 252.027349 
L 134.845141 252.194755 
L 135.024393 252.441052 
L 135.941744 253.58494 
L 135.947016 253.580917 
L 136.458413 253.077842 
L 136.516406 253.16101 
L 136.642938 253.348607 
L 137.212328 254.26613 
L 137.375764 254.357488 
L 137.576105 254.445086 
L 137.892433 254.49698 
L 138.15604 254.299976 
L 138.303659 254.166138 
L 138.567266 253.964216 
L 138.730702 253.912034 
L 138.999581 253.784912 
L 139.184105 253.771616 
L 139.347542 253.669424 
L 139.36863 253.697872 
L 139.769312 254.134132 
L 140.222715 254.237122 
L 140.507411 254.510963 
L 140.512683 254.506308 
L 140.560132 254.504432 
L 140.591765 254.570095 
L 140.818466 254.888357 
L 140.829011 254.883528 
L 140.934453 254.949072 
L 141.229693 255.215838 
L 141.314047 255.305072 
L 141.535476 255.837092 
L 141.84126 256.466201 
L 142.531909 257.694572 
L 142.742795 257.922954 
L 142.816605 257.995327 
L 142.874598 257.918736 
L 143.02749 257.932823 
L 143.459805 257.96535 
L 143.654874 257.82243 
L 143.81831 257.798057 
L 144.134638 257.90862 
L 145.10471 259.082575 
L 145.315595 259.309757 
L 145.979884 260.050887 
L 146.016789 259.988985 
L 146.185497 259.861485 
L 146.196041 259.868594 
L 146.306756 259.929841 
L 146.338389 259.886161 
L 146.480736 259.802525 
L 146.512369 259.855463 
L 147.039582 260.524788 
L 147.234651 260.706027 
L 147.434992 260.897057 
L 147.772409 261.13161 
L 147.941117 261.142104 
L 148.088737 261.023302 
L 148.299622 260.928728 
L 148.526324 260.96591 
L 148.684488 261.206581 
L 149.443675 262.642815 
L 149.723098 262.945028 
L 150.424291 264.649653 
L 150.487557 264.593199 
L 150.645721 264.578125 
L 150.793341 264.81062 
L 151.093852 265.406105 
L 151.452357 265.531236 
L 151.668515 265.60596 
L 151.842495 265.620708 
L 152.074469 265.761666 
L 152.34862 265.891384 
L 152.454062 265.967457 
L 152.59641 265.984341 
L 152.765118 265.863723 
L 153.113079 265.330211 
L 153.46104 265.100741 
L 153.687741 265.060572 
L 154.014613 264.971751 
L 154.346758 264.980709 
L 154.989958 264.416289 
L 155.090128 264.509588 
L 155.374824 264.991058 
L 156.028568 265.605575 
L 156.450339 265.706586 
L 157.003912 266.219059 
L 157.214798 266.378711 
L 157.457316 266.612395 
L 157.694562 266.601384 
L 158.469565 266.036666 
L 158.970418 266.007183 
L 159.186575 265.698198 
L 159.455454 265.368741 
L 159.908857 264.919042 
L 160.024844 264.807711 
L 160.26209 264.476882 
L 160.494064 264.155745 
L 160.610051 264.042279 
L 161.000189 263.705467 
L 161.258523 263.784924 
L 161.84373 263.810681 
L 162.154786 263.809164 
L 162.276045 263.686784 
L 162.418392 263.700006 
L 162.761081 263.732273 
L 162.993055 263.491134 
L 163.688976 263.015017 
L 163.752242 263.055745 
L 163.768058 263.09188 
L 163.99476 263.343096 
L 164.685409 263.411076 
L 164.964832 263.352946 
L 165.613304 262.891312 
L 165.760924 262.875912 
L 166.182695 262.453433 
L 166.39358 262.329403 
L 166.562288 262.424211 
L 167.126406 262.970932 
L 167.484911 263.485807 
L 167.97522 263.83136 
L 168.165016 263.906544 
L 168.491889 264.040409 
L 169.219443 264.560637 
L 169.319613 264.627267 
L 169.651758 264.691447 
L 170.563837 264.843518 
L 170.743089 264.835388 
L 171.048873 264.857372 
L 171.765883 264.58824 
L 172.087483 264.715759 
L 172.67269 264.722088 
L 172.999562 264.3903 
L 173.605857 263.508135 
L 173.88528 263.338502 
L 174.233241 263.021078 
L 174.644467 262.688572 
L 174.876441 262.583434 
L 175.292939 262.368087 
L 176.336822 262.810251 
L 176.626789 262.727061 
L 177.275261 262.72077 
L 177.438697 262.756864 
L 177.849923 262.952123 
L 178.487851 263.560283 
L 178.603838 263.652547 
L 178.767274 263.701172 
L 178.772547 263.696074 
L 179.146868 263.487302 
L 180.122212 262.985887 
L 180.206567 262.953895 
L 180.222383 262.930192 
L 180.934121 261.898709 
L 181.413885 261.989142 
L 182.057085 262.510101 
L 182.4894 262.588758 
L 182.668652 262.553017 
L 182.948075 262.446245 
L 183.696718 262.350518 
L 183.981413 262.298824 
L 184.408456 261.843477 
L 184.735328 261.861723 
L 185.399617 262.284631 
L 185.636863 262.231805 
L 186.243158 262.360386 
L 186.617479 262.299473 
L 186.802004 262.34123 
L 186.807276 262.332799 
L 186.986529 262.253991 
L 187.007617 262.27669 
L 187.350306 262.483314 
L 187.58228 262.432374 
L 188.552352 261.805048 
L 188.6947 261.697694 
L 189.137559 261.220879 
L 189.406437 261.138368 
L 190.060182 260.726815 
L 190.518857 261.036939 
L 190.629572 261.120604 
L 190.887907 261.28315 
L 191.225323 261.213619 
L 191.647094 260.908542 
L 191.900156 260.837193 
L 192.828051 260.905865 
L 193.02312 260.926151 
L 193.313087 260.635538 
L 193.661048 260.343281 
L 194.167173 260.20304 
L 194.430779 260.103874 
L 194.662753 260.058313 
L 194.826189 260.073962 
L 195.042347 260.023372 
L 195.537927 259.672302 
L 195.653914 259.552236 
L 195.975514 259.233895 
L 196.202216 258.910685 
L 196.376196 258.83433 
L 196.565993 258.772206 
L 197.082662 258.527437 
L 197.493888 258.790093 
L 197.789128 258.881779 
L 197.957836 258.950841 
L 198.295252 259.132483 
L 198.532498 259.207336 
L 199.059712 259.892258 
L 199.318046 259.99196 
L 199.739817 259.969023 
L 200.01924 259.990182 
L 200.314479 259.83912 
L 200.599174 259.683002 
L 201.052578 259.67971 
L 201.310912 259.669592 
L 201.632512 259.8279 
L 202.006834 259.996871 
L 202.238807 259.928792 
L 202.254624 259.957056 
L 202.402243 259.99938 
L 202.412788 259.989965 
L 203.071804 259.743977 
L 203.973339 260.048465 
L 204.384565 260.426286 
L 204.790519 260.223211 
L 205.365182 260.25877 
L 205.586611 260.267583 
L 205.786952 260.249748 
L 207.389681 261.017038 
L 208.285943 260.763329 
L 208.591727 260.569424 
L 209.071491 260.386118 
L 209.340369 260.392903 
L 209.551255 260.688681 
L 209.904488 261.080682 
L 210.147006 261.131841 
L 210.452789 261.269187 
L 210.900921 261.693418 
L 211.285786 261.97629 
L 211.617931 262.078267 
L 211.928986 262.0645 
L 212.398206 262.247574 
L 213.421 262.115389 
L 213.695151 262.239128 
L 213.895492 262.314161 
L 214.148554 262.448276 
L 215.477131 262.31175 
L 215.756554 262.225905 
L 216.43666 262.057858 
L 216.594823 261.968901 
L 217.628161 261.430243 
L 217.991939 261.508642 
L 218.587689 261.693358 
L 219.162352 261.88723 
L 219.367965 261.923964 
L 219.615755 261.934633 
L 220.021709 262.194796 
L 220.311677 262.086211 
L 220.522562 262.004568 
L 221.48209 261.05251 
L 221.924949 261.003676 
L 222.515428 261.008178 
L 222.852844 261.234271 
L 223.111179 261.223653 
L 224.17615 261.524006 
L 225.31493 261.270494 
L 225.815783 261.311895 
L 226.453711 261.254855 
L 226.933475 261.567027 
L 227.265619 261.781289 
L 227.587219 261.976016 
L 228.499298 262.344817 
L 228.836715 262.269825 
L 229.095049 262.180245 
L 229.51682 262.072514 
L 230.602879 262.148784 
L 231.098459 261.931528 
L 232.316322 261.667134 
L 232.585201 261.60905 
L 232.796086 261.585665 
L 233.386565 261.428033 
L 233.739798 261.59812 
L 234.319732 261.732288 
L 234.704598 261.863917 
L 235.052559 261.981383 
L 235.474329 262.204643 
L 236.312598 262.63742 
L 236.708008 262.64863 
L 237.229949 262.875218 
L 237.75189 262.942508 
L 238.247471 262.96111 
L 238.843222 262.805514 
L 239.164822 262.883132 
L 240.19816 262.805281 
L 240.467038 262.780767 
L 240.872993 262.837616 
L 241.189321 262.871431 
L 242.175209 262.664921 
L 242.365006 262.591661 
L 242.739327 262.484093 
L 242.997662 262.490574 
L 243.403616 262.404213 
L 243.56178 262.365432 
L 243.814842 262.245395 
L 244.083721 262.19045 
L 244.3526 262.095116 
L 244.574029 262.050644 
L 244.879813 261.884494 
L 245.718082 261.902646 
L 246.414004 262.113598 
L 246.714515 262.059364 
L 247.057204 262.017036 
L 247.600233 261.764963 
L 248.596666 261.435724 
L 248.90245 261.671716 
L 249.44548 261.820344 
L 251.090385 260.922686 
L 251.765218 260.535845 
L 252.081546 260.427748 
L 252.798556 260.300734 
L 253.209782 260.185551 
L 253.900431 259.682147 
L 254.290569 259.521342 
L 254.596353 259.478308 
L 255.20792 259.573036 
L 256.030373 259.390456 
L 256.39415 259.321272 
L 256.742111 259.238584 
L 257.016262 259.219187 
L 258.107593 259.121526 
L 258.497731 259.115795 
L 258.882596 259.115985 
L 259.135659 259.255977 
L 261.260328 260.034961 
L 261.829718 260.300714 
L 262.093325 260.53835 
L 262.710164 260.925444 
L 263.047581 260.929571 
L 263.511529 260.958527 
L 263.949116 261.101768 
L 264.254899 261.055299 
L 265.029903 260.878682 
L 265.762729 260.910182 
L 266.237221 260.634289 
L 266.411201 260.712889 
L 266.643175 260.82877 
L 267.033313 260.944669 
L 267.507805 261.160637 
L 267.929575 261.241462 
L 268.235359 261.311618 
L 268.535871 261.238913 
L 268.7573 261.26132 
L 269.15271 261.332438 
L 270.623635 261.252266 
L 270.992684 261.373217 
L 271.55153 261.807095 
L 271.973301 262.088508 
L 272.395071 262.210163 
L 272.980278 262.700437 
L 274.203413 263.043164 
L 274.488108 262.955174 
L 274.952056 262.884724 
L 275.516174 262.921178 
L 276.939649 262.906508 
L 277.614482 262.634195 
L 278.125879 262.692576 
L 278.579283 262.6653 
L 279.559899 262.598994 
L 280.324358 262.626359 
L 280.514155 262.628102 
L 281.115178 262.354124 
L 281.98508 261.883703 
L 282.786444 262.075549 
L 283.872503 262.466273 
L 284.331179 262.413419 
L 284.774038 262.508176 
L 285.011284 262.506767 
L 285.290707 262.34471 
L 285.949723 262.092308 
L 286.171153 262.026063 
L 286.740543 262.072814 
L 287.088504 262.181105 
L 287.383743 262.236472 
L 287.900412 262.191554 
L 289.350249 262.316065 
L 289.782564 262.254774 
L 290.162157 262.476355 
L 290.36777 262.741935 
L 290.73682 263.110925 
L 292.012676 263.159064 
L 292.919482 262.672214 
L 293.736663 262.160106 
L 294.163706 261.935534 
L 294.590748 261.792748 
L 295.175955 261.649135 
L 295.497555 261.640044 
L 296.557254 261.359267 
L 296.831404 261.432937 
L 297.469332 261.503512 
L 297.664401 261.510266 
L 298.0809 261.513988 
L 298.560664 261.329694 
L 298.755733 261.385897 
L 299.124782 261.518634 
L 299.425294 261.462411 
L 299.857608 261.399965 
L 300.353189 261.562233 
L 302.103537 261.75075 
L 302.30915 261.754222 
L 302.641294 261.803622 
L 303.374121 261.865094 
L 303.664088 261.711223 
L 304.196573 261.571336 
L 306.189439 261.901271 
L 306.627026 261.803673 
L 307.148967 261.947044 
L 307.602371 261.877172 
L 309.141833 262.1516 
L 309.473978 262.279604 
L 309.816666 262.248718 
L 311.018712 262.498008 
L 312.189126 262.312637 
L 312.890319 262.187998 
L 313.997467 261.93433 
L 314.814648 262.056829 
L 316.037782 262.472513 
L 316.586084 262.44305 
L 317.587789 262.176183 
L 318.33116 262.354933 
L 319.401403 262.789232 
L 319.981337 262.913254 
L 320.830151 262.894782 
L 321.884577 262.752261 
L 322.132367 262.816749 
L 322.907371 262.846969 
L 324.104145 262.695122 
L 324.53646 262.498084 
L 325.084761 262.157401 
L 325.543437 262.0897 
L 325.838676 262.175922 
L 326.645312 262.325303 
L 327.958073 262.389035 
L 328.458926 262.325808 
L 329.360461 262.319959 
L 330.683766 261.98928 
L 332.655543 262.85928 
L 333.752147 262.813045 
L 334.252999 262.804854 
L 334.938376 262.79687 
L 335.507767 262.924715 
L 336.715085 262.887001 
L 337.490089 263.040791 
L 337.917131 263.234718 
L 340.837892 262.742852 
L 341.713066 262.47601 
L 342.356267 262.324496 
L 343.215624 262.332839 
L 343.843008 262.514026 
L 344.280595 262.552369 
L 345.076687 262.448915 
L 345.498457 262.24927 
L 345.909684 262.246103 
L 346.326182 262.492038 
L 346.763769 262.766632 
L 347.322615 262.750362 
L 347.670576 262.390826 
L 348.129251 262.221599 
L 349.489462 261.755185 
L 349.774157 261.816494 
L 351.788111 262.645473 
L 352.178249 262.53281 
L 352.478761 262.498666 
L 352.905803 262.465184 
L 353.24322 262.52841 
L 353.538459 262.545413 
L 354.382 262.284207 
L 354.740505 262.230321 
L 355.831837 261.941401 
L 358.293922 261.733329 
L 358.589162 261.683486 
L 359.263995 261.499848 
L 359.654133 261.52023 
L 360.297333 261.377963 
L 360.861451 261.17651 
L 361.573189 261.014543 
L 362.274382 261.183278 
L 362.806868 261.288778 
L 363.38153 261.21035 
L 364.014186 261.145936 
L 365.833072 261.450593 
L 366.133583 261.537351 
L 366.834777 261.490622 
L 367.077295 261.555104 
L 367.836482 261.805731 
L 368.954174 261.701055 
L 369.734449 261.530739 
L 370.172036 261.558768 
L 370.641256 261.472779 
L 371.210646 261.376516 
L 371.579696 261.313916 
L 372.512863 261.309773 
L 373.203512 261.405372 
L 373.467119 261.375236 
L 373.973244 261.346611 
L 374.505729 261.341262 
L 374.721887 261.300926 
L 375.143657 261.187828 
L 375.728864 261.349193 
L 376.340431 261.332761 
L 376.899277 261.18863 
L 377.257782 261.121753 
L 378.038058 261.108007 
L 378.823605 261.054226 
L 382.229403 261.15857 
L 383.315462 261.401527 
L 384.269718 261.385313 
L 384.939279 261.252153 
L 385.329417 261.208846 
L 385.756459 261.263637 
L 386.642178 261.57069 
L 387.185207 261.635769 
L 388.150007 261.845693 
L 389.088447 261.987056 
L 389.620932 262.03736 
L 390.042703 261.983335 
L 394.302586 262.375583 
L 395.404461 262.538741 
L 395.794599 262.688163 
L 396.36399 262.827525 
L 398.240869 263.085496 
L 399.026416 263.192225 
L 400.571151 263.216982 
L 401.166902 263.463729 
L 401.762653 263.50313 
L 404.925932 263.523424 
L 405.869644 263.514496 
L 406.876621 263.465767 
L 408.163022 263.44434 
L 408.858943 263.392517 
L 409.227992 263.473285 
L 409.781566 263.530406 
L 410.609291 263.689352 
L 411.473921 263.679901 
L 411.99059 263.732855 
L 412.929029 263.826218 
L 413.999272 263.533495 
L 414.595023 263.412608 
L 415.591456 263.755862 
L 416.999115 263.894098 
L 418.143168 264.014328 
L 419.081607 264.026484 
L 419.687903 263.974695 
L 420.541988 263.977335 
L 421.095562 264.050482 
L 421.891654 264.120322 
L 422.476861 264.18157 
L 423.062067 264.327658 
L 423.48911 264.320069 
L 424.554081 264.250446 
L 426.256979 264.594396 
L 426.742016 264.535592 
L 428.096954 264.544556 
L 429.188285 264.411616 
L 429.915839 264.587737 
L 431.929794 264.60976 
L 432.88405 264.587236 
L 433.643237 264.546252 
L 434.180994 264.52311 
L 434.455145 264.570184 
L 435.119434 264.823982 
L 436.753795 264.870784 
L 437.391723 264.701099 
L 437.818766 264.682654 
L 438.367067 264.672723 
L 440.502281 264.527009 
L 440.955684 264.665925 
L 441.424904 264.811897 
L 442.152458 264.665774 
L 442.532052 264.6562 
L 443.001272 264.658039 
L 443.823724 264.452879 
L 444.756892 264.5938 
L 445.326282 264.625624 
L 446.280538 264.692921 
L 447.714558 264.319378 
L 448.336669 264.268877 
L 449.760145 264.320989 
L 451.162532 264.204677 
L 451.884814 264.079199 
L 453.650979 263.887989 
L 454.225641 263.97735 
L 455.506769 263.951533 
L 456.097248 263.925521 
L 457.272934 263.9381 
L 458.569878 264.113526 
L 459.988082 264.182981 
L 460.968698 264.240211 
L 462.513433 264.090529 
L 462.945748 264.091562 
L 463.578404 264.127087 
L 465.718889 264.173385 
L 466.235558 264.255014 
L 466.636241 264.375039 
L 467.03165 264.37471 
L 468.260057 263.949258 
L 471.344255 264.229307 
L 471.95055 264.020346 
L 473.516373 263.888328 
L 474.006681 263.871994 
L 477.781528 263.588297 
L 478.161122 263.710133 
L 478.466905 263.662502 
L 478.814866 263.657425 
L 479.779666 263.941288 
L 482.80587 263.999544 
L 483.217096 263.989309 
L 484.23989 263.746027 
L 485.125608 263.714841 
L 485.74772 263.531572 
L 486.654527 263.40187 
L 487.213373 263.375289 
L 488.758108 263.488081 
L 489.380219 263.482238 
L 492.4486 263.565857 
L 493.16561 263.485677 
L 494.304391 263.458859 
L 495.195381 263.577994 
L 497.088076 263.952221 
L 498.174136 264.00818 
L 498.711893 264.164884 
L 502.671265 264.478309 
L 503.093035 264.506051 
L 504.258176 264.42521 
L 504.954098 264.38968 
L 505.592026 264.433766 
L 506.867882 264.565369 
L 508.14901 264.477488 
L 508.955646 264.16717 
L 509.962623 263.948981 
L 510.626912 263.842103 
L 511.354466 263.770752 
L 514.254139 263.662131 
L 515.139857 263.77537 
L 515.988671 263.741524 
L 517.417419 263.74765 
L 517.739019 263.71589 
L 518.239871 263.724195 
L 519.29957 263.819224 
L 521.424239 264.133245 
L 521.751111 264.163945 
L 522.705367 264.24032 
L 523.0586 264.255916 
L 524.081394 264.356365 
L 524.856397 264.388862 
L 525.873919 264.366692 
L 526.369499 264.378571 
L 526.859807 264.330231 
L 527.43447 264.431072 
L 527.982772 264.456445 
L 528.562706 264.407885 
L 530.444857 264.423823 
L 531.652176 264.517209 
L 532.690786 264.486538 
L 533.597592 264.317153 
L 534.699468 264.307178 
L 535.485016 264.31138 
L 536.075495 264.423764 
L 536.713423 264.553242 
L 537.277541 264.589447 
L 537.862747 264.713766 
L 538.447954 264.692056 
L 539.966328 264.468526 
L 542.51804 264.636157 
L 543.082158 264.712329 
L 543.836073 264.768075 
L 545.101385 264.993365 
L 546.487956 265.198629 
L 548.486094 265.26012 
L 548.82351 265.296148 
L 549.893753 265.440736 
L 550.979813 265.342482 
L 551.501754 265.341387 
L 552.113321 265.382044 
L 555.271328 266.207018 
L 555.81963 266.232016 
L 556.346843 266.348634 
L 556.726437 266.382013 
L 562.784117 266.441873 
L 563.490582 266.456649 
L 564.249769 266.426711 
L 565.124943 266.335942 
L 565.979029 266.342984 
L 566.479881 266.478776 
L 566.917468 266.533772 
L 567.855908 266.472189 
L 570.354899 266.466733 
L 571.161535 266.60785 
L 573.903044 266.781447 
L 574.430257 266.691457 
L 576.375674 266.633499 
L 578.885209 266.656963 
L 580.551202 266.505593 
L 581.763793 266.443252 
L 582.391177 266.369537 
L 583.01856 266.345382 
L 583.535229 266.252478 
L 584.088803 266.262279 
L 585.174862 266.292723 
L 586.166023 266.327197 
L 586.598338 266.288575 
L 588.617565 266.179651 
L 589.856516 266.143892 
L 590.578798 266.111687 
L 591.517238 266.199318 
L 594.770143 266.142736 
L 595.081199 266.085727 
L 596.39396 265.870548 
L 597.406209 265.85565 
L 600.522039 265.755579 
L 601.275954 265.754828 
L 604.017463 265.615862 
L 606.015601 265.176495 
L 606.569175 265.232813 
L 609.932796 264.907689 
L 610.58654 264.951892 
L 610.839602 264.940893 
L 610.839602 264.940893 
" clip-path="url(#p2c7c7ba38b)" style="fill: none; stroke: #1f2937; stroke-linecap: square"/>
   </g>
   <g id="line2d_24">
    <path d="M 57.27125 264.940893 
L 637.2 264.940893 
" clip-path="url(#p2c7c7ba38b)" style="fill: none; stroke-dasharray: 2.96,1.28; stroke-dashoffset: 0; stroke: #888888; stroke-width: 0.8"/>
   </g>
   <g id="patch_3">
    <path d="M 57.27125 282.04 
L 57.27125 26.88 
" style="fill: none; stroke: #000000; stroke-width: 0.8; stroke-linejoin: miter; stroke-linecap: square"/>
   </g>
   <g id="patch_4">
    <path d="M 637.2 282.04 
L 637.2 26.88 
" style="fill: none; stroke: #000000; stroke-width: 0.8; stroke-linejoin: miter; stroke-linecap: square"/>
   </g>
   <g id="patch_5">
    <path d="M 57.27125 282.04 
L 637.2 282.04 
" style="fill: none; stroke: #000000; stroke-width: 0.8; stroke-linejoin: miter; stroke-linecap: square"/>
   </g>
   <g id="patch_6">
    <path d="M 57.27125 26.88 
L 637.2 26.88 
" style="fill: none; stroke: #000000; stroke-width: 0.8; stroke-linejoin: miter; stroke-linecap: square"/>
   </g>
   <g id="text_14">
    <!-- Running mean — population_mad  (canonical ReCom ensemble) -->
    <g transform="translate(154.164063 20.88) scale(0.12 -0.12)">
     <defs>
      <path id="DejaVuSans-2014" d="M 313 1978 
L 6088 1978 
L 6088 1528 
L 313 1528 
L 313 1978 
z
" transform="scale(0.015625)"/>
      <path id="DejaVuSans-28" d="M 1984 4856 
Q 1566 4138 1362 3434 
Q 1159 2731 1159 2009 
Q 1159 1288 1364 580 
Q 1569 -128 1984 -844 
L 1484 -844 
Q 1016 -109 783 600 
Q 550 1309 550 2009 
Q 550 2706 781 3412 
Q 1013 4119 1484 4856 
L 1984 4856 
z
" transform="scale(0.015625)"/>
      <path id="DejaVuSans-63" d="M 3122 3366 
L 3122 2828 
Q 2878 2963 2633 3030 
Q 2388 3097 2138 3097 
Q 1578 3097 1268 2742 
Q 959 2388 959 1747 
Q 959 1106 1268 751 
Q 1578 397 2138 397 
Q 2388 397 2633 464 
Q 2878 531 3122 666 
L 3122 134 
Q 2881 22 2623 -34 
Q 2366 -91 2075 -91 
Q 1284 -91 818 406 
Q 353 903 353 1747 
Q 353 2603 823 3093 
Q 1294 3584 2113 3584 
Q 2378 3584 2631 3529 
Q 2884 3475 3122 3366 
z
" transform="scale(0.015625)"/>
      <path id="DejaVuSans-43" d="M 4122 4306 
L 4122 3641 
Q 3803 3938 3442 4084 
Q 3081 4231 2675 4231 
Q 1875 4231 1450 3742 
Q 1025 3253 1025 2328 
Q 1025 1406 1450 917 
Q 1875 428 2675 428 
Q 3081 428 3442 575 
Q 3803 722 4122 1019 
L 4122 359 
Q 3791 134 3420 21 
Q 3050 -91 2638 -91 
Q 1578 -91 968 557 
Q 359 1206 359 2328 
Q 359 3453 968 4101 
Q 1578 4750 2638 4750 
Q 3056 4750 3426 4639 
Q 3797 4528 4122 4306 
z
" transform="scale(0.015625)"/>
      <path id="DejaVuSans-73" d="M 2834 3397 
L 2834 2853 
Q 2591 2978 2328 3040 
Q 2066 3103 1784 3103 
Q 1356 3103 1142 2972 
Q 928 2841 928 2578 
Q 928 2378 1081 2264 
Q 1234 2150 1697 2047 
L 1894 2003 
Q 2506 1872 2764 1633 
Q 3022 1394 3022 966 
Q 3022 478 2636 193 
Q 2250 -91 1575 -91 
Q 1294 -91 989 -36 
Q 684 19 347 128 
L 347 722 
Q 666 556 975 473 
Q 1284 391 1588 391 
Q 1994 391 2212 530 
Q 2431 669 2431 922 
Q 2431 1156 2273 1281 
Q 2116 1406 1581 1522 
L 1381 1569 
Q 847 1681 609 1914 
Q 372 2147 372 2553 
Q 372 3047 722 3315 
Q 1072 3584 1716 3584 
Q 2034 3584 2315 3537 
Q 2597 3491 2834 3397 
z
" transform="scale(0.015625)"/>
      <path id="DejaVuSans-62" d="M 3116 1747 
Q 3116 2381 2855 2742 
Q 2594 3103 2138 3103 
Q 1681 3103 1420 2742 
Q 1159 2381 1159 1747 
Q 1159 1113 1420 752 
Q 1681 391 2138 391 
Q 2594 391 2855 752 
Q 3116 1113 3116 1747 
z
M 1159 2969 
Q 1341 3281 1617 3432 
Q 1894 3584 2278 3584 
Q 2916 3584 3314 3078 
Q 3713 2572 3713 1747 
Q 3713 922 3314 415 
Q 2916 -91 2278 -91 
Q 1894 -91 1617 61 
Q 1341 213 1159 525 
L 1159 0 
L 581 0 
L 581 4863 
L 1159 4863 
L 1159 2969 
z
" transform="scale(0.015625)"/>
      <path id="DejaVuSans-29" d="M 513 4856 
L 1013 4856 
Q 1481 4119 1714 3412 
Q 1947 2706 1947 2009 
Q 1947 1309 1714 600 
Q 1481 -109 1013 -844 
L 513 -844 
Q 928 -128 1133 580 
Q 1338 1288 1338 2009 
Q 1338 2731 1133 3434 
Q 928 4138 513 4856 
z
" transform="scale(0.015625)"/>
     </defs>
     <use xlink:href="#DejaVuSans-52"/>
     <use xlink:href="#DejaVuSans-75" transform="translate(64.982422 0)"/>
     <use xlink:href="#DejaVuSans-6e" transform="translate(128.361328 0)"/>
     <use xlink:href="#DejaVuSans-6e" transform="translate(191.740234 0)"/>
     <use xlink:href="#DejaVuSans-69" transform="translate(255.119141 0)"/>
     <use xlink:href="#DejaVuSans-6e" transform="translate(282.902344 0)"/>
     <use xlink:href="#DejaVuSans-67" transform="translate(346.28125 0)"/>
     <use xlink:href="#DejaVuSans-20" transform="translate(409.757812 0)"/>
     <use xlink:href="#DejaVuSans-6d" transform="translate(441.544922 0)"/>
     <use xlink:href="#DejaVuSans-65" transform="translate(538.957031 0)"/>
     <use xlink:href="#DejaVuSans-61" transform="translate(600.480469 0)"/>
     <use xlink:href="#DejaVuSans-6e" transform="translate(661.759766 0)"/>
     <use xlink:href="#DejaVuSans-20" transform="translate(725.138672 0)"/>
     <use xlink:href="#DejaVuSans-2014" transform="translate(756.925781 0)"/>
     <use xlink:href="#DejaVuSans-20" transform="translate(856.925781 0)"/>
     <use xlink:href="#DejaVuSans-70" transform="translate(888.712891 0)"/>
     <use xlink:href="#DejaVuSans-6f" transform="translate(952.189453 0)"/>
     <use xlink:href="#DejaVuSans-70" transform="translate(1013.371094 0)"/>
     <use xlink:href="#DejaVuSans-75" transform="translate(1076.847656 0)"/>
     <use xlink:href="#DejaVuSans-6c" transform="translate(1140.226562 0)"/>
     <use xlink:href="#DejaVuSans-61" transform="translate(1168.009766 0)"/>
     <use xlink:href="#DejaVuSans-74" transform="translate(1229.289062 0)"/>
     <use xlink:href="#DejaVuSans-69" transform="translate(1268.498047 0)"/>
     <use xlink:href="#DejaVuSans-6f" transform="translate(1296.28125 0)"/>
     <use xlink:href="#DejaVuSans-6e" transform="translate(1357.462891 0)"/>
     <use xlink:href="#DejaVuSans-5f" transform="translate(1420.841797 0)"/>
     <use xlink:href="#DejaVuSans-6d" transform="translate(1470.841797 0)"/>
     <use xlink:href="#DejaVuSans-61" transform="translate(1568.253906 0)"/>
     <use xlink:href="#DejaVuSans-64" transform="translate(1629.533203 0)"/>
     <use xlink:href="#DejaVuSans-20" transform="translate(1693.009766 0)"/>
     <use xlink:href="#DejaVuSans-20" transform="translate(1724.796875 0)"/>
     <use xlink:href="#DejaVuSans-28" transform="translate(1756.583984 0)"/>
     <use xlink:href="#DejaVuSans-63" transform="translate(1795.597656 0)"/>
     <use xlink:href="#DejaVuSans-61" transform="translate(1850.578125 0)"/>
     <use xlink:href="#DejaVuSans-6e" transform="translate(1911.857422 0)"/>
     <use xlink:href="#DejaVuSans-6f" transform="translate(1975.236328 0)"/>
     <use xlink:href="#DejaVuSans-6e" transform="translate(2036.417969 0)"/>
     <use xlink:href="#DejaVuSans-69" transform="translate(2099.796875 0)"/>
     <use xlink:href="#DejaVuSans-63" transform="translate(2127.580078 0)"/>
     <use xlink:href="#DejaVuSans-61" transform="translate(2182.560547 0)"/>
     <use xlink:href="#DejaVuSans-6c" transform="translate(2243.839844 0)"/>
     <use xlink:href="#DejaVuSans-20" transform="translate(2271.623047 0)"/>
     <use xlink:href="#DejaVuSans-52" transform="translate(2303.410156 0)"/>
     <use xlink:href="#DejaVuSans-65" transform="translate(2368.392578 0)"/>
     <use xlink:href="#DejaVuSans-43" transform="translate(2429.916016 0)"/>
     <use xlink:href="#DejaVuSans-6f" transform="translate(2499.740234 0)"/>
     <use xlink:href="#DejaVuSans-6d" transform="translate(2560.921875 0)"/>
     <use xlink:href="#DejaVuSans-20" transform="translate(2658.333984 0)"/>
     <use xlink:href="#DejaVuSans-65" transform="translate(2690.121094 0)"/>
     <use xlink:href="#DejaVuSans-6e" transform="translate(2751.644531 0)"/>
     <use xlink:href="#DejaVuSans-73" transform="translate(2815.023438 0)"/>
     <use xlink:href="#DejaVuSans-65" transform="translate(2867.123047 0)"/>
     <use xlink:href="#DejaVuSans-6d" transform="translate(2928.646484 0)"/>
     <use xlink:href="#DejaVuSans-62" transform="translate(3026.058594 0)"/>
     <use xlink:href="#DejaVuSans-6c" transform="translate(3089.535156 0)"/>
     <use xlink:href="#DejaVuSans-65" transform="translate(3117.318359 0)"/>
     <use xlink:href="#DejaVuSans-29" transform="translate(3178.841797 0)"/>
    </g>
   </g>
   <g id="legend_1">
    <g id="patch_7">
     <path d="M 479.127656 47.290312 
L 630.9 47.290312 
Q 632.7 47.290312 632.7 45.490312 
L 632.7 33.18 
Q 632.7 31.38 630.9 31.38 
L 479.127656 31.38 
Q 477.327656 31.38 477.327656 33.18 
L 477.327656 45.490312 
Q 477.327656 47.290312 479.127656 47.290312 
z
" style="fill: #ffffff; opacity: 0.8; stroke: #cccccc; stroke-linejoin: miter"/>
    </g>
    <g id="line2d_25">
     <path d="M 480.927656 38.668594 
L 489.927656 38.668594 
L 498.927656 38.668594 
" style="fill: none; stroke-dasharray: 2.96,1.28; stroke-dashoffset: 0; stroke: #888888; stroke-width: 0.8"/>
    </g>
    <g id="text_15">
     <!-- final mean = +3143.27469 -->
     <g transform="translate(506.127656 41.818594) scale(0.09 -0.09)">
      <defs>
       <path id="DejaVuSans-3d" d="M 678 2906 
L 4684 2906 
L 4684 2381 
L 678 2381 
L 678 2906 
z
M 678 1631 
L 4684 1631 
L 4684 1100 
L 678 1100 
L 678 1631 
z
" transform="scale(0.015625)"/>
       <path id="DejaVuSans-2b" d="M 2944 4013 
L 2944 2272 
L 4684 2272 
L 4684 1741 
L 2944 1741 
L 2944 0 
L 2419 0 
L 2419 1741 
L 678 1741 
L 678 2272 
L 2419 2272 
L 2419 4013 
L 2944 4013 
z
" transform="scale(0.015625)"/>
       <path id="DejaVuSans-2e" d="M 684 794 
L 1344 794 
L 1344 0 
L 684 0 
L 684 794 
z
" transform="scale(0.015625)"/>
       <path id="DejaVuSans-37" d="M 525 4666 
L 3525 4666 
L 3525 4397 
L 1831 0 
L 1172 0 
L 2766 4134 
L 525 4134 
L 525 4666 
z
" transform="scale(0.015625)"/>
       <path id="DejaVuSans-39" d="M 703 97 
L 703 672 
Q 941 559 1184 500 
Q 1428 441 1663 441 
Q 2288 441 2617 861 
Q 2947 1281 2994 2138 
Q 2813 1869 2534 1725 
Q 2256 1581 1919 1581 
Q 1219 1581 811 2004 
Q 403 2428 403 3163 
Q 403 3881 828 4315 
Q 1253 4750 1959 4750 
Q 2769 4750 3195 4129 
Q 3622 3509 3622 2328 
Q 3622 1225 3098 567 
Q 2575 -91 1691 -91 
Q 1453 -91 1209 -44 
Q 966 3 703 97 
z
M 1959 2075 
Q 2384 2075 2632 2365 
Q 2881 2656 2881 3163 
Q 2881 3666 2632 3958 
Q 2384 4250 1959 4250 
Q 1534 4250 1286 3958 
Q 1038 3666 1038 3163 
Q 1038 2656 1286 2365 
Q 1534 2075 1959 2075 
z
" transform="scale(0.015625)"/>
      </defs>
      <use xlink:href="#DejaVuSans-66"/>
      <use xlink:href="#DejaVuSans-69" transform="translate(35.205078 0)"/>
      <use xlink:href="#DejaVuSans-6e" transform="translate(62.988281 0)"/>
      <use xlink:href="#DejaVuSans-61" transform="translate(126.367188 0)"/>
      <use xlink:href="#DejaVuSans-6c" transform="translate(187.646484 0)"/>
      <use xlink:href="#DejaVuSans-20" transform="translate(215.429688 0)"/>
      <use xlink:href="#DejaVuSans-6d" transform="translate(247.216797 0)"/>
      <use xlink:href="#DejaVuSans-65" transform="translate(344.628906 0)"/>
      <use xlink:href="#DejaVuSans-61" transform="translate(406.152344 0)"/>
      <use xlink:href="#DejaVuSans-6e" transform="translate(467.431641 0)"/>
      <use xlink:href="#DejaVuSans-20" transform="translate(530.810547 0)"/>
      <use xlink:href="#DejaVuSans-3d" transform="translate(562.597656 0)"/>
      <use xlink:href="#DejaVuSans-20" transform="translate(646.386719 0)"/>
      <use xlink:href="#DejaVuSans-2b" transform="translate(678.173828 0)"/>
      <use xlink:href="#DejaVuSans-33" transform="translate(761.962891 0)"/>
      <use xlink:href="#DejaVuSans-31" transform="translate(825.585938 0)"/>
      <use xlink:href="#DejaVuSans-34" transform="translate(889.208984 0)"/>
      <use xlink:href="#DejaVuSans-33" transform="translate(952.832031 0)"/>
      <use xlink:href="#DejaVuSans-2e" transform="translate(1016.455078 0)"/>
      <use xlink:href="#DejaVuSans-32" transform="translate(1048.242188 0)"/>
      <use xlink:href="#DejaVuSans-37" transform="translate(1111.865234 0)"/>
      <use xlink:href="#DejaVuSans-34" transform="translate(1175.488281 0)"/>
      <use xlink:href="#DejaVuSans-36" transform="translate(1239.111328 0)"/>
      <use xlink:href="#DejaVuSans-39" transform="translate(1302.734375 0)"/>
     </g>
    </g>
   </g>
  </g>
 </g>
 <defs>
  <clipPath id="p2c7c7ba38b">
   <rect x="57.27125" y="26.88" width="579.92875" height="255.16"/>
  </clipPath>
 </defs>
</svg>
