<?xml version="1.0" encoding="utf-8" standalone="no"?>
<!DOCTYPE svg PUBLIC "-//W3C//DTD SVG 1.1//EN"
  "http://www.w3.org/Graphics/SVG/1.1/DTD/svg11.dtd">
<svg xmlns:xlink="http://www.w3.org/1999/xlink" width="648pt" height="324pt" viewBox="0 0 648 324" xmlns="http://www.w3.org/2000/svg" version="1.1">
 <metadata>
  <rdf:RDF xmlns:dc="http://purl.org/dc/elements/1.1/" xmlns:cc="http://creativecommons.org/ns#" xmlns:rdf="http://www.w3.org/1999/02/22-rdf-syntax-ns#">
   <cc:Work>
    <dc:type rdf:resource="http://purl.org/dc/dcmitype/StillImage"/>
    <dc:date>2026-05-18T20:45:59.402025</dc:date>
    <dc:format>image/svg+xml</dc:format>
    <dc:creator>
     <cc:Agent>
      <dc:title>Matplotlib v3.10.8, https://matplotlib.org/</dc:title>
     </cc:Agent>
    </dc:creator>
   </cc:Work>
  </rdf:RDF>
 </metadata>
 <defs>
  <style type="text/css">*{stroke-linejoin: round; stroke-linecap: butt}</style>
 </defs>
 <g id="figure_1">
  <g id="patch_1">
   <path d="M 0 324 
L 648 324 
L 648 0 
L 0 0 
z
" style="fill: #ffffff"/>
  </g>
  <g id="axes_1">
   <g id="patch_2">
    <path d="M 62.39 282.04 
L 637.2 282.04 
L 637.2 26.88 
L 62.39 26.88 
z
" style="fill: #ffffff"/>
   </g>
   <g id="matplotlib.axis_1">
    <g id="xtick_1">
     <g id="line2d_1">
      <path d="M 88.51721 282.04 
L 88.51721 26.88 
" clip-path="url(#p660c62a3cb)" style="fill: none; stroke-dasharray: 0.5,0.825; stroke-dashoffset: 0; stroke: #b0b0b0; stroke-opacity: 0.6; stroke-width: 0.5"/>
     </g>
     <g id="line2d_2">
      <defs>
       <path id="mf4ff0eebac" d="M 0 0 
L 0 3.5 
" style="stroke: #000000; stroke-width: 0.8"/>
      </defs>
      <g>
       <use xlink:href="#mf4ff0eebac" x="88.51721" y="282.04" style="stroke: #000000; stroke-width: 0.8"/>
      </g>
     </g>
     <g id="text_1">
      <!-- 0.0 -->
      <g transform="translate(80.565647 296.638438) scale(0.1 -0.1)">
       <defs>
        <path id="DejaVuSans-30" d="M 2034 4250 
Q 1547 4250 1301 3770 
Q 1056 3291 1056 2328 
Q 1056 1369 1301 889 
Q 1547 409 2034 409 
Q 2525 409 2770 889 
Q 3016 1369 3016 2328 
Q 3016 3291 2770 3770 
Q 2525 4250 2034 4250 
z
M 2034 4750 
Q 2819 4750 3233 4129 
Q 3647 3509 3647 2328 
Q 3647 1150 3233 529 
Q 2819 -91 2034 -91 
Q 1250 -91 836 529 
Q 422 1150 422 2328 
Q 422 3509 836 4129 
Q 1250 4750 2034 4750 
z
" transform="scale(0.015625)"/>
        <path id="DejaVuSans-2e" d="M 684 794 
L 1344 794 
L 1344 0 
L 684 0 
L 684 794 
z
" transform="scale(0.015625)"/>
       </defs>
       <use xlink:href="#DejaVuSans-30"/>
       <use xlink:href="#DejaVuSans-2e" transform="translate(63.623047 0)"/>
       <use xlink:href="#DejaVuSans-30" transform="translate(95.410156 0)"/>
      </g>
     </g>
    </g>
    <g id="xtick_2">
     <g id="line2d_3">
      <path d="M 191.99346 282.04 
L 191.99346 26.88 
" clip-path="url(#p660c62a3cb)" style="fill: none; stroke-dasharray: 0.5,0.825; stroke-dashoffset: 0; stroke: #b0b0b0; stroke-opacity: 0.6; stroke-width: 0.5"/>
     </g>
     <g id="line2d_4">
      <g>
       <use xlink:href="#mf4ff0eebac" x="191.99346" y="282.04" style="stroke: #000000; stroke-width: 0.8"/>
      </g>
     </g>
     <g id="text_2">
      <!-- 0.2 -->
      <g transform="translate(184.041897 296.638438) scale(0.1 -0.1)">
       <defs>
        <path id="DejaVuSans-32" d="M 1228 531 
L 3431 531 
L 3431 0 
L 469 0 
L 469 531 
Q 828 903 1448 1529 
Q 2069 2156 2228 2338 
Q 2531 2678 2651 2914 
Q 2772 3150 2772 3378 
Q 2772 3750 2511 3984 
Q 2250 4219 1831 4219 
Q 1534 4219 1204 4116 
Q 875 4013 500 3803 
L 500 4441 
Q 881 4594 1212 4672 
Q 1544 4750 1819 4750 
Q 2544 4750 2975 4387 
Q 3406 4025 3406 3419 
Q 3406 3131 3298 2873 
Q 3191 2616 2906 2266 
Q 2828 2175 2409 1742 
Q 1991 1309 1228 531 
z
" transform="scale(0.015625)"/>
       </defs>
       <use xlink:href="#DejaVuSans-30"/>
       <use xlink:href="#DejaVuSans-2e" transform="translate(63.623047 0)"/>
       <use xlink:href="#DejaVuSans-32" transform="translate(95.410156 0)"/>
      </g>
     </g>
    </g>
    <g id="xtick_3">
     <g id="line2d_5">
      <path d="M 295.46971 282.04 
L 295.46971 26.88 
" clip-path="url(#p660c62a3cb)" style="fill: none; stroke-dasharray: 0.5,0.825; stroke-dashoffset: 0; stroke: #b0b0b0; stroke-opacity: 0.6; stroke-width: 0.5"/>
     </g>
     <g id="line2d_6">
      <g>
       <use xlink:href="#mf4ff0eebac" x="295.46971" y="282.04" style="stroke: #000000; stroke-width: 0.8"/>
      </g>
     </g>
     <g id="text_3">
      <!-- 0.4 -->
      <g transform="translate(287.518148 296.638438) scale(0.1 -0.1)">
       <defs>
        <path id="DejaVuSans-34" d="M 2419 4116 
L 825 1625 
L 2419 1625 
L 2419 4116 
z
M 2253 4666 
L 3047 4666 
L 3047 1625 
L 3713 1625 
L 3713 1100 
L 3047 1100 
L 3047 0 
L 2419 0 
L 2419 1100 
L 313 1100 
L 313 1709 
L 2253 4666 
z
" transform="scale(0.015625)"/>
       </defs>
       <use xlink:href="#DejaVuSans-30"/>
       <use xlink:href="#DejaVuSans-2e" transform="translate(63.623047 0)"/>
       <use xlink:href="#DejaVuSans-34" transform="translate(95.410156 0)"/>
      </g>
     </g>
    </g>
    <g id="xtick_4">
     <g id="line2d_7">
      <path d="M 398.94596 282.04 
L 398.94596 26.88 
" clip-path="url(#p660c62a3cb)" style="fill: none; stroke-dasharray: 0.5,0.825; stroke-dashoffset: 0; stroke: #b0b0b0; stroke-opacity: 0.6; stroke-width: 0.5"/>
     </g>
     <g id="line2d_8">
      <g>
       <use xlink:href="#mf4ff0eebac" x="398.94596" y="282.04" style="stroke: #000000; stroke-width: 0.8"/>
      </g>
     </g>
     <g id="text_4">
      <!-- 0.6 -->
      <g transform="translate(390.994398 296.638438) scale(0.1 -0.1)">
       <defs>
        <path id="DejaVuSans-36" d="M 2113 2584 
Q 1688 2584 1439 2293 
Q 1191 2003 1191 1497 
Q 1191 994 1439 701 
Q 1688 409 2113 409 
Q 2538 409 2786 701 
Q 3034 994 3034 1497 
Q 3034 2003 2786 2293 
Q 2538 2584 2113 2584 
z
M 3366 4563 
L 3366 3988 
Q 3128 4100 2886 4159 
Q 2644 4219 2406 4219 
Q 1781 4219 1451 3797 
Q 1122 3375 1075 2522 
Q 1259 2794 1537 2939 
Q 1816 3084 2150 3084 
Q 2853 3084 3261 2657 
Q 3669 2231 3669 1497 
Q 3669 778 3244 343 
Q 2819 -91 2113 -91 
Q 1303 -91 875 529 
Q 447 1150 447 2328 
Q 447 3434 972 4092 
Q 1497 4750 2381 4750 
Q 2619 4750 2861 4703 
Q 3103 4656 3366 4563 
z
" transform="scale(0.015625)"/>
       </defs>
       <use xlink:href="#DejaVuSans-30"/>
       <use xlink:href="#DejaVuSans-2e" transform="translate(63.623047 0)"/>
       <use xlink:href="#DejaVuSans-36" transform="translate(95.410156 0)"/>
      </g>
     </g>
    </g>
    <g id="xtick_5">
     <g id="line2d_9">
      <path d="M 502.42221 282.04 
L 502.42221 26.88 
" clip-path="url(#p660c62a3cb)" style="fill: none; stroke-dasharray: 0.5,0.825; stroke-dashoffset: 0; stroke: #b0b0b0; stroke-opacity: 0.6; stroke-width: 0.5"/>
     </g>
     <g id="line2d_10">
      <g>
       <use xlink:href="#mf4ff0eebac" x="502.42221" y="282.04" style="stroke: #000000; stroke-width: 0.8"/>
      </g>
     </g>
     <g id="text_5">
      <!-- 0.8 -->
      <g transform="translate(494.470648 296.638438) scale(0.1 -0.1)">
       <defs>
        <path id="DejaVuSans-38" d="M 2034 2216 
Q 1584 2216 1326 1975 
Q 1069 1734 1069 1313 
Q 1069 891 1326 650 
Q 1584 409 2034 409 
Q 2484 409 2743 651 
Q 3003 894 3003 1313 
Q 3003 1734 2745 1975 
Q 2488 2216 2034 2216 
z
M 1403 2484 
Q 997 2584 770 2862 
Q 544 3141 544 3541 
Q 544 4100 942 4425 
Q 1341 4750 2034 4750 
Q 2731 4750 3128 4425 
Q 3525 4100 3525 3541 
Q 3525 3141 3298 2862 
Q 3072 2584 2669 2484 
Q 3125 2378 3379 2068 
Q 3634 1759 3634 1313 
Q 3634 634 3220 271 
Q 2806 -91 2034 -91 
Q 1263 -91 848 271 
Q 434 634 434 1313 
Q 434 1759 690 2068 
Q 947 2378 1403 2484 
z
M 1172 3481 
Q 1172 3119 1398 2916 
Q 1625 2713 2034 2713 
Q 2441 2713 2670 2916 
Q 2900 3119 2900 3481 
Q 2900 3844 2670 4047 
Q 2441 4250 2034 4250 
Q 1625 4250 1398 4047 
Q 1172 3844 1172 3481 
z
" transform="scale(0.015625)"/>
       </defs>
       <use xlink:href="#DejaVuSans-30"/>
       <use xlink:href="#DejaVuSans-2e" transform="translate(63.623047 0)"/>
       <use xlink:href="#DejaVuSans-38" transform="translate(95.410156 0)"/>
      </g>
     </g>
    </g>
    <g id="xtick_6">
     <g id="line2d_11">
      <path d="M 605.89846 282.04 
L 605.89846 26.88 
" clip-path="url(#p660c62a3cb)" style="fill: none; stroke-dasharray: 0.5,0.825; stroke-dashoffset: 0; stroke: #b0b0b0; stroke-opacity: 0.6; stroke-width: 0.5"/>
     </g>
     <g id="line2d_12">
      <g>
       <use xlink:href="#mf4ff0eebac" x="605.89846" y="282.04" style="stroke: #000000; stroke-width: 0.8"/>
      </g>
     </g>
     <g id="text_6">
      <!-- 1.0 -->
      <g transform="translate(597.946898 296.638438) scale(0.1 -0.1)">
       <defs>
        <path id="DejaVuSans-31" d="M 794 531 
L 1825 531 
L 1825 4091 
L 703 3866 
L 703 4441 
L 1819 4666 
L 2450 4666 
L 2450 531 
L 3481 531 
L 3481 0 
L 794 0 
L 794 531 
z
" transform="scale(0.015625)"/>
       </defs>
       <use xlink:href="#DejaVuSans-31"/>
       <use xlink:href="#DejaVuSans-2e" transform="translate(63.623047 0)"/>
       <use xlink:href="#DejaVuSans-30" transform="translate(95.410156 0)"/>
      </g>
     </g>
    </g>
    <g id="text_7">
     <!-- Sample index -->
     <g transform="translate(315.777031 310.316563) scale(0.1 -0.1)">
      <defs>
       <path id="DejaVuSans-53" d="M 3425 4513 
L 3425 3897 
Q 3066 4069 2747 4153 
Q 2428 4238 2131 4238 
Q 1616 4238 1336 4038 
Q 1056 3838 1056 3469 
Q 1056 3159 1242 3001 
Q 1428 2844 1947 2747 
L 2328 2669 
Q 3034 2534 3370 2195 
Q 3706 1856 3706 1288 
Q 3706 609 3251 259 
Q 2797 -91 1919 -91 
Q 1588 -91 1214 -16 
Q 841 59 441 206 
L 441 856 
Q 825 641 1194 531 
Q 1563 422 1919 422 
Q 2459 422 2753 634 
Q 3047 847 3047 1241 
Q 3047 1584 2836 1778 
Q 2625 1972 2144 2069 
L 1759 2144 
Q 1053 2284 737 2584 
Q 422 2884 422 3419 
Q 422 4038 858 4394 
Q 1294 4750 2059 4750 
Q 2388 4750 2728 4690 
Q 3069 4631 3425 4513 
z
" transform="scale(0.015625)"/>
       <path id="DejaVuSans-61" d="M 2194 1759 
Q 1497 1759 1228 1600 
Q 959 1441 959 1056 
Q 959 750 1161 570 
Q 1363 391 1709 391 
Q 2188 391 2477 730 
Q 2766 1069 2766 1631 
L 2766 1759 
L 2194 1759 
z
M 3341 1997 
L 3341 0 
L 2766 0 
L 2766 531 
Q 2569 213 2275 61 
Q 1981 -91 1556 -91 
Q 1019 -91 701 211 
Q 384 513 384 1019 
Q 384 1609 779 1909 
Q 1175 2209 1959 2209 
L 2766 2209 
L 2766 2266 
Q 2766 2663 2505 2880 
Q 2244 3097 1772 3097 
Q 1472 3097 1187 3025 
Q 903 2953 641 2809 
L 641 3341 
Q 956 3463 1253 3523 
Q 1550 3584 1831 3584 
Q 2591 3584 2966 3190 
Q 3341 2797 3341 1997 
z
" transform="scale(0.015625)"/>
       <path id="DejaVuSans-6d" d="M 3328 2828 
Q 3544 3216 3844 3400 
Q 4144 3584 4550 3584 
Q 5097 3584 5394 3201 
Q 5691 2819 5691 2113 
L 5691 0 
L 5113 0 
L 5113 2094 
Q 5113 2597 4934 2840 
Q 4756 3084 4391 3084 
Q 3944 3084 3684 2787 
Q 3425 2491 3425 1978 
L 3425 0 
L 2847 0 
L 2847 2094 
Q 2847 2600 2669 2842 
Q 2491 3084 2119 3084 
Q 1678 3084 1418 2786 
Q 1159 2488 1159 1978 
L 1159 0 
L 581 0 
L 581 3500 
L 1159 3500 
L 1159 2956 
Q 1356 3278 1631 3431 
Q 1906 3584 2284 3584 
Q 2666 3584 2933 3390 
Q 3200 3197 3328 2828 
z
" transform="scale(0.015625)"/>
       <path id="DejaVuSans-70" d="M 1159 525 
L 1159 -1331 
L 581 -1331 
L 581 3500 
L 1159 3500 
L 1159 2969 
Q 1341 3281 1617 3432 
Q 1894 3584 2278 3584 
Q 2916 3584 3314 3078 
Q 3713 2572 3713 1747 
Q 3713 922 3314 415 
Q 2916 -91 2278 -91 
Q 1894 -91 1617 61 
Q 1341 213 1159 525 
z
M 3116 1747 
Q 3116 2381 2855 2742 
Q 2594 3103 2138 3103 
Q 1681 3103 1420 2742 
Q 1159 2381 1159 1747 
Q 1159 1113 1420 752 
Q 1681 391 2138 391 
Q 2594 391 2855 752 
Q 3116 1113 3116 1747 
z
" transform="scale(0.015625)"/>
       <path id="DejaVuSans-6c" d="M 603 4863 
L 1178 4863 
L 1178 0 
L 603 0 
L 603 4863 
z
" transform="scale(0.015625)"/>
       <path id="DejaVuSans-65" d="M 3597 1894 
L 3597 1613 
L 953 1613 
Q 991 1019 1311 708 
Q 1631 397 2203 397 
Q 2534 397 2845 478 
Q 3156 559 3463 722 
L 3463 178 
Q 3153 47 2828 -22 
Q 2503 -91 2169 -91 
Q 1331 -91 842 396 
Q 353 884 353 1716 
Q 353 2575 817 3079 
Q 1281 3584 2069 3584 
Q 2775 3584 3186 3129 
Q 3597 2675 3597 1894 
z
M 3022 2063 
Q 3016 2534 2758 2815 
Q 2500 3097 2075 3097 
Q 1594 3097 1305 2825 
Q 1016 2553 972 2059 
L 3022 2063 
z
" transform="scale(0.015625)"/>
       <path id="DejaVuSans-20" transform="scale(0.015625)"/>
       <path id="DejaVuSans-69" d="M 603 3500 
L 1178 3500 
L 1178 0 
L 603 0 
L 603 3500 
z
M 603 4863 
L 1178 4863 
L 1178 4134 
L 603 4134 
L 603 4863 
z
" transform="scale(0.015625)"/>
       <path id="DejaVuSans-6e" d="M 3513 2113 
L 3513 0 
L 2938 0 
L 2938 2094 
Q 2938 2591 2744 2837 
Q 2550 3084 2163 3084 
Q 1697 3084 1428 2787 
Q 1159 2491 1159 1978 
L 1159 0 
L 581 0 
L 581 3500 
L 1159 3500 
L 1159 2956 
Q 1366 3272 1645 3428 
Q 1925 3584 2291 3584 
Q 2894 3584 3203 3211 
Q 3513 2838 3513 2113 
z
" transform="scale(0.015625)"/>
       <path id="DejaVuSans-64" d="M 2906 2969 
L 2906 4863 
L 3481 4863 
L 3481 0 
L 2906 0 
L 2906 525 
Q 2725 213 2448 61 
Q 2172 -91 1784 -91 
Q 1150 -91 751 415 
Q 353 922 353 1747 
Q 353 2572 751 3078 
Q 1150 3584 1784 3584 
Q 2172 3584 2448 3432 
Q 2725 3281 2906 2969 
z
M 947 1747 
Q 947 1113 1208 752 
Q 1469 391 1925 391 
Q 2381 391 2643 752 
Q 2906 1113 2906 1747 
Q 2906 2381 2643 2742 
Q 2381 3103 1925 3103 
Q 1469 3103 1208 2742 
Q 947 2381 947 1747 
z
" transform="scale(0.015625)"/>
       <path id="DejaVuSans-78" d="M 3513 3500 
L 2247 1797 
L 3578 0 
L 2900 0 
L 1881 1375 
L 863 0 
L 184 0 
L 1544 1831 
L 300 3500 
L 978 3500 
L 1906 2253 
L 2834 3500 
L 3513 3500 
z
" transform="scale(0.015625)"/>
      </defs>
      <use xlink:href="#DejaVuSans-53"/>
      <use xlink:href="#DejaVuSans-61" transform="translate(63.476562 0)"/>
      <use xlink:href="#DejaVuSans-6d" transform="translate(124.755859 0)"/>
      <use xlink:href="#DejaVuSans-70" transform="translate(222.167969 0)"/>
      <use xlink:href="#DejaVuSans-6c" transform="translate(285.644531 0)"/>
      <use xlink:href="#DejaVuSans-65" transform="translate(313.427734 0)"/>
      <use xlink:href="#DejaVuSans-20" transform="translate(374.951172 0)"/>
      <use xlink:href="#DejaVuSans-69" transform="translate(406.738281 0)"/>
      <use xlink:href="#DejaVuSans-6e" transform="translate(434.521484 0)"/>
      <use xlink:href="#DejaVuSans-64" transform="translate(497.900391 0)"/>
      <use xlink:href="#DejaVuSans-65" transform="translate(561.376953 0)"/>
      <use xlink:href="#DejaVuSans-78" transform="translate(621.150391 0)"/>
     </g>
    </g>
    <g id="text_8">
     <!-- 1e6 -->
     <g transform="translate(618.321875 309.316563) scale(0.1 -0.1)">
      <use xlink:href="#DejaVuSans-31"/>
      <use xlink:href="#DejaVuSans-65" transform="translate(63.623047 0)"/>
      <use xlink:href="#DejaVuSans-36" transform="translate(125.146484 0)"/>
     </g>
    </g>
   </g>
   <g id="matplotlib.axis_2">
    <g id="ytick_1">
     <g id="line2d_13">
      <path d="M 62.39 246.662956 
L 637.2 246.662956 
" clip-path="url(#p660c62a3cb)" style="fill: none; stroke-dasharray: 0.5,0.825; stroke-dashoffset: 0; stroke: #b0b0b0; stroke-opacity: 0.6; stroke-width: 0.5"/>
     </g>
     <g id="line2d_14">
      <defs>
       <path id="me988da154d" d="M 0 0 
L -3.5 0 
" style="stroke: #000000; stroke-width: 0.8"/>
      </defs>
      <g>
       <use xlink:href="#me988da154d" x="62.39" y="246.662956" style="stroke: #000000; stroke-width: 0.8"/>
      </g>
     </g>
     <g id="text_9">
      <!-- −0.02 -->
      <g transform="translate(24.744688 250.462175) scale(0.1 -0.1)">
       <defs>
        <path id="DejaVuSans-2212" d="M 678 2272 
L 4684 2272 
L 4684 1741 
L 678 1741 
L 678 2272 
z
" transform="scale(0.015625)"/>
       </defs>
       <use xlink:href="#DejaVuSans-2212"/>
       <use xlink:href="#DejaVuSans-30" transform="translate(83.789062 0)"/>
       <use xlink:href="#DejaVuSans-2e" transform="translate(147.412109 0)"/>
       <use xlink:href="#DejaVuSans-30" transform="translate(179.199219 0)"/>
       <use xlink:href="#DejaVuSans-32" transform="translate(242.822266 0)"/>
      </g>
     </g>
    </g>
    <g id="ytick_2">
     <g id="line2d_15">
      <path d="M 62.39 197.359854 
L 637.2 197.359854 
" clip-path="url(#p660c62a3cb)" style="fill: none; stroke-dasharray: 0.5,0.825; stroke-dashoffset: 0; stroke: #b0b0b0; stroke-opacity: 0.6; stroke-width: 0.5"/>
     </g>
     <g id="line2d_16">
      <g>
       <use xlink:href="#me988da154d" x="62.39" y="197.359854" style="stroke: #000000; stroke-width: 0.8"/>
      </g>
     </g>
     <g id="text_10">
      <!-- −0.01 -->
      <g transform="translate(24.744688 201.159072) scale(0.1 -0.1)">
       <use xlink:href="#DejaVuSans-2212"/>
       <use xlink:href="#DejaVuSans-30" transform="translate(83.789062 0)"/>
       <use xlink:href="#DejaVuSans-2e" transform="translate(147.412109 0)"/>
       <use xlink:href="#DejaVuSans-30" transform="translate(179.199219 0)"/>
       <use xlink:href="#DejaVuSans-31" transform="translate(242.822266 0)"/>
      </g>
     </g>
    </g>
    <g id="ytick_3">
     <g id="line2d_17">
      <path d="M 62.39 148.056751 
L 637.2 148.056751 
" clip-path="url(#p660c62a3cb)" style="fill: none; stroke-dasharray: 0.5,0.825; stroke-dashoffset: 0; stroke: #b0b0b0; stroke-opacity: 0.6; stroke-width: 0.5"/>
     </g>
     <g id="line2d_18">
      <g>
       <use xlink:href="#me988da154d" x="62.39" y="148.056751" style="stroke: #000000; stroke-width: 0.8"/>
      </g>
     </g>
     <g id="text_11">
      <!-- 0.00 -->
      <g transform="translate(33.124375 151.85597) scale(0.1 -0.1)">
       <use xlink:href="#DejaVuSans-30"/>
       <use xlink:href="#DejaVuSans-2e" transform="translate(63.623047 0)"/>
       <use xlink:href="#DejaVuSans-30" transform="translate(95.410156 0)"/>
       <use xlink:href="#DejaVuSans-30" transform="translate(159.033203 0)"/>
      </g>
     </g>
    </g>
    <g id="ytick_4">
     <g id="line2d_19">
      <path d="M 62.39 98.753649 
L 637.2 98.753649 
" clip-path="url(#p660c62a3cb)" style="fill: none; stroke-dasharray: 0.5,0.825; stroke-dashoffset: 0; stroke: #b0b0b0; stroke-opacity: 0.6; stroke-width: 0.5"/>
     </g>
     <g id="line2d_20">
      <g>
       <use xlink:href="#me988da154d" x="62.39" y="98.753649" style="stroke: #000000; stroke-width: 0.8"/>
      </g>
     </g>
     <g id="text_12">
      <!-- 0.01 -->
      <g transform="translate(33.124375 102.552867) scale(0.1 -0.1)">
       <use xlink:href="#DejaVuSans-30"/>
       <use xlink:href="#DejaVuSans-2e" transform="translate(63.623047 0)"/>
       <use xlink:href="#DejaVuSans-30" transform="translate(95.410156 0)"/>
       <use xlink:href="#DejaVuSans-31" transform="translate(159.033203 0)"/>
      </g>
     </g>
    </g>
    <g id="ytick_5">
     <g id="line2d_21">
      <path d="M 62.39 49.450546 
L 637.2 49.450546 
" clip-path="url(#p660c62a3cb)" style="fill: none; stroke-dasharray: 0.5,0.825; stroke-dashoffset: 0; stroke: #b0b0b0; stroke-opacity: 0.6; stroke-width: 0.5"/>
     </g>
     <g id="line2d_22">
      <g>
       <use xlink:href="#me988da154d" x="62.39" y="49.450546" style="stroke: #000000; stroke-width: 0.8"/>
      </g>
     </g>
     <g id="text_13">
      <!-- 0.02 -->
      <g transform="translate(33.124375 53.249765) scale(0.1 -0.1)">
       <use xlink:href="#DejaVuSans-30"/>
       <use xlink:href="#DejaVuSans-2e" transform="translate(63.623047 0)"/>
       <use xlink:href="#DejaVuSans-30" transform="translate(95.410156 0)"/>
       <use xlink:href="#DejaVuSans-32" transform="translate(159.033203 0)"/>
      </g>
     </g>
    </g>
    <g id="text_14">
     <!-- Running mean of declination -->
     <g transform="translate(18.665 226.302188) rotate(-90) scale(0.1 -0.1)">
      <defs>
       <path id="DejaVuSans-52" d="M 2841 2188 
Q 3044 2119 3236 1894 
Q 3428 1669 3622 1275 
L 4263 0 
L 3584 0 
L 2988 1197 
Q 2756 1666 2539 1819 
Q 2322 1972 1947 1972 
L 1259 1972 
L 1259 0 
L 628 0 
L 628 4666 
L 2053 4666 
Q 2853 4666 3247 4331 
Q 3641 3997 3641 3322 
Q 3641 2881 3436 2590 
Q 3231 2300 2841 2188 
z
M 1259 4147 
L 1259 2491 
L 2053 2491 
Q 2509 2491 2742 2702 
Q 2975 2913 2975 3322 
Q 2975 3731 2742 3939 
Q 2509 4147 2053 4147 
L 1259 4147 
z
" transform="scale(0.015625)"/>
       <path id="DejaVuSans-75" d="M 544 1381 
L 544 3500 
L 1119 3500 
L 1119 1403 
Q 1119 906 1312 657 
Q 1506 409 1894 409 
Q 2359 409 2629 706 
Q 2900 1003 2900 1516 
L 2900 3500 
L 3475 3500 
L 3475 0 
L 2900 0 
L 2900 538 
Q 2691 219 2414 64 
Q 2138 -91 1772 -91 
Q 1169 -91 856 284 
Q 544 659 544 1381 
z
M 1991 3584 
L 1991 3584 
z
" transform="scale(0.015625)"/>
       <path id="DejaVuSans-67" d="M 2906 1791 
Q 2906 2416 2648 2759 
Q 2391 3103 1925 3103 
Q 1463 3103 1205 2759 
Q 947 2416 947 1791 
Q 947 1169 1205 825 
Q 1463 481 1925 481 
Q 2391 481 2648 825 
Q 2906 1169 2906 1791 
z
M 3481 434 
Q 3481 -459 3084 -895 
Q 2688 -1331 1869 -1331 
Q 1566 -1331 1297 -1286 
Q 1028 -1241 775 -1147 
L 775 -588 
Q 1028 -725 1275 -790 
Q 1522 -856 1778 -856 
Q 2344 -856 2625 -561 
Q 2906 -266 2906 331 
L 2906 616 
Q 2728 306 2450 153 
Q 2172 0 1784 0 
Q 1141 0 747 490 
Q 353 981 353 1791 
Q 353 2603 747 3093 
Q 1141 3584 1784 3584 
Q 2172 3584 2450 3431 
Q 2728 3278 2906 2969 
L 2906 3500 
L 3481 3500 
L 3481 434 
z
" transform="scale(0.015625)"/>
       <path id="DejaVuSans-6f" d="M 1959 3097 
Q 1497 3097 1228 2736 
Q 959 2375 959 1747 
Q 959 1119 1226 758 
Q 1494 397 1959 397 
Q 2419 397 2687 759 
Q 2956 1122 2956 1747 
Q 2956 2369 2687 2733 
Q 2419 3097 1959 3097 
z
M 1959 3584 
Q 2709 3584 3137 3096 
Q 3566 2609 3566 1747 
Q 3566 888 3137 398 
Q 2709 -91 1959 -91 
Q 1206 -91 779 398 
Q 353 888 353 1747 
Q 353 2609 779 3096 
Q 1206 3584 1959 3584 
z
" transform="scale(0.015625)"/>
       <path id="DejaVuSans-66" d="M 2375 4863 
L 2375 4384 
L 1825 4384 
Q 1516 4384 1395 4259 
Q 1275 4134 1275 3809 
L 1275 3500 
L 2222 3500 
L 2222 3053 
L 1275 3053 
L 1275 0 
L 697 0 
L 697 3053 
L 147 3053 
L 147 3500 
L 697 3500 
L 697 3744 
Q 697 4328 969 4595 
Q 1241 4863 1831 4863 
L 2375 4863 
z
" transform="scale(0.015625)"/>
       <path id="DejaVuSans-63" d="M 3122 3366 
L 3122 2828 
Q 2878 2963 2633 3030 
Q 2388 3097 2138 3097 
Q 1578 3097 1268 2742 
Q 959 2388 959 1747 
Q 959 1106 1268 751 
Q 1578 397 2138 397 
Q 2388 397 2633 464 
Q 2878 531 3122 666 
L 3122 134 
Q 2881 22 2623 -34 
Q 2366 -91 2075 -91 
Q 1284 -91 818 406 
Q 353 903 353 1747 
Q 353 2603 823 3093 
Q 1294 3584 2113 3584 
Q 2378 3584 2631 3529 
Q 2884 3475 3122 3366 
z
" transform="scale(0.015625)"/>
       <path id="DejaVuSans-74" d="M 1172 4494 
L 1172 3500 
L 2356 3500 
L 2356 3053 
L 1172 3053 
L 1172 1153 
Q 1172 725 1289 603 
Q 1406 481 1766 481 
L 2356 481 
L 2356 0 
L 1766 0 
Q 1100 0 847 248 
Q 594 497 594 1153 
L 594 3053 
L 172 3053 
L 172 3500 
L 594 3500 
L 594 4494 
L 1172 4494 
z
" transform="scale(0.015625)"/>
      </defs>
      <use xlink:href="#DejaVuSans-52"/>
      <use xlink:href="#DejaVuSans-75" transform="translate(64.982422 0)"/>
      <use xlink:href="#DejaVuSans-6e" transform="translate(128.361328 0)"/>
      <use xlink:href="#DejaVuSans-6e" transform="translate(191.740234 0)"/>
      <use xlink:href="#DejaVuSans-69" transform="translate(255.119141 0)"/>
      <use xlink:href="#DejaVuSans-6e" transform="translate(282.902344 0)"/>
      <use xlink:href="#DejaVuSans-67" transform="translate(346.28125 0)"/>
      <use xlink:href="#DejaVuSans-20" transform="translate(409.757812 0)"/>
      <use xlink:href="#DejaVuSans-6d" transform="translate(441.544922 0)"/>
      <use xlink:href="#DejaVuSans-65" transform="translate(538.957031 0)"/>
      <use xlink:href="#DejaVuSans-61" transform="translate(600.480469 0)"/>
      <use xlink:href="#DejaVuSans-6e" transform="translate(661.759766 0)"/>
      <use xlink:href="#DejaVuSans-20" transform="translate(725.138672 0)"/>
      <use xlink:href="#DejaVuSans-6f" transform="translate(756.925781 0)"/>
      <use xlink:href="#DejaVuSans-66" transform="translate(818.107422 0)"/>
      <use xlink:href="#DejaVuSans-20" transform="translate(853.3125 0)"/>
      <use xlink:href="#DejaVuSans-64" transform="translate(885.099609 0)"/>
      <use xlink:href="#DejaVuSans-65" transform="translate(948.576172 0)"/>
      <use xlink:href="#DejaVuSans-63" transform="translate(1010.099609 0)"/>
      <use xlink:href="#DejaVuSans-6c" transform="translate(1065.080078 0)"/>
      <use xlink:href="#DejaVuSans-69" transform="translate(1092.863281 0)"/>
      <use xlink:href="#DejaVuSans-6e" transform="translate(1120.646484 0)"/>
      <use xlink:href="#DejaVuSans-61" transform="translate(1184.025391 0)"/>
      <use xlink:href="#DejaVuSans-74" transform="translate(1245.304688 0)"/>
      <use xlink:href="#DejaVuSans-69" transform="translate(1284.513672 0)"/>
      <use xlink:href="#DejaVuSans-6f" transform="translate(1312.296875 0)"/>
      <use xlink:href="#DejaVuSans-6e" transform="translate(1373.478516 0)"/>
     </g>
    </g>
   </g>
   <g id="line2d_23">
    <path d="M 88.517727 269.294064 
L 88.520314 270.441818 
L 88.617582 252.210015 
L 88.813152 123.372506 
L 88.836434 130.88458 
L 88.903694 108.476554 
L 88.983888 113.768687 
L 89.055286 99.534601 
L 89.112198 109.835293 
L 89.221883 120.270507 
L 89.248787 116.556495 
L 89.547316 60.898622 
L 89.777033 38.478182 
L 89.792555 39.022647 
L 89.807041 38.760065 
L 89.893444 45.912363 
L 90.302693 85.393871 
L 90.303727 85.393524 
L 90.306314 85.392344 
L 90.307866 85.494318 
L 90.406686 99.113234 
L 90.583113 112.253761 
L 90.808691 119.894717 
L 90.678311 111.456947 
L 90.813348 119.705654 
L 90.866121 118.188864 
L 90.920446 119.855577 
L 91.18431 127.542497 
L 91.20811 128.676749 
L 91.2495 129.553937 
L 91.298134 127.69272 
L 91.662371 114.056543 
L 91.689792 114.147098 
L 91.694448 114.175555 
L 91.709452 113.675514 
L 91.760673 112.625768 
L 91.837763 113.104938 
L 91.890536 113.495629 
L 92.04782 115.349586 
L 92.317893 125.389198 
L 92.379978 122.271254 
L 92.396535 121.721628 
L 92.442064 123.030775 
L 92.479833 122.751271 
L 92.483455 122.735331 
L 92.548645 122.984116 
L 92.792331 127.318851 
L 92.823374 127.196116 
L 92.867351 127.009304 
L 92.88546 127.353907 
L 93.03757 128.587465 
L 92.966689 127.151946 
L 93.056196 128.447745 
L 93.137424 127.426085 
L 93.272978 124.766289 
L 93.324716 125.283491 
L 93.533738 127.842101 
L 93.568403 127.796131 
L 93.617554 128.42541 
L 93.664119 127.630549 
L 93.814159 120.716411 
L 93.89901 121.634609 
L 94.038703 123.161919 
L 94.048015 122.981477 
L 94.125105 121.739526 
L 94.057328 123.029944 
L 94.161322 122.917479 
L 94.272042 126.445029 
L 94.324297 125.029197 
L 94.324814 125.025959 
L 94.349649 125.566072 
L 94.448986 127.912139 
L 94.488824 129.241716 
L 94.577296 128.863724 
L 94.659043 127.854247 
L 94.705607 128.65295 
L 94.842713 132.048739 
L 94.906868 131.633505 
L 94.942568 131.357229 
L 94.971024 132.010159 
L 95.033109 134.001615 
L 95.103473 133.052787 
L 95.187806 134.017723 
L 95.239544 133.223399 
L 95.292317 131.989025 
L 95.358542 133.01805 
L 95.490992 133.575226 
L 95.535487 134.104987 
L 95.631719 133.947751 
L 95.782277 131.673093 
L 95.83712 131.766176 
L 95.842811 131.764389 
L 95.855746 131.651899 
L 95.85678 131.635726 
L 95.932835 132.195535 
L 95.943183 132.291225 
L 96.013029 131.929414 
L 96.550589 120.618551 
L 96.583701 120.650435 
L 96.66493 120.497753 
L 96.683038 120.720117 
L 96.704768 120.964276 
L 96.78341 120.602959 
L 96.98881 116.724918 
L 97.033305 117.786152 
L 97.090217 119.576417 
L 97.201972 119.190897 
L 97.375812 118.517354 
L 97.395472 118.750724 
L 97.543443 119.902982 
L 97.581729 119.643767 
L 97.684688 118.133342 
L 97.600355 119.659259 
L 97.76333 119.057216 
L 98.002878 123.170659 
L 98.003912 123.185079 
L 98.095489 122.792141 
L 98.174648 122.912083 
L 98.26519 120.909883 
L 98.430235 118.18663 
L 98.446273 118.220024 
L 98.797058 121.472426 
L 98.823444 121.103632 
L 98.837414 120.940581 
L 98.89743 121.399588 
L 98.926403 121.281153 
L 98.930542 121.283474 
L 98.941925 121.156568 
L 99.009702 120.030219 
L 99.077996 120.885331 
L 99.203202 122.042185 
L 99.260632 121.748922 
L 99.302022 121.874478 
L 99.670915 125.221767 
L 99.685402 125.026427 
L 99.745418 124.252723 
L 99.796121 125.030164 
L 100.112241 129.17386 
L 100.117415 129.125441 
L 100.145871 128.797516 
L 100.221409 129.20983 
L 100.235378 129.251076 
L 100.269008 128.999981 
L 100.324885 129.108744 
L 100.383866 129.182493 
L 100.401457 129.016306 
L 100.502864 128.369051 
L 100.531837 128.86407 
L 100.710851 131.811068 
L 100.725855 131.624341 
L 100.771385 131.400745 
L 100.836057 131.640649 
L 100.926082 132.129073 
L 100.960229 131.873338 
L 101.051805 132.552054 
L 101.109235 132.679098 
L 101.154247 132.370229 
L 101.195637 131.794187 
L 101.361199 130.380083 
L 101.384999 130.768527 
L 101.606438 132.869992 
L 101.632307 133.128955 
L 101.677837 132.772456 
L 101.713019 132.827093 
L 101.813908 132.485645 
L 101.836673 132.817636 
L 102.181249 136.451078 
L 102.193666 136.386253 
L 102.195218 136.377968 
L 102.238161 136.761594 
L 102.275412 137.133897 
L 102.333876 136.691757 
L 102.536172 134.257851 
L 102.574976 135.284786 
L 102.695526 136.632895 
L 102.726051 136.470876 
L 102.861605 136.310121 
L 102.740538 136.532243 
L 102.87454 136.370315 
L 102.954216 137.430684 
L 103.310175 141.518084 
L 103.325179 141.483822 
L 103.370708 141.457851 
L 103.384678 141.614318 
L 103.487636 142.326547 
L 103.547653 141.881199 
L 103.590595 141.631679 
L 103.653716 141.942513 
L 103.659924 141.987444 
L 103.732358 141.709629 
L 104.075381 137.609953 
L 104.141089 137.301703 
L 104.164888 137.685976 
L 104.449965 141.240844 
L 104.64657 142.742725 
L 104.678648 142.645943 
L 104.725212 142.974321 
L 104.787815 142.631134 
L 104.830241 142.360962 
L 104.879909 142.794033 
L 105.053232 144.201238 
L 105.088931 144.035764 
L 105.203273 143.865599 
L 105.226037 143.986232 
L 105.331583 144.358822 
L 105.364178 144.134471 
L 105.576822 143.170555 
L 105.590791 143.223712 
L 105.753766 143.89632 
L 105.80447 143.621583 
L 105.830856 143.476018 
L 105.908981 143.666345 
L 105.942093 143.757771 
L 105.973136 143.525211 
L 106.096273 142.827811 
L 106.132489 142.989589 
L 106.214236 142.536025 
L 106.27063 142.939752 
L 106.283565 142.969404 
L 106.31409 142.783451 
L 106.331681 142.788526 
L 106.42481 142.341921 
L 106.537599 142.429104 
L 106.711956 143.123659 
L 106.813363 143.968866 
L 106.877518 143.605743 
L 106.920461 143.371688 
L 106.978408 143.729554 
L 106.986168 143.738946 
L 107.005829 143.619834 
L 107.03325 143.414918 
L 107.096371 143.846434 
L 107.11034 143.923815 
L 107.178117 143.64066 
L 107.274867 143.147311 
L 107.32557 143.498863 
L 107.399039 143.84624 
L 107.452846 143.648636 
L 107.501997 143.468272 
L 107.587365 143.579374 
L 107.623582 143.814534 
L 107.666007 144.050505 
L 107.731197 143.783176 
L 107.864164 143.234458 
L 107.893138 143.294248 
L 107.944876 143.506457 
L 107.905555 143.257043 
L 108.018344 143.31275 
L 108.292556 142.54956 
L 108.319977 142.698906 
L 108.401723 142.76917 
L 108.420349 142.654401 
L 108.468983 142.426714 
L 108.532104 142.659763 
L 108.568838 142.99301 
L 108.665588 142.868074 
L 108.830115 143.387297 
L 108.966186 144.23908 
L 109.009646 143.849904 
L 109.262646 142.481002 
L 109.320593 141.828779 
L 109.73398 138.233544 
L 109.776405 138.556252 
L 109.870569 139.203183 
L 109.925929 138.878866 
L 110.105977 138.298403 
L 110.108564 138.302129 
L 110.118912 138.335596 
L 110.177893 138.046099 
L 110.251361 137.88096 
L 110.640432 135.629112 
L 110.673545 135.711921 
L 110.800303 136.404939 
L 110.951896 137.792764 
L 110.976213 137.652081 
L 111.157296 136.721895 
L 111.170748 136.670234 
L 111.225073 136.782052 
L 111.257151 136.780876 
L 111.279398 136.936349 
L 111.455825 137.810886 
L 111.463068 137.779456 
L 111.603279 136.962265 
L 111.666917 137.368728 
L 111.797297 138.338359 
L 111.842826 138.212492 
L 111.900256 137.829769 
L 111.973724 137.714963 
L 112.016666 137.805736 
L 112.088065 137.633525 
L 112.278461 136.917221 
L 112.303813 136.95136 
L 112.450749 136.356045 
L 112.68771 134.888302 
L 112.779804 134.509525 
L 112.83775 134.705626 
L 112.89311 134.876597 
L 112.941744 134.667104 
L 113.192674 134.087167 
L 113.205608 134.135985 
L 113.281663 134.572999 
L 113.359271 134.292306 
L 113.360823 134.287739 
L 113.398592 134.518452 
L 113.637622 135.372174 
L 113.709538 135.636465 
L 113.767484 135.409668 
L 114.159142 133.949626 
L 114.160177 133.954593 
L 114.223297 134.200145 
L 114.272966 133.954995 
L 114.325221 133.794737 
L 114.380064 133.982071 
L 114.60202 134.382233 
L 114.719466 134.566085 
L 114.646515 134.306019 
L 114.760856 134.380421 
L 114.782586 134.286818 
L 114.856055 134.462233 
L 114.968326 134.617041 
L 114.984883 134.541641 
L 115.144753 134.203107 
L 115.153031 134.225123 
L 115.16907 134.286145 
L 115.231673 134.099224 
L 115.369297 133.964079 
L 115.578319 133.768125 
L 115.388957 134.037466 
L 115.600566 133.960082 
L 115.625918 134.254541 
L 115.693695 133.723984 
L 115.758885 133.245499 
L 115.839079 133.543024 
L 115.964285 134.376543 
L 116.022749 134.849941 
L 116.09777 134.667871 
L 116.122604 134.611909 
L 116.190898 134.729859 
L 116.19452 134.738319 
L 116.259193 134.605858 
L 116.345078 134.380479 
L 116.379225 134.599315 
L 116.485288 135.599341 
L 116.543752 135.142835 
L 116.686549 134.295939 
L 116.720179 134.432824 
L 117.024917 135.244965 
L 117.029573 135.223833 
L 117.555233 132.445821 
L 117.67423 132.537515 
L 117.705273 132.58647 
L 117.829962 132.253123 
L 118.01415 131.677647 
L 118.246971 130.473997 
L 118.288879 130.323196 
L 118.408912 130.432569 
L 118.411499 130.43888 
L 118.467893 130.277884 
L 118.636042 129.678932 
L 118.639146 129.681744 
L 118.67795 129.616786 
L 118.758661 129.934896 
L 118.775218 129.990179 
L 118.858516 129.823322 
L 118.927845 129.757729 
L 118.957853 129.891185 
L 119.055121 130.210478 
L 119.119276 130.08509 
L 119.138419 130.077182 
L 119.167393 130.173258 
L 119.214474 130.162721 
L 119.526455 131.691941 
L 119.693052 132.301325 
L 119.727199 132.39834 
L 119.797046 132.249092 
L 119.864305 131.945973 
L 120.061945 131.119345 
L 120.107992 131.278063 
L 120.349091 131.947915 
L 120.388412 131.8579 
L 120.521379 131.381024 
L 120.653829 131.537944 
L 120.819908 131.822424 
L 120.85716 131.748778 
L 120.903724 131.713807 
L 120.935802 131.827851 
L 121.034104 132.440897 
L 121.095672 132.339219 
L 121.096707 132.341637 
L 121.178453 132.252046 
L 121.215705 132.183119 
L 121.245713 132.362615 
L 121.583046 133.825145 
L 121.593911 133.80285 
L 121.597015 133.796024 
L 121.644614 133.966824 
L 121.677209 134.115906 
L 121.74033 133.912642 
L 121.937969 132.933042 
L 121.955043 133.085625 
L 122.097323 133.942129 
L 122.125779 133.878742 
L 122.263402 133.81817 
L 122.142335 133.903155 
L 122.279958 133.85447 
L 122.424825 134.606049 
L 122.752845 136.10352 
L 122.756466 136.100618 
L 122.772505 136.087322 
L 122.811309 136.1985 
L 122.889433 136.483942 
L 122.840799 136.18284 
L 122.944793 136.3223 
L 122.992392 136.197578 
L 123.054478 136.340331 
L 123.062239 136.364281 
L 123.136741 136.234589 
L 123.485974 134.455048 
L 123.542886 134.351515 
L 123.572377 134.549571 
L 123.581172 134.545725 
L 123.588415 134.538916 
L 123.619458 134.78847 
L 123.889014 136.267319 
L 123.976969 136.679099 
L 124.127009 136.981833 
L 124.138392 136.969291 
L 124.210308 136.755601 
L 124.232038 136.719298 
L 124.281706 136.925269 
L 124.455029 137.601069 
L 124.494867 137.526667 
L 124.605069 137.473319 
L 124.630939 137.542139 
L 124.737519 137.725196 
L 124.771149 137.608247 
L 124.978619 137.21361 
L 124.987932 137.231859 
L 125.155563 137.583816 
L 125.220236 137.430268 
L 125.232653 137.398872 
L 125.310778 137.50174 
L 125.34389 137.550542 
L 125.381659 137.410562 
L 125.49807 137.134359 
L 125.532734 137.218603 
L 125.616032 137.013274 
L 125.678118 137.221669 
L 125.685362 137.23073 
L 125.715887 137.146474 
L 125.745895 137.12849 
L 125.918183 136.979648 
L 125.941465 137.012298 
L 126.154109 137.543161 
L 126.21516 137.796454 
L 126.283972 137.612524 
L 126.322258 137.523238 
L 126.36934 137.693974 
L 126.435047 137.561745 
L 126.489889 137.75391 
L 126.512137 137.822653 
L 126.58457 137.685719 
L 126.676664 137.467261 
L 126.727885 137.650302 
L 126.800836 137.830402 
L 126.858782 137.735101 
L 126.943633 137.676373 
L 126.990714 137.728828 
L 127.034692 137.909732 
L 127.067804 137.973525 
L 127.136099 137.836556 
L 127.265961 137.597155 
L 127.294935 137.631243 
L 127.346673 137.744963 
L 127.307352 137.614459 
L 127.432041 137.636869 
L 127.541208 137.393397 
L 127.593981 137.554529 
L 127.606398 137.563733 
L 127.657619 137.376103 
L 127.694353 137.313084 
L 127.761095 137.427199 
L 127.80352 137.438789 
L 127.83715 137.344851 
L 127.87078 137.274278 
L 127.9339 137.400866 
L 127.972704 137.5748 
L 128.073076 137.531221 
L 128.244329 137.888852 
L 128.367983 138.268558 
L 128.396439 138.169819 
L 128.584249 137.599991 
L 129.135777 135.244475 
L 129.215454 135.557661 
L 129.272366 135.762527 
L 129.334451 135.584181 
L 129.696618 134.99011 
L 129.761808 135.007091 
L 129.866319 134.609882 
L 130.042229 133.922164 
L 130.087241 133.983593 
L 130.198478 134.306163 
L 130.353693 135.095124 
L 130.379044 135.013872 
L 130.572545 134.5045 
L 130.60307 134.52444 
L 130.679125 134.64064 
L 130.857622 135.137048 
L 130.866417 135.116809 
L 131.005076 134.685224 
L 131.070266 134.920918 
L 131.199094 135.446141 
L 131.245658 135.37935 
L 131.584025 134.825667 
L 131.742344 134.650022 
L 131.747 134.655068 
L 131.846337 134.438521 
L 132.091059 133.587241 
L 132.181601 133.383687 
L 132.241099 133.497718 
L 132.294907 133.59099 
L 132.348197 133.466624 
L 132.594471 133.157787 
L 132.612579 133.196959 
L 133.009928 133.797284 
L 133.126339 134.038064 
L 133.212224 133.899037 
L 133.727018 133.014135 
L 133.746161 133.045983 
L 134.02296 133.369131 
L 134.040034 133.330126 
L 134.048312 133.313057 
L 134.100568 133.461868 
L 134.10212 133.461852 
L 134.164723 133.35277 
L 134.195248 133.306703 
L 134.259921 133.413354 
L 134.370123 133.499444 
L 134.390301 133.444631 
L 134.54655 133.264271 
L 134.556898 133.281486 
L 134.570867 133.312822 
L 134.637609 133.193019 
L 134.771611 133.12991 
L 134.773163 133.133479 
L 134.802137 133.169273 
L 134.888022 133.119767 
L 134.981668 133.022692 
L 135.008572 133.185202 
L 135.027715 133.303962 
L 135.098079 132.987606 
L 135.160682 132.71735 
L 135.241911 132.894356 
L 135.368669 133.402081 
L 135.424546 133.661135 
L 135.501119 133.555586 
L 135.746875 133.39264 
L 135.756188 133.416358 
L 135.887085 134.115203 
L 135.960036 133.772857 
L 136.039195 133.494539 
L 136.088346 133.34967 
L 136.150432 133.495996 
L 136.426714 133.921054 
L 136.433957 133.901076 
L 136.957029 132.257557 
L 137.088962 132.307293 
L 137.24728 132.124931 
L 137.417499 131.786646 
L 137.646699 131.068819 
L 137.974718 130.65288 
L 138.114929 130.551852 
L 138.129933 130.598745 
L 138.177014 130.765945 
L 138.264969 130.660887 
L 138.329642 130.621657 
L 138.37155 130.732008 
L 138.456918 130.896309 
L 138.525729 130.816294 
L 138.637484 130.910188 
L 138.926182 131.787064 
L 139.093814 132.172264 
L 139.128996 132.236356 
L 139.200912 132.142529 
L 139.277484 131.922954 
L 139.463742 131.445501 
L 139.520136 131.567038 
L 139.750888 131.95847 
L 139.7959 131.893861 
L 140.032861 131.665996 
L 140.053556 131.699592 
L 140.221705 131.879973 
L 140.261543 131.817887 
L 140.459183 130.998472 
L 140.547655 131.02833 
L 140.550242 131.025457 
L 140.604567 131.129072 
L 141.097114 132.582681 
L 141.193865 132.690523 
L 141.237842 132.605365 
L 141.468077 132.565762 
L 141.471181 132.571127 
L 141.551892 132.6459 
L 141.590179 132.555897 
L 141.619152 132.49974 
L 141.669855 132.65218 
L 141.727802 132.787199 
L 141.789888 132.644374 
L 141.833348 132.627896 
L 141.874221 132.711356 
L 141.881982 132.710072 
L 142.047544 132.804913 
L 142.188271 132.94894 
L 142.207932 132.908717 
L 142.256048 132.859719 
L 142.294334 132.981896 
L 142.316064 133.053461 
L 142.366768 132.874267 
L 142.66271 131.960507 
L 142.729452 131.94494 
L 142.764634 132.028709 
L 143.038846 132.636164 
L 143.091619 132.583161 
L 143.228725 132.526822 
L 143.30271 132.56826 
L 143.317197 132.594454 
L 143.8263 134.313867 
L 143.861482 134.234111 
L 143.990828 134.055736 
L 144.268144 132.411422 
L 144.438362 131.994551 
L 144.850715 130.649941 
L 144.973335 130.826465 
L 145.014208 130.836775 
L 145.041629 130.718655 
L 145.123375 130.596638 
L 145.178218 130.618849 
L 145.193222 130.608327 
L 145.247029 130.728195 
L 145.357231 131.222441 
L 145.520207 131.535923 
L 145.917555 131.396898 
L 146.024653 131.270916 
L 146.069148 131.297022 
L 146.411137 131.163978 
L 146.431315 131.172479 
L 146.484088 131.06712 
L 146.727774 130.838042 
L 146.814177 130.93498 
L 146.888163 131.143642 
L 146.945074 130.982381 
L 147.154097 130.720583 
L 147.236878 130.651782 
L 147.280338 130.768042 
L 147.46763 131.050337 
L 147.66113 131.448081 
L 147.690621 131.385119 
L 147.936377 130.793452 
L 148.029506 130.900189 
L 148.0978 131.006337 
L 148.154712 130.899016 
L 148.249393 130.976471 
L 149.125319 132.893272 
L 149.232417 132.712629 
L 149.260356 132.725077 
L 149.286225 132.809374 
L 149.471965 133.275775 
L 149.52629 133.221722 
L 149.746177 132.661069 
L 149.769459 132.699382 
L 149.852757 132.830246 
L 149.908117 132.705859 
L 150.694019 131.625527 
L 150.755587 131.860413 
L 150.975992 132.277419 
L 151.253308 132.733386 
L 151.27659 132.679615 
L 151.337124 132.631204 
L 151.381101 132.717227 
L 151.755685 133.294899 
L 152.005581 134.287332 
L 152.282897 134.842818 
L 152.431385 134.941845 
L 152.481054 135.074539 
L 152.566422 134.962049 
L 152.59436 134.855861 
L 152.666276 135.013987 
L 152.818386 135.053665 
L 152.948249 135.151566 
L 153.219357 135.814147 
L 153.256608 135.801383 
L 153.276786 135.855713 
L 153.345598 135.886461 
L 153.571694 136.427005 
L 153.976803 137.655275 
L 154.004742 137.585582 
L 154.126326 137.573474 
L 154.17703 137.609923 
L 154.198242 137.661896 
L 154.291371 137.629953 
L 154.378808 137.872226 
L 154.432616 137.882412 
L 154.46728 137.805277 
L 154.597661 137.569005 
L 154.663885 137.661991 
L 154.972762 137.978762 
L 154.991388 137.941647 
L 155.078825 137.956735 
L 155.093829 137.984284 
L 155.167297 138.346407 
L 155.377871 138.952597 
L 155.397015 138.946889 
L 155.598276 138.818947 
L 155.655705 138.923534 
L 155.817646 139.064736 
L 155.81868 139.063768 
L 155.999246 139.041016 
L 156.015803 139.041527 
L 156.055124 138.942157 
L 156.68012 136.028879 
L 156.874655 135.657013 
L 157.001931 135.561675 
L 157.049013 135.663198 
L 157.190775 135.816102 
L 157.202675 135.787674 
L 157.218714 135.776528 
L 157.249239 135.698671 
L 157.264244 135.693752 
L 157.316499 135.674755 
L 157.360994 135.757391 
L 157.439636 135.977576 
L 157.537938 135.827022 
L 157.635206 135.786423 
L 157.652797 135.826712 
L 157.675044 135.889556 
L 157.765586 135.816579 
L 157.855093 135.698702 
L 157.884584 135.659492 
L 157.961156 135.734663 
L 158.110679 135.829569 
L 158.157761 135.751373 
L 158.307802 135.700457 
L 158.309871 135.702621 
L 158.98971 137.017701 
L 159.135612 136.941707 
L 159.140785 136.940069 
L 159.185797 137.048638 
L 159.46777 137.544035 
L 159.492087 137.504692 
L 159.579525 137.539291 
L 159.552103 137.549038 
L 159.58832 137.558674 
L 159.865119 137.981764 
L 159.886332 137.942033 
L 159.992912 137.924003 
L 160.008951 137.946554 
L 160.077245 137.946674 
L 160.102597 137.886695 
L 160.224699 137.791269 
L 160.172961 137.908989 
L 160.237116 137.812355 
L 160.280059 137.827132 
L 160.31938 137.737645 
L 160.419234 137.741559 
L 160.431134 137.763326 
L 160.450795 137.800467 
L 160.508224 137.644738 
L 160.538232 137.588729 
L 160.587383 137.738541 
L 160.705346 138.024959 
L 160.90816 138.467521 
L 161.064409 138.787896 
L 161.156503 138.640104 
L 161.549195 138.356548 
L 161.568338 138.396435 
L 161.750974 138.603315 
L 161.924814 138.66384 
L 162.012251 138.687346 
L 162.02829 138.746498 
L 162.077959 138.82848 
L 162.13901 138.729028 
L 162.246625 138.721576 
L 162.262664 138.744903 
L 162.35631 138.722279 
L 162.367175 138.698306 
L 162.57154 138.391489 
L 162.576197 138.404209 
L 162.825575 138.895204 
L 162.840579 138.889637 
L 162.961646 138.776646 
L 162.995793 138.829413 
L 163.393142 139.925139 
L 163.446432 139.871257 
L 163.505931 139.795675 
L 163.579399 139.860896 
L 163.904832 140.384404 
L 164.105576 140.694871 
L 164.126271 140.675805 
L 164.362197 140.609104 
L 164.710912 140.781562 
L 164.72902 140.713138 
L 164.955116 140.211359 
L 164.964946 140.22222 
L 165.421794 140.557571 
L 165.718253 140.641396 
L 165.758609 140.659589 
L 165.802586 140.567672 
L 165.820695 140.545805 
L 165.89468 140.630078 
L 166.086629 140.960946 
L 166.253743 141.187278 
L 166.257364 141.180936 
L 166.489669 140.909535 
L 166.587454 141.025567 
L 166.736459 141.233498 
L 166.791302 141.1265 
L 166.815101 141.106866 
L 166.863218 141.210228 
L 166.979629 141.333898 
L 167.004463 141.310535 
L 167.339726 140.228778 
L 167.709136 139.556532 
L 167.71431 139.561984 
L 167.925919 139.760767 
L 168.122006 140.049128 
L 168.178918 140.16281 
L 168.258078 140.077495 
L 168.477447 139.819758 
L 168.515734 139.859435 
L 168.825128 140.038492 
L 169.062088 139.944838 
L 169.093648 140.026313 
L 169.119 140.06751 
L 169.210059 140.022252 
L 169.384934 139.926352 
L 169.39166 139.938296 
L 169.713471 140.896623 
L 170.108233 141.965246 
L 170.274312 142.17064 
L 170.363302 142.364931 
L 170.427975 142.305313 
L 170.771516 142.080991 
L 170.783416 142.099574 
L 170.881718 142.02347 
L 170.945356 142.048319 
L 170.967603 142.093915 
L 171.663481 143.505467 
L 171.686763 143.458243 
L 171.731775 143.387233 
L 171.798518 143.478169 
L 171.878194 143.429706 
L 171.923206 143.541539 
L 172.063417 143.716194 
L 172.098599 143.669546 
L 172.216044 143.592384 
L 172.12602 143.703483 
L 172.241913 143.643441 
L 172.438001 143.936782 
L 172.478874 143.858178 
L 172.528025 143.80427 
L 172.593733 143.874681 
L 173.176304 144.352676 
L 173.557614 145.261209 
L 173.731971 145.407158 
L 173.738697 145.397535 
L 173.831826 145.32504 
L 173.874251 145.361948 
L 173.938406 145.502974 
L 174.031535 145.768641 
L 174.096725 145.695512 
L 174.126733 145.669472 
L 174.163467 145.785572 
L 174.418536 146.303815 
L 174.55616 146.459906 
L 174.607898 146.344551 
L 174.692748 146.15183 
L 174.750178 146.256509 
L 174.882627 146.291102 
L 175.142353 146.802762 
L 175.465716 147.228408 
L 175.76321 147.35967 
L 176.055531 147.283453 
L 176.061739 147.293011 
L 176.086056 147.302203 
L 176.153833 147.231789 
L 176.372685 146.999332 
L 176.453397 146.849866 
L 176.643276 146.60737 
L 176.832637 146.419522 
L 176.866784 146.456804 
L 176.939735 146.513973 
L 176.978539 146.413191 
L 177.332945 145.931463 
L 177.351053 145.953035 
L 177.601983 146.215632 
L 177.644926 146.150488 
L 177.738572 146.10903 
L 177.780997 146.1518 
L 178.026753 146.048723 
L 178.208354 145.540778 
L 178.439106 145.162172 
L 178.447901 145.175043 
L 178.620707 145.289883 
L 178.643989 145.26143 
L 178.814207 145.025113 
L 179.188274 144.54209 
L 179.201726 144.554119 
L 179.459382 144.632243 
L 179.674095 144.645818 
L 180.232349 144.968869 
L 180.375147 144.97667 
L 180.380838 144.985126 
L 180.646772 145.581 
L 180.659706 145.61158 
L 180.746109 145.517715 
L 180.823199 145.403678 
L 180.895632 145.528953 
L 181.065333 145.758119 
L 181.124315 145.693469 
L 181.317298 145.527515 
L 181.330232 145.536875 
L 181.47303 145.503703 
L 181.574436 145.474551 
L 181.602892 145.53963 
L 181.8859 146.112606 
L 181.937121 146.081813 
L 181.980581 146.094615 
L 182.014728 146.165474 
L 182.32257 146.878733 
L 182.447776 146.790663 
L 182.481923 146.752293 
L 182.536765 146.864592 
L 182.740096 147.178071 
L 182.741131 147.177533 
L 182.89945 147.219288 
L 183.402862 147.902024 
L 183.765546 148.633842 
L 183.76865 148.632531 
L 183.82608 148.729011 
L 183.917139 148.949287 
L 184.026306 148.957914 
L 184.045449 148.924984 
L 184.284997 148.419118 
L 184.31397 148.460698 
L 184.508505 148.483792 
L 184.739257 148.228133 
L 184.770818 148.207908 
L 184.819452 148.30685 
L 184.963284 148.368207 
L 185.251982 148.739778 
L 185.63174 149.258895 
L 185.710382 149.331124 
L 185.775055 149.241445 
L 185.986146 149.078645 
L 185.992872 149.086264 
L 186.233454 149.428454 
L 186.251563 149.403942 
L 186.266567 149.391549 
L 186.327101 149.499151 
L 186.420229 149.593141 
L 186.464207 149.516593 
L 187.056091 149.24194 
L 187.05816 149.246433 
L 187.228896 149.377401 
L 187.235622 149.369718 
L 187.250626 149.355302 
L 187.322542 149.438858 
L 187.491726 149.605533 
L 187.530012 149.556723 
L 187.720408 149.436635 
L 188.139487 149.731846 
L 188.509932 150.169575 
L 188.511484 150.167323 
L 188.624791 150.086491 
L 188.671872 150.130062 
L 188.763966 150.215736 
L 188.815704 150.11142 
L 189.159763 149.601499 
L 189.198049 149.641039 
L 189.347055 149.621391 
L 189.481057 149.477841 
L 189.664727 149.2633 
L 189.832358 149.147506 
L 190.385956 148.574638 
L 190.553071 148.51952 
L 190.581527 148.563374 
L 190.768819 148.862346 
L 191.239118 149.998535 
L 191.524713 150.317617 
L 191.671649 150.170017 
L 191.817033 149.902363 
L 191.859458 149.972829 
L 192.042611 150.150023 
L 192.061237 150.133955 
L 192.365974 150.024333 
L 192.637082 149.809799 
L 192.639152 149.813654 
L 193.357794 150.918115 
L 193.7598 151.021785 
L 194.091441 151.089929 
L 194.146801 151.036556 
L 194.218717 151.092855 
L 194.414287 151.207657 
L 194.455677 151.145481 
L 194.700399 150.989732 
L 195.021175 151.30089 
L 195.200706 151.5712 
L 195.941596 152.068192 
L 196.053868 152.133886 
L 196.229778 152.11064 
L 196.313593 151.989329 
L 196.599705 151.445105 
L 196.667482 151.493541 
L 196.772511 151.689981 
L 197.104152 152.499812 
L 197.20918 152.677474 
L 197.267644 152.651814 
L 197.360256 152.579419 
L 197.412511 152.703513 
L 197.628777 153.067247 
L 197.63395 153.065361 
L 197.772609 153.132128 
L 198.14564 153.695811 
L 198.209278 153.652887 
L 198.269812 153.462898 
L 198.367597 153.276056 
L 198.427096 153.29627 
L 198.846175 153.15697 
L 198.847209 153.158857 
L 199.059853 153.340979 
L 199.068131 153.331915 
L 199.286466 153.03674 
L 199.380629 153.155303 
L 199.624833 153.27575 
L 199.91198 153.327291 
L 199.95337 153.327116 
L 199.995796 153.25036 
L 200.118415 152.953905 
L 200.194988 153.057791 
L 200.376588 153.018633 
L 200.502312 153.025141 
L 200.93743 153.152229 
L 201.032628 152.936853 
L 201.196638 152.681453 
L 201.199225 152.682039 
L 201.550526 152.646829 
L 201.717641 152.574186 
L 201.85992 152.434904 
L 202.006857 152.408577 
L 202.207083 152.240909 
L 202.289864 152.185124 
L 202.333324 152.230414 
L 203.011094 153.051664 
L 203.131126 153.04821 
L 203.133196 153.045781 
L 203.266163 152.926512 
L 203.326696 152.986316 
L 203.946002 153.698747 
L 204.198484 154.224218 
L 204.263156 154.283597 
L 204.329898 154.231643 
L 204.604111 153.996088 
L 204.620667 154.01619 
L 204.683787 154.029123 
L 204.729317 153.974747 
L 204.756738 153.930566 
L 204.819859 154.043001 
L 204.98749 154.098615 
L 204.995251 154.092257 
L 205.450546 153.876734 
L 206.179019 154.733538 
L 206.380798 154.951963 
L 206.489448 155.072564 
L 206.537047 155.007089 
L 206.545325 155.002946 
L 206.604306 155.105777 
L 206.642075 155.113152 
L 206.699505 155.048635 
L 207.057015 154.459681 
L 207.067363 154.464201 
L 207.153248 154.378755 
L 207.29708 154.316777 
L 207.307428 154.331721 
L 207.711502 154.438234 
L 208.371681 154.516885 
L 208.514478 154.647522 
L 208.567251 154.599029 
L 208.876128 154.564778 
L 209.315902 154.811572 
L 209.611844 155.240952 
L 209.716355 155.385541 
L 209.998327 155.97161 
L 210.001949 155.970113 
L 210.169581 156.012838 
L 210.414819 156.028531 
L 210.933753 155.619556 
L 211.358523 155.731044 
L 211.690682 155.467852 
L 211.894012 155.416875 
L 212.296018 155.626669 
L 212.3312 155.571032 
L 212.789082 154.929298 
L 213.093819 154.574341 
L 213.156423 154.643841 
L 213.496859 154.716732 
L 213.699156 154.652773 
L 213.838331 154.659386 
L 213.851266 154.637091 
L 214.518687 153.672122 
L 214.690458 153.531019 
L 214.732883 153.478 
L 214.791347 153.576478 
L 214.868955 153.736146 
L 214.955875 153.780059 
L 214.980192 153.701943 
L 215.186627 153.238494 
L 215.459804 153.264337 
L 215.539481 153.201873 
L 215.545689 153.187782 
L 215.609327 153.159538 
L 215.648648 153.228363 
L 215.72729 153.288783 
L 215.78058 153.253355 
L 216.182586 153.086286 
L 216.188794 153.098542 
L 216.252432 153.21064 
L 216.3259 153.124893 
L 216.70721 152.904451 
L 216.733597 152.85134 
L 216.817412 152.927514 
L 217.069377 153.121263 
L 217.077655 153.109213 
L 217.283055 152.843932 
L 217.333241 152.928949 
L 217.640049 153.312268 
L 217.836653 153.157397 
L 218.006872 153.033827 
L 218.022393 153.048039 
L 218.044641 153.046438 
L 218.088101 152.959341 
L 218.332822 152.731291 
L 218.44975 152.596467 
L 218.63549 152.378655 
L 218.834164 152.392942 
L 218.993001 152.422212 
L 219.017317 152.366278 
L 219.396558 151.781959 
L 219.51659 151.874368 
L 219.695604 151.872153 
L 220.835913 152.576319 
L 221.227053 152.972594 
L 221.247748 152.947382 
L 221.416932 152.910539 
L 222.066245 152.864145 
L 222.235946 152.764008 
L 222.256641 152.798209 
L 222.368396 152.768429 
L 222.573796 152.648178 
L 222.798857 152.587332 
L 222.931307 152.561163 
L 223.108768 152.6283 
L 223.371081 152.671527 
L 223.507669 152.738611 
L 223.813442 153.141203 
L 224.041089 153.428826 
L 224.119731 153.352767 
L 224.640734 152.78093 
L 224.654704 152.799694 
L 225.072748 153.218721 
L 225.088786 153.198708 
L 225.285909 153.10566 
L 225.384211 152.961714 
L 225.55236 152.834192 
L 225.662045 152.776645 
L 225.688431 152.823559 
L 225.825537 152.997425 
L 225.859684 152.973797 
L 225.924357 152.801702 
L 226.086815 152.671637 
L 226.213573 152.738841 
L 226.424665 152.708879 
L 226.790453 152.722846 
L 227.187802 153.055452 
L 227.605846 153.057382 
L 227.868158 153.374784 
L 228.151166 153.618406 
L 228.396922 153.642441 
L 228.55731 153.738852 
L 228.89723 153.623534 
L 229.064861 153.554902 
L 229.204037 153.661433 
L 229.775743 154.358357 
L 230.18344 154.288328 
L 230.602001 154.745054 
L 230.61804 154.723661 
L 230.654257 154.707671 
L 230.711168 154.783886 
L 230.842583 154.790679 
L 231.466545 155.166046 
L 231.745414 155.30841 
L 232.976781 154.838428 
L 233.754922 155.237409 
L 233.866677 155.350727 
L 233.898237 155.337901 
L 233.93911 155.265514 
L 234.308003 154.851175 
L 234.8854 154.47312 
L 235.249119 154.587215 
L 235.3557 154.517932 
L 235.490736 154.600561 
L 236.134359 155.201466 
L 236.261117 155.260076 
L 236.276121 155.247412 
L 236.777464 155.213421 
L 236.983899 155.475153 
L 237.273632 155.911692 
L 237.378661 155.839372 
L 237.5763 155.788135 
L 237.757384 155.836522 
L 237.964854 156.123838 
L 238.144385 156.367582 
L 238.163011 156.359021 
L 238.860958 156.153253 
L 239.099988 156.356494 
L 239.414038 156.320862 
L 239.654621 156.465682 
L 239.655656 156.464902 
L 239.896238 156.405701 
L 239.904516 156.41694 
L 240.226327 156.6797 
L 240.918583 157.250286 
L 241.065002 157.309213 
L 241.513572 157.426606 
L 241.804857 157.38327 
L 241.91299 157.243571 
L 242.089417 157.118184 
L 242.100282 157.124282 
L 242.318099 157.120158 
L 243.308885 156.732947 
L 243.437195 156.721072 
L 244.09996 157.107822 
L 244.403663 156.997514 
L 244.716162 156.700323 
L 244.856372 156.574198 
L 245.196809 156.378076 
L 245.316324 156.464849 
L 245.382549 156.501303 
L 245.444117 156.455608 
L 245.779897 156.456054 
L 246.417828 156.931748 
L 246.608742 157.099352 
L 246.618572 157.090164 
L 246.797069 157.072428 
L 246.980222 157.038881 
L 247.161823 157.102994 
L 247.507433 157.596597 
L 247.669374 157.710016 
L 247.693691 157.673788 
L 247.837523 157.573315 
L 247.850457 157.57918 
L 248.323344 157.915648 
L 248.560822 158.118321 
L 248.742422 158.078313 
L 248.952997 157.976859 
L 248.973174 157.998766 
L 249.012495 157.986791 
L 249.063199 157.93178 
L 249.241178 157.95855 
L 249.551089 158.065373 
L 249.87497 158.12642 
L 250.002246 158.189054 
L 250.033806 158.168024 
L 250.243863 158.130336 
L 250.246967 158.134299 
L 250.578608 158.386052 
L 251.276556 158.926551 
L 251.449361 158.967472 
L 251.556459 158.906309 
L 251.559563 158.899218 
L 251.725125 158.800368 
L 252.236815 158.683948 
L 252.279758 158.587715 
L 252.367195 158.665184 
L 252.496023 158.650681 
L 253.141198 159.008752 
L 253.177414 159.011546 
L 253.229153 159.081139 
L 253.343494 159.021383 
L 253.720147 158.646752 
L 253.891401 158.527051 
L 254.150091 158.314083 
L 254.596074 158.393502 
L 255.067408 158.496087 
L 255.23504 158.536889 
L 255.362315 158.641599 
L 255.661879 158.968532 
L 256.219616 158.973119 
L 256.565744 159.434121 
L 256.792875 159.439021 
L 256.991032 159.401911 
L 257.174702 159.454665 
L 257.361477 159.682152 
L 257.546182 159.907398 
L 257.565325 159.899204 
L 258.269481 159.71318 
L 258.50282 159.87719 
L 258.82877 159.852035 
L 259.063661 159.957942 
L 259.310452 159.919764 
L 259.644163 160.146317 
L 260.970211 160.756919 
L 262.2171 160.440147 
L 263.282388 160.919356 
L 263.417424 160.985032 
L 264.06622 161.064685 
L 264.486851 160.907898 
L 265.620951 161.085772 
L 265.848599 161.138641 
L 266.17041 161.196728 
L 266.346837 161.373899 
L 266.38771 161.385469 
L 266.437379 161.309662 
L 266.630362 161.138929 
L 266.651057 161.167248 
L 266.774194 161.141083 
L 266.863183 161.225425 
L 267.114631 161.525267 
L 267.552853 161.599109 
L 267.55337 161.597882 
L 267.742731 161.433994 
L 268.20527 161.625536 
L 268.335133 161.60841 
L 268.727308 161.640244 
L 268.893905 161.655711 
L 269.009281 161.721339 
L 269.237446 161.673969 
L 269.346096 161.644466 
L 269.370413 161.675296 
L 269.579952 161.765384 
L 269.830365 161.580597 
L 270.076638 161.515385 
L 270.19874 161.453723 
L 270.466744 161.465479 
L 270.56815 161.394758 
L 270.708361 161.358902 
L 270.716121 161.366274 
L 270.889444 161.37621 
L 271.695007 160.846182 
L 272.808411 160.624717 
L 273.12867 160.923592 
L 273.387361 160.919293 
L 273.694168 160.951282 
L 273.845761 160.887276 
L 274.114282 160.922087 
L 274.682366 161.237451 
L 274.809125 161.301516 
L 274.940539 161.462437 
L 275.245794 161.877806 
L 275.630209 162.100076 
L 275.729028 162.065305 
L 275.768867 162.101052 
L 276.000136 162.161296 
L 276.370064 162.119189 
L 276.521656 162.110041 
L 276.52683 162.115694 
L 276.676353 162.124715 
L 276.68101 162.119983 
L 276.70067 162.118822 
L 276.769999 162.18753 
L 277.661965 162.457961 
L 278.143129 162.216602 
L 280.034158 160.398166 
L 280.205928 160.40498 
L 280.52774 160.231379 
L 280.807125 160.029044 
L 281.673739 159.835737 
L 281.803084 159.831489 
L 281.810328 159.836919 
L 281.949503 159.805232 
L 282.585365 159.798808 
L 283.322633 160.327803 
L 284.391025 160.83071 
L 284.785787 161.221646 
L 285.162441 161.434434 
L 285.51633 161.782653 
L 285.542716 161.758967 
L 285.631188 161.774365 
L 285.655505 161.80569 
L 286.400534 162.363757 
L 286.595587 162.368728 
L 286.672677 162.259045 
L 286.804609 162.271662 
L 287.043122 162.36295 
L 287.216444 162.366336 
L 287.301812 162.371679 
L 287.33182 162.404892 
L 287.673292 162.568384 
L 287.990964 162.587506 
L 288.202056 162.564552 
L 288.383139 162.563338 
L 288.615961 162.601378 
L 288.993649 162.680037 
L 289.799729 163.435003 
L 290.084289 163.460761 
L 290.190352 163.479603 
L 290.215186 163.457288 
L 290.940555 162.962434 
L 291.307378 162.928556 
L 291.582107 162.759946 
L 291.90754 162.465192 
L 292.060168 162.417601 
L 292.410952 162.286682 
L 292.554784 162.212839 
L 292.973345 162.088691 
L 293.182368 162.142444 
L 293.469514 162.201149 
L 293.609724 162.147027 
L 293.979135 161.949912 
L 294.224891 161.752521 
L 294.238343 161.762857 
L 294.444778 161.788361 
L 294.557567 161.651938 
L 294.72882 161.561478 
L 295.368821 161.797052 
L 295.569047 161.792266 
L 295.952944 161.778151 
L 296.147997 161.76736 
L 296.441352 161.658087 
L 296.609501 161.766961 
L 296.77558 161.753533 
L 297.002193 161.66689 
L 297.274336 161.692906 
L 297.577521 161.854338 
L 297.896228 162.118305 
L 298.577619 162.435249 
L 299.024637 162.460594 
L 299.37956 162.591796 
L 299.616521 162.623924 
L 299.827095 162.72496 
L 300.319124 162.779168 
L 300.391558 162.867721 
L 300.505382 162.831209 
L 300.751655 162.611531 
L 300.915665 162.561074 
L 300.9167 162.562365 
L 301.216264 162.75714 
L 301.32957 162.817502 
L 301.611543 163.023572 
L 301.613612 163.021603 
L 301.782796 163.014902 
L 302.171867 162.931548 
L 302.446079 162.981778 
L 302.666483 162.908649 
L 302.982603 162.864801 
L 303.469976 162.538182 
L 304.100664 162.850117 
L 304.481974 163.030695 
L 304.927957 162.873845 
L 305.017464 162.844362 
L 305.058854 162.905177 
L 305.17423 162.957806 
L 305.211482 162.929625 
L 305.474311 162.842622 
L 305.476381 162.845266 
L 305.640391 162.875068 
L 306.185193 162.750347 
L 306.340407 162.733482 
L 307.478129 162.897522 
L 307.743545 162.888461 
L 308.073117 162.862049 
L 308.235575 162.879322 
L 308.508235 162.968454 
L 308.69501 162.816803 
L 308.858502 162.779858 
L 308.859019 162.780279 
L 309.158066 162.923303 
L 309.177726 162.89703 
L 309.428656 162.754141 
L 309.711146 162.759449 
L 310.266296 163.079533 
L 310.43548 162.965125 
L 310.734009 162.817202 
L 310.921301 162.723013 
L 311.140671 162.645269 
L 311.387462 162.768562 
L 311.493007 162.959741 
L 311.720655 163.198558 
L 312.95047 163.925727 
L 313.168288 163.986367 
L 313.601853 164.12851 
L 313.602371 164.127575 
L 313.850714 163.907054 
L 314.601434 163.950605 
L 314.819251 163.792964 
L 314.932041 163.841193 
L 315.77382 164.371736 
L 316.451072 164.412096 
L 316.665785 164.449119 
L 317.283021 164.471338 
L 317.920435 164.114173 
L 318.091688 164.051024 
L 318.489554 164.019427 
L 318.67219 164.108348 
L 318.844995 164.026092 
L 319.067469 164.106391 
L 319.238722 164.171991 
L 319.384624 164.228993 
L 319.846128 164.392383 
L 320.027211 164.428543 
L 320.150348 164.400023 
L 320.502167 164.47514 
L 320.722054 164.439575 
L 321.10026 164.382854 
L 321.375507 164.292474 
L 321.808037 164.506907 
L 321.954974 164.555896 
L 322.161409 164.531552 
L 322.337836 164.509908 
L 322.348183 164.523536 
L 322.579453 164.64477 
L 323.193067 164.567465 
L 323.340003 164.567321 
L 323.348281 164.553359 
L 323.503496 164.508171 
L 323.743561 164.335845 
L 324.104693 164.23284 
L 324.864208 164.034332 
L 325.255866 163.797118 
L 326.081606 163.940266 
L 326.249238 163.858949 
L 326.254929 163.863373 
L 326.580879 163.965403 
L 326.749028 163.968913 
L 327.30987 163.988375 
L 327.617711 164.03274 
L 329.078796 164.231387 
L 329.469419 164.246285 
L 329.646363 164.287903 
L 330.159088 164.144277 
L 330.511425 163.908836 
L 330.52022 163.919063 
L 330.783567 164.058301 
L 330.96672 164.058758 
L 331.117278 164.128902 
L 331.259558 164.1343 
L 331.645007 164.09834 
L 332.003552 164.124578 
L 332.521451 164.368856 
L 332.947773 164.392919 
L 334.4875 164.141944 
L 334.752916 164.119326 
L 335.121809 164.032659 
L 335.317379 164.039308 
L 335.440516 164.113296 
L 335.695585 164.132794 
L 336.17261 163.770049 
L 336.516669 163.469427 
L 336.666709 163.310818 
L 336.908327 163.210294 
L 337.18616 163.302464 
L 337.822539 163.336584 
L 338.891966 162.916706 
L 339.207569 162.715831 
L 339.722363 162.522364 
L 340.754021 162.478898 
L 341.084111 162.218187 
L 341.47732 161.99041 
L 341.723594 161.930028 
L 341.922268 161.953533 
L 342.578825 162.079837 
L 342.697305 161.958279 
L 343.309885 161.41849 
L 344.185294 160.953343 
L 344.335334 160.880733 
L 344.589369 160.696904 
L 344.806151 160.683548 
L 345.883856 160.624924 
L 346.355708 160.794162 
L 347.11212 160.71621 
L 347.240947 160.673486 
L 347.423583 160.532358 
L 348.190859 160.149907 
L 349.143876 160.665 
L 349.447061 160.699182 
L 349.707821 160.851604 
L 349.9096 160.862333 
L 350.284184 160.707682 
L 350.722923 160.443059 
L 350.893142 160.376668 
L 351.008518 160.312386 
L 351.59678 159.988851 
L 351.775277 159.944358 
L 352.005511 159.666198 
L 352.263685 159.472433 
L 352.599982 159.308141 
L 352.901616 159.206253 
L 353.610945 159.514846 
L 353.777025 159.434843 
L 353.96173 159.270428 
L 354.090558 159.299915 
L 354.567583 159.512472 
L 354.720211 159.508487 
L 355.101521 159.56194 
L 355.590446 159.51255 
L 356.295637 159.830132 
L 356.441538 159.78982 
L 356.789218 159.680988 
L 357.059291 159.492601 
L 357.397141 159.39222 
L 357.850367 159.338884 
L 358.29428 158.991164 
L 358.480538 159.030719 
L 358.727329 158.985766 
L 359.318695 159.192807 
L 360.549028 159.752275 
L 360.881187 159.529821 
L 361.06227 159.549537 
L 361.429611 159.552218 
L 361.817129 159.408314 
L 362.258973 159.495071 
L 362.839992 159.493729 
L 363.385829 159.502367 
L 363.579847 159.497257 
L 363.744892 159.475152 
L 364.334189 159.634442 
L 364.762064 159.795465 
L 365.091118 159.989988 
L 365.385508 160.071085 
L 365.556761 160.15624 
L 365.794239 160.173516 
L 366.107255 160.210122 
L 366.961451 160.627903 
L 367.946028 160.407234 
L 368.171089 160.383647 
L 368.477378 160.394067 
L 368.740208 160.57737 
L 369.404525 160.477324 
L 369.716506 160.554686 
L 369.904833 160.57963 
L 370.730574 160.581899 
L 370.821115 160.671789 
L 370.987712 160.680795 
L 371.146031 160.532295 
L 371.273824 160.581707 
L 372.375329 161.049196 
L 372.727148 161.023152 
L 372.802686 161.044533 
L 372.842524 160.995965 
L 373.019468 160.93401 
L 373.030851 160.944627 
L 373.199 160.949185 
L 373.877804 160.652067 
L 374.019049 160.641929 
L 375.21213 160.783556 
L 376.811355 160.649063 
L 377.557937 160.679719 
L 377.748333 160.514228 
L 377.938212 160.491162 
L 378.353152 160.52142 
L 379.049029 160.562151 
L 379.594349 160.612029 
L 380.011358 160.386318 
L 380.229693 160.278467 
L 381.145458 160.224208 
L 381.280495 160.204382 
L 381.556776 160.128587 
L 381.983616 159.954527 
L 382.232994 159.982461 
L 382.644829 159.833175 
L 382.835743 159.757502 
L 383.784103 159.225983 
L 384.095566 159.171881 
L 384.783683 158.691326 
L 384.904233 158.629605 
L 385.173789 158.489537 
L 385.185171 158.500654 
L 385.425753 158.508724 
L 385.542681 158.591462 
L 385.895018 158.779716 
L 386.446546 158.60461 
L 386.907016 158.7796 
L 387.063782 158.782483 
L 387.458544 158.82521 
L 387.686192 158.730429 
L 387.835198 158.736593 
L 388.363444 158.918972 
L 388.580227 159.047598 
L 388.948085 159.018762 
L 389.772273 158.676069 
L 390.202217 158.619472 
L 390.644061 158.322991 
L 390.992776 158.34345 
L 391.210076 158.313823 
L 391.45428 158.364307 
L 392.904499 158.990527 
L 393.22631 158.808281 
L 393.405324 158.83338 
L 393.768526 158.832929 
L 394.163288 158.707375 
L 395.378099 158.78685 
L 395.781139 158.796798 
L 396.075012 158.768079 
L 396.27886 158.755145 
L 396.456322 158.792821 
L 397.169273 159.069115 
L 397.401577 159.216507 
L 397.70528 159.310736 
L 397.904989 159.392235 
L 398.072103 159.401826 
L 398.879735 159.650491 
L 399.334513 159.797902 
L 399.577165 159.808985 
L 399.874142 159.798388 
L 400.045913 159.673625 
L 400.388936 159.604132 
L 400.839575 159.633027 
L 401.129826 159.753405 
L 401.563392 159.660324 
L 401.695324 159.661555 
L 401.698946 159.665301 
L 401.896068 159.710142 
L 402.865123 159.827502 
L 403.124331 159.824066 
L 403.298689 159.872727 
L 403.424412 159.782217 
L 403.595665 159.776731 
L 404.724591 160.19861 
L 405.065028 160.182945 
L 405.140048 160.199575 
L 405.181956 160.153494 
L 405.370283 160.113733 
L 405.371318 160.11501 
L 405.519289 160.121713 
L 405.926468 160.002433 
L 406.241036 159.827485 
L 406.437123 159.852602 
L 407.836122 160.011251 
L 408.210189 159.960024 
L 408.745161 159.825905 
L 409.086633 159.845406 
L 409.799584 159.896837 
L 410.085178 159.735866 
L 410.281783 159.718337 
L 410.706553 159.74271 
L 411.51729 159.793165 
L 411.833927 159.864568 
L 412.631212 159.537917 
L 412.993378 159.466852 
L 413.483856 159.485163 
L 413.626136 159.466656 
L 413.912248 159.386089 
L 414.368578 159.266491 
L 414.585361 159.26284 
L 415.084116 159.08214 
L 415.382128 158.975468 
L 416.508984 158.836247 
L 416.861321 158.792738 
L 417.113285 158.716957 
L 417.62808 158.732712 
L 417.900222 158.754693 
L 418.138735 158.741997 
L 418.446577 158.827755 
L 420.300871 159.071962 
L 420.56784 158.905231 
L 420.859126 158.744502 
L 421.11316 158.705952 
L 421.764543 158.786556 
L 422.222943 158.718288 
L 422.551997 158.647783 
L 423.306856 158.581635 
L 423.750252 158.714429 
L 423.88891 158.761841 
L 424.033777 158.715435 
L 424.254699 158.713016 
L 424.563058 158.723458 
L 425.446745 158.456627 
L 425.644902 158.374358 
L 426.477886 158.566801 
L 426.791419 158.417635 
L 427.359504 158.038441 
L 427.587151 158.027806 
L 427.857224 158.068762 
L 428.528785 157.821195 
L 428.719182 157.82986 
L 429.199829 157.84191 
L 429.436789 157.897464 
L 429.858972 157.896079 
L 430.17561 157.80967 
L 430.611245 157.66579 
L 432.328433 157.770777 
L 432.600576 157.753004 
L 433.785896 158.187826 
L 434.398476 158.060526 
L 434.721321 158.092024 
L 435.228355 158.142532 
L 435.515502 158.207377 
L 436.248113 158.160385 
L 436.555438 158.279903 
L 437.858721 158.620956 
L 438.272109 158.78498 
L 438.587711 158.934016 
L 439.075602 159.049988 
L 439.214778 159.047049 
L 439.586257 159.082685 
L 439.824253 159.054403 
L 440.18642 158.984226 
L 440.675862 158.868825 
L 441.107358 158.983193 
L 441.387779 159.075073 
L 441.807892 159.2424 
L 442.394085 159.221127 
L 442.637772 159.285341 
L 442.848863 159.313872 
L 443.132906 159.27635 
L 443.356932 159.362542 
L 443.971581 159.560407 
L 445.405244 159.82551 
L 445.56615 159.864317 
L 445.998681 159.930859 
L 446.151308 159.858635 
L 447.045343 159.557176 
L 447.450452 159.700076 
L 447.894365 159.572674 
L 448.144778 159.572928 
L 448.665781 159.551027 
L 448.921367 159.552623 
L 449.470309 159.581504 
L 450.632347 159.466781 
L 450.867755 159.457854 
L 451.307012 159.379254 
L 451.786625 159.308431 
L 451.957878 159.307567 
L 452.746367 159.585982 
L 453.128194 159.765049 
L 454.00826 160.05941 
L 455.266013 160.049928 
L 456.728133 160.37395 
L 457.731335 160.771121 
L 458.177318 160.695386 
L 458.728329 160.652176 
L 458.996332 160.673648 
L 459.606325 160.716451 
L 459.878985 160.620997 
L 460.096285 160.590849 
L 460.851144 160.735729 
L 461.123804 160.923202 
L 461.638598 161.092451 
L 461.903498 161.201047 
L 462.484517 161.328166 
L 462.688365 161.436476 
L 462.912391 161.404043 
L 463.419942 161.359706 
L 464.223952 161.544897 
L 465.19456 161.747078 
L 465.573283 161.886631 
L 465.987705 161.935069 
L 466.293477 161.950858 
L 466.751877 161.734732 
L 468.140529 161.512481 
L 468.380593 161.517363 
L 468.50373 161.579659 
L 468.683779 161.622798 
L 468.998347 161.589324 
L 469.283424 161.645274 
L 469.641452 161.753899 
L 469.87686 161.868907 
L 470.586707 162.105919 
L 470.911105 162.145053 
L 471.200321 162.185995 
L 471.841357 162.358322 
L 472.300791 162.161459 
L 472.603977 162.215282 
L 472.800581 162.2338 
L 473.212417 162.18881 
L 476.710949 161.610978 
L 477.017239 161.691873 
L 477.146067 161.634386 
L 477.526342 161.526297 
L 478.04424 161.543586 
L 478.337596 161.561034 
L 478.837386 161.540019 
L 479.820928 161.542094 
L 480.193959 161.634979 
L 480.928123 161.702332 
L 481.692813 161.874303 
L 482.434738 161.946425 
L 482.944358 162.0779 
L 483.313251 162.131331 
L 485.30103 162.907112 
L 485.610424 163.006122 
L 486.305267 163.128012 
L 486.463585 163.163316 
L 487.02184 163.259302 
L 487.375729 163.304995 
L 487.754969 163.466855 
L 488.258381 163.569065 
L 489.354195 163.624762 
L 489.788795 163.459907 
L 490.684382 163.252485 
L 491.647228 163.224448 
L 491.88005 163.182364 
L 492.350867 163.136584 
L 492.636461 163.10865 
L 493.016736 163.023897 
L 493.390286 162.995959 
L 494.055638 163.039001 
L 494.285873 163.041168 
L 494.539389 163.192003 
L 494.929495 163.33411 
L 495.228541 163.279159 
L 495.518792 163.268452 
L 495.903724 163.190397 
L 496.321768 163.105127 
L 498.695513 162.80201 
L 498.925748 162.83905 
L 499.176678 162.969938 
L 499.515045 163.065226 
L 499.703372 163.126887 
L 500.246622 163.275229 
L 500.474787 163.265859 
L 501.381756 163.69001 
L 502.655032 163.681954 
L 502.971669 163.585765 
L 503.456973 163.595116 
L 504.040579 163.709683 
L 505.039125 163.771967 
L 505.232625 163.656462 
L 506.60679 163.216722 
L 508.912241 163.435557 
L 509.226808 163.544484 
L 509.541894 163.721739 
L 510.592177 163.710063 
L 510.883981 163.796094 
L 511.372906 163.73884 
L 511.837514 163.543097 
L 512.398355 163.449181 
L 512.646181 163.396254 
L 512.892455 163.305325 
L 514.075188 163.521883 
L 514.468398 163.510935 
L 515.348981 163.70838 
L 515.710113 163.780625 
L 517.185167 164.455648 
L 517.494561 164.515667 
L 517.777568 164.489328 
L 518.238038 164.623022 
L 518.813883 164.704303 
L 519.333334 164.786568 
L 520.026107 164.937927 
L 520.322567 165.025969 
L 520.645413 165.086989 
L 521.146755 165.197054 
L 523.199206 164.795869 
L 523.690201 164.742829 
L 525.978061 164.540191 
L 526.748959 164.60191 
L 527.283931 164.817045 
L 527.564869 164.775817 
L 527.875298 164.764197 
L 528.269025 164.683844 
L 529.323448 164.571022 
L 529.494701 164.561111 
L 531.133765 164.33829 
L 532.053152 164.625687 
L 532.596402 164.746445 
L 532.789385 164.729225 
L 532.988577 164.792768 
L 534.290826 165.168315 
L 534.784407 165.154163 
L 535.008951 165.111601 
L 535.337488 165.022865 
L 535.802096 165.046032 
L 536.105799 165.11508 
L 536.376389 165.145727 
L 537.3977 165.195774 
L 538.419528 164.766562 
L 538.648728 164.69876 
L 539.37927 164.695242 
L 539.691251 164.800273 
L 540.040483 164.860382 
L 540.444558 164.899864 
L 540.793273 164.859195 
L 541.320485 164.879101 
L 541.655748 165.062476 
L 542.012741 165.103409 
L 542.719484 165.028236 
L 543.054747 165.1839 
L 543.481069 165.204543 
L 544.560843 164.889484 
L 544.793665 164.882489 
L 545.005274 164.806342 
L 545.457983 164.539692 
L 545.942769 164.456953 
L 546.417207 164.574287 
L 546.850773 164.559337 
L 548.803887 164.727183 
L 549.150015 164.683042 
L 549.81485 164.480191 
L 550.224616 164.311163 
L 550.748723 164.274324 
L 551.147107 164.184862 
L 551.815563 164.202778 
L 552.113575 164.18593 
L 552.485055 164.160664 
L 555.329099 163.692101 
L 556.4275 163.4688 
L 557.310152 163.515254 
L 558.386823 163.256271 
L 558.892304 163.018361 
L 559.136508 162.965074 
L 559.382782 162.998381 
L 559.745466 163.08767 
L 560.514812 162.887408 
L 560.956655 162.817206 
L 561.522153 162.767616 
L 562.183366 162.578139 
L 563.63876 162.580508 
L 563.997305 162.519496 
L 564.960669 162.391082 
L 565.524097 162.391724 
L 565.928172 162.354192 
L 567.182304 162.09216 
L 567.468933 162.024954 
L 567.799022 161.922456 
L 568.49697 161.700038 
L 568.771182 161.593355 
L 569.039703 161.551198 
L 571.794758 161.173316 
L 572.181759 161.113595 
L 572.70121 161.067249 
L 572.924718 161.034453 
L 573.562132 161.006553 
L 575.274147 160.571766 
L 576.303735 160.773619 
L 576.5795 160.815149 
L 577.637544 160.450785 
L 578.152339 160.370352 
L 578.552274 160.271738 
L 579.29989 160.337909 
L 580.348622 160.621182 
L 580.518323 160.660958 
L 580.896529 160.684818 
L 581.409771 160.731539 
L 581.735721 160.764871 
L 583.661931 160.984957 
L 583.942352 160.951182 
L 584.522336 160.927159 
L 584.719459 160.993765 
L 585.578312 161.191023 
L 585.969452 161.181746 
L 586.279363 161.220138 
L 586.829339 161.382545 
L 587.317747 161.431509 
L 587.803568 161.393522 
L 588.546528 161.307888 
L 589.329326 161.350768 
L 589.536278 161.319822 
L 590.395648 161.352034 
L 590.815245 161.353883 
L 591.214663 161.419664 
L 591.926062 161.346672 
L 592.688682 161.340021 
L 592.942716 161.331321 
L 593.356104 161.320801 
L 594.035943 161.357153 
L 594.908248 161.329619 
L 595.163317 161.359365 
L 596.228605 161.361683 
L 597.394265 161.224892 
L 598.752908 160.794781 
L 599.373765 160.562714 
L 599.881834 160.429061 
L 600.248657 160.387327 
L 600.837954 160.227791 
L 602.846946 159.923454 
L 603.600253 159.895168 
L 603.956728 159.889104 
L 605.243973 160.356304 
L 606.156116 160.140159 
L 606.866998 160.129923 
L 607.191396 160.017821 
L 607.542698 160.019924 
L 607.919351 160.024405 
L 608.767339 159.966659 
L 609.150201 160.009244 
L 609.625675 159.943689 
L 610.06907 159.94949 
L 610.888602 160.097264 
L 611.072273 160.167303 
L 611.072273 160.167303 
" clip-path="url(#p660c62a3cb)" style="fill: none; stroke: #1f2937; stroke-linecap: square"/>
   </g>
   <g id="line2d_24">
    <path d="M 62.39 160.167303 
L 637.2 160.167303 
" clip-path="url(#p660c62a3cb)" style="fill: none; stroke-dasharray: 2.96,1.28; stroke-dashoffset: 0; stroke: #888888; stroke-width: 0.8"/>
   </g>
   <g id="patch_3">
    <path d="M 62.39 282.04 
L 62.39 26.88 
" style="fill: none; stroke: #000000; stroke-width: 0.8; stroke-linejoin: miter; stroke-linecap: square"/>
   </g>
   <g id="patch_4">
    <path d="M 637.2 282.04 
L 637.2 26.88 
" style="fill: none; stroke: #000000; stroke-width: 0.8; stroke-linejoin: miter; stroke-linecap: square"/>
   </g>
   <g id="patch_5">
    <path d="M 62.39 282.04 
L 637.2 282.04 
" style="fill: none; stroke: #000000; stroke-width: 0.8; stroke-linejoin: miter; stroke-linecap: square"/>
   </g>
   <g id="patch_6">
    <path d="M 62.39 26.88 
L 637.2 26.88 
" style="fill: none; stroke: #000000; stroke-width: 0.8; stroke-linejoin: miter; stroke-linecap: square"/>
   </g>
   <g id="text_15">
    <!-- Running mean — declination  (canonical ReCom ensemble) -->
    <g transform="translate(171.87625 20.88) scale(0.12 -0.12)">
     <defs>
      <path id="DejaVuSans-2014" d="M 313 1978 
L 6088 1978 
L 6088 1528 
L 313 1528 
L 313 1978 
z
" transform="scale(0.015625)"/>
      <path id="DejaVuSans-28" d="M 1984 4856 
Q 1566 4138 1362 3434 
Q 1159 2731 1159 2009 
Q 1159 1288 1364 580 
Q 1569 -128 1984 -844 
L 1484 -844 
Q 1016 -109 783 600 
Q 550 1309 550 2009 
Q 550 2706 781 3412 
Q 1013 4119 1484 4856 
L 1984 4856 
z
" transform="scale(0.015625)"/>
      <path id="DejaVuSans-43" d="M 4122 4306 
L 4122 3641 
Q 3803 3938 3442 4084 
Q 3081 4231 2675 4231 
Q 1875 4231 1450 3742 
Q 1025 3253 1025 2328 
Q 1025 1406 1450 917 
Q 1875 428 2675 428 
Q 3081 428 3442 575 
Q 3803 722 4122 1019 
L 4122 359 
Q 3791 134 3420 21 
Q 3050 -91 2638 -91 
Q 1578 -91 968 557 
Q 359 1206 359 2328 
Q 359 3453 968 4101 
Q 1578 4750 2638 4750 
Q 3056 4750 3426 4639 
Q 3797 4528 4122 4306 
z
" transform="scale(0.015625)"/>
      <path id="DejaVuSans-73" d="M 2834 3397 
L 2834 2853 
Q 2591 2978 2328 3040 
Q 2066 3103 1784 3103 
Q 1356 3103 1142 2972 
Q 928 2841 928 2578 
Q 928 2378 1081 2264 
Q 1234 2150 1697 2047 
L 1894 2003 
Q 2506 1872 2764 1633 
Q 3022 1394 3022 966 
Q 3022 478 2636 193 
Q 2250 -91 1575 -91 
Q 1294 -91 989 -36 
Q 684 19 347 128 
L 347 722 
Q 666 556 975 473 
Q 1284 391 1588 391 
Q 1994 391 2212 530 
Q 2431 669 2431 922 
Q 2431 1156 2273 1281 
Q 2116 1406 1581 1522 
L 1381 1569 
Q 847 1681 609 1914 
Q 372 2147 372 2553 
Q 372 3047 722 3315 
Q 1072 3584 1716 3584 
Q 2034 3584 2315 3537 
Q 2597 3491 2834 3397 
z
" transform="scale(0.015625)"/>
      <path id="DejaVuSans-62" d="M 3116 1747 
Q 3116 2381 2855 2742 
Q 2594 3103 2138 3103 
Q 1681 3103 1420 2742 
Q 1159 2381 1159 1747 
Q 1159 1113 1420 752 
Q 1681 391 2138 391 
Q 2594 391 2855 752 
Q 3116 1113 3116 1747 
z
M 1159 2969 
Q 1341 3281 1617 3432 
Q 1894 3584 2278 3584 
Q 2916 3584 3314 3078 
Q 3713 2572 3713 1747 
Q 3713 922 3314 415 
Q 2916 -91 2278 -91 
Q 1894 -91 1617 61 
Q 1341 213 1159 525 
L 1159 0 
L 581 0 
L 581 4863 
L 1159 4863 
L 1159 2969 
z
" transform="scale(0.015625)"/>
      <path id="DejaVuSans-29" d="M 513 4856 
L 1013 4856 
Q 1481 4119 1714 3412 
Q 1947 2706 1947 2009 
Q 1947 1309 1714 600 
Q 1481 -109 1013 -844 
L 513 -844 
Q 928 -128 1133 580 
Q 1338 1288 1338 2009 
Q 1338 2731 1133 3434 
Q 928 4138 513 4856 
z
" transform="scale(0.015625)"/>
     </defs>
     <use xlink:href="#DejaVuSans-52"/>
     <use xlink:href="#DejaVuSans-75" transform="translate(64.982422 0)"/>
     <use xlink:href="#DejaVuSans-6e" transform="translate(128.361328 0)"/>
     <use xlink:href="#DejaVuSans-6e" transform="translate(191.740234 0)"/>
     <use xlink:href="#DejaVuSans-69" transform="translate(255.119141 0)"/>
     <use xlink:href="#DejaVuSans-6e" transform="translate(282.902344 0)"/>
     <use xlink:href="#DejaVuSans-67" transform="translate(346.28125 0)"/>
     <use xlink:href="#DejaVuSans-20" transform="translate(409.757812 0)"/>
     <use xlink:href="#DejaVuSans-6d" transform="translate(441.544922 0)"/>
     <use xlink:href="#DejaVuSans-65" transform="translate(538.957031 0)"/>
     <use xlink:href="#DejaVuSans-61" transform="translate(600.480469 0)"/>
     <use xlink:href="#DejaVuSans-6e" transform="translate(661.759766 0)"/>
     <use xlink:href="#DejaVuSans-20" transform="translate(725.138672 0)"/>
     <use xlink:href="#DejaVuSans-2014" transform="translate(756.925781 0)"/>
     <use xlink:href="#DejaVuSans-20" transform="translate(856.925781 0)"/>
     <use xlink:href="#DejaVuSans-64" transform="translate(888.712891 0)"/>
     <use xlink:href="#DejaVuSans-65" transform="translate(952.189453 0)"/>
     <use xlink:href="#DejaVuSans-63" transform="translate(1013.712891 0)"/>
     <use xlink:href="#DejaVuSans-6c" transform="translate(1068.693359 0)"/>
     <use xlink:href="#DejaVuSans-69" transform="translate(1096.476562 0)"/>
     <use xlink:href="#DejaVuSans-6e" transform="translate(1124.259766 0)"/>
     <use xlink:href="#DejaVuSans-61" transform="translate(1187.638672 0)"/>
     <use xlink:href="#DejaVuSans-74" transform="translate(1248.917969 0)"/>
     <use xlink:href="#DejaVuSans-69" transform="translate(1288.126953 0)"/>
     <use xlink:href="#DejaVuSans-6f" transform="translate(1315.910156 0)"/>
     <use xlink:href="#DejaVuSans-6e" transform="translate(1377.091797 0)"/>
     <use xlink:href="#DejaVuSans-20" transform="translate(1440.470703 0)"/>
     <use xlink:href="#DejaVuSans-20" transform="translate(1472.257812 0)"/>
     <use xlink:href="#DejaVuSans-28" transform="translate(1504.044922 0)"/>
     <use xlink:href="#DejaVuSans-63" transform="translate(1543.058594 0)"/>
     <use xlink:href="#DejaVuSans-61" transform="translate(1598.039062 0)"/>
     <use xlink:href="#DejaVuSans-6e" transform="translate(1659.318359 0)"/>
     <use xlink:href="#DejaVuSans-6f" transform="translate(1722.697266 0)"/>
     <use xlink:href="#DejaVuSans-6e" transform="translate(1783.878906 0)"/>
     <use xlink:href="#DejaVuSans-69" transform="translate(1847.257812 0)"/>
     <use xlink:href="#DejaVuSans-63" transform="translate(1875.041016 0)"/>
     <use xlink:href="#DejaVuSans-61" transform="translate(1930.021484 0)"/>
     <use xlink:href="#DejaVuSans-6c" transform="translate(1991.300781 0)"/>
     <use xlink:href="#DejaVuSans-20" transform="translate(2019.083984 0)"/>
     <use xlink:href="#DejaVuSans-52" transform="translate(2050.871094 0)"/>
     <use xlink:href="#DejaVuSans-65" transform="translate(2115.853516 0)"/>
     <use xlink:href="#DejaVuSans-43" transform="translate(2177.376953 0)"/>
     <use xlink:href="#DejaVuSans-6f" transform="translate(2247.201172 0)"/>
     <use xlink:href="#DejaVuSans-6d" transform="translate(2308.382812 0)"/>
     <use xlink:href="#DejaVuSans-20" transform="translate(2405.794922 0)"/>
     <use xlink:href="#DejaVuSans-65" transform="translate(2437.582031 0)"/>
     <use xlink:href="#DejaVuSans-6e" transform="translate(2499.105469 0)"/>
     <use xlink:href="#DejaVuSans-73" transform="translate(2562.484375 0)"/>
     <use xlink:href="#DejaVuSans-65" transform="translate(2614.583984 0)"/>
     <use xlink:href="#DejaVuSans-6d" transform="translate(2676.107422 0)"/>
     <use xlink:href="#DejaVuSans-62" transform="translate(2773.519531 0)"/>
     <use xlink:href="#DejaVuSans-6c" transform="translate(2836.996094 0)"/>
     <use xlink:href="#DejaVuSans-65" transform="translate(2864.779297 0)"/>
     <use xlink:href="#DejaVuSans-29" transform="translate(2926.302734 0)"/>
    </g>
   </g>
   <g id="legend_1">
    <g id="patch_7">
     <path d="M 500.601094 47.290312 
L 630.9 47.290312 
Q 632.7 47.290312 632.7 45.490312 
L 632.7 33.18 
Q 632.7 31.38 630.9 31.38 
L 500.601094 31.38 
Q 498.801094 31.38 498.801094 33.18 
L 498.801094 45.490312 
Q 498.801094 47.290312 500.601094 47.290312 
z
" style="fill: #ffffff; opacity: 0.8; stroke: #cccccc; stroke-linejoin: miter"/>
    </g>
    <g id="line2d_25">
     <path d="M 502.401094 38.668594 
L 511.401094 38.668594 
L 520.401094 38.668594 
" style="fill: none; stroke-dasharray: 2.96,1.28; stroke-dashoffset: 0; stroke: #888888; stroke-width: 0.8"/>
    </g>
    <g id="text_16">
     <!-- final mean = -0.00246 -->
     <g transform="translate(527.601094 41.818594) scale(0.09 -0.09)">
      <defs>
       <path id="DejaVuSans-3d" d="M 678 2906 
L 4684 2906 
L 4684 2381 
L 678 2381 
L 678 2906 
z
M 678 1631 
L 4684 1631 
L 4684 1100 
L 678 1100 
L 678 1631 
z
" transform="scale(0.015625)"/>
       <path id="DejaVuSans-2d" d="M 313 2009 
L 1997 2009 
L 1997 1497 
L 313 1497 
L 313 2009 
z
" transform="scale(0.015625)"/>
      </defs>
      <use xlink:href="#DejaVuSans-66"/>
      <use xlink:href="#DejaVuSans-69" transform="translate(35.205078 0)"/>
      <use xlink:href="#DejaVuSans-6e" transform="translate(62.988281 0)"/>
      <use xlink:href="#DejaVuSans-61" transform="translate(126.367188 0)"/>
      <use xlink:href="#DejaVuSans-6c" transform="translate(187.646484 0)"/>
      <use xlink:href="#DejaVuSans-20" transform="translate(215.429688 0)"/>
      <use xlink:href="#DejaVuSans-6d" transform="translate(247.216797 0)"/>
      <use xlink:href="#DejaVuSans-65" transform="translate(344.628906 0)"/>
      <use xlink:href="#DejaVuSans-61" transform="translate(406.152344 0)"/>
      <use xlink:href="#DejaVuSans-6e" transform="translate(467.431641 0)"/>
      <use xlink:href="#DejaVuSans-20" transform="translate(530.810547 0)"/>
      <use xlink:href="#DejaVuSans-3d" transform="translate(562.597656 0)"/>
      <use xlink:href="#DejaVuSans-20" transform="translate(646.386719 0)"/>
      <use xlink:href="#DejaVuSans-2d" transform="translate(678.173828 0)"/>
      <use xlink:href="#DejaVuSans-30" transform="translate(714.257812 0)"/>
      <use xlink:href="#DejaVuSans-2e" transform="translate(777.880859 0)"/>
      <use xlink:href="#DejaVuSans-30" transform="translate(809.667969 0)"/>
      <use xlink:href="#DejaVuSans-30" transform="translate(873.291016 0)"/>
      <use xlink:href="#DejaVuSans-32" transform="translate(936.914062 0)"/>
      <use xlink:href="#DejaVuSans-34" transform="translate(1000.537109 0)"/>
      <use xlink:href="#DejaVuSans-36" transform="translate(1064.160156 0)"/>
     </g>
    </g>
   </g>
  </g>
 </g>
 <defs>
  <clipPath id="p660c62a3cb">
   <rect x="62.39" y="26.88" width="574.81" height="255.16"/>
  </clipPath>
 </defs>
</svg>
