<?xml version="1.0" encoding="utf-8" standalone="no"?>
<!DOCTYPE svg PUBLIC "-//W3C//DTD SVG 1.1//EN"
  "http://www.w3.org/Graphics/SVG/1.1/DTD/svg11.dtd">
<svg xmlns:xlink="http://www.w3.org/1999/xlink" width="648pt" height="324pt" viewBox="0 0 648 324" xmlns="http://www.w3.org/2000/svg" version="1.1">
 <metadata>
  <rdf:RDF xmlns:dc="http://purl.org/dc/elements/1.1/" xmlns:cc="http://creativecommons.org/ns#" xmlns:rdf="http://www.w3.org/1999/02/22-rdf-syntax-ns#">
   <cc:Work>
    <dc:type rdf:resource="http://purl.org/dc/dcmitype/StillImage"/>
    <dc:date>2026-05-07T00:11:12.123597</dc:date>
    <dc:format>image/svg+xml</dc:format>
    <dc:creator>
     <cc:Agent>
      <dc:title>Matplotlib v3.10.8, https://matplotlib.org/</dc:title>
     </cc:Agent>
    </dc:creator>
   </cc:Work>
  </rdf:RDF>
 </metadata>
 <defs>
  <style type="text/css">*{stroke-linejoin: round; stroke-linecap: butt}</style>
 </defs>
 <g id="figure_1">
  <g id="patch_1">
   <path d="M 0 324 
L 648 324 
L 648 0 
L 0 0 
z
" style="fill: #ffffff"/>
  </g>
  <g id="axes_1">
   <g id="patch_2">
    <path d="M 66.72125 282.04 
L 637.2 282.04 
L 637.2 26.88 
L 66.72125 26.88 
z
" style="fill: #ffffff"/>
   </g>
   <g id="matplotlib.axis_1">
    <g id="xtick_1">
     <g id="line2d_1">
      <path d="M 92.64173 282.04 
L 92.64173 26.88 
" clip-path="url(#pe6917b9eab)" style="fill: none; stroke-dasharray: 0.5,0.825; stroke-dashoffset: 0; stroke: #b0b0b0; stroke-opacity: 0.6; stroke-width: 0.5"/>
     </g>
     <g id="line2d_2">
      <defs>
       <path id="m14b97aa7f8" d="M 0 0 
L 0 3.5 
" style="stroke: #000000; stroke-width: 0.8"/>
      </defs>
      <g>
       <use xlink:href="#m14b97aa7f8" x="92.64173" y="282.04" style="stroke: #000000; stroke-width: 0.8"/>
      </g>
     </g>
     <g id="text_1">
      <!-- 0 -->
      <g transform="translate(89.46048 296.638438) scale(0.1 -0.1)">
       <defs>
        <path id="DejaVuSans-30" d="M 2034 4250 
Q 1547 4250 1301 3770 
Q 1056 3291 1056 2328 
Q 1056 1369 1301 889 
Q 1547 409 2034 409 
Q 2525 409 2770 889 
Q 3016 1369 3016 2328 
Q 3016 3291 2770 3770 
Q 2525 4250 2034 4250 
z
M 2034 4750 
Q 2819 4750 3233 4129 
Q 3647 3509 3647 2328 
Q 3647 1150 3233 529 
Q 2819 -91 2034 -91 
Q 1250 -91 836 529 
Q 422 1150 422 2328 
Q 422 3509 836 4129 
Q 1250 4750 2034 4750 
z
" transform="scale(0.015625)"/>
       </defs>
       <use xlink:href="#DejaVuSans-30"/>
      </g>
     </g>
    </g>
    <g id="xtick_2">
     <g id="line2d_3">
      <path d="M 196.367213 282.04 
L 196.367213 26.88 
" clip-path="url(#pe6917b9eab)" style="fill: none; stroke-dasharray: 0.5,0.825; stroke-dashoffset: 0; stroke: #b0b0b0; stroke-opacity: 0.6; stroke-width: 0.5"/>
     </g>
     <g id="line2d_4">
      <g>
       <use xlink:href="#m14b97aa7f8" x="196.367213" y="282.04" style="stroke: #000000; stroke-width: 0.8"/>
      </g>
     </g>
     <g id="text_2">
      <!-- 10000 -->
      <g transform="translate(180.460963 296.638438) scale(0.1 -0.1)">
       <defs>
        <path id="DejaVuSans-31" d="M 794 531 
L 1825 531 
L 1825 4091 
L 703 3866 
L 703 4441 
L 1819 4666 
L 2450 4666 
L 2450 531 
L 3481 531 
L 3481 0 
L 794 0 
L 794 531 
z
" transform="scale(0.015625)"/>
       </defs>
       <use xlink:href="#DejaVuSans-31"/>
       <use xlink:href="#DejaVuSans-30" transform="translate(63.623047 0)"/>
       <use xlink:href="#DejaVuSans-30" transform="translate(127.246094 0)"/>
       <use xlink:href="#DejaVuSans-30" transform="translate(190.869141 0)"/>
       <use xlink:href="#DejaVuSans-30" transform="translate(254.492188 0)"/>
      </g>
     </g>
    </g>
    <g id="xtick_3">
     <g id="line2d_5">
      <path d="M 300.092697 282.04 
L 300.092697 26.88 
" clip-path="url(#pe6917b9eab)" style="fill: none; stroke-dasharray: 0.5,0.825; stroke-dashoffset: 0; stroke: #b0b0b0; stroke-opacity: 0.6; stroke-width: 0.5"/>
     </g>
     <g id="line2d_6">
      <g>
       <use xlink:href="#m14b97aa7f8" x="300.092697" y="282.04" style="stroke: #000000; stroke-width: 0.8"/>
      </g>
     </g>
     <g id="text_3">
      <!-- 20000 -->
      <g transform="translate(284.186447 296.638438) scale(0.1 -0.1)">
       <defs>
        <path id="DejaVuSans-32" d="M 1228 531 
L 3431 531 
L 3431 0 
L 469 0 
L 469 531 
Q 828 903 1448 1529 
Q 2069 2156 2228 2338 
Q 2531 2678 2651 2914 
Q 2772 3150 2772 3378 
Q 2772 3750 2511 3984 
Q 2250 4219 1831 4219 
Q 1534 4219 1204 4116 
Q 875 4013 500 3803 
L 500 4441 
Q 881 4594 1212 4672 
Q 1544 4750 1819 4750 
Q 2544 4750 2975 4387 
Q 3406 4025 3406 3419 
Q 3406 3131 3298 2873 
Q 3191 2616 2906 2266 
Q 2828 2175 2409 1742 
Q 1991 1309 1228 531 
z
" transform="scale(0.015625)"/>
       </defs>
       <use xlink:href="#DejaVuSans-32"/>
       <use xlink:href="#DejaVuSans-30" transform="translate(63.623047 0)"/>
       <use xlink:href="#DejaVuSans-30" transform="translate(127.246094 0)"/>
       <use xlink:href="#DejaVuSans-30" transform="translate(190.869141 0)"/>
       <use xlink:href="#DejaVuSans-30" transform="translate(254.492188 0)"/>
      </g>
     </g>
    </g>
    <g id="xtick_4">
     <g id="line2d_7">
      <path d="M 403.818181 282.04 
L 403.818181 26.88 
" clip-path="url(#pe6917b9eab)" style="fill: none; stroke-dasharray: 0.5,0.825; stroke-dashoffset: 0; stroke: #b0b0b0; stroke-opacity: 0.6; stroke-width: 0.5"/>
     </g>
     <g id="line2d_8">
      <g>
       <use xlink:href="#m14b97aa7f8" x="403.818181" y="282.04" style="stroke: #000000; stroke-width: 0.8"/>
      </g>
     </g>
     <g id="text_4">
      <!-- 30000 -->
      <g transform="translate(387.911931 296.638438) scale(0.1 -0.1)">
       <defs>
        <path id="DejaVuSans-33" d="M 2597 2516 
Q 3050 2419 3304 2112 
Q 3559 1806 3559 1356 
Q 3559 666 3084 287 
Q 2609 -91 1734 -91 
Q 1441 -91 1130 -33 
Q 819 25 488 141 
L 488 750 
Q 750 597 1062 519 
Q 1375 441 1716 441 
Q 2309 441 2620 675 
Q 2931 909 2931 1356 
Q 2931 1769 2642 2001 
Q 2353 2234 1838 2234 
L 1294 2234 
L 1294 2753 
L 1863 2753 
Q 2328 2753 2575 2939 
Q 2822 3125 2822 3475 
Q 2822 3834 2567 4026 
Q 2313 4219 1838 4219 
Q 1578 4219 1281 4162 
Q 984 4106 628 3988 
L 628 4550 
Q 988 4650 1302 4700 
Q 1616 4750 1894 4750 
Q 2613 4750 3031 4423 
Q 3450 4097 3450 3541 
Q 3450 3153 3228 2886 
Q 3006 2619 2597 2516 
z
" transform="scale(0.015625)"/>
       </defs>
       <use xlink:href="#DejaVuSans-33"/>
       <use xlink:href="#DejaVuSans-30" transform="translate(63.623047 0)"/>
       <use xlink:href="#DejaVuSans-30" transform="translate(127.246094 0)"/>
       <use xlink:href="#DejaVuSans-30" transform="translate(190.869141 0)"/>
       <use xlink:href="#DejaVuSans-30" transform="translate(254.492188 0)"/>
      </g>
     </g>
    </g>
    <g id="xtick_5">
     <g id="line2d_9">
      <path d="M 507.543664 282.04 
L 507.543664 26.88 
" clip-path="url(#pe6917b9eab)" style="fill: none; stroke-dasharray: 0.5,0.825; stroke-dashoffset: 0; stroke: #b0b0b0; stroke-opacity: 0.6; stroke-width: 0.5"/>
     </g>
     <g id="line2d_10">
      <g>
       <use xlink:href="#m14b97aa7f8" x="507.543664" y="282.04" style="stroke: #000000; stroke-width: 0.8"/>
      </g>
     </g>
     <g id="text_5">
      <!-- 40000 -->
      <g transform="translate(491.637414 296.638438) scale(0.1 -0.1)">
       <defs>
        <path id="DejaVuSans-34" d="M 2419 4116 
L 825 1625 
L 2419 1625 
L 2419 4116 
z
M 2253 4666 
L 3047 4666 
L 3047 1625 
L 3713 1625 
L 3713 1100 
L 3047 1100 
L 3047 0 
L 2419 0 
L 2419 1100 
L 313 1100 
L 313 1709 
L 2253 4666 
z
" transform="scale(0.015625)"/>
       </defs>
       <use xlink:href="#DejaVuSans-34"/>
       <use xlink:href="#DejaVuSans-30" transform="translate(63.623047 0)"/>
       <use xlink:href="#DejaVuSans-30" transform="translate(127.246094 0)"/>
       <use xlink:href="#DejaVuSans-30" transform="translate(190.869141 0)"/>
       <use xlink:href="#DejaVuSans-30" transform="translate(254.492188 0)"/>
      </g>
     </g>
    </g>
    <g id="xtick_6">
     <g id="line2d_11">
      <path d="M 611.269148 282.04 
L 611.269148 26.88 
" clip-path="url(#pe6917b9eab)" style="fill: none; stroke-dasharray: 0.5,0.825; stroke-dashoffset: 0; stroke: #b0b0b0; stroke-opacity: 0.6; stroke-width: 0.5"/>
     </g>
     <g id="line2d_12">
      <g>
       <use xlink:href="#m14b97aa7f8" x="611.269148" y="282.04" style="stroke: #000000; stroke-width: 0.8"/>
      </g>
     </g>
     <g id="text_6">
      <!-- 50000 -->
      <g transform="translate(595.362898 296.638438) scale(0.1 -0.1)">
       <defs>
        <path id="DejaVuSans-35" d="M 691 4666 
L 3169 4666 
L 3169 4134 
L 1269 4134 
L 1269 2991 
Q 1406 3038 1543 3061 
Q 1681 3084 1819 3084 
Q 2600 3084 3056 2656 
Q 3513 2228 3513 1497 
Q 3513 744 3044 326 
Q 2575 -91 1722 -91 
Q 1428 -91 1123 -41 
Q 819 9 494 109 
L 494 744 
Q 775 591 1075 516 
Q 1375 441 1709 441 
Q 2250 441 2565 725 
Q 2881 1009 2881 1497 
Q 2881 1984 2565 2268 
Q 2250 2553 1709 2553 
Q 1456 2553 1204 2497 
Q 953 2441 691 2322 
L 691 4666 
z
" transform="scale(0.015625)"/>
       </defs>
       <use xlink:href="#DejaVuSans-35"/>
       <use xlink:href="#DejaVuSans-30" transform="translate(63.623047 0)"/>
       <use xlink:href="#DejaVuSans-30" transform="translate(127.246094 0)"/>
       <use xlink:href="#DejaVuSans-30" transform="translate(190.869141 0)"/>
       <use xlink:href="#DejaVuSans-30" transform="translate(254.492188 0)"/>
      </g>
     </g>
    </g>
    <g id="text_7">
     <!-- Sample index -->
     <g transform="translate(317.942656 310.316563) scale(0.1 -0.1)">
      <defs>
       <path id="DejaVuSans-53" d="M 3425 4513 
L 3425 3897 
Q 3066 4069 2747 4153 
Q 2428 4238 2131 4238 
Q 1616 4238 1336 4038 
Q 1056 3838 1056 3469 
Q 1056 3159 1242 3001 
Q 1428 2844 1947 2747 
L 2328 2669 
Q 3034 2534 3370 2195 
Q 3706 1856 3706 1288 
Q 3706 609 3251 259 
Q 2797 -91 1919 -91 
Q 1588 -91 1214 -16 
Q 841 59 441 206 
L 441 856 
Q 825 641 1194 531 
Q 1563 422 1919 422 
Q 2459 422 2753 634 
Q 3047 847 3047 1241 
Q 3047 1584 2836 1778 
Q 2625 1972 2144 2069 
L 1759 2144 
Q 1053 2284 737 2584 
Q 422 2884 422 3419 
Q 422 4038 858 4394 
Q 1294 4750 2059 4750 
Q 2388 4750 2728 4690 
Q 3069 4631 3425 4513 
z
" transform="scale(0.015625)"/>
       <path id="DejaVuSans-61" d="M 2194 1759 
Q 1497 1759 1228 1600 
Q 959 1441 959 1056 
Q 959 750 1161 570 
Q 1363 391 1709 391 
Q 2188 391 2477 730 
Q 2766 1069 2766 1631 
L 2766 1759 
L 2194 1759 
z
M 3341 1997 
L 3341 0 
L 2766 0 
L 2766 531 
Q 2569 213 2275 61 
Q 1981 -91 1556 -91 
Q 1019 -91 701 211 
Q 384 513 384 1019 
Q 384 1609 779 1909 
Q 1175 2209 1959 2209 
L 2766 2209 
L 2766 2266 
Q 2766 2663 2505 2880 
Q 2244 3097 1772 3097 
Q 1472 3097 1187 3025 
Q 903 2953 641 2809 
L 641 3341 
Q 956 3463 1253 3523 
Q 1550 3584 1831 3584 
Q 2591 3584 2966 3190 
Q 3341 2797 3341 1997 
z
" transform="scale(0.015625)"/>
       <path id="DejaVuSans-6d" d="M 3328 2828 
Q 3544 3216 3844 3400 
Q 4144 3584 4550 3584 
Q 5097 3584 5394 3201 
Q 5691 2819 5691 2113 
L 5691 0 
L 5113 0 
L 5113 2094 
Q 5113 2597 4934 2840 
Q 4756 3084 4391 3084 
Q 3944 3084 3684 2787 
Q 3425 2491 3425 1978 
L 3425 0 
L 2847 0 
L 2847 2094 
Q 2847 2600 2669 2842 
Q 2491 3084 2119 3084 
Q 1678 3084 1418 2786 
Q 1159 2488 1159 1978 
L 1159 0 
L 581 0 
L 581 3500 
L 1159 3500 
L 1159 2956 
Q 1356 3278 1631 3431 
Q 1906 3584 2284 3584 
Q 2666 3584 2933 3390 
Q 3200 3197 3328 2828 
z
" transform="scale(0.015625)"/>
       <path id="DejaVuSans-70" d="M 1159 525 
L 1159 -1331 
L 581 -1331 
L 581 3500 
L 1159 3500 
L 1159 2969 
Q 1341 3281 1617 3432 
Q 1894 3584 2278 3584 
Q 2916 3584 3314 3078 
Q 3713 2572 3713 1747 
Q 3713 922 3314 415 
Q 2916 -91 2278 -91 
Q 1894 -91 1617 61 
Q 1341 213 1159 525 
z
M 3116 1747 
Q 3116 2381 2855 2742 
Q 2594 3103 2138 3103 
Q 1681 3103 1420 2742 
Q 1159 2381 1159 1747 
Q 1159 1113 1420 752 
Q 1681 391 2138 391 
Q 2594 391 2855 752 
Q 3116 1113 3116 1747 
z
" transform="scale(0.015625)"/>
       <path id="DejaVuSans-6c" d="M 603 4863 
L 1178 4863 
L 1178 0 
L 603 0 
L 603 4863 
z
" transform="scale(0.015625)"/>
       <path id="DejaVuSans-65" d="M 3597 1894 
L 3597 1613 
L 953 1613 
Q 991 1019 1311 708 
Q 1631 397 2203 397 
Q 2534 397 2845 478 
Q 3156 559 3463 722 
L 3463 178 
Q 3153 47 2828 -22 
Q 2503 -91 2169 -91 
Q 1331 -91 842 396 
Q 353 884 353 1716 
Q 353 2575 817 3079 
Q 1281 3584 2069 3584 
Q 2775 3584 3186 3129 
Q 3597 2675 3597 1894 
z
M 3022 2063 
Q 3016 2534 2758 2815 
Q 2500 3097 2075 3097 
Q 1594 3097 1305 2825 
Q 1016 2553 972 2059 
L 3022 2063 
z
" transform="scale(0.015625)"/>
       <path id="DejaVuSans-20" transform="scale(0.015625)"/>
       <path id="DejaVuSans-69" d="M 603 3500 
L 1178 3500 
L 1178 0 
L 603 0 
L 603 3500 
z
M 603 4863 
L 1178 4863 
L 1178 4134 
L 603 4134 
L 603 4863 
z
" transform="scale(0.015625)"/>
       <path id="DejaVuSans-6e" d="M 3513 2113 
L 3513 0 
L 2938 0 
L 2938 2094 
Q 2938 2591 2744 2837 
Q 2550 3084 2163 3084 
Q 1697 3084 1428 2787 
Q 1159 2491 1159 1978 
L 1159 0 
L 581 0 
L 581 3500 
L 1159 3500 
L 1159 2956 
Q 1366 3272 1645 3428 
Q 1925 3584 2291 3584 
Q 2894 3584 3203 3211 
Q 3513 2838 3513 2113 
z
" transform="scale(0.015625)"/>
       <path id="DejaVuSans-64" d="M 2906 2969 
L 2906 4863 
L 3481 4863 
L 3481 0 
L 2906 0 
L 2906 525 
Q 2725 213 2448 61 
Q 2172 -91 1784 -91 
Q 1150 -91 751 415 
Q 353 922 353 1747 
Q 353 2572 751 3078 
Q 1150 3584 1784 3584 
Q 2172 3584 2448 3432 
Q 2725 3281 2906 2969 
z
M 947 1747 
Q 947 1113 1208 752 
Q 1469 391 1925 391 
Q 2381 391 2643 752 
Q 2906 1113 2906 1747 
Q 2906 2381 2643 2742 
Q 2381 3103 1925 3103 
Q 1469 3103 1208 2742 
Q 947 2381 947 1747 
z
" transform="scale(0.015625)"/>
       <path id="DejaVuSans-78" d="M 3513 3500 
L 2247 1797 
L 3578 0 
L 2900 0 
L 1881 1375 
L 863 0 
L 184 0 
L 1544 1831 
L 300 3500 
L 978 3500 
L 1906 2253 
L 2834 3500 
L 3513 3500 
z
" transform="scale(0.015625)"/>
      </defs>
      <use xlink:href="#DejaVuSans-53"/>
      <use xlink:href="#DejaVuSans-61" transform="translate(63.476562 0)"/>
      <use xlink:href="#DejaVuSans-6d" transform="translate(124.755859 0)"/>
      <use xlink:href="#DejaVuSans-70" transform="translate(222.167969 0)"/>
      <use xlink:href="#DejaVuSans-6c" transform="translate(285.644531 0)"/>
      <use xlink:href="#DejaVuSans-65" transform="translate(313.427734 0)"/>
      <use xlink:href="#DejaVuSans-20" transform="translate(374.951172 0)"/>
      <use xlink:href="#DejaVuSans-69" transform="translate(406.738281 0)"/>
      <use xlink:href="#DejaVuSans-6e" transform="translate(434.521484 0)"/>
      <use xlink:href="#DejaVuSans-64" transform="translate(497.900391 0)"/>
      <use xlink:href="#DejaVuSans-65" transform="translate(561.376953 0)"/>
      <use xlink:href="#DejaVuSans-78" transform="translate(621.150391 0)"/>
     </g>
    </g>
   </g>
   <g id="matplotlib.axis_2">
    <g id="ytick_1">
     <g id="line2d_13">
      <path d="M 66.72125 278.492453 
L 637.2 278.492453 
" clip-path="url(#pe6917b9eab)" style="fill: none; stroke-dasharray: 0.5,0.825; stroke-dashoffset: 0; stroke: #b0b0b0; stroke-opacity: 0.6; stroke-width: 0.5"/>
     </g>
     <g id="line2d_14">
      <defs>
       <path id="m1216df630c" d="M 0 0 
L -3.5 0 
" style="stroke: #000000; stroke-width: 0.8"/>
      </defs>
      <g>
       <use xlink:href="#m1216df630c" x="66.72125" y="278.492453" style="stroke: #000000; stroke-width: 0.8"/>
      </g>
     </g>
     <g id="text_8">
      <!-- 0.0050 -->
      <g transform="translate(24.730625 282.291672) scale(0.1 -0.1)">
       <defs>
        <path id="DejaVuSans-2e" d="M 684 794 
L 1344 794 
L 1344 0 
L 684 0 
L 684 794 
z
" transform="scale(0.015625)"/>
       </defs>
       <use xlink:href="#DejaVuSans-30"/>
       <use xlink:href="#DejaVuSans-2e" transform="translate(63.623047 0)"/>
       <use xlink:href="#DejaVuSans-30" transform="translate(95.410156 0)"/>
       <use xlink:href="#DejaVuSans-30" transform="translate(159.033203 0)"/>
       <use xlink:href="#DejaVuSans-35" transform="translate(222.65625 0)"/>
       <use xlink:href="#DejaVuSans-30" transform="translate(286.279297 0)"/>
      </g>
     </g>
    </g>
    <g id="ytick_2">
     <g id="line2d_15">
      <path d="M 66.72125 243.844135 
L 637.2 243.844135 
" clip-path="url(#pe6917b9eab)" style="fill: none; stroke-dasharray: 0.5,0.825; stroke-dashoffset: 0; stroke: #b0b0b0; stroke-opacity: 0.6; stroke-width: 0.5"/>
     </g>
     <g id="line2d_16">
      <g>
       <use xlink:href="#m1216df630c" x="66.72125" y="243.844135" style="stroke: #000000; stroke-width: 0.8"/>
      </g>
     </g>
     <g id="text_9">
      <!-- 0.0075 -->
      <g transform="translate(24.730625 247.643354) scale(0.1 -0.1)">
       <defs>
        <path id="DejaVuSans-37" d="M 525 4666 
L 3525 4666 
L 3525 4397 
L 1831 0 
L 1172 0 
L 2766 4134 
L 525 4134 
L 525 4666 
z
" transform="scale(0.015625)"/>
       </defs>
       <use xlink:href="#DejaVuSans-30"/>
       <use xlink:href="#DejaVuSans-2e" transform="translate(63.623047 0)"/>
       <use xlink:href="#DejaVuSans-30" transform="translate(95.410156 0)"/>
       <use xlink:href="#DejaVuSans-30" transform="translate(159.033203 0)"/>
       <use xlink:href="#DejaVuSans-37" transform="translate(222.65625 0)"/>
       <use xlink:href="#DejaVuSans-35" transform="translate(286.279297 0)"/>
      </g>
     </g>
    </g>
    <g id="ytick_3">
     <g id="line2d_17">
      <path d="M 66.72125 209.195818 
L 637.2 209.195818 
" clip-path="url(#pe6917b9eab)" style="fill: none; stroke-dasharray: 0.5,0.825; stroke-dashoffset: 0; stroke: #b0b0b0; stroke-opacity: 0.6; stroke-width: 0.5"/>
     </g>
     <g id="line2d_18">
      <g>
       <use xlink:href="#m1216df630c" x="66.72125" y="209.195818" style="stroke: #000000; stroke-width: 0.8"/>
      </g>
     </g>
     <g id="text_10">
      <!-- 0.0100 -->
      <g transform="translate(24.730625 212.995036) scale(0.1 -0.1)">
       <use xlink:href="#DejaVuSans-30"/>
       <use xlink:href="#DejaVuSans-2e" transform="translate(63.623047 0)"/>
       <use xlink:href="#DejaVuSans-30" transform="translate(95.410156 0)"/>
       <use xlink:href="#DejaVuSans-31" transform="translate(159.033203 0)"/>
       <use xlink:href="#DejaVuSans-30" transform="translate(222.65625 0)"/>
       <use xlink:href="#DejaVuSans-30" transform="translate(286.279297 0)"/>
      </g>
     </g>
    </g>
    <g id="ytick_4">
     <g id="line2d_19">
      <path d="M 66.72125 174.5475 
L 637.2 174.5475 
" clip-path="url(#pe6917b9eab)" style="fill: none; stroke-dasharray: 0.5,0.825; stroke-dashoffset: 0; stroke: #b0b0b0; stroke-opacity: 0.6; stroke-width: 0.5"/>
     </g>
     <g id="line2d_20">
      <g>
       <use xlink:href="#m1216df630c" x="66.72125" y="174.5475" style="stroke: #000000; stroke-width: 0.8"/>
      </g>
     </g>
     <g id="text_11">
      <!-- 0.0125 -->
      <g transform="translate(24.730625 178.346719) scale(0.1 -0.1)">
       <use xlink:href="#DejaVuSans-30"/>
       <use xlink:href="#DejaVuSans-2e" transform="translate(63.623047 0)"/>
       <use xlink:href="#DejaVuSans-30" transform="translate(95.410156 0)"/>
       <use xlink:href="#DejaVuSans-31" transform="translate(159.033203 0)"/>
       <use xlink:href="#DejaVuSans-32" transform="translate(222.65625 0)"/>
       <use xlink:href="#DejaVuSans-35" transform="translate(286.279297 0)"/>
      </g>
     </g>
    </g>
    <g id="ytick_5">
     <g id="line2d_21">
      <path d="M 66.72125 139.899182 
L 637.2 139.899182 
" clip-path="url(#pe6917b9eab)" style="fill: none; stroke-dasharray: 0.5,0.825; stroke-dashoffset: 0; stroke: #b0b0b0; stroke-opacity: 0.6; stroke-width: 0.5"/>
     </g>
     <g id="line2d_22">
      <g>
       <use xlink:href="#m1216df630c" x="66.72125" y="139.899182" style="stroke: #000000; stroke-width: 0.8"/>
      </g>
     </g>
     <g id="text_12">
      <!-- 0.0150 -->
      <g transform="translate(24.730625 143.698401) scale(0.1 -0.1)">
       <use xlink:href="#DejaVuSans-30"/>
       <use xlink:href="#DejaVuSans-2e" transform="translate(63.623047 0)"/>
       <use xlink:href="#DejaVuSans-30" transform="translate(95.410156 0)"/>
       <use xlink:href="#DejaVuSans-31" transform="translate(159.033203 0)"/>
       <use xlink:href="#DejaVuSans-35" transform="translate(222.65625 0)"/>
       <use xlink:href="#DejaVuSans-30" transform="translate(286.279297 0)"/>
      </g>
     </g>
    </g>
    <g id="ytick_6">
     <g id="line2d_23">
      <path d="M 66.72125 105.250864 
L 637.2 105.250864 
" clip-path="url(#pe6917b9eab)" style="fill: none; stroke-dasharray: 0.5,0.825; stroke-dashoffset: 0; stroke: #b0b0b0; stroke-opacity: 0.6; stroke-width: 0.5"/>
     </g>
     <g id="line2d_24">
      <g>
       <use xlink:href="#m1216df630c" x="66.72125" y="105.250864" style="stroke: #000000; stroke-width: 0.8"/>
      </g>
     </g>
     <g id="text_13">
      <!-- 0.0175 -->
      <g transform="translate(24.730625 109.050083) scale(0.1 -0.1)">
       <use xlink:href="#DejaVuSans-30"/>
       <use xlink:href="#DejaVuSans-2e" transform="translate(63.623047 0)"/>
       <use xlink:href="#DejaVuSans-30" transform="translate(95.410156 0)"/>
       <use xlink:href="#DejaVuSans-31" transform="translate(159.033203 0)"/>
       <use xlink:href="#DejaVuSans-37" transform="translate(222.65625 0)"/>
       <use xlink:href="#DejaVuSans-35" transform="translate(286.279297 0)"/>
      </g>
     </g>
    </g>
    <g id="ytick_7">
     <g id="line2d_25">
      <path d="M 66.72125 70.602546 
L 637.2 70.602546 
" clip-path="url(#pe6917b9eab)" style="fill: none; stroke-dasharray: 0.5,0.825; stroke-dashoffset: 0; stroke: #b0b0b0; stroke-opacity: 0.6; stroke-width: 0.5"/>
     </g>
     <g id="line2d_26">
      <g>
       <use xlink:href="#m1216df630c" x="66.72125" y="70.602546" style="stroke: #000000; stroke-width: 0.8"/>
      </g>
     </g>
     <g id="text_14">
      <!-- 0.0200 -->
      <g transform="translate(24.730625 74.401765) scale(0.1 -0.1)">
       <use xlink:href="#DejaVuSans-30"/>
       <use xlink:href="#DejaVuSans-2e" transform="translate(63.623047 0)"/>
       <use xlink:href="#DejaVuSans-30" transform="translate(95.410156 0)"/>
       <use xlink:href="#DejaVuSans-32" transform="translate(159.033203 0)"/>
       <use xlink:href="#DejaVuSans-30" transform="translate(222.65625 0)"/>
       <use xlink:href="#DejaVuSans-30" transform="translate(286.279297 0)"/>
      </g>
     </g>
    </g>
    <g id="ytick_8">
     <g id="line2d_27">
      <path d="M 66.72125 35.954229 
L 637.2 35.954229 
" clip-path="url(#pe6917b9eab)" style="fill: none; stroke-dasharray: 0.5,0.825; stroke-dashoffset: 0; stroke: #b0b0b0; stroke-opacity: 0.6; stroke-width: 0.5"/>
     </g>
     <g id="line2d_28">
      <g>
       <use xlink:href="#m1216df630c" x="66.72125" y="35.954229" style="stroke: #000000; stroke-width: 0.8"/>
      </g>
     </g>
     <g id="text_15">
      <!-- 0.0225 -->
      <g transform="translate(24.730625 39.753447) scale(0.1 -0.1)">
       <use xlink:href="#DejaVuSans-30"/>
       <use xlink:href="#DejaVuSans-2e" transform="translate(63.623047 0)"/>
       <use xlink:href="#DejaVuSans-30" transform="translate(95.410156 0)"/>
       <use xlink:href="#DejaVuSans-32" transform="translate(159.033203 0)"/>
       <use xlink:href="#DejaVuSans-32" transform="translate(222.65625 0)"/>
       <use xlink:href="#DejaVuSans-35" transform="translate(286.279297 0)"/>
      </g>
     </g>
    </g>
    <g id="text_16">
     <!-- Running mean of efficiency_gap -->
     <g transform="translate(18.372813 234.704531) rotate(-90) scale(0.1 -0.1)">
      <defs>
       <path id="DejaVuSans-52" d="M 2841 2188 
Q 3044 2119 3236 1894 
Q 3428 1669 3622 1275 
L 4263 0 
L 3584 0 
L 2988 1197 
Q 2756 1666 2539 1819 
Q 2322 1972 1947 1972 
L 1259 1972 
L 1259 0 
L 628 0 
L 628 4666 
L 2053 4666 
Q 2853 4666 3247 4331 
Q 3641 3997 3641 3322 
Q 3641 2881 3436 2590 
Q 3231 2300 2841 2188 
z
M 1259 4147 
L 1259 2491 
L 2053 2491 
Q 2509 2491 2742 2702 
Q 2975 2913 2975 3322 
Q 2975 3731 2742 3939 
Q 2509 4147 2053 4147 
L 1259 4147 
z
" transform="scale(0.015625)"/>
       <path id="DejaVuSans-75" d="M 544 1381 
L 544 3500 
L 1119 3500 
L 1119 1403 
Q 1119 906 1312 657 
Q 1506 409 1894 409 
Q 2359 409 2629 706 
Q 2900 1003 2900 1516 
L 2900 3500 
L 3475 3500 
L 3475 0 
L 2900 0 
L 2900 538 
Q 2691 219 2414 64 
Q 2138 -91 1772 -91 
Q 1169 -91 856 284 
Q 544 659 544 1381 
z
M 1991 3584 
L 1991 3584 
z
" transform="scale(0.015625)"/>
       <path id="DejaVuSans-67" d="M 2906 1791 
Q 2906 2416 2648 2759 
Q 2391 3103 1925 3103 
Q 1463 3103 1205 2759 
Q 947 2416 947 1791 
Q 947 1169 1205 825 
Q 1463 481 1925 481 
Q 2391 481 2648 825 
Q 2906 1169 2906 1791 
z
M 3481 434 
Q 3481 -459 3084 -895 
Q 2688 -1331 1869 -1331 
Q 1566 -1331 1297 -1286 
Q 1028 -1241 775 -1147 
L 775 -588 
Q 1028 -725 1275 -790 
Q 1522 -856 1778 -856 
Q 2344 -856 2625 -561 
Q 2906 -266 2906 331 
L 2906 616 
Q 2728 306 2450 153 
Q 2172 0 1784 0 
Q 1141 0 747 490 
Q 353 981 353 1791 
Q 353 2603 747 3093 
Q 1141 3584 1784 3584 
Q 2172 3584 2450 3431 
Q 2728 3278 2906 2969 
L 2906 3500 
L 3481 3500 
L 3481 434 
z
" transform="scale(0.015625)"/>
       <path id="DejaVuSans-6f" d="M 1959 3097 
Q 1497 3097 1228 2736 
Q 959 2375 959 1747 
Q 959 1119 1226 758 
Q 1494 397 1959 397 
Q 2419 397 2687 759 
Q 2956 1122 2956 1747 
Q 2956 2369 2687 2733 
Q 2419 3097 1959 3097 
z
M 1959 3584 
Q 2709 3584 3137 3096 
Q 3566 2609 3566 1747 
Q 3566 888 3137 398 
Q 2709 -91 1959 -91 
Q 1206 -91 779 398 
Q 353 888 353 1747 
Q 353 2609 779 3096 
Q 1206 3584 1959 3584 
z
" transform="scale(0.015625)"/>
       <path id="DejaVuSans-66" d="M 2375 4863 
L 2375 4384 
L 1825 4384 
Q 1516 4384 1395 4259 
Q 1275 4134 1275 3809 
L 1275 3500 
L 2222 3500 
L 2222 3053 
L 1275 3053 
L 1275 0 
L 697 0 
L 697 3053 
L 147 3053 
L 147 3500 
L 697 3500 
L 697 3744 
Q 697 4328 969 4595 
Q 1241 4863 1831 4863 
L 2375 4863 
z
" transform="scale(0.015625)"/>
       <path id="DejaVuSans-63" d="M 3122 3366 
L 3122 2828 
Q 2878 2963 2633 3030 
Q 2388 3097 2138 3097 
Q 1578 3097 1268 2742 
Q 959 2388 959 1747 
Q 959 1106 1268 751 
Q 1578 397 2138 397 
Q 2388 397 2633 464 
Q 2878 531 3122 666 
L 3122 134 
Q 2881 22 2623 -34 
Q 2366 -91 2075 -91 
Q 1284 -91 818 406 
Q 353 903 353 1747 
Q 353 2603 823 3093 
Q 1294 3584 2113 3584 
Q 2378 3584 2631 3529 
Q 2884 3475 3122 3366 
z
" transform="scale(0.015625)"/>
       <path id="DejaVuSans-79" d="M 2059 -325 
Q 1816 -950 1584 -1140 
Q 1353 -1331 966 -1331 
L 506 -1331 
L 506 -850 
L 844 -850 
Q 1081 -850 1212 -737 
Q 1344 -625 1503 -206 
L 1606 56 
L 191 3500 
L 800 3500 
L 1894 763 
L 2988 3500 
L 3597 3500 
L 2059 -325 
z
" transform="scale(0.015625)"/>
       <path id="DejaVuSans-5f" d="M 3263 -1063 
L 3263 -1509 
L -63 -1509 
L -63 -1063 
L 3263 -1063 
z
" transform="scale(0.015625)"/>
      </defs>
      <use xlink:href="#DejaVuSans-52"/>
      <use xlink:href="#DejaVuSans-75" transform="translate(64.982422 0)"/>
      <use xlink:href="#DejaVuSans-6e" transform="translate(128.361328 0)"/>
      <use xlink:href="#DejaVuSans-6e" transform="translate(191.740234 0)"/>
      <use xlink:href="#DejaVuSans-69" transform="translate(255.119141 0)"/>
      <use xlink:href="#DejaVuSans-6e" transform="translate(282.902344 0)"/>
      <use xlink:href="#DejaVuSans-67" transform="translate(346.28125 0)"/>
      <use xlink:href="#DejaVuSans-20" transform="translate(409.757812 0)"/>
      <use xlink:href="#DejaVuSans-6d" transform="translate(441.544922 0)"/>
      <use xlink:href="#DejaVuSans-65" transform="translate(538.957031 0)"/>
      <use xlink:href="#DejaVuSans-61" transform="translate(600.480469 0)"/>
      <use xlink:href="#DejaVuSans-6e" transform="translate(661.759766 0)"/>
      <use xlink:href="#DejaVuSans-20" transform="translate(725.138672 0)"/>
      <use xlink:href="#DejaVuSans-6f" transform="translate(756.925781 0)"/>
      <use xlink:href="#DejaVuSans-66" transform="translate(818.107422 0)"/>
      <use xlink:href="#DejaVuSans-20" transform="translate(853.3125 0)"/>
      <use xlink:href="#DejaVuSans-65" transform="translate(885.099609 0)"/>
      <use xlink:href="#DejaVuSans-66" transform="translate(946.623047 0)"/>
      <use xlink:href="#DejaVuSans-66" transform="translate(981.828125 0)"/>
      <use xlink:href="#DejaVuSans-69" transform="translate(1017.033203 0)"/>
      <use xlink:href="#DejaVuSans-63" transform="translate(1044.816406 0)"/>
      <use xlink:href="#DejaVuSans-69" transform="translate(1099.796875 0)"/>
      <use xlink:href="#DejaVuSans-65" transform="translate(1127.580078 0)"/>
      <use xlink:href="#DejaVuSans-6e" transform="translate(1189.103516 0)"/>
      <use xlink:href="#DejaVuSans-63" transform="translate(1252.482422 0)"/>
      <use xlink:href="#DejaVuSans-79" transform="translate(1307.462891 0)"/>
      <use xlink:href="#DejaVuSans-5f" transform="translate(1366.642578 0)"/>
      <use xlink:href="#DejaVuSans-67" transform="translate(1416.642578 0)"/>
      <use xlink:href="#DejaVuSans-61" transform="translate(1480.119141 0)"/>
      <use xlink:href="#DejaVuSans-70" transform="translate(1541.398438 0)"/>
     </g>
    </g>
   </g>
   <g id="line2d_29">
    <path d="M 92.652102 69.366021 
L 92.672847 69.366021 
L 92.797318 62.050636 
L 92.818063 64.383917 
L 93.025514 74.206227 
L 93.21222 70.243446 
L 93.232965 77.257361 
L 93.326318 74.924333 
L 93.554514 66.937743 
L 93.948671 54.198789 
L 94.529534 38.478182 
L 94.581396 41.454312 
L 95.027416 64.15492 
L 95.348965 82.294725 
L 95.992063 127.415751 
L 96.635161 159.907688 
L 96.759631 159.477911 
L 96.801122 159.340368 
L 96.811494 159.66052 
L 97.008573 165.440313 
L 97.091553 165.139809 
L 97.278259 164.770529 
L 97.506455 164.506534 
L 97.807259 166.404787 
L 98.574827 197.278699 
L 98.5852 197.046133 
L 99.000102 187.931942 
L 99.041592 188.876368 
L 99.6432 208.73219 
L 99.923259 211.452683 
L 100.390023 223.778895 
L 100.473004 223.058798 
L 100.836043 217.071991 
L 101.084984 214.355936 
L 101.468768 207.362677 
L 101.624357 206.063907 
L 101.686592 206.297262 
L 102.205219 208.628366 
L 102.37118 209.663106 
L 102.41267 209.293145 
L 102.609749 207.453564 
L 102.651239 207.747023 
L 103.242474 217.005933 
L 103.42918 217.65641 
L 103.449925 217.495277 
L 103.91669 213.016909 
L 104.165631 209.568069 
L 104.684258 199.917029 
L 105.690396 191.749291 
L 105.897847 189.101301 
L 106.395729 181.701341 
L 106.478709 180.968363 
L 106.717278 178.828777 
L 106.769141 178.532236 
L 106.810631 178.814957 
L 107.391493 183.461286 
L 107.630062 188.850144 
L 108.065709 196.744281 
L 108.418376 197.798719 
L 108.895513 199.988014 
L 109.28967 206.730078 
L 109.787552 219.92479 
L 110.181709 228.953868 
L 110.378787 229.964708 
L 110.409905 230.097103 
L 110.451395 229.837686 
L 110.617356 228.531869 
L 110.721082 228.933042 
L 110.970023 232.728044 
L 111.499023 241.78122 
L 111.519768 241.621539 
L 111.779081 239.980909 
L 111.841317 239.834987 
L 111.872434 240.032465 
L 112.50516 243.339727 
L 112.62963 244.083787 
L 112.743728 243.982666 
L 112.951179 243.810407 
L 113.023787 243.515981 
L 113.07565 243.695144 
L 113.314219 244.821444 
L 113.946944 251.092404 
L 113.988434 251.017127 
L 114.227003 250.567211 
L 114.268493 250.712225 
L 114.797493 252.913612 
L 115.658415 261.483054 
L 115.710277 262.042951 
L 115.793258 261.91306 
L 116.177042 261.471758 
L 116.425983 261.47888 
L 116.457101 261.560794 
L 116.726787 262.785703 
L 116.789022 263.167345 
L 117.369885 267.804095 
L 117.525473 268.468086 
L 117.898885 270.441818 
L 117.91963 270.389499 
L 118.344905 269.498763 
L 118.355277 269.533502 
L 118.500493 270.016921 
L 118.552356 269.872773 
L 118.707944 268.967497 
L 119.029493 267.071887 
L 119.143591 266.840787 
L 119.651846 265.249862 
L 120.533512 257.792691 
L 120.637238 257.506027 
L 123.022924 240.231156 
L 123.085159 240.064976 
L 123.137022 240.204025 
L 123.500061 241.886528 
L 123.531179 241.760394 
L 123.717885 240.561159 
L 123.956453 239.365153 
L 124.26763 238.173582 
L 124.35061 238.247365 
L 124.423218 238.511222 
L 124.475081 238.395577 
L 124.641041 237.775705 
L 124.869237 235.687482 
L 126.207296 223.182561 
L 126.476982 221.811371 
L 127.732061 216.722847 
L 128.261061 214.552675 
L 128.551492 214.495586 
L 129.059747 212.785286 
L 129.6821 206.803565 
L 130.978668 195.002866 
L 131.258727 193.773023 
L 131.476551 193.513315 
L 132.513806 189.854266 
L 133.405845 186.746898 
L 133.789629 186.710951 
L 134.194158 185.299692 
L 134.318629 185.43648 
L 134.453472 185.711879 
L 134.785394 186.644049 
L 135.034335 186.599067 
L 135.345511 185.616789 
L 135.428492 185.674121 
L 135.511472 185.891876 
L 135.967864 187.383531 
L 136.185688 186.300659 
L 137.471884 178.318477 
L 137.534119 178.162108 
L 137.617099 178.236057 
L 138.197962 178.604375 
L 138.654354 179.124073 
L 139.090001 180.834815 
L 139.204099 181.436394 
L 139.276707 181.411968 
L 139.826452 181.161213 
L 139.909433 180.851672 
L 139.992413 180.954795 
L 140.313962 181.318112 
L 140.334707 181.261046 
L 141.019295 179.700529 
L 141.237119 179.276942 
L 141.278609 179.44365 
L 141.56904 180.314424 
L 141.703883 180.328506 
L 141.766119 180.205636 
L 142.025432 179.683497 
L 142.481825 179.275326 
L 142.761883 178.622637 
L 143.176785 177.274528 
L 143.19753 177.234523 
L 143.259766 177.35536 
L 143.425726 177.676144 
L 143.477589 177.563081 
L 144.048079 176.38822 
L 144.110315 176.440284 
L 144.286648 176.565489 
L 144.317766 176.491925 
L 144.877883 175.487921 
L 145.240922 175.537462 
L 145.811413 174.081687 
L 145.904766 174.20896 
L 146.153707 174.53109 
L 146.184824 174.450305 
L 146.661962 173.515554 
L 147.107981 173.05273 
L 147.616236 173.221405 
L 147.688844 173.329304 
L 148.684609 176.152014 
L 149.306961 176.349094 
L 150.209373 179.474777 
L 151.039177 182.185333 
L 152.709157 186.855974 
L 152.885491 187.045726 
L 153.310765 187.530996 
L 153.538961 187.727883 
L 153.580451 187.627598 
L 153.787902 187.115362 
L 153.86051 187.208357 
L 154.679941 190.143448 
L 155.250432 193.157883 
L 155.789804 195.058565 
L 156.339549 195.194755 
L 156.95153 196.845798 
L 157.169353 196.965045 
L 157.781333 198.569651 
L 158.102882 198.613491 
L 158.559275 198.480844 
L 160.063294 198.254573 
L 160.239627 198.173658 
L 160.343353 197.952796 
L 160.426333 198.008318 
L 160.976078 198.243449 
L 162.500843 198.133399 
L 163.320274 196.515478 
L 164.544235 194.642155 
L 165.301431 193.851774 
L 166.317941 192.817386 
L 166.743215 191.743168 
L 167.230725 191.361832 
L 167.303333 191.420613 
L 167.355196 191.337664 
L 167.770097 190.47872 
L 168.143509 189.50489 
L 168.599901 188.753109 
L 168.703627 188.865507 
L 168.911078 189.233443 
L 169.180764 190.468069 
L 169.533431 191.600144 
L 170.415097 193.899523 
L 170.435842 193.865576 
L 170.881862 193.048566 
L 171.462725 192.722137 
L 171.773901 193.047162 
L 172.157685 193.587669 
L 172.219921 193.482286 
L 172.240666 193.443589 
L 172.323646 193.515394 
L 173.392019 194.089974 
L 174.304803 192.698011 
L 174.615979 192.309505 
L 174.864921 192.153124 
L 175.26945 191.305957 
L 175.518391 191.059125 
L 176.088881 191.051826 
L 176.659371 190.230527 
L 177.115764 190.100458 
L 177.717371 188.297574 
L 178.609411 187.410322 
L 179.874861 187.571358 
L 180.756528 186.328218 
L 181.949371 186.850082 
L 183.297802 185.310394 
L 183.691959 185.263355 
L 184.169096 185.185334 
L 184.615116 185.648569 
L 185.206351 185.711959 
L 185.662743 185.934474 
L 186.0569 186.247843 
L 187.789116 189.191271 
L 188.038057 189.215615 
L 188.401096 188.903767 
L 188.774508 188.969593 
L 189.251645 188.415665 
L 189.427978 188.133746 
L 190.112567 186.999696 
L 190.485978 186.572595 
L 190.672684 186.652168 
L 191.357272 187.22119 
L 191.824037 186.916695 
L 192.48788 187.166888 
L 193.348802 186.959529 
L 193.670351 187.018803 
L 194.168233 186.507346 
L 194.47941 186.02917 
L 194.966919 185.176971 
L 195.66188 184.911236 
L 195.807096 185.060838 
L 196.211625 185.947999 
L 196.885841 187.974961 
L 197.186645 189.087727 
L 197.881605 191.130759 
L 198.763272 192.657832 
L 198.887743 192.574989 
L 200.941507 188.962696 
L 201.698703 188.243495 
L 201.906154 188.558457 
L 201.978762 188.617208 
L 202.030625 188.572392 
L 202.445527 188.040656 
L 202.746331 187.472212 
L 203.347938 187.055045 
L 203.430919 187.201046 
L 203.617625 187.538044 
L 203.669487 187.493657 
L 203.793958 187.516034 
L 203.991036 187.789369 
L 205.069781 189.71227 
L 205.495056 189.205734 
L 206.97833 186.510213 
L 207.196154 186.167122 
L 207.569566 185.686092 
L 208.140056 185.278888 
L 208.233409 185.417166 
L 208.762409 187.022301 
L 209.073585 187.52754 
L 209.09433 187.511048 
L 209.332899 187.191173 
L 209.758173 186.509164 
L 210.100467 186.449672 
L 210.173075 186.383892 
L 211.189585 185.036025 
L 211.770448 183.164915 
L 212.361683 182.211574 
L 212.372055 182.219271 
L 213.471546 182.910618 
L 213.793095 182.777986 
L 214.747369 183.299984 
L 215.276369 183.999274 
L 215.815742 184.148643 
L 216.158036 183.880682 
L 216.344741 183.784174 
L 217.018957 182.446978 
L 217.672428 181.488103 
L 218.274035 180.031799 
L 218.813408 178.609269 
L 219.570604 177.774377 
L 219.902526 177.922367 
L 220.41078 178.288328 
L 221.022761 178.262346 
L 221.510271 178.052032 
L 221.9148 177.194419 
L 222.599388 175.083331 
L 222.993545 174.25261 
L 223.273604 173.979105 
L 223.647016 174.380029 
L 223.98931 174.815974 
L 224.269368 175.067608 
L 224.5598 175.357985 
L 225.099172 175.01595 
L 225.6178 174.300546 
L 225.763015 174.347793 
L 226.136427 174.391307 
L 226.364623 174.226888 
L 226.509839 174.292898 
L 227.059584 174.615235 
L 227.806407 175.50702 
L 228.490996 176.580201 
L 229.019996 176.294758 
L 229.694211 175.441594 
L 229.829054 175.207085 
L 230.347682 174.444821 
L 231.499035 174.285499 
L 231.60276 174.119789 
L 231.986544 173.677225 
L 232.09027 173.529295 
L 233.573544 171.40196 
L 234.807878 170.700041 
L 235.160544 170.428426 
L 235.38874 170.509926 
L 235.616936 170.613015 
L 236.89276 171.959831 
L 238.448642 173.118908 
L 239.268073 172.761919 
L 239.568877 172.839688 
L 240.139367 172.767479 
L 241.86121 171.918237 
L 242.639152 171.941651 
L 242.825857 171.920578 
L 244.060191 173.032715 
L 244.205406 172.912396 
L 244.392112 172.601943 
L 244.755151 172.161016 
L 245.118191 172.293143 
L 245.325642 172.395788 
L 245.533093 172.575622 
L 245.958367 172.902487 
L 246.435504 173.136313 
L 248.074367 175.35847 
L 248.354426 175.750048 
L 248.707092 176.255917 
L 249.090877 177.088447 
L 250.553406 180.994051 
L 251.175759 182.169657 
L 251.673641 182.518501 
L 251.943327 182.775702 
L 252.773131 184.005518 
L 253.271014 184.106451 
L 253.457719 184.107136 
L 253.997092 183.71931 
L 254.308268 183.579054 
L 255.397386 183.157423 
L 256.154582 183.058046 
L 256.849543 182.545799 
L 257.482268 182.755919 
L 257.762327 182.740223 
L 258.38468 183.048244 
L 258.664739 183.32531 
L 258.91368 183.151353 
L 259.172994 183.03465 
L 259.432307 183.332921 
L 259.982052 184.030039 
L 260.687386 184.688501 
L 262.481837 186.997898 
L 262.512954 186.961497 
L 264.276287 183.469339 
L 264.545974 183.107396 
L 264.722307 183.199317 
L 265.552111 183.884074 
L 265.614346 183.770739 
L 266.164091 182.986979 
L 267.325817 183.1015 
L 267.533268 183.135442 
L 268.757228 182.874994 
L 270.199013 182.505972 
L 270.437581 182.294079 
L 270.852483 181.734867 
L 271.495581 180.855969 
L 272.014209 180.897243 
L 272.397993 181.386252 
L 272.595071 181.463019 
L 273.819032 180.703316 
L 274.825169 180.663547 
L 275.125973 180.728459 
L 275.810561 181.473322 
L 276.194346 181.95957 
L 276.401796 182.034397 
L 276.567757 181.920232 
L 277.376816 181.094042 
L 277.978424 180.063825 
L 278.548914 178.989254 
L 278.870463 178.391763 
L 279.378718 177.209785 
L 280.561188 176.295178 
L 280.944973 175.685297 
L 281.214659 175.328364 
L 282.137816 174.122 
L 282.812031 173.406736 
L 282.957247 173.382894 
L 283.309914 173.269482 
L 283.5796 173.15919 
L 284.440521 173.262398 
L 284.668718 173.329706 
L 285.342933 173.537039 
L 285.633365 173.788757 
L 285.768208 173.756823 
L 285.986031 173.518639 
L 286.30758 173.281852 
L 286.867698 173.79568 
L 287.552286 174.839106 
L 288.278364 176.939122 
L 288.620658 177.178464 
L 288.807364 177.38752 
L 289.325992 177.829964 
L 289.761639 178.139917 
L 289.937972 178.47317 
L 290.809266 180.480676 
L 291.234541 180.821084 
L 291.68056 180.819078 
L 291.970992 180.699176 
L 292.230305 180.626914 
L 293.495756 178.93296 
L 294.149227 178.729536 
L 295.756972 179.053886 
L 296.337834 178.430441 
L 296.597148 178.19978 
L 296.783854 178.210161 
L 297.032795 178.121774 
L 298.484952 176.713431 
L 298.858364 176.796062 
L 299.553324 177.197024 
L 300.611324 176.175203 
L 301.430756 176.080714 
L 302.084226 176.49031 
L 302.582109 176.823655 
L 302.799932 177.013108 
L 302.99701 177.114319 
L 303.007383 177.103017 
L 304.324697 175.672824 
L 305.050775 175.164926 
L 305.652383 175.058533 
L 306.502932 174.354384 
L 306.948951 174.184526 
L 307.789128 174.673519 
L 308.650049 174.914585 
L 308.836755 174.890233 
L 309.34501 174.649456 
L 310.340775 173.687676 
L 311.035735 173.445432 
L 311.54399 173.472847 
L 312.104108 173.162597 
L 313.338441 173.406671 
L 315.195127 171.707763 
L 315.796735 171.292156 
L 316.315363 171.346166 
L 317.186657 172.251325 
L 317.456343 172.42583 
L 317.881617 172.271853 
L 318.555833 171.535182 
L 319.396009 170.672963 
L 320.505872 169.55669 
L 320.765186 169.519912 
L 321.906166 168.124483 
L 322.217343 168.004593 
L 322.756715 167.451527 
L 322.964166 167.355002 
L 324.686009 166.107001 
L 325.246127 165.544902 
L 325.86848 165.721716 
L 326.324872 165.570592 
L 326.916107 165.429137 
L 327.600695 165.027893 
L 328.326774 165.086018 
L 328.918009 164.94958 
L 329.747813 164.86082 
L 330.847303 165.18539 
L 331.614871 165.628545 
L 331.93642 165.72284 
L 333.170754 166.153536 
L 333.647891 165.242032 
L 334.405087 163.922236 
L 335.338616 162.86263 
L 336.064695 162.312003 
L 336.676675 161.785097 
L 337.22642 161.788871 
L 337.869518 162.204497 
L 338.419263 162.325038 
L 338.917145 162.293743 
L 339.539498 162.386757 
L 340.037381 162.028898 
L 340.40042 161.983527 
L 341.593263 161.727212 
L 341.914812 161.841044 
L 342.194871 161.759833 
L 342.817224 161.534174 
L 343.605537 161.299016 
L 343.885596 160.943328 
L 344.093047 160.853435 
L 344.424969 160.921871 
L 345.638557 160.980627 
L 346.42687 161.269398 
L 346.540968 161.412557 
L 347.308537 162.339757 
L 347.754557 162.492774 
L 349.07187 163.418076 
L 350.326949 163.274856 
L 351.281223 162.205783 
L 351.623517 162.043693 
L 351.955439 161.767531 
L 351.996929 161.871297 
L 352.619282 163.139369 
L 353.117164 163.631058 
L 353.863988 163.869572 
L 354.175164 163.943019 
L 354.610811 164.35271 
L 355.305772 165.148774 
L 355.482105 165.35463 
L 355.886635 165.690426 
L 356.913517 166.177595 
L 357.359536 166.318343 
L 357.847046 166.28017 
L 358.23083 165.981551 
L 359.434046 164.794416 
L 359.682987 164.971638 
L 360.315713 165.439116 
L 361.581164 165.41141 
L 362.919222 165.106067 
L 363.489713 164.830878 
L 363.800889 164.662833 
L 364.122438 164.537424 
L 364.423242 164.35128 
L 365.014477 164.043099 
L 365.253046 164.186415 
L 366.24881 164.769323 
L 366.559987 164.710562 
L 366.840046 164.716354 
L 367.109732 164.64564 
L 367.410536 164.326094 
L 367.856555 163.925812 
L 368.084751 163.945354 
L 368.395928 163.929445 
L 369.173869 163.378682 
L 369.651006 163.094337 
L 370.221496 162.907765 
L 370.989065 162.470099 
L 371.238006 162.540972 
L 372.347869 162.906804 
L 373.333261 162.623825 
L 373.675555 162.673322 
L 374.090457 162.814456 
L 374.505359 162.719282 
L 375.314418 162.921266 
L 375.552986 162.919128 
L 376.413908 162.466109 
L 377.783084 162.194904 
L 378.197986 161.77724 
L 378.4573 161.594228 
L 379.214496 161.125821 
L 379.888711 161.263983 
L 380.282868 161.208837 
L 381.299378 160.654462 
L 381.828378 160.001218 
L 383.861397 158.793507 
L 384.162201 158.535551 
L 385.427652 157.090527 
L 385.811437 156.713923 
L 386.859064 156.153014 
L 387.12875 155.883447 
L 387.491789 155.505649 
L 387.69924 155.444171 
L 388.124515 155.125445 
L 390.209397 153.218955 
L 390.437593 153.038483 
L 390.728024 152.797668 
L 391.153299 152.515796 
L 392.480985 151.304023 
L 392.833652 151.220888 
L 393.60122 151.157655 
L 394.545122 151.572056 
L 395.157103 151.513703 
L 395.737965 151.373539 
L 397.024161 151.353664 
L 398.248122 150.99236 
L 398.569671 150.894445 
L 399.741769 150.776559 
L 400.768651 150.860332 
L 401.463612 150.889675 
L 401.899259 151.057258 
L 403.175083 151.380333 
L 403.413651 151.406378 
L 403.984141 151.330214 
L 404.440533 151.252735 
L 405.083631 151.210049 
L 405.519278 151.155711 
L 406.328337 151.198175 
L 406.681004 150.976028 
L 407.116651 150.707483 
L 407.759749 150.644091 
L 408.112416 150.596358 
L 409.201533 150.664728 
L 410.0832 150.727696 
L 410.923376 151.236371 
L 411.30716 151.511796 
L 412.261435 151.707568 
L 412.603729 151.756804 
L 413.775827 151.159232 
L 414.533023 150.54565 
L 414.875317 150.658082 
L 415.310964 150.893347 
L 415.601395 150.921929 
L 417.717395 150.72037 
L 418.308631 150.608228 
L 419.408121 150.808987 
L 420.310532 151.574098 
L 421.171454 151.784994 
L 421.627846 151.842652 
L 421.949395 151.953406 
L 423.401552 151.818074 
L 423.785336 151.909582 
L 424.53216 151.825433 
L 425.258238 151.486159 
L 426.440708 151.367257 
L 427.208277 151.38354 
L 427.529826 151.408447 
L 427.83063 151.471795 
L 428.204042 151.52653 
L 428.598199 151.30757 
L 429.002728 151.198809 
L 429.262042 151.052229 
L 429.531728 150.908083 
L 431.523257 150.051255 
L 432.02114 149.864592 
L 432.923551 149.986948 
L 433.670375 150.189006 
L 434.354963 149.804163 
L 435.081041 149.256893 
L 435.350728 149.26827 
L 436.190904 149.106173 
L 437.850512 149.051029 
L 438.815159 148.630522 
L 439.5931 147.882953 
L 441.615747 146.419427 
L 442.186237 146.24471 
L 442.995296 145.823629 
L 444.022178 145.3382 
L 445.287629 143.897898 
L 445.889237 143.348239 
L 447.196178 141.962674 
L 447.745923 141.563317 
L 449.156589 140.61939 
L 449.602609 140.60308 
L 450.38055 140.855206 
L 450.86806 140.969539 
L 451.199981 140.989043 
L 451.801589 141.133838 
L 452.237236 141.096065 
L 453.046295 141.251494 
L 453.51306 141.549202 
L 453.824236 141.708034 
L 454.882236 142.453951 
L 455.463099 142.850668 
L 456.15806 143.377447 
L 456.821903 143.963891 
L 458.512628 145.692623 
L 459.166099 145.756976 
L 459.933667 146.184164 
L 460.141118 146.246079 
L 461.147255 146.305111 
L 461.479177 146.213974 
L 461.914824 146.166 
L 462.516432 145.867282 
L 463.346236 145.517181 
L 465.151059 144.089511 
L 465.555588 143.724655 
L 466.426882 143.322237 
L 466.696569 143.153024 
L 467.163333 142.655895 
L 467.640471 142.121369 
L 468.12798 141.826095 
L 469.071882 141.265412 
L 469.663118 141.389478 
L 470.928568 141.710909 
L 471.530176 142.130548 
L 471.70651 142.119724 
L 471.945078 142.150024 
L 472.411843 142.400528 
L 472.899353 142.654602 
L 474.839019 142.103851 
L 475.554725 142.293451 
L 476.508999 142.820865 
L 477.670725 143.868327 
L 479.454803 143.675457 
L 480.180882 143.932239 
L 480.678764 144.124895 
L 481.861234 144.463822 
L 482.525077 144.244018 
L 484.226175 142.708728 
L 485.22194 142.378297 
L 485.79243 142.038249 
L 486.559999 142.311989 
L 487.275705 143.190672 
L 488.032901 144.029939 
L 488.344077 144.145524 
L 489.039038 144.042519 
L 489.360587 144.118243 
L 489.723626 144.170257 
L 491.08243 144.657984 
L 492.026332 144.356972 
L 494.090469 143.57655 
L 494.588351 143.572589 
L 494.941018 143.660841 
L 495.449273 143.724534 
L 496.476155 144.171198 
L 496.94292 144.385881 
L 497.845331 144.458499 
L 498.944822 144.640372 
L 499.266371 144.716183 
L 500.521449 145.09533 
L 500.863743 145.17644 
L 501.21641 145.380944 
L 503.145704 146.136327 
L 503.633213 146.113384 
L 504.224449 145.668282 
L 505.417292 144.706244 
L 507.325841 143.329967 
L 508.166017 142.856261 
L 508.809115 142.597549 
L 509.638919 142.240623 
L 510.582821 142.116065 
L 512.159448 142.170616 
L 513.18633 141.920758 
L 514.586624 141.797138 
L 514.939291 141.68276 
L 515.333448 141.780332 
L 515.955801 141.916134 
L 516.453683 141.855518 
L 516.972311 141.967174 
L 518.051056 141.261603 
L 518.486703 141.203758 
L 519.544703 141.247301 
L 520.084075 141.377781 
L 521.494742 140.936061 
L 523.299565 139.707774 
L 523.787075 139.428279 
L 525.052526 139.071681 
L 527.531565 137.586632 
L 527.956839 137.35067 
L 529.128937 137.073213 
L 529.429741 137.006123 
L 530.020976 137.013831 
L 530.695192 137.070928 
L 532.510388 136.700436 
L 533.796584 136.961406 
L 534.958309 137.400184 
L 536.026682 137.18401 
L 536.721643 136.852545 
L 537.032819 136.815568 
L 537.76927 136.325189 
L 538.38125 135.992378 
L 539.625956 136.110142 
L 540.652838 135.938747 
L 541.088486 135.98166 
L 541.43078 136.156526 
L 541.856054 136.280132 
L 542.167231 136.238247 
L 543.557152 135.9996 
L 544.044662 136.151527 
L 545.818368 137.056578 
L 546.222897 137.269985 
L 546.907485 137.253538 
L 548.484113 138.222731 
L 549.137583 138.386149 
L 549.44876 138.282825 
L 549.988132 138.11396 
L 552.197485 138.172601 
L 555.122543 136.298477 
L 555.879739 135.908843 
L 557.228171 135.1528 
L 557.54972 135.096735 
L 557.943877 134.925998 
L 558.815171 134.245875 
L 559.147092 134.032182 
L 560.308818 133.39698 
L 561.169739 132.66469 
L 561.854327 132.066488 
L 563.482817 131.22062 
L 563.93921 131.232625 
L 564.5097 131.115232 
L 564.789759 131.075468 
L 565.132053 130.983331 
L 565.5677 130.784275 
L 565.837386 130.787526 
L 566.781288 130.889303 
L 569.92417 130.961285 
L 570.546523 131.214033 
L 571.220739 131.468956 
L 573.699778 130.709742 
L 574.996346 129.871977 
L 575.25566 129.808467 
L 576.427758 129.405385 
L 577.018993 129.260968 
L 578.108111 128.947782 
L 578.51264 128.69873 
L 579.12462 128.7594 
L 579.52915 128.709689 
L 581.499934 127.933153 
L 582.34011 128.186433 
L 582.931346 128.00551 
L 583.709287 127.60302 
L 584.155306 127.471351 
L 584.777659 127.535125 
L 585.358522 127.516413 
L 585.731934 127.57742 
L 586.198698 127.502799 
L 587.951659 127.150077 
L 588.314698 127.106581 
L 589.932816 126.54223 
L 590.223247 126.538773 
L 592.328874 126.105199 
L 592.660796 126.255328 
L 593.469855 126.572568 
L 594.953129 126.834019 
L 595.482129 126.709585 
L 596.654227 126.004604 
L 597.369933 125.714156 
L 597.981913 125.39376 
L 598.842835 124.983238 
L 599.268109 124.731377 
L 600.139403 124.099975 
L 600.896599 123.903597 
L 602.525089 124.074599 
L 604.298795 124.049682 
L 607.36907 124.758356 
L 609.630285 125.287913 
L 610.242265 125.456465 
L 611.269148 125.704442 
L 611.269148 125.704442 
" clip-path="url(#pe6917b9eab)" style="fill: none; stroke: #1f2937; stroke-linecap: square"/>
   </g>
   <g id="line2d_30">
    <path d="M 66.72125 125.704442 
L 637.2 125.704442 
" clip-path="url(#pe6917b9eab)" style="fill: none; stroke-dasharray: 2.96,1.28; stroke-dashoffset: 0; stroke: #888888; stroke-width: 0.8"/>
   </g>
   <g id="patch_3">
    <path d="M 66.72125 282.04 
L 66.72125 26.88 
" style="fill: none; stroke: #000000; stroke-width: 0.8; stroke-linejoin: miter; stroke-linecap: square"/>
   </g>
   <g id="patch_4">
    <path d="M 637.2 282.04 
L 637.2 26.88 
" style="fill: none; stroke: #000000; stroke-width: 0.8; stroke-linejoin: miter; stroke-linecap: square"/>
   </g>
   <g id="patch_5">
    <path d="M 66.72125 282.04 
L 637.2 282.04 
" style="fill: none; stroke: #000000; stroke-width: 0.8; stroke-linejoin: miter; stroke-linecap: square"/>
   </g>
   <g id="patch_6">
    <path d="M 66.72125 26.88 
L 637.2 26.88 
" style="fill: none; stroke: #000000; stroke-width: 0.8; stroke-linejoin: miter; stroke-linecap: square"/>
   </g>
   <g id="text_17">
    <!-- Running mean — efficiency_gap  (100k ReCom samples, seed 42) -->
    <g transform="translate(154.30375 20.88) scale(0.12 -0.12)">
     <defs>
      <path id="DejaVuSans-2014" d="M 313 1978 
L 6088 1978 
L 6088 1528 
L 313 1528 
L 313 1978 
z
" transform="scale(0.015625)"/>
      <path id="DejaVuSans-28" d="M 1984 4856 
Q 1566 4138 1362 3434 
Q 1159 2731 1159 2009 
Q 1159 1288 1364 580 
Q 1569 -128 1984 -844 
L 1484 -844 
Q 1016 -109 783 600 
Q 550 1309 550 2009 
Q 550 2706 781 3412 
Q 1013 4119 1484 4856 
L 1984 4856 
z
" transform="scale(0.015625)"/>
      <path id="DejaVuSans-6b" d="M 581 4863 
L 1159 4863 
L 1159 1991 
L 2875 3500 
L 3609 3500 
L 1753 1863 
L 3688 0 
L 2938 0 
L 1159 1709 
L 1159 0 
L 581 0 
L 581 4863 
z
" transform="scale(0.015625)"/>
      <path id="DejaVuSans-43" d="M 4122 4306 
L 4122 3641 
Q 3803 3938 3442 4084 
Q 3081 4231 2675 4231 
Q 1875 4231 1450 3742 
Q 1025 3253 1025 2328 
Q 1025 1406 1450 917 
Q 1875 428 2675 428 
Q 3081 428 3442 575 
Q 3803 722 4122 1019 
L 4122 359 
Q 3791 134 3420 21 
Q 3050 -91 2638 -91 
Q 1578 -91 968 557 
Q 359 1206 359 2328 
Q 359 3453 968 4101 
Q 1578 4750 2638 4750 
Q 3056 4750 3426 4639 
Q 3797 4528 4122 4306 
z
" transform="scale(0.015625)"/>
      <path id="DejaVuSans-73" d="M 2834 3397 
L 2834 2853 
Q 2591 2978 2328 3040 
Q 2066 3103 1784 3103 
Q 1356 3103 1142 2972 
Q 928 2841 928 2578 
Q 928 2378 1081 2264 
Q 1234 2150 1697 2047 
L 1894 2003 
Q 2506 1872 2764 1633 
Q 3022 1394 3022 966 
Q 3022 478 2636 193 
Q 2250 -91 1575 -91 
Q 1294 -91 989 -36 
Q 684 19 347 128 
L 347 722 
Q 666 556 975 473 
Q 1284 391 1588 391 
Q 1994 391 2212 530 
Q 2431 669 2431 922 
Q 2431 1156 2273 1281 
Q 2116 1406 1581 1522 
L 1381 1569 
Q 847 1681 609 1914 
Q 372 2147 372 2553 
Q 372 3047 722 3315 
Q 1072 3584 1716 3584 
Q 2034 3584 2315 3537 
Q 2597 3491 2834 3397 
z
" transform="scale(0.015625)"/>
      <path id="DejaVuSans-2c" d="M 750 794 
L 1409 794 
L 1409 256 
L 897 -744 
L 494 -744 
L 750 256 
L 750 794 
z
" transform="scale(0.015625)"/>
      <path id="DejaVuSans-29" d="M 513 4856 
L 1013 4856 
Q 1481 4119 1714 3412 
Q 1947 2706 1947 2009 
Q 1947 1309 1714 600 
Q 1481 -109 1013 -844 
L 513 -844 
Q 928 -128 1133 580 
Q 1338 1288 1338 2009 
Q 1338 2731 1133 3434 
Q 928 4138 513 4856 
z
" transform="scale(0.015625)"/>
     </defs>
     <use xlink:href="#DejaVuSans-52"/>
     <use xlink:href="#DejaVuSans-75" transform="translate(64.982422 0)"/>
     <use xlink:href="#DejaVuSans-6e" transform="translate(128.361328 0)"/>
     <use xlink:href="#DejaVuSans-6e" transform="translate(191.740234 0)"/>
     <use xlink:href="#DejaVuSans-69" transform="translate(255.119141 0)"/>
     <use xlink:href="#DejaVuSans-6e" transform="translate(282.902344 0)"/>
     <use xlink:href="#DejaVuSans-67" transform="translate(346.28125 0)"/>
     <use xlink:href="#DejaVuSans-20" transform="translate(409.757812 0)"/>
     <use xlink:href="#DejaVuSans-6d" transform="translate(441.544922 0)"/>
     <use xlink:href="#DejaVuSans-65" transform="translate(538.957031 0)"/>
     <use xlink:href="#DejaVuSans-61" transform="translate(600.480469 0)"/>
     <use xlink:href="#DejaVuSans-6e" transform="translate(661.759766 0)"/>
     <use xlink:href="#DejaVuSans-20" transform="translate(725.138672 0)"/>
     <use xlink:href="#DejaVuSans-2014" transform="translate(756.925781 0)"/>
     <use xlink:href="#DejaVuSans-20" transform="translate(856.925781 0)"/>
     <use xlink:href="#DejaVuSans-65" transform="translate(888.712891 0)"/>
     <use xlink:href="#DejaVuSans-66" transform="translate(950.236328 0)"/>
     <use xlink:href="#DejaVuSans-66" transform="translate(985.441406 0)"/>
     <use xlink:href="#DejaVuSans-69" transform="translate(1020.646484 0)"/>
     <use xlink:href="#DejaVuSans-63" transform="translate(1048.429688 0)"/>
     <use xlink:href="#DejaVuSans-69" transform="translate(1103.410156 0)"/>
     <use xlink:href="#DejaVuSans-65" transform="translate(1131.193359 0)"/>
     <use xlink:href="#DejaVuSans-6e" transform="translate(1192.716797 0)"/>
     <use xlink:href="#DejaVuSans-63" transform="translate(1256.095703 0)"/>
     <use xlink:href="#DejaVuSans-79" transform="translate(1311.076172 0)"/>
     <use xlink:href="#DejaVuSans-5f" transform="translate(1370.255859 0)"/>
     <use xlink:href="#DejaVuSans-67" transform="translate(1420.255859 0)"/>
     <use xlink:href="#DejaVuSans-61" transform="translate(1483.732422 0)"/>
     <use xlink:href="#DejaVuSans-70" transform="translate(1545.011719 0)"/>
     <use xlink:href="#DejaVuSans-20" transform="translate(1608.488281 0)"/>
     <use xlink:href="#DejaVuSans-20" transform="translate(1640.275391 0)"/>
     <use xlink:href="#DejaVuSans-28" transform="translate(1672.0625 0)"/>
     <use xlink:href="#DejaVuSans-31" transform="translate(1711.076172 0)"/>
     <use xlink:href="#DejaVuSans-30" transform="translate(1774.699219 0)"/>
     <use xlink:href="#DejaVuSans-30" transform="translate(1838.322266 0)"/>
     <use xlink:href="#DejaVuSans-6b" transform="translate(1901.945312 0)"/>
     <use xlink:href="#DejaVuSans-20" transform="translate(1959.855469 0)"/>
     <use xlink:href="#DejaVuSans-52" transform="translate(1991.642578 0)"/>
     <use xlink:href="#DejaVuSans-65" transform="translate(2056.625 0)"/>
     <use xlink:href="#DejaVuSans-43" transform="translate(2118.148438 0)"/>
     <use xlink:href="#DejaVuSans-6f" transform="translate(2187.972656 0)"/>
     <use xlink:href="#DejaVuSans-6d" transform="translate(2249.154297 0)"/>
     <use xlink:href="#DejaVuSans-20" transform="translate(2346.566406 0)"/>
     <use xlink:href="#DejaVuSans-73" transform="translate(2378.353516 0)"/>
     <use xlink:href="#DejaVuSans-61" transform="translate(2430.453125 0)"/>
     <use xlink:href="#DejaVuSans-6d" transform="translate(2491.732422 0)"/>
     <use xlink:href="#DejaVuSans-70" transform="translate(2589.144531 0)"/>
     <use xlink:href="#DejaVuSans-6c" transform="translate(2652.621094 0)"/>
     <use xlink:href="#DejaVuSans-65" transform="translate(2680.404297 0)"/>
     <use xlink:href="#DejaVuSans-73" transform="translate(2741.927734 0)"/>
     <use xlink:href="#DejaVuSans-2c" transform="translate(2794.027344 0)"/>
     <use xlink:href="#DejaVuSans-20" transform="translate(2825.814453 0)"/>
     <use xlink:href="#DejaVuSans-73" transform="translate(2857.601562 0)"/>
     <use xlink:href="#DejaVuSans-65" transform="translate(2909.701172 0)"/>
     <use xlink:href="#DejaVuSans-65" transform="translate(2971.224609 0)"/>
     <use xlink:href="#DejaVuSans-64" transform="translate(3032.748047 0)"/>
     <use xlink:href="#DejaVuSans-20" transform="translate(3096.224609 0)"/>
     <use xlink:href="#DejaVuSans-34" transform="translate(3128.011719 0)"/>
     <use xlink:href="#DejaVuSans-32" transform="translate(3191.634766 0)"/>
     <use xlink:href="#DejaVuSans-29" transform="translate(3255.257812 0)"/>
    </g>
   </g>
   <g id="legend_1">
    <g id="patch_7">
     <path d="M 496.306406 47.290312 
L 630.9 47.290312 
Q 632.7 47.290312 632.7 45.490312 
L 632.7 33.18 
Q 632.7 31.38 630.9 31.38 
L 496.306406 31.38 
Q 494.506406 31.38 494.506406 33.18 
L 494.506406 45.490312 
Q 494.506406 47.290312 496.306406 47.290312 
z
" style="fill: #ffffff; opacity: 0.8; stroke: #cccccc; stroke-linejoin: miter"/>
    </g>
    <g id="line2d_31">
     <path d="M 498.106406 38.668594 
L 507.106406 38.668594 
L 516.106406 38.668594 
" style="fill: none; stroke-dasharray: 2.96,1.28; stroke-dashoffset: 0; stroke: #888888; stroke-width: 0.8"/>
    </g>
    <g id="text_18">
     <!-- final mean = +0.01602 -->
     <g transform="translate(523.306406 41.818594) scale(0.09 -0.09)">
      <defs>
       <path id="DejaVuSans-3d" d="M 678 2906 
L 4684 2906 
L 4684 2381 
L 678 2381 
L 678 2906 
z
M 678 1631 
L 4684 1631 
L 4684 1100 
L 678 1100 
L 678 1631 
z
" transform="scale(0.015625)"/>
       <path id="DejaVuSans-2b" d="M 2944 4013 
L 2944 2272 
L 4684 2272 
L 4684 1741 
L 2944 1741 
L 2944 0 
L 2419 0 
L 2419 1741 
L 678 1741 
L 678 2272 
L 2419 2272 
L 2419 4013 
L 2944 4013 
z
" transform="scale(0.015625)"/>
       <path id="DejaVuSans-36" d="M 2113 2584 
Q 1688 2584 1439 2293 
Q 1191 2003 1191 1497 
Q 1191 994 1439 701 
Q 1688 409 2113 409 
Q 2538 409 2786 701 
Q 3034 994 3034 1497 
Q 3034 2003 2786 2293 
Q 2538 2584 2113 2584 
z
M 3366 4563 
L 3366 3988 
Q 3128 4100 2886 4159 
Q 2644 4219 2406 4219 
Q 1781 4219 1451 3797 
Q 1122 3375 1075 2522 
Q 1259 2794 1537 2939 
Q 1816 3084 2150 3084 
Q 2853 3084 3261 2657 
Q 3669 2231 3669 1497 
Q 3669 778 3244 343 
Q 2819 -91 2113 -91 
Q 1303 -91 875 529 
Q 447 1150 447 2328 
Q 447 3434 972 4092 
Q 1497 4750 2381 4750 
Q 2619 4750 2861 4703 
Q 3103 4656 3366 4563 
z
" transform="scale(0.015625)"/>
      </defs>
      <use xlink:href="#DejaVuSans-66"/>
      <use xlink:href="#DejaVuSans-69" transform="translate(35.205078 0)"/>
      <use xlink:href="#DejaVuSans-6e" transform="translate(62.988281 0)"/>
      <use xlink:href="#DejaVuSans-61" transform="translate(126.367188 0)"/>
      <use xlink:href="#DejaVuSans-6c" transform="translate(187.646484 0)"/>
      <use xlink:href="#DejaVuSans-20" transform="translate(215.429688 0)"/>
      <use xlink:href="#DejaVuSans-6d" transform="translate(247.216797 0)"/>
      <use xlink:href="#DejaVuSans-65" transform="translate(344.628906 0)"/>
      <use xlink:href="#DejaVuSans-61" transform="translate(406.152344 0)"/>
      <use xlink:href="#DejaVuSans-6e" transform="translate(467.431641 0)"/>
      <use xlink:href="#DejaVuSans-20" transform="translate(530.810547 0)"/>
      <use xlink:href="#DejaVuSans-3d" transform="translate(562.597656 0)"/>
      <use xlink:href="#DejaVuSans-20" transform="translate(646.386719 0)"/>
      <use xlink:href="#DejaVuSans-2b" transform="translate(678.173828 0)"/>
      <use xlink:href="#DejaVuSans-30" transform="translate(761.962891 0)"/>
      <use xlink:href="#DejaVuSans-2e" transform="translate(825.585938 0)"/>
      <use xlink:href="#DejaVuSans-30" transform="translate(857.373047 0)"/>
      <use xlink:href="#DejaVuSans-31" transform="translate(920.996094 0)"/>
      <use xlink:href="#DejaVuSans-36" transform="translate(984.619141 0)"/>
      <use xlink:href="#DejaVuSans-30" transform="translate(1048.242188 0)"/>
      <use xlink:href="#DejaVuSans-32" transform="translate(1111.865234 0)"/>
     </g>
    </g>
   </g>
  </g>
 </g>
 <defs>
  <clipPath id="pe6917b9eab">
   <rect x="66.72125" y="26.88" width="570.47875" height="255.16"/>
  </clipPath>
 </defs>
</svg>
