<?xml version="1.0" encoding="utf-8" standalone="no"?>
<!DOCTYPE svg PUBLIC "-//W3C//DTD SVG 1.1//EN"
  "http://www.w3.org/Graphics/SVG/1.1/DTD/svg11.dtd">
<svg xmlns:xlink="http://www.w3.org/1999/xlink" width="648pt" height="324pt" viewBox="0 0 648 324" xmlns="http://www.w3.org/2000/svg" version="1.1">
 <metadata>
  <rdf:RDF xmlns:dc="http://purl.org/dc/elements/1.1/" xmlns:cc="http://creativecommons.org/ns#" xmlns:rdf="http://www.w3.org/1999/02/22-rdf-syntax-ns#">
   <cc:Work>
    <dc:type rdf:resource="http://purl.org/dc/dcmitype/StillImage"/>
    <dc:date>2026-05-08T00:08:25.510796</dc:date>
    <dc:format>image/svg+xml</dc:format>
    <dc:creator>
     <cc:Agent>
      <dc:title>Matplotlib v3.10.8, https://matplotlib.org/</dc:title>
     </cc:Agent>
    </dc:creator>
   </cc:Work>
  </rdf:RDF>
 </metadata>
 <defs>
  <style type="text/css">*{stroke-linejoin: round; stroke-linecap: butt}</style>
 </defs>
 <g id="figure_1">
  <g id="patch_1">
   <path d="M 0 324 
L 648 324 
L 648 0 
L 0 0 
z
" style="fill: #ffffff"/>
  </g>
  <g id="axes_1">
   <g id="patch_2">
    <path d="M 60.42125 282.04 
L 637.2 282.04 
L 637.2 26.88 
L 60.42125 26.88 
z
" style="fill: #ffffff"/>
   </g>
   <g id="matplotlib.axis_1">
    <g id="xtick_1">
     <g id="line2d_1">
      <path d="M 86.636369 282.04 
L 86.636369 26.88 
" clip-path="url(#p939b9296a5)" style="fill: none; stroke-dasharray: 0.5,0.825; stroke-dashoffset: 0; stroke: #b0b0b0; stroke-opacity: 0.6; stroke-width: 0.5"/>
     </g>
     <g id="line2d_2">
      <defs>
       <path id="m9cd7d70bad" d="M 0 0 
L 0 3.5 
" style="stroke: #000000; stroke-width: 0.8"/>
      </defs>
      <g>
       <use xlink:href="#m9cd7d70bad" x="86.636369" y="282.04" style="stroke: #000000; stroke-width: 0.8"/>
      </g>
     </g>
     <g id="text_1">
      <!-- 0 -->
      <g transform="translate(83.455119 296.638438) scale(0.1 -0.1)">
       <defs>
        <path id="DejaVuSans-30" d="M 2034 4250 
Q 1547 4250 1301 3770 
Q 1056 3291 1056 2328 
Q 1056 1369 1301 889 
Q 1547 409 2034 409 
Q 2525 409 2770 889 
Q 3016 1369 3016 2328 
Q 3016 3291 2770 3770 
Q 2525 4250 2034 4250 
z
M 2034 4750 
Q 2819 4750 3233 4129 
Q 3647 3509 3647 2328 
Q 3647 1150 3233 529 
Q 2819 -91 2034 -91 
Q 1250 -91 836 529 
Q 422 1150 422 2328 
Q 422 3509 836 4129 
Q 1250 4750 2034 4750 
z
" transform="scale(0.015625)"/>
       </defs>
       <use xlink:href="#DejaVuSans-30"/>
      </g>
     </g>
    </g>
    <g id="xtick_2">
     <g id="line2d_3">
      <path d="M 191.505652 282.04 
L 191.505652 26.88 
" clip-path="url(#p939b9296a5)" style="fill: none; stroke-dasharray: 0.5,0.825; stroke-dashoffset: 0; stroke: #b0b0b0; stroke-opacity: 0.6; stroke-width: 0.5"/>
     </g>
     <g id="line2d_4">
      <g>
       <use xlink:href="#m9cd7d70bad" x="191.505652" y="282.04" style="stroke: #000000; stroke-width: 0.8"/>
      </g>
     </g>
     <g id="text_2">
      <!-- 50000 -->
      <g transform="translate(175.599402 296.638438) scale(0.1 -0.1)">
       <defs>
        <path id="DejaVuSans-35" d="M 691 4666 
L 3169 4666 
L 3169 4134 
L 1269 4134 
L 1269 2991 
Q 1406 3038 1543 3061 
Q 1681 3084 1819 3084 
Q 2600 3084 3056 2656 
Q 3513 2228 3513 1497 
Q 3513 744 3044 326 
Q 2575 -91 1722 -91 
Q 1428 -91 1123 -41 
Q 819 9 494 109 
L 494 744 
Q 775 591 1075 516 
Q 1375 441 1709 441 
Q 2250 441 2565 725 
Q 2881 1009 2881 1497 
Q 2881 1984 2565 2268 
Q 2250 2553 1709 2553 
Q 1456 2553 1204 2497 
Q 953 2441 691 2322 
L 691 4666 
z
" transform="scale(0.015625)"/>
       </defs>
       <use xlink:href="#DejaVuSans-35"/>
       <use xlink:href="#DejaVuSans-30" transform="translate(63.623047 0)"/>
       <use xlink:href="#DejaVuSans-30" transform="translate(127.246094 0)"/>
       <use xlink:href="#DejaVuSans-30" transform="translate(190.869141 0)"/>
       <use xlink:href="#DejaVuSans-30" transform="translate(254.492188 0)"/>
      </g>
     </g>
    </g>
    <g id="xtick_3">
     <g id="line2d_5">
      <path d="M 296.374935 282.04 
L 296.374935 26.88 
" clip-path="url(#p939b9296a5)" style="fill: none; stroke-dasharray: 0.5,0.825; stroke-dashoffset: 0; stroke: #b0b0b0; stroke-opacity: 0.6; stroke-width: 0.5"/>
     </g>
     <g id="line2d_6">
      <g>
       <use xlink:href="#m9cd7d70bad" x="296.374935" y="282.04" style="stroke: #000000; stroke-width: 0.8"/>
      </g>
     </g>
     <g id="text_3">
      <!-- 100000 -->
      <g transform="translate(277.287435 296.638438) scale(0.1 -0.1)">
       <defs>
        <path id="DejaVuSans-31" d="M 794 531 
L 1825 531 
L 1825 4091 
L 703 3866 
L 703 4441 
L 1819 4666 
L 2450 4666 
L 2450 531 
L 3481 531 
L 3481 0 
L 794 0 
L 794 531 
z
" transform="scale(0.015625)"/>
       </defs>
       <use xlink:href="#DejaVuSans-31"/>
       <use xlink:href="#DejaVuSans-30" transform="translate(63.623047 0)"/>
       <use xlink:href="#DejaVuSans-30" transform="translate(127.246094 0)"/>
       <use xlink:href="#DejaVuSans-30" transform="translate(190.869141 0)"/>
       <use xlink:href="#DejaVuSans-30" transform="translate(254.492188 0)"/>
       <use xlink:href="#DejaVuSans-30" transform="translate(318.115234 0)"/>
      </g>
     </g>
    </g>
    <g id="xtick_4">
     <g id="line2d_7">
      <path d="M 401.244218 282.04 
L 401.244218 26.88 
" clip-path="url(#p939b9296a5)" style="fill: none; stroke-dasharray: 0.5,0.825; stroke-dashoffset: 0; stroke: #b0b0b0; stroke-opacity: 0.6; stroke-width: 0.5"/>
     </g>
     <g id="line2d_8">
      <g>
       <use xlink:href="#m9cd7d70bad" x="401.244218" y="282.04" style="stroke: #000000; stroke-width: 0.8"/>
      </g>
     </g>
     <g id="text_4">
      <!-- 150000 -->
      <g transform="translate(382.156718 296.638438) scale(0.1 -0.1)">
       <use xlink:href="#DejaVuSans-31"/>
       <use xlink:href="#DejaVuSans-35" transform="translate(63.623047 0)"/>
       <use xlink:href="#DejaVuSans-30" transform="translate(127.246094 0)"/>
       <use xlink:href="#DejaVuSans-30" transform="translate(190.869141 0)"/>
       <use xlink:href="#DejaVuSans-30" transform="translate(254.492188 0)"/>
       <use xlink:href="#DejaVuSans-30" transform="translate(318.115234 0)"/>
      </g>
     </g>
    </g>
    <g id="xtick_5">
     <g id="line2d_9">
      <path d="M 506.113501 282.04 
L 506.113501 26.88 
" clip-path="url(#p939b9296a5)" style="fill: none; stroke-dasharray: 0.5,0.825; stroke-dashoffset: 0; stroke: #b0b0b0; stroke-opacity: 0.6; stroke-width: 0.5"/>
     </g>
     <g id="line2d_10">
      <g>
       <use xlink:href="#m9cd7d70bad" x="506.113501" y="282.04" style="stroke: #000000; stroke-width: 0.8"/>
      </g>
     </g>
     <g id="text_5">
      <!-- 200000 -->
      <g transform="translate(487.026001 296.638438) scale(0.1 -0.1)">
       <defs>
        <path id="DejaVuSans-32" d="M 1228 531 
L 3431 531 
L 3431 0 
L 469 0 
L 469 531 
Q 828 903 1448 1529 
Q 2069 2156 2228 2338 
Q 2531 2678 2651 2914 
Q 2772 3150 2772 3378 
Q 2772 3750 2511 3984 
Q 2250 4219 1831 4219 
Q 1534 4219 1204 4116 
Q 875 4013 500 3803 
L 500 4441 
Q 881 4594 1212 4672 
Q 1544 4750 1819 4750 
Q 2544 4750 2975 4387 
Q 3406 4025 3406 3419 
Q 3406 3131 3298 2873 
Q 3191 2616 2906 2266 
Q 2828 2175 2409 1742 
Q 1991 1309 1228 531 
z
" transform="scale(0.015625)"/>
       </defs>
       <use xlink:href="#DejaVuSans-32"/>
       <use xlink:href="#DejaVuSans-30" transform="translate(63.623047 0)"/>
       <use xlink:href="#DejaVuSans-30" transform="translate(127.246094 0)"/>
       <use xlink:href="#DejaVuSans-30" transform="translate(190.869141 0)"/>
       <use xlink:href="#DejaVuSans-30" transform="translate(254.492188 0)"/>
       <use xlink:href="#DejaVuSans-30" transform="translate(318.115234 0)"/>
      </g>
     </g>
    </g>
    <g id="xtick_6">
     <g id="line2d_11">
      <path d="M 610.982784 282.04 
L 610.982784 26.88 
" clip-path="url(#p939b9296a5)" style="fill: none; stroke-dasharray: 0.5,0.825; stroke-dashoffset: 0; stroke: #b0b0b0; stroke-opacity: 0.6; stroke-width: 0.5"/>
     </g>
     <g id="line2d_12">
      <g>
       <use xlink:href="#m9cd7d70bad" x="610.982784" y="282.04" style="stroke: #000000; stroke-width: 0.8"/>
      </g>
     </g>
     <g id="text_6">
      <!-- 250000 -->
      <g transform="translate(591.895284 296.638438) scale(0.1 -0.1)">
       <use xlink:href="#DejaVuSans-32"/>
       <use xlink:href="#DejaVuSans-35" transform="translate(63.623047 0)"/>
       <use xlink:href="#DejaVuSans-30" transform="translate(127.246094 0)"/>
       <use xlink:href="#DejaVuSans-30" transform="translate(190.869141 0)"/>
       <use xlink:href="#DejaVuSans-30" transform="translate(254.492188 0)"/>
       <use xlink:href="#DejaVuSans-30" transform="translate(318.115234 0)"/>
      </g>
     </g>
    </g>
    <g id="text_7">
     <!-- Sample index -->
     <g transform="translate(314.792656 310.316563) scale(0.1 -0.1)">
      <defs>
       <path id="DejaVuSans-53" d="M 3425 4513 
L 3425 3897 
Q 3066 4069 2747 4153 
Q 2428 4238 2131 4238 
Q 1616 4238 1336 4038 
Q 1056 3838 1056 3469 
Q 1056 3159 1242 3001 
Q 1428 2844 1947 2747 
L 2328 2669 
Q 3034 2534 3370 2195 
Q 3706 1856 3706 1288 
Q 3706 609 3251 259 
Q 2797 -91 1919 -91 
Q 1588 -91 1214 -16 
Q 841 59 441 206 
L 441 856 
Q 825 641 1194 531 
Q 1563 422 1919 422 
Q 2459 422 2753 634 
Q 3047 847 3047 1241 
Q 3047 1584 2836 1778 
Q 2625 1972 2144 2069 
L 1759 2144 
Q 1053 2284 737 2584 
Q 422 2884 422 3419 
Q 422 4038 858 4394 
Q 1294 4750 2059 4750 
Q 2388 4750 2728 4690 
Q 3069 4631 3425 4513 
z
" transform="scale(0.015625)"/>
       <path id="DejaVuSans-61" d="M 2194 1759 
Q 1497 1759 1228 1600 
Q 959 1441 959 1056 
Q 959 750 1161 570 
Q 1363 391 1709 391 
Q 2188 391 2477 730 
Q 2766 1069 2766 1631 
L 2766 1759 
L 2194 1759 
z
M 3341 1997 
L 3341 0 
L 2766 0 
L 2766 531 
Q 2569 213 2275 61 
Q 1981 -91 1556 -91 
Q 1019 -91 701 211 
Q 384 513 384 1019 
Q 384 1609 779 1909 
Q 1175 2209 1959 2209 
L 2766 2209 
L 2766 2266 
Q 2766 2663 2505 2880 
Q 2244 3097 1772 3097 
Q 1472 3097 1187 3025 
Q 903 2953 641 2809 
L 641 3341 
Q 956 3463 1253 3523 
Q 1550 3584 1831 3584 
Q 2591 3584 2966 3190 
Q 3341 2797 3341 1997 
z
" transform="scale(0.015625)"/>
       <path id="DejaVuSans-6d" d="M 3328 2828 
Q 3544 3216 3844 3400 
Q 4144 3584 4550 3584 
Q 5097 3584 5394 3201 
Q 5691 2819 5691 2113 
L 5691 0 
L 5113 0 
L 5113 2094 
Q 5113 2597 4934 2840 
Q 4756 3084 4391 3084 
Q 3944 3084 3684 2787 
Q 3425 2491 3425 1978 
L 3425 0 
L 2847 0 
L 2847 2094 
Q 2847 2600 2669 2842 
Q 2491 3084 2119 3084 
Q 1678 3084 1418 2786 
Q 1159 2488 1159 1978 
L 1159 0 
L 581 0 
L 581 3500 
L 1159 3500 
L 1159 2956 
Q 1356 3278 1631 3431 
Q 1906 3584 2284 3584 
Q 2666 3584 2933 3390 
Q 3200 3197 3328 2828 
z
" transform="scale(0.015625)"/>
       <path id="DejaVuSans-70" d="M 1159 525 
L 1159 -1331 
L 581 -1331 
L 581 3500 
L 1159 3500 
L 1159 2969 
Q 1341 3281 1617 3432 
Q 1894 3584 2278 3584 
Q 2916 3584 3314 3078 
Q 3713 2572 3713 1747 
Q 3713 922 3314 415 
Q 2916 -91 2278 -91 
Q 1894 -91 1617 61 
Q 1341 213 1159 525 
z
M 3116 1747 
Q 3116 2381 2855 2742 
Q 2594 3103 2138 3103 
Q 1681 3103 1420 2742 
Q 1159 2381 1159 1747 
Q 1159 1113 1420 752 
Q 1681 391 2138 391 
Q 2594 391 2855 752 
Q 3116 1113 3116 1747 
z
" transform="scale(0.015625)"/>
       <path id="DejaVuSans-6c" d="M 603 4863 
L 1178 4863 
L 1178 0 
L 603 0 
L 603 4863 
z
" transform="scale(0.015625)"/>
       <path id="DejaVuSans-65" d="M 3597 1894 
L 3597 1613 
L 953 1613 
Q 991 1019 1311 708 
Q 1631 397 2203 397 
Q 2534 397 2845 478 
Q 3156 559 3463 722 
L 3463 178 
Q 3153 47 2828 -22 
Q 2503 -91 2169 -91 
Q 1331 -91 842 396 
Q 353 884 353 1716 
Q 353 2575 817 3079 
Q 1281 3584 2069 3584 
Q 2775 3584 3186 3129 
Q 3597 2675 3597 1894 
z
M 3022 2063 
Q 3016 2534 2758 2815 
Q 2500 3097 2075 3097 
Q 1594 3097 1305 2825 
Q 1016 2553 972 2059 
L 3022 2063 
z
" transform="scale(0.015625)"/>
       <path id="DejaVuSans-20" transform="scale(0.015625)"/>
       <path id="DejaVuSans-69" d="M 603 3500 
L 1178 3500 
L 1178 0 
L 603 0 
L 603 3500 
z
M 603 4863 
L 1178 4863 
L 1178 4134 
L 603 4134 
L 603 4863 
z
" transform="scale(0.015625)"/>
       <path id="DejaVuSans-6e" d="M 3513 2113 
L 3513 0 
L 2938 0 
L 2938 2094 
Q 2938 2591 2744 2837 
Q 2550 3084 2163 3084 
Q 1697 3084 1428 2787 
Q 1159 2491 1159 1978 
L 1159 0 
L 581 0 
L 581 3500 
L 1159 3500 
L 1159 2956 
Q 1366 3272 1645 3428 
Q 1925 3584 2291 3584 
Q 2894 3584 3203 3211 
Q 3513 2838 3513 2113 
z
" transform="scale(0.015625)"/>
       <path id="DejaVuSans-64" d="M 2906 2969 
L 2906 4863 
L 3481 4863 
L 3481 0 
L 2906 0 
L 2906 525 
Q 2725 213 2448 61 
Q 2172 -91 1784 -91 
Q 1150 -91 751 415 
Q 353 922 353 1747 
Q 353 2572 751 3078 
Q 1150 3584 1784 3584 
Q 2172 3584 2448 3432 
Q 2725 3281 2906 2969 
z
M 947 1747 
Q 947 1113 1208 752 
Q 1469 391 1925 391 
Q 2381 391 2643 752 
Q 2906 1113 2906 1747 
Q 2906 2381 2643 2742 
Q 2381 3103 1925 3103 
Q 1469 3103 1208 2742 
Q 947 2381 947 1747 
z
" transform="scale(0.015625)"/>
       <path id="DejaVuSans-78" d="M 3513 3500 
L 2247 1797 
L 3578 0 
L 2900 0 
L 1881 1375 
L 863 0 
L 184 0 
L 1544 1831 
L 300 3500 
L 978 3500 
L 1906 2253 
L 2834 3500 
L 3513 3500 
z
" transform="scale(0.015625)"/>
      </defs>
      <use xlink:href="#DejaVuSans-53"/>
      <use xlink:href="#DejaVuSans-61" transform="translate(63.476562 0)"/>
      <use xlink:href="#DejaVuSans-6d" transform="translate(124.755859 0)"/>
      <use xlink:href="#DejaVuSans-70" transform="translate(222.167969 0)"/>
      <use xlink:href="#DejaVuSans-6c" transform="translate(285.644531 0)"/>
      <use xlink:href="#DejaVuSans-65" transform="translate(313.427734 0)"/>
      <use xlink:href="#DejaVuSans-20" transform="translate(374.951172 0)"/>
      <use xlink:href="#DejaVuSans-69" transform="translate(406.738281 0)"/>
      <use xlink:href="#DejaVuSans-6e" transform="translate(434.521484 0)"/>
      <use xlink:href="#DejaVuSans-64" transform="translate(497.900391 0)"/>
      <use xlink:href="#DejaVuSans-65" transform="translate(561.376953 0)"/>
      <use xlink:href="#DejaVuSans-78" transform="translate(621.150391 0)"/>
     </g>
    </g>
   </g>
   <g id="matplotlib.axis_2">
    <g id="ytick_1">
     <g id="line2d_13">
      <path d="M 60.42125 252.512768 
L 637.2 252.512768 
" clip-path="url(#p939b9296a5)" style="fill: none; stroke-dasharray: 0.5,0.825; stroke-dashoffset: 0; stroke: #b0b0b0; stroke-opacity: 0.6; stroke-width: 0.5"/>
     </g>
     <g id="line2d_14">
      <defs>
       <path id="m5b5f23d2ee" d="M 0 0 
L -3.5 0 
" style="stroke: #000000; stroke-width: 0.8"/>
      </defs>
      <g>
       <use xlink:href="#m5b5f23d2ee" x="60.42125" y="252.512768" style="stroke: #000000; stroke-width: 0.8"/>
      </g>
     </g>
     <g id="text_8">
      <!-- 0.075 -->
      <g transform="translate(24.793125 256.311986) scale(0.1 -0.1)">
       <defs>
        <path id="DejaVuSans-2e" d="M 684 794 
L 1344 794 
L 1344 0 
L 684 0 
L 684 794 
z
" transform="scale(0.015625)"/>
        <path id="DejaVuSans-37" d="M 525 4666 
L 3525 4666 
L 3525 4397 
L 1831 0 
L 1172 0 
L 2766 4134 
L 525 4134 
L 525 4666 
z
" transform="scale(0.015625)"/>
       </defs>
       <use xlink:href="#DejaVuSans-30"/>
       <use xlink:href="#DejaVuSans-2e" transform="translate(63.623047 0)"/>
       <use xlink:href="#DejaVuSans-30" transform="translate(95.410156 0)"/>
       <use xlink:href="#DejaVuSans-37" transform="translate(159.033203 0)"/>
       <use xlink:href="#DejaVuSans-35" transform="translate(222.65625 0)"/>
      </g>
     </g>
    </g>
    <g id="ytick_2">
     <g id="line2d_15">
      <path d="M 60.42125 213.583829 
L 637.2 213.583829 
" clip-path="url(#p939b9296a5)" style="fill: none; stroke-dasharray: 0.5,0.825; stroke-dashoffset: 0; stroke: #b0b0b0; stroke-opacity: 0.6; stroke-width: 0.5"/>
     </g>
     <g id="line2d_16">
      <g>
       <use xlink:href="#m5b5f23d2ee" x="60.42125" y="213.583829" style="stroke: #000000; stroke-width: 0.8"/>
      </g>
     </g>
     <g id="text_9">
      <!-- 0.080 -->
      <g transform="translate(24.793125 217.383048) scale(0.1 -0.1)">
       <defs>
        <path id="DejaVuSans-38" d="M 2034 2216 
Q 1584 2216 1326 1975 
Q 1069 1734 1069 1313 
Q 1069 891 1326 650 
Q 1584 409 2034 409 
Q 2484 409 2743 651 
Q 3003 894 3003 1313 
Q 3003 1734 2745 1975 
Q 2488 2216 2034 2216 
z
M 1403 2484 
Q 997 2584 770 2862 
Q 544 3141 544 3541 
Q 544 4100 942 4425 
Q 1341 4750 2034 4750 
Q 2731 4750 3128 4425 
Q 3525 4100 3525 3541 
Q 3525 3141 3298 2862 
Q 3072 2584 2669 2484 
Q 3125 2378 3379 2068 
Q 3634 1759 3634 1313 
Q 3634 634 3220 271 
Q 2806 -91 2034 -91 
Q 1263 -91 848 271 
Q 434 634 434 1313 
Q 434 1759 690 2068 
Q 947 2378 1403 2484 
z
M 1172 3481 
Q 1172 3119 1398 2916 
Q 1625 2713 2034 2713 
Q 2441 2713 2670 2916 
Q 2900 3119 2900 3481 
Q 2900 3844 2670 4047 
Q 2441 4250 2034 4250 
Q 1625 4250 1398 4047 
Q 1172 3844 1172 3481 
z
" transform="scale(0.015625)"/>
       </defs>
       <use xlink:href="#DejaVuSans-30"/>
       <use xlink:href="#DejaVuSans-2e" transform="translate(63.623047 0)"/>
       <use xlink:href="#DejaVuSans-30" transform="translate(95.410156 0)"/>
       <use xlink:href="#DejaVuSans-38" transform="translate(159.033203 0)"/>
       <use xlink:href="#DejaVuSans-30" transform="translate(222.65625 0)"/>
      </g>
     </g>
    </g>
    <g id="ytick_3">
     <g id="line2d_17">
      <path d="M 60.42125 174.65489 
L 637.2 174.65489 
" clip-path="url(#p939b9296a5)" style="fill: none; stroke-dasharray: 0.5,0.825; stroke-dashoffset: 0; stroke: #b0b0b0; stroke-opacity: 0.6; stroke-width: 0.5"/>
     </g>
     <g id="line2d_18">
      <g>
       <use xlink:href="#m5b5f23d2ee" x="60.42125" y="174.65489" style="stroke: #000000; stroke-width: 0.8"/>
      </g>
     </g>
     <g id="text_10">
      <!-- 0.085 -->
      <g transform="translate(24.793125 178.454109) scale(0.1 -0.1)">
       <use xlink:href="#DejaVuSans-30"/>
       <use xlink:href="#DejaVuSans-2e" transform="translate(63.623047 0)"/>
       <use xlink:href="#DejaVuSans-30" transform="translate(95.410156 0)"/>
       <use xlink:href="#DejaVuSans-38" transform="translate(159.033203 0)"/>
       <use xlink:href="#DejaVuSans-35" transform="translate(222.65625 0)"/>
      </g>
     </g>
    </g>
    <g id="ytick_4">
     <g id="line2d_19">
      <path d="M 60.42125 135.725952 
L 637.2 135.725952 
" clip-path="url(#p939b9296a5)" style="fill: none; stroke-dasharray: 0.5,0.825; stroke-dashoffset: 0; stroke: #b0b0b0; stroke-opacity: 0.6; stroke-width: 0.5"/>
     </g>
     <g id="line2d_20">
      <g>
       <use xlink:href="#m5b5f23d2ee" x="60.42125" y="135.725952" style="stroke: #000000; stroke-width: 0.8"/>
      </g>
     </g>
     <g id="text_11">
      <!-- 0.090 -->
      <g transform="translate(24.793125 139.525171) scale(0.1 -0.1)">
       <defs>
        <path id="DejaVuSans-39" d="M 703 97 
L 703 672 
Q 941 559 1184 500 
Q 1428 441 1663 441 
Q 2288 441 2617 861 
Q 2947 1281 2994 2138 
Q 2813 1869 2534 1725 
Q 2256 1581 1919 1581 
Q 1219 1581 811 2004 
Q 403 2428 403 3163 
Q 403 3881 828 4315 
Q 1253 4750 1959 4750 
Q 2769 4750 3195 4129 
Q 3622 3509 3622 2328 
Q 3622 1225 3098 567 
Q 2575 -91 1691 -91 
Q 1453 -91 1209 -44 
Q 966 3 703 97 
z
M 1959 2075 
Q 2384 2075 2632 2365 
Q 2881 2656 2881 3163 
Q 2881 3666 2632 3958 
Q 2384 4250 1959 4250 
Q 1534 4250 1286 3958 
Q 1038 3666 1038 3163 
Q 1038 2656 1286 2365 
Q 1534 2075 1959 2075 
z
" transform="scale(0.015625)"/>
       </defs>
       <use xlink:href="#DejaVuSans-30"/>
       <use xlink:href="#DejaVuSans-2e" transform="translate(63.623047 0)"/>
       <use xlink:href="#DejaVuSans-30" transform="translate(95.410156 0)"/>
       <use xlink:href="#DejaVuSans-39" transform="translate(159.033203 0)"/>
       <use xlink:href="#DejaVuSans-30" transform="translate(222.65625 0)"/>
      </g>
     </g>
    </g>
    <g id="ytick_5">
     <g id="line2d_21">
      <path d="M 60.42125 96.797013 
L 637.2 96.797013 
" clip-path="url(#p939b9296a5)" style="fill: none; stroke-dasharray: 0.5,0.825; stroke-dashoffset: 0; stroke: #b0b0b0; stroke-opacity: 0.6; stroke-width: 0.5"/>
     </g>
     <g id="line2d_22">
      <g>
       <use xlink:href="#m5b5f23d2ee" x="60.42125" y="96.797013" style="stroke: #000000; stroke-width: 0.8"/>
      </g>
     </g>
     <g id="text_12">
      <!-- 0.095 -->
      <g transform="translate(24.793125 100.596232) scale(0.1 -0.1)">
       <use xlink:href="#DejaVuSans-30"/>
       <use xlink:href="#DejaVuSans-2e" transform="translate(63.623047 0)"/>
       <use xlink:href="#DejaVuSans-30" transform="translate(95.410156 0)"/>
       <use xlink:href="#DejaVuSans-39" transform="translate(159.033203 0)"/>
       <use xlink:href="#DejaVuSans-35" transform="translate(222.65625 0)"/>
      </g>
     </g>
    </g>
    <g id="ytick_6">
     <g id="line2d_23">
      <path d="M 60.42125 57.868075 
L 637.2 57.868075 
" clip-path="url(#p939b9296a5)" style="fill: none; stroke-dasharray: 0.5,0.825; stroke-dashoffset: 0; stroke: #b0b0b0; stroke-opacity: 0.6; stroke-width: 0.5"/>
     </g>
     <g id="line2d_24">
      <g>
       <use xlink:href="#m5b5f23d2ee" x="60.42125" y="57.868075" style="stroke: #000000; stroke-width: 0.8"/>
      </g>
     </g>
     <g id="text_13">
      <!-- 0.100 -->
      <g transform="translate(24.793125 61.667293) scale(0.1 -0.1)">
       <use xlink:href="#DejaVuSans-30"/>
       <use xlink:href="#DejaVuSans-2e" transform="translate(63.623047 0)"/>
       <use xlink:href="#DejaVuSans-31" transform="translate(95.410156 0)"/>
       <use xlink:href="#DejaVuSans-30" transform="translate(159.033203 0)"/>
       <use xlink:href="#DejaVuSans-30" transform="translate(222.65625 0)"/>
      </g>
     </g>
    </g>
    <g id="text_14">
     <!-- Running mean of reock_proxy_pct_below_030 -->
     <g transform="translate(18.435313 268.592031) rotate(-90) scale(0.1 -0.1)">
      <defs>
       <path id="DejaVuSans-52" d="M 2841 2188 
Q 3044 2119 3236 1894 
Q 3428 1669 3622 1275 
L 4263 0 
L 3584 0 
L 2988 1197 
Q 2756 1666 2539 1819 
Q 2322 1972 1947 1972 
L 1259 1972 
L 1259 0 
L 628 0 
L 628 4666 
L 2053 4666 
Q 2853 4666 3247 4331 
Q 3641 3997 3641 3322 
Q 3641 2881 3436 2590 
Q 3231 2300 2841 2188 
z
M 1259 4147 
L 1259 2491 
L 2053 2491 
Q 2509 2491 2742 2702 
Q 2975 2913 2975 3322 
Q 2975 3731 2742 3939 
Q 2509 4147 2053 4147 
L 1259 4147 
z
" transform="scale(0.015625)"/>
       <path id="DejaVuSans-75" d="M 544 1381 
L 544 3500 
L 1119 3500 
L 1119 1403 
Q 1119 906 1312 657 
Q 1506 409 1894 409 
Q 2359 409 2629 706 
Q 2900 1003 2900 1516 
L 2900 3500 
L 3475 3500 
L 3475 0 
L 2900 0 
L 2900 538 
Q 2691 219 2414 64 
Q 2138 -91 1772 -91 
Q 1169 -91 856 284 
Q 544 659 544 1381 
z
M 1991 3584 
L 1991 3584 
z
" transform="scale(0.015625)"/>
       <path id="DejaVuSans-67" d="M 2906 1791 
Q 2906 2416 2648 2759 
Q 2391 3103 1925 3103 
Q 1463 3103 1205 2759 
Q 947 2416 947 1791 
Q 947 1169 1205 825 
Q 1463 481 1925 481 
Q 2391 481 2648 825 
Q 2906 1169 2906 1791 
z
M 3481 434 
Q 3481 -459 3084 -895 
Q 2688 -1331 1869 -1331 
Q 1566 -1331 1297 -1286 
Q 1028 -1241 775 -1147 
L 775 -588 
Q 1028 -725 1275 -790 
Q 1522 -856 1778 -856 
Q 2344 -856 2625 -561 
Q 2906 -266 2906 331 
L 2906 616 
Q 2728 306 2450 153 
Q 2172 0 1784 0 
Q 1141 0 747 490 
Q 353 981 353 1791 
Q 353 2603 747 3093 
Q 1141 3584 1784 3584 
Q 2172 3584 2450 3431 
Q 2728 3278 2906 2969 
L 2906 3500 
L 3481 3500 
L 3481 434 
z
" transform="scale(0.015625)"/>
       <path id="DejaVuSans-6f" d="M 1959 3097 
Q 1497 3097 1228 2736 
Q 959 2375 959 1747 
Q 959 1119 1226 758 
Q 1494 397 1959 397 
Q 2419 397 2687 759 
Q 2956 1122 2956 1747 
Q 2956 2369 2687 2733 
Q 2419 3097 1959 3097 
z
M 1959 3584 
Q 2709 3584 3137 3096 
Q 3566 2609 3566 1747 
Q 3566 888 3137 398 
Q 2709 -91 1959 -91 
Q 1206 -91 779 398 
Q 353 888 353 1747 
Q 353 2609 779 3096 
Q 1206 3584 1959 3584 
z
" transform="scale(0.015625)"/>
       <path id="DejaVuSans-66" d="M 2375 4863 
L 2375 4384 
L 1825 4384 
Q 1516 4384 1395 4259 
Q 1275 4134 1275 3809 
L 1275 3500 
L 2222 3500 
L 2222 3053 
L 1275 3053 
L 1275 0 
L 697 0 
L 697 3053 
L 147 3053 
L 147 3500 
L 697 3500 
L 697 3744 
Q 697 4328 969 4595 
Q 1241 4863 1831 4863 
L 2375 4863 
z
" transform="scale(0.015625)"/>
       <path id="DejaVuSans-72" d="M 2631 2963 
Q 2534 3019 2420 3045 
Q 2306 3072 2169 3072 
Q 1681 3072 1420 2755 
Q 1159 2438 1159 1844 
L 1159 0 
L 581 0 
L 581 3500 
L 1159 3500 
L 1159 2956 
Q 1341 3275 1631 3429 
Q 1922 3584 2338 3584 
Q 2397 3584 2469 3576 
Q 2541 3569 2628 3553 
L 2631 2963 
z
" transform="scale(0.015625)"/>
       <path id="DejaVuSans-63" d="M 3122 3366 
L 3122 2828 
Q 2878 2963 2633 3030 
Q 2388 3097 2138 3097 
Q 1578 3097 1268 2742 
Q 959 2388 959 1747 
Q 959 1106 1268 751 
Q 1578 397 2138 397 
Q 2388 397 2633 464 
Q 2878 531 3122 666 
L 3122 134 
Q 2881 22 2623 -34 
Q 2366 -91 2075 -91 
Q 1284 -91 818 406 
Q 353 903 353 1747 
Q 353 2603 823 3093 
Q 1294 3584 2113 3584 
Q 2378 3584 2631 3529 
Q 2884 3475 3122 3366 
z
" transform="scale(0.015625)"/>
       <path id="DejaVuSans-6b" d="M 581 4863 
L 1159 4863 
L 1159 1991 
L 2875 3500 
L 3609 3500 
L 1753 1863 
L 3688 0 
L 2938 0 
L 1159 1709 
L 1159 0 
L 581 0 
L 581 4863 
z
" transform="scale(0.015625)"/>
       <path id="DejaVuSans-5f" d="M 3263 -1063 
L 3263 -1509 
L -63 -1509 
L -63 -1063 
L 3263 -1063 
z
" transform="scale(0.015625)"/>
       <path id="DejaVuSans-79" d="M 2059 -325 
Q 1816 -950 1584 -1140 
Q 1353 -1331 966 -1331 
L 506 -1331 
L 506 -850 
L 844 -850 
Q 1081 -850 1212 -737 
Q 1344 -625 1503 -206 
L 1606 56 
L 191 3500 
L 800 3500 
L 1894 763 
L 2988 3500 
L 3597 3500 
L 2059 -325 
z
" transform="scale(0.015625)"/>
       <path id="DejaVuSans-74" d="M 1172 4494 
L 1172 3500 
L 2356 3500 
L 2356 3053 
L 1172 3053 
L 1172 1153 
Q 1172 725 1289 603 
Q 1406 481 1766 481 
L 2356 481 
L 2356 0 
L 1766 0 
Q 1100 0 847 248 
Q 594 497 594 1153 
L 594 3053 
L 172 3053 
L 172 3500 
L 594 3500 
L 594 4494 
L 1172 4494 
z
" transform="scale(0.015625)"/>
       <path id="DejaVuSans-62" d="M 3116 1747 
Q 3116 2381 2855 2742 
Q 2594 3103 2138 3103 
Q 1681 3103 1420 2742 
Q 1159 2381 1159 1747 
Q 1159 1113 1420 752 
Q 1681 391 2138 391 
Q 2594 391 2855 752 
Q 3116 1113 3116 1747 
z
M 1159 2969 
Q 1341 3281 1617 3432 
Q 1894 3584 2278 3584 
Q 2916 3584 3314 3078 
Q 3713 2572 3713 1747 
Q 3713 922 3314 415 
Q 2916 -91 2278 -91 
Q 1894 -91 1617 61 
Q 1341 213 1159 525 
L 1159 0 
L 581 0 
L 581 4863 
L 1159 4863 
L 1159 2969 
z
" transform="scale(0.015625)"/>
       <path id="DejaVuSans-77" d="M 269 3500 
L 844 3500 
L 1563 769 
L 2278 3500 
L 2956 3500 
L 3675 769 
L 4391 3500 
L 4966 3500 
L 4050 0 
L 3372 0 
L 2619 2869 
L 1863 0 
L 1184 0 
L 269 3500 
z
" transform="scale(0.015625)"/>
       <path id="DejaVuSans-33" d="M 2597 2516 
Q 3050 2419 3304 2112 
Q 3559 1806 3559 1356 
Q 3559 666 3084 287 
Q 2609 -91 1734 -91 
Q 1441 -91 1130 -33 
Q 819 25 488 141 
L 488 750 
Q 750 597 1062 519 
Q 1375 441 1716 441 
Q 2309 441 2620 675 
Q 2931 909 2931 1356 
Q 2931 1769 2642 2001 
Q 2353 2234 1838 2234 
L 1294 2234 
L 1294 2753 
L 1863 2753 
Q 2328 2753 2575 2939 
Q 2822 3125 2822 3475 
Q 2822 3834 2567 4026 
Q 2313 4219 1838 4219 
Q 1578 4219 1281 4162 
Q 984 4106 628 3988 
L 628 4550 
Q 988 4650 1302 4700 
Q 1616 4750 1894 4750 
Q 2613 4750 3031 4423 
Q 3450 4097 3450 3541 
Q 3450 3153 3228 2886 
Q 3006 2619 2597 2516 
z
" transform="scale(0.015625)"/>
      </defs>
      <use xlink:href="#DejaVuSans-52"/>
      <use xlink:href="#DejaVuSans-75" transform="translate(64.982422 0)"/>
      <use xlink:href="#DejaVuSans-6e" transform="translate(128.361328 0)"/>
      <use xlink:href="#DejaVuSans-6e" transform="translate(191.740234 0)"/>
      <use xlink:href="#DejaVuSans-69" transform="translate(255.119141 0)"/>
      <use xlink:href="#DejaVuSans-6e" transform="translate(282.902344 0)"/>
      <use xlink:href="#DejaVuSans-67" transform="translate(346.28125 0)"/>
      <use xlink:href="#DejaVuSans-20" transform="translate(409.757812 0)"/>
      <use xlink:href="#DejaVuSans-6d" transform="translate(441.544922 0)"/>
      <use xlink:href="#DejaVuSans-65" transform="translate(538.957031 0)"/>
      <use xlink:href="#DejaVuSans-61" transform="translate(600.480469 0)"/>
      <use xlink:href="#DejaVuSans-6e" transform="translate(661.759766 0)"/>
      <use xlink:href="#DejaVuSans-20" transform="translate(725.138672 0)"/>
      <use xlink:href="#DejaVuSans-6f" transform="translate(756.925781 0)"/>
      <use xlink:href="#DejaVuSans-66" transform="translate(818.107422 0)"/>
      <use xlink:href="#DejaVuSans-20" transform="translate(853.3125 0)"/>
      <use xlink:href="#DejaVuSans-72" transform="translate(885.099609 0)"/>
      <use xlink:href="#DejaVuSans-65" transform="translate(923.962891 0)"/>
      <use xlink:href="#DejaVuSans-6f" transform="translate(985.486328 0)"/>
      <use xlink:href="#DejaVuSans-63" transform="translate(1046.667969 0)"/>
      <use xlink:href="#DejaVuSans-6b" transform="translate(1101.648438 0)"/>
      <use xlink:href="#DejaVuSans-5f" transform="translate(1159.558594 0)"/>
      <use xlink:href="#DejaVuSans-70" transform="translate(1209.558594 0)"/>
      <use xlink:href="#DejaVuSans-72" transform="translate(1273.035156 0)"/>
      <use xlink:href="#DejaVuSans-6f" transform="translate(1311.898438 0)"/>
      <use xlink:href="#DejaVuSans-78" transform="translate(1369.955078 0)"/>
      <use xlink:href="#DejaVuSans-79" transform="translate(1429.134766 0)"/>
      <use xlink:href="#DejaVuSans-5f" transform="translate(1488.314453 0)"/>
      <use xlink:href="#DejaVuSans-70" transform="translate(1538.314453 0)"/>
      <use xlink:href="#DejaVuSans-63" transform="translate(1601.791016 0)"/>
      <use xlink:href="#DejaVuSans-74" transform="translate(1656.771484 0)"/>
      <use xlink:href="#DejaVuSans-5f" transform="translate(1695.980469 0)"/>
      <use xlink:href="#DejaVuSans-62" transform="translate(1745.980469 0)"/>
      <use xlink:href="#DejaVuSans-65" transform="translate(1809.457031 0)"/>
      <use xlink:href="#DejaVuSans-6c" transform="translate(1870.980469 0)"/>
      <use xlink:href="#DejaVuSans-6f" transform="translate(1898.763672 0)"/>
      <use xlink:href="#DejaVuSans-77" transform="translate(1959.945312 0)"/>
      <use xlink:href="#DejaVuSans-5f" transform="translate(2041.732422 0)"/>
      <use xlink:href="#DejaVuSans-30" transform="translate(2091.732422 0)"/>
      <use xlink:href="#DejaVuSans-33" transform="translate(2155.355469 0)"/>
      <use xlink:href="#DejaVuSans-30" transform="translate(2218.978516 0)"/>
     </g>
    </g>
   </g>
   <g id="line2d_25">
    <path d="M 86.638466 120.512344 
L 86.661537 38.478182 
L 86.74753 132.332017 
L 86.797867 155.379284 
L 86.839815 120.512344 
L 86.864984 109.017982 
L 86.930003 137.132252 
L 86.959366 148.405896 
L 87.036969 135.505736 
L 87.053748 134.902987 
L 87.070527 138.237775 
L 87.110378 151.79488 
L 87.202663 146.034083 
L 87.29285 129.37575 
L 87.332701 142.076636 
L 87.355772 147.646887 
L 87.420791 134.630036 
L 87.657795 88.354095 
L 87.659893 88.419993 
L 87.712327 91.379531 
L 87.756372 88.000337 
L 87.869631 79.11477 
L 87.907384 82.707221 
L 88.037422 106.713456 
L 88.593229 196.191915 
L 88.658248 197.378756 
L 88.754728 207.789013 
L 88.792481 209.307722 
L 88.874279 208.578326 
L 88.884766 208.668458 
L 88.987538 213.756266 
L 89.073531 211.852524 
L 89.079823 211.694131 
L 89.119673 214.236877 
L 89.558027 249.128718 
L 89.874732 262.284995 
L 89.90829 260.716184 
L 90.254359 241.183623 
L 90.673836 215.071485 
L 90.678031 215.159108 
L 90.749342 215.343546 
L 90.730465 214.955548 
L 90.793387 215.286973 
L 90.816458 215.257815 
L 90.818556 215.344942 
L 91.298857 239.875018 
L 91.449869 242.720336 
L 91.691068 248.548763 
L 91.726724 247.799422 
L 92.045526 237.070312 
L 92.29092 229.655178 
L 92.29931 229.626065 
L 92.324478 229.935224 
L 92.385303 230.671182 
L 92.418861 229.804666 
L 92.452419 229.174058 
L 92.498561 230.848225 
L 92.689424 236.361759 
L 92.733469 236.140568 
L 92.741858 236.104654 
L 92.764929 236.435174 
L 93.048076 244.050273 
L 93.150848 243.311476 
L 93.152946 243.300756 
L 93.178114 243.689116 
L 93.507404 258.028151 
L 93.513696 257.984214 
L 93.576618 256.764913 
L 93.754895 251.269533 
L 93.805233 251.424884 
L 93.979316 252.641216 
L 94.063211 253.27159 
L 94.130327 252.909131 
L 94.249878 251.594429 
L 94.444935 249.449782 
L 94.474299 249.637271 
L 94.568681 250.490802 
L 94.629505 249.924409 
L 94.660966 249.393653 
L 94.723888 250.13158 
L 94.912652 253.094487 
L 94.935724 252.997317 
L 94.9546 252.899753 
L 94.992353 253.289981 
L 95.023814 254.045139 
L 95.258721 258.701112 
L 95.265013 258.665602 
L 95.304863 259.048182 
L 95.640445 264.016103 
L 95.703367 263.434267 
L 95.845989 261.017139 
L 95.898424 261.275508 
L 95.902618 261.29281 
L 95.92569 260.922957 
L 96.087188 258.36469 
L 96.116552 258.947467 
L 96.357751 262.830392 
L 96.387114 262.671311 
L 96.46262 261.655354 
L 96.557003 258.704352 
L 96.79191 252.513692 
L 96.88 251.470162 
L 96.938727 252.053648 
L 97.007941 252.189276 
L 97.028914 251.959652 
L 97.630864 242.95326 
L 97.878356 236.701434 
L 97.88255 236.724856 
L 97.888843 236.759957 
L 97.93079 236.394686 
L 98.090192 233.634846 
L 98.146821 232.670632 
L 98.218132 233.179327 
L 98.555811 239.215368 
L 98.790718 244.503675 
L 99.092742 249.724719 
L 99.096937 249.711347 
L 99.099034 249.704665 
L 99.138884 249.938433 
L 99.283604 250.639079 
L 99.306675 250.565087 
L 99.453492 249.734362 
L 99.709373 248.195753 
L 99.713568 248.212209 
L 99.747126 248.343474 
L 99.774392 248.021033 
L 99.791171 247.844126 
L 99.845703 248.625742 
L 100.240012 256.529965 
L 100.340686 255.366398 
L 100.365855 255.037159 
L 100.453945 255.30701 
L 100.516867 255.426187 
L 100.542035 255.235991 
L 100.623834 254.64942 
L 100.672073 255.030895 
L 100.751774 255.893643 
L 100.829377 255.470811 
L 100.831475 255.477316 
L 100.858741 255.218572 
L 101.064284 252.597004 
L 101.078966 252.761645 
L 101.156569 253.618973 
L 101.209004 252.972592 
L 101.490054 250.049279 
L 101.50893 250.099417 
L 101.901141 251.762084 
L 102.209457 255.864944 
L 102.217847 255.888436 
L 102.266086 255.770836 
L 102.28706 255.769468 
L 102.345787 255.574487 
L 102.39193 255.798423 
L 102.490507 256.425297 
L 102.538747 256.119233 
L 102.773654 255.06411 
L 102.798822 255.028781 
L 102.821894 255.231326 
L 103.004366 257.123821 
L 103.023243 257.023725 
L 103.151183 255.045565 
L 103.388188 251.707991 
L 103.423843 251.943661 
L 103.455304 251.89869 
L 103.52242 252.554729 
L 103.801373 255.001567 
L 103.816054 254.99589 
L 103.855905 255.251479 
L 103.925119 254.983482 
L 104.097104 254.508193 
L 104.336206 253.991837 
L 104.369764 254.099117 
L 104.946545 259.33229 
L 105.187745 262.879704 
L 105.332464 262.641084 
L 105.412165 262.277692 
L 105.452015 262.526104 
L 105.55269 263.457133 
L 105.63239 263.005601 
L 105.709994 262.770277 
L 105.747747 262.960681 
L 105.894564 263.365916 
L 105.907148 263.38951 
L 105.951193 263.238617 
L 106.005725 263.137195 
L 106.035089 263.318016 
L 106.578311 268.106067 
L 106.641233 268.467512 
L 106.693668 268.13687 
L 106.718836 268.129439 
L 106.762881 268.27269 
L 106.97262 268.991592 
L 106.985204 268.936664 
L 107.094268 268.310541 
L 107.146703 268.554992 
L 107.159287 268.58311 
L 107.20543 268.250944 
L 107.364831 267.395547 
L 107.423558 267.486235 
L 107.503258 267.752416 
L 107.561985 267.50962 
L 107.859814 264.810043 
L 107.899664 264.936841 
L 107.922736 265.062475 
L 107.973073 264.712658 
L 108.132474 264.018827 
L 108.356894 261.473183 
L 108.398842 261.658596 
L 108.52888 262.097685 
L 108.56873 261.994475 
L 108.629555 261.492246 
L 108.700866 261.853263 
L 109.200043 265.847114 
L 109.214725 265.810802 
L 109.216823 265.805618 
L 109.286036 265.916858 
L 109.611131 267.870736 
L 109.334276 265.905529 
L 109.686637 267.485749 
L 109.971881 266.380942 
L 109.99705 266.41662 
L 110.041095 266.286399 
L 110.210983 265.594178 
L 110.408138 264.651486 
L 110.41443 264.660707 
L 110.483644 264.753941 
L 110.515104 264.626783 
L 110.653532 263.366317 
L 110.745817 263.909447 
L 110.957653 265.454197 
L 110.972334 265.366755 
L 110.991211 265.393207 
L 111.037353 264.957699 
L 111.333085 262.51362 
L 111.467317 260.219049 
L 111.599453 259.547221 
L 111.60994 259.586544 
L 111.687543 259.919968 
L 111.710614 259.963869 
L 111.773536 259.786544 
L 111.798704 259.736749 
L 111.851139 259.878982 
L 111.916158 260.181347 
L 111.995859 260.045853 
L 112.090241 260.391233 
L 112.490842 264.024484 
L 112.57264 263.586348 
L 112.952266 261.087313 
L 113.06133 261.487342 
L 113.283653 262.396136 
L 113.333991 262.655911 
L 113.405302 262.9013 
L 113.461931 262.726659 
L 113.652793 261.12447 
L 113.925453 259.217432 
L 113.988375 259.042458 
L 114.026128 259.255834 
L 114.273619 260.8047 
L 114.349125 261.099762 
L 114.854595 263.337392 
L 114.925906 263.242762 
L 114.976244 262.923013 
L 115.076918 262.313309 
L 115.125158 262.60028 
L 115.194372 262.551677 
L 115.259391 262.773309 
L 115.330702 263.041187 
L 115.399915 262.893988 
L 115.425084 262.821669 
L 115.483811 263.039475 
L 115.563512 263.879629 
L 115.796321 265.541477 
L 115.815198 265.563443 
L 115.842464 265.434454 
L 115.980891 264.622882 
L 116.098345 264.717312 
L 116.100442 264.719787 
L 116.136098 264.602752 
L 116.710782 260.931919 
L 116.796774 260.575121 
L 117.019097 259.395779 
L 117.031682 259.362979 
L 117.071532 259.520369 
L 117.090408 259.588291 
L 117.134453 259.307431 
L 117.170109 259.145354 
L 117.237225 259.35653 
L 117.319023 259.512478 
L 117.354679 259.381689 
L 117.566515 258.849318 
L 117.579099 258.877981 
L 117.581197 258.8868 
L 117.633631 258.634561 
L 118.332061 253.749261 
L 118.403372 253.804685 
L 118.506144 254.146383 
L 118.617305 255.096339 
L 118.910939 257.675354 
L 118.957082 257.369194 
L 119.384948 253.122314 
L 119.403825 253.149028 
L 119.502402 253.476504 
L 119.52757 253.528838 
L 119.5842 253.357183 
L 119.665998 252.863393 
L 119.735212 253.199083 
L 120.173565 254.53179 
L 120.226 254.629921 
L 120.257461 254.465342 
L 120.364427 253.990432 
L 120.414765 254.158267 
L 120.588848 254.528932 
L 120.607724 254.487615 
L 120.817463 253.489808 
L 120.897163 253.788581 
L 121.104804 254.417886 
L 121.37327 255.306617 
L 121.150947 254.320441 
L 121.411023 255.165676 
L 121.536866 254.255276 
L 121.624956 253.553763 
L 121.679488 253.802011 
L 121.738215 254.03353 
L 121.805331 253.90147 
L 121.817916 253.885769 
L 121.845182 254.022379 
L 121.889227 254.191005 
L 121.964733 254.075315 
L 121.971025 254.067467 
L 121.998291 254.208653 
L 122.138816 254.742133 
L 122.195445 254.538923 
L 122.344359 253.706649 
L 122.43245 253.745921 
L 122.518442 253.803253 
L 122.554098 253.723193 
L 122.579267 253.69258 
L 122.621214 253.813782 
L 122.883388 254.403115 
L 122.88968 254.395409 
L 122.893874 254.390273 
L 122.935822 254.509619 
L 123.260917 255.821177 
L 123.445487 256.213547 
L 123.514701 256.467829 
L 123.596499 256.344685 
L 123.648933 256.218181 
L 123.703465 256.383125 
L 123.713952 256.415568 
L 123.766387 256.213537 
L 124.171182 254.440022 
L 124.204741 254.230459 
L 124.919949 249.19758 
L 124.984968 249.463957 
L 125.349913 250.973157 
L 125.482048 251.312159 
L 125.742124 252.525367 
L 126.130141 253.02011 
L 126.199354 252.902156 
L 126.346171 252.313416 
L 126.394411 252.432038 
L 126.623026 252.823161 
L 126.895686 252.985403 
L 126.901978 252.978686 
L 127.111717 252.59369 
L 127.38228 251.348112 
L 127.636063 249.62722 
L 127.680109 249.456651 
L 127.74303 249.647399 
L 128.231721 251.049817 
L 128.261084 251.011843 
L 128.271571 251.001514 
L 128.309324 251.108504 
L 128.342882 251.210445 
L 128.397414 250.985842 
L 128.508576 250.634982 
L 128.552621 250.757971 
L 128.806405 251.523088 
L 128.8903 251.782698 
L 129.070675 252.73747 
L 129.983038 258.692691 
L 130.069031 258.808051 
L 130.123563 258.677793 
L 130.314425 257.708772 
L 130.431879 258.06513 
L 130.465437 258.135395 
L 130.54304 258.06315 
L 130.63952 257.919387 
L 130.691954 257.96035 
L 130.731805 258.0064 
L 130.769558 257.888783 
L 130.784239 257.864356 
L 130.838771 258.034614 
L 130.989783 258.137692 
L 131.17645 258.454306 
L 131.478474 259.77299 
L 131.583343 260.011831 
L 131.704992 260.697304 
L 131.958775 261.94577 
L 131.992333 261.907339 
L 132.055255 261.674262 
L 132.137053 261.52362 
L 132.176903 261.626915 
L 132.353084 262.503666 
L 132.42859 262.285935 
L 132.594283 261.950413 
L 132.60477 261.967145 
L 132.673984 262.064337 
L 132.732711 262.002084 
L 132.793535 261.774969 
L 132.856456 261.635454 
L 132.902599 261.782751 
L 133.003273 262.241111 
L 133.064098 262.116077 
L 133.166869 261.839622 
L 133.676534 258.752216 
L 133.863201 258.074658 
L 133.879981 258.125126 
L 133.97646 258.391826 
L 134.020505 258.315158 
L 134.129569 258.014514 
L 134.200881 258.128006 
L 134.242828 258.144743 
L 134.274289 258.053849 
L 134.330918 257.847251 
L 134.412717 257.930344 
L 134.559534 258.010684 
L 134.567923 258.006197 
L 134.599384 257.90427 
L 135.314592 254.921651 
L 135.337664 254.942767 
L 135.400585 254.734666 
L 135.635492 253.773245 
L 135.86201 252.809231 
L 135.864107 252.81122 
L 135.954295 253.048828 
L 136.344409 254.31582 
L 136.417817 254.491787 
L 136.459765 254.318709 
L 136.545758 254.099446 
L 136.587705 254.205206 
L 136.820515 254.815516 
L 136.642237 254.168265 
L 136.875047 254.673472 
L 137.032351 254.444656 
L 137.038643 254.45028 
L 137.107857 254.38561 
L 137.143513 254.495498 
L 137.216921 254.761196 
L 137.294524 254.662991 
L 137.504263 254.11724 
L 137.550405 254.291083 
L 137.839845 255.382404 
L 137.978272 255.647577 
L 138.217374 256.072808 
L 138.240445 256.026751 
L 138.674604 254.585947 
L 138.842395 254.047172 
L 138.968238 253.661499 
L 139.03116 253.727289 
L 139.07101 253.726277 
L 139.096179 253.640897 
L 139.213632 253.043621 
L 139.763147 248.95235 
L 139.939328 248.640505 
L 139.968691 248.738893 
L 140.03371 249.00809 
L 140.094534 248.805711 
L 140.337831 248.046216 
L 140.386071 247.879374 
L 140.53918 247.155446 
L 140.610491 247.235032 
L 140.780379 247.589678 
L 140.824424 247.489851 
L 141.245999 245.880622 
L 141.323602 245.946408 
L 141.438958 245.740602 
L 141.533341 245.662066 
L 141.573191 245.707949 
L 141.73469 245.896267 
L 141.747274 245.860824 
L 141.900383 245.544114 
L 141.912968 245.566583 
L 142.204504 246.511574 
L 142.305179 246.276966 
L 142.65754 246.46093 
L 142.73724 246.285345 
L 142.900836 245.839579 
L 142.923908 245.874911 
L 142.940687 245.880889 
L 142.972147 245.774227 
L 143.326606 244.726146 
L 143.353872 244.752475 
L 143.471325 244.733506 
L 143.477617 244.719755 
L 143.605558 244.720865 
L 143.622337 244.760049 
L 143.80481 244.96759 
L 143.850952 244.831133 
L 143.951627 244.589842 
L 144.012451 244.742918 
L 144.402564 246.305171 
L 144.66264 246.989965 
L 144.763315 246.906532 
L 144.845113 246.725692 
L 144.989832 246.480224 
L 145.038072 246.565796 
L 145.12826 246.827111 
L 145.182792 246.638926 
L 145.231032 246.506258 
L 145.306538 246.571254 
L 145.350583 246.68768 
L 145.411407 246.534751 
L 146.013357 243.246682 
L 146.428639 242.174498 
L 146.455905 242.122182 
L 146.50834 242.257074 
L 146.579651 242.50365 
L 146.669838 242.44232 
L 146.904746 242.157053 
L 146.923622 242.175006 
L 147.378755 242.555061 
L 147.4228 242.497509 
L 147.55074 242.312171 
L 147.749992 241.595645 
L 147.770966 241.615509 
L 147.865348 241.698599 
L 147.905198 241.595269 
L 147.92827 241.555816 
L 148.010068 241.626921 
L 148.062502 241.569371 
L 148.106548 241.568128 
L 148.169469 241.578557 
L 148.196735 241.643847 
L 148.588946 242.294892 
L 148.79449 242.496123 
L 148.828048 242.366922 
L 148.920333 241.94227 
L 149.060858 241.596754 
L 149.098611 241.628744 
L 149.20348 241.653737 
L 149.220259 241.633255 
L 149.364979 241.48847 
L 149.375466 241.498166 
L 149.457264 241.439231 
L 149.461459 241.431157 
L 149.604081 240.915825 
L 150.132622 238.462163 
L 150.206031 238.591696 
L 150.445133 238.97876 
L 150.470301 238.934991 
L 150.753448 238.148556 
L 150.787006 238.271351 
L 151.011427 238.890072 
L 151.095322 238.718528 
L 151.2736 238.084688 
L 151.300866 238.157025 
L 151.395248 238.492789 
L 151.477046 238.294743 
L 151.73083 237.443391 
L 151.821018 237.523486 
L 152.204839 237.745989 
L 152.206936 237.742239 
L 152.2363 237.692626 
L 152.297124 237.80705 
L 152.362143 237.865219 
L 152.404091 237.758976 
L 152.532031 237.571212 
L 152.550908 237.597489 
L 152.69353 238.049376 
L 152.831957 237.965209 
L 152.970385 238.243581 
L 153.138176 238.759403 
L 153.161247 238.74943 
L 153.303869 238.566871 
L 153.417128 238.349789 
L 153.469563 238.490441 
L 153.626867 238.989529 
L 153.714957 238.959859 
L 153.975033 238.967884 
L 154.138629 239.601188 
L 154.407094 240.566862 
L 154.541327 240.545145 
L 154.543424 240.541438 
L 154.912564 240.104174 
L 154.914661 240.105998 
L 154.994362 240.318025 
L 155.013238 240.342598 
L 155.069868 240.183095 
L 155.097134 240.121725 
L 155.151666 240.281302 
L 155.239756 240.513289 
L 155.292191 240.413438 
L 155.422229 240.238615 
L 155.650844 239.542846 
L 155.690694 239.561135 
L 156.003205 239.977271 
L 156.164703 240.137116 
L 156.254891 240.127738 
L 156.277962 240.088111 
L 156.328299 240.101394 
L 156.378637 240.130806 
L 156.569499 240.432393 
L 157.255344 243.113735 
L 157.372797 243.321455 
L 157.429427 243.223216 
L 157.754522 242.319178 
L 158.121564 242.274038 
L 158.308231 242.362837 
L 158.339692 242.309374 
L 158.463438 242.316434 
L 158.721416 242.083622 
L 159.30449 240.201541 
L 159.43243 240.336693 
L 159.531007 240.504243 
L 159.57715 240.382017 
L 159.812057 240.263978 
L 159.84981 240.381688 
L 160.135054 241.244443 
L 160.191684 241.123422 
L 160.281871 241.064924 
L 160.332209 241.104835 
L 160.516778 241.390441 
L 161.143897 242.39846 
L 161.303298 241.929607 
L 161.519329 241.38883 
L 161.741652 240.84858 
L 161.817158 240.882514 
L 161.901053 240.730884 
L 162.102402 240.273336 
L 162.228245 240.232877 
L 162.303751 240.321781 
L 162.322628 240.341499 
L 162.381354 240.241159 
L 162.693865 239.460469 
L 162.811318 239.533325 
L 163.220309 240.329024 
L 163.274841 240.20948 
L 163.436339 240.023763 
L 163.474092 240.074969 
L 163.486677 240.118893 
L 164.011023 241.848211 
L 164.124282 241.736265 
L 164.269001 241.795583 
L 164.359189 241.864952 
L 164.401137 241.758459 
L 164.52698 241.499915 
L 164.571025 241.542326 
L 164.661213 241.943696 
L 165.038742 243.355604 
L 165.397395 243.511157 
L 165.412077 243.488233 
L 165.607133 243.38889 
L 165.806385 243.423411 
L 165.917547 243.634612 
L 165.978371 243.738943 
L 166.028708 243.620622 
L 166.060169 243.541135 
L 166.146162 243.601653 
L 166.431406 243.862618 
L 166.50062 243.715763 
L 166.615976 243.531024 
L 166.655826 243.558895 
L 166.777475 243.510303 
L 167.408788 243.127584 
L 167.496878 242.973114 
L 167.574481 243.004118 
L 167.752759 243.088938 
L 167.777928 243.011593 
L 167.964595 242.741968 
L 168.063172 242.400363 
L 168.123996 242.189606 
L 168.180626 242.353701 
L 168.398754 242.896409 
L 168.581226 242.939984 
L 168.784673 243.5256 
L 169.191566 244.6859 
L 169.309019 244.750147 
L 169.346772 244.657129 
L 169.441154 244.49976 
L 169.812392 242.711985 
L 169.963403 242.535576 
L 170.364004 241.819482 
L 170.431121 241.861199 
L 170.445802 241.90265 
L 170.735241 242.444576 
L 170.749923 242.436682 
L 170.898838 242.415006 
L 171.039362 242.643472 
L 171.240711 242.936292 
L 171.25749 242.927544 
L 171.423184 242.493503 
L 171.666481 241.636767 
L 171.710526 241.686579 
L 171.796519 241.773607 
L 171.832174 241.643544 
L 172.662739 239.086377 
L 172.671128 239.092268 
L 172.755024 239.281885 
L 173.124164 240.252893 
L 173.38424 240.577641 
L 173.419895 240.541288 
L 173.7366 240.546621 
L 173.923268 240.943633 
L 174.030234 240.828446 
L 174.139298 240.90586 
L 175.091511 244.038376 
L 175.450164 244.522276 
L 175.494209 244.486155 
L 175.611663 244.535567 
L 175.649416 244.453444 
L 175.71024 244.185482 
L 176.03114 242.842877 
L 176.13601 242.722608 
L 176.196834 242.800985 
L 176.284924 242.886007 
L 176.324774 242.825355 
L 176.444325 242.666714 
L 176.519831 242.541129 
L 176.565974 242.64549 
L 176.90575 243.225437 
L 177.558037 244.211292 
L 177.593693 244.127721 
L 177.74051 243.837859 
L 177.801334 243.920289 
L 177.887327 244.100194 
L 177.973319 244.140018 
L 178.006878 244.104884 
L 178.147402 244.14687 
L 178.151597 244.161713 
L 178.41377 244.876063 
L 178.46201 244.857744 
L 178.722086 244.641086 
L 178.910851 244.234597 
L 178.946506 244.278309 
L 179.284185 244.35193 
L 179.351302 244.3878 
L 179.365983 244.439032 
L 179.489729 244.504321 
L 179.498119 244.501204 
L 179.60928 244.344883 
L 179.785461 244.217466 
L 179.85048 244.076811 
L 180.064413 243.653239 
L 180.244788 243.476112 
L 180.355949 243.226119 
L 180.412579 243.302132 
L 180.775427 244.15875 
L 180.874004 244.344108 
L 181.159248 244.760746 
L 181.551459 244.731821 
L 181.868165 245.217475 
L 182.019176 245.177467 
L 182.151312 245.246716 
L 182.354758 245.489483 
L 182.509965 245.522095 
L 182.937831 245.759951 
L 182.971389 245.659818 
L 183.202102 244.565828 
L 183.768396 242.298583 
L 183.978134 242.213573 
L 184.15012 242.041275 
L 184.196263 241.958784 
L 184.244502 242.096831 
L 184.387125 242.382197 
L 184.429072 242.328002 
L 184.689148 241.849842 
L 184.697538 241.854774 
L 185.083457 241.952989 
L 185.198813 241.79943 
L 185.5302 241.394903 
L 185.584732 241.49711 
L 185.821736 241.717073 
L 185.84271 241.689556 
L 185.958067 241.594171 
L 185.989527 241.637066 
L 186.109078 241.665091 
L 186.121663 241.640332 
L 186.446757 241.146134 
L 186.469829 241.159618 
L 186.560016 241.338125 
L 186.794923 241.727518 
L 186.966909 241.787257 
L 186.981591 241.795701 
L 187.023538 241.743152 
L 187.061291 241.73122 
L 187.145187 241.820521 
L 187.837324 243.166446 
L 187.937999 243.020464 
L 188.195977 242.152975 
L 188.305041 242.275413 
L 188.397326 242.201879 
L 188.625941 242.085537 
L 188.630136 242.091579 
L 188.728713 242.113913 
L 188.755979 242.083283 
L 188.974107 241.494021 
L 189.043321 241.575378 
L 189.143995 241.749452 
L 189.209014 241.683581 
L 189.544596 241.458071 
L 189.825646 241.741654 
L 190.121377 242.309359 
L 190.389842 242.880657 
L 190.578607 243.469233 
L 190.620555 243.455733 
L 190.687671 243.318706 
L 190.964526 242.641987 
L 190.97711 242.652442 
L 191.065201 242.684216 
L 191.098759 242.637781 
L 191.26655 242.547775 
L 191.419659 242.614866 
L 191.57906 242.701265 
L 191.616813 242.696658 
L 191.648274 242.61358 
L 191.799286 242.55783 
L 191.868499 242.650573 
L 192.120186 243.266647 
L 192.22086 243.169156 
L 192.350898 243.241994 
L 192.634045 243.45247 
L 192.636143 243.450037 
L 192.797641 243.40623 
L 192.808128 243.420609 
L 192.95075 243.527614 
L 192.990601 243.485051 
L 193.089178 243.568656 
L 193.363935 243.821672 
L 193.387007 243.791505 
L 193.988956 242.657898 
L 194.04978 242.718042 
L 194.196597 242.72923 
L 194.209182 242.681781 
L 194.402141 242.323693 
L 194.494426 242.410895 
L 194.530082 242.497607 
L 194.613977 242.420211 
L 194.798547 242.302423 
L 195.037649 242.006085 
L 195.111058 242.114204 
L 195.266264 242.170271 
L 195.278848 242.156179 
L 195.402594 241.922869 
L 195.520048 242.050479 
L 195.683644 242.01273 
L 195.866116 241.837253 
L 195.931135 241.902466 
L 196.199601 242.449607 
L 196.486943 242.957648 
L 196.593909 243.135553 
L 197.021776 244.056276 
L 197.13084 244.231607 
L 197.281852 244.335872 
L 197.405598 244.407661 
L 197.590167 244.732752 
L 197.617433 244.693777 
L 197.867022 244.334129 
L 198.083053 244.215373 
L 198.10193 244.236522 
L 198.225675 244.178376 
L 198.64725 243.60904 
L 198.825528 243.821655 
L 198.955566 243.809241 
L 199.066727 243.891011 
L 199.2492 244.092783 
L 199.297439 244.008213 
L 199.402309 243.96161 
L 199.431672 244.022661 
L 199.616242 244.21795 
L 199.635118 244.197285 
L 199.683358 244.147826 
L 199.748377 244.207851 
L 199.84276 244.13291 
L 199.943434 243.859073 
L 200.125907 243.624367 
L 200.769804 242.850877 
L 200.830628 243.019117 
L 201.000517 243.219542 
L 201.15782 243.596776 
L 201.520668 244.376201 
L 201.541642 244.356859 
L 201.585687 244.364924 
L 201.62344 244.42873 
L 201.858347 244.759287 
L 202.166663 244.781887 
L 202.179247 244.786222 
L 202.231682 244.687633 
L 202.395278 244.617538 
L 202.598724 244.446745 
L 202.741347 244.351087 
L 202.959475 244.172115 
L 203.378952 242.58946 
L 203.50899 242.708987 
L 203.643222 242.838301 
L 203.69356 242.76806 
L 204.092063 242.244604 
L 204.100453 242.258281 
L 204.316483 242.498929 
L 204.333262 242.481539 
L 204.708694 242.251095 
L 204.824051 242.18627 
L 204.933115 242.110586 
L 204.972965 242.188598 
L 205.761582 243.516514 
L 205.920983 243.883998 
L 206.243981 244.440622 
L 206.309 244.415639 
L 206.325779 244.363769 
L 206.462109 244.009824 
L 206.52503 244.087478 
L 207.185707 244.512596 
L 207.31155 244.683478 
L 207.347206 244.635916 
L 207.418517 244.516011 
L 207.502412 244.586786 
L 207.63245 244.295209 
L 207.712151 244.17652 
L 207.770877 244.274617 
L 208.012077 244.70601 
L 208.12953 244.638474 
L 208.249081 244.491757 
L 208.309906 244.411269 
L 208.377022 244.45243 
L 208.463015 244.497446 
L 208.511255 244.44221 
L 208.616124 244.37875 
L 208.660169 244.447868 
L 209.025114 244.908003 
L 209.400546 245.256885 
L 209.423617 245.207459 
L 209.799049 244.774016 
L 209.937477 244.849152 
L 210.268864 245.710701 
L 210.463921 246.03947 
L 211.267219 246.894567 
L 211.309167 246.846022 
L 211.39516 246.802574 
L 211.441302 246.870181 
L 211.692989 247.103672 
L 211.873364 247.474385 
L 212.341081 248.577287 
L 212.408197 248.538794 
L 212.50258 248.584462 
L 212.546625 248.527734 
L 212.892693 248.535127 
L 213.196814 249.606753 
L 213.410747 250.158803 
L 213.463182 250.091883 
L 213.589025 250.164511 
L 214.291649 251.624084 
L 214.797119 252.51588 
L 214.866333 252.424136 
L 215.248057 251.788894 
L 215.386485 251.630256 
L 215.602516 251.398977 
L 215.948584 251.010956 
L 215.952779 251.015432 
L 215.996824 251.040644 
L 216.038772 250.949014 
L 216.718325 249.60819 
L 216.808512 249.696106 
L 216.871434 249.743226 
L 216.930161 249.686418 
L 217.118925 249.518247 
L 217.439825 248.84158 
L 217.454507 248.847265 
L 217.695706 249.059348 
L 217.722972 249.099908 
L 217.792186 249.004858 
L 218.100502 248.85771 
L 218.608069 248.823481 
L 219.235187 249.69588 
L 219.524627 249.723838 
L 220.52508 250.61305 
L 221.403884 250.46245 
L 221.477293 250.372216 
L 221.594746 250.31205 
L 221.62411 250.342216 
L 221.970178 250.538643 
L 222.079242 250.695859 
L 222.234449 250.885987 
L 222.282689 250.821633 
L 222.494525 250.270291 
L 222.775574 249.612236 
L 222.790256 249.620372 
L 223.262168 250.083894 
L 223.30831 249.996201 
L 223.570484 249.572839 
L 223.906065 249.40637 
L 224.017227 249.483789 
L 224.050785 249.434536 
L 224.243744 248.919571 
L 224.726143 248.112154 
L 224.910713 248.172597 
L 225.10577 248.284205 
L 225.409891 248.514107 
L 225.871316 249.297782 
L 226.708173 250.885449 
L 226.922106 251.23654 
L 227.316414 251.666669 
L 227.840761 251.623619 
L 228.176343 251.954604 
L 228.304283 252.112807 
L 228.463684 252.197824 
L 228.648254 252.254009 
L 228.725858 252.360391 
L 228.782487 252.286737 
L 228.962862 252.209413 
L 229.27747 252.230807 
L 229.432677 252.165194 
L 229.7347 251.962093 
L 230.238073 251.387601 
L 230.366013 251.465684 
L 230.56107 251.54382 
L 230.577849 251.518113 
L 230.78549 251.401021 
L 230.999424 251.45019 
L 231.324518 251.896729 
L 231.691561 252.092223 
L 232.188641 252.138053 
L 232.626995 251.818687 
L 232.66265 251.858607 
L 232.870292 252.203496 
L 233.149244 252.757299 
L 233.474339 252.547601 
L 233.715538 252.479108 
L 233.885426 252.649352 
L 234.806179 254.053966 
L 234.867003 253.957383 
L 234.921535 253.914637 
L 234.990749 253.968798 
L 235.183708 253.914216 
L 235.475245 253.675616 
L 235.569627 253.533255 
L 235.73532 253.415642 
L 235.74371 253.42327 
L 235.882137 253.698668 
L 236.282738 254.383185 
L 236.312102 254.348144 
L 236.544911 254.19664 
L 236.616222 254.108047 
L 236.807085 253.910753 
L 236.905662 253.995617 
L 237.21188 254.450893 
L 237.289483 254.371932 
L 237.390158 254.230247 
L 237.480345 254.053241 
L 237.553754 254.108926 
L 237.769785 254.060785 
L 237.849485 253.992878 
L 237.897725 254.065712 
L 238.124243 254.356669 
L 238.382221 254.438357 
L 238.474506 254.522606 
L 238.646492 254.629055 
L 238.648589 254.627204 
L 238.90447 254.544821 
L 239.31346 255.048803 
L 239.351213 255.00817 
L 239.584023 254.943348 
L 239.586121 254.946414 
L 239.760204 255.39422 
L 240.316011 256.809283 
L 240.462828 256.789015 
L 240.808896 256.796004 
L 240.863428 256.841528 
L 240.922155 256.782336 
L 241.624779 255.596587 
L 241.912121 255.399798 
L 242.239313 254.858024 
L 242.524558 254.889132 
L 242.683959 254.881773 
L 242.862237 254.58306 
L 242.983885 254.28426 
L 243.086657 254.377545 
L 243.587932 254.408035 
L 243.705386 254.35571 
L 243.736847 254.385061 
L 243.864787 254.444451 
L 243.908832 254.386653 
L 244.764566 253.803427 
L 245.33086 253.532403 
L 245.794382 252.416181 
L 245.804869 252.425179 
L 246.064945 252.503143 
L 246.276781 252.3327 
L 246.394234 252.24401 
L 246.4215 252.288489 
L 246.601876 252.447323 
L 246.920678 252.428482 
L 247.627497 251.514703 
L 247.679932 251.564125 
L 247.803678 251.604421 
L 247.826749 251.581 
L 248.005027 251.294291 
L 248.344803 250.789673 
L 248.376264 250.818876 
L 248.53986 250.814733 
L 248.810423 250.738545 
L 249.04533 250.693495 
L 249.255068 250.596001 
L 249.523534 250.563669 
L 249.640987 250.49299 
L 249.674546 250.511135 
L 250.154847 250.54023 
L 250.450578 250.354762 
L 250.64983 250.10547 
L 250.763089 250.253915 
L 251.016872 250.417862 
L 251.207735 250.256939 
L 251.404889 250.206496 
L 251.421668 250.229739 
L 251.723691 250.459718 
L 251.805489 250.371498 
L 252.02152 250.098595 
L 252.034104 250.104623 
L 252.39905 250.097866 
L 252.633957 250.154201 
L 252.738826 250.155973 
L 252.763995 250.119384 
L 252.866767 250.091195 
L 252.900325 250.122616 
L 253.172985 250.206834 
L 253.53793 250.232512 
L 254.016134 250.486519 
L 254.441903 250.49454 
L 254.660031 250.626297 
L 254.670518 250.618176 
L 254.976737 250.243249 
L 255.767451 248.088589 
L 256.061085 247.479732 
L 256.574944 246.983149 
L 256.583334 246.990159 
L 256.958766 247.446419 
L 257.269179 247.904112 
L 257.451652 248.074604 
L 257.636222 248.184988 
L 257.814499 248.474177 
L 257.946635 248.580367 
L 257.984388 248.559818 
L 258.252853 248.61325 
L 258.504539 248.744553 
L 258.533903 248.702994 
L 258.99323 248.10654 
L 259.154729 248.184022 
L 259.624543 248.710738 
L 260.058702 249.368216 
L 260.153084 249.229977 
L 260.32507 249.185732 
L 260.327167 249.187421 
L 260.532711 249.49514 
L 261.583501 250.696688 
L 261.749195 250.770732 
L 262.122529 250.946054 
L 262.130919 250.931262 
L 262.602831 250.514301 
L 262.783206 250.518638 
L 263.095716 250.193727 
L 263.594894 250.220369 
L 263.682984 250.183397 
L 263.722835 250.218872 
L 263.930476 250.243765 
L 264.035345 250.253835 
L 264.04793 250.270024 
L 264.484186 250.6504 
L 264.618418 250.617635 
L 264.821865 250.542823 
L 264.970779 250.62159 
L 265.111304 250.62116 
L 265.203589 250.669544 
L 265.211979 250.684451 
L 265.564339 251.08479 
L 265.761494 251.097208 
L 265.994303 251.156891 
L 267.128989 252.167928 
L 267.330338 252.459583 
L 267.365994 252.428359 
L 267.783373 252.217667 
L 268.460829 251.545263 
L 268.467121 251.553116 
L 268.576185 251.601457 
L 268.618133 251.565051 
L 268.819482 251.631418 
L 269.004052 251.759112 
L 269.060681 251.675155 
L 269.192817 251.620317 
L 269.21379 251.660771 
L 269.352218 251.759675 
L 269.368997 251.74146 
L 269.696189 251.172646 
L 269.765403 251.128388 
L 269.817837 251.180145 
L 269.966752 251.234748 
L 269.985628 251.215148 
L 270.312821 251.117211 
L 270.579188 251.301555 
L 270.845556 251.463969 
L 270.879115 251.391216 
L 271.197917 250.437989 
L 271.42863 249.959885 
L 271.760017 249.53552 
L 271.79777 249.559899 
L 272.628334 250.323812 
L 272.852755 250.423391 
L 273.117025 250.607678 
L 273.553281 250.966802 
L 274.127965 250.430794 
L 274.327217 250.242871 
L 274.335606 250.249072 
L 275.034036 250.629903 
L 275.489168 250.450496 
L 275.963177 250.660533 
L 276.05756 250.572893 
L 276.210669 250.527257 
L 276.212766 250.528788 
L 276.686776 251.01239 
L 276.816813 251.013959 
L 277.047526 251.077631 
L 277.336965 251.150134 
L 277.691423 251.186777 
L 277.748053 251.214842 
L 277.806779 251.164872 
L 277.94311 251.064898 
L 277.98296 251.125993 
L 278.136069 251.164666 
L 278.266107 251.250356 
L 278.450677 251.318307 
L 278.48004 251.270891 
L 278.679292 251.013052 
L 278.729629 251.07559 
L 278.947757 251.223232 
L 279.6357 251.510058 
L 279.927236 252.0233 
L 280.225065 252.393025 
L 280.369785 252.541567 
L 281.160499 253.62015 
L 281.407991 253.678443 
L 281.592561 253.72182 
L 281.756157 253.797715 
L 282.42732 254.402066 
L 282.706272 254.35326 
L 282.920206 254.166265 
L 283.067023 254.246012 
L 283.723504 254.562447 
L 283.994067 254.506116 
L 283.996165 254.509448 
L 284.526803 255.256087 
L 284.570848 255.216621 
L 284.914819 254.991457 
L 285.04276 254.946365 
L 285.269278 254.926297 
L 285.472724 255.084234 
L 285.778942 255.261859 
L 285.953025 255.332512 
L 286.250854 255.593988 
L 286.429132 255.440572 
L 286.733253 255.26364 
L 286.779395 255.25133 
L 286.817148 255.188413 
L 287.242918 254.68831 
L 287.257599 254.702816 
L 287.490409 254.797723 
L 288.316779 254.868259 
L 288.729964 254.72545 
L 289.375959 255.417111 
L 289.43888 255.347489 
L 290.227497 254.954273 
L 290.40997 254.941655 
L 290.550495 254.980643 
L 290.711993 254.902742 
L 290.860908 254.875517 
L 290.974167 254.961794 
L 291.240535 255.167469 
L 291.441884 255.306362 
L 291.475442 255.262288 
L 291.746005 255.128463 
L 292.203235 255.114838 
L 292.337467 255.120075 
L 292.341662 255.12463 
L 292.798892 255.457931 
L 293.067358 255.511566 
L 293.591704 255.917765 
L 293.790956 255.655238 
L 294.317399 255.245789 
L 294.54182 255.182508 
L 294.734779 254.812299 
L 294.944518 254.64554 
L 295.309463 254.680802 
L 295.433209 254.818833 
L 295.561149 254.812951 
L 295.726843 254.83669 
L 295.90512 254.819126 
L 296.056132 254.897949 
L 296.865723 255.600036 
L 297.073364 255.603211 
L 297.201305 255.611161 
L 297.50962 255.788368 
L 298.19966 256.095057 
L 298.323406 256.146142 
L 298.591871 256.323256 
L 298.619137 256.296933 
L 298.755467 256.339741 
L 298.975693 256.346489 
L 299.16236 256.273991 
L 299.690901 255.687876 
L 300.026483 255.505203 
L 300.227832 255.361251 
L 300.555024 255.18132 
L 300.77525 254.952541 
L 300.917872 254.732544 
L 301.117124 254.683991 
L 301.404466 254.632952 
L 302.637728 253.509173 
L 303.01316 253.320918 
L 303.252262 253.232379 
L 303.466196 253.237339 
L 303.774511 253.177681 
L 304.173015 253.56021 
L 305.016164 253.624969 
L 305.330772 253.561359 
L 305.611821 254.009469 
L 305.876092 254.263778 
L 306.280887 254.459086 
L 306.545158 254.570395 
L 306.72763 254.495922 
L 306.949953 254.427169 
L 307.539319 254.657872 
L 307.954601 254.686032 
L 308.137074 254.752605 
L 308.405539 254.78561 
L 308.751608 254.968509 
L 308.961346 254.96577 
L 309.259175 254.822993 
L 309.471011 254.892416 
L 309.915657 255.181314 
L 310.148466 255.245947 
L 310.400153 255.341855 
L 310.773487 255.528453 
L 311.696337 256.290868 
L 312.640161 256.584249 
L 312.79327 256.634049 
L 312.812146 256.600281 
L 313.15402 255.763475 
L 313.411998 255.345582 
L 313.753872 255.067416 
L 313.79582 255.117761 
L 314.110428 255.363145 
L 314.427133 255.537392 
L 314.720767 255.75281 
L 315.125563 255.942849 
L 315.509384 256.161866 
L 316.100847 255.682159 
L 316.348338 255.592907 
L 316.505642 255.734817 
L 316.866393 255.929754 
L 317.115982 255.840116 
L 317.640328 255.849017 
L 317.992689 255.805156 
L 318.166772 255.752073 
L 319.217562 256.228936 
L 319.769174 256.220204 
L 319.90131 256.159424 
L 319.939063 256.209881 
L 320.087977 256.226236 
L 320.232697 256.30929 
L 320.39839 256.346324 
L 320.410974 256.329377 
L 320.639589 256.098027 
L 320.681537 256.146706 
L 320.90386 256.259153 
L 321.646335 256.509166 
L 321.851878 256.854753 
L 322.179071 257.192893 
L 322.334277 257.333035 
L 323.116602 258.182104 
L 323.808739 258.414257 
L 324.098178 258.609772 
L 324.295333 258.755049 
L 324.502974 258.796926 
L 324.679154 258.715868 
L 324.895185 258.601587 
L 324.89938 258.605458 
L 325.264325 258.791487 
L 325.696386 258.901955 
L 325.956462 258.877836 
L 326.331894 259.372145 
L 326.474516 259.468005 
L 326.493393 259.453157 
L 326.868825 259.246179 
L 327.003058 259.192911 
L 327.175043 259.182711 
L 327.567254 259.360521 
L 327.88396 259.498794 
L 328.028679 259.634743 
L 328.251002 259.686958 
L 328.678869 259.434731 
L 328.773251 259.361201 
L 329.194826 258.953504 
L 329.211605 258.968689 
L 329.452804 259.03832 
L 329.62479 259.116393 
L 329.962469 259.171659 
L 330.222545 259.102211 
L 330.583295 258.915729 
L 330.925169 259.084699 
L 331.321575 259.519145 
L 332.225548 259.132061 
L 332.632441 259.088188 
L 332.844277 259.042907 
L 332.984801 259.177224 
L 333.389597 259.391698 
L 333.723081 259.233883 
L 334.295668 259.231475 
L 334.757092 259.492448 
L 334.971026 259.4997 
L 335.147206 259.716124 
L 335.317094 259.751602 
L 335.407282 259.82788 
L 335.554099 259.856556 
L 335.768032 259.609572 
L 336.158146 259.289797 
L 336.586013 259.093538 
L 336.913205 258.772125 
L 337.074704 258.774403 
L 337.395604 258.938793 
L 337.515155 258.910237 
L 337.691335 258.939466 
L 337.873807 258.909154 
L 338.022722 258.992929 
L 338.836507 259.557517 
L 339.247595 259.589818 
L 339.534937 259.692308 
L 339.688046 259.772021 
L 339.939732 260.01675 
L 340.151568 259.938681 
L 340.281606 259.990781 
L 340.537487 260.126698 
L 340.732544 260.144362 
L 340.996815 260.154992 
L 341.158313 260.012552 
L 341.502285 259.671096 
L 341.902885 259.48065 
L 342.28461 259.286364 
L 342.458693 259.202202 
L 342.7733 258.906542 
L 343.066934 258.717327 
L 343.364763 258.654966 
L 343.736 258.370079 
L 343.870233 258.314923 
L 344.239373 257.93821 
L 344.717577 257.663934 
L 344.912634 257.585063 
L 345.208365 257.471846 
L 345.428591 257.461189 
L 345.732712 257.425769 
L 346.131215 257.731243 
L 346.548595 257.820698 
L 346.781404 257.762754 
L 346.928221 257.788456 
L 346.938708 257.779321 
L 347.288972 257.718721 
L 347.576314 258.107121 
L 347.828 258.291447 
L 348.260061 258.470698 
L 348.515942 258.541603 
L 348.692123 258.457401 
L 348.895569 258.38546 
L 349.20808 258.544476 
L 349.625459 258.977744 
L 349.776471 258.928953 
L 350.187559 258.606935 
L 350.351155 258.688528 
L 351.198499 259.250585 
L 351.345316 259.335305 
L 351.496327 259.532536 
L 351.712358 259.658574 
L 352.031161 259.818173 
L 352.840752 260.34145 
L 353.174236 260.198894 
L 353.365098 260.115124 
L 353.671316 260.168016 
L 354.088696 260.480635 
L 355.154168 261.114974 
L 355.407952 261.346056 
L 355.607203 261.262663 
L 355.808552 261.234083 
L 356.372749 261.55001 
L 356.563611 261.531642 
L 356.922264 261.579935 
L 357.436124 261.437014 
L 357.738147 261.682274 
L 358.317026 262.075813 
L 358.549835 262.170669 
L 358.921073 262.221558 
L 359.262946 262.16847 
L 359.760027 262.280389 
L 359.898454 262.28619 
L 360.332613 262.60856 
L 360.647221 262.869429 
L 361.240781 262.866575 
L 361.66655 263.173745 
L 361.920334 263.237231 
L 362.203481 263.162781 
L 362.406928 263.01194 
L 362.620861 262.891278 
L 362.895618 262.727252 
L 363.216518 262.524244 
L 363.558392 262.571921 
L 363.684235 262.531783 
L 363.889779 262.549032 
L 364.714052 263.052067 
L 364.867161 263.096408 
L 365.324391 263.31036 
L 365.582369 263.372087 
L 365.871809 263.539263 
L 365.878101 263.532007 
L 366.075255 263.511034 
L 366.66462 263.698708 
L 366.826119 263.711302 
L 368.241854 263.552607 
L 368.480956 263.597085 
L 368.720058 263.598902 
L 368.957063 263.694191 
L 369.672271 263.455068 
L 369.871523 263.592418 
L 370.108528 263.780688 
L 370.381188 263.840145 
L 370.66014 264.097212 
L 370.836321 264.229451 
L 371.132052 264.451502 
L 371.490705 264.495626 
L 371.746586 264.415121 
L 372.077973 264.371021 
L 372.72187 264.531433 
L 372.984043 264.594254 
L 373.351086 264.73124 
L 373.77266 264.763325 
L 374.080976 264.688918 
L 374.336857 264.622666 
L 375.389745 265.197047 
L 375.61836 265.320959 
L 375.863754 265.161106 
L 376.098661 265.061875 
L 376.302108 265.030334 
L 376.499262 264.940456 
L 378.14571 265.248306 
L 378.344961 265.296793 
L 378.69103 265.118162 
L 378.844139 265.136817 
L 379.5174 265.10493 
L 379.710359 265.132696 
L 379.93478 265.048277 
L 380.10257 265.089079 
L 380.742273 265.590235 
L 380.949914 265.725763 
L 381.230964 266.065083 
L 381.694486 266.49865 
L 382.214638 266.667212 
L 383.376589 267.693329 
L 383.924007 267.642662 
L 384.121161 267.556511 
L 384.299439 267.633022 
L 384.670676 267.850942 
L 384.895097 267.985512 
L 385.295697 268.232031 
L 385.585137 268.288671 
L 385.748733 268.417438 
L 386.029782 268.625287 
L 386.040269 268.616965 
L 386.20806 268.624236 
L 386.686264 268.824823 
L 386.803718 268.871216 
L 387.219 269.128338 
L 388.097805 269.874984 
L 388.301251 269.955937 
L 388.896908 269.948948 
L 389.433839 270.32306 
L 389.595338 270.180006 
L 389.966575 269.77221 
L 390.711147 269.733883 
L 391.113845 269.657351 
L 391.298415 269.684053 
L 391.508154 269.815998 
L 391.902462 269.952099 
L 392.059766 269.943348 
L 392.787559 270.306659 
L 393.9579 270.188784 
L 394.350111 270.418282 
L 394.543071 270.374326 
L 394.905918 270.190016 
L 395.308616 270.017243 
L 395.589666 269.933489 
L 396.048994 269.717737 
L 396.518808 269.739262 
L 396.940382 269.783318 
L 397.54443 269.457688 
L 399.323013 269.00546 
L 399.832677 268.27239 
L 400.709385 267.747577 
L 401.082719 267.773332 
L 401.267289 267.773448 
L 401.466541 267.682037 
L 401.70774 267.63967 
L 402.030737 267.561006 
L 403.058456 266.927985 
L 403.568121 267.091699 
L 404.155389 267.199515 
L 404.763631 266.978058 
L 404.979662 266.877486 
L 405.151647 266.859741 
L 405.403334 266.760089 
L 406.108055 266.72302 
L 406.382813 266.548072 
L 406.554798 266.454896 
L 407.538472 265.362377 
L 409.566644 264.900195 
L 410.191665 264.74194 
L 410.42028 264.655756 
L 410.65309 264.62286 
L 410.879608 264.684271 
L 411.112417 264.3801 
L 411.412344 264.177311 
L 412.461036 263.833584 
L 412.976993 264.041236 
L 413.543287 263.992413 
L 413.966959 263.8262 
L 415.412058 264.497366 
L 415.756029 264.663973 
L 416.10839 264.914292 
L 416.395732 265.085017 
L 416.624347 264.99794 
L 417.232589 264.611178 
L 417.507346 264.49719 
L 417.748546 264.469399 
L 417.876486 264.53336 
L 418.413417 264.998405 
L 418.608474 264.90729 
L 419.736867 264.246844 
L 420.187805 264.297312 
L 420.433199 264.2141 
L 421.326686 264.418768 
L 421.599346 264.516245 
L 422.113205 264.714175 
L 422.578825 264.75065 
L 422.7592 264.880421 
L 423.065418 265.007332 
L 423.851938 265.179058 
L 424.206396 265.147256 
L 424.544075 265.070487 
L 424.82932 264.949671 
L 425.196362 265.09745 
L 425.506775 265.226999 
L 425.827675 265.287089 
L 426.098238 265.381259 
L 426.993822 265.582423 
L 427.193073 265.576361 
L 427.742588 265.375132 
L 427.960716 265.24956 
L 428.355025 265.201742 
L 428.545887 265.190692 
L 429.638625 264.574911 
L 430.049713 264.701978 
L 430.425145 264.663539 
L 430.553085 264.612642 
L 430.905446 264.506591 
L 431.094211 264.415148 
L 431.362676 264.219229 
L 431.798932 264.039771 
L 432.165975 263.846566 
L 432.568673 263.966198 
L 432.839235 263.733726 
L 433.736917 262.837702 
L 434.296919 262.641921 
L 434.647182 262.331674 
L 435.087633 261.906241 
L 435.446286 261.518168 
L 435.888834 261.342183 
L 436.127936 261.192666 
L 436.360746 261.217091 
L 437.298277 261.668965 
L 439.334839 261.479737 
L 439.850796 261.781308 
L 440.083606 261.859255 
L 440.387726 262.085279 
L 440.683458 262.251717 
L 440.966605 262.321738 
L 441.10713 262.349184 
L 441.123909 262.333998 
L 442.103388 261.596294 
L 442.942342 262.014777 
L 443.149983 262.080305 
L 444.261598 262.085337 
L 444.460849 261.825532 
L 444.704146 261.637254 
L 444.890813 261.682653 
L 445.438231 261.7597 
L 445.985649 261.706974 
L 446.203777 261.659426 
L 446.839285 261.614668 
L 447.359436 261.428894 
L 447.781011 261.290905 
L 448.529778 261.672848 
L 448.831801 261.784194 
L 449.58686 261.787144 
L 450.308361 262.089049 
L 450.742519 262.137777 
L 452.489642 263.047268 
L 452.787471 262.965675 
L 452.955261 263.05363 
L 453.225824 263.084111 
L 453.425076 263.035318 
L 454.628975 262.973019 
L 455.132348 262.911359 
L 455.346281 262.870989 
L 455.728005 262.799022 
L 456.432727 262.329912 
L 457.47303 262.811761 
L 457.693256 262.803183 
L 458.152583 262.844507 
L 458.309887 262.851433 
L 458.643371 263.045237 
L 458.90135 263.181423 
L 459.090114 263.22049 
L 459.673188 263.249013 
L 459.95214 263.382689 
L 460.340156 263.116314 
L 460.562479 263.002413 
L 460.851918 263.073273 
L 461.151845 262.991681 
L 461.344804 262.800093 
L 461.495816 262.815878 
L 461.669899 262.758331 
L 461.940462 262.623776 
L 462.160687 262.622407 
L 462.320088 262.594586 
L 462.93672 262.684983 
L 463.156945 262.817183 
L 463.523988 263.04265 
L 463.949757 263.195216 
L 464.587362 263.568831 
L 464.90197 263.636424 
L 465.459875 263.827474 
L 466.235907 263.479108 
L 466.502275 263.551799 
L 467.242652 263.510266 
L 467.485949 263.448979 
L 467.645351 263.315776 
L 467.832018 263.23009 
L 468.379436 263.265378 
L 468.662583 263.242116 
L 469.019138 263.086447 
L 470.101389 263.078582 
L 470.569106 263.023214 
L 470.992778 263.219689 
L 471.242367 263.295937 
L 471.898849 263.535936 
L 472.089711 263.348733 
L 472.3393 263.13367 
L 472.823796 263.178317 
L 473.125819 263.21981 
L 473.522225 263.034293 
L 473.755035 262.832215 
L 474.442977 261.848424 
L 475.487476 261.839011 
L 475.793694 261.730698 
L 476.003432 261.770806 
L 476.391449 261.935018 
L 476.813023 261.899594 
L 476.972425 261.863014 
L 477.148605 261.859805 
L 477.5534 261.957836 
L 477.761042 261.818439 
L 478.25183 261.657165 
L 478.824416 261.692787 
L 479.640299 262.189167 
L 479.938128 262.226485 
L 480.212885 262.244396 
L 480.424721 262.23536 
L 480.917607 262.281463 
L 481.758659 262.436683 
L 482.224278 262.20036 
L 482.354316 262.101149 
L 482.503231 262.104311 
L 482.809449 262.146478 
L 483.15342 262.141482 
L 483.801512 262.23221 
L 484.539792 262.246631 
L 484.81455 262.269506 
L 485.068333 262.347393 
L 485.651406 262.417672 
L 485.959722 262.365452 
L 486.41066 262.39231 
L 486.641372 262.193168 
L 486.911935 261.991892 
L 487.192985 262.009303 
L 487.534859 262.001942 
L 487.780253 262.080092 
L 488.258457 262.485438 
L 489.109995 262.675204 
L 490.982961 263.147493 
L 491.36888 262.981807 
L 491.87435 263.027353 
L 492.123939 262.939631 
L 492.528734 262.835046 
L 492.878997 262.978006 
L 493.357201 263.010789 
L 493.569037 262.872033 
L 493.841697 262.796992 
L 494.074507 262.795389 
L 494.582075 262.729706 
L 495.26792 262.529134 
L 495.557359 262.311565 
L 496.241107 261.914934 
L 496.509572 261.828727 
L 496.840959 261.709073 
L 497.069574 261.619907 
L 497.881262 261.126882 
L 498.162312 260.980223 
L 498.728606 260.680611 
L 498.938345 260.543297 
L 499.538197 259.939829 
L 499.926213 259.516904 
L 500.272282 259.452337 
L 500.702246 259.512503 
L 500.901498 259.522673 
L 501.406968 259.368198 
L 501.776107 259.504705 
L 502.501803 259.614661 
L 504.634844 259.017084 
L 505.385708 259.135387 
L 505.547207 259.198442 
L 505.922639 259.345545 
L 506.251928 259.449964 
L 507.210434 259.630489 
L 507.527139 259.642202 
L 508.001148 259.852299 
L 508.672311 259.942919 
L 508.953361 259.825239 
L 510.694191 260.241719 
L 511.260485 260.183119 
L 511.665281 260.017859 
L 512.399366 259.975272 
L 512.617494 259.984052 
L 512.963563 259.906059 
L 513.521467 259.62715 
L 514.396077 259.637143 
L 514.876378 259.847088 
L 515.608366 259.872738 
L 515.89361 259.894695 
L 516.657059 259.762909 
L 516.898258 259.761189 
L 517.804329 259.405009 
L 518.10845 259.381065 
L 518.911748 258.926307 
L 519.234746 258.845089 
L 519.645833 258.829064 
L 521.078348 259.143753 
L 521.608986 258.89178 
L 521.86277 258.975403 
L 522.445843 259.021002 
L 523.519705 259.438417 
L 524.167797 259.348033 
L 525.81005 260.046505 
L 526.646907 260.010197 
L 526.818892 260.101952 
L 527.611704 260.520955 
L 527.884364 260.504202 
L 528.150732 260.362352 
L 528.358373 260.268143 
L 529.021147 260.216174 
L 529.270736 260.173019 
L 529.88527 260.117437 
L 530.281676 259.968159 
L 530.629842 260.040585 
L 531.892468 260.538612 
L 532.108499 260.62492 
L 532.337114 260.649491 
L 532.523781 260.651862 
L 532.815318 260.670933 
L 533.241087 260.575558 
L 533.547305 260.601386 
L 533.866108 260.676537 
L 534.32963 260.861792 
L 534.541466 260.876711 
L 534.960943 261.100827 
L 536.141772 261.323202 
L 536.567541 261.305926 
L 536.76889 261.247952 
L 537.045745 261.230622 
L 538.207696 261.66826 
L 538.64605 261.72986 
L 539.013092 261.783323 
L 539.302532 261.712482 
L 539.667477 261.764049 
L 540.464483 261.784818 
L 540.726657 261.744588 
L 541.007706 261.410611 
L 541.286659 261.267603 
L 542.190632 261.277126 
L 542.870185 261.3538 
L 543.673483 260.92432 
L 543.979702 260.948094 
L 545.236036 260.677561 
L 545.844278 260.732656 
L 546.710498 260.917016 
L 547.088027 260.973106 
L 548.205934 260.516205 
L 548.510055 260.394353 
L 548.686235 260.299581 
L 548.875 260.280666 
L 551.624672 261.160846 
L 552.169993 261.38759 
L 552.522354 261.369275 
L 552.81389 261.39634 
L 553.162056 261.436039 
L 553.550073 261.433497 
L 553.86468 261.45752 
L 554.078614 261.507052 
L 554.395319 261.582933 
L 554.944834 261.516799 
L 555.137793 261.545261 
L 556.226337 262.171241 
L 556.597574 262.338515 
L 556.796826 262.394184 
L 557.870687 262.568353 
L 558.116081 262.476502 
L 558.390839 262.334934 
L 558.816608 262.110455 
L 559.185748 261.959329 
L 559.73736 261.625793 
L 560.632944 261.751993 
L 561.956394 261.746911 
L 562.201788 261.681927 
L 562.6737 261.655932 
L 562.902315 261.702077 
L 563.86082 261.843276 
L 564.120896 261.76551 
L 564.383069 261.763428 
L 564.664119 261.707867 
L 565.276556 261.64524 
L 565.78622 261.61068 
L 566.008543 261.55503 
L 566.417534 261.350687 
L 566.639856 261.170099 
L 567.155813 260.958913 
L 567.925554 260.988567 
L 568.32196 260.979342 
L 569.943239 260.999806 
L 570.123614 260.973016 
L 571.950437 261.229024 
L 572.149689 261.225012 
L 572.327966 261.26302 
L 572.797781 261.102293 
L 573.169018 260.99039 
L 573.35988 260.928362 
L 573.59269 260.847353 
L 574.066699 260.857982 
L 574.33097 260.855827 
L 574.542806 260.886453 
L 574.87629 260.740211 
L 575.302059 260.66182 
L 575.555843 260.613643 
L 575.912398 260.688397 
L 576.145208 260.735228 
L 576.629704 260.796538 
L 577.141466 260.986919 
L 578.060121 260.839286 
L 578.834057 260.788716 
L 579.863873 260.793804 
L 580.170091 260.92925 
L 580.367246 261.095195 
L 581.600508 261.731259 
L 582.689052 261.924997 
L 583.150476 262.006411 
L 583.433623 261.954859 
L 583.712576 261.956669 
L 583.932801 262.008772 
L 584.241117 262.068588 
L 584.689957 262.213493 
L 585.335952 262.263292 
L 585.677826 262.2809 
L 586.023895 262.363069 
L 587.003374 262.546793 
L 587.699706 262.727005 
L 589.262258 262.732268 
L 589.572671 262.538126 
L 590.592001 262.856462 
L 590.774473 262.893924 
L 591.953204 263.075138 
L 592.223767 263.071982 
L 592.576128 263.102172 
L 592.995605 263.097848 
L 593.402497 263.213372 
L 593.568191 263.30743 
L 593.985571 263.552888 
L 594.283399 263.53848 
L 594.562352 263.573379 
L 594.891641 263.734032 
L 595.59846 263.672692 
L 595.862731 263.503667 
L 596.563258 263.679367 
L 597.014196 263.743008 
L 597.324609 263.753714 
L 597.939143 263.578248 
L 598.241166 263.47728 
L 598.463489 263.383642 
L 598.666935 263.318444 
L 600.646868 263.349343 
L 600.808366 263.330032 
L 601.821404 263.633591 
L 602.251368 263.369725 
L 603.272794 263.374664 
L 604.040438 263.575177 
L 604.617219 263.530019 
L 605.420517 263.837888 
L 605.783365 264.024786 
L 606.280445 264.169607 
L 606.771234 264.25274 
L 608.289741 264.206008 
L 608.593862 264.165437 
L 609.371992 264.065424 
L 610.124953 264.254788 
L 610.468925 264.045738 
L 610.735293 263.910831 
L 610.982784 263.883239 
L 610.982784 263.883239 
" clip-path="url(#p939b9296a5)" style="fill: none; stroke: #1f2937; stroke-linecap: square"/>
   </g>
   <g id="line2d_26">
    <path d="M 60.42125 263.883239 
L 637.2 263.883239 
" clip-path="url(#p939b9296a5)" style="fill: none; stroke-dasharray: 2.96,1.28; stroke-dashoffset: 0; stroke: #888888; stroke-width: 0.8"/>
   </g>
   <g id="patch_3">
    <path d="M 60.42125 282.04 
L 60.42125 26.88 
" style="fill: none; stroke: #000000; stroke-width: 0.8; stroke-linejoin: miter; stroke-linecap: square"/>
   </g>
   <g id="patch_4">
    <path d="M 637.2 282.04 
L 637.2 26.88 
" style="fill: none; stroke: #000000; stroke-width: 0.8; stroke-linejoin: miter; stroke-linecap: square"/>
   </g>
   <g id="patch_5">
    <path d="M 60.42125 282.04 
L 637.2 282.04 
" style="fill: none; stroke: #000000; stroke-width: 0.8; stroke-linejoin: miter; stroke-linecap: square"/>
   </g>
   <g id="patch_6">
    <path d="M 60.42125 26.88 
L 637.2 26.88 
" style="fill: none; stroke: #000000; stroke-width: 0.8; stroke-linejoin: miter; stroke-linecap: square"/>
   </g>
   <g id="text_15">
    <!-- Running mean — reock_proxy_pct_below_030  (100k ReCom samples, seed 42) -->
    <g transform="translate(110.48875 20.88) scale(0.12 -0.12)">
     <defs>
      <path id="DejaVuSans-2014" d="M 313 1978 
L 6088 1978 
L 6088 1528 
L 313 1528 
L 313 1978 
z
" transform="scale(0.015625)"/>
      <path id="DejaVuSans-28" d="M 1984 4856 
Q 1566 4138 1362 3434 
Q 1159 2731 1159 2009 
Q 1159 1288 1364 580 
Q 1569 -128 1984 -844 
L 1484 -844 
Q 1016 -109 783 600 
Q 550 1309 550 2009 
Q 550 2706 781 3412 
Q 1013 4119 1484 4856 
L 1984 4856 
z
" transform="scale(0.015625)"/>
      <path id="DejaVuSans-43" d="M 4122 4306 
L 4122 3641 
Q 3803 3938 3442 4084 
Q 3081 4231 2675 4231 
Q 1875 4231 1450 3742 
Q 1025 3253 1025 2328 
Q 1025 1406 1450 917 
Q 1875 428 2675 428 
Q 3081 428 3442 575 
Q 3803 722 4122 1019 
L 4122 359 
Q 3791 134 3420 21 
Q 3050 -91 2638 -91 
Q 1578 -91 968 557 
Q 359 1206 359 2328 
Q 359 3453 968 4101 
Q 1578 4750 2638 4750 
Q 3056 4750 3426 4639 
Q 3797 4528 4122 4306 
z
" transform="scale(0.015625)"/>
      <path id="DejaVuSans-73" d="M 2834 3397 
L 2834 2853 
Q 2591 2978 2328 3040 
Q 2066 3103 1784 3103 
Q 1356 3103 1142 2972 
Q 928 2841 928 2578 
Q 928 2378 1081 2264 
Q 1234 2150 1697 2047 
L 1894 2003 
Q 2506 1872 2764 1633 
Q 3022 1394 3022 966 
Q 3022 478 2636 193 
Q 2250 -91 1575 -91 
Q 1294 -91 989 -36 
Q 684 19 347 128 
L 347 722 
Q 666 556 975 473 
Q 1284 391 1588 391 
Q 1994 391 2212 530 
Q 2431 669 2431 922 
Q 2431 1156 2273 1281 
Q 2116 1406 1581 1522 
L 1381 1569 
Q 847 1681 609 1914 
Q 372 2147 372 2553 
Q 372 3047 722 3315 
Q 1072 3584 1716 3584 
Q 2034 3584 2315 3537 
Q 2597 3491 2834 3397 
z
" transform="scale(0.015625)"/>
      <path id="DejaVuSans-2c" d="M 750 794 
L 1409 794 
L 1409 256 
L 897 -744 
L 494 -744 
L 750 256 
L 750 794 
z
" transform="scale(0.015625)"/>
      <path id="DejaVuSans-34" d="M 2419 4116 
L 825 1625 
L 2419 1625 
L 2419 4116 
z
M 2253 4666 
L 3047 4666 
L 3047 1625 
L 3713 1625 
L 3713 1100 
L 3047 1100 
L 3047 0 
L 2419 0 
L 2419 1100 
L 313 1100 
L 313 1709 
L 2253 4666 
z
" transform="scale(0.015625)"/>
      <path id="DejaVuSans-29" d="M 513 4856 
L 1013 4856 
Q 1481 4119 1714 3412 
Q 1947 2706 1947 2009 
Q 1947 1309 1714 600 
Q 1481 -109 1013 -844 
L 513 -844 
Q 928 -128 1133 580 
Q 1338 1288 1338 2009 
Q 1338 2731 1133 3434 
Q 928 4138 513 4856 
z
" transform="scale(0.015625)"/>
     </defs>
     <use xlink:href="#DejaVuSans-52"/>
     <use xlink:href="#DejaVuSans-75" transform="translate(64.982422 0)"/>
     <use xlink:href="#DejaVuSans-6e" transform="translate(128.361328 0)"/>
     <use xlink:href="#DejaVuSans-6e" transform="translate(191.740234 0)"/>
     <use xlink:href="#DejaVuSans-69" transform="translate(255.119141 0)"/>
     <use xlink:href="#DejaVuSans-6e" transform="translate(282.902344 0)"/>
     <use xlink:href="#DejaVuSans-67" transform="translate(346.28125 0)"/>
     <use xlink:href="#DejaVuSans-20" transform="translate(409.757812 0)"/>
     <use xlink:href="#DejaVuSans-6d" transform="translate(441.544922 0)"/>
     <use xlink:href="#DejaVuSans-65" transform="translate(538.957031 0)"/>
     <use xlink:href="#DejaVuSans-61" transform="translate(600.480469 0)"/>
     <use xlink:href="#DejaVuSans-6e" transform="translate(661.759766 0)"/>
     <use xlink:href="#DejaVuSans-20" transform="translate(725.138672 0)"/>
     <use xlink:href="#DejaVuSans-2014" transform="translate(756.925781 0)"/>
     <use xlink:href="#DejaVuSans-20" transform="translate(856.925781 0)"/>
     <use xlink:href="#DejaVuSans-72" transform="translate(888.712891 0)"/>
     <use xlink:href="#DejaVuSans-65" transform="translate(927.576172 0)"/>
     <use xlink:href="#DejaVuSans-6f" transform="translate(989.099609 0)"/>
     <use xlink:href="#DejaVuSans-63" transform="translate(1050.28125 0)"/>
     <use xlink:href="#DejaVuSans-6b" transform="translate(1105.261719 0)"/>
     <use xlink:href="#DejaVuSans-5f" transform="translate(1163.171875 0)"/>
     <use xlink:href="#DejaVuSans-70" transform="translate(1213.171875 0)"/>
     <use xlink:href="#DejaVuSans-72" transform="translate(1276.648438 0)"/>
     <use xlink:href="#DejaVuSans-6f" transform="translate(1315.511719 0)"/>
     <use xlink:href="#DejaVuSans-78" transform="translate(1373.568359 0)"/>
     <use xlink:href="#DejaVuSans-79" transform="translate(1432.748047 0)"/>
     <use xlink:href="#DejaVuSans-5f" transform="translate(1491.927734 0)"/>
     <use xlink:href="#DejaVuSans-70" transform="translate(1541.927734 0)"/>
     <use xlink:href="#DejaVuSans-63" transform="translate(1605.404297 0)"/>
     <use xlink:href="#DejaVuSans-74" transform="translate(1660.384766 0)"/>
     <use xlink:href="#DejaVuSans-5f" transform="translate(1699.59375 0)"/>
     <use xlink:href="#DejaVuSans-62" transform="translate(1749.59375 0)"/>
     <use xlink:href="#DejaVuSans-65" transform="translate(1813.070312 0)"/>
     <use xlink:href="#DejaVuSans-6c" transform="translate(1874.59375 0)"/>
     <use xlink:href="#DejaVuSans-6f" transform="translate(1902.376953 0)"/>
     <use xlink:href="#DejaVuSans-77" transform="translate(1963.558594 0)"/>
     <use xlink:href="#DejaVuSans-5f" transform="translate(2045.345703 0)"/>
     <use xlink:href="#DejaVuSans-30" transform="translate(2095.345703 0)"/>
     <use xlink:href="#DejaVuSans-33" transform="translate(2158.96875 0)"/>
     <use xlink:href="#DejaVuSans-30" transform="translate(2222.591797 0)"/>
     <use xlink:href="#DejaVuSans-20" transform="translate(2286.214844 0)"/>
     <use xlink:href="#DejaVuSans-20" transform="translate(2318.001953 0)"/>
     <use xlink:href="#DejaVuSans-28" transform="translate(2349.789062 0)"/>
     <use xlink:href="#DejaVuSans-31" transform="translate(2388.802734 0)"/>
     <use xlink:href="#DejaVuSans-30" transform="translate(2452.425781 0)"/>
     <use xlink:href="#DejaVuSans-30" transform="translate(2516.048828 0)"/>
     <use xlink:href="#DejaVuSans-6b" transform="translate(2579.671875 0)"/>
     <use xlink:href="#DejaVuSans-20" transform="translate(2637.582031 0)"/>
     <use xlink:href="#DejaVuSans-52" transform="translate(2669.369141 0)"/>
     <use xlink:href="#DejaVuSans-65" transform="translate(2734.351562 0)"/>
     <use xlink:href="#DejaVuSans-43" transform="translate(2795.875 0)"/>
     <use xlink:href="#DejaVuSans-6f" transform="translate(2865.699219 0)"/>
     <use xlink:href="#DejaVuSans-6d" transform="translate(2926.880859 0)"/>
     <use xlink:href="#DejaVuSans-20" transform="translate(3024.292969 0)"/>
     <use xlink:href="#DejaVuSans-73" transform="translate(3056.080078 0)"/>
     <use xlink:href="#DejaVuSans-61" transform="translate(3108.179688 0)"/>
     <use xlink:href="#DejaVuSans-6d" transform="translate(3169.458984 0)"/>
     <use xlink:href="#DejaVuSans-70" transform="translate(3266.871094 0)"/>
     <use xlink:href="#DejaVuSans-6c" transform="translate(3330.347656 0)"/>
     <use xlink:href="#DejaVuSans-65" transform="translate(3358.130859 0)"/>
     <use xlink:href="#DejaVuSans-73" transform="translate(3419.654297 0)"/>
     <use xlink:href="#DejaVuSans-2c" transform="translate(3471.753906 0)"/>
     <use xlink:href="#DejaVuSans-20" transform="translate(3503.541016 0)"/>
     <use xlink:href="#DejaVuSans-73" transform="translate(3535.328125 0)"/>
     <use xlink:href="#DejaVuSans-65" transform="translate(3587.427734 0)"/>
     <use xlink:href="#DejaVuSans-65" transform="translate(3648.951172 0)"/>
     <use xlink:href="#DejaVuSans-64" transform="translate(3710.474609 0)"/>
     <use xlink:href="#DejaVuSans-20" transform="translate(3773.951172 0)"/>
     <use xlink:href="#DejaVuSans-34" transform="translate(3805.738281 0)"/>
     <use xlink:href="#DejaVuSans-32" transform="translate(3869.361328 0)"/>
     <use xlink:href="#DejaVuSans-29" transform="translate(3932.984375 0)"/>
    </g>
   </g>
   <g id="legend_1">
    <g id="patch_7">
     <path d="M 496.306406 47.290312 
L 630.9 47.290312 
Q 632.7 47.290312 632.7 45.490312 
L 632.7 33.18 
Q 632.7 31.38 630.9 31.38 
L 496.306406 31.38 
Q 494.506406 31.38 494.506406 33.18 
L 494.506406 45.490312 
Q 494.506406 47.290312 496.306406 47.290312 
z
" style="fill: #ffffff; opacity: 0.8; stroke: #cccccc; stroke-linejoin: miter"/>
    </g>
    <g id="line2d_27">
     <path d="M 498.106406 38.668594 
L 507.106406 38.668594 
L 516.106406 38.668594 
" style="fill: none; stroke-dasharray: 2.96,1.28; stroke-dashoffset: 0; stroke: #888888; stroke-width: 0.8"/>
    </g>
    <g id="text_16">
     <!-- final mean = +0.07354 -->
     <g transform="translate(523.306406 41.818594) scale(0.09 -0.09)">
      <defs>
       <path id="DejaVuSans-3d" d="M 678 2906 
L 4684 2906 
L 4684 2381 
L 678 2381 
L 678 2906 
z
M 678 1631 
L 4684 1631 
L 4684 1100 
L 678 1100 
L 678 1631 
z
" transform="scale(0.015625)"/>
       <path id="DejaVuSans-2b" d="M 2944 4013 
L 2944 2272 
L 4684 2272 
L 4684 1741 
L 2944 1741 
L 2944 0 
L 2419 0 
L 2419 1741 
L 678 1741 
L 678 2272 
L 2419 2272 
L 2419 4013 
L 2944 4013 
z
" transform="scale(0.015625)"/>
      </defs>
      <use xlink:href="#DejaVuSans-66"/>
      <use xlink:href="#DejaVuSans-69" transform="translate(35.205078 0)"/>
      <use xlink:href="#DejaVuSans-6e" transform="translate(62.988281 0)"/>
      <use xlink:href="#DejaVuSans-61" transform="translate(126.367188 0)"/>
      <use xlink:href="#DejaVuSans-6c" transform="translate(187.646484 0)"/>
      <use xlink:href="#DejaVuSans-20" transform="translate(215.429688 0)"/>
      <use xlink:href="#DejaVuSans-6d" transform="translate(247.216797 0)"/>
      <use xlink:href="#DejaVuSans-65" transform="translate(344.628906 0)"/>
      <use xlink:href="#DejaVuSans-61" transform="translate(406.152344 0)"/>
      <use xlink:href="#DejaVuSans-6e" transform="translate(467.431641 0)"/>
      <use xlink:href="#DejaVuSans-20" transform="translate(530.810547 0)"/>
      <use xlink:href="#DejaVuSans-3d" transform="translate(562.597656 0)"/>
      <use xlink:href="#DejaVuSans-20" transform="translate(646.386719 0)"/>
      <use xlink:href="#DejaVuSans-2b" transform="translate(678.173828 0)"/>
      <use xlink:href="#DejaVuSans-30" transform="translate(761.962891 0)"/>
      <use xlink:href="#DejaVuSans-2e" transform="translate(825.585938 0)"/>
      <use xlink:href="#DejaVuSans-30" transform="translate(857.373047 0)"/>
      <use xlink:href="#DejaVuSans-37" transform="translate(920.996094 0)"/>
      <use xlink:href="#DejaVuSans-33" transform="translate(984.619141 0)"/>
      <use xlink:href="#DejaVuSans-35" transform="translate(1048.242188 0)"/>
      <use xlink:href="#DejaVuSans-34" transform="translate(1111.865234 0)"/>
     </g>
    </g>
   </g>
  </g>
 </g>
 <defs>
  <clipPath id="p939b9296a5">
   <rect x="60.42125" y="26.88" width="576.77875" height="255.16"/>
  </clipPath>
 </defs>
</svg>
