<?xml version="1.0" encoding="utf-8" standalone="no"?>
<!DOCTYPE svg PUBLIC "-//W3C//DTD SVG 1.1//EN"
  "http://www.w3.org/Graphics/SVG/1.1/DTD/svg11.dtd">
<svg xmlns:xlink="http://www.w3.org/1999/xlink" width="648pt" height="324pt" viewBox="0 0 648 324" xmlns="http://www.w3.org/2000/svg" version="1.1">
 <metadata>
  <rdf:RDF xmlns:dc="http://purl.org/dc/elements/1.1/" xmlns:cc="http://creativecommons.org/ns#" xmlns:rdf="http://www.w3.org/1999/02/22-rdf-syntax-ns#">
   <cc:Work>
    <dc:type rdf:resource="http://purl.org/dc/dcmitype/StillImage"/>
    <dc:date>2026-05-07T00:11:12.518197</dc:date>
    <dc:format>image/svg+xml</dc:format>
    <dc:creator>
     <cc:Agent>
      <dc:title>Matplotlib v3.10.8, https://matplotlib.org/</dc:title>
     </cc:Agent>
    </dc:creator>
   </cc:Work>
  </rdf:RDF>
 </metadata>
 <defs>
  <style type="text/css">*{stroke-linejoin: round; stroke-linecap: butt}</style>
 </defs>
 <g id="figure_1">
  <g id="patch_1">
   <path d="M 0 324 
L 648 324 
L 648 0 
L 0 0 
z
" style="fill: #ffffff"/>
  </g>
  <g id="axes_1">
   <g id="patch_2">
    <path d="M 68.88125 282.04 
L 637.2 282.04 
L 637.2 26.88 
L 68.88125 26.88 
z
" style="fill: #ffffff"/>
   </g>
   <g id="matplotlib.axis_1">
    <g id="xtick_1">
     <g id="line2d_1">
      <path d="M 94.703587 282.04 
L 94.703587 26.88 
" clip-path="url(#p11335e2376)" style="fill: none; stroke-dasharray: 0.5,0.825; stroke-dashoffset: 0; stroke: #b0b0b0; stroke-opacity: 0.6; stroke-width: 0.5"/>
     </g>
     <g id="line2d_2">
      <defs>
       <path id="mf043ac509e" d="M 0 0 
L 0 3.5 
" style="stroke: #000000; stroke-width: 0.8"/>
      </defs>
      <g>
       <use xlink:href="#mf043ac509e" x="94.703587" y="282.04" style="stroke: #000000; stroke-width: 0.8"/>
      </g>
     </g>
     <g id="text_1">
      <!-- 0 -->
      <g transform="translate(91.522337 296.638438) scale(0.1 -0.1)">
       <defs>
        <path id="DejaVuSans-30" d="M 2034 4250 
Q 1547 4250 1301 3770 
Q 1056 3291 1056 2328 
Q 1056 1369 1301 889 
Q 1547 409 2034 409 
Q 2525 409 2770 889 
Q 3016 1369 3016 2328 
Q 3016 3291 2770 3770 
Q 2525 4250 2034 4250 
z
M 2034 4750 
Q 2819 4750 3233 4129 
Q 3647 3509 3647 2328 
Q 3647 1150 3233 529 
Q 2819 -91 2034 -91 
Q 1250 -91 836 529 
Q 422 1150 422 2328 
Q 422 3509 836 4129 
Q 1250 4750 2034 4750 
z
" transform="scale(0.015625)"/>
       </defs>
       <use xlink:href="#DejaVuSans-30"/>
      </g>
     </g>
    </g>
    <g id="xtick_2">
     <g id="line2d_3">
      <path d="M 198.036336 282.04 
L 198.036336 26.88 
" clip-path="url(#p11335e2376)" style="fill: none; stroke-dasharray: 0.5,0.825; stroke-dashoffset: 0; stroke: #b0b0b0; stroke-opacity: 0.6; stroke-width: 0.5"/>
     </g>
     <g id="line2d_4">
      <g>
       <use xlink:href="#mf043ac509e" x="198.036336" y="282.04" style="stroke: #000000; stroke-width: 0.8"/>
      </g>
     </g>
     <g id="text_2">
      <!-- 10000 -->
      <g transform="translate(182.130086 296.638438) scale(0.1 -0.1)">
       <defs>
        <path id="DejaVuSans-31" d="M 794 531 
L 1825 531 
L 1825 4091 
L 703 3866 
L 703 4441 
L 1819 4666 
L 2450 4666 
L 2450 531 
L 3481 531 
L 3481 0 
L 794 0 
L 794 531 
z
" transform="scale(0.015625)"/>
       </defs>
       <use xlink:href="#DejaVuSans-31"/>
       <use xlink:href="#DejaVuSans-30" transform="translate(63.623047 0)"/>
       <use xlink:href="#DejaVuSans-30" transform="translate(127.246094 0)"/>
       <use xlink:href="#DejaVuSans-30" transform="translate(190.869141 0)"/>
       <use xlink:href="#DejaVuSans-30" transform="translate(254.492188 0)"/>
      </g>
     </g>
    </g>
    <g id="xtick_3">
     <g id="line2d_5">
      <path d="M 301.369084 282.04 
L 301.369084 26.88 
" clip-path="url(#p11335e2376)" style="fill: none; stroke-dasharray: 0.5,0.825; stroke-dashoffset: 0; stroke: #b0b0b0; stroke-opacity: 0.6; stroke-width: 0.5"/>
     </g>
     <g id="line2d_6">
      <g>
       <use xlink:href="#mf043ac509e" x="301.369084" y="282.04" style="stroke: #000000; stroke-width: 0.8"/>
      </g>
     </g>
     <g id="text_3">
      <!-- 20000 -->
      <g transform="translate(285.462834 296.638438) scale(0.1 -0.1)">
       <defs>
        <path id="DejaVuSans-32" d="M 1228 531 
L 3431 531 
L 3431 0 
L 469 0 
L 469 531 
Q 828 903 1448 1529 
Q 2069 2156 2228 2338 
Q 2531 2678 2651 2914 
Q 2772 3150 2772 3378 
Q 2772 3750 2511 3984 
Q 2250 4219 1831 4219 
Q 1534 4219 1204 4116 
Q 875 4013 500 3803 
L 500 4441 
Q 881 4594 1212 4672 
Q 1544 4750 1819 4750 
Q 2544 4750 2975 4387 
Q 3406 4025 3406 3419 
Q 3406 3131 3298 2873 
Q 3191 2616 2906 2266 
Q 2828 2175 2409 1742 
Q 1991 1309 1228 531 
z
" transform="scale(0.015625)"/>
       </defs>
       <use xlink:href="#DejaVuSans-32"/>
       <use xlink:href="#DejaVuSans-30" transform="translate(63.623047 0)"/>
       <use xlink:href="#DejaVuSans-30" transform="translate(127.246094 0)"/>
       <use xlink:href="#DejaVuSans-30" transform="translate(190.869141 0)"/>
       <use xlink:href="#DejaVuSans-30" transform="translate(254.492188 0)"/>
      </g>
     </g>
    </g>
    <g id="xtick_4">
     <g id="line2d_7">
      <path d="M 404.701833 282.04 
L 404.701833 26.88 
" clip-path="url(#p11335e2376)" style="fill: none; stroke-dasharray: 0.5,0.825; stroke-dashoffset: 0; stroke: #b0b0b0; stroke-opacity: 0.6; stroke-width: 0.5"/>
     </g>
     <g id="line2d_8">
      <g>
       <use xlink:href="#mf043ac509e" x="404.701833" y="282.04" style="stroke: #000000; stroke-width: 0.8"/>
      </g>
     </g>
     <g id="text_4">
      <!-- 30000 -->
      <g transform="translate(388.795583 296.638438) scale(0.1 -0.1)">
       <defs>
        <path id="DejaVuSans-33" d="M 2597 2516 
Q 3050 2419 3304 2112 
Q 3559 1806 3559 1356 
Q 3559 666 3084 287 
Q 2609 -91 1734 -91 
Q 1441 -91 1130 -33 
Q 819 25 488 141 
L 488 750 
Q 750 597 1062 519 
Q 1375 441 1716 441 
Q 2309 441 2620 675 
Q 2931 909 2931 1356 
Q 2931 1769 2642 2001 
Q 2353 2234 1838 2234 
L 1294 2234 
L 1294 2753 
L 1863 2753 
Q 2328 2753 2575 2939 
Q 2822 3125 2822 3475 
Q 2822 3834 2567 4026 
Q 2313 4219 1838 4219 
Q 1578 4219 1281 4162 
Q 984 4106 628 3988 
L 628 4550 
Q 988 4650 1302 4700 
Q 1616 4750 1894 4750 
Q 2613 4750 3031 4423 
Q 3450 4097 3450 3541 
Q 3450 3153 3228 2886 
Q 3006 2619 2597 2516 
z
" transform="scale(0.015625)"/>
       </defs>
       <use xlink:href="#DejaVuSans-33"/>
       <use xlink:href="#DejaVuSans-30" transform="translate(63.623047 0)"/>
       <use xlink:href="#DejaVuSans-30" transform="translate(127.246094 0)"/>
       <use xlink:href="#DejaVuSans-30" transform="translate(190.869141 0)"/>
       <use xlink:href="#DejaVuSans-30" transform="translate(254.492188 0)"/>
      </g>
     </g>
    </g>
    <g id="xtick_5">
     <g id="line2d_9">
      <path d="M 508.034581 282.04 
L 508.034581 26.88 
" clip-path="url(#p11335e2376)" style="fill: none; stroke-dasharray: 0.5,0.825; stroke-dashoffset: 0; stroke: #b0b0b0; stroke-opacity: 0.6; stroke-width: 0.5"/>
     </g>
     <g id="line2d_10">
      <g>
       <use xlink:href="#mf043ac509e" x="508.034581" y="282.04" style="stroke: #000000; stroke-width: 0.8"/>
      </g>
     </g>
     <g id="text_5">
      <!-- 40000 -->
      <g transform="translate(492.128331 296.638438) scale(0.1 -0.1)">
       <defs>
        <path id="DejaVuSans-34" d="M 2419 4116 
L 825 1625 
L 2419 1625 
L 2419 4116 
z
M 2253 4666 
L 3047 4666 
L 3047 1625 
L 3713 1625 
L 3713 1100 
L 3047 1100 
L 3047 0 
L 2419 0 
L 2419 1100 
L 313 1100 
L 313 1709 
L 2253 4666 
z
" transform="scale(0.015625)"/>
       </defs>
       <use xlink:href="#DejaVuSans-34"/>
       <use xlink:href="#DejaVuSans-30" transform="translate(63.623047 0)"/>
       <use xlink:href="#DejaVuSans-30" transform="translate(127.246094 0)"/>
       <use xlink:href="#DejaVuSans-30" transform="translate(190.869141 0)"/>
       <use xlink:href="#DejaVuSans-30" transform="translate(254.492188 0)"/>
      </g>
     </g>
    </g>
    <g id="xtick_6">
     <g id="line2d_11">
      <path d="M 611.36733 282.04 
L 611.36733 26.88 
" clip-path="url(#p11335e2376)" style="fill: none; stroke-dasharray: 0.5,0.825; stroke-dashoffset: 0; stroke: #b0b0b0; stroke-opacity: 0.6; stroke-width: 0.5"/>
     </g>
     <g id="line2d_12">
      <g>
       <use xlink:href="#mf043ac509e" x="611.36733" y="282.04" style="stroke: #000000; stroke-width: 0.8"/>
      </g>
     </g>
     <g id="text_6">
      <!-- 50000 -->
      <g transform="translate(595.46108 296.638438) scale(0.1 -0.1)">
       <defs>
        <path id="DejaVuSans-35" d="M 691 4666 
L 3169 4666 
L 3169 4134 
L 1269 4134 
L 1269 2991 
Q 1406 3038 1543 3061 
Q 1681 3084 1819 3084 
Q 2600 3084 3056 2656 
Q 3513 2228 3513 1497 
Q 3513 744 3044 326 
Q 2575 -91 1722 -91 
Q 1428 -91 1123 -41 
Q 819 9 494 109 
L 494 744 
Q 775 591 1075 516 
Q 1375 441 1709 441 
Q 2250 441 2565 725 
Q 2881 1009 2881 1497 
Q 2881 1984 2565 2268 
Q 2250 2553 1709 2553 
Q 1456 2553 1204 2497 
Q 953 2441 691 2322 
L 691 4666 
z
" transform="scale(0.015625)"/>
       </defs>
       <use xlink:href="#DejaVuSans-35"/>
       <use xlink:href="#DejaVuSans-30" transform="translate(63.623047 0)"/>
       <use xlink:href="#DejaVuSans-30" transform="translate(127.246094 0)"/>
       <use xlink:href="#DejaVuSans-30" transform="translate(190.869141 0)"/>
       <use xlink:href="#DejaVuSans-30" transform="translate(254.492188 0)"/>
      </g>
     </g>
    </g>
    <g id="text_7">
     <!-- Sample index -->
     <g transform="translate(319.022656 310.316563) scale(0.1 -0.1)">
      <defs>
       <path id="DejaVuSans-53" d="M 3425 4513 
L 3425 3897 
Q 3066 4069 2747 4153 
Q 2428 4238 2131 4238 
Q 1616 4238 1336 4038 
Q 1056 3838 1056 3469 
Q 1056 3159 1242 3001 
Q 1428 2844 1947 2747 
L 2328 2669 
Q 3034 2534 3370 2195 
Q 3706 1856 3706 1288 
Q 3706 609 3251 259 
Q 2797 -91 1919 -91 
Q 1588 -91 1214 -16 
Q 841 59 441 206 
L 441 856 
Q 825 641 1194 531 
Q 1563 422 1919 422 
Q 2459 422 2753 634 
Q 3047 847 3047 1241 
Q 3047 1584 2836 1778 
Q 2625 1972 2144 2069 
L 1759 2144 
Q 1053 2284 737 2584 
Q 422 2884 422 3419 
Q 422 4038 858 4394 
Q 1294 4750 2059 4750 
Q 2388 4750 2728 4690 
Q 3069 4631 3425 4513 
z
" transform="scale(0.015625)"/>
       <path id="DejaVuSans-61" d="M 2194 1759 
Q 1497 1759 1228 1600 
Q 959 1441 959 1056 
Q 959 750 1161 570 
Q 1363 391 1709 391 
Q 2188 391 2477 730 
Q 2766 1069 2766 1631 
L 2766 1759 
L 2194 1759 
z
M 3341 1997 
L 3341 0 
L 2766 0 
L 2766 531 
Q 2569 213 2275 61 
Q 1981 -91 1556 -91 
Q 1019 -91 701 211 
Q 384 513 384 1019 
Q 384 1609 779 1909 
Q 1175 2209 1959 2209 
L 2766 2209 
L 2766 2266 
Q 2766 2663 2505 2880 
Q 2244 3097 1772 3097 
Q 1472 3097 1187 3025 
Q 903 2953 641 2809 
L 641 3341 
Q 956 3463 1253 3523 
Q 1550 3584 1831 3584 
Q 2591 3584 2966 3190 
Q 3341 2797 3341 1997 
z
" transform="scale(0.015625)"/>
       <path id="DejaVuSans-6d" d="M 3328 2828 
Q 3544 3216 3844 3400 
Q 4144 3584 4550 3584 
Q 5097 3584 5394 3201 
Q 5691 2819 5691 2113 
L 5691 0 
L 5113 0 
L 5113 2094 
Q 5113 2597 4934 2840 
Q 4756 3084 4391 3084 
Q 3944 3084 3684 2787 
Q 3425 2491 3425 1978 
L 3425 0 
L 2847 0 
L 2847 2094 
Q 2847 2600 2669 2842 
Q 2491 3084 2119 3084 
Q 1678 3084 1418 2786 
Q 1159 2488 1159 1978 
L 1159 0 
L 581 0 
L 581 3500 
L 1159 3500 
L 1159 2956 
Q 1356 3278 1631 3431 
Q 1906 3584 2284 3584 
Q 2666 3584 2933 3390 
Q 3200 3197 3328 2828 
z
" transform="scale(0.015625)"/>
       <path id="DejaVuSans-70" d="M 1159 525 
L 1159 -1331 
L 581 -1331 
L 581 3500 
L 1159 3500 
L 1159 2969 
Q 1341 3281 1617 3432 
Q 1894 3584 2278 3584 
Q 2916 3584 3314 3078 
Q 3713 2572 3713 1747 
Q 3713 922 3314 415 
Q 2916 -91 2278 -91 
Q 1894 -91 1617 61 
Q 1341 213 1159 525 
z
M 3116 1747 
Q 3116 2381 2855 2742 
Q 2594 3103 2138 3103 
Q 1681 3103 1420 2742 
Q 1159 2381 1159 1747 
Q 1159 1113 1420 752 
Q 1681 391 2138 391 
Q 2594 391 2855 752 
Q 3116 1113 3116 1747 
z
" transform="scale(0.015625)"/>
       <path id="DejaVuSans-6c" d="M 603 4863 
L 1178 4863 
L 1178 0 
L 603 0 
L 603 4863 
z
" transform="scale(0.015625)"/>
       <path id="DejaVuSans-65" d="M 3597 1894 
L 3597 1613 
L 953 1613 
Q 991 1019 1311 708 
Q 1631 397 2203 397 
Q 2534 397 2845 478 
Q 3156 559 3463 722 
L 3463 178 
Q 3153 47 2828 -22 
Q 2503 -91 2169 -91 
Q 1331 -91 842 396 
Q 353 884 353 1716 
Q 353 2575 817 3079 
Q 1281 3584 2069 3584 
Q 2775 3584 3186 3129 
Q 3597 2675 3597 1894 
z
M 3022 2063 
Q 3016 2534 2758 2815 
Q 2500 3097 2075 3097 
Q 1594 3097 1305 2825 
Q 1016 2553 972 2059 
L 3022 2063 
z
" transform="scale(0.015625)"/>
       <path id="DejaVuSans-20" transform="scale(0.015625)"/>
       <path id="DejaVuSans-69" d="M 603 3500 
L 1178 3500 
L 1178 0 
L 603 0 
L 603 3500 
z
M 603 4863 
L 1178 4863 
L 1178 4134 
L 603 4134 
L 603 4863 
z
" transform="scale(0.015625)"/>
       <path id="DejaVuSans-6e" d="M 3513 2113 
L 3513 0 
L 2938 0 
L 2938 2094 
Q 2938 2591 2744 2837 
Q 2550 3084 2163 3084 
Q 1697 3084 1428 2787 
Q 1159 2491 1159 1978 
L 1159 0 
L 581 0 
L 581 3500 
L 1159 3500 
L 1159 2956 
Q 1366 3272 1645 3428 
Q 1925 3584 2291 3584 
Q 2894 3584 3203 3211 
Q 3513 2838 3513 2113 
z
" transform="scale(0.015625)"/>
       <path id="DejaVuSans-64" d="M 2906 2969 
L 2906 4863 
L 3481 4863 
L 3481 0 
L 2906 0 
L 2906 525 
Q 2725 213 2448 61 
Q 2172 -91 1784 -91 
Q 1150 -91 751 415 
Q 353 922 353 1747 
Q 353 2572 751 3078 
Q 1150 3584 1784 3584 
Q 2172 3584 2448 3432 
Q 2725 3281 2906 2969 
z
M 947 1747 
Q 947 1113 1208 752 
Q 1469 391 1925 391 
Q 2381 391 2643 752 
Q 2906 1113 2906 1747 
Q 2906 2381 2643 2742 
Q 2381 3103 1925 3103 
Q 1469 3103 1208 2742 
Q 947 2381 947 1747 
z
" transform="scale(0.015625)"/>
       <path id="DejaVuSans-78" d="M 3513 3500 
L 2247 1797 
L 3578 0 
L 2900 0 
L 1881 1375 
L 863 0 
L 184 0 
L 1544 1831 
L 300 3500 
L 978 3500 
L 1906 2253 
L 2834 3500 
L 3513 3500 
z
" transform="scale(0.015625)"/>
      </defs>
      <use xlink:href="#DejaVuSans-53"/>
      <use xlink:href="#DejaVuSans-61" transform="translate(63.476562 0)"/>
      <use xlink:href="#DejaVuSans-6d" transform="translate(124.755859 0)"/>
      <use xlink:href="#DejaVuSans-70" transform="translate(222.167969 0)"/>
      <use xlink:href="#DejaVuSans-6c" transform="translate(285.644531 0)"/>
      <use xlink:href="#DejaVuSans-65" transform="translate(313.427734 0)"/>
      <use xlink:href="#DejaVuSans-20" transform="translate(374.951172 0)"/>
      <use xlink:href="#DejaVuSans-69" transform="translate(406.738281 0)"/>
      <use xlink:href="#DejaVuSans-6e" transform="translate(434.521484 0)"/>
      <use xlink:href="#DejaVuSans-64" transform="translate(497.900391 0)"/>
      <use xlink:href="#DejaVuSans-65" transform="translate(561.376953 0)"/>
      <use xlink:href="#DejaVuSans-78" transform="translate(621.150391 0)"/>
     </g>
    </g>
   </g>
   <g id="matplotlib.axis_2">
    <g id="ytick_1">
     <g id="line2d_13">
      <path d="M 68.88125 256.139929 
L 637.2 256.139929 
" clip-path="url(#p11335e2376)" style="fill: none; stroke-dasharray: 0.5,0.825; stroke-dashoffset: 0; stroke: #b0b0b0; stroke-opacity: 0.6; stroke-width: 0.5"/>
     </g>
     <g id="line2d_14">
      <defs>
       <path id="m7ba19f9ee3" d="M 0 0 
L -3.5 0 
" style="stroke: #000000; stroke-width: 0.8"/>
      </defs>
      <g>
       <use xlink:href="#m7ba19f9ee3" x="68.88125" y="256.139929" style="stroke: #000000; stroke-width: 0.8"/>
      </g>
     </g>
     <g id="text_8">
      <!-- −0.022 -->
      <g transform="translate(24.873438 259.939148) scale(0.1 -0.1)">
       <defs>
        <path id="DejaVuSans-2212" d="M 678 2272 
L 4684 2272 
L 4684 1741 
L 678 1741 
L 678 2272 
z
" transform="scale(0.015625)"/>
        <path id="DejaVuSans-2e" d="M 684 794 
L 1344 794 
L 1344 0 
L 684 0 
L 684 794 
z
" transform="scale(0.015625)"/>
       </defs>
       <use xlink:href="#DejaVuSans-2212"/>
       <use xlink:href="#DejaVuSans-30" transform="translate(83.789062 0)"/>
       <use xlink:href="#DejaVuSans-2e" transform="translate(147.412109 0)"/>
       <use xlink:href="#DejaVuSans-30" transform="translate(179.199219 0)"/>
       <use xlink:href="#DejaVuSans-32" transform="translate(242.822266 0)"/>
       <use xlink:href="#DejaVuSans-32" transform="translate(306.445312 0)"/>
      </g>
     </g>
    </g>
    <g id="ytick_2">
     <g id="line2d_15">
      <path d="M 68.88125 225.419338 
L 637.2 225.419338 
" clip-path="url(#p11335e2376)" style="fill: none; stroke-dasharray: 0.5,0.825; stroke-dashoffset: 0; stroke: #b0b0b0; stroke-opacity: 0.6; stroke-width: 0.5"/>
     </g>
     <g id="line2d_16">
      <g>
       <use xlink:href="#m7ba19f9ee3" x="68.88125" y="225.419338" style="stroke: #000000; stroke-width: 0.8"/>
      </g>
     </g>
     <g id="text_9">
      <!-- −0.021 -->
      <g transform="translate(24.873438 229.218556) scale(0.1 -0.1)">
       <use xlink:href="#DejaVuSans-2212"/>
       <use xlink:href="#DejaVuSans-30" transform="translate(83.789062 0)"/>
       <use xlink:href="#DejaVuSans-2e" transform="translate(147.412109 0)"/>
       <use xlink:href="#DejaVuSans-30" transform="translate(179.199219 0)"/>
       <use xlink:href="#DejaVuSans-32" transform="translate(242.822266 0)"/>
       <use xlink:href="#DejaVuSans-31" transform="translate(306.445312 0)"/>
      </g>
     </g>
    </g>
    <g id="ytick_3">
     <g id="line2d_17">
      <path d="M 68.88125 194.698746 
L 637.2 194.698746 
" clip-path="url(#p11335e2376)" style="fill: none; stroke-dasharray: 0.5,0.825; stroke-dashoffset: 0; stroke: #b0b0b0; stroke-opacity: 0.6; stroke-width: 0.5"/>
     </g>
     <g id="line2d_18">
      <g>
       <use xlink:href="#m7ba19f9ee3" x="68.88125" y="194.698746" style="stroke: #000000; stroke-width: 0.8"/>
      </g>
     </g>
     <g id="text_10">
      <!-- −0.020 -->
      <g transform="translate(24.873438 198.497965) scale(0.1 -0.1)">
       <use xlink:href="#DejaVuSans-2212"/>
       <use xlink:href="#DejaVuSans-30" transform="translate(83.789062 0)"/>
       <use xlink:href="#DejaVuSans-2e" transform="translate(147.412109 0)"/>
       <use xlink:href="#DejaVuSans-30" transform="translate(179.199219 0)"/>
       <use xlink:href="#DejaVuSans-32" transform="translate(242.822266 0)"/>
       <use xlink:href="#DejaVuSans-30" transform="translate(306.445312 0)"/>
      </g>
     </g>
    </g>
    <g id="ytick_4">
     <g id="line2d_19">
      <path d="M 68.88125 163.978155 
L 637.2 163.978155 
" clip-path="url(#p11335e2376)" style="fill: none; stroke-dasharray: 0.5,0.825; stroke-dashoffset: 0; stroke: #b0b0b0; stroke-opacity: 0.6; stroke-width: 0.5"/>
     </g>
     <g id="line2d_20">
      <g>
       <use xlink:href="#m7ba19f9ee3" x="68.88125" y="163.978155" style="stroke: #000000; stroke-width: 0.8"/>
      </g>
     </g>
     <g id="text_11">
      <!-- −0.019 -->
      <g transform="translate(24.873438 167.777374) scale(0.1 -0.1)">
       <defs>
        <path id="DejaVuSans-39" d="M 703 97 
L 703 672 
Q 941 559 1184 500 
Q 1428 441 1663 441 
Q 2288 441 2617 861 
Q 2947 1281 2994 2138 
Q 2813 1869 2534 1725 
Q 2256 1581 1919 1581 
Q 1219 1581 811 2004 
Q 403 2428 403 3163 
Q 403 3881 828 4315 
Q 1253 4750 1959 4750 
Q 2769 4750 3195 4129 
Q 3622 3509 3622 2328 
Q 3622 1225 3098 567 
Q 2575 -91 1691 -91 
Q 1453 -91 1209 -44 
Q 966 3 703 97 
z
M 1959 2075 
Q 2384 2075 2632 2365 
Q 2881 2656 2881 3163 
Q 2881 3666 2632 3958 
Q 2384 4250 1959 4250 
Q 1534 4250 1286 3958 
Q 1038 3666 1038 3163 
Q 1038 2656 1286 2365 
Q 1534 2075 1959 2075 
z
" transform="scale(0.015625)"/>
       </defs>
       <use xlink:href="#DejaVuSans-2212"/>
       <use xlink:href="#DejaVuSans-30" transform="translate(83.789062 0)"/>
       <use xlink:href="#DejaVuSans-2e" transform="translate(147.412109 0)"/>
       <use xlink:href="#DejaVuSans-30" transform="translate(179.199219 0)"/>
       <use xlink:href="#DejaVuSans-31" transform="translate(242.822266 0)"/>
       <use xlink:href="#DejaVuSans-39" transform="translate(306.445312 0)"/>
      </g>
     </g>
    </g>
    <g id="ytick_5">
     <g id="line2d_21">
      <path d="M 68.88125 133.257564 
L 637.2 133.257564 
" clip-path="url(#p11335e2376)" style="fill: none; stroke-dasharray: 0.5,0.825; stroke-dashoffset: 0; stroke: #b0b0b0; stroke-opacity: 0.6; stroke-width: 0.5"/>
     </g>
     <g id="line2d_22">
      <g>
       <use xlink:href="#m7ba19f9ee3" x="68.88125" y="133.257564" style="stroke: #000000; stroke-width: 0.8"/>
      </g>
     </g>
     <g id="text_12">
      <!-- −0.018 -->
      <g transform="translate(24.873438 137.056782) scale(0.1 -0.1)">
       <defs>
        <path id="DejaVuSans-38" d="M 2034 2216 
Q 1584 2216 1326 1975 
Q 1069 1734 1069 1313 
Q 1069 891 1326 650 
Q 1584 409 2034 409 
Q 2484 409 2743 651 
Q 3003 894 3003 1313 
Q 3003 1734 2745 1975 
Q 2488 2216 2034 2216 
z
M 1403 2484 
Q 997 2584 770 2862 
Q 544 3141 544 3541 
Q 544 4100 942 4425 
Q 1341 4750 2034 4750 
Q 2731 4750 3128 4425 
Q 3525 4100 3525 3541 
Q 3525 3141 3298 2862 
Q 3072 2584 2669 2484 
Q 3125 2378 3379 2068 
Q 3634 1759 3634 1313 
Q 3634 634 3220 271 
Q 2806 -91 2034 -91 
Q 1263 -91 848 271 
Q 434 634 434 1313 
Q 434 1759 690 2068 
Q 947 2378 1403 2484 
z
M 1172 3481 
Q 1172 3119 1398 2916 
Q 1625 2713 2034 2713 
Q 2441 2713 2670 2916 
Q 2900 3119 2900 3481 
Q 2900 3844 2670 4047 
Q 2441 4250 2034 4250 
Q 1625 4250 1398 4047 
Q 1172 3844 1172 3481 
z
" transform="scale(0.015625)"/>
       </defs>
       <use xlink:href="#DejaVuSans-2212"/>
       <use xlink:href="#DejaVuSans-30" transform="translate(83.789062 0)"/>
       <use xlink:href="#DejaVuSans-2e" transform="translate(147.412109 0)"/>
       <use xlink:href="#DejaVuSans-30" transform="translate(179.199219 0)"/>
       <use xlink:href="#DejaVuSans-31" transform="translate(242.822266 0)"/>
       <use xlink:href="#DejaVuSans-38" transform="translate(306.445312 0)"/>
      </g>
     </g>
    </g>
    <g id="ytick_6">
     <g id="line2d_23">
      <path d="M 68.88125 102.536972 
L 637.2 102.536972 
" clip-path="url(#p11335e2376)" style="fill: none; stroke-dasharray: 0.5,0.825; stroke-dashoffset: 0; stroke: #b0b0b0; stroke-opacity: 0.6; stroke-width: 0.5"/>
     </g>
     <g id="line2d_24">
      <g>
       <use xlink:href="#m7ba19f9ee3" x="68.88125" y="102.536972" style="stroke: #000000; stroke-width: 0.8"/>
      </g>
     </g>
     <g id="text_13">
      <!-- −0.017 -->
      <g transform="translate(24.873438 106.336191) scale(0.1 -0.1)">
       <defs>
        <path id="DejaVuSans-37" d="M 525 4666 
L 3525 4666 
L 3525 4397 
L 1831 0 
L 1172 0 
L 2766 4134 
L 525 4134 
L 525 4666 
z
" transform="scale(0.015625)"/>
       </defs>
       <use xlink:href="#DejaVuSans-2212"/>
       <use xlink:href="#DejaVuSans-30" transform="translate(83.789062 0)"/>
       <use xlink:href="#DejaVuSans-2e" transform="translate(147.412109 0)"/>
       <use xlink:href="#DejaVuSans-30" transform="translate(179.199219 0)"/>
       <use xlink:href="#DejaVuSans-31" transform="translate(242.822266 0)"/>
       <use xlink:href="#DejaVuSans-37" transform="translate(306.445312 0)"/>
      </g>
     </g>
    </g>
    <g id="ytick_7">
     <g id="line2d_25">
      <path d="M 68.88125 71.816381 
L 637.2 71.816381 
" clip-path="url(#p11335e2376)" style="fill: none; stroke-dasharray: 0.5,0.825; stroke-dashoffset: 0; stroke: #b0b0b0; stroke-opacity: 0.6; stroke-width: 0.5"/>
     </g>
     <g id="line2d_26">
      <g>
       <use xlink:href="#m7ba19f9ee3" x="68.88125" y="71.816381" style="stroke: #000000; stroke-width: 0.8"/>
      </g>
     </g>
     <g id="text_14">
      <!-- −0.016 -->
      <g transform="translate(24.873438 75.6156) scale(0.1 -0.1)">
       <defs>
        <path id="DejaVuSans-36" d="M 2113 2584 
Q 1688 2584 1439 2293 
Q 1191 2003 1191 1497 
Q 1191 994 1439 701 
Q 1688 409 2113 409 
Q 2538 409 2786 701 
Q 3034 994 3034 1497 
Q 3034 2003 2786 2293 
Q 2538 2584 2113 2584 
z
M 3366 4563 
L 3366 3988 
Q 3128 4100 2886 4159 
Q 2644 4219 2406 4219 
Q 1781 4219 1451 3797 
Q 1122 3375 1075 2522 
Q 1259 2794 1537 2939 
Q 1816 3084 2150 3084 
Q 2853 3084 3261 2657 
Q 3669 2231 3669 1497 
Q 3669 778 3244 343 
Q 2819 -91 2113 -91 
Q 1303 -91 875 529 
Q 447 1150 447 2328 
Q 447 3434 972 4092 
Q 1497 4750 2381 4750 
Q 2619 4750 2861 4703 
Q 3103 4656 3366 4563 
z
" transform="scale(0.015625)"/>
       </defs>
       <use xlink:href="#DejaVuSans-2212"/>
       <use xlink:href="#DejaVuSans-30" transform="translate(83.789062 0)"/>
       <use xlink:href="#DejaVuSans-2e" transform="translate(147.412109 0)"/>
       <use xlink:href="#DejaVuSans-30" transform="translate(179.199219 0)"/>
       <use xlink:href="#DejaVuSans-31" transform="translate(242.822266 0)"/>
       <use xlink:href="#DejaVuSans-36" transform="translate(306.445312 0)"/>
      </g>
     </g>
    </g>
    <g id="ytick_8">
     <g id="line2d_27">
      <path d="M 68.88125 41.095789 
L 637.2 41.095789 
" clip-path="url(#p11335e2376)" style="fill: none; stroke-dasharray: 0.5,0.825; stroke-dashoffset: 0; stroke: #b0b0b0; stroke-opacity: 0.6; stroke-width: 0.5"/>
     </g>
     <g id="line2d_28">
      <g>
       <use xlink:href="#m7ba19f9ee3" x="68.88125" y="41.095789" style="stroke: #000000; stroke-width: 0.8"/>
      </g>
     </g>
     <g id="text_15">
      <!-- −0.015 -->
      <g transform="translate(24.873438 44.895008) scale(0.1 -0.1)">
       <use xlink:href="#DejaVuSans-2212"/>
       <use xlink:href="#DejaVuSans-30" transform="translate(83.789062 0)"/>
       <use xlink:href="#DejaVuSans-2e" transform="translate(147.412109 0)"/>
       <use xlink:href="#DejaVuSans-30" transform="translate(179.199219 0)"/>
       <use xlink:href="#DejaVuSans-31" transform="translate(242.822266 0)"/>
       <use xlink:href="#DejaVuSans-35" transform="translate(306.445312 0)"/>
      </g>
     </g>
    </g>
    <g id="text_16">
     <!-- Running mean of mean_median -->
     <g transform="translate(18.515625 234.136562) rotate(-90) scale(0.1 -0.1)">
      <defs>
       <path id="DejaVuSans-52" d="M 2841 2188 
Q 3044 2119 3236 1894 
Q 3428 1669 3622 1275 
L 4263 0 
L 3584 0 
L 2988 1197 
Q 2756 1666 2539 1819 
Q 2322 1972 1947 1972 
L 1259 1972 
L 1259 0 
L 628 0 
L 628 4666 
L 2053 4666 
Q 2853 4666 3247 4331 
Q 3641 3997 3641 3322 
Q 3641 2881 3436 2590 
Q 3231 2300 2841 2188 
z
M 1259 4147 
L 1259 2491 
L 2053 2491 
Q 2509 2491 2742 2702 
Q 2975 2913 2975 3322 
Q 2975 3731 2742 3939 
Q 2509 4147 2053 4147 
L 1259 4147 
z
" transform="scale(0.015625)"/>
       <path id="DejaVuSans-75" d="M 544 1381 
L 544 3500 
L 1119 3500 
L 1119 1403 
Q 1119 906 1312 657 
Q 1506 409 1894 409 
Q 2359 409 2629 706 
Q 2900 1003 2900 1516 
L 2900 3500 
L 3475 3500 
L 3475 0 
L 2900 0 
L 2900 538 
Q 2691 219 2414 64 
Q 2138 -91 1772 -91 
Q 1169 -91 856 284 
Q 544 659 544 1381 
z
M 1991 3584 
L 1991 3584 
z
" transform="scale(0.015625)"/>
       <path id="DejaVuSans-67" d="M 2906 1791 
Q 2906 2416 2648 2759 
Q 2391 3103 1925 3103 
Q 1463 3103 1205 2759 
Q 947 2416 947 1791 
Q 947 1169 1205 825 
Q 1463 481 1925 481 
Q 2391 481 2648 825 
Q 2906 1169 2906 1791 
z
M 3481 434 
Q 3481 -459 3084 -895 
Q 2688 -1331 1869 -1331 
Q 1566 -1331 1297 -1286 
Q 1028 -1241 775 -1147 
L 775 -588 
Q 1028 -725 1275 -790 
Q 1522 -856 1778 -856 
Q 2344 -856 2625 -561 
Q 2906 -266 2906 331 
L 2906 616 
Q 2728 306 2450 153 
Q 2172 0 1784 0 
Q 1141 0 747 490 
Q 353 981 353 1791 
Q 353 2603 747 3093 
Q 1141 3584 1784 3584 
Q 2172 3584 2450 3431 
Q 2728 3278 2906 2969 
L 2906 3500 
L 3481 3500 
L 3481 434 
z
" transform="scale(0.015625)"/>
       <path id="DejaVuSans-6f" d="M 1959 3097 
Q 1497 3097 1228 2736 
Q 959 2375 959 1747 
Q 959 1119 1226 758 
Q 1494 397 1959 397 
Q 2419 397 2687 759 
Q 2956 1122 2956 1747 
Q 2956 2369 2687 2733 
Q 2419 3097 1959 3097 
z
M 1959 3584 
Q 2709 3584 3137 3096 
Q 3566 2609 3566 1747 
Q 3566 888 3137 398 
Q 2709 -91 1959 -91 
Q 1206 -91 779 398 
Q 353 888 353 1747 
Q 353 2609 779 3096 
Q 1206 3584 1959 3584 
z
" transform="scale(0.015625)"/>
       <path id="DejaVuSans-66" d="M 2375 4863 
L 2375 4384 
L 1825 4384 
Q 1516 4384 1395 4259 
Q 1275 4134 1275 3809 
L 1275 3500 
L 2222 3500 
L 2222 3053 
L 1275 3053 
L 1275 0 
L 697 0 
L 697 3053 
L 147 3053 
L 147 3500 
L 697 3500 
L 697 3744 
Q 697 4328 969 4595 
Q 1241 4863 1831 4863 
L 2375 4863 
z
" transform="scale(0.015625)"/>
       <path id="DejaVuSans-5f" d="M 3263 -1063 
L 3263 -1509 
L -63 -1509 
L -63 -1063 
L 3263 -1063 
z
" transform="scale(0.015625)"/>
      </defs>
      <use xlink:href="#DejaVuSans-52"/>
      <use xlink:href="#DejaVuSans-75" transform="translate(64.982422 0)"/>
      <use xlink:href="#DejaVuSans-6e" transform="translate(128.361328 0)"/>
      <use xlink:href="#DejaVuSans-6e" transform="translate(191.740234 0)"/>
      <use xlink:href="#DejaVuSans-69" transform="translate(255.119141 0)"/>
      <use xlink:href="#DejaVuSans-6e" transform="translate(282.902344 0)"/>
      <use xlink:href="#DejaVuSans-67" transform="translate(346.28125 0)"/>
      <use xlink:href="#DejaVuSans-20" transform="translate(409.757812 0)"/>
      <use xlink:href="#DejaVuSans-6d" transform="translate(441.544922 0)"/>
      <use xlink:href="#DejaVuSans-65" transform="translate(538.957031 0)"/>
      <use xlink:href="#DejaVuSans-61" transform="translate(600.480469 0)"/>
      <use xlink:href="#DejaVuSans-6e" transform="translate(661.759766 0)"/>
      <use xlink:href="#DejaVuSans-20" transform="translate(725.138672 0)"/>
      <use xlink:href="#DejaVuSans-6f" transform="translate(756.925781 0)"/>
      <use xlink:href="#DejaVuSans-66" transform="translate(818.107422 0)"/>
      <use xlink:href="#DejaVuSans-20" transform="translate(853.3125 0)"/>
      <use xlink:href="#DejaVuSans-6d" transform="translate(885.099609 0)"/>
      <use xlink:href="#DejaVuSans-65" transform="translate(982.511719 0)"/>
      <use xlink:href="#DejaVuSans-61" transform="translate(1044.035156 0)"/>
      <use xlink:href="#DejaVuSans-6e" transform="translate(1105.314453 0)"/>
      <use xlink:href="#DejaVuSans-5f" transform="translate(1168.693359 0)"/>
      <use xlink:href="#DejaVuSans-6d" transform="translate(1218.693359 0)"/>
      <use xlink:href="#DejaVuSans-65" transform="translate(1316.105469 0)"/>
      <use xlink:href="#DejaVuSans-64" transform="translate(1377.628906 0)"/>
      <use xlink:href="#DejaVuSans-69" transform="translate(1441.105469 0)"/>
      <use xlink:href="#DejaVuSans-61" transform="translate(1468.888672 0)"/>
      <use xlink:href="#DejaVuSans-6e" transform="translate(1530.167969 0)"/>
     </g>
    </g>
   </g>
   <g id="line2d_29">
    <path d="M 94.71392 39.889629 
L 94.724254 39.922804 
L 94.734587 39.692261 
L 94.765587 38.478182 
L 94.80692 41.192269 
L 94.930919 52.530027 
L 95.147918 102.678832 
L 95.189251 106.92811 
L 95.251251 102.553379 
L 95.271917 104.204387 
L 95.447583 124.575745 
L 95.736915 168.492016 
L 95.778248 164.414539 
L 96.077913 146.932046 
L 96.119246 145.34713 
L 96.150246 148.477587 
L 96.181245 151.540125 
L 96.263912 149.209837 
L 96.336245 147.93296 
L 96.346578 148.875068 
L 96.718576 173.512067 
L 96.759909 175.152662 
L 96.832242 173.975968 
L 96.863242 173.490709 
L 96.894241 174.406193 
L 97.328239 190.14577 
L 97.71057 203.680701 
L 98.020568 205.075136 
L 98.041235 205.05383 
L 98.216901 202.600888 
L 98.237567 202.602508 
L 98.84723 238.252598 
L 98.867897 237.990215 
L 99.291561 234.166499 
L 99.363894 233.845199 
L 99.405227 234.069156 
L 99.611893 235.643967 
L 99.673892 236.259457 
L 99.684226 235.513101 
L 100.273222 200.920852 
L 100.67622 186.568228 
L 101.017218 175.350282 
L 101.130884 172.542006 
L 101.182551 173.192727 
L 101.203217 173.437622 
L 101.234217 172.773331 
L 101.482215 167.905901 
L 101.523549 168.67327 
L 102.143545 178.786237 
L 102.773875 185.661615 
L 102.825541 186.088625 
L 102.835874 185.609047 
L 103.838202 144.78324 
L 104.137867 138.012049 
L 106.287188 86.420195 
L 106.431854 82.512895 
L 106.493854 84.197597 
L 107.196516 100.162309 
L 108.167844 114.297433 
L 109.201172 130.937083 
L 109.728169 143.618003 
L 110.069167 153.333808 
L 110.162166 153.136904 
L 110.565164 152.497116 
L 110.575497 152.563132 
L 111.34016 157.794719 
L 111.433159 157.380566 
L 111.619158 156.572282 
L 111.650158 156.796032 
L 112.590486 163.014393 
L 112.631819 163.044461 
L 112.662819 162.948132 
L 112.817818 162.514019 
L 112.848818 162.666222 
L 113.386148 164.891813 
L 113.406815 164.864625 
L 113.58248 164.772727 
L 113.685813 164.824828 
L 113.871812 165.444484 
L 113.954478 165.375299 
L 113.985478 165.350012 
L 114.016478 165.437622 
L 114.388476 166.857064 
L 114.626141 168.607076 
L 114.894806 169.611745 
L 114.987806 169.53195 
L 115.018806 169.495995 
L 115.029139 169.591526 
L 115.545803 175.378161 
L 115.866134 178.204604 
L 116.238132 179.992811 
L 116.289798 179.978503 
L 116.310465 179.967572 
L 116.341465 180.065612 
L 116.661796 181.349655 
L 116.909795 182.826647 
L 117.932789 185.966726 
L 118.160121 187.663865 
L 118.604452 194.146676 
L 118.88345 196.758318 
L 119.234782 198.564485 
L 119.875445 204.352087 
L 120.950105 211.374482 
L 121.787101 219.265217 
L 122.706762 229.514868 
L 123.099426 231.001978 
L 123.14076 230.953882 
L 123.264759 230.798516 
L 123.285425 230.910826 
L 123.998421 235.417806 
L 124.194754 236.336618 
L 124.205087 236.334016 
L 124.463419 236.1564 
L 125.176415 235.212015 
L 125.662079 233.479763 
L 125.682745 233.458488 
L 125.724078 233.571483 
L 126.499074 235.992074 
L 126.964071 237.907635 
L 127.439402 240.188189 
L 127.852733 241.913114 
L 127.997399 241.514932 
L 128.400396 238.92145 
L 129.54739 228.933437 
L 129.661056 229.054793 
L 129.723056 229.259274 
L 130.859716 237.550052 
L 131.014715 238.027529 
L 131.94471 243.356258 
L 132.54404 244.735085 
L 132.719705 245.336827 
L 133.164036 246.279592 
L 133.381035 246.806956 
L 133.412035 246.587969 
L 133.825366 244.169209 
L 133.908032 244.238112 
L 134.259363 244.386325 
L 134.393696 244.249088 
L 134.621028 244.332175 
L 135.561356 248.832942 
L 136.64635 256.346021 
L 137.586678 263.265589 
L 138.744005 268.323636 
L 138.816338 268.578103 
L 138.930004 269.026338 
L 138.98167 268.864847 
L 139.994331 263.651699 
L 140.11833 263.783898 
L 140.77966 264.396642 
L 141.192991 264.083481 
L 142.019653 262.248627 
L 142.856648 258.974233 
L 143.869309 256.361537 
L 144.148307 255.528597 
L 144.303306 254.644784 
L 144.85097 251.480102 
L 145.129968 250.794834 
L 145.222968 250.952784 
L 145.574299 251.914305 
L 146.028963 252.910579 
L 146.462961 253.448469 
L 146.927958 253.674682 
L 147.661621 255.639311 
L 148.023285 257.378227 
L 148.395283 258.977486 
L 148.808614 261.728442 
L 149.707609 267.611919 
L 150.08994 269.939895 
L 150.234606 269.736022 
L 150.244939 269.721517 
L 150.317272 269.804154 
L 150.78227 270.204244 
L 150.988935 270.296255 
L 151.143934 270.441818 
L 151.164601 270.395124 
L 152.259928 267.704664 
L 152.466594 267.23161 
L 152.48726 267.249789 
L 152.683592 267.287315 
L 153.003924 267.23232 
L 153.262256 266.543286 
L 153.355255 266.435621 
L 153.541254 266.225179 
L 153.665253 266.275271 
L 153.882252 266.601797 
L 153.913252 266.46788 
L 154.34725 264.63331 
L 154.419583 264.76138 
L 154.79158 265.458715 
L 154.82258 265.27789 
L 155.070579 264.08346 
L 155.122245 264.12962 
L 155.318577 264.14059 
L 155.618242 264.096264 
L 155.979907 264.188003 
L 156.599904 263.965672 
L 156.785902 263.16462 
L 157.684897 258.549763 
L 158.459893 254.837624 
L 158.976557 253.223872 
L 160.702214 246.801334 
L 161.838874 240.749508 
L 163.388865 235.707079 
L 164.132861 233.629968 
L 164.174194 233.717379 
L 164.711524 234.607847 
L 164.938856 234.432249 
L 165.744852 232.857446 
L 167.460175 228.48276 
L 168.183505 226.330689 
L 168.503836 225.542323 
L 168.762168 224.935813 
L 170.064161 222.824234 
L 170.84949 221.623226 
L 172.275481 217.189536 
L 172.306481 217.309488 
L 172.668146 218.269856 
L 172.874811 218.279957 
L 173.205476 217.928782 
L 173.66014 217.117987 
L 174.548802 215.342908 
L 174.714134 215.227662 
L 174.993133 215.052082 
L 175.799128 211.880342 
L 176.739456 207.623949 
L 177.741784 204.982725 
L 178.630445 202.177878 
L 178.878444 201.745463 
L 178.899111 201.772357 
L 179.291775 202.348588 
L 179.395108 202.25893 
L 179.911772 201.575772 
L 180.118437 201.013251 
L 180.934766 198.71173 
L 181.616762 197.852127 
L 181.95776 197.876812 
L 182.143759 197.734087 
L 182.433091 197.562896 
L 182.815422 197.236043 
L 183.549084 196.218359 
L 183.807416 195.836319 
L 184.169081 195.524916 
L 184.510079 195.203848 
L 185.202408 193.15688 
L 185.760405 192.427666 
L 186.173736 191.919574 
L 186.948732 190.731283 
L 187.310396 190.527702 
L 187.961393 190.608848 
L 188.560723 190.827368 
L 189.077386 190.929847 
L 189.924715 190.455896 
L 190.017714 190.541103 
L 190.069381 190.468144 
L 190.575711 189.959258 
L 190.772043 190.06842 
L 191.557372 190.625516 
L 191.939703 190.810497 
L 192.353034 191.175717 
L 192.5907 191.328649 
L 192.993698 191.459819 
L 193.624027 191.922145 
L 193.903026 192.191849 
L 194.843354 191.991312 
L 195.535683 191.457695 
L 195.876681 191.295671 
L 196.197013 190.819705 
L 196.558677 190.806947 
L 197.209674 191.303631 
L 197.302673 191.151103 
L 197.468006 190.679221 
L 197.623005 190.596497 
L 197.82967 190.587563 
L 198.274001 190.605124 
L 198.687332 190.590542 
L 200.071991 188.998958 
L 200.268323 189.165562 
L 200.702321 189.597062 
L 201.136318 189.680499 
L 201.590982 189.780386 
L 201.642649 189.741869 
L 201.683982 189.827979 
L 201.849314 189.927367 
L 202.190312 189.929442 
L 202.417644 189.936319 
L 203.275306 189.943696 
L 203.833303 189.76781 
L 204.587632 189.376717 
L 204.969963 188.816553 
L 205.755292 188.252646 
L 206.003291 187.407936 
L 207.015951 183.604858 
L 209.444271 178.63161 
L 209.733603 177.69484 
L 209.950602 176.976049 
L 210.033268 177.083324 
L 210.818597 178.268644 
L 210.89093 178.032356 
L 211.686592 175.219768 
L 211.779591 175.409179 
L 212.492587 176.622149 
L 212.699253 176.626242 
L 212.792252 176.539029 
L 212.833585 176.625074 
L 213.174583 177.334567 
L 213.236583 177.217223 
L 213.691247 176.610443 
L 214.590242 176.032517 
L 214.910573 175.975555 
L 215.168905 176.20875 
L 215.199905 176.150888 
L 216.047234 174.274092 
L 216.997895 171.434545 
L 217.225227 170.78931 
L 217.80389 169.412535 
L 218.609886 168.089724 
L 219.777546 168.302631 
L 221.306871 163.772519 
L 222.040533 161.723543 
L 222.143866 161.978918 
L 222.62953 163.461066 
L 223.053194 164.41678 
L 224.809851 168.41438 
L 224.913184 168.308548 
L 225.223182 168.077735 
L 225.667513 168.103543 
L 225.853512 167.595634 
L 226.63884 163.590114 
L 226.866172 163.303592 
L 227.010838 163.136304 
L 227.072838 163.207444 
L 227.310503 163.322131 
L 227.579168 163.321965 
L 227.8685 163.250469 
L 228.343831 163.135169 
L 228.726162 163.331688 
L 229.253159 164.131214 
L 229.521824 164.451515 
L 230.32782 165.102702 
L 230.854817 164.477076 
L 231.237148 163.857156 
L 231.309481 163.938893 
L 232.09481 165.000612 
L 232.446141 165.363464 
L 233.076471 165.232326 
L 237.282114 171.260785 
L 237.323447 171.199216 
L 238.480773 169.630347 
L 239.255769 169.420423 
L 239.524434 169.495166 
L 239.751766 169.528804 
L 239.989432 169.295515 
L 240.216764 169.211973 
L 241.074425 169.136473 
L 241.260424 169.159943 
L 241.704755 169.029625 
L 242.469417 168.648709 
L 242.500417 168.714391 
L 243.17208 170.36985 
L 243.595744 171.663131 
L 243.750744 172.173622 
L 244.835737 176.204675 
L 246.437395 181.357108 
L 247.181391 182.293245 
L 247.284724 182.388881 
L 248.421384 183.06275 
L 248.586716 183.01199 
L 248.855381 182.785377 
L 248.865715 182.831609 
L 249.07238 183.260859 
L 249.64071 184.498554 
L 250.746371 187.107276 
L 250.973703 186.994783 
L 251.097702 186.767103 
L 251.3767 186.358665 
L 251.4077 186.325844 
L 251.459367 186.407637 
L 252.017363 187.087752 
L 252.709693 185.844176 
L 253.371022 184.305849 
L 253.763687 183.54854 
L 254.34235 183.325173 
L 255.169012 184.752826 
L 256.10934 186.575436 
L 256.688004 187.174074 
L 257.018668 187.471629 
L 257.617998 187.594905 
L 258.00033 187.458424 
L 258.423994 187.296457 
L 258.692659 187.518927 
L 259.395322 187.564642 
L 259.777653 187.194009 
L 260.624981 186.622311 
L 262.288639 186.987902 
L 262.505637 186.999108 
L 262.887969 186.178111 
L 263.797297 184.230257 
L 264.086628 184.136486 
L 264.293294 184.114273 
L 264.479293 184.135557 
L 265.398954 184.446316 
L 265.956951 184.06386 
L 266.628614 183.283769 
L 267.661942 182.162605 
L 268.839935 182.118083 
L 269.759596 180.728711 
L 271.567919 178.345896 
L 272.58058 177.761893 
L 273.820573 177.331042 
L 274.171905 177.583251 
L 274.9779 178.812969 
L 274.988233 178.801707 
L 275.050233 178.733055 
L 275.091566 178.821039 
L 276.062894 180.893955 
L 276.14556 180.836847 
L 276.424559 180.829238 
L 277.819551 180.470312 
L 278.336214 180.770072 
L 278.914878 181.608647 
L 279.958539 182.072896 
L 280.113538 181.976404 
L 280.671535 181.719566 
L 280.960866 181.579329 
L 281.363864 181.359604 
L 281.684196 181.620231 
L 282.13886 182.022062 
L 283.017188 180.671579 
L 283.84385 180.388255 
L 284.515513 181.083788 
L 284.918511 181.616713 
L 285.838172 182.858918 
L 286.096504 182.928242 
L 286.768167 182.299983 
L 287.997826 181.241932 
L 288.462824 180.38694 
L 289.000154 179.780904 
L 289.227486 179.754734 
L 289.279153 179.719291 
L 289.310152 179.808444 
L 290.28148 182.24901 
L 290.715478 183.038826 
L 291.056476 183.039275 
L 291.387141 182.991132 
L 291.604139 183.396091 
L 292.461801 184.770679 
L 292.6788 184.938963 
L 292.689133 184.906118 
L 293.164464 183.397529 
L 293.257463 183.449951 
L 293.484795 183.701505 
L 294.301124 185.754966 
L 294.807455 186.512405 
L 294.910787 186.577276 
L 295.179452 186.873489 
L 295.58245 187.418479 
L 296.24378 187.676924 
L 297.225441 187.865737 
L 298.765099 187.892597 
L 300.687088 187.150275 
L 300.873087 187.110049 
L 302.14408 188.325691 
L 302.526411 188.729858 
L 303.766404 190.181657 
L 304.706732 192.310832 
L 305.70906 193.40552 
L 307.155718 194.540983 
L 309.594371 194.880695 
L 309.801036 194.907497 
L 310.162701 194.983266 
L 310.648365 195.408415 
L 311.464694 195.480996 
L 311.640359 195.359016 
L 312.68402 194.166195 
L 313.397016 193.460686 
L 313.831014 192.914388 
L 314.172012 192.481747 
L 314.657676 191.646922 
L 315.804669 188.151596 
L 316.868996 186.296405 
L 318.449987 185.278694 
L 318.811652 184.710678 
L 319.080317 184.622499 
L 319.669314 184.067761 
L 319.999979 183.992431 
L 320.475309 183.681552 
L 321.715302 182.460135 
L 322.283632 181.94529 
L 322.634964 181.62773 
L 323.275627 181.036396 
L 323.88529 181.162567 
L 324.949617 181.259229 
L 326.065611 181.325091 
L 326.427276 181.162549 
L 326.737274 181.106394 
L 327.264271 181.127208 
L 328.163266 180.366055 
L 328.462931 180.365992 
L 329.103594 180.218453 
L 329.764923 179.773481 
L 330.033589 179.840114 
L 330.581252 180.02775 
L 330.932583 180.068796 
L 331.211582 180.077717 
L 331.449247 180.046644 
L 331.862578 180.464702 
L 332.131243 180.696075 
L 332.503241 180.837739 
L 332.75124 180.792929 
L 332.895906 180.760988 
L 333.216237 180.685735 
L 333.619235 180.751804 
L 334.259898 181.707246 
L 335.262226 182.632763 
L 335.820222 183.399587 
L 335.964888 183.414776 
L 336.750217 182.982061 
L 336.987883 182.755715 
L 338.351875 182.24764 
L 338.703206 182.086388 
L 341.369191 181.26829 
L 342.247519 182.332132 
L 342.743517 182.90416 
L 342.960515 182.875324 
L 343.559845 182.559493 
L 343.838844 182.64039 
L 344.841171 183.520619 
L 345.233836 183.46694 
L 346.907826 182.912433 
L 347.434823 183.021511 
L 347.703489 182.90257 
L 348.333818 183.388424 
L 348.933148 183.446017 
L 349.480812 183.33011 
L 350.627805 183.515582 
L 351.010136 183.655344 
L 351.206469 183.529826 
L 351.764466 183.134157 
L 352.456795 182.907999 
L 353.097458 182.489885 
L 354.358118 182.12812 
L 354.647449 182.151266 
L 355.226113 182.178585 
L 355.72211 182.182369 
L 356.765771 181.390065 
L 357.220435 181.153061 
L 357.530433 181.225287 
L 357.685432 181.580066 
L 357.892098 181.802353 
L 359.142424 182.366981 
L 359.721087 183.226954 
L 360.578749 183.549275 
L 361.002413 184.138728 
L 361.467411 184.911201 
L 361.829075 185.518054 
L 362.769403 187.098238 
L 363.079402 186.923174 
L 363.482399 186.803615 
L 364.52606 187.400631 
L 364.836058 187.288028 
L 365.042724 187.392404 
L 365.642054 187.648719 
L 366.489382 187.826327 
L 366.634048 187.943253 
L 367.688042 189.266112 
L 368.504371 190.473437 
L 369.000368 190.582345 
L 369.372366 190.827987 
L 369.88903 191.139862 
L 370.653692 191.548215 
L 372.110684 191.534282 
L 372.420682 191.570828 
L 372.751347 191.58415 
L 373.598675 191.672006 
L 374.59067 190.779957 
L 374.993667 190.368447 
L 375.603331 189.910138 
L 376.29566 189.331439 
L 378.072983 188.555674 
L 378.940978 188.824151 
L 379.23031 189.038056 
L 379.250977 189.007514 
L 380.480636 186.999261 
L 380.893967 186.541033 
L 381.0593 186.289742 
L 381.513964 185.502439 
L 383.156955 183.701323 
L 384.179949 182.592868 
L 385.016944 181.449259 
L 385.254609 181.232871 
L 385.647274 180.771573 
L 386.174271 180.352984 
L 386.608268 180.030908 
L 387.548596 179.257502 
L 387.920594 178.817907 
L 388.819589 177.217691 
L 389.532585 176.7314 
L 390.214581 176.487785 
L 391.888572 175.011901 
L 392.301903 174.769057 
L 392.477568 174.667389 
L 392.932233 174.081384 
L 393.975893 173.500635 
L 394.120559 173.420843 
L 394.616556 173.239094 
L 396.063215 173.414646 
L 396.445546 173.206218 
L 396.827877 172.971379 
L 397.46854 172.523476 
L 398.894532 171.340666 
L 400.423857 170.825957 
L 401.209186 170.152562 
L 402.83151 169.029197 
L 403.46184 168.743143 
L 405.084164 167.840478 
L 407.037153 166.789835 
L 407.677816 166.172019 
L 408.173813 166.04304 
L 408.525144 165.878747 
L 409.641138 164.984544 
L 410.963797 165.05668 
L 412.875453 167.845598 
L 413.981113 168.931235 
L 414.497777 169.714317 
L 414.745776 169.940829 
L 415.303773 170.446582 
L 415.872103 170.884929 
L 416.543766 171.14209 
L 417.484094 171.668351 
L 417.938758 171.866815 
L 418.517421 172.415422 
L 418.775753 172.840034 
L 420.170745 174.967246 
L 420.511743 175.117793 
L 420.687409 175.281687 
L 421.348738 175.811995 
L 422.2684 176.187972 
L 422.991729 176.766812 
L 423.157061 176.734768 
L 424.624387 176.024221 
L 425.389049 175.644661 
L 425.668047 175.51831 
L 427.052706 174.785546 
L 427.714036 174.569215 
L 427.889701 174.696189 
L 428.478698 175.091886 
L 428.602697 175.136203 
L 428.850696 175.168124 
L 429.233027 175.113014 
L 429.677358 175.085984 
L 430.111355 175.02081 
L 430.41102 175.092751 
L 431.620014 175.442637 
L 432.291676 175.802837 
L 433.325004 176.376127 
L 433.852001 176.632382 
L 435.484658 176.651695 
L 435.753324 176.54518 
L 436.073655 176.481353 
L 436.683318 176.611504 
L 436.982983 176.717604 
L 437.458314 176.709291 
L 438.026644 176.568877 
L 439.111638 176.149491 
L 440.41363 175.615161 
L 440.692629 175.706345 
L 441.963622 176.285942 
L 442.573285 176.607308 
L 443.162282 176.874711 
L 443.761612 177.202925 
L 443.97861 177.36148 
L 444.505607 177.666844 
L 445.115271 177.78053 
L 445.559601 177.857114 
L 446.096932 177.99257 
L 447.099259 178.30192 
L 447.956921 177.832897 
L 448.390919 177.60137 
L 449.134914 177.301607 
L 451.7699 177.855158 
L 452.968559 178.12016 
L 453.702222 178.498595 
L 455.138547 178.605065 
L 456.295874 179.384195 
L 456.719538 179.594598 
L 457.5152 180.092905 
L 457.783865 180.14943 
L 458.631194 180.693496 
L 459.478523 181.601957 
L 460.687516 183.283768 
L 461.152513 183.845328 
L 462.082508 184.582959 
L 462.382173 184.705591 
L 463.4155 184.975615 
L 463.746165 185.067676 
L 464.13883 185.427063 
L 464.779493 185.568397 
L 465.027491 185.50553 
L 465.585488 185.464149 
L 467.765809 185.313182 
L 468.14814 185.282339 
L 469.326133 185.713139 
L 470.597126 185.950194 
L 471.465121 185.922233 
L 472.209117 186.198849 
L 472.81878 186.238122 
L 474.782103 185.039379 
L 474.978435 185.052219 
L 476.125428 185.073167 
L 476.693758 185.160178 
L 477.251755 185.303034 
L 477.789086 185.458932 
L 479.297744 185.833773 
L 480.062406 186.408874 
L 481.1784 187.276335 
L 481.395399 187.316747 
L 482.366726 187.792351 
L 483.999384 187.538978 
L 484.474714 187.691293 
L 485.146377 187.369236 
L 486.675702 187.376366 
L 486.965034 187.266634 
L 487.574697 187.170138 
L 488.174027 187.059903 
L 489.062688 187.031929 
L 489.641352 187.279458 
L 490.158016 187.671821 
L 490.819345 187.916711 
L 491.18101 188.126489 
L 492.007672 188.058366 
L 495.985983 186.410855 
L 496.337314 186.487862 
L 496.98831 186.21967 
L 498.145637 186.001308 
L 499.35463 185.706988 
L 500.346625 185.100861 
L 501.565951 184.714812 
L 502.103281 184.747139 
L 502.733611 185.049004 
L 503.198608 184.746344 
L 504.05627 184.189142 
L 504.448935 184.328924 
L 505.130931 184.928343 
L 505.492595 185.098631 
L 507.156253 186.120845 
L 507.662583 186.410963 
L 508.137914 186.553927 
L 508.375579 186.580552 
L 508.78891 186.373802 
L 509.439906 185.83576 
L 510.235569 184.761786 
L 511.279229 183.481497 
L 512.085225 183.551266 
L 512.41589 183.45907 
L 512.808554 183.247832 
L 513.139219 183.107698 
L 513.790215 182.883109 
L 514.007214 183.003624 
L 514.596211 183.261953 
L 515.340206 183.634595 
L 518.31619 185.066054 
L 519.339184 185.003126 
L 520.413844 185.53382 
L 521.405839 185.490387 
L 521.643504 185.501138 
L 522.211834 185.39472 
L 523.668826 183.977697 
L 524.051157 183.659171 
L 524.712487 183.469311 
L 525.745814 182.572023 
L 526.272811 182.069034 
L 527.068473 181.549359 
L 528.267133 181.189256 
L 529.300461 180.761821 
L 530.364788 181.034532 
L 530.984785 180.837554 
L 533.289105 179.495196 
L 534.043434 178.515917 
L 534.69443 177.504056 
L 534.78743 177.361185 
L 535.056095 177.088317 
L 536.068756 177.185165 
L 536.316754 176.96721 
L 536.678419 176.958197 
L 537.195083 176.938548 
L 537.75308 177.004657 
L 538.187077 177.036574 
L 539.148072 177.529218 
L 539.36507 177.709533 
L 540.62573 178.800489 
L 541.628058 178.78545 
L 541.938056 178.59969 
L 542.89905 177.913498 
L 544.087377 176.823822 
L 545.089705 175.979281 
L 546.58803 175.250003 
L 547.053027 175.300807 
L 547.75569 175.043783 
L 548.89235 174.605873 
L 549.49168 174.527998 
L 549.791345 174.5195 
L 551.300003 174.811615 
L 553.232325 174.716401 
L 554.368985 174.552529 
L 555.763978 174.505718 
L 556.456307 174.528075 
L 556.962637 174.577896 
L 558.884627 174.571419 
L 559.473623 174.88083 
L 560.227952 175.301355 
L 561.147614 175.558276 
L 561.571278 175.567735 
L 562.253274 175.680623 
L 562.976603 176.153041 
L 563.617266 176.72502 
L 564.030597 176.977521 
L 564.805593 176.910564 
L 565.384256 177.080047 
L 566.386584 176.597414 
L 567.492245 176.19316 
L 570.230562 176.875909 
L 571.80122 177.808101 
L 572.875881 177.597649 
L 573.878208 177.818207 
L 574.518871 177.674761 
L 575.614199 177.537182 
L 577.019524 177.381061 
L 577.319189 177.351518 
L 577.546521 177.261714 
L 578.476516 176.943077 
L 578.920847 176.975281 
L 579.241178 176.970453 
L 579.881841 177.395196 
L 580.326172 177.658497 
L 580.884169 177.974945 
L 581.886496 178.056421 
L 582.795825 177.77802 
L 585.089812 178.866806 
L 587.001467 180.089679 
L 588.086461 180.361261 
L 590.401115 180.498254 
L 591.620441 179.943094 
L 592.219771 179.595388 
L 592.643436 179.636456 
L 592.922434 179.561017 
L 593.800762 179.015846 
L 594.627424 178.998983 
L 597.241743 179.178185 
L 597.965072 178.984363 
L 599.112066 179.382354 
L 600.455391 179.717706 
L 601.84005 179.643544 
L 604.123704 181.240764 
L 605.012366 181.803808 
L 606.00436 182.589685 
L 606.717356 183.101849 
L 609.311008 184.240495 
L 611.36733 183.958213 
L 611.36733 183.958213 
" clip-path="url(#p11335e2376)" style="fill: none; stroke: #1f2937; stroke-linecap: square"/>
   </g>
   <g id="line2d_30">
    <path d="M 68.88125 183.958213 
L 637.2 183.958213 
" clip-path="url(#p11335e2376)" style="fill: none; stroke-dasharray: 2.96,1.28; stroke-dashoffset: 0; stroke: #888888; stroke-width: 0.8"/>
   </g>
   <g id="patch_3">
    <path d="M 68.88125 282.04 
L 68.88125 26.88 
" style="fill: none; stroke: #000000; stroke-width: 0.8; stroke-linejoin: miter; stroke-linecap: square"/>
   </g>
   <g id="patch_4">
    <path d="M 637.2 282.04 
L 637.2 26.88 
" style="fill: none; stroke: #000000; stroke-width: 0.8; stroke-linejoin: miter; stroke-linecap: square"/>
   </g>
   <g id="patch_5">
    <path d="M 68.88125 282.04 
L 637.2 282.04 
" style="fill: none; stroke: #000000; stroke-width: 0.8; stroke-linejoin: miter; stroke-linecap: square"/>
   </g>
   <g id="patch_6">
    <path d="M 68.88125 26.88 
L 637.2 26.88 
" style="fill: none; stroke: #000000; stroke-width: 0.8; stroke-linejoin: miter; stroke-linecap: square"/>
   </g>
   <g id="text_17">
    <!-- Running mean — mean_median  (100k ReCom samples, seed 42) -->
    <g transform="translate(156.065312 20.88) scale(0.12 -0.12)">
     <defs>
      <path id="DejaVuSans-2014" d="M 313 1978 
L 6088 1978 
L 6088 1528 
L 313 1528 
L 313 1978 
z
" transform="scale(0.015625)"/>
      <path id="DejaVuSans-28" d="M 1984 4856 
Q 1566 4138 1362 3434 
Q 1159 2731 1159 2009 
Q 1159 1288 1364 580 
Q 1569 -128 1984 -844 
L 1484 -844 
Q 1016 -109 783 600 
Q 550 1309 550 2009 
Q 550 2706 781 3412 
Q 1013 4119 1484 4856 
L 1984 4856 
z
" transform="scale(0.015625)"/>
      <path id="DejaVuSans-6b" d="M 581 4863 
L 1159 4863 
L 1159 1991 
L 2875 3500 
L 3609 3500 
L 1753 1863 
L 3688 0 
L 2938 0 
L 1159 1709 
L 1159 0 
L 581 0 
L 581 4863 
z
" transform="scale(0.015625)"/>
      <path id="DejaVuSans-43" d="M 4122 4306 
L 4122 3641 
Q 3803 3938 3442 4084 
Q 3081 4231 2675 4231 
Q 1875 4231 1450 3742 
Q 1025 3253 1025 2328 
Q 1025 1406 1450 917 
Q 1875 428 2675 428 
Q 3081 428 3442 575 
Q 3803 722 4122 1019 
L 4122 359 
Q 3791 134 3420 21 
Q 3050 -91 2638 -91 
Q 1578 -91 968 557 
Q 359 1206 359 2328 
Q 359 3453 968 4101 
Q 1578 4750 2638 4750 
Q 3056 4750 3426 4639 
Q 3797 4528 4122 4306 
z
" transform="scale(0.015625)"/>
      <path id="DejaVuSans-73" d="M 2834 3397 
L 2834 2853 
Q 2591 2978 2328 3040 
Q 2066 3103 1784 3103 
Q 1356 3103 1142 2972 
Q 928 2841 928 2578 
Q 928 2378 1081 2264 
Q 1234 2150 1697 2047 
L 1894 2003 
Q 2506 1872 2764 1633 
Q 3022 1394 3022 966 
Q 3022 478 2636 193 
Q 2250 -91 1575 -91 
Q 1294 -91 989 -36 
Q 684 19 347 128 
L 347 722 
Q 666 556 975 473 
Q 1284 391 1588 391 
Q 1994 391 2212 530 
Q 2431 669 2431 922 
Q 2431 1156 2273 1281 
Q 2116 1406 1581 1522 
L 1381 1569 
Q 847 1681 609 1914 
Q 372 2147 372 2553 
Q 372 3047 722 3315 
Q 1072 3584 1716 3584 
Q 2034 3584 2315 3537 
Q 2597 3491 2834 3397 
z
" transform="scale(0.015625)"/>
      <path id="DejaVuSans-2c" d="M 750 794 
L 1409 794 
L 1409 256 
L 897 -744 
L 494 -744 
L 750 256 
L 750 794 
z
" transform="scale(0.015625)"/>
      <path id="DejaVuSans-29" d="M 513 4856 
L 1013 4856 
Q 1481 4119 1714 3412 
Q 1947 2706 1947 2009 
Q 1947 1309 1714 600 
Q 1481 -109 1013 -844 
L 513 -844 
Q 928 -128 1133 580 
Q 1338 1288 1338 2009 
Q 1338 2731 1133 3434 
Q 928 4138 513 4856 
z
" transform="scale(0.015625)"/>
     </defs>
     <use xlink:href="#DejaVuSans-52"/>
     <use xlink:href="#DejaVuSans-75" transform="translate(64.982422 0)"/>
     <use xlink:href="#DejaVuSans-6e" transform="translate(128.361328 0)"/>
     <use xlink:href="#DejaVuSans-6e" transform="translate(191.740234 0)"/>
     <use xlink:href="#DejaVuSans-69" transform="translate(255.119141 0)"/>
     <use xlink:href="#DejaVuSans-6e" transform="translate(282.902344 0)"/>
     <use xlink:href="#DejaVuSans-67" transform="translate(346.28125 0)"/>
     <use xlink:href="#DejaVuSans-20" transform="translate(409.757812 0)"/>
     <use xlink:href="#DejaVuSans-6d" transform="translate(441.544922 0)"/>
     <use xlink:href="#DejaVuSans-65" transform="translate(538.957031 0)"/>
     <use xlink:href="#DejaVuSans-61" transform="translate(600.480469 0)"/>
     <use xlink:href="#DejaVuSans-6e" transform="translate(661.759766 0)"/>
     <use xlink:href="#DejaVuSans-20" transform="translate(725.138672 0)"/>
     <use xlink:href="#DejaVuSans-2014" transform="translate(756.925781 0)"/>
     <use xlink:href="#DejaVuSans-20" transform="translate(856.925781 0)"/>
     <use xlink:href="#DejaVuSans-6d" transform="translate(888.712891 0)"/>
     <use xlink:href="#DejaVuSans-65" transform="translate(986.125 0)"/>
     <use xlink:href="#DejaVuSans-61" transform="translate(1047.648438 0)"/>
     <use xlink:href="#DejaVuSans-6e" transform="translate(1108.927734 0)"/>
     <use xlink:href="#DejaVuSans-5f" transform="translate(1172.306641 0)"/>
     <use xlink:href="#DejaVuSans-6d" transform="translate(1222.306641 0)"/>
     <use xlink:href="#DejaVuSans-65" transform="translate(1319.71875 0)"/>
     <use xlink:href="#DejaVuSans-64" transform="translate(1381.242188 0)"/>
     <use xlink:href="#DejaVuSans-69" transform="translate(1444.71875 0)"/>
     <use xlink:href="#DejaVuSans-61" transform="translate(1472.501953 0)"/>
     <use xlink:href="#DejaVuSans-6e" transform="translate(1533.78125 0)"/>
     <use xlink:href="#DejaVuSans-20" transform="translate(1597.160156 0)"/>
     <use xlink:href="#DejaVuSans-20" transform="translate(1628.947266 0)"/>
     <use xlink:href="#DejaVuSans-28" transform="translate(1660.734375 0)"/>
     <use xlink:href="#DejaVuSans-31" transform="translate(1699.748047 0)"/>
     <use xlink:href="#DejaVuSans-30" transform="translate(1763.371094 0)"/>
     <use xlink:href="#DejaVuSans-30" transform="translate(1826.994141 0)"/>
     <use xlink:href="#DejaVuSans-6b" transform="translate(1890.617188 0)"/>
     <use xlink:href="#DejaVuSans-20" transform="translate(1948.527344 0)"/>
     <use xlink:href="#DejaVuSans-52" transform="translate(1980.314453 0)"/>
     <use xlink:href="#DejaVuSans-65" transform="translate(2045.296875 0)"/>
     <use xlink:href="#DejaVuSans-43" transform="translate(2106.820312 0)"/>
     <use xlink:href="#DejaVuSans-6f" transform="translate(2176.644531 0)"/>
     <use xlink:href="#DejaVuSans-6d" transform="translate(2237.826172 0)"/>
     <use xlink:href="#DejaVuSans-20" transform="translate(2335.238281 0)"/>
     <use xlink:href="#DejaVuSans-73" transform="translate(2367.025391 0)"/>
     <use xlink:href="#DejaVuSans-61" transform="translate(2419.125 0)"/>
     <use xlink:href="#DejaVuSans-6d" transform="translate(2480.404297 0)"/>
     <use xlink:href="#DejaVuSans-70" transform="translate(2577.816406 0)"/>
     <use xlink:href="#DejaVuSans-6c" transform="translate(2641.292969 0)"/>
     <use xlink:href="#DejaVuSans-65" transform="translate(2669.076172 0)"/>
     <use xlink:href="#DejaVuSans-73" transform="translate(2730.599609 0)"/>
     <use xlink:href="#DejaVuSans-2c" transform="translate(2782.699219 0)"/>
     <use xlink:href="#DejaVuSans-20" transform="translate(2814.486328 0)"/>
     <use xlink:href="#DejaVuSans-73" transform="translate(2846.273438 0)"/>
     <use xlink:href="#DejaVuSans-65" transform="translate(2898.373047 0)"/>
     <use xlink:href="#DejaVuSans-65" transform="translate(2959.896484 0)"/>
     <use xlink:href="#DejaVuSans-64" transform="translate(3021.419922 0)"/>
     <use xlink:href="#DejaVuSans-20" transform="translate(3084.896484 0)"/>
     <use xlink:href="#DejaVuSans-34" transform="translate(3116.683594 0)"/>
     <use xlink:href="#DejaVuSans-32" transform="translate(3180.306641 0)"/>
     <use xlink:href="#DejaVuSans-29" transform="translate(3243.929688 0)"/>
    </g>
   </g>
   <g id="legend_1">
    <g id="patch_7">
     <path d="M 500.601094 47.290312 
L 630.9 47.290312 
Q 632.7 47.290312 632.7 45.490312 
L 632.7 33.18 
Q 632.7 31.38 630.9 31.38 
L 500.601094 31.38 
Q 498.801094 31.38 498.801094 33.18 
L 498.801094 45.490312 
Q 498.801094 47.290312 500.601094 47.290312 
z
" style="fill: #ffffff; opacity: 0.8; stroke: #cccccc; stroke-linejoin: miter"/>
    </g>
    <g id="line2d_31">
     <path d="M 502.401094 38.668594 
L 511.401094 38.668594 
L 520.401094 38.668594 
" style="fill: none; stroke-dasharray: 2.96,1.28; stroke-dashoffset: 0; stroke: #888888; stroke-width: 0.8"/>
    </g>
    <g id="text_18">
     <!-- final mean = -0.01965 -->
     <g transform="translate(527.601094 41.818594) scale(0.09 -0.09)">
      <defs>
       <path id="DejaVuSans-3d" d="M 678 2906 
L 4684 2906 
L 4684 2381 
L 678 2381 
L 678 2906 
z
M 678 1631 
L 4684 1631 
L 4684 1100 
L 678 1100 
L 678 1631 
z
" transform="scale(0.015625)"/>
       <path id="DejaVuSans-2d" d="M 313 2009 
L 1997 2009 
L 1997 1497 
L 313 1497 
L 313 2009 
z
" transform="scale(0.015625)"/>
      </defs>
      <use xlink:href="#DejaVuSans-66"/>
      <use xlink:href="#DejaVuSans-69" transform="translate(35.205078 0)"/>
      <use xlink:href="#DejaVuSans-6e" transform="translate(62.988281 0)"/>
      <use xlink:href="#DejaVuSans-61" transform="translate(126.367188 0)"/>
      <use xlink:href="#DejaVuSans-6c" transform="translate(187.646484 0)"/>
      <use xlink:href="#DejaVuSans-20" transform="translate(215.429688 0)"/>
      <use xlink:href="#DejaVuSans-6d" transform="translate(247.216797 0)"/>
      <use xlink:href="#DejaVuSans-65" transform="translate(344.628906 0)"/>
      <use xlink:href="#DejaVuSans-61" transform="translate(406.152344 0)"/>
      <use xlink:href="#DejaVuSans-6e" transform="translate(467.431641 0)"/>
      <use xlink:href="#DejaVuSans-20" transform="translate(530.810547 0)"/>
      <use xlink:href="#DejaVuSans-3d" transform="translate(562.597656 0)"/>
      <use xlink:href="#DejaVuSans-20" transform="translate(646.386719 0)"/>
      <use xlink:href="#DejaVuSans-2d" transform="translate(678.173828 0)"/>
      <use xlink:href="#DejaVuSans-30" transform="translate(714.257812 0)"/>
      <use xlink:href="#DejaVuSans-2e" transform="translate(777.880859 0)"/>
      <use xlink:href="#DejaVuSans-30" transform="translate(809.667969 0)"/>
      <use xlink:href="#DejaVuSans-31" transform="translate(873.291016 0)"/>
      <use xlink:href="#DejaVuSans-39" transform="translate(936.914062 0)"/>
      <use xlink:href="#DejaVuSans-36" transform="translate(1000.537109 0)"/>
      <use xlink:href="#DejaVuSans-35" transform="translate(1064.160156 0)"/>
     </g>
    </g>
   </g>
  </g>
 </g>
 <defs>
  <clipPath id="p11335e2376">
   <rect x="68.88125" y="26.88" width="568.31875" height="255.16"/>
  </clipPath>
 </defs>
</svg>
