<?xml version="1.0" encoding="utf-8" standalone="no"?>
<!DOCTYPE svg PUBLIC "-//W3C//DTD SVG 1.1//EN"
  "http://www.w3.org/Graphics/SVG/1.1/DTD/svg11.dtd">
<svg xmlns:xlink="http://www.w3.org/1999/xlink" width="648pt" height="324pt" viewBox="0 0 648 324" xmlns="http://www.w3.org/2000/svg" version="1.1">
 <metadata>
  <rdf:RDF xmlns:dc="http://purl.org/dc/elements/1.1/" xmlns:cc="http://creativecommons.org/ns#" xmlns:rdf="http://www.w3.org/1999/02/22-rdf-syntax-ns#">
   <cc:Work>
    <dc:type rdf:resource="http://purl.org/dc/dcmitype/StillImage"/>
    <dc:date>2026-05-18T20:46:06.884294</dc:date>
    <dc:format>image/svg+xml</dc:format>
    <dc:creator>
     <cc:Agent>
      <dc:title>Matplotlib v3.10.8, https://matplotlib.org/</dc:title>
     </cc:Agent>
    </dc:creator>
   </cc:Work>
  </rdf:RDF>
 </metadata>
 <defs>
  <style type="text/css">*{stroke-linejoin: round; stroke-linecap: butt}</style>
 </defs>
 <g id="figure_1">
  <g id="patch_1">
   <path d="M 0 324 
L 648 324 
L 648 0 
L 0 0 
z
" style="fill: #ffffff"/>
  </g>
  <g id="axes_1">
   <g id="patch_2">
    <path d="M 68.88125 282.04 
L 637.2 282.04 
L 637.2 26.88 
L 68.88125 26.88 
z
" style="fill: #ffffff"/>
   </g>
   <g id="matplotlib.axis_1">
    <g id="xtick_1">
     <g id="line2d_1">
      <path d="M 94.708754 282.04 
L 94.708754 26.88 
" clip-path="url(#p2aa3391021)" style="fill: none; stroke-dasharray: 0.5,0.825; stroke-dashoffset: 0; stroke: #b0b0b0; stroke-opacity: 0.6; stroke-width: 0.5"/>
     </g>
     <g id="line2d_2">
      <defs>
       <path id="m95ff8068ec" d="M 0 0 
L 0 3.5 
" style="stroke: #000000; stroke-width: 0.8"/>
      </defs>
      <g>
       <use xlink:href="#m95ff8068ec" x="94.708754" y="282.04" style="stroke: #000000; stroke-width: 0.8"/>
      </g>
     </g>
     <g id="text_1">
      <!-- 0 -->
      <g transform="translate(91.527504 296.638438) scale(0.1 -0.1)">
       <defs>
        <path id="DejaVuSans-30" d="M 2034 4250 
Q 1547 4250 1301 3770 
Q 1056 3291 1056 2328 
Q 1056 1369 1301 889 
Q 1547 409 2034 409 
Q 2525 409 2770 889 
Q 3016 1369 3016 2328 
Q 3016 3291 2770 3770 
Q 2525 4250 2034 4250 
z
M 2034 4750 
Q 2819 4750 3233 4129 
Q 3647 3509 3647 2328 
Q 3647 1150 3233 529 
Q 2819 -91 2034 -91 
Q 1250 -91 836 529 
Q 422 1150 422 2328 
Q 422 3509 836 4129 
Q 1250 4750 2034 4750 
z
" transform="scale(0.015625)"/>
       </defs>
       <use xlink:href="#DejaVuSans-30"/>
      </g>
     </g>
    </g>
    <g id="xtick_2">
     <g id="line2d_3">
      <path d="M 198.040469 282.04 
L 198.040469 26.88 
" clip-path="url(#p2aa3391021)" style="fill: none; stroke-dasharray: 0.5,0.825; stroke-dashoffset: 0; stroke: #b0b0b0; stroke-opacity: 0.6; stroke-width: 0.5"/>
     </g>
     <g id="line2d_4">
      <g>
       <use xlink:href="#m95ff8068ec" x="198.040469" y="282.04" style="stroke: #000000; stroke-width: 0.8"/>
      </g>
     </g>
     <g id="text_2">
      <!-- 20000 -->
      <g transform="translate(182.134219 296.638438) scale(0.1 -0.1)">
       <defs>
        <path id="DejaVuSans-32" d="M 1228 531 
L 3431 531 
L 3431 0 
L 469 0 
L 469 531 
Q 828 903 1448 1529 
Q 2069 2156 2228 2338 
Q 2531 2678 2651 2914 
Q 2772 3150 2772 3378 
Q 2772 3750 2511 3984 
Q 2250 4219 1831 4219 
Q 1534 4219 1204 4116 
Q 875 4013 500 3803 
L 500 4441 
Q 881 4594 1212 4672 
Q 1544 4750 1819 4750 
Q 2544 4750 2975 4387 
Q 3406 4025 3406 3419 
Q 3406 3131 3298 2873 
Q 3191 2616 2906 2266 
Q 2828 2175 2409 1742 
Q 1991 1309 1228 531 
z
" transform="scale(0.015625)"/>
       </defs>
       <use xlink:href="#DejaVuSans-32"/>
       <use xlink:href="#DejaVuSans-30" transform="translate(63.623047 0)"/>
       <use xlink:href="#DejaVuSans-30" transform="translate(127.246094 0)"/>
       <use xlink:href="#DejaVuSans-30" transform="translate(190.869141 0)"/>
       <use xlink:href="#DejaVuSans-30" transform="translate(254.492188 0)"/>
      </g>
     </g>
    </g>
    <g id="xtick_3">
     <g id="line2d_5">
      <path d="M 301.372184 282.04 
L 301.372184 26.88 
" clip-path="url(#p2aa3391021)" style="fill: none; stroke-dasharray: 0.5,0.825; stroke-dashoffset: 0; stroke: #b0b0b0; stroke-opacity: 0.6; stroke-width: 0.5"/>
     </g>
     <g id="line2d_6">
      <g>
       <use xlink:href="#m95ff8068ec" x="301.372184" y="282.04" style="stroke: #000000; stroke-width: 0.8"/>
      </g>
     </g>
     <g id="text_3">
      <!-- 40000 -->
      <g transform="translate(285.465934 296.638438) scale(0.1 -0.1)">
       <defs>
        <path id="DejaVuSans-34" d="M 2419 4116 
L 825 1625 
L 2419 1625 
L 2419 4116 
z
M 2253 4666 
L 3047 4666 
L 3047 1625 
L 3713 1625 
L 3713 1100 
L 3047 1100 
L 3047 0 
L 2419 0 
L 2419 1100 
L 313 1100 
L 313 1709 
L 2253 4666 
z
" transform="scale(0.015625)"/>
       </defs>
       <use xlink:href="#DejaVuSans-34"/>
       <use xlink:href="#DejaVuSans-30" transform="translate(63.623047 0)"/>
       <use xlink:href="#DejaVuSans-30" transform="translate(127.246094 0)"/>
       <use xlink:href="#DejaVuSans-30" transform="translate(190.869141 0)"/>
       <use xlink:href="#DejaVuSans-30" transform="translate(254.492188 0)"/>
      </g>
     </g>
    </g>
    <g id="xtick_4">
     <g id="line2d_7">
      <path d="M 404.703899 282.04 
L 404.703899 26.88 
" clip-path="url(#p2aa3391021)" style="fill: none; stroke-dasharray: 0.5,0.825; stroke-dashoffset: 0; stroke: #b0b0b0; stroke-opacity: 0.6; stroke-width: 0.5"/>
     </g>
     <g id="line2d_8">
      <g>
       <use xlink:href="#m95ff8068ec" x="404.703899" y="282.04" style="stroke: #000000; stroke-width: 0.8"/>
      </g>
     </g>
     <g id="text_4">
      <!-- 60000 -->
      <g transform="translate(388.797649 296.638438) scale(0.1 -0.1)">
       <defs>
        <path id="DejaVuSans-36" d="M 2113 2584 
Q 1688 2584 1439 2293 
Q 1191 2003 1191 1497 
Q 1191 994 1439 701 
Q 1688 409 2113 409 
Q 2538 409 2786 701 
Q 3034 994 3034 1497 
Q 3034 2003 2786 2293 
Q 2538 2584 2113 2584 
z
M 3366 4563 
L 3366 3988 
Q 3128 4100 2886 4159 
Q 2644 4219 2406 4219 
Q 1781 4219 1451 3797 
Q 1122 3375 1075 2522 
Q 1259 2794 1537 2939 
Q 1816 3084 2150 3084 
Q 2853 3084 3261 2657 
Q 3669 2231 3669 1497 
Q 3669 778 3244 343 
Q 2819 -91 2113 -91 
Q 1303 -91 875 529 
Q 447 1150 447 2328 
Q 447 3434 972 4092 
Q 1497 4750 2381 4750 
Q 2619 4750 2861 4703 
Q 3103 4656 3366 4563 
z
" transform="scale(0.015625)"/>
       </defs>
       <use xlink:href="#DejaVuSans-36"/>
       <use xlink:href="#DejaVuSans-30" transform="translate(63.623047 0)"/>
       <use xlink:href="#DejaVuSans-30" transform="translate(127.246094 0)"/>
       <use xlink:href="#DejaVuSans-30" transform="translate(190.869141 0)"/>
       <use xlink:href="#DejaVuSans-30" transform="translate(254.492188 0)"/>
      </g>
     </g>
    </g>
    <g id="xtick_5">
     <g id="line2d_9">
      <path d="M 508.035614 282.04 
L 508.035614 26.88 
" clip-path="url(#p2aa3391021)" style="fill: none; stroke-dasharray: 0.5,0.825; stroke-dashoffset: 0; stroke: #b0b0b0; stroke-opacity: 0.6; stroke-width: 0.5"/>
     </g>
     <g id="line2d_10">
      <g>
       <use xlink:href="#m95ff8068ec" x="508.035614" y="282.04" style="stroke: #000000; stroke-width: 0.8"/>
      </g>
     </g>
     <g id="text_5">
      <!-- 80000 -->
      <g transform="translate(492.129364 296.638438) scale(0.1 -0.1)">
       <defs>
        <path id="DejaVuSans-38" d="M 2034 2216 
Q 1584 2216 1326 1975 
Q 1069 1734 1069 1313 
Q 1069 891 1326 650 
Q 1584 409 2034 409 
Q 2484 409 2743 651 
Q 3003 894 3003 1313 
Q 3003 1734 2745 1975 
Q 2488 2216 2034 2216 
z
M 1403 2484 
Q 997 2584 770 2862 
Q 544 3141 544 3541 
Q 544 4100 942 4425 
Q 1341 4750 2034 4750 
Q 2731 4750 3128 4425 
Q 3525 4100 3525 3541 
Q 3525 3141 3298 2862 
Q 3072 2584 2669 2484 
Q 3125 2378 3379 2068 
Q 3634 1759 3634 1313 
Q 3634 634 3220 271 
Q 2806 -91 2034 -91 
Q 1263 -91 848 271 
Q 434 634 434 1313 
Q 434 1759 690 2068 
Q 947 2378 1403 2484 
z
M 1172 3481 
Q 1172 3119 1398 2916 
Q 1625 2713 2034 2713 
Q 2441 2713 2670 2916 
Q 2900 3119 2900 3481 
Q 2900 3844 2670 4047 
Q 2441 4250 2034 4250 
Q 1625 4250 1398 4047 
Q 1172 3844 1172 3481 
z
" transform="scale(0.015625)"/>
       </defs>
       <use xlink:href="#DejaVuSans-38"/>
       <use xlink:href="#DejaVuSans-30" transform="translate(63.623047 0)"/>
       <use xlink:href="#DejaVuSans-30" transform="translate(127.246094 0)"/>
       <use xlink:href="#DejaVuSans-30" transform="translate(190.869141 0)"/>
       <use xlink:href="#DejaVuSans-30" transform="translate(254.492188 0)"/>
      </g>
     </g>
    </g>
    <g id="xtick_6">
     <g id="line2d_11">
      <path d="M 611.36733 282.04 
L 611.36733 26.88 
" clip-path="url(#p2aa3391021)" style="fill: none; stroke-dasharray: 0.5,0.825; stroke-dashoffset: 0; stroke: #b0b0b0; stroke-opacity: 0.6; stroke-width: 0.5"/>
     </g>
     <g id="line2d_12">
      <g>
       <use xlink:href="#m95ff8068ec" x="611.36733" y="282.04" style="stroke: #000000; stroke-width: 0.8"/>
      </g>
     </g>
     <g id="text_6">
      <!-- 100000 -->
      <g transform="translate(592.27983 296.638438) scale(0.1 -0.1)">
       <defs>
        <path id="DejaVuSans-31" d="M 794 531 
L 1825 531 
L 1825 4091 
L 703 3866 
L 703 4441 
L 1819 4666 
L 2450 4666 
L 2450 531 
L 3481 531 
L 3481 0 
L 794 0 
L 794 531 
z
" transform="scale(0.015625)"/>
       </defs>
       <use xlink:href="#DejaVuSans-31"/>
       <use xlink:href="#DejaVuSans-30" transform="translate(63.623047 0)"/>
       <use xlink:href="#DejaVuSans-30" transform="translate(127.246094 0)"/>
       <use xlink:href="#DejaVuSans-30" transform="translate(190.869141 0)"/>
       <use xlink:href="#DejaVuSans-30" transform="translate(254.492188 0)"/>
       <use xlink:href="#DejaVuSans-30" transform="translate(318.115234 0)"/>
      </g>
     </g>
    </g>
    <g id="text_7">
     <!-- Sample index -->
     <g transform="translate(319.022656 310.316563) scale(0.1 -0.1)">
      <defs>
       <path id="DejaVuSans-53" d="M 3425 4513 
L 3425 3897 
Q 3066 4069 2747 4153 
Q 2428 4238 2131 4238 
Q 1616 4238 1336 4038 
Q 1056 3838 1056 3469 
Q 1056 3159 1242 3001 
Q 1428 2844 1947 2747 
L 2328 2669 
Q 3034 2534 3370 2195 
Q 3706 1856 3706 1288 
Q 3706 609 3251 259 
Q 2797 -91 1919 -91 
Q 1588 -91 1214 -16 
Q 841 59 441 206 
L 441 856 
Q 825 641 1194 531 
Q 1563 422 1919 422 
Q 2459 422 2753 634 
Q 3047 847 3047 1241 
Q 3047 1584 2836 1778 
Q 2625 1972 2144 2069 
L 1759 2144 
Q 1053 2284 737 2584 
Q 422 2884 422 3419 
Q 422 4038 858 4394 
Q 1294 4750 2059 4750 
Q 2388 4750 2728 4690 
Q 3069 4631 3425 4513 
z
" transform="scale(0.015625)"/>
       <path id="DejaVuSans-61" d="M 2194 1759 
Q 1497 1759 1228 1600 
Q 959 1441 959 1056 
Q 959 750 1161 570 
Q 1363 391 1709 391 
Q 2188 391 2477 730 
Q 2766 1069 2766 1631 
L 2766 1759 
L 2194 1759 
z
M 3341 1997 
L 3341 0 
L 2766 0 
L 2766 531 
Q 2569 213 2275 61 
Q 1981 -91 1556 -91 
Q 1019 -91 701 211 
Q 384 513 384 1019 
Q 384 1609 779 1909 
Q 1175 2209 1959 2209 
L 2766 2209 
L 2766 2266 
Q 2766 2663 2505 2880 
Q 2244 3097 1772 3097 
Q 1472 3097 1187 3025 
Q 903 2953 641 2809 
L 641 3341 
Q 956 3463 1253 3523 
Q 1550 3584 1831 3584 
Q 2591 3584 2966 3190 
Q 3341 2797 3341 1997 
z
" transform="scale(0.015625)"/>
       <path id="DejaVuSans-6d" d="M 3328 2828 
Q 3544 3216 3844 3400 
Q 4144 3584 4550 3584 
Q 5097 3584 5394 3201 
Q 5691 2819 5691 2113 
L 5691 0 
L 5113 0 
L 5113 2094 
Q 5113 2597 4934 2840 
Q 4756 3084 4391 3084 
Q 3944 3084 3684 2787 
Q 3425 2491 3425 1978 
L 3425 0 
L 2847 0 
L 2847 2094 
Q 2847 2600 2669 2842 
Q 2491 3084 2119 3084 
Q 1678 3084 1418 2786 
Q 1159 2488 1159 1978 
L 1159 0 
L 581 0 
L 581 3500 
L 1159 3500 
L 1159 2956 
Q 1356 3278 1631 3431 
Q 1906 3584 2284 3584 
Q 2666 3584 2933 3390 
Q 3200 3197 3328 2828 
z
" transform="scale(0.015625)"/>
       <path id="DejaVuSans-70" d="M 1159 525 
L 1159 -1331 
L 581 -1331 
L 581 3500 
L 1159 3500 
L 1159 2969 
Q 1341 3281 1617 3432 
Q 1894 3584 2278 3584 
Q 2916 3584 3314 3078 
Q 3713 2572 3713 1747 
Q 3713 922 3314 415 
Q 2916 -91 2278 -91 
Q 1894 -91 1617 61 
Q 1341 213 1159 525 
z
M 3116 1747 
Q 3116 2381 2855 2742 
Q 2594 3103 2138 3103 
Q 1681 3103 1420 2742 
Q 1159 2381 1159 1747 
Q 1159 1113 1420 752 
Q 1681 391 2138 391 
Q 2594 391 2855 752 
Q 3116 1113 3116 1747 
z
" transform="scale(0.015625)"/>
       <path id="DejaVuSans-6c" d="M 603 4863 
L 1178 4863 
L 1178 0 
L 603 0 
L 603 4863 
z
" transform="scale(0.015625)"/>
       <path id="DejaVuSans-65" d="M 3597 1894 
L 3597 1613 
L 953 1613 
Q 991 1019 1311 708 
Q 1631 397 2203 397 
Q 2534 397 2845 478 
Q 3156 559 3463 722 
L 3463 178 
Q 3153 47 2828 -22 
Q 2503 -91 2169 -91 
Q 1331 -91 842 396 
Q 353 884 353 1716 
Q 353 2575 817 3079 
Q 1281 3584 2069 3584 
Q 2775 3584 3186 3129 
Q 3597 2675 3597 1894 
z
M 3022 2063 
Q 3016 2534 2758 2815 
Q 2500 3097 2075 3097 
Q 1594 3097 1305 2825 
Q 1016 2553 972 2059 
L 3022 2063 
z
" transform="scale(0.015625)"/>
       <path id="DejaVuSans-20" transform="scale(0.015625)"/>
       <path id="DejaVuSans-69" d="M 603 3500 
L 1178 3500 
L 1178 0 
L 603 0 
L 603 3500 
z
M 603 4863 
L 1178 4863 
L 1178 4134 
L 603 4134 
L 603 4863 
z
" transform="scale(0.015625)"/>
       <path id="DejaVuSans-6e" d="M 3513 2113 
L 3513 0 
L 2938 0 
L 2938 2094 
Q 2938 2591 2744 2837 
Q 2550 3084 2163 3084 
Q 1697 3084 1428 2787 
Q 1159 2491 1159 1978 
L 1159 0 
L 581 0 
L 581 3500 
L 1159 3500 
L 1159 2956 
Q 1366 3272 1645 3428 
Q 1925 3584 2291 3584 
Q 2894 3584 3203 3211 
Q 3513 2838 3513 2113 
z
" transform="scale(0.015625)"/>
       <path id="DejaVuSans-64" d="M 2906 2969 
L 2906 4863 
L 3481 4863 
L 3481 0 
L 2906 0 
L 2906 525 
Q 2725 213 2448 61 
Q 2172 -91 1784 -91 
Q 1150 -91 751 415 
Q 353 922 353 1747 
Q 353 2572 751 3078 
Q 1150 3584 1784 3584 
Q 2172 3584 2448 3432 
Q 2725 3281 2906 2969 
z
M 947 1747 
Q 947 1113 1208 752 
Q 1469 391 1925 391 
Q 2381 391 2643 752 
Q 2906 1113 2906 1747 
Q 2906 2381 2643 2742 
Q 2381 3103 1925 3103 
Q 1469 3103 1208 2742 
Q 947 2381 947 1747 
z
" transform="scale(0.015625)"/>
       <path id="DejaVuSans-78" d="M 3513 3500 
L 2247 1797 
L 3578 0 
L 2900 0 
L 1881 1375 
L 863 0 
L 184 0 
L 1544 1831 
L 300 3500 
L 978 3500 
L 1906 2253 
L 2834 3500 
L 3513 3500 
z
" transform="scale(0.015625)"/>
      </defs>
      <use xlink:href="#DejaVuSans-53"/>
      <use xlink:href="#DejaVuSans-61" transform="translate(63.476562 0)"/>
      <use xlink:href="#DejaVuSans-6d" transform="translate(124.755859 0)"/>
      <use xlink:href="#DejaVuSans-70" transform="translate(222.167969 0)"/>
      <use xlink:href="#DejaVuSans-6c" transform="translate(285.644531 0)"/>
      <use xlink:href="#DejaVuSans-65" transform="translate(313.427734 0)"/>
      <use xlink:href="#DejaVuSans-20" transform="translate(374.951172 0)"/>
      <use xlink:href="#DejaVuSans-69" transform="translate(406.738281 0)"/>
      <use xlink:href="#DejaVuSans-6e" transform="translate(434.521484 0)"/>
      <use xlink:href="#DejaVuSans-64" transform="translate(497.900391 0)"/>
      <use xlink:href="#DejaVuSans-65" transform="translate(561.376953 0)"/>
      <use xlink:href="#DejaVuSans-78" transform="translate(621.150391 0)"/>
     </g>
    </g>
   </g>
   <g id="matplotlib.axis_2">
    <g id="ytick_1">
     <g id="line2d_13">
      <path d="M 68.88125 269.829087 
L 637.2 269.829087 
" clip-path="url(#p2aa3391021)" style="fill: none; stroke-dasharray: 0.5,0.825; stroke-dashoffset: 0; stroke: #b0b0b0; stroke-opacity: 0.6; stroke-width: 0.5"/>
     </g>
     <g id="line2d_14">
      <defs>
       <path id="m241ef8443d" d="M 0 0 
L -3.5 0 
" style="stroke: #000000; stroke-width: 0.8"/>
      </defs>
      <g>
       <use xlink:href="#m241ef8443d" x="68.88125" y="269.829087" style="stroke: #000000; stroke-width: 0.8"/>
      </g>
     </g>
     <g id="text_8">
      <!-- −0.018 -->
      <g transform="translate(24.873438 273.628306) scale(0.1 -0.1)">
       <defs>
        <path id="DejaVuSans-2212" d="M 678 2272 
L 4684 2272 
L 4684 1741 
L 678 1741 
L 678 2272 
z
" transform="scale(0.015625)"/>
        <path id="DejaVuSans-2e" d="M 684 794 
L 1344 794 
L 1344 0 
L 684 0 
L 684 794 
z
" transform="scale(0.015625)"/>
       </defs>
       <use xlink:href="#DejaVuSans-2212"/>
       <use xlink:href="#DejaVuSans-30" transform="translate(83.789062 0)"/>
       <use xlink:href="#DejaVuSans-2e" transform="translate(147.412109 0)"/>
       <use xlink:href="#DejaVuSans-30" transform="translate(179.199219 0)"/>
       <use xlink:href="#DejaVuSans-31" transform="translate(242.822266 0)"/>
       <use xlink:href="#DejaVuSans-38" transform="translate(306.445312 0)"/>
      </g>
     </g>
    </g>
    <g id="ytick_2">
     <g id="line2d_15">
      <path d="M 68.88125 240.485062 
L 637.2 240.485062 
" clip-path="url(#p2aa3391021)" style="fill: none; stroke-dasharray: 0.5,0.825; stroke-dashoffset: 0; stroke: #b0b0b0; stroke-opacity: 0.6; stroke-width: 0.5"/>
     </g>
     <g id="line2d_16">
      <g>
       <use xlink:href="#m241ef8443d" x="68.88125" y="240.485062" style="stroke: #000000; stroke-width: 0.8"/>
      </g>
     </g>
     <g id="text_9">
      <!-- −0.016 -->
      <g transform="translate(24.873438 244.28428) scale(0.1 -0.1)">
       <use xlink:href="#DejaVuSans-2212"/>
       <use xlink:href="#DejaVuSans-30" transform="translate(83.789062 0)"/>
       <use xlink:href="#DejaVuSans-2e" transform="translate(147.412109 0)"/>
       <use xlink:href="#DejaVuSans-30" transform="translate(179.199219 0)"/>
       <use xlink:href="#DejaVuSans-31" transform="translate(242.822266 0)"/>
       <use xlink:href="#DejaVuSans-36" transform="translate(306.445312 0)"/>
      </g>
     </g>
    </g>
    <g id="ytick_3">
     <g id="line2d_17">
      <path d="M 68.88125 211.141036 
L 637.2 211.141036 
" clip-path="url(#p2aa3391021)" style="fill: none; stroke-dasharray: 0.5,0.825; stroke-dashoffset: 0; stroke: #b0b0b0; stroke-opacity: 0.6; stroke-width: 0.5"/>
     </g>
     <g id="line2d_18">
      <g>
       <use xlink:href="#m241ef8443d" x="68.88125" y="211.141036" style="stroke: #000000; stroke-width: 0.8"/>
      </g>
     </g>
     <g id="text_10">
      <!-- −0.014 -->
      <g transform="translate(24.873438 214.940255) scale(0.1 -0.1)">
       <use xlink:href="#DejaVuSans-2212"/>
       <use xlink:href="#DejaVuSans-30" transform="translate(83.789062 0)"/>
       <use xlink:href="#DejaVuSans-2e" transform="translate(147.412109 0)"/>
       <use xlink:href="#DejaVuSans-30" transform="translate(179.199219 0)"/>
       <use xlink:href="#DejaVuSans-31" transform="translate(242.822266 0)"/>
       <use xlink:href="#DejaVuSans-34" transform="translate(306.445312 0)"/>
      </g>
     </g>
    </g>
    <g id="ytick_4">
     <g id="line2d_19">
      <path d="M 68.88125 181.797011 
L 637.2 181.797011 
" clip-path="url(#p2aa3391021)" style="fill: none; stroke-dasharray: 0.5,0.825; stroke-dashoffset: 0; stroke: #b0b0b0; stroke-opacity: 0.6; stroke-width: 0.5"/>
     </g>
     <g id="line2d_20">
      <g>
       <use xlink:href="#m241ef8443d" x="68.88125" y="181.797011" style="stroke: #000000; stroke-width: 0.8"/>
      </g>
     </g>
     <g id="text_11">
      <!-- −0.012 -->
      <g transform="translate(24.873438 185.59623) scale(0.1 -0.1)">
       <use xlink:href="#DejaVuSans-2212"/>
       <use xlink:href="#DejaVuSans-30" transform="translate(83.789062 0)"/>
       <use xlink:href="#DejaVuSans-2e" transform="translate(147.412109 0)"/>
       <use xlink:href="#DejaVuSans-30" transform="translate(179.199219 0)"/>
       <use xlink:href="#DejaVuSans-31" transform="translate(242.822266 0)"/>
       <use xlink:href="#DejaVuSans-32" transform="translate(306.445312 0)"/>
      </g>
     </g>
    </g>
    <g id="ytick_5">
     <g id="line2d_21">
      <path d="M 68.88125 152.452985 
L 637.2 152.452985 
" clip-path="url(#p2aa3391021)" style="fill: none; stroke-dasharray: 0.5,0.825; stroke-dashoffset: 0; stroke: #b0b0b0; stroke-opacity: 0.6; stroke-width: 0.5"/>
     </g>
     <g id="line2d_22">
      <g>
       <use xlink:href="#m241ef8443d" x="68.88125" y="152.452985" style="stroke: #000000; stroke-width: 0.8"/>
      </g>
     </g>
     <g id="text_12">
      <!-- −0.010 -->
      <g transform="translate(24.873438 156.252204) scale(0.1 -0.1)">
       <use xlink:href="#DejaVuSans-2212"/>
       <use xlink:href="#DejaVuSans-30" transform="translate(83.789062 0)"/>
       <use xlink:href="#DejaVuSans-2e" transform="translate(147.412109 0)"/>
       <use xlink:href="#DejaVuSans-30" transform="translate(179.199219 0)"/>
       <use xlink:href="#DejaVuSans-31" transform="translate(242.822266 0)"/>
       <use xlink:href="#DejaVuSans-30" transform="translate(306.445312 0)"/>
      </g>
     </g>
    </g>
    <g id="ytick_6">
     <g id="line2d_23">
      <path d="M 68.88125 123.10896 
L 637.2 123.10896 
" clip-path="url(#p2aa3391021)" style="fill: none; stroke-dasharray: 0.5,0.825; stroke-dashoffset: 0; stroke: #b0b0b0; stroke-opacity: 0.6; stroke-width: 0.5"/>
     </g>
     <g id="line2d_24">
      <g>
       <use xlink:href="#m241ef8443d" x="68.88125" y="123.10896" style="stroke: #000000; stroke-width: 0.8"/>
      </g>
     </g>
     <g id="text_13">
      <!-- −0.008 -->
      <g transform="translate(24.873438 126.908179) scale(0.1 -0.1)">
       <use xlink:href="#DejaVuSans-2212"/>
       <use xlink:href="#DejaVuSans-30" transform="translate(83.789062 0)"/>
       <use xlink:href="#DejaVuSans-2e" transform="translate(147.412109 0)"/>
       <use xlink:href="#DejaVuSans-30" transform="translate(179.199219 0)"/>
       <use xlink:href="#DejaVuSans-30" transform="translate(242.822266 0)"/>
       <use xlink:href="#DejaVuSans-38" transform="translate(306.445312 0)"/>
      </g>
     </g>
    </g>
    <g id="ytick_7">
     <g id="line2d_25">
      <path d="M 68.88125 93.764934 
L 637.2 93.764934 
" clip-path="url(#p2aa3391021)" style="fill: none; stroke-dasharray: 0.5,0.825; stroke-dashoffset: 0; stroke: #b0b0b0; stroke-opacity: 0.6; stroke-width: 0.5"/>
     </g>
     <g id="line2d_26">
      <g>
       <use xlink:href="#m241ef8443d" x="68.88125" y="93.764934" style="stroke: #000000; stroke-width: 0.8"/>
      </g>
     </g>
     <g id="text_14">
      <!-- −0.006 -->
      <g transform="translate(24.873438 97.564153) scale(0.1 -0.1)">
       <use xlink:href="#DejaVuSans-2212"/>
       <use xlink:href="#DejaVuSans-30" transform="translate(83.789062 0)"/>
       <use xlink:href="#DejaVuSans-2e" transform="translate(147.412109 0)"/>
       <use xlink:href="#DejaVuSans-30" transform="translate(179.199219 0)"/>
       <use xlink:href="#DejaVuSans-30" transform="translate(242.822266 0)"/>
       <use xlink:href="#DejaVuSans-36" transform="translate(306.445312 0)"/>
      </g>
     </g>
    </g>
    <g id="ytick_8">
     <g id="line2d_27">
      <path d="M 68.88125 64.420909 
L 637.2 64.420909 
" clip-path="url(#p2aa3391021)" style="fill: none; stroke-dasharray: 0.5,0.825; stroke-dashoffset: 0; stroke: #b0b0b0; stroke-opacity: 0.6; stroke-width: 0.5"/>
     </g>
     <g id="line2d_28">
      <g>
       <use xlink:href="#m241ef8443d" x="68.88125" y="64.420909" style="stroke: #000000; stroke-width: 0.8"/>
      </g>
     </g>
     <g id="text_15">
      <!-- −0.004 -->
      <g transform="translate(24.873438 68.220128) scale(0.1 -0.1)">
       <use xlink:href="#DejaVuSans-2212"/>
       <use xlink:href="#DejaVuSans-30" transform="translate(83.789062 0)"/>
       <use xlink:href="#DejaVuSans-2e" transform="translate(147.412109 0)"/>
       <use xlink:href="#DejaVuSans-30" transform="translate(179.199219 0)"/>
       <use xlink:href="#DejaVuSans-30" transform="translate(242.822266 0)"/>
       <use xlink:href="#DejaVuSans-34" transform="translate(306.445312 0)"/>
      </g>
     </g>
    </g>
    <g id="ytick_9">
     <g id="line2d_29">
      <path d="M 68.88125 35.076884 
L 637.2 35.076884 
" clip-path="url(#p2aa3391021)" style="fill: none; stroke-dasharray: 0.5,0.825; stroke-dashoffset: 0; stroke: #b0b0b0; stroke-opacity: 0.6; stroke-width: 0.5"/>
     </g>
     <g id="line2d_30">
      <g>
       <use xlink:href="#m241ef8443d" x="68.88125" y="35.076884" style="stroke: #000000; stroke-width: 0.8"/>
      </g>
     </g>
     <g id="text_16">
      <!-- −0.002 -->
      <g transform="translate(24.873438 38.876102) scale(0.1 -0.1)">
       <use xlink:href="#DejaVuSans-2212"/>
       <use xlink:href="#DejaVuSans-30" transform="translate(83.789062 0)"/>
       <use xlink:href="#DejaVuSans-2e" transform="translate(147.412109 0)"/>
       <use xlink:href="#DejaVuSans-30" transform="translate(179.199219 0)"/>
       <use xlink:href="#DejaVuSans-30" transform="translate(242.822266 0)"/>
       <use xlink:href="#DejaVuSans-32" transform="translate(306.445312 0)"/>
      </g>
     </g>
    </g>
    <g id="text_17">
     <!-- Running mean of efficiency_gap -->
     <g transform="translate(18.515625 234.704531) rotate(-90) scale(0.1 -0.1)">
      <defs>
       <path id="DejaVuSans-52" d="M 2841 2188 
Q 3044 2119 3236 1894 
Q 3428 1669 3622 1275 
L 4263 0 
L 3584 0 
L 2988 1197 
Q 2756 1666 2539 1819 
Q 2322 1972 1947 1972 
L 1259 1972 
L 1259 0 
L 628 0 
L 628 4666 
L 2053 4666 
Q 2853 4666 3247 4331 
Q 3641 3997 3641 3322 
Q 3641 2881 3436 2590 
Q 3231 2300 2841 2188 
z
M 1259 4147 
L 1259 2491 
L 2053 2491 
Q 2509 2491 2742 2702 
Q 2975 2913 2975 3322 
Q 2975 3731 2742 3939 
Q 2509 4147 2053 4147 
L 1259 4147 
z
" transform="scale(0.015625)"/>
       <path id="DejaVuSans-75" d="M 544 1381 
L 544 3500 
L 1119 3500 
L 1119 1403 
Q 1119 906 1312 657 
Q 1506 409 1894 409 
Q 2359 409 2629 706 
Q 2900 1003 2900 1516 
L 2900 3500 
L 3475 3500 
L 3475 0 
L 2900 0 
L 2900 538 
Q 2691 219 2414 64 
Q 2138 -91 1772 -91 
Q 1169 -91 856 284 
Q 544 659 544 1381 
z
M 1991 3584 
L 1991 3584 
z
" transform="scale(0.015625)"/>
       <path id="DejaVuSans-67" d="M 2906 1791 
Q 2906 2416 2648 2759 
Q 2391 3103 1925 3103 
Q 1463 3103 1205 2759 
Q 947 2416 947 1791 
Q 947 1169 1205 825 
Q 1463 481 1925 481 
Q 2391 481 2648 825 
Q 2906 1169 2906 1791 
z
M 3481 434 
Q 3481 -459 3084 -895 
Q 2688 -1331 1869 -1331 
Q 1566 -1331 1297 -1286 
Q 1028 -1241 775 -1147 
L 775 -588 
Q 1028 -725 1275 -790 
Q 1522 -856 1778 -856 
Q 2344 -856 2625 -561 
Q 2906 -266 2906 331 
L 2906 616 
Q 2728 306 2450 153 
Q 2172 0 1784 0 
Q 1141 0 747 490 
Q 353 981 353 1791 
Q 353 2603 747 3093 
Q 1141 3584 1784 3584 
Q 2172 3584 2450 3431 
Q 2728 3278 2906 2969 
L 2906 3500 
L 3481 3500 
L 3481 434 
z
" transform="scale(0.015625)"/>
       <path id="DejaVuSans-6f" d="M 1959 3097 
Q 1497 3097 1228 2736 
Q 959 2375 959 1747 
Q 959 1119 1226 758 
Q 1494 397 1959 397 
Q 2419 397 2687 759 
Q 2956 1122 2956 1747 
Q 2956 2369 2687 2733 
Q 2419 3097 1959 3097 
z
M 1959 3584 
Q 2709 3584 3137 3096 
Q 3566 2609 3566 1747 
Q 3566 888 3137 398 
Q 2709 -91 1959 -91 
Q 1206 -91 779 398 
Q 353 888 353 1747 
Q 353 2609 779 3096 
Q 1206 3584 1959 3584 
z
" transform="scale(0.015625)"/>
       <path id="DejaVuSans-66" d="M 2375 4863 
L 2375 4384 
L 1825 4384 
Q 1516 4384 1395 4259 
Q 1275 4134 1275 3809 
L 1275 3500 
L 2222 3500 
L 2222 3053 
L 1275 3053 
L 1275 0 
L 697 0 
L 697 3053 
L 147 3053 
L 147 3500 
L 697 3500 
L 697 3744 
Q 697 4328 969 4595 
Q 1241 4863 1831 4863 
L 2375 4863 
z
" transform="scale(0.015625)"/>
       <path id="DejaVuSans-63" d="M 3122 3366 
L 3122 2828 
Q 2878 2963 2633 3030 
Q 2388 3097 2138 3097 
Q 1578 3097 1268 2742 
Q 959 2388 959 1747 
Q 959 1106 1268 751 
Q 1578 397 2138 397 
Q 2388 397 2633 464 
Q 2878 531 3122 666 
L 3122 134 
Q 2881 22 2623 -34 
Q 2366 -91 2075 -91 
Q 1284 -91 818 406 
Q 353 903 353 1747 
Q 353 2603 823 3093 
Q 1294 3584 2113 3584 
Q 2378 3584 2631 3529 
Q 2884 3475 3122 3366 
z
" transform="scale(0.015625)"/>
       <path id="DejaVuSans-79" d="M 2059 -325 
Q 1816 -950 1584 -1140 
Q 1353 -1331 966 -1331 
L 506 -1331 
L 506 -850 
L 844 -850 
Q 1081 -850 1212 -737 
Q 1344 -625 1503 -206 
L 1606 56 
L 191 3500 
L 800 3500 
L 1894 763 
L 2988 3500 
L 3597 3500 
L 2059 -325 
z
" transform="scale(0.015625)"/>
       <path id="DejaVuSans-5f" d="M 3263 -1063 
L 3263 -1509 
L -63 -1509 
L -63 -1063 
L 3263 -1063 
z
" transform="scale(0.015625)"/>
      </defs>
      <use xlink:href="#DejaVuSans-52"/>
      <use xlink:href="#DejaVuSans-75" transform="translate(64.982422 0)"/>
      <use xlink:href="#DejaVuSans-6e" transform="translate(128.361328 0)"/>
      <use xlink:href="#DejaVuSans-6e" transform="translate(191.740234 0)"/>
      <use xlink:href="#DejaVuSans-69" transform="translate(255.119141 0)"/>
      <use xlink:href="#DejaVuSans-6e" transform="translate(282.902344 0)"/>
      <use xlink:href="#DejaVuSans-67" transform="translate(346.28125 0)"/>
      <use xlink:href="#DejaVuSans-20" transform="translate(409.757812 0)"/>
      <use xlink:href="#DejaVuSans-6d" transform="translate(441.544922 0)"/>
      <use xlink:href="#DejaVuSans-65" transform="translate(538.957031 0)"/>
      <use xlink:href="#DejaVuSans-61" transform="translate(600.480469 0)"/>
      <use xlink:href="#DejaVuSans-6e" transform="translate(661.759766 0)"/>
      <use xlink:href="#DejaVuSans-20" transform="translate(725.138672 0)"/>
      <use xlink:href="#DejaVuSans-6f" transform="translate(756.925781 0)"/>
      <use xlink:href="#DejaVuSans-66" transform="translate(818.107422 0)"/>
      <use xlink:href="#DejaVuSans-20" transform="translate(853.3125 0)"/>
      <use xlink:href="#DejaVuSans-65" transform="translate(885.099609 0)"/>
      <use xlink:href="#DejaVuSans-66" transform="translate(946.623047 0)"/>
      <use xlink:href="#DejaVuSans-66" transform="translate(981.828125 0)"/>
      <use xlink:href="#DejaVuSans-69" transform="translate(1017.033203 0)"/>
      <use xlink:href="#DejaVuSans-63" transform="translate(1044.816406 0)"/>
      <use xlink:href="#DejaVuSans-69" transform="translate(1099.796875 0)"/>
      <use xlink:href="#DejaVuSans-65" transform="translate(1127.580078 0)"/>
      <use xlink:href="#DejaVuSans-6e" transform="translate(1189.103516 0)"/>
      <use xlink:href="#DejaVuSans-63" transform="translate(1252.482422 0)"/>
      <use xlink:href="#DejaVuSans-79" transform="translate(1307.462891 0)"/>
      <use xlink:href="#DejaVuSans-5f" transform="translate(1366.642578 0)"/>
      <use xlink:href="#DejaVuSans-67" transform="translate(1416.642578 0)"/>
      <use xlink:href="#DejaVuSans-61" transform="translate(1480.119141 0)"/>
      <use xlink:href="#DejaVuSans-70" transform="translate(1541.398438 0)"/>
     </g>
    </g>
   </g>
   <g id="line2d_31">
    <path d="M 94.71392 155.068804 
L 94.765586 155.068804 
L 94.822419 207.227937 
L 94.894751 254.034222 
L 94.95675 240.21797 
L 95.003249 243.011603 
L 95.039415 238.286908 
L 95.122081 216.686185 
L 95.566407 78.60332 
L 95.814403 46.910835 
L 95.850569 47.499678 
L 95.860902 48.427009 
L 95.928068 44.845918 
L 96.077899 38.478182 
L 96.114065 41.164491 
L 97.157716 197.559613 
L 97.581376 217.528613 
L 97.679541 216.285517 
L 97.715707 215.496309 
L 97.746706 216.768813 
L 98.113534 227.339302 
L 98.258198 228.304438 
L 98.340864 230.01802 
L 98.397696 229.00426 
L 98.898855 204.51503 
L 98.935021 205.504528 
L 99.126185 206.886784 
L 99.307015 205.583213 
L 99.596344 199.456911 
L 99.611844 199.852558 
L 99.803007 201.922007 
L 99.994171 203.629765 
L 100.061337 202.89984 
L 100.2835 198.328421 
L 100.433331 195.434162 
L 100.490163 196.257535 
L 100.49533 196.331585 
L 100.541829 195.509039 
L 100.645161 193.329917 
L 100.69166 194.465011 
L 101.166986 205.939822 
L 101.177319 205.924245 
L 101.218652 205.777088 
L 101.409816 198.473902 
L 102.17447 162.392544 
L 102.918459 139.589145 
L 103.001124 139.120882 
L 103.032124 139.544986 
L 104.075774 165.459988 
L 105.109091 212.507148 
L 105.496585 220.973459 
L 105.780747 223.65836 
L 105.971911 223.872249 
L 105.977077 223.800248 
L 106.24574 221.486677 
L 106.798565 227.944573 
L 106.901896 227.610257 
L 107.310057 226.72004 
L 106.969062 227.714145 
L 107.32039 226.852225 
L 107.651051 231.272121 
L 107.723383 230.616277 
L 107.842215 230.733709 
L 107.873214 230.665892 
L 108.064378 230.010717 
L 108.710201 222.652326 
L 108.751534 222.934633 
L 108.8187 223.264921 
L 108.860032 222.930637 
L 108.880699 222.778537 
L 108.953031 223.065229 
L 109.273359 223.842987 
L 109.45419 222.970641 
L 109.464523 223.073967 
L 110.07418 230.261633 
L 110.389342 234.11941 
L 110.435841 233.905583 
L 110.72517 232.184053 
L 110.730336 232.148884 
L 110.787169 232.513092 
L 111.236662 237.413092 
L 111.298661 236.9253 
L 111.31416 236.93826 
L 111.319327 236.885566 
L 111.427825 235.276978 
L 111.484658 235.709984 
L 112.373311 243.148996 
L 112.466309 242.400157 
L 113.205131 236.361381 
L 113.308463 236.665345 
L 113.489293 237.513573 
L 113.768289 239.365495 
L 113.778622 239.373949 
L 113.783788 239.305377 
L 114.135116 236.116557 
L 114.393446 234.525452 
L 114.419279 234.693669 
L 114.677608 236.042433 
L 114.73444 235.886517 
L 114.889438 235.590984 
L 114.770606 236.049865 
L 114.920437 235.754048 
L 115.220099 237.87052 
L 115.468095 239.970867 
L 115.948588 243.725577 
L 116.635744 253.142347 
L 116.728742 253.505956 
L 116.775242 253.264546 
L 116.847574 252.907324 
L 116.909573 253.130987 
L 117.219568 254.168601 
L 117.255734 253.972287 
L 117.529563 253.11032 
L 117.591562 253.058272 
L 117.612229 253.16259 
L 118.304551 256.201501 
L 118.325217 256.099175 
L 118.475048 255.705758 
L 118.495715 255.777192 
L 119.182871 257.981031 
L 119.224203 257.881857 
L 119.601364 257.367369 
L 119.952692 257.481388 
L 120.143856 257.864238 
L 120.815512 261.702243 
L 121.037675 261.640218 
L 121.254671 261.386331 
L 121.414836 261.204306 
L 121.430335 261.340848 
L 122.442986 269.270563 
L 122.613484 270.441818 
L 122.701315 270.405298 
L 122.892479 270.213957 
L 123.031977 269.672608 
L 123.863797 265.839632 
L 123.90513 265.756041 
L 123.941296 265.895471 
L 124.168626 266.643429 
L 124.240958 266.712105 
L 124.277124 266.59615 
L 124.757617 265.941142 
L 125.429273 260.640254 
L 125.847766 257.648437 
L 126.974082 251.911289 
L 127.268577 251.662067 
L 127.330576 251.610564 
L 127.356409 251.718739 
L 127.511407 252.363972 
L 127.578572 252.201652 
L 127.692237 251.858035 
L 127.74907 252.008329 
L 127.780069 252.063497 
L 127.816235 251.900291 
L 128.038399 251.387321 
L 128.131397 251.460561 
L 128.312228 251.693974 
L 128.343227 251.562492 
L 128.751387 249.358069 
L 129.402377 244.755197 
L 130.017201 240.170123 
L 130.709523 234.838659 
L 131.029852 233.595196 
L 131.33468 232.69407 
L 131.36568 232.551346 
L 131.825506 230.653749 
L 131.861672 230.424731 
L 132.130335 229.1279 
L 132.398997 228.60159 
L 132.450663 228.301625 
L 132.65216 227.23318 
L 132.688326 227.319309 
L 132.760658 227.348208 
L 132.791657 227.296843 
L 133.396148 224.854263 
L 133.561479 225.316075 
L 133.597645 225.173871 
L 133.814641 224.306029 
L 133.824975 224.315812 
L 134.191802 224.553924 
L 134.202135 224.531376 
L 134.842792 222.846213 
L 134.873792 222.950004 
L 135.266452 223.853467 
L 135.529948 224.371987 
L 135.571281 224.232614 
L 137.043758 219.332058 
L 137.10059 219.366604 
L 137.255588 219.337697 
L 137.374419 219.409694 
L 137.410585 219.507607 
L 137.467418 219.337944 
L 138.015076 217.634639 
L 138.056408 217.727189 
L 138.273405 218.204143 
L 138.294071 218.086714 
L 138.299238 218.057374 
L 138.40257 218.085983 
L 138.743564 218.358904 
L 139.151725 218.209451 
L 139.389387 218.075172 
L 139.714882 217.97273 
L 139.931879 218.050136 
L 140.484704 220.474266 
L 141.693685 228.634448 
L 141.967514 229.982619 
L 142.060512 229.770473 
L 142.225843 229.683696 
L 142.473839 229.734237 
L 142.494506 229.673836 
L 142.845833 228.304618 
L 143.305659 226.233616 
L 143.507156 225.715408 
L 143.863651 224.209895 
L 143.920483 224.360574 
L 143.982482 224.500492 
L 144.034148 224.370054 
L 144.049648 224.331127 
L 144.13748 224.408149 
L 144.338977 224.699877 
L 144.809136 225.906173 
L 144.829802 225.859859 
L 144.896968 225.786748 
L 144.938301 225.883305 
L 145.42396 227.287427 
L 145.728788 228.464988 
L 145.930285 229.161584 
L 145.971618 229.043263 
L 146.426277 227.356038 
L 146.901603 225.094319 
L 147.402762 224.108799 
L 147.418262 224.131988 
L 147.888421 225.023126 
L 148.286248 226.191967 
L 148.565244 226.428117 
L 149.087069 228.068032 
L 149.092236 228.064932 
L 149.44873 227.727762 
L 149.960222 226.927297 
L 150.321883 226.776506 
L 150.347716 226.884583 
L 150.544046 227.237586 
L 150.766209 227.512702 
L 150.797209 227.427388 
L 151.980357 223.850829 
L 152.507349 222.012539 
L 152.801844 221.420641 
L 153.137672 220.051042 
L 153.773162 217.979477 
L 153.845494 217.840609 
L 154.010825 217.557942 
L 154.041825 217.582907 
L 154.341487 217.600704 
L 154.460318 217.662441 
L 154.527484 217.897655 
L 155.369637 220.596334 
L 155.906962 221.678825 
L 155.958628 221.632497 
L 156.661284 220.84575 
L 157.038444 219.207707 
L 157.394939 217.836096 
L 157.436272 217.886368 
L 158.288758 218.75184 
L 158.536754 218.88923 
L 159.110245 220.079346 
L 159.141245 219.978218 
L 159.358241 219.64871 
L 159.957565 218.437335 
L 159.983398 218.490277 
L 160.339893 218.978873 
L 160.639555 219.163604 
L 160.696387 219.034161 
L 161.37321 217.215969 
L 161.807203 214.568958 
L 161.822703 214.593302 
L 162.0087 214.873094 
L 162.225697 214.980663 
L 162.84052 216.901368 
L 162.985185 216.832767 
L 163.222848 216.620783 
L 163.682674 216.483994 
L 164.431829 213.930377 
L 164.571326 214.011515 
L 164.870988 214.275133 
L 165.087985 214.341598 
L 165.258482 214.373802 
L 165.392814 214.315817 
L 165.620143 213.43067 
L 165.914639 212.285741 
L 166.116136 212.034833 
L 166.126469 212.029284 
L 166.167801 212.122427 
L 166.45713 213.110303 
L 167.082287 216.876854 
L 167.345783 218.412094 
L 167.852108 221.75993 
L 168.3636 224.219711 
L 168.435933 224.364241 
L 168.508265 224.269058 
L 168.611597 224.149248 
L 168.663262 224.232541 
L 168.673596 224.247326 
L 168.740761 224.151244 
L 168.895759 223.959738 
L 169.086922 223.794253 
L 169.190254 223.735984 
L 169.231587 223.793698 
L 169.309086 223.928867 
L 169.350418 223.813775 
L 169.582915 223.170421 
L 169.629414 223.205916 
L 169.89291 223.287839 
L 170.239071 222.078825 
L 170.363069 221.56795 
L 170.621398 220.923573 
L 170.70923 220.765103 
L 170.781563 220.807082 
L 171.417053 221.303341 
L 171.473885 221.135853 
L 171.98021 219.299708 
L 172.848197 216.726681 
L 173.375189 216.61017 
L 173.907347 216.984222 
L 173.928013 216.9599 
L 174.150176 216.741926 
L 174.201842 216.799348 
L 174.460172 216.907303 
L 175.762151 216.293744 
L 176.526806 214.136381 
L 176.816135 213.794948 
L 177.048631 213.179018 
L 177.332793 212.547908 
L 177.77712 211.41728 
L 177.823619 211.456179 
L 178.071615 211.793459 
L 178.552108 212.731418 
L 178.62444 212.83229 
L 178.784604 212.995644 
L 178.810437 212.983551 
L 178.965434 213.023176 
L 179.869587 213.953692 
L 180.308747 214.129079 
L 180.541243 214.246917 
L 180.902904 214.335016 
L 181.476395 216.531969 
L 181.972387 218.572689 
L 182.215217 218.88957 
L 182.985038 219.616577 
L 183.238201 219.640575 
L 183.326033 219.570278 
L 183.444864 219.26368 
L 184.194019 217.327341 
L 184.488515 216.939397 
L 184.602179 216.716454 
L 184.948341 215.826747 
L 185.041339 215.733069 
L 185.17567 215.759901 
L 185.403 215.992022 
L 185.444333 215.911331 
L 186.002324 214.888212 
L 186.028157 214.928523 
L 186.08499 214.998925 
L 186.121156 214.878713 
L 186.420818 213.836633 
L 186.679147 213.436001 
L 187.572966 211.781595 
L 188.001793 210.753805 
L 188.182623 210.71281 
L 188.311788 210.637214 
L 188.363454 210.729717 
L 188.699282 211.191764 
L 188.719948 211.144756 
L 189.179774 210.373475 
L 189.536269 209.534867 
L 190.047761 208.322646 
L 190.07876 208.366024 
L 190.275091 208.794893 
L 191.019079 210.403585 
L 191.323908 210.624719 
L 191.525404 211.327107 
L 192.43989 214.19528 
L 192.641387 214.579047 
L 192.873883 214.876014 
L 192.889383 214.867 
L 193.457707 214.673879 
L 193.989866 215.340612 
L 194.372193 215.457066 
L 194.454858 215.265727 
L 195.188514 213.268448 
L 195.581174 212.376137 
L 195.586341 212.370143 
L 195.653506 212.457868 
L 196.159832 213.221503 
L 196.686824 214.110445 
L 196.91932 214.258129 
L 196.965819 214.191459 
L 197.255148 213.966505 
L 197.456645 214.048738 
L 198.970454 216.933612 
L 199.146118 216.922067 
L 199.357948 216.902554 
L 199.693776 217.018396 
L 199.812608 216.974599 
L 200.479097 216.576098 
L 200.737427 216.52897 
L 200.980256 216.133567 
L 201.254085 215.641743 
L 201.496915 215.468633 
L 202.339068 214.435058 
L 202.602564 214.391449 
L 203.005558 214.356392 
L 204.204206 215.957681 
L 204.307538 216.039028 
L 205.134191 217.476802 
L 205.521685 218.325742 
L 205.960845 218.741346 
L 206.131342 218.69816 
L 206.534336 218.600953 
L 207.335157 219.155633 
L 207.727817 219.032177 
L 208.110145 218.725908 
L 208.275475 218.873664 
L 208.518305 219.086531 
L 208.885133 218.99493 
L 209.443124 218.264579 
L 209.685953 218.223728 
L 210.316277 218.540715 
L 210.693438 218.912566 
L 211.008599 218.690136 
L 211.251429 218.336146 
L 211.35476 218.351607 
L 211.359927 218.358697 
L 212.031583 219.092536 
L 212.842737 219.8517 
L 213.214731 219.840251 
L 213.400728 219.927483 
L 213.664224 220.227329 
L 214.051718 220.747507 
L 214.754374 221.31846 
L 214.899038 221.248682 
L 215.074702 221.044788 
L 215.534528 220.385969 
L 216.030521 220.152797 
L 216.28885 220.023367 
L 216.511013 219.829018 
L 216.753843 219.780868 
L 216.945006 219.789798 
L 217.125837 219.861836 
L 217.322167 220.058845 
L 217.916324 220.931189 
L 218.221153 221.11573 
L 218.520815 221.049075 
L 218.675813 221.088077 
L 218.794644 221.010151 
L 219.001307 220.734203 
L 219.176971 220.371172 
L 219.223471 220.408062 
L 219.471467 220.534651 
L 220.055291 220.365079 
L 220.137956 220.235717 
L 220.757947 219.364208 
L 221.331438 218.904436 
L 221.749931 218.529782 
L 222.199424 217.461495 
L 222.364755 217.476735 
L 223.232741 217.136577 
L 224.002562 217.761256 
L 224.40039 218.360272 
L 224.922215 219.347754 
L 225.113378 219.483891 
L 225.289042 219.652657 
L 226.281027 222.037684 
L 226.539356 222.484285 
L 226.797685 222.575452 
L 227.004349 222.513186 
L 227.273011 222.869594 
L 227.278178 222.860838 
L 227.681171 222.393638 
L 228.476826 221.644927 
L 228.642156 221.561993 
L 229.262147 221.504091 
L 229.365478 221.437714 
L 229.520476 221.378846 
L 229.551476 221.425612 
L 229.685807 221.443934 
L 230.569293 221.125764 
L 230.868955 221.064393 
L 231.070452 221.091055 
L 231.080785 221.071795 
L 231.809274 219.946289 
L 232.093436 219.911774 
L 232.279433 219.921002 
L 232.506763 219.845269 
L 233.193918 218.618649 
L 233.741577 218.260426 
L 234.185903 217.329809 
L 234.511398 216.717417 
L 234.56823 216.76313 
L 234.661229 216.678004 
L 235.069389 216.153523 
L 235.818544 216.689114 
L 235.942542 216.756285 
L 236.30937 217.168315 
L 236.4747 217.319139 
L 236.68653 217.404323 
L 236.841528 217.535264 
L 237.063691 217.593073 
L 237.275521 217.40436 
L 237.80768 216.637679 
L 238.257173 215.876012 
L 238.587834 215.748357 
L 238.959828 215.683588 
L 239.171658 215.538695 
L 239.414488 215.545783 
L 239.579818 215.271291 
L 239.817481 215.026324 
L 239.946646 214.875329 
L 240.189476 214.398462 
L 240.34964 214.337061 
L 240.845632 214.476033 
L 241.031629 214.537905 
L 241.336458 214.761982 
L 241.568954 214.944085 
L 241.971948 215.204442 
L 242.783102 216.325748 
L 243.113763 216.797712 
L 243.516757 217.065114 
L 243.604589 217.165184 
L 243.816419 217.32019 
L 243.98175 217.302149 
L 244.307244 217.069908 
L 244.519074 216.623999 
L 244.741238 216.361071 
L 244.823903 216.296782 
L 244.891069 216.372985 
L 245.438727 216.806166 
L 246.001885 217.239317 
L 246.255047 217.329199 
L 246.632208 217.355715 
L 247.438195 218.041615 
L 247.541527 218.136034 
L 248.347515 218.940738 
L 248.461179 219.032358 
L 249.236167 219.701619 
L 249.375665 219.879432 
L 249.763159 220.539987 
L 250.806809 223.862382 
L 251.044472 223.969275 
L 251.462966 223.477668 
L 251.772961 223.028134 
L 251.788461 223.041772 
L 252.212121 223.268059 
L 252.460117 223.404644 
L 253.312603 224.216278 
L 253.5141 223.990509 
L 254.025592 223.093215 
L 255.23974 222.040482 
L 255.482569 221.690903 
L 255.720232 221.551404 
L 256.391889 221.856233 
L 256.665718 221.903616 
L 256.93438 221.729495 
L 257.011879 221.736689 
L 257.042878 221.779559 
L 257.414873 222.140433 
L 257.425206 222.126065 
L 258.040029 221.458354 
L 258.66002 221.205476 
L 259.021681 221.311785 
L 259.497007 221.463636 
L 259.67267 221.474716 
L 259.858668 221.37615 
L 260.230662 221.085735 
L 260.643989 220.542989 
L 261.093482 219.886946 
L 261.460309 219.461793 
L 261.620473 219.580124 
L 262.131965 220.085625 
L 262.405794 220.045355 
L 262.68479 219.93034 
L 263.113617 220.190675 
L 263.268614 220.350961 
L 263.330613 220.284493 
L 263.557943 219.919049 
L 264.012603 218.994684 
L 264.431096 218.513158 
L 264.777257 218.173657 
L 265.22675 217.70201 
L 265.407581 217.69306 
L 266.048237 217.735233 
L 266.905891 217.88832 
L 267.675712 217.472151 
L 268.063206 217.130374 
L 268.481699 217.241093 
L 269.339352 216.364423 
L 269.587349 216.060643 
L 269.819845 215.757637 
L 270.155673 215.527125 
L 270.300337 215.486946 
L 270.491501 215.059893 
L 270.744664 214.668475 
L 271.178657 214.517387 
L 271.498985 214.703364 
L 271.504152 214.69828 
L 271.901979 214.453417 
L 272.077643 214.592443 
L 272.382471 214.82791 
L 272.842298 214.907194 
L 273.116127 214.628487 
L 273.121293 214.631579 
L 273.374456 214.657329 
L 273.658618 214.509549 
L 274.309608 213.863545 
L 274.635103 213.778636 
L 275.022597 213.558493 
L 275.337759 213.461397 
L 275.663253 213.439359 
L 275.849251 213.242383 
L 276.355576 212.382207 
L 276.799902 211.885493 
L 277.373393 210.715329 
L 277.946884 209.70798 
L 278.308545 209.022573 
L 278.603041 208.064884 
L 279.171365 206.90859 
L 279.507193 206.504565 
L 280.215015 205.938755 
L 280.452678 205.629562 
L 281.661659 205.135821 
L 281.878656 204.798391 
L 282.46248 203.503707 
L 283.490631 200.992325 
L 283.692128 200.615473 
L 283.903958 200.431661 
L 284.193286 200.429644 
L 284.59628 199.882866 
L 284.735778 199.808518 
L 284.761611 199.842708 
L 285.329935 200.30779 
L 286.042924 200.058732 
L 286.461418 199.861758 
L 287.510235 200.251234 
L 287.727231 199.979918 
L 288.373054 199.218294 
L 288.522885 199.106063 
L 288.755382 199.029598 
L 289.540703 199.166009 
L 290.057361 198.299049 
L 290.140027 198.370805 
L 290.455188 198.498306 
L 290.853016 198.236286 
L 291.669336 197.472704 
L 291.974165 197.463553 
L 292.449491 196.955103 
L 293.916801 195.042568 
L 294.459292 194.73548 
L 295.616608 192.582449 
L 295.807771 192.489257 
L 296.231431 192.490244 
L 296.675758 192.847487 
L 296.95992 192.99585 
L 297.151084 192.926819 
L 297.414579 192.791884 
L 297.698742 192.807776 
L 297.895072 192.859504 
L 298.644227 192.423193 
L 298.892223 192.511597 
L 299.181552 192.497167 
L 299.548379 192.564121 
L 300.116704 193.13841 
L 300.540364 193.850972 
L 301.253353 194.871248 
L 301.284352 194.84741 
L 301.780344 194.602533 
L 301.909509 194.510551 
L 302.080006 194.372629 
L 302.116172 194.421094 
L 302.477833 194.715186 
L 304.043309 195.732457 
L 304.534135 196.278123 
L 304.694299 196.364641 
L 305.309122 197.303479 
L 305.577785 197.294442 
L 305.954946 197.484048 
L 306.378606 197.909513 
L 307.086428 198.959791 
L 307.262092 199.119467 
L 307.499755 199.377685 
L 308.197244 200.291159 
L 308.388408 200.287226 
L 308.569238 200.110656 
L 308.858567 199.959333 
L 309.194395 199.977408 
L 309.333893 199.805611 
L 309.933217 198.877205 
L 310.222546 198.601634 
L 310.501541 198.365825 
L 310.837369 198.356431 
L 311.075032 198.21966 
L 311.488359 198.391616 
L 311.922352 198.647818 
L 312.320179 198.444738 
L 312.609508 198.235778 
L 312.619841 198.244295 
L 312.738673 198.202189 
L 313.477495 197.937217 
L 314.107818 198.980681 
L 314.154317 198.94387 
L 314.474646 198.830983 
L 314.794974 198.96859 
L 315.037803 198.949699 
L 315.647461 198.739184 
L 316.003955 198.663145 
L 316.138286 198.680944 
L 316.334616 198.682588 
L 317.429933 198.100669 
L 319.016074 196.37773 
L 320.245722 195.745323 
L 320.721048 195.355848 
L 321.103375 195.171334 
L 321.826697 195.238659 
L 322.761849 195.824925 
L 322.958179 195.856464 
L 323.402506 196.148168 
L 324.19816 196.521123 
L 324.978314 195.902606 
L 325.541472 195.108403 
L 325.861801 194.379607 
L 326.264794 193.659255 
L 326.636788 192.958915 
L 327.298111 191.964122 
L 327.411776 192.04863 
L 327.747604 192.353445 
L 328.000767 192.350641 
L 328.129932 192.177637 
L 328.620757 191.31858 
L 329.059917 190.545367 
L 329.514577 189.790867 
L 329.922737 189.529852 
L 330.392896 189.585135 
L 331.090385 188.705766 
L 331.379714 188.333228 
L 331.973872 187.476651 
L 332.2632 187.475127 
L 332.562862 187.578786 
L 332.883191 187.45858 
L 333.436015 186.98288 
L 333.487681 187.037949 
L 333.678845 186.940789 
L 334.025006 186.665341 
L 334.619163 186.458408 
L 335.06349 186.129588 
L 335.337319 186.006247 
L 335.647314 185.650779 
L 336.246638 185.662938 
L 336.861462 186.00893 
L 337.00096 186.055265 
L 337.031959 186.018793 
L 337.920612 185.139465 
L 338.871264 185.414494 
L 339.486087 185.885599 
L 340.503905 185.520078 
L 341.175561 184.659596 
L 341.811051 184.016785 
L 342.420708 183.211711 
L 342.989032 182.778015 
L 343.283528 182.703217 
L 343.665855 182.664664 
L 343.981017 182.663488 
L 344.85417 183.313217 
L 345.799655 182.759753 
L 346.378313 182.278477 
L 347.246299 182.291307 
L 347.458129 182.253589 
L 348.098786 182.214956 
L 348.450114 182.113574 
L 349.643595 182.740867 
L 350.506415 184.067434 
L 350.940408 184.010242 
L 351.984058 183.785959 
L 352.407718 183.169035 
L 352.96571 182.251968 
L 353.37387 181.977657 
L 353.973194 182.236443 
L 354.820514 182.81819 
L 355.425004 183.455943 
L 355.776332 183.351028 
L 356.168993 183.035235 
L 356.546153 182.54563 
L 358.01863 180.555808 
L 358.380291 180.289858 
L 358.871117 180.067294 
L 359.325777 179.788653 
L 359.527273 179.848344 
L 360.074932 180.172345 
L 360.498592 180.031458 
L 360.927418 179.788909 
L 361.128915 179.85422 
L 362.327563 180.510314 
L 362.684057 180.386337 
L 364.01187 178.966855 
L 364.704192 177.83688 
L 364.740358 177.857592 
L 365.045187 178.160228 
L 365.763342 179.086714 
L 366.135337 179.313546 
L 366.522831 179.448001 
L 366.936157 179.758614 
L 367.225486 179.671521 
L 368.227804 179.400456 
L 369.214622 179.42301 
L 369.984443 179.964269 
L 370.340937 180.069692 
L 370.537268 180.118987 
L 371.115925 180.193778 
L 372.144076 179.381519 
L 372.92423 179.516508 
L 373.161893 179.594869 
L 374.174544 180.179098 
L 374.432873 180.327253 
L 375.083863 181.079868 
L 376.313511 182.358284 
L 376.551173 182.608752 
L 376.809503 182.83545 
L 379.475461 183.600561 
L 379.640792 183.622707 
L 380.007619 183.618329 
L 382.430748 183.261168 
L 382.756243 183.086754 
L 383.019739 182.973369 
L 383.319401 182.608007 
L 383.732728 182.160874 
L 384.40955 181.328493 
L 384.683379 181.099313 
L 384.931376 180.874652 
L 385.592699 180.144606 
L 386.719014 179.732495 
L 387.220173 179.751255 
L 387.452669 179.786265 
L 387.793664 179.814025 
L 388.222491 179.543706 
L 388.744316 179.209047 
L 389.204142 179.137027 
L 389.52447 179.332991 
L 390.242626 179.865727 
L 390.573287 179.988435 
L 390.754118 179.951339 
L 392.267927 178.766779 
L 392.722587 178.562126 
L 393.084248 178.465281 
L 393.606073 178.167769 
L 394.685889 177.609662 
L 395.357546 177.239857 
L 395.982703 177.067003 
L 396.230699 177.109441 
L 397.351848 177.049249 
L 398.002838 176.855901 
L 398.287 176.888796 
L 398.529829 176.874879 
L 399.52698 176.134693 
L 399.857642 176.321703 
L 400.317468 176.645517 
L 401.097622 176.856069 
L 401.557449 177.14668 
L 402.322103 177.517663 
L 403.102258 177.459906 
L 404.85373 176.393532 
L 405.08106 176.543716 
L 406.098877 177.552207 
L 406.868699 177.972663 
L 407.514522 177.981136 
L 407.845183 177.966193 
L 408.687337 178.296661 
L 409.327994 178.894385 
L 409.668988 179.11283 
L 410.660973 179.584409 
L 411.125965 179.829003 
L 411.937119 179.291283 
L 412.097283 179.384548 
L 413.419929 180.398786 
L 414.277583 180.621411 
L 414.670243 180.679527 
L 415.285067 180.787791 
L 416.17372 180.452389 
L 416.79371 180.396756 
L 416.928041 180.488643 
L 418.199021 182.34984 
L 418.452184 182.336406 
L 419.449335 181.676973 
L 419.712831 181.547245 
L 420.105491 181.510742 
L 420.461986 181.417609 
L 421.112976 181.407012 
L 422.874781 181.964842 
L 423.448272 182.414421 
L 423.871932 182.581123 
L 424.212927 182.411334 
L 424.977582 182.025718 
L 425.127413 182.06479 
L 425.432241 182.062554 
L 425.809402 181.771912 
L 426.35706 181.450549 
L 426.558557 181.389083 
L 427.20438 180.976917 
L 427.498876 180.977254 
L 427.829537 181.039673 
L 428.831855 180.8075 
L 430.015003 179.724909 
L 430.355998 179.65889 
L 431.404814 179.271898 
L 431.905973 179.178715 
L 432.494964 178.949123 
L 433.083955 179.260134 
L 434.654597 179.339126 
L 435.310753 179.812001 
L 435.925577 180.430662 
L 436.116741 180.473577 
L 436.416403 180.443421 
L 436.76773 180.322212 
L 437.274056 180.178008 
L 438.338373 180.267868 
L 438.93253 180.333351 
L 439.692018 180.329344 
L 440.379174 180.13046 
L 440.632337 180.19351 
L 441.965316 180.257241 
L 442.373476 180.57101 
L 443.887286 181.707603 
L 444.155948 181.82641 
L 444.507276 181.879847 
L 444.739772 181.918112 
L 445.95392 182.132257 
L 447.183567 182.319485 
L 448.216885 182.06082 
L 449.400033 182.127826 
L 449.937358 182.219 
L 450.309352 182.20233 
L 450.665846 182.205569 
L 451.301336 182.127767 
L 451.68883 182.037642 
L 452.122823 181.980151 
L 452.995976 181.850496 
L 453.445469 182.129999 
L 454.535619 182.846143 
L 455.12461 183.136237 
L 456.994914 182.285097 
L 457.294576 182.224407 
L 457.914566 182.232913 
L 459.11838 182.223143 
L 460.270529 181.874073 
L 460.497859 181.879418 
L 461.241847 182.138372 
L 461.799838 182.056766 
L 462.1305 181.765123 
L 462.32683 181.672361 
L 464.047303 181.706902 
L 464.481296 181.961762 
L 464.744792 182.086421 
L 465.085787 182.073789 
L 465.509447 181.86956 
L 465.767776 181.888414 
L 466.108771 182.114582 
L 466.361934 182.227265 
L 467.188587 182.389114 
L 468.929727 183.303434 
L 469.146723 183.213768 
L 469.39472 183.207122 
L 470.6657 183.81621 
L 471.352856 183.849976 
L 471.647351 183.786213 
L 472.236342 183.685638 
L 472.949331 183.540584 
L 473.279992 183.585702 
L 473.832817 183.635769 
L 474.302976 183.677343 
L 477.45976 182.428655 
L 478.188248 182.330384 
L 478.575742 182.506885 
L 479.479895 182.7896 
L 480.043053 182.825742 
L 480.874873 183.230118 
L 481.655028 183.000909 
L 481.95469 182.950986 
L 482.187186 182.903401 
L 484.785979 181.545473 
L 485.14764 181.433378 
L 485.99496 181.41865 
L 486.268789 181.537985 
L 486.542618 181.43366 
L 486.868113 181.254005 
L 487.162608 181.253569 
L 487.550102 181.136891 
L 488.366422 180.383522 
L 489.110411 180.49076 
L 489.420406 180.499183 
L 489.642569 180.352853 
L 490.407224 180.021315 
L 490.758552 179.855624 
L 491.109879 179.833888 
L 492.432525 180.093133 
L 493.155847 180.050034 
L 493.631173 179.902561 
L 494.096166 179.656476 
L 494.716156 179.411067 
L 497.066953 179.603741 
L 497.387281 179.711648 
L 498.901091 180.188743 
L 499.758744 180.02694 
L 500.156571 180.066436 
L 500.389067 180.028766 
L 502.5487 180.561318 
L 503.602684 181.002559 
L 504.124509 180.844014 
L 505.416155 180.705294 
L 505.963814 180.343152 
L 506.232476 180.261793 
L 508.820935 179.524206 
L 509.730255 179.54266 
L 509.998917 179.554942 
L 511.70389 179.517046 
L 512.251548 179.332016 
L 513.563861 179.37635 
L 514.354349 179.840173 
L 514.643678 179.788026 
L 515.020838 179.743632 
L 515.3205 179.828772 
L 515.609829 179.583617 
L 515.919824 179.401488 
L 516.327985 179.487613 
L 517.180471 179.882481 
L 518.52895 180.262823 
L 519.365937 179.874093 
L 519.83093 179.604307 
L 520.109925 179.613775 
L 520.549085 179.856973 
L 521.515237 180.566049 
L 521.856231 180.322608 
L 522.052562 180.268379 
L 522.605386 180.459463 
L 524.558356 181.182201 
L 525.049181 181.071943 
L 525.493508 181.149214 
L 526.325328 181.340584 
L 526.888486 181.418863 
L 527.818471 181.371048 
L 528.340296 181.491626 
L 529.275448 181.708265 
L 530.024603 181.598445 
L 530.758259 181.560607 
L 531.925907 181.117974 
L 532.545897 181.131521 
L 534.137206 181.13702 
L 534.545366 181.081239 
L 535.248022 180.921457 
L 535.563183 180.83234 
L 538.709634 180.276653 
L 539.102295 180.424035 
L 539.706785 180.601201 
L 540.404274 180.442292 
L 540.812434 180.436292 
L 541.174095 180.578062 
L 541.897417 180.269578 
L 542.822236 180.113898 
L 543.313062 179.908748 
L 544.387712 179.706431 
L 544.697707 179.740544 
L 545.214366 179.974681 
L 546.748841 180.466339 
L 547.513496 181.059321 
L 548.117987 181.362774 
L 548.474481 181.553023 
L 549.084138 181.773546 
L 549.755794 181.964334 
L 550.241453 182.13749 
L 551.5486 182.553337 
L 552.602583 182.793469 
L 552.886745 182.879452 
L 554.478054 183.500207 
L 554.994712 183.350223 
L 557.237011 182.750246 
L 558.073997 182.6693 
L 558.435658 182.544643 
L 559.902969 182.439529 
L 560.502293 182.03328 
L 560.765789 181.829839 
L 561.091284 181.736352 
L 562.57926 181.681134 
L 563.354248 182.061403 
L 564.759559 182.371002 
L 565.374383 182.567144 
L 565.78771 182.875194 
L 566.495532 183.463569 
L 566.929525 183.695841 
L 567.740679 184.065281 
L 568.727497 184.932134 
L 569.197657 185.305208 
L 572.550771 187.703486 
L 573.243093 187.724715 
L 574.229911 187.309267 
L 574.612238 187.114062 
L 574.896401 187.101262 
L 575.159897 187.120092 
L 576.027883 187.289602 
L 577.195531 187.696535 
L 577.588192 187.82164 
L 578.011852 187.92685 
L 578.461345 188.099454 
L 578.683508 188.047391 
L 578.952171 188.040232 
L 580.114652 188.207512 
L 580.67781 188.374237 
L 582.331118 188.228681 
L 583.524599 187.801676 
L 584.578582 187.928788 
L 586.185391 188.04093 
L 587.167042 188.740043 
L 588.164193 188.81921 
L 589.920832 188.157222 
L 591.171146 187.376437 
L 591.672305 187.117767 
L 592.855453 186.712456 
L 593.377278 186.559489 
L 593.697606 186.583125 
L 594.126433 186.572307 
L 596.115568 186.330278 
L 597.004221 186.27734 
L 597.551879 186.486074 
L 598.332034 186.644057 
L 599.711512 186.941043 
L 600.145505 187.035472 
L 601.116823 187.384479 
L 601.648982 187.661811 
L 602.062309 187.798162 
L 602.480802 188.058162 
L 603.054293 188.51872 
L 603.446954 188.674849 
L 603.917113 188.92794 
L 604.407939 189.059636 
L 605.270758 189.467949 
L 606.211077 189.216263 
L 606.608904 188.80423 
L 607.29606 188.203295 
L 607.657721 188.053212 
L 608.184713 188.054467 
L 610.45801 188.395089 
L 611.217499 188.419777 
L 611.36733 188.443701 
L 611.36733 188.443701 
" clip-path="url(#p2aa3391021)" style="fill: none; stroke: #1f2937; stroke-linecap: square"/>
   </g>
   <g id="line2d_32">
    <path d="M 68.88125 188.443701 
L 637.2 188.443701 
" clip-path="url(#p2aa3391021)" style="fill: none; stroke-dasharray: 2.96,1.28; stroke-dashoffset: 0; stroke: #888888; stroke-width: 0.8"/>
   </g>
   <g id="patch_3">
    <path d="M 68.88125 282.04 
L 68.88125 26.88 
" style="fill: none; stroke: #000000; stroke-width: 0.8; stroke-linejoin: miter; stroke-linecap: square"/>
   </g>
   <g id="patch_4">
    <path d="M 637.2 282.04 
L 637.2 26.88 
" style="fill: none; stroke: #000000; stroke-width: 0.8; stroke-linejoin: miter; stroke-linecap: square"/>
   </g>
   <g id="patch_5">
    <path d="M 68.88125 282.04 
L 637.2 282.04 
" style="fill: none; stroke: #000000; stroke-width: 0.8; stroke-linejoin: miter; stroke-linecap: square"/>
   </g>
   <g id="patch_6">
    <path d="M 68.88125 26.88 
L 637.2 26.88 
" style="fill: none; stroke: #000000; stroke-width: 0.8; stroke-linejoin: miter; stroke-linecap: square"/>
   </g>
   <g id="text_18">
    <!-- Running mean — efficiency_gap  (canonical ReCom ensemble) -->
    <g transform="translate(165.039062 20.88) scale(0.12 -0.12)">
     <defs>
      <path id="DejaVuSans-2014" d="M 313 1978 
L 6088 1978 
L 6088 1528 
L 313 1528 
L 313 1978 
z
" transform="scale(0.015625)"/>
      <path id="DejaVuSans-28" d="M 1984 4856 
Q 1566 4138 1362 3434 
Q 1159 2731 1159 2009 
Q 1159 1288 1364 580 
Q 1569 -128 1984 -844 
L 1484 -844 
Q 1016 -109 783 600 
Q 550 1309 550 2009 
Q 550 2706 781 3412 
Q 1013 4119 1484 4856 
L 1984 4856 
z
" transform="scale(0.015625)"/>
      <path id="DejaVuSans-43" d="M 4122 4306 
L 4122 3641 
Q 3803 3938 3442 4084 
Q 3081 4231 2675 4231 
Q 1875 4231 1450 3742 
Q 1025 3253 1025 2328 
Q 1025 1406 1450 917 
Q 1875 428 2675 428 
Q 3081 428 3442 575 
Q 3803 722 4122 1019 
L 4122 359 
Q 3791 134 3420 21 
Q 3050 -91 2638 -91 
Q 1578 -91 968 557 
Q 359 1206 359 2328 
Q 359 3453 968 4101 
Q 1578 4750 2638 4750 
Q 3056 4750 3426 4639 
Q 3797 4528 4122 4306 
z
" transform="scale(0.015625)"/>
      <path id="DejaVuSans-73" d="M 2834 3397 
L 2834 2853 
Q 2591 2978 2328 3040 
Q 2066 3103 1784 3103 
Q 1356 3103 1142 2972 
Q 928 2841 928 2578 
Q 928 2378 1081 2264 
Q 1234 2150 1697 2047 
L 1894 2003 
Q 2506 1872 2764 1633 
Q 3022 1394 3022 966 
Q 3022 478 2636 193 
Q 2250 -91 1575 -91 
Q 1294 -91 989 -36 
Q 684 19 347 128 
L 347 722 
Q 666 556 975 473 
Q 1284 391 1588 391 
Q 1994 391 2212 530 
Q 2431 669 2431 922 
Q 2431 1156 2273 1281 
Q 2116 1406 1581 1522 
L 1381 1569 
Q 847 1681 609 1914 
Q 372 2147 372 2553 
Q 372 3047 722 3315 
Q 1072 3584 1716 3584 
Q 2034 3584 2315 3537 
Q 2597 3491 2834 3397 
z
" transform="scale(0.015625)"/>
      <path id="DejaVuSans-62" d="M 3116 1747 
Q 3116 2381 2855 2742 
Q 2594 3103 2138 3103 
Q 1681 3103 1420 2742 
Q 1159 2381 1159 1747 
Q 1159 1113 1420 752 
Q 1681 391 2138 391 
Q 2594 391 2855 752 
Q 3116 1113 3116 1747 
z
M 1159 2969 
Q 1341 3281 1617 3432 
Q 1894 3584 2278 3584 
Q 2916 3584 3314 3078 
Q 3713 2572 3713 1747 
Q 3713 922 3314 415 
Q 2916 -91 2278 -91 
Q 1894 -91 1617 61 
Q 1341 213 1159 525 
L 1159 0 
L 581 0 
L 581 4863 
L 1159 4863 
L 1159 2969 
z
" transform="scale(0.015625)"/>
      <path id="DejaVuSans-29" d="M 513 4856 
L 1013 4856 
Q 1481 4119 1714 3412 
Q 1947 2706 1947 2009 
Q 1947 1309 1714 600 
Q 1481 -109 1013 -844 
L 513 -844 
Q 928 -128 1133 580 
Q 1338 1288 1338 2009 
Q 1338 2731 1133 3434 
Q 928 4138 513 4856 
z
" transform="scale(0.015625)"/>
     </defs>
     <use xlink:href="#DejaVuSans-52"/>
     <use xlink:href="#DejaVuSans-75" transform="translate(64.982422 0)"/>
     <use xlink:href="#DejaVuSans-6e" transform="translate(128.361328 0)"/>
     <use xlink:href="#DejaVuSans-6e" transform="translate(191.740234 0)"/>
     <use xlink:href="#DejaVuSans-69" transform="translate(255.119141 0)"/>
     <use xlink:href="#DejaVuSans-6e" transform="translate(282.902344 0)"/>
     <use xlink:href="#DejaVuSans-67" transform="translate(346.28125 0)"/>
     <use xlink:href="#DejaVuSans-20" transform="translate(409.757812 0)"/>
     <use xlink:href="#DejaVuSans-6d" transform="translate(441.544922 0)"/>
     <use xlink:href="#DejaVuSans-65" transform="translate(538.957031 0)"/>
     <use xlink:href="#DejaVuSans-61" transform="translate(600.480469 0)"/>
     <use xlink:href="#DejaVuSans-6e" transform="translate(661.759766 0)"/>
     <use xlink:href="#DejaVuSans-20" transform="translate(725.138672 0)"/>
     <use xlink:href="#DejaVuSans-2014" transform="translate(756.925781 0)"/>
     <use xlink:href="#DejaVuSans-20" transform="translate(856.925781 0)"/>
     <use xlink:href="#DejaVuSans-65" transform="translate(888.712891 0)"/>
     <use xlink:href="#DejaVuSans-66" transform="translate(950.236328 0)"/>
     <use xlink:href="#DejaVuSans-66" transform="translate(985.441406 0)"/>
     <use xlink:href="#DejaVuSans-69" transform="translate(1020.646484 0)"/>
     <use xlink:href="#DejaVuSans-63" transform="translate(1048.429688 0)"/>
     <use xlink:href="#DejaVuSans-69" transform="translate(1103.410156 0)"/>
     <use xlink:href="#DejaVuSans-65" transform="translate(1131.193359 0)"/>
     <use xlink:href="#DejaVuSans-6e" transform="translate(1192.716797 0)"/>
     <use xlink:href="#DejaVuSans-63" transform="translate(1256.095703 0)"/>
     <use xlink:href="#DejaVuSans-79" transform="translate(1311.076172 0)"/>
     <use xlink:href="#DejaVuSans-5f" transform="translate(1370.255859 0)"/>
     <use xlink:href="#DejaVuSans-67" transform="translate(1420.255859 0)"/>
     <use xlink:href="#DejaVuSans-61" transform="translate(1483.732422 0)"/>
     <use xlink:href="#DejaVuSans-70" transform="translate(1545.011719 0)"/>
     <use xlink:href="#DejaVuSans-20" transform="translate(1608.488281 0)"/>
     <use xlink:href="#DejaVuSans-20" transform="translate(1640.275391 0)"/>
     <use xlink:href="#DejaVuSans-28" transform="translate(1672.0625 0)"/>
     <use xlink:href="#DejaVuSans-63" transform="translate(1711.076172 0)"/>
     <use xlink:href="#DejaVuSans-61" transform="translate(1766.056641 0)"/>
     <use xlink:href="#DejaVuSans-6e" transform="translate(1827.335938 0)"/>
     <use xlink:href="#DejaVuSans-6f" transform="translate(1890.714844 0)"/>
     <use xlink:href="#DejaVuSans-6e" transform="translate(1951.896484 0)"/>
     <use xlink:href="#DejaVuSans-69" transform="translate(2015.275391 0)"/>
     <use xlink:href="#DejaVuSans-63" transform="translate(2043.058594 0)"/>
     <use xlink:href="#DejaVuSans-61" transform="translate(2098.039062 0)"/>
     <use xlink:href="#DejaVuSans-6c" transform="translate(2159.318359 0)"/>
     <use xlink:href="#DejaVuSans-20" transform="translate(2187.101562 0)"/>
     <use xlink:href="#DejaVuSans-52" transform="translate(2218.888672 0)"/>
     <use xlink:href="#DejaVuSans-65" transform="translate(2283.871094 0)"/>
     <use xlink:href="#DejaVuSans-43" transform="translate(2345.394531 0)"/>
     <use xlink:href="#DejaVuSans-6f" transform="translate(2415.21875 0)"/>
     <use xlink:href="#DejaVuSans-6d" transform="translate(2476.400391 0)"/>
     <use xlink:href="#DejaVuSans-20" transform="translate(2573.8125 0)"/>
     <use xlink:href="#DejaVuSans-65" transform="translate(2605.599609 0)"/>
     <use xlink:href="#DejaVuSans-6e" transform="translate(2667.123047 0)"/>
     <use xlink:href="#DejaVuSans-73" transform="translate(2730.501953 0)"/>
     <use xlink:href="#DejaVuSans-65" transform="translate(2782.601562 0)"/>
     <use xlink:href="#DejaVuSans-6d" transform="translate(2844.125 0)"/>
     <use xlink:href="#DejaVuSans-62" transform="translate(2941.537109 0)"/>
     <use xlink:href="#DejaVuSans-6c" transform="translate(3005.013672 0)"/>
     <use xlink:href="#DejaVuSans-65" transform="translate(3032.796875 0)"/>
     <use xlink:href="#DejaVuSans-29" transform="translate(3094.320312 0)"/>
    </g>
   </g>
   <g id="legend_1">
    <g id="patch_7">
     <path d="M 500.601094 47.290312 
L 630.9 47.290312 
Q 632.7 47.290312 632.7 45.490312 
L 632.7 33.18 
Q 632.7 31.38 630.9 31.38 
L 500.601094 31.38 
Q 498.801094 31.38 498.801094 33.18 
L 498.801094 45.490312 
Q 498.801094 47.290312 500.601094 47.290312 
z
" style="fill: #ffffff; opacity: 0.8; stroke: #cccccc; stroke-linejoin: miter"/>
    </g>
    <g id="line2d_33">
     <path d="M 502.401094 38.668594 
L 511.401094 38.668594 
L 520.401094 38.668594 
" style="fill: none; stroke-dasharray: 2.96,1.28; stroke-dashoffset: 0; stroke: #888888; stroke-width: 0.8"/>
    </g>
    <g id="text_19">
     <!-- final mean = -0.01245 -->
     <g transform="translate(527.601094 41.818594) scale(0.09 -0.09)">
      <defs>
       <path id="DejaVuSans-3d" d="M 678 2906 
L 4684 2906 
L 4684 2381 
L 678 2381 
L 678 2906 
z
M 678 1631 
L 4684 1631 
L 4684 1100 
L 678 1100 
L 678 1631 
z
" transform="scale(0.015625)"/>
       <path id="DejaVuSans-2d" d="M 313 2009 
L 1997 2009 
L 1997 1497 
L 313 1497 
L 313 2009 
z
" transform="scale(0.015625)"/>
       <path id="DejaVuSans-35" d="M 691 4666 
L 3169 4666 
L 3169 4134 
L 1269 4134 
L 1269 2991 
Q 1406 3038 1543 3061 
Q 1681 3084 1819 3084 
Q 2600 3084 3056 2656 
Q 3513 2228 3513 1497 
Q 3513 744 3044 326 
Q 2575 -91 1722 -91 
Q 1428 -91 1123 -41 
Q 819 9 494 109 
L 494 744 
Q 775 591 1075 516 
Q 1375 441 1709 441 
Q 2250 441 2565 725 
Q 2881 1009 2881 1497 
Q 2881 1984 2565 2268 
Q 2250 2553 1709 2553 
Q 1456 2553 1204 2497 
Q 953 2441 691 2322 
L 691 4666 
z
" transform="scale(0.015625)"/>
      </defs>
      <use xlink:href="#DejaVuSans-66"/>
      <use xlink:href="#DejaVuSans-69" transform="translate(35.205078 0)"/>
      <use xlink:href="#DejaVuSans-6e" transform="translate(62.988281 0)"/>
      <use xlink:href="#DejaVuSans-61" transform="translate(126.367188 0)"/>
      <use xlink:href="#DejaVuSans-6c" transform="translate(187.646484 0)"/>
      <use xlink:href="#DejaVuSans-20" transform="translate(215.429688 0)"/>
      <use xlink:href="#DejaVuSans-6d" transform="translate(247.216797 0)"/>
      <use xlink:href="#DejaVuSans-65" transform="translate(344.628906 0)"/>
      <use xlink:href="#DejaVuSans-61" transform="translate(406.152344 0)"/>
      <use xlink:href="#DejaVuSans-6e" transform="translate(467.431641 0)"/>
      <use xlink:href="#DejaVuSans-20" transform="translate(530.810547 0)"/>
      <use xlink:href="#DejaVuSans-3d" transform="translate(562.597656 0)"/>
      <use xlink:href="#DejaVuSans-20" transform="translate(646.386719 0)"/>
      <use xlink:href="#DejaVuSans-2d" transform="translate(678.173828 0)"/>
      <use xlink:href="#DejaVuSans-30" transform="translate(714.257812 0)"/>
      <use xlink:href="#DejaVuSans-2e" transform="translate(777.880859 0)"/>
      <use xlink:href="#DejaVuSans-30" transform="translate(809.667969 0)"/>
      <use xlink:href="#DejaVuSans-31" transform="translate(873.291016 0)"/>
      <use xlink:href="#DejaVuSans-32" transform="translate(936.914062 0)"/>
      <use xlink:href="#DejaVuSans-34" transform="translate(1000.537109 0)"/>
      <use xlink:href="#DejaVuSans-35" transform="translate(1064.160156 0)"/>
     </g>
    </g>
   </g>
  </g>
 </g>
 <defs>
  <clipPath id="p2aa3391021">
   <rect x="68.88125" y="26.88" width="568.31875" height="255.16"/>
  </clipPath>
 </defs>
</svg>
