<?xml version="1.0" encoding="utf-8" standalone="no"?>
<!DOCTYPE svg PUBLIC "-//W3C//DTD SVG 1.1//EN"
  "http://www.w3.org/Graphics/SVG/1.1/DTD/svg11.dtd">
<svg xmlns:xlink="http://www.w3.org/1999/xlink" width="648pt" height="324pt" viewBox="0 0 648 324" xmlns="http://www.w3.org/2000/svg" version="1.1">
 <metadata>
  <rdf:RDF xmlns:dc="http://purl.org/dc/elements/1.1/" xmlns:cc="http://creativecommons.org/ns#" xmlns:rdf="http://www.w3.org/1999/02/22-rdf-syntax-ns#">
   <cc:Work>
    <dc:type rdf:resource="http://purl.org/dc/dcmitype/StillImage"/>
    <dc:date>2026-05-12T12:08:07.042590</dc:date>
    <dc:format>image/svg+xml</dc:format>
    <dc:creator>
     <cc:Agent>
      <dc:title>Matplotlib v3.10.8, https://matplotlib.org/</dc:title>
     </cc:Agent>
    </dc:creator>
   </cc:Work>
  </rdf:RDF>
 </metadata>
 <defs>
  <style type="text/css">*{stroke-linejoin: round; stroke-linecap: butt}</style>
 </defs>
 <g id="figure_1">
  <g id="patch_1">
   <path d="M 0 324 
L 648 324 
L 648 0 
L 0 0 
z
" style="fill: #ffffff"/>
  </g>
  <g id="axes_1">
   <g id="patch_2">
    <path d="M 54.12125 282.04 
L 637.2 282.04 
L 637.2 26.88 
L 54.12125 26.88 
z
" style="fill: #ffffff"/>
   </g>
   <g id="matplotlib.axis_1">
    <g id="xtick_1">
     <g id="line2d_1">
      <path d="M 80.619529 282.04 
L 80.619529 26.88 
" clip-path="url(#p18c50e7539)" style="fill: none; stroke-dasharray: 0.5,0.825; stroke-dashoffset: 0; stroke: #b0b0b0; stroke-opacity: 0.6; stroke-width: 0.5"/>
     </g>
     <g id="line2d_2">
      <defs>
       <path id="mf82182d136" d="M 0 0 
L 0 3.5 
" style="stroke: #000000; stroke-width: 0.8"/>
      </defs>
      <g>
       <use xlink:href="#mf82182d136" x="80.619529" y="282.04" style="stroke: #000000; stroke-width: 0.8"/>
      </g>
     </g>
     <g id="text_1">
      <!-- 0 -->
      <g transform="translate(77.438279 296.638438) scale(0.1 -0.1)">
       <defs>
        <path id="DejaVuSans-30" d="M 2034 4250 
Q 1547 4250 1301 3770 
Q 1056 3291 1056 2328 
Q 1056 1369 1301 889 
Q 1547 409 2034 409 
Q 2525 409 2770 889 
Q 3016 1369 3016 2328 
Q 3016 3291 2770 3770 
Q 2525 4250 2034 4250 
z
M 2034 4750 
Q 2819 4750 3233 4129 
Q 3647 3509 3647 2328 
Q 3647 1150 3233 529 
Q 2819 -91 2034 -91 
Q 1250 -91 836 529 
Q 422 1150 422 2328 
Q 422 3509 836 4129 
Q 1250 4750 2034 4750 
z
" transform="scale(0.015625)"/>
       </defs>
       <use xlink:href="#DejaVuSans-30"/>
      </g>
     </g>
    </g>
    <g id="xtick_2">
     <g id="line2d_3">
      <path d="M 186.634907 282.04 
L 186.634907 26.88 
" clip-path="url(#p18c50e7539)" style="fill: none; stroke-dasharray: 0.5,0.825; stroke-dashoffset: 0; stroke: #b0b0b0; stroke-opacity: 0.6; stroke-width: 0.5"/>
     </g>
     <g id="line2d_4">
      <g>
       <use xlink:href="#mf82182d136" x="186.634907" y="282.04" style="stroke: #000000; stroke-width: 0.8"/>
      </g>
     </g>
     <g id="text_2">
      <!-- 20000 -->
      <g transform="translate(170.728657 296.638438) scale(0.1 -0.1)">
       <defs>
        <path id="DejaVuSans-32" d="M 1228 531 
L 3431 531 
L 3431 0 
L 469 0 
L 469 531 
Q 828 903 1448 1529 
Q 2069 2156 2228 2338 
Q 2531 2678 2651 2914 
Q 2772 3150 2772 3378 
Q 2772 3750 2511 3984 
Q 2250 4219 1831 4219 
Q 1534 4219 1204 4116 
Q 875 4013 500 3803 
L 500 4441 
Q 881 4594 1212 4672 
Q 1544 4750 1819 4750 
Q 2544 4750 2975 4387 
Q 3406 4025 3406 3419 
Q 3406 3131 3298 2873 
Q 3191 2616 2906 2266 
Q 2828 2175 2409 1742 
Q 1991 1309 1228 531 
z
" transform="scale(0.015625)"/>
       </defs>
       <use xlink:href="#DejaVuSans-32"/>
       <use xlink:href="#DejaVuSans-30" transform="translate(63.623047 0)"/>
       <use xlink:href="#DejaVuSans-30" transform="translate(127.246094 0)"/>
       <use xlink:href="#DejaVuSans-30" transform="translate(190.869141 0)"/>
       <use xlink:href="#DejaVuSans-30" transform="translate(254.492188 0)"/>
      </g>
     </g>
    </g>
    <g id="xtick_3">
     <g id="line2d_5">
      <path d="M 292.650285 282.04 
L 292.650285 26.88 
" clip-path="url(#p18c50e7539)" style="fill: none; stroke-dasharray: 0.5,0.825; stroke-dashoffset: 0; stroke: #b0b0b0; stroke-opacity: 0.6; stroke-width: 0.5"/>
     </g>
     <g id="line2d_6">
      <g>
       <use xlink:href="#mf82182d136" x="292.650285" y="282.04" style="stroke: #000000; stroke-width: 0.8"/>
      </g>
     </g>
     <g id="text_3">
      <!-- 40000 -->
      <g transform="translate(276.744035 296.638438) scale(0.1 -0.1)">
       <defs>
        <path id="DejaVuSans-34" d="M 2419 4116 
L 825 1625 
L 2419 1625 
L 2419 4116 
z
M 2253 4666 
L 3047 4666 
L 3047 1625 
L 3713 1625 
L 3713 1100 
L 3047 1100 
L 3047 0 
L 2419 0 
L 2419 1100 
L 313 1100 
L 313 1709 
L 2253 4666 
z
" transform="scale(0.015625)"/>
       </defs>
       <use xlink:href="#DejaVuSans-34"/>
       <use xlink:href="#DejaVuSans-30" transform="translate(63.623047 0)"/>
       <use xlink:href="#DejaVuSans-30" transform="translate(127.246094 0)"/>
       <use xlink:href="#DejaVuSans-30" transform="translate(190.869141 0)"/>
       <use xlink:href="#DejaVuSans-30" transform="translate(254.492188 0)"/>
      </g>
     </g>
    </g>
    <g id="xtick_4">
     <g id="line2d_7">
      <path d="M 398.665664 282.04 
L 398.665664 26.88 
" clip-path="url(#p18c50e7539)" style="fill: none; stroke-dasharray: 0.5,0.825; stroke-dashoffset: 0; stroke: #b0b0b0; stroke-opacity: 0.6; stroke-width: 0.5"/>
     </g>
     <g id="line2d_8">
      <g>
       <use xlink:href="#mf82182d136" x="398.665664" y="282.04" style="stroke: #000000; stroke-width: 0.8"/>
      </g>
     </g>
     <g id="text_4">
      <!-- 60000 -->
      <g transform="translate(382.759414 296.638438) scale(0.1 -0.1)">
       <defs>
        <path id="DejaVuSans-36" d="M 2113 2584 
Q 1688 2584 1439 2293 
Q 1191 2003 1191 1497 
Q 1191 994 1439 701 
Q 1688 409 2113 409 
Q 2538 409 2786 701 
Q 3034 994 3034 1497 
Q 3034 2003 2786 2293 
Q 2538 2584 2113 2584 
z
M 3366 4563 
L 3366 3988 
Q 3128 4100 2886 4159 
Q 2644 4219 2406 4219 
Q 1781 4219 1451 3797 
Q 1122 3375 1075 2522 
Q 1259 2794 1537 2939 
Q 1816 3084 2150 3084 
Q 2853 3084 3261 2657 
Q 3669 2231 3669 1497 
Q 3669 778 3244 343 
Q 2819 -91 2113 -91 
Q 1303 -91 875 529 
Q 447 1150 447 2328 
Q 447 3434 972 4092 
Q 1497 4750 2381 4750 
Q 2619 4750 2861 4703 
Q 3103 4656 3366 4563 
z
" transform="scale(0.015625)"/>
       </defs>
       <use xlink:href="#DejaVuSans-36"/>
       <use xlink:href="#DejaVuSans-30" transform="translate(63.623047 0)"/>
       <use xlink:href="#DejaVuSans-30" transform="translate(127.246094 0)"/>
       <use xlink:href="#DejaVuSans-30" transform="translate(190.869141 0)"/>
       <use xlink:href="#DejaVuSans-30" transform="translate(254.492188 0)"/>
      </g>
     </g>
    </g>
    <g id="xtick_5">
     <g id="line2d_9">
      <path d="M 504.681042 282.04 
L 504.681042 26.88 
" clip-path="url(#p18c50e7539)" style="fill: none; stroke-dasharray: 0.5,0.825; stroke-dashoffset: 0; stroke: #b0b0b0; stroke-opacity: 0.6; stroke-width: 0.5"/>
     </g>
     <g id="line2d_10">
      <g>
       <use xlink:href="#mf82182d136" x="504.681042" y="282.04" style="stroke: #000000; stroke-width: 0.8"/>
      </g>
     </g>
     <g id="text_5">
      <!-- 80000 -->
      <g transform="translate(488.774792 296.638438) scale(0.1 -0.1)">
       <defs>
        <path id="DejaVuSans-38" d="M 2034 2216 
Q 1584 2216 1326 1975 
Q 1069 1734 1069 1313 
Q 1069 891 1326 650 
Q 1584 409 2034 409 
Q 2484 409 2743 651 
Q 3003 894 3003 1313 
Q 3003 1734 2745 1975 
Q 2488 2216 2034 2216 
z
M 1403 2484 
Q 997 2584 770 2862 
Q 544 3141 544 3541 
Q 544 4100 942 4425 
Q 1341 4750 2034 4750 
Q 2731 4750 3128 4425 
Q 3525 4100 3525 3541 
Q 3525 3141 3298 2862 
Q 3072 2584 2669 2484 
Q 3125 2378 3379 2068 
Q 3634 1759 3634 1313 
Q 3634 634 3220 271 
Q 2806 -91 2034 -91 
Q 1263 -91 848 271 
Q 434 634 434 1313 
Q 434 1759 690 2068 
Q 947 2378 1403 2484 
z
M 1172 3481 
Q 1172 3119 1398 2916 
Q 1625 2713 2034 2713 
Q 2441 2713 2670 2916 
Q 2900 3119 2900 3481 
Q 2900 3844 2670 4047 
Q 2441 4250 2034 4250 
Q 1625 4250 1398 4047 
Q 1172 3844 1172 3481 
z
" transform="scale(0.015625)"/>
       </defs>
       <use xlink:href="#DejaVuSans-38"/>
       <use xlink:href="#DejaVuSans-30" transform="translate(63.623047 0)"/>
       <use xlink:href="#DejaVuSans-30" transform="translate(127.246094 0)"/>
       <use xlink:href="#DejaVuSans-30" transform="translate(190.869141 0)"/>
       <use xlink:href="#DejaVuSans-30" transform="translate(254.492188 0)"/>
      </g>
     </g>
    </g>
    <g id="xtick_6">
     <g id="line2d_11">
      <path d="M 610.69642 282.04 
L 610.69642 26.88 
" clip-path="url(#p18c50e7539)" style="fill: none; stroke-dasharray: 0.5,0.825; stroke-dashoffset: 0; stroke: #b0b0b0; stroke-opacity: 0.6; stroke-width: 0.5"/>
     </g>
     <g id="line2d_12">
      <g>
       <use xlink:href="#mf82182d136" x="610.69642" y="282.04" style="stroke: #000000; stroke-width: 0.8"/>
      </g>
     </g>
     <g id="text_6">
      <!-- 100000 -->
      <g transform="translate(591.60892 296.638438) scale(0.1 -0.1)">
       <defs>
        <path id="DejaVuSans-31" d="M 794 531 
L 1825 531 
L 1825 4091 
L 703 3866 
L 703 4441 
L 1819 4666 
L 2450 4666 
L 2450 531 
L 3481 531 
L 3481 0 
L 794 0 
L 794 531 
z
" transform="scale(0.015625)"/>
       </defs>
       <use xlink:href="#DejaVuSans-31"/>
       <use xlink:href="#DejaVuSans-30" transform="translate(63.623047 0)"/>
       <use xlink:href="#DejaVuSans-30" transform="translate(127.246094 0)"/>
       <use xlink:href="#DejaVuSans-30" transform="translate(190.869141 0)"/>
       <use xlink:href="#DejaVuSans-30" transform="translate(254.492188 0)"/>
       <use xlink:href="#DejaVuSans-30" transform="translate(318.115234 0)"/>
      </g>
     </g>
    </g>
    <g id="text_7">
     <!-- Sample index -->
     <g transform="translate(311.642656 310.316563) scale(0.1 -0.1)">
      <defs>
       <path id="DejaVuSans-53" d="M 3425 4513 
L 3425 3897 
Q 3066 4069 2747 4153 
Q 2428 4238 2131 4238 
Q 1616 4238 1336 4038 
Q 1056 3838 1056 3469 
Q 1056 3159 1242 3001 
Q 1428 2844 1947 2747 
L 2328 2669 
Q 3034 2534 3370 2195 
Q 3706 1856 3706 1288 
Q 3706 609 3251 259 
Q 2797 -91 1919 -91 
Q 1588 -91 1214 -16 
Q 841 59 441 206 
L 441 856 
Q 825 641 1194 531 
Q 1563 422 1919 422 
Q 2459 422 2753 634 
Q 3047 847 3047 1241 
Q 3047 1584 2836 1778 
Q 2625 1972 2144 2069 
L 1759 2144 
Q 1053 2284 737 2584 
Q 422 2884 422 3419 
Q 422 4038 858 4394 
Q 1294 4750 2059 4750 
Q 2388 4750 2728 4690 
Q 3069 4631 3425 4513 
z
" transform="scale(0.015625)"/>
       <path id="DejaVuSans-61" d="M 2194 1759 
Q 1497 1759 1228 1600 
Q 959 1441 959 1056 
Q 959 750 1161 570 
Q 1363 391 1709 391 
Q 2188 391 2477 730 
Q 2766 1069 2766 1631 
L 2766 1759 
L 2194 1759 
z
M 3341 1997 
L 3341 0 
L 2766 0 
L 2766 531 
Q 2569 213 2275 61 
Q 1981 -91 1556 -91 
Q 1019 -91 701 211 
Q 384 513 384 1019 
Q 384 1609 779 1909 
Q 1175 2209 1959 2209 
L 2766 2209 
L 2766 2266 
Q 2766 2663 2505 2880 
Q 2244 3097 1772 3097 
Q 1472 3097 1187 3025 
Q 903 2953 641 2809 
L 641 3341 
Q 956 3463 1253 3523 
Q 1550 3584 1831 3584 
Q 2591 3584 2966 3190 
Q 3341 2797 3341 1997 
z
" transform="scale(0.015625)"/>
       <path id="DejaVuSans-6d" d="M 3328 2828 
Q 3544 3216 3844 3400 
Q 4144 3584 4550 3584 
Q 5097 3584 5394 3201 
Q 5691 2819 5691 2113 
L 5691 0 
L 5113 0 
L 5113 2094 
Q 5113 2597 4934 2840 
Q 4756 3084 4391 3084 
Q 3944 3084 3684 2787 
Q 3425 2491 3425 1978 
L 3425 0 
L 2847 0 
L 2847 2094 
Q 2847 2600 2669 2842 
Q 2491 3084 2119 3084 
Q 1678 3084 1418 2786 
Q 1159 2488 1159 1978 
L 1159 0 
L 581 0 
L 581 3500 
L 1159 3500 
L 1159 2956 
Q 1356 3278 1631 3431 
Q 1906 3584 2284 3584 
Q 2666 3584 2933 3390 
Q 3200 3197 3328 2828 
z
" transform="scale(0.015625)"/>
       <path id="DejaVuSans-70" d="M 1159 525 
L 1159 -1331 
L 581 -1331 
L 581 3500 
L 1159 3500 
L 1159 2969 
Q 1341 3281 1617 3432 
Q 1894 3584 2278 3584 
Q 2916 3584 3314 3078 
Q 3713 2572 3713 1747 
Q 3713 922 3314 415 
Q 2916 -91 2278 -91 
Q 1894 -91 1617 61 
Q 1341 213 1159 525 
z
M 3116 1747 
Q 3116 2381 2855 2742 
Q 2594 3103 2138 3103 
Q 1681 3103 1420 2742 
Q 1159 2381 1159 1747 
Q 1159 1113 1420 752 
Q 1681 391 2138 391 
Q 2594 391 2855 752 
Q 3116 1113 3116 1747 
z
" transform="scale(0.015625)"/>
       <path id="DejaVuSans-6c" d="M 603 4863 
L 1178 4863 
L 1178 0 
L 603 0 
L 603 4863 
z
" transform="scale(0.015625)"/>
       <path id="DejaVuSans-65" d="M 3597 1894 
L 3597 1613 
L 953 1613 
Q 991 1019 1311 708 
Q 1631 397 2203 397 
Q 2534 397 2845 478 
Q 3156 559 3463 722 
L 3463 178 
Q 3153 47 2828 -22 
Q 2503 -91 2169 -91 
Q 1331 -91 842 396 
Q 353 884 353 1716 
Q 353 2575 817 3079 
Q 1281 3584 2069 3584 
Q 2775 3584 3186 3129 
Q 3597 2675 3597 1894 
z
M 3022 2063 
Q 3016 2534 2758 2815 
Q 2500 3097 2075 3097 
Q 1594 3097 1305 2825 
Q 1016 2553 972 2059 
L 3022 2063 
z
" transform="scale(0.015625)"/>
       <path id="DejaVuSans-20" transform="scale(0.015625)"/>
       <path id="DejaVuSans-69" d="M 603 3500 
L 1178 3500 
L 1178 0 
L 603 0 
L 603 3500 
z
M 603 4863 
L 1178 4863 
L 1178 4134 
L 603 4134 
L 603 4863 
z
" transform="scale(0.015625)"/>
       <path id="DejaVuSans-6e" d="M 3513 2113 
L 3513 0 
L 2938 0 
L 2938 2094 
Q 2938 2591 2744 2837 
Q 2550 3084 2163 3084 
Q 1697 3084 1428 2787 
Q 1159 2491 1159 1978 
L 1159 0 
L 581 0 
L 581 3500 
L 1159 3500 
L 1159 2956 
Q 1366 3272 1645 3428 
Q 1925 3584 2291 3584 
Q 2894 3584 3203 3211 
Q 3513 2838 3513 2113 
z
" transform="scale(0.015625)"/>
       <path id="DejaVuSans-64" d="M 2906 2969 
L 2906 4863 
L 3481 4863 
L 3481 0 
L 2906 0 
L 2906 525 
Q 2725 213 2448 61 
Q 2172 -91 1784 -91 
Q 1150 -91 751 415 
Q 353 922 353 1747 
Q 353 2572 751 3078 
Q 1150 3584 1784 3584 
Q 2172 3584 2448 3432 
Q 2725 3281 2906 2969 
z
M 947 1747 
Q 947 1113 1208 752 
Q 1469 391 1925 391 
Q 2381 391 2643 752 
Q 2906 1113 2906 1747 
Q 2906 2381 2643 2742 
Q 2381 3103 1925 3103 
Q 1469 3103 1208 2742 
Q 947 2381 947 1747 
z
" transform="scale(0.015625)"/>
       <path id="DejaVuSans-78" d="M 3513 3500 
L 2247 1797 
L 3578 0 
L 2900 0 
L 1881 1375 
L 863 0 
L 184 0 
L 1544 1831 
L 300 3500 
L 978 3500 
L 1906 2253 
L 2834 3500 
L 3513 3500 
z
" transform="scale(0.015625)"/>
      </defs>
      <use xlink:href="#DejaVuSans-53"/>
      <use xlink:href="#DejaVuSans-61" transform="translate(63.476562 0)"/>
      <use xlink:href="#DejaVuSans-6d" transform="translate(124.755859 0)"/>
      <use xlink:href="#DejaVuSans-70" transform="translate(222.167969 0)"/>
      <use xlink:href="#DejaVuSans-6c" transform="translate(285.644531 0)"/>
      <use xlink:href="#DejaVuSans-65" transform="translate(313.427734 0)"/>
      <use xlink:href="#DejaVuSans-20" transform="translate(374.951172 0)"/>
      <use xlink:href="#DejaVuSans-69" transform="translate(406.738281 0)"/>
      <use xlink:href="#DejaVuSans-6e" transform="translate(434.521484 0)"/>
      <use xlink:href="#DejaVuSans-64" transform="translate(497.900391 0)"/>
      <use xlink:href="#DejaVuSans-65" transform="translate(561.376953 0)"/>
      <use xlink:href="#DejaVuSans-78" transform="translate(621.150391 0)"/>
     </g>
    </g>
   </g>
   <g id="matplotlib.axis_2">
    <g id="ytick_1">
     <g id="line2d_13">
      <path d="M 54.12125 270.391851 
L 637.2 270.391851 
" clip-path="url(#p18c50e7539)" style="fill: none; stroke-dasharray: 0.5,0.825; stroke-dashoffset: 0; stroke: #b0b0b0; stroke-opacity: 0.6; stroke-width: 0.5"/>
     </g>
     <g id="line2d_14">
      <defs>
       <path id="m6ac6f5acb5" d="M 0 0 
L -3.5 0 
" style="stroke: #000000; stroke-width: 0.8"/>
      </defs>
      <g>
       <use xlink:href="#m6ac6f5acb5" x="54.12125" y="270.391851" style="stroke: #000000; stroke-width: 0.8"/>
      </g>
     </g>
     <g id="text_8">
      <!-- 0.41 -->
      <g transform="translate(24.855625 274.191069) scale(0.1 -0.1)">
       <defs>
        <path id="DejaVuSans-2e" d="M 684 794 
L 1344 794 
L 1344 0 
L 684 0 
L 684 794 
z
" transform="scale(0.015625)"/>
       </defs>
       <use xlink:href="#DejaVuSans-30"/>
       <use xlink:href="#DejaVuSans-2e" transform="translate(63.623047 0)"/>
       <use xlink:href="#DejaVuSans-34" transform="translate(95.410156 0)"/>
       <use xlink:href="#DejaVuSans-31" transform="translate(159.033203 0)"/>
      </g>
     </g>
    </g>
    <g id="ytick_2">
     <g id="line2d_15">
      <path d="M 54.12125 219.978765 
L 637.2 219.978765 
" clip-path="url(#p18c50e7539)" style="fill: none; stroke-dasharray: 0.5,0.825; stroke-dashoffset: 0; stroke: #b0b0b0; stroke-opacity: 0.6; stroke-width: 0.5"/>
     </g>
     <g id="line2d_16">
      <g>
       <use xlink:href="#m6ac6f5acb5" x="54.12125" y="219.978765" style="stroke: #000000; stroke-width: 0.8"/>
      </g>
     </g>
     <g id="text_9">
      <!-- 0.42 -->
      <g transform="translate(24.855625 223.777984) scale(0.1 -0.1)">
       <use xlink:href="#DejaVuSans-30"/>
       <use xlink:href="#DejaVuSans-2e" transform="translate(63.623047 0)"/>
       <use xlink:href="#DejaVuSans-34" transform="translate(95.410156 0)"/>
       <use xlink:href="#DejaVuSans-32" transform="translate(159.033203 0)"/>
      </g>
     </g>
    </g>
    <g id="ytick_3">
     <g id="line2d_17">
      <path d="M 54.12125 169.56568 
L 637.2 169.56568 
" clip-path="url(#p18c50e7539)" style="fill: none; stroke-dasharray: 0.5,0.825; stroke-dashoffset: 0; stroke: #b0b0b0; stroke-opacity: 0.6; stroke-width: 0.5"/>
     </g>
     <g id="line2d_18">
      <g>
       <use xlink:href="#m6ac6f5acb5" x="54.12125" y="169.56568" style="stroke: #000000; stroke-width: 0.8"/>
      </g>
     </g>
     <g id="text_10">
      <!-- 0.43 -->
      <g transform="translate(24.855625 173.364899) scale(0.1 -0.1)">
       <defs>
        <path id="DejaVuSans-33" d="M 2597 2516 
Q 3050 2419 3304 2112 
Q 3559 1806 3559 1356 
Q 3559 666 3084 287 
Q 2609 -91 1734 -91 
Q 1441 -91 1130 -33 
Q 819 25 488 141 
L 488 750 
Q 750 597 1062 519 
Q 1375 441 1716 441 
Q 2309 441 2620 675 
Q 2931 909 2931 1356 
Q 2931 1769 2642 2001 
Q 2353 2234 1838 2234 
L 1294 2234 
L 1294 2753 
L 1863 2753 
Q 2328 2753 2575 2939 
Q 2822 3125 2822 3475 
Q 2822 3834 2567 4026 
Q 2313 4219 1838 4219 
Q 1578 4219 1281 4162 
Q 984 4106 628 3988 
L 628 4550 
Q 988 4650 1302 4700 
Q 1616 4750 1894 4750 
Q 2613 4750 3031 4423 
Q 3450 4097 3450 3541 
Q 3450 3153 3228 2886 
Q 3006 2619 2597 2516 
z
" transform="scale(0.015625)"/>
       </defs>
       <use xlink:href="#DejaVuSans-30"/>
       <use xlink:href="#DejaVuSans-2e" transform="translate(63.623047 0)"/>
       <use xlink:href="#DejaVuSans-34" transform="translate(95.410156 0)"/>
       <use xlink:href="#DejaVuSans-33" transform="translate(159.033203 0)"/>
      </g>
     </g>
    </g>
    <g id="ytick_4">
     <g id="line2d_19">
      <path d="M 54.12125 119.152595 
L 637.2 119.152595 
" clip-path="url(#p18c50e7539)" style="fill: none; stroke-dasharray: 0.5,0.825; stroke-dashoffset: 0; stroke: #b0b0b0; stroke-opacity: 0.6; stroke-width: 0.5"/>
     </g>
     <g id="line2d_20">
      <g>
       <use xlink:href="#m6ac6f5acb5" x="54.12125" y="119.152595" style="stroke: #000000; stroke-width: 0.8"/>
      </g>
     </g>
     <g id="text_11">
      <!-- 0.44 -->
      <g transform="translate(24.855625 122.951813) scale(0.1 -0.1)">
       <use xlink:href="#DejaVuSans-30"/>
       <use xlink:href="#DejaVuSans-2e" transform="translate(63.623047 0)"/>
       <use xlink:href="#DejaVuSans-34" transform="translate(95.410156 0)"/>
       <use xlink:href="#DejaVuSans-34" transform="translate(159.033203 0)"/>
      </g>
     </g>
    </g>
    <g id="ytick_5">
     <g id="line2d_21">
      <path d="M 54.12125 68.739509 
L 637.2 68.739509 
" clip-path="url(#p18c50e7539)" style="fill: none; stroke-dasharray: 0.5,0.825; stroke-dashoffset: 0; stroke: #b0b0b0; stroke-opacity: 0.6; stroke-width: 0.5"/>
     </g>
     <g id="line2d_22">
      <g>
       <use xlink:href="#m6ac6f5acb5" x="54.12125" y="68.739509" style="stroke: #000000; stroke-width: 0.8"/>
      </g>
     </g>
     <g id="text_12">
      <!-- 0.45 -->
      <g transform="translate(24.855625 72.538728) scale(0.1 -0.1)">
       <defs>
        <path id="DejaVuSans-35" d="M 691 4666 
L 3169 4666 
L 3169 4134 
L 1269 4134 
L 1269 2991 
Q 1406 3038 1543 3061 
Q 1681 3084 1819 3084 
Q 2600 3084 3056 2656 
Q 3513 2228 3513 1497 
Q 3513 744 3044 326 
Q 2575 -91 1722 -91 
Q 1428 -91 1123 -41 
Q 819 9 494 109 
L 494 744 
Q 775 591 1075 516 
Q 1375 441 1709 441 
Q 2250 441 2565 725 
Q 2881 1009 2881 1497 
Q 2881 1984 2565 2268 
Q 2250 2553 1709 2553 
Q 1456 2553 1204 2497 
Q 953 2441 691 2322 
L 691 4666 
z
" transform="scale(0.015625)"/>
       </defs>
       <use xlink:href="#DejaVuSans-30"/>
       <use xlink:href="#DejaVuSans-2e" transform="translate(63.623047 0)"/>
       <use xlink:href="#DejaVuSans-34" transform="translate(95.410156 0)"/>
       <use xlink:href="#DejaVuSans-35" transform="translate(159.033203 0)"/>
      </g>
     </g>
    </g>
    <g id="text_13">
     <!-- Running mean of reock_proxy_median -->
     <g transform="translate(18.497813 250.119375) rotate(-90) scale(0.1 -0.1)">
      <defs>
       <path id="DejaVuSans-52" d="M 2841 2188 
Q 3044 2119 3236 1894 
Q 3428 1669 3622 1275 
L 4263 0 
L 3584 0 
L 2988 1197 
Q 2756 1666 2539 1819 
Q 2322 1972 1947 1972 
L 1259 1972 
L 1259 0 
L 628 0 
L 628 4666 
L 2053 4666 
Q 2853 4666 3247 4331 
Q 3641 3997 3641 3322 
Q 3641 2881 3436 2590 
Q 3231 2300 2841 2188 
z
M 1259 4147 
L 1259 2491 
L 2053 2491 
Q 2509 2491 2742 2702 
Q 2975 2913 2975 3322 
Q 2975 3731 2742 3939 
Q 2509 4147 2053 4147 
L 1259 4147 
z
" transform="scale(0.015625)"/>
       <path id="DejaVuSans-75" d="M 544 1381 
L 544 3500 
L 1119 3500 
L 1119 1403 
Q 1119 906 1312 657 
Q 1506 409 1894 409 
Q 2359 409 2629 706 
Q 2900 1003 2900 1516 
L 2900 3500 
L 3475 3500 
L 3475 0 
L 2900 0 
L 2900 538 
Q 2691 219 2414 64 
Q 2138 -91 1772 -91 
Q 1169 -91 856 284 
Q 544 659 544 1381 
z
M 1991 3584 
L 1991 3584 
z
" transform="scale(0.015625)"/>
       <path id="DejaVuSans-67" d="M 2906 1791 
Q 2906 2416 2648 2759 
Q 2391 3103 1925 3103 
Q 1463 3103 1205 2759 
Q 947 2416 947 1791 
Q 947 1169 1205 825 
Q 1463 481 1925 481 
Q 2391 481 2648 825 
Q 2906 1169 2906 1791 
z
M 3481 434 
Q 3481 -459 3084 -895 
Q 2688 -1331 1869 -1331 
Q 1566 -1331 1297 -1286 
Q 1028 -1241 775 -1147 
L 775 -588 
Q 1028 -725 1275 -790 
Q 1522 -856 1778 -856 
Q 2344 -856 2625 -561 
Q 2906 -266 2906 331 
L 2906 616 
Q 2728 306 2450 153 
Q 2172 0 1784 0 
Q 1141 0 747 490 
Q 353 981 353 1791 
Q 353 2603 747 3093 
Q 1141 3584 1784 3584 
Q 2172 3584 2450 3431 
Q 2728 3278 2906 2969 
L 2906 3500 
L 3481 3500 
L 3481 434 
z
" transform="scale(0.015625)"/>
       <path id="DejaVuSans-6f" d="M 1959 3097 
Q 1497 3097 1228 2736 
Q 959 2375 959 1747 
Q 959 1119 1226 758 
Q 1494 397 1959 397 
Q 2419 397 2687 759 
Q 2956 1122 2956 1747 
Q 2956 2369 2687 2733 
Q 2419 3097 1959 3097 
z
M 1959 3584 
Q 2709 3584 3137 3096 
Q 3566 2609 3566 1747 
Q 3566 888 3137 398 
Q 2709 -91 1959 -91 
Q 1206 -91 779 398 
Q 353 888 353 1747 
Q 353 2609 779 3096 
Q 1206 3584 1959 3584 
z
" transform="scale(0.015625)"/>
       <path id="DejaVuSans-66" d="M 2375 4863 
L 2375 4384 
L 1825 4384 
Q 1516 4384 1395 4259 
Q 1275 4134 1275 3809 
L 1275 3500 
L 2222 3500 
L 2222 3053 
L 1275 3053 
L 1275 0 
L 697 0 
L 697 3053 
L 147 3053 
L 147 3500 
L 697 3500 
L 697 3744 
Q 697 4328 969 4595 
Q 1241 4863 1831 4863 
L 2375 4863 
z
" transform="scale(0.015625)"/>
       <path id="DejaVuSans-72" d="M 2631 2963 
Q 2534 3019 2420 3045 
Q 2306 3072 2169 3072 
Q 1681 3072 1420 2755 
Q 1159 2438 1159 1844 
L 1159 0 
L 581 0 
L 581 3500 
L 1159 3500 
L 1159 2956 
Q 1341 3275 1631 3429 
Q 1922 3584 2338 3584 
Q 2397 3584 2469 3576 
Q 2541 3569 2628 3553 
L 2631 2963 
z
" transform="scale(0.015625)"/>
       <path id="DejaVuSans-63" d="M 3122 3366 
L 3122 2828 
Q 2878 2963 2633 3030 
Q 2388 3097 2138 3097 
Q 1578 3097 1268 2742 
Q 959 2388 959 1747 
Q 959 1106 1268 751 
Q 1578 397 2138 397 
Q 2388 397 2633 464 
Q 2878 531 3122 666 
L 3122 134 
Q 2881 22 2623 -34 
Q 2366 -91 2075 -91 
Q 1284 -91 818 406 
Q 353 903 353 1747 
Q 353 2603 823 3093 
Q 1294 3584 2113 3584 
Q 2378 3584 2631 3529 
Q 2884 3475 3122 3366 
z
" transform="scale(0.015625)"/>
       <path id="DejaVuSans-6b" d="M 581 4863 
L 1159 4863 
L 1159 1991 
L 2875 3500 
L 3609 3500 
L 1753 1863 
L 3688 0 
L 2938 0 
L 1159 1709 
L 1159 0 
L 581 0 
L 581 4863 
z
" transform="scale(0.015625)"/>
       <path id="DejaVuSans-5f" d="M 3263 -1063 
L 3263 -1509 
L -63 -1509 
L -63 -1063 
L 3263 -1063 
z
" transform="scale(0.015625)"/>
       <path id="DejaVuSans-79" d="M 2059 -325 
Q 1816 -950 1584 -1140 
Q 1353 -1331 966 -1331 
L 506 -1331 
L 506 -850 
L 844 -850 
Q 1081 -850 1212 -737 
Q 1344 -625 1503 -206 
L 1606 56 
L 191 3500 
L 800 3500 
L 1894 763 
L 2988 3500 
L 3597 3500 
L 2059 -325 
z
" transform="scale(0.015625)"/>
      </defs>
      <use xlink:href="#DejaVuSans-52"/>
      <use xlink:href="#DejaVuSans-75" transform="translate(64.982422 0)"/>
      <use xlink:href="#DejaVuSans-6e" transform="translate(128.361328 0)"/>
      <use xlink:href="#DejaVuSans-6e" transform="translate(191.740234 0)"/>
      <use xlink:href="#DejaVuSans-69" transform="translate(255.119141 0)"/>
      <use xlink:href="#DejaVuSans-6e" transform="translate(282.902344 0)"/>
      <use xlink:href="#DejaVuSans-67" transform="translate(346.28125 0)"/>
      <use xlink:href="#DejaVuSans-20" transform="translate(409.757812 0)"/>
      <use xlink:href="#DejaVuSans-6d" transform="translate(441.544922 0)"/>
      <use xlink:href="#DejaVuSans-65" transform="translate(538.957031 0)"/>
      <use xlink:href="#DejaVuSans-61" transform="translate(600.480469 0)"/>
      <use xlink:href="#DejaVuSans-6e" transform="translate(661.759766 0)"/>
      <use xlink:href="#DejaVuSans-20" transform="translate(725.138672 0)"/>
      <use xlink:href="#DejaVuSans-6f" transform="translate(756.925781 0)"/>
      <use xlink:href="#DejaVuSans-66" transform="translate(818.107422 0)"/>
      <use xlink:href="#DejaVuSans-20" transform="translate(853.3125 0)"/>
      <use xlink:href="#DejaVuSans-72" transform="translate(885.099609 0)"/>
      <use xlink:href="#DejaVuSans-65" transform="translate(923.962891 0)"/>
      <use xlink:href="#DejaVuSans-6f" transform="translate(985.486328 0)"/>
      <use xlink:href="#DejaVuSans-63" transform="translate(1046.667969 0)"/>
      <use xlink:href="#DejaVuSans-6b" transform="translate(1101.648438 0)"/>
      <use xlink:href="#DejaVuSans-5f" transform="translate(1159.558594 0)"/>
      <use xlink:href="#DejaVuSans-70" transform="translate(1209.558594 0)"/>
      <use xlink:href="#DejaVuSans-72" transform="translate(1273.035156 0)"/>
      <use xlink:href="#DejaVuSans-6f" transform="translate(1311.898438 0)"/>
      <use xlink:href="#DejaVuSans-78" transform="translate(1369.955078 0)"/>
      <use xlink:href="#DejaVuSans-79" transform="translate(1429.134766 0)"/>
      <use xlink:href="#DejaVuSans-5f" transform="translate(1488.314453 0)"/>
      <use xlink:href="#DejaVuSans-6d" transform="translate(1538.314453 0)"/>
      <use xlink:href="#DejaVuSans-65" transform="translate(1635.726562 0)"/>
      <use xlink:href="#DejaVuSans-64" transform="translate(1697.25 0)"/>
      <use xlink:href="#DejaVuSans-69" transform="translate(1760.726562 0)"/>
      <use xlink:href="#DejaVuSans-61" transform="translate(1788.509766 0)"/>
      <use xlink:href="#DejaVuSans-6e" transform="translate(1849.789062 0)"/>
     </g>
    </g>
   </g>
   <g id="line2d_23">
    <path d="M 80.62483 249.243884 
L 80.69904 270.441818 
L 80.746747 265.015405 
L 81.207914 223.257084 
L 81.377539 213.41063 
L 81.404043 216.982756 
L 81.441148 221.827566 
L 81.510058 216.417756 
L 81.849307 192.032931 
L 82.708032 156.739717 
L 83.360026 130.644852 
L 83.540252 127.236638 
L 83.587959 127.613055 
L 83.826494 128.623647 
L 83.837096 128.632647 
L 83.858299 128.513624 
L 84.467887 117.037178 
L 84.876046 105.659185 
L 85.575748 95.953327 
L 85.681763 94.399655 
L 85.946802 91.148383 
L 85.994508 90.831204 
L 86.466277 83.558306 
L 86.779022 80.687312 
L 87.499927 66.944948 
L 87.680153 66.705309 
L 87.770266 66.514901 
L 88.114816 64.516793 
L 88.549479 60.917683 
L 88.560081 60.987903 
L 88.644893 61.418915 
L 88.713803 61.296628 
L 88.825119 61.213392 
L 88.856924 61.251166 
L 89.03715 61.625313 
L 89.609633 65.674256 
L 89.758054 66.507416 
L 89.768656 66.469538 
L 89.959484 65.673321 
L 90.044296 65.795188 
L 90.431252 66.222288 
L 90.468357 66.106171 
L 90.993134 63.722109 
L 91.358887 60.495127 
L 91.406594 60.54355 
L 92.196408 58.621339 
L 92.222912 58.640144 
L 92.244115 58.704946 
L 92.540958 59.665729 
L 92.662876 59.93258 
L 92.721184 59.855432 
L 92.906711 59.368873 
L 93.03393 57.472613 
L 93.298968 54.681528 
L 93.786639 52.564838 
L 94.06758 51.280439 
L 94.380325 48.002078 
L 94.608258 46.550388 
L 95.186042 45.179156 
L 95.191343 45.195049 
L 95.307959 45.587115 
L 95.360967 45.40605 
L 95.371569 45.371631 
L 95.435178 45.538855 
L 95.466983 45.58465 
L 95.509389 45.43276 
L 95.541193 45.399658 
L 95.578299 45.508988 
L 95.594201 45.512432 
L 95.822134 46.4915 
L 96.108376 48.333342 
L 96.357512 49.34379 
L 96.940596 50.611287 
L 97.120822 50.888782 
L 97.38056 52.781245 
L 97.804622 55.786368 
L 97.852329 55.794933 
L 97.900035 55.73449 
L 98.080262 55.528644 
L 98.117367 55.629779 
L 98.419511 56.314863 
L 98.599737 56.214218 
L 98.928385 55.803599 
L 99.050302 55.915914 
L 99.151017 56.157855 
L 99.204025 56.082419 
L 99.431958 55.79297 
L 99.453161 55.830286 
L 99.665191 56.530047 
L 99.824215 56.793708 
L 99.845418 56.775834 
L 100.009741 56.344954 
L 100.20587 55.974709 
L 100.380795 55.721939 
L 100.428502 55.782178 
L 100.566322 56.115545 
L 100.608728 56.06004 
L 101.774898 53.62594 
L 101.801401 53.653913 
L 101.923319 53.7034 
L 101.949823 53.668693 
L 102.336779 52.568763 
L 102.373884 52.598909 
L 102.82445 51.522595 
L 102.994074 50.875915 
L 103.057684 51.010461 
L 103.174301 51.064949 
L 103.184902 51.03685 
L 103.688475 49.506865 
L 103.72558 49.541735 
L 104.043627 49.874851 
L 104.054228 49.856277 
L 104.451786 48.867646 
L 104.520696 48.910935 
L 104.950058 49.108531 
L 105.040171 48.934372 
L 105.427127 47.987697 
L 105.469533 48.021833 
L 105.9254 48.127889 
L 106.047317 48.483129 
L 106.20104 48.900303 
L 106.254047 48.843269 
L 107.452021 46.625637 
L 107.611044 46.61695 
L 107.616345 46.627493 
L 107.669353 46.708783 
L 107.743563 46.636996 
L 107.770067 46.652345 
L 107.807173 46.717277 
L 107.971496 46.811286 
L 108.27364 46.781914 
L 108.506874 46.895248 
L 108.543979 46.969392 
L 108.596987 46.842975 
L 108.904432 46.428038 
L 108.983943 46.387038 
L 108.994545 46.364143 
L 109.270185 46.047572 
L 109.291388 46.063367 
L 109.567028 46.292581 
L 109.773758 46.27309 
L 109.99639 45.700591 
L 110.107706 45.878597 
L 110.600678 46.987848 
L 111.019439 48.349444 
L 111.332184 48.663004 
L 111.496508 49.047289 
L 111.528312 48.951215 
L 112.053088 47.626576 
L 112.084893 47.637689 
L 112.190908 47.56517 
L 112.747489 46.795871 
L 112.911813 46.40984 
L 113.09734 46.100782 
L 113.113242 46.131173 
L 113.171551 46.132965 
L 113.208656 46.083037 
L 113.542605 45.694545 
L 113.966666 45.711368 
L 114.205201 45.878143 
L 114.75118 46.580745 
L 115.159339 47.520952 
L 115.381971 47.880068 
L 115.615205 48.11283 
L 116.012763 48.341971 
L 116.420922 49.689075 
L 116.606449 49.957991 
L 116.712464 50.061042 
L 116.776074 49.985616 
L 117.041112 49.631258 
L 117.125924 49.734018 
L 117.809723 50.56519 
L 118.12777 50.426538 
L 118.329199 50.210269 
L 119.044803 49.879187 
L 119.262134 49.303396 
L 119.760406 47.859374 
L 120.067851 47.402846 
L 120.184468 47.228323 
L 120.237476 47.275523 
L 120.316987 47.342586 
L 120.364694 47.269841 
L 120.560823 46.883086 
L 120.767553 46.529038 
L 120.778154 46.535973 
L 120.947779 46.605314 
L 120.968982 46.537791 
L 121.981429 42.95072 
L 122.188159 42.543516 
L 122.506205 42.589503 
L 122.712935 42.378776 
L 123.465644 41.254834 
L 123.619366 41.051677 
L 123.661772 41.10601 
L 123.979819 41.911811 
L 124.727227 43.779309 
L 125.479936 43.541269 
L 125.967607 43.939902 
L 126.370465 44.543882 
L 126.715015 45.369933 
L 126.932347 45.655258 
L 126.937648 45.652649 
L 127.393514 45.346598 
L 128.093215 45.281886 
L 128.289344 45.070207 
L 128.485472 44.840607 
L 128.570284 44.93918 
L 128.771714 45.002268 
L 129.042053 45.12201 
L 129.349497 45.301681 
L 129.768258 45.417566 
L 129.911379 45.374831 
L 130.001492 45.4524 
L 130.388448 46.09262 
L 130.584577 46.196337 
L 130.764803 46.312591 
L 130.987435 46.486025 
L 131.178263 46.283346 
L 131.453903 46.190069 
L 131.92037 46.08842 
L 132.19071 46.083046 
L 132.386838 46.193046 
L 132.890411 46.1846 
L 133.128946 45.630578 
L 133.521203 44.792739 
L 133.606015 44.869528 
L 134.120189 45.915605 
L 134.385228 46.37388 
L 134.862297 46.979203 
L 135.323464 47.096653 
L 135.885346 46.453818 
L 135.890646 46.457771 
L 136.187489 46.543302 
L 136.335911 46.441617 
L 137.427869 45.066791 
L 137.730013 44.57821 
L 139.452763 41.127597 
L 139.892727 40.075037 
L 140.290284 39.441844 
L 140.295585 39.44591 
L 141.435251 40.184493 
L 141.700289 39.916661 
L 142.076644 39.581254 
L 142.124351 39.630974 
L 142.733939 40.425902 
L 143.062587 40.789887 
L 143.370031 40.945206 
L 143.809995 41.429121 
L 144.12274 41.231493 
L 144.350673 41.00778 
L 144.615712 40.905408 
L 145.103383 39.981915 
L 145.400226 39.515804 
L 145.956806 38.480564 
L 146.068123 38.56463 
L 146.651207 39.160136 
L 146.656508 39.155217 
L 146.969253 39.011971 
L 147.276698 39.281487 
L 148.46407 40.235721 
L 149.582532 40.965435 
L 150.017195 41.580896 
L 150.292835 41.882534 
L 150.828213 42.555924 
L 151.729344 43.498471 
L 152.073894 43.534649 
L 152.344233 43.445356 
L 152.800099 43.152723 
L 152.900814 43.240947 
L 153.536906 43.795023 
L 153.722433 43.919666 
L 154.072284 43.925735 
L 154.438037 43.634804 
L 154.581157 43.597243 
L 154.80379 43.520436 
L 156.091877 42.696815 
L 156.971804 41.830607 
L 157.21564 41.623833 
L 157.756318 41.49417 
L 158.005454 41.606433 
L 159.028503 41.981424 
L 159.182225 42.043878 
L 160.136363 42.143302 
L 160.45971 42.143918 
L 161.000389 42.535913 
L 161.450954 43.037737 
L 161.90682 43.753045 
L 162.32028 44.281971 
L 162.754943 44.502694 
L 162.982876 44.328472 
L 163.369832 44.022886 
L 163.868105 43.802607 
L 164.122542 43.9898 
L 164.350475 44.192009 
L 164.520099 44.344028 
L 164.838145 44.565484 
L 165.373523 45.028846 
L 165.426531 44.967445 
L 165.892998 44.790349 
L 166.094428 44.791983 
L 166.693414 44.753572 
L 166.921348 44.847828 
L 167.027363 44.906755 
L 167.398417 45.203241 
L 167.642252 45.119274 
L 167.76417 45.165691 
L 168.124622 45.35964 
L 168.214735 45.270837 
L 168.569887 44.873197 
L 168.617594 44.916867 
L 169.253686 45.441729 
L 169.3491 45.319694 
L 169.778462 44.787029 
L 170.509968 44.400146 
L 170.881022 44.073686 
L 170.987037 44.211011 
L 171.172564 44.284369 
L 171.527716 44.187527 
L 172.04189 43.8368 
L 172.259222 43.758826 
L 172.471253 43.713953 
L 173.181556 44.158271 
L 173.510203 43.739109 
L 173.907761 43.234671 
L 174.856599 42.175482 
L 175.042125 42.093945 
L 175.503292 42.017517 
L 175.869045 41.813937 
L 176.293107 41.830329 
L 176.404423 41.681243 
L 176.664161 41.415289 
L 177.035215 41.248311 
L 178.662551 40.616332 
L 178.948792 40.459416 
L 179.171424 40.297546 
L 179.515974 40.098307 
L 179.908231 39.769181 
L 180.083157 39.37021 
L 180.554925 38.61977 
L 181.00019 38.630895 
L 181.408349 38.575019 
L 181.630981 38.551296 
L 181.805907 38.513156 
L 182.055043 38.595771 
L 182.802451 39.132937 
L 184.143546 39.623252 
L 184.625916 39.843143 
L 184.822044 39.926262 
L 185.574753 40.29067 
L 185.914003 40.325334 
L 185.998815 40.304564 
L 186.014717 40.274747 
L 186.216146 40.12563 
L 186.391072 40.081743 
L 186.937051 39.803815 
L 187.445925 39.515229 
L 187.673858 39.439887 
L 188.03431 39.183885 
L 188.315251 38.902724 
L 188.627996 38.706857 
L 189.285292 38.894596 
L 189.719955 39.488577 
L 189.916083 39.612104 
L 190.313641 39.484078 
L 191.230674 39.149116 
L 191.437404 39.068886 
L 191.585825 39.081948 
L 192.285527 39.485352 
L 192.603573 39.691739 
L 193.414591 40.415217 
L 194.055984 41.077598 
L 194.51715 41.216909 
L 194.739783 41.140858 
L 195.13734 41.197857 
L 195.391777 41.235768 
L 196.049073 41.646091 
L 196.547345 41.85118 
L 197.151633 41.977063 
L 198.036861 42.603952 
L 198.492727 42.504916 
L 198.65175 42.402327 
L 198.810773 42.419819 
L 200.835667 43.236376 
L 201.397549 43.63318 
L 201.917024 43.988322 
L 203.459548 45.118703 
L 203.772293 45.015679 
L 204.482596 44.835112 
L 205.208801 44.936967 
L 205.733578 44.822687 
L 205.982714 44.861473 
L 206.30076 44.921234 
L 206.518091 44.836148 
L 206.915649 44.684467 
L 207.355613 44.473764 
L 208.537684 43.511854 
L 208.696707 43.483806 
L 209.014753 43.552159 
L 209.40171 43.673947 
L 209.661447 43.596329 
L 210.186223 43.592699 
L 210.695097 43.615704 
L 211.135061 42.971035 
L 211.442506 42.610428 
L 212.168711 42.370083 
L 212.523863 42.503677 
L 213.838453 42.926776 
L 214.267815 42.96089 
L 214.675975 43.002511 
L 215.232555 43.31716 
L 215.566504 43.586863 
L 216.218498 43.856132 
L 216.589552 43.918083 
L 216.790981 43.961916 
L 216.971208 43.970041 
L 217.432375 43.961733 
L 217.692112 44.018766 
L 219.287644 43.528692 
L 219.828322 43.555812 
L 220.464414 43.584034 
L 220.909679 43.538136 
L 221.593478 43.335209 
L 222.01754 43.476017 
L 222.791452 43.684644 
L 223.703184 44.111047 
L 223.904613 44.165929 
L 224.683826 44.345878 
L 225.129091 44.098111 
L 225.574356 44.158949 
L 226.040823 44.157615 
L 226.968458 44.231943 
L 227.159285 44.284321 
L 227.620452 44.323611 
L 228.007409 44.195141 
L 229.030457 43.565527 
L 229.539331 43.415045 
L 230.000498 43.212978 
L 232.687987 43.78034 
L 234.749987 45.779405 
L 235.142243 45.708183 
L 235.566305 45.52488 
L 235.926757 45.623865 
L 236.478037 45.626128 
L 237.05052 45.704367 
L 238.08417 45.898152 
L 238.465826 45.994371 
L 239.080715 46.327195 
L 239.404062 46.381689 
L 239.950041 46.312916 
L 241.794708 45.681222 
L 242.579222 45.783667 
L 243.003284 45.715498 
L 246.28446 45.935357 
L 247.005364 46.197873 
L 247.720968 46.27153 
L 248.314654 46.523167 
L 248.616798 46.752718 
L 248.876536 46.921632 
L 249.189281 47.004827 
L 249.740561 46.746113 
L 250.302443 46.332859 
L 250.583383 46.192681 
L 251.277784 46.283522 
L 251.839666 46.411002 
L 252.380344 46.293331 
L 252.857413 45.796649 
L 253.228467 45.444297 
L 253.917567 45.162165 
L 254.331027 44.853367 
L 254.532456 44.847667 
L 254.760389 44.772771 
L 255.513098 44.647037 
L 255.794039 44.646241 
L 256.021972 44.706865 
L 256.308214 44.73388 
L 256.779982 44.983702 
L 257.697015 45.256905 
L 258.317205 45.210734 
L 258.571642 45.169837 
L 258.852583 45.188136 
L 259.255441 44.950864 
L 259.73251 44.504088 
L 260.983492 44.084676 
L 261.354546 44.20236 
L 261.7256 44.267218 
L 261.995939 44.166806 
L 262.536617 44.039525 
L 262.891769 44.074555 
L 263.167409 44.115084 
L 264.773542 43.881109 
L 265.467942 43.752495 
L 266.978662 43.178749 
L 267.180091 43.136516 
L 268.372764 42.988761 
L 270.397658 41.846301 
L 270.747508 41.57317 
L 270.948938 41.601974 
L 271.319991 41.666901 
L 271.892474 41.630864 
L 272.533867 41.563005 
L 273.4456 41.554013 
L 274.145301 41.399645 
L 275.92636 41.445063 
L 276.917603 41.153969 
L 277.633207 41.294756 
L 278.004261 41.406971 
L 279.345355 41.332639 
L 280.161674 41.667544 
L 282.128259 42.566959 
L 282.54702 42.616325 
L 282.896871 42.537077 
L 283.453451 42.474061 
L 284.116047 42.333276 
L 285.064885 41.973038 
L 285.897106 41.792665 
L 286.40598 41.660496 
L 286.983763 41.353741 
L 287.423727 41.163941 
L 289.125274 40.533526 
L 290.6837 41.431438 
L 291.314492 41.655704 
L 291.765057 41.63058 
L 294.871308 42.059034 
L 295.470295 42.187451 
L 295.830747 42.281988 
L 297.415677 42.537567 
L 297.823836 42.445979 
L 298.391018 42.193919 
L 299.180833 41.975175 
L 300.214483 41.756953 
L 300.68095 41.770248 
L 301.004297 41.774919 
L 302.016744 41.893915 
L 302.615731 41.988035 
L 303.119304 41.818154 
L 303.755396 41.564874 
L 304.518707 41.519388 
L 305.478146 41.507681 
L 305.949915 41.364678 
L 307.476536 41.273101 
L 307.895297 41.207357 
L 308.934248 41.380069 
L 310.365455 41.782908 
L 310.694103 41.728034 
L 311.202977 41.674841 
L 312.130611 41.868725 
L 312.851516 42.1733 
L 313.471706 42.11508 
L 313.895767 42.181101 
L 316.180399 43.156073 
L 316.821792 43.306946 
L 317.516192 43.538462 
L 319.196536 43.701737 
L 319.641801 43.727344 
L 320.919286 43.54229 
L 321.899928 43.517018 
L 322.414103 43.880402 
L 322.827563 44.08932 
L 323.362941 44.284396 
L 324.852457 44.835162 
L 326.087536 45.452712 
L 326.38968 45.413339 
L 329.681457 45.567433 
L 330.46067 45.733017 
L 331.006649 45.804049 
L 331.960788 45.981203 
L 332.278834 45.899146 
L 333.672936 45.571902 
L 334.446848 45.707256 
L 334.828504 45.651573 
L 335.459295 45.57701 
L 336.222606 45.7391 
L 337.505392 46.058011 
L 338.87299 45.67374 
L 339.259947 45.725681 
L 341.07811 45.353727 
L 341.655894 45.283333 
L 342.562326 45.326138 
L 344.878762 45.569826 
L 345.827599 45.623001 
L 346.341774 45.869281 
L 346.760535 45.949701 
L 347.253506 46.107294 
L 348.165238 46.204209 
L 348.859639 45.997199 
L 350.31205 45.909054 
L 350.762615 46.009423 
L 352.056003 46.171277 
L 352.490666 46.183464 
L 355.013832 46.639545 
L 355.453796 46.752308 
L 355.994474 46.785106 
L 358.146586 47.064143 
L 359.185537 47.461134 
L 359.609598 47.478677 
L 360.235089 47.330377 
L 361.295243 47.330754 
L 361.671598 47.301417 
L 362.259983 47.277528 
L 362.864271 47.195385 
L 363.89792 46.906918 
L 364.730141 46.289271 
L 365.811498 46.209504 
L 366.564207 46.48841 
L 366.972366 46.585708 
L 371.038056 47.054031 
L 371.541629 47.155395 
L 372.0293 47.233859 
L 372.872122 47.26454 
L 374.255623 46.736334 
L 375.077242 46.543235 
L 375.766342 46.571317 
L 376.248712 46.59815 
L 376.778789 46.563256 
L 377.722326 46.339273 
L 378.003267 46.274733 
L 378.9256 46.220474 
L 379.217143 46.123918 
L 379.837333 45.903383 
L 380.462823 46.085871 
L 380.918689 46.19582 
L 381.422262 46.27806 
L 384.411896 46.069037 
L 384.745845 46.063176 
L 386.675324 45.964673 
L 387.1948 45.970023 
L 387.81499 45.983398 
L 388.588902 46.053745 
L 389.490033 45.80933 
L 389.935297 45.810502 
L 391.578536 45.974117 
L 392.045003 46.069896 
L 393.094556 46.2976 
L 393.788956 46.393933 
L 394.515162 46.313073 
L 395.241367 46.317986 
L 397.483592 46.366392 
L 398.936003 45.828508 
L 400.15518 45.792653 
L 400.626948 45.784122 
L 402.111164 45.76216 
L 403.203122 45.413304 
L 404.591923 44.874851 
L 405.498355 44.78922 
L 406.070838 44.781672 
L 406.622118 44.724611 
L 407.846596 44.750721 
L 408.525094 44.719002 
L 409.505736 44.988165 
L 410.279648 45.010515 
L 411.710856 45.266698 
L 412.914131 45.525219 
L 415.818952 45.323514 
L 416.121096 45.271918 
L 416.884407 45.168459 
L 417.695424 45.295804 
L 418.183095 45.426736 
L 418.925203 45.577233 
L 419.932349 45.707962 
L 421.411263 45.941193 
L 423.192322 45.824327 
L 423.865519 45.685461 
L 424.28428 45.664616 
L 424.734845 45.608984 
L 425.567066 45.662028 
L 426.685528 45.679235 
L 428.959558 45.559199 
L 430.162833 45.751735 
L 430.867835 45.650244 
L 431.445619 45.587145 
L 433.603032 45.397793 
L 437.525601 45.021016 
L 440.20779 44.27424 
L 447.58646 42.951495 
L 447.925709 42.9207 
L 450.538988 43.108397 
L 450.846433 43.015642 
L 451.471924 42.872022 
L 451.890684 42.9182 
L 452.924334 42.914634 
L 453.353697 42.936748 
L 454.000391 42.961702 
L 456.088893 42.689776 
L 456.952919 42.326828 
L 458.331119 42.063541 
L 459.656311 42.117504 
L 460.992105 42.611744 
L 461.394963 42.729268 
L 463.229029 42.596214 
L 465.550766 42.646031 
L 468.646415 43.163353 
L 471.985899 42.998374 
L 472.828722 42.880049 
L 475.351888 42.800238 
L 476.009183 42.761274 
L 478.60656 43.043937 
L 481.08732 43.133253 
L 481.924841 43.317015 
L 484.172367 43.070823 
L 484.638835 43.026045 
L 485.317333 43.042339 
L 486.117749 43.117617 
L 486.806849 43.125527 
L 487.421739 43.160534 
L 488.518998 43.052249 
L 489.451933 42.883473 
L 489.891897 42.850624 
L 491.079269 42.950394 
L 491.768369 43.007425 
L 492.982245 43.168004 
L 495.060147 43.01194 
L 495.49481 43.006491 
L 496.284624 43.065979 
L 497.180454 43.167537 
L 497.906659 43.360575 
L 499.385574 43.33995 
L 500.790278 43.215824 
L 501.892838 42.903862 
L 505.608677 42.793571 
L 506.87556 42.961835 
L 508.190151 42.827354 
L 508.863349 42.769542 
L 509.28211 42.638963 
L 509.849292 42.540904 
L 511.868885 42.160947 
L 512.610992 42.231361 
L 514.832015 42.120075 
L 517.14315 42.36502 
L 518.945411 42.178482 
L 519.714023 42.275001 
L 520.233498 42.383198 
L 522.470423 42.478981 
L 522.910386 42.514446 
L 524.161368 42.646471 
L 528.295968 43.385226 
L 528.942661 43.435177 
L 530.485185 43.729656 
L 531.105375 43.945034 
L 532.372259 44.291143 
L 534.487266 44.394372 
L 535.748849 44.490087 
L 536.824905 44.388481 
L 538.796791 44.105781 
L 540.933001 44.549488 
L 542.756465 45.115811 
L 545.491662 45.375105 
L 545.952829 45.258847 
L 548.454792 45.553604 
L 550.559197 45.004338 
L 551.174086 44.916929 
L 551.61405 44.914859 
L 552.387962 44.98565 
L 555.642634 44.994459 
L 556.363539 44.879482 
L 557.153354 44.79362 
L 559.968062 44.683697 
L 561.696113 44.728154 
L 562.745665 44.647815 
L 566.233571 44.936326 
L 567.060491 44.833578 
L 567.977524 44.856597 
L 570.055425 44.878646 
L 570.850541 44.882538 
L 572.15983 44.912374 
L 572.620997 44.910579 
L 573.490323 44.946113 
L 575.573526 44.928298 
L 576.893417 45.012379 
L 577.730939 45.129573 
L 580.047375 44.988965 
L 580.56685 45.019822 
L 582.761368 45.256041 
L 583.275543 45.183888 
L 584.643141 44.946137 
L 588.08334 44.737172 
L 589.636466 44.882777 
L 591.438727 45.063241 
L 592.514783 45.033409 
L 595.785357 44.758293 
L 596.474457 44.727633 
L 597.672431 44.598364 
L 598.960518 44.543775 
L 600.497741 44.396658 
L 602.814177 44.50318 
L 603.450269 44.463112 
L 604.255986 44.319769 
L 605.888623 44.351671 
L 606.572422 44.398406 
L 607.235018 44.455188 
L 608.305774 44.704886 
L 610.69642 44.729633 
L 610.69642 44.729633 
" clip-path="url(#p18c50e7539)" style="fill: none; stroke: #1f2937; stroke-linecap: square"/>
   </g>
   <g id="line2d_24">
    <path d="M 54.12125 44.729633 
L 637.2 44.729633 
" clip-path="url(#p18c50e7539)" style="fill: none; stroke-dasharray: 2.96,1.28; stroke-dashoffset: 0; stroke: #888888; stroke-width: 0.8"/>
   </g>
   <g id="patch_3">
    <path d="M 54.12125 282.04 
L 54.12125 26.88 
" style="fill: none; stroke: #000000; stroke-width: 0.8; stroke-linejoin: miter; stroke-linecap: square"/>
   </g>
   <g id="patch_4">
    <path d="M 637.2 282.04 
L 637.2 26.88 
" style="fill: none; stroke: #000000; stroke-width: 0.8; stroke-linejoin: miter; stroke-linecap: square"/>
   </g>
   <g id="patch_5">
    <path d="M 54.12125 282.04 
L 637.2 282.04 
" style="fill: none; stroke: #000000; stroke-width: 0.8; stroke-linejoin: miter; stroke-linecap: square"/>
   </g>
   <g id="patch_6">
    <path d="M 54.12125 26.88 
L 637.2 26.88 
" style="fill: none; stroke: #000000; stroke-width: 0.8; stroke-linejoin: miter; stroke-linecap: square"/>
   </g>
   <g id="text_14">
    <!-- Running mean — reock_proxy_median  (100k ReCom samples, seed 42) -->
    <g transform="translate(129.505937 20.88) scale(0.12 -0.12)">
     <defs>
      <path id="DejaVuSans-2014" d="M 313 1978 
L 6088 1978 
L 6088 1528 
L 313 1528 
L 313 1978 
z
" transform="scale(0.015625)"/>
      <path id="DejaVuSans-28" d="M 1984 4856 
Q 1566 4138 1362 3434 
Q 1159 2731 1159 2009 
Q 1159 1288 1364 580 
Q 1569 -128 1984 -844 
L 1484 -844 
Q 1016 -109 783 600 
Q 550 1309 550 2009 
Q 550 2706 781 3412 
Q 1013 4119 1484 4856 
L 1984 4856 
z
" transform="scale(0.015625)"/>
      <path id="DejaVuSans-43" d="M 4122 4306 
L 4122 3641 
Q 3803 3938 3442 4084 
Q 3081 4231 2675 4231 
Q 1875 4231 1450 3742 
Q 1025 3253 1025 2328 
Q 1025 1406 1450 917 
Q 1875 428 2675 428 
Q 3081 428 3442 575 
Q 3803 722 4122 1019 
L 4122 359 
Q 3791 134 3420 21 
Q 3050 -91 2638 -91 
Q 1578 -91 968 557 
Q 359 1206 359 2328 
Q 359 3453 968 4101 
Q 1578 4750 2638 4750 
Q 3056 4750 3426 4639 
Q 3797 4528 4122 4306 
z
" transform="scale(0.015625)"/>
      <path id="DejaVuSans-73" d="M 2834 3397 
L 2834 2853 
Q 2591 2978 2328 3040 
Q 2066 3103 1784 3103 
Q 1356 3103 1142 2972 
Q 928 2841 928 2578 
Q 928 2378 1081 2264 
Q 1234 2150 1697 2047 
L 1894 2003 
Q 2506 1872 2764 1633 
Q 3022 1394 3022 966 
Q 3022 478 2636 193 
Q 2250 -91 1575 -91 
Q 1294 -91 989 -36 
Q 684 19 347 128 
L 347 722 
Q 666 556 975 473 
Q 1284 391 1588 391 
Q 1994 391 2212 530 
Q 2431 669 2431 922 
Q 2431 1156 2273 1281 
Q 2116 1406 1581 1522 
L 1381 1569 
Q 847 1681 609 1914 
Q 372 2147 372 2553 
Q 372 3047 722 3315 
Q 1072 3584 1716 3584 
Q 2034 3584 2315 3537 
Q 2597 3491 2834 3397 
z
" transform="scale(0.015625)"/>
      <path id="DejaVuSans-2c" d="M 750 794 
L 1409 794 
L 1409 256 
L 897 -744 
L 494 -744 
L 750 256 
L 750 794 
z
" transform="scale(0.015625)"/>
      <path id="DejaVuSans-29" d="M 513 4856 
L 1013 4856 
Q 1481 4119 1714 3412 
Q 1947 2706 1947 2009 
Q 1947 1309 1714 600 
Q 1481 -109 1013 -844 
L 513 -844 
Q 928 -128 1133 580 
Q 1338 1288 1338 2009 
Q 1338 2731 1133 3434 
Q 928 4138 513 4856 
z
" transform="scale(0.015625)"/>
     </defs>
     <use xlink:href="#DejaVuSans-52"/>
     <use xlink:href="#DejaVuSans-75" transform="translate(64.982422 0)"/>
     <use xlink:href="#DejaVuSans-6e" transform="translate(128.361328 0)"/>
     <use xlink:href="#DejaVuSans-6e" transform="translate(191.740234 0)"/>
     <use xlink:href="#DejaVuSans-69" transform="translate(255.119141 0)"/>
     <use xlink:href="#DejaVuSans-6e" transform="translate(282.902344 0)"/>
     <use xlink:href="#DejaVuSans-67" transform="translate(346.28125 0)"/>
     <use xlink:href="#DejaVuSans-20" transform="translate(409.757812 0)"/>
     <use xlink:href="#DejaVuSans-6d" transform="translate(441.544922 0)"/>
     <use xlink:href="#DejaVuSans-65" transform="translate(538.957031 0)"/>
     <use xlink:href="#DejaVuSans-61" transform="translate(600.480469 0)"/>
     <use xlink:href="#DejaVuSans-6e" transform="translate(661.759766 0)"/>
     <use xlink:href="#DejaVuSans-20" transform="translate(725.138672 0)"/>
     <use xlink:href="#DejaVuSans-2014" transform="translate(756.925781 0)"/>
     <use xlink:href="#DejaVuSans-20" transform="translate(856.925781 0)"/>
     <use xlink:href="#DejaVuSans-72" transform="translate(888.712891 0)"/>
     <use xlink:href="#DejaVuSans-65" transform="translate(927.576172 0)"/>
     <use xlink:href="#DejaVuSans-6f" transform="translate(989.099609 0)"/>
     <use xlink:href="#DejaVuSans-63" transform="translate(1050.28125 0)"/>
     <use xlink:href="#DejaVuSans-6b" transform="translate(1105.261719 0)"/>
     <use xlink:href="#DejaVuSans-5f" transform="translate(1163.171875 0)"/>
     <use xlink:href="#DejaVuSans-70" transform="translate(1213.171875 0)"/>
     <use xlink:href="#DejaVuSans-72" transform="translate(1276.648438 0)"/>
     <use xlink:href="#DejaVuSans-6f" transform="translate(1315.511719 0)"/>
     <use xlink:href="#DejaVuSans-78" transform="translate(1373.568359 0)"/>
     <use xlink:href="#DejaVuSans-79" transform="translate(1432.748047 0)"/>
     <use xlink:href="#DejaVuSans-5f" transform="translate(1491.927734 0)"/>
     <use xlink:href="#DejaVuSans-6d" transform="translate(1541.927734 0)"/>
     <use xlink:href="#DejaVuSans-65" transform="translate(1639.339844 0)"/>
     <use xlink:href="#DejaVuSans-64" transform="translate(1700.863281 0)"/>
     <use xlink:href="#DejaVuSans-69" transform="translate(1764.339844 0)"/>
     <use xlink:href="#DejaVuSans-61" transform="translate(1792.123047 0)"/>
     <use xlink:href="#DejaVuSans-6e" transform="translate(1853.402344 0)"/>
     <use xlink:href="#DejaVuSans-20" transform="translate(1916.78125 0)"/>
     <use xlink:href="#DejaVuSans-20" transform="translate(1948.568359 0)"/>
     <use xlink:href="#DejaVuSans-28" transform="translate(1980.355469 0)"/>
     <use xlink:href="#DejaVuSans-31" transform="translate(2019.369141 0)"/>
     <use xlink:href="#DejaVuSans-30" transform="translate(2082.992188 0)"/>
     <use xlink:href="#DejaVuSans-30" transform="translate(2146.615234 0)"/>
     <use xlink:href="#DejaVuSans-6b" transform="translate(2210.238281 0)"/>
     <use xlink:href="#DejaVuSans-20" transform="translate(2268.148438 0)"/>
     <use xlink:href="#DejaVuSans-52" transform="translate(2299.935547 0)"/>
     <use xlink:href="#DejaVuSans-65" transform="translate(2364.917969 0)"/>
     <use xlink:href="#DejaVuSans-43" transform="translate(2426.441406 0)"/>
     <use xlink:href="#DejaVuSans-6f" transform="translate(2496.265625 0)"/>
     <use xlink:href="#DejaVuSans-6d" transform="translate(2557.447266 0)"/>
     <use xlink:href="#DejaVuSans-20" transform="translate(2654.859375 0)"/>
     <use xlink:href="#DejaVuSans-73" transform="translate(2686.646484 0)"/>
     <use xlink:href="#DejaVuSans-61" transform="translate(2738.746094 0)"/>
     <use xlink:href="#DejaVuSans-6d" transform="translate(2800.025391 0)"/>
     <use xlink:href="#DejaVuSans-70" transform="translate(2897.4375 0)"/>
     <use xlink:href="#DejaVuSans-6c" transform="translate(2960.914062 0)"/>
     <use xlink:href="#DejaVuSans-65" transform="translate(2988.697266 0)"/>
     <use xlink:href="#DejaVuSans-73" transform="translate(3050.220703 0)"/>
     <use xlink:href="#DejaVuSans-2c" transform="translate(3102.320312 0)"/>
     <use xlink:href="#DejaVuSans-20" transform="translate(3134.107422 0)"/>
     <use xlink:href="#DejaVuSans-73" transform="translate(3165.894531 0)"/>
     <use xlink:href="#DejaVuSans-65" transform="translate(3217.994141 0)"/>
     <use xlink:href="#DejaVuSans-65" transform="translate(3279.517578 0)"/>
     <use xlink:href="#DejaVuSans-64" transform="translate(3341.041016 0)"/>
     <use xlink:href="#DejaVuSans-20" transform="translate(3404.517578 0)"/>
     <use xlink:href="#DejaVuSans-34" transform="translate(3436.304688 0)"/>
     <use xlink:href="#DejaVuSans-32" transform="translate(3499.927734 0)"/>
     <use xlink:href="#DejaVuSans-29" transform="translate(3563.550781 0)"/>
    </g>
   </g>
   <g id="legend_1">
    <g id="patch_7">
     <path d="M 496.306406 277.54 
L 630.9 277.54 
Q 632.7 277.54 632.7 275.74 
L 632.7 263.429688 
Q 632.7 261.629687 630.9 261.629687 
L 496.306406 261.629687 
Q 494.506406 261.629687 494.506406 263.429688 
L 494.506406 275.74 
Q 494.506406 277.54 496.306406 277.54 
z
" style="fill: #ffffff; opacity: 0.8; stroke: #cccccc; stroke-linejoin: miter"/>
    </g>
    <g id="line2d_25">
     <path d="M 498.106406 268.918281 
L 507.106406 268.918281 
L 516.106406 268.918281 
" style="fill: none; stroke-dasharray: 2.96,1.28; stroke-dashoffset: 0; stroke: #888888; stroke-width: 0.8"/>
    </g>
    <g id="text_15">
     <!-- final mean = +0.45476 -->
     <g transform="translate(523.306406 272.068281) scale(0.09 -0.09)">
      <defs>
       <path id="DejaVuSans-3d" d="M 678 2906 
L 4684 2906 
L 4684 2381 
L 678 2381 
L 678 2906 
z
M 678 1631 
L 4684 1631 
L 4684 1100 
L 678 1100 
L 678 1631 
z
" transform="scale(0.015625)"/>
       <path id="DejaVuSans-2b" d="M 2944 4013 
L 2944 2272 
L 4684 2272 
L 4684 1741 
L 2944 1741 
L 2944 0 
L 2419 0 
L 2419 1741 
L 678 1741 
L 678 2272 
L 2419 2272 
L 2419 4013 
L 2944 4013 
z
" transform="scale(0.015625)"/>
       <path id="DejaVuSans-37" d="M 525 4666 
L 3525 4666 
L 3525 4397 
L 1831 0 
L 1172 0 
L 2766 4134 
L 525 4134 
L 525 4666 
z
" transform="scale(0.015625)"/>
      </defs>
      <use xlink:href="#DejaVuSans-66"/>
      <use xlink:href="#DejaVuSans-69" transform="translate(35.205078 0)"/>
      <use xlink:href="#DejaVuSans-6e" transform="translate(62.988281 0)"/>
      <use xlink:href="#DejaVuSans-61" transform="translate(126.367188 0)"/>
      <use xlink:href="#DejaVuSans-6c" transform="translate(187.646484 0)"/>
      <use xlink:href="#DejaVuSans-20" transform="translate(215.429688 0)"/>
      <use xlink:href="#DejaVuSans-6d" transform="translate(247.216797 0)"/>
      <use xlink:href="#DejaVuSans-65" transform="translate(344.628906 0)"/>
      <use xlink:href="#DejaVuSans-61" transform="translate(406.152344 0)"/>
      <use xlink:href="#DejaVuSans-6e" transform="translate(467.431641 0)"/>
      <use xlink:href="#DejaVuSans-20" transform="translate(530.810547 0)"/>
      <use xlink:href="#DejaVuSans-3d" transform="translate(562.597656 0)"/>
      <use xlink:href="#DejaVuSans-20" transform="translate(646.386719 0)"/>
      <use xlink:href="#DejaVuSans-2b" transform="translate(678.173828 0)"/>
      <use xlink:href="#DejaVuSans-30" transform="translate(761.962891 0)"/>
      <use xlink:href="#DejaVuSans-2e" transform="translate(825.585938 0)"/>
      <use xlink:href="#DejaVuSans-34" transform="translate(857.373047 0)"/>
      <use xlink:href="#DejaVuSans-35" transform="translate(920.996094 0)"/>
      <use xlink:href="#DejaVuSans-34" transform="translate(984.619141 0)"/>
      <use xlink:href="#DejaVuSans-37" transform="translate(1048.242188 0)"/>
      <use xlink:href="#DejaVuSans-36" transform="translate(1111.865234 0)"/>
     </g>
    </g>
   </g>
  </g>
 </g>
 <defs>
  <clipPath id="p18c50e7539">
   <rect x="54.12125" y="26.88" width="583.07875" height="255.16"/>
  </clipPath>
 </defs>
</svg>
