<?xml version="1.0" encoding="utf-8" standalone="no"?>
<!DOCTYPE svg PUBLIC "-//W3C//DTD SVG 1.1//EN"
  "http://www.w3.org/Graphics/SVG/1.1/DTD/svg11.dtd">
<svg xmlns:xlink="http://www.w3.org/1999/xlink" width="648pt" height="324pt" viewBox="0 0 648 324" xmlns="http://www.w3.org/2000/svg" version="1.1">
 <metadata>
  <rdf:RDF xmlns:dc="http://purl.org/dc/elements/1.1/" xmlns:cc="http://creativecommons.org/ns#" xmlns:rdf="http://www.w3.org/1999/02/22-rdf-syntax-ns#">
   <cc:Work>
    <dc:type rdf:resource="http://purl.org/dc/dcmitype/StillImage"/>
    <dc:date>2026-05-08T00:08:23.840864</dc:date>
    <dc:format>image/svg+xml</dc:format>
    <dc:creator>
     <cc:Agent>
      <dc:title>Matplotlib v3.10.8, https://matplotlib.org/</dc:title>
     </cc:Agent>
    </dc:creator>
   </cc:Work>
  </rdf:RDF>
 </metadata>
 <defs>
  <style type="text/css">*{stroke-linejoin: round; stroke-linecap: butt}</style>
 </defs>
 <g id="figure_1">
  <g id="patch_1">
   <path d="M 0 324 
L 648 324 
L 648 0 
L 0 0 
z
" style="fill: #ffffff"/>
  </g>
  <g id="axes_1">
   <g id="patch_2">
    <path d="M 62.39 282.04 
L 637.2 282.04 
L 637.2 26.88 
L 62.39 26.88 
z
" style="fill: #ffffff"/>
   </g>
   <g id="matplotlib.axis_1">
    <g id="xtick_1">
     <g id="line2d_1">
      <path d="M 88.515637 282.04 
L 88.515637 26.88 
" clip-path="url(#p7cfe51e8d2)" style="fill: none; stroke-dasharray: 0.5,0.825; stroke-dashoffset: 0; stroke: #b0b0b0; stroke-opacity: 0.6; stroke-width: 0.5"/>
     </g>
     <g id="line2d_2">
      <defs>
       <path id="m435e3d0e62" d="M 0 0 
L 0 3.5 
" style="stroke: #000000; stroke-width: 0.8"/>
      </defs>
      <g>
       <use xlink:href="#m435e3d0e62" x="88.515637" y="282.04" style="stroke: #000000; stroke-width: 0.8"/>
      </g>
     </g>
     <g id="text_1">
      <!-- 0 -->
      <g transform="translate(85.334387 296.638438) scale(0.1 -0.1)">
       <defs>
        <path id="DejaVuSans-30" d="M 2034 4250 
Q 1547 4250 1301 3770 
Q 1056 3291 1056 2328 
Q 1056 1369 1301 889 
Q 1547 409 2034 409 
Q 2525 409 2770 889 
Q 3016 1369 3016 2328 
Q 3016 3291 2770 3770 
Q 2525 4250 2034 4250 
z
M 2034 4750 
Q 2819 4750 3233 4129 
Q 3647 3509 3647 2328 
Q 3647 1150 3233 529 
Q 2819 -91 2034 -91 
Q 1250 -91 836 529 
Q 422 1150 422 2328 
Q 422 3509 836 4129 
Q 1250 4750 2034 4750 
z
" transform="scale(0.015625)"/>
       </defs>
       <use xlink:href="#DejaVuSans-30"/>
      </g>
     </g>
    </g>
    <g id="xtick_2">
     <g id="line2d_3">
      <path d="M 193.026964 282.04 
L 193.026964 26.88 
" clip-path="url(#p7cfe51e8d2)" style="fill: none; stroke-dasharray: 0.5,0.825; stroke-dashoffset: 0; stroke: #b0b0b0; stroke-opacity: 0.6; stroke-width: 0.5"/>
     </g>
     <g id="line2d_4">
      <g>
       <use xlink:href="#m435e3d0e62" x="193.026964" y="282.04" style="stroke: #000000; stroke-width: 0.8"/>
      </g>
     </g>
     <g id="text_2">
      <!-- 50000 -->
      <g transform="translate(177.120714 296.638438) scale(0.1 -0.1)">
       <defs>
        <path id="DejaVuSans-35" d="M 691 4666 
L 3169 4666 
L 3169 4134 
L 1269 4134 
L 1269 2991 
Q 1406 3038 1543 3061 
Q 1681 3084 1819 3084 
Q 2600 3084 3056 2656 
Q 3513 2228 3513 1497 
Q 3513 744 3044 326 
Q 2575 -91 1722 -91 
Q 1428 -91 1123 -41 
Q 819 9 494 109 
L 494 744 
Q 775 591 1075 516 
Q 1375 441 1709 441 
Q 2250 441 2565 725 
Q 2881 1009 2881 1497 
Q 2881 1984 2565 2268 
Q 2250 2553 1709 2553 
Q 1456 2553 1204 2497 
Q 953 2441 691 2322 
L 691 4666 
z
" transform="scale(0.015625)"/>
       </defs>
       <use xlink:href="#DejaVuSans-35"/>
       <use xlink:href="#DejaVuSans-30" transform="translate(63.623047 0)"/>
       <use xlink:href="#DejaVuSans-30" transform="translate(127.246094 0)"/>
       <use xlink:href="#DejaVuSans-30" transform="translate(190.869141 0)"/>
       <use xlink:href="#DejaVuSans-30" transform="translate(254.492188 0)"/>
      </g>
     </g>
    </g>
    <g id="xtick_3">
     <g id="line2d_5">
      <path d="M 297.538291 282.04 
L 297.538291 26.88 
" clip-path="url(#p7cfe51e8d2)" style="fill: none; stroke-dasharray: 0.5,0.825; stroke-dashoffset: 0; stroke: #b0b0b0; stroke-opacity: 0.6; stroke-width: 0.5"/>
     </g>
     <g id="line2d_6">
      <g>
       <use xlink:href="#m435e3d0e62" x="297.538291" y="282.04" style="stroke: #000000; stroke-width: 0.8"/>
      </g>
     </g>
     <g id="text_3">
      <!-- 100000 -->
      <g transform="translate(278.450791 296.638438) scale(0.1 -0.1)">
       <defs>
        <path id="DejaVuSans-31" d="M 794 531 
L 1825 531 
L 1825 4091 
L 703 3866 
L 703 4441 
L 1819 4666 
L 2450 4666 
L 2450 531 
L 3481 531 
L 3481 0 
L 794 0 
L 794 531 
z
" transform="scale(0.015625)"/>
       </defs>
       <use xlink:href="#DejaVuSans-31"/>
       <use xlink:href="#DejaVuSans-30" transform="translate(63.623047 0)"/>
       <use xlink:href="#DejaVuSans-30" transform="translate(127.246094 0)"/>
       <use xlink:href="#DejaVuSans-30" transform="translate(190.869141 0)"/>
       <use xlink:href="#DejaVuSans-30" transform="translate(254.492188 0)"/>
       <use xlink:href="#DejaVuSans-30" transform="translate(318.115234 0)"/>
      </g>
     </g>
    </g>
    <g id="xtick_4">
     <g id="line2d_7">
      <path d="M 402.049618 282.04 
L 402.049618 26.88 
" clip-path="url(#p7cfe51e8d2)" style="fill: none; stroke-dasharray: 0.5,0.825; stroke-dashoffset: 0; stroke: #b0b0b0; stroke-opacity: 0.6; stroke-width: 0.5"/>
     </g>
     <g id="line2d_8">
      <g>
       <use xlink:href="#m435e3d0e62" x="402.049618" y="282.04" style="stroke: #000000; stroke-width: 0.8"/>
      </g>
     </g>
     <g id="text_4">
      <!-- 150000 -->
      <g transform="translate(382.962118 296.638438) scale(0.1 -0.1)">
       <use xlink:href="#DejaVuSans-31"/>
       <use xlink:href="#DejaVuSans-35" transform="translate(63.623047 0)"/>
       <use xlink:href="#DejaVuSans-30" transform="translate(127.246094 0)"/>
       <use xlink:href="#DejaVuSans-30" transform="translate(190.869141 0)"/>
       <use xlink:href="#DejaVuSans-30" transform="translate(254.492188 0)"/>
       <use xlink:href="#DejaVuSans-30" transform="translate(318.115234 0)"/>
      </g>
     </g>
    </g>
    <g id="xtick_5">
     <g id="line2d_9">
      <path d="M 506.560946 282.04 
L 506.560946 26.88 
" clip-path="url(#p7cfe51e8d2)" style="fill: none; stroke-dasharray: 0.5,0.825; stroke-dashoffset: 0; stroke: #b0b0b0; stroke-opacity: 0.6; stroke-width: 0.5"/>
     </g>
     <g id="line2d_10">
      <g>
       <use xlink:href="#m435e3d0e62" x="506.560946" y="282.04" style="stroke: #000000; stroke-width: 0.8"/>
      </g>
     </g>
     <g id="text_5">
      <!-- 200000 -->
      <g transform="translate(487.473446 296.638438) scale(0.1 -0.1)">
       <defs>
        <path id="DejaVuSans-32" d="M 1228 531 
L 3431 531 
L 3431 0 
L 469 0 
L 469 531 
Q 828 903 1448 1529 
Q 2069 2156 2228 2338 
Q 2531 2678 2651 2914 
Q 2772 3150 2772 3378 
Q 2772 3750 2511 3984 
Q 2250 4219 1831 4219 
Q 1534 4219 1204 4116 
Q 875 4013 500 3803 
L 500 4441 
Q 881 4594 1212 4672 
Q 1544 4750 1819 4750 
Q 2544 4750 2975 4387 
Q 3406 4025 3406 3419 
Q 3406 3131 3298 2873 
Q 3191 2616 2906 2266 
Q 2828 2175 2409 1742 
Q 1991 1309 1228 531 
z
" transform="scale(0.015625)"/>
       </defs>
       <use xlink:href="#DejaVuSans-32"/>
       <use xlink:href="#DejaVuSans-30" transform="translate(63.623047 0)"/>
       <use xlink:href="#DejaVuSans-30" transform="translate(127.246094 0)"/>
       <use xlink:href="#DejaVuSans-30" transform="translate(190.869141 0)"/>
       <use xlink:href="#DejaVuSans-30" transform="translate(254.492188 0)"/>
       <use xlink:href="#DejaVuSans-30" transform="translate(318.115234 0)"/>
      </g>
     </g>
    </g>
    <g id="xtick_6">
     <g id="line2d_11">
      <path d="M 611.072273 282.04 
L 611.072273 26.88 
" clip-path="url(#p7cfe51e8d2)" style="fill: none; stroke-dasharray: 0.5,0.825; stroke-dashoffset: 0; stroke: #b0b0b0; stroke-opacity: 0.6; stroke-width: 0.5"/>
     </g>
     <g id="line2d_12">
      <g>
       <use xlink:href="#m435e3d0e62" x="611.072273" y="282.04" style="stroke: #000000; stroke-width: 0.8"/>
      </g>
     </g>
     <g id="text_6">
      <!-- 250000 -->
      <g transform="translate(591.984773 296.638438) scale(0.1 -0.1)">
       <use xlink:href="#DejaVuSans-32"/>
       <use xlink:href="#DejaVuSans-35" transform="translate(63.623047 0)"/>
       <use xlink:href="#DejaVuSans-30" transform="translate(127.246094 0)"/>
       <use xlink:href="#DejaVuSans-30" transform="translate(190.869141 0)"/>
       <use xlink:href="#DejaVuSans-30" transform="translate(254.492188 0)"/>
       <use xlink:href="#DejaVuSans-30" transform="translate(318.115234 0)"/>
      </g>
     </g>
    </g>
    <g id="text_7">
     <!-- Sample index -->
     <g transform="translate(315.777031 310.316563) scale(0.1 -0.1)">
      <defs>
       <path id="DejaVuSans-53" d="M 3425 4513 
L 3425 3897 
Q 3066 4069 2747 4153 
Q 2428 4238 2131 4238 
Q 1616 4238 1336 4038 
Q 1056 3838 1056 3469 
Q 1056 3159 1242 3001 
Q 1428 2844 1947 2747 
L 2328 2669 
Q 3034 2534 3370 2195 
Q 3706 1856 3706 1288 
Q 3706 609 3251 259 
Q 2797 -91 1919 -91 
Q 1588 -91 1214 -16 
Q 841 59 441 206 
L 441 856 
Q 825 641 1194 531 
Q 1563 422 1919 422 
Q 2459 422 2753 634 
Q 3047 847 3047 1241 
Q 3047 1584 2836 1778 
Q 2625 1972 2144 2069 
L 1759 2144 
Q 1053 2284 737 2584 
Q 422 2884 422 3419 
Q 422 4038 858 4394 
Q 1294 4750 2059 4750 
Q 2388 4750 2728 4690 
Q 3069 4631 3425 4513 
z
" transform="scale(0.015625)"/>
       <path id="DejaVuSans-61" d="M 2194 1759 
Q 1497 1759 1228 1600 
Q 959 1441 959 1056 
Q 959 750 1161 570 
Q 1363 391 1709 391 
Q 2188 391 2477 730 
Q 2766 1069 2766 1631 
L 2766 1759 
L 2194 1759 
z
M 3341 1997 
L 3341 0 
L 2766 0 
L 2766 531 
Q 2569 213 2275 61 
Q 1981 -91 1556 -91 
Q 1019 -91 701 211 
Q 384 513 384 1019 
Q 384 1609 779 1909 
Q 1175 2209 1959 2209 
L 2766 2209 
L 2766 2266 
Q 2766 2663 2505 2880 
Q 2244 3097 1772 3097 
Q 1472 3097 1187 3025 
Q 903 2953 641 2809 
L 641 3341 
Q 956 3463 1253 3523 
Q 1550 3584 1831 3584 
Q 2591 3584 2966 3190 
Q 3341 2797 3341 1997 
z
" transform="scale(0.015625)"/>
       <path id="DejaVuSans-6d" d="M 3328 2828 
Q 3544 3216 3844 3400 
Q 4144 3584 4550 3584 
Q 5097 3584 5394 3201 
Q 5691 2819 5691 2113 
L 5691 0 
L 5113 0 
L 5113 2094 
Q 5113 2597 4934 2840 
Q 4756 3084 4391 3084 
Q 3944 3084 3684 2787 
Q 3425 2491 3425 1978 
L 3425 0 
L 2847 0 
L 2847 2094 
Q 2847 2600 2669 2842 
Q 2491 3084 2119 3084 
Q 1678 3084 1418 2786 
Q 1159 2488 1159 1978 
L 1159 0 
L 581 0 
L 581 3500 
L 1159 3500 
L 1159 2956 
Q 1356 3278 1631 3431 
Q 1906 3584 2284 3584 
Q 2666 3584 2933 3390 
Q 3200 3197 3328 2828 
z
" transform="scale(0.015625)"/>
       <path id="DejaVuSans-70" d="M 1159 525 
L 1159 -1331 
L 581 -1331 
L 581 3500 
L 1159 3500 
L 1159 2969 
Q 1341 3281 1617 3432 
Q 1894 3584 2278 3584 
Q 2916 3584 3314 3078 
Q 3713 2572 3713 1747 
Q 3713 922 3314 415 
Q 2916 -91 2278 -91 
Q 1894 -91 1617 61 
Q 1341 213 1159 525 
z
M 3116 1747 
Q 3116 2381 2855 2742 
Q 2594 3103 2138 3103 
Q 1681 3103 1420 2742 
Q 1159 2381 1159 1747 
Q 1159 1113 1420 752 
Q 1681 391 2138 391 
Q 2594 391 2855 752 
Q 3116 1113 3116 1747 
z
" transform="scale(0.015625)"/>
       <path id="DejaVuSans-6c" d="M 603 4863 
L 1178 4863 
L 1178 0 
L 603 0 
L 603 4863 
z
" transform="scale(0.015625)"/>
       <path id="DejaVuSans-65" d="M 3597 1894 
L 3597 1613 
L 953 1613 
Q 991 1019 1311 708 
Q 1631 397 2203 397 
Q 2534 397 2845 478 
Q 3156 559 3463 722 
L 3463 178 
Q 3153 47 2828 -22 
Q 2503 -91 2169 -91 
Q 1331 -91 842 396 
Q 353 884 353 1716 
Q 353 2575 817 3079 
Q 1281 3584 2069 3584 
Q 2775 3584 3186 3129 
Q 3597 2675 3597 1894 
z
M 3022 2063 
Q 3016 2534 2758 2815 
Q 2500 3097 2075 3097 
Q 1594 3097 1305 2825 
Q 1016 2553 972 2059 
L 3022 2063 
z
" transform="scale(0.015625)"/>
       <path id="DejaVuSans-20" transform="scale(0.015625)"/>
       <path id="DejaVuSans-69" d="M 603 3500 
L 1178 3500 
L 1178 0 
L 603 0 
L 603 3500 
z
M 603 4863 
L 1178 4863 
L 1178 4134 
L 603 4134 
L 603 4863 
z
" transform="scale(0.015625)"/>
       <path id="DejaVuSans-6e" d="M 3513 2113 
L 3513 0 
L 2938 0 
L 2938 2094 
Q 2938 2591 2744 2837 
Q 2550 3084 2163 3084 
Q 1697 3084 1428 2787 
Q 1159 2491 1159 1978 
L 1159 0 
L 581 0 
L 581 3500 
L 1159 3500 
L 1159 2956 
Q 1366 3272 1645 3428 
Q 1925 3584 2291 3584 
Q 2894 3584 3203 3211 
Q 3513 2838 3513 2113 
z
" transform="scale(0.015625)"/>
       <path id="DejaVuSans-64" d="M 2906 2969 
L 2906 4863 
L 3481 4863 
L 3481 0 
L 2906 0 
L 2906 525 
Q 2725 213 2448 61 
Q 2172 -91 1784 -91 
Q 1150 -91 751 415 
Q 353 922 353 1747 
Q 353 2572 751 3078 
Q 1150 3584 1784 3584 
Q 2172 3584 2448 3432 
Q 2725 3281 2906 2969 
z
M 947 1747 
Q 947 1113 1208 752 
Q 1469 391 1925 391 
Q 2381 391 2643 752 
Q 2906 1113 2906 1747 
Q 2906 2381 2643 2742 
Q 2381 3103 1925 3103 
Q 1469 3103 1208 2742 
Q 947 2381 947 1747 
z
" transform="scale(0.015625)"/>
       <path id="DejaVuSans-78" d="M 3513 3500 
L 2247 1797 
L 3578 0 
L 2900 0 
L 1881 1375 
L 863 0 
L 184 0 
L 1544 1831 
L 300 3500 
L 978 3500 
L 1906 2253 
L 2834 3500 
L 3513 3500 
z
" transform="scale(0.015625)"/>
      </defs>
      <use xlink:href="#DejaVuSans-53"/>
      <use xlink:href="#DejaVuSans-61" transform="translate(63.476562 0)"/>
      <use xlink:href="#DejaVuSans-6d" transform="translate(124.755859 0)"/>
      <use xlink:href="#DejaVuSans-70" transform="translate(222.167969 0)"/>
      <use xlink:href="#DejaVuSans-6c" transform="translate(285.644531 0)"/>
      <use xlink:href="#DejaVuSans-65" transform="translate(313.427734 0)"/>
      <use xlink:href="#DejaVuSans-20" transform="translate(374.951172 0)"/>
      <use xlink:href="#DejaVuSans-69" transform="translate(406.738281 0)"/>
      <use xlink:href="#DejaVuSans-6e" transform="translate(434.521484 0)"/>
      <use xlink:href="#DejaVuSans-64" transform="translate(497.900391 0)"/>
      <use xlink:href="#DejaVuSans-65" transform="translate(561.376953 0)"/>
      <use xlink:href="#DejaVuSans-78" transform="translate(621.150391 0)"/>
     </g>
    </g>
   </g>
   <g id="matplotlib.axis_2">
    <g id="ytick_1">
     <g id="line2d_13">
      <path d="M 62.39 246.662956 
L 637.2 246.662956 
" clip-path="url(#p7cfe51e8d2)" style="fill: none; stroke-dasharray: 0.5,0.825; stroke-dashoffset: 0; stroke: #b0b0b0; stroke-opacity: 0.6; stroke-width: 0.5"/>
     </g>
     <g id="line2d_14">
      <defs>
       <path id="m4b8df3c399" d="M 0 0 
L -3.5 0 
" style="stroke: #000000; stroke-width: 0.8"/>
      </defs>
      <g>
       <use xlink:href="#m4b8df3c399" x="62.39" y="246.662956" style="stroke: #000000; stroke-width: 0.8"/>
      </g>
     </g>
     <g id="text_8">
      <!-- −0.02 -->
      <g transform="translate(24.744688 250.462175) scale(0.1 -0.1)">
       <defs>
        <path id="DejaVuSans-2212" d="M 678 2272 
L 4684 2272 
L 4684 1741 
L 678 1741 
L 678 2272 
z
" transform="scale(0.015625)"/>
        <path id="DejaVuSans-2e" d="M 684 794 
L 1344 794 
L 1344 0 
L 684 0 
L 684 794 
z
" transform="scale(0.015625)"/>
       </defs>
       <use xlink:href="#DejaVuSans-2212"/>
       <use xlink:href="#DejaVuSans-30" transform="translate(83.789062 0)"/>
       <use xlink:href="#DejaVuSans-2e" transform="translate(147.412109 0)"/>
       <use xlink:href="#DejaVuSans-30" transform="translate(179.199219 0)"/>
       <use xlink:href="#DejaVuSans-32" transform="translate(242.822266 0)"/>
      </g>
     </g>
    </g>
    <g id="ytick_2">
     <g id="line2d_15">
      <path d="M 62.39 197.359854 
L 637.2 197.359854 
" clip-path="url(#p7cfe51e8d2)" style="fill: none; stroke-dasharray: 0.5,0.825; stroke-dashoffset: 0; stroke: #b0b0b0; stroke-opacity: 0.6; stroke-width: 0.5"/>
     </g>
     <g id="line2d_16">
      <g>
       <use xlink:href="#m4b8df3c399" x="62.39" y="197.359854" style="stroke: #000000; stroke-width: 0.8"/>
      </g>
     </g>
     <g id="text_9">
      <!-- −0.01 -->
      <g transform="translate(24.744688 201.159072) scale(0.1 -0.1)">
       <use xlink:href="#DejaVuSans-2212"/>
       <use xlink:href="#DejaVuSans-30" transform="translate(83.789062 0)"/>
       <use xlink:href="#DejaVuSans-2e" transform="translate(147.412109 0)"/>
       <use xlink:href="#DejaVuSans-30" transform="translate(179.199219 0)"/>
       <use xlink:href="#DejaVuSans-31" transform="translate(242.822266 0)"/>
      </g>
     </g>
    </g>
    <g id="ytick_3">
     <g id="line2d_17">
      <path d="M 62.39 148.056751 
L 637.2 148.056751 
" clip-path="url(#p7cfe51e8d2)" style="fill: none; stroke-dasharray: 0.5,0.825; stroke-dashoffset: 0; stroke: #b0b0b0; stroke-opacity: 0.6; stroke-width: 0.5"/>
     </g>
     <g id="line2d_18">
      <g>
       <use xlink:href="#m4b8df3c399" x="62.39" y="148.056751" style="stroke: #000000; stroke-width: 0.8"/>
      </g>
     </g>
     <g id="text_10">
      <!-- 0.00 -->
      <g transform="translate(33.124375 151.85597) scale(0.1 -0.1)">
       <use xlink:href="#DejaVuSans-30"/>
       <use xlink:href="#DejaVuSans-2e" transform="translate(63.623047 0)"/>
       <use xlink:href="#DejaVuSans-30" transform="translate(95.410156 0)"/>
       <use xlink:href="#DejaVuSans-30" transform="translate(159.033203 0)"/>
      </g>
     </g>
    </g>
    <g id="ytick_4">
     <g id="line2d_19">
      <path d="M 62.39 98.753649 
L 637.2 98.753649 
" clip-path="url(#p7cfe51e8d2)" style="fill: none; stroke-dasharray: 0.5,0.825; stroke-dashoffset: 0; stroke: #b0b0b0; stroke-opacity: 0.6; stroke-width: 0.5"/>
     </g>
     <g id="line2d_20">
      <g>
       <use xlink:href="#m4b8df3c399" x="62.39" y="98.753649" style="stroke: #000000; stroke-width: 0.8"/>
      </g>
     </g>
     <g id="text_11">
      <!-- 0.01 -->
      <g transform="translate(33.124375 102.552867) scale(0.1 -0.1)">
       <use xlink:href="#DejaVuSans-30"/>
       <use xlink:href="#DejaVuSans-2e" transform="translate(63.623047 0)"/>
       <use xlink:href="#DejaVuSans-30" transform="translate(95.410156 0)"/>
       <use xlink:href="#DejaVuSans-31" transform="translate(159.033203 0)"/>
      </g>
     </g>
    </g>
    <g id="ytick_5">
     <g id="line2d_21">
      <path d="M 62.39 49.450546 
L 637.2 49.450546 
" clip-path="url(#p7cfe51e8d2)" style="fill: none; stroke-dasharray: 0.5,0.825; stroke-dashoffset: 0; stroke: #b0b0b0; stroke-opacity: 0.6; stroke-width: 0.5"/>
     </g>
     <g id="line2d_22">
      <g>
       <use xlink:href="#m4b8df3c399" x="62.39" y="49.450546" style="stroke: #000000; stroke-width: 0.8"/>
      </g>
     </g>
     <g id="text_12">
      <!-- 0.02 -->
      <g transform="translate(33.124375 53.249765) scale(0.1 -0.1)">
       <use xlink:href="#DejaVuSans-30"/>
       <use xlink:href="#DejaVuSans-2e" transform="translate(63.623047 0)"/>
       <use xlink:href="#DejaVuSans-30" transform="translate(95.410156 0)"/>
       <use xlink:href="#DejaVuSans-32" transform="translate(159.033203 0)"/>
      </g>
     </g>
    </g>
    <g id="text_13">
     <!-- Running mean of declination -->
     <g transform="translate(18.665 226.302188) rotate(-90) scale(0.1 -0.1)">
      <defs>
       <path id="DejaVuSans-52" d="M 2841 2188 
Q 3044 2119 3236 1894 
Q 3428 1669 3622 1275 
L 4263 0 
L 3584 0 
L 2988 1197 
Q 2756 1666 2539 1819 
Q 2322 1972 1947 1972 
L 1259 1972 
L 1259 0 
L 628 0 
L 628 4666 
L 2053 4666 
Q 2853 4666 3247 4331 
Q 3641 3997 3641 3322 
Q 3641 2881 3436 2590 
Q 3231 2300 2841 2188 
z
M 1259 4147 
L 1259 2491 
L 2053 2491 
Q 2509 2491 2742 2702 
Q 2975 2913 2975 3322 
Q 2975 3731 2742 3939 
Q 2509 4147 2053 4147 
L 1259 4147 
z
" transform="scale(0.015625)"/>
       <path id="DejaVuSans-75" d="M 544 1381 
L 544 3500 
L 1119 3500 
L 1119 1403 
Q 1119 906 1312 657 
Q 1506 409 1894 409 
Q 2359 409 2629 706 
Q 2900 1003 2900 1516 
L 2900 3500 
L 3475 3500 
L 3475 0 
L 2900 0 
L 2900 538 
Q 2691 219 2414 64 
Q 2138 -91 1772 -91 
Q 1169 -91 856 284 
Q 544 659 544 1381 
z
M 1991 3584 
L 1991 3584 
z
" transform="scale(0.015625)"/>
       <path id="DejaVuSans-67" d="M 2906 1791 
Q 2906 2416 2648 2759 
Q 2391 3103 1925 3103 
Q 1463 3103 1205 2759 
Q 947 2416 947 1791 
Q 947 1169 1205 825 
Q 1463 481 1925 481 
Q 2391 481 2648 825 
Q 2906 1169 2906 1791 
z
M 3481 434 
Q 3481 -459 3084 -895 
Q 2688 -1331 1869 -1331 
Q 1566 -1331 1297 -1286 
Q 1028 -1241 775 -1147 
L 775 -588 
Q 1028 -725 1275 -790 
Q 1522 -856 1778 -856 
Q 2344 -856 2625 -561 
Q 2906 -266 2906 331 
L 2906 616 
Q 2728 306 2450 153 
Q 2172 0 1784 0 
Q 1141 0 747 490 
Q 353 981 353 1791 
Q 353 2603 747 3093 
Q 1141 3584 1784 3584 
Q 2172 3584 2450 3431 
Q 2728 3278 2906 2969 
L 2906 3500 
L 3481 3500 
L 3481 434 
z
" transform="scale(0.015625)"/>
       <path id="DejaVuSans-6f" d="M 1959 3097 
Q 1497 3097 1228 2736 
Q 959 2375 959 1747 
Q 959 1119 1226 758 
Q 1494 397 1959 397 
Q 2419 397 2687 759 
Q 2956 1122 2956 1747 
Q 2956 2369 2687 2733 
Q 2419 3097 1959 3097 
z
M 1959 3584 
Q 2709 3584 3137 3096 
Q 3566 2609 3566 1747 
Q 3566 888 3137 398 
Q 2709 -91 1959 -91 
Q 1206 -91 779 398 
Q 353 888 353 1747 
Q 353 2609 779 3096 
Q 1206 3584 1959 3584 
z
" transform="scale(0.015625)"/>
       <path id="DejaVuSans-66" d="M 2375 4863 
L 2375 4384 
L 1825 4384 
Q 1516 4384 1395 4259 
Q 1275 4134 1275 3809 
L 1275 3500 
L 2222 3500 
L 2222 3053 
L 1275 3053 
L 1275 0 
L 697 0 
L 697 3053 
L 147 3053 
L 147 3500 
L 697 3500 
L 697 3744 
Q 697 4328 969 4595 
Q 1241 4863 1831 4863 
L 2375 4863 
z
" transform="scale(0.015625)"/>
       <path id="DejaVuSans-63" d="M 3122 3366 
L 3122 2828 
Q 2878 2963 2633 3030 
Q 2388 3097 2138 3097 
Q 1578 3097 1268 2742 
Q 959 2388 959 1747 
Q 959 1106 1268 751 
Q 1578 397 2138 397 
Q 2388 397 2633 464 
Q 2878 531 3122 666 
L 3122 134 
Q 2881 22 2623 -34 
Q 2366 -91 2075 -91 
Q 1284 -91 818 406 
Q 353 903 353 1747 
Q 353 2603 823 3093 
Q 1294 3584 2113 3584 
Q 2378 3584 2631 3529 
Q 2884 3475 3122 3366 
z
" transform="scale(0.015625)"/>
       <path id="DejaVuSans-74" d="M 1172 4494 
L 1172 3500 
L 2356 3500 
L 2356 3053 
L 1172 3053 
L 1172 1153 
Q 1172 725 1289 603 
Q 1406 481 1766 481 
L 2356 481 
L 2356 0 
L 1766 0 
Q 1100 0 847 248 
Q 594 497 594 1153 
L 594 3053 
L 172 3053 
L 172 3500 
L 594 3500 
L 594 4494 
L 1172 4494 
z
" transform="scale(0.015625)"/>
      </defs>
      <use xlink:href="#DejaVuSans-52"/>
      <use xlink:href="#DejaVuSans-75" transform="translate(64.982422 0)"/>
      <use xlink:href="#DejaVuSans-6e" transform="translate(128.361328 0)"/>
      <use xlink:href="#DejaVuSans-6e" transform="translate(191.740234 0)"/>
      <use xlink:href="#DejaVuSans-69" transform="translate(255.119141 0)"/>
      <use xlink:href="#DejaVuSans-6e" transform="translate(282.902344 0)"/>
      <use xlink:href="#DejaVuSans-67" transform="translate(346.28125 0)"/>
      <use xlink:href="#DejaVuSans-20" transform="translate(409.757812 0)"/>
      <use xlink:href="#DejaVuSans-6d" transform="translate(441.544922 0)"/>
      <use xlink:href="#DejaVuSans-65" transform="translate(538.957031 0)"/>
      <use xlink:href="#DejaVuSans-61" transform="translate(600.480469 0)"/>
      <use xlink:href="#DejaVuSans-6e" transform="translate(661.759766 0)"/>
      <use xlink:href="#DejaVuSans-20" transform="translate(725.138672 0)"/>
      <use xlink:href="#DejaVuSans-6f" transform="translate(756.925781 0)"/>
      <use xlink:href="#DejaVuSans-66" transform="translate(818.107422 0)"/>
      <use xlink:href="#DejaVuSans-20" transform="translate(853.3125 0)"/>
      <use xlink:href="#DejaVuSans-64" transform="translate(885.099609 0)"/>
      <use xlink:href="#DejaVuSans-65" transform="translate(948.576172 0)"/>
      <use xlink:href="#DejaVuSans-63" transform="translate(1010.099609 0)"/>
      <use xlink:href="#DejaVuSans-6c" transform="translate(1065.080078 0)"/>
      <use xlink:href="#DejaVuSans-69" transform="translate(1092.863281 0)"/>
      <use xlink:href="#DejaVuSans-6e" transform="translate(1120.646484 0)"/>
      <use xlink:href="#DejaVuSans-61" transform="translate(1184.025391 0)"/>
      <use xlink:href="#DejaVuSans-74" transform="translate(1245.304688 0)"/>
      <use xlink:href="#DejaVuSans-69" transform="translate(1284.513672 0)"/>
      <use xlink:href="#DejaVuSans-6f" transform="translate(1312.296875 0)"/>
      <use xlink:href="#DejaVuSans-6e" transform="translate(1373.478516 0)"/>
     </g>
    </g>
   </g>
   <g id="line2d_23">
    <path d="M 88.517727 269.294064 
L 88.528178 270.441818 
L 88.559532 266.305454 
L 88.766464 258.645633 
L 88.785276 258.384239 
L 88.808269 259.033766 
L 88.839622 259.725959 
L 88.900239 258.489708 
L 89.397713 143.941934 
L 89.433246 143.511055 
L 89.55866 140.761247 
L 89.711247 123.372506 
L 89.761412 128.138817 
L 89.796946 131.245926 
L 89.849202 126.244022 
L 90.077036 108.476554 
L 90.11048 110.250123 
L 90.313232 117.84089 
L 90.325773 117.942615 
L 90.338315 117.227802 
L 90.689473 99.534601 
L 90.733367 100.829156 
L 90.900586 108.60712 
L 91.063623 112.208746 
L 91.201578 115.207947 
L 91.362526 120.270507 
L 91.387608 119.494569 
L 91.533924 110.813207 
L 91.753398 99.086959 
L 91.86209 91.822677 
L 92.183985 70.900747 
L 92.315669 61.481788 
L 92.453624 62.203166 
L 92.543504 60.906369 
L 92.608301 61.585729 
L 92.622932 61.764662 
L 92.671007 61.044383 
L 92.739985 58.527333 
L 92.808962 56.116166 
L 92.87585 56.670294 
L 93.028436 53.361577 
L 93.484106 40.613062 
L 93.559354 39.237096 
L 93.605339 38.478182 
L 93.674316 39.073005 
L 93.726572 38.760065 
L 93.966948 42.365466 
L 94.650452 62.270718 
L 94.688076 61.410119 
L 94.734061 60.411536 
L 94.794678 61.508566 
L 95.028783 65.332148 
L 95.530437 82.120534 
L 96.130332 98.192582 
L 96.38952 105.367723 
L 96.788754 111.020157 
L 96.815927 111.262881 
L 96.932979 112.730184 
L 96.978964 112.095431 
L 97.050032 112.017659 
L 97.073025 112.303426 
L 97.1211 112.896483 
L 97.181716 112.286844 
L 97.246513 111.456947 
L 97.288318 112.321668 
L 97.666649 119.748187 
L 97.77325 119.894717 
L 97.787882 119.749757 
L 98.005266 118.188864 
L 98.026168 118.358379 
L 98.281175 120.298851 
L 98.308348 120.585284 
L 98.366875 120.020855 
L 98.381506 119.975152 
L 98.410769 120.220028 
L 98.667867 123.153646 
L 99.562484 129.553299 
L 99.593838 129.512739 
L 99.625191 129.224611 
L 99.905281 127.211629 
L 99.961718 126.835304 
L 100.781086 119.119584 
L 100.787357 119.097551 
L 100.831252 119.34012 
L 100.837523 119.374099 
L 100.873056 118.992222 
L 101.222124 114.056543 
L 101.330816 114.144478 
L 101.351718 114.175555 
L 101.37053 114.023834 
L 101.619267 112.625768 
L 101.64435 112.678062 
L 102.074937 113.286145 
L 102.137643 113.433543 
L 102.271418 113.660483 
L 102.591223 113.918549 
L 103.147223 118.816778 
L 103.870441 125.389198 
L 103.899704 125.079945 
L 104.188156 121.721628 
L 104.211148 121.972334 
L 104.372096 123.030775 
L 104.405539 122.974441 
L 104.68981 122.788893 
L 104.788051 122.886274 
L 105.193555 125.188653 
L 105.226998 125.147421 
L 105.329419 125.065135 
L 105.344051 125.171853 
L 105.415119 125.644077 
L 105.502908 125.536802 
L 105.532171 125.452157 
L 105.571886 125.869083 
L 105.787179 127.318851 
L 105.808081 127.30274 
L 106.088172 127.013016 
L 106.090262 127.009304 
L 106.123705 127.169191 
L 106.26166 127.786848 
L 106.328548 127.603453 
L 106.491585 127.151946 
L 106.5313 127.342244 
L 106.777946 128.587465 
L 106.859465 128.439576 
L 106.976518 128.107423 
L 107.168819 127.485062 
L 107.371571 126.827168 
L 107.728999 124.766289 
L 107.745721 124.841595 
L 108.172127 127.28803 
L 108.253646 127.755043 
L 108.320534 127.644767 
L 108.402052 127.350361 
L 108.441767 127.553703 
L 108.481481 127.703649 
L 108.542098 127.492101 
L 108.596443 127.287939 
L 108.663331 127.46473 
L 108.782474 127.842101 
L 108.84518 127.656088 
L 108.855632 127.622508 
L 108.920429 127.789868 
L 109.12109 128.42541 
L 109.196338 128.275591 
L 109.294579 127.810654 
L 109.915376 120.716411 
L 109.965542 120.867294 
L 110.492279 122.293284 
L 110.005256 120.821496 
L 110.519452 122.157635 
L 110.548715 121.992572 
L 110.626053 122.19289 
L 110.736835 122.781609 
L 110.822535 123.161919 
L 110.86852 122.95477 
L 110.897783 123.029944 
L 110.973031 122.749946 
L 111.171603 121.739526 
L 111.221768 121.981641 
L 111.340911 123.154389 
L 111.761046 126.429385 
L 111.765227 126.445029 
L 111.815392 126.232844 
L 111.97843 125.025959 
L 112.016054 125.175881 
L 112.264791 126.308014 
L 112.43619 127.31025 
L 112.641032 129.241716 
L 112.682836 129.179364 
L 112.858415 128.908831 
L 112.90022 129.054697 
L 112.908581 129.079258 
L 112.975468 128.931213 
L 113.328716 127.854247 
L 113.378882 128.025475 
L 113.429047 127.966602 
L 113.750942 129.75508 
L 114.070747 132.048739 
L 114.145995 131.927506 
L 114.47416 131.357229 
L 114.520145 131.447278 
L 114.568221 131.764238 
L 114.83995 134.001615 
L 114.862943 133.927221 
L 115.090777 132.989437 
L 115.107499 133.022639 
L 115.232913 133.485151 
L 115.314432 133.899576 
L 115.385499 133.780104 
L 115.39595 133.766574 
L 115.427304 133.904176 
L 115.464928 134.017723 
L 115.533905 133.865178 
L 115.650958 133.363528 
L 115.887154 131.989025 
L 115.964492 132.126096 
L 116.025109 132.449249 
L 116.250853 133.532044 
L 116.298928 133.425941 
L 116.49959 133.135595 
L 116.530943 133.232876 
L 116.86956 134.104987 
L 116.898823 134.074003 
L 117.126658 133.892031 
L 117.160102 133.982842 
L 117.206087 134.097903 
L 117.260432 133.93579 
L 117.364944 133.560049 
L 117.759997 132.09356 
L 117.866598 131.673093 
L 118.010824 131.819533 
L 118.125786 131.756695 
L 118.244929 131.729747 
L 118.278373 131.796168 
L 118.516659 132.291225 
L 118.598177 132.180804 
L 118.855275 131.592917 
L 119.030854 130.798563 
L 119.076839 130.962268 
L 119.164629 131.364926 
L 119.231516 131.244434 
L 119.350659 130.723087 
L 120.172118 125.137663 
L 120.414584 123.163904 
L 120.987306 120.619481 
L 121.068825 120.656841 
L 121.432525 120.497753 
L 121.476419 120.632122 
L 121.593472 120.964276 
L 121.679171 120.902645 
L 121.938359 120.391786 
L 121.994796 120.232945 
L 122.049141 120.391255 
L 122.055412 120.410323 
L 122.103487 120.206774 
L 122.488089 118.05418 
L 122.741006 116.724918 
L 122.797443 117.057262 
L 123.150691 119.576417 
L 123.255202 119.162658 
L 123.355533 118.738461 
L 123.401518 119.003897 
L 123.472586 119.376976 
L 123.554105 119.262066 
L 123.982601 118.791733 
L 124.304496 118.517354 
L 124.314947 118.5476 
L 124.521879 119.480034 
L 124.647293 119.771629 
L 124.672376 119.673969 
L 124.772707 119.391816 
L 124.816601 119.516132 
L 124.981729 119.902982 
L 125.054887 119.845106 
L 125.320346 119.349291 
L 125.552361 118.133342 
L 125.658963 118.243197 
L 125.755113 118.452079 
L 125.928602 119.448708 
L 126.263038 121.025476 
L 126.386362 121.397966 
L 126.614196 122.352557 
L 126.756332 122.88552 
L 126.842031 123.185079 
L 126.904738 123.097744 
L 126.961174 123.165094 
L 127.055234 123.069342 
L 127.358317 122.620993 
L 127.393851 122.505051 
L 127.464918 122.65271 
L 127.531806 122.912083 
L 127.613325 122.826843 
L 127.84743 121.460111 
L 128.048092 120.355647 
L 128.380438 118.944395 
L 128.564378 118.18663 
L 128.574829 118.211531 
L 128.869551 119.182734 
L 129.076483 120.016368 
L 129.178904 120.070234 
L 129.210258 120.037621 
L 129.427641 119.939303 
L 129.440183 119.977836 
L 130.029626 121.467842 
L 130.046348 121.472426 
L 130.081882 121.371233 
L 130.209386 120.940581 
L 130.286724 121.106488 
L 130.470664 121.395708 
L 130.487386 121.344809 
L 130.905431 120.030219 
L 130.957687 120.278492 
L 131.162529 120.830233 
L 131.701808 122.04175 
L 131.716439 122.000374 
L 131.923372 121.74911 
L 132.082229 121.862449 
L 132.289161 122.801724 
L 132.523267 123.460831 
L 132.64659 123.553125 
L 132.855613 123.81643 
L 133.052094 123.978142 
L 133.576741 125.221767 
L 133.578831 125.216213 
L 133.796215 124.321041 
L 133.877733 124.252723 
L 133.909087 124.33033 
L 134.116019 125.189586 
L 134.724275 127.533276 
L 134.786982 127.638503 
L 135.004366 128.15675 
L 135.269824 128.719864 
L 135.359704 129.17386 
L 135.420321 129.001353 
L 135.495569 128.797516 
L 135.560366 128.920684 
L 135.683689 128.92316 
L 135.738035 129.02876 
L 135.857178 129.251076 
L 135.903163 129.166428 
L 135.993043 128.999981 
L 136.068291 129.093039 
L 136.304486 129.141548 
L 136.507238 129.057626 
L 136.971269 128.377749 
L 137.002622 128.505385 
L 137.686126 131.653809 
L 137.778096 131.811068 
L 137.824081 131.672979 
L 138.022653 131.400745 
L 138.122984 131.586028 
L 138.200322 131.528811 
L 138.244217 131.500969 
L 138.27557 131.603789 
L 138.45951 131.916115 
L 138.64763 132.129073 
L 138.697796 131.995417 
L 138.770954 131.862176 
L 138.833661 131.916055 
L 139.109571 132.293882 
L 139.178548 132.59221 
L 139.270518 132.572556 
L 139.416834 132.671831 
L 139.448187 132.595556 
L 139.640488 132.30816 
L 139.692744 132.098658 
L 139.880864 131.479936 
L 139.962383 131.205069 
L 140.206939 130.480186 
L 140.405511 130.380083 
L 140.424323 130.422869 
L 140.551827 131.006655 
L 140.731586 131.324513 
L 140.771301 131.420762 
L 140.873722 131.376352 
L 141.03885 131.376184 
L 141.051391 131.39886 
L 141.126639 131.757856 
L 141.413 132.904111 
L 141.509151 133.124894 
L 141.569767 132.976621 
L 141.68473 132.772456 
L 141.732805 132.848902 
L 141.753707 132.880284 
L 141.843587 132.817776 
L 142.24282 132.497633 
L 142.286715 132.667865 
L 142.633692 133.969806 
L 142.70685 133.834702 
L 142.855256 133.589422 
L 142.911693 133.792892 
L 143.507407 135.736294 
L 143.557573 135.900253 
L 143.71852 136.451078 
L 143.760325 136.398032 
L 143.774956 136.377968 
L 143.837663 136.476429 
L 144.098941 137.133897 
L 144.134475 137.059476 
L 145.152415 134.257851 
L 145.173318 134.318681 
L 145.275739 135.037524 
L 145.526566 136.096046 
L 145.796205 136.632895 
L 145.825468 136.605231 
L 146.139002 136.409081 
L 146.172446 136.453474 
L 146.193348 136.482899 
L 146.281138 136.418095 
L 146.538236 136.399344 
L 146.705454 136.879133 
L 147.064973 137.921095 
L 147.152762 138.252422 
L 147.535274 139.263356 
L 147.68995 139.786285 
L 148.141439 141.276338 
L 148.373455 141.46816 
L 148.532312 141.469983 
L 148.542763 141.507336 
L 148.709981 141.748668 
L 148.722522 141.743324 
L 148.816583 141.676187 
L 148.847936 141.787392 
L 148.996342 142.326547 
L 149.090402 142.259382 
L 149.186553 142.027227 
L 149.443651 141.634997 
L 149.573245 141.792773 
L 149.700748 141.985153 
L 149.765545 141.943726 
L 150.003831 141.628716 
L 150.231666 140.874537 
L 150.275561 140.952389 
L 150.369621 141.215633 
L 150.442779 141.142021 
L 150.685245 140.341141 
L 151.234975 137.732679 
L 151.64884 137.308719 
L 151.680193 137.435951 
L 152.217381 139.41723 
L 152.38669 139.749531 
L 153.707713 142.736182 
L 153.874931 142.800557 
L 153.996164 142.974321 
L 154.037968 142.945454 
L 154.226089 142.680517 
L 154.42048 142.360962 
L 154.479006 142.400549 
L 155.097713 143.651251 
L 155.256571 144.060579 
L 155.321368 144.201238 
L 155.394526 144.127203 
L 155.574285 143.977215 
L 155.99233 143.95011 
L 156.462631 144.357701 
L 157.068797 143.43259 
L 157.344707 143.218703 
L 157.516105 143.245214 
L 157.518196 143.250693 
L 157.785745 143.640766 
L 157.978046 143.775816 
L 158.151534 143.89632 
L 158.155715 143.890721 
L 158.563309 143.525442 
L 158.979264 143.686255 
L 158.987625 143.66445 
L 159.40567 142.872712 
L 159.600061 142.911308 
L 159.756828 142.946686 
L 159.926137 142.707342 
L 160.011836 142.536025 
L 160.066182 142.606455 
L 160.291926 142.969404 
L 160.306558 142.952662 
L 160.952438 142.376463 
L 161.395566 142.482545 
L 162.001732 143.077753 
L 162.432318 143.968866 
L 162.497115 143.866697 
L 162.902619 143.388147 
L 162.90889 143.401032 
L 163.130454 143.738946 
L 163.170168 143.693144 
L 163.356198 143.418022 
L 163.441898 143.561462 
L 163.632108 143.923815 
L 163.730349 143.815435 
L 164.367868 143.183764 
L 164.411763 143.287516 
L 164.75456 143.806629 
L 164.882064 143.773088 
L 165.318921 143.51803 
L 165.716064 143.845458 
L 165.877012 144.050505 
L 165.885373 144.040025 
L 166.384937 143.583111 
L 166.851057 143.260424 
L 166.974381 143.450729 
L 167.003644 143.506457 
L 167.097704 143.455372 
L 167.225208 143.368192 
L 167.540832 142.973141 
L 167.712231 142.837456 
L 167.846005 142.773367 
L 167.871088 142.817285 
L 168.052937 143.070616 
L 168.103103 143.002453 
L 168.408276 142.54956 
L 168.483524 142.660083 
L 168.680005 142.758162 
L 168.895299 142.698081 
L 169.150306 142.445279 
L 169.17957 142.466161 
L 169.432487 142.786051 
L 169.532818 142.991802 
L 169.578803 142.856677 
L 169.689585 142.67986 
L 169.73348 142.731262 
L 170.141074 143.000347 
L 170.325014 143.125989 
L 170.84757 144.177795 
L 170.993886 144.07389 
L 171.240533 144.051081 
L 171.545706 143.419977 
L 171.595871 143.504186 
L 171.67112 143.558303 
L 171.700383 143.472079 
L 171.947029 142.991434 
L 172.812383 141.14553 
L 173.065301 140.618755 
L 173.736263 139.111899 
L 173.901391 138.876027 
L 174.07697 138.629602 
L 174.277632 138.251894 
L 174.317346 138.34538 
L 174.823181 139.188054 
L 174.846174 139.149504 
L 175.168069 138.815401 
L 175.326926 138.640627 
L 175.657182 138.308905 
L 175.951904 138.098374 
L 176.137934 138.032851 
L 176.311423 137.899163 
L 176.629137 137.55636 
L 176.633317 137.560437 
L 176.854881 137.673833 
L 176.869513 137.641682 
L 177.58228 135.75014 
L 178.146641 135.779728 
L 178.328491 135.752078 
L 178.384927 135.762906 
L 178.416281 135.822639 
L 179.15204 137.792764 
L 179.156221 137.79041 
L 179.269093 137.607546 
L 179.563815 137.246611 
L 179.747755 137.204774 
L 180.098913 136.684584 
L 180.458432 136.888187 
L 180.677906 137.19162 
L 180.776146 137.315691 
L 180.98935 137.74641 
L 181.167019 137.80561 
L 181.27153 137.717178 
L 181.541169 137.210393 
L 181.771094 136.971609 
L 181.971756 137.146735 
L 182.28947 137.806328 
L 182.416974 138.028628 
L 182.582102 138.333084 
L 182.638538 138.234667 
L 182.920719 137.922155 
L 183.190358 137.718475 
L 183.733817 137.646845 
L 184.293998 136.969802 
L 184.567817 136.96026 
L 184.676509 136.931631 
L 184.68696 136.914985 
L 185.015126 136.599903 
L 185.201156 136.378728 
L 185.600389 135.233709 
L 186.262991 134.769241 
L 186.536811 134.509525 
L 187.053097 134.828619 
L 188.083578 134.109138 
L 188.675113 134.518955 
L 188.721098 134.440962 
L 188.886225 134.28872 
L 188.911308 134.331526 
L 189.059714 134.555758 
L 189.335624 134.794162 
L 189.739038 135.082396 
L 190.109008 135.501112 
L 190.230241 135.571221 
L 190.353564 135.625375 
L 190.393279 135.57317 
L 190.68173 135.379504 
L 190.792512 135.29458 
L 191.636964 134.435762 
L 191.988122 133.971097 
L 192.109355 133.949626 
L 192.136528 133.981266 
L 192.368543 134.200145 
L 192.416618 134.14488 
L 192.820032 133.825266 
L 193.350949 134.050248 
L 193.411566 134.054653 
L 193.4471 134.111035 
L 193.641491 134.212752 
L 193.863055 134.371369 
L 193.975927 134.404736 
L 194.0031 134.377166 
L 194.132694 134.318508 
L 194.170318 134.363263 
L 194.37307 134.566085 
L 194.435777 134.501462 
L 194.671972 134.289421 
L 194.715867 134.343956 
L 195.004318 134.546396 
L 195.650198 134.440142 
L 196.013898 134.255227 
L 196.107958 134.210252 
L 196.151853 134.249995 
L 196.319071 134.258213 
L 196.423582 134.124497 
L 196.626334 134.03752 
L 197.102906 134.033164 
L 197.736245 133.821268 
L 197.842846 133.768125 
L 197.863748 133.802084 
L 198.035147 134.254541 
L 198.141749 134.112608 
L 198.572335 133.245499 
L 198.597418 133.268459 
L 199.103253 133.589799 
L 199.153418 133.633737 
L 199.16805 133.676736 
L 199.648802 134.847907 
L 199.667614 134.810279 
L 199.797208 134.649668 
L 199.839012 134.685242 
L 199.972787 134.653283 
L 200.171359 134.668546 
L 200.470261 134.681012 
L 200.746171 134.43352 
L 200.892487 134.409745 
L 201.070156 134.578109 
L 201.507013 135.599341 
L 201.57181 135.563187 
L 202.320111 134.295939 
L 202.368187 134.347166 
L 202.930458 134.761564 
L 203.120668 134.867763 
L 203.521992 135.230114 
L 203.843887 135.190668 
L 203.933766 135.078035 
L 204.627721 134.198053 
L 204.715511 134.293974 
L 204.742684 134.316385 
L 204.807481 134.230323 
L 204.976789 133.89266 
L 205.647752 132.652046 
L 205.760624 132.509483 
L 205.846324 132.458593 
L 205.90276 132.503727 
L 206.159858 132.570495 
L 206.661512 132.379484 
L 206.872625 132.279749 
L 207.215422 132.0404 
L 207.577031 131.765566 
L 207.725437 131.572152 
L 208.051513 131.011659 
L 208.061964 131.022283 
L 208.158114 131.023948 
L 208.185287 130.993617 
L 208.916866 130.377524 
L 209.314009 130.425081 
L 209.736235 130.062719 
L 210.072762 129.716692 
L 210.536792 129.672726 
L 210.862867 129.924085 
L 211.312266 129.761402 
L 211.458582 129.855172 
L 211.665514 130.023072 
L 211.968597 130.16934 
L 212.976086 130.351735 
L 213.174658 130.446881 
L 213.362778 130.690536 
L 213.670042 131.417691 
L 213.910418 131.817335 
L 213.922959 131.807088 
L 214.108989 131.703902 
L 214.148703 131.76223 
L 214.637816 132.382143 
L 214.690072 132.314545 
L 214.884463 132.249877 
L 215.04123 132.073454 
L 216.011095 131.164519 
L 217.118915 131.946962 
L 217.654013 131.584224 
L 217.871397 131.40543 
L 217.89857 131.425517 
L 218.556991 131.535737 
L 218.720029 131.609941 
L 219.142255 131.769022 
L 219.225864 131.499995 
L 219.499683 131.02846 
L 219.685714 130.865292 
L 220.080766 130.295659 
L 220.312781 130.238507 
L 220.406842 130.346125 
L 220.680661 130.757902 
L 220.732917 130.706177 
L 220.987925 130.602639 
L 221.663068 131.172806 
L 221.794752 131.303872 
L 221.838647 131.253764 
L 221.991233 131.095323 
L 222.170993 131.040026 
L 222.271324 131.114062 
L 222.480346 131.221255 
L 222.674737 131.437079 
L 223.0677 131.764335 
L 223.364512 131.793659 
L 223.859896 131.987705 
L 223.949776 132.072523 
L 224.227776 132.308834 
L 224.338558 132.390778 
L 224.643731 132.844425 
L 224.946814 132.883283 
L 225.122393 133.198428 
L 225.314694 133.406717 
L 225.879055 134.127318 
L 226.096438 134.377546 
L 226.443416 134.720753 
L 227.511522 136.006707 
L 227.595131 135.930478 
L 227.845958 135.823888 
L 228.057071 135.852655 
L 228.633973 135.956238 
L 228.807462 135.964629 
L 229.43244 135.820187 
L 229.635192 135.76813 
L 229.973809 135.871997 
L 230.178651 135.947068 
L 230.396034 136.072114 
L 230.588335 136.079577 
L 231.033553 135.850631 
L 231.261388 135.643072 
L 231.449508 135.595998 
L 231.687794 135.851155 
L 231.786035 135.936359 
L 231.838291 135.886916 
L 232.028501 135.78465 
L 232.469539 135.819166 
L 232.689013 135.829546 
L 232.772622 135.701273 
L 233.090336 135.367138 
L 233.228291 135.257724 
L 233.408051 135.231487 
L 234.160532 135.343063 
L 234.446893 135.237671 
L 234.530502 135.223115 
L 234.568126 135.273016 
L 234.864939 135.484336 
L 235.025886 135.548541 
L 235.454383 135.659298 
L 235.678037 135.622235 
L 236.236127 135.879159 
L 236.526669 135.93239 
L 236.706428 136.137936 
L 237.034594 136.576988 
L 237.582233 137.107713 
L 237.720188 137.290241 
L 238.445497 138.641231 
L 238.644068 138.897265 
L 238.84891 138.968411 
L 239.565858 138.485108 
L 239.822956 138.237512 
L 240.493919 137.318682 
L 240.705032 137.104918 
L 240.87434 136.957673 
L 241.087543 136.808082 
L 241.304927 136.843579 
L 241.635182 137.125038 
L 242.757634 138.758264 
L 242.851694 138.692669 
L 243.236296 138.370578 
L 243.562371 138.069778 
L 243.593725 138.10673 
L 243.865454 138.259994 
L 244.116281 138.110199 
L 244.686913 137.527374 
L 244.709906 137.551341 
L 244.900116 137.486926 
L 245.232462 137.235015 
L 245.437305 137.250739 
L 245.535545 137.400837 
L 245.819816 137.82459 
L 246.018387 137.980906 
L 246.183515 138.050038 
L 246.325651 137.860947 
L 246.620373 137.241231 
L 246.672628 137.266312 
L 246.906734 137.257789 
L 247.211907 137.056037 
L 248.100253 137.396276 
L 248.62699 137.319577 
L 248.833923 137.316982 
L 249.768254 137.047426 
L 251.154074 138.695331 
L 251.507322 138.737077 
L 251.735157 138.760963 
L 251.962992 138.826395 
L 252.084225 138.75757 
L 252.284887 138.718995 
L 252.512721 138.763917 
L 252.86806 138.833527 
L 253.23594 138.914408 
L 253.436601 139.144882 
L 253.777308 139.603554 
L 254.122196 139.848542 
L 255.027264 140.787636 
L 255.26555 140.874886 
L 255.63761 140.996818 
L 255.907249 140.814788 
L 256.082828 140.825231 
L 256.609565 141.342876 
L 256.776784 141.439715 
L 257.035972 141.489778 
L 257.320242 141.555371 
L 257.4791 141.57974 
L 257.840709 141.751929 
L 259.000785 141.072139 
L 259.159642 141.09207 
L 259.527522 141.177653 
L 260.146229 141.91293 
L 260.309266 142.089177 
L 260.52456 142.251532 
L 261.063838 142.917428 
L 261.738981 144.020769 
L 261.770335 143.991296 
L 261.973087 143.92525 
L 261.985628 143.938709 
L 262.18629 143.99458 
L 262.301252 143.924452 
L 262.595974 143.781208 
L 263.003568 143.85506 
L 263.57002 143.784132 
L 263.871012 144.060847 
L 264.263975 144.550676 
L 264.937028 145.025325 
L 265.070802 145.074141 
L 265.41569 145.380836 
L 265.607991 145.281079 
L 265.624712 145.29543 
L 266.113825 145.577359 
L 266.385555 145.596055 
L 267.039796 145.943065 
L 267.186112 145.9314 
L 267.742112 145.987554 
L 267.957405 145.931608 
L 268.18942 145.975948 
L 268.45906 146.403496 
L 269.247075 147.45261 
L 269.470729 147.409111 
L 269.75082 147.415997 
L 269.957752 147.446723 
L 270.432234 147.387187 
L 270.712324 147.262676 
L 270.902534 147.24748 
L 271.207708 147.15127 
L 271.675918 146.771937 
L 271.899573 146.574052 
L 272.549633 146.386454 
L 272.714761 146.41527 
L 272.88825 146.401988 
L 273.157889 146.361453 
L 274.08595 146.242968 
L 274.297062 146.224586 
L 274.407844 146.191863 
L 274.416205 146.176325 
L 274.591784 145.841912 
L 274.675393 145.92316 
L 275.001469 146.170771 
L 275.128973 146.117151 
L 275.231394 146.024251 
L 275.283649 146.086899 
L 275.448777 146.112116 
L 276.360116 146.645173 
L 276.58586 146.737213 
L 278.051109 147.566226 
L 278.226688 147.582895 
L 278.623831 147.925342 
L 278.782689 147.783896 
L 279.211185 147.408687 
L 279.524719 147.067906 
L 280.112073 146.499639 
L 280.496674 146.380116 
L 280.803938 146.304917 
L 281.044314 146.142044 
L 282.060164 145.383482 
L 282.785472 145.443279 
L 283.057202 145.713901 
L 283.282946 145.823232 
L 283.452255 145.719955 
L 283.68218 145.693159 
L 284.073052 145.784174 
L 284.984391 145.778344 
L 287.087159 146.895487 
L 287.580452 147.553287 
L 288.157355 148.000725 
L 288.508513 147.848297 
L 288.661099 147.86498 
L 289.010167 147.944851 
L 289.319521 147.960904 
L 290.205777 147.874428 
L 290.538123 148.190277 
L 290.87883 148.559679 
L 291.225807 148.837945 
L 291.668935 149.645485 
L 291.886319 149.72873 
L 292.296003 150.04513 
L 292.596996 150.071586 
L 293.198981 149.704676 
L 293.631658 149.724965 
L 294.02044 149.742007 
L 294.749929 150.214526 
L 295.21605 150.898455 
L 295.740696 151.457271 
L 296.227719 151.49424 
L 296.440922 151.450617 
L 297.776577 151.171717 
L 297.950066 151.177389 
L 298.798698 150.990473 
L 299.128954 151.242766 
L 299.294082 151.379822 
L 299.716307 151.557228 
L 300.807406 151.305601 
L 301.271436 151.592128 
L 301.438654 151.688935 
L 301.718744 151.960592 
L 301.76682 151.915581 
L 302.410609 151.743893 
L 303.037677 151.85722 
L 303.261332 151.925398 
L 303.549783 151.987319 
L 303.689828 152.090546 
L 304.256279 152.561328 
L 304.670144 152.636458 
L 304.858265 152.747341 
L 304.99831 152.694656 
L 305.374551 152.751143 
L 305.489513 152.856882 
L 305.863664 153.113413 
L 306.241995 153.453898 
L 306.802175 153.984667 
L 307.03001 154.180243 
L 307.337273 154.327467 
L 307.590191 154.378963 
L 308.555875 154.622993 
L 308.762808 154.672468 
L 309.488116 154.755362 
L 310.338839 154.571394 
L 310.758974 154.583482 
L 311.82499 153.936978 
L 312.548208 154.083074 
L 313.049862 153.862852 
L 313.240073 153.783472 
L 313.449096 153.609667 
L 313.789803 153.394794 
L 314.354164 153.230672 
L 314.538104 153.259177 
L 314.707412 153.225117 
L 314.997954 153.190306 
L 316.224917 152.996497 
L 316.4423 152.748612 
L 316.486195 152.795124 
L 316.820631 152.987371 
L 316.943955 152.92101 
L 317.035925 152.85441 
L 317.096541 152.912049 
L 317.378722 153.02963 
L 318.173008 153.327911 
L 318.413384 153.414989 
L 318.695564 153.552672 
L 319.774121 154.076941 
L 320.162903 154.183679 
L 320.434633 154.311751 
L 320.610212 154.167508 
L 321.172483 153.71271 
L 321.598889 153.342078 
L 321.88525 153.103923 
L 322.600108 152.924051 
L 322.871837 152.756272 
L 323.423657 152.260668 
L 323.707928 152.23899 
L 323.954574 152.135863 
L 324.266018 152.125798 
L 324.6548 152.185023 
L 325.281868 152.351287 
L 325.501342 152.344419 
L 325.898485 152.399108 
L 326.77847 152.368374 
L 328.889599 153.234216 
L 329.399615 153.780227 
L 329.970246 154.121963 
L 330.168818 154.07986 
L 330.774984 154.042041 
L 331.163766 154.052558 
L 332.062563 153.975848 
L 332.353105 154.235052 
L 332.691721 154.520922 
L 333.038699 154.757324 
L 333.477646 155.398803 
L 333.709662 155.481454 
L 334.449602 155.672262 
L 334.715061 155.452112 
L 334.993061 155.41016 
L 335.452911 155.4157 
L 335.852144 155.434209 
L 336.512655 155.748664 
L 337.614205 156.829716 
L 338.076145 156.813876 
L 338.427303 156.820111 
L 338.682311 156.757578 
L 339.14007 156.588553 
L 339.399258 156.547846 
L 339.59574 156.541909 
L 339.767138 156.528428 
L 340.61368 156.369747 
L 340.941845 156.562919 
L 341.136237 156.695778 
L 341.529199 156.809647 
L 342.630749 156.59421 
L 343.071786 156.809642 
L 343.257816 156.901018 
L 343.583892 157.064567 
L 344.267396 156.911942 
L 344.852659 157.003635 
L 345.080494 157.0454 
L 345.402389 157.108114 
L 345.661577 157.32387 
L 346.119337 157.582645 
L 346.733863 157.692331 
L 346.995142 157.675271 
L 347.72045 158.015687 
L 348.067428 158.292887 
L 348.619248 158.709727 
L 348.863804 158.891348 
L 349.133443 158.986268 
L 349.432346 159.034127 
L 349.915188 159.056499 
L 350.690662 158.621277 
L 350.966572 158.473657 
L 351.156783 158.386726 
L 351.451505 158.311041 
L 351.825655 158.313659 
L 352.670107 157.954994 
L 353.090242 157.629307 
L 353.644152 157.15566 
L 353.968137 156.939613 
L 354.329746 157.017745 
L 354.73525 156.752577 
L 356.179597 155.778826 
L 356.587191 155.644489 
L 357.308319 155.619446 
L 357.557056 155.586618 
L 358.656515 154.409793 
L 359.043207 153.921783 
L 359.442441 153.554541 
L 360.201193 153.361913 
L 360.460381 153.322886 
L 360.773915 153.24749 
L 361.306923 152.743593 
L 361.547299 152.568512 
L 361.933991 152.51073 
L 362.255886 152.538134 
L 362.738728 152.70152 
L 362.958202 152.695309 
L 363.21948 152.634804 
L 363.606172 152.997524 
L 364.147541 153.413364 
L 364.41927 153.470185 
L 365.086052 153.788587 
L 365.577256 153.768089 
L 366.26494 153.189168 
L 366.496955 152.987649 
L 366.670444 152.865123 
L 366.850203 152.841318 
L 367.964294 153.583108 
L 368.319633 153.742058 
L 368.601813 153.976955 
L 368.881904 154.034036 
L 369.074205 153.900078 
L 369.339663 153.715844 
L 369.373107 153.748901 
L 370.014806 153.989907 
L 370.32834 154.100681 
L 370.838356 154.266496 
L 371.680717 154.084459 
L 372.082041 153.884499 
L 372.475003 153.674288 
L 373.242116 153.989546 
L 373.587004 154.217382 
L 374.372929 154.603556 
L 374.638388 154.551927 
L 375.02926 154.579139 
L 375.225741 154.705555 
L 376.364915 155.197355 
L 377.236539 155.051885 
L 377.399577 154.97117 
L 377.836434 154.675765 
L 378.461412 154.637333 
L 378.783307 154.314926 
L 379.295412 153.96114 
L 380.695864 153.652486 
L 382.079594 153.73755 
L 383.003474 153.051279 
L 383.647264 152.344862 
L 383.994242 152.249145 
L 384.865866 152.418932 
L 385.308994 152.447751 
L 386.021761 152.299036 
L 386.523416 152.246438 
L 386.991626 152.24636 
L 387.932228 152.835081 
L 388.245762 153.077751 
L 388.95853 153.566207 
L 389.192635 153.664824 
L 389.382846 153.833435 
L 389.708921 154.036039 
L 390.101884 154.091509 
L 391.673734 154.859881 
L 391.876486 154.886998 
L 392.336336 155.064808 
L 392.773193 155.17395 
L 392.921599 155.260527 
L 393.222592 155.227507 
L 393.648998 154.94724 
L 393.904006 154.867013 
L 394.836247 154.328782 
L 395.076623 154.418145 
L 395.379706 154.530192 
L 395.912713 154.593852 
L 396.15727 154.62363 
L 396.569044 154.667123 
L 397.07697 154.439449 
L 397.384233 154.300781 
L 397.919331 154.143445 
L 398.644639 154.134153 
L 398.841121 154.091818 
L 399.125392 154.087813 
L 399.633317 154.306781 
L 400.557197 154.417269 
L 401.332671 154.299596 
L 402.482295 154.431679 
L 403.253589 154.416604 
L 403.466792 154.440984 
L 403.838852 154.52342 
L 404.221364 154.517185 
L 404.547439 154.481363 
L 405.281109 154.493963 
L 405.47968 154.495726 
L 405.793214 154.341494 
L 406.202899 154.426716 
L 406.944929 154.3743 
L 407.204117 154.378079 
L 408.184433 154.782148 
L 409.363321 155.47544 
L 411.008329 155.796275 
L 411.806796 156.488327 
L 412.038811 156.573928 
L 412.341894 156.561514 
L 414.225188 156.949224 
L 414.584707 156.999714 
L 414.871068 157.035638 
L 415.556662 157.015541 
L 417.872633 158.284269 
L 418.288588 158.54366 
L 418.735897 158.683793 
L 419.515551 158.458544 
L 419.785191 158.551736 
L 420.046469 158.596829 
L 421.62877 158.413531 
L 422.289282 157.999827 
L 422.594455 157.968406 
L 422.862004 157.913219 
L 423.957283 157.765358 
L 424.289629 157.600843 
L 424.659599 157.494849 
L 425.163344 157.684781 
L 426.183374 158.405722 
L 426.586788 158.353143 
L 426.967209 158.361269 
L 427.278653 158.304021 
L 428.382292 157.917822 
L 428.553691 157.883729 
L 428.82124 158.016124 
L 429.381421 158.204819 
L 429.845451 158.260657 
L 430.242594 158.382729 
L 430.514324 158.390013 
L 430.840399 158.459111 
L 431.306519 158.40338 
L 431.605422 158.356606 
L 431.914775 158.433308 
L 432.209497 158.473727 
L 432.905543 158.526574 
L 433.110385 158.614149 
L 433.469904 158.698511 
L 433.852415 158.510683 
L 434.293453 158.495802 
L 434.512927 158.55829 
L 434.970687 158.812778 
L 435.516236 158.761129 
L 436.222732 158.313567 
L 437.855199 159.120089 
L 438.112297 159.16871 
L 438.574237 159.538739 
L 438.927485 159.832499 
L 439.458403 159.981815 
L 439.941245 160.212002 
L 440.179531 160.13749 
L 442.28857 159.836919 
L 442.696164 160.047161 
L 442.911457 159.872039 
L 443.227081 159.725551 
L 443.502991 159.685484 
L 443.693202 159.735285 
L 443.929397 159.832339 
L 444.268014 159.758704 
L 445.114556 159.429656 
L 445.396736 159.429883 
L 446.71985 158.97233 
L 447.292572 158.679093 
L 448.19973 158.768993 
L 448.448467 158.835291 
L 448.83934 158.999872 
L 449.470588 159.194028 
L 449.813385 159.220884 
L 452.284033 159.263246 
L 452.81077 159.251114 
L 453.228815 159.459505 
L 453.431567 159.446847 
L 454.531026 159.143219 
L 455.158094 159.19213 
L 455.502982 159.072249 
L 455.776802 159.067993 
L 456.22202 159.025097 
L 458.291344 158.717042 
L 459.330187 158.78477 
L 459.532939 158.86908 
L 460.440097 158.980326 
L 460.718097 158.993714 
L 460.925029 159.022339 
L 461.506112 159.01168 
L 462.139451 158.821782 
L 462.555406 158.526054 
L 463.157391 158.385307 
L 463.953768 158.445171 
L 464.447061 158.369492 
L 466.441137 158.475437 
L 466.873814 158.548573 
L 467.599123 158.611412 
L 468.510462 158.644675 
L 469.919274 158.833578 
L 470.506628 158.669687 
L 471.25911 158.423839 
L 472.063847 157.984799 
L 472.490253 157.843693 
L 472.931291 157.780537 
L 473.652419 157.77827 
L 474.576299 157.53604 
L 475.458375 157.258329 
L 475.987202 157.378026 
L 476.787759 157.589808 
L 477.377203 157.558454 
L 477.715819 157.475958 
L 478.257188 157.271978 
L 479.051474 156.816175 
L 479.312752 156.753016 
L 480.619144 156.938709 
L 481.361174 157.089143 
L 481.988242 157.200619 
L 482.299686 157.252109 
L 482.60904 157.334454 
L 483.413777 157.348646 
L 483.81092 157.492099 
L 484.904108 158.121202 
L 486.11435 157.826561 
L 486.515673 157.687778 
L 487.121839 157.929172 
L 488.15232 158.223374 
L 488.375975 158.253965 
L 489.030216 158.674025 
L 489.481705 158.771881 
L 490.963675 158.842851 
L 491.737059 158.861296 
L 492.345315 159.204997 
L 493.045541 159.607885 
L 493.373706 159.725177 
L 493.754128 159.856751 
L 494.569316 160.326985 
L 495.112775 160.463709 
L 495.760745 160.800871 
L 496.195512 160.944042 
L 496.954264 161.296293 
L 497.255257 161.420484 
L 497.56252 161.651405 
L 498.996416 162.48311 
L 499.197077 162.435045 
L 499.610942 162.326426 
L 500.536913 162.198205 
L 500.990492 162.423971 
L 501.301936 162.549706 
L 501.782688 162.670327 
L 502.382583 162.858124 
L 502.846613 162.800288 
L 503.298102 162.860709 
L 504.044313 163.067424 
L 504.458178 163.083442 
L 505.747847 163.484359 
L 506.117818 163.52326 
L 506.389547 163.515462 
L 506.941367 163.535441 
L 507.309247 163.435566 
L 507.52036 163.492967 
L 508.396164 163.698673 
L 508.835112 163.860355 
L 510.954602 164.534986 
L 511.529414 164.545417 
L 512.762648 164.926412 
L 513.299836 164.989001 
L 513.602919 165.069269 
L 513.922723 165.201263 
L 514.439009 165.241265 
L 515.080709 165.078803 
L 516.146725 165.086146 
L 516.646289 164.794346 
L 517.181387 164.475967 
L 517.747838 164.411639 
L 518.989433 164.117009 
L 519.459734 164.065981 
L 520.159959 163.965249 
L 520.486035 163.855109 
L 521.763163 163.504942 
L 523.654818 163.5031 
L 524.455375 163.412833 
L 525.5193 163.475911 
L 526.171451 163.297126 
L 526.539331 163.23358 
L 526.750444 163.263547 
L 526.969918 163.240348 
L 527.747482 163.020698 
L 528.754971 162.985226 
L 529.097768 162.943415 
L 529.540896 162.968875 
L 530.274566 162.926105 
L 531.443002 162.607797 
L 532.272822 162.490835 
L 532.586356 162.500465 
L 533.641921 162.631584 
L 534.850072 162.608245 
L 535.443696 162.717772 
L 536.064493 162.693249 
L 536.913125 162.893049 
L 538.516329 163.776569 
L 539.373322 163.609033 
L 539.764194 163.521165 
L 540.28257 163.611028 
L 540.619097 163.607682 
L 540.930541 163.54702 
L 543.164993 163.204041 
L 543.804602 163.053688 
L 547.282739 162.794805 
L 547.606724 162.81695 
L 548.603762 162.670654 
L 549.379236 162.553083 
L 549.745026 162.498405 
L 550.568575 162.374247 
L 550.861207 162.313598 
L 553.135373 161.599814 
L 553.672562 161.593113 
L 554.39996 161.936612 
L 554.721855 161.944374 
L 555.739796 162.207013 
L 556.818353 162.737996 
L 557.211315 162.808018 
L 558.471722 163.153506 
L 558.749722 163.212991 
L 559.061166 163.301641 
L 559.504294 163.497359 
L 560.108369 163.531256 
L 560.545227 163.516574 
L 561.111678 163.331507 
L 561.283076 163.436292 
L 561.68022 163.617798 
L 562.319829 163.756144 
L 563.53007 164.365537 
L 563.741183 164.49443 
L 564.305544 164.83374 
L 565.262868 164.99912 
L 565.605665 164.972423 
L 566.452207 165.008215 
L 566.659139 165.040802 
L 567.004027 165.069628 
L 567.288297 165.130188 
L 568.1432 165.025062 
L 568.908223 164.943264 
L 569.349261 165.069022 
L 569.769396 165.097715 
L 570.383923 164.867651 
L 570.891848 164.773539 
L 572.994616 164.5849 
L 574.503759 164.962595 
L 575.072301 164.93079 
L 575.410918 164.926064 
L 576.282542 165.124615 
L 576.514557 165.196457 
L 576.930512 165.419045 
L 577.306753 165.489668 
L 577.616107 165.482516 
L 577.969355 165.460628 
L 578.186739 165.464054 
L 578.769912 165.350971 
L 580.431642 164.92064 
L 580.718003 164.828314 
L 581.24683 164.520236 
L 581.907342 164.084494 
L 582.666094 163.836658 
L 583.780185 163.619797 
L 584.229583 163.68011 
L 584.541027 163.565045 
L 584.890095 163.413881 
L 585.839058 163.371895 
L 586.112878 163.350389 
L 587.592758 163.28078 
L 588.155029 163.506862 
L 589.208503 163.789619 
L 590.01324 163.79331 
L 590.506534 163.975927 
L 591.325903 164.170659 
L 591.838008 164.119642 
L 592.216339 164.167938 
L 592.544505 164.149777 
L 593.041979 164.137896 
L 594.53022 164.105669 
L 594.843754 164.179799 
L 596.3738 164.192098 
L 597.878763 165.026665 
L 598.739936 164.821981 
L 599.438072 164.569674 
L 599.954358 164.611511 
L 600.558433 164.746501 
L 601.317185 164.640469 
L 602.015321 164.831125 
L 602.784524 165.187784 
L 603.447126 165.260645 
L 604.580029 165.236371 
L 607.945294 164.286523 
L 608.407234 164.234436 
L 608.823189 164.124732 
L 609.257956 164.197279 
L 609.912197 164.128549 
L 610.359505 164.092695 
L 610.639596 163.874356 
L 611.072273 163.636091 
L 611.072273 163.636091 
" clip-path="url(#p7cfe51e8d2)" style="fill: none; stroke: #1f2937; stroke-linecap: square"/>
   </g>
   <g id="line2d_24">
    <path d="M 62.39 163.636091 
L 637.2 163.636091 
" clip-path="url(#p7cfe51e8d2)" style="fill: none; stroke-dasharray: 2.96,1.28; stroke-dashoffset: 0; stroke: #888888; stroke-width: 0.8"/>
   </g>
   <g id="patch_3">
    <path d="M 62.39 282.04 
L 62.39 26.88 
" style="fill: none; stroke: #000000; stroke-width: 0.8; stroke-linejoin: miter; stroke-linecap: square"/>
   </g>
   <g id="patch_4">
    <path d="M 637.2 282.04 
L 637.2 26.88 
" style="fill: none; stroke: #000000; stroke-width: 0.8; stroke-linejoin: miter; stroke-linecap: square"/>
   </g>
   <g id="patch_5">
    <path d="M 62.39 282.04 
L 637.2 282.04 
" style="fill: none; stroke: #000000; stroke-width: 0.8; stroke-linejoin: miter; stroke-linecap: square"/>
   </g>
   <g id="patch_6">
    <path d="M 62.39 26.88 
L 637.2 26.88 
" style="fill: none; stroke: #000000; stroke-width: 0.8; stroke-linejoin: miter; stroke-linecap: square"/>
   </g>
   <g id="text_14">
    <!-- Running mean — declination  (100k ReCom samples, seed 42) -->
    <g transform="translate(162.220937 20.88) scale(0.12 -0.12)">
     <defs>
      <path id="DejaVuSans-2014" d="M 313 1978 
L 6088 1978 
L 6088 1528 
L 313 1528 
L 313 1978 
z
" transform="scale(0.015625)"/>
      <path id="DejaVuSans-28" d="M 1984 4856 
Q 1566 4138 1362 3434 
Q 1159 2731 1159 2009 
Q 1159 1288 1364 580 
Q 1569 -128 1984 -844 
L 1484 -844 
Q 1016 -109 783 600 
Q 550 1309 550 2009 
Q 550 2706 781 3412 
Q 1013 4119 1484 4856 
L 1984 4856 
z
" transform="scale(0.015625)"/>
      <path id="DejaVuSans-6b" d="M 581 4863 
L 1159 4863 
L 1159 1991 
L 2875 3500 
L 3609 3500 
L 1753 1863 
L 3688 0 
L 2938 0 
L 1159 1709 
L 1159 0 
L 581 0 
L 581 4863 
z
" transform="scale(0.015625)"/>
      <path id="DejaVuSans-43" d="M 4122 4306 
L 4122 3641 
Q 3803 3938 3442 4084 
Q 3081 4231 2675 4231 
Q 1875 4231 1450 3742 
Q 1025 3253 1025 2328 
Q 1025 1406 1450 917 
Q 1875 428 2675 428 
Q 3081 428 3442 575 
Q 3803 722 4122 1019 
L 4122 359 
Q 3791 134 3420 21 
Q 3050 -91 2638 -91 
Q 1578 -91 968 557 
Q 359 1206 359 2328 
Q 359 3453 968 4101 
Q 1578 4750 2638 4750 
Q 3056 4750 3426 4639 
Q 3797 4528 4122 4306 
z
" transform="scale(0.015625)"/>
      <path id="DejaVuSans-73" d="M 2834 3397 
L 2834 2853 
Q 2591 2978 2328 3040 
Q 2066 3103 1784 3103 
Q 1356 3103 1142 2972 
Q 928 2841 928 2578 
Q 928 2378 1081 2264 
Q 1234 2150 1697 2047 
L 1894 2003 
Q 2506 1872 2764 1633 
Q 3022 1394 3022 966 
Q 3022 478 2636 193 
Q 2250 -91 1575 -91 
Q 1294 -91 989 -36 
Q 684 19 347 128 
L 347 722 
Q 666 556 975 473 
Q 1284 391 1588 391 
Q 1994 391 2212 530 
Q 2431 669 2431 922 
Q 2431 1156 2273 1281 
Q 2116 1406 1581 1522 
L 1381 1569 
Q 847 1681 609 1914 
Q 372 2147 372 2553 
Q 372 3047 722 3315 
Q 1072 3584 1716 3584 
Q 2034 3584 2315 3537 
Q 2597 3491 2834 3397 
z
" transform="scale(0.015625)"/>
      <path id="DejaVuSans-2c" d="M 750 794 
L 1409 794 
L 1409 256 
L 897 -744 
L 494 -744 
L 750 256 
L 750 794 
z
" transform="scale(0.015625)"/>
      <path id="DejaVuSans-34" d="M 2419 4116 
L 825 1625 
L 2419 1625 
L 2419 4116 
z
M 2253 4666 
L 3047 4666 
L 3047 1625 
L 3713 1625 
L 3713 1100 
L 3047 1100 
L 3047 0 
L 2419 0 
L 2419 1100 
L 313 1100 
L 313 1709 
L 2253 4666 
z
" transform="scale(0.015625)"/>
      <path id="DejaVuSans-29" d="M 513 4856 
L 1013 4856 
Q 1481 4119 1714 3412 
Q 1947 2706 1947 2009 
Q 1947 1309 1714 600 
Q 1481 -109 1013 -844 
L 513 -844 
Q 928 -128 1133 580 
Q 1338 1288 1338 2009 
Q 1338 2731 1133 3434 
Q 928 4138 513 4856 
z
" transform="scale(0.015625)"/>
     </defs>
     <use xlink:href="#DejaVuSans-52"/>
     <use xlink:href="#DejaVuSans-75" transform="translate(64.982422 0)"/>
     <use xlink:href="#DejaVuSans-6e" transform="translate(128.361328 0)"/>
     <use xlink:href="#DejaVuSans-6e" transform="translate(191.740234 0)"/>
     <use xlink:href="#DejaVuSans-69" transform="translate(255.119141 0)"/>
     <use xlink:href="#DejaVuSans-6e" transform="translate(282.902344 0)"/>
     <use xlink:href="#DejaVuSans-67" transform="translate(346.28125 0)"/>
     <use xlink:href="#DejaVuSans-20" transform="translate(409.757812 0)"/>
     <use xlink:href="#DejaVuSans-6d" transform="translate(441.544922 0)"/>
     <use xlink:href="#DejaVuSans-65" transform="translate(538.957031 0)"/>
     <use xlink:href="#DejaVuSans-61" transform="translate(600.480469 0)"/>
     <use xlink:href="#DejaVuSans-6e" transform="translate(661.759766 0)"/>
     <use xlink:href="#DejaVuSans-20" transform="translate(725.138672 0)"/>
     <use xlink:href="#DejaVuSans-2014" transform="translate(756.925781 0)"/>
     <use xlink:href="#DejaVuSans-20" transform="translate(856.925781 0)"/>
     <use xlink:href="#DejaVuSans-64" transform="translate(888.712891 0)"/>
     <use xlink:href="#DejaVuSans-65" transform="translate(952.189453 0)"/>
     <use xlink:href="#DejaVuSans-63" transform="translate(1013.712891 0)"/>
     <use xlink:href="#DejaVuSans-6c" transform="translate(1068.693359 0)"/>
     <use xlink:href="#DejaVuSans-69" transform="translate(1096.476562 0)"/>
     <use xlink:href="#DejaVuSans-6e" transform="translate(1124.259766 0)"/>
     <use xlink:href="#DejaVuSans-61" transform="translate(1187.638672 0)"/>
     <use xlink:href="#DejaVuSans-74" transform="translate(1248.917969 0)"/>
     <use xlink:href="#DejaVuSans-69" transform="translate(1288.126953 0)"/>
     <use xlink:href="#DejaVuSans-6f" transform="translate(1315.910156 0)"/>
     <use xlink:href="#DejaVuSans-6e" transform="translate(1377.091797 0)"/>
     <use xlink:href="#DejaVuSans-20" transform="translate(1440.470703 0)"/>
     <use xlink:href="#DejaVuSans-20" transform="translate(1472.257812 0)"/>
     <use xlink:href="#DejaVuSans-28" transform="translate(1504.044922 0)"/>
     <use xlink:href="#DejaVuSans-31" transform="translate(1543.058594 0)"/>
     <use xlink:href="#DejaVuSans-30" transform="translate(1606.681641 0)"/>
     <use xlink:href="#DejaVuSans-30" transform="translate(1670.304688 0)"/>
     <use xlink:href="#DejaVuSans-6b" transform="translate(1733.927734 0)"/>
     <use xlink:href="#DejaVuSans-20" transform="translate(1791.837891 0)"/>
     <use xlink:href="#DejaVuSans-52" transform="translate(1823.625 0)"/>
     <use xlink:href="#DejaVuSans-65" transform="translate(1888.607422 0)"/>
     <use xlink:href="#DejaVuSans-43" transform="translate(1950.130859 0)"/>
     <use xlink:href="#DejaVuSans-6f" transform="translate(2019.955078 0)"/>
     <use xlink:href="#DejaVuSans-6d" transform="translate(2081.136719 0)"/>
     <use xlink:href="#DejaVuSans-20" transform="translate(2178.548828 0)"/>
     <use xlink:href="#DejaVuSans-73" transform="translate(2210.335938 0)"/>
     <use xlink:href="#DejaVuSans-61" transform="translate(2262.435547 0)"/>
     <use xlink:href="#DejaVuSans-6d" transform="translate(2323.714844 0)"/>
     <use xlink:href="#DejaVuSans-70" transform="translate(2421.126953 0)"/>
     <use xlink:href="#DejaVuSans-6c" transform="translate(2484.603516 0)"/>
     <use xlink:href="#DejaVuSans-65" transform="translate(2512.386719 0)"/>
     <use xlink:href="#DejaVuSans-73" transform="translate(2573.910156 0)"/>
     <use xlink:href="#DejaVuSans-2c" transform="translate(2626.009766 0)"/>
     <use xlink:href="#DejaVuSans-20" transform="translate(2657.796875 0)"/>
     <use xlink:href="#DejaVuSans-73" transform="translate(2689.583984 0)"/>
     <use xlink:href="#DejaVuSans-65" transform="translate(2741.683594 0)"/>
     <use xlink:href="#DejaVuSans-65" transform="translate(2803.207031 0)"/>
     <use xlink:href="#DejaVuSans-64" transform="translate(2864.730469 0)"/>
     <use xlink:href="#DejaVuSans-20" transform="translate(2928.207031 0)"/>
     <use xlink:href="#DejaVuSans-34" transform="translate(2959.994141 0)"/>
     <use xlink:href="#DejaVuSans-32" transform="translate(3023.617188 0)"/>
     <use xlink:href="#DejaVuSans-29" transform="translate(3087.240234 0)"/>
    </g>
   </g>
   <g id="legend_1">
    <g id="patch_7">
     <path d="M 500.601094 47.290312 
L 630.9 47.290312 
Q 632.7 47.290312 632.7 45.490312 
L 632.7 33.18 
Q 632.7 31.38 630.9 31.38 
L 500.601094 31.38 
Q 498.801094 31.38 498.801094 33.18 
L 498.801094 45.490312 
Q 498.801094 47.290312 500.601094 47.290312 
z
" style="fill: #ffffff; opacity: 0.8; stroke: #cccccc; stroke-linejoin: miter"/>
    </g>
    <g id="line2d_25">
     <path d="M 502.401094 38.668594 
L 511.401094 38.668594 
L 520.401094 38.668594 
" style="fill: none; stroke-dasharray: 2.96,1.28; stroke-dashoffset: 0; stroke: #888888; stroke-width: 0.8"/>
    </g>
    <g id="text_15">
     <!-- final mean = -0.00316 -->
     <g transform="translate(527.601094 41.818594) scale(0.09 -0.09)">
      <defs>
       <path id="DejaVuSans-3d" d="M 678 2906 
L 4684 2906 
L 4684 2381 
L 678 2381 
L 678 2906 
z
M 678 1631 
L 4684 1631 
L 4684 1100 
L 678 1100 
L 678 1631 
z
" transform="scale(0.015625)"/>
       <path id="DejaVuSans-2d" d="M 313 2009 
L 1997 2009 
L 1997 1497 
L 313 1497 
L 313 2009 
z
" transform="scale(0.015625)"/>
       <path id="DejaVuSans-33" d="M 2597 2516 
Q 3050 2419 3304 2112 
Q 3559 1806 3559 1356 
Q 3559 666 3084 287 
Q 2609 -91 1734 -91 
Q 1441 -91 1130 -33 
Q 819 25 488 141 
L 488 750 
Q 750 597 1062 519 
Q 1375 441 1716 441 
Q 2309 441 2620 675 
Q 2931 909 2931 1356 
Q 2931 1769 2642 2001 
Q 2353 2234 1838 2234 
L 1294 2234 
L 1294 2753 
L 1863 2753 
Q 2328 2753 2575 2939 
Q 2822 3125 2822 3475 
Q 2822 3834 2567 4026 
Q 2313 4219 1838 4219 
Q 1578 4219 1281 4162 
Q 984 4106 628 3988 
L 628 4550 
Q 988 4650 1302 4700 
Q 1616 4750 1894 4750 
Q 2613 4750 3031 4423 
Q 3450 4097 3450 3541 
Q 3450 3153 3228 2886 
Q 3006 2619 2597 2516 
z
" transform="scale(0.015625)"/>
       <path id="DejaVuSans-36" d="M 2113 2584 
Q 1688 2584 1439 2293 
Q 1191 2003 1191 1497 
Q 1191 994 1439 701 
Q 1688 409 2113 409 
Q 2538 409 2786 701 
Q 3034 994 3034 1497 
Q 3034 2003 2786 2293 
Q 2538 2584 2113 2584 
z
M 3366 4563 
L 3366 3988 
Q 3128 4100 2886 4159 
Q 2644 4219 2406 4219 
Q 1781 4219 1451 3797 
Q 1122 3375 1075 2522 
Q 1259 2794 1537 2939 
Q 1816 3084 2150 3084 
Q 2853 3084 3261 2657 
Q 3669 2231 3669 1497 
Q 3669 778 3244 343 
Q 2819 -91 2113 -91 
Q 1303 -91 875 529 
Q 447 1150 447 2328 
Q 447 3434 972 4092 
Q 1497 4750 2381 4750 
Q 2619 4750 2861 4703 
Q 3103 4656 3366 4563 
z
" transform="scale(0.015625)"/>
      </defs>
      <use xlink:href="#DejaVuSans-66"/>
      <use xlink:href="#DejaVuSans-69" transform="translate(35.205078 0)"/>
      <use xlink:href="#DejaVuSans-6e" transform="translate(62.988281 0)"/>
      <use xlink:href="#DejaVuSans-61" transform="translate(126.367188 0)"/>
      <use xlink:href="#DejaVuSans-6c" transform="translate(187.646484 0)"/>
      <use xlink:href="#DejaVuSans-20" transform="translate(215.429688 0)"/>
      <use xlink:href="#DejaVuSans-6d" transform="translate(247.216797 0)"/>
      <use xlink:href="#DejaVuSans-65" transform="translate(344.628906 0)"/>
      <use xlink:href="#DejaVuSans-61" transform="translate(406.152344 0)"/>
      <use xlink:href="#DejaVuSans-6e" transform="translate(467.431641 0)"/>
      <use xlink:href="#DejaVuSans-20" transform="translate(530.810547 0)"/>
      <use xlink:href="#DejaVuSans-3d" transform="translate(562.597656 0)"/>
      <use xlink:href="#DejaVuSans-20" transform="translate(646.386719 0)"/>
      <use xlink:href="#DejaVuSans-2d" transform="translate(678.173828 0)"/>
      <use xlink:href="#DejaVuSans-30" transform="translate(714.257812 0)"/>
      <use xlink:href="#DejaVuSans-2e" transform="translate(777.880859 0)"/>
      <use xlink:href="#DejaVuSans-30" transform="translate(809.667969 0)"/>
      <use xlink:href="#DejaVuSans-30" transform="translate(873.291016 0)"/>
      <use xlink:href="#DejaVuSans-33" transform="translate(936.914062 0)"/>
      <use xlink:href="#DejaVuSans-31" transform="translate(1000.537109 0)"/>
      <use xlink:href="#DejaVuSans-36" transform="translate(1064.160156 0)"/>
     </g>
    </g>
   </g>
  </g>
 </g>
 <defs>
  <clipPath id="p7cfe51e8d2">
   <rect x="62.39" y="26.88" width="574.81" height="255.16"/>
  </clipPath>
 </defs>
</svg>
