<?xml version="1.0" encoding="utf-8" standalone="no"?>
<!DOCTYPE svg PUBLIC "-//W3C//DTD SVG 1.1//EN"
  "http://www.w3.org/Graphics/SVG/1.1/DTD/svg11.dtd">
<svg xmlns:xlink="http://www.w3.org/1999/xlink" width="648pt" height="324pt" viewBox="0 0 648 324" xmlns="http://www.w3.org/2000/svg" version="1.1">
 <metadata>
  <rdf:RDF xmlns:dc="http://purl.org/dc/elements/1.1/" xmlns:cc="http://creativecommons.org/ns#" xmlns:rdf="http://www.w3.org/1999/02/22-rdf-syntax-ns#">
   <cc:Work>
    <dc:type rdf:resource="http://purl.org/dc/dcmitype/StillImage"/>
    <dc:date>2026-05-08T00:08:25.103581</dc:date>
    <dc:format>image/svg+xml</dc:format>
    <dc:creator>
     <cc:Agent>
      <dc:title>Matplotlib v3.10.8, https://matplotlib.org/</dc:title>
     </cc:Agent>
    </dc:creator>
   </cc:Work>
  </rdf:RDF>
 </metadata>
 <defs>
  <style type="text/css">*{stroke-linejoin: round; stroke-linecap: butt}</style>
 </defs>
 <g id="figure_1">
  <g id="patch_1">
   <path d="M 0 324 
L 648 324 
L 648 0 
L 0 0 
z
" style="fill: #ffffff"/>
  </g>
  <g id="axes_1">
   <g id="patch_2">
    <path d="M 54.03125 282.04 
L 637.2 282.04 
L 637.2 26.88 
L 54.03125 26.88 
z
" style="fill: #ffffff"/>
   </g>
   <g id="matplotlib.axis_1">
    <g id="xtick_1">
     <g id="line2d_1">
      <path d="M 80.5368 282.04 
L 80.5368 26.88 
" clip-path="url(#p1a87abaa50)" style="fill: none; stroke-dasharray: 0.5,0.825; stroke-dashoffset: 0; stroke: #b0b0b0; stroke-opacity: 0.6; stroke-width: 0.5"/>
     </g>
     <g id="line2d_2">
      <defs>
       <path id="mc390ad97da" d="M 0 0 
L 0 3.5 
" style="stroke: #000000; stroke-width: 0.8"/>
      </defs>
      <g>
       <use xlink:href="#mc390ad97da" x="80.5368" y="282.04" style="stroke: #000000; stroke-width: 0.8"/>
      </g>
     </g>
     <g id="text_1">
      <!-- 0 -->
      <g transform="translate(77.35555 296.638438) scale(0.1 -0.1)">
       <defs>
        <path id="DejaVuSans-30" d="M 2034 4250 
Q 1547 4250 1301 3770 
Q 1056 3291 1056 2328 
Q 1056 1369 1301 889 
Q 1547 409 2034 409 
Q 2525 409 2770 889 
Q 3016 1369 3016 2328 
Q 3016 3291 2770 3770 
Q 2525 4250 2034 4250 
z
M 2034 4750 
Q 2819 4750 3233 4129 
Q 3647 3509 3647 2328 
Q 3647 1150 3233 529 
Q 2819 -91 2034 -91 
Q 1250 -91 836 529 
Q 422 1150 422 2328 
Q 422 3509 836 4129 
Q 1250 4750 2034 4750 
z
" transform="scale(0.015625)"/>
       </defs>
       <use xlink:href="#DejaVuSans-30"/>
      </g>
     </g>
    </g>
    <g id="xtick_2">
     <g id="line2d_3">
      <path d="M 186.567906 282.04 
L 186.567906 26.88 
" clip-path="url(#p1a87abaa50)" style="fill: none; stroke-dasharray: 0.5,0.825; stroke-dashoffset: 0; stroke: #b0b0b0; stroke-opacity: 0.6; stroke-width: 0.5"/>
     </g>
     <g id="line2d_4">
      <g>
       <use xlink:href="#mc390ad97da" x="186.567906" y="282.04" style="stroke: #000000; stroke-width: 0.8"/>
      </g>
     </g>
     <g id="text_2">
      <!-- 50000 -->
      <g transform="translate(170.661656 296.638438) scale(0.1 -0.1)">
       <defs>
        <path id="DejaVuSans-35" d="M 691 4666 
L 3169 4666 
L 3169 4134 
L 1269 4134 
L 1269 2991 
Q 1406 3038 1543 3061 
Q 1681 3084 1819 3084 
Q 2600 3084 3056 2656 
Q 3513 2228 3513 1497 
Q 3513 744 3044 326 
Q 2575 -91 1722 -91 
Q 1428 -91 1123 -41 
Q 819 9 494 109 
L 494 744 
Q 775 591 1075 516 
Q 1375 441 1709 441 
Q 2250 441 2565 725 
Q 2881 1009 2881 1497 
Q 2881 1984 2565 2268 
Q 2250 2553 1709 2553 
Q 1456 2553 1204 2497 
Q 953 2441 691 2322 
L 691 4666 
z
" transform="scale(0.015625)"/>
       </defs>
       <use xlink:href="#DejaVuSans-35"/>
       <use xlink:href="#DejaVuSans-30" transform="translate(63.623047 0)"/>
       <use xlink:href="#DejaVuSans-30" transform="translate(127.246094 0)"/>
       <use xlink:href="#DejaVuSans-30" transform="translate(190.869141 0)"/>
       <use xlink:href="#DejaVuSans-30" transform="translate(254.492188 0)"/>
      </g>
     </g>
    </g>
    <g id="xtick_3">
     <g id="line2d_5">
      <path d="M 292.599012 282.04 
L 292.599012 26.88 
" clip-path="url(#p1a87abaa50)" style="fill: none; stroke-dasharray: 0.5,0.825; stroke-dashoffset: 0; stroke: #b0b0b0; stroke-opacity: 0.6; stroke-width: 0.5"/>
     </g>
     <g id="line2d_6">
      <g>
       <use xlink:href="#mc390ad97da" x="292.599012" y="282.04" style="stroke: #000000; stroke-width: 0.8"/>
      </g>
     </g>
     <g id="text_3">
      <!-- 100000 -->
      <g transform="translate(273.511512 296.638438) scale(0.1 -0.1)">
       <defs>
        <path id="DejaVuSans-31" d="M 794 531 
L 1825 531 
L 1825 4091 
L 703 3866 
L 703 4441 
L 1819 4666 
L 2450 4666 
L 2450 531 
L 3481 531 
L 3481 0 
L 794 0 
L 794 531 
z
" transform="scale(0.015625)"/>
       </defs>
       <use xlink:href="#DejaVuSans-31"/>
       <use xlink:href="#DejaVuSans-30" transform="translate(63.623047 0)"/>
       <use xlink:href="#DejaVuSans-30" transform="translate(127.246094 0)"/>
       <use xlink:href="#DejaVuSans-30" transform="translate(190.869141 0)"/>
       <use xlink:href="#DejaVuSans-30" transform="translate(254.492188 0)"/>
       <use xlink:href="#DejaVuSans-30" transform="translate(318.115234 0)"/>
      </g>
     </g>
    </g>
    <g id="xtick_4">
     <g id="line2d_7">
      <path d="M 398.630118 282.04 
L 398.630118 26.88 
" clip-path="url(#p1a87abaa50)" style="fill: none; stroke-dasharray: 0.5,0.825; stroke-dashoffset: 0; stroke: #b0b0b0; stroke-opacity: 0.6; stroke-width: 0.5"/>
     </g>
     <g id="line2d_8">
      <g>
       <use xlink:href="#mc390ad97da" x="398.630118" y="282.04" style="stroke: #000000; stroke-width: 0.8"/>
      </g>
     </g>
     <g id="text_4">
      <!-- 150000 -->
      <g transform="translate(379.542618 296.638438) scale(0.1 -0.1)">
       <use xlink:href="#DejaVuSans-31"/>
       <use xlink:href="#DejaVuSans-35" transform="translate(63.623047 0)"/>
       <use xlink:href="#DejaVuSans-30" transform="translate(127.246094 0)"/>
       <use xlink:href="#DejaVuSans-30" transform="translate(190.869141 0)"/>
       <use xlink:href="#DejaVuSans-30" transform="translate(254.492188 0)"/>
       <use xlink:href="#DejaVuSans-30" transform="translate(318.115234 0)"/>
      </g>
     </g>
    </g>
    <g id="xtick_5">
     <g id="line2d_9">
      <path d="M 504.661224 282.04 
L 504.661224 26.88 
" clip-path="url(#p1a87abaa50)" style="fill: none; stroke-dasharray: 0.5,0.825; stroke-dashoffset: 0; stroke: #b0b0b0; stroke-opacity: 0.6; stroke-width: 0.5"/>
     </g>
     <g id="line2d_10">
      <g>
       <use xlink:href="#mc390ad97da" x="504.661224" y="282.04" style="stroke: #000000; stroke-width: 0.8"/>
      </g>
     </g>
     <g id="text_5">
      <!-- 200000 -->
      <g transform="translate(485.573724 296.638438) scale(0.1 -0.1)">
       <defs>
        <path id="DejaVuSans-32" d="M 1228 531 
L 3431 531 
L 3431 0 
L 469 0 
L 469 531 
Q 828 903 1448 1529 
Q 2069 2156 2228 2338 
Q 2531 2678 2651 2914 
Q 2772 3150 2772 3378 
Q 2772 3750 2511 3984 
Q 2250 4219 1831 4219 
Q 1534 4219 1204 4116 
Q 875 4013 500 3803 
L 500 4441 
Q 881 4594 1212 4672 
Q 1544 4750 1819 4750 
Q 2544 4750 2975 4387 
Q 3406 4025 3406 3419 
Q 3406 3131 3298 2873 
Q 3191 2616 2906 2266 
Q 2828 2175 2409 1742 
Q 1991 1309 1228 531 
z
" transform="scale(0.015625)"/>
       </defs>
       <use xlink:href="#DejaVuSans-32"/>
       <use xlink:href="#DejaVuSans-30" transform="translate(63.623047 0)"/>
       <use xlink:href="#DejaVuSans-30" transform="translate(127.246094 0)"/>
       <use xlink:href="#DejaVuSans-30" transform="translate(190.869141 0)"/>
       <use xlink:href="#DejaVuSans-30" transform="translate(254.492188 0)"/>
       <use xlink:href="#DejaVuSans-30" transform="translate(318.115234 0)"/>
      </g>
     </g>
    </g>
    <g id="xtick_6">
     <g id="line2d_11">
      <path d="M 610.69233 282.04 
L 610.69233 26.88 
" clip-path="url(#p1a87abaa50)" style="fill: none; stroke-dasharray: 0.5,0.825; stroke-dashoffset: 0; stroke: #b0b0b0; stroke-opacity: 0.6; stroke-width: 0.5"/>
     </g>
     <g id="line2d_12">
      <g>
       <use xlink:href="#mc390ad97da" x="610.69233" y="282.04" style="stroke: #000000; stroke-width: 0.8"/>
      </g>
     </g>
     <g id="text_6">
      <!-- 250000 -->
      <g transform="translate(591.60483 296.638438) scale(0.1 -0.1)">
       <use xlink:href="#DejaVuSans-32"/>
       <use xlink:href="#DejaVuSans-35" transform="translate(63.623047 0)"/>
       <use xlink:href="#DejaVuSans-30" transform="translate(127.246094 0)"/>
       <use xlink:href="#DejaVuSans-30" transform="translate(190.869141 0)"/>
       <use xlink:href="#DejaVuSans-30" transform="translate(254.492188 0)"/>
       <use xlink:href="#DejaVuSans-30" transform="translate(318.115234 0)"/>
      </g>
     </g>
    </g>
    <g id="text_7">
     <!-- Sample index -->
     <g transform="translate(311.597656 310.316563) scale(0.1 -0.1)">
      <defs>
       <path id="DejaVuSans-53" d="M 3425 4513 
L 3425 3897 
Q 3066 4069 2747 4153 
Q 2428 4238 2131 4238 
Q 1616 4238 1336 4038 
Q 1056 3838 1056 3469 
Q 1056 3159 1242 3001 
Q 1428 2844 1947 2747 
L 2328 2669 
Q 3034 2534 3370 2195 
Q 3706 1856 3706 1288 
Q 3706 609 3251 259 
Q 2797 -91 1919 -91 
Q 1588 -91 1214 -16 
Q 841 59 441 206 
L 441 856 
Q 825 641 1194 531 
Q 1563 422 1919 422 
Q 2459 422 2753 634 
Q 3047 847 3047 1241 
Q 3047 1584 2836 1778 
Q 2625 1972 2144 2069 
L 1759 2144 
Q 1053 2284 737 2584 
Q 422 2884 422 3419 
Q 422 4038 858 4394 
Q 1294 4750 2059 4750 
Q 2388 4750 2728 4690 
Q 3069 4631 3425 4513 
z
" transform="scale(0.015625)"/>
       <path id="DejaVuSans-61" d="M 2194 1759 
Q 1497 1759 1228 1600 
Q 959 1441 959 1056 
Q 959 750 1161 570 
Q 1363 391 1709 391 
Q 2188 391 2477 730 
Q 2766 1069 2766 1631 
L 2766 1759 
L 2194 1759 
z
M 3341 1997 
L 3341 0 
L 2766 0 
L 2766 531 
Q 2569 213 2275 61 
Q 1981 -91 1556 -91 
Q 1019 -91 701 211 
Q 384 513 384 1019 
Q 384 1609 779 1909 
Q 1175 2209 1959 2209 
L 2766 2209 
L 2766 2266 
Q 2766 2663 2505 2880 
Q 2244 3097 1772 3097 
Q 1472 3097 1187 3025 
Q 903 2953 641 2809 
L 641 3341 
Q 956 3463 1253 3523 
Q 1550 3584 1831 3584 
Q 2591 3584 2966 3190 
Q 3341 2797 3341 1997 
z
" transform="scale(0.015625)"/>
       <path id="DejaVuSans-6d" d="M 3328 2828 
Q 3544 3216 3844 3400 
Q 4144 3584 4550 3584 
Q 5097 3584 5394 3201 
Q 5691 2819 5691 2113 
L 5691 0 
L 5113 0 
L 5113 2094 
Q 5113 2597 4934 2840 
Q 4756 3084 4391 3084 
Q 3944 3084 3684 2787 
Q 3425 2491 3425 1978 
L 3425 0 
L 2847 0 
L 2847 2094 
Q 2847 2600 2669 2842 
Q 2491 3084 2119 3084 
Q 1678 3084 1418 2786 
Q 1159 2488 1159 1978 
L 1159 0 
L 581 0 
L 581 3500 
L 1159 3500 
L 1159 2956 
Q 1356 3278 1631 3431 
Q 1906 3584 2284 3584 
Q 2666 3584 2933 3390 
Q 3200 3197 3328 2828 
z
" transform="scale(0.015625)"/>
       <path id="DejaVuSans-70" d="M 1159 525 
L 1159 -1331 
L 581 -1331 
L 581 3500 
L 1159 3500 
L 1159 2969 
Q 1341 3281 1617 3432 
Q 1894 3584 2278 3584 
Q 2916 3584 3314 3078 
Q 3713 2572 3713 1747 
Q 3713 922 3314 415 
Q 2916 -91 2278 -91 
Q 1894 -91 1617 61 
Q 1341 213 1159 525 
z
M 3116 1747 
Q 3116 2381 2855 2742 
Q 2594 3103 2138 3103 
Q 1681 3103 1420 2742 
Q 1159 2381 1159 1747 
Q 1159 1113 1420 752 
Q 1681 391 2138 391 
Q 2594 391 2855 752 
Q 3116 1113 3116 1747 
z
" transform="scale(0.015625)"/>
       <path id="DejaVuSans-6c" d="M 603 4863 
L 1178 4863 
L 1178 0 
L 603 0 
L 603 4863 
z
" transform="scale(0.015625)"/>
       <path id="DejaVuSans-65" d="M 3597 1894 
L 3597 1613 
L 953 1613 
Q 991 1019 1311 708 
Q 1631 397 2203 397 
Q 2534 397 2845 478 
Q 3156 559 3463 722 
L 3463 178 
Q 3153 47 2828 -22 
Q 2503 -91 2169 -91 
Q 1331 -91 842 396 
Q 353 884 353 1716 
Q 353 2575 817 3079 
Q 1281 3584 2069 3584 
Q 2775 3584 3186 3129 
Q 3597 2675 3597 1894 
z
M 3022 2063 
Q 3016 2534 2758 2815 
Q 2500 3097 2075 3097 
Q 1594 3097 1305 2825 
Q 1016 2553 972 2059 
L 3022 2063 
z
" transform="scale(0.015625)"/>
       <path id="DejaVuSans-20" transform="scale(0.015625)"/>
       <path id="DejaVuSans-69" d="M 603 3500 
L 1178 3500 
L 1178 0 
L 603 0 
L 603 3500 
z
M 603 4863 
L 1178 4863 
L 1178 4134 
L 603 4134 
L 603 4863 
z
" transform="scale(0.015625)"/>
       <path id="DejaVuSans-6e" d="M 3513 2113 
L 3513 0 
L 2938 0 
L 2938 2094 
Q 2938 2591 2744 2837 
Q 2550 3084 2163 3084 
Q 1697 3084 1428 2787 
Q 1159 2491 1159 1978 
L 1159 0 
L 581 0 
L 581 3500 
L 1159 3500 
L 1159 2956 
Q 1366 3272 1645 3428 
Q 1925 3584 2291 3584 
Q 2894 3584 3203 3211 
Q 3513 2838 3513 2113 
z
" transform="scale(0.015625)"/>
       <path id="DejaVuSans-64" d="M 2906 2969 
L 2906 4863 
L 3481 4863 
L 3481 0 
L 2906 0 
L 2906 525 
Q 2725 213 2448 61 
Q 2172 -91 1784 -91 
Q 1150 -91 751 415 
Q 353 922 353 1747 
Q 353 2572 751 3078 
Q 1150 3584 1784 3584 
Q 2172 3584 2448 3432 
Q 2725 3281 2906 2969 
z
M 947 1747 
Q 947 1113 1208 752 
Q 1469 391 1925 391 
Q 2381 391 2643 752 
Q 2906 1113 2906 1747 
Q 2906 2381 2643 2742 
Q 2381 3103 1925 3103 
Q 1469 3103 1208 2742 
Q 947 2381 947 1747 
z
" transform="scale(0.015625)"/>
       <path id="DejaVuSans-78" d="M 3513 3500 
L 2247 1797 
L 3578 0 
L 2900 0 
L 1881 1375 
L 863 0 
L 184 0 
L 1544 1831 
L 300 3500 
L 978 3500 
L 1906 2253 
L 2834 3500 
L 3513 3500 
z
" transform="scale(0.015625)"/>
      </defs>
      <use xlink:href="#DejaVuSans-53"/>
      <use xlink:href="#DejaVuSans-61" transform="translate(63.476562 0)"/>
      <use xlink:href="#DejaVuSans-6d" transform="translate(124.755859 0)"/>
      <use xlink:href="#DejaVuSans-70" transform="translate(222.167969 0)"/>
      <use xlink:href="#DejaVuSans-6c" transform="translate(285.644531 0)"/>
      <use xlink:href="#DejaVuSans-65" transform="translate(313.427734 0)"/>
      <use xlink:href="#DejaVuSans-20" transform="translate(374.951172 0)"/>
      <use xlink:href="#DejaVuSans-69" transform="translate(406.738281 0)"/>
      <use xlink:href="#DejaVuSans-6e" transform="translate(434.521484 0)"/>
      <use xlink:href="#DejaVuSans-64" transform="translate(497.900391 0)"/>
      <use xlink:href="#DejaVuSans-65" transform="translate(561.376953 0)"/>
      <use xlink:href="#DejaVuSans-78" transform="translate(621.150391 0)"/>
     </g>
    </g>
   </g>
   <g id="matplotlib.axis_2">
    <g id="ytick_1">
     <g id="line2d_13">
      <path d="M 54.03125 248.178777 
L 637.2 248.178777 
" clip-path="url(#p1a87abaa50)" style="fill: none; stroke-dasharray: 0.5,0.825; stroke-dashoffset: 0; stroke: #b0b0b0; stroke-opacity: 0.6; stroke-width: 0.5"/>
     </g>
     <g id="line2d_14">
      <defs>
       <path id="m518efba65e" d="M 0 0 
L -3.5 0 
" style="stroke: #000000; stroke-width: 0.8"/>
      </defs>
      <g>
       <use xlink:href="#m518efba65e" x="54.03125" y="248.178777" style="stroke: #000000; stroke-width: 0.8"/>
      </g>
     </g>
     <g id="text_8">
      <!-- 0.42 -->
      <g transform="translate(24.765625 251.977995) scale(0.1 -0.1)">
       <defs>
        <path id="DejaVuSans-2e" d="M 684 794 
L 1344 794 
L 1344 0 
L 684 0 
L 684 794 
z
" transform="scale(0.015625)"/>
        <path id="DejaVuSans-34" d="M 2419 4116 
L 825 1625 
L 2419 1625 
L 2419 4116 
z
M 2253 4666 
L 3047 4666 
L 3047 1625 
L 3713 1625 
L 3713 1100 
L 3047 1100 
L 3047 0 
L 2419 0 
L 2419 1100 
L 313 1100 
L 313 1709 
L 2253 4666 
z
" transform="scale(0.015625)"/>
       </defs>
       <use xlink:href="#DejaVuSans-30"/>
       <use xlink:href="#DejaVuSans-2e" transform="translate(63.623047 0)"/>
       <use xlink:href="#DejaVuSans-34" transform="translate(95.410156 0)"/>
       <use xlink:href="#DejaVuSans-32" transform="translate(159.033203 0)"/>
      </g>
     </g>
    </g>
    <g id="ytick_2">
     <g id="line2d_15">
      <path d="M 54.03125 192.46595 
L 637.2 192.46595 
" clip-path="url(#p1a87abaa50)" style="fill: none; stroke-dasharray: 0.5,0.825; stroke-dashoffset: 0; stroke: #b0b0b0; stroke-opacity: 0.6; stroke-width: 0.5"/>
     </g>
     <g id="line2d_16">
      <g>
       <use xlink:href="#m518efba65e" x="54.03125" y="192.46595" style="stroke: #000000; stroke-width: 0.8"/>
      </g>
     </g>
     <g id="text_9">
      <!-- 0.43 -->
      <g transform="translate(24.765625 196.265169) scale(0.1 -0.1)">
       <defs>
        <path id="DejaVuSans-33" d="M 2597 2516 
Q 3050 2419 3304 2112 
Q 3559 1806 3559 1356 
Q 3559 666 3084 287 
Q 2609 -91 1734 -91 
Q 1441 -91 1130 -33 
Q 819 25 488 141 
L 488 750 
Q 750 597 1062 519 
Q 1375 441 1716 441 
Q 2309 441 2620 675 
Q 2931 909 2931 1356 
Q 2931 1769 2642 2001 
Q 2353 2234 1838 2234 
L 1294 2234 
L 1294 2753 
L 1863 2753 
Q 2328 2753 2575 2939 
Q 2822 3125 2822 3475 
Q 2822 3834 2567 4026 
Q 2313 4219 1838 4219 
Q 1578 4219 1281 4162 
Q 984 4106 628 3988 
L 628 4550 
Q 988 4650 1302 4700 
Q 1616 4750 1894 4750 
Q 2613 4750 3031 4423 
Q 3450 4097 3450 3541 
Q 3450 3153 3228 2886 
Q 3006 2619 2597 2516 
z
" transform="scale(0.015625)"/>
       </defs>
       <use xlink:href="#DejaVuSans-30"/>
       <use xlink:href="#DejaVuSans-2e" transform="translate(63.623047 0)"/>
       <use xlink:href="#DejaVuSans-34" transform="translate(95.410156 0)"/>
       <use xlink:href="#DejaVuSans-33" transform="translate(159.033203 0)"/>
      </g>
     </g>
    </g>
    <g id="ytick_3">
     <g id="line2d_17">
      <path d="M 54.03125 136.753124 
L 637.2 136.753124 
" clip-path="url(#p1a87abaa50)" style="fill: none; stroke-dasharray: 0.5,0.825; stroke-dashoffset: 0; stroke: #b0b0b0; stroke-opacity: 0.6; stroke-width: 0.5"/>
     </g>
     <g id="line2d_18">
      <g>
       <use xlink:href="#m518efba65e" x="54.03125" y="136.753124" style="stroke: #000000; stroke-width: 0.8"/>
      </g>
     </g>
     <g id="text_10">
      <!-- 0.44 -->
      <g transform="translate(24.765625 140.552342) scale(0.1 -0.1)">
       <use xlink:href="#DejaVuSans-30"/>
       <use xlink:href="#DejaVuSans-2e" transform="translate(63.623047 0)"/>
       <use xlink:href="#DejaVuSans-34" transform="translate(95.410156 0)"/>
       <use xlink:href="#DejaVuSans-34" transform="translate(159.033203 0)"/>
      </g>
     </g>
    </g>
    <g id="ytick_4">
     <g id="line2d_19">
      <path d="M 54.03125 81.040297 
L 637.2 81.040297 
" clip-path="url(#p1a87abaa50)" style="fill: none; stroke-dasharray: 0.5,0.825; stroke-dashoffset: 0; stroke: #b0b0b0; stroke-opacity: 0.6; stroke-width: 0.5"/>
     </g>
     <g id="line2d_20">
      <g>
       <use xlink:href="#m518efba65e" x="54.03125" y="81.040297" style="stroke: #000000; stroke-width: 0.8"/>
      </g>
     </g>
     <g id="text_11">
      <!-- 0.45 -->
      <g transform="translate(24.765625 84.839516) scale(0.1 -0.1)">
       <use xlink:href="#DejaVuSans-30"/>
       <use xlink:href="#DejaVuSans-2e" transform="translate(63.623047 0)"/>
       <use xlink:href="#DejaVuSans-34" transform="translate(95.410156 0)"/>
       <use xlink:href="#DejaVuSans-35" transform="translate(159.033203 0)"/>
      </g>
     </g>
    </g>
    <g id="text_12">
     <!-- Running mean of reock_proxy_median -->
     <g transform="translate(18.407813 250.119375) rotate(-90) scale(0.1 -0.1)">
      <defs>
       <path id="DejaVuSans-52" d="M 2841 2188 
Q 3044 2119 3236 1894 
Q 3428 1669 3622 1275 
L 4263 0 
L 3584 0 
L 2988 1197 
Q 2756 1666 2539 1819 
Q 2322 1972 1947 1972 
L 1259 1972 
L 1259 0 
L 628 0 
L 628 4666 
L 2053 4666 
Q 2853 4666 3247 4331 
Q 3641 3997 3641 3322 
Q 3641 2881 3436 2590 
Q 3231 2300 2841 2188 
z
M 1259 4147 
L 1259 2491 
L 2053 2491 
Q 2509 2491 2742 2702 
Q 2975 2913 2975 3322 
Q 2975 3731 2742 3939 
Q 2509 4147 2053 4147 
L 1259 4147 
z
" transform="scale(0.015625)"/>
       <path id="DejaVuSans-75" d="M 544 1381 
L 544 3500 
L 1119 3500 
L 1119 1403 
Q 1119 906 1312 657 
Q 1506 409 1894 409 
Q 2359 409 2629 706 
Q 2900 1003 2900 1516 
L 2900 3500 
L 3475 3500 
L 3475 0 
L 2900 0 
L 2900 538 
Q 2691 219 2414 64 
Q 2138 -91 1772 -91 
Q 1169 -91 856 284 
Q 544 659 544 1381 
z
M 1991 3584 
L 1991 3584 
z
" transform="scale(0.015625)"/>
       <path id="DejaVuSans-67" d="M 2906 1791 
Q 2906 2416 2648 2759 
Q 2391 3103 1925 3103 
Q 1463 3103 1205 2759 
Q 947 2416 947 1791 
Q 947 1169 1205 825 
Q 1463 481 1925 481 
Q 2391 481 2648 825 
Q 2906 1169 2906 1791 
z
M 3481 434 
Q 3481 -459 3084 -895 
Q 2688 -1331 1869 -1331 
Q 1566 -1331 1297 -1286 
Q 1028 -1241 775 -1147 
L 775 -588 
Q 1028 -725 1275 -790 
Q 1522 -856 1778 -856 
Q 2344 -856 2625 -561 
Q 2906 -266 2906 331 
L 2906 616 
Q 2728 306 2450 153 
Q 2172 0 1784 0 
Q 1141 0 747 490 
Q 353 981 353 1791 
Q 353 2603 747 3093 
Q 1141 3584 1784 3584 
Q 2172 3584 2450 3431 
Q 2728 3278 2906 2969 
L 2906 3500 
L 3481 3500 
L 3481 434 
z
" transform="scale(0.015625)"/>
       <path id="DejaVuSans-6f" d="M 1959 3097 
Q 1497 3097 1228 2736 
Q 959 2375 959 1747 
Q 959 1119 1226 758 
Q 1494 397 1959 397 
Q 2419 397 2687 759 
Q 2956 1122 2956 1747 
Q 2956 2369 2687 2733 
Q 2419 3097 1959 3097 
z
M 1959 3584 
Q 2709 3584 3137 3096 
Q 3566 2609 3566 1747 
Q 3566 888 3137 398 
Q 2709 -91 1959 -91 
Q 1206 -91 779 398 
Q 353 888 353 1747 
Q 353 2609 779 3096 
Q 1206 3584 1959 3584 
z
" transform="scale(0.015625)"/>
       <path id="DejaVuSans-66" d="M 2375 4863 
L 2375 4384 
L 1825 4384 
Q 1516 4384 1395 4259 
Q 1275 4134 1275 3809 
L 1275 3500 
L 2222 3500 
L 2222 3053 
L 1275 3053 
L 1275 0 
L 697 0 
L 697 3053 
L 147 3053 
L 147 3500 
L 697 3500 
L 697 3744 
Q 697 4328 969 4595 
Q 1241 4863 1831 4863 
L 2375 4863 
z
" transform="scale(0.015625)"/>
       <path id="DejaVuSans-72" d="M 2631 2963 
Q 2534 3019 2420 3045 
Q 2306 3072 2169 3072 
Q 1681 3072 1420 2755 
Q 1159 2438 1159 1844 
L 1159 0 
L 581 0 
L 581 3500 
L 1159 3500 
L 1159 2956 
Q 1341 3275 1631 3429 
Q 1922 3584 2338 3584 
Q 2397 3584 2469 3576 
Q 2541 3569 2628 3553 
L 2631 2963 
z
" transform="scale(0.015625)"/>
       <path id="DejaVuSans-63" d="M 3122 3366 
L 3122 2828 
Q 2878 2963 2633 3030 
Q 2388 3097 2138 3097 
Q 1578 3097 1268 2742 
Q 959 2388 959 1747 
Q 959 1106 1268 751 
Q 1578 397 2138 397 
Q 2388 397 2633 464 
Q 2878 531 3122 666 
L 3122 134 
Q 2881 22 2623 -34 
Q 2366 -91 2075 -91 
Q 1284 -91 818 406 
Q 353 903 353 1747 
Q 353 2603 823 3093 
Q 1294 3584 2113 3584 
Q 2378 3584 2631 3529 
Q 2884 3475 3122 3366 
z
" transform="scale(0.015625)"/>
       <path id="DejaVuSans-6b" d="M 581 4863 
L 1159 4863 
L 1159 1991 
L 2875 3500 
L 3609 3500 
L 1753 1863 
L 3688 0 
L 2938 0 
L 1159 1709 
L 1159 0 
L 581 0 
L 581 4863 
z
" transform="scale(0.015625)"/>
       <path id="DejaVuSans-5f" d="M 3263 -1063 
L 3263 -1509 
L -63 -1509 
L -63 -1063 
L 3263 -1063 
z
" transform="scale(0.015625)"/>
       <path id="DejaVuSans-79" d="M 2059 -325 
Q 1816 -950 1584 -1140 
Q 1353 -1331 966 -1331 
L 506 -1331 
L 506 -850 
L 844 -850 
Q 1081 -850 1212 -737 
Q 1344 -625 1503 -206 
L 1606 56 
L 191 3500 
L 800 3500 
L 1894 763 
L 2988 3500 
L 3597 3500 
L 2059 -325 
z
" transform="scale(0.015625)"/>
      </defs>
      <use xlink:href="#DejaVuSans-52"/>
      <use xlink:href="#DejaVuSans-75" transform="translate(64.982422 0)"/>
      <use xlink:href="#DejaVuSans-6e" transform="translate(128.361328 0)"/>
      <use xlink:href="#DejaVuSans-6e" transform="translate(191.740234 0)"/>
      <use xlink:href="#DejaVuSans-69" transform="translate(255.119141 0)"/>
      <use xlink:href="#DejaVuSans-6e" transform="translate(282.902344 0)"/>
      <use xlink:href="#DejaVuSans-67" transform="translate(346.28125 0)"/>
      <use xlink:href="#DejaVuSans-20" transform="translate(409.757812 0)"/>
      <use xlink:href="#DejaVuSans-6d" transform="translate(441.544922 0)"/>
      <use xlink:href="#DejaVuSans-65" transform="translate(538.957031 0)"/>
      <use xlink:href="#DejaVuSans-61" transform="translate(600.480469 0)"/>
      <use xlink:href="#DejaVuSans-6e" transform="translate(661.759766 0)"/>
      <use xlink:href="#DejaVuSans-20" transform="translate(725.138672 0)"/>
      <use xlink:href="#DejaVuSans-6f" transform="translate(756.925781 0)"/>
      <use xlink:href="#DejaVuSans-66" transform="translate(818.107422 0)"/>
      <use xlink:href="#DejaVuSans-20" transform="translate(853.3125 0)"/>
      <use xlink:href="#DejaVuSans-72" transform="translate(885.099609 0)"/>
      <use xlink:href="#DejaVuSans-65" transform="translate(923.962891 0)"/>
      <use xlink:href="#DejaVuSans-6f" transform="translate(985.486328 0)"/>
      <use xlink:href="#DejaVuSans-63" transform="translate(1046.667969 0)"/>
      <use xlink:href="#DejaVuSans-6b" transform="translate(1101.648438 0)"/>
      <use xlink:href="#DejaVuSans-5f" transform="translate(1159.558594 0)"/>
      <use xlink:href="#DejaVuSans-70" transform="translate(1209.558594 0)"/>
      <use xlink:href="#DejaVuSans-72" transform="translate(1273.035156 0)"/>
      <use xlink:href="#DejaVuSans-6f" transform="translate(1311.898438 0)"/>
      <use xlink:href="#DejaVuSans-78" transform="translate(1369.955078 0)"/>
      <use xlink:href="#DejaVuSans-79" transform="translate(1429.134766 0)"/>
      <use xlink:href="#DejaVuSans-5f" transform="translate(1488.314453 0)"/>
      <use xlink:href="#DejaVuSans-6d" transform="translate(1538.314453 0)"/>
      <use xlink:href="#DejaVuSans-65" transform="translate(1635.726562 0)"/>
      <use xlink:href="#DejaVuSans-64" transform="translate(1697.25 0)"/>
      <use xlink:href="#DejaVuSans-69" transform="translate(1760.726562 0)"/>
      <use xlink:href="#DejaVuSans-61" transform="translate(1788.509766 0)"/>
      <use xlink:href="#DejaVuSans-6e" transform="translate(1849.789062 0)"/>
     </g>
    </g>
   </g>
   <g id="line2d_21">
    <path d="M 80.53892 270.441818 
L 80.634348 238.128585 
L 80.659796 240.541338 
L 80.681002 244.168585 
L 80.74038 252.053213 
L 80.81036 247.550638 
L 80.833687 247.192374 
L 80.984251 226.465615 
L 81.395652 181.821076 
L 81.408376 182.036158 
L 81.414737 182.1309 
L 81.433823 180.798295 
L 81.624679 171.866004 
L 81.62892 172.020813 
L 81.633161 172.033821 
L 81.652247 170.193668 
L 81.692539 168.534801 
L 81.745554 171.540345 
L 81.923687 179.778014 
L 81.771002 171.315141 
L 81.961858 178.255107 
L 82.086975 169.344367 
L 82.388103 153.407962 
L 82.608648 147.544316 
L 82.648939 148.216976 
L 82.765574 151.501741 
L 82.814348 149.636836 
L 82.880087 144.203783 
L 83.251196 122.1661 
L 83.429328 117.198166 
L 83.613823 111.525776 
L 83.77711 106.577307 
L 84.061274 98.839318 
L 84.065515 98.859143 
L 84.073998 98.778623 
L 84.103686 99.554485 
L 84.107927 99.649779 
L 84.18427 98.939757 
L 84.192752 99.077662 
L 84.25213 99.237216 
L 84.28818 98.954657 
L 84.498122 93.765119 
L 85.136429 75.572076 
L 85.806546 51.202012 
L 86.22855 48.894539 
L 86.307013 49.207479 
L 86.311254 49.217908 
L 86.343063 48.960477 
L 86.353666 48.886031 
L 86.419406 49.240309 
L 86.516954 49.782064 
L 86.561487 49.501468 
L 87.165865 45.442576 
L 87.257051 46.036888 
L 87.269775 46.048624 
L 87.297343 45.919691 
L 87.657849 42.907709 
L 87.689658 42.955131 
L 87.732071 43.088848 
L 87.780845 42.889705 
L 88.092576 39.68504 
L 88.134989 39.734626 
L 88.236779 39.236025 
L 88.353413 39.085379 
L 88.315242 39.307146 
L 88.361895 39.10582 
L 88.465806 39.611611 
L 88.525183 39.374121 
L 88.694833 38.478182 
L 88.745728 38.847053 
L 89.034133 40.97307 
L 89.082907 40.815031 
L 89.199541 40.564179 
L 89.216506 40.754966 
L 89.284366 41.26751 
L 89.350105 41.027798 
L 89.498549 40.612207 
L 89.831487 39.588675 
L 89.835728 39.590404 
L 89.901467 39.735 
L 90.170786 40.697287 
L 90.18563 40.688578 
L 90.208957 40.592977 
L 90.272576 40.341447 
L 90.491 39.482729 
L 90.507965 39.424604 
L 90.535533 39.629839 
L 90.624599 39.561578 
L 90.686097 39.891361 
L 90.713665 40.004127 
L 90.874833 40.940948 
L 91.125066 43.647553 
L 91.228977 44.936382 
L 91.678548 50.214858 
L 92.041175 52.60824 
L 92.253237 54.501383 
L 92.340183 54.17866 
L 92.376233 53.945446 
L 92.435611 54.255569 
L 92.783393 57.042492 
L 92.974249 58.674544 
L 92.98061 58.664554 
L 93.04847 58.645927 
L 93.078159 58.707598 
L 93.472595 60.425861 
L 93.476836 60.419187 
L 93.69526 59.94226 
L 93.746155 60.161022 
L 93.750396 60.165952 
L 93.784326 60.038597 
L 93.879754 59.572302 
L 93.949735 59.594822 
L 94.053645 59.806971 
L 94.085455 59.655603 
L 94.503217 57.249899 
L 94.528665 57.23592 
L 94.588042 57.322123 
L 94.611369 57.356968 
L 94.672867 57.181788 
L 94.838275 56.44707 
L 95.031252 55.789828 
L 95.188178 54.927228 
L 95.304812 54.319787 
L 95.372672 54.444541 
L 95.417205 54.525741 
L 95.493548 54.435387 
L 95.924034 53.35528 
L 95.947361 53.41476 
L 96.023703 53.705677 
L 96.119131 53.67227 
L 96.186991 53.685498 
L 96.235765 53.635615 
L 96.426621 53.412302 
L 96.473275 53.472791 
L 96.704423 54.513259 
L 96.83166 55.237632 
L 96.878314 55.198597 
L 96.931329 55.198521 
L 96.971621 55.270764 
L 97.016154 55.261703 
L 97.041602 55.170409 
L 97.13703 54.91942 
L 97.194287 54.991027 
L 97.522983 55.759944 
L 97.58024 55.632781 
L 97.781699 54.77281 
L 98.131602 54.485387 
L 98.275804 54.391983 
L 98.301251 54.542019 
L 98.642671 56.116264 
L 98.67024 56.073797 
L 98.725376 55.978618 
L 98.752944 56.169412 
L 99.005298 57.131164 
L 99.066796 57.284358 
L 99.100726 57.08292 
L 99.603313 54.789011 
L 99.633002 54.749128 
L 99.696621 54.856994 
L 99.927768 55.344437 
L 99.991387 55.33534 
L 100.010473 55.26119 
L 100.320084 53.989056 
L 100.354014 54.061404 
L 100.451562 54.159696 
L 100.483371 54.101245 
L 100.502457 54.07512 
L 100.527905 54.136638 
L 100.576679 54.158712 
L 100.583041 54.171441 
L 100.655142 54.072906 
L 100.845998 53.828025 
L 100.894772 53.954881 
L 101.009286 54.153168 
L 101.036854 54.123452 
L 101.282846 54.033396 
L 101.36555 54.13295 
L 101.8745 55.634743 
L 101.897826 55.671989 
L 101.999616 55.357141 
L 102.203196 54.646773 
L 102.25197 54.734869 
L 102.438585 54.910751 
L 102.48948 54.850048 
L 102.59339 54.425056 
L 102.767282 53.384627 
L 103.013274 52.559837 
L 103.416192 51.374656 
L 103.566756 51.251399 
L 103.74913 50.742236 
L 103.850919 50.840794 
L 103.948468 50.912887 
L 103.997242 50.859961 
L 104.268682 50.581092 
L 104.308974 50.674789 
L 104.427729 50.665474 
L 104.429849 50.659158 
L 104.571931 50.372108 
L 104.586775 50.405484 
L 104.985452 51.181221 
L 105.121172 51.273948 
L 105.212359 51.543831 
L 105.600433 52.656561 
L 105.613156 52.672266 
L 105.664051 52.525979 
L 105.850666 51.955711 
L 105.880355 51.992554 
L 106.206931 52.607716 
L 106.319324 52.80204 
L 106.351133 52.787045 
L 106.561074 52.886038 
L 106.722242 53.734354 
L 106.775257 53.697646 
L 107.237553 53.195249 
L 107.479304 52.796802 
L 107.610782 52.89978 
L 107.744382 53.026168 
L 107.67228 52.818166 
L 107.769829 52.983654 
L 107.981891 52.784335 
L 108.026424 52.859974 
L 108.096405 52.902203 
L 108.136697 52.850333 
L 108.230004 52.849686 
L 108.170627 52.893609 
L 108.253331 52.899663 
L 108.338156 53.026153 
L 108.408136 52.976046 
L 108.486599 52.816227 
L 108.65837 52.514147 
L 108.934051 52.268781 
L 108.957377 52.294021 
L 109.044323 52.218437 
L 109.574479 50.779587 
L 109.939226 49.868743 
L 109.949829 49.900602 
L 110.168253 50.584431 
L 110.208545 50.542638 
L 110.352747 50.201762 
L 110.689926 49.326455 
L 110.961365 49.341056 
L 111.273097 50.249006 
L 111.383369 50.080982 
L 111.413058 50.077905 
L 111.45547 50.176799 
L 111.595431 50.511408 
L 111.652688 50.42187 
L 111.678136 50.45677 
L 111.697221 50.523859 
L 111.89868 50.826478 
L 112.755412 53.146474 
L 112.846598 53.257164 
L 113.020489 53.383848 
L 113.101073 53.496848 
L 113.368271 54.676022 
L 113.758466 56.546888 
L 113.979011 57.490852 
L 114.038388 57.39766 
L 114.144419 57.228401 
L 114.193193 57.271204 
L 114.299225 57.18171 
L 114.513407 57.047771 
L 114.517649 57.050868 
L 114.721228 57.193235 
L 114.778485 57.105599 
L 114.842104 57.017653 
L 114.89724 57.124434 
L 115.094458 57.327053 
L 115.115664 57.307771 
L 115.130508 57.308836 
L 115.172921 57.404364 
L 115.796384 59.120707 
L 115.806987 59.111952 
L 116.0551 58.998495 
L 116.114477 58.841503 
L 116.201423 58.690154 
L 116.254438 58.733334 
L 116.407123 59.162261 
L 116.678563 59.837152 
L 116.983932 59.881821 
L 117.168426 59.642306 
L 117.238407 59.721224 
L 117.378368 59.682645 
L 118.173601 58.625823 
L 118.209652 58.660204 
L 118.232979 58.670982 
L 118.292356 58.584966 
L 118.326286 58.567832 
L 118.381422 58.647572 
L 118.661344 58.915253 
L 118.663465 58.912579 
L 118.739807 58.764805 
L 118.799185 58.916018 
L 119.036694 59.192215 
L 119.060021 59.177346 
L 119.108796 59.278578 
L 119.312375 59.480329 
L 119.80436 59.973637 
L 119.808601 59.960603 
L 119.87434 59.856299 
L 119.948562 59.881964 
L 120.099126 59.882148 
L 120.107609 59.855943 
L 120.228484 59.714023 
L 120.28362 59.758183 
L 120.415099 59.852903 
L 120.65685 60.30132 
L 121.080974 60.488681 
L 121.307881 61.321549 
L 121.604768 62.138949 
L 121.984359 62.384636 
L 122.084028 62.352645 
L 122.096752 62.320325 
L 122.482705 61.402265 
L 122.525118 61.425813 
L 122.597219 61.568176 
L 122.847452 61.84836 
L 122.945001 61.844801 
L 122.970448 61.799173 
L 123.184631 61.681992 
L 123.441227 61.5262 
L 123.576946 61.375052 
L 123.912005 60.555281 
L 124.037121 60.498606 
L 124.062569 60.543488 
L 124.599086 61.789901 
L 124.745409 62.256297 
L 124.792063 62.187114 
L 125.15681 62.224171 
L 125.167413 62.186808 
L 125.487627 61.46061 
L 126.176829 60.82266 
L 126.439786 60.442091 
L 126.639125 60.358807 
L 126.99963 60.564181 
L 127.285914 60.99709 
L 127.345292 61.004174 
L 127.385584 60.941694 
L 127.54463 60.909248 
L 127.625214 60.816431 
L 127.864844 60.425858 
L 127.900895 60.464622 
L 128.08963 60.518108 
L 128.233833 60.619429 
L 128.505272 61.226042 
L 128.829727 62.10998 
L 129.266576 62.302101 
L 129.648287 62.241209 
L 129.739474 62.244796 
L 129.76068 62.25821 
L 129.866712 62.196668 
L 129.99819 61.963564 
L 130.375661 60.463931 
L 130.895213 59.633882 
L 130.912178 59.653907 
L 131.607742 60.704859 
L 131.923715 61.028601 
L 132.169707 61.091834 
L 133.813189 63.722648 
L 133.864084 63.686278 
L 133.959512 63.57655 
L 134.290329 63.308664 
L 134.336983 63.409671 
L 135.140699 64.92733 
L 135.284901 64.838237 
L 135.325193 64.840097 
L 135.373967 64.910411 
L 136.126788 66.561619 
L 137.08743 69.477218 
L 137.63243 70.556497 
L 138.387371 70.818918 
L 138.991749 71.535374 
L 139.03204 71.465488 
L 139.462527 70.918295 
L 139.515542 70.961138 
L 139.878169 71.237117 
L 140.081748 71.133956 
L 140.107196 71.190109 
L 140.270484 71.259117 
L 140.635231 71.227932 
L 140.879102 71.170573 
L 141.012701 71.160535 
L 141.021184 71.149247 
L 141.118733 71.064702 
L 141.17811 71.116602 
L 141.8249 71.876831 
L 142.022118 72.073345 
L 142.172682 71.952868 
L 142.331728 71.875181 
L 142.545911 72.023548 
L 142.656184 72.182566 
L 143.105755 72.583133 
L 143.241475 72.650865 
L 144.11093 73.576462 
L 144.602915 74.512001 
L 144.708946 74.44443 
L 145.007953 74.158037 
L 145.292117 73.960913 
L 145.332409 73.968453 
L 145.37058 74.036505 
L 145.514782 74.047133 
L 146.159451 74.139407 
L 146.420288 74.147094 
L 146.785035 73.768185 
L 147.011941 73.286189 
L 147.056474 73.345204 
L 148.481533 73.939701 
L 148.829315 73.686186 
L 148.967155 73.515876 
L 149.1877 73.204192 
L 149.52912 72.750941 
L 149.580015 72.850012 
L 149.749665 72.918477 
L 149.758147 72.907515 
L 149.949003 72.838211 
L 150.392213 73.062504 
L 150.578828 73.103986 
L 150.990228 72.762696 
L 151.231979 72.43787 
L 151.634898 71.634383 
L 152.266843 69.760097 
L 153.41622 67.907274 
L 153.848827 67.647581 
L 153.863671 67.667172 
L 153.99515 67.699329 
L 154.014236 67.682493 
L 154.179644 67.373317 
L 154.408671 67.000169 
L 154.764936 66.602726 
L 154.81159 66.661109 
L 155.25692 66.863984 
L 155.591978 66.895181 
L 155.97157 67.245598 
L 155.97369 67.242205 
L 156.028827 67.207821 
L 156.090325 67.263938 
L 156.660772 67.987134 
L 156.845266 68.013469 
L 157.173963 68.226816 
L 157.212134 68.169451 
L 157.5069 67.883143 
L 157.523865 67.898637 
L 157.763496 67.982109 
L 157.765616 67.979175 
L 158.121881 67.548074 
L 158.304254 67.571618 
L 158.384838 67.604492 
L 158.431492 67.573142 
L 158.700811 67.497723 
L 158.885305 67.445977 
L 159.258534 67.032166 
L 159.419701 66.995936 
L 159.775966 67.11559 
L 160.543631 66.604926 
L 160.800226 66.694528 
L 161.073787 66.792414 
L 161.637872 66.41204 
L 162.21044 65.622546 
L 162.356763 65.482789 
L 162.539137 65.412674 
L 162.8233 65.878702 
L 163.045965 66.093912 
L 163.213494 66.178842 
L 163.533708 66.428005 
L 163.87937 66.561162 
L 164.05114 66.623455 
L 164.059623 66.61343 
L 164.263202 66.514086 
L 164.275926 66.530475 
L 164.680965 66.935128 
L 165.00542 66.895645 
L 165.196276 66.886679 
L 165.31079 66.833245 
L 165.840945 66.483984 
L 166.716762 65.510496 
L 166.977599 65.504496 
L 167.342346 65.625074 
L 167.433532 65.532414 
L 167.550167 65.569473 
L 167.702851 65.562319 
L 168.137579 65.294854 
L 168.286022 65.330357 
L 168.485361 65.461102 
L 168.498085 65.450472 
L 168.708026 65.383929 
L 169.113065 65.437633 
L 169.636859 65.010927 
L 170.143687 64.847704 
L 170.249719 64.887909 
L 170.25396 64.893709 
L 170.461781 65.017706 
L 170.614466 65.007701 
L 170.633551 65.040512 
L 170.888026 65.292778 
L 171.437267 65.887033 
L 171.6875 65.863409 
L 172.495457 65.088325 
L 172.499699 65.094845 
L 173.267364 66.071619 
L 173.485788 66.066139 
L 173.632111 66.089863 
L 173.803881 66.28843 
L 174.270418 66.757941 
L 174.800574 66.680221 
L 175.072013 66.843494 
L 175.627616 66.829598 
L 175.858764 66.883082 
L 176.32318 66.903254 
L 176.480106 66.961554 
L 176.692169 67.13829 
L 176.808803 67.086414 
L 177.001779 67.144036 
L 177.218083 67.183932 
L 177.387733 67.226845 
L 177.646449 67.288936 
L 177.879717 67.357279 
L 178.594367 67.995194 
L 178.999405 67.797339 
L 179.482907 67.459376 
L 179.650436 67.436133 
L 180.03851 67.334953 
L 181.016117 66.93124 
L 181.336331 66.639344 
L 181.556876 66.66817 
L 181.792265 66.694512 
L 182.309697 66.610191 
L 182.948004 66.29908 
L 183.420903 66.495857 
L 184.082537 66.334589 
L 184.540591 66.55989 
L 184.913821 66.761448 
L 185.164054 66.882127 
L 186.097128 67.134653 
L 186.58063 66.953434 
L 187.047166 67.337461 
L 187.352536 67.162396 
L 187.611252 67.002828 
L 187.819073 66.978896 
L 188.334384 66.633765 
L 188.631271 66.452696 
L 188.896349 66.496758 
L 189.806096 67.126204 
L 190.175084 66.956732 
L 190.304442 66.905843 
L 190.329889 66.931614 
L 190.567399 67.066795 
L 190.584364 67.048677 
L 190.915181 66.670184 
L 191.294772 66.281458 
L 192.497165 66.714079 
L 192.970064 66.525009 
L 193.241504 66.486893 
L 194.062184 65.957617 
L 194.670803 65.62083 
L 195.561464 65.997102 
L 195.782009 66.046588 
L 195.964382 66.040926 
L 196.343974 66.063048 
L 196.562398 66.163007 
L 196.566639 66.158747 
L 196.761736 66.139526 
L 197.094674 66.186356 
L 197.28553 66.165949 
L 197.752067 66.091647 
L 197.870822 66.022512 
L 198.065919 65.960013 
L 198.909927 66.000515 
L 199.130471 66.088779 
L 199.726366 66.11847 
L 199.953273 66.021615 
L 200.044459 65.932973 
L 200.337105 65.768181 
L 200.602183 65.685058 
L 200.818486 65.834872 
L 201.20656 66.072051 
L 201.986949 66.201286 
L 202.211735 66.275742 
L 202.457727 66.107818 
L 202.66979 65.995409 
L 203.443817 65.989561 
L 203.778875 65.62023 
L 204.080003 65.265847 
L 204.451112 65.188767 
L 204.644089 65.189153 
L 204.856151 65.296927 
L 205.172124 65.441119 
L 205.859205 65.541959 
L 206.276968 65.285423 
L 206.874983 64.614731 
L 207.059477 64.352209 
L 207.475119 63.84964 
L 208.906539 62.896232 
L 209.852337 62.175101 
L 210.37613 62.2966 
L 210.554263 62.320609 
L 210.770566 62.291715 
L 211.338893 62.413128 
L 211.784223 62.688545 
L 212.163815 62.532182 
L 213.188075 62.462332 
L 213.482842 62.536741 
L 213.8179 62.631711 
L 214.239904 62.775334 
L 214.693717 62.351403 
L 214.893055 62.358229 
L 215.090273 62.301301 
L 215.459262 62.061105 
L 215.690409 61.994551 
L 217.22574 61.393337 
L 217.461129 61.423471 
L 217.647744 61.482776 
L 217.989164 61.599657 
L 218.873463 61.904233 
L 219.263658 62.348298 
L 219.653852 62.676349 
L 220.080097 62.767675 
L 220.483015 62.623202 
L 220.616615 62.648371 
L 220.792626 62.64657 
L 221.445778 62.414917 
L 222.026828 62.433047 
L 222.213443 62.429995 
L 222.609999 62.246549 
L 222.775408 62.218547 
L 223.280116 62.02042 
L 223.683034 61.722199 
L 223.990524 61.603993 
L 224.230155 61.696498 
L 224.777275 61.550079 
L 225.212003 61.521472 
L 225.460115 61.555908 
L 225.754882 61.617945 
L 226.844882 62.142777 
L 227.097236 61.968686 
L 227.360193 61.846615 
L 227.584979 61.875913 
L 227.89459 61.857654 
L 228.093928 61.761554 
L 228.596516 61.580276 
L 228.797975 61.627018 
L 229.355698 61.715933 
L 230.140328 61.41019 
L 230.708655 61.400325 
L 230.914356 61.510588 
L 231.336359 61.42147 
L 231.98739 61.215037 
L 232.146437 61.169421 
L 232.489978 60.936056 
L 232.708402 60.848587 
L 233.075269 60.928381 
L 233.495153 61.132101 
L 233.76023 61.239027 
L 234.059238 61.089934 
L 234.37309 60.939931 
L 234.871436 60.932173 
L 235.187409 60.926862 
L 235.569121 60.767016 
L 236.050502 60.460649 
L 236.201066 60.386478 
L 236.816047 60.337745 
L 237.426786 60.494672 
L 237.683381 60.542356 
L 237.956942 60.580286 
L 238.578284 60.244552 
L 239.369276 60.736952 
L 239.572856 60.785638 
L 240.06484 60.729258 
L 241.335093 61.149459 
L 241.827077 61.440942 
L 242.219392 61.431712 
L 242.834372 61.623202 
L 243.453594 61.86236 
L 243.973147 62.26121 
L 244.414236 62.650258 
L 244.675072 62.780009 
L 245.07587 62.875946 
L 245.461823 62.746272 
L 245.881706 62.513305 
L 246.592115 62.559529 
L 246.802056 62.571818 
L 247.113788 62.722713 
L 247.671512 62.688109 
L 247.925986 62.838349 
L 248.157134 62.960202 
L 249.482523 62.953251 
L 249.938457 62.750182 
L 250.472853 62.594372 
L 250.723087 62.581837 
L 250.981803 62.652243 
L 251.232036 62.595307 
L 252.461997 63.232464 
L 252.835226 63.340422 
L 253.301763 63.310371 
L 253.797989 63.208793 
L 254.183942 63.123515 
L 254.421452 63.081523 
L 254.754389 62.927442 
L 255.176393 62.965709 
L 255.765926 62.704278 
L 256.518747 62.264165 
L 257.366996 61.899231 
L 258.764486 62.012293 
L 259.298883 61.984445 
L 259.568202 61.983868 
L 259.909622 62.016116 
L 260.325264 62.017464 
L 261.684582 61.844032 
L 262.172326 61.719173 
L 262.952714 61.704656 
L 263.323823 61.494295 
L 263.671605 61.643128 
L 263.853979 61.63851 
L 264.490166 61.555739 
L 265.047889 61.71521 
L 266.307539 61.760666 
L 267.011585 61.719351 
L 267.526896 62.094432 
L 267.719873 62.210401 
L 267.893764 62.227428 
L 268.343336 62.229203 
L 268.686877 62.111801 
L 268.90318 62.129626 
L 269.488472 62.07973 
L 269.679328 62.124956 
L 269.971974 62.194117 
L 270.321876 62.108503 
L 271.129833 61.899213 
L 271.831759 61.469624 
L 272.033218 61.386175 
L 272.597304 61.183988 
L 273.212284 61.076114 
L 274.25351 60.888866 
L 274.874852 60.989886 
L 275.776116 61.034686 
L 276.280825 60.87309 
L 276.895805 60.994699 
L 277.141797 61.050816 
L 277.956116 61.026209 
L 278.233917 60.909508 
L 278.543528 60.849004 
L 279.739559 60.637811 
L 279.951621 60.614108 
L 280.555999 60.526939 
L 280.79987 60.521335 
L 281.228236 60.661575 
L 281.637516 60.432631 
L 282.012866 60.337844 
L 282.324598 60.325224 
L 282.803858 60.471543 
L 283.043488 60.507063 
L 283.938391 60.469239 
L 284.449461 60.1776 
L 285.282865 60.012146 
L 285.802418 60.019086 
L 286.277437 59.861 
L 287.47983 60.050354 
L 287.749149 60.133518 
L 289.123312 60.071953 
L 290.592903 60.352908 
L 290.802845 60.37445 
L 291.212125 60.370626 
L 293.283973 59.862479 
L 294.096171 60.068542 
L 294.401541 60.090882 
L 295.90082 60.272867 
L 296.136209 60.283205 
L 296.450061 60.29199 
L 296.897513 60.420859 
L 297.902688 60.840723 
L 298.180489 60.915056 
L 298.600372 60.851637 
L 300.116617 61.298642 
L 300.924574 60.763557 
L 301.238426 60.799828 
L 301.497142 60.667178 
L 302.457784 60.363343 
L 302.75255 60.322963 
L 303.132142 60.191239 
L 304.631422 60.073268 
L 304.907102 60.108347 
L 305.394846 60.110781 
L 306.02255 60.057962 
L 306.46576 59.990652 
L 306.961985 59.69248 
L 307.49002 59.598725 
L 307.812355 59.661123 
L 308.039261 59.650343 
L 308.454903 59.589983 
L 308.726343 59.559476 
L 309.440993 59.550923 
L 309.765448 59.772406 
L 310.348619 59.946718 
L 310.747296 59.960182 
L 310.997529 59.919408 
L 311.283813 59.881651 
L 311.669766 59.887546 
L 312.08965 59.889057 
L 312.39926 59.942079 
L 312.768249 59.879792 
L 313.194494 59.819632 
L 313.680116 59.712088 
L 313.919747 59.642547 
L 314.765875 59.177027 
L 315.310875 59.109218 
L 317.395446 59.023132 
L 317.942567 59.124232 
L 318.901088 58.975377 
L 319.732372 59.099955 
L 320.217994 59.125207 
L 320.396126 59.042503 
L 320.762994 58.934194 
L 321.732118 58.940654 
L 321.971749 58.874651 
L 322.31741 58.744343 
L 324.030873 58.61263 
L 324.421067 58.52518 
L 324.70311 58.516675 
L 325.245989 58.655999 
L 326.051826 58.730208 
L 326.369919 58.636347 
L 326.912798 58.391926 
L 327.794977 58.302359 
L 328.250911 58.273168 
L 328.702603 58.163694 
L 329.5763 58.276255 
L 330.486046 58.389954 
L 330.761727 58.311532 
L 331.421241 58.330393 
L 331.6227 58.378987 
L 332.988381 58.60796 
L 333.236493 58.6256 
L 333.662738 58.610017 
L 335.617952 58.184198 
L 336.546785 58.382826 
L 337.310208 58.430365 
L 337.65799 58.478963 
L 337.914586 58.542554 
L 338.432018 58.556733 
L 339.231492 58.676797 
L 340.421161 59.100245 
L 340.633223 59.106852 
L 341.074313 59.084806 
L 341.483593 59.243253 
L 341.920441 59.364775 
L 342.25762 59.431632 
L 342.465441 59.470123 
L 342.76869 59.286136 
L 343.351861 59.019341 
L 343.72509 59.032722 
L 344.600907 58.721236 
L 346.630343 58.612409 
L 346.959039 58.623135 
L 349.225984 58.594145 
L 350.146334 58.657596 
L 350.786762 58.632125 
L 351.350848 58.778751 
L 351.906451 58.789907 
L 352.676236 58.671922 
L 353.842579 58.580088 
L 354.2561 58.567609 
L 354.941061 58.539928 
L 355.547559 58.351744 
L 356.421255 58.168237 
L 357.123181 58.24085 
L 357.617286 58.218739 
L 357.886605 58.19378 
L 358.505827 58.145583 
L 358.972363 57.927179 
L 359.621274 57.897846 
L 360.702791 58.082907 
L 361.847927 57.916833 
L 362.556215 57.767174 
L 363.063043 57.651423 
L 363.718316 57.416571 
L 365.043705 57.186559 
L 365.921642 57.187485 
L 366.29063 57.106768 
L 368.449424 56.825335 
L 368.837498 56.890545 
L 369.193762 56.965507 
L 369.501252 56.948384 
L 370.504306 56.83617 
L 372.01631 56.78358 
L 372.750045 56.744333 
L 374.81129 57.175894 
L 376.967963 57.076995 
L 377.26697 57.114446 
L 379.724771 57.501973 
L 380.710861 57.787599 
L 381.168915 57.945847 
L 381.713915 58.14685 
L 382.199537 58.199443 
L 382.850568 58.3093 
L 383.285296 58.270845 
L 383.618234 58.222549 
L 384.033876 58.215645 
L 384.858798 58.220145 
L 385.113272 58.177959 
L 385.543759 58.028247 
L 386.648603 58.025392 
L 387.284789 58.117959 
L 391.638427 58.051058 
L 392.015897 57.999975 
L 392.317026 57.972172 
L 392.543932 58.078815 
L 392.872629 58.18266 
L 393.659379 58.339593 
L 394.068659 58.381368 
L 394.539438 58.471415 
L 394.908426 58.451345 
L 395.184107 58.492139 
L 395.975099 58.757595 
L 397.726733 59.376153 
L 399.775254 59.453457 
L 400.048814 59.525263 
L 400.75074 59.476734 
L 402.440876 59.693471 
L 402.971031 59.889106 
L 403.935914 60.144829 
L 405.199805 60.136257 
L 405.916575 59.962484 
L 406.913268 59.980616 
L 408.304396 59.981239 
L 409.131438 59.900865 
L 409.996652 60.12449 
L 410.509843 60.135246 
L 411.364453 60.11682 
L 411.748286 60.107978 
L 412.764064 59.961491 
L 413.169103 60.037737 
L 413.786204 60.063716 
L 415.622663 60.024027 
L 416.157059 60.057469 
L 417.287351 60.241011 
L 418.040172 60.192004 
L 418.667876 60.221479 
L 419.113207 60.135389 
L 419.507642 60.194955 
L 419.910561 60.195175 
L 420.667623 60.172996 
L 421.329257 60.313588 
L 421.772467 60.2647 
L 423.000307 60.390571 
L 425.409334 60.115518 
L 425.939489 60.24474 
L 427.074022 59.994649 
L 427.515112 59.95649 
L 427.898944 59.924644 
L 428.310345 59.803494 
L 428.535131 59.845378 
L 429.436395 59.912297 
L 430.437329 59.823248 
L 431.841181 60.070387 
L 432.630052 60.042866 
L 433.13264 60.083049 
L 433.54404 60.054454 
L 434.591628 59.707875 
L 436.557444 59.421731 
L 437.151218 59.252313 
L 437.897677 59.172435 
L 438.220012 59.078573 
L 438.633533 59.104217 
L 440.096763 59.400722 
L 440.783844 59.535261 
L 441.92898 59.50377 
L 442.350984 59.39217 
L 445.324096 59.606921 
L 445.750341 59.676504 
L 446.795808 59.330014 
L 448.297208 59.457132 
L 449.196352 59.440674 
L 450.218492 59.111129 
L 450.952227 59.069281 
L 451.550243 59.00436 
L 452.099484 58.883644 
L 452.42606 58.814243 
L 453.320962 58.742361 
L 454.139522 58.836181 
L 454.553044 58.816841 
L 455.074717 58.790464 
L 455.986584 58.629498 
L 456.953588 58.860953 
L 458.491039 59.212328 
L 459.818548 59.566251 
L 460.159968 59.475748 
L 462.032478 59.185995 
L 462.965552 59.119461 
L 463.385435 59.112454 
L 465.631174 59.172397 
L 466.174053 59.174735 
L 466.50487 59.120264 
L 466.878099 59.061458 
L 470.839421 58.911677 
L 471.14055 58.826039 
L 471.791581 58.74898 
L 472.512592 58.786246 
L 472.849771 58.784379 
L 473.999148 58.676462 
L 474.896172 58.686565 
L 475.682922 58.639506 
L 477.665704 58.60218 
L 480.108661 58.335541 
L 480.568836 58.426729 
L 481.105353 58.356381 
L 482.358641 58.412893 
L 482.801851 58.307938 
L 483.397746 58.097106 
L 484.860975 57.991159 
L 486.093056 57.959251 
L 486.629574 57.944131 
L 487.596577 57.909226 
L 488.841383 57.768474 
L 489.363056 57.726612 
L 490.200701 57.806212 
L 490.764787 57.822284 
L 491.063795 57.784742 
L 491.52397 57.772796 
L 492.198327 57.889221 
L 492.756051 57.989474 
L 495.256265 58.290127 
L 495.951829 58.336025 
L 496.172373 58.296793 
L 497.113929 58.170038 
L 497.90068 58.308375 
L 499.438131 58.565837 
L 500.35424 58.687066 
L 501.643578 58.680547 
L 502.485465 58.845237 
L 503.070757 58.834814 
L 503.304025 58.701894 
L 503.709064 58.599423 
L 504.152274 58.653337 
L 504.601846 58.71186 
L 507.428635 58.905286 
L 507.9906 58.965714 
L 512.354841 59.40531 
L 513.130988 59.591573 
L 516.286474 59.416508 
L 517.232272 59.419276 
L 517.845131 59.44636 
L 519.863964 59.433666 
L 522.779819 59.625847 
L 523.496589 59.526496 
L 525.960752 59.343521 
L 526.255519 59.273093 
L 526.692367 59.178755 
L 527.18011 59.141785 
L 529.724856 59.201511 
L 530.140498 59.193448 
L 531.550712 59.330186 
L 533.743435 59.485926 
L 534.617132 59.487082 
L 539.606955 59.227767 
L 540.005632 59.269751 
L 540.78178 59.166355 
L 541.712733 58.983156 
L 542.317111 59.013091 
L 542.796371 58.995878 
L 545.508647 58.926794 
L 546.649542 58.949366 
L 547.183938 59.032699 
L 548.061876 58.97347 
L 550.712654 58.826556 
L 552.358256 59.009779 
L 554.311349 58.864214 
L 554.896641 58.792349 
L 556.113878 58.648854 
L 559.356309 58.545355 
L 560.635044 58.338155 
L 566.091405 58.185164 
L 567.620374 58.410909 
L 574.018291 58.34714 
L 574.453018 58.273794 
L 575.03831 58.348049 
L 575.827181 58.389515 
L 578.185313 58.335715 
L 579.805468 58.475991 
L 580.318659 58.409021 
L 580.719457 58.388635 
L 581.266577 58.400943 
L 582.986402 58.175605 
L 583.378717 58.194225 
L 584.502646 58.102255 
L 585.283035 58.025927 
L 585.87681 57.979581 
L 586.86714 57.87227 
L 587.217043 57.885153 
L 587.999552 57.936447 
L 588.555155 57.931367 
L 589.445817 57.946195 
L 590.177431 58.025554 
L 591.008715 58.10826 
L 592.703092 58.106796 
L 593.608598 58.058626 
L 596.706827 57.969632 
L 597.258188 58.138569 
L 598.502994 58.065212 
L 598.954686 58.096757 
L 599.908966 58.054696 
L 600.411554 58.033231 
L 600.996845 58.021407 
L 604.11628 57.800557 
L 604.922117 57.820709 
L 607.119081 57.794768 
L 609.956474 58.101085 
L 610.52268 58.239549 
L 610.69233 58.216581 
L 610.69233 58.216581 
" clip-path="url(#p1a87abaa50)" style="fill: none; stroke: #1f2937; stroke-linecap: square"/>
   </g>
   <g id="line2d_22">
    <path d="M 54.03125 58.216581 
L 637.2 58.216581 
" clip-path="url(#p1a87abaa50)" style="fill: none; stroke-dasharray: 2.96,1.28; stroke-dashoffset: 0; stroke: #888888; stroke-width: 0.8"/>
   </g>
   <g id="patch_3">
    <path d="M 54.03125 282.04 
L 54.03125 26.88 
" style="fill: none; stroke: #000000; stroke-width: 0.8; stroke-linejoin: miter; stroke-linecap: square"/>
   </g>
   <g id="patch_4">
    <path d="M 637.2 282.04 
L 637.2 26.88 
" style="fill: none; stroke: #000000; stroke-width: 0.8; stroke-linejoin: miter; stroke-linecap: square"/>
   </g>
   <g id="patch_5">
    <path d="M 54.03125 282.04 
L 637.2 282.04 
" style="fill: none; stroke: #000000; stroke-width: 0.8; stroke-linejoin: miter; stroke-linecap: square"/>
   </g>
   <g id="patch_6">
    <path d="M 54.03125 26.88 
L 637.2 26.88 
" style="fill: none; stroke: #000000; stroke-width: 0.8; stroke-linejoin: miter; stroke-linecap: square"/>
   </g>
   <g id="text_13">
    <!-- Running mean — reock_proxy_median  (100k ReCom samples, seed 42) -->
    <g transform="translate(129.460937 20.88) scale(0.12 -0.12)">
     <defs>
      <path id="DejaVuSans-2014" d="M 313 1978 
L 6088 1978 
L 6088 1528 
L 313 1528 
L 313 1978 
z
" transform="scale(0.015625)"/>
      <path id="DejaVuSans-28" d="M 1984 4856 
Q 1566 4138 1362 3434 
Q 1159 2731 1159 2009 
Q 1159 1288 1364 580 
Q 1569 -128 1984 -844 
L 1484 -844 
Q 1016 -109 783 600 
Q 550 1309 550 2009 
Q 550 2706 781 3412 
Q 1013 4119 1484 4856 
L 1984 4856 
z
" transform="scale(0.015625)"/>
      <path id="DejaVuSans-43" d="M 4122 4306 
L 4122 3641 
Q 3803 3938 3442 4084 
Q 3081 4231 2675 4231 
Q 1875 4231 1450 3742 
Q 1025 3253 1025 2328 
Q 1025 1406 1450 917 
Q 1875 428 2675 428 
Q 3081 428 3442 575 
Q 3803 722 4122 1019 
L 4122 359 
Q 3791 134 3420 21 
Q 3050 -91 2638 -91 
Q 1578 -91 968 557 
Q 359 1206 359 2328 
Q 359 3453 968 4101 
Q 1578 4750 2638 4750 
Q 3056 4750 3426 4639 
Q 3797 4528 4122 4306 
z
" transform="scale(0.015625)"/>
      <path id="DejaVuSans-73" d="M 2834 3397 
L 2834 2853 
Q 2591 2978 2328 3040 
Q 2066 3103 1784 3103 
Q 1356 3103 1142 2972 
Q 928 2841 928 2578 
Q 928 2378 1081 2264 
Q 1234 2150 1697 2047 
L 1894 2003 
Q 2506 1872 2764 1633 
Q 3022 1394 3022 966 
Q 3022 478 2636 193 
Q 2250 -91 1575 -91 
Q 1294 -91 989 -36 
Q 684 19 347 128 
L 347 722 
Q 666 556 975 473 
Q 1284 391 1588 391 
Q 1994 391 2212 530 
Q 2431 669 2431 922 
Q 2431 1156 2273 1281 
Q 2116 1406 1581 1522 
L 1381 1569 
Q 847 1681 609 1914 
Q 372 2147 372 2553 
Q 372 3047 722 3315 
Q 1072 3584 1716 3584 
Q 2034 3584 2315 3537 
Q 2597 3491 2834 3397 
z
" transform="scale(0.015625)"/>
      <path id="DejaVuSans-2c" d="M 750 794 
L 1409 794 
L 1409 256 
L 897 -744 
L 494 -744 
L 750 256 
L 750 794 
z
" transform="scale(0.015625)"/>
      <path id="DejaVuSans-29" d="M 513 4856 
L 1013 4856 
Q 1481 4119 1714 3412 
Q 1947 2706 1947 2009 
Q 1947 1309 1714 600 
Q 1481 -109 1013 -844 
L 513 -844 
Q 928 -128 1133 580 
Q 1338 1288 1338 2009 
Q 1338 2731 1133 3434 
Q 928 4138 513 4856 
z
" transform="scale(0.015625)"/>
     </defs>
     <use xlink:href="#DejaVuSans-52"/>
     <use xlink:href="#DejaVuSans-75" transform="translate(64.982422 0)"/>
     <use xlink:href="#DejaVuSans-6e" transform="translate(128.361328 0)"/>
     <use xlink:href="#DejaVuSans-6e" transform="translate(191.740234 0)"/>
     <use xlink:href="#DejaVuSans-69" transform="translate(255.119141 0)"/>
     <use xlink:href="#DejaVuSans-6e" transform="translate(282.902344 0)"/>
     <use xlink:href="#DejaVuSans-67" transform="translate(346.28125 0)"/>
     <use xlink:href="#DejaVuSans-20" transform="translate(409.757812 0)"/>
     <use xlink:href="#DejaVuSans-6d" transform="translate(441.544922 0)"/>
     <use xlink:href="#DejaVuSans-65" transform="translate(538.957031 0)"/>
     <use xlink:href="#DejaVuSans-61" transform="translate(600.480469 0)"/>
     <use xlink:href="#DejaVuSans-6e" transform="translate(661.759766 0)"/>
     <use xlink:href="#DejaVuSans-20" transform="translate(725.138672 0)"/>
     <use xlink:href="#DejaVuSans-2014" transform="translate(756.925781 0)"/>
     <use xlink:href="#DejaVuSans-20" transform="translate(856.925781 0)"/>
     <use xlink:href="#DejaVuSans-72" transform="translate(888.712891 0)"/>
     <use xlink:href="#DejaVuSans-65" transform="translate(927.576172 0)"/>
     <use xlink:href="#DejaVuSans-6f" transform="translate(989.099609 0)"/>
     <use xlink:href="#DejaVuSans-63" transform="translate(1050.28125 0)"/>
     <use xlink:href="#DejaVuSans-6b" transform="translate(1105.261719 0)"/>
     <use xlink:href="#DejaVuSans-5f" transform="translate(1163.171875 0)"/>
     <use xlink:href="#DejaVuSans-70" transform="translate(1213.171875 0)"/>
     <use xlink:href="#DejaVuSans-72" transform="translate(1276.648438 0)"/>
     <use xlink:href="#DejaVuSans-6f" transform="translate(1315.511719 0)"/>
     <use xlink:href="#DejaVuSans-78" transform="translate(1373.568359 0)"/>
     <use xlink:href="#DejaVuSans-79" transform="translate(1432.748047 0)"/>
     <use xlink:href="#DejaVuSans-5f" transform="translate(1491.927734 0)"/>
     <use xlink:href="#DejaVuSans-6d" transform="translate(1541.927734 0)"/>
     <use xlink:href="#DejaVuSans-65" transform="translate(1639.339844 0)"/>
     <use xlink:href="#DejaVuSans-64" transform="translate(1700.863281 0)"/>
     <use xlink:href="#DejaVuSans-69" transform="translate(1764.339844 0)"/>
     <use xlink:href="#DejaVuSans-61" transform="translate(1792.123047 0)"/>
     <use xlink:href="#DejaVuSans-6e" transform="translate(1853.402344 0)"/>
     <use xlink:href="#DejaVuSans-20" transform="translate(1916.78125 0)"/>
     <use xlink:href="#DejaVuSans-20" transform="translate(1948.568359 0)"/>
     <use xlink:href="#DejaVuSans-28" transform="translate(1980.355469 0)"/>
     <use xlink:href="#DejaVuSans-31" transform="translate(2019.369141 0)"/>
     <use xlink:href="#DejaVuSans-30" transform="translate(2082.992188 0)"/>
     <use xlink:href="#DejaVuSans-30" transform="translate(2146.615234 0)"/>
     <use xlink:href="#DejaVuSans-6b" transform="translate(2210.238281 0)"/>
     <use xlink:href="#DejaVuSans-20" transform="translate(2268.148438 0)"/>
     <use xlink:href="#DejaVuSans-52" transform="translate(2299.935547 0)"/>
     <use xlink:href="#DejaVuSans-65" transform="translate(2364.917969 0)"/>
     <use xlink:href="#DejaVuSans-43" transform="translate(2426.441406 0)"/>
     <use xlink:href="#DejaVuSans-6f" transform="translate(2496.265625 0)"/>
     <use xlink:href="#DejaVuSans-6d" transform="translate(2557.447266 0)"/>
     <use xlink:href="#DejaVuSans-20" transform="translate(2654.859375 0)"/>
     <use xlink:href="#DejaVuSans-73" transform="translate(2686.646484 0)"/>
     <use xlink:href="#DejaVuSans-61" transform="translate(2738.746094 0)"/>
     <use xlink:href="#DejaVuSans-6d" transform="translate(2800.025391 0)"/>
     <use xlink:href="#DejaVuSans-70" transform="translate(2897.4375 0)"/>
     <use xlink:href="#DejaVuSans-6c" transform="translate(2960.914062 0)"/>
     <use xlink:href="#DejaVuSans-65" transform="translate(2988.697266 0)"/>
     <use xlink:href="#DejaVuSans-73" transform="translate(3050.220703 0)"/>
     <use xlink:href="#DejaVuSans-2c" transform="translate(3102.320312 0)"/>
     <use xlink:href="#DejaVuSans-20" transform="translate(3134.107422 0)"/>
     <use xlink:href="#DejaVuSans-73" transform="translate(3165.894531 0)"/>
     <use xlink:href="#DejaVuSans-65" transform="translate(3217.994141 0)"/>
     <use xlink:href="#DejaVuSans-65" transform="translate(3279.517578 0)"/>
     <use xlink:href="#DejaVuSans-64" transform="translate(3341.041016 0)"/>
     <use xlink:href="#DejaVuSans-20" transform="translate(3404.517578 0)"/>
     <use xlink:href="#DejaVuSans-34" transform="translate(3436.304688 0)"/>
     <use xlink:href="#DejaVuSans-32" transform="translate(3499.927734 0)"/>
     <use xlink:href="#DejaVuSans-29" transform="translate(3563.550781 0)"/>
    </g>
   </g>
   <g id="legend_1">
    <g id="patch_7">
     <path d="M 496.306406 47.290312 
L 630.9 47.290312 
Q 632.7 47.290312 632.7 45.490312 
L 632.7 33.18 
Q 632.7 31.38 630.9 31.38 
L 496.306406 31.38 
Q 494.506406 31.38 494.506406 33.18 
L 494.506406 45.490312 
Q 494.506406 47.290312 496.306406 47.290312 
z
" style="fill: #ffffff; opacity: 0.8; stroke: #cccccc; stroke-linejoin: miter"/>
    </g>
    <g id="line2d_23">
     <path d="M 498.106406 38.668594 
L 507.106406 38.668594 
L 516.106406 38.668594 
" style="fill: none; stroke-dasharray: 2.96,1.28; stroke-dashoffset: 0; stroke: #888888; stroke-width: 0.8"/>
    </g>
    <g id="text_14">
     <!-- final mean = +0.45410 -->
     <g transform="translate(523.306406 41.818594) scale(0.09 -0.09)">
      <defs>
       <path id="DejaVuSans-3d" d="M 678 2906 
L 4684 2906 
L 4684 2381 
L 678 2381 
L 678 2906 
z
M 678 1631 
L 4684 1631 
L 4684 1100 
L 678 1100 
L 678 1631 
z
" transform="scale(0.015625)"/>
       <path id="DejaVuSans-2b" d="M 2944 4013 
L 2944 2272 
L 4684 2272 
L 4684 1741 
L 2944 1741 
L 2944 0 
L 2419 0 
L 2419 1741 
L 678 1741 
L 678 2272 
L 2419 2272 
L 2419 4013 
L 2944 4013 
z
" transform="scale(0.015625)"/>
      </defs>
      <use xlink:href="#DejaVuSans-66"/>
      <use xlink:href="#DejaVuSans-69" transform="translate(35.205078 0)"/>
      <use xlink:href="#DejaVuSans-6e" transform="translate(62.988281 0)"/>
      <use xlink:href="#DejaVuSans-61" transform="translate(126.367188 0)"/>
      <use xlink:href="#DejaVuSans-6c" transform="translate(187.646484 0)"/>
      <use xlink:href="#DejaVuSans-20" transform="translate(215.429688 0)"/>
      <use xlink:href="#DejaVuSans-6d" transform="translate(247.216797 0)"/>
      <use xlink:href="#DejaVuSans-65" transform="translate(344.628906 0)"/>
      <use xlink:href="#DejaVuSans-61" transform="translate(406.152344 0)"/>
      <use xlink:href="#DejaVuSans-6e" transform="translate(467.431641 0)"/>
      <use xlink:href="#DejaVuSans-20" transform="translate(530.810547 0)"/>
      <use xlink:href="#DejaVuSans-3d" transform="translate(562.597656 0)"/>
      <use xlink:href="#DejaVuSans-20" transform="translate(646.386719 0)"/>
      <use xlink:href="#DejaVuSans-2b" transform="translate(678.173828 0)"/>
      <use xlink:href="#DejaVuSans-30" transform="translate(761.962891 0)"/>
      <use xlink:href="#DejaVuSans-2e" transform="translate(825.585938 0)"/>
      <use xlink:href="#DejaVuSans-34" transform="translate(857.373047 0)"/>
      <use xlink:href="#DejaVuSans-35" transform="translate(920.996094 0)"/>
      <use xlink:href="#DejaVuSans-34" transform="translate(984.619141 0)"/>
      <use xlink:href="#DejaVuSans-31" transform="translate(1048.242188 0)"/>
      <use xlink:href="#DejaVuSans-30" transform="translate(1111.865234 0)"/>
     </g>
    </g>
   </g>
  </g>
 </g>
 <defs>
  <clipPath id="p1a87abaa50">
   <rect x="54.03125" y="26.88" width="583.16875" height="255.16"/>
  </clipPath>
 </defs>
</svg>
