<?xml version="1.0" encoding="utf-8" standalone="no"?>
<!DOCTYPE svg PUBLIC "-//W3C//DTD SVG 1.1//EN"
  "http://www.w3.org/Graphics/SVG/1.1/DTD/svg11.dtd">
<svg xmlns:xlink="http://www.w3.org/1999/xlink" width="648pt" height="324pt" viewBox="0 0 648 324" xmlns="http://www.w3.org/2000/svg" version="1.1">
 <metadata>
  <rdf:RDF xmlns:dc="http://purl.org/dc/elements/1.1/" xmlns:cc="http://creativecommons.org/ns#" xmlns:rdf="http://www.w3.org/1999/02/22-rdf-syntax-ns#">
   <cc:Work>
    <dc:type rdf:resource="http://purl.org/dc/dcmitype/StillImage"/>
    <dc:date>2026-05-08T00:08:23.375032</dc:date>
    <dc:format>image/svg+xml</dc:format>
    <dc:creator>
     <cc:Agent>
      <dc:title>Matplotlib v3.10.8, https://matplotlib.org/</dc:title>
     </cc:Agent>
    </dc:creator>
   </cc:Work>
  </rdf:RDF>
 </metadata>
 <defs>
  <style type="text/css">*{stroke-linejoin: round; stroke-linecap: butt}</style>
 </defs>
 <g id="figure_1">
  <g id="patch_1">
   <path d="M 0 324 
L 648 324 
L 648 0 
L 0 0 
z
" style="fill: #ffffff"/>
  </g>
  <g id="axes_1">
   <g id="patch_2">
    <path d="M 68.88125 282.04 
L 637.2 282.04 
L 637.2 26.88 
L 68.88125 26.88 
z
" style="fill: #ffffff"/>
   </g>
   <g id="matplotlib.axis_1">
    <g id="xtick_1">
     <g id="line2d_1">
      <path d="M 94.711854 282.04 
L 94.711854 26.88 
" clip-path="url(#p7230d145f9)" style="fill: none; stroke-dasharray: 0.5,0.825; stroke-dashoffset: 0; stroke: #b0b0b0; stroke-opacity: 0.6; stroke-width: 0.5"/>
     </g>
     <g id="line2d_2">
      <defs>
       <path id="md0797e9a26" d="M 0 0 
L 0 3.5 
" style="stroke: #000000; stroke-width: 0.8"/>
      </defs>
      <g>
       <use xlink:href="#md0797e9a26" x="94.711854" y="282.04" style="stroke: #000000; stroke-width: 0.8"/>
      </g>
     </g>
     <g id="text_1">
      <!-- 0 -->
      <g transform="translate(91.530604 296.638438) scale(0.1 -0.1)">
       <defs>
        <path id="DejaVuSans-30" d="M 2034 4250 
Q 1547 4250 1301 3770 
Q 1056 3291 1056 2328 
Q 1056 1369 1301 889 
Q 1547 409 2034 409 
Q 2525 409 2770 889 
Q 3016 1369 3016 2328 
Q 3016 3291 2770 3770 
Q 2525 4250 2034 4250 
z
M 2034 4750 
Q 2819 4750 3233 4129 
Q 3647 3509 3647 2328 
Q 3647 1150 3233 529 
Q 2819 -91 2034 -91 
Q 1250 -91 836 529 
Q 422 1150 422 2328 
Q 422 3509 836 4129 
Q 1250 4750 2034 4750 
z
" transform="scale(0.015625)"/>
       </defs>
       <use xlink:href="#DejaVuSans-30"/>
      </g>
     </g>
    </g>
    <g id="xtick_2">
     <g id="line2d_3">
      <path d="M 198.042949 282.04 
L 198.042949 26.88 
" clip-path="url(#p7230d145f9)" style="fill: none; stroke-dasharray: 0.5,0.825; stroke-dashoffset: 0; stroke: #b0b0b0; stroke-opacity: 0.6; stroke-width: 0.5"/>
     </g>
     <g id="line2d_4">
      <g>
       <use xlink:href="#md0797e9a26" x="198.042949" y="282.04" style="stroke: #000000; stroke-width: 0.8"/>
      </g>
     </g>
     <g id="text_2">
      <!-- 50000 -->
      <g transform="translate(182.136699 296.638438) scale(0.1 -0.1)">
       <defs>
        <path id="DejaVuSans-35" d="M 691 4666 
L 3169 4666 
L 3169 4134 
L 1269 4134 
L 1269 2991 
Q 1406 3038 1543 3061 
Q 1681 3084 1819 3084 
Q 2600 3084 3056 2656 
Q 3513 2228 3513 1497 
Q 3513 744 3044 326 
Q 2575 -91 1722 -91 
Q 1428 -91 1123 -41 
Q 819 9 494 109 
L 494 744 
Q 775 591 1075 516 
Q 1375 441 1709 441 
Q 2250 441 2565 725 
Q 2881 1009 2881 1497 
Q 2881 1984 2565 2268 
Q 2250 2553 1709 2553 
Q 1456 2553 1204 2497 
Q 953 2441 691 2322 
L 691 4666 
z
" transform="scale(0.015625)"/>
       </defs>
       <use xlink:href="#DejaVuSans-35"/>
       <use xlink:href="#DejaVuSans-30" transform="translate(63.623047 0)"/>
       <use xlink:href="#DejaVuSans-30" transform="translate(127.246094 0)"/>
       <use xlink:href="#DejaVuSans-30" transform="translate(190.869141 0)"/>
       <use xlink:href="#DejaVuSans-30" transform="translate(254.492188 0)"/>
      </g>
     </g>
    </g>
    <g id="xtick_3">
     <g id="line2d_5">
      <path d="M 301.374044 282.04 
L 301.374044 26.88 
" clip-path="url(#p7230d145f9)" style="fill: none; stroke-dasharray: 0.5,0.825; stroke-dashoffset: 0; stroke: #b0b0b0; stroke-opacity: 0.6; stroke-width: 0.5"/>
     </g>
     <g id="line2d_6">
      <g>
       <use xlink:href="#md0797e9a26" x="301.374044" y="282.04" style="stroke: #000000; stroke-width: 0.8"/>
      </g>
     </g>
     <g id="text_3">
      <!-- 100000 -->
      <g transform="translate(282.286544 296.638438) scale(0.1 -0.1)">
       <defs>
        <path id="DejaVuSans-31" d="M 794 531 
L 1825 531 
L 1825 4091 
L 703 3866 
L 703 4441 
L 1819 4666 
L 2450 4666 
L 2450 531 
L 3481 531 
L 3481 0 
L 794 0 
L 794 531 
z
" transform="scale(0.015625)"/>
       </defs>
       <use xlink:href="#DejaVuSans-31"/>
       <use xlink:href="#DejaVuSans-30" transform="translate(63.623047 0)"/>
       <use xlink:href="#DejaVuSans-30" transform="translate(127.246094 0)"/>
       <use xlink:href="#DejaVuSans-30" transform="translate(190.869141 0)"/>
       <use xlink:href="#DejaVuSans-30" transform="translate(254.492188 0)"/>
       <use xlink:href="#DejaVuSans-30" transform="translate(318.115234 0)"/>
      </g>
     </g>
    </g>
    <g id="xtick_4">
     <g id="line2d_7">
      <path d="M 404.705139 282.04 
L 404.705139 26.88 
" clip-path="url(#p7230d145f9)" style="fill: none; stroke-dasharray: 0.5,0.825; stroke-dashoffset: 0; stroke: #b0b0b0; stroke-opacity: 0.6; stroke-width: 0.5"/>
     </g>
     <g id="line2d_8">
      <g>
       <use xlink:href="#md0797e9a26" x="404.705139" y="282.04" style="stroke: #000000; stroke-width: 0.8"/>
      </g>
     </g>
     <g id="text_4">
      <!-- 150000 -->
      <g transform="translate(385.617639 296.638438) scale(0.1 -0.1)">
       <use xlink:href="#DejaVuSans-31"/>
       <use xlink:href="#DejaVuSans-35" transform="translate(63.623047 0)"/>
       <use xlink:href="#DejaVuSans-30" transform="translate(127.246094 0)"/>
       <use xlink:href="#DejaVuSans-30" transform="translate(190.869141 0)"/>
       <use xlink:href="#DejaVuSans-30" transform="translate(254.492188 0)"/>
       <use xlink:href="#DejaVuSans-30" transform="translate(318.115234 0)"/>
      </g>
     </g>
    </g>
    <g id="xtick_5">
     <g id="line2d_9">
      <path d="M 508.036234 282.04 
L 508.036234 26.88 
" clip-path="url(#p7230d145f9)" style="fill: none; stroke-dasharray: 0.5,0.825; stroke-dashoffset: 0; stroke: #b0b0b0; stroke-opacity: 0.6; stroke-width: 0.5"/>
     </g>
     <g id="line2d_10">
      <g>
       <use xlink:href="#md0797e9a26" x="508.036234" y="282.04" style="stroke: #000000; stroke-width: 0.8"/>
      </g>
     </g>
     <g id="text_5">
      <!-- 200000 -->
      <g transform="translate(488.948734 296.638438) scale(0.1 -0.1)">
       <defs>
        <path id="DejaVuSans-32" d="M 1228 531 
L 3431 531 
L 3431 0 
L 469 0 
L 469 531 
Q 828 903 1448 1529 
Q 2069 2156 2228 2338 
Q 2531 2678 2651 2914 
Q 2772 3150 2772 3378 
Q 2772 3750 2511 3984 
Q 2250 4219 1831 4219 
Q 1534 4219 1204 4116 
Q 875 4013 500 3803 
L 500 4441 
Q 881 4594 1212 4672 
Q 1544 4750 1819 4750 
Q 2544 4750 2975 4387 
Q 3406 4025 3406 3419 
Q 3406 3131 3298 2873 
Q 3191 2616 2906 2266 
Q 2828 2175 2409 1742 
Q 1991 1309 1228 531 
z
" transform="scale(0.015625)"/>
       </defs>
       <use xlink:href="#DejaVuSans-32"/>
       <use xlink:href="#DejaVuSans-30" transform="translate(63.623047 0)"/>
       <use xlink:href="#DejaVuSans-30" transform="translate(127.246094 0)"/>
       <use xlink:href="#DejaVuSans-30" transform="translate(190.869141 0)"/>
       <use xlink:href="#DejaVuSans-30" transform="translate(254.492188 0)"/>
       <use xlink:href="#DejaVuSans-30" transform="translate(318.115234 0)"/>
      </g>
     </g>
    </g>
    <g id="xtick_6">
     <g id="line2d_11">
      <path d="M 611.36733 282.04 
L 611.36733 26.88 
" clip-path="url(#p7230d145f9)" style="fill: none; stroke-dasharray: 0.5,0.825; stroke-dashoffset: 0; stroke: #b0b0b0; stroke-opacity: 0.6; stroke-width: 0.5"/>
     </g>
     <g id="line2d_12">
      <g>
       <use xlink:href="#md0797e9a26" x="611.36733" y="282.04" style="stroke: #000000; stroke-width: 0.8"/>
      </g>
     </g>
     <g id="text_6">
      <!-- 250000 -->
      <g transform="translate(592.27983 296.638438) scale(0.1 -0.1)">
       <use xlink:href="#DejaVuSans-32"/>
       <use xlink:href="#DejaVuSans-35" transform="translate(63.623047 0)"/>
       <use xlink:href="#DejaVuSans-30" transform="translate(127.246094 0)"/>
       <use xlink:href="#DejaVuSans-30" transform="translate(190.869141 0)"/>
       <use xlink:href="#DejaVuSans-30" transform="translate(254.492188 0)"/>
       <use xlink:href="#DejaVuSans-30" transform="translate(318.115234 0)"/>
      </g>
     </g>
    </g>
    <g id="text_7">
     <!-- Sample index -->
     <g transform="translate(319.022656 310.316563) scale(0.1 -0.1)">
      <defs>
       <path id="DejaVuSans-53" d="M 3425 4513 
L 3425 3897 
Q 3066 4069 2747 4153 
Q 2428 4238 2131 4238 
Q 1616 4238 1336 4038 
Q 1056 3838 1056 3469 
Q 1056 3159 1242 3001 
Q 1428 2844 1947 2747 
L 2328 2669 
Q 3034 2534 3370 2195 
Q 3706 1856 3706 1288 
Q 3706 609 3251 259 
Q 2797 -91 1919 -91 
Q 1588 -91 1214 -16 
Q 841 59 441 206 
L 441 856 
Q 825 641 1194 531 
Q 1563 422 1919 422 
Q 2459 422 2753 634 
Q 3047 847 3047 1241 
Q 3047 1584 2836 1778 
Q 2625 1972 2144 2069 
L 1759 2144 
Q 1053 2284 737 2584 
Q 422 2884 422 3419 
Q 422 4038 858 4394 
Q 1294 4750 2059 4750 
Q 2388 4750 2728 4690 
Q 3069 4631 3425 4513 
z
" transform="scale(0.015625)"/>
       <path id="DejaVuSans-61" d="M 2194 1759 
Q 1497 1759 1228 1600 
Q 959 1441 959 1056 
Q 959 750 1161 570 
Q 1363 391 1709 391 
Q 2188 391 2477 730 
Q 2766 1069 2766 1631 
L 2766 1759 
L 2194 1759 
z
M 3341 1997 
L 3341 0 
L 2766 0 
L 2766 531 
Q 2569 213 2275 61 
Q 1981 -91 1556 -91 
Q 1019 -91 701 211 
Q 384 513 384 1019 
Q 384 1609 779 1909 
Q 1175 2209 1959 2209 
L 2766 2209 
L 2766 2266 
Q 2766 2663 2505 2880 
Q 2244 3097 1772 3097 
Q 1472 3097 1187 3025 
Q 903 2953 641 2809 
L 641 3341 
Q 956 3463 1253 3523 
Q 1550 3584 1831 3584 
Q 2591 3584 2966 3190 
Q 3341 2797 3341 1997 
z
" transform="scale(0.015625)"/>
       <path id="DejaVuSans-6d" d="M 3328 2828 
Q 3544 3216 3844 3400 
Q 4144 3584 4550 3584 
Q 5097 3584 5394 3201 
Q 5691 2819 5691 2113 
L 5691 0 
L 5113 0 
L 5113 2094 
Q 5113 2597 4934 2840 
Q 4756 3084 4391 3084 
Q 3944 3084 3684 2787 
Q 3425 2491 3425 1978 
L 3425 0 
L 2847 0 
L 2847 2094 
Q 2847 2600 2669 2842 
Q 2491 3084 2119 3084 
Q 1678 3084 1418 2786 
Q 1159 2488 1159 1978 
L 1159 0 
L 581 0 
L 581 3500 
L 1159 3500 
L 1159 2956 
Q 1356 3278 1631 3431 
Q 1906 3584 2284 3584 
Q 2666 3584 2933 3390 
Q 3200 3197 3328 2828 
z
" transform="scale(0.015625)"/>
       <path id="DejaVuSans-70" d="M 1159 525 
L 1159 -1331 
L 581 -1331 
L 581 3500 
L 1159 3500 
L 1159 2969 
Q 1341 3281 1617 3432 
Q 1894 3584 2278 3584 
Q 2916 3584 3314 3078 
Q 3713 2572 3713 1747 
Q 3713 922 3314 415 
Q 2916 -91 2278 -91 
Q 1894 -91 1617 61 
Q 1341 213 1159 525 
z
M 3116 1747 
Q 3116 2381 2855 2742 
Q 2594 3103 2138 3103 
Q 1681 3103 1420 2742 
Q 1159 2381 1159 1747 
Q 1159 1113 1420 752 
Q 1681 391 2138 391 
Q 2594 391 2855 752 
Q 3116 1113 3116 1747 
z
" transform="scale(0.015625)"/>
       <path id="DejaVuSans-6c" d="M 603 4863 
L 1178 4863 
L 1178 0 
L 603 0 
L 603 4863 
z
" transform="scale(0.015625)"/>
       <path id="DejaVuSans-65" d="M 3597 1894 
L 3597 1613 
L 953 1613 
Q 991 1019 1311 708 
Q 1631 397 2203 397 
Q 2534 397 2845 478 
Q 3156 559 3463 722 
L 3463 178 
Q 3153 47 2828 -22 
Q 2503 -91 2169 -91 
Q 1331 -91 842 396 
Q 353 884 353 1716 
Q 353 2575 817 3079 
Q 1281 3584 2069 3584 
Q 2775 3584 3186 3129 
Q 3597 2675 3597 1894 
z
M 3022 2063 
Q 3016 2534 2758 2815 
Q 2500 3097 2075 3097 
Q 1594 3097 1305 2825 
Q 1016 2553 972 2059 
L 3022 2063 
z
" transform="scale(0.015625)"/>
       <path id="DejaVuSans-20" transform="scale(0.015625)"/>
       <path id="DejaVuSans-69" d="M 603 3500 
L 1178 3500 
L 1178 0 
L 603 0 
L 603 3500 
z
M 603 4863 
L 1178 4863 
L 1178 4134 
L 603 4134 
L 603 4863 
z
" transform="scale(0.015625)"/>
       <path id="DejaVuSans-6e" d="M 3513 2113 
L 3513 0 
L 2938 0 
L 2938 2094 
Q 2938 2591 2744 2837 
Q 2550 3084 2163 3084 
Q 1697 3084 1428 2787 
Q 1159 2491 1159 1978 
L 1159 0 
L 581 0 
L 581 3500 
L 1159 3500 
L 1159 2956 
Q 1366 3272 1645 3428 
Q 1925 3584 2291 3584 
Q 2894 3584 3203 3211 
Q 3513 2838 3513 2113 
z
" transform="scale(0.015625)"/>
       <path id="DejaVuSans-64" d="M 2906 2969 
L 2906 4863 
L 3481 4863 
L 3481 0 
L 2906 0 
L 2906 525 
Q 2725 213 2448 61 
Q 2172 -91 1784 -91 
Q 1150 -91 751 415 
Q 353 922 353 1747 
Q 353 2572 751 3078 
Q 1150 3584 1784 3584 
Q 2172 3584 2448 3432 
Q 2725 3281 2906 2969 
z
M 947 1747 
Q 947 1113 1208 752 
Q 1469 391 1925 391 
Q 2381 391 2643 752 
Q 2906 1113 2906 1747 
Q 2906 2381 2643 2742 
Q 2381 3103 1925 3103 
Q 1469 3103 1208 2742 
Q 947 2381 947 1747 
z
" transform="scale(0.015625)"/>
       <path id="DejaVuSans-78" d="M 3513 3500 
L 2247 1797 
L 3578 0 
L 2900 0 
L 1881 1375 
L 863 0 
L 184 0 
L 1544 1831 
L 300 3500 
L 978 3500 
L 1906 2253 
L 2834 3500 
L 3513 3500 
z
" transform="scale(0.015625)"/>
      </defs>
      <use xlink:href="#DejaVuSans-53"/>
      <use xlink:href="#DejaVuSans-61" transform="translate(63.476562 0)"/>
      <use xlink:href="#DejaVuSans-6d" transform="translate(124.755859 0)"/>
      <use xlink:href="#DejaVuSans-70" transform="translate(222.167969 0)"/>
      <use xlink:href="#DejaVuSans-6c" transform="translate(285.644531 0)"/>
      <use xlink:href="#DejaVuSans-65" transform="translate(313.427734 0)"/>
      <use xlink:href="#DejaVuSans-20" transform="translate(374.951172 0)"/>
      <use xlink:href="#DejaVuSans-69" transform="translate(406.738281 0)"/>
      <use xlink:href="#DejaVuSans-6e" transform="translate(434.521484 0)"/>
      <use xlink:href="#DejaVuSans-64" transform="translate(497.900391 0)"/>
      <use xlink:href="#DejaVuSans-65" transform="translate(561.376953 0)"/>
      <use xlink:href="#DejaVuSans-78" transform="translate(621.150391 0)"/>
     </g>
    </g>
   </g>
   <g id="matplotlib.axis_2">
    <g id="ytick_1">
     <g id="line2d_13">
      <path d="M 68.88125 256.139929 
L 637.2 256.139929 
" clip-path="url(#p7230d145f9)" style="fill: none; stroke-dasharray: 0.5,0.825; stroke-dashoffset: 0; stroke: #b0b0b0; stroke-opacity: 0.6; stroke-width: 0.5"/>
     </g>
     <g id="line2d_14">
      <defs>
       <path id="m74bec4b5a8" d="M 0 0 
L -3.5 0 
" style="stroke: #000000; stroke-width: 0.8"/>
      </defs>
      <g>
       <use xlink:href="#m74bec4b5a8" x="68.88125" y="256.139929" style="stroke: #000000; stroke-width: 0.8"/>
      </g>
     </g>
     <g id="text_8">
      <!-- −0.022 -->
      <g transform="translate(24.873438 259.939148) scale(0.1 -0.1)">
       <defs>
        <path id="DejaVuSans-2212" d="M 678 2272 
L 4684 2272 
L 4684 1741 
L 678 1741 
L 678 2272 
z
" transform="scale(0.015625)"/>
        <path id="DejaVuSans-2e" d="M 684 794 
L 1344 794 
L 1344 0 
L 684 0 
L 684 794 
z
" transform="scale(0.015625)"/>
       </defs>
       <use xlink:href="#DejaVuSans-2212"/>
       <use xlink:href="#DejaVuSans-30" transform="translate(83.789062 0)"/>
       <use xlink:href="#DejaVuSans-2e" transform="translate(147.412109 0)"/>
       <use xlink:href="#DejaVuSans-30" transform="translate(179.199219 0)"/>
       <use xlink:href="#DejaVuSans-32" transform="translate(242.822266 0)"/>
       <use xlink:href="#DejaVuSans-32" transform="translate(306.445312 0)"/>
      </g>
     </g>
    </g>
    <g id="ytick_2">
     <g id="line2d_15">
      <path d="M 68.88125 225.419338 
L 637.2 225.419338 
" clip-path="url(#p7230d145f9)" style="fill: none; stroke-dasharray: 0.5,0.825; stroke-dashoffset: 0; stroke: #b0b0b0; stroke-opacity: 0.6; stroke-width: 0.5"/>
     </g>
     <g id="line2d_16">
      <g>
       <use xlink:href="#m74bec4b5a8" x="68.88125" y="225.419338" style="stroke: #000000; stroke-width: 0.8"/>
      </g>
     </g>
     <g id="text_9">
      <!-- −0.021 -->
      <g transform="translate(24.873438 229.218556) scale(0.1 -0.1)">
       <use xlink:href="#DejaVuSans-2212"/>
       <use xlink:href="#DejaVuSans-30" transform="translate(83.789062 0)"/>
       <use xlink:href="#DejaVuSans-2e" transform="translate(147.412109 0)"/>
       <use xlink:href="#DejaVuSans-30" transform="translate(179.199219 0)"/>
       <use xlink:href="#DejaVuSans-32" transform="translate(242.822266 0)"/>
       <use xlink:href="#DejaVuSans-31" transform="translate(306.445312 0)"/>
      </g>
     </g>
    </g>
    <g id="ytick_3">
     <g id="line2d_17">
      <path d="M 68.88125 194.698746 
L 637.2 194.698746 
" clip-path="url(#p7230d145f9)" style="fill: none; stroke-dasharray: 0.5,0.825; stroke-dashoffset: 0; stroke: #b0b0b0; stroke-opacity: 0.6; stroke-width: 0.5"/>
     </g>
     <g id="line2d_18">
      <g>
       <use xlink:href="#m74bec4b5a8" x="68.88125" y="194.698746" style="stroke: #000000; stroke-width: 0.8"/>
      </g>
     </g>
     <g id="text_10">
      <!-- −0.020 -->
      <g transform="translate(24.873438 198.497965) scale(0.1 -0.1)">
       <use xlink:href="#DejaVuSans-2212"/>
       <use xlink:href="#DejaVuSans-30" transform="translate(83.789062 0)"/>
       <use xlink:href="#DejaVuSans-2e" transform="translate(147.412109 0)"/>
       <use xlink:href="#DejaVuSans-30" transform="translate(179.199219 0)"/>
       <use xlink:href="#DejaVuSans-32" transform="translate(242.822266 0)"/>
       <use xlink:href="#DejaVuSans-30" transform="translate(306.445312 0)"/>
      </g>
     </g>
    </g>
    <g id="ytick_4">
     <g id="line2d_19">
      <path d="M 68.88125 163.978155 
L 637.2 163.978155 
" clip-path="url(#p7230d145f9)" style="fill: none; stroke-dasharray: 0.5,0.825; stroke-dashoffset: 0; stroke: #b0b0b0; stroke-opacity: 0.6; stroke-width: 0.5"/>
     </g>
     <g id="line2d_20">
      <g>
       <use xlink:href="#m74bec4b5a8" x="68.88125" y="163.978155" style="stroke: #000000; stroke-width: 0.8"/>
      </g>
     </g>
     <g id="text_11">
      <!-- −0.019 -->
      <g transform="translate(24.873438 167.777374) scale(0.1 -0.1)">
       <defs>
        <path id="DejaVuSans-39" d="M 703 97 
L 703 672 
Q 941 559 1184 500 
Q 1428 441 1663 441 
Q 2288 441 2617 861 
Q 2947 1281 2994 2138 
Q 2813 1869 2534 1725 
Q 2256 1581 1919 1581 
Q 1219 1581 811 2004 
Q 403 2428 403 3163 
Q 403 3881 828 4315 
Q 1253 4750 1959 4750 
Q 2769 4750 3195 4129 
Q 3622 3509 3622 2328 
Q 3622 1225 3098 567 
Q 2575 -91 1691 -91 
Q 1453 -91 1209 -44 
Q 966 3 703 97 
z
M 1959 2075 
Q 2384 2075 2632 2365 
Q 2881 2656 2881 3163 
Q 2881 3666 2632 3958 
Q 2384 4250 1959 4250 
Q 1534 4250 1286 3958 
Q 1038 3666 1038 3163 
Q 1038 2656 1286 2365 
Q 1534 2075 1959 2075 
z
" transform="scale(0.015625)"/>
       </defs>
       <use xlink:href="#DejaVuSans-2212"/>
       <use xlink:href="#DejaVuSans-30" transform="translate(83.789062 0)"/>
       <use xlink:href="#DejaVuSans-2e" transform="translate(147.412109 0)"/>
       <use xlink:href="#DejaVuSans-30" transform="translate(179.199219 0)"/>
       <use xlink:href="#DejaVuSans-31" transform="translate(242.822266 0)"/>
       <use xlink:href="#DejaVuSans-39" transform="translate(306.445312 0)"/>
      </g>
     </g>
    </g>
    <g id="ytick_5">
     <g id="line2d_21">
      <path d="M 68.88125 133.257564 
L 637.2 133.257564 
" clip-path="url(#p7230d145f9)" style="fill: none; stroke-dasharray: 0.5,0.825; stroke-dashoffset: 0; stroke: #b0b0b0; stroke-opacity: 0.6; stroke-width: 0.5"/>
     </g>
     <g id="line2d_22">
      <g>
       <use xlink:href="#m74bec4b5a8" x="68.88125" y="133.257564" style="stroke: #000000; stroke-width: 0.8"/>
      </g>
     </g>
     <g id="text_12">
      <!-- −0.018 -->
      <g transform="translate(24.873438 137.056782) scale(0.1 -0.1)">
       <defs>
        <path id="DejaVuSans-38" d="M 2034 2216 
Q 1584 2216 1326 1975 
Q 1069 1734 1069 1313 
Q 1069 891 1326 650 
Q 1584 409 2034 409 
Q 2484 409 2743 651 
Q 3003 894 3003 1313 
Q 3003 1734 2745 1975 
Q 2488 2216 2034 2216 
z
M 1403 2484 
Q 997 2584 770 2862 
Q 544 3141 544 3541 
Q 544 4100 942 4425 
Q 1341 4750 2034 4750 
Q 2731 4750 3128 4425 
Q 3525 4100 3525 3541 
Q 3525 3141 3298 2862 
Q 3072 2584 2669 2484 
Q 3125 2378 3379 2068 
Q 3634 1759 3634 1313 
Q 3634 634 3220 271 
Q 2806 -91 2034 -91 
Q 1263 -91 848 271 
Q 434 634 434 1313 
Q 434 1759 690 2068 
Q 947 2378 1403 2484 
z
M 1172 3481 
Q 1172 3119 1398 2916 
Q 1625 2713 2034 2713 
Q 2441 2713 2670 2916 
Q 2900 3119 2900 3481 
Q 2900 3844 2670 4047 
Q 2441 4250 2034 4250 
Q 1625 4250 1398 4047 
Q 1172 3844 1172 3481 
z
" transform="scale(0.015625)"/>
       </defs>
       <use xlink:href="#DejaVuSans-2212"/>
       <use xlink:href="#DejaVuSans-30" transform="translate(83.789062 0)"/>
       <use xlink:href="#DejaVuSans-2e" transform="translate(147.412109 0)"/>
       <use xlink:href="#DejaVuSans-30" transform="translate(179.199219 0)"/>
       <use xlink:href="#DejaVuSans-31" transform="translate(242.822266 0)"/>
       <use xlink:href="#DejaVuSans-38" transform="translate(306.445312 0)"/>
      </g>
     </g>
    </g>
    <g id="ytick_6">
     <g id="line2d_23">
      <path d="M 68.88125 102.536972 
L 637.2 102.536972 
" clip-path="url(#p7230d145f9)" style="fill: none; stroke-dasharray: 0.5,0.825; stroke-dashoffset: 0; stroke: #b0b0b0; stroke-opacity: 0.6; stroke-width: 0.5"/>
     </g>
     <g id="line2d_24">
      <g>
       <use xlink:href="#m74bec4b5a8" x="68.88125" y="102.536972" style="stroke: #000000; stroke-width: 0.8"/>
      </g>
     </g>
     <g id="text_13">
      <!-- −0.017 -->
      <g transform="translate(24.873438 106.336191) scale(0.1 -0.1)">
       <defs>
        <path id="DejaVuSans-37" d="M 525 4666 
L 3525 4666 
L 3525 4397 
L 1831 0 
L 1172 0 
L 2766 4134 
L 525 4134 
L 525 4666 
z
" transform="scale(0.015625)"/>
       </defs>
       <use xlink:href="#DejaVuSans-2212"/>
       <use xlink:href="#DejaVuSans-30" transform="translate(83.789062 0)"/>
       <use xlink:href="#DejaVuSans-2e" transform="translate(147.412109 0)"/>
       <use xlink:href="#DejaVuSans-30" transform="translate(179.199219 0)"/>
       <use xlink:href="#DejaVuSans-31" transform="translate(242.822266 0)"/>
       <use xlink:href="#DejaVuSans-37" transform="translate(306.445312 0)"/>
      </g>
     </g>
    </g>
    <g id="ytick_7">
     <g id="line2d_25">
      <path d="M 68.88125 71.816381 
L 637.2 71.816381 
" clip-path="url(#p7230d145f9)" style="fill: none; stroke-dasharray: 0.5,0.825; stroke-dashoffset: 0; stroke: #b0b0b0; stroke-opacity: 0.6; stroke-width: 0.5"/>
     </g>
     <g id="line2d_26">
      <g>
       <use xlink:href="#m74bec4b5a8" x="68.88125" y="71.816381" style="stroke: #000000; stroke-width: 0.8"/>
      </g>
     </g>
     <g id="text_14">
      <!-- −0.016 -->
      <g transform="translate(24.873438 75.6156) scale(0.1 -0.1)">
       <defs>
        <path id="DejaVuSans-36" d="M 2113 2584 
Q 1688 2584 1439 2293 
Q 1191 2003 1191 1497 
Q 1191 994 1439 701 
Q 1688 409 2113 409 
Q 2538 409 2786 701 
Q 3034 994 3034 1497 
Q 3034 2003 2786 2293 
Q 2538 2584 2113 2584 
z
M 3366 4563 
L 3366 3988 
Q 3128 4100 2886 4159 
Q 2644 4219 2406 4219 
Q 1781 4219 1451 3797 
Q 1122 3375 1075 2522 
Q 1259 2794 1537 2939 
Q 1816 3084 2150 3084 
Q 2853 3084 3261 2657 
Q 3669 2231 3669 1497 
Q 3669 778 3244 343 
Q 2819 -91 2113 -91 
Q 1303 -91 875 529 
Q 447 1150 447 2328 
Q 447 3434 972 4092 
Q 1497 4750 2381 4750 
Q 2619 4750 2861 4703 
Q 3103 4656 3366 4563 
z
" transform="scale(0.015625)"/>
       </defs>
       <use xlink:href="#DejaVuSans-2212"/>
       <use xlink:href="#DejaVuSans-30" transform="translate(83.789062 0)"/>
       <use xlink:href="#DejaVuSans-2e" transform="translate(147.412109 0)"/>
       <use xlink:href="#DejaVuSans-30" transform="translate(179.199219 0)"/>
       <use xlink:href="#DejaVuSans-31" transform="translate(242.822266 0)"/>
       <use xlink:href="#DejaVuSans-36" transform="translate(306.445312 0)"/>
      </g>
     </g>
    </g>
    <g id="ytick_8">
     <g id="line2d_27">
      <path d="M 68.88125 41.095789 
L 637.2 41.095789 
" clip-path="url(#p7230d145f9)" style="fill: none; stroke-dasharray: 0.5,0.825; stroke-dashoffset: 0; stroke: #b0b0b0; stroke-opacity: 0.6; stroke-width: 0.5"/>
     </g>
     <g id="line2d_28">
      <g>
       <use xlink:href="#m74bec4b5a8" x="68.88125" y="41.095789" style="stroke: #000000; stroke-width: 0.8"/>
      </g>
     </g>
     <g id="text_15">
      <!-- −0.015 -->
      <g transform="translate(24.873438 44.895008) scale(0.1 -0.1)">
       <use xlink:href="#DejaVuSans-2212"/>
       <use xlink:href="#DejaVuSans-30" transform="translate(83.789062 0)"/>
       <use xlink:href="#DejaVuSans-2e" transform="translate(147.412109 0)"/>
       <use xlink:href="#DejaVuSans-30" transform="translate(179.199219 0)"/>
       <use xlink:href="#DejaVuSans-31" transform="translate(242.822266 0)"/>
       <use xlink:href="#DejaVuSans-35" transform="translate(306.445312 0)"/>
      </g>
     </g>
    </g>
    <g id="text_16">
     <!-- Running mean of mean_median -->
     <g transform="translate(18.515625 234.136562) rotate(-90) scale(0.1 -0.1)">
      <defs>
       <path id="DejaVuSans-52" d="M 2841 2188 
Q 3044 2119 3236 1894 
Q 3428 1669 3622 1275 
L 4263 0 
L 3584 0 
L 2988 1197 
Q 2756 1666 2539 1819 
Q 2322 1972 1947 1972 
L 1259 1972 
L 1259 0 
L 628 0 
L 628 4666 
L 2053 4666 
Q 2853 4666 3247 4331 
Q 3641 3997 3641 3322 
Q 3641 2881 3436 2590 
Q 3231 2300 2841 2188 
z
M 1259 4147 
L 1259 2491 
L 2053 2491 
Q 2509 2491 2742 2702 
Q 2975 2913 2975 3322 
Q 2975 3731 2742 3939 
Q 2509 4147 2053 4147 
L 1259 4147 
z
" transform="scale(0.015625)"/>
       <path id="DejaVuSans-75" d="M 544 1381 
L 544 3500 
L 1119 3500 
L 1119 1403 
Q 1119 906 1312 657 
Q 1506 409 1894 409 
Q 2359 409 2629 706 
Q 2900 1003 2900 1516 
L 2900 3500 
L 3475 3500 
L 3475 0 
L 2900 0 
L 2900 538 
Q 2691 219 2414 64 
Q 2138 -91 1772 -91 
Q 1169 -91 856 284 
Q 544 659 544 1381 
z
M 1991 3584 
L 1991 3584 
z
" transform="scale(0.015625)"/>
       <path id="DejaVuSans-67" d="M 2906 1791 
Q 2906 2416 2648 2759 
Q 2391 3103 1925 3103 
Q 1463 3103 1205 2759 
Q 947 2416 947 1791 
Q 947 1169 1205 825 
Q 1463 481 1925 481 
Q 2391 481 2648 825 
Q 2906 1169 2906 1791 
z
M 3481 434 
Q 3481 -459 3084 -895 
Q 2688 -1331 1869 -1331 
Q 1566 -1331 1297 -1286 
Q 1028 -1241 775 -1147 
L 775 -588 
Q 1028 -725 1275 -790 
Q 1522 -856 1778 -856 
Q 2344 -856 2625 -561 
Q 2906 -266 2906 331 
L 2906 616 
Q 2728 306 2450 153 
Q 2172 0 1784 0 
Q 1141 0 747 490 
Q 353 981 353 1791 
Q 353 2603 747 3093 
Q 1141 3584 1784 3584 
Q 2172 3584 2450 3431 
Q 2728 3278 2906 2969 
L 2906 3500 
L 3481 3500 
L 3481 434 
z
" transform="scale(0.015625)"/>
       <path id="DejaVuSans-6f" d="M 1959 3097 
Q 1497 3097 1228 2736 
Q 959 2375 959 1747 
Q 959 1119 1226 758 
Q 1494 397 1959 397 
Q 2419 397 2687 759 
Q 2956 1122 2956 1747 
Q 2956 2369 2687 2733 
Q 2419 3097 1959 3097 
z
M 1959 3584 
Q 2709 3584 3137 3096 
Q 3566 2609 3566 1747 
Q 3566 888 3137 398 
Q 2709 -91 1959 -91 
Q 1206 -91 779 398 
Q 353 888 353 1747 
Q 353 2609 779 3096 
Q 1206 3584 1959 3584 
z
" transform="scale(0.015625)"/>
       <path id="DejaVuSans-66" d="M 2375 4863 
L 2375 4384 
L 1825 4384 
Q 1516 4384 1395 4259 
Q 1275 4134 1275 3809 
L 1275 3500 
L 2222 3500 
L 2222 3053 
L 1275 3053 
L 1275 0 
L 697 0 
L 697 3053 
L 147 3053 
L 147 3500 
L 697 3500 
L 697 3744 
Q 697 4328 969 4595 
Q 1241 4863 1831 4863 
L 2375 4863 
z
" transform="scale(0.015625)"/>
       <path id="DejaVuSans-5f" d="M 3263 -1063 
L 3263 -1509 
L -63 -1509 
L -63 -1063 
L 3263 -1063 
z
" transform="scale(0.015625)"/>
      </defs>
      <use xlink:href="#DejaVuSans-52"/>
      <use xlink:href="#DejaVuSans-75" transform="translate(64.982422 0)"/>
      <use xlink:href="#DejaVuSans-6e" transform="translate(128.361328 0)"/>
      <use xlink:href="#DejaVuSans-6e" transform="translate(191.740234 0)"/>
      <use xlink:href="#DejaVuSans-69" transform="translate(255.119141 0)"/>
      <use xlink:href="#DejaVuSans-6e" transform="translate(282.902344 0)"/>
      <use xlink:href="#DejaVuSans-67" transform="translate(346.28125 0)"/>
      <use xlink:href="#DejaVuSans-20" transform="translate(409.757812 0)"/>
      <use xlink:href="#DejaVuSans-6d" transform="translate(441.544922 0)"/>
      <use xlink:href="#DejaVuSans-65" transform="translate(538.957031 0)"/>
      <use xlink:href="#DejaVuSans-61" transform="translate(600.480469 0)"/>
      <use xlink:href="#DejaVuSans-6e" transform="translate(661.759766 0)"/>
      <use xlink:href="#DejaVuSans-20" transform="translate(725.138672 0)"/>
      <use xlink:href="#DejaVuSans-6f" transform="translate(756.925781 0)"/>
      <use xlink:href="#DejaVuSans-66" transform="translate(818.107422 0)"/>
      <use xlink:href="#DejaVuSans-20" transform="translate(853.3125 0)"/>
      <use xlink:href="#DejaVuSans-6d" transform="translate(885.099609 0)"/>
      <use xlink:href="#DejaVuSans-65" transform="translate(982.511719 0)"/>
      <use xlink:href="#DejaVuSans-61" transform="translate(1044.035156 0)"/>
      <use xlink:href="#DejaVuSans-6e" transform="translate(1105.314453 0)"/>
      <use xlink:href="#DejaVuSans-5f" transform="translate(1168.693359 0)"/>
      <use xlink:href="#DejaVuSans-6d" transform="translate(1218.693359 0)"/>
      <use xlink:href="#DejaVuSans-65" transform="translate(1316.105469 0)"/>
      <use xlink:href="#DejaVuSans-64" transform="translate(1377.628906 0)"/>
      <use xlink:href="#DejaVuSans-69" transform="translate(1441.105469 0)"/>
      <use xlink:href="#DejaVuSans-61" transform="translate(1468.888672 0)"/>
      <use xlink:href="#DejaVuSans-6e" transform="translate(1530.167969 0)"/>
     </g>
    </g>
   </g>
   <g id="line2d_29">
    <path d="M 94.71392 39.889629 
L 94.724254 38.478182 
L 94.734587 41.842377 
L 94.780052 86.663187 
L 94.918516 168.492016 
L 94.955715 152.301589 
L 94.994981 145.34713 
L 95.052846 154.467021 
L 95.257442 195.175197 
L 95.375239 205.075136 
L 95.400039 202.638208 
L 95.414505 202.600888 
L 95.418639 202.602508 
L 95.540569 238.252598 
L 95.621167 234.401498 
L 95.6439 233.845199 
L 95.691433 235.552894 
L 95.705899 236.259457 
L 95.718299 231.840256 
L 95.997293 172.542006 
L 96.011759 173.437622 
L 96.051025 168.945997 
L 96.067558 167.905901 
L 96.123357 173.162896 
L 96.336219 186.088625 
L 96.348618 183.255287 
L 96.724744 123.010739 
L 97.05747 82.512895 
L 97.115335 90.354522 
L 97.408795 114.598258 
L 97.733255 145.976408 
L 97.784921 153.333808 
L 97.890318 152.693131 
L 98.297443 163.044461 
L 98.318109 162.743995 
L 98.334642 162.514019 
L 98.375974 163.431388 
L 98.617769 166.018711 
L 98.665302 167.976999 
L 98.900896 176.50861 
L 99.134425 182.573524 
L 99.394819 187.180185 
L 99.859809 207.95269 
L 100.161536 221.524647 
L 100.390931 231.001978 
L 100.392997 230.989934 
L 100.423997 230.798516 
L 100.442596 231.309801 
L 100.609993 236.336618 
L 100.719524 235.869422 
L 100.837321 234.515916 
L 100.907586 233.458488 
L 100.959252 234.224826 
L 101.291978 241.146317 
L 101.341577 241.913114 
L 101.393242 240.935104 
L 101.595771 232.626681 
L 101.680503 228.933437 
L 101.750768 230.695938 
L 102.174426 243.48959 
L 102.44722 246.806956 
L 102.488552 245.533883 
L 102.536084 244.169209 
L 102.641482 244.247411 
L 102.697281 244.376444 
L 103.032074 253.934302 
L 103.556996 269.026338 
L 103.573529 268.71181 
L 103.769858 263.651699 
L 103.869055 264.156316 
L 103.924854 264.401343 
L 103.997186 264.205058 
L 104.261714 260.489976 
L 104.796969 250.794834 
L 104.813502 250.933925 
L 105.33429 256.691393 
L 105.543019 262.106792 
L 105.871612 270.025784 
L 105.999743 270.441818 
L 106.018342 270.228971 
L 106.483332 266.216609 
L 106.493665 266.196563 
L 106.518465 266.383519 
L 106.547397 266.601797 
L 106.574264 266.026042 
L 106.640395 264.63331 
L 106.71686 265.342843 
L 106.72926 265.458715 
L 106.756126 264.681012 
L 106.867724 264.021416 
L 106.886323 264.071438 
L 106.956589 264.194074 
L 107.030987 264.15797 
L 107.074386 264.173856 
L 107.082653 264.071655 
L 107.21905 260.93442 
L 107.785304 249.373512 
L 108.043632 242.909057 
L 108.337092 237.297098 
L 108.597486 233.629968 
L 108.659485 234.30385 
L 108.684285 234.656508 
L 108.771083 234.326249 
L 109.196807 229.615747 
L 109.66593 223.6181 
L 110.031722 220.247057 
L 110.225984 217.189536 
L 110.29005 218.222522 
L 110.331382 218.327483 
L 110.378914 218.137727 
L 110.845971 213.817091 
L 111.263429 205.910077 
L 111.546556 201.745463 
L 111.596155 202.097505 
L 111.629221 202.348588 
L 111.693286 202.00178 
L 111.823483 200.516281 
L 112.085944 197.846937 
L 112.121077 197.916944 
L 112.519935 195.913181 
L 112.769996 193.70017 
L 112.968392 192.216202 
L 113.141988 190.840608 
L 113.274252 190.4285 
L 113.301118 190.478738 
L 113.569779 191.036346 
L 113.602845 190.865961 
L 113.900438 189.957764 
L 113.916971 190.031517 
L 114.340629 191.419362 
L 114.479092 191.836696 
L 114.644422 192.236589 
L 114.663022 192.192257 
L 114.840751 191.53774 
L 115.059813 190.727285 
L 115.107345 190.886878 
L 115.212743 191.303631 
L 115.243742 190.964576 
L 115.369806 190.548037 
L 115.376006 190.552492 
L 115.487604 190.698513 
L 115.518603 190.525349 
L 115.741798 188.92538 
L 115.836863 189.249608 
L 116.022859 189.735832 
L 116.184055 189.991288 
L 116.217121 189.920228 
L 116.512648 189.817967 
L 116.711044 189.125634 
L 116.874307 188.533987 
L 116.992105 186.973557 
L 117.364097 181.580898 
L 117.760888 176.976049 
L 117.860086 177.653399 
L 117.934484 178.268644 
L 117.969617 177.680117 
L 118.10808 175.219768 
L 118.176279 175.909729 
L 118.405674 177.334567 
L 118.416007 177.236398 
L 118.643335 176.154153 
L 118.740467 175.905921 
L 118.775599 176.094769 
L 118.804532 176.20875 
L 118.839665 175.880283 
L 119.106259 172.36681 
L 119.472051 168.064471 
L 119.507183 168.108032 
L 119.726245 168.302631 
L 119.730379 168.236277 
L 120.178836 161.723543 
L 120.216035 162.185027 
L 120.718224 168.418253 
L 120.798822 168.051298 
L 120.88562 168.256285 
L 120.912486 168.03597 
L 120.974485 166.622309 
L 121.172881 163.136304 
L 121.19768 163.276466 
L 121.298945 163.334707 
L 121.319611 163.289255 
L 121.418809 163.109734 
L 121.487007 163.177042 
L 121.50974 163.293834 
L 121.8342 165.112064 
L 121.885865 164.937682 
L 122.018129 163.857156 
L 122.082194 164.215913 
L 122.243391 165.409219 
L 122.361188 165.114367 
L 122.367388 165.095617 
L 122.400454 165.342809 
L 122.871644 168.916814 
L 123.21677 171.288001 
L 123.297368 170.739383 
L 123.592895 169.416659 
L 123.594962 169.428491 
L 123.66936 169.473171 
L 123.679693 169.51037 
L 123.698293 169.583841 
L 123.754091 169.374536 
L 123.904955 169.157136 
L 124.200482 168.794875 
L 124.258347 168.619194 
L 124.285213 168.884889 
L 124.661338 174.845509 
L 125.173861 182.312448 
L 125.182127 182.30885 
L 125.208993 182.29175 
L 125.231726 182.403544 
L 125.477654 183.10844 
L 125.49832 182.951469 
L 125.541719 182.785377 
L 125.572719 183.149514 
L 125.855846 186.721782 
L 125.909578 187.110618 
L 125.97571 186.950717 
L 126.052175 186.325844 
L 126.101774 186.718909 
L 126.174106 187.087752 
L 126.213371 186.736677 
L 126.626696 183.232403 
L 126.655629 183.450189 
L 127.310748 187.600241 
L 127.325214 187.613511 
L 127.360347 187.498384 
L 127.455411 187.296457 
L 127.478144 187.476515 
L 127.600075 187.562184 
L 127.65174 187.549283 
L 127.662073 187.471295 
L 127.885269 186.617771 
L 127.887335 186.618222 
L 128.096064 186.778216 
L 128.26346 187.065161 
L 128.267594 187.032236 
L 128.478389 184.462383 
L 128.610653 184.046299 
L 128.625119 184.095631 
L 128.800782 184.380577 
L 128.846248 184.456047 
L 128.897913 184.329964 
L 129.147975 182.877756 
L 129.300905 182.162024 
L 129.34637 182.183227 
L 129.509633 182.294972 
L 129.532366 182.171313 
L 130.094487 178.307747 
L 130.43548 177.431482 
L 130.511945 177.301755 
L 130.56981 177.398993 
L 130.619409 177.710943 
L 130.983135 180.893955 
L 131.072 180.788512 
L 131.299328 180.404546 
L 131.454325 180.918434 
L 131.694053 182.039114 
L 131.764318 182.07388 
L 131.793251 181.976404 
L 132.037112 181.344052 
L 132.068111 181.408259 
L 132.13631 181.779847 
L 132.198309 182.022062 
L 132.233441 181.715301 
L 132.512435 180.304481 
L 132.516568 180.292405 
L 132.564101 180.493491 
L 132.803829 182.039089 
L 132.973292 183.008069 
L 133.012558 182.926401 
L 133.237819 181.925168 
L 133.374216 181.199326 
L 133.558146 179.758481 
L 133.587078 179.813115 
L 133.626344 179.719291 
L 133.65941 180.192847 
L 133.950804 183.114228 
L 133.97147 183.064136 
L 134.014869 182.952297 
L 134.062401 183.121254 
L 134.287663 184.946722 
L 134.326929 184.608738 
L 134.403394 183.397529 
L 134.481926 183.883622 
L 134.816718 186.975774 
L 134.992381 187.636287 
L 135.306508 187.901573 
L 135.312708 187.851585 
L 135.401572 188.032419 
L 135.426372 188.055516 
L 135.484237 187.955147 
L 135.912028 187.130328 
L 135.936828 187.081696 
L 135.994693 187.295591 
L 136.193089 188.276865 
L 137.009404 193.839077 
L 137.152001 194.403784 
L 137.327664 194.707123 
L 137.371063 194.683071 
L 137.540526 194.724123 
L 137.827787 195.135069 
L 137.99725 195.482199 
L 138.075781 195.473241 
L 138.090248 195.413711 
L 138.809432 189.907408 
L 139.135958 186.319542 
L 139.476951 185.089898 
L 139.662947 184.228894 
L 140.229201 181.939532 
L 140.365598 181.219304 
L 140.413131 181.01193 
L 140.487529 181.158354 
L 140.611526 181.159232 
L 140.944252 181.324648 
L 140.997985 181.315823 
L 141.024851 181.25261 
L 141.099249 181.083321 
L 141.163314 181.187868 
L 141.20878 181.199326 
L 141.22738 181.106259 
L 141.36171 180.327009 
L 141.483641 180.360736 
L 141.584905 180.246364 
L 141.748168 179.754687 
L 141.783301 179.857704 
L 141.983763 180.098446 
L 142.051962 180.017685 
L 142.093294 180.172569 
L 142.264824 180.860518 
L 142.355755 180.741654 
L 142.454953 180.5952 
L 142.483886 180.691096 
L 142.942676 183.457671 
L 143.05634 183.210662 
L 143.134872 182.839348 
L 143.269202 182.615937 
L 143.624661 181.86665 
L 144.031786 181.239702 
L 144.037985 181.236501 
L 144.058652 181.343046 
L 144.339712 182.94513 
L 144.42031 182.651043 
L 144.521575 182.555317 
L 144.536041 182.629742 
L 144.76957 183.546868 
L 144.812969 183.475157 
L 145.178761 182.894652 
L 145.193227 182.962132 
L 145.232493 183.144653 
L 145.286225 182.880853 
L 145.296558 182.829441 
L 145.352357 183.102565 
L 145.54042 183.481507 
L 145.544553 183.472485 
L 145.740882 183.31712 
L 145.780148 183.270806 
L 145.829747 183.384581 
L 145.964077 183.659758 
L 146.013676 183.51963 
L 146.232738 182.992901 
L 146.410467 182.331347 
L 146.619196 181.327273 
L 146.681195 181.473669 
L 147.272249 183.438444 
L 147.50991 184.208927 
L 147.68144 184.337764 
L 147.704173 184.31307 
L 147.83437 184.294802 
L 147.842636 184.325517 
L 147.991433 184.450216 
L 148.061698 184.651495 
L 148.198095 185.115277 
L 148.266294 185.006841 
L 148.985478 187.219258 
L 149.227273 188.195994 
L 149.745995 189.968915 
L 149.84726 190.173355 
L 149.882392 190.080574 
L 149.921658 189.960182 
L 150.006389 190.05059 
L 150.200652 190.362263 
L 150.244051 190.244591 
L 150.403181 190.069626 
L 150.411447 190.08784 
L 150.578844 190.187466 
L 150.638776 190.289739 
L 151.169898 192.454163 
L 151.174031 192.44836 
L 151.250496 192.330516 
L 151.308361 192.448428 
L 151.639021 193.360033 
L 152.120544 195.113984 
L 152.159809 195.036634 
L 152.273474 194.874744 
L 152.31274 194.976963 
L 152.602067 195.779157 
L 152.661999 195.63522 
L 152.852128 195.322786 
L 152.878994 195.349069 
L 152.932726 195.345828 
L 152.967859 195.285069 
L 153.023657 195.190696 
L 153.06499 195.337652 
L 153.281985 195.686912 
L 153.49898 195.805092 
L 153.515513 195.761284 
L 153.519647 195.750493 
L 153.612645 195.812356 
L 153.637444 195.826063 
L 153.674643 195.722488 
L 154.081768 194.746596 
L 154.114834 194.83046 
L 154.222298 194.79555 
L 154.226431 194.791554 
L 154.470293 194.708585 
L 154.59429 194.578404 
L 154.840218 194.097624 
L 154.89395 194.184283 
L 154.949749 194.167644 
L 154.991081 194.129753 
L 155.23701 193.832036 
L 155.84873 191.60496 
L 155.867329 191.647333 
L 155.993393 191.806201 
L 156.014059 191.721665 
L 156.189722 190.506932 
L 156.59478 187.036068 
L 156.778709 186.942737 
L 156.828308 186.734219 
L 156.902707 186.857193 
L 156.92544 186.921986 
L 156.970905 186.724111 
L 157.417296 185.807248 
L 157.491694 185.69801 
L 157.66529 185.426767 
L 157.958751 184.635978 
L 158.153013 184.211559 
L 158.177812 184.24141 
L 158.241878 184.443558 
L 158.411341 185.364052 
L 158.475406 185.232037 
L 158.731667 184.570985 
L 159.099526 183.861974 
L 159.314455 183.309222 
L 159.364053 183.107352 
L 159.430185 183.297507 
L 159.601715 183.724611 
L 159.676113 183.619616 
L 159.680247 183.614456 
L 159.715379 183.739201 
L 159.804244 183.690852 
L 160.14937 185.711681 
L 160.316766 186.111364 
L 160.349832 186.062234 
L 160.477963 186.064959 
L 160.632959 186.059857 
L 160.649492 186.016377 
L 160.951219 185.518675 
L 161.279812 185.35075 
L 161.571206 185.078608 
L 161.664204 184.981416 
L 162.211858 184.146769 
L 162.507385 183.137229 
L 162.796712 182.600788 
L 163.07364 182.382657 
L 163.236903 182.234203 
L 163.412566 182.10023 
L 164.350812 180.966971 
L 164.466543 181.105924 
L 164.547141 181.326985 
L 164.598807 181.206997 
L 164.708338 180.834584 
L 164.811669 180.970043 
L 165.19606 182.121481 
L 165.729249 183.934001 
L 165.857379 184.056843 
L 166.237638 185.025727 
L 166.483566 185.685545 
L 166.560031 185.745129 
L 166.59723 185.6438 
L 167.105619 184.296528 
L 167.537543 182.920241 
L 167.893002 181.275968 
L 168.029399 181.36032 
L 168.095531 181.38375 
L 168.136863 181.29456 
L 168.240195 181.065942 
L 168.306326 181.191497 
L 168.45099 181.231144 
L 168.816782 181.562697 
L 169.238373 182.769468 
L 169.461568 183.011727 
L 169.620698 183.366141 
L 169.643431 183.328722 
L 169.775695 183.241209 
L 169.837693 183.11204 
L 169.943091 183.015393 
L 169.978224 183.070052 
L 170.519678 183.724505 
L 170.540345 183.710433 
L 170.647809 183.732789 
L 170.664342 183.756719 
L 170.740807 184.060458 
L 171.102466 185.523643 
L 171.152065 185.653973 
L 171.263662 186.07198 
L 171.319461 185.946712 
L 171.563323 185.400807 
L 171.621188 185.472869 
L 171.759652 185.503346 
L 171.776185 185.481453 
L 171.848516 185.193371 
L 172.429237 182.281368 
L 172.735097 182.616765 
L 172.801229 182.830352 
L 173.05129 183.509981 
L 173.386083 183.961216 
L 173.448082 183.945417 
L 173.479081 183.889394 
L 173.660944 183.73495 
L 173.679543 183.747909 
L 174.018469 184.145668 
L 174.584724 186.056205 
L 174.890584 186.117495 
L 175.066247 186.159481 
L 175.177844 186.432319 
L 175.386573 186.758883 
L 175.460971 186.89924 
L 175.508504 186.764534 
L 175.649034 186.688794 
L 175.735832 186.592433 
L 175.764765 186.709832 
L 175.859829 186.983207 
L 175.932161 186.922632 
L 176.407484 186.628725 
L 176.628613 186.903022 
L 176.979939 187.627776 
L 177.39533 187.8674 
L 177.581326 188.078415 
L 177.810721 188.662159 
L 177.85412 188.722424 
L 177.932651 188.690002 
L 178.087648 188.643117 
L 178.110381 188.740114 
L 178.755167 191.63835 
L 178.858498 191.922684 
L 179.565283 194.721386 
L 179.891809 195.318843 
L 180.044739 195.525615 
L 180.086071 195.443866 
L 180.236935 195.198926 
L 180.292733 195.283339 
L 180.617193 195.706884 
L 180.633726 195.6884 
L 180.854855 195.601343 
L 181.131782 195.582686 
L 181.54924 195.29537 
L 181.580239 195.372451 
L 181.704236 195.38782 
L 181.857166 195.447505 
L 182.049362 195.956948 
L 182.508152 197.310226 
L 183.068207 198.230424 
L 183.241803 198.179047 
L 183.431932 197.898758 
L 183.487731 197.940178 
L 183.588995 198.157112 
L 183.746059 198.329933 
L 183.756392 198.314957 
L 183.814257 198.283077 
L 183.876256 198.334849 
L 183.98372 198.427227 
L 184.025053 198.320944 
L 184.035386 198.294564 
L 184.128384 198.354708 
L 184.498309 199.005623 
L 185.370423 200.547672 
L 185.417956 200.476126 
L 185.436555 200.435856 
L 185.490288 200.579093 
L 185.496487 200.580657 
L 185.804414 200.789833 
L 186.077208 201.461524 
L 187.313048 206.031134 
L 187.395713 206.22002 
L 187.451512 206.169029 
L 187.453578 206.166374 
L 187.488711 206.301773 
L 187.664374 206.53952 
L 187.813171 206.813514 
L 187.928901 207.020575 
L 187.974367 206.998525 
L 188.112831 207.025986 
L 188.352559 207.063061 
L 188.759683 206.697688 
L 189.162675 206.594445 
L 189.805394 207.05815 
L 190.582444 206.418696 
L 191.206564 206.139914 
L 191.39876 205.648701 
L 191.721153 204.835705 
L 191.822417 204.829362 
L 191.83895 204.840512 
L 191.849283 204.83944 
L 191.878216 204.735851 
L 192.506469 202.188328 
L 193.248386 199.371078 
L 193.266986 199.389101 
L 193.287652 199.4085 
L 193.345517 199.316397 
L 193.403383 199.204 
L 193.488114 199.274782 
L 193.558379 199.337249 
L 193.626578 199.260849 
L 193.734042 198.973375 
L 193.829107 198.671184 
L 193.905572 198.772396 
L 193.97377 198.821127 
L 194.002703 198.721327 
L 194.149433 198.592321 
L 194.294097 198.776335 
L 194.918217 200.561515 
L 195.82133 201.092015 
L 196.044526 201.189609 
L 196.325586 201.475998 
L 196.383452 201.283752 
L 196.794709 200.674289 
L 197.015838 200.492119 
L 197.036504 200.515503 
L 197.230767 200.457593 
L 197.695756 200.368795 
L 198.162813 200.551527 
L 198.379808 200.352659 
L 198.392208 200.314257 
L 198.485206 200.38233 
L 198.706335 200.496216 
L 198.824132 200.316095 
L 199.973174 197.846133 
L 200.002107 197.88787 
L 200.229435 198.01831 
L 200.3059 197.957119 
L 200.359632 198.025607 
L 200.727491 198.27808 
L 200.762623 198.230381 
L 201.016818 198.033638 
L 201.091216 197.93013 
L 201.68847 197.106346 
L 201.725669 197.133331 
L 201.8538 197.371133 
L 201.878599 197.433818 
L 201.934398 197.276755 
L 201.98813 197.219077 
L 202.064595 197.297107 
L 202.143127 197.216337 
L 202.579184 196.567156 
L 202.649449 196.683877 
L 202.674249 196.728331 
L 202.717648 196.623776 
L 202.738314 196.61619 
L 202.839578 196.463826 
L 203.068973 195.638638 
L 203.474031 194.558519 
L 203.705493 194.299552 
L 203.748892 194.363358 
L 203.881156 194.38128 
L 204.044419 194.455035 
L 204.451543 195.321086 
L 204.468076 195.291203 
L 204.476343 195.276281 
L 204.519742 195.425698 
L 204.780136 196.29419 
L 204.875201 196.168363 
L 205.174861 195.359776 
L 205.234793 195.413671 
L 205.342258 195.405288 
L 205.362924 195.376069 
L 205.612985 195.057037 
L 205.681184 195.119511 
L 205.83618 195.105988 
L 205.927112 195.017363 
L 206.371435 193.467721 
L 206.819892 192.082103 
L 206.970756 191.86696 
L 207.034821 191.973149 
L 207.171218 192.163314 
L 207.23735 192.102536 
L 207.338614 192.07965 
L 207.37168 192.125445 
L 207.776738 192.47689 
L 208.60752 192.325994 
L 208.810049 192.370211 
L 209.210974 192.10043 
L 209.25024 192.185146 
L 209.440369 192.331761 
L 209.605699 192.528108 
L 209.806161 192.658342 
L 209.810294 192.65536 
L 209.971491 192.673428 
L 210.165753 192.623996 
L 210.374482 192.369369 
L 211.628921 189.959268 
L 212.201376 188.693233 
L 212.269574 188.561599 
L 212.501036 188.047419 
L 212.821362 186.97249 
L 213.125156 185.842958 
L 213.236753 185.921661 
L 213.968337 186.878885 
L 214.129534 187.050845 
L 214.1502 187.018168 
L 214.288664 187.007452 
L 214.553191 186.913301 
L 214.807386 186.848905 
L 215.135979 187.010163 
L 215.150445 186.958693 
L 215.158712 186.92927 
L 215.243443 187.035359 
L 215.344708 187.143131 
L 215.390173 187.045562 
L 216.727278 181.832874 
L 217.2522 179.93327 
L 217.775055 178.633311 
L 218.002383 178.105584 
L 218.134647 178.075083 
L 218.62237 177.837631 
L 218.661636 177.989399 
L 218.783566 178.3577 
L 218.864165 178.268973 
L 218.913764 178.219576 
L 218.971629 178.311436 
L 220.46373 180.542335 
L 220.490596 180.518285 
L 220.891521 180.012056 
L 221.085783 179.72031 
L 221.472241 179.581252 
L 221.763635 179.111543 
L 222.17076 177.74647 
L 222.220359 177.906054 
L 222.247225 177.988274 
L 222.30509 177.810172 
L 222.348489 177.749558 
L 222.379489 177.888824 
L 222.47662 178.084921 
L 222.524152 178.038132 
L 222.619217 177.96782 
L 223.346668 176.60885 
L 223.733126 175.851192 
L 224.13405 175.493453 
L 224.144384 175.504687 
L 224.33038 175.537909 
L 224.450244 175.469315 
L 224.75817 175.126776 
L 225.07023 175.599212 
L 225.136362 175.791735 
L 225.305825 176.059346 
L 225.328558 176.036164 
L 225.473221 176.405642 
L 225.803881 177.62521 
L 225.84728 177.602206 
L 225.954744 177.473343 
L 225.998143 177.570648 
L 226.155207 177.797124 
L 226.198606 177.728199 
L 226.215139 177.69978 
L 226.289537 177.789555 
L 226.533399 177.964273 
L 226.616063 178.075853 
L 227.202984 179.334238 
L 227.500578 179.568654 
L 227.833304 179.641812 
L 228.035833 179.619584 
L 228.399558 178.959285 
L 228.713685 178.556896 
L 228.955479 178.473295 
L 229.114609 178.671223 
L 229.178675 178.473571 
L 229.664331 176.963112 
L 230.627377 174.825254 
L 230.984902 173.835965 
L 231.220497 173.490936 
L 231.392027 173.284952 
L 232.144277 171.972475 
L 232.16081 171.988447 
L 232.452204 172.107798 
L 232.700198 171.821252 
L 232.983325 171.248643 
L 233.154855 171.110585 
L 233.431782 170.816798 
L 233.83064 170.163857 
L 234.456827 169.427612 
L 234.750287 168.961997 
L 234.940416 168.797882 
L 235.027215 168.63315 
L 235.293809 168.335513 
L 235.442606 168.296852 
L 235.469472 168.390612 
L 236.097725 170.179667 
L 236.827242 171.381642 
L 237.031838 171.901266 
L 237.523694 173.222096 
L 237.771688 173.528752 
L 237.872953 173.685254 
L 237.932885 173.632501 
L 238.699602 172.756093 
L 238.819466 172.683278 
L 238.850465 172.749481 
L 239.015795 172.984857 
L 239.059194 172.939279 
L 239.236923 172.908941 
L 239.462185 172.971506 
L 239.86311 173.413514 
L 240.129704 173.659898 
L 240.93362 173.603054 
L 241.491608 173.3286 
L 241.923532 173.854195 
L 242.281057 174.252605 
L 242.458787 174.326514 
L 242.729514 174.470463 
L 242.737781 174.462549 
L 243.219304 174.127608 
L 244.426211 174.991118 
L 244.721738 175.39332 
L 245.292126 176.509049 
L 245.461589 177.197361 
L 245.752982 177.711254 
L 246.333703 178.104579 
L 246.850358 178.025125 
L 246.943356 178.088826 
L 247.379414 178.394259 
L 247.598476 178.438132 
L 247.819604 178.574062 
L 247.825804 178.565823 
L 248.313527 177.982705 
L 248.578054 178.054503 
L 248.790916 178.187488 
L 249.063711 178.376668 
L 249.239373 178.597199 
L 249.5597 179.199548 
L 249.809761 179.391251 
L 250.088755 179.349123 
L 250.161087 179.40292 
L 250.206552 179.327596 
L 250.398748 179.232461 
L 251.192331 179.235082 
L 251.467192 179.666131 
L 251.620122 179.690494 
L 251.737919 179.588002 
L 252.46537 178.86917 
L 252.475703 178.884356 
L 252.519102 178.93546 
L 252.576968 178.842443 
L 252.731964 178.768109 
L 253.124623 178.557219 
L 253.323018 178.26326 
L 253.587546 178.051446 
L 253.715676 178.122902 
L 253.814874 178.234639 
L 253.86654 178.167289 
L 254.135201 177.813996 
L 254.1476 177.849331 
L 254.47206 178.44736 
L 254.587791 178.636868 
L 254.829586 178.986041 
L 255.056914 178.933035 
L 255.143712 178.74867 
L 255.505371 177.483417 
L 255.56117 177.519448 
L 255.728566 177.543159 
L 255.747166 177.501523 
L 255.993094 177.203483 
L 256.079892 177.285171 
L 256.542815 177.892007 
L 257.086337 178.285801 
L 257.154535 178.37887 
L 257.456262 178.710714 
L 257.489328 178.68328 
L 257.865453 178.228907 
L 258.770634 176.54472 
L 258.954563 176.363292 
L 259.10336 176.16488 
L 259.177758 176.237206 
L 259.411286 176.307713 
L 259.789478 175.749308 
L 260.132537 174.746869 
L 260.254468 174.254267 
L 260.337133 174.29846 
L 260.471463 174.367877 
L 260.49213 174.274162 
L 260.624393 174.189353 
L 260.754591 174.236727 
L 261.25678 174.905417 
L 261.504774 175.217549 
L 261.641171 175.132609 
L 262.552552 173.313256 
L 262.664149 173.350165 
L 262.866678 173.145058 
L 263.178738 172.919433 
L 263.294469 172.966936 
L 263.664394 173.09258 
L 265.117229 173.053091 
L 265.462355 173.487439 
L 265.952145 174.045662 
L 266.065809 174.305873 
L 266.136074 174.246833 
L 266.179473 174.193428 
L 266.243538 174.286608 
L 266.33447 174.371602 
L 266.390269 174.303105 
L 266.791193 173.894198 
L 266.809793 173.914267 
L 266.942057 173.967107 
L 267.283049 174.205998 
L 267.607509 174.800634 
L 267.688107 174.734486 
L 267.886503 174.710309 
L 268.109698 174.763131 
L 268.446557 174.644328 
L 268.62842 174.599013 
L 268.917747 174.262578 
L 268.963213 174.326223 
L 269.721663 174.887285 
L 269.822928 174.799557 
L 269.889059 174.882198 
L 270.498713 175.867409 
L 270.827306 176.23556 
L 271.321228 176.382894 
L 271.992881 175.568968 
L 272.15821 175.525687 
L 272.80093 175.545468 
L 272.838129 175.507282 
L 272.904261 175.59271 
L 273.348584 175.967028 
L 273.604846 175.862417 
L 273.635845 175.925362 
L 274.784887 178.159146 
L 275.309809 178.529377 
L 275.958728 178.508836 
L 276.264588 178.785428 
L 276.723378 179.265292 
L 276.855642 179.21395 
L 277.771155 178.171274 
L 277.798021 178.202796 
L 277.998484 178.270677 
L 278.30641 177.870877 
L 278.339476 177.762034 
L 278.418008 177.878838 
L 278.792067 178.196544 
L 279.151659 178.64034 
L 279.41412 179.063357 
L 279.934908 179.661045 
L 280.009307 179.57959 
L 280.296567 179.409182 
L 280.430898 179.327382 
L 280.629293 179.255939 
L 280.755357 179.145457 
L 280.990952 178.921388 
L 281.218281 178.848788 
L 281.497275 178.750422 
L 281.908532 178.674188 
L 283.125773 179.195452 
L 283.479165 178.969514 
L 283.53703 178.901866 
L 283.617629 178.970559 
L 283.927622 178.98914 
L 283.958621 178.975915 
L 284.024753 179.046195 
L 284.312014 179.191875 
L 284.32028 179.182994 
L 284.46701 179.173916 
L 284.47321 179.180256 
L 285.55612 180.180486 
L 285.576786 180.147731 
L 285.944645 179.539337 
L 286.054176 179.455847 
L 286.537765 178.958659 
L 286.721695 178.881119 
L 286.907691 178.727863 
L 287.004822 178.62107 
L 287.345815 178.197029 
L 287.668208 177.701065 
L 288.335727 176.775054 
L 288.379126 176.84216 
L 288.806916 177.369784 
L 289.081777 177.40957 
L 289.346305 177.291978 
L 289.623232 177.306359 
L 289.767896 177.288704 
L 289.896026 177.393739 
L 290.299017 177.97732 
L 290.425081 177.865622 
L 290.900404 177.250819 
L 291.119466 177.232907 
L 291.361261 177.174115 
L 291.613389 177.113261 
L 291.948182 177.19372 
L 292.200309 177.05073 
L 292.473104 176.876931 
L 292.619834 176.812393 
L 292.987692 176.352151 
L 293.409283 175.675969 
L 293.55808 175.556368 
L 293.843274 174.970681 
L 294.155334 174.333094 
L 294.589324 173.369568 
L 294.733988 173.282195 
L 295.267176 172.34484 
L 295.548237 172.015321 
L 295.808631 171.228907 
L 296.31082 169.9449 
L 296.32942 169.968708 
L 296.50095 170.011144 
L 297.044471 169.775523 
L 297.294532 169.708713 
L 297.649991 169.470001 
L 298.137714 169.039842 
L 298.720502 167.869491 
L 298.883765 167.578262 
L 299.423153 166.50245 
L 299.650481 166.368605 
L 300.181603 166.351573 
L 300.830523 165.557516 
L 300.975186 165.494157 
L 301.10745 165.45522 
L 301.130183 165.475244 
L 301.287246 165.464977 
L 301.57244 165.345499 
L 302.027097 165.039639 
L 303.333202 165.739155 
L 303.686594 166.222289 
L 306.187207 170.470701 
L 306.691462 170.745536 
L 306.873325 170.733459 
L 307.615242 170.39375 
L 308.069899 169.900835 
L 308.636153 169.538802 
L 308.795283 169.453466 
L 309.185875 169.175021 
L 309.533067 168.959433 
L 309.654998 168.882257 
L 310.225386 168.599792 
L 311.0851 169.154926 
L 311.223564 169.377372 
L 311.500491 169.689771 
L 311.804285 169.68171 
L 311.973748 169.688799 
L 312.037813 169.753257 
L 312.112212 169.678944 
L 312.440804 169.514826 
L 312.754931 169.268837 
L 313.056658 169.067696 
L 313.304652 168.831703 
L 313.515448 168.7261 
L 314.209833 168.429785 
L 314.997216 168.833237 
L 315.25141 169.15563 
L 315.749466 169.77042 
L 316.16279 169.913221 
L 317.663158 170.524696 
L 318.086815 170.866814 
L 318.537339 170.55392 
L 319.103593 169.998034 
L 319.115993 170.010183 
L 319.343322 170.079517 
L 319.642982 169.759609 
L 319.671914 169.684632 
L 319.750446 169.782802 
L 320.151371 170.070086 
L 320.498563 170.466183 
L 320.754824 170.797056 
L 321.27148 171.296669 
L 321.27768 171.290849 
L 321.637272 171.103651 
L 321.773669 171.029116 
L 321.969998 170.988452 
L 322.100195 170.882606 
L 322.327524 170.728365 
L 322.579651 170.664679 
L 323.228571 170.552199 
L 324.49541 171.020448 
L 324.859135 170.811422 
L 324.962467 170.86625 
L 325.710584 171.024528 
L 325.838714 171.095532 
L 326.272705 171.375519 
L 326.380169 171.528177 
L 326.805893 171.950032 
L 326.969156 171.780906 
L 327.287416 171.414722 
L 327.388681 171.34302 
L 327.886737 170.956232 
L 328.066533 170.872832 
L 328.244262 170.776103 
L 328.34966 170.671949 
L 329.608233 169.186986 
L 329.775629 169.364509 
L 330.157954 169.730684 
L 330.426615 169.751781 
L 330.691142 169.679048 
L 330.984603 169.68469 
L 331.240864 169.797124 
L 331.639722 170.270141 
L 331.776119 170.156126 
L 332.329974 169.672968 
L 332.544902 169.640757 
L 332.867295 169.579609 
L 333.042958 169.644077 
L 333.276486 169.675813 
L 333.551347 169.547099 
L 333.840674 169.436113 
L 334.02047 169.338191 
L 334.303598 169.03966 
L 334.78512 168.463203 
L 334.913251 168.345483 
L 335.099247 168.093779 
L 335.7337 166.73822 
L 336.246222 166.13596 
L 336.434285 165.950132 
L 336.535549 165.827039 
L 336.698812 165.716375 
L 336.860009 165.527245 
L 337.141069 164.847404 
L 337.643259 163.795051 
L 337.663925 163.817577 
L 337.843721 163.852896 
L 338.726168 163.575836 
L 339.538351 162.953423 
L 340.179004 161.961859 
L 340.286468 161.744782 
L 340.776257 160.985427 
L 340.993253 160.904054 
L 341.532641 160.876415 
L 342.162961 160.252831 
L 342.322091 160.188922 
L 342.472954 160.195618 
L 342.886278 160.109892 
L 343.326469 159.832796 
L 344.851636 160.631969 
L 345.388957 161.249873 
L 345.496422 161.435209 
L 346.835593 163.72216 
L 347.248917 164.179804 
L 347.614709 164.49879 
L 347.994968 164.700444 
L 348.226429 164.706539 
L 348.955947 164.43401 
L 349.439536 164.013914 
L 349.964458 163.751007 
L 350.169054 163.671753 
L 350.536913 163.442421 
L 350.861372 163.284857 
L 351.008102 163.211694 
L 351.568157 163.00497 
L 351.824418 163.214653 
L 352.124078 163.331037 
L 352.221209 163.39029 
L 352.539469 163.645204 
L 352.832929 163.942676 
L 353.233854 163.954878 
L 354.260965 164.033213 
L 354.535826 164.087048 
L 354.806553 164.036669 
L 354.899551 163.956159 
L 355.265343 163.737588 
L 355.86673 163.513551 
L 356.354453 162.658407 
L 356.631381 162.344354 
L 356.767778 162.267185 
L 357.189368 161.749753 
L 358.096615 160.702844 
L 358.423142 160.643797 
L 358.766201 160.72605 
L 359.41512 159.964058 
L 359.522585 160.06766 
L 359.609383 159.969723 
L 359.723047 160.000273 
L 359.818112 160.043997 
L 359.851177 159.951776 
L 360.154971 159.432368 
L 360.483564 159.206847 
L 361.42801 158.645807 
L 361.655338 158.610472 
L 362.415855 158.178973 
L 362.672116 158.074991 
L 363.74676 157.88424 
L 363.955489 157.929055 
L 364.36468 157.86132 
L 365.230594 157.702884 
L 365.809248 157.51688 
L 366.141975 157.53968 
L 366.590432 157.726171 
L 366.83016 157.757796 
L 367.214551 158.094778 
L 367.627876 158.124004 
L 367.989535 158.302576 
L 368.227196 158.375511 
L 368.237529 158.353058 
L 368.464858 158.124135 
L 368.741785 158.034081 
L 369.035245 158.140516 
L 369.188175 158.149609 
L 369.206775 158.116168 
L 369.25844 158.16267 
L 369.407237 157.98387 
L 369.636632 158.114528 
L 369.781296 158.118116 
L 369.967292 157.928021 
L 370.581078 157.349208 
L 370.692676 157.422398 
L 370.876605 157.425708 
L 371.242397 157.54995 
L 371.767319 157.093821 
L 372.48857 156.573223 
L 372.664233 156.575724 
L 373.083758 156.425639 
L 373.28422 156.43513 
L 373.848408 155.804694 
L 374.575859 154.857579 
L 374.982983 154.748247 
L 375.230978 154.560592 
L 375.700101 154.434019 
L 376.68588 155.326352 
L 377.163269 155.362742 
L 377.981651 155.517704 
L 378.518973 154.975195 
L 378.671903 155.043926 
L 379.153426 155.202031 
L 379.554351 155.093479 
L 379.690748 155.024625 
L 380.298335 154.797676 
L 380.647594 154.965106 
L 380.83979 154.828569 
L 381.387444 154.415385 
L 381.840035 154.034925 
L 382.51582 153.366425 
L 382.798947 153.411432 
L 382.937411 153.375346 
L 383.193672 153.160721 
L 383.4458 152.852071 
L 383.927323 152.460445 
L 384.218716 152.535479 
L 384.549376 152.654107 
L 384.9937 152.739678 
L 385.332626 152.663977 
L 385.88028 152.199902 
L 386.165474 151.809919 
L 386.731729 151.349416 
L 387.390981 150.532626 
L 387.682375 150.262065 
L 387.688575 150.267761 
L 388.037834 150.43879 
L 388.732219 150.011779 
L 388.998813 149.791642 
L 389.498935 149.5795 
L 389.641532 149.415842 
L 390.135455 148.222708 
L 390.368983 147.898599 
L 390.714109 147.816473 
L 390.953837 147.933151 
L 391.228698 148.067177 
L 392.276475 147.492968 
L 392.656734 147.630826 
L 393.421384 148.302248 
L 393.628046 148.466651 
L 394.043437 149.008337 
L 394.403029 149.188651 
L 394.735755 149.36316 
L 394.921751 149.209795 
L 395.254477 149.002259 
L 395.874464 148.854335 
L 396.345654 149.338893 
L 396.517183 149.350807 
L 397.391364 149.358924 
L 397.552561 149.323464 
L 397.728224 149.326266 
L 398.484607 149.724352 
L 398.970263 149.672592 
L 399.245124 149.833077 
L 400.410699 150.868715 
L 400.607028 151.023351 
L 401.317946 151.37044 
L 401.791202 151.706556 
L 402.179727 151.912167 
L 402.390523 152.01825 
L 402.768715 152.250833 
L 403.537498 152.754485 
L 403.700761 152.734476 
L 403.973555 152.726261 
L 404.337281 152.384967 
L 404.618341 152.08012 
L 404.982067 152.009053 
L 405.147396 151.95421 
L 405.523522 151.704931 
L 405.92238 151.258658 
L 406.184841 150.976137 
L 406.536166 150.591254 
L 407.226418 150.08547 
L 407.472346 150.054765 
L 407.941469 149.897128 
L 408.489124 149.744782 
L 408.881782 149.308022 
L 409.156643 149.140216 
L 409.363305 149.017075 
L 409.627833 148.846546 
L 411.227398 148.514347 
L 411.963115 148.311563 
L 412.262776 148.076299 
L 412.851763 147.923257 
L 413.225821 148.163995 
L 413.715611 148.570331 
L 414.118602 148.681069 
L 414.350064 148.776121 
L 414.765455 148.831406 
L 415.067181 148.737628 
L 415.439173 148.718228 
L 415.90003 149.055204 
L 416.309221 149.310451 
L 416.968474 149.440637 
L 417.346665 149.69187 
L 417.809589 150.004878 
L 418.020384 150.140947 
L 418.758168 150.578762 
L 419.179759 150.685375 
L 419.384355 150.665114 
L 419.834878 150.366839 
L 420.107672 150.423678 
L 420.572662 150.947461 
L 420.934321 151.004784 
L 422.145361 150.950727 
L 422.662017 151.034677 
L 423.14974 151.319139 
L 423.457666 151.615798 
L 424.296715 152.101408 
L 424.893969 152.541005 
L 425.036566 152.634061 
L 425.334159 152.858939 
L 425.997545 153.187431 
L 426.603065 153.55369 
L 427.299517 153.695874 
L 428.031101 154.482406 
L 428.132365 154.557961 
L 428.19643 154.519477 
L 428.260496 154.557982 
L 429.599667 154.538849 
L 430.444915 154.365969 
L 431.323229 153.784103 
L 431.901884 153.733174 
L 432.127145 153.853802 
L 432.340007 153.928725 
L 432.953794 154.06088 
L 433.635779 154.597792 
L 434.1979 154.340332 
L 435.063815 154.384816 
L 435.42754 154.430565 
L 435.900797 154.512693 
L 436.386453 154.439491 
L 436.971307 154.25267 
L 437.107704 154.339132 
L 437.46523 154.457821 
L 437.841355 154.196239 
L 438.136882 154.239749 
L 438.806467 154.186348 
L 438.854 154.250528 
L 438.938731 154.177056 
L 439.259057 154.315313 
L 439.519452 154.316752 
L 439.788113 154.495583 
L 440.098106 154.5518 
L 440.895822 154.791517 
L 441.214082 155.194608 
L 442.121329 155.838619 
L 442.749582 155.885167 
L 443.020309 155.888076 
L 443.305503 155.709781 
L 443.830425 155.384823 
L 444.161085 155.197488 
L 444.266482 155.012867 
L 444.580609 154.535609 
L 444.638474 154.579141 
L 445.198529 154.840228 
L 445.806116 154.888864 
L 445.90118 154.962702 
L 446.961357 155.824615 
L 447.393281 155.91393 
L 447.77974 155.77988 
L 449.176776 156.393374 
L 449.526035 156.403139 
L 449.90836 156.694857 
L 450.143955 156.814659 
L 450.52628 156.753828 
L 450.648211 156.836729 
L 451.92745 157.72734 
L 452.278775 157.659312 
L 453.847341 158.282861 
L 454.53346 158.34007 
L 454.756655 158.184288 
L 455.252644 158.316431 
L 455.905697 158.015213 
L 456.352087 157.650656 
L 457.168403 157.788915 
L 457.858655 157.726246 
L 458.07565 157.858094 
L 458.373243 157.936022 
L 458.586106 157.871848 
L 459.028363 157.88399 
L 459.294957 157.878512 
L 460.336534 157.909614 
L 461.142517 157.375947 
L 462.452755 156.937616 
L 463.151273 156.433986 
L 463.519132 156.643339 
L 463.884924 156.85073 
L 464.267249 156.641465 
L 464.380913 156.599745 
L 465.087698 156.273909 
L 465.403891 156.244493 
L 465.782083 156.148071 
L 466.166475 155.971956 
L 466.366937 155.924101 
L 466.856726 155.8595 
L 467.437447 156.008028 
L 467.635843 155.926533 
L 468.39636 156.226269 
L 468.615422 156.277664 
L 469.415204 156.142797 
L 470.121989 156.457017 
L 470.444382 156.54466 
L 471.438427 157.184625 
L 471.688488 157.376637 
L 472.215477 157.846272 
L 472.461405 158.037405 
L 473.323186 158.353075 
L 473.637313 158.568455 
L 473.864641 158.641993 
L 474.734689 158.643672 
L 474.902085 158.602594 
L 475.135614 158.647015 
L 475.575804 159.014578 
L 476.131725 159.336632 
L 476.348721 159.247382 
L 476.69178 159.124257 
L 477.702358 159.505763 
L 477.818089 159.576007 
L 478.117749 159.675776 
L 478.853467 159.522044 
L 479.082862 159.555581 
L 479.392855 159.735385 
L 479.669782 159.695724 
L 480.463365 159.74803 
L 481.438811 160.160366 
L 483.083842 159.620163 
L 483.468233 159.328656 
L 484.06962 159.222515 
L 484.377547 159.287134 
L 485.183529 158.934218 
L 485.336459 158.959332 
L 485.547255 159.00883 
L 485.805583 158.831707 
L 485.993645 158.81641 
L 486.466902 158.855757 
L 487.822606 157.588903 
L 488.295862 156.808345 
L 488.791851 156.240244 
L 489.420104 156.114465 
L 491.408195 155.535106 
L 492.972627 154.582606 
L 493.749677 154.352805 
L 494.673457 153.647056 
L 495.258311 153.902299 
L 496.246156 154.247147 
L 496.583016 154.113732 
L 497.391065 153.907272 
L 497.93252 153.770017 
L 498.730236 154.18743 
L 499.048496 154.342046 
L 500.276069 154.626268 
L 500.594329 154.697696 
L 501.026253 154.781321 
L 501.536709 154.896099 
L 501.972766 155.100693 
L 502.493554 155.182176 
L 503.078408 155.404201 
L 503.369802 155.474189 
L 503.791393 155.674926 
L 504.841237 156.644425 
L 505.095431 156.752059 
L 506.180408 156.321196 
L 506.490401 156.142748 
L 506.765262 156.081189 
L 507.505113 155.734328 
L 508.036234 155.865405 
L 508.466092 155.809392 
L 509.792863 155.760341 
L 510.199988 155.770468 
L 510.869573 155.53557 
L 511.514359 155.358309 
L 513.682245 155.074216 
L 514.285699 154.665287 
L 514.38903 154.581255 
L 514.672157 154.45305 
L 515.412008 154.22597 
L 515.641403 154.30093 
L 515.91833 154.245936 
L 516.583783 154.015247 
L 518.195748 154.28903 
L 518.840534 154.314522 
L 519.656849 154.421567 
L 519.880045 154.425552 
L 520.636428 154.553334 
L 521.878468 154.706218 
L 522.345524 154.771476 
L 522.614185 154.909418 
L 523.163907 155.23329 
L 524.102153 155.417411 
L 525.573588 155.420048 
L 526.179108 155.369035 
L 527.051223 155.510968 
L 527.745607 155.632618 
L 528.134132 155.62483 
L 528.470992 155.627205 
L 529.572501 155.628068 
L 530.87034 155.385247 
L 531.620524 155.491611 
L 532.918362 155.343961 
L 533.381285 155.143362 
L 534.290599 154.81938 
L 536.258023 153.609018 
L 536.644481 153.760424 
L 538.458975 154.013643 
L 539.372422 154.37687 
L 539.508819 154.294054 
L 540.128806 153.973524 
L 541.118718 153.791919 
L 541.420445 153.76962 
L 541.870968 153.676696 
L 542.416556 153.576123 
L 542.871213 153.477728 
L 543.241139 153.473321 
L 543.64413 153.412121 
L 544.061587 153.529499 
L 544.470779 153.596386 
L 545.059766 153.414954 
L 545.303627 153.463256 
L 546.758529 154.011118 
L 547.016857 153.849875 
L 547.556245 153.655731 
L 548.178298 153.700573 
L 548.424226 153.80415 
L 548.707353 153.801248 
L 549.664199 153.736696 
L 549.982459 153.842167 
L 550.308985 153.827676 
L 550.745043 154.071085 
L 551.036436 153.981446 
L 551.970549 153.646212 
L 552.10488 153.610888 
L 552.357008 153.633756 
L 552.543004 153.629914 
L 552.865397 153.754163 
L 553.305587 153.801678 
L 553.545315 153.867472 
L 553.844976 154.020056 
L 555.082882 153.726033 
L 555.789667 153.373773 
L 556.814711 152.93661 
L 558.139416 153.475601 
L 558.778002 153.664693 
L 559.540585 153.809038 
L 559.898111 153.997743 
L 560.121306 154.054206 
L 560.470565 153.884286 
L 560.770225 153.814479 
L 561.66094 154.028196 
L 563.17784 154.205433 
L 563.425835 154.221474 
L 563.698629 154.292052 
L 565.17833 155.061261 
L 566.073177 155.28755 
L 567.226352 155.738192 
L 568.325795 156.027727 
L 568.823851 155.93557 
L 569.764164 155.819481 
L 569.96876 155.738002 
L 570.181622 155.697441 
L 570.774742 155.8811 
L 571.960983 156.42599 
L 573.017027 156.630354 
L 573.279488 156.705993 
L 573.907741 156.843143 
L 574.302466 156.800992 
L 575.368843 156.895905 
L 575.825566 156.952905 
L 576.216158 156.928045 
L 576.542684 156.876706 
L 577.02214 156.791514 
L 577.342467 156.672289 
L 577.823989 156.78773 
L 577.974853 156.763931 
L 578.355111 156.727947 
L 578.797368 156.773909 
L 579.254092 156.939566 
L 580.946655 157.089415 
L 581.471577 157.330724 
L 581.905568 157.437609 
L 584.135453 158.088123 
L 584.554977 158.003264 
L 584.761639 158.031741 
L 585.834216 158.443071 
L 586.224807 158.667678 
L 586.662931 158.675005 
L 587.022524 158.532444 
L 587.545379 158.420099 
L 588.448493 158.395796 
L 589.159411 158.477951 
L 589.950927 158.281678 
L 590.496515 158.001595 
L 590.924306 157.770997 
L 591.629024 157.603885 
L 592.158079 157.715406 
L 593.908508 159.103539 
L 594.954218 159.571953 
L 595.425408 159.644977 
L 595.646537 159.668475 
L 596.28099 159.787655 
L 597.355633 159.75613 
L 597.603628 159.709783 
L 598.223614 159.404877 
L 598.583206 159.315571 
L 598.822935 159.282397 
L 599.577252 159.38449 
L 600.364635 159.56245 
L 601.662473 159.311221 
L 602.522188 159.011724 
L 603.832426 158.651803 
L 604.156886 158.345928 
L 605.157131 157.900881 
L 605.820516 157.394561 
L 606.347505 157.243472 
L 606.485969 157.19837 
L 607.469681 156.963031 
L 608.498858 157.210034 
L 608.744786 157.211988 
L 609.215976 157.011149 
L 609.517703 156.880667 
L 610.809342 155.959566 
L 611.36733 155.501508 
L 611.36733 155.501508 
" clip-path="url(#p7230d145f9)" style="fill: none; stroke: #1f2937; stroke-linecap: square"/>
   </g>
   <g id="line2d_30">
    <path d="M 68.88125 155.501508 
L 637.2 155.501508 
" clip-path="url(#p7230d145f9)" style="fill: none; stroke-dasharray: 2.96,1.28; stroke-dashoffset: 0; stroke: #888888; stroke-width: 0.8"/>
   </g>
   <g id="patch_3">
    <path d="M 68.88125 282.04 
L 68.88125 26.88 
" style="fill: none; stroke: #000000; stroke-width: 0.8; stroke-linejoin: miter; stroke-linecap: square"/>
   </g>
   <g id="patch_4">
    <path d="M 637.2 282.04 
L 637.2 26.88 
" style="fill: none; stroke: #000000; stroke-width: 0.8; stroke-linejoin: miter; stroke-linecap: square"/>
   </g>
   <g id="patch_5">
    <path d="M 68.88125 282.04 
L 637.2 282.04 
" style="fill: none; stroke: #000000; stroke-width: 0.8; stroke-linejoin: miter; stroke-linecap: square"/>
   </g>
   <g id="patch_6">
    <path d="M 68.88125 26.88 
L 637.2 26.88 
" style="fill: none; stroke: #000000; stroke-width: 0.8; stroke-linejoin: miter; stroke-linecap: square"/>
   </g>
   <g id="text_17">
    <!-- Running mean — mean_median  (100k ReCom samples, seed 42) -->
    <g transform="translate(156.065312 20.88) scale(0.12 -0.12)">
     <defs>
      <path id="DejaVuSans-2014" d="M 313 1978 
L 6088 1978 
L 6088 1528 
L 313 1528 
L 313 1978 
z
" transform="scale(0.015625)"/>
      <path id="DejaVuSans-28" d="M 1984 4856 
Q 1566 4138 1362 3434 
Q 1159 2731 1159 2009 
Q 1159 1288 1364 580 
Q 1569 -128 1984 -844 
L 1484 -844 
Q 1016 -109 783 600 
Q 550 1309 550 2009 
Q 550 2706 781 3412 
Q 1013 4119 1484 4856 
L 1984 4856 
z
" transform="scale(0.015625)"/>
      <path id="DejaVuSans-6b" d="M 581 4863 
L 1159 4863 
L 1159 1991 
L 2875 3500 
L 3609 3500 
L 1753 1863 
L 3688 0 
L 2938 0 
L 1159 1709 
L 1159 0 
L 581 0 
L 581 4863 
z
" transform="scale(0.015625)"/>
      <path id="DejaVuSans-43" d="M 4122 4306 
L 4122 3641 
Q 3803 3938 3442 4084 
Q 3081 4231 2675 4231 
Q 1875 4231 1450 3742 
Q 1025 3253 1025 2328 
Q 1025 1406 1450 917 
Q 1875 428 2675 428 
Q 3081 428 3442 575 
Q 3803 722 4122 1019 
L 4122 359 
Q 3791 134 3420 21 
Q 3050 -91 2638 -91 
Q 1578 -91 968 557 
Q 359 1206 359 2328 
Q 359 3453 968 4101 
Q 1578 4750 2638 4750 
Q 3056 4750 3426 4639 
Q 3797 4528 4122 4306 
z
" transform="scale(0.015625)"/>
      <path id="DejaVuSans-73" d="M 2834 3397 
L 2834 2853 
Q 2591 2978 2328 3040 
Q 2066 3103 1784 3103 
Q 1356 3103 1142 2972 
Q 928 2841 928 2578 
Q 928 2378 1081 2264 
Q 1234 2150 1697 2047 
L 1894 2003 
Q 2506 1872 2764 1633 
Q 3022 1394 3022 966 
Q 3022 478 2636 193 
Q 2250 -91 1575 -91 
Q 1294 -91 989 -36 
Q 684 19 347 128 
L 347 722 
Q 666 556 975 473 
Q 1284 391 1588 391 
Q 1994 391 2212 530 
Q 2431 669 2431 922 
Q 2431 1156 2273 1281 
Q 2116 1406 1581 1522 
L 1381 1569 
Q 847 1681 609 1914 
Q 372 2147 372 2553 
Q 372 3047 722 3315 
Q 1072 3584 1716 3584 
Q 2034 3584 2315 3537 
Q 2597 3491 2834 3397 
z
" transform="scale(0.015625)"/>
      <path id="DejaVuSans-2c" d="M 750 794 
L 1409 794 
L 1409 256 
L 897 -744 
L 494 -744 
L 750 256 
L 750 794 
z
" transform="scale(0.015625)"/>
      <path id="DejaVuSans-34" d="M 2419 4116 
L 825 1625 
L 2419 1625 
L 2419 4116 
z
M 2253 4666 
L 3047 4666 
L 3047 1625 
L 3713 1625 
L 3713 1100 
L 3047 1100 
L 3047 0 
L 2419 0 
L 2419 1100 
L 313 1100 
L 313 1709 
L 2253 4666 
z
" transform="scale(0.015625)"/>
      <path id="DejaVuSans-29" d="M 513 4856 
L 1013 4856 
Q 1481 4119 1714 3412 
Q 1947 2706 1947 2009 
Q 1947 1309 1714 600 
Q 1481 -109 1013 -844 
L 513 -844 
Q 928 -128 1133 580 
Q 1338 1288 1338 2009 
Q 1338 2731 1133 3434 
Q 928 4138 513 4856 
z
" transform="scale(0.015625)"/>
     </defs>
     <use xlink:href="#DejaVuSans-52"/>
     <use xlink:href="#DejaVuSans-75" transform="translate(64.982422 0)"/>
     <use xlink:href="#DejaVuSans-6e" transform="translate(128.361328 0)"/>
     <use xlink:href="#DejaVuSans-6e" transform="translate(191.740234 0)"/>
     <use xlink:href="#DejaVuSans-69" transform="translate(255.119141 0)"/>
     <use xlink:href="#DejaVuSans-6e" transform="translate(282.902344 0)"/>
     <use xlink:href="#DejaVuSans-67" transform="translate(346.28125 0)"/>
     <use xlink:href="#DejaVuSans-20" transform="translate(409.757812 0)"/>
     <use xlink:href="#DejaVuSans-6d" transform="translate(441.544922 0)"/>
     <use xlink:href="#DejaVuSans-65" transform="translate(538.957031 0)"/>
     <use xlink:href="#DejaVuSans-61" transform="translate(600.480469 0)"/>
     <use xlink:href="#DejaVuSans-6e" transform="translate(661.759766 0)"/>
     <use xlink:href="#DejaVuSans-20" transform="translate(725.138672 0)"/>
     <use xlink:href="#DejaVuSans-2014" transform="translate(756.925781 0)"/>
     <use xlink:href="#DejaVuSans-20" transform="translate(856.925781 0)"/>
     <use xlink:href="#DejaVuSans-6d" transform="translate(888.712891 0)"/>
     <use xlink:href="#DejaVuSans-65" transform="translate(986.125 0)"/>
     <use xlink:href="#DejaVuSans-61" transform="translate(1047.648438 0)"/>
     <use xlink:href="#DejaVuSans-6e" transform="translate(1108.927734 0)"/>
     <use xlink:href="#DejaVuSans-5f" transform="translate(1172.306641 0)"/>
     <use xlink:href="#DejaVuSans-6d" transform="translate(1222.306641 0)"/>
     <use xlink:href="#DejaVuSans-65" transform="translate(1319.71875 0)"/>
     <use xlink:href="#DejaVuSans-64" transform="translate(1381.242188 0)"/>
     <use xlink:href="#DejaVuSans-69" transform="translate(1444.71875 0)"/>
     <use xlink:href="#DejaVuSans-61" transform="translate(1472.501953 0)"/>
     <use xlink:href="#DejaVuSans-6e" transform="translate(1533.78125 0)"/>
     <use xlink:href="#DejaVuSans-20" transform="translate(1597.160156 0)"/>
     <use xlink:href="#DejaVuSans-20" transform="translate(1628.947266 0)"/>
     <use xlink:href="#DejaVuSans-28" transform="translate(1660.734375 0)"/>
     <use xlink:href="#DejaVuSans-31" transform="translate(1699.748047 0)"/>
     <use xlink:href="#DejaVuSans-30" transform="translate(1763.371094 0)"/>
     <use xlink:href="#DejaVuSans-30" transform="translate(1826.994141 0)"/>
     <use xlink:href="#DejaVuSans-6b" transform="translate(1890.617188 0)"/>
     <use xlink:href="#DejaVuSans-20" transform="translate(1948.527344 0)"/>
     <use xlink:href="#DejaVuSans-52" transform="translate(1980.314453 0)"/>
     <use xlink:href="#DejaVuSans-65" transform="translate(2045.296875 0)"/>
     <use xlink:href="#DejaVuSans-43" transform="translate(2106.820312 0)"/>
     <use xlink:href="#DejaVuSans-6f" transform="translate(2176.644531 0)"/>
     <use xlink:href="#DejaVuSans-6d" transform="translate(2237.826172 0)"/>
     <use xlink:href="#DejaVuSans-20" transform="translate(2335.238281 0)"/>
     <use xlink:href="#DejaVuSans-73" transform="translate(2367.025391 0)"/>
     <use xlink:href="#DejaVuSans-61" transform="translate(2419.125 0)"/>
     <use xlink:href="#DejaVuSans-6d" transform="translate(2480.404297 0)"/>
     <use xlink:href="#DejaVuSans-70" transform="translate(2577.816406 0)"/>
     <use xlink:href="#DejaVuSans-6c" transform="translate(2641.292969 0)"/>
     <use xlink:href="#DejaVuSans-65" transform="translate(2669.076172 0)"/>
     <use xlink:href="#DejaVuSans-73" transform="translate(2730.599609 0)"/>
     <use xlink:href="#DejaVuSans-2c" transform="translate(2782.699219 0)"/>
     <use xlink:href="#DejaVuSans-20" transform="translate(2814.486328 0)"/>
     <use xlink:href="#DejaVuSans-73" transform="translate(2846.273438 0)"/>
     <use xlink:href="#DejaVuSans-65" transform="translate(2898.373047 0)"/>
     <use xlink:href="#DejaVuSans-65" transform="translate(2959.896484 0)"/>
     <use xlink:href="#DejaVuSans-64" transform="translate(3021.419922 0)"/>
     <use xlink:href="#DejaVuSans-20" transform="translate(3084.896484 0)"/>
     <use xlink:href="#DejaVuSans-34" transform="translate(3116.683594 0)"/>
     <use xlink:href="#DejaVuSans-32" transform="translate(3180.306641 0)"/>
     <use xlink:href="#DejaVuSans-29" transform="translate(3243.929688 0)"/>
    </g>
   </g>
   <g id="legend_1">
    <g id="patch_7">
     <path d="M 500.601094 47.290312 
L 630.9 47.290312 
Q 632.7 47.290312 632.7 45.490312 
L 632.7 33.18 
Q 632.7 31.38 630.9 31.38 
L 500.601094 31.38 
Q 498.801094 31.38 498.801094 33.18 
L 498.801094 45.490312 
Q 498.801094 47.290312 500.601094 47.290312 
z
" style="fill: #ffffff; opacity: 0.8; stroke: #cccccc; stroke-linejoin: miter"/>
    </g>
    <g id="line2d_31">
     <path d="M 502.401094 38.668594 
L 511.401094 38.668594 
L 520.401094 38.668594 
" style="fill: none; stroke-dasharray: 2.96,1.28; stroke-dashoffset: 0; stroke: #888888; stroke-width: 0.8"/>
    </g>
    <g id="text_18">
     <!-- final mean = -0.01872 -->
     <g transform="translate(527.601094 41.818594) scale(0.09 -0.09)">
      <defs>
       <path id="DejaVuSans-3d" d="M 678 2906 
L 4684 2906 
L 4684 2381 
L 678 2381 
L 678 2906 
z
M 678 1631 
L 4684 1631 
L 4684 1100 
L 678 1100 
L 678 1631 
z
" transform="scale(0.015625)"/>
       <path id="DejaVuSans-2d" d="M 313 2009 
L 1997 2009 
L 1997 1497 
L 313 1497 
L 313 2009 
z
" transform="scale(0.015625)"/>
      </defs>
      <use xlink:href="#DejaVuSans-66"/>
      <use xlink:href="#DejaVuSans-69" transform="translate(35.205078 0)"/>
      <use xlink:href="#DejaVuSans-6e" transform="translate(62.988281 0)"/>
      <use xlink:href="#DejaVuSans-61" transform="translate(126.367188 0)"/>
      <use xlink:href="#DejaVuSans-6c" transform="translate(187.646484 0)"/>
      <use xlink:href="#DejaVuSans-20" transform="translate(215.429688 0)"/>
      <use xlink:href="#DejaVuSans-6d" transform="translate(247.216797 0)"/>
      <use xlink:href="#DejaVuSans-65" transform="translate(344.628906 0)"/>
      <use xlink:href="#DejaVuSans-61" transform="translate(406.152344 0)"/>
      <use xlink:href="#DejaVuSans-6e" transform="translate(467.431641 0)"/>
      <use xlink:href="#DejaVuSans-20" transform="translate(530.810547 0)"/>
      <use xlink:href="#DejaVuSans-3d" transform="translate(562.597656 0)"/>
      <use xlink:href="#DejaVuSans-20" transform="translate(646.386719 0)"/>
      <use xlink:href="#DejaVuSans-2d" transform="translate(678.173828 0)"/>
      <use xlink:href="#DejaVuSans-30" transform="translate(714.257812 0)"/>
      <use xlink:href="#DejaVuSans-2e" transform="translate(777.880859 0)"/>
      <use xlink:href="#DejaVuSans-30" transform="translate(809.667969 0)"/>
      <use xlink:href="#DejaVuSans-31" transform="translate(873.291016 0)"/>
      <use xlink:href="#DejaVuSans-38" transform="translate(936.914062 0)"/>
      <use xlink:href="#DejaVuSans-37" transform="translate(1000.537109 0)"/>
      <use xlink:href="#DejaVuSans-32" transform="translate(1064.160156 0)"/>
     </g>
    </g>
   </g>
  </g>
 </g>
 <defs>
  <clipPath id="p7230d145f9">
   <rect x="68.88125" y="26.88" width="568.31875" height="255.16"/>
  </clipPath>
 </defs>
</svg>
