<?xml version="1.0" encoding="utf-8" standalone="no"?>
<!DOCTYPE svg PUBLIC "-//W3C//DTD SVG 1.1//EN"
  "http://www.w3.org/Graphics/SVG/1.1/DTD/svg11.dtd">
<svg xmlns:xlink="http://www.w3.org/1999/xlink" width="648pt" height="324pt" viewBox="0 0 648 324" xmlns="http://www.w3.org/2000/svg" version="1.1">
 <metadata>
  <rdf:RDF xmlns:dc="http://purl.org/dc/elements/1.1/" xmlns:cc="http://creativecommons.org/ns#" xmlns:rdf="http://www.w3.org/1999/02/22-rdf-syntax-ns#">
   <cc:Work>
    <dc:type rdf:resource="http://purl.org/dc/dcmitype/StillImage"/>
    <dc:date>2026-05-12T12:07:53.666686</dc:date>
    <dc:format>image/svg+xml</dc:format>
    <dc:creator>
     <cc:Agent>
      <dc:title>Matplotlib v3.10.8, https://matplotlib.org/</dc:title>
     </cc:Agent>
    </dc:creator>
   </cc:Work>
  </rdf:RDF>
 </metadata>
 <defs>
  <style type="text/css">*{stroke-linejoin: round; stroke-linecap: butt}</style>
 </defs>
 <g id="figure_1">
  <g id="patch_1">
   <path d="M 0 324 
L 648 324 
L 648 0 
L 0 0 
z
" style="fill: #ffffff"/>
  </g>
  <g id="axes_1">
   <g id="patch_2">
    <path d="M 62.39 282.04 
L 637.2 282.04 
L 637.2 26.88 
L 62.39 26.88 
z
" style="fill: #ffffff"/>
   </g>
   <g id="matplotlib.axis_1">
    <g id="xtick_1">
     <g id="line2d_1">
      <path d="M 88.512502 282.04 
L 88.512502 26.88 
" clip-path="url(#pd31319a9bf)" style="fill: none; stroke-dasharray: 0.5,0.825; stroke-dashoffset: 0; stroke: #b0b0b0; stroke-opacity: 0.6; stroke-width: 0.5"/>
     </g>
     <g id="line2d_2">
      <defs>
       <path id="m7c805711c5" d="M 0 0 
L 0 3.5 
" style="stroke: #000000; stroke-width: 0.8"/>
      </defs>
      <g>
       <use xlink:href="#m7c805711c5" x="88.512502" y="282.04" style="stroke: #000000; stroke-width: 0.8"/>
      </g>
     </g>
     <g id="text_1">
      <!-- 0 -->
      <g transform="translate(85.331252 296.638438) scale(0.1 -0.1)">
       <defs>
        <path id="DejaVuSans-30" d="M 2034 4250 
Q 1547 4250 1301 3770 
Q 1056 3291 1056 2328 
Q 1056 1369 1301 889 
Q 1547 409 2034 409 
Q 2525 409 2770 889 
Q 3016 1369 3016 2328 
Q 3016 3291 2770 3770 
Q 2525 4250 2034 4250 
z
M 2034 4750 
Q 2819 4750 3233 4129 
Q 3647 3509 3647 2328 
Q 3647 1150 3233 529 
Q 2819 -91 2034 -91 
Q 1250 -91 836 529 
Q 422 1150 422 2328 
Q 422 3509 836 4129 
Q 1250 4750 2034 4750 
z
" transform="scale(0.015625)"/>
       </defs>
       <use xlink:href="#DejaVuSans-30"/>
      </g>
     </g>
    </g>
    <g id="xtick_2">
     <g id="line2d_3">
      <path d="M 193.024456 282.04 
L 193.024456 26.88 
" clip-path="url(#pd31319a9bf)" style="fill: none; stroke-dasharray: 0.5,0.825; stroke-dashoffset: 0; stroke: #b0b0b0; stroke-opacity: 0.6; stroke-width: 0.5"/>
     </g>
     <g id="line2d_4">
      <g>
       <use xlink:href="#m7c805711c5" x="193.024456" y="282.04" style="stroke: #000000; stroke-width: 0.8"/>
      </g>
     </g>
     <g id="text_2">
      <!-- 20000 -->
      <g transform="translate(177.118206 296.638438) scale(0.1 -0.1)">
       <defs>
        <path id="DejaVuSans-32" d="M 1228 531 
L 3431 531 
L 3431 0 
L 469 0 
L 469 531 
Q 828 903 1448 1529 
Q 2069 2156 2228 2338 
Q 2531 2678 2651 2914 
Q 2772 3150 2772 3378 
Q 2772 3750 2511 3984 
Q 2250 4219 1831 4219 
Q 1534 4219 1204 4116 
Q 875 4013 500 3803 
L 500 4441 
Q 881 4594 1212 4672 
Q 1544 4750 1819 4750 
Q 2544 4750 2975 4387 
Q 3406 4025 3406 3419 
Q 3406 3131 3298 2873 
Q 3191 2616 2906 2266 
Q 2828 2175 2409 1742 
Q 1991 1309 1228 531 
z
" transform="scale(0.015625)"/>
       </defs>
       <use xlink:href="#DejaVuSans-32"/>
       <use xlink:href="#DejaVuSans-30" transform="translate(63.623047 0)"/>
       <use xlink:href="#DejaVuSans-30" transform="translate(127.246094 0)"/>
       <use xlink:href="#DejaVuSans-30" transform="translate(190.869141 0)"/>
       <use xlink:href="#DejaVuSans-30" transform="translate(254.492188 0)"/>
      </g>
     </g>
    </g>
    <g id="xtick_3">
     <g id="line2d_5">
      <path d="M 297.53641 282.04 
L 297.53641 26.88 
" clip-path="url(#pd31319a9bf)" style="fill: none; stroke-dasharray: 0.5,0.825; stroke-dashoffset: 0; stroke: #b0b0b0; stroke-opacity: 0.6; stroke-width: 0.5"/>
     </g>
     <g id="line2d_6">
      <g>
       <use xlink:href="#m7c805711c5" x="297.53641" y="282.04" style="stroke: #000000; stroke-width: 0.8"/>
      </g>
     </g>
     <g id="text_3">
      <!-- 40000 -->
      <g transform="translate(281.63016 296.638438) scale(0.1 -0.1)">
       <defs>
        <path id="DejaVuSans-34" d="M 2419 4116 
L 825 1625 
L 2419 1625 
L 2419 4116 
z
M 2253 4666 
L 3047 4666 
L 3047 1625 
L 3713 1625 
L 3713 1100 
L 3047 1100 
L 3047 0 
L 2419 0 
L 2419 1100 
L 313 1100 
L 313 1709 
L 2253 4666 
z
" transform="scale(0.015625)"/>
       </defs>
       <use xlink:href="#DejaVuSans-34"/>
       <use xlink:href="#DejaVuSans-30" transform="translate(63.623047 0)"/>
       <use xlink:href="#DejaVuSans-30" transform="translate(127.246094 0)"/>
       <use xlink:href="#DejaVuSans-30" transform="translate(190.869141 0)"/>
       <use xlink:href="#DejaVuSans-30" transform="translate(254.492188 0)"/>
      </g>
     </g>
    </g>
    <g id="xtick_4">
     <g id="line2d_7">
      <path d="M 402.048364 282.04 
L 402.048364 26.88 
" clip-path="url(#pd31319a9bf)" style="fill: none; stroke-dasharray: 0.5,0.825; stroke-dashoffset: 0; stroke: #b0b0b0; stroke-opacity: 0.6; stroke-width: 0.5"/>
     </g>
     <g id="line2d_8">
      <g>
       <use xlink:href="#m7c805711c5" x="402.048364" y="282.04" style="stroke: #000000; stroke-width: 0.8"/>
      </g>
     </g>
     <g id="text_4">
      <!-- 60000 -->
      <g transform="translate(386.142114 296.638438) scale(0.1 -0.1)">
       <defs>
        <path id="DejaVuSans-36" d="M 2113 2584 
Q 1688 2584 1439 2293 
Q 1191 2003 1191 1497 
Q 1191 994 1439 701 
Q 1688 409 2113 409 
Q 2538 409 2786 701 
Q 3034 994 3034 1497 
Q 3034 2003 2786 2293 
Q 2538 2584 2113 2584 
z
M 3366 4563 
L 3366 3988 
Q 3128 4100 2886 4159 
Q 2644 4219 2406 4219 
Q 1781 4219 1451 3797 
Q 1122 3375 1075 2522 
Q 1259 2794 1537 2939 
Q 1816 3084 2150 3084 
Q 2853 3084 3261 2657 
Q 3669 2231 3669 1497 
Q 3669 778 3244 343 
Q 2819 -91 2113 -91 
Q 1303 -91 875 529 
Q 447 1150 447 2328 
Q 447 3434 972 4092 
Q 1497 4750 2381 4750 
Q 2619 4750 2861 4703 
Q 3103 4656 3366 4563 
z
" transform="scale(0.015625)"/>
       </defs>
       <use xlink:href="#DejaVuSans-36"/>
       <use xlink:href="#DejaVuSans-30" transform="translate(63.623047 0)"/>
       <use xlink:href="#DejaVuSans-30" transform="translate(127.246094 0)"/>
       <use xlink:href="#DejaVuSans-30" transform="translate(190.869141 0)"/>
       <use xlink:href="#DejaVuSans-30" transform="translate(254.492188 0)"/>
      </g>
     </g>
    </g>
    <g id="xtick_5">
     <g id="line2d_9">
      <path d="M 506.560319 282.04 
L 506.560319 26.88 
" clip-path="url(#pd31319a9bf)" style="fill: none; stroke-dasharray: 0.5,0.825; stroke-dashoffset: 0; stroke: #b0b0b0; stroke-opacity: 0.6; stroke-width: 0.5"/>
     </g>
     <g id="line2d_10">
      <g>
       <use xlink:href="#m7c805711c5" x="506.560319" y="282.04" style="stroke: #000000; stroke-width: 0.8"/>
      </g>
     </g>
     <g id="text_5">
      <!-- 80000 -->
      <g transform="translate(490.654069 296.638438) scale(0.1 -0.1)">
       <defs>
        <path id="DejaVuSans-38" d="M 2034 2216 
Q 1584 2216 1326 1975 
Q 1069 1734 1069 1313 
Q 1069 891 1326 650 
Q 1584 409 2034 409 
Q 2484 409 2743 651 
Q 3003 894 3003 1313 
Q 3003 1734 2745 1975 
Q 2488 2216 2034 2216 
z
M 1403 2484 
Q 997 2584 770 2862 
Q 544 3141 544 3541 
Q 544 4100 942 4425 
Q 1341 4750 2034 4750 
Q 2731 4750 3128 4425 
Q 3525 4100 3525 3541 
Q 3525 3141 3298 2862 
Q 3072 2584 2669 2484 
Q 3125 2378 3379 2068 
Q 3634 1759 3634 1313 
Q 3634 634 3220 271 
Q 2806 -91 2034 -91 
Q 1263 -91 848 271 
Q 434 634 434 1313 
Q 434 1759 690 2068 
Q 947 2378 1403 2484 
z
M 1172 3481 
Q 1172 3119 1398 2916 
Q 1625 2713 2034 2713 
Q 2441 2713 2670 2916 
Q 2900 3119 2900 3481 
Q 2900 3844 2670 4047 
Q 2441 4250 2034 4250 
Q 1625 4250 1398 4047 
Q 1172 3844 1172 3481 
z
" transform="scale(0.015625)"/>
       </defs>
       <use xlink:href="#DejaVuSans-38"/>
       <use xlink:href="#DejaVuSans-30" transform="translate(63.623047 0)"/>
       <use xlink:href="#DejaVuSans-30" transform="translate(127.246094 0)"/>
       <use xlink:href="#DejaVuSans-30" transform="translate(190.869141 0)"/>
       <use xlink:href="#DejaVuSans-30" transform="translate(254.492188 0)"/>
      </g>
     </g>
    </g>
    <g id="xtick_6">
     <g id="line2d_11">
      <path d="M 611.072273 282.04 
L 611.072273 26.88 
" clip-path="url(#pd31319a9bf)" style="fill: none; stroke-dasharray: 0.5,0.825; stroke-dashoffset: 0; stroke: #b0b0b0; stroke-opacity: 0.6; stroke-width: 0.5"/>
     </g>
     <g id="line2d_12">
      <g>
       <use xlink:href="#m7c805711c5" x="611.072273" y="282.04" style="stroke: #000000; stroke-width: 0.8"/>
      </g>
     </g>
     <g id="text_6">
      <!-- 100000 -->
      <g transform="translate(591.984773 296.638438) scale(0.1 -0.1)">
       <defs>
        <path id="DejaVuSans-31" d="M 794 531 
L 1825 531 
L 1825 4091 
L 703 3866 
L 703 4441 
L 1819 4666 
L 2450 4666 
L 2450 531 
L 3481 531 
L 3481 0 
L 794 0 
L 794 531 
z
" transform="scale(0.015625)"/>
       </defs>
       <use xlink:href="#DejaVuSans-31"/>
       <use xlink:href="#DejaVuSans-30" transform="translate(63.623047 0)"/>
       <use xlink:href="#DejaVuSans-30" transform="translate(127.246094 0)"/>
       <use xlink:href="#DejaVuSans-30" transform="translate(190.869141 0)"/>
       <use xlink:href="#DejaVuSans-30" transform="translate(254.492188 0)"/>
       <use xlink:href="#DejaVuSans-30" transform="translate(318.115234 0)"/>
      </g>
     </g>
    </g>
    <g id="text_7">
     <!-- Sample index -->
     <g transform="translate(315.777031 310.316563) scale(0.1 -0.1)">
      <defs>
       <path id="DejaVuSans-53" d="M 3425 4513 
L 3425 3897 
Q 3066 4069 2747 4153 
Q 2428 4238 2131 4238 
Q 1616 4238 1336 4038 
Q 1056 3838 1056 3469 
Q 1056 3159 1242 3001 
Q 1428 2844 1947 2747 
L 2328 2669 
Q 3034 2534 3370 2195 
Q 3706 1856 3706 1288 
Q 3706 609 3251 259 
Q 2797 -91 1919 -91 
Q 1588 -91 1214 -16 
Q 841 59 441 206 
L 441 856 
Q 825 641 1194 531 
Q 1563 422 1919 422 
Q 2459 422 2753 634 
Q 3047 847 3047 1241 
Q 3047 1584 2836 1778 
Q 2625 1972 2144 2069 
L 1759 2144 
Q 1053 2284 737 2584 
Q 422 2884 422 3419 
Q 422 4038 858 4394 
Q 1294 4750 2059 4750 
Q 2388 4750 2728 4690 
Q 3069 4631 3425 4513 
z
" transform="scale(0.015625)"/>
       <path id="DejaVuSans-61" d="M 2194 1759 
Q 1497 1759 1228 1600 
Q 959 1441 959 1056 
Q 959 750 1161 570 
Q 1363 391 1709 391 
Q 2188 391 2477 730 
Q 2766 1069 2766 1631 
L 2766 1759 
L 2194 1759 
z
M 3341 1997 
L 3341 0 
L 2766 0 
L 2766 531 
Q 2569 213 2275 61 
Q 1981 -91 1556 -91 
Q 1019 -91 701 211 
Q 384 513 384 1019 
Q 384 1609 779 1909 
Q 1175 2209 1959 2209 
L 2766 2209 
L 2766 2266 
Q 2766 2663 2505 2880 
Q 2244 3097 1772 3097 
Q 1472 3097 1187 3025 
Q 903 2953 641 2809 
L 641 3341 
Q 956 3463 1253 3523 
Q 1550 3584 1831 3584 
Q 2591 3584 2966 3190 
Q 3341 2797 3341 1997 
z
" transform="scale(0.015625)"/>
       <path id="DejaVuSans-6d" d="M 3328 2828 
Q 3544 3216 3844 3400 
Q 4144 3584 4550 3584 
Q 5097 3584 5394 3201 
Q 5691 2819 5691 2113 
L 5691 0 
L 5113 0 
L 5113 2094 
Q 5113 2597 4934 2840 
Q 4756 3084 4391 3084 
Q 3944 3084 3684 2787 
Q 3425 2491 3425 1978 
L 3425 0 
L 2847 0 
L 2847 2094 
Q 2847 2600 2669 2842 
Q 2491 3084 2119 3084 
Q 1678 3084 1418 2786 
Q 1159 2488 1159 1978 
L 1159 0 
L 581 0 
L 581 3500 
L 1159 3500 
L 1159 2956 
Q 1356 3278 1631 3431 
Q 1906 3584 2284 3584 
Q 2666 3584 2933 3390 
Q 3200 3197 3328 2828 
z
" transform="scale(0.015625)"/>
       <path id="DejaVuSans-70" d="M 1159 525 
L 1159 -1331 
L 581 -1331 
L 581 3500 
L 1159 3500 
L 1159 2969 
Q 1341 3281 1617 3432 
Q 1894 3584 2278 3584 
Q 2916 3584 3314 3078 
Q 3713 2572 3713 1747 
Q 3713 922 3314 415 
Q 2916 -91 2278 -91 
Q 1894 -91 1617 61 
Q 1341 213 1159 525 
z
M 3116 1747 
Q 3116 2381 2855 2742 
Q 2594 3103 2138 3103 
Q 1681 3103 1420 2742 
Q 1159 2381 1159 1747 
Q 1159 1113 1420 752 
Q 1681 391 2138 391 
Q 2594 391 2855 752 
Q 3116 1113 3116 1747 
z
" transform="scale(0.015625)"/>
       <path id="DejaVuSans-6c" d="M 603 4863 
L 1178 4863 
L 1178 0 
L 603 0 
L 603 4863 
z
" transform="scale(0.015625)"/>
       <path id="DejaVuSans-65" d="M 3597 1894 
L 3597 1613 
L 953 1613 
Q 991 1019 1311 708 
Q 1631 397 2203 397 
Q 2534 397 2845 478 
Q 3156 559 3463 722 
L 3463 178 
Q 3153 47 2828 -22 
Q 2503 -91 2169 -91 
Q 1331 -91 842 396 
Q 353 884 353 1716 
Q 353 2575 817 3079 
Q 1281 3584 2069 3584 
Q 2775 3584 3186 3129 
Q 3597 2675 3597 1894 
z
M 3022 2063 
Q 3016 2534 2758 2815 
Q 2500 3097 2075 3097 
Q 1594 3097 1305 2825 
Q 1016 2553 972 2059 
L 3022 2063 
z
" transform="scale(0.015625)"/>
       <path id="DejaVuSans-20" transform="scale(0.015625)"/>
       <path id="DejaVuSans-69" d="M 603 3500 
L 1178 3500 
L 1178 0 
L 603 0 
L 603 3500 
z
M 603 4863 
L 1178 4863 
L 1178 4134 
L 603 4134 
L 603 4863 
z
" transform="scale(0.015625)"/>
       <path id="DejaVuSans-6e" d="M 3513 2113 
L 3513 0 
L 2938 0 
L 2938 2094 
Q 2938 2591 2744 2837 
Q 2550 3084 2163 3084 
Q 1697 3084 1428 2787 
Q 1159 2491 1159 1978 
L 1159 0 
L 581 0 
L 581 3500 
L 1159 3500 
L 1159 2956 
Q 1366 3272 1645 3428 
Q 1925 3584 2291 3584 
Q 2894 3584 3203 3211 
Q 3513 2838 3513 2113 
z
" transform="scale(0.015625)"/>
       <path id="DejaVuSans-64" d="M 2906 2969 
L 2906 4863 
L 3481 4863 
L 3481 0 
L 2906 0 
L 2906 525 
Q 2725 213 2448 61 
Q 2172 -91 1784 -91 
Q 1150 -91 751 415 
Q 353 922 353 1747 
Q 353 2572 751 3078 
Q 1150 3584 1784 3584 
Q 2172 3584 2448 3432 
Q 2725 3281 2906 2969 
z
M 947 1747 
Q 947 1113 1208 752 
Q 1469 391 1925 391 
Q 2381 391 2643 752 
Q 2906 1113 2906 1747 
Q 2906 2381 2643 2742 
Q 2381 3103 1925 3103 
Q 1469 3103 1208 2742 
Q 947 2381 947 1747 
z
" transform="scale(0.015625)"/>
       <path id="DejaVuSans-78" d="M 3513 3500 
L 2247 1797 
L 3578 0 
L 2900 0 
L 1881 1375 
L 863 0 
L 184 0 
L 1544 1831 
L 300 3500 
L 978 3500 
L 1906 2253 
L 2834 3500 
L 3513 3500 
z
" transform="scale(0.015625)"/>
      </defs>
      <use xlink:href="#DejaVuSans-53"/>
      <use xlink:href="#DejaVuSans-61" transform="translate(63.476562 0)"/>
      <use xlink:href="#DejaVuSans-6d" transform="translate(124.755859 0)"/>
      <use xlink:href="#DejaVuSans-70" transform="translate(222.167969 0)"/>
      <use xlink:href="#DejaVuSans-6c" transform="translate(285.644531 0)"/>
      <use xlink:href="#DejaVuSans-65" transform="translate(313.427734 0)"/>
      <use xlink:href="#DejaVuSans-20" transform="translate(374.951172 0)"/>
      <use xlink:href="#DejaVuSans-69" transform="translate(406.738281 0)"/>
      <use xlink:href="#DejaVuSans-6e" transform="translate(434.521484 0)"/>
      <use xlink:href="#DejaVuSans-64" transform="translate(497.900391 0)"/>
      <use xlink:href="#DejaVuSans-65" transform="translate(561.376953 0)"/>
      <use xlink:href="#DejaVuSans-78" transform="translate(621.150391 0)"/>
     </g>
    </g>
   </g>
   <g id="matplotlib.axis_2">
    <g id="ytick_1">
     <g id="line2d_13">
      <path d="M 62.39 274.337722 
L 637.2 274.337722 
" clip-path="url(#pd31319a9bf)" style="fill: none; stroke-dasharray: 0.5,0.825; stroke-dashoffset: 0; stroke: #b0b0b0; stroke-opacity: 0.6; stroke-width: 0.5"/>
     </g>
     <g id="line2d_14">
      <defs>
       <path id="me154f98ae4" d="M 0 0 
L -3.5 0 
" style="stroke: #000000; stroke-width: 0.8"/>
      </defs>
      <g>
       <use xlink:href="#me154f98ae4" x="62.39" y="274.337722" style="stroke: #000000; stroke-width: 0.8"/>
      </g>
     </g>
     <g id="text_8">
      <!-- −0.05 -->
      <g transform="translate(24.744688 278.136941) scale(0.1 -0.1)">
       <defs>
        <path id="DejaVuSans-2212" d="M 678 2272 
L 4684 2272 
L 4684 1741 
L 678 1741 
L 678 2272 
z
" transform="scale(0.015625)"/>
        <path id="DejaVuSans-2e" d="M 684 794 
L 1344 794 
L 1344 0 
L 684 0 
L 684 794 
z
" transform="scale(0.015625)"/>
        <path id="DejaVuSans-35" d="M 691 4666 
L 3169 4666 
L 3169 4134 
L 1269 4134 
L 1269 2991 
Q 1406 3038 1543 3061 
Q 1681 3084 1819 3084 
Q 2600 3084 3056 2656 
Q 3513 2228 3513 1497 
Q 3513 744 3044 326 
Q 2575 -91 1722 -91 
Q 1428 -91 1123 -41 
Q 819 9 494 109 
L 494 744 
Q 775 591 1075 516 
Q 1375 441 1709 441 
Q 2250 441 2565 725 
Q 2881 1009 2881 1497 
Q 2881 1984 2565 2268 
Q 2250 2553 1709 2553 
Q 1456 2553 1204 2497 
Q 953 2441 691 2322 
L 691 4666 
z
" transform="scale(0.015625)"/>
       </defs>
       <use xlink:href="#DejaVuSans-2212"/>
       <use xlink:href="#DejaVuSans-30" transform="translate(83.789062 0)"/>
       <use xlink:href="#DejaVuSans-2e" transform="translate(147.412109 0)"/>
       <use xlink:href="#DejaVuSans-30" transform="translate(179.199219 0)"/>
       <use xlink:href="#DejaVuSans-35" transform="translate(242.822266 0)"/>
      </g>
     </g>
    </g>
    <g id="ytick_2">
     <g id="line2d_15">
      <path d="M 62.39 241.813053 
L 637.2 241.813053 
" clip-path="url(#pd31319a9bf)" style="fill: none; stroke-dasharray: 0.5,0.825; stroke-dashoffset: 0; stroke: #b0b0b0; stroke-opacity: 0.6; stroke-width: 0.5"/>
     </g>
     <g id="line2d_16">
      <g>
       <use xlink:href="#me154f98ae4" x="62.39" y="241.813053" style="stroke: #000000; stroke-width: 0.8"/>
      </g>
     </g>
     <g id="text_9">
      <!-- −0.04 -->
      <g transform="translate(24.744688 245.612272) scale(0.1 -0.1)">
       <use xlink:href="#DejaVuSans-2212"/>
       <use xlink:href="#DejaVuSans-30" transform="translate(83.789062 0)"/>
       <use xlink:href="#DejaVuSans-2e" transform="translate(147.412109 0)"/>
       <use xlink:href="#DejaVuSans-30" transform="translate(179.199219 0)"/>
       <use xlink:href="#DejaVuSans-34" transform="translate(242.822266 0)"/>
      </g>
     </g>
    </g>
    <g id="ytick_3">
     <g id="line2d_17">
      <path d="M 62.39 209.288384 
L 637.2 209.288384 
" clip-path="url(#pd31319a9bf)" style="fill: none; stroke-dasharray: 0.5,0.825; stroke-dashoffset: 0; stroke: #b0b0b0; stroke-opacity: 0.6; stroke-width: 0.5"/>
     </g>
     <g id="line2d_18">
      <g>
       <use xlink:href="#me154f98ae4" x="62.39" y="209.288384" style="stroke: #000000; stroke-width: 0.8"/>
      </g>
     </g>
     <g id="text_10">
      <!-- −0.03 -->
      <g transform="translate(24.744688 213.087602) scale(0.1 -0.1)">
       <defs>
        <path id="DejaVuSans-33" d="M 2597 2516 
Q 3050 2419 3304 2112 
Q 3559 1806 3559 1356 
Q 3559 666 3084 287 
Q 2609 -91 1734 -91 
Q 1441 -91 1130 -33 
Q 819 25 488 141 
L 488 750 
Q 750 597 1062 519 
Q 1375 441 1716 441 
Q 2309 441 2620 675 
Q 2931 909 2931 1356 
Q 2931 1769 2642 2001 
Q 2353 2234 1838 2234 
L 1294 2234 
L 1294 2753 
L 1863 2753 
Q 2328 2753 2575 2939 
Q 2822 3125 2822 3475 
Q 2822 3834 2567 4026 
Q 2313 4219 1838 4219 
Q 1578 4219 1281 4162 
Q 984 4106 628 3988 
L 628 4550 
Q 988 4650 1302 4700 
Q 1616 4750 1894 4750 
Q 2613 4750 3031 4423 
Q 3450 4097 3450 3541 
Q 3450 3153 3228 2886 
Q 3006 2619 2597 2516 
z
" transform="scale(0.015625)"/>
       </defs>
       <use xlink:href="#DejaVuSans-2212"/>
       <use xlink:href="#DejaVuSans-30" transform="translate(83.789062 0)"/>
       <use xlink:href="#DejaVuSans-2e" transform="translate(147.412109 0)"/>
       <use xlink:href="#DejaVuSans-30" transform="translate(179.199219 0)"/>
       <use xlink:href="#DejaVuSans-33" transform="translate(242.822266 0)"/>
      </g>
     </g>
    </g>
    <g id="ytick_4">
     <g id="line2d_19">
      <path d="M 62.39 176.763714 
L 637.2 176.763714 
" clip-path="url(#pd31319a9bf)" style="fill: none; stroke-dasharray: 0.5,0.825; stroke-dashoffset: 0; stroke: #b0b0b0; stroke-opacity: 0.6; stroke-width: 0.5"/>
     </g>
     <g id="line2d_20">
      <g>
       <use xlink:href="#me154f98ae4" x="62.39" y="176.763714" style="stroke: #000000; stroke-width: 0.8"/>
      </g>
     </g>
     <g id="text_11">
      <!-- −0.02 -->
      <g transform="translate(24.744688 180.562933) scale(0.1 -0.1)">
       <use xlink:href="#DejaVuSans-2212"/>
       <use xlink:href="#DejaVuSans-30" transform="translate(83.789062 0)"/>
       <use xlink:href="#DejaVuSans-2e" transform="translate(147.412109 0)"/>
       <use xlink:href="#DejaVuSans-30" transform="translate(179.199219 0)"/>
       <use xlink:href="#DejaVuSans-32" transform="translate(242.822266 0)"/>
      </g>
     </g>
    </g>
    <g id="ytick_5">
     <g id="line2d_21">
      <path d="M 62.39 144.239045 
L 637.2 144.239045 
" clip-path="url(#pd31319a9bf)" style="fill: none; stroke-dasharray: 0.5,0.825; stroke-dashoffset: 0; stroke: #b0b0b0; stroke-opacity: 0.6; stroke-width: 0.5"/>
     </g>
     <g id="line2d_22">
      <g>
       <use xlink:href="#me154f98ae4" x="62.39" y="144.239045" style="stroke: #000000; stroke-width: 0.8"/>
      </g>
     </g>
     <g id="text_12">
      <!-- −0.01 -->
      <g transform="translate(24.744688 148.038264) scale(0.1 -0.1)">
       <use xlink:href="#DejaVuSans-2212"/>
       <use xlink:href="#DejaVuSans-30" transform="translate(83.789062 0)"/>
       <use xlink:href="#DejaVuSans-2e" transform="translate(147.412109 0)"/>
       <use xlink:href="#DejaVuSans-30" transform="translate(179.199219 0)"/>
       <use xlink:href="#DejaVuSans-31" transform="translate(242.822266 0)"/>
      </g>
     </g>
    </g>
    <g id="ytick_6">
     <g id="line2d_23">
      <path d="M 62.39 111.714376 
L 637.2 111.714376 
" clip-path="url(#pd31319a9bf)" style="fill: none; stroke-dasharray: 0.5,0.825; stroke-dashoffset: 0; stroke: #b0b0b0; stroke-opacity: 0.6; stroke-width: 0.5"/>
     </g>
     <g id="line2d_24">
      <g>
       <use xlink:href="#me154f98ae4" x="62.39" y="111.714376" style="stroke: #000000; stroke-width: 0.8"/>
      </g>
     </g>
     <g id="text_13">
      <!-- 0.00 -->
      <g transform="translate(33.124375 115.513594) scale(0.1 -0.1)">
       <use xlink:href="#DejaVuSans-30"/>
       <use xlink:href="#DejaVuSans-2e" transform="translate(63.623047 0)"/>
       <use xlink:href="#DejaVuSans-30" transform="translate(95.410156 0)"/>
       <use xlink:href="#DejaVuSans-30" transform="translate(159.033203 0)"/>
      </g>
     </g>
    </g>
    <g id="ytick_7">
     <g id="line2d_25">
      <path d="M 62.39 79.189706 
L 637.2 79.189706 
" clip-path="url(#pd31319a9bf)" style="fill: none; stroke-dasharray: 0.5,0.825; stroke-dashoffset: 0; stroke: #b0b0b0; stroke-opacity: 0.6; stroke-width: 0.5"/>
     </g>
     <g id="line2d_26">
      <g>
       <use xlink:href="#me154f98ae4" x="62.39" y="79.189706" style="stroke: #000000; stroke-width: 0.8"/>
      </g>
     </g>
     <g id="text_14">
      <!-- 0.01 -->
      <g transform="translate(33.124375 82.988925) scale(0.1 -0.1)">
       <use xlink:href="#DejaVuSans-30"/>
       <use xlink:href="#DejaVuSans-2e" transform="translate(63.623047 0)"/>
       <use xlink:href="#DejaVuSans-30" transform="translate(95.410156 0)"/>
       <use xlink:href="#DejaVuSans-31" transform="translate(159.033203 0)"/>
      </g>
     </g>
    </g>
    <g id="ytick_8">
     <g id="line2d_27">
      <path d="M 62.39 46.665037 
L 637.2 46.665037 
" clip-path="url(#pd31319a9bf)" style="fill: none; stroke-dasharray: 0.5,0.825; stroke-dashoffset: 0; stroke: #b0b0b0; stroke-opacity: 0.6; stroke-width: 0.5"/>
     </g>
     <g id="line2d_28">
      <g>
       <use xlink:href="#me154f98ae4" x="62.39" y="46.665037" style="stroke: #000000; stroke-width: 0.8"/>
      </g>
     </g>
     <g id="text_15">
      <!-- 0.02 -->
      <g transform="translate(33.124375 50.464256) scale(0.1 -0.1)">
       <use xlink:href="#DejaVuSans-30"/>
       <use xlink:href="#DejaVuSans-2e" transform="translate(63.623047 0)"/>
       <use xlink:href="#DejaVuSans-30" transform="translate(95.410156 0)"/>
       <use xlink:href="#DejaVuSans-32" transform="translate(159.033203 0)"/>
      </g>
     </g>
    </g>
    <g id="text_16">
     <!-- Running mean of declination -->
     <g transform="translate(18.665 226.302188) rotate(-90) scale(0.1 -0.1)">
      <defs>
       <path id="DejaVuSans-52" d="M 2841 2188 
Q 3044 2119 3236 1894 
Q 3428 1669 3622 1275 
L 4263 0 
L 3584 0 
L 2988 1197 
Q 2756 1666 2539 1819 
Q 2322 1972 1947 1972 
L 1259 1972 
L 1259 0 
L 628 0 
L 628 4666 
L 2053 4666 
Q 2853 4666 3247 4331 
Q 3641 3997 3641 3322 
Q 3641 2881 3436 2590 
Q 3231 2300 2841 2188 
z
M 1259 4147 
L 1259 2491 
L 2053 2491 
Q 2509 2491 2742 2702 
Q 2975 2913 2975 3322 
Q 2975 3731 2742 3939 
Q 2509 4147 2053 4147 
L 1259 4147 
z
" transform="scale(0.015625)"/>
       <path id="DejaVuSans-75" d="M 544 1381 
L 544 3500 
L 1119 3500 
L 1119 1403 
Q 1119 906 1312 657 
Q 1506 409 1894 409 
Q 2359 409 2629 706 
Q 2900 1003 2900 1516 
L 2900 3500 
L 3475 3500 
L 3475 0 
L 2900 0 
L 2900 538 
Q 2691 219 2414 64 
Q 2138 -91 1772 -91 
Q 1169 -91 856 284 
Q 544 659 544 1381 
z
M 1991 3584 
L 1991 3584 
z
" transform="scale(0.015625)"/>
       <path id="DejaVuSans-67" d="M 2906 1791 
Q 2906 2416 2648 2759 
Q 2391 3103 1925 3103 
Q 1463 3103 1205 2759 
Q 947 2416 947 1791 
Q 947 1169 1205 825 
Q 1463 481 1925 481 
Q 2391 481 2648 825 
Q 2906 1169 2906 1791 
z
M 3481 434 
Q 3481 -459 3084 -895 
Q 2688 -1331 1869 -1331 
Q 1566 -1331 1297 -1286 
Q 1028 -1241 775 -1147 
L 775 -588 
Q 1028 -725 1275 -790 
Q 1522 -856 1778 -856 
Q 2344 -856 2625 -561 
Q 2906 -266 2906 331 
L 2906 616 
Q 2728 306 2450 153 
Q 2172 0 1784 0 
Q 1141 0 747 490 
Q 353 981 353 1791 
Q 353 2603 747 3093 
Q 1141 3584 1784 3584 
Q 2172 3584 2450 3431 
Q 2728 3278 2906 2969 
L 2906 3500 
L 3481 3500 
L 3481 434 
z
" transform="scale(0.015625)"/>
       <path id="DejaVuSans-6f" d="M 1959 3097 
Q 1497 3097 1228 2736 
Q 959 2375 959 1747 
Q 959 1119 1226 758 
Q 1494 397 1959 397 
Q 2419 397 2687 759 
Q 2956 1122 2956 1747 
Q 2956 2369 2687 2733 
Q 2419 3097 1959 3097 
z
M 1959 3584 
Q 2709 3584 3137 3096 
Q 3566 2609 3566 1747 
Q 3566 888 3137 398 
Q 2709 -91 1959 -91 
Q 1206 -91 779 398 
Q 353 888 353 1747 
Q 353 2609 779 3096 
Q 1206 3584 1959 3584 
z
" transform="scale(0.015625)"/>
       <path id="DejaVuSans-66" d="M 2375 4863 
L 2375 4384 
L 1825 4384 
Q 1516 4384 1395 4259 
Q 1275 4134 1275 3809 
L 1275 3500 
L 2222 3500 
L 2222 3053 
L 1275 3053 
L 1275 0 
L 697 0 
L 697 3053 
L 147 3053 
L 147 3500 
L 697 3500 
L 697 3744 
Q 697 4328 969 4595 
Q 1241 4863 1831 4863 
L 2375 4863 
z
" transform="scale(0.015625)"/>
       <path id="DejaVuSans-63" d="M 3122 3366 
L 3122 2828 
Q 2878 2963 2633 3030 
Q 2388 3097 2138 3097 
Q 1578 3097 1268 2742 
Q 959 2388 959 1747 
Q 959 1106 1268 751 
Q 1578 397 2138 397 
Q 2388 397 2633 464 
Q 2878 531 3122 666 
L 3122 134 
Q 2881 22 2623 -34 
Q 2366 -91 2075 -91 
Q 1284 -91 818 406 
Q 353 903 353 1747 
Q 353 2603 823 3093 
Q 1294 3584 2113 3584 
Q 2378 3584 2631 3529 
Q 2884 3475 3122 3366 
z
" transform="scale(0.015625)"/>
       <path id="DejaVuSans-74" d="M 1172 4494 
L 1172 3500 
L 2356 3500 
L 2356 3053 
L 1172 3053 
L 1172 1153 
Q 1172 725 1289 603 
Q 1406 481 1766 481 
L 2356 481 
L 2356 0 
L 1766 0 
Q 1100 0 847 248 
Q 594 497 594 1153 
L 594 3053 
L 172 3053 
L 172 3500 
L 594 3500 
L 594 4494 
L 1172 4494 
z
" transform="scale(0.015625)"/>
      </defs>
      <use xlink:href="#DejaVuSans-52"/>
      <use xlink:href="#DejaVuSans-75" transform="translate(64.982422 0)"/>
      <use xlink:href="#DejaVuSans-6e" transform="translate(128.361328 0)"/>
      <use xlink:href="#DejaVuSans-6e" transform="translate(191.740234 0)"/>
      <use xlink:href="#DejaVuSans-69" transform="translate(255.119141 0)"/>
      <use xlink:href="#DejaVuSans-6e" transform="translate(282.902344 0)"/>
      <use xlink:href="#DejaVuSans-67" transform="translate(346.28125 0)"/>
      <use xlink:href="#DejaVuSans-20" transform="translate(409.757812 0)"/>
      <use xlink:href="#DejaVuSans-6d" transform="translate(441.544922 0)"/>
      <use xlink:href="#DejaVuSans-65" transform="translate(538.957031 0)"/>
      <use xlink:href="#DejaVuSans-61" transform="translate(600.480469 0)"/>
      <use xlink:href="#DejaVuSans-6e" transform="translate(661.759766 0)"/>
      <use xlink:href="#DejaVuSans-20" transform="translate(725.138672 0)"/>
      <use xlink:href="#DejaVuSans-6f" transform="translate(756.925781 0)"/>
      <use xlink:href="#DejaVuSans-66" transform="translate(818.107422 0)"/>
      <use xlink:href="#DejaVuSans-20" transform="translate(853.3125 0)"/>
      <use xlink:href="#DejaVuSans-64" transform="translate(885.099609 0)"/>
      <use xlink:href="#DejaVuSans-65" transform="translate(948.576172 0)"/>
      <use xlink:href="#DejaVuSans-63" transform="translate(1010.099609 0)"/>
      <use xlink:href="#DejaVuSans-6c" transform="translate(1065.080078 0)"/>
      <use xlink:href="#DejaVuSans-69" transform="translate(1092.863281 0)"/>
      <use xlink:href="#DejaVuSans-6e" transform="translate(1120.646484 0)"/>
      <use xlink:href="#DejaVuSans-61" transform="translate(1184.025391 0)"/>
      <use xlink:href="#DejaVuSans-74" transform="translate(1245.304688 0)"/>
      <use xlink:href="#DejaVuSans-69" transform="translate(1284.513672 0)"/>
      <use xlink:href="#DejaVuSans-6f" transform="translate(1312.296875 0)"/>
      <use xlink:href="#DejaVuSans-6e" transform="translate(1373.478516 0)"/>
     </g>
    </g>
   </g>
   <g id="line2d_29">
    <path d="M 88.517727 130.478674 
L 88.569983 132.195108 
L 88.543855 130.28145 
L 88.590886 130.507845 
L 88.700623 38.478182 
L 88.773782 42.557887 
L 88.810361 41.736387 
L 88.815586 43.251045 
L 89.41653 167.859826 
L 89.63078 185.83294 
L 89.750968 197.706091 
L 90.048827 219.541297 
L 90.242175 222.797903 
L 90.257851 222.159297 
L 90.456424 218.296788 
L 90.545259 218.036779 
L 90.759509 201.797544 
L 91.083496 183.775346 
L 91.276843 181.834975 
L 91.417934 179.245751 
L 91.438836 179.725524 
L 91.5538 182.059445 
L 91.611281 181.213338 
L 91.794177 177.575611 
L 91.893463 178.636664 
L 92.243578 183.491569 
L 92.567565 195.99126 
L 92.750461 199.86694 
L 92.781815 199.226936 
L 92.943809 197.187185 
L 93.252119 194.056978 
L 93.299149 194.290774 
L 93.419338 195.430479 
L 93.581331 196.769976 
L 93.790355 198.096734 
L 94.030733 201.109698 
L 94.114342 201.73215 
L 94.710061 209.195781 
L 95.117657 212.565442 
L 96.920488 269.362144 
L 97.035452 269.574186 
L 96.998872 269.33771 
L 97.045903 269.517577 
L 97.134738 269.06126 
L 97.181768 269.367837 
L 97.348987 270.441818 
L 97.406469 270.176151 
L 97.59459 269.072604 
L 97.662523 268.956926 
L 97.819291 268.17611 
L 97.98651 264.664091 
L 98.300046 254.908018 
L 99.230203 227.096025 
L 99.418324 225.300258 
L 99.757988 222.330679 
L 100.019268 221.706833 
L 100.599309 219.816526 
L 100.7404 218.743013 
L 100.782205 218.923629 
L 100.87104 219.308174 
L 100.95465 219.224373 
L 100.959875 219.20737 
L 101.006906 219.414299 
L 101.257734 220.287924 
L 101.283862 220.175103 
L 101.471984 218.937137 
L 101.754166 216.985947 
L 101.910934 216.691173 
L 101.999769 216.65339 
L 102.015446 216.741593 
L 102.0468 216.982846 
L 103.468162 231.552449 
L 103.499516 231.596652 
L 103.525644 231.470328 
L 104.372191 227.695456 
L 104.413996 227.842411 
L 104.450575 227.828144 
L 104.466251 227.922703 
L 104.748434 229.392864 
L 104.795464 229.242372 
L 105.088098 227.960902 
L 105.229189 226.449996 
L 105.281445 226.722265 
L 105.422536 227.823386 
L 105.579304 227.62855 
L 105.699493 227.313343 
L 106.096638 223.965408 
L 106.37882 221.730864 
L 106.404948 221.811343 
L 106.713259 222.453368 
L 106.72371 222.418063 
L 106.755063 222.307056 
L 106.822996 222.448186 
L 106.922282 222.684494 
L 106.98499 222.528975 
L 107.058148 222.597003 
L 107.204465 221.737246 
L 107.376909 219.793948 
L 107.768829 216.187191 
L 107.794957 216.201004 
L 107.821085 216.331183 
L 108.651955 220.728151 
L 108.735565 220.942125 
L 109.054326 222.196902 
L 109.231997 222.428926 
L 109.268576 222.304351 
L 109.284253 222.254059 
L 109.373088 222.331689 
L 109.446246 222.227524 
L 109.613465 221.972821 
L 109.744105 221.815406 
L 109.848617 221.528481 
L 110.768322 213.046338 
L 110.783999 212.986377 
L 110.851932 213.159828 
L 110.904188 213.295992 
L 110.972121 213.175605 
L 111.280431 212.705518 
L 111.311784 212.792593 
L 111.44765 213.164505 
L 111.510357 213.030952 
L 111.729832 212.323836 
L 113.428152 203.723383 
L 114.750228 200.681993 
L 114.828612 200.752774 
L 115.095117 201.092099 
L 115.523616 201.632325 
L 115.544519 201.582948 
L 115.94689 200.925281 
L 116.317907 200.321505 
L 116.631443 199.481103 
L 116.965881 197.819812 
L 117.154003 197.376704 
L 117.16968 197.455054 
L 117.634758 199.213491 
L 117.812428 199.474699 
L 118.042354 200.220844 
L 118.089385 200.091276 
L 118.162543 199.955852 
L 118.214799 200.051392 
L 118.329762 200.043044 
L 118.549237 200.066028 
L 118.815743 199.896645 
L 118.888901 199.813357 
L 118.935932 199.926754 
L 119.165858 200.622356 
L 119.92357 202.710273 
L 120.096014 202.671682 
L 120.900756 201.887182 
L 121.209067 201.402999 
L 121.224743 201.427633 
L 121.287451 201.33426 
L 121.590535 200.737565 
L 121.987681 199.525769 
L 122.019034 199.535301 
L 122.473661 199.56697 
L 122.54682 199.656436 
L 123.34111 201.181858 
L 123.356787 201.153082 
L 123.456074 200.976975 
L 123.524006 201.068428 
L 123.989085 201.934133 
L 124.46984 202.576845 
L 124.490742 202.558066 
L 124.814729 202.128124 
L 125.164844 201.680456 
L 125.650825 201.899241 
L 125.823269 202.056754 
L 125.943458 202.130389 
L 126.695944 204.063715 
L 126.87884 204.6802 
L 126.915419 204.607029 
L 127.025157 204.490703 
L 127.046059 204.552188 
L 127.406625 205.785477 
L 127.641777 206.001354 
L 127.688808 205.914463 
L 127.808996 205.520181 
L 127.92396 205.660202 
L 128.007569 205.877263 
L 128.211367 206.138663 
L 128.446519 206.176599 
L 128.545806 206.11425 
L 128.592836 206.200597 
L 128.655543 206.31675 
L 128.728702 206.233841 
L 128.822762 206.114034 
L 128.854116 206.182913 
L 129.104945 206.544558 
L 129.115396 206.526822 
L 129.805175 205.19766 
L 129.925364 205.365998 
L 130.254576 205.955073 
L 130.421795 206.070247 
L 131.252665 206.702565 
L 131.331049 206.757971 
L 131.388531 206.66603 
L 131.827481 206.120725 
L 132.214175 206.260709 
L 132.235078 206.219228 
L 132.945759 204.606946 
L 133.369032 203.78443 
L 133.374258 203.792757 
L 133.60941 203.982637 
L 133.614636 203.972526 
L 134.22603 202.580089 
L 135.114382 199.285184 
L 135.297278 198.939471 
L 135.595137 197.578816 
L 135.908673 196.49213 
L 135.92435 196.498399 
L 136.159502 196.475972 
L 136.311044 196.24371 
L 136.342398 196.322332 
L 136.619354 197.04969 
L 136.964244 197.164934 
L 137.309133 197.01812 
L 137.565187 197.002899 
L 137.701053 196.647193 
L 138.10865 195.920145 
L 138.511021 195.100641 
L 138.965648 194.091217 
L 140.25637 190.44615 
L 140.47062 190.007276 
L 140.663967 189.81329 
L 140.700546 189.860644 
L 141.066338 190.318674 
L 141.129045 190.26316 
L 141.43213 190.249858 
L 141.808373 190.741992 
L 141.813598 190.736607 
L 142.315256 190.06043 
L 142.681048 189.108041 
L 143.046839 188.856027 
L 143.297668 188.538404 
L 143.501466 188.094855 
L 143.558948 188.183176 
L 143.862033 188.448792 
L 144.473428 188.490633 
L 144.692903 188.54065 
L 144.760835 188.591369 
L 144.80264 188.517541 
L 144.948957 188.472815 
L 145.215462 188.565403 
L 145.570803 188.672992 
L 146.119491 188.713896 
L 146.621148 189.5336 
L 146.919007 190.054319 
L 147.316153 190.528013 
L 147.566981 190.996248 
L 148.298565 191.845564 
L 148.491912 192.033732 
L 148.842027 191.833536 
L 149.009246 191.653712 
L 150.623956 188.236607 
L 150.660535 188.255157 
L 150.88001 188.24348 
L 151.146516 188.056698 
L 151.329412 188.079557 
L 151.778813 188.376119 
L 151.940807 188.316108 
L 152.515622 187.330526 
L 153.001603 187.122414 
L 153.095664 186.966249 
L 153.565968 186.341278 
L 153.790668 186.462191 
L 154.245295 187.124193 
L 154.506575 187.369209 
L 154.543154 187.297913 
L 155.374024 185.943336 
L 155.619627 185.984104 
L 155.943615 186.49308 
L 156.314632 188.132211 
L 156.325083 188.128388 
L 156.429595 187.976157 
L 156.915576 186.930781 
L 157.500843 184.976897 
L 158.357841 183.57444 
L 158.577316 183.723571 
L 159.031943 184.600512 
L 159.126004 184.508046 
L 159.361155 184.110973 
L 160.00913 182.991833 
L 160.301763 183.247845 
L 160.589171 183.43391 
L 160.808646 183.252648 
L 161.163987 182.154305 
L 161.723126 180.041591 
L 161.958277 179.127916 
L 162.783922 175.523964 
L 163.11836 174.574932 
L 163.134037 174.607121 
L 164.220961 176.575287 
L 164.738295 176.74031 
L 164.978673 176.932631 
L 165.166794 177.067167 
L 165.192922 177.039592 
L 165.339239 177.048543 
L 165.485556 176.918133 
L 165.87225 176.695814 
L 166.149207 176.659617 
L 166.640413 177.698208 
L 166.823309 177.899047 
L 167.53399 179.476415 
L 167.753465 179.411025 
L 168.349183 178.82701 
L 168.647043 178.516678 
L 168.950127 178.125442 
L 169.258437 177.734593 
L 169.551071 177.634463 
L 169.922088 177.66273 
L 170.272203 177.554042 
L 170.449874 177.398658 
L 170.496904 177.441984 
L 171.123976 178.184359 
L 171.275518 178.254604 
L 171.583828 178.245097 
L 171.798078 178.514658 
L 171.954846 178.576118 
L 172.101163 178.640189 
L 172.587143 178.843346 
L 173.580007 177.660282 
L 173.977152 177.765756 
L 174.222755 177.659171 
L 174.719187 177.495219 
L 175.199942 177.252293 
L 175.335808 177.282844 
L 175.800886 177.373761 
L 176.020361 177.19428 
L 176.27119 176.712807 
L 176.846005 175.626526 
L 177.488754 175.227068 
L 177.859771 175.21996 
L 178.037442 175.201834 
L 178.178533 175.235034 
L 179.077336 176.426236 
L 179.453579 176.595205 
L 179.798468 177.078229 
L 180.023169 177.014831 
L 180.242644 176.815421 
L 180.2949 176.883706 
L 180.869716 177.487476 
L 180.874941 177.483542 
L 180.942874 177.454396 
L 180.979453 177.53162 
L 181.277312 178.014339 
L 181.491562 178.071208 
L 182.4792 178.54863 
L 182.766608 178.499269 
L 182.933827 178.483802 
L 183.576575 177.597947 
L 183.639282 177.657101 
L 184.40222 178.66327 
L 184.940456 179.659977 
L 184.945682 179.65727 
L 185.478693 179.250917 
L 185.797454 178.886105 
L 186.262532 178.815447 
L 186.868702 177.352801 
L 187.171786 176.684221 
L 187.898145 176.258834 
L 188.441607 176.438969 
L 188.666307 176.435197 
L 189.444921 176.570232 
L 189.64872 176.94684 
L 190.521395 178.553744 
L 190.683388 178.515563 
L 191.425423 178.104477 
L 191.937532 177.799939 
L 192.261519 177.776802 
L 192.507122 177.559333 
L 193.191675 176.501739 
L 193.975515 174.96593 
L 194.200215 174.829423 
L 194.858641 174.606535 
L 195.741767 175.045074 
L 196.097107 175.315323 
L 196.217296 175.426383 
L 196.280003 175.377114 
L 196.494253 175.345005 
L 197.189257 175.883595 
L 197.560275 175.79245 
L 197.737945 175.726893 
L 198.114188 175.800009 
L 198.30231 175.634454 
L 198.647199 175.378195 
L 199.284722 175.297825 
L 199.436264 175.251062 
L 200.052885 174.905202 
L 200.643377 174.292979 
L 201.202516 174.053051 
L 201.667594 174.086829 
L 202.378276 173.707044 
L 202.911287 173.831898 
L 203.240499 173.938942 
L 203.522682 173.615403 
L 203.883248 173.242851 
L 203.992985 173.293326 
L 204.567801 173.678107 
L 205.12694 173.433136 
L 205.430025 173.395217 
L 205.905554 173.248812 
L 206.067548 173.250377 
L 206.621461 173.259871 
L 206.877515 173.047032 
L 207.462782 172.524253 
L 208.121208 171.964875 
L 208.586286 171.618086 
L 208.873694 171.081156 
L 209.375351 170.24658 
L 209.944941 169.586968 
L 210.713104 169.605938 
L 211.768675 168.912817 
L 212.259881 168.552431 
L 212.542063 168.224893 
L 212.892178 167.776825 
L 214.062712 166.970022 
L 214.229931 167.082172 
L 214.48076 167.223546 
L 215.332533 166.902318 
L 215.870769 166.950471 
L 216.445585 166.726875 
L 216.999498 166.88307 
L 217.370516 167.338403 
L 217.563863 167.359008 
L 218.713494 167.430191 
L 218.89639 167.271224 
L 221.310616 164.598945 
L 221.488287 164.454598 
L 221.82795 164.298894 
L 222.632693 164.52992 
L 222.893972 164.738437 
L 223.13435 164.813396 
L 224.900602 165.485033 
L 225.151431 165.309408 
L 225.41271 165.140114 
L 225.741923 164.827091 
L 225.992752 164.7514 
L 226.28016 164.593365 
L 226.489184 164.549266 
L 227.173737 164.811829 
L 227.440242 164.704962 
L 227.764229 164.699053 
L 227.931449 164.799051 
L 228.286789 165.045434 
L 228.5951 165.068607 
L 229.122885 165.040434 
L 229.922401 165.808619 
L 230.053041 165.866659 
L 230.298644 165.992921 
L 230.507668 165.971479 
L 231.207898 165.33225 
L 231.44305 165.131739 
L 231.991738 164.603597 
L 232.352304 164.288534 
L 232.624035 164.149746 
L 233.245881 164.056589 
L 233.716185 164.103089 
L 233.899081 164.066965 
L 234.108105 164.080144 
L 235.121871 163.690626 
L 236.130411 163.688795 
L 237.044891 162.991057 
L 237.65106 162.638851 
L 238.048206 162.175841 
L 238.805917 161.08682 
L 239.772653 160.167431 
L 240.216829 160.536725 
L 240.53559 160.436894 
L 241.361235 159.907758 
L 242.003983 159.484866 
L 242.275714 159.278207 
L 243.754558 157.455787 
L 245.071409 155.7883 
L 245.322238 155.706232 
L 245.897054 154.561034 
L 246.362132 153.93101 
L 246.754052 153.8499 
L 247.511763 154.355031 
L 247.778269 154.290183 
L 248.107481 154.233838 
L 248.462822 154.014747 
L 249.152601 154.050512 
L 250.370165 155.577268 
L 250.866597 155.811163 
L 251.274194 156.166119 
L 251.545925 156.164881 
L 251.922168 156.021945 
L 252.28796 155.968632 
L 252.868001 156.240367 
L 253.144958 156.293384 
L 253.792932 156.804717 
L 254.921661 157.091942 
L 255.292678 157.318638 
L 255.564409 157.528 
L 255.846592 157.921662 
L 256.70359 158.898545 
L 257.048479 159.297968 
L 257.252277 159.372789 
L 257.602392 159.146812 
L 258.057019 158.838424 
L 258.286946 158.863039 
L 258.49597 158.785208 
L 259.002853 158.527623 
L 259.300712 158.762501 
L 259.614248 159.053653 
L 259.828497 159.016092 
L 260.173386 158.846264 
L 260.502599 158.751151 
L 261.422304 158.935742 
L 261.803773 158.736449 
L 262.504003 158.340905 
L 262.801862 158.265068 
L 263.17288 158.336586 
L 263.465513 158.614623 
L 263.841756 158.878348 
L 264.468828 158.771029 
L 265.989477 158.76864 
L 266.172373 158.734842 
L 267.018919 159.048147 
L 267.363809 158.960834 
L 267.713924 159.023567 
L 267.912497 158.799846 
L 268.231258 158.493424 
L 268.77472 158.236265 
L 268.931488 158.178055 
L 269.506304 157.941247 
L 270.08112 158.084311 
L 270.446912 157.938548 
L 270.791801 157.955725 
L 271.251654 158.059639 
L 271.701055 158.052936 
L 273.179899 158.533041 
L 273.681557 158.800916 
L 273.859227 158.896278 
L 274.2825 159.265306 
L 274.789383 159.851058 
L 274.961828 160.034168 
L 275.406004 160.298456 
L 276.012173 160.602066 
L 276.503379 160.87869 
L 277.281993 160.731184 
L 277.914291 161.094157 
L 278.666777 161.952194 
L 279.194562 162.553975 
L 279.957499 162.426856 
L 280.22923 162.393966 
L 280.683857 162.63763 
L 281.133259 162.353456 
L 281.352734 162.330144 
L 281.692398 162.34229 
L 282.047738 162.654159 
L 282.502365 162.924454 
L 282.962218 162.773049 
L 283.364589 162.634427 
L 283.651997 162.642845 
L 284.367904 162.872876 
L 284.670989 162.866626 
L 285.047232 162.790427 
L 285.439151 162.571432 
L 285.64295 162.66433 
L 286.123705 162.99976 
L 286.625362 163.001775 
L 287.059087 163.273785 
L 287.393525 163.6935 
L 287.686158 163.916943 
L 288.083304 163.903331 
L 289.473313 165.300717 
L 290.006324 165.877669 
L 290.659524 166.269212 
L 291.662838 167.585941 
L 291.997277 167.698954 
L 292.849049 167.716691 
L 293.063298 167.72627 
L 293.293225 167.850721 
L 293.747852 168.168521 
L 294.280863 168.407764 
L 295.064702 168.936109 
L 295.926926 169.08085 
L 296.355425 168.964055 
L 296.590577 168.886529 
L 296.877985 168.676725 
L 297.390093 168.373069 
L 297.865623 168.564802 
L 298.074647 168.543037 
L 298.299347 168.572503 
L 298.93687 168.19883 
L 299.433302 168.139676 
L 299.76774 168.046964 
L 300.771055 167.46687 
L 300.948725 167.339918 
L 301.439932 166.950863 
L 301.962491 167.043787 
L 302.29693 167.078356 
L 302.626142 166.938793 
L 303.274116 166.448163 
L 304.334913 165.738642 
L 304.768637 165.668109 
L 305.400935 165.757981 
L 305.625635 165.883697 
L 306.764816 166.906899 
L 307.078352 167.038179 
L 307.59046 167.210386 
L 307.977154 167.159535 
L 308.3743 167.137414 
L 309.351487 167.376637 
L 309.665022 167.421933 
L 309.921077 167.189007 
L 310.443636 166.757125 
L 310.893038 166.750418 
L 311.462628 166.700317 
L 312.00609 166.809449 
L 312.44504 166.931338 
L 312.83696 167.053462 
L 313.375197 167.252002 
L 313.657379 167.383724 
L 314.357609 167.863317 
L 315.439308 168.127378 
L 316.50533 168.169274 
L 316.986085 168.154198 
L 317.487742 168.199207 
L 318.491057 168.179133 
L 319.065873 168.135558 
L 319.713847 168.00737 
L 320.126669 167.775322 
L 320.52904 167.667527 
L 321.521904 168.20933 
L 321.950403 168.558178 
L 322.227359 168.859201 
L 322.896236 169.569158 
L 323.659173 170.291644 
L 324.631134 170.411465 
L 325.169371 170.750022 
L 325.655351 170.915231 
L 326.115204 171.014501 
L 326.548929 170.939162 
L 327.458183 170.76222 
L 328.487625 171.350713 
L 328.822064 171.292809 
L 329.151276 171.207106 
L 329.57455 171.291936 
L 330.76076 171.684755 
L 331.314674 171.795379 
L 331.602082 171.799701 
L 331.946971 171.895823 
L 332.255281 172.058847 
L 333.608711 172.52495 
L 334.538867 173.535544 
L 335.17639 173.389605 
L 335.714627 173.117246 
L 336.278992 172.926087 
L 337.05238 172.934524 
L 337.240502 173.070861 
L 337.627196 173.276674 
L 338.14453 173.230544 
L 338.458066 173.482674 
L 338.991077 173.772036 
L 339.858526 174.110354 
L 340.72075 173.977102 
L 341.065639 173.759091 
L 341.802448 173.689191 
L 342.60719 173.965326 
L 343.035689 174.249807 
L 343.485091 174.265472 
L 343.798627 174.135955 
L 346.850376 172.760255 
L 347.299777 172.412221 
L 347.790983 172.328791 
L 348.830877 172.366108 
L 349.949155 173.156362 
L 351.009951 173.029343 
L 351.26078 172.965172 
L 351.704956 172.791074 
L 352.264095 172.405164 
L 352.948648 172.27242 
L 353.26741 172.361819 
L 354.030347 172.60855 
L 355.566673 173.709662 
L 356.146714 174.014035 
L 356.496829 173.956078 
L 356.888749 173.841397 
L 357.411309 173.855758 
L 357.923417 173.836806 
L 358.707257 173.517931 
L 359.167109 173.290349 
L 359.574706 173.238403 
L 360.74524 173.747927 
L 361.31483 174.477284 
L 361.544756 174.623553 
L 362.161377 174.203382 
L 362.950442 173.703688 
L 363.457325 173.558981 
L 363.922403 173.351455 
L 364.28297 173.317782 
L 364.643536 173.279737 
L 364.857785 173.218926 
L 365.537113 173.118686 
L 367.580322 173.044064 
L 368.275326 173.080226 
L 368.646344 173.293041 
L 368.918075 173.333253 
L 369.75417 173.154832 
L 370.135639 173.242516 
L 370.412596 173.072455 
L 370.741808 172.926308 
L 371.604032 172.728567 
L 373.197839 171.624107 
L 373.574082 171.472955 
L 373.924197 171.330047 
L 374.222056 171.399533 
L 374.619202 171.450077 
L 375.126085 171.36325 
L 375.632968 171.263661 
L 376.709441 171.287835 
L 377.09091 171.438177 
L 377.738884 171.741142 
L 378.616784 171.922019 
L 379.045283 171.989261 
L 379.49991 172.224258 
L 379.886604 172.409744 
L 380.215817 172.540051 
L 380.701798 172.905165 
L 381.42293 173.655204 
L 381.846204 174.020191 
L 382.097032 174.268448 
L 382.943579 175.133916 
L 383.920766 175.492958 
L 385.065172 175.591837 
L 385.974426 176.076345 
L 386.172998 176.154798 
L 386.507437 176.211691 
L 387.563007 175.888613 
L 388.001958 175.931006 
L 388.420005 176.251228 
L 389.961557 177.311459 
L 390.416184 177.426251 
L 391.095512 177.768168 
L 391.377694 177.816708 
L 392.354881 178.179211 
L 392.924471 178.510929 
L 393.415677 178.628771 
L 394.957228 179.2108 
L 397.078821 180.246601 
L 397.930593 180.045302 
L 398.390446 179.971311 
L 400.423203 179.922664 
L 401.180915 180.242446 
L 402.257388 180.56605 
L 402.602278 180.398917 
L 403.333861 179.993222 
L 404.248341 179.802037 
L 406.087751 179.71622 
L 406.678244 179.549191 
L 407.164224 179.370017 
L 407.911485 179.185872 
L 408.371338 179.078951 
L 408.648294 179.117144 
L 409.406006 179.339435 
L 409.980822 178.970931 
L 410.346613 178.777333 
L 410.62357 178.624436 
L 411.088648 178.366303 
L 411.464891 178.362255 
L 412.227829 178.381259 
L 412.645876 178.445593 
L 412.959412 178.614214 
L 414.187428 179.173309 
L 414.396452 179.109274 
L 415.117584 178.476261 
L 415.833491 178.08804 
L 416.256764 178.120574 
L 416.70094 178.248111 
L 417.280982 178.496681 
L 417.803541 178.502819 
L 418.326101 178.44767 
L 418.921819 178.373567 
L 419.637726 178.224174 
L 421.043412 177.545153 
L 421.518941 177.436779 
L 422.135562 177.608808 
L 422.517031 177.727627 
L 422.788762 177.697829 
L 423.070944 177.75086 
L 424.069033 177.968373 
L 424.356441 178.094649 
L 424.722233 178.196994 
L 425.281372 178.078783 
L 425.553103 178.104654 
L 425.798706 178.11975 
L 426.091339 178.12931 
L 426.383973 178.263175 
L 426.864728 178.550408 
L 427.967329 179.044291 
L 430.151629 179.407419 
L 431.25423 179.17449 
L 431.959686 179.196522 
L 433.386274 178.429104 
L 434.065601 178.083168 
L 434.985307 177.986026 
L 435.502641 177.990983 
L 436.312608 178.191905 
L 437.624234 178.727967 
L 437.838483 178.889002 
L 438.094537 178.986501 
L 439.484546 179.251406 
L 439.719698 179.227391 
L 442.980471 178.239953 
L 444.135328 178.062097 
L 445.055033 177.711103 
L 445.645526 177.743663 
L 446.267372 177.848885 
L 448.425544 178.208241 
L 450.599393 178.908711 
L 451.534775 178.753038 
L 452.935235 178.178528 
L 453.353283 178.302166 
L 454.434981 178.680517 
L 455.412168 178.625876 
L 455.997435 178.624263 
L 457.011201 178.589445 
L 458.030193 178.455294 
L 458.631136 178.312587 
L 459.070087 178.202855 
L 460.021145 178.348425 
L 460.329456 178.448165 
L 461.311868 178.229179 
L 462.048677 178.121791 
L 463.438686 177.923862 
L 463.867185 177.921141 
L 465.398285 177.795981 
L 466.584496 177.674904 
L 467.143635 177.70503 
L 467.498976 177.787187 
L 468.789698 177.364686 
L 469.421996 177.336352 
L 470.566401 177.626615 
L 471.203924 177.855515 
L 471.783966 177.996785 
L 473.184426 178.400146 
L 473.70176 178.478921 
L 474.893196 178.772993 
L 475.217183 178.821323 
L 476.675125 178.840886 
L 477.490318 178.748242 
L 478.211451 178.82914 
L 479.037095 178.60233 
L 480.359172 178.700944 
L 481.305005 178.809249 
L 482.919714 179.350911 
L 483.818517 179.538685 
L 485.924433 179.615476 
L 487.089741 180.081458 
L 487.852679 180.314014 
L 488.458848 180.647603 
L 488.756707 180.864178 
L 489.331523 181.157849 
L 491.599432 181.284036 
L 492.639326 181.609954 
L 493.02602 181.697115 
L 493.569483 181.610708 
L 495.001296 181.547315 
L 497.248303 181.752647 
L 497.614095 181.77985 
L 501.047313 181.844383 
L 501.998372 181.802348 
L 502.897175 181.91886 
L 503.769849 181.835835 
L 504.099062 181.93797 
L 504.632073 182.094741 
L 506.204978 182.46969 
L 508.744618 182.543863 
L 512.684719 181.921978 
L 513.191602 181.793624 
L 513.719387 181.703133 
L 513.944088 181.702223 
L 514.74883 181.985955 
L 515.276615 181.919111 
L 516.112711 181.850878 
L 517.732646 181.883434 
L 518.438102 182.072165 
L 518.751638 182.034901 
L 519.613862 181.634417 
L 520.12597 181.401147 
L 520.38725 181.470111 
L 520.935938 181.587433 
L 522.158728 181.227543 
L 523.214298 180.874657 
L 523.851821 180.861885 
L 524.243741 180.750859 
L 525.565817 180.5108 
L 525.962963 180.55087 
L 526.323529 180.52881 
L 527.347746 180.332101 
L 528.189067 180.398025 
L 528.894523 180.38382 
L 529.568625 180.404324 
L 531.031793 180.719327 
L 532.066461 180.473744 
L 532.620374 180.429191 
L 533.853615 180.734362 
L 534.506815 180.925638 
L 535.468325 181.018105 
L 536.137202 181.029965 
L 536.962846 181.196733 
L 537.78849 181.199163 
L 538.535751 181.168886 
L 539.873504 181.266228 
L 540.160912 181.252838 
L 541.122422 181.316421 
L 541.524793 181.389477 
L 542.496754 181.900392 
L 543.29627 181.938829 
L 544.978913 182.00683 
L 545.632113 182.093788 
L 546.426403 181.921428 
L 548.276265 181.505651 
L 553.789271 181.169863 
L 555.863833 181.868768 
L 558.11084 181.934838 
L 558.758814 182.03969 
L 559.040996 182.168431 
L 559.767354 182.556833 
L 560.227207 182.659388 
L 561.460448 182.685171 
L 562.855683 182.40419 
L 563.35734 182.372504 
L 564.109826 182.151979 
L 565.421451 181.869672 
L 571.394309 179.382508 
L 571.765327 179.279247 
L 572.538715 179.317126 
L 574.174327 179.373298 
L 574.723015 179.322803 
L 576.374304 179.020108 
L 576.928217 178.876759 
L 577.398521 178.805992 
L 578.354805 178.587322 
L 580.732452 178.340772 
L 581.10347 178.386436 
L 581.824602 178.572082 
L 582.519607 178.725062 
L 583.104874 178.764711 
L 584.745711 178.626426 
L 585.654965 178.407879 
L 586.423128 178.100112 
L 587.092005 178.056052 
L 589.312884 178.402583 
L 592.030195 179.230273 
L 592.944674 179.678733 
L 593.409752 179.700115 
L 594.125659 179.796249 
L 596.921354 180.072321 
L 597.741773 179.977813 
L 599.821561 179.446043 
L 600.68901 179.129968 
L 604.984451 177.784392 
L 606.71935 178.152221 
L 607.477062 178.28781 
L 608.057103 178.187151 
L 608.616242 178.08614 
L 610.17347 177.869577 
L 610.915505 177.747672 
L 611.072273 177.710796 
L 611.072273 177.710796 
" clip-path="url(#pd31319a9bf)" style="fill: none; stroke: #1f2937; stroke-linecap: square"/>
   </g>
   <g id="line2d_30">
    <path d="M 62.39 177.710796 
L 637.2 177.710796 
" clip-path="url(#pd31319a9bf)" style="fill: none; stroke-dasharray: 2.96,1.28; stroke-dashoffset: 0; stroke: #888888; stroke-width: 0.8"/>
   </g>
   <g id="patch_3">
    <path d="M 62.39 282.04 
L 62.39 26.88 
" style="fill: none; stroke: #000000; stroke-width: 0.8; stroke-linejoin: miter; stroke-linecap: square"/>
   </g>
   <g id="patch_4">
    <path d="M 637.2 282.04 
L 637.2 26.88 
" style="fill: none; stroke: #000000; stroke-width: 0.8; stroke-linejoin: miter; stroke-linecap: square"/>
   </g>
   <g id="patch_5">
    <path d="M 62.39 282.04 
L 637.2 282.04 
" style="fill: none; stroke: #000000; stroke-width: 0.8; stroke-linejoin: miter; stroke-linecap: square"/>
   </g>
   <g id="patch_6">
    <path d="M 62.39 26.88 
L 637.2 26.88 
" style="fill: none; stroke: #000000; stroke-width: 0.8; stroke-linejoin: miter; stroke-linecap: square"/>
   </g>
   <g id="text_17">
    <!-- Running mean — declination  (100k ReCom samples, seed 42) -->
    <g transform="translate(162.220937 20.88) scale(0.12 -0.12)">
     <defs>
      <path id="DejaVuSans-2014" d="M 313 1978 
L 6088 1978 
L 6088 1528 
L 313 1528 
L 313 1978 
z
" transform="scale(0.015625)"/>
      <path id="DejaVuSans-28" d="M 1984 4856 
Q 1566 4138 1362 3434 
Q 1159 2731 1159 2009 
Q 1159 1288 1364 580 
Q 1569 -128 1984 -844 
L 1484 -844 
Q 1016 -109 783 600 
Q 550 1309 550 2009 
Q 550 2706 781 3412 
Q 1013 4119 1484 4856 
L 1984 4856 
z
" transform="scale(0.015625)"/>
      <path id="DejaVuSans-6b" d="M 581 4863 
L 1159 4863 
L 1159 1991 
L 2875 3500 
L 3609 3500 
L 1753 1863 
L 3688 0 
L 2938 0 
L 1159 1709 
L 1159 0 
L 581 0 
L 581 4863 
z
" transform="scale(0.015625)"/>
      <path id="DejaVuSans-43" d="M 4122 4306 
L 4122 3641 
Q 3803 3938 3442 4084 
Q 3081 4231 2675 4231 
Q 1875 4231 1450 3742 
Q 1025 3253 1025 2328 
Q 1025 1406 1450 917 
Q 1875 428 2675 428 
Q 3081 428 3442 575 
Q 3803 722 4122 1019 
L 4122 359 
Q 3791 134 3420 21 
Q 3050 -91 2638 -91 
Q 1578 -91 968 557 
Q 359 1206 359 2328 
Q 359 3453 968 4101 
Q 1578 4750 2638 4750 
Q 3056 4750 3426 4639 
Q 3797 4528 4122 4306 
z
" transform="scale(0.015625)"/>
      <path id="DejaVuSans-73" d="M 2834 3397 
L 2834 2853 
Q 2591 2978 2328 3040 
Q 2066 3103 1784 3103 
Q 1356 3103 1142 2972 
Q 928 2841 928 2578 
Q 928 2378 1081 2264 
Q 1234 2150 1697 2047 
L 1894 2003 
Q 2506 1872 2764 1633 
Q 3022 1394 3022 966 
Q 3022 478 2636 193 
Q 2250 -91 1575 -91 
Q 1294 -91 989 -36 
Q 684 19 347 128 
L 347 722 
Q 666 556 975 473 
Q 1284 391 1588 391 
Q 1994 391 2212 530 
Q 2431 669 2431 922 
Q 2431 1156 2273 1281 
Q 2116 1406 1581 1522 
L 1381 1569 
Q 847 1681 609 1914 
Q 372 2147 372 2553 
Q 372 3047 722 3315 
Q 1072 3584 1716 3584 
Q 2034 3584 2315 3537 
Q 2597 3491 2834 3397 
z
" transform="scale(0.015625)"/>
      <path id="DejaVuSans-2c" d="M 750 794 
L 1409 794 
L 1409 256 
L 897 -744 
L 494 -744 
L 750 256 
L 750 794 
z
" transform="scale(0.015625)"/>
      <path id="DejaVuSans-29" d="M 513 4856 
L 1013 4856 
Q 1481 4119 1714 3412 
Q 1947 2706 1947 2009 
Q 1947 1309 1714 600 
Q 1481 -109 1013 -844 
L 513 -844 
Q 928 -128 1133 580 
Q 1338 1288 1338 2009 
Q 1338 2731 1133 3434 
Q 928 4138 513 4856 
z
" transform="scale(0.015625)"/>
     </defs>
     <use xlink:href="#DejaVuSans-52"/>
     <use xlink:href="#DejaVuSans-75" transform="translate(64.982422 0)"/>
     <use xlink:href="#DejaVuSans-6e" transform="translate(128.361328 0)"/>
     <use xlink:href="#DejaVuSans-6e" transform="translate(191.740234 0)"/>
     <use xlink:href="#DejaVuSans-69" transform="translate(255.119141 0)"/>
     <use xlink:href="#DejaVuSans-6e" transform="translate(282.902344 0)"/>
     <use xlink:href="#DejaVuSans-67" transform="translate(346.28125 0)"/>
     <use xlink:href="#DejaVuSans-20" transform="translate(409.757812 0)"/>
     <use xlink:href="#DejaVuSans-6d" transform="translate(441.544922 0)"/>
     <use xlink:href="#DejaVuSans-65" transform="translate(538.957031 0)"/>
     <use xlink:href="#DejaVuSans-61" transform="translate(600.480469 0)"/>
     <use xlink:href="#DejaVuSans-6e" transform="translate(661.759766 0)"/>
     <use xlink:href="#DejaVuSans-20" transform="translate(725.138672 0)"/>
     <use xlink:href="#DejaVuSans-2014" transform="translate(756.925781 0)"/>
     <use xlink:href="#DejaVuSans-20" transform="translate(856.925781 0)"/>
     <use xlink:href="#DejaVuSans-64" transform="translate(888.712891 0)"/>
     <use xlink:href="#DejaVuSans-65" transform="translate(952.189453 0)"/>
     <use xlink:href="#DejaVuSans-63" transform="translate(1013.712891 0)"/>
     <use xlink:href="#DejaVuSans-6c" transform="translate(1068.693359 0)"/>
     <use xlink:href="#DejaVuSans-69" transform="translate(1096.476562 0)"/>
     <use xlink:href="#DejaVuSans-6e" transform="translate(1124.259766 0)"/>
     <use xlink:href="#DejaVuSans-61" transform="translate(1187.638672 0)"/>
     <use xlink:href="#DejaVuSans-74" transform="translate(1248.917969 0)"/>
     <use xlink:href="#DejaVuSans-69" transform="translate(1288.126953 0)"/>
     <use xlink:href="#DejaVuSans-6f" transform="translate(1315.910156 0)"/>
     <use xlink:href="#DejaVuSans-6e" transform="translate(1377.091797 0)"/>
     <use xlink:href="#DejaVuSans-20" transform="translate(1440.470703 0)"/>
     <use xlink:href="#DejaVuSans-20" transform="translate(1472.257812 0)"/>
     <use xlink:href="#DejaVuSans-28" transform="translate(1504.044922 0)"/>
     <use xlink:href="#DejaVuSans-31" transform="translate(1543.058594 0)"/>
     <use xlink:href="#DejaVuSans-30" transform="translate(1606.681641 0)"/>
     <use xlink:href="#DejaVuSans-30" transform="translate(1670.304688 0)"/>
     <use xlink:href="#DejaVuSans-6b" transform="translate(1733.927734 0)"/>
     <use xlink:href="#DejaVuSans-20" transform="translate(1791.837891 0)"/>
     <use xlink:href="#DejaVuSans-52" transform="translate(1823.625 0)"/>
     <use xlink:href="#DejaVuSans-65" transform="translate(1888.607422 0)"/>
     <use xlink:href="#DejaVuSans-43" transform="translate(1950.130859 0)"/>
     <use xlink:href="#DejaVuSans-6f" transform="translate(2019.955078 0)"/>
     <use xlink:href="#DejaVuSans-6d" transform="translate(2081.136719 0)"/>
     <use xlink:href="#DejaVuSans-20" transform="translate(2178.548828 0)"/>
     <use xlink:href="#DejaVuSans-73" transform="translate(2210.335938 0)"/>
     <use xlink:href="#DejaVuSans-61" transform="translate(2262.435547 0)"/>
     <use xlink:href="#DejaVuSans-6d" transform="translate(2323.714844 0)"/>
     <use xlink:href="#DejaVuSans-70" transform="translate(2421.126953 0)"/>
     <use xlink:href="#DejaVuSans-6c" transform="translate(2484.603516 0)"/>
     <use xlink:href="#DejaVuSans-65" transform="translate(2512.386719 0)"/>
     <use xlink:href="#DejaVuSans-73" transform="translate(2573.910156 0)"/>
     <use xlink:href="#DejaVuSans-2c" transform="translate(2626.009766 0)"/>
     <use xlink:href="#DejaVuSans-20" transform="translate(2657.796875 0)"/>
     <use xlink:href="#DejaVuSans-73" transform="translate(2689.583984 0)"/>
     <use xlink:href="#DejaVuSans-65" transform="translate(2741.683594 0)"/>
     <use xlink:href="#DejaVuSans-65" transform="translate(2803.207031 0)"/>
     <use xlink:href="#DejaVuSans-64" transform="translate(2864.730469 0)"/>
     <use xlink:href="#DejaVuSans-20" transform="translate(2928.207031 0)"/>
     <use xlink:href="#DejaVuSans-34" transform="translate(2959.994141 0)"/>
     <use xlink:href="#DejaVuSans-32" transform="translate(3023.617188 0)"/>
     <use xlink:href="#DejaVuSans-29" transform="translate(3087.240234 0)"/>
    </g>
   </g>
   <g id="legend_1">
    <g id="patch_7">
     <path d="M 500.601094 47.290312 
L 630.9 47.290312 
Q 632.7 47.290312 632.7 45.490312 
L 632.7 33.18 
Q 632.7 31.38 630.9 31.38 
L 500.601094 31.38 
Q 498.801094 31.38 498.801094 33.18 
L 498.801094 45.490312 
Q 498.801094 47.290312 500.601094 47.290312 
z
" style="fill: #ffffff; opacity: 0.8; stroke: #cccccc; stroke-linejoin: miter"/>
    </g>
    <g id="line2d_31">
     <path d="M 502.401094 38.668594 
L 511.401094 38.668594 
L 520.401094 38.668594 
" style="fill: none; stroke-dasharray: 2.96,1.28; stroke-dashoffset: 0; stroke: #888888; stroke-width: 0.8"/>
    </g>
    <g id="text_18">
     <!-- final mean = -0.02029 -->
     <g transform="translate(527.601094 41.818594) scale(0.09 -0.09)">
      <defs>
       <path id="DejaVuSans-3d" d="M 678 2906 
L 4684 2906 
L 4684 2381 
L 678 2381 
L 678 2906 
z
M 678 1631 
L 4684 1631 
L 4684 1100 
L 678 1100 
L 678 1631 
z
" transform="scale(0.015625)"/>
       <path id="DejaVuSans-2d" d="M 313 2009 
L 1997 2009 
L 1997 1497 
L 313 1497 
L 313 2009 
z
" transform="scale(0.015625)"/>
       <path id="DejaVuSans-39" d="M 703 97 
L 703 672 
Q 941 559 1184 500 
Q 1428 441 1663 441 
Q 2288 441 2617 861 
Q 2947 1281 2994 2138 
Q 2813 1869 2534 1725 
Q 2256 1581 1919 1581 
Q 1219 1581 811 2004 
Q 403 2428 403 3163 
Q 403 3881 828 4315 
Q 1253 4750 1959 4750 
Q 2769 4750 3195 4129 
Q 3622 3509 3622 2328 
Q 3622 1225 3098 567 
Q 2575 -91 1691 -91 
Q 1453 -91 1209 -44 
Q 966 3 703 97 
z
M 1959 2075 
Q 2384 2075 2632 2365 
Q 2881 2656 2881 3163 
Q 2881 3666 2632 3958 
Q 2384 4250 1959 4250 
Q 1534 4250 1286 3958 
Q 1038 3666 1038 3163 
Q 1038 2656 1286 2365 
Q 1534 2075 1959 2075 
z
" transform="scale(0.015625)"/>
      </defs>
      <use xlink:href="#DejaVuSans-66"/>
      <use xlink:href="#DejaVuSans-69" transform="translate(35.205078 0)"/>
      <use xlink:href="#DejaVuSans-6e" transform="translate(62.988281 0)"/>
      <use xlink:href="#DejaVuSans-61" transform="translate(126.367188 0)"/>
      <use xlink:href="#DejaVuSans-6c" transform="translate(187.646484 0)"/>
      <use xlink:href="#DejaVuSans-20" transform="translate(215.429688 0)"/>
      <use xlink:href="#DejaVuSans-6d" transform="translate(247.216797 0)"/>
      <use xlink:href="#DejaVuSans-65" transform="translate(344.628906 0)"/>
      <use xlink:href="#DejaVuSans-61" transform="translate(406.152344 0)"/>
      <use xlink:href="#DejaVuSans-6e" transform="translate(467.431641 0)"/>
      <use xlink:href="#DejaVuSans-20" transform="translate(530.810547 0)"/>
      <use xlink:href="#DejaVuSans-3d" transform="translate(562.597656 0)"/>
      <use xlink:href="#DejaVuSans-20" transform="translate(646.386719 0)"/>
      <use xlink:href="#DejaVuSans-2d" transform="translate(678.173828 0)"/>
      <use xlink:href="#DejaVuSans-30" transform="translate(714.257812 0)"/>
      <use xlink:href="#DejaVuSans-2e" transform="translate(777.880859 0)"/>
      <use xlink:href="#DejaVuSans-30" transform="translate(809.667969 0)"/>
      <use xlink:href="#DejaVuSans-32" transform="translate(873.291016 0)"/>
      <use xlink:href="#DejaVuSans-30" transform="translate(936.914062 0)"/>
      <use xlink:href="#DejaVuSans-32" transform="translate(1000.537109 0)"/>
      <use xlink:href="#DejaVuSans-39" transform="translate(1064.160156 0)"/>
     </g>
    </g>
   </g>
  </g>
 </g>
 <defs>
  <clipPath id="pd31319a9bf">
   <rect x="62.39" y="26.88" width="574.81" height="255.16"/>
  </clipPath>
 </defs>
</svg>
