<?xml version="1.0" encoding="utf-8" standalone="no"?>
<!DOCTYPE svg PUBLIC "-//W3C//DTD SVG 1.1//EN"
  "http://www.w3.org/Graphics/SVG/1.1/DTD/svg11.dtd">
<svg xmlns:xlink="http://www.w3.org/1999/xlink" width="648pt" height="324pt" viewBox="0 0 648 324" xmlns="http://www.w3.org/2000/svg" version="1.1">
 <metadata>
  <rdf:RDF xmlns:dc="http://purl.org/dc/elements/1.1/" xmlns:cc="http://creativecommons.org/ns#" xmlns:rdf="http://www.w3.org/1999/02/22-rdf-syntax-ns#">
   <cc:Work>
    <dc:type rdf:resource="http://purl.org/dc/dcmitype/StillImage"/>
    <dc:date>2026-05-11T17:57:40.176841</dc:date>
    <dc:format>image/svg+xml</dc:format>
    <dc:creator>
     <cc:Agent>
      <dc:title>Matplotlib v3.10.8, https://matplotlib.org/</dc:title>
     </cc:Agent>
    </dc:creator>
   </cc:Work>
  </rdf:RDF>
 </metadata>
 <defs>
  <style type="text/css">*{stroke-linejoin: round; stroke-linecap: butt}</style>
 </defs>
 <g id="figure_1">
  <g id="patch_1">
   <path d="M 0 324 
L 648 324 
L 648 0 
L 0 0 
z
" style="fill: #ffffff"/>
  </g>
  <g id="axes_1">
   <g id="patch_2">
    <path d="M 68.88125 282.04 
L 637.2 282.04 
L 637.2 26.88 
L 68.88125 26.88 
z
" style="fill: #ffffff"/>
   </g>
   <g id="matplotlib.axis_1">
    <g id="xtick_1">
     <g id="line2d_1">
      <path d="M 94.713409 282.04 
L 94.713409 26.88 
" clip-path="url(#p48fe2e975f)" style="fill: none; stroke-dasharray: 0.5,0.825; stroke-dashoffset: 0; stroke: #b0b0b0; stroke-opacity: 0.6; stroke-width: 0.5"/>
     </g>
     <g id="line2d_2">
      <defs>
       <path id="me6c5fdc67e" d="M 0 0 
L 0 3.5 
" style="stroke: #000000; stroke-width: 0.8"/>
      </defs>
      <g>
       <use xlink:href="#me6c5fdc67e" x="94.713409" y="282.04" style="stroke: #000000; stroke-width: 0.8"/>
      </g>
     </g>
     <g id="text_1">
      <!-- 0.0 -->
      <g transform="translate(86.761846 296.638438) scale(0.1 -0.1)">
       <defs>
        <path id="DejaVuSans-30" d="M 2034 4250 
Q 1547 4250 1301 3770 
Q 1056 3291 1056 2328 
Q 1056 1369 1301 889 
Q 1547 409 2034 409 
Q 2525 409 2770 889 
Q 3016 1369 3016 2328 
Q 3016 3291 2770 3770 
Q 2525 4250 2034 4250 
z
M 2034 4750 
Q 2819 4750 3233 4129 
Q 3647 3509 3647 2328 
Q 3647 1150 3233 529 
Q 2819 -91 2034 -91 
Q 1250 -91 836 529 
Q 422 1150 422 2328 
Q 422 3509 836 4129 
Q 1250 4750 2034 4750 
z
" transform="scale(0.015625)"/>
        <path id="DejaVuSans-2e" d="M 684 794 
L 1344 794 
L 1344 0 
L 684 0 
L 684 794 
z
" transform="scale(0.015625)"/>
       </defs>
       <use xlink:href="#DejaVuSans-30"/>
       <use xlink:href="#DejaVuSans-2e" transform="translate(63.623047 0)"/>
       <use xlink:href="#DejaVuSans-30" transform="translate(95.410156 0)"/>
      </g>
     </g>
    </g>
    <g id="xtick_2">
     <g id="line2d_3">
      <path d="M 197.021116 282.04 
L 197.021116 26.88 
" clip-path="url(#p48fe2e975f)" style="fill: none; stroke-dasharray: 0.5,0.825; stroke-dashoffset: 0; stroke: #b0b0b0; stroke-opacity: 0.6; stroke-width: 0.5"/>
     </g>
     <g id="line2d_4">
      <g>
       <use xlink:href="#me6c5fdc67e" x="197.021116" y="282.04" style="stroke: #000000; stroke-width: 0.8"/>
      </g>
     </g>
     <g id="text_2">
      <!-- 0.2 -->
      <g transform="translate(189.069553 296.638438) scale(0.1 -0.1)">
       <defs>
        <path id="DejaVuSans-32" d="M 1228 531 
L 3431 531 
L 3431 0 
L 469 0 
L 469 531 
Q 828 903 1448 1529 
Q 2069 2156 2228 2338 
Q 2531 2678 2651 2914 
Q 2772 3150 2772 3378 
Q 2772 3750 2511 3984 
Q 2250 4219 1831 4219 
Q 1534 4219 1204 4116 
Q 875 4013 500 3803 
L 500 4441 
Q 881 4594 1212 4672 
Q 1544 4750 1819 4750 
Q 2544 4750 2975 4387 
Q 3406 4025 3406 3419 
Q 3406 3131 3298 2873 
Q 3191 2616 2906 2266 
Q 2828 2175 2409 1742 
Q 1991 1309 1228 531 
z
" transform="scale(0.015625)"/>
       </defs>
       <use xlink:href="#DejaVuSans-30"/>
       <use xlink:href="#DejaVuSans-2e" transform="translate(63.623047 0)"/>
       <use xlink:href="#DejaVuSans-32" transform="translate(95.410156 0)"/>
      </g>
     </g>
    </g>
    <g id="xtick_3">
     <g id="line2d_5">
      <path d="M 299.328823 282.04 
L 299.328823 26.88 
" clip-path="url(#p48fe2e975f)" style="fill: none; stroke-dasharray: 0.5,0.825; stroke-dashoffset: 0; stroke: #b0b0b0; stroke-opacity: 0.6; stroke-width: 0.5"/>
     </g>
     <g id="line2d_6">
      <g>
       <use xlink:href="#me6c5fdc67e" x="299.328823" y="282.04" style="stroke: #000000; stroke-width: 0.8"/>
      </g>
     </g>
     <g id="text_3">
      <!-- 0.4 -->
      <g transform="translate(291.377261 296.638438) scale(0.1 -0.1)">
       <defs>
        <path id="DejaVuSans-34" d="M 2419 4116 
L 825 1625 
L 2419 1625 
L 2419 4116 
z
M 2253 4666 
L 3047 4666 
L 3047 1625 
L 3713 1625 
L 3713 1100 
L 3047 1100 
L 3047 0 
L 2419 0 
L 2419 1100 
L 313 1100 
L 313 1709 
L 2253 4666 
z
" transform="scale(0.015625)"/>
       </defs>
       <use xlink:href="#DejaVuSans-30"/>
       <use xlink:href="#DejaVuSans-2e" transform="translate(63.623047 0)"/>
       <use xlink:href="#DejaVuSans-34" transform="translate(95.410156 0)"/>
      </g>
     </g>
    </g>
    <g id="xtick_4">
     <g id="line2d_7">
      <path d="M 401.63653 282.04 
L 401.63653 26.88 
" clip-path="url(#p48fe2e975f)" style="fill: none; stroke-dasharray: 0.5,0.825; stroke-dashoffset: 0; stroke: #b0b0b0; stroke-opacity: 0.6; stroke-width: 0.5"/>
     </g>
     <g id="line2d_8">
      <g>
       <use xlink:href="#me6c5fdc67e" x="401.63653" y="282.04" style="stroke: #000000; stroke-width: 0.8"/>
      </g>
     </g>
     <g id="text_4">
      <!-- 0.6 -->
      <g transform="translate(393.684968 296.638438) scale(0.1 -0.1)">
       <defs>
        <path id="DejaVuSans-36" d="M 2113 2584 
Q 1688 2584 1439 2293 
Q 1191 2003 1191 1497 
Q 1191 994 1439 701 
Q 1688 409 2113 409 
Q 2538 409 2786 701 
Q 3034 994 3034 1497 
Q 3034 2003 2786 2293 
Q 2538 2584 2113 2584 
z
M 3366 4563 
L 3366 3988 
Q 3128 4100 2886 4159 
Q 2644 4219 2406 4219 
Q 1781 4219 1451 3797 
Q 1122 3375 1075 2522 
Q 1259 2794 1537 2939 
Q 1816 3084 2150 3084 
Q 2853 3084 3261 2657 
Q 3669 2231 3669 1497 
Q 3669 778 3244 343 
Q 2819 -91 2113 -91 
Q 1303 -91 875 529 
Q 447 1150 447 2328 
Q 447 3434 972 4092 
Q 1497 4750 2381 4750 
Q 2619 4750 2861 4703 
Q 3103 4656 3366 4563 
z
" transform="scale(0.015625)"/>
       </defs>
       <use xlink:href="#DejaVuSans-30"/>
       <use xlink:href="#DejaVuSans-2e" transform="translate(63.623047 0)"/>
       <use xlink:href="#DejaVuSans-36" transform="translate(95.410156 0)"/>
      </g>
     </g>
    </g>
    <g id="xtick_5">
     <g id="line2d_9">
      <path d="M 503.944237 282.04 
L 503.944237 26.88 
" clip-path="url(#p48fe2e975f)" style="fill: none; stroke-dasharray: 0.5,0.825; stroke-dashoffset: 0; stroke: #b0b0b0; stroke-opacity: 0.6; stroke-width: 0.5"/>
     </g>
     <g id="line2d_10">
      <g>
       <use xlink:href="#me6c5fdc67e" x="503.944237" y="282.04" style="stroke: #000000; stroke-width: 0.8"/>
      </g>
     </g>
     <g id="text_5">
      <!-- 0.8 -->
      <g transform="translate(495.992675 296.638438) scale(0.1 -0.1)">
       <defs>
        <path id="DejaVuSans-38" d="M 2034 2216 
Q 1584 2216 1326 1975 
Q 1069 1734 1069 1313 
Q 1069 891 1326 650 
Q 1584 409 2034 409 
Q 2484 409 2743 651 
Q 3003 894 3003 1313 
Q 3003 1734 2745 1975 
Q 2488 2216 2034 2216 
z
M 1403 2484 
Q 997 2584 770 2862 
Q 544 3141 544 3541 
Q 544 4100 942 4425 
Q 1341 4750 2034 4750 
Q 2731 4750 3128 4425 
Q 3525 4100 3525 3541 
Q 3525 3141 3298 2862 
Q 3072 2584 2669 2484 
Q 3125 2378 3379 2068 
Q 3634 1759 3634 1313 
Q 3634 634 3220 271 
Q 2806 -91 2034 -91 
Q 1263 -91 848 271 
Q 434 634 434 1313 
Q 434 1759 690 2068 
Q 947 2378 1403 2484 
z
M 1172 3481 
Q 1172 3119 1398 2916 
Q 1625 2713 2034 2713 
Q 2441 2713 2670 2916 
Q 2900 3119 2900 3481 
Q 2900 3844 2670 4047 
Q 2441 4250 2034 4250 
Q 1625 4250 1398 4047 
Q 1172 3844 1172 3481 
z
" transform="scale(0.015625)"/>
       </defs>
       <use xlink:href="#DejaVuSans-30"/>
       <use xlink:href="#DejaVuSans-2e" transform="translate(63.623047 0)"/>
       <use xlink:href="#DejaVuSans-38" transform="translate(95.410156 0)"/>
      </g>
     </g>
    </g>
    <g id="xtick_6">
     <g id="line2d_11">
      <path d="M 606.251944 282.04 
L 606.251944 26.88 
" clip-path="url(#p48fe2e975f)" style="fill: none; stroke-dasharray: 0.5,0.825; stroke-dashoffset: 0; stroke: #b0b0b0; stroke-opacity: 0.6; stroke-width: 0.5"/>
     </g>
     <g id="line2d_12">
      <g>
       <use xlink:href="#me6c5fdc67e" x="606.251944" y="282.04" style="stroke: #000000; stroke-width: 0.8"/>
      </g>
     </g>
     <g id="text_6">
      <!-- 1.0 -->
      <g transform="translate(598.300382 296.638438) scale(0.1 -0.1)">
       <defs>
        <path id="DejaVuSans-31" d="M 794 531 
L 1825 531 
L 1825 4091 
L 703 3866 
L 703 4441 
L 1819 4666 
L 2450 4666 
L 2450 531 
L 3481 531 
L 3481 0 
L 794 0 
L 794 531 
z
" transform="scale(0.015625)"/>
       </defs>
       <use xlink:href="#DejaVuSans-31"/>
       <use xlink:href="#DejaVuSans-2e" transform="translate(63.623047 0)"/>
       <use xlink:href="#DejaVuSans-30" transform="translate(95.410156 0)"/>
      </g>
     </g>
    </g>
    <g id="text_7">
     <!-- Sample index -->
     <g transform="translate(319.022656 310.316563) scale(0.1 -0.1)">
      <defs>
       <path id="DejaVuSans-53" d="M 3425 4513 
L 3425 3897 
Q 3066 4069 2747 4153 
Q 2428 4238 2131 4238 
Q 1616 4238 1336 4038 
Q 1056 3838 1056 3469 
Q 1056 3159 1242 3001 
Q 1428 2844 1947 2747 
L 2328 2669 
Q 3034 2534 3370 2195 
Q 3706 1856 3706 1288 
Q 3706 609 3251 259 
Q 2797 -91 1919 -91 
Q 1588 -91 1214 -16 
Q 841 59 441 206 
L 441 856 
Q 825 641 1194 531 
Q 1563 422 1919 422 
Q 2459 422 2753 634 
Q 3047 847 3047 1241 
Q 3047 1584 2836 1778 
Q 2625 1972 2144 2069 
L 1759 2144 
Q 1053 2284 737 2584 
Q 422 2884 422 3419 
Q 422 4038 858 4394 
Q 1294 4750 2059 4750 
Q 2388 4750 2728 4690 
Q 3069 4631 3425 4513 
z
" transform="scale(0.015625)"/>
       <path id="DejaVuSans-61" d="M 2194 1759 
Q 1497 1759 1228 1600 
Q 959 1441 959 1056 
Q 959 750 1161 570 
Q 1363 391 1709 391 
Q 2188 391 2477 730 
Q 2766 1069 2766 1631 
L 2766 1759 
L 2194 1759 
z
M 3341 1997 
L 3341 0 
L 2766 0 
L 2766 531 
Q 2569 213 2275 61 
Q 1981 -91 1556 -91 
Q 1019 -91 701 211 
Q 384 513 384 1019 
Q 384 1609 779 1909 
Q 1175 2209 1959 2209 
L 2766 2209 
L 2766 2266 
Q 2766 2663 2505 2880 
Q 2244 3097 1772 3097 
Q 1472 3097 1187 3025 
Q 903 2953 641 2809 
L 641 3341 
Q 956 3463 1253 3523 
Q 1550 3584 1831 3584 
Q 2591 3584 2966 3190 
Q 3341 2797 3341 1997 
z
" transform="scale(0.015625)"/>
       <path id="DejaVuSans-6d" d="M 3328 2828 
Q 3544 3216 3844 3400 
Q 4144 3584 4550 3584 
Q 5097 3584 5394 3201 
Q 5691 2819 5691 2113 
L 5691 0 
L 5113 0 
L 5113 2094 
Q 5113 2597 4934 2840 
Q 4756 3084 4391 3084 
Q 3944 3084 3684 2787 
Q 3425 2491 3425 1978 
L 3425 0 
L 2847 0 
L 2847 2094 
Q 2847 2600 2669 2842 
Q 2491 3084 2119 3084 
Q 1678 3084 1418 2786 
Q 1159 2488 1159 1978 
L 1159 0 
L 581 0 
L 581 3500 
L 1159 3500 
L 1159 2956 
Q 1356 3278 1631 3431 
Q 1906 3584 2284 3584 
Q 2666 3584 2933 3390 
Q 3200 3197 3328 2828 
z
" transform="scale(0.015625)"/>
       <path id="DejaVuSans-70" d="M 1159 525 
L 1159 -1331 
L 581 -1331 
L 581 3500 
L 1159 3500 
L 1159 2969 
Q 1341 3281 1617 3432 
Q 1894 3584 2278 3584 
Q 2916 3584 3314 3078 
Q 3713 2572 3713 1747 
Q 3713 922 3314 415 
Q 2916 -91 2278 -91 
Q 1894 -91 1617 61 
Q 1341 213 1159 525 
z
M 3116 1747 
Q 3116 2381 2855 2742 
Q 2594 3103 2138 3103 
Q 1681 3103 1420 2742 
Q 1159 2381 1159 1747 
Q 1159 1113 1420 752 
Q 1681 391 2138 391 
Q 2594 391 2855 752 
Q 3116 1113 3116 1747 
z
" transform="scale(0.015625)"/>
       <path id="DejaVuSans-6c" d="M 603 4863 
L 1178 4863 
L 1178 0 
L 603 0 
L 603 4863 
z
" transform="scale(0.015625)"/>
       <path id="DejaVuSans-65" d="M 3597 1894 
L 3597 1613 
L 953 1613 
Q 991 1019 1311 708 
Q 1631 397 2203 397 
Q 2534 397 2845 478 
Q 3156 559 3463 722 
L 3463 178 
Q 3153 47 2828 -22 
Q 2503 -91 2169 -91 
Q 1331 -91 842 396 
Q 353 884 353 1716 
Q 353 2575 817 3079 
Q 1281 3584 2069 3584 
Q 2775 3584 3186 3129 
Q 3597 2675 3597 1894 
z
M 3022 2063 
Q 3016 2534 2758 2815 
Q 2500 3097 2075 3097 
Q 1594 3097 1305 2825 
Q 1016 2553 972 2059 
L 3022 2063 
z
" transform="scale(0.015625)"/>
       <path id="DejaVuSans-20" transform="scale(0.015625)"/>
       <path id="DejaVuSans-69" d="M 603 3500 
L 1178 3500 
L 1178 0 
L 603 0 
L 603 3500 
z
M 603 4863 
L 1178 4863 
L 1178 4134 
L 603 4134 
L 603 4863 
z
" transform="scale(0.015625)"/>
       <path id="DejaVuSans-6e" d="M 3513 2113 
L 3513 0 
L 2938 0 
L 2938 2094 
Q 2938 2591 2744 2837 
Q 2550 3084 2163 3084 
Q 1697 3084 1428 2787 
Q 1159 2491 1159 1978 
L 1159 0 
L 581 0 
L 581 3500 
L 1159 3500 
L 1159 2956 
Q 1366 3272 1645 3428 
Q 1925 3584 2291 3584 
Q 2894 3584 3203 3211 
Q 3513 2838 3513 2113 
z
" transform="scale(0.015625)"/>
       <path id="DejaVuSans-64" d="M 2906 2969 
L 2906 4863 
L 3481 4863 
L 3481 0 
L 2906 0 
L 2906 525 
Q 2725 213 2448 61 
Q 2172 -91 1784 -91 
Q 1150 -91 751 415 
Q 353 922 353 1747 
Q 353 2572 751 3078 
Q 1150 3584 1784 3584 
Q 2172 3584 2448 3432 
Q 2725 3281 2906 2969 
z
M 947 1747 
Q 947 1113 1208 752 
Q 1469 391 1925 391 
Q 2381 391 2643 752 
Q 2906 1113 2906 1747 
Q 2906 2381 2643 2742 
Q 2381 3103 1925 3103 
Q 1469 3103 1208 2742 
Q 947 2381 947 1747 
z
" transform="scale(0.015625)"/>
       <path id="DejaVuSans-78" d="M 3513 3500 
L 2247 1797 
L 3578 0 
L 2900 0 
L 1881 1375 
L 863 0 
L 184 0 
L 1544 1831 
L 300 3500 
L 978 3500 
L 1906 2253 
L 2834 3500 
L 3513 3500 
z
" transform="scale(0.015625)"/>
      </defs>
      <use xlink:href="#DejaVuSans-53"/>
      <use xlink:href="#DejaVuSans-61" transform="translate(63.476562 0)"/>
      <use xlink:href="#DejaVuSans-6d" transform="translate(124.755859 0)"/>
      <use xlink:href="#DejaVuSans-70" transform="translate(222.167969 0)"/>
      <use xlink:href="#DejaVuSans-6c" transform="translate(285.644531 0)"/>
      <use xlink:href="#DejaVuSans-65" transform="translate(313.427734 0)"/>
      <use xlink:href="#DejaVuSans-20" transform="translate(374.951172 0)"/>
      <use xlink:href="#DejaVuSans-69" transform="translate(406.738281 0)"/>
      <use xlink:href="#DejaVuSans-6e" transform="translate(434.521484 0)"/>
      <use xlink:href="#DejaVuSans-64" transform="translate(497.900391 0)"/>
      <use xlink:href="#DejaVuSans-65" transform="translate(561.376953 0)"/>
      <use xlink:href="#DejaVuSans-78" transform="translate(621.150391 0)"/>
     </g>
    </g>
    <g id="text_8">
     <!-- 1e6 -->
     <g transform="translate(618.321875 309.316563) scale(0.1 -0.1)">
      <use xlink:href="#DejaVuSans-31"/>
      <use xlink:href="#DejaVuSans-65" transform="translate(63.623047 0)"/>
      <use xlink:href="#DejaVuSans-36" transform="translate(125.146484 0)"/>
     </g>
    </g>
   </g>
   <g id="matplotlib.axis_2">
    <g id="ytick_1">
     <g id="line2d_13">
      <path d="M 68.88125 256.139929 
L 637.2 256.139929 
" clip-path="url(#p48fe2e975f)" style="fill: none; stroke-dasharray: 0.5,0.825; stroke-dashoffset: 0; stroke: #b0b0b0; stroke-opacity: 0.6; stroke-width: 0.5"/>
     </g>
     <g id="line2d_14">
      <defs>
       <path id="m17a32387be" d="M 0 0 
L -3.5 0 
" style="stroke: #000000; stroke-width: 0.8"/>
      </defs>
      <g>
       <use xlink:href="#m17a32387be" x="68.88125" y="256.139929" style="stroke: #000000; stroke-width: 0.8"/>
      </g>
     </g>
     <g id="text_9">
      <!-- −0.022 -->
      <g transform="translate(24.873438 259.939148) scale(0.1 -0.1)">
       <defs>
        <path id="DejaVuSans-2212" d="M 678 2272 
L 4684 2272 
L 4684 1741 
L 678 1741 
L 678 2272 
z
" transform="scale(0.015625)"/>
       </defs>
       <use xlink:href="#DejaVuSans-2212"/>
       <use xlink:href="#DejaVuSans-30" transform="translate(83.789062 0)"/>
       <use xlink:href="#DejaVuSans-2e" transform="translate(147.412109 0)"/>
       <use xlink:href="#DejaVuSans-30" transform="translate(179.199219 0)"/>
       <use xlink:href="#DejaVuSans-32" transform="translate(242.822266 0)"/>
       <use xlink:href="#DejaVuSans-32" transform="translate(306.445312 0)"/>
      </g>
     </g>
    </g>
    <g id="ytick_2">
     <g id="line2d_15">
      <path d="M 68.88125 225.419338 
L 637.2 225.419338 
" clip-path="url(#p48fe2e975f)" style="fill: none; stroke-dasharray: 0.5,0.825; stroke-dashoffset: 0; stroke: #b0b0b0; stroke-opacity: 0.6; stroke-width: 0.5"/>
     </g>
     <g id="line2d_16">
      <g>
       <use xlink:href="#m17a32387be" x="68.88125" y="225.419338" style="stroke: #000000; stroke-width: 0.8"/>
      </g>
     </g>
     <g id="text_10">
      <!-- −0.021 -->
      <g transform="translate(24.873438 229.218556) scale(0.1 -0.1)">
       <use xlink:href="#DejaVuSans-2212"/>
       <use xlink:href="#DejaVuSans-30" transform="translate(83.789062 0)"/>
       <use xlink:href="#DejaVuSans-2e" transform="translate(147.412109 0)"/>
       <use xlink:href="#DejaVuSans-30" transform="translate(179.199219 0)"/>
       <use xlink:href="#DejaVuSans-32" transform="translate(242.822266 0)"/>
       <use xlink:href="#DejaVuSans-31" transform="translate(306.445312 0)"/>
      </g>
     </g>
    </g>
    <g id="ytick_3">
     <g id="line2d_17">
      <path d="M 68.88125 194.698746 
L 637.2 194.698746 
" clip-path="url(#p48fe2e975f)" style="fill: none; stroke-dasharray: 0.5,0.825; stroke-dashoffset: 0; stroke: #b0b0b0; stroke-opacity: 0.6; stroke-width: 0.5"/>
     </g>
     <g id="line2d_18">
      <g>
       <use xlink:href="#m17a32387be" x="68.88125" y="194.698746" style="stroke: #000000; stroke-width: 0.8"/>
      </g>
     </g>
     <g id="text_11">
      <!-- −0.020 -->
      <g transform="translate(24.873438 198.497965) scale(0.1 -0.1)">
       <use xlink:href="#DejaVuSans-2212"/>
       <use xlink:href="#DejaVuSans-30" transform="translate(83.789062 0)"/>
       <use xlink:href="#DejaVuSans-2e" transform="translate(147.412109 0)"/>
       <use xlink:href="#DejaVuSans-30" transform="translate(179.199219 0)"/>
       <use xlink:href="#DejaVuSans-32" transform="translate(242.822266 0)"/>
       <use xlink:href="#DejaVuSans-30" transform="translate(306.445312 0)"/>
      </g>
     </g>
    </g>
    <g id="ytick_4">
     <g id="line2d_19">
      <path d="M 68.88125 163.978155 
L 637.2 163.978155 
" clip-path="url(#p48fe2e975f)" style="fill: none; stroke-dasharray: 0.5,0.825; stroke-dashoffset: 0; stroke: #b0b0b0; stroke-opacity: 0.6; stroke-width: 0.5"/>
     </g>
     <g id="line2d_20">
      <g>
       <use xlink:href="#m17a32387be" x="68.88125" y="163.978155" style="stroke: #000000; stroke-width: 0.8"/>
      </g>
     </g>
     <g id="text_12">
      <!-- −0.019 -->
      <g transform="translate(24.873438 167.777374) scale(0.1 -0.1)">
       <defs>
        <path id="DejaVuSans-39" d="M 703 97 
L 703 672 
Q 941 559 1184 500 
Q 1428 441 1663 441 
Q 2288 441 2617 861 
Q 2947 1281 2994 2138 
Q 2813 1869 2534 1725 
Q 2256 1581 1919 1581 
Q 1219 1581 811 2004 
Q 403 2428 403 3163 
Q 403 3881 828 4315 
Q 1253 4750 1959 4750 
Q 2769 4750 3195 4129 
Q 3622 3509 3622 2328 
Q 3622 1225 3098 567 
Q 2575 -91 1691 -91 
Q 1453 -91 1209 -44 
Q 966 3 703 97 
z
M 1959 2075 
Q 2384 2075 2632 2365 
Q 2881 2656 2881 3163 
Q 2881 3666 2632 3958 
Q 2384 4250 1959 4250 
Q 1534 4250 1286 3958 
Q 1038 3666 1038 3163 
Q 1038 2656 1286 2365 
Q 1534 2075 1959 2075 
z
" transform="scale(0.015625)"/>
       </defs>
       <use xlink:href="#DejaVuSans-2212"/>
       <use xlink:href="#DejaVuSans-30" transform="translate(83.789062 0)"/>
       <use xlink:href="#DejaVuSans-2e" transform="translate(147.412109 0)"/>
       <use xlink:href="#DejaVuSans-30" transform="translate(179.199219 0)"/>
       <use xlink:href="#DejaVuSans-31" transform="translate(242.822266 0)"/>
       <use xlink:href="#DejaVuSans-39" transform="translate(306.445312 0)"/>
      </g>
     </g>
    </g>
    <g id="ytick_5">
     <g id="line2d_21">
      <path d="M 68.88125 133.257564 
L 637.2 133.257564 
" clip-path="url(#p48fe2e975f)" style="fill: none; stroke-dasharray: 0.5,0.825; stroke-dashoffset: 0; stroke: #b0b0b0; stroke-opacity: 0.6; stroke-width: 0.5"/>
     </g>
     <g id="line2d_22">
      <g>
       <use xlink:href="#m17a32387be" x="68.88125" y="133.257564" style="stroke: #000000; stroke-width: 0.8"/>
      </g>
     </g>
     <g id="text_13">
      <!-- −0.018 -->
      <g transform="translate(24.873438 137.056782) scale(0.1 -0.1)">
       <use xlink:href="#DejaVuSans-2212"/>
       <use xlink:href="#DejaVuSans-30" transform="translate(83.789062 0)"/>
       <use xlink:href="#DejaVuSans-2e" transform="translate(147.412109 0)"/>
       <use xlink:href="#DejaVuSans-30" transform="translate(179.199219 0)"/>
       <use xlink:href="#DejaVuSans-31" transform="translate(242.822266 0)"/>
       <use xlink:href="#DejaVuSans-38" transform="translate(306.445312 0)"/>
      </g>
     </g>
    </g>
    <g id="ytick_6">
     <g id="line2d_23">
      <path d="M 68.88125 102.536972 
L 637.2 102.536972 
" clip-path="url(#p48fe2e975f)" style="fill: none; stroke-dasharray: 0.5,0.825; stroke-dashoffset: 0; stroke: #b0b0b0; stroke-opacity: 0.6; stroke-width: 0.5"/>
     </g>
     <g id="line2d_24">
      <g>
       <use xlink:href="#m17a32387be" x="68.88125" y="102.536972" style="stroke: #000000; stroke-width: 0.8"/>
      </g>
     </g>
     <g id="text_14">
      <!-- −0.017 -->
      <g transform="translate(24.873438 106.336191) scale(0.1 -0.1)">
       <defs>
        <path id="DejaVuSans-37" d="M 525 4666 
L 3525 4666 
L 3525 4397 
L 1831 0 
L 1172 0 
L 2766 4134 
L 525 4134 
L 525 4666 
z
" transform="scale(0.015625)"/>
       </defs>
       <use xlink:href="#DejaVuSans-2212"/>
       <use xlink:href="#DejaVuSans-30" transform="translate(83.789062 0)"/>
       <use xlink:href="#DejaVuSans-2e" transform="translate(147.412109 0)"/>
       <use xlink:href="#DejaVuSans-30" transform="translate(179.199219 0)"/>
       <use xlink:href="#DejaVuSans-31" transform="translate(242.822266 0)"/>
       <use xlink:href="#DejaVuSans-37" transform="translate(306.445312 0)"/>
      </g>
     </g>
    </g>
    <g id="ytick_7">
     <g id="line2d_25">
      <path d="M 68.88125 71.816381 
L 637.2 71.816381 
" clip-path="url(#p48fe2e975f)" style="fill: none; stroke-dasharray: 0.5,0.825; stroke-dashoffset: 0; stroke: #b0b0b0; stroke-opacity: 0.6; stroke-width: 0.5"/>
     </g>
     <g id="line2d_26">
      <g>
       <use xlink:href="#m17a32387be" x="68.88125" y="71.816381" style="stroke: #000000; stroke-width: 0.8"/>
      </g>
     </g>
     <g id="text_15">
      <!-- −0.016 -->
      <g transform="translate(24.873438 75.6156) scale(0.1 -0.1)">
       <use xlink:href="#DejaVuSans-2212"/>
       <use xlink:href="#DejaVuSans-30" transform="translate(83.789062 0)"/>
       <use xlink:href="#DejaVuSans-2e" transform="translate(147.412109 0)"/>
       <use xlink:href="#DejaVuSans-30" transform="translate(179.199219 0)"/>
       <use xlink:href="#DejaVuSans-31" transform="translate(242.822266 0)"/>
       <use xlink:href="#DejaVuSans-36" transform="translate(306.445312 0)"/>
      </g>
     </g>
    </g>
    <g id="ytick_8">
     <g id="line2d_27">
      <path d="M 68.88125 41.095789 
L 637.2 41.095789 
" clip-path="url(#p48fe2e975f)" style="fill: none; stroke-dasharray: 0.5,0.825; stroke-dashoffset: 0; stroke: #b0b0b0; stroke-opacity: 0.6; stroke-width: 0.5"/>
     </g>
     <g id="line2d_28">
      <g>
       <use xlink:href="#m17a32387be" x="68.88125" y="41.095789" style="stroke: #000000; stroke-width: 0.8"/>
      </g>
     </g>
     <g id="text_16">
      <!-- −0.015 -->
      <g transform="translate(24.873438 44.895008) scale(0.1 -0.1)">
       <defs>
        <path id="DejaVuSans-35" d="M 691 4666 
L 3169 4666 
L 3169 4134 
L 1269 4134 
L 1269 2991 
Q 1406 3038 1543 3061 
Q 1681 3084 1819 3084 
Q 2600 3084 3056 2656 
Q 3513 2228 3513 1497 
Q 3513 744 3044 326 
Q 2575 -91 1722 -91 
Q 1428 -91 1123 -41 
Q 819 9 494 109 
L 494 744 
Q 775 591 1075 516 
Q 1375 441 1709 441 
Q 2250 441 2565 725 
Q 2881 1009 2881 1497 
Q 2881 1984 2565 2268 
Q 2250 2553 1709 2553 
Q 1456 2553 1204 2497 
Q 953 2441 691 2322 
L 691 4666 
z
" transform="scale(0.015625)"/>
       </defs>
       <use xlink:href="#DejaVuSans-2212"/>
       <use xlink:href="#DejaVuSans-30" transform="translate(83.789062 0)"/>
       <use xlink:href="#DejaVuSans-2e" transform="translate(147.412109 0)"/>
       <use xlink:href="#DejaVuSans-30" transform="translate(179.199219 0)"/>
       <use xlink:href="#DejaVuSans-31" transform="translate(242.822266 0)"/>
       <use xlink:href="#DejaVuSans-35" transform="translate(306.445312 0)"/>
      </g>
     </g>
    </g>
    <g id="text_17">
     <!-- Running mean of mean_median -->
     <g transform="translate(18.515625 234.136562) rotate(-90) scale(0.1 -0.1)">
      <defs>
       <path id="DejaVuSans-52" d="M 2841 2188 
Q 3044 2119 3236 1894 
Q 3428 1669 3622 1275 
L 4263 0 
L 3584 0 
L 2988 1197 
Q 2756 1666 2539 1819 
Q 2322 1972 1947 1972 
L 1259 1972 
L 1259 0 
L 628 0 
L 628 4666 
L 2053 4666 
Q 2853 4666 3247 4331 
Q 3641 3997 3641 3322 
Q 3641 2881 3436 2590 
Q 3231 2300 2841 2188 
z
M 1259 4147 
L 1259 2491 
L 2053 2491 
Q 2509 2491 2742 2702 
Q 2975 2913 2975 3322 
Q 2975 3731 2742 3939 
Q 2509 4147 2053 4147 
L 1259 4147 
z
" transform="scale(0.015625)"/>
       <path id="DejaVuSans-75" d="M 544 1381 
L 544 3500 
L 1119 3500 
L 1119 1403 
Q 1119 906 1312 657 
Q 1506 409 1894 409 
Q 2359 409 2629 706 
Q 2900 1003 2900 1516 
L 2900 3500 
L 3475 3500 
L 3475 0 
L 2900 0 
L 2900 538 
Q 2691 219 2414 64 
Q 2138 -91 1772 -91 
Q 1169 -91 856 284 
Q 544 659 544 1381 
z
M 1991 3584 
L 1991 3584 
z
" transform="scale(0.015625)"/>
       <path id="DejaVuSans-67" d="M 2906 1791 
Q 2906 2416 2648 2759 
Q 2391 3103 1925 3103 
Q 1463 3103 1205 2759 
Q 947 2416 947 1791 
Q 947 1169 1205 825 
Q 1463 481 1925 481 
Q 2391 481 2648 825 
Q 2906 1169 2906 1791 
z
M 3481 434 
Q 3481 -459 3084 -895 
Q 2688 -1331 1869 -1331 
Q 1566 -1331 1297 -1286 
Q 1028 -1241 775 -1147 
L 775 -588 
Q 1028 -725 1275 -790 
Q 1522 -856 1778 -856 
Q 2344 -856 2625 -561 
Q 2906 -266 2906 331 
L 2906 616 
Q 2728 306 2450 153 
Q 2172 0 1784 0 
Q 1141 0 747 490 
Q 353 981 353 1791 
Q 353 2603 747 3093 
Q 1141 3584 1784 3584 
Q 2172 3584 2450 3431 
Q 2728 3278 2906 2969 
L 2906 3500 
L 3481 3500 
L 3481 434 
z
" transform="scale(0.015625)"/>
       <path id="DejaVuSans-6f" d="M 1959 3097 
Q 1497 3097 1228 2736 
Q 959 2375 959 1747 
Q 959 1119 1226 758 
Q 1494 397 1959 397 
Q 2419 397 2687 759 
Q 2956 1122 2956 1747 
Q 2956 2369 2687 2733 
Q 2419 3097 1959 3097 
z
M 1959 3584 
Q 2709 3584 3137 3096 
Q 3566 2609 3566 1747 
Q 3566 888 3137 398 
Q 2709 -91 1959 -91 
Q 1206 -91 779 398 
Q 353 888 353 1747 
Q 353 2609 779 3096 
Q 1206 3584 1959 3584 
z
" transform="scale(0.015625)"/>
       <path id="DejaVuSans-66" d="M 2375 4863 
L 2375 4384 
L 1825 4384 
Q 1516 4384 1395 4259 
Q 1275 4134 1275 3809 
L 1275 3500 
L 2222 3500 
L 2222 3053 
L 1275 3053 
L 1275 0 
L 697 0 
L 697 3053 
L 147 3053 
L 147 3500 
L 697 3500 
L 697 3744 
Q 697 4328 969 4595 
Q 1241 4863 1831 4863 
L 2375 4863 
z
" transform="scale(0.015625)"/>
       <path id="DejaVuSans-5f" d="M 3263 -1063 
L 3263 -1509 
L -63 -1509 
L -63 -1063 
L 3263 -1063 
z
" transform="scale(0.015625)"/>
      </defs>
      <use xlink:href="#DejaVuSans-52"/>
      <use xlink:href="#DejaVuSans-75" transform="translate(64.982422 0)"/>
      <use xlink:href="#DejaVuSans-6e" transform="translate(128.361328 0)"/>
      <use xlink:href="#DejaVuSans-6e" transform="translate(191.740234 0)"/>
      <use xlink:href="#DejaVuSans-69" transform="translate(255.119141 0)"/>
      <use xlink:href="#DejaVuSans-6e" transform="translate(282.902344 0)"/>
      <use xlink:href="#DejaVuSans-67" transform="translate(346.28125 0)"/>
      <use xlink:href="#DejaVuSans-20" transform="translate(409.757812 0)"/>
      <use xlink:href="#DejaVuSans-6d" transform="translate(441.544922 0)"/>
      <use xlink:href="#DejaVuSans-65" transform="translate(538.957031 0)"/>
      <use xlink:href="#DejaVuSans-61" transform="translate(600.480469 0)"/>
      <use xlink:href="#DejaVuSans-6e" transform="translate(661.759766 0)"/>
      <use xlink:href="#DejaVuSans-20" transform="translate(725.138672 0)"/>
      <use xlink:href="#DejaVuSans-6f" transform="translate(756.925781 0)"/>
      <use xlink:href="#DejaVuSans-66" transform="translate(818.107422 0)"/>
      <use xlink:href="#DejaVuSans-20" transform="translate(853.3125 0)"/>
      <use xlink:href="#DejaVuSans-6d" transform="translate(885.099609 0)"/>
      <use xlink:href="#DejaVuSans-65" transform="translate(982.511719 0)"/>
      <use xlink:href="#DejaVuSans-61" transform="translate(1044.035156 0)"/>
      <use xlink:href="#DejaVuSans-6e" transform="translate(1105.314453 0)"/>
      <use xlink:href="#DejaVuSans-5f" transform="translate(1168.693359 0)"/>
      <use xlink:href="#DejaVuSans-6d" transform="translate(1218.693359 0)"/>
      <use xlink:href="#DejaVuSans-65" transform="translate(1316.105469 0)"/>
      <use xlink:href="#DejaVuSans-64" transform="translate(1377.628906 0)"/>
      <use xlink:href="#DejaVuSans-69" transform="translate(1441.105469 0)"/>
      <use xlink:href="#DejaVuSans-61" transform="translate(1468.888672 0)"/>
      <use xlink:href="#DejaVuSans-6e" transform="translate(1530.167969 0)"/>
     </g>
    </g>
   </g>
   <g id="line2d_29">
    <path d="M 94.71392 39.889629 
L 94.716478 38.478182 
L 94.724151 47.475416 
L 94.84999 196.764671 
L 94.918536 238.252598 
L 94.975828 215.087453 
L 95.048978 167.905901 
L 95.112921 185.661615 
L 95.115478 186.088625 
L 95.132871 170.475578 
L 95.294005 82.512895 
L 95.327767 98.857521 
L 95.638271 164.891813 
L 95.643898 164.798099 
L 95.652082 164.753656 
L 95.66129 165.380427 
L 95.66794 165.350012 
L 95.770248 179.208225 
L 96.045967 217.14688 
L 96.17334 236.336618 
L 96.224494 234.974572 
L 96.247001 233.458488 
L 96.307363 237.524366 
L 96.354425 241.913114 
L 96.400975 235.530212 
L 96.438317 228.933437 
L 96.501236 237.429407 
L 96.628098 246.806956 
L 96.665952 244.367069 
L 96.673113 244.241928 
L 96.693063 244.64086 
L 96.902794 269.026338 
L 97.014821 264.083481 
L 97.178002 253.316066 
L 97.209717 250.794834 
L 97.287471 253.497489 
L 97.303329 253.888632 
L 97.409217 264.255899 
L 97.507432 270.441818 
L 97.54989 268.386327 
L 97.722279 264.021416 
L 97.750413 264.176275 
L 97.778548 263.911245 
L 98.229725 232.882183 
L 99.080413 197.114617 
L 99.463044 189.957764 
L 99.48146 190.215142 
L 99.487598 190.408675 
L 99.640548 192.215789 
L 99.647198 192.236589 
L 99.678402 191.838835 
L 99.826748 190.548037 
L 99.85079 190.668238 
L 99.855906 190.698513 
L 99.87739 190.174834 
L 99.918825 188.92538 
L 100.00016 189.844291 
L 100.062567 189.999216 
L 100.007321 189.741869 
L 100.109117 189.823056 
L 100.220633 187.627216 
L 100.418598 176.976049 
L 100.446733 177.744976 
L 100.461567 178.268644 
L 100.494817 175.925312 
L 100.504537 175.219768 
L 100.578198 177.334567 
L 100.594567 176.726368 
L 100.729614 173.645939 
L 100.942925 165.803795 
L 101.017098 161.723543 
L 101.07081 164.59476 
L 101.150098 168.418308 
L 101.216087 166.37954 
L 101.324021 163.109734 
L 101.351644 163.439777 
L 101.426841 165.112064 
L 101.471345 163.87637 
L 101.472368 163.857156 
L 101.517895 165.099616 
L 101.76906 171.288001 
L 101.558818 165.095617 
L 101.804356 170.30785 
L 101.956795 169.120807 
L 101.959352 169.136473 
L 102.026875 168.619194 
L 102.112814 173.86533 
L 102.364491 183.587139 
L 102.435083 187.110644 
L 102.537902 185.743396 
L 102.613099 183.232403 
L 102.664252 185.046697 
L 102.785999 187.613511 
L 102.852499 187.561934 
L 102.863241 187.616081 
L 102.869891 187.455964 
L 102.957875 186.618494 
L 103.000333 186.864354 
L 103.018237 187.065161 
L 103.043814 185.948585 
L 103.193695 184.015763 
L 103.574791 177.301755 
L 103.615714 178.192302 
L 103.863299 182.031652 
L 103.895526 181.925837 
L 104.070983 180.292405 
L 103.992206 182.022062 
L 104.094003 180.700454 
L 104.184033 183.008069 
L 104.261276 181.770597 
L 104.34568 179.719291 
L 104.381999 181.59283 
L 104.509372 184.946722 
L 104.533414 183.686107 
L 104.538018 183.397529 
L 104.604518 186.155642 
L 104.75798 187.911197 
L 104.760537 187.903981 
L 104.79123 188.055516 
L 104.899676 187.275198 
L 104.91758 187.081696 
L 104.958503 187.669292 
L 105.090991 191.69044 
L 105.259287 194.698903 
L 105.43986 195.485476 
L 105.278726 194.674519 
L 105.46646 195.001489 
L 106.025572 181.01193 
L 106.124299 181.2972 
L 106.16113 181.340835 
L 106.235814 180.950355 
L 106.356026 179.754687 
L 106.384672 180.052834 
L 106.431222 180.017685 
L 106.448614 180.295386 
L 106.651695 183.457671 
L 106.654764 183.43178 
L 106.922811 181.236501 
L 106.952991 181.881386 
L 107.103895 183.546868 
L 107.128961 183.351259 
L 107.234338 182.829441 
L 107.253265 183.199033 
L 107.379615 183.483397 
L 107.393426 183.669535 
L 107.454299 183.102519 
L 107.520288 182.098401 
L 107.561722 181.327273 
L 107.63743 181.96156 
L 107.729507 183.590953 
L 107.87018 184.406913 
L 107.878365 184.402763 
L 107.883992 184.401451 
L 107.911103 184.519267 
L 108.271738 188.807452 
L 108.448219 190.362263 
L 108.529553 190.195894 
L 108.552061 190.195142 
L 108.557176 190.300253 
L 108.847219 194.003217 
L 109.035976 195.784963 
L 109.054392 195.66969 
L 109.14698 195.190696 
L 109.174603 195.571407 
L 109.298907 195.826063 
L 109.301465 195.797394 
L 109.477434 194.633656 
L 109.509661 194.70516 
L 109.538819 194.550895 
L 109.93833 190.138087 
L 110.088723 186.734219 
L 110.118392 186.791938 
L 110.416619 184.211559 
L 110.434523 184.337016 
L 110.480561 185.364052 
L 110.555757 184.617936 
L 110.71638 183.107352 
L 110.757815 183.576633 
L 110.9522 186.111364 
L 111.055019 185.81502 
L 111.228431 185.032908 
L 111.249915 185.060487 
L 111.270888 185.086237 
L 111.296977 184.931262 
L 111.432023 183.910349 
L 111.603388 182.47736 
L 111.604411 182.477544 
L 111.632034 182.414844 
L 111.635104 182.376214 
L 111.827442 181.35714 
L 111.872969 181.236483 
L 111.941515 180.95966 
L 111.986019 181.22987 
L 111.999319 181.326985 
L 112.039219 180.834584 
L 112.087304 181.052534 
L 112.12925 181.600782 
L 112.487327 185.721069 
L 112.495 185.749643 
L 112.524158 185.410419 
L 112.913438 181.065942 
L 112.952827 181.211511 
L 113.051554 181.493461 
L 113.255146 183.366141 
L 113.273562 183.267658 
L 113.311927 183.087353 
L 113.334946 183.015393 
L 113.3861 183.357741 
L 113.65875 186.073236 
L 113.700696 185.463246 
L 113.769754 185.552927 
L 113.826023 184.635519 
L 113.950327 182.281368 
L 113.995854 182.475037 
L 114.189216 183.966524 
L 114.302266 183.827841 
L 114.345746 184.180407 
L 114.519158 186.139257 
L 114.565196 186.086507 
L 114.570312 186.036061 
L 114.644485 186.60448 
L 114.663923 186.723337 
L 114.700754 186.89924 
L 114.761627 186.596211 
L 114.762139 186.597019 
L 114.768789 186.592433 
L 114.790785 186.874934 
L 114.799481 186.983207 
L 114.880304 186.595859 
L 114.892581 186.517292 
L 114.970335 186.734499 
L 115.020977 187.280026 
L 115.17137 187.847248 
L 115.241962 188.177216 
L 115.41742 189.881745 
L 115.830231 195.531772 
L 115.846089 195.439874 
L 115.88292 195.198926 
L 115.938166 195.592907 
L 115.977043 195.706884 
L 116.008247 195.573585 
L 116.054285 195.61236 
L 116.120274 195.46634 
L 116.207747 195.29537 
L 116.137666 195.546436 
L 116.237927 195.398326 
L 116.254808 195.373714 
L 116.299312 195.503138 
L 116.330516 195.940871 
L 116.584751 198.231929 
L 116.586797 198.226052 
L 116.673758 197.898758 
L 116.605212 198.305661 
L 116.717751 198.201208 
L 116.97352 199.342445 
L 117.152047 200.542039 
L 117.169951 200.435856 
L 117.337735 201.609681 
L 117.736224 206.584876 
L 117.886105 207.094095 
L 117.941862 206.85081 
L 118.072816 206.518052 
L 118.092766 206.596424 
L 118.244182 207.087972 
L 118.292266 206.925432 
L 118.637555 205.779405 
L 119.129655 199.299868 
L 119.326597 198.592321 
L 119.180297 199.337249 
L 119.32762 198.59416 
L 119.372636 198.92593 
L 119.627382 200.946187 
L 119.674443 201.055726 
L 119.801305 201.206401 
L 119.862689 201.48723 
L 119.896451 201.139954 
L 120.123063 200.428978 
L 120.176263 200.309124 
L 120.25862 200.393296 
L 120.313355 200.560436 
L 120.372182 200.371653 
L 120.436124 200.535518 
L 120.49802 200.193578 
L 120.763509 197.840205 
L 120.917993 198.165603 
L 120.93334 198.319346 
L 121.016209 198.03408 
L 121.060201 197.783627 
L 121.177855 197.078287 
L 121.222359 197.256677 
L 121.239751 197.433818 
L 121.320574 197.124548 
L 121.678651 194.280323 
L 121.810628 194.799189 
L 121.957951 196.29419 
L 122.011663 195.810917 
L 122.164101 195.057037 
L 122.186097 195.136509 
L 122.194794 195.166847 
L 122.246971 194.95945 
L 122.500182 191.86696 
L 122.603513 192.146745 
L 122.714005 192.495551 
L 122.773344 192.433562 
L 122.88179 192.222603 
L 122.898159 192.300718 
L 122.936013 192.429238 
L 122.992794 192.235969 
L 123.046505 192.078862 
L 123.079755 192.311723 
L 123.092544 192.302955 
L 123.095101 192.300478 
L 123.136025 192.42204 
L 123.259305 192.686107 
L 123.282836 192.643609 
L 123.372867 192.161951 
L 123.707925 189.265828 
L 124.029171 185.826491 
L 124.108459 186.145066 
L 124.108971 186.144596 
L 124.130967 186.274133 
L 124.272152 187.050845 
L 124.310005 187.007189 
L 124.383156 186.893121 
L 124.417429 186.78674 
L 124.481882 186.949693 
L 124.572936 187.143131 
L 124.526898 186.92927 
L 124.592375 186.929873 
L 125.351498 177.90504 
L 125.384236 177.837631 
L 125.401629 178.088156 
L 125.60164 179.245386 
L 125.840017 180.542335 
L 125.90089 180.419734 
L 125.939256 180.109115 
L 126.086067 179.599128 
L 126.225717 178.240985 
L 126.262548 177.74647 
L 126.34951 178.041498 
L 126.744417 175.177943 
L 126.351556 178.042025 
L 126.842121 175.538881 
L 126.99456 176.453774 
L 127.022183 176.427845 
L 127.023206 176.42622 
L 127.091241 176.526882 
L 127.543441 179.004894 
L 127.548044 178.989426 
L 127.561856 178.92247 
L 127.630914 179.113394 
L 127.657514 179.005804 
L 127.792048 179.577193 
L 127.963925 180.340064 
L 128.22481 181.629183 
L 128.249364 181.573534 
L 128.329675 181.420366 
L 128.35781 181.59866 
L 128.481602 181.756755 
L 128.488764 181.724825 
L 128.660129 181.312147 
L 128.686729 181.355536 
L 128.732768 181.249542 
L 128.865768 181.116546 
L 128.885206 180.993034 
L 129.192641 178.20791 
L 129.317456 177.984363 
L 129.599314 176.97948 
L 129.617729 177.045854 
L 129.663256 177.512643 
L 129.740499 177.181848 
L 129.899076 176.538883 
L 129.938464 176.749123 
L 130.204464 177.956735 
L 130.250503 177.822413 
L 130.29961 177.718943 
L 130.593233 177.231037 
L 130.913968 176.216202 
L 131.221914 175.698297 
L 131.256187 175.786757 
L 131.31041 176.062971 
L 131.671557 178.113983 
L 131.677695 178.126008 
L 131.713503 177.941305 
L 131.84548 177.288063 
L 132.096134 175.931051 
L 132.127849 176.014517 
L 132.249595 176.283663 
L 132.437841 177.108121 
L 132.454211 177.063441 
L 132.517641 176.948561 
L 132.571353 177.139284 
L 132.844514 178.519471 
L 132.886461 178.219807 
L 132.99593 178.027851 
L 133.133022 176.678205 
L 133.20208 176.843592 
L 133.250164 177.224447 
L 133.373445 177.56169 
L 133.390838 177.533758 
L 133.429714 177.449279 
L 133.499795 177.554465 
L 133.549926 177.878729 
L 133.733057 178.722681 
L 133.747891 178.701647 
L 133.753007 178.676956 
L 133.825645 178.977652 
L 133.982176 179.204371 
L 134.011334 179.15322 
L 134.075276 178.983915 
L 134.141776 179.090597 
L 134.215949 179.489937 
L 134.361738 179.734289 
L 134.553565 180.382067 
L 134.973538 183.735838 
L 135.159738 184.017098 
L 135.161784 184.012828 
L 135.304503 183.923971 
L 135.311665 183.958102 
L 135.320361 183.978685 
L 135.390442 183.865947 
L 135.419088 183.929451 
L 135.483542 184.004395 
L 135.486611 184.021221 
L 135.787907 185.580965 
L 135.848269 185.39241 
L 135.856453 185.384978 
L 135.890215 185.499449 
L 135.993034 185.709271 
L 136.029353 185.683013 
L 136.288703 186.812329 
L 136.44063 187.110936 
L 136.596138 188.1947 
L 137.0688 190.773945 
L 137.117396 190.67748 
L 137.255511 190.529273 
L 137.297457 190.634251 
L 137.426877 190.907387 
L 137.465754 190.845401 
L 137.819227 190.338076 
L 138.314396 186.865824 
L 138.362992 186.909888 
L 138.506734 186.532464 
L 138.544588 186.641874 
L 138.814681 187.946333 
L 138.866346 188.074466 
L 138.918523 188.059372 
L 139.002927 188.212735 
L 139.045385 188.320852 
L 139.084773 188.115028 
L 139.275065 187.799146 
L 139.288365 187.812547 
L 139.435177 187.803783 
L 139.439269 187.809813 
L 139.644396 187.944141 
L 139.651046 187.91836 
L 139.946204 186.482698 
L 140.00145 186.59958 
L 140.102735 186.721341 
L 140.116035 186.801884 
L 140.202485 186.656628 
L 140.204531 186.657622 
L 140.213739 186.659911 
L 140.238292 186.55132 
L 140.36055 186.144061 
L 140.401473 186.235907 
L 140.422446 186.365193 
L 140.506339 186.18946 
L 140.834746 184.714649 
L 140.861346 184.627808 
L 140.955981 184.733533 
L 141.140646 185.867658 
L 141.196404 185.583581 
L 141.346796 185.185502 
L 141.367769 185.234757 
L 141.413808 185.248825 
L 141.434269 185.115352 
L 141.682877 183.368911 
L 141.785185 183.550099 
L 141.953481 183.763051 
L 141.959108 183.737244 
L 142.064485 183.648964 
L 142.07932 183.695202 
L 142.118708 183.78179 
L 142.185208 183.660354 
L 142.2292 183.592974 
L 142.26552 183.737319 
L 142.324858 183.838481 
L 142.442 183.993994 
L 142.471158 183.965793 
L 142.562724 183.674279 
L 142.872716 182.126782 
L 143.211866 179.985555 
L 143.288085 180.184845 
L 143.413412 180.639283 
L 143.536693 180.746899 
L 143.543343 180.733722 
L 143.600124 180.6154 
L 143.668158 180.728973 
L 143.755631 180.851958 
L 143.778139 180.698627 
L 144.528566 175.278465 
L 144.566931 175.22942 
L 144.582789 175.372078 
L 144.786893 176.11952 
L 145.022712 176.926463 
L 145.082051 176.856663 
L 145.12502 176.638016 
L 145.266716 176.365589 
L 145.411482 175.493207 
L 145.489235 175.221996 
L 145.531693 175.407943 
L 146.359874 171.977577 
L 146.464739 172.095539 
L 146.505151 172.301783 
L 146.566536 172.042926 
L 146.711301 171.720632 
L 146.738924 171.769842 
L 146.823328 171.907733 
L 146.876016 171.851822 
L 147.204936 171.217104 
L 147.226932 171.234835 
L 147.228978 171.236251 
L 147.251486 171.117707 
L 147.591147 169.574353 
L 147.62542 169.657806 
L 147.849986 168.627109 
L 148.278655 165.47245 
L 148.487874 164.066747 
L 148.698117 163.563748 
L 148.819863 163.044186 
L 148.888409 162.802454 
L 148.954909 162.906057 
L 149.050055 163.123305 
L 149.18459 163.295675 
L 149.193798 163.212208 
L 149.347771 162.112068 
L 149.415294 162.222269 
L 149.44394 162.314357 
L 149.510951 162.280177 
L 149.610701 162.146329 
L 149.885909 161.692426 
L 149.917625 161.885862 
L 150.375452 165.124986 
L 150.705394 167.630823 
L 150.805655 167.504015 
L 150.951444 167.310215 
L 150.963209 167.355562 
L 150.978044 167.379711 
L 151.031244 167.23895 
L 151.071656 167.154734 
L 151.132017 167.284483 
L 151.13304 167.285498 
L 151.162198 167.157811 
L 151.163732 167.156669 
L 151.234836 167.051183 
L 151.280875 167.206052 
L 151.547386 168.258922 
L 151.608771 168.123248 
L 152.090129 166.068188 
L 152.105475 166.080781 
L 152.508567 167.053093 
L 152.524936 167.03728 
L 152.58939 167.002821 
L 152.599621 167.137354 
L 152.758198 167.753937 
L 152.773544 167.80781 
L 152.844648 167.633899 
L 153.05131 167.025323 
L 153.072794 167.12745 
L 153.123437 167.196631 
L 153.170498 167.070251 
L 153.243137 166.906002 
L 153.27434 167.108279 
L 153.364371 167.564073 
L 153.425244 167.384963 
L 153.743933 166.840887 
L 153.444683 167.408202 
L 153.785367 167.002171 
L 153.810944 167.074178 
L 153.866702 166.853417 
L 154.006864 166.610366 
L 154.017606 166.678705 
L 154.067225 166.765393 
L 154.114798 166.587165 
L 154.750129 164.213336 
L 155.004364 163.168712 
L 155.234045 162.614779 
L 155.248879 162.605931 
L 155.278037 162.721272 
L 155.379833 163.15602 
L 155.43201 163.003022 
L 155.581891 162.853239 
L 155.582914 162.854964 
L 155.600306 162.885513 
L 155.630998 162.718281 
L 155.71131 162.378923 
L 155.760929 162.54095 
L 155.770648 162.565897 
L 155.85761 162.48357 
L 155.871933 162.467925 
L 155.908252 162.587476 
L 156.215175 163.397055 
L 156.222849 163.385585 
L 156.252518 163.382361 
L 156.303672 163.462228 
L 156.328225 163.486603 
L 156.409049 163.426535 
L 156.613152 163.131851 
L 156.710345 163.067022 
L 156.731829 163.124452 
L 156.911379 163.310193 
L 156.931329 163.28115 
L 157.079164 162.898303 
L 157.168683 162.644724 
L 157.212676 162.770913 
L 157.444403 163.1641 
L 157.476118 163.042312 
L 158.006072 160.76465 
L 158.009653 160.774865 
L 158.368241 161.915939 
L 158.448041 161.851823 
L 158.515053 161.979009 
L 158.553418 161.815483 
L 158.559045 161.783613 
L 158.63373 162.00067 
L 158.696137 161.906485 
L 158.73348 161.948431 
L 159.586214 160.007847 
L 160.298788 157.52552 
L 160.315668 157.543989 
L 160.348407 157.613902 
L 160.410815 157.485076 
L 160.596503 157.024148 
L 160.607245 157.026474 
L 160.664026 156.828603 
L 161.004199 155.128807 
L 161.101903 155.316399 
L 161.192445 155.20389 
L 161.441565 154.95751 
L 161.466119 155.064393 
L 161.552569 155.326807 
L 161.591957 155.118142 
L 161.783784 154.313626 
L 161.87893 154.069174 
L 162.315784 151.933876 
L 162.55723 151.57546 
L 162.388423 152.026138 
L 162.62373 151.621593 
L 162.880011 151.982008 
L 162.888196 151.977203 
L 162.9992 151.833378 
L 163.198188 151.0605 
L 163.38848 150.480294 
L 163.412523 150.46706 
L 163.486696 150.546952 
L 163.646296 150.931558 
L 163.700519 150.775438 
L 163.797711 150.878565 
L 164.014604 151.617777 
L 164.027392 151.599927 
L 164.087754 151.629514 
L 164.111796 151.522038 
L 164.330734 150.258693 
L 164.391096 150.34439 
L 164.554277 150.624702 
L 164.5686 150.600355 
L 164.827438 150.389962 
L 164.902123 150.486437 
L 165.104692 150.793718 
L 165.215696 150.803764 
L 165.127711 150.759626 
L 165.223369 150.779785 
L 165.328234 150.693778 
L 165.34665 150.733871 
L 165.62595 151.540449 
L 165.793223 151.430503 
L 165.91855 151.340055 
L 165.951288 151.393659 
L 166.379446 153.012512 
L 166.614242 153.703811 
L 166.615265 153.701136 
L 166.676139 153.548707 
L 166.747242 153.666309 
L 167.011196 154.221676 
L 167.026031 154.211099 
L 167.174377 154.054987 
L 167.376946 153.564585 
L 167.488973 153.673312 
L 167.686939 154.044402 
L 167.935035 154.522775 
L 168.072639 154.768152 
L 168.1729 155.023135 
L 168.231216 154.864635 
L 168.398489 154.626969 
L 168.526373 154.509986 
L 168.627658 154.367296 
L 168.668581 154.43553 
L 168.743266 154.552124 
L 168.786235 154.410349 
L 168.80465 154.381203 
L 168.842504 154.48301 
L 168.891612 154.446672 
L 169.29982 153.235863 
L 169.530012 152.427962 
L 169.67222 152.078003 
L 169.840516 151.10267 
L 170.141812 149.806594 
L 170.166366 149.814667 
L 170.242074 149.948679 
L 170.488635 150.594466 
L 170.505004 150.530147 
L 170.519328 150.540905 
L 170.634424 150.475967 
L 170.928047 149.64501 
L 171.159262 149.003033 
L 171.196605 148.958834 
L 171.235993 149.091507 
L 171.325001 149.412784 
L 171.395593 149.206432 
L 171.404289 149.180458 
L 171.478462 149.312646 
L 172.14602 150.591722 
L 172.170574 150.519881 
L 172.271347 150.463207 
L 172.290274 150.532775 
L 172.322501 150.613464 
L 172.391559 150.493759 
L 172.396162 150.499427 
L 172.428901 150.459184 
L 172.484659 150.566839 
L 173.109247 152.056383 
L 172.523024 150.530668 
L 173.202859 151.973502 
L 173.280101 151.889288 
L 173.33637 151.973151 
L 173.339439 151.98086 
L 173.388036 151.894452 
L 173.434074 151.918651 
L 173.854559 152.173933 
L 173.867347 152.154046 
L 173.892413 152.117765 
L 173.949705 152.229965 
L 174.015693 152.530995 
L 174.072986 152.296105 
L 174.313409 151.445993 
L 174.31392 151.446094 
L 174.502167 151.372514 
L 174.658697 151.218956 
L 174.674555 151.22992 
L 175.044909 151.302624 
L 175.20144 150.942374 
L 175.458232 150.289742 
L 175.491994 150.353375 
L 175.554913 150.288025 
L 175.610671 150.34077 
L 175.699167 150.315904 
L 175.709398 150.28356 
L 175.955448 149.736626 
L 175.983071 149.783906 
L 176.216332 150.554046 
L 176.286413 150.365581 
L 176.494098 149.713653 
L 176.563667 149.682913 
L 176.610728 149.723788 
L 176.728382 149.82714 
L 176.751402 149.810394 
L 176.882867 149.674973 
L 177.133009 149.080086 
L 177.134544 149.084971 
L 177.713605 151.102051 
L 177.161144 148.956668 
L 177.839956 150.94051 
L 177.897248 151.067578 
L 177.959656 150.936802 
L 178.524906 149.169664 
L 178.557644 149.229939 
L 178.621075 149.347002 
L 178.656883 149.180196 
L 178.688598 149.063065 
L 178.755098 149.252528 
L 178.75919 149.252568 
L 178.860986 149.369018 
L 178.934136 149.43687 
L 178.981198 149.34671 
L 179.05486 149.17797 
L 179.142333 149.248162 
L 179.375594 149.539721 
L 179.419075 149.673524 
L 179.509617 149.594112 
L 180.182802 148.397032 
L 180.284598 148.228003 
L 180.462102 147.688548 
L 180.480006 147.745589 
L 180.500467 147.769622 
L 180.549575 147.586484 
L 180.722987 147.142628 
L 180.754702 147.176943 
L 181.074414 147.539296 
L 181.128125 147.475602 
L 181.179279 147.579541 
L 181.328137 147.802303 
L 181.351668 147.775221 
L 181.483645 147.700699 
L 181.524056 147.773043 
L 181.576745 147.830711 
L 181.630456 147.743065 
L 181.747087 147.561761 
L 181.787498 147.642238 
L 182.095445 148.02183 
L 182.130741 147.985517 
L 182.31336 147.85923 
L 182.331775 147.88843 
L 182.421806 147.974295 
L 182.464264 147.888254 
L 182.531275 147.819881 
L 182.57271 147.924065 
L 182.928229 148.536024 
L 183.007518 148.639036 
L 183.068902 148.612905 
L 183.107779 148.725144 
L 183.746691 150.155494 
L 183.759479 150.142632 
L 183.791706 150.129625 
L 183.818306 150.238288 
L 183.942099 150.431135 
L 183.97586 150.418805 
L 184.29506 150.812616 
L 184.350306 150.858743 
L 184.382533 150.737774 
L 185.14268 148.337897 
L 185.389753 147.067893 
L 185.575953 146.944086 
L 185.577487 146.944999 
L 185.731972 147.073045 
L 185.763687 146.936001 
L 185.826607 146.74749 
L 185.890549 146.878211 
L 186.000018 147.264403 
L 186.061403 147.081668 
L 186.445057 145.778359 
L 186.503372 145.857763 
L 186.540714 145.890902 
L 186.569872 145.768039 
L 186.981661 144.410442 
L 187.251753 143.741045 
L 187.325415 143.91163 
L 187.404192 144.126725 
L 187.485015 144.042595 
L 187.526449 143.972731 
L 187.564303 144.089952 
L 187.583742 144.095341 
L 187.667122 144.242607 
L 188.027245 145.499918 
L 188.134669 145.913511 
L 188.385834 146.594289 
L 188.684061 146.999596 
L 188.735215 146.930212 
L 188.856961 146.719166 
L 188.901976 146.79913 
L 189.138819 147.074036 
L 189.224757 147.071842 
L 189.25903 147.031286 
L 189.439603 147.165174 
L 190.072377 148.558936 
L 190.10358 148.526524 
L 190.331727 148.401102 
L 190.335819 148.405749 
L 190.492861 148.515386 
L 190.50258 148.505937 
L 190.650927 148.246125 
L 190.736865 147.703752 
L 190.817688 147.773079 
L 190.969104 147.871068 
L 190.995704 147.840207 
L 191.175254 147.236583 
L 191.209527 147.25832 
L 191.302627 147.121539 
L 191.896011 145.805187 
L 191.916984 145.83924 
L 191.967115 145.794685 
L 192.041288 145.826249 
L 192.043846 145.827472 
L 192.066354 145.716182 
L 192.252042 145.23311 
L 192.518042 144.844338 
L 192.519065 144.845346 
L 192.612677 144.836582 
L 192.638254 144.805016 
L 193.005538 144.167351 
L 193.382031 142.835033 
L 193.724762 142.520036 
L 193.763639 142.593792 
L 193.783589 142.632848 
L 193.834231 142.488427 
L 193.928354 142.372407 
L 193.96365 142.440617 
L 194.025035 142.541914 
L 194.091535 142.447749 
L 194.250623 142.157604 
L 195.372427 139.82843 
L 195.644566 139.654844 
L 195.859412 139.189175 
L 195.877827 139.218348 
L 196.097277 139.415002 
L 196.338212 139.694637 
L 196.596539 140.365238 
L 196.637462 140.53255 
L 196.814966 141.092388 
L 196.849751 141.018286 
L 197.002189 140.948799 
L 197.132631 140.941179 
L 197.023674 140.9716 
L 197.13877 140.948615 
L 197.233916 141.242305 
L 197.41142 141.420813 
L 197.425743 141.397146 
L 197.502474 141.294713 
L 197.554651 141.399584 
L 197.802235 141.796325 
L 197.83702 141.77759 
L 198.096882 141.470892 
L 198.265178 141.192348 
L 198.436543 140.863715 
L 198.754209 139.648148 
L 199.357312 137.536811 
L 199.518959 137.212643 
L 199.654516 137.145432 
L 199.690836 137.177435 
L 199.905682 137.25096 
L 199.913355 137.234799 
L 200.061189 137.140183 
L 200.070909 137.145395 
L 200.330259 137.075345 
L 200.432566 137.159301 
L 200.634624 137.421091 
L 200.677593 137.358708 
L 200.81264 137.487812 
L 200.858167 137.386504 
L 201.076082 137.010749 
L 201.105751 137.040692 
L 201.134909 137.026352 
L 201.169182 136.948858 
L 201.200897 136.836398 
L 201.272513 136.988156 
L 201.53084 137.367855 
L 201.588644 137.412237 
L 201.622917 137.30203 
L 201.734432 137.196453 
L 201.761032 137.209954 
L 202.771321 137.987359 
L 203.011744 138.423267 
L 203.088986 138.287855 
L 203.116098 138.266728 
L 203.153951 138.384095 
L 203.569832 139.261002 
L 203.649121 139.370276 
L 203.706413 139.216354 
L 204.11104 138.33481 
L 204.372948 138.009444 
L 204.395455 138.066332 
L 204.478325 138.185572 
L 204.539198 138.152581 
L 204.684986 138.203228 
L 204.700332 138.185432 
L 204.924386 137.975606 
L 205.159183 137.811918 
L 205.182713 137.845751 
L 205.293717 137.814383 
L 205.385283 137.861895 
L 205.395002 137.899217 
L 205.561252 138.076248 
L 205.745917 138.461063 
L 205.797071 138.522579 
L 205.854363 138.432661 
L 206.022148 138.058509 
L 206.26206 137.39734 
L 206.479463 136.755556 
L 206.752625 136.497859 
L 206.828333 136.615536 
L 206.875394 136.726854 
L 206.941894 136.612738 
L 207.016067 136.459769 
L 207.07029 136.61864 
L 207.147533 136.629121 
L 207.171064 136.567219 
L 207.195106 136.508119 
L 207.285137 136.578801 
L 207.424787 136.517881 
L 207.634518 136.089318 
L 207.698971 135.968648 
L 207.753194 136.09143 
L 207.842714 136.247445 
L 207.890287 136.134541 
L 208.006406 135.680495 
L 208.203348 135.013171 
L 208.287752 134.949043 
L 208.338395 135.006107 
L 208.550683 135.319012 
L 208.556821 135.315351 
L 208.665779 135.125711 
L 208.826402 134.961313 
L 208.833052 134.976714 
L 208.938429 135.183448 
L 208.996745 135.313017 
L 209.086775 135.235717 
L 209.253537 135.240488 
L 209.358914 135.30483 
L 209.396256 135.324301 
L 209.456106 135.243682 
L 209.460199 135.242961 
L 209.518514 135.339926 
L 209.688856 135.493061 
L 209.697552 135.47794 
L 210.018799 134.323855 
L 210.346695 133.215946 
L 210.406033 133.318542 
L 210.707329 133.458805 
L 210.712956 133.448235 
L 210.94366 133.058563 
L 210.999418 133.157874 
L 211.052106 133.190772 
L 211.017833 133.125411 
L 211.107353 133.12188 
L 211.153903 133.057201 
L 211.191245 133.195884 
L 211.217333 133.27339 
L 211.288437 133.133666 
L 211.351868 133.118256 
L 211.37591 133.211711 
L 211.418368 133.31159 
L 211.51198 133.262584 
L 211.523745 133.244868 
L 211.584618 133.348153 
L 211.862383 133.853413 
L 212.11048 134.531569 
L 212.119176 134.512004 
L 212.119687 134.510886 
L 212.184141 134.635818 
L 212.430191 135.221279 
L 212.212787 134.593785 
L 212.509991 135.151209 
L 213.117699 134.703219 
L 213.12128 134.707746 
L 213.204149 134.806591 
L 213.276788 134.725555 
L 213.484472 134.650998 
L 213.516699 134.701325 
L 213.709038 135.021269 
L 213.763261 134.942487 
L 213.804184 134.903203 
L 213.880915 134.961209 
L 214.241549 135.335448 
L 214.324418 135.246922 
L 215.020111 134.195725 
L 215.131626 134.093386 
L 215.196592 134.078492 
L 215.226772 134.148978 
L 215.625261 134.801183 
L 215.633446 134.784271 
L 215.86108 134.462361 
L 216.245757 134.378972 
L 216.410984 134.511346 
L 216.453442 134.416101 
L 216.779803 133.99264 
L 216.797196 133.987028 
L 216.840165 134.085922 
L 217.281623 134.961069 
L 217.382396 135.195937 
L 217.50005 135.343652 
L 217.550692 135.323975 
L 217.857104 135.441063 
L 217.96555 135.539394 
L 218.103665 135.56765 
L 218.114407 135.555737 
L 218.117988 135.546561 
L 218.204438 135.610259 
L 218.219273 135.592554 
L 218.491411 135.074166 
L 218.693981 134.886623 
L 218.695515 134.8882 
L 218.817773 135.017379 
L 218.868415 134.972426 
L 219.162038 134.704365 
L 219.172269 134.735801 
L 219.332892 134.825485 
L 219.423946 134.927473 
L 219.700688 135.177157 
L 219.855685 135.540857 
L 219.895585 135.490264 
L 220.04035 135.290001 
L 220.058765 135.383083 
L 220.229108 135.668149 
L 220.701769 136.20552 
L 220.723766 136.183979 
L 220.978512 135.82003 
L 221.222516 135.619747 
L 221.617935 135.736673 
L 221.648627 135.786794 
L 221.712058 135.679425 
L 221.910023 135.280195 
L 221.979593 135.356283 
L 222.574 135.838428 
L 222.612877 135.766364 
L 222.666589 135.901201 
L 222.8533 136.414845 
L 222.854324 136.418176 
L 222.921335 136.259573 
L 223.08912 136.117619 
L 223.09577 136.140772 
L 223.449754 137.301393 
L 223.452312 137.299771 
L 223.509093 137.293472 
L 223.54132 137.374799 
L 223.70757 137.45572 
L 224.039558 137.581068 
L 224.05337 137.558422 
L 224.095316 137.534886 
L 224.136751 137.631727 
L 224.283562 137.95535 
L 224.521428 138.364351 
L 224.621178 138.627232 
L 224.793055 138.857386 
L 224.985393 138.787502 
L 225.125043 138.679928 
L 225.159316 138.720857 
L 225.173639 138.749452 
L 225.225816 138.583805 
L 225.511766 137.935798 
L 225.923555 137.240888 
L 225.943505 137.261168 
L 226.019212 137.288565 
L 226.065251 137.23208 
L 226.433047 136.782616 
L 226.739459 136.484694 
L 226.77322 136.626788 
L 227.003413 137.27045 
L 227.135901 137.549655 
L 227.34154 138.069842 
L 227.372743 138.048277 
L 227.712917 137.96863 
L 227.869447 138.197974 
L 228.041836 138.264681 
L 228.177905 138.180893 
L 228.256682 138.233624 
L 228.267936 138.251718 
L 228.527286 138.617033 
L 228.541097 138.606682 
L 228.733947 138.597646 
L 229.145224 139.233126 
L 229.45624 139.860107 
L 229.784648 140.078334 
L 229.804598 140.089356 
L 229.866494 140.001999 
L 230.012794 140.008695 
L 230.01484 140.011314 
L 230.524332 140.464296 
L 230.91924 140.514697 
L 231.081398 140.474791 
L 231.195471 140.356314 
L 231.366836 140.311186 
L 231.376044 140.344617 
L 231.565825 140.731384 
L 231.589867 140.702845 
L 231.835917 140.261659 
L 231.911113 140.398105 
L 232.240544 140.789123 
L 232.246683 140.789015 
L 232.288117 140.689358 
L 232.593506 140.156499 
L 232.62471 140.196281 
L 232.671771 140.222087 
L 232.723437 140.145284 
L 232.859506 139.759315 
L 232.984321 139.664571 
L 232.987902 139.669406 
L 233.219629 140.027113 
L 233.290221 139.875304 
L 233.591517 139.460704 
L 233.690244 139.517503 
L 234.176206 139.761111 
L 234.386448 140.074981 
L 234.478014 139.959103 
L 234.582368 140.027043 
L 234.681606 140.234405 
L 234.815629 140.309321 
L 234.825348 140.302833 
L 235.072421 140.226109 
L 235.082141 140.258823 
L 235.19161 140.467685 
L 235.245321 140.418473 
L 235.249925 140.417694 
L 235.29801 140.518588 
L 235.620279 140.999897 
L 235.658645 140.961956 
L 235.910322 140.820665 
L 235.924133 140.84017 
L 236.154837 140.985591 
L 236.220314 141.080355 
L 236.612664 141.924032 
L 237.028545 142.211858 
L 237.357976 141.869765 
L 237.393783 141.941358 
L 237.915041 142.489856 
L 238.05111 142.416312 
L 238.239868 142.383727 
L 238.598968 142.640292 
L 238.618918 142.588929 
L 238.644495 142.560723 
L 238.697695 142.631539 
L 238.724295 142.624224 
L 238.78261 142.65786 
L 238.803584 142.704174 
L 238.999503 142.862109 
L 239.082372 143.054088 
L 239.144268 143.104668 
L 239.185703 143.014425 
L 239.370368 142.754231 
L 239.402595 142.775898 
L 239.497741 142.695734 
L 239.813872 142.139079 
L 239.842007 142.177844 
L 240.014395 142.412549 
L 240.039461 142.382483 
L 240.161207 142.40574 
L 240.253795 142.540915 
L 240.332572 142.673257 
L 240.381168 142.577966 
L 240.552534 142.453384 
L 240.555091 142.455338 
L 240.776076 142.484997 
L 241.048215 142.140579 
L 241.905042 140.316101 
L 241.920388 140.332517 
L 241.950569 140.34058 
L 242.021672 140.281437 
L 242.211965 140.141725 
L 242.981319 138.977942 
L 242.992061 138.991818 
L 243.096926 138.99213 
L 243.11483 138.968762 
L 243.18798 138.843895 
L 243.279034 138.928426 
L 243.455515 139.055145 
L 243.842238 139.911411 
L 244.153254 140.748641 
L 244.542534 141.101548 
L 244.552765 141.088661 
L 244.871965 140.752222 
L 245.278127 140.527099 
L 245.325188 140.619564 
L 245.673035 140.957707 
L 245.839285 140.912647 
L 246.232146 140.623245 
L 246.5094 140.974845 
L 246.727827 141.255212 
L 247.158542 141.648902 
L 247.217881 141.675614 
L 247.275685 141.629402 
L 247.588746 141.329661 
L 247.625066 141.397272 
L 248.147858 141.91066 
L 248.29825 141.827865 
L 248.482404 141.822455 
L 248.829739 142.053387 
L 248.862477 141.994347 
L 248.928466 142.04559 
L 248.977573 142.026559 
L 249.124897 142.150307 
L 249.375039 142.489115 
L 249.399081 142.429012 
L 249.601139 142.162723 
L 249.613927 142.171689 
L 249.727489 142.110777 
L 249.729535 142.106366 
L 250.044643 141.589777 
L 250.073289 141.627334 
L 250.245166 141.845967 
L 250.270743 141.817344 
L 250.394535 141.840783 
L 250.479451 141.951091 
L 250.563343 142.090716 
L 250.612451 142.00076 
L 250.783304 141.886078 
L 250.786885 141.888643 
L 251.011962 141.912908 
L 251.28052 141.592064 
L 252.135812 139.89257 
L 252.149112 139.905548 
L 252.255512 139.859975 
L 252.458593 139.707981 
L 252.667301 139.264539 
L 252.904655 138.901115 
L 253.023843 138.818414 
L 253.212089 138.643662 
L 253.22232 138.656056 
L 253.327697 138.657179 
L 253.347647 138.632641 
L 253.418751 138.518691 
L 253.511339 138.598129 
L 253.696516 138.732 
L 254.714478 140.640142 
L 254.827017 140.568177 
L 255.104782 140.307625 
L 255.508897 140.099027 
L 255.554936 140.184232 
L 255.950355 140.568486 
L 256.246025 140.767206 
L 256.294621 140.701735 
L 256.540671 140.497705 
L 256.579548 140.565038 
L 257.101828 141.049938 
L 257.26194 140.966535 
L 257.480879 141.014537 
L 257.781663 141.188032 
L 257.788825 141.170376 
L 257.82719 141.118227 
L 257.910571 141.172871 
L 258.001625 141.248887 
L 258.187313 141.395909 
L 258.326963 141.602804 
L 258.349983 141.548689 
L 258.553063 141.295469 
L 258.566363 141.304261 
L 258.683506 141.238697 
L 258.996567 140.756084 
L 259.025213 140.791741 
L 259.19709 140.999347 
L 259.22369 140.971232 
L 259.35004 140.995228 
L 259.433421 141.105911 
L 259.515267 141.232437 
L 259.564887 141.146582 
L 259.735229 141.040043 
L 259.739321 141.042835 
L 259.967979 141.063694 
L 260.242164 140.743799 
L 261.087737 139.160676 
L 261.104618 139.176983 
L 261.211529 139.129679 
L 261.412564 138.984969 
L 261.622295 138.559918 
L 261.856579 138.225688 
L 261.978325 138.142737 
L 262.164014 137.983238 
L 262.174245 137.99501 
L 262.279622 137.996489 
L 262.301106 137.971391 
L 262.370675 137.865755 
L 262.46531 137.941543 
L 262.649464 138.070893 
L 263.618829 139.869148 
L 263.828049 139.740005 
L 264.244441 139.424409 
L 264.358514 139.35895 
L 264.458776 139.368283 
L 264.474122 139.397337 
L 264.788207 139.77777 
L 264.996914 139.72935 
L 265.290537 139.501064 
L 265.463949 139.492545 
L 265.695676 139.78542 
L 265.918707 140.031661 
L 266.557107 140.278897 
L 266.823107 140.160686 
L 267.281957 140.532499 
L 267.382218 140.639412 
L 267.425699 140.602502 
L 267.64208 140.524303 
L 268.67948 140.729821 
L 268.743934 140.597501 
L 268.826292 140.679046 
L 269.002773 140.943072 
L 269.072853 140.869734 
L 269.183346 140.911915 
L 269.491803 141.073564 
L 269.737853 141.169537 
L 269.936842 141.178754 
L 270.338911 141.042116 
L 270.500557 141.057614 
L 270.874492 140.798904 
L 270.924623 140.895065 
L 271.017211 140.909494 
L 271.042788 140.877096 
L 271.7216 140.269933 
L 271.733877 140.286076 
L 272.096558 140.634002 
L 272.544665 140.915945 
L 272.595819 140.955681 
L 272.662319 140.901487 
L 273.020396 140.629113 
L 273.149815 140.497354 
L 273.916612 139.642603 
L 274.018919 139.589921 
L 274.024546 139.576715 
L 274.232231 139.301452 
L 274.25525 139.319906 
L 274.384158 139.365903 
L 274.392854 139.357317 
L 274.531481 139.380003 
L 274.639416 139.306837 
L 275.543304 138.875922 
L 275.820047 138.920686 
L 275.982204 138.67675 
L 276.116739 138.61101 
L 276.124412 138.620523 
L 276.185797 138.622678 
L 276.229789 138.575201 
L 276.720354 138.197673 
L 276.847727 137.916553 
L 276.894789 137.929929 
L 277.11782 137.845699 
L 277.512728 137.518631 
L 277.593039 137.435272 
L 278.694893 136.644952 
L 279.153232 136.825551 
L 279.468339 136.861718 
L 279.583947 137.002678 
L 279.665282 137.271959 
L 279.775263 137.377166 
L 279.801351 137.365895 
L 279.959928 137.415748 
L 279.962486 137.420298 
L 280.020801 137.342887 
L 280.051493 137.351883 
L 280.068374 137.375525 
L 280.13027 137.273682 
L 280.22644 137.141549 
L 280.492951 137.056276 
L 280.820847 136.822341 
L 281.163578 136.44726 
L 281.249005 136.535868 
L 281.409628 136.620877 
L 281.45669 136.509494 
L 281.68637 136.209924 
L 281.697113 136.217999 
L 281.81579 136.168608 
L 282.063374 135.846744 
L 282.15494 135.827131 
L 282.186655 135.872371 
L 282.307378 135.842988 
L 282.318121 135.826583 
L 282.359044 135.774382 
L 282.426567 135.864428 
L 282.738605 136.115476 
L 282.784132 136.158532 
L 282.847563 136.067494 
L 282.964705 136.089084 
L 282.973913 136.105232 
L 283.168298 136.230534 
L 283.175459 136.224232 
L 283.461409 136.034091 
L 283.496194 136.097316 
L 283.621521 136.169551 
L 283.640959 136.152021 
L 283.792375 136.177269 
L 284.195467 136.052253 
L 284.42259 135.715558 
L 284.930036 134.961733 
L 285.025183 135.081109 
L 285.173529 135.148521 
L 285.277883 135.251714 
L 285.516259 135.434834 
L 285.806813 135.576841 
L 285.816533 135.565125 
L 285.997617 135.523042 
L 286.575144 135.799209 
L 287.257025 136.330853 
L 287.494379 136.331538 
L 287.602825 136.399531 
L 287.634541 136.346469 
L 287.907191 135.938125 
L 288.210021 135.781187 
L 288.235598 135.823913 
L 288.470906 136.04503 
L 288.582933 136.135051 
L 289.416741 136.862942 
L 289.753845 136.903324 
L 289.850526 136.931132 
L 289.883264 136.896253 
L 289.902702 136.892214 
L 289.953856 136.981692 
L 290.11141 137.091724 
L 290.179445 137.090891 
L 290.210137 137.017692 
L 290.352345 136.746188 
L 290.391222 136.820348 
L 290.539568 136.860891 
L 290.648014 136.951996 
L 290.918618 137.398913 
L 291.219403 137.84558 
L 291.249072 137.824958 
L 291.396906 137.881089 
L 291.478753 137.930713 
L 291.521722 137.873402 
L 291.664953 137.877596 
L 291.907933 138.088511 
L 292.462441 138.867507 
L 292.636876 139.275245 
L 292.91413 139.837232 
L 293.241003 139.933007 
L 293.466591 140.156892 
L 293.584757 140.22989 
L 294.337742 140.872461 
L 294.653361 140.990773 
L 294.874345 141.059279 
L 295.101469 141.103554 
L 295.244188 141.137095 
L 295.867753 141.371026 
L 295.888215 141.322542 
L 296.12608 141.058141 
L 297.3195 140.11565 
L 297.66223 140.228429 
L 298.324161 140.723013 
L 298.622388 140.712052 
L 298.708838 140.729902 
L 298.732369 140.668423 
L 298.86895 140.623853 
L 300.711512 140.504293 
L 300.991323 140.26743 
L 301.173431 140.334806 
L 301.546343 140.331776 
L 301.829223 140.151794 
L 302.427723 140.264675 
L 302.863043 139.716308 
L 302.870716 139.723581 
L 303.01855 139.862846 
L 303.067147 139.780024 
L 303.373047 139.705231 
L 304.024747 139.924993 
L 304.326043 139.901649 
L 304.421701 139.981053 
L 304.479505 139.882422 
L 304.682074 139.681987 
L 304.745505 139.82923 
L 304.911243 139.953559 
L 304.921985 139.946259 
L 304.999228 140.004671 
L 305.00997 140.021561 
L 305.695432 140.900773 
L 305.955805 140.988573 
L 306.151724 140.731631 
L 306.33332 140.623161 
L 306.345597 140.639366 
L 306.464274 140.613547 
L 306.704186 140.618058 
L 306.839743 140.728925 
L 307.01469 140.839975 
L 307.282224 141.225463 
L 307.295524 141.23758 
L 307.362536 141.129367 
L 307.40397 141.043437 
L 307.486328 141.124301 
L 307.639278 141.147218 
L 307.898117 141.281244 
L 308.144678 141.557491 
L 308.547259 141.809808 
L 308.871574 141.97633 
L 308.884363 141.940774 
L 309.002017 141.756307 
L 309.055728 141.776773 
L 309.114555 141.917104 
L 309.38874 142.380155 
L 309.716636 142.405643 
L 309.894651 142.297696 
L 310.052717 142.11724 
L 310.227663 142.039172 
L 310.33304 141.933537 
L 310.423071 141.680893 
L 310.592902 141.480535 
L 310.603132 141.486813 
L 310.703905 141.419449 
L 312.788425 139.483534 
L 312.82986 139.560814 
L 312.994063 139.652427 
L 313.197656 139.538294 
L 313.466214 139.201508 
L 313.556756 139.293306 
L 313.713287 139.355453 
L 313.828383 139.514382 
L 314.124564 139.953894 
L 314.454506 139.914162 
L 314.847368 139.591461 
L 314.860156 139.606976 
L 315.026406 139.666276 
L 315.23716 139.603821 
L 315.367091 139.629604 
L 315.599329 139.698981 
L 315.998329 139.589347 
L 316.200899 139.49907 
L 316.412164 139.636212 
L 316.424952 139.624747 
L 316.482756 139.657424 
L 316.455133 139.661248 
L 316.508333 139.697868 
L 316.740572 139.866341 
L 316.834183 140.016608 
L 316.941095 140.15831 
L 316.998387 140.122265 
L 317.71403 140.202381 
L 317.759556 140.160586 
L 317.82043 140.247535 
L 318.345268 140.788791 
L 318.35601 140.779911 
L 318.517657 140.790086 
L 318.70181 140.846374 
L 319.464514 140.953142 
L 320.192945 140.625513 
L 320.42723 140.730451 
L 320.438484 140.717336 
L 320.646168 140.622318 
L 320.655376 140.631207 
L 320.914215 140.487549 
L 321.046703 140.157028 
L 321.153103 140.006105 
L 321.20528 140.049933 
L 321.37153 139.987616 
L 321.556707 139.950492 
L 321.674872 139.890924 
L 322.037042 139.688362 
L 322.343965 139.714347 
L 322.64168 139.922164 
L 322.776215 139.902769 
L 323.207442 140.09587 
L 323.471396 140.343999 
L 323.557334 140.205678 
L 323.849934 139.859954 
L 324.059154 139.74298 
L 324.202896 139.767049 
L 324.829019 140.292362 
L 324.887334 140.207502 
L 324.934396 140.164058 
L 324.996292 140.24056 
L 325.217277 140.29026 
L 325.471511 140.194279 
L 326.019881 140.31932 
L 326.250585 140.430817 
L 326.567227 140.628482 
L 327.243481 140.83418 
L 327.641969 140.390317 
L 327.823054 140.292447 
L 328.211823 140.01713 
L 328.520793 139.833059 
L 328.690623 139.728496 
L 328.707504 139.747764 
L 328.846643 139.734465 
L 329.000104 139.577754 
L 329.192443 139.444236 
L 329.975097 139.082858 
L 330.350054 139.303165 
L 330.480497 139.386031 
L 330.872847 139.599176 
L 331.144985 139.774602 
L 331.693355 139.927679 
L 332.123047 139.757683 
L 332.272928 139.681248 
L 332.373701 139.470674 
L 332.447874 139.521319 
L 332.842782 139.736446 
L 333.044328 139.757015 
L 333.268382 139.905203 
L 333.540009 139.994039 
L 333.549728 139.997889 
L 333.62032 139.910629 
L 333.908316 139.653146 
L 333.924686 139.668633 
L 334.394278 140.036174 
L 334.652094 139.982782 
L 334.81374 139.941711 
L 334.93037 139.879066 
L 335.071044 139.905638 
L 335.262359 139.973715 
L 335.413774 139.84423 
L 335.648571 139.723914 
L 335.842955 139.776883 
L 336.359609 139.748225 
L 337.107478 139.281234 
L 338.321871 139.241987 
L 338.513698 139.243684 
L 338.673809 139.228862 
L 338.834944 139.230841 
L 339.782313 140.004728 
L 340.056498 140.350417 
L 340.855521 140.641593 
L 341.068321 140.630809 
L 341.308233 140.633882 
L 341.548144 140.608171 
L 341.740483 140.595411 
L 342.884795 141.256641 
L 342.88991 141.249017 
L 342.908837 141.238364 
L 342.984545 141.306352 
L 343.786637 142.130318 
L 343.951353 142.352511 
L 344.414295 143.028838 
L 344.88133 143.278712 
L 345.07111 143.414038 
L 345.32381 143.473245 
L 345.860926 142.923045 
L 346.371953 141.922881 
L 346.492676 141.835375 
L 346.674272 141.728457 
L 346.901395 141.587731 
L 347.406795 141.086763 
L 347.58788 141.01327 
L 348.318357 140.622918 
L 349.339899 140.572825 
L 349.541957 140.374693 
L 349.580323 140.406075 
L 349.859623 140.48998 
L 349.973696 140.571564 
L 350.141992 140.734111 
L 350.405946 140.982417 
L 350.498534 141.074964 
L 350.875027 141.389435 
L 351.4014 141.52938 
L 352.342631 142.193209 
L 352.575381 142.301288 
L 352.856727 142.174249 
L 353.196388 142.108033 
L 353.541165 142.131387 
L 355.205712 140.91013 
L 356.514227 140.856424 
L 356.694289 140.91069 
L 356.887139 140.8847 
L 357.028324 140.930596 
L 357.251354 140.849714 
L 357.452901 140.762847 
L 357.631428 140.720597 
L 358.016616 140.551986 
L 358.109205 140.500758 
L 358.114832 140.495603 
L 358.625347 140.023041 
L 358.698497 140.102161 
L 359.07192 140.337025 
L 359.862247 140.260937 
L 359.972228 140.191191 
L 360.273524 139.910069 
L 360.766647 139.66188 
L 360.999397 139.725204 
L 361.180482 139.554194 
L 361.370263 139.372632 
L 361.792794 139.088247 
L 361.969274 138.935437 
L 362.223509 138.542434 
L 362.374924 138.440138 
L 363.017417 138.576392 
L 363.371401 138.899703 
L 363.392375 138.878416 
L 363.648144 138.776138 
L 363.973482 138.908053 
L 364.203163 138.99094 
L 364.730559 139.307717 
L 364.938244 139.460981 
L 365.010882 139.551494 
L 365.17969 139.66009 
L 365.646725 139.940918 
L 366.195606 139.468059 
L 366.44626 139.224938 
L 367.970644 138.768714 
L 368.298541 138.934269 
L 368.539475 138.969436 
L 368.805475 139.109809 
L 369.013672 139.253257 
L 369.446433 139.533548 
L 369.471499 139.504451 
L 369.621379 139.428179 
L 369.650537 139.468614 
L 369.862314 139.631896 
L 370.390222 139.737161 
L 370.606091 139.925545 
L 371.805649 140.744324 
L 372.290076 140.665108 
L 372.509526 140.537909 
L 372.621041 140.606291 
L 372.755064 140.658236 
L 372.776037 140.632991 
L 372.783199 140.625609 
L 372.853791 140.713191 
L 372.984234 140.846284 
L 373.042037 140.77799 
L 373.235911 140.764448 
L 373.768422 140.78863 
L 373.89068 140.84939 
L 373.934672 140.850192 
L 373.974061 140.777678 
L 374.089668 140.788696 
L 374.583815 140.904817 
L 374.854419 141.103273 
L 375.198172 141.344585 
L 375.449849 141.247307 
L 375.626842 141.086233 
L 375.698969 140.9553 
L 375.771096 141.017443 
L 376.424842 141.395587 
L 376.560911 141.421985 
L 376.895969 141.574399 
L 377.346634 141.874809 
L 377.547669 142.029322 
L 377.550738 142.027404 
L 377.676577 142.078721 
L 377.899607 142.221664 
L 378.492481 142.198194 
L 378.654638 142.099022 
L 378.694027 142.135603 
L 378.85465 142.117799 
L 379.024481 142.151319 
L 379.185615 142.17334 
L 379.444965 142.203242 
L 379.646512 142.167737 
L 379.9652 142.012482 
L 380.148842 141.900108 
L 380.288492 141.769947 
L 380.353969 141.823274 
L 380.625596 141.828839 
L 380.942239 141.722326 
L 381.975546 141.845441 
L 383.57922 142.849548 
L 383.722962 142.864834 
L 384.719951 143.205116 
L 384.946051 143.225467 
L 385.714893 143.147936 
L 385.995728 142.836275 
L 386.375289 142.557109 
L 386.515963 142.506464 
L 386.794239 142.305264 
L 387.29657 142.084702 
L 387.551317 142.007525 
L 387.77844 142.00813 
L 388.018351 141.993924 
L 388.252124 141.962159 
L 388.770824 142.183545 
L 388.784124 142.157385 
L 388.886944 142.104407 
L 388.921728 142.130076 
L 389.216374 142.08464 
L 389.412805 141.997069 
L 389.755536 141.828718 
L 389.948898 141.784054 
L 390.143282 141.68602 
L 390.596505 141.333257 
L 390.615432 141.352952 
L 391.003179 141.600546 
L 391.233371 141.567466 
L 391.334144 141.520975 
L 391.374556 141.550287 
L 391.536202 141.569982 
L 391.54234 141.561697 
L 392.107079 141.367453 
L 392.722971 140.989569 
L 392.984367 141.048425 
L 393.50409 140.556139 
L 393.586448 140.475829 
L 393.645787 140.520294 
L 393.757302 140.485822 
L 394.073944 140.280544 
L 394.370125 139.903282 
L 394.390075 139.925785 
L 394.538421 139.921651 
L 394.823348 139.875837 
L 395.198306 140.225622 
L 395.547687 140.184004 
L 395.661248 140.240242 
L 395.897579 140.318861 
L 396.193249 140.398248 
L 396.354895 140.412708 
L 396.664376 140.630788 
L 397.614303 141.231449 
L 398.17853 140.789904 
L 398.572414 140.54721 
L 398.870641 140.366713 
L 399.103903 140.251996 
L 399.543314 140.203806 
L 399.855353 140.087715 
L 401.098903 140.686724 
L 401.427822 140.837682 
L 401.600722 140.760563 
L 401.623742 140.792891 
L 401.840634 140.935149 
L 402.366496 141.036262 
L 402.585434 141.200272 
L 404.014161 141.951233 
L 404.395257 141.763031 
L 404.566111 141.779222 
L 404.730827 141.839525 
L 404.751288 141.81597 
L 404.754357 141.813858 
L 404.828019 141.895806 
L 404.967157 142.002496 
L 405.015754 141.947709 
L 405.218323 141.939537 
L 405.753392 141.949724 
L 405.869511 142.018154 
L 405.911969 142.00337 
L 405.951358 141.941306 
L 406.306365 141.972728 
L 406.524792 142.048348 
L 406.824554 142.233604 
L 407.178027 142.45151 
L 407.369342 142.398985 
L 407.855304 142.190214 
L 408.097262 142.335138 
L 408.356612 142.516457 
L 408.760727 142.651602 
L 410.170016 143.235642 
L 410.288693 143.27813 
L 411.083624 143.200343 
L 411.542985 143.228313 
L 411.658593 143.120807 
L 411.811543 143.07398 
L 412.001324 143.030867 
L 412.406974 142.937591 
L 412.441247 142.959146 
L 412.510305 142.887354 
L 412.802393 142.804155 
L 412.998824 142.738824 
L 413.185024 142.697642 
L 413.63927 142.83004 
L 413.865882 142.830182 
L 414.12114 142.989144 
L 414.592267 143.400271 
L 415.340136 143.711178 
L 415.552936 143.774001 
L 415.70384 143.791792 
L 417.16684 144.279605 
L 417.976094 144.583106 
L 418.840083 144.411484 
L 419.027306 144.460871 
L 419.201229 144.66023 
L 420.07596 145.129703 
L 420.47854 144.979783 
L 420.70771 144.952217 
L 420.845314 144.950467 
L 421.156841 145.175318 
L 421.539471 145.548031 
L 421.774779 145.806205 
L 422.17071 146.077453 
L 422.395275 146.246984 
L 422.624956 146.308612 
L 422.912441 146.279879 
L 423.039302 146.222635 
L 423.221922 146.086514 
L 423.236756 146.098713 
L 423.42091 146.210836 
L 423.738064 146.213652 
L 423.945237 146.257298 
L 424.663437 146.733046 
L 425.903918 147.144694 
L 426.728518 146.819956 
L 427.076876 147.075574 
L 427.594042 146.978624 
L 427.850322 146.907762 
L 428.937342 146.921823 
L 429.150653 146.907159 
L 429.345549 146.862115 
L 429.517426 146.84364 
L 429.846346 146.790421 
L 430.088303 146.645266 
L 430.414665 146.605962 
L 430.640253 146.6101 
L 430.796784 146.597016 
L 430.801388 146.602184 
L 431.224942 146.913983 
L 431.608084 146.990462 
L 431.879711 147.090014 
L 432.769788 147.401357 
L 433.147304 147.322093 
L 433.317646 147.340416 
L 433.528912 147.260371 
L 433.756546 147.239736 
L 434.937689 147.267596 
L 435.6697 147.963636 
L 435.841577 148.041618 
L 436.143385 148.160719 
L 436.371531 148.318722 
L 436.648274 148.443696 
L 436.881535 148.485604 
L 437.695905 149.042074 
L 437.881593 149.098013 
L 438.368578 149.021734 
L 438.493393 149.011344 
L 438.958893 149.207758 
L 439.193689 149.175227 
L 439.992713 149.082755 
L 440.150266 149.081993 
L 440.659247 148.998835 
L 441.392794 148.929781 
L 441.568763 148.859447 
L 441.731432 148.922387 
L 442.065978 148.744719 
L 442.254736 148.689429 
L 442.887509 148.778354 
L 442.977028 148.829457 
L 442.984701 148.837976 
L 443.202105 148.989263 
L 444.214952 149.858486 
L 444.398082 149.947522 
L 444.572517 150.046835 
L 444.772017 150.140479 
L 444.798106 150.11189 
L 445.010906 150.047533 
L 445.875917 150.401117 
L 446.087694 150.462287 
L 446.763437 150.345143 
L 447.03711 150.344115 
L 447.760425 150.228537 
L 448.197791 150.255634 
L 448.329256 150.251694 
L 448.334371 150.257946 
L 448.698587 150.522089 
L 449.360006 150.530073 
L 449.507841 150.482466 
L 449.787652 150.439584 
L 450.028587 150.365011 
L 450.270545 150.327846 
L 450.510456 150.285965 
L 450.863418 149.824303 
L 451.127372 149.821033 
L 451.426622 149.854899 
L 451.680857 149.739995 
L 452.225134 149.577037 
L 452.336137 149.667942 
L 452.552007 149.875763 
L 452.902411 149.867683 
L 453.139764 150.094418 
L 453.318291 150.083386 
L 453.562807 149.892721 
L 453.768957 149.846002 
L 454.007334 149.870618 
L 454.30863 149.773155 
L 454.509665 149.71592 
L 455.080542 149.622237 
L 455.330684 149.563619 
L 455.468799 149.458969 
L 455.654999 149.337987 
L 455.850407 149.381929 
L 456.008984 149.346792 
L 456.289819 149.244345 
L 456.444815 149.279205 
L 456.964027 149.353892 
L 457.10828 149.392204 
L 457.283227 149.381044 
L 458.363084 149.432902 
L 458.563096 149.324089 
L 459.134996 149.373243 
L 459.288458 149.381576 
L 459.669554 149.459392 
L 459.769815 149.390148 
L 459.944762 149.463074 
L 460.17035 149.569316 
L 460.4031 149.638777 
L 460.550935 149.619224 
L 461.296246 149.314505 
L 461.490631 149.3945 
L 461.671716 149.451201 
L 464.368547 150.458085 
L 465.145574 150.440016 
L 465.314893 150.481654 
L 465.598797 150.554765 
L 466.039232 150.488776 
L 466.618293 150.121213 
L 466.767151 150.120291 
L 467.710428 150.089402 
L 467.90072 150.111705 
L 468.204063 150.190279 
L 468.463924 150.256065 
L 468.62864 150.391884 
L 468.830697 150.450955 
L 469.050659 150.398871 
L 469.291082 150.224794 
L 469.30694 150.236567 
L 469.392367 150.191414 
L 469.404132 150.170994 
L 469.649671 149.949607 
L 470.268632 150.024095 
L 470.441021 150.015707 
L 470.904986 150.09603 
L 471.246182 150.379822 
L 472.231917 150.118444 
L 472.439602 150.095974 
L 472.795121 150.054011 
L 473.298987 149.819685 
L 473.826383 149.769547 
L 474.033044 149.676278 
L 474.774264 149.658439 
L 475.382483 149.517815 
L 475.721122 149.663961 
L 475.989168 149.72797 
L 476.093522 149.76137 
L 476.105799 149.781353 
L 476.316041 149.911287 
L 476.909937 149.873441 
L 477.321214 149.635957 
L 478.025091 149.631692 
L 478.465014 149.68462 
L 478.724876 149.691798 
L 478.956091 149.781359 
L 479.11518 149.796233 
L 479.339234 149.721535 
L 479.790922 149.554114 
L 480.589945 149.653128 
L 481.031403 149.70844 
L 481.286661 149.841677 
L 482.143488 150.227529 
L 482.42688 150.132656 
L 482.650423 150.035115 
L 482.844296 150.029939 
L 483.17833 149.970356 
L 483.321561 149.910292 
L 483.728746 149.441766 
L 483.97275 149.299591 
L 484.56153 149.114398 
L 485.343161 148.719792 
L 485.656223 148.85786 
L 486.083869 148.733116 
L 486.274673 148.819572 
L 486.515096 148.953088 
L 486.861408 149.004738 
L 487.042492 149.083485 
L 487.191862 149.093793 
L 487.792919 149.483177 
L 487.957635 149.492559 
L 488.134116 149.427145 
L 488.369423 149.328596 
L 488.611381 149.311206 
L 490.00737 149.111701 
L 490.237051 148.9693 
L 490.729151 148.864645 
L 491.380851 148.976041 
L 493.008055 149.254874 
L 494.827086 149.236562 
L 495.90234 148.856055 
L 496.641001 148.880834 
L 496.807251 148.889818 
L 496.949971 148.847128 
L 497.533636 148.822798 
L 497.731602 148.792302 
L 497.89069 148.85877 
L 498.112698 148.949111 
L 498.617075 148.906022 
L 500.295433 148.867108 
L 500.60031 148.675644 
L 500.727683 148.701558 
L 501.017725 148.849277 
L 501.339994 148.93296 
L 501.627479 148.932913 
L 501.77736 148.978379 
L 502.215748 149.064285 
L 502.403995 149.10223 
L 503.548818 149.603817 
L 504.200006 149.614945 
L 504.681364 149.789764 
L 505.176022 149.834457 
L 505.468622 149.892439 
L 505.81033 149.825338 
L 508.242695 150.381895 
L 509.119984 150.197693 
L 509.376265 150.160479 
L 509.677561 150.468007 
L 510.040753 150.738573 
L 510.83108 150.766407 
L 511.123169 150.692217 
L 512.274131 150.574203 
L 513.278281 150.039404 
L 513.776519 149.964775 
L 514.636927 149.42355 
L 514.821081 149.406514 
L 515.147443 149.353977 
L 515.290162 149.302154 
L 516.071281 148.710839 
L 516.264131 148.656772 
L 516.535758 148.564053 
L 517.323016 148.209705 
L 517.628916 148.329385 
L 518.070374 148.218297 
L 519.796816 148.942029 
L 519.931863 148.920843 
L 520.112947 148.85174 
L 520.345697 148.766121 
L 520.59942 148.752159 
L 521.955509 148.594715 
L 522.374971 148.371815 
L 522.604651 148.355163 
L 522.798013 148.351872 
L 524.136198 148.552544 
L 524.535709 148.707239 
L 525.911236 148.779842 
L 527.028437 148.626933 
L 527.576806 148.306246 
L 528.673545 148.334762 
L 528.945172 148.332848 
L 529.947787 148.379353 
L 530.16161 148.425715 
L 530.418402 148.336435 
L 532.227203 148.378594 
L 532.772503 148.221043 
L 533.244141 148.38487 
L 533.408857 148.473986 
L 533.540322 148.448677 
L 533.728568 148.454313 
L 534.224761 148.533328 
L 534.366968 148.572679 
L 535.483657 149.041505 
L 535.938415 148.954742 
L 536.30928 149.118936 
L 537.466892 149.29965 
L 537.797857 149.256083 
L 540.656846 149.789825 
L 541.043569 149.629253 
L 541.247673 149.561778 
L 541.45945 149.671938 
L 541.968943 150.088339 
L 542.420631 150.186329 
L 543.227327 150.093097 
L 543.572616 150.124451 
L 544.703628 149.62278 
L 545.079097 149.478026 
L 545.403924 149.506249 
L 545.571709 149.476811 
L 546.480712 148.967939 
L 546.720113 149.041296 
L 547.005551 149.086583 
L 547.260809 149.125592 
L 547.547782 148.98953 
L 547.716078 148.954864 
L 548.516636 149.086469 
L 549.430244 148.917131 
L 549.591378 148.907453 
L 549.787809 148.917062 
L 550.226709 149.062731 
L 550.951559 148.946422 
L 551.215513 148.990795 
L 551.727052 148.931623 
L 552.058529 149.025757 
L 552.723017 149.093534 
L 552.945025 149.091608 
L 553.171125 149.145388 
L 553.340444 149.216208 
L 553.783948 149.30251 
L 555.418825 149.278952 
L 555.59326 149.293487 
L 556.450599 149.522373 
L 556.680279 149.46861 
L 557.103833 149.317364 
L 557.296683 149.238971 
L 558.018976 149.148028 
L 558.479872 149.083829 
L 559.53313 149.569986 
L 559.775599 149.606841 
L 559.955149 149.624792 
L 560.383818 149.755326 
L 560.626799 149.86416 
L 560.817603 149.891872 
L 561.022218 149.87733 
L 561.602303 149.613205 
L 561.86728 149.623658 
L 562.186992 149.543777 
L 562.330734 149.495408 
L 562.501588 149.478699 
L 563.757927 149.444844 
L 563.934407 149.318023 
L 564.145161 149.293925 
L 565.648573 149.491436 
L 569.105039 149.632492 
L 569.253385 149.6548 
L 569.578724 149.645575 
L 570.535812 149.55787 
L 571.915943 150.250982 
L 572.161482 150.237418 
L 572.590151 150.183475 
L 573.20502 149.962373 
L 574.056732 150.071463 
L 574.745263 150.079709 
L 574.975455 150.148779 
L 575.278797 150.320037 
L 575.450674 150.380788 
L 575.889574 150.563534 
L 576.177059 150.596022 
L 576.559178 150.774323 
L 576.936694 150.70453 
L 578.329102 151.299397 
L 578.564409 151.205271 
L 578.914302 151.204078 
L 579.623294 151.332802 
L 580.889864 151.245963 
L 581.120567 151.226092 
L 581.798356 151.119629 
L 581.94926 151.118752 
L 582.207075 151.158762 
L 582.708383 150.957729 
L 583.776987 150.811038 
L 584.070099 150.895449 
L 584.614376 150.894677 
L 585.158653 150.744349 
L 585.521845 150.527 
L 587.297907 150.843513 
L 588.195145 150.73414 
L 588.866796 150.308846 
L 589.055042 150.175773 
L 589.282165 150.043338 
L 589.919542 150.200394 
L 590.062773 150.194613 
L 590.503719 149.972533 
L 593.623081 151.060866 
L 593.813885 151.12153 
L 594.664573 151.297052 
L 595.684581 150.934169 
L 596.048285 150.988512 
L 596.641158 151.171009 
L 598.535385 151.577327 
L 598.808035 151.592704 
L 599.492986 151.82523 
L 600.381528 151.899775 
L 600.877209 151.884461 
L 601.806674 152.226402 
L 603.312644 152.734209 
L 603.492194 152.733641 
L 603.927002 152.926557 
L 605.942975 153.666016 
L 606.762971 153.28814 
L 607.435133 152.873113 
L 608.53136 152.474714 
L 608.712956 152.423687 
L 609.430645 152.210364 
L 609.803556 152.095291 
L 609.955995 151.972956 
L 610.352949 151.92788 
L 610.574445 151.92575 
L 611.079333 151.967094 
L 611.36733 151.899281 
L 611.36733 151.899281 
" clip-path="url(#p48fe2e975f)" style="fill: none; stroke: #1f2937; stroke-linecap: square"/>
   </g>
   <g id="line2d_30">
    <path d="M 68.88125 151.899281 
L 637.2 151.899281 
" clip-path="url(#p48fe2e975f)" style="fill: none; stroke-dasharray: 2.96,1.28; stroke-dashoffset: 0; stroke: #888888; stroke-width: 0.8"/>
   </g>
   <g id="patch_3">
    <path d="M 68.88125 282.04 
L 68.88125 26.88 
" style="fill: none; stroke: #000000; stroke-width: 0.8; stroke-linejoin: miter; stroke-linecap: square"/>
   </g>
   <g id="patch_4">
    <path d="M 637.2 282.04 
L 637.2 26.88 
" style="fill: none; stroke: #000000; stroke-width: 0.8; stroke-linejoin: miter; stroke-linecap: square"/>
   </g>
   <g id="patch_5">
    <path d="M 68.88125 282.04 
L 637.2 282.04 
" style="fill: none; stroke: #000000; stroke-width: 0.8; stroke-linejoin: miter; stroke-linecap: square"/>
   </g>
   <g id="patch_6">
    <path d="M 68.88125 26.88 
L 637.2 26.88 
" style="fill: none; stroke: #000000; stroke-width: 0.8; stroke-linejoin: miter; stroke-linecap: square"/>
   </g>
   <g id="text_18">
    <!-- Running mean — mean_median  (100k ReCom samples, seed 42) -->
    <g transform="translate(156.065312 20.88) scale(0.12 -0.12)">
     <defs>
      <path id="DejaVuSans-2014" d="M 313 1978 
L 6088 1978 
L 6088 1528 
L 313 1528 
L 313 1978 
z
" transform="scale(0.015625)"/>
      <path id="DejaVuSans-28" d="M 1984 4856 
Q 1566 4138 1362 3434 
Q 1159 2731 1159 2009 
Q 1159 1288 1364 580 
Q 1569 -128 1984 -844 
L 1484 -844 
Q 1016 -109 783 600 
Q 550 1309 550 2009 
Q 550 2706 781 3412 
Q 1013 4119 1484 4856 
L 1984 4856 
z
" transform="scale(0.015625)"/>
      <path id="DejaVuSans-6b" d="M 581 4863 
L 1159 4863 
L 1159 1991 
L 2875 3500 
L 3609 3500 
L 1753 1863 
L 3688 0 
L 2938 0 
L 1159 1709 
L 1159 0 
L 581 0 
L 581 4863 
z
" transform="scale(0.015625)"/>
      <path id="DejaVuSans-43" d="M 4122 4306 
L 4122 3641 
Q 3803 3938 3442 4084 
Q 3081 4231 2675 4231 
Q 1875 4231 1450 3742 
Q 1025 3253 1025 2328 
Q 1025 1406 1450 917 
Q 1875 428 2675 428 
Q 3081 428 3442 575 
Q 3803 722 4122 1019 
L 4122 359 
Q 3791 134 3420 21 
Q 3050 -91 2638 -91 
Q 1578 -91 968 557 
Q 359 1206 359 2328 
Q 359 3453 968 4101 
Q 1578 4750 2638 4750 
Q 3056 4750 3426 4639 
Q 3797 4528 4122 4306 
z
" transform="scale(0.015625)"/>
      <path id="DejaVuSans-73" d="M 2834 3397 
L 2834 2853 
Q 2591 2978 2328 3040 
Q 2066 3103 1784 3103 
Q 1356 3103 1142 2972 
Q 928 2841 928 2578 
Q 928 2378 1081 2264 
Q 1234 2150 1697 2047 
L 1894 2003 
Q 2506 1872 2764 1633 
Q 3022 1394 3022 966 
Q 3022 478 2636 193 
Q 2250 -91 1575 -91 
Q 1294 -91 989 -36 
Q 684 19 347 128 
L 347 722 
Q 666 556 975 473 
Q 1284 391 1588 391 
Q 1994 391 2212 530 
Q 2431 669 2431 922 
Q 2431 1156 2273 1281 
Q 2116 1406 1581 1522 
L 1381 1569 
Q 847 1681 609 1914 
Q 372 2147 372 2553 
Q 372 3047 722 3315 
Q 1072 3584 1716 3584 
Q 2034 3584 2315 3537 
Q 2597 3491 2834 3397 
z
" transform="scale(0.015625)"/>
      <path id="DejaVuSans-2c" d="M 750 794 
L 1409 794 
L 1409 256 
L 897 -744 
L 494 -744 
L 750 256 
L 750 794 
z
" transform="scale(0.015625)"/>
      <path id="DejaVuSans-29" d="M 513 4856 
L 1013 4856 
Q 1481 4119 1714 3412 
Q 1947 2706 1947 2009 
Q 1947 1309 1714 600 
Q 1481 -109 1013 -844 
L 513 -844 
Q 928 -128 1133 580 
Q 1338 1288 1338 2009 
Q 1338 2731 1133 3434 
Q 928 4138 513 4856 
z
" transform="scale(0.015625)"/>
     </defs>
     <use xlink:href="#DejaVuSans-52"/>
     <use xlink:href="#DejaVuSans-75" transform="translate(64.982422 0)"/>
     <use xlink:href="#DejaVuSans-6e" transform="translate(128.361328 0)"/>
     <use xlink:href="#DejaVuSans-6e" transform="translate(191.740234 0)"/>
     <use xlink:href="#DejaVuSans-69" transform="translate(255.119141 0)"/>
     <use xlink:href="#DejaVuSans-6e" transform="translate(282.902344 0)"/>
     <use xlink:href="#DejaVuSans-67" transform="translate(346.28125 0)"/>
     <use xlink:href="#DejaVuSans-20" transform="translate(409.757812 0)"/>
     <use xlink:href="#DejaVuSans-6d" transform="translate(441.544922 0)"/>
     <use xlink:href="#DejaVuSans-65" transform="translate(538.957031 0)"/>
     <use xlink:href="#DejaVuSans-61" transform="translate(600.480469 0)"/>
     <use xlink:href="#DejaVuSans-6e" transform="translate(661.759766 0)"/>
     <use xlink:href="#DejaVuSans-20" transform="translate(725.138672 0)"/>
     <use xlink:href="#DejaVuSans-2014" transform="translate(756.925781 0)"/>
     <use xlink:href="#DejaVuSans-20" transform="translate(856.925781 0)"/>
     <use xlink:href="#DejaVuSans-6d" transform="translate(888.712891 0)"/>
     <use xlink:href="#DejaVuSans-65" transform="translate(986.125 0)"/>
     <use xlink:href="#DejaVuSans-61" transform="translate(1047.648438 0)"/>
     <use xlink:href="#DejaVuSans-6e" transform="translate(1108.927734 0)"/>
     <use xlink:href="#DejaVuSans-5f" transform="translate(1172.306641 0)"/>
     <use xlink:href="#DejaVuSans-6d" transform="translate(1222.306641 0)"/>
     <use xlink:href="#DejaVuSans-65" transform="translate(1319.71875 0)"/>
     <use xlink:href="#DejaVuSans-64" transform="translate(1381.242188 0)"/>
     <use xlink:href="#DejaVuSans-69" transform="translate(1444.71875 0)"/>
     <use xlink:href="#DejaVuSans-61" transform="translate(1472.501953 0)"/>
     <use xlink:href="#DejaVuSans-6e" transform="translate(1533.78125 0)"/>
     <use xlink:href="#DejaVuSans-20" transform="translate(1597.160156 0)"/>
     <use xlink:href="#DejaVuSans-20" transform="translate(1628.947266 0)"/>
     <use xlink:href="#DejaVuSans-28" transform="translate(1660.734375 0)"/>
     <use xlink:href="#DejaVuSans-31" transform="translate(1699.748047 0)"/>
     <use xlink:href="#DejaVuSans-30" transform="translate(1763.371094 0)"/>
     <use xlink:href="#DejaVuSans-30" transform="translate(1826.994141 0)"/>
     <use xlink:href="#DejaVuSans-6b" transform="translate(1890.617188 0)"/>
     <use xlink:href="#DejaVuSans-20" transform="translate(1948.527344 0)"/>
     <use xlink:href="#DejaVuSans-52" transform="translate(1980.314453 0)"/>
     <use xlink:href="#DejaVuSans-65" transform="translate(2045.296875 0)"/>
     <use xlink:href="#DejaVuSans-43" transform="translate(2106.820312 0)"/>
     <use xlink:href="#DejaVuSans-6f" transform="translate(2176.644531 0)"/>
     <use xlink:href="#DejaVuSans-6d" transform="translate(2237.826172 0)"/>
     <use xlink:href="#DejaVuSans-20" transform="translate(2335.238281 0)"/>
     <use xlink:href="#DejaVuSans-73" transform="translate(2367.025391 0)"/>
     <use xlink:href="#DejaVuSans-61" transform="translate(2419.125 0)"/>
     <use xlink:href="#DejaVuSans-6d" transform="translate(2480.404297 0)"/>
     <use xlink:href="#DejaVuSans-70" transform="translate(2577.816406 0)"/>
     <use xlink:href="#DejaVuSans-6c" transform="translate(2641.292969 0)"/>
     <use xlink:href="#DejaVuSans-65" transform="translate(2669.076172 0)"/>
     <use xlink:href="#DejaVuSans-73" transform="translate(2730.599609 0)"/>
     <use xlink:href="#DejaVuSans-2c" transform="translate(2782.699219 0)"/>
     <use xlink:href="#DejaVuSans-20" transform="translate(2814.486328 0)"/>
     <use xlink:href="#DejaVuSans-73" transform="translate(2846.273438 0)"/>
     <use xlink:href="#DejaVuSans-65" transform="translate(2898.373047 0)"/>
     <use xlink:href="#DejaVuSans-65" transform="translate(2959.896484 0)"/>
     <use xlink:href="#DejaVuSans-64" transform="translate(3021.419922 0)"/>
     <use xlink:href="#DejaVuSans-20" transform="translate(3084.896484 0)"/>
     <use xlink:href="#DejaVuSans-34" transform="translate(3116.683594 0)"/>
     <use xlink:href="#DejaVuSans-32" transform="translate(3180.306641 0)"/>
     <use xlink:href="#DejaVuSans-29" transform="translate(3243.929688 0)"/>
    </g>
   </g>
   <g id="legend_1">
    <g id="patch_7">
     <path d="M 500.601094 47.290312 
L 630.9 47.290312 
Q 632.7 47.290312 632.7 45.490312 
L 632.7 33.18 
Q 632.7 31.38 630.9 31.38 
L 500.601094 31.38 
Q 498.801094 31.38 498.801094 33.18 
L 498.801094 45.490312 
Q 498.801094 47.290312 500.601094 47.290312 
z
" style="fill: #ffffff; opacity: 0.8; stroke: #cccccc; stroke-linejoin: miter"/>
    </g>
    <g id="line2d_31">
     <path d="M 502.401094 38.668594 
L 511.401094 38.668594 
L 520.401094 38.668594 
" style="fill: none; stroke-dasharray: 2.96,1.28; stroke-dashoffset: 0; stroke: #888888; stroke-width: 0.8"/>
    </g>
    <g id="text_19">
     <!-- final mean = -0.01861 -->
     <g transform="translate(527.601094 41.818594) scale(0.09 -0.09)">
      <defs>
       <path id="DejaVuSans-3d" d="M 678 2906 
L 4684 2906 
L 4684 2381 
L 678 2381 
L 678 2906 
z
M 678 1631 
L 4684 1631 
L 4684 1100 
L 678 1100 
L 678 1631 
z
" transform="scale(0.015625)"/>
       <path id="DejaVuSans-2d" d="M 313 2009 
L 1997 2009 
L 1997 1497 
L 313 1497 
L 313 2009 
z
" transform="scale(0.015625)"/>
      </defs>
      <use xlink:href="#DejaVuSans-66"/>
      <use xlink:href="#DejaVuSans-69" transform="translate(35.205078 0)"/>
      <use xlink:href="#DejaVuSans-6e" transform="translate(62.988281 0)"/>
      <use xlink:href="#DejaVuSans-61" transform="translate(126.367188 0)"/>
      <use xlink:href="#DejaVuSans-6c" transform="translate(187.646484 0)"/>
      <use xlink:href="#DejaVuSans-20" transform="translate(215.429688 0)"/>
      <use xlink:href="#DejaVuSans-6d" transform="translate(247.216797 0)"/>
      <use xlink:href="#DejaVuSans-65" transform="translate(344.628906 0)"/>
      <use xlink:href="#DejaVuSans-61" transform="translate(406.152344 0)"/>
      <use xlink:href="#DejaVuSans-6e" transform="translate(467.431641 0)"/>
      <use xlink:href="#DejaVuSans-20" transform="translate(530.810547 0)"/>
      <use xlink:href="#DejaVuSans-3d" transform="translate(562.597656 0)"/>
      <use xlink:href="#DejaVuSans-20" transform="translate(646.386719 0)"/>
      <use xlink:href="#DejaVuSans-2d" transform="translate(678.173828 0)"/>
      <use xlink:href="#DejaVuSans-30" transform="translate(714.257812 0)"/>
      <use xlink:href="#DejaVuSans-2e" transform="translate(777.880859 0)"/>
      <use xlink:href="#DejaVuSans-30" transform="translate(809.667969 0)"/>
      <use xlink:href="#DejaVuSans-31" transform="translate(873.291016 0)"/>
      <use xlink:href="#DejaVuSans-38" transform="translate(936.914062 0)"/>
      <use xlink:href="#DejaVuSans-36" transform="translate(1000.537109 0)"/>
      <use xlink:href="#DejaVuSans-31" transform="translate(1064.160156 0)"/>
     </g>
    </g>
   </g>
  </g>
 </g>
 <defs>
  <clipPath id="p48fe2e975f">
   <rect x="68.88125" y="26.88" width="568.31875" height="255.16"/>
  </clipPath>
 </defs>
</svg>
