<?xml version="1.0" encoding="utf-8" standalone="no"?>
<!DOCTYPE svg PUBLIC "-//W3C//DTD SVG 1.1//EN"
  "http://www.w3.org/Graphics/SVG/1.1/DTD/svg11.dtd">
<svg xmlns:xlink="http://www.w3.org/1999/xlink" width="461.16pt" height="217.0075pt" viewBox="0 0 461.16 217.0075" xmlns="http://www.w3.org/2000/svg" version="1.1">
 <metadata>
  <rdf:RDF xmlns:dc="http://purl.org/dc/elements/1.1/" xmlns:cc="http://creativecommons.org/ns#" xmlns:rdf="http://www.w3.org/1999/02/22-rdf-syntax-ns#">
   <cc:Work>
    <dc:type rdf:resource="http://purl.org/dc/dcmitype/StillImage"/>
    <dc:date>2026-05-19T17:38:15.654183</dc:date>
    <dc:format>image/svg+xml</dc:format>
    <dc:creator>
     <cc:Agent>
      <dc:title>Matplotlib v3.10.8, https://matplotlib.org/</dc:title>
     </cc:Agent>
    </dc:creator>
   </cc:Work>
  </rdf:RDF>
 </metadata>
 <defs>
  <style type="text/css">*{stroke-linejoin: round; stroke-linecap: butt}</style>
 </defs>
 <g id="figure_1">
  <g id="patch_1">
   <path d="M 0 217.0075 
L 461.16 217.0075 
L 461.16 0 
L 0 0 
z
" style="fill: #ffffff"/>
  </g>
  <g id="axes_1">
   <g id="patch_2">
    <path d="M 2.88 189.55875 
L 458.28 189.55875 
L 458.28 2.88 
L 2.88 2.88 
z
" style="fill: #ffffff"/>
   </g>
   <g id="line2d_1">
    <path d="M 154.68 189.55875 
L 154.68 2.88 
" clip-path="url(#p3ed50b9449)" style="fill: none; stroke: #cccccc; stroke-width: 0.5; stroke-linecap: square"/>
   </g>
   <g id="line2d_2">
    <path d="M 279.4596 189.55875 
L 279.4596 2.88 
" clip-path="url(#p3ed50b9449)" style="fill: none; stroke-dasharray: 3.7,1.6; stroke-dashoffset: 0; stroke: #7b2d3e"/>
   </g>
   <g id="line2d_3">
    <path d="M 367.2 189.55875 
L 367.2 2.88 
" clip-path="url(#p3ed50b9449)" style="fill: none; stroke-dasharray: 0.9,1.485; stroke-dashoffset: 0; stroke: #888888; stroke-width: 0.9"/>
   </g>
   <g id="matplotlib.axis_1">
    <g id="xtick_1">
     <g id="line2d_4">
      <defs>
       <path id="m652ce0e3d5" d="M 0 0 
L 0 3 
" style="stroke: #000000; stroke-width: 0.5"/>
      </defs>
      <g>
       <use xlink:href="#m652ce0e3d5" x="33.24" y="189.55875" style="stroke: #000000; stroke-width: 0.5"/>
      </g>
     </g>
     <g id="text_1">
      <!-- -4% -->
      <g transform="translate(26.214375 200.60625) scale(0.08 -0.08)">
       <defs>
        <path id="Georgia-2d" d="M 2128 1453 
L 266 1453 
L 266 1944 
L 2128 1944 
L 2128 1453 
z
" transform="scale(0.015625)"/>
        <path id="Georgia-34" d="M 3388 281 
L 2753 281 
L 2753 -1141 
L 2153 -1141 
L 2153 281 
L 153 281 
L 153 763 
L 2344 3434 
L 2753 3434 
L 2753 691 
L 3388 691 
L 3388 281 
z
M 2153 691 
L 2153 2738 
L 466 691 
L 2153 691 
z
" transform="scale(0.015625)"/>
        <path id="Georgia-25" d="M 2463 3384 
Q 2463 2834 2166 2531 
Q 1869 2228 1400 2228 
Q 931 2228 636 2531 
Q 341 2834 341 3384 
Q 341 3903 630 4222 
Q 919 4541 1403 4541 
Q 1881 4541 2172 4222 
Q 2463 3903 2463 3384 
z
M 1934 3384 
Q 1934 3791 1800 4050 
Q 1666 4309 1403 4309 
Q 1134 4309 1001 4050 
Q 869 3791 869 3384 
Q 869 2969 1003 2714 
Q 1138 2459 1400 2459 
Q 1663 2459 1798 2714 
Q 1934 2969 1934 3384 
z
M 4891 1056 
Q 4891 506 4594 203 
Q 4297 -100 3828 -100 
Q 3359 -100 3064 203 
Q 2769 506 2769 1056 
Q 2769 1575 3058 1894 
Q 3347 2213 3831 2213 
Q 4309 2213 4600 1894 
Q 4891 1575 4891 1056 
z
M 4363 1056 
Q 4363 1463 4228 1722 
Q 4094 1981 3831 1981 
Q 3563 1981 3430 1722 
Q 3297 1463 3297 1056 
Q 3297 641 3431 386 
Q 3566 131 3828 131 
Q 4091 131 4227 386 
Q 4363 641 4363 1056 
z
M 4684 4450 
L 1000 0 
L 569 0 
L 4244 4450 
L 4684 4450 
z
" transform="scale(0.015625)"/>
       </defs>
       <use xlink:href="#Georgia-2d"/>
       <use xlink:href="#Georgia-34" transform="translate(37.402344 0)"/>
       <use xlink:href="#Georgia-25" transform="translate(93.896484 0)"/>
      </g>
     </g>
    </g>
    <g id="xtick_2">
     <g id="line2d_5">
      <g>
       <use xlink:href="#m652ce0e3d5" x="93.96" y="189.55875" style="stroke: #000000; stroke-width: 0.5"/>
      </g>
     </g>
     <g id="text_2">
      <!-- -2% -->
      <g transform="translate(86.96 200.60625) scale(0.08 -0.08)">
       <defs>
        <path id="Georgia-32" d="M 3272 0 
L 344 0 
L 344 425 
Q 428 522 578 642 
Q 728 763 934 903 
Q 1059 988 1234 1088 
Q 1409 1188 1631 1306 
Q 1878 1438 2011 1538 
Q 2144 1638 2253 1784 
Q 2325 1881 2369 2026 
Q 2413 2172 2413 2441 
Q 2413 2831 2203 3014 
Q 1994 3197 1666 3197 
Q 1463 3197 1281 3117 
Q 1100 3038 1009 2897 
Q 1031 2797 1064 2659 
Q 1097 2522 1097 2391 
Q 1097 2272 998 2180 
Q 900 2088 706 2088 
Q 550 2088 465 2195 
Q 381 2303 381 2484 
Q 381 2653 475 2823 
Q 569 2994 744 3138 
Q 916 3278 1169 3365 
Q 1422 3453 1716 3453 
Q 2356 3453 2732 3167 
Q 3109 2881 3109 2403 
Q 3109 2175 3042 1987 
Q 2975 1800 2825 1656 
Q 2659 1497 2437 1383 
Q 2216 1269 1759 1066 
Q 1488 944 1253 811 
Q 1019 678 869 553 
L 3272 553 
L 3272 0 
z
" transform="scale(0.015625)"/>
       </defs>
       <use xlink:href="#Georgia-2d"/>
       <use xlink:href="#Georgia-32" transform="translate(37.402344 0)"/>
       <use xlink:href="#Georgia-25" transform="translate(93.261719 0)"/>
      </g>
     </g>
    </g>
    <g id="xtick_3">
     <g id="line2d_6">
      <g>
       <use xlink:href="#m652ce0e3d5" x="154.68" y="189.55875" style="stroke: #000000; stroke-width: 0.5"/>
      </g>
     </g>
     <g id="text_3">
      <!-- 0% -->
      <g transform="translate(148.955625 200.60625) scale(0.08 -0.08)">
       <defs>
        <path id="Georgia-30" d="M 3209 2919 
Q 3409 2678 3507 2354 
Q 3606 2031 3606 1678 
Q 3606 1253 3484 917 
Q 3363 581 3150 359 
Q 2931 131 2631 15 
Q 2331 -100 1963 -100 
Q 1559 -100 1243 34 
Q 928 169 731 403 
Q 525 647 423 973 
Q 322 1300 322 1678 
Q 322 2050 420 2362 
Q 519 2675 728 2928 
Q 928 3172 1243 3312 
Q 1559 3453 1966 3453 
Q 2394 3453 2700 3309 
Q 3006 3166 3209 2919 
z
M 2916 1678 
Q 2916 2422 2661 2831 
Q 2406 3241 1969 3241 
Q 1525 3241 1269 2831 
Q 1013 2422 1013 1678 
Q 1013 972 1258 542 
Q 1503 113 1963 113 
Q 2422 113 2669 542 
Q 2916 972 2916 1678 
z
" transform="scale(0.015625)"/>
       </defs>
       <use xlink:href="#Georgia-30"/>
       <use xlink:href="#Georgia-25" transform="translate(61.376953 0)"/>
      </g>
     </g>
    </g>
    <g id="xtick_4">
     <g id="line2d_7">
      <g>
       <use xlink:href="#m652ce0e3d5" x="215.4" y="189.55875" style="stroke: #000000; stroke-width: 0.5"/>
      </g>
     </g>
     <g id="text_4">
      <!-- +2% -->
      <g transform="translate(207.32375 200.60625) scale(0.08 -0.08)">
       <defs>
        <path id="Georgia-2b" d="M 3666 1553 
L 2256 1553 
L 2256 144 
L 1859 144 
L 1859 1553 
L 450 1553 
L 450 1944 
L 1859 1944 
L 1859 3353 
L 2256 3353 
L 2256 1944 
L 3666 1944 
L 3666 1553 
z
" transform="scale(0.015625)"/>
       </defs>
       <use xlink:href="#Georgia-2b"/>
       <use xlink:href="#Georgia-32" transform="translate(64.306641 0)"/>
       <use xlink:href="#Georgia-25" transform="translate(120.166016 0)"/>
      </g>
     </g>
    </g>
    <g id="xtick_5">
     <g id="line2d_8">
      <g>
       <use xlink:href="#m652ce0e3d5" x="276.12" y="189.55875" style="stroke: #000000; stroke-width: 0.5"/>
      </g>
     </g>
     <g id="text_5">
      <!-- +4% -->
      <g transform="translate(268.018125 200.60625) scale(0.08 -0.08)">
       <use xlink:href="#Georgia-2b"/>
       <use xlink:href="#Georgia-34" transform="translate(64.306641 0)"/>
       <use xlink:href="#Georgia-25" transform="translate(120.800781 0)"/>
      </g>
     </g>
    </g>
    <g id="xtick_6">
     <g id="line2d_9">
      <g>
       <use xlink:href="#m652ce0e3d5" x="336.84" y="189.55875" style="stroke: #000000; stroke-width: 0.5"/>
      </g>
     </g>
     <g id="text_6">
      <!-- +6% -->
      <g transform="translate(328.734375 200.60625) scale(0.08 -0.08)">
       <defs>
        <path id="Georgia-36" d="M 3359 1441 
Q 3359 1116 3242 831 
Q 3125 547 2928 347 
Q 2700 119 2423 9 
Q 2147 -100 1847 -100 
Q 1500 -100 1219 28 
Q 938 156 741 391 
Q 541 628 431 972 
Q 322 1316 322 1744 
Q 322 2859 986 3625 
Q 1650 4391 2766 4544 
L 2822 4263 
L 2541 4213 
Q 1863 3994 1492 3531 
Q 1122 3069 1013 2409 
Q 1281 2644 1543 2741 
Q 1806 2838 2097 2838 
Q 2619 2838 2989 2438 
Q 3359 2038 3359 1441 
z
M 2681 1356 
Q 2681 1863 2448 2169 
Q 2216 2475 1825 2475 
Q 1591 2475 1389 2387 
Q 1188 2300 1000 2094 
Q 997 2056 990 1920 
Q 984 1784 984 1706 
Q 984 975 1223 561 
Q 1463 147 1853 147 
Q 2225 147 2453 470 
Q 2681 794 2681 1356 
z
" transform="scale(0.015625)"/>
       </defs>
       <use xlink:href="#Georgia-2b"/>
       <use xlink:href="#Georgia-36" transform="translate(64.306641 0)"/>
       <use xlink:href="#Georgia-25" transform="translate(120.898438 0)"/>
      </g>
     </g>
    </g>
    <g id="xtick_7">
     <g id="line2d_10">
      <g>
       <use xlink:href="#m652ce0e3d5" x="397.56" y="189.55875" style="stroke: #000000; stroke-width: 0.5"/>
      </g>
     </g>
     <g id="text_7">
      <!-- +8% -->
      <g transform="translate(389.333125 200.60625) scale(0.08 -0.08)">
       <defs>
        <path id="Georgia-38" d="M 3491 1175 
Q 3491 650 3037 272 
Q 2584 -106 1847 -106 
Q 1156 -106 740 241 
Q 325 588 325 1134 
Q 325 1538 570 1808 
Q 816 2078 1297 2266 
Q 900 2488 703 2753 
Q 506 3019 506 3353 
Q 506 3863 939 4206 
Q 1372 4550 1975 4550 
Q 2578 4550 2951 4225 
Q 3325 3900 3325 3409 
Q 3325 3094 3119 2811 
Q 2913 2528 2513 2347 
Q 3031 2125 3261 1856 
Q 3491 1588 3491 1175 
z
M 2734 3444 
Q 2734 3825 2507 4064 
Q 2281 4303 1928 4303 
Q 1575 4303 1350 4073 
Q 1125 3844 1125 3503 
Q 1125 3175 1381 2947 
Q 1638 2719 2294 2459 
Q 2528 2609 2631 2856 
Q 2734 3103 2734 3444 
z
M 2866 1028 
Q 2866 1225 2781 1373 
Q 2697 1522 2538 1644 
Q 2384 1763 2111 1892 
Q 1838 2022 1519 2156 
Q 1219 1994 1078 1742 
Q 938 1491 938 1169 
Q 938 709 1208 426 
Q 1478 144 1928 144 
Q 2359 144 2612 394 
Q 2866 644 2866 1028 
z
" transform="scale(0.015625)"/>
       </defs>
       <use xlink:href="#Georgia-2b"/>
       <use xlink:href="#Georgia-38" transform="translate(64.306641 0)"/>
       <use xlink:href="#Georgia-25" transform="translate(123.925781 0)"/>
      </g>
     </g>
    </g>
    <g id="text_8">
     <!-- Efficiency gap (signed; positive = UCP-favoured) -->
     <g style="fill: #444444" transform="translate(144.635 212.3925) scale(0.08 -0.08)">
      <defs>
       <path id="Georgia-45" d="M 4034 1306 
L 3950 0 
L 269 0 
L 269 222 
Q 363 228 519 248 
Q 675 269 722 291 
Q 822 338 861 413 
Q 900 488 900 603 
L 900 3791 
Q 900 3894 865 3973 
Q 831 4053 722 4103 
Q 638 4144 495 4175 
Q 353 4206 269 4213 
L 269 4434 
L 3700 4434 
L 3700 3366 
L 3466 3366 
Q 3403 3603 3195 3870 
Q 2988 4138 2800 4163 
Q 2703 4175 2568 4181 
Q 2434 4188 2263 4188 
L 1566 4188 
L 1566 2425 
L 2066 2425 
Q 2306 2425 2417 2470 
Q 2528 2516 2613 2622 
Q 2681 2713 2729 2864 
Q 2778 3016 2794 3150 
L 3028 3150 
L 3028 1416 
L 2794 1416 
Q 2781 1566 2726 1733 
Q 2672 1900 2613 1975 
Q 2516 2097 2392 2134 
Q 2269 2172 2066 2172 
L 1566 2172 
L 1566 841 
Q 1566 641 1594 525 
Q 1622 409 1703 350 
Q 1784 291 1925 273 
Q 2066 256 2325 256 
Q 2428 256 2597 256 
Q 2766 256 2881 269 
Q 3000 281 3126 314 
Q 3253 347 3306 403 
Q 3450 553 3608 858 
Q 3766 1163 3809 1306 
L 4034 1306 
z
" transform="scale(0.015625)"/>
       <path id="Georgia-66" d="M 2519 4466 
Q 2519 4325 2444 4228 
Q 2369 4131 2216 4131 
Q 2119 4131 2045 4172 
Q 1972 4213 1909 4281 
Q 1847 4350 1794 4437 
Q 1741 4525 1703 4578 
Q 1494 4569 1380 4286 
Q 1266 4003 1266 3384 
L 1266 3069 
L 2059 3069 
L 2059 2769 
L 1266 2769 
L 1266 556 
Q 1266 447 1308 378 
Q 1350 309 1441 275 
Q 1516 247 1641 230 
Q 1766 213 1856 206 
L 1856 0 
L 231 0 
L 231 206 
Q 303 213 379 219 
Q 456 225 513 244 
Q 600 272 642 342 
Q 684 413 684 525 
L 684 2769 
L 75 2769 
L 75 3069 
L 684 3069 
L 684 3266 
Q 684 3969 1048 4405 
Q 1413 4841 1959 4841 
Q 2238 4841 2378 4731 
Q 2519 4622 2519 4466 
z
" transform="scale(0.015625)"/>
       <path id="Georgia-69" d="M 1722 0 
L 231 0 
L 231 206 
Q 303 213 379 219 
Q 456 225 513 244 
Q 600 272 642 342 
Q 684 413 684 525 
L 684 2428 
Q 684 2528 639 2611 
Q 594 2694 513 2750 
Q 453 2788 340 2814 
Q 228 2841 134 2847 
L 134 3050 
L 1222 3119 
L 1266 3075 
L 1266 563 
Q 1266 453 1308 381 
Q 1350 309 1441 275 
Q 1509 247 1575 230 
Q 1641 213 1722 206 
L 1722 0 
z
M 1328 4334 
Q 1328 4156 1211 4023 
Q 1094 3891 922 3891 
Q 763 3891 645 4017 
Q 528 4144 528 4306 
Q 528 4478 645 4606 
Q 763 4734 922 4734 
Q 1100 4734 1214 4614 
Q 1328 4494 1328 4334 
z
" transform="scale(0.015625)"/>
       <path id="Georgia-63" d="M 1650 -81 
Q 981 -81 603 362 
Q 225 806 225 1553 
Q 225 1878 326 2161 
Q 428 2444 622 2675 
Q 806 2897 1084 3033 
Q 1363 3169 1691 3169 
Q 2144 3169 2428 2951 
Q 2713 2734 2713 2359 
Q 2713 2203 2638 2083 
Q 2563 1963 2391 1963 
Q 2206 1963 2104 2056 
Q 2003 2150 2003 2266 
Q 2003 2406 2040 2554 
Q 2078 2703 2084 2772 
Q 2028 2869 1917 2901 
Q 1806 2934 1678 2934 
Q 1528 2934 1392 2870 
Q 1256 2806 1128 2634 
Q 1013 2478 941 2212 
Q 869 1947 869 1578 
Q 869 997 1126 630 
Q 1384 263 1803 263 
Q 2106 263 2311 409 
Q 2516 556 2691 850 
L 2891 719 
Q 2684 350 2346 134 
Q 2009 -81 1650 -81 
z
" transform="scale(0.015625)"/>
       <path id="Georgia-65" d="M 2963 725 
Q 2769 356 2444 137 
Q 2119 -81 1697 -81 
Q 1325 -81 1045 50 
Q 766 181 584 406 
Q 403 631 314 931 
Q 225 1231 225 1566 
Q 225 1866 320 2155 
Q 416 2444 600 2675 
Q 778 2897 1042 3033 
Q 1306 3169 1634 3169 
Q 1972 3169 2212 3062 
Q 2453 2956 2603 2772 
Q 2747 2597 2817 2359 
Q 2888 2122 2888 1844 
L 2888 1638 
L 847 1638 
Q 847 1334 905 1087 
Q 963 841 1088 653 
Q 1209 472 1406 367 
Q 1603 263 1875 263 
Q 2153 263 2354 392 
Q 2556 522 2744 859 
L 2963 725 
z
M 2272 1900 
Q 2272 2075 2242 2275 
Q 2213 2475 2147 2609 
Q 2075 2753 1950 2843 
Q 1825 2934 1628 2934 
Q 1300 2934 1083 2661 
Q 866 2388 847 1900 
L 2272 1900 
z
" transform="scale(0.015625)"/>
       <path id="Georgia-6e" d="M 3628 0 
L 2119 0 
L 2119 206 
Q 2191 213 2277 219 
Q 2363 225 2419 244 
Q 2506 272 2548 342 
Q 2591 413 2591 525 
L 2591 2109 
Q 2591 2438 2436 2616 
Q 2281 2794 2059 2794 
Q 1894 2794 1756 2742 
Q 1619 2691 1513 2616 
Q 1409 2544 1348 2461 
Q 1288 2378 1259 2328 
L 1259 556 
Q 1259 450 1303 381 
Q 1347 313 1434 275 
Q 1500 244 1576 228 
Q 1653 213 1734 206 
L 1734 0 
L 225 0 
L 225 206 
Q 297 213 373 219 
Q 450 225 506 244 
Q 594 272 636 342 
Q 678 413 678 525 
L 678 2428 
Q 678 2534 633 2623 
Q 588 2713 506 2769 
Q 447 2806 365 2823 
Q 284 2841 191 2847 
L 191 3050 
L 1216 3119 
L 1259 3075 
L 1259 2641 
L 1275 2641 
Q 1350 2716 1462 2820 
Q 1575 2925 1675 2991 
Q 1791 3066 1950 3116 
Q 2109 3166 2309 3166 
Q 2753 3166 2967 2889 
Q 3181 2613 3181 2153 
L 3181 550 
Q 3181 441 3218 373 
Q 3256 306 3347 269 
Q 3422 238 3476 225 
Q 3531 213 3628 206 
L 3628 0 
z
" transform="scale(0.015625)"/>
       <path id="Georgia-79" d="M -9 -1006 
Q -9 -850 77 -751 
Q 163 -653 291 -653 
Q 391 -653 462 -690 
Q 534 -728 591 -788 
Q 638 -834 691 -915 
Q 744 -997 775 -1050 
Q 931 -966 1148 -609 
Q 1366 -253 1463 16 
Q 1166 756 925 1340 
Q 684 1925 422 2550 
Q 363 2694 222 2773 
Q 81 2853 -59 2875 
L -59 3081 
L 1347 3081 
L 1347 2863 
Q 1253 2859 1122 2823 
Q 991 2788 991 2741 
Q 991 2722 1005 2678 
Q 1019 2634 1038 2588 
Q 1156 2278 1400 1695 
Q 1644 1113 1778 763 
Q 1919 1097 2070 1455 
Q 2222 1813 2409 2300 
Q 2431 2359 2472 2464 
Q 2513 2569 2513 2644 
Q 2513 2725 2370 2795 
Q 2228 2866 2100 2881 
L 2100 3081 
L 3244 3081 
L 3244 2888 
Q 3150 2872 2997 2780 
Q 2844 2688 2769 2519 
Q 2397 1656 2108 947 
Q 1819 238 1669 -97 
Q 1472 -534 1317 -779 
Q 1163 -1025 1016 -1166 
Q 872 -1297 755 -1342 
Q 638 -1388 513 -1388 
Q 269 -1388 130 -1272 
Q -9 -1156 -9 -1006 
z
" transform="scale(0.015625)"/>
       <path id="Georgia-20" transform="scale(0.015625)"/>
       <path id="Georgia-67" d="M 2866 319 
Q 2991 200 3062 50 
Q 3134 -100 3134 -322 
Q 3134 -544 3037 -739 
Q 2941 -934 2744 -1078 
Q 2534 -1225 2243 -1306 
Q 1953 -1388 1525 -1388 
Q 825 -1388 478 -1183 
Q 131 -978 131 -584 
Q 131 -266 381 -81 
Q 631 103 1019 119 
L 1019 163 
Q 925 191 825 233 
Q 725 275 653 331 
Q 572 397 522 486 
Q 472 575 472 706 
Q 472 872 589 1011 
Q 706 1150 944 1250 
L 944 1297 
Q 644 1438 478 1658 
Q 313 1878 313 2169 
Q 313 2606 639 2887 
Q 966 3169 1475 3169 
Q 1616 3169 1755 3141 
Q 1894 3113 2038 3069 
L 3113 3069 
L 3113 2769 
L 2388 2769 
L 2388 2750 
Q 2503 2616 2559 2453 
Q 2616 2291 2616 2134 
Q 2616 1728 2286 1447 
Q 1956 1166 1519 1166 
L 1141 1166 
Q 1069 1141 991 1075 
Q 913 1009 913 897 
Q 913 781 978 720 
Q 1044 659 1138 638 
Q 1228 613 1348 606 
Q 1469 600 1597 597 
Q 1734 594 1973 578 
Q 2213 563 2313 559 
Q 2456 553 2601 490 
Q 2747 428 2866 319 
z
M 2022 2147 
Q 2022 2513 1873 2730 
Q 1725 2947 1456 2947 
Q 1309 2947 1204 2886 
Q 1100 2825 1034 2713 
Q 972 2609 945 2464 
Q 919 2319 919 2166 
Q 919 1819 1070 1600 
Q 1222 1381 1463 1381 
Q 1731 1381 1876 1598 
Q 2022 1816 2022 2147 
z
M 2622 -438 
Q 2622 -263 2540 -150 
Q 2459 -38 2294 3 
Q 2206 16 1934 31 
Q 1663 47 1303 47 
Q 966 -19 823 -173 
Q 681 -328 681 -572 
Q 681 -681 728 -781 
Q 775 -881 891 -966 
Q 1000 -1047 1184 -1098 
Q 1369 -1150 1634 -1150 
Q 2094 -1150 2358 -973 
Q 2622 -797 2622 -438 
z
" transform="scale(0.015625)"/>
       <path id="Georgia-61" d="M 3144 56 
Q 2997 3 2886 -30 
Q 2775 -63 2634 -63 
Q 2391 -63 2245 51 
Q 2100 166 2059 384 
L 2041 384 
Q 1838 159 1605 40 
Q 1372 -78 1044 -78 
Q 697 -78 473 134 
Q 250 347 250 691 
Q 250 869 300 1009 
Q 350 1150 450 1263 
Q 528 1356 656 1429 
Q 784 1503 897 1547 
Q 1038 1600 1467 1744 
Q 1897 1888 2047 1969 
L 2047 2278 
Q 2047 2319 2030 2434 
Q 2013 2550 1956 2653 
Q 1894 2769 1780 2855 
Q 1666 2941 1456 2941 
Q 1313 2941 1189 2892 
Q 1066 2844 1016 2791 
Q 1016 2728 1045 2606 
Q 1075 2484 1075 2381 
Q 1075 2272 976 2181 
Q 878 2091 703 2091 
Q 547 2091 473 2202 
Q 400 2313 400 2450 
Q 400 2594 501 2725 
Q 603 2856 766 2959 
Q 906 3047 1106 3108 
Q 1306 3169 1497 3169 
Q 1759 3169 1954 3133 
Q 2150 3097 2309 2978 
Q 2469 2863 2551 2664 
Q 2634 2466 2634 2153 
Q 2634 1706 2625 1361 
Q 2616 1016 2616 606 
Q 2616 484 2658 412 
Q 2700 341 2788 291 
Q 2834 263 2936 259 
Q 3038 256 3144 256 
L 3144 56 
z
M 2053 1706 
Q 1788 1628 1588 1553 
Q 1388 1478 1216 1366 
Q 1059 1259 968 1114 
Q 878 969 878 769 
Q 878 509 1014 387 
Q 1150 266 1359 266 
Q 1581 266 1750 373 
Q 1919 481 2034 628 
L 2053 1706 
z
" transform="scale(0.015625)"/>
       <path id="Georgia-70" d="M 3041 2716 
Q 3225 2497 3326 2208 
Q 3428 1919 3428 1547 
Q 3428 1181 3306 879 
Q 3184 578 2984 366 
Q 2775 150 2519 34 
Q 2263 -81 1975 -81 
Q 1697 -81 1519 -18 
Q 1341 44 1228 128 
L 1203 128 
L 1203 -797 
Q 1203 -909 1247 -984 
Q 1291 -1059 1381 -1094 
Q 1456 -1122 1595 -1148 
Q 1734 -1175 1825 -1178 
L 1825 -1388 
L 103 -1388 
L 103 -1178 
Q 200 -1172 290 -1162 
Q 381 -1153 453 -1131 
Q 547 -1100 584 -1022 
Q 622 -944 622 -838 
L 622 2441 
Q 622 2534 575 2621 
Q 528 2709 453 2763 
Q 397 2800 297 2820 
Q 197 2841 103 2847 
L 103 3050 
L 1153 3119 
L 1197 3081 
L 1197 2734 
L 1222 2728 
Q 1384 2916 1625 3041 
Q 1866 3166 2103 3166 
Q 2391 3166 2630 3044 
Q 2869 2922 3041 2716 
z
M 2531 500 
Q 2656 694 2715 950 
Q 2775 1206 2775 1522 
Q 2775 1753 2725 1993 
Q 2675 2234 2569 2413 
Q 2463 2594 2291 2706 
Q 2119 2819 1878 2819 
Q 1647 2819 1484 2717 
Q 1322 2616 1203 2475 
L 1203 653 
Q 1231 569 1295 478 
Q 1359 388 1438 322 
Q 1534 244 1646 195 
Q 1759 147 1922 147 
Q 2097 147 2259 239 
Q 2422 331 2531 500 
z
" transform="scale(0.015625)"/>
       <path id="Georgia-28" d="M 2191 -1025 
Q 1338 -919 852 -165 
Q 366 588 366 1863 
Q 366 3159 852 3917 
Q 1338 4675 2191 4788 
L 2191 4528 
Q 1591 4419 1278 3762 
Q 966 3106 966 1856 
Q 966 666 1272 5 
Q 1578 -656 2191 -769 
L 2191 -1025 
z
" transform="scale(0.015625)"/>
       <path id="Georgia-73" d="M 2259 1509 
Q 2388 1397 2456 1250 
Q 2525 1103 2525 891 
Q 2525 463 2204 191 
Q 1884 -81 1375 -81 
Q 1106 -81 879 16 
Q 653 113 556 194 
L 494 -9 
L 259 -9 
L 228 1063 
L 444 1063 
Q 469 941 550 778 
Q 631 616 747 484 
Q 869 347 1039 253 
Q 1209 159 1422 159 
Q 1722 159 1884 295 
Q 2047 431 2047 684 
Q 2047 816 1995 911 
Q 1944 1006 1844 1078 
Q 1741 1150 1591 1208 
Q 1441 1266 1256 1322 
Q 1109 1366 929 1442 
Q 750 1519 622 1622 
Q 484 1731 396 1890 
Q 309 2050 309 2266 
Q 309 2644 590 2906 
Q 872 3169 1344 3169 
Q 1525 3169 1714 3122 
Q 1903 3075 2022 3009 
L 2094 3172 
L 2319 3172 
L 2366 2181 
L 2150 2181 
Q 2084 2513 1867 2720 
Q 1650 2928 1338 2928 
Q 1081 2928 934 2800 
Q 788 2672 788 2491 
Q 788 2350 836 2256 
Q 884 2163 981 2097 
Q 1075 2034 1217 1979 
Q 1359 1925 1569 1856 
Q 1775 1791 1958 1703 
Q 2141 1616 2259 1509 
z
" transform="scale(0.015625)"/>
       <path id="Georgia-64" d="M 3600 56 
L 2525 -13 
L 2478 31 
L 2478 319 
L 2453 325 
Q 2291 144 2052 28 
Q 1813 -88 1559 -88 
Q 1297 -88 1051 29 
Q 806 147 625 359 
Q 441 575 333 878 
Q 225 1181 225 1547 
Q 225 1881 340 2181 
Q 456 2481 659 2706 
Q 850 2916 1126 3041 
Q 1403 3166 1691 3166 
Q 1906 3166 2114 3111 
Q 2322 3056 2472 2972 
L 2472 4044 
Q 2472 4175 2428 4283 
Q 2384 4391 2306 4447 
Q 2219 4506 2070 4532 
Q 1922 4559 1750 4572 
L 1750 4766 
L 3009 4838 
L 3056 4791 
L 3056 634 
Q 3056 525 3098 448 
Q 3141 372 3222 319 
Q 3281 281 3393 272 
Q 3506 263 3600 259 
L 3600 56 
z
M 2472 597 
L 2472 2400 
Q 2447 2481 2390 2575 
Q 2334 2669 2250 2747 
Q 2159 2825 2037 2876 
Q 1916 2928 1753 2928 
Q 1566 2928 1408 2831 
Q 1250 2734 1128 2553 
Q 1013 2378 945 2108 
Q 878 1838 878 1509 
Q 878 1247 928 1033 
Q 978 819 1097 634 
Q 1206 459 1376 353 
Q 1547 247 1781 247 
Q 2031 247 2195 356 
Q 2359 466 2472 597 
z
" transform="scale(0.015625)"/>
       <path id="Georgia-3b" d="M 1428 2666 
Q 1428 2491 1301 2366 
Q 1175 2241 1000 2241 
Q 825 2241 698 2366 
Q 572 2491 572 2666 
Q 572 2841 697 2967 
Q 822 3094 1000 3094 
Q 1178 3094 1303 2967 
Q 1428 2841 1428 2666 
z
M 1481 109 
Q 1481 -116 1379 -314 
Q 1278 -513 1147 -659 
Q 1013 -809 863 -925 
Q 713 -1041 588 -1106 
L 444 -897 
Q 594 -803 711 -708 
Q 828 -613 906 -522 
Q 1000 -413 1065 -284 
Q 1131 -156 1150 6 
L 991 6 
Q 781 6 664 115 
Q 547 225 547 409 
Q 547 541 653 664 
Q 759 788 944 788 
Q 1213 788 1347 608 
Q 1481 428 1481 109 
z
" transform="scale(0.015625)"/>
       <path id="Georgia-6f" d="M 3228 1572 
Q 3228 1247 3125 933 
Q 3022 619 2831 400 
Q 2616 150 2331 28 
Q 2047 -94 1694 -94 
Q 1400 -94 1134 17 
Q 869 128 663 341 
Q 459 550 339 851 
Q 219 1153 219 1528 
Q 219 2250 639 2709 
Q 1059 3169 1741 3169 
Q 2388 3169 2808 2733 
Q 3228 2297 3228 1572 
z
M 2581 1566 
Q 2581 1800 2534 2061 
Q 2488 2322 2394 2503 
Q 2294 2697 2131 2814 
Q 1969 2931 1734 2931 
Q 1494 2931 1323 2812 
Q 1153 2694 1047 2488 
Q 947 2297 906 2053 
Q 866 1809 866 1581 
Q 866 1281 914 1026 
Q 963 772 1069 572 
Q 1175 372 1336 258 
Q 1497 144 1734 144 
Q 2125 144 2353 522 
Q 2581 900 2581 1566 
z
" transform="scale(0.015625)"/>
       <path id="Georgia-74" d="M 2128 134 
Q 1925 50 1744 -8 
Q 1563 -66 1300 -66 
Q 913 -66 755 129 
Q 597 325 597 681 
L 597 2769 
L 41 2769 
L 41 3069 
L 609 3069 
L 609 4028 
L 1178 4028 
L 1178 3069 
L 2063 3069 
L 2063 2769 
L 1184 2769 
L 1184 1047 
Q 1184 853 1198 723 
Q 1213 594 1266 497 
Q 1316 406 1416 359 
Q 1516 313 1684 313 
Q 1763 313 1914 327 
Q 2066 341 2128 363 
L 2128 134 
z
" transform="scale(0.015625)"/>
       <path id="Georgia-76" d="M 3269 2891 
Q 3128 2866 3001 2789 
Q 2875 2713 2784 2519 
Q 2600 2100 2403 1645 
Q 2206 1191 1994 691 
Q 1931 547 1861 350 
Q 1791 153 1731 -28 
L 1488 -28 
Q 1191 706 941 1311 
Q 691 1916 422 2550 
Q 359 2694 220 2773 
Q 81 2853 -59 2875 
L -59 3081 
L 1366 3081 
L 1366 2863 
Q 1272 2859 1131 2823 
Q 991 2788 991 2725 
Q 991 2716 1006 2677 
Q 1022 2638 1038 2588 
Q 1166 2269 1400 1697 
Q 1634 1125 1781 775 
Q 1894 1044 2064 1444 
Q 2234 1844 2431 2338 
Q 2463 2422 2491 2495 
Q 2519 2569 2519 2644 
Q 2519 2697 2467 2739 
Q 2416 2781 2344 2813 
Q 2272 2844 2203 2859 
Q 2134 2875 2091 2881 
L 2091 3081 
L 3269 3081 
L 3269 2891 
z
" transform="scale(0.015625)"/>
       <path id="Georgia-3d" d="M 3634 2134 
L 481 2134 
L 481 2525 
L 3634 2525 
L 3634 2134 
z
M 3634 972 
L 481 972 
L 481 1363 
L 3634 1363 
L 3634 972 
z
" transform="scale(0.015625)"/>
       <path id="Georgia-55" d="M 4791 4213 
Q 4703 4209 4534 4175 
Q 4366 4141 4259 4072 
Q 4153 4000 4112 3775 
Q 4072 3550 4072 3225 
L 4072 1297 
Q 4072 928 3919 656 
Q 3766 384 3516 209 
Q 3269 41 2995 -32 
Q 2722 -106 2472 -106 
Q 2072 -106 1759 -1 
Q 1447 103 1234 281 
Q 1025 459 919 689 
Q 813 919 813 1169 
L 813 3791 
Q 813 3900 777 3973 
Q 741 4047 631 4109 
Q 553 4153 431 4179 
Q 309 4206 231 4213 
L 231 4434 
L 2078 4434 
L 2078 4213 
Q 1991 4209 1858 4184 
Q 1725 4159 1663 4138 
Q 1556 4100 1520 4012 
Q 1484 3925 1484 3822 
L 1484 1372 
Q 1484 1194 1523 998 
Q 1563 803 1678 634 
Q 1800 463 2009 353 
Q 2219 244 2584 244 
Q 2928 244 3161 353 
Q 3394 463 3528 641 
Q 3656 809 3709 993 
Q 3763 1178 3763 1366 
L 3763 3184 
Q 3763 3531 3713 3751 
Q 3663 3972 3566 4041 
Q 3456 4119 3267 4162 
Q 3078 4206 2978 4213 
L 2978 4434 
L 4791 4434 
L 4791 4213 
z
" transform="scale(0.015625)"/>
       <path id="Georgia-43" d="M 2259 -103 
Q 1863 -103 1498 53 
Q 1134 209 853 503 
Q 575 797 409 1220 
Q 244 1644 244 2175 
Q 244 2706 406 3139 
Q 569 3572 856 3884 
Q 1141 4194 1528 4362 
Q 1916 4531 2356 4531 
Q 2684 4531 2950 4450 
Q 3216 4369 3456 4222 
L 3584 4434 
L 3834 4434 
L 3863 2853 
L 3606 2853 
Q 3556 3084 3456 3354 
Q 3356 3625 3222 3813 
Q 3072 4025 2865 4145 
Q 2659 4266 2394 4266 
Q 2091 4266 1830 4131 
Q 1569 3997 1378 3734 
Q 1197 3481 1094 3090 
Q 991 2700 991 2219 
Q 991 1794 1098 1439 
Q 1206 1084 1406 816 
Q 1606 550 1879 400 
Q 2153 250 2491 250 
Q 2744 250 2956 329 
Q 3169 409 3325 541 
Q 3481 678 3600 853 
Q 3719 1028 3794 1234 
L 4028 1122 
Q 3759 463 3315 180 
Q 2872 -103 2259 -103 
z
" transform="scale(0.015625)"/>
       <path id="Georgia-50" d="M 3700 3341 
Q 3700 2994 3564 2726 
Q 3428 2459 3188 2284 
Q 2950 2109 2665 2028 
Q 2381 1947 2063 1947 
L 1566 1947 
L 1566 603 
Q 1566 494 1602 411 
Q 1638 328 1750 284 
Q 1806 263 1948 244 
Q 2091 225 2209 222 
L 2209 0 
L 306 0 
L 306 222 
Q 381 228 523 243 
Q 666 259 722 284 
Q 816 325 858 403 
Q 900 481 900 603 
L 900 3803 
Q 900 3913 869 4000 
Q 838 4088 722 4131 
Q 603 4172 486 4189 
Q 369 4206 284 4213 
L 284 4434 
L 2309 4434 
Q 2928 4434 3314 4136 
Q 3700 3838 3700 3341 
z
M 2750 2584 
Q 2856 2734 2890 2895 
Q 2925 3056 2925 3184 
Q 2925 3363 2883 3547 
Q 2841 3731 2738 3869 
Q 2628 4016 2450 4097 
Q 2272 4178 2006 4178 
L 1566 4178 
L 1566 2219 
L 1884 2219 
Q 2222 2219 2433 2323 
Q 2644 2428 2750 2584 
z
" transform="scale(0.015625)"/>
       <path id="Georgia-75" d="M 3528 56 
L 2525 -13 
L 2478 31 
L 2478 422 
L 2459 422 
Q 2384 344 2290 255 
Q 2197 166 2075 94 
Q 1934 9 1803 -34 
Q 1672 -78 1431 -78 
Q 1022 -78 808 189 
Q 594 456 594 966 
L 594 2441 
Q 594 2553 551 2629 
Q 509 2706 428 2763 
Q 372 2800 287 2817 
Q 203 2834 109 2841 
L 109 3044 
L 1138 3119 
L 1184 3075 
L 1184 934 
Q 1184 600 1334 431 
Q 1484 263 1694 263 
Q 1866 263 2000 316 
Q 2134 369 2225 441 
Q 2309 506 2373 579 
Q 2438 653 2472 716 
L 2472 2463 
Q 2472 2566 2428 2645 
Q 2384 2725 2306 2781 
Q 2250 2819 2139 2826 
Q 2028 2834 1891 2841 
L 1891 3044 
L 3009 3119 
L 3056 3075 
L 3056 628 
Q 3056 522 3100 447 
Q 3144 372 3222 319 
Q 3278 284 3356 273 
Q 3434 263 3528 259 
L 3528 56 
z
" transform="scale(0.015625)"/>
       <path id="Georgia-72" d="M 2584 2684 
Q 2584 2525 2506 2401 
Q 2428 2278 2266 2278 
Q 2091 2278 1998 2368 
Q 1906 2459 1906 2569 
Q 1906 2638 1917 2694 
Q 1928 2750 1938 2806 
Q 1791 2806 1594 2687 
Q 1397 2569 1259 2350 
L 1259 556 
Q 1259 447 1301 378 
Q 1344 309 1434 275 
Q 1513 244 1636 228 
Q 1759 213 1850 206 
L 1850 0 
L 225 0 
L 225 206 
Q 297 213 373 219 
Q 450 225 506 244 
Q 594 272 636 342 
Q 678 413 678 525 
L 678 2428 
Q 678 2525 633 2619 
Q 588 2713 506 2769 
Q 447 2806 365 2823 
Q 284 2841 191 2847 
L 191 3050 
L 1216 3119 
L 1259 3075 
L 1259 2641 
L 1275 2641 
Q 1469 2894 1706 3025 
Q 1944 3156 2141 3156 
Q 2338 3156 2461 3028 
Q 2584 2900 2584 2684 
z
" transform="scale(0.015625)"/>
       <path id="Georgia-29" d="M 2034 1863 
Q 2034 588 1548 -165 
Q 1063 -919 209 -1025 
L 209 -769 
Q 822 -656 1128 5 
Q 1434 666 1434 1856 
Q 1434 3106 1121 3762 
Q 809 4419 209 4528 
L 209 4788 
Q 1063 4675 1548 3917 
Q 2034 3159 2034 1863 
z
" transform="scale(0.015625)"/>
      </defs>
      <use xlink:href="#Georgia-45"/>
      <use xlink:href="#Georgia-66" transform="translate(65.332031 0)"/>
      <use xlink:href="#Georgia-66" transform="translate(97.851562 0)"/>
      <use xlink:href="#Georgia-69" transform="translate(130.371094 0)"/>
      <use xlink:href="#Georgia-63" transform="translate(159.667969 0)"/>
      <use xlink:href="#Georgia-69" transform="translate(205.078125 0)"/>
      <use xlink:href="#Georgia-65" transform="translate(234.375 0)"/>
      <use xlink:href="#Georgia-6e" transform="translate(282.714844 0)"/>
      <use xlink:href="#Georgia-63" transform="translate(341.796875 0)"/>
      <use xlink:href="#Georgia-79" transform="translate(387.207031 0)"/>
      <use xlink:href="#Georgia-20" transform="translate(436.425781 0)"/>
      <use xlink:href="#Georgia-67" transform="translate(460.546875 0)"/>
      <use xlink:href="#Georgia-61" transform="translate(511.474609 0)"/>
      <use xlink:href="#Georgia-70" transform="translate(561.865234 0)"/>
      <use xlink:href="#Georgia-20" transform="translate(618.994141 0)"/>
      <use xlink:href="#Georgia-28" transform="translate(643.115234 0)"/>
      <use xlink:href="#Georgia-73" transform="translate(680.615234 0)"/>
      <use xlink:href="#Georgia-69" transform="translate(723.828125 0)"/>
      <use xlink:href="#Georgia-67" transform="translate(753.125 0)"/>
      <use xlink:href="#Georgia-6e" transform="translate(804.052734 0)"/>
      <use xlink:href="#Georgia-65" transform="translate(863.134766 0)"/>
      <use xlink:href="#Georgia-64" transform="translate(911.474609 0)"/>
      <use xlink:href="#Georgia-3b" transform="translate(968.896484 0)"/>
      <use xlink:href="#Georgia-20" transform="translate(1000.146484 0)"/>
      <use xlink:href="#Georgia-70" transform="translate(1024.267578 0)"/>
      <use xlink:href="#Georgia-6f" transform="translate(1081.396484 0)"/>
      <use xlink:href="#Georgia-73" transform="translate(1135.302734 0)"/>
      <use xlink:href="#Georgia-69" transform="translate(1178.515625 0)"/>
      <use xlink:href="#Georgia-74" transform="translate(1207.8125 0)"/>
      <use xlink:href="#Georgia-69" transform="translate(1242.333984 0)"/>
      <use xlink:href="#Georgia-76" transform="translate(1271.630859 0)"/>
      <use xlink:href="#Georgia-65" transform="translate(1321.289062 0)"/>
      <use xlink:href="#Georgia-20" transform="translate(1369.628906 0)"/>
      <use xlink:href="#Georgia-3d" transform="translate(1393.75 0)"/>
      <use xlink:href="#Georgia-20" transform="translate(1458.056641 0)"/>
      <use xlink:href="#Georgia-55" transform="translate(1482.177734 0)"/>
      <use xlink:href="#Georgia-43" transform="translate(1557.8125 0)"/>
      <use xlink:href="#Georgia-50" transform="translate(1622.021484 0)"/>
      <use xlink:href="#Georgia-2d" transform="translate(1683.007812 0)"/>
      <use xlink:href="#Georgia-66" transform="translate(1720.410156 0)"/>
      <use xlink:href="#Georgia-61" transform="translate(1752.929688 0)"/>
      <use xlink:href="#Georgia-76" transform="translate(1803.320312 0)"/>
      <use xlink:href="#Georgia-6f" transform="translate(1852.978516 0)"/>
      <use xlink:href="#Georgia-75" transform="translate(1906.884766 0)"/>
      <use xlink:href="#Georgia-72" transform="translate(1964.404297 0)"/>
      <use xlink:href="#Georgia-65" transform="translate(2005.371094 0)"/>
      <use xlink:href="#Georgia-64" transform="translate(2053.710938 0)"/>
      <use xlink:href="#Georgia-29" transform="translate(2111.132812 0)"/>
     </g>
    </g>
   </g>
   <g id="matplotlib.axis_2"/>
   <g id="patch_3">
    <path d="M 2.88 189.55875 
L 2.88 2.88 
" style="fill: none; stroke: #444444; stroke-width: 0.5; stroke-linejoin: miter; stroke-linecap: square"/>
   </g>
   <g id="patch_4">
    <path d="M 2.88 189.55875 
L 458.28 189.55875 
" style="fill: none; stroke: #444444; stroke-width: 0.5; stroke-linejoin: miter; stroke-linecap: square"/>
   </g>
   <g id="text_9">
    <!-- Majority 2026 -->
    <g style="fill: #1a1a1a" transform="translate(18.06 78.643862) scale(0.09 -0.09)">
     <defs>
      <path id="Georgia-Bold-4d" d="M 6309 0 
L 3906 0 
L 3906 244 
Q 4013 253 4167 275 
Q 4322 297 4378 322 
Q 4494 369 4544 450 
Q 4594 531 4594 656 
L 4594 3969 
L 3069 72 
L 2675 72 
Q 2647 175 2536 481 
Q 2425 788 2356 972 
L 1234 4019 
L 1234 1322 
Q 1234 934 1286 732 
Q 1338 531 1453 438 
Q 1531 372 1732 312 
Q 1934 253 2016 244 
L 2016 0 
L 109 0 
L 109 244 
Q 188 253 364 286 
Q 541 319 653 400 
Q 778 488 822 695 
Q 866 903 866 1288 
L 866 3484 
Q 866 3684 816 3817 
Q 766 3950 666 4028 
Q 541 4125 409 4153 
Q 278 4181 144 4191 
L 144 4434 
L 2184 4434 
L 3278 1506 
L 4200 3884 
Q 4247 4016 4290 4197 
Q 4334 4378 4338 4434 
L 6303 4434 
L 6303 4191 
Q 6203 4184 6093 4165 
Q 5984 4147 5884 4116 
Q 5763 4075 5723 3987 
Q 5684 3900 5684 3794 
L 5684 653 
Q 5684 541 5723 464 
Q 5763 388 5884 331 
Q 5947 303 6089 278 
Q 6231 253 6309 244 
L 6309 0 
z
" transform="scale(0.015625)"/>
      <path id="Georgia-Bold-61" d="M 3753 66 
Q 3616 6 3428 -44 
Q 3241 -94 3031 -94 
Q 2647 -94 2465 20 
Q 2284 134 2219 347 
L 2200 347 
Q 2094 241 1995 166 
Q 1897 91 1784 38 
Q 1638 -31 1502 -64 
Q 1366 -97 1122 -97 
Q 759 -97 503 117 
Q 247 331 247 684 
Q 247 888 303 1030 
Q 359 1172 463 1281 
Q 556 1381 679 1447 
Q 803 1513 950 1569 
Q 1231 1672 1625 1783 
Q 2019 1894 2200 1981 
L 2200 2281 
Q 2200 2359 2187 2487 
Q 2175 2616 2134 2703 
Q 2091 2803 1997 2872 
Q 1903 2941 1750 2941 
Q 1613 2941 1520 2902 
Q 1428 2863 1372 2822 
Q 1381 2759 1425 2631 
Q 1469 2503 1469 2384 
Q 1469 2331 1441 2251 
Q 1413 2172 1359 2125 
Q 1288 2063 1198 2028 
Q 1109 1994 925 1994 
Q 663 1994 528 2120 
Q 394 2247 394 2450 
Q 394 2625 533 2764 
Q 672 2903 872 2994 
Q 1069 3088 1325 3139 
Q 1581 3191 1800 3191 
Q 2103 3191 2356 3155 
Q 2609 3119 2813 3006 
Q 3006 2897 3120 2689 
Q 3234 2481 3234 2147 
Q 3234 1794 3220 1309 
Q 3206 825 3206 672 
Q 3206 531 3248 450 
Q 3291 369 3378 328 
Q 3431 303 3545 298 
Q 3659 294 3753 294 
L 3753 66 
z
M 2200 1694 
Q 2025 1634 1853 1557 
Q 1681 1481 1572 1397 
Q 1456 1309 1390 1173 
Q 1325 1038 1325 853 
Q 1325 609 1436 500 
Q 1547 391 1709 391 
Q 1881 391 1992 461 
Q 2103 531 2188 634 
L 2200 1694 
z
" transform="scale(0.015625)"/>
      <path id="Georgia-Bold-6a" d="M 1722 369 
Q 1722 47 1612 -281 
Q 1503 -609 1300 -844 
Q 1078 -1100 762 -1244 
Q 447 -1388 41 -1388 
Q -338 -1388 -542 -1242 
Q -747 -1097 -747 -850 
Q -747 -763 -726 -688 
Q -706 -613 -641 -531 
Q -591 -463 -486 -414 
Q -381 -366 -250 -366 
Q 9 -366 150 -552 
Q 291 -738 438 -1109 
Q 566 -1038 627 -803 
Q 688 -569 688 216 
L 688 2375 
Q 688 2484 641 2567 
Q 594 2650 513 2706 
Q 453 2747 323 2783 
Q 194 2819 94 2828 
L 94 3056 
L 1675 3138 
L 1722 3091 
L 1722 369 
z
M 1734 4263 
Q 1734 4025 1551 3858 
Q 1369 3691 1119 3691 
Q 866 3691 683 3858 
Q 500 4025 500 4263 
Q 500 4500 683 4669 
Q 866 4838 1119 4838 
Q 1372 4838 1553 4669 
Q 1734 4500 1734 4263 
z
" transform="scale(0.015625)"/>
      <path id="Georgia-Bold-6f" d="M 3372 2731 
Q 3603 2516 3725 2216 
Q 3847 1916 3847 1566 
Q 3847 1219 3726 911 
Q 3606 603 3375 384 
Q 3128 150 2786 25 
Q 2444 -100 2003 -100 
Q 1622 -100 1301 9 
Q 981 119 734 338 
Q 497 547 359 855 
Q 222 1163 222 1544 
Q 222 1919 342 2211 
Q 463 2503 703 2731 
Q 934 2950 1273 3070 
Q 1613 3191 2031 3191 
Q 2469 3191 2801 3070 
Q 3134 2950 3372 2731 
z
M 2572 566 
Q 2641 741 2673 991 
Q 2706 1241 2706 1572 
Q 2706 1791 2675 2072 
Q 2644 2353 2581 2516 
Q 2506 2713 2373 2825 
Q 2241 2938 2038 2938 
Q 1816 2938 1683 2816 
Q 1550 2694 1478 2500 
Q 1413 2322 1388 2083 
Q 1363 1844 1363 1584 
Q 1363 1244 1384 1020 
Q 1406 797 1491 572 
Q 1563 378 1697 265 
Q 1831 153 2038 153 
Q 2225 153 2359 258 
Q 2494 363 2572 566 
z
" transform="scale(0.015625)"/>
      <path id="Georgia-Bold-72" d="M 3294 2528 
Q 3294 2291 3147 2111 
Q 3000 1931 2759 1931 
Q 2531 1931 2373 2047 
Q 2216 2163 2216 2388 
Q 2216 2497 2231 2558 
Q 2247 2619 2259 2672 
Q 2116 2666 1956 2572 
Q 1797 2478 1675 2322 
L 1675 606 
Q 1675 497 1709 425 
Q 1744 353 1825 313 
Q 1894 278 2048 254 
Q 2203 231 2272 228 
L 2272 0 
L 181 0 
L 181 228 
Q 259 234 339 245 
Q 419 256 475 275 
Q 575 309 612 381 
Q 650 453 650 569 
L 650 2388 
Q 650 2500 597 2589 
Q 544 2678 469 2731 
Q 413 2769 327 2794 
Q 241 2819 138 2828 
L 138 3056 
L 1628 3138 
L 1675 3091 
L 1675 2638 
L 1688 2638 
Q 1903 2888 2145 3030 
Q 2388 3172 2650 3172 
Q 2941 3172 3117 2992 
Q 3294 2813 3294 2528 
z
" transform="scale(0.015625)"/>
      <path id="Georgia-Bold-69" d="M 2156 0 
L 181 0 
L 181 228 
Q 263 234 341 243 
Q 419 253 475 275 
Q 575 313 615 383 
Q 656 453 656 569 
L 656 2388 
Q 656 2497 606 2580 
Q 556 2663 481 2713 
Q 425 2750 311 2784 
Q 197 2819 103 2828 
L 103 3056 
L 1634 3138 
L 1681 3091 
L 1681 609 
Q 1681 500 1728 423 
Q 1775 347 1863 309 
Q 1925 281 2000 259 
Q 2075 238 2156 228 
L 2156 0 
z
M 1700 4263 
Q 1700 4025 1517 3858 
Q 1334 3691 1084 3691 
Q 831 3691 648 3858 
Q 466 4025 466 4263 
Q 466 4500 648 4669 
Q 831 4838 1084 4838 
Q 1338 4838 1519 4669 
Q 1700 4500 1700 4263 
z
" transform="scale(0.015625)"/>
      <path id="Georgia-Bold-74" d="M 2506 144 
Q 2306 56 2078 -14 
Q 1850 -84 1522 -84 
Q 1034 -84 798 153 
Q 563 391 563 831 
L 563 2750 
L 0 2750 
L 0 3088 
L 575 3088 
L 575 4034 
L 1591 4034 
L 1591 3088 
L 2466 3088 
L 2466 2750 
L 1597 2750 
L 1597 1038 
Q 1597 672 1698 519 
Q 1800 366 2063 366 
Q 2147 366 2297 378 
Q 2447 391 2506 406 
L 2506 144 
z
" transform="scale(0.015625)"/>
      <path id="Georgia-Bold-79" d="M 3713 2872 
Q 3572 2850 3439 2765 
Q 3306 2681 3219 2503 
Q 2950 1934 2665 1292 
Q 2381 650 2034 -97 
Q 1841 -516 1659 -766 
Q 1478 -1016 1319 -1150 
Q 1169 -1275 1022 -1331 
Q 875 -1388 725 -1388 
Q 428 -1388 245 -1222 
Q 63 -1056 63 -850 
Q 63 -763 83 -688 
Q 103 -613 169 -531 
Q 219 -463 323 -414 
Q 428 -366 559 -366 
Q 734 -366 893 -487 
Q 1053 -609 1225 -825 
Q 1328 -722 1479 -517 
Q 1631 -313 1703 -97 
Q 1331 684 1043 1257 
Q 756 1831 400 2538 
Q 322 2688 190 2770 
Q 59 2853 -88 2872 
L -88 3100 
L 1825 3100 
L 1825 2872 
Q 1719 2869 1580 2825 
Q 1441 2781 1441 2713 
Q 1441 2688 1450 2658 
Q 1459 2628 1484 2572 
Q 1591 2353 1786 1964 
Q 1981 1575 2241 1053 
Q 2434 1497 2570 1817 
Q 2706 2138 2834 2447 
Q 2866 2525 2870 2570 
Q 2875 2616 2875 2631 
Q 2875 2688 2820 2730 
Q 2766 2772 2691 2803 
Q 2613 2834 2541 2850 
Q 2469 2866 2422 2872 
L 2422 3100 
L 3713 3100 
L 3713 2872 
z
" transform="scale(0.015625)"/>
      <path id="Georgia-Bold-20" transform="scale(0.015625)"/>
      <path id="Georgia-Bold-32" d="M 3731 0 
L 344 0 
L 344 566 
Q 566 791 830 977 
Q 1094 1163 1366 1306 
Q 1656 1459 1853 1579 
Q 2050 1700 2163 1831 
Q 2275 1953 2323 2097 
Q 2372 2241 2372 2419 
Q 2372 2816 2184 2997 
Q 1997 3178 1688 3178 
Q 1591 3178 1505 3164 
Q 1419 3150 1325 3113 
Q 1372 2972 1415 2822 
Q 1459 2672 1459 2488 
Q 1459 2266 1300 2134 
Q 1141 2003 894 2003 
Q 659 2003 520 2156 
Q 381 2309 381 2528 
Q 381 2909 825 3187 
Q 1269 3466 1906 3466 
Q 2644 3466 3098 3212 
Q 3553 2959 3553 2397 
Q 3553 2106 3433 1928 
Q 3313 1750 3078 1616 
Q 2869 1494 2614 1416 
Q 2359 1338 2069 1266 
Q 1759 1188 1529 1100 
Q 1300 1013 1122 891 
L 1122 856 
L 3731 856 
L 3731 0 
z
" transform="scale(0.015625)"/>
      <path id="Georgia-Bold-30" d="M 3700 2913 
Q 3938 2663 4052 2342 
Q 4166 2022 4166 1678 
Q 4166 1269 4023 939 
Q 3881 609 3634 381 
Q 3375 144 3031 19 
Q 2688 -106 2241 -106 
Q 1769 -106 1408 41 
Q 1047 188 806 428 
Q 569 666 445 987 
Q 322 1309 322 1678 
Q 322 2044 439 2356 
Q 556 2669 800 2922 
Q 1038 3169 1403 3317 
Q 1769 3466 2244 3466 
Q 2734 3466 3100 3312 
Q 3466 3159 3700 2913 
z
M 2819 584 
Q 2909 794 2948 1051 
Q 2988 1309 2988 1678 
Q 2988 2009 2952 2275 
Q 2916 2541 2831 2747 
Q 2744 2959 2600 3075 
Q 2456 3191 2247 3191 
Q 2034 3191 1890 3077 
Q 1747 2963 1656 2753 
Q 1575 2563 1537 2286 
Q 1500 2009 1500 1678 
Q 1500 1331 1533 1087 
Q 1566 844 1653 619 
Q 1731 416 1878 291 
Q 2025 166 2241 166 
Q 2441 166 2587 278 
Q 2734 391 2819 584 
z
" transform="scale(0.015625)"/>
      <path id="Georgia-Bold-36" d="M 3884 1447 
Q 3884 784 3386 337 
Q 2888 -109 2113 -109 
Q 1303 -109 812 398 
Q 322 906 322 1763 
Q 322 2906 1094 3653 
Q 1866 4400 3191 4556 
L 3263 4247 
L 2931 4191 
Q 2553 4088 2298 3908 
Q 2044 3728 1878 3497 
Q 1719 3275 1628 2995 
Q 1538 2716 1491 2444 
Q 1763 2688 2030 2772 
Q 2297 2856 2603 2856 
Q 3141 2856 3512 2464 
Q 3884 2072 3884 1447 
z
M 2728 1363 
Q 2728 1856 2554 2147 
Q 2381 2438 2091 2438 
Q 1897 2438 1755 2372 
Q 1613 2306 1469 2097 
Q 1469 2081 1467 2042 
Q 1466 2003 1463 1941 
Q 1459 1872 1457 1812 
Q 1456 1753 1456 1713 
Q 1456 963 1639 564 
Q 1822 166 2109 166 
Q 2388 166 2558 478 
Q 2728 791 2728 1363 
z
" transform="scale(0.015625)"/>
     </defs>
     <use xlink:href="#Georgia-Bold-4d"/>
     <use xlink:href="#Georgia-Bold-61" transform="translate(102.34375 0)"/>
     <use xlink:href="#Georgia-Bold-6a" transform="translate(161.914062 0)"/>
     <use xlink:href="#Georgia-Bold-6f" transform="translate(196.533203 0)"/>
     <use xlink:href="#Georgia-Bold-72" transform="translate(260.107422 0)"/>
     <use xlink:href="#Georgia-Bold-69" transform="translate(312.109375 0)"/>
     <use xlink:href="#Georgia-Bold-74" transform="translate(347.460938 0)"/>
     <use xlink:href="#Georgia-Bold-79" transform="translate(387.207031 0)"/>
     <use xlink:href="#Georgia-Bold-20" transform="translate(443.408203 0)"/>
     <use xlink:href="#Georgia-Bold-32" transform="translate(468.798828 0)"/>
     <use xlink:href="#Georgia-Bold-30" transform="translate(531.445312 0)"/>
     <use xlink:href="#Georgia-Bold-32" transform="translate(601.5625 0)"/>
     <use xlink:href="#Georgia-Bold-36" transform="translate(664.208984 0)"/>
    </g>
   </g>
   <g id="text_10">
    <!-- +0.10% -->
    <g style="fill: #1a1a1a" transform="translate(142.50475 104.933714) scale(0.08 -0.08)">
     <defs>
      <path id="Georgia-Bold-2b" d="M 3984 1541 
L 2506 1541 
L 2506 63 
L 1991 63 
L 1991 1541 
L 513 1541 
L 513 2050 
L 1991 2050 
L 1991 3528 
L 2506 3528 
L 2506 2050 
L 3984 2050 
L 3984 1541 
z
" transform="scale(0.015625)"/>
      <path id="Georgia-Bold-2e" d="M 1669 519 
Q 1669 272 1486 90 
Q 1303 -91 1053 -91 
Q 800 -91 617 89 
Q 434 269 434 519 
Q 434 769 617 951 
Q 800 1134 1053 1134 
Q 1303 1134 1486 950 
Q 1669 766 1669 519 
z
" transform="scale(0.015625)"/>
      <path id="Georgia-Bold-31" d="M 2956 0 
L 378 0 
L 378 238 
Q 472 244 676 269 
Q 881 294 956 319 
Q 1050 350 1103 425 
Q 1156 500 1156 631 
L 1156 2613 
L 366 2613 
L 366 2909 
L 538 2909 
Q 809 2909 1007 2968 
Q 1206 3028 1338 3113 
Q 1472 3200 1558 3294 
Q 1644 3388 1694 3459 
L 2244 3459 
Q 2234 3256 2225 2984 
Q 2216 2713 2216 2497 
L 2216 666 
Q 2216 553 2264 470 
Q 2313 388 2403 344 
Q 2484 306 2675 275 
Q 2866 244 2956 238 
L 2956 0 
z
" transform="scale(0.015625)"/>
      <path id="Georgia-Bold-25" d="M 2719 3394 
Q 2719 2872 2367 2548 
Q 2016 2225 1503 2225 
Q 984 2225 634 2548 
Q 284 2872 284 3394 
Q 284 3916 634 4239 
Q 984 4563 1500 4563 
Q 2016 4563 2367 4239 
Q 2719 3916 2719 3394 
z
M 1891 3388 
Q 1891 3819 1806 4076 
Q 1722 4334 1497 4334 
Q 1294 4334 1203 4092 
Q 1113 3850 1113 3419 
Q 1113 2969 1195 2711 
Q 1278 2453 1509 2453 
Q 1709 2453 1800 2695 
Q 1891 2938 1891 3388 
z
M 5344 1059 
Q 5344 538 4992 214 
Q 4641 -109 4128 -109 
Q 3609 -109 3259 214 
Q 2909 538 2909 1059 
Q 2909 1581 3259 1904 
Q 3609 2228 4125 2228 
Q 4641 2228 4992 1904 
Q 5344 1581 5344 1059 
z
M 4516 1053 
Q 4516 1484 4431 1742 
Q 4347 2000 4122 2000 
Q 3919 2000 3828 1758 
Q 3738 1516 3738 1084 
Q 3738 634 3820 376 
Q 3903 119 4134 119 
Q 4334 119 4425 361 
Q 4516 603 4516 1053 
z
M 4919 4463 
L 1222 0 
L 713 0 
L 4400 4463 
L 4919 4463 
z
" transform="scale(0.015625)"/>
     </defs>
     <use xlink:href="#Georgia-Bold-2b"/>
     <use xlink:href="#Georgia-Bold-30" transform="translate(70.3125 0)"/>
     <use xlink:href="#Georgia-Bold-2e" transform="translate(140.429688 0)"/>
     <use xlink:href="#Georgia-Bold-31" transform="translate(173.242188 0)"/>
     <use xlink:href="#Georgia-Bold-30" transform="translate(222.216797 0)"/>
     <use xlink:href="#Georgia-Bold-25" transform="translate(292.333984 0)"/>
    </g>
   </g>
   <g id="text_11">
    <!-- Minority 2026 -->
    <g style="fill: #1a1a1a" transform="translate(18.06 145.314844) scale(0.09 -0.09)">
     <defs>
      <path id="Georgia-Bold-6e" d="M 4306 0 
L 2425 0 
L 2425 228 
Q 2484 234 2568 243 
Q 2653 253 2697 275 
Q 2763 309 2791 375 
Q 2819 441 2819 569 
L 2819 2031 
Q 2819 2350 2701 2511 
Q 2584 2672 2356 2672 
Q 2231 2672 2123 2634 
Q 2016 2597 1913 2525 
Q 1822 2463 1767 2397 
Q 1713 2331 1675 2281 
L 1675 603 
Q 1675 494 1706 420 
Q 1738 347 1809 309 
Q 1859 281 1934 259 
Q 2009 238 2081 228 
L 2081 0 
L 181 0 
L 181 228 
Q 259 234 339 245 
Q 419 256 475 275 
Q 575 309 612 381 
Q 650 453 650 569 
L 650 2388 
Q 650 2484 600 2578 
Q 550 2672 469 2731 
Q 413 2769 327 2794 
Q 241 2819 138 2828 
L 138 3056 
L 1628 3138 
L 1675 3091 
L 1675 2638 
L 1688 2638 
Q 1775 2716 1900 2825 
Q 2025 2934 2131 3003 
Q 2247 3078 2434 3131 
Q 2622 3184 2834 3184 
Q 3344 3184 3598 2895 
Q 3853 2606 3853 2128 
L 3853 597 
Q 3853 481 3887 412 
Q 3922 344 4016 303 
Q 4066 281 4139 259 
Q 4213 238 4306 228 
L 4306 0 
z
" transform="scale(0.015625)"/>
     </defs>
     <use xlink:href="#Georgia-Bold-4d"/>
     <use xlink:href="#Georgia-Bold-69" transform="translate(102.34375 0)"/>
     <use xlink:href="#Georgia-Bold-6e" transform="translate(137.695312 0)"/>
     <use xlink:href="#Georgia-Bold-6f" transform="translate(206.689453 0)"/>
     <use xlink:href="#Georgia-Bold-72" transform="translate(270.263672 0)"/>
     <use xlink:href="#Georgia-Bold-69" transform="translate(322.265625 0)"/>
     <use xlink:href="#Georgia-Bold-74" transform="translate(357.617188 0)"/>
     <use xlink:href="#Georgia-Bold-79" transform="translate(397.363281 0)"/>
     <use xlink:href="#Georgia-Bold-20" transform="translate(453.564453 0)"/>
     <use xlink:href="#Georgia-Bold-32" transform="translate(478.955078 0)"/>
     <use xlink:href="#Georgia-Bold-30" transform="translate(541.601562 0)"/>
     <use xlink:href="#Georgia-Bold-32" transform="translate(611.71875 0)"/>
     <use xlink:href="#Georgia-Bold-36" transform="translate(674.365234 0)"/>
    </g>
   </g>
   <g id="text_12">
    <!-- +4.02% -->
    <g style="fill: #1a1a1a" transform="translate(237.12515 171.604696) scale(0.08 -0.08)">
     <defs>
      <path id="Georgia-Bold-34" d="M 3941 31 
L 3269 31 
L 3269 -1153 
L 2222 -1153 
L 2222 31 
L 153 31 
L 153 606 
L 2397 3447 
L 3269 3447 
L 3269 691 
L 3941 691 
L 3941 31 
z
M 2222 691 
L 2222 2700 
L 631 691 
L 2222 691 
z
" transform="scale(0.015625)"/>
     </defs>
     <use xlink:href="#Georgia-Bold-2b"/>
     <use xlink:href="#Georgia-Bold-34" transform="translate(70.3125 0)"/>
     <use xlink:href="#Georgia-Bold-2e" transform="translate(135.253906 0)"/>
     <use xlink:href="#Georgia-Bold-30" transform="translate(168.066406 0)"/>
     <use xlink:href="#Georgia-Bold-32" transform="translate(238.183594 0)"/>
     <use xlink:href="#Georgia-Bold-25" transform="translate(300.830078 0)"/>
    </g>
   </g>
   <g id="text_13">
    <!-- Alberta line -->
    <g style="fill: #7b2d3e" transform="translate(284.0136 24.839308) scale(0.07 -0.07)">
     <defs>
      <path id="Georgia-Bold-41" d="M 5028 0 
L 2613 0 
L 2613 244 
Q 2781 256 3009 304 
Q 3238 353 3238 425 
Q 3238 450 3233 481 
Q 3228 513 3206 566 
L 2828 1484 
L 1297 1484 
Q 1244 1356 1180 1184 
Q 1116 1013 1069 878 
Q 1009 703 998 625 
Q 988 547 988 516 
Q 988 416 1139 345 
Q 1291 275 1644 244 
L 1644 0 
L -175 0 
L -175 244 
Q -72 250 58 276 
Q 188 303 263 350 
Q 391 425 480 534 
Q 569 644 628 794 
Q 991 1672 1355 2553 
Q 1719 3434 2159 4497 
L 2784 4497 
Q 3397 2991 3744 2116 
Q 4091 1241 4334 666 
Q 4375 572 4437 495 
Q 4500 419 4616 350 
Q 4703 300 4818 275 
Q 4934 250 5028 244 
L 5028 0 
z
M 2700 1794 
L 2056 3400 
L 1422 1794 
L 2700 1794 
z
" transform="scale(0.015625)"/>
      <path id="Georgia-Bold-6c" d="M 2084 0 
L 125 0 
L 125 228 
Q 206 234 282 243 
Q 359 253 419 275 
Q 519 313 555 383 
Q 591 453 591 569 
L 591 4031 
Q 591 4150 542 4251 
Q 494 4353 413 4406 
Q 350 4447 223 4484 
Q 97 4522 0 4528 
L 0 4756 
L 1572 4838 
L 1619 4788 
L 1619 609 
Q 1619 494 1659 422 
Q 1700 350 1791 309 
Q 1853 281 1922 259 
Q 1991 238 2084 228 
L 2084 0 
z
" transform="scale(0.015625)"/>
      <path id="Georgia-Bold-62" d="M 3909 1528 
Q 3909 825 3445 362 
Q 2981 -100 2269 -100 
Q 1994 -100 1795 -61 
Q 1597 -22 1459 34 
Q 1316 94 1230 151 
Q 1144 209 1094 247 
L 647 -159 
L 463 -88 
Q 478 141 489 408 
Q 500 675 500 1128 
L 500 4053 
Q 500 4172 451 4273 
Q 403 4375 322 4428 
Q 263 4466 148 4494 
Q 34 4522 -63 4528 
L -63 4756 
L 1481 4838 
L 1528 4788 
L 1528 2756 
L 1547 2756 
Q 1775 2978 2015 3081 
Q 2256 3184 2497 3184 
Q 3153 3184 3531 2737 
Q 3909 2291 3909 1528 
z
M 2788 1491 
Q 2788 1728 2752 1948 
Q 2716 2169 2631 2338 
Q 2547 2506 2409 2607 
Q 2272 2709 2069 2709 
Q 1878 2709 1753 2646 
Q 1628 2584 1528 2463 
L 1528 644 
Q 1547 581 1598 479 
Q 1650 378 1703 322 
Q 1778 241 1862 198 
Q 1947 156 2100 156 
Q 2419 156 2603 504 
Q 2788 853 2788 1491 
z
" transform="scale(0.015625)"/>
      <path id="Georgia-Bold-65" d="M 3541 747 
Q 3431 569 3276 411 
Q 3122 253 2925 141 
Q 2716 22 2502 -39 
Q 2288 -100 2009 -100 
Q 1547 -100 1211 31 
Q 875 163 656 384 
Q 438 606 330 907 
Q 222 1209 222 1563 
Q 222 1881 339 2173 
Q 456 2466 672 2694 
Q 884 2916 1207 3053 
Q 1531 3191 1931 3191 
Q 2369 3191 2650 3084 
Q 2931 2978 3116 2791 
Q 3294 2613 3375 2370 
Q 3456 2128 3456 1863 
L 3456 1659 
L 1344 1659 
Q 1344 1019 1591 684 
Q 1838 350 2375 350 
Q 2669 350 2903 511 
Q 3138 672 3303 919 
L 3541 747 
z
M 2347 1934 
Q 2347 2122 2328 2319 
Q 2309 2516 2263 2641 
Q 2209 2788 2117 2863 
Q 2025 2938 1884 2938 
Q 1644 2938 1500 2694 
Q 1356 2450 1344 1922 
L 2347 1934 
z
" transform="scale(0.015625)"/>
     </defs>
     <use xlink:href="#Georgia-Bold-41"/>
     <use xlink:href="#Georgia-Bold-6c" transform="translate(75.830078 0)"/>
     <use xlink:href="#Georgia-Bold-62" transform="translate(110.253906 0)"/>
     <use xlink:href="#Georgia-Bold-65" transform="translate(174.804688 0)"/>
     <use xlink:href="#Georgia-Bold-72" transform="translate(231.982422 0)"/>
     <use xlink:href="#Georgia-Bold-74" transform="translate(283.984375 0)"/>
     <use xlink:href="#Georgia-Bold-61" transform="translate(323.730469 0)"/>
     <use xlink:href="#Georgia-Bold-20" transform="translate(383.300781 0)"/>
     <use xlink:href="#Georgia-Bold-6c" transform="translate(408.691406 0)"/>
     <use xlink:href="#Georgia-Bold-69" transform="translate(443.115234 0)"/>
     <use xlink:href="#Georgia-Bold-6e" transform="translate(478.466797 0)"/>
     <use xlink:href="#Georgia-Bold-65" transform="translate(547.460938 0)"/>
    </g>
    <!-- ~4.1% -->
    <g style="fill: #7b2d3e" transform="translate(284.0136 31.648996) scale(0.07 -0.07)">
     <defs>
      <path id="Georgia-Bold-7e" d="M 4047 2297 
Q 3984 2125 3879 1944 
Q 3775 1763 3647 1622 
Q 3488 1447 3302 1342 
Q 3116 1238 2906 1238 
Q 2669 1238 2473 1320 
Q 2278 1403 2097 1509 
Q 1953 1597 1765 1690 
Q 1578 1784 1431 1784 
Q 1225 1784 1072 1636 
Q 919 1488 778 1163 
L 453 1294 
Q 500 1431 601 1615 
Q 703 1800 853 1969 
Q 994 2128 1186 2240 
Q 1378 2353 1594 2353 
Q 1850 2353 2048 2264 
Q 2247 2175 2409 2078 
Q 2575 1978 2736 1892 
Q 2897 1806 3069 1806 
Q 3288 1806 3441 1970 
Q 3594 2134 3722 2428 
L 4047 2297 
z
" transform="scale(0.015625)"/>
     </defs>
     <use xlink:href="#Georgia-Bold-7e"/>
     <use xlink:href="#Georgia-Bold-34" transform="translate(70.3125 0)"/>
     <use xlink:href="#Georgia-Bold-2e" transform="translate(135.253906 0)"/>
     <use xlink:href="#Georgia-Bold-31" transform="translate(168.066406 0)"/>
     <use xlink:href="#Georgia-Bold-25" transform="translate(217.041016 0)"/>
    </g>
   </g>
   <g id="text_14">
    <!-- US gerrymander -->
    <g style="fill: #666666" transform="translate(371.754 24.839308) scale(0.07 -0.07)">
     <defs>
      <path id="Georgia-Bold-55" d="M 5322 4191 
Q 5231 4181 5061 4148 
Q 4891 4116 4775 4034 
Q 4656 3956 4607 3753 
Q 4559 3550 4559 3144 
L 4559 1494 
Q 4559 766 4065 322 
Q 3572 -122 2759 -122 
Q 1813 -122 1294 306 
Q 775 734 775 1500 
L 775 3769 
Q 775 3878 733 3956 
Q 691 4034 572 4097 
Q 491 4138 372 4163 
Q 253 4188 178 4197 
L 178 4434 
L 2503 4434 
L 2503 4197 
Q 2403 4191 2300 4173 
Q 2197 4156 2091 4122 
Q 1972 4084 1931 3996 
Q 1891 3909 1891 3800 
L 1891 1563 
Q 1891 903 2181 603 
Q 2472 303 3025 303 
Q 3569 303 3878 634 
Q 4188 966 4188 1609 
L 4188 3113 
Q 4188 3513 4133 3711 
Q 4078 3909 3966 3997 
Q 3884 4066 3682 4122 
Q 3481 4178 3400 4191 
L 3400 4434 
L 5322 4434 
L 5322 4191 
z
" transform="scale(0.015625)"/>
      <path id="Georgia-Bold-53" d="M 2075 -119 
Q 1669 -119 1317 -19 
Q 966 81 722 219 
L 506 0 
L 241 0 
L 200 1603 
L 469 1603 
Q 559 1375 700 1122 
Q 841 869 1025 669 
Q 1216 459 1452 328 
Q 1688 197 2003 197 
Q 2428 197 2654 405 
Q 2881 613 2881 928 
Q 2881 1188 2689 1364 
Q 2497 1541 2094 1669 
Q 1831 1753 1611 1825 
Q 1391 1897 1197 1972 
Q 750 2150 533 2481 
Q 316 2813 316 3222 
Q 316 3481 428 3720 
Q 541 3959 756 4150 
Q 963 4328 1284 4440 
Q 1606 4553 1984 4553 
Q 2353 4553 2675 4451 
Q 2997 4350 3181 4247 
L 3372 4434 
L 3644 4434 
L 3669 2922 
L 3400 2922 
Q 3306 3166 3179 3420 
Q 3053 3675 2913 3844 
Q 2759 4025 2559 4133 
Q 2359 4241 2091 4241 
Q 1753 4241 1539 4050 
Q 1325 3859 1325 3578 
Q 1325 3313 1511 3144 
Q 1697 2975 2091 2847 
Q 2322 2769 2562 2691 
Q 2803 2613 2991 2541 
Q 3444 2366 3680 2058 
Q 3916 1750 3916 1294 
Q 3916 1006 3781 737 
Q 3647 469 3419 291 
Q 3169 94 2841 -12 
Q 2513 -119 2075 -119 
z
" transform="scale(0.015625)"/>
      <path id="Georgia-Bold-67" d="M 3681 2750 
L 2994 2750 
Q 3116 2613 3177 2459 
Q 3238 2306 3238 2141 
Q 3238 1925 3122 1736 
Q 3006 1547 2819 1428 
Q 2628 1306 2372 1237 
Q 2116 1169 1816 1169 
L 1306 1169 
Q 1269 1141 1223 1080 
Q 1178 1019 1178 963 
Q 1178 825 1287 772 
Q 1397 719 1684 713 
Q 1969 706 2259 689 
Q 2550 672 2675 669 
Q 2856 659 3034 595 
Q 3213 531 3344 428 
Q 3488 319 3581 148 
Q 3675 -22 3675 -244 
Q 3675 -481 3561 -690 
Q 3447 -900 3213 -1053 
Q 2966 -1213 2620 -1300 
Q 2275 -1388 1766 -1388 
Q 944 -1388 516 -1188 
Q 88 -988 88 -588 
Q 88 -341 319 -181 
Q 550 -22 1038 -6 
L 1038 31 
Q 750 128 589 289 
Q 428 450 428 663 
Q 428 794 492 884 
Q 556 975 656 1044 
Q 744 1103 869 1145 
Q 994 1188 1078 1213 
L 1078 1247 
Q 656 1403 457 1628 
Q 259 1853 259 2178 
Q 259 2638 682 2913 
Q 1106 3188 1756 3188 
Q 1969 3188 2167 3152 
Q 2366 3116 2469 3088 
L 3681 3088 
L 3681 2750 
z
M 2216 2153 
Q 2216 2519 2100 2731 
Q 1984 2944 1744 2944 
Q 1622 2944 1531 2886 
Q 1441 2828 1384 2719 
Q 1331 2613 1312 2470 
Q 1294 2328 1294 2178 
Q 1294 1838 1412 1619 
Q 1531 1400 1750 1400 
Q 1975 1400 2095 1597 
Q 2216 1794 2216 2153 
z
M 2741 -472 
Q 2741 -366 2681 -261 
Q 2622 -156 2416 -91 
Q 2303 -72 2045 -65 
Q 1788 -59 1338 -59 
Q 1228 -153 1154 -281 
Q 1081 -409 1081 -591 
Q 1081 -669 1125 -762 
Q 1169 -856 1263 -938 
Q 1372 -1028 1506 -1079 
Q 1641 -1131 1913 -1131 
Q 2316 -1131 2528 -975 
Q 2741 -819 2741 -472 
z
" transform="scale(0.015625)"/>
      <path id="Georgia-Bold-6d" d="M 6391 0 
L 4528 0 
L 4528 228 
Q 4597 238 4672 244 
Q 4747 250 4797 275 
Q 4866 306 4884 379 
Q 4903 453 4903 569 
L 4903 2028 
Q 4903 2350 4789 2511 
Q 4675 2672 4463 2672 
Q 4328 2672 4223 2630 
Q 4119 2588 4031 2525 
Q 3941 2459 3891 2393 
Q 3841 2328 3806 2281 
L 3806 603 
Q 3806 491 3832 420 
Q 3859 350 3931 309 
Q 3981 281 4045 259 
Q 4109 238 4181 228 
L 4181 0 
L 2397 0 
L 2397 228 
Q 2456 234 2540 243 
Q 2625 253 2666 275 
Q 2731 309 2751 375 
Q 2772 441 2772 569 
L 2772 2028 
Q 2772 2350 2658 2511 
Q 2544 2672 2331 2672 
Q 2197 2672 2092 2630 
Q 1988 2588 1900 2525 
Q 1809 2459 1759 2393 
Q 1709 2328 1675 2281 
L 1675 603 
Q 1675 494 1703 422 
Q 1731 350 1803 309 
Q 1853 281 1917 259 
Q 1981 238 2053 228 
L 2053 0 
L 181 0 
L 181 228 
Q 263 234 341 243 
Q 419 253 475 275 
Q 575 313 612 383 
Q 650 453 650 569 
L 650 2388 
Q 650 2488 597 2583 
Q 544 2678 469 2731 
Q 413 2769 327 2794 
Q 241 2819 138 2828 
L 138 3056 
L 1628 3138 
L 1675 3091 
L 1675 2650 
L 1688 2650 
Q 1775 2728 1895 2836 
Q 2016 2944 2122 3009 
Q 2238 3084 2419 3134 
Q 2600 3184 2816 3184 
Q 3172 3184 3411 3029 
Q 3650 2875 3750 2619 
L 3778 2619 
Q 3869 2703 4000 2817 
Q 4131 2931 4241 3000 
Q 4363 3078 4552 3131 
Q 4741 3184 4956 3184 
Q 5428 3184 5683 2906 
Q 5938 2628 5938 2116 
L 5938 597 
Q 5938 481 5972 411 
Q 6006 341 6097 303 
Q 6147 281 6220 259 
Q 6294 238 6391 228 
L 6391 0 
z
" transform="scale(0.015625)"/>
      <path id="Georgia-Bold-64" d="M 4222 66 
L 2681 -25 
L 2634 19 
L 2634 306 
L 2613 313 
Q 2459 147 2198 23 
Q 1938 -100 1672 -100 
Q 1041 -100 631 369 
Q 222 838 222 1581 
Q 222 2241 680 2712 
Q 1138 3184 1788 3184 
Q 2044 3184 2269 3126 
Q 2494 3069 2628 2991 
L 2628 4013 
Q 2628 4128 2581 4229 
Q 2534 4331 2456 4388 
Q 2359 4456 2214 4486 
Q 2069 4516 1922 4528 
L 1922 4756 
L 3609 4838 
L 3656 4788 
L 3656 691 
Q 3656 572 3695 490 
Q 3734 409 3822 363 
Q 3888 328 4014 312 
Q 4141 297 4222 294 
L 4222 66 
z
M 2628 622 
L 2628 2388 
Q 2606 2459 2567 2546 
Q 2528 2634 2459 2713 
Q 2397 2778 2292 2828 
Q 2188 2878 2056 2878 
Q 1744 2878 1544 2525 
Q 1344 2172 1344 1528 
Q 1344 1275 1380 1073 
Q 1416 872 1506 706 
Q 1597 541 1739 447 
Q 1881 353 2081 353 
Q 2272 353 2397 426 
Q 2522 500 2628 622 
z
" transform="scale(0.015625)"/>
     </defs>
     <use xlink:href="#Georgia-Bold-55"/>
     <use xlink:href="#Georgia-Bold-53" transform="translate(83.349609 0)"/>
     <use xlink:href="#Georgia-Bold-20" transform="translate(148.242188 0)"/>
     <use xlink:href="#Georgia-Bold-67" transform="translate(173.632812 0)"/>
     <use xlink:href="#Georgia-Bold-65" transform="translate(231.298828 0)"/>
     <use xlink:href="#Georgia-Bold-72" transform="translate(288.476562 0)"/>
     <use xlink:href="#Georgia-Bold-72" transform="translate(340.478516 0)"/>
     <use xlink:href="#Georgia-Bold-79" transform="translate(392.480469 0)"/>
     <use xlink:href="#Georgia-Bold-6d" transform="translate(448.681641 0)"/>
     <use xlink:href="#Georgia-Bold-61" transform="translate(550.244141 0)"/>
     <use xlink:href="#Georgia-Bold-6e" transform="translate(609.814453 0)"/>
     <use xlink:href="#Georgia-Bold-64" transform="translate(678.808594 0)"/>
     <use xlink:href="#Georgia-Bold-65" transform="translate(745.117188 0)"/>
     <use xlink:href="#Georgia-Bold-72" transform="translate(802.294922 0)"/>
    </g>
    <!-- signal line -->
    <g style="fill: #666666" transform="translate(371.754 31.648996) scale(0.07 -0.07)">
     <defs>
      <path id="Georgia-Bold-73" d="M 1628 -106 
Q 1325 -106 1036 -17 
Q 747 72 588 172 
L 494 -41 
L 250 -41 
L 209 1125 
L 438 1125 
Q 484 984 593 807 
Q 703 631 844 491 
Q 991 350 1180 253 
Q 1369 156 1584 156 
Q 1869 156 2008 267 
Q 2147 378 2147 609 
Q 2147 734 2084 815 
Q 2022 897 1913 956 
Q 1791 1019 1645 1062 
Q 1500 1106 1288 1169 
Q 1075 1231 923 1295 
Q 772 1359 609 1497 
Q 469 1619 384 1791 
Q 300 1963 300 2200 
Q 300 2641 670 2912 
Q 1041 3184 1641 3184 
Q 1925 3184 2164 3126 
Q 2403 3069 2566 3000 
L 2631 3184 
L 2869 3184 
L 2919 2119 
L 2697 2119 
Q 2588 2444 2322 2680 
Q 2056 2916 1750 2916 
Q 1509 2916 1371 2816 
Q 1234 2716 1234 2538 
Q 1234 2300 1436 2194 
Q 1638 2088 2000 1994 
Q 2559 1850 2818 1601 
Q 3078 1353 3078 969 
Q 3078 456 2676 175 
Q 2275 -106 1628 -106 
z
" transform="scale(0.015625)"/>
     </defs>
     <use xlink:href="#Georgia-Bold-73"/>
     <use xlink:href="#Georgia-Bold-69" transform="translate(51.269531 0)"/>
     <use xlink:href="#Georgia-Bold-67" transform="translate(86.621094 0)"/>
     <use xlink:href="#Georgia-Bold-6e" transform="translate(144.287109 0)"/>
     <use xlink:href="#Georgia-Bold-61" transform="translate(213.28125 0)"/>
     <use xlink:href="#Georgia-Bold-6c" transform="translate(272.851562 0)"/>
     <use xlink:href="#Georgia-Bold-20" transform="translate(307.275391 0)"/>
     <use xlink:href="#Georgia-Bold-6c" transform="translate(332.666016 0)"/>
     <use xlink:href="#Georgia-Bold-69" transform="translate(367.089844 0)"/>
     <use xlink:href="#Georgia-Bold-6e" transform="translate(402.441406 0)"/>
     <use xlink:href="#Georgia-Bold-65" transform="translate(471.435547 0)"/>
    </g>
    <!-- 7% -->
    <g style="fill: #666666" transform="translate(371.754 38.458683) scale(0.07 -0.07)">
     <defs>
      <path id="Georgia-Bold-37" d="M 3575 2994 
L 1300 -1153 
L 831 -1153 
L 2938 2525 
L 1506 2525 
Q 1234 2525 1081 2522 
Q 928 2519 800 2459 
Q 697 2413 623 2242 
Q 550 2072 506 1825 
L 278 1825 
L 278 3366 
L 3575 3366 
L 3575 2994 
z
" transform="scale(0.015625)"/>
     </defs>
     <use xlink:href="#Georgia-Bold-37"/>
     <use xlink:href="#Georgia-Bold-25" transform="translate(55.419922 0)"/>
    </g>
   </g>
   <g id="text_15">
    <!-- &lt;- NDP-favoured -->
    <g style="fill: #ea7414" transform="translate(8.952 24.839308) scale(0.07 -0.07)">
     <defs>
      <path id="Georgia-Bold-3c" d="M 3778 19 
L 653 1581 
L 653 2016 
L 3778 3578 
L 3778 2991 
L 1322 1797 
L 3778 606 
L 3778 19 
z
" transform="scale(0.015625)"/>
      <path id="Georgia-Bold-2d" d="M 2159 1359 
L 266 1359 
L 266 2050 
L 2159 2050 
L 2159 1359 
z
" transform="scale(0.015625)"/>
      <path id="Georgia-Bold-4e" d="M 5309 4191 
Q 5222 4181 5059 4156 
Q 4897 4131 4766 4034 
Q 4650 3950 4601 3745 
Q 4553 3541 4553 3144 
L 4553 -25 
L 3997 -25 
L 1234 3403 
L 1234 1322 
Q 1234 934 1286 732 
Q 1338 531 1453 438 
Q 1538 369 1722 316 
Q 1906 263 2016 244 
L 2016 0 
L 109 0 
L 109 244 
Q 231 253 389 289 
Q 547 325 653 400 
Q 775 491 820 673 
Q 866 856 866 1288 
L 866 3388 
Q 866 3544 817 3683 
Q 769 3822 666 3922 
Q 556 4028 414 4089 
Q 272 4150 91 4184 
L 91 4434 
L 1759 4434 
L 4184 1434 
L 4184 3113 
Q 4184 3513 4131 3708 
Q 4078 3903 3963 3997 
Q 3872 4069 3694 4120 
Q 3516 4172 3406 4191 
L 3406 4434 
L 5309 4434 
L 5309 4191 
z
" transform="scale(0.015625)"/>
      <path id="Georgia-Bold-44" d="M 4209 3978 
Q 4616 3713 4866 3270 
Q 5116 2828 5116 2188 
Q 5116 1625 4892 1208 
Q 4669 791 4300 525 
Q 3925 259 3448 129 
Q 2972 0 2450 0 
L 216 0 
L 216 244 
Q 316 247 466 262 
Q 616 278 666 300 
Q 778 347 822 426 
Q 866 506 866 619 
L 866 3763 
Q 866 3869 825 3955 
Q 784 4041 666 4094 
Q 547 4147 414 4165 
Q 281 4184 209 4191 
L 209 4434 
L 2569 4434 
Q 2947 4434 3378 4337 
Q 3809 4241 4209 3978 
z
M 3572 800 
Q 3725 1050 3795 1395 
Q 3866 1741 3866 2191 
Q 3866 2631 3772 2993 
Q 3678 3356 3497 3613 
Q 3316 3869 3045 4009 
Q 2775 4150 2431 4150 
Q 2322 4150 2183 4145 
Q 2044 4141 1975 4138 
L 1975 772 
Q 1975 659 2004 573 
Q 2034 488 2106 422 
Q 2178 356 2283 320 
Q 2388 284 2556 284 
Q 2909 284 3162 415 
Q 3416 547 3572 800 
z
" transform="scale(0.015625)"/>
      <path id="Georgia-Bold-50" d="M 4372 3325 
Q 4372 2950 4217 2679 
Q 4063 2409 3791 2241 
Q 3509 2066 3148 1987 
Q 2788 1909 2338 1909 
L 1975 1909 
L 1975 663 
Q 1975 550 2017 467 
Q 2059 384 2178 334 
Q 2241 309 2381 281 
Q 2522 253 2619 244 
L 2619 0 
L 216 0 
L 216 244 
Q 306 253 456 270 
Q 606 288 666 313 
Q 788 363 827 434 
Q 866 506 866 634 
L 866 3763 
Q 866 3872 828 3951 
Q 791 4031 666 4084 
Q 578 4122 433 4151 
Q 288 4181 216 4191 
L 216 4434 
L 2663 4434 
Q 3522 4434 3947 4161 
Q 4372 3888 4372 3325 
z
M 3153 3166 
Q 3153 3666 2951 3908 
Q 2750 4150 2234 4150 
L 1975 4150 
L 1975 2203 
L 2106 2203 
Q 2619 2203 2886 2439 
Q 3153 2675 3153 3166 
z
" transform="scale(0.015625)"/>
      <path id="Georgia-Bold-66" d="M 3138 4309 
Q 3138 4231 3113 4137 
Q 3088 4044 3031 3978 
Q 2966 3900 2884 3859 
Q 2803 3819 2641 3819 
Q 2394 3819 2253 3991 
Q 2113 4163 1953 4563 
Q 1828 4509 1750 4287 
Q 1672 4066 1672 3334 
L 1672 3088 
L 2534 3088 
L 2534 2750 
L 1678 2750 
L 1678 597 
Q 1678 475 1734 408 
Q 1791 341 1881 309 
Q 1956 284 2078 261 
Q 2200 238 2297 228 
L 2297 0 
L 188 0 
L 188 228 
Q 269 234 345 243 
Q 422 253 481 275 
Q 581 313 617 383 
Q 653 453 653 569 
L 653 2750 
L 19 2750 
L 19 3088 
L 653 3088 
Q 653 3422 750 3736 
Q 847 4050 1050 4297 
Q 1247 4541 1569 4691 
Q 1891 4841 2325 4841 
Q 2713 4841 2925 4694 
Q 3138 4547 3138 4309 
z
" transform="scale(0.015625)"/>
      <path id="Georgia-Bold-76" d="M 3744 2872 
Q 3603 2850 3470 2765 
Q 3338 2681 3250 2503 
Q 3031 2047 2820 1583 
Q 2609 1119 2406 684 
Q 2344 553 2264 347 
Q 2184 141 2131 -28 
L 1556 -28 
Q 1197 806 942 1356 
Q 688 1906 403 2538 
Q 338 2684 198 2768 
Q 59 2853 -84 2872 
L -84 3100 
L 1841 3100 
L 1841 2872 
Q 1734 2869 1590 2825 
Q 1447 2781 1447 2713 
Q 1447 2694 1459 2656 
Q 1472 2619 1491 2572 
Q 1591 2334 1792 1887 
Q 1994 1441 2219 947 
Q 2375 1288 2517 1614 
Q 2659 1941 2869 2447 
Q 2897 2522 2901 2569 
Q 2906 2616 2906 2631 
Q 2906 2688 2851 2730 
Q 2797 2772 2722 2803 
Q 2644 2834 2572 2850 
Q 2500 2866 2453 2872 
L 2453 3100 
L 3744 3100 
L 3744 2872 
z
" transform="scale(0.015625)"/>
      <path id="Georgia-Bold-75" d="M 4259 66 
L 2769 -25 
L 2722 19 
L 2722 428 
L 2703 428 
Q 2597 331 2495 239 
Q 2394 147 2253 72 
Q 2094 -13 1951 -53 
Q 1809 -94 1538 -94 
Q 1066 -94 814 190 
Q 563 475 563 994 
L 563 2400 
Q 563 2522 516 2598 
Q 469 2675 391 2734 
Q 328 2781 228 2801 
Q 128 2822 47 2828 
L 47 3056 
L 1563 3138 
L 1597 3091 
L 1597 1013 
Q 1597 691 1720 537 
Q 1844 384 2059 384 
Q 2281 384 2457 500 
Q 2634 616 2716 747 
L 2716 2431 
Q 2716 2538 2675 2622 
Q 2634 2706 2556 2759 
Q 2500 2797 2395 2809 
Q 2291 2822 2181 2828 
L 2181 3056 
L 3697 3138 
L 3744 3091 
L 3744 678 
Q 3744 569 3787 492 
Q 3831 416 3916 363 
Q 3975 325 4070 311 
Q 4166 297 4259 294 
L 4259 66 
z
" transform="scale(0.015625)"/>
     </defs>
     <use xlink:href="#Georgia-Bold-3c"/>
     <use xlink:href="#Georgia-Bold-2d" transform="translate(70.3125 0)"/>
     <use xlink:href="#Georgia-Bold-20" transform="translate(108.203125 0)"/>
     <use xlink:href="#Georgia-Bold-4e" transform="translate(133.59375 0)"/>
     <use xlink:href="#Georgia-Bold-44" transform="translate(217.529297 0)"/>
     <use xlink:href="#Georgia-Bold-50" transform="translate(300.927734 0)"/>
     <use xlink:href="#Georgia-Bold-2d" transform="translate(371.044922 0)"/>
     <use xlink:href="#Georgia-Bold-66" transform="translate(408.935547 0)"/>
     <use xlink:href="#Georgia-Bold-61" transform="translate(448.242188 0)"/>
     <use xlink:href="#Georgia-Bold-76" transform="translate(507.8125 0)"/>
     <use xlink:href="#Georgia-Bold-6f" transform="translate(564.501953 0)"/>
     <use xlink:href="#Georgia-Bold-75" transform="translate(628.076172 0)"/>
     <use xlink:href="#Georgia-Bold-72" transform="translate(695.751953 0)"/>
     <use xlink:href="#Georgia-Bold-65" transform="translate(747.753906 0)"/>
     <use xlink:href="#Georgia-Bold-64" transform="translate(804.931641 0)"/>
    </g>
   </g>
   <g id="text_16">
    <!-- UCP-favoured -&gt; -->
    <g style="fill: #225d9e" transform="translate(382.984219 24.839308) scale(0.07 -0.07)">
     <defs>
      <path id="Georgia-Bold-43" d="M 2541 -119 
Q 2053 -119 1628 39 
Q 1203 197 888 497 
Q 578 791 400 1223 
Q 222 1656 222 2175 
Q 222 2691 401 3130 
Q 581 3569 906 3891 
Q 1225 4206 1672 4379 
Q 2119 4553 2628 4553 
Q 2997 4553 3300 4464 
Q 3603 4375 3813 4263 
L 4006 4434 
L 4278 4434 
L 4306 2816 
L 4031 2816 
Q 3797 3556 3469 3903 
Q 3141 4250 2669 4250 
Q 2081 4250 1775 3733 
Q 1469 3216 1469 2281 
Q 1469 1753 1573 1379 
Q 1678 1006 1847 778 
Q 2028 541 2275 430 
Q 2522 319 2822 319 
Q 3259 319 3601 556 
Q 3944 794 4225 1275 
L 4494 1113 
Q 4359 838 4187 620 
Q 4016 403 3791 247 
Q 3544 75 3245 -22 
Q 2947 -119 2541 -119 
z
" transform="scale(0.015625)"/>
      <path id="Georgia-Bold-3e" d="M 3847 1581 
L 722 19 
L 722 606 
L 3178 1797 
L 722 2991 
L 722 3578 
L 3847 2016 
L 3847 1581 
z
" transform="scale(0.015625)"/>
     </defs>
     <use xlink:href="#Georgia-Bold-55"/>
     <use xlink:href="#Georgia-Bold-43" transform="translate(83.349609 0)"/>
     <use xlink:href="#Georgia-Bold-50" transform="translate(154.882812 0)"/>
     <use xlink:href="#Georgia-Bold-2d" transform="translate(225 0)"/>
     <use xlink:href="#Georgia-Bold-66" transform="translate(262.890625 0)"/>
     <use xlink:href="#Georgia-Bold-61" transform="translate(302.197266 0)"/>
     <use xlink:href="#Georgia-Bold-76" transform="translate(361.767578 0)"/>
     <use xlink:href="#Georgia-Bold-6f" transform="translate(418.457031 0)"/>
     <use xlink:href="#Georgia-Bold-75" transform="translate(482.03125 0)"/>
     <use xlink:href="#Georgia-Bold-72" transform="translate(549.707031 0)"/>
     <use xlink:href="#Georgia-Bold-65" transform="translate(601.708984 0)"/>
     <use xlink:href="#Georgia-Bold-64" transform="translate(658.886719 0)"/>
     <use xlink:href="#Georgia-Bold-20" transform="translate(725.195312 0)"/>
     <use xlink:href="#Georgia-Bold-2d" transform="translate(750.585938 0)"/>
     <use xlink:href="#Georgia-Bold-3e" transform="translate(788.476562 0)"/>
    </g>
   </g>
   <g id="line2d_11">
    <defs>
     <path id="m69218c96ca" d="M 0 6 
C 1.591219 6 3.117479 5.367802 4.242641 4.242641 
C 5.367802 3.117479 6 1.591219 6 0 
C 6 -1.591219 5.367802 -3.117479 4.242641 -4.242641 
C 3.117479 -5.367802 1.591219 -6 0 -6 
C -1.591219 -6 -3.117479 -5.367802 -4.242641 -4.242641 
C -5.367802 -3.117479 -6 -1.591219 -6 0 
C -6 1.591219 -5.367802 3.117479 -4.242641 4.242641 
C -3.117479 5.367802 -1.591219 6 0 6 
z
" style="stroke: #1a1a1a; stroke-width: 0.6"/>
    </defs>
    <g clip-path="url(#p3ed50b9449)">
     <use xlink:href="#m69218c96ca" x="157.716" y="76.21808" style="fill: #1a7a6e; stroke: #1a1a1a; stroke-width: 0.6"/>
    </g>
   </g>
   <g id="line2d_12">
    <defs>
     <path id="m45a19a8809" d="M 0 6 
C 1.591219 6 3.117479 5.367802 4.242641 4.242641 
C 5.367802 3.117479 6 1.591219 6 0 
C 6 -1.591219 5.367802 -3.117479 4.242641 -4.242641 
C 3.117479 -5.367802 1.591219 -6 0 -6 
C -1.591219 -6 -3.117479 -5.367802 -4.242641 -4.242641 
C -5.367802 -3.117479 -6 -1.591219 -6 0 
C -6 1.591219 -5.367802 3.117479 -4.242641 4.242641 
C -3.117479 5.367802 -1.591219 6 0 6 
z
" style="stroke: #1a1a1a; stroke-width: 0.6"/>
    </defs>
    <g clip-path="url(#p3ed50b9449)">
     <use xlink:href="#m45a19a8809" x="276.7272" y="142.889062" style="fill: #6b35a7; stroke: #1a1a1a; stroke-width: 0.6"/>
    </g>
   </g>
  </g>
 </g>
 <defs>
  <clipPath id="p3ed50b9449">
   <rect x="2.88" y="2.88" width="455.4" height="186.67875"/>
  </clipPath>
 </defs>
</svg>
