<?xml version="1.0" encoding="utf-8" standalone="no"?>
<!DOCTYPE svg PUBLIC "-//W3C//DTD SVG 1.1//EN"
  "http://www.w3.org/Graphics/SVG/1.1/DTD/svg11.dtd">
<svg xmlns:xlink="http://www.w3.org/1999/xlink" width="462.6525pt" height="246.8875pt" viewBox="0 0 462.6525 246.8875" xmlns="http://www.w3.org/2000/svg" version="1.1">
 <metadata>
  <rdf:RDF xmlns:dc="http://purl.org/dc/elements/1.1/" xmlns:cc="http://creativecommons.org/ns#" xmlns:rdf="http://www.w3.org/1999/02/22-rdf-syntax-ns#">
   <cc:Work>
    <dc:type rdf:resource="http://purl.org/dc/dcmitype/StillImage"/>
    <dc:date>2026-05-21T00:07:11.540677</dc:date>
    <dc:format>image/svg+xml</dc:format>
    <dc:creator>
     <cc:Agent>
      <dc:title>Matplotlib v3.10.8, https://matplotlib.org/</dc:title>
     </cc:Agent>
    </dc:creator>
   </cc:Work>
  </rdf:RDF>
 </metadata>
 <defs>
  <style type="text/css">*{stroke-linejoin: round; stroke-linecap: butt}</style>
 </defs>
 <g id="figure_1">
  <g id="patch_1">
   <path d="M 0 246.8875 
L 462.6525 246.8875 
L 462.6525 0 
L 0 0 
z
" style="fill: #ffffff"/>
  </g>
  <g id="axes_1">
   <g id="patch_2">
    <path d="M 45.2625 217.99875 
L 458.3325 217.99875 
L 458.3325 4.32 
L 45.2625 4.32 
z
" style="fill: #ffffff"/>
   </g>
   <g id="patch_3">
    <path d="M 30.478624 217.99875 
L 34.881861 217.99875 
L 34.881861 217.993931 
L 30.478624 217.993931 
z
" clip-path="url(#p70440df9c7)" style="fill: #888888; fill-opacity: 0.55"/>
   </g>
   <g id="patch_4">
    <path d="M 34.881861 217.99875 
L 39.285097 217.99875 
L 39.285097 217.99875 
L 34.881861 217.99875 
z
" clip-path="url(#p70440df9c7)" style="fill: #888888; fill-opacity: 0.55"/>
   </g>
   <g id="patch_5">
    <path d="M 39.285097 217.99875 
L 43.688334 217.99875 
L 43.688334 217.99875 
L 39.285097 217.99875 
z
" clip-path="url(#p70440df9c7)" style="fill: #888888; fill-opacity: 0.55"/>
   </g>
   <g id="patch_6">
    <path d="M 43.688334 217.99875 
L 48.09157 217.99875 
L 48.09157 217.979475 
L 43.688334 217.979475 
z
" clip-path="url(#p70440df9c7)" style="fill: #888888; fill-opacity: 0.55"/>
   </g>
   <g id="patch_7">
    <path d="M 48.09157 217.99875 
L 52.494807 217.99875 
L 52.494807 217.99875 
L 48.09157 217.99875 
z
" clip-path="url(#p70440df9c7)" style="fill: #888888; fill-opacity: 0.55"/>
   </g>
   <g id="patch_8">
    <path d="M 52.494807 217.99875 
L 56.898044 217.99875 
L 56.898044 217.99875 
L 52.494807 217.99875 
z
" clip-path="url(#p70440df9c7)" style="fill: #888888; fill-opacity: 0.55"/>
   </g>
   <g id="patch_9">
    <path d="M 56.898044 217.99875 
L 61.30128 217.99875 
L 61.30128 217.955381 
L 56.898044 217.955381 
z
" clip-path="url(#p70440df9c7)" style="fill: #888888; fill-opacity: 0.55"/>
   </g>
   <g id="patch_10">
    <path d="M 61.30128 217.99875 
L 65.704517 217.99875 
L 65.704517 217.820454 
L 61.30128 217.820454 
z
" clip-path="url(#p70440df9c7)" style="fill: #888888; fill-opacity: 0.55"/>
   </g>
   <g id="patch_11">
    <path d="M 65.704517 217.99875 
L 70.107754 217.99875 
L 70.107754 217.646976 
L 65.704517 217.646976 
z
" clip-path="url(#p70440df9c7)" style="fill: #888888; fill-opacity: 0.55"/>
   </g>
   <g id="patch_12">
    <path d="M 70.107754 217.99875 
L 74.51099 217.99875 
L 74.51099 217.733715 
L 70.107754 217.733715 
z
" clip-path="url(#p70440df9c7)" style="fill: #888888; fill-opacity: 0.55"/>
   </g>
   <g id="patch_13">
    <path d="M 74.51099 217.99875 
L 78.914227 217.99875 
L 78.914227 217.512049 
L 74.51099 217.512049 
z
" clip-path="url(#p70440df9c7)" style="fill: #888888; fill-opacity: 0.55"/>
   </g>
   <g id="patch_14">
    <path d="M 78.914227 217.99875 
L 83.317463 217.99875 
L 83.317463 217.377122 
L 78.914227 217.377122 
z
" clip-path="url(#p70440df9c7)" style="fill: #888888; fill-opacity: 0.55"/>
   </g>
   <g id="patch_15">
    <path d="M 83.317463 217.99875 
L 87.7207 217.99875 
L 87.7207 216.832596 
L 83.317463 216.832596 
z
" clip-path="url(#p70440df9c7)" style="fill: #888888; fill-opacity: 0.55"/>
   </g>
   <g id="patch_16">
    <path d="M 87.7207 217.99875 
L 92.123937 217.99875 
L 92.123937 217.010892 
L 87.7207 217.010892 
z
" clip-path="url(#p70440df9c7)" style="fill: #888888; fill-opacity: 0.55"/>
   </g>
   <g id="patch_17">
    <path d="M 92.123937 217.99875 
L 96.527173 217.99875 
L 96.527173 216.750676 
L 92.123937 216.750676 
z
" clip-path="url(#p70440df9c7)" style="fill: #888888; fill-opacity: 0.55"/>
   </g>
   <g id="patch_18">
    <path d="M 96.527173 217.99875 
L 100.93041 217.99875 
L 100.93041 215.372493 
L 96.527173 215.372493 
z
" clip-path="url(#p70440df9c7)" style="fill: #888888; fill-opacity: 0.55"/>
   </g>
   <g id="patch_19">
    <path d="M 100.93041 217.99875 
L 105.333646 217.99875 
L 105.333646 212.312543 
L 100.93041 212.312543 
z
" clip-path="url(#p70440df9c7)" style="fill: #888888; fill-opacity: 0.55"/>
   </g>
   <g id="patch_20">
    <path d="M 105.333646 217.99875 
L 109.736883 217.99875 
L 109.736883 214.548475 
L 105.333646 214.548475 
z
" clip-path="url(#p70440df9c7)" style="fill: #888888; fill-opacity: 0.55"/>
   </g>
   <g id="patch_21">
    <path d="M 109.736883 217.99875 
L 114.14012 217.99875 
L 114.14012 211.021099 
L 109.736883 211.021099 
z
" clip-path="url(#p70440df9c7)" style="fill: #888888; fill-opacity: 0.55"/>
   </g>
   <g id="patch_22">
    <path d="M 114.14012 217.99875 
L 118.543356 217.99875 
L 118.543356 210.023604 
L 114.14012 210.023604 
z
" clip-path="url(#p70440df9c7)" style="fill: #888888; fill-opacity: 0.55"/>
   </g>
   <g id="patch_23">
    <path d="M 118.543356 217.99875 
L 122.946593 217.99875 
L 122.946593 209.498352 
L 118.543356 209.498352 
z
" clip-path="url(#p70440df9c7)" style="fill: #888888; fill-opacity: 0.55"/>
   </g>
   <g id="patch_24">
    <path d="M 122.946593 217.99875 
L 127.34983 217.99875 
L 127.34983 206.370938 
L 122.946593 206.370938 
z
" clip-path="url(#p70440df9c7)" style="fill: #888888; fill-opacity: 0.55"/>
   </g>
   <g id="patch_25">
    <path d="M 127.34983 217.99875 
L 131.753066 217.99875 
L 131.753066 204.573519 
L 127.34983 204.573519 
z
" clip-path="url(#p70440df9c7)" style="fill: #888888; fill-opacity: 0.55"/>
   </g>
   <g id="patch_26">
    <path d="M 131.753066 217.99875 
L 136.156303 217.99875 
L 136.156303 201.744871 
L 131.753066 201.744871 
z
" clip-path="url(#p70440df9c7)" style="fill: #888888; fill-opacity: 0.55"/>
   </g>
   <g id="patch_27">
    <path d="M 136.156303 217.99875 
L 140.559539 217.99875 
L 140.559539 198.381335 
L 136.156303 198.381335 
z
" clip-path="url(#p70440df9c7)" style="fill: #888888; fill-opacity: 0.55"/>
   </g>
   <g id="patch_28">
    <path d="M 140.559539 217.99875 
L 144.962776 217.99875 
L 144.962776 192.897519 
L 140.559539 192.897519 
z
" clip-path="url(#p70440df9c7)" style="fill: #888888; fill-opacity: 0.55"/>
   </g>
   <g id="patch_29">
    <path d="M 144.962776 217.99875 
L 149.366013 217.99875 
L 149.366013 187.336601 
L 144.962776 187.336601 
z
" clip-path="url(#p70440df9c7)" style="fill: #888888; fill-opacity: 0.55"/>
   </g>
   <g id="patch_30">
    <path d="M 149.366013 217.99875 
L 153.769249 217.99875 
L 153.769249 179.13497 
L 149.366013 179.13497 
z
" clip-path="url(#p70440df9c7)" style="fill: #888888; fill-opacity: 0.55"/>
   </g>
   <g id="patch_31">
    <path d="M 153.769249 217.99875 
L 158.172486 217.99875 
L 158.172486 172.966881 
L 153.769249 172.966881 
z
" clip-path="url(#p70440df9c7)" style="fill: #888888; fill-opacity: 0.55"/>
   </g>
   <g id="patch_32">
    <path d="M 158.172486 217.99875 
L 162.575723 217.99875 
L 162.575723 168.576936 
L 158.172486 168.576936 
z
" clip-path="url(#p70440df9c7)" style="fill: #888888; fill-opacity: 0.55"/>
   </g>
   <g id="patch_33">
    <path d="M 162.575723 217.99875 
L 166.978959 217.99875 
L 166.978959 156.375685 
L 162.575723 156.375685 
z
" clip-path="url(#p70440df9c7)" style="fill: #888888; fill-opacity: 0.55"/>
   </g>
   <g id="patch_34">
    <path d="M 166.978959 217.99875 
L 171.382196 217.99875 
L 171.382196 148.689667 
L 166.978959 148.689667 
z
" clip-path="url(#p70440df9c7)" style="fill: #888888; fill-opacity: 0.55"/>
   </g>
   <g id="patch_35">
    <path d="M 171.382196 217.99875 
L 175.785432 217.99875 
L 175.785432 133.717595 
L 171.382196 133.717595 
z
" clip-path="url(#p70440df9c7)" style="fill: #888888; fill-opacity: 0.55"/>
   </g>
   <g id="patch_36">
    <path d="M 175.785432 217.99875 
L 180.188669 217.99875 
L 180.188669 119.410519 
L 175.785432 119.410519 
z
" clip-path="url(#p70440df9c7)" style="fill: #888888; fill-opacity: 0.55"/>
   </g>
   <g id="patch_37">
    <path d="M 180.188669 217.99875 
L 184.591906 217.99875 
L 184.591906 101.421866 
L 180.188669 101.421866 
z
" clip-path="url(#p70440df9c7)" style="fill: #888888; fill-opacity: 0.55"/>
   </g>
   <g id="patch_38">
    <path d="M 184.591906 217.99875 
L 188.995142 217.99875 
L 188.995142 87.929171 
L 184.591906 87.929171 
z
" clip-path="url(#p70440df9c7)" style="fill: #888888; fill-opacity: 0.55"/>
   </g>
   <g id="patch_39">
    <path d="M 188.995142 217.99875 
L 193.398379 217.99875 
L 193.398379 83.630784 
L 188.995142 83.630784 
z
" clip-path="url(#p70440df9c7)" style="fill: #888888; fill-opacity: 0.55"/>
   </g>
   <g id="patch_40">
    <path d="M 193.398379 217.99875 
L 197.801616 217.99875 
L 197.801616 70.277835 
L 193.398379 70.277835 
z
" clip-path="url(#p70440df9c7)" style="fill: #888888; fill-opacity: 0.55"/>
   </g>
   <g id="patch_41">
    <path d="M 197.801616 217.99875 
L 202.204852 217.99875 
L 202.204852 55.406957 
L 197.801616 55.406957 
z
" clip-path="url(#p70440df9c7)" style="fill: #888888; fill-opacity: 0.55"/>
   </g>
   <g id="patch_42">
    <path d="M 202.204852 217.99875 
L 206.608089 217.99875 
L 206.608089 43.880341 
L 202.204852 43.880341 
z
" clip-path="url(#p70440df9c7)" style="fill: #888888; fill-opacity: 0.55"/>
   </g>
   <g id="patch_43">
    <path d="M 206.608089 217.99875 
L 211.011325 217.99875 
L 211.011325 42.622629 
L 206.608089 42.622629 
z
" clip-path="url(#p70440df9c7)" style="fill: #888888; fill-opacity: 0.55"/>
   </g>
   <g id="patch_44">
    <path d="M 211.011325 217.99875 
L 215.414562 217.99875 
L 215.414562 22.446231 
L 211.011325 22.446231 
z
" clip-path="url(#p70440df9c7)" style="fill: #888888; fill-opacity: 0.55"/>
   </g>
   <g id="patch_45">
    <path d="M 215.414562 217.99875 
L 219.817799 217.99875 
L 219.817799 20.822289 
L 215.414562 20.822289 
z
" clip-path="url(#p70440df9c7)" style="fill: #888888; fill-opacity: 0.55"/>
   </g>
   <g id="patch_46">
    <path d="M 219.817799 217.99875 
L 224.221035 217.99875 
L 224.221035 15.246914 
L 219.817799 15.246914 
z
" clip-path="url(#p70440df9c7)" style="fill: #888888; fill-opacity: 0.55"/>
   </g>
   <g id="patch_47">
    <path d="M 224.221035 217.99875 
L 228.624272 217.99875 
L 228.624272 21.718589 
L 224.221035 21.718589 
z
" clip-path="url(#p70440df9c7)" style="fill: #888888; fill-opacity: 0.55"/>
   </g>
   <g id="patch_48">
    <path d="M 228.624272 217.99875 
L 233.027508 217.99875 
L 233.027508 21.299352 
L 228.624272 21.299352 
z
" clip-path="url(#p70440df9c7)" style="fill: #888888; fill-opacity: 0.55"/>
   </g>
   <g id="patch_49">
    <path d="M 233.027508 217.99875 
L 237.430745 217.99875 
L 237.430745 14.495179 
L 233.027508 14.495179 
z
" clip-path="url(#p70440df9c7)" style="fill: #888888; fill-opacity: 0.55"/>
   </g>
   <g id="patch_50">
    <path d="M 237.430745 217.99875 
L 241.833982 217.99875 
L 241.833982 28.219177 
L 237.430745 28.219177 
z
" clip-path="url(#p70440df9c7)" style="fill: #888888; fill-opacity: 0.55"/>
   </g>
   <g id="patch_51">
    <path d="M 241.833982 217.99875 
L 246.237218 217.99875 
L 246.237218 16.764843 
L 241.833982 16.764843 
z
" clip-path="url(#p70440df9c7)" style="fill: #888888; fill-opacity: 0.55"/>
   </g>
   <g id="patch_52">
    <path d="M 246.237218 217.99875 
L 250.640455 217.99875 
L 250.640455 31.577894 
L 246.237218 31.577894 
z
" clip-path="url(#p70440df9c7)" style="fill: #888888; fill-opacity: 0.55"/>
   </g>
   <g id="patch_53">
    <path d="M 250.640455 217.99875 
L 255.043692 217.99875 
L 255.043692 40.078292 
L 250.640455 40.078292 
z
" clip-path="url(#p70440df9c7)" style="fill: #888888; fill-opacity: 0.55"/>
   </g>
   <g id="patch_54">
    <path d="M 255.043692 217.99875 
L 259.446928 217.99875 
L 259.446928 53.426422 
L 255.043692 53.426422 
z
" clip-path="url(#p70440df9c7)" style="fill: #888888; fill-opacity: 0.55"/>
   </g>
   <g id="patch_55">
    <path d="M 259.446928 217.99875 
L 263.850165 217.99875 
L 263.850165 65.892709 
L 259.446928 65.892709 
z
" clip-path="url(#p70440df9c7)" style="fill: #888888; fill-opacity: 0.55"/>
   </g>
   <g id="patch_56">
    <path d="M 263.850165 217.99875 
L 268.253401 217.99875 
L 268.253401 76.937443 
L 263.850165 76.937443 
z
" clip-path="url(#p70440df9c7)" style="fill: #888888; fill-opacity: 0.55"/>
   </g>
   <g id="patch_57">
    <path d="M 268.253401 217.99875 
L 272.656638 217.99875 
L 272.656638 84.469258 
L 268.253401 84.469258 
z
" clip-path="url(#p70440df9c7)" style="fill: #888888; fill-opacity: 0.55"/>
   </g>
   <g id="patch_58">
    <path d="M 272.656638 217.99875 
L 277.059875 217.99875 
L 277.059875 104.54928 
L 272.656638 104.54928 
z
" clip-path="url(#p70440df9c7)" style="fill: #888888; fill-opacity: 0.55"/>
   </g>
   <g id="patch_59">
    <path d="M 277.059875 217.99875 
L 281.463111 217.99875 
L 281.463111 119.786387 
L 277.059875 119.786387 
z
" clip-path="url(#p70440df9c7)" style="fill: #888888; fill-opacity: 0.55"/>
   </g>
   <g id="patch_60">
    <path d="M 281.463111 217.99875 
L 285.866348 217.99875 
L 285.866348 136.955842 
L 281.463111 136.955842 
z
" clip-path="url(#p70440df9c7)" style="fill: #7b2d3e; fill-opacity: 0.28"/>
   </g>
   <g id="patch_61">
    <path d="M 285.866348 217.99875 
L 290.269585 217.99875 
L 290.269585 148.896877 
L 285.866348 148.896877 
z
" clip-path="url(#p70440df9c7)" style="fill: #7b2d3e; fill-opacity: 0.28"/>
   </g>
   <g id="patch_62">
    <path d="M 290.269585 217.99875 
L 294.672821 217.99875 
L 294.672821 156.472061 
L 290.269585 156.472061 
z
" clip-path="url(#p70440df9c7)" style="fill: #7b2d3e; fill-opacity: 0.28"/>
   </g>
   <g id="patch_63">
    <path d="M 294.672821 217.99875 
L 299.076058 217.99875 
L 299.076058 163.878587 
L 294.672821 163.878587 
z
" clip-path="url(#p70440df9c7)" style="fill: #7b2d3e; fill-opacity: 0.28"/>
   </g>
   <g id="patch_64">
    <path d="M 299.076058 217.99875 
L 303.479294 217.99875 
L 303.479294 174.923321 
L 299.076058 174.923321 
z
" clip-path="url(#p70440df9c7)" style="fill: #7b2d3e; fill-opacity: 0.28"/>
   </g>
   <g id="patch_65">
    <path d="M 303.479294 217.99875 
L 307.882531 217.99875 
L 307.882531 179.58312 
L 303.479294 179.58312 
z
" clip-path="url(#p70440df9c7)" style="fill: #7b2d3e; fill-opacity: 0.28"/>
   </g>
   <g id="patch_66">
    <path d="M 307.882531 217.99875 
L 312.285768 217.99875 
L 312.285768 186.76798 
L 307.882531 186.76798 
z
" clip-path="url(#p70440df9c7)" style="fill: #7b2d3e; fill-opacity: 0.28"/>
   </g>
   <g id="patch_67">
    <path d="M 312.285768 217.99875 
L 316.689004 217.99875 
L 316.689004 194.179325 
L 312.285768 194.179325 
z
" clip-path="url(#p70440df9c7)" style="fill: #7b2d3e; fill-opacity: 0.28"/>
   </g>
   <g id="patch_68">
    <path d="M 316.689004 217.99875 
L 321.092241 217.99875 
L 321.092241 202.40505 
L 316.689004 202.40505 
z
" clip-path="url(#p70440df9c7)" style="fill: #7b2d3e; fill-opacity: 0.28"/>
   </g>
   <g id="patch_69">
    <path d="M 321.092241 217.99875 
L 325.495478 217.99875 
L 325.495478 206.457677 
L 321.092241 206.457677 
z
" clip-path="url(#p70440df9c7)" style="fill: #7b2d3e; fill-opacity: 0.28"/>
   </g>
   <g id="patch_70">
    <path d="M 325.495478 217.99875 
L 329.898714 217.99875 
L 329.898714 208.062344 
L 325.495478 208.062344 
z
" clip-path="url(#p70440df9c7)" style="fill: #7b2d3e; fill-opacity: 0.28"/>
   </g>
   <g id="patch_71">
    <path d="M 329.898714 217.99875 
L 334.301951 217.99875 
L 334.301951 208.924913 
L 329.898714 208.924913 
z
" clip-path="url(#p70440df9c7)" style="fill: #7b2d3e; fill-opacity: 0.28"/>
   </g>
   <g id="patch_72">
    <path d="M 334.301951 217.99875 
L 338.705187 217.99875 
L 338.705187 210.544036 
L 334.301951 210.544036 
z
" clip-path="url(#p70440df9c7)" style="fill: #7b2d3e; fill-opacity: 0.28"/>
   </g>
   <g id="patch_73">
    <path d="M 338.705187 217.99875 
L 343.108424 217.99875 
L 343.108424 212.394463 
L 338.705187 212.394463 
z
" clip-path="url(#p70440df9c7)" style="fill: #7b2d3e; fill-opacity: 0.28"/>
   </g>
   <g id="patch_74">
    <path d="M 343.108424 217.99875 
L 347.511661 217.99875 
L 347.511661 214.394273 
L 343.108424 214.394273 
z
" clip-path="url(#p70440df9c7)" style="fill: #7b2d3e; fill-opacity: 0.28"/>
   </g>
   <g id="patch_75">
    <path d="M 347.511661 217.99875 
L 351.914897 217.99875 
L 351.914897 215.213472 
L 347.511661 215.213472 
z
" clip-path="url(#p70440df9c7)" style="fill: #7b2d3e; fill-opacity: 0.28"/>
   </g>
   <g id="patch_76">
    <path d="M 351.914897 217.99875 
L 356.318134 217.99875 
L 356.318134 216.32662 
L 351.914897 216.32662 
z
" clip-path="url(#p70440df9c7)" style="fill: #7b2d3e; fill-opacity: 0.28"/>
   </g>
   <g id="patch_77">
    <path d="M 356.318134 217.99875 
L 360.72137 217.99875 
L 360.72137 217.362666 
L 356.318134 217.362666 
z
" clip-path="url(#p70440df9c7)" style="fill: #7b2d3e; fill-opacity: 0.28"/>
   </g>
   <g id="patch_78">
    <path d="M 360.72137 217.99875 
L 365.124607 217.99875 
L 365.124607 217.015711 
L 360.72137 217.015711 
z
" clip-path="url(#p70440df9c7)" style="fill: #7b2d3e; fill-opacity: 0.28"/>
   </g>
   <g id="patch_79">
    <path d="M 365.124607 217.99875 
L 369.527844 217.99875 
L 369.527844 217.805997 
L 365.124607 217.805997 
z
" clip-path="url(#p70440df9c7)" style="fill: #7b2d3e; fill-opacity: 0.28"/>
   </g>
   <g id="patch_80">
    <path d="M 369.527844 217.99875 
L 373.93108 217.99875 
L 373.93108 217.99875 
L 369.527844 217.99875 
z
" clip-path="url(#p70440df9c7)" style="fill: #7b2d3e; fill-opacity: 0.28"/>
   </g>
   <g id="patch_81">
    <path d="M 373.93108 217.99875 
L 378.334317 217.99875 
L 378.334317 217.99875 
L 373.93108 217.99875 
z
" clip-path="url(#p70440df9c7)" style="fill: #7b2d3e; fill-opacity: 0.28"/>
   </g>
   <g id="patch_82">
    <path d="M 378.334317 217.99875 
L 382.737554 217.99875 
L 382.737554 217.868642 
L 378.334317 217.868642 
z
" clip-path="url(#p70440df9c7)" style="fill: #7b2d3e; fill-opacity: 0.28"/>
   </g>
   <g id="matplotlib.axis_1">
    <g id="xtick_1">
     <g id="line2d_1">
      <defs>
       <path id="m9d764276c3" d="M 0 0 
L 0 3 
" style="stroke: #000000; stroke-width: 0.5"/>
      </defs>
      <g>
       <use xlink:href="#m9d764276c3" x="72.8005" y="217.99875" style="stroke: #000000; stroke-width: 0.5"/>
      </g>
     </g>
     <g id="text_1">
      <!-- -4% -->
      <g transform="translate(65.774875 229.04625) scale(0.08 -0.08)">
       <defs>
        <path id="Georgia-2d" d="M 2128 1453 
L 266 1453 
L 266 1944 
L 2128 1944 
L 2128 1453 
z
" transform="scale(0.015625)"/>
        <path id="Georgia-34" d="M 3388 281 
L 2753 281 
L 2753 -1141 
L 2153 -1141 
L 2153 281 
L 153 281 
L 153 763 
L 2344 3434 
L 2753 3434 
L 2753 691 
L 3388 691 
L 3388 281 
z
M 2153 691 
L 2153 2738 
L 466 691 
L 2153 691 
z
" transform="scale(0.015625)"/>
        <path id="Georgia-25" d="M 2463 3384 
Q 2463 2834 2166 2531 
Q 1869 2228 1400 2228 
Q 931 2228 636 2531 
Q 341 2834 341 3384 
Q 341 3903 630 4222 
Q 919 4541 1403 4541 
Q 1881 4541 2172 4222 
Q 2463 3903 2463 3384 
z
M 1934 3384 
Q 1934 3791 1800 4050 
Q 1666 4309 1403 4309 
Q 1134 4309 1001 4050 
Q 869 3791 869 3384 
Q 869 2969 1003 2714 
Q 1138 2459 1400 2459 
Q 1663 2459 1798 2714 
Q 1934 2969 1934 3384 
z
M 4891 1056 
Q 4891 506 4594 203 
Q 4297 -100 3828 -100 
Q 3359 -100 3064 203 
Q 2769 506 2769 1056 
Q 2769 1575 3058 1894 
Q 3347 2213 3831 2213 
Q 4309 2213 4600 1894 
Q 4891 1575 4891 1056 
z
M 4363 1056 
Q 4363 1463 4228 1722 
Q 4094 1981 3831 1981 
Q 3563 1981 3430 1722 
Q 3297 1463 3297 1056 
Q 3297 641 3431 386 
Q 3566 131 3828 131 
Q 4091 131 4227 386 
Q 4363 641 4363 1056 
z
M 4684 4450 
L 1000 0 
L 569 0 
L 4244 4450 
L 4684 4450 
z
" transform="scale(0.015625)"/>
       </defs>
       <use xlink:href="#Georgia-2d"/>
       <use xlink:href="#Georgia-34" transform="translate(37.402344 0)"/>
       <use xlink:href="#Georgia-25" transform="translate(93.896484 0)"/>
      </g>
     </g>
    </g>
    <g id="xtick_2">
     <g id="line2d_2">
      <g>
       <use xlink:href="#m9d764276c3" x="127.8765" y="217.99875" style="stroke: #000000; stroke-width: 0.5"/>
      </g>
     </g>
     <g id="text_2">
      <!-- -2% -->
      <g transform="translate(120.8765 229.04625) scale(0.08 -0.08)">
       <defs>
        <path id="Georgia-32" d="M 3272 0 
L 344 0 
L 344 425 
Q 428 522 578 642 
Q 728 763 934 903 
Q 1059 988 1234 1088 
Q 1409 1188 1631 1306 
Q 1878 1438 2011 1538 
Q 2144 1638 2253 1784 
Q 2325 1881 2369 2026 
Q 2413 2172 2413 2441 
Q 2413 2831 2203 3014 
Q 1994 3197 1666 3197 
Q 1463 3197 1281 3117 
Q 1100 3038 1009 2897 
Q 1031 2797 1064 2659 
Q 1097 2522 1097 2391 
Q 1097 2272 998 2180 
Q 900 2088 706 2088 
Q 550 2088 465 2195 
Q 381 2303 381 2484 
Q 381 2653 475 2823 
Q 569 2994 744 3138 
Q 916 3278 1169 3365 
Q 1422 3453 1716 3453 
Q 2356 3453 2732 3167 
Q 3109 2881 3109 2403 
Q 3109 2175 3042 1987 
Q 2975 1800 2825 1656 
Q 2659 1497 2437 1383 
Q 2216 1269 1759 1066 
Q 1488 944 1253 811 
Q 1019 678 869 553 
L 3272 553 
L 3272 0 
z
" transform="scale(0.015625)"/>
       </defs>
       <use xlink:href="#Georgia-2d"/>
       <use xlink:href="#Georgia-32" transform="translate(37.402344 0)"/>
       <use xlink:href="#Georgia-25" transform="translate(93.261719 0)"/>
      </g>
     </g>
    </g>
    <g id="xtick_3">
     <g id="line2d_3">
      <g>
       <use xlink:href="#m9d764276c3" x="182.9525" y="217.99875" style="stroke: #000000; stroke-width: 0.5"/>
      </g>
     </g>
     <g id="text_3">
      <!-- 0% -->
      <g transform="translate(177.228125 229.04625) scale(0.08 -0.08)">
       <defs>
        <path id="Georgia-30" d="M 3209 2919 
Q 3409 2678 3507 2354 
Q 3606 2031 3606 1678 
Q 3606 1253 3484 917 
Q 3363 581 3150 359 
Q 2931 131 2631 15 
Q 2331 -100 1963 -100 
Q 1559 -100 1243 34 
Q 928 169 731 403 
Q 525 647 423 973 
Q 322 1300 322 1678 
Q 322 2050 420 2362 
Q 519 2675 728 2928 
Q 928 3172 1243 3312 
Q 1559 3453 1966 3453 
Q 2394 3453 2700 3309 
Q 3006 3166 3209 2919 
z
M 2916 1678 
Q 2916 2422 2661 2831 
Q 2406 3241 1969 3241 
Q 1525 3241 1269 2831 
Q 1013 2422 1013 1678 
Q 1013 972 1258 542 
Q 1503 113 1963 113 
Q 2422 113 2669 542 
Q 2916 972 2916 1678 
z
" transform="scale(0.015625)"/>
       </defs>
       <use xlink:href="#Georgia-30"/>
       <use xlink:href="#Georgia-25" transform="translate(61.376953 0)"/>
      </g>
     </g>
    </g>
    <g id="xtick_4">
     <g id="line2d_4">
      <g>
       <use xlink:href="#m9d764276c3" x="238.0285" y="217.99875" style="stroke: #000000; stroke-width: 0.5"/>
      </g>
     </g>
     <g id="text_4">
      <!-- +2% -->
      <g transform="translate(229.95225 229.04625) scale(0.08 -0.08)">
       <defs>
        <path id="Georgia-2b" d="M 3666 1553 
L 2256 1553 
L 2256 144 
L 1859 144 
L 1859 1553 
L 450 1553 
L 450 1944 
L 1859 1944 
L 1859 3353 
L 2256 3353 
L 2256 1944 
L 3666 1944 
L 3666 1553 
z
" transform="scale(0.015625)"/>
       </defs>
       <use xlink:href="#Georgia-2b"/>
       <use xlink:href="#Georgia-32" transform="translate(64.306641 0)"/>
       <use xlink:href="#Georgia-25" transform="translate(120.166016 0)"/>
      </g>
     </g>
    </g>
    <g id="xtick_5">
     <g id="line2d_5">
      <g>
       <use xlink:href="#m9d764276c3" x="293.1045" y="217.99875" style="stroke: #000000; stroke-width: 0.5"/>
      </g>
     </g>
     <g id="text_5">
      <!-- +4% -->
      <g transform="translate(285.002625 229.04625) scale(0.08 -0.08)">
       <use xlink:href="#Georgia-2b"/>
       <use xlink:href="#Georgia-34" transform="translate(64.306641 0)"/>
       <use xlink:href="#Georgia-25" transform="translate(120.800781 0)"/>
      </g>
     </g>
    </g>
    <g id="xtick_6">
     <g id="line2d_6">
      <g>
       <use xlink:href="#m9d764276c3" x="348.1805" y="217.99875" style="stroke: #000000; stroke-width: 0.5"/>
      </g>
     </g>
     <g id="text_6">
      <!-- +6% -->
      <g transform="translate(340.074875 229.04625) scale(0.08 -0.08)">
       <defs>
        <path id="Georgia-36" d="M 3359 1441 
Q 3359 1116 3242 831 
Q 3125 547 2928 347 
Q 2700 119 2423 9 
Q 2147 -100 1847 -100 
Q 1500 -100 1219 28 
Q 938 156 741 391 
Q 541 628 431 972 
Q 322 1316 322 1744 
Q 322 2859 986 3625 
Q 1650 4391 2766 4544 
L 2822 4263 
L 2541 4213 
Q 1863 3994 1492 3531 
Q 1122 3069 1013 2409 
Q 1281 2644 1543 2741 
Q 1806 2838 2097 2838 
Q 2619 2838 2989 2438 
Q 3359 2038 3359 1441 
z
M 2681 1356 
Q 2681 1863 2448 2169 
Q 2216 2475 1825 2475 
Q 1591 2475 1389 2387 
Q 1188 2300 1000 2094 
Q 997 2056 990 1920 
Q 984 1784 984 1706 
Q 984 975 1223 561 
Q 1463 147 1853 147 
Q 2225 147 2453 470 
Q 2681 794 2681 1356 
z
" transform="scale(0.015625)"/>
       </defs>
       <use xlink:href="#Georgia-2b"/>
       <use xlink:href="#Georgia-36" transform="translate(64.306641 0)"/>
       <use xlink:href="#Georgia-25" transform="translate(120.898438 0)"/>
      </g>
     </g>
    </g>
    <g id="xtick_7">
     <g id="line2d_7">
      <g>
       <use xlink:href="#m9d764276c3" x="403.2565" y="217.99875" style="stroke: #000000; stroke-width: 0.5"/>
      </g>
     </g>
     <g id="text_7">
      <!-- +8% -->
      <g transform="translate(395.029625 229.04625) scale(0.08 -0.08)">
       <defs>
        <path id="Georgia-38" d="M 3491 1175 
Q 3491 650 3037 272 
Q 2584 -106 1847 -106 
Q 1156 -106 740 241 
Q 325 588 325 1134 
Q 325 1538 570 1808 
Q 816 2078 1297 2266 
Q 900 2488 703 2753 
Q 506 3019 506 3353 
Q 506 3863 939 4206 
Q 1372 4550 1975 4550 
Q 2578 4550 2951 4225 
Q 3325 3900 3325 3409 
Q 3325 3094 3119 2811 
Q 2913 2528 2513 2347 
Q 3031 2125 3261 1856 
Q 3491 1588 3491 1175 
z
M 2734 3444 
Q 2734 3825 2507 4064 
Q 2281 4303 1928 4303 
Q 1575 4303 1350 4073 
Q 1125 3844 1125 3503 
Q 1125 3175 1381 2947 
Q 1638 2719 2294 2459 
Q 2528 2609 2631 2856 
Q 2734 3103 2734 3444 
z
M 2866 1028 
Q 2866 1225 2781 1373 
Q 2697 1522 2538 1644 
Q 2384 1763 2111 1892 
Q 1838 2022 1519 2156 
Q 1219 1994 1078 1742 
Q 938 1491 938 1169 
Q 938 709 1208 426 
Q 1478 144 1928 144 
Q 2359 144 2612 394 
Q 2866 644 2866 1028 
z
" transform="scale(0.015625)"/>
       </defs>
       <use xlink:href="#Georgia-2b"/>
       <use xlink:href="#Georgia-38" transform="translate(64.306641 0)"/>
       <use xlink:href="#Georgia-25" transform="translate(123.925781 0)"/>
      </g>
     </g>
    </g>
    <g id="text_8">
     <!-- Efficiency gap (positive = UCP-favoured) -->
     <g style="fill: #444444" transform="translate(179.59875 240.8325) scale(0.08 -0.08)">
      <defs>
       <path id="Georgia-45" d="M 4034 1306 
L 3950 0 
L 269 0 
L 269 222 
Q 363 228 519 248 
Q 675 269 722 291 
Q 822 338 861 413 
Q 900 488 900 603 
L 900 3791 
Q 900 3894 865 3973 
Q 831 4053 722 4103 
Q 638 4144 495 4175 
Q 353 4206 269 4213 
L 269 4434 
L 3700 4434 
L 3700 3366 
L 3466 3366 
Q 3403 3603 3195 3870 
Q 2988 4138 2800 4163 
Q 2703 4175 2568 4181 
Q 2434 4188 2263 4188 
L 1566 4188 
L 1566 2425 
L 2066 2425 
Q 2306 2425 2417 2470 
Q 2528 2516 2613 2622 
Q 2681 2713 2729 2864 
Q 2778 3016 2794 3150 
L 3028 3150 
L 3028 1416 
L 2794 1416 
Q 2781 1566 2726 1733 
Q 2672 1900 2613 1975 
Q 2516 2097 2392 2134 
Q 2269 2172 2066 2172 
L 1566 2172 
L 1566 841 
Q 1566 641 1594 525 
Q 1622 409 1703 350 
Q 1784 291 1925 273 
Q 2066 256 2325 256 
Q 2428 256 2597 256 
Q 2766 256 2881 269 
Q 3000 281 3126 314 
Q 3253 347 3306 403 
Q 3450 553 3608 858 
Q 3766 1163 3809 1306 
L 4034 1306 
z
" transform="scale(0.015625)"/>
       <path id="Georgia-66" d="M 2519 4466 
Q 2519 4325 2444 4228 
Q 2369 4131 2216 4131 
Q 2119 4131 2045 4172 
Q 1972 4213 1909 4281 
Q 1847 4350 1794 4437 
Q 1741 4525 1703 4578 
Q 1494 4569 1380 4286 
Q 1266 4003 1266 3384 
L 1266 3069 
L 2059 3069 
L 2059 2769 
L 1266 2769 
L 1266 556 
Q 1266 447 1308 378 
Q 1350 309 1441 275 
Q 1516 247 1641 230 
Q 1766 213 1856 206 
L 1856 0 
L 231 0 
L 231 206 
Q 303 213 379 219 
Q 456 225 513 244 
Q 600 272 642 342 
Q 684 413 684 525 
L 684 2769 
L 75 2769 
L 75 3069 
L 684 3069 
L 684 3266 
Q 684 3969 1048 4405 
Q 1413 4841 1959 4841 
Q 2238 4841 2378 4731 
Q 2519 4622 2519 4466 
z
" transform="scale(0.015625)"/>
       <path id="Georgia-69" d="M 1722 0 
L 231 0 
L 231 206 
Q 303 213 379 219 
Q 456 225 513 244 
Q 600 272 642 342 
Q 684 413 684 525 
L 684 2428 
Q 684 2528 639 2611 
Q 594 2694 513 2750 
Q 453 2788 340 2814 
Q 228 2841 134 2847 
L 134 3050 
L 1222 3119 
L 1266 3075 
L 1266 563 
Q 1266 453 1308 381 
Q 1350 309 1441 275 
Q 1509 247 1575 230 
Q 1641 213 1722 206 
L 1722 0 
z
M 1328 4334 
Q 1328 4156 1211 4023 
Q 1094 3891 922 3891 
Q 763 3891 645 4017 
Q 528 4144 528 4306 
Q 528 4478 645 4606 
Q 763 4734 922 4734 
Q 1100 4734 1214 4614 
Q 1328 4494 1328 4334 
z
" transform="scale(0.015625)"/>
       <path id="Georgia-63" d="M 1650 -81 
Q 981 -81 603 362 
Q 225 806 225 1553 
Q 225 1878 326 2161 
Q 428 2444 622 2675 
Q 806 2897 1084 3033 
Q 1363 3169 1691 3169 
Q 2144 3169 2428 2951 
Q 2713 2734 2713 2359 
Q 2713 2203 2638 2083 
Q 2563 1963 2391 1963 
Q 2206 1963 2104 2056 
Q 2003 2150 2003 2266 
Q 2003 2406 2040 2554 
Q 2078 2703 2084 2772 
Q 2028 2869 1917 2901 
Q 1806 2934 1678 2934 
Q 1528 2934 1392 2870 
Q 1256 2806 1128 2634 
Q 1013 2478 941 2212 
Q 869 1947 869 1578 
Q 869 997 1126 630 
Q 1384 263 1803 263 
Q 2106 263 2311 409 
Q 2516 556 2691 850 
L 2891 719 
Q 2684 350 2346 134 
Q 2009 -81 1650 -81 
z
" transform="scale(0.015625)"/>
       <path id="Georgia-65" d="M 2963 725 
Q 2769 356 2444 137 
Q 2119 -81 1697 -81 
Q 1325 -81 1045 50 
Q 766 181 584 406 
Q 403 631 314 931 
Q 225 1231 225 1566 
Q 225 1866 320 2155 
Q 416 2444 600 2675 
Q 778 2897 1042 3033 
Q 1306 3169 1634 3169 
Q 1972 3169 2212 3062 
Q 2453 2956 2603 2772 
Q 2747 2597 2817 2359 
Q 2888 2122 2888 1844 
L 2888 1638 
L 847 1638 
Q 847 1334 905 1087 
Q 963 841 1088 653 
Q 1209 472 1406 367 
Q 1603 263 1875 263 
Q 2153 263 2354 392 
Q 2556 522 2744 859 
L 2963 725 
z
M 2272 1900 
Q 2272 2075 2242 2275 
Q 2213 2475 2147 2609 
Q 2075 2753 1950 2843 
Q 1825 2934 1628 2934 
Q 1300 2934 1083 2661 
Q 866 2388 847 1900 
L 2272 1900 
z
" transform="scale(0.015625)"/>
       <path id="Georgia-6e" d="M 3628 0 
L 2119 0 
L 2119 206 
Q 2191 213 2277 219 
Q 2363 225 2419 244 
Q 2506 272 2548 342 
Q 2591 413 2591 525 
L 2591 2109 
Q 2591 2438 2436 2616 
Q 2281 2794 2059 2794 
Q 1894 2794 1756 2742 
Q 1619 2691 1513 2616 
Q 1409 2544 1348 2461 
Q 1288 2378 1259 2328 
L 1259 556 
Q 1259 450 1303 381 
Q 1347 313 1434 275 
Q 1500 244 1576 228 
Q 1653 213 1734 206 
L 1734 0 
L 225 0 
L 225 206 
Q 297 213 373 219 
Q 450 225 506 244 
Q 594 272 636 342 
Q 678 413 678 525 
L 678 2428 
Q 678 2534 633 2623 
Q 588 2713 506 2769 
Q 447 2806 365 2823 
Q 284 2841 191 2847 
L 191 3050 
L 1216 3119 
L 1259 3075 
L 1259 2641 
L 1275 2641 
Q 1350 2716 1462 2820 
Q 1575 2925 1675 2991 
Q 1791 3066 1950 3116 
Q 2109 3166 2309 3166 
Q 2753 3166 2967 2889 
Q 3181 2613 3181 2153 
L 3181 550 
Q 3181 441 3218 373 
Q 3256 306 3347 269 
Q 3422 238 3476 225 
Q 3531 213 3628 206 
L 3628 0 
z
" transform="scale(0.015625)"/>
       <path id="Georgia-79" d="M -9 -1006 
Q -9 -850 77 -751 
Q 163 -653 291 -653 
Q 391 -653 462 -690 
Q 534 -728 591 -788 
Q 638 -834 691 -915 
Q 744 -997 775 -1050 
Q 931 -966 1148 -609 
Q 1366 -253 1463 16 
Q 1166 756 925 1340 
Q 684 1925 422 2550 
Q 363 2694 222 2773 
Q 81 2853 -59 2875 
L -59 3081 
L 1347 3081 
L 1347 2863 
Q 1253 2859 1122 2823 
Q 991 2788 991 2741 
Q 991 2722 1005 2678 
Q 1019 2634 1038 2588 
Q 1156 2278 1400 1695 
Q 1644 1113 1778 763 
Q 1919 1097 2070 1455 
Q 2222 1813 2409 2300 
Q 2431 2359 2472 2464 
Q 2513 2569 2513 2644 
Q 2513 2725 2370 2795 
Q 2228 2866 2100 2881 
L 2100 3081 
L 3244 3081 
L 3244 2888 
Q 3150 2872 2997 2780 
Q 2844 2688 2769 2519 
Q 2397 1656 2108 947 
Q 1819 238 1669 -97 
Q 1472 -534 1317 -779 
Q 1163 -1025 1016 -1166 
Q 872 -1297 755 -1342 
Q 638 -1388 513 -1388 
Q 269 -1388 130 -1272 
Q -9 -1156 -9 -1006 
z
" transform="scale(0.015625)"/>
       <path id="Georgia-20" transform="scale(0.015625)"/>
       <path id="Georgia-67" d="M 2866 319 
Q 2991 200 3062 50 
Q 3134 -100 3134 -322 
Q 3134 -544 3037 -739 
Q 2941 -934 2744 -1078 
Q 2534 -1225 2243 -1306 
Q 1953 -1388 1525 -1388 
Q 825 -1388 478 -1183 
Q 131 -978 131 -584 
Q 131 -266 381 -81 
Q 631 103 1019 119 
L 1019 163 
Q 925 191 825 233 
Q 725 275 653 331 
Q 572 397 522 486 
Q 472 575 472 706 
Q 472 872 589 1011 
Q 706 1150 944 1250 
L 944 1297 
Q 644 1438 478 1658 
Q 313 1878 313 2169 
Q 313 2606 639 2887 
Q 966 3169 1475 3169 
Q 1616 3169 1755 3141 
Q 1894 3113 2038 3069 
L 3113 3069 
L 3113 2769 
L 2388 2769 
L 2388 2750 
Q 2503 2616 2559 2453 
Q 2616 2291 2616 2134 
Q 2616 1728 2286 1447 
Q 1956 1166 1519 1166 
L 1141 1166 
Q 1069 1141 991 1075 
Q 913 1009 913 897 
Q 913 781 978 720 
Q 1044 659 1138 638 
Q 1228 613 1348 606 
Q 1469 600 1597 597 
Q 1734 594 1973 578 
Q 2213 563 2313 559 
Q 2456 553 2601 490 
Q 2747 428 2866 319 
z
M 2022 2147 
Q 2022 2513 1873 2730 
Q 1725 2947 1456 2947 
Q 1309 2947 1204 2886 
Q 1100 2825 1034 2713 
Q 972 2609 945 2464 
Q 919 2319 919 2166 
Q 919 1819 1070 1600 
Q 1222 1381 1463 1381 
Q 1731 1381 1876 1598 
Q 2022 1816 2022 2147 
z
M 2622 -438 
Q 2622 -263 2540 -150 
Q 2459 -38 2294 3 
Q 2206 16 1934 31 
Q 1663 47 1303 47 
Q 966 -19 823 -173 
Q 681 -328 681 -572 
Q 681 -681 728 -781 
Q 775 -881 891 -966 
Q 1000 -1047 1184 -1098 
Q 1369 -1150 1634 -1150 
Q 2094 -1150 2358 -973 
Q 2622 -797 2622 -438 
z
" transform="scale(0.015625)"/>
       <path id="Georgia-61" d="M 3144 56 
Q 2997 3 2886 -30 
Q 2775 -63 2634 -63 
Q 2391 -63 2245 51 
Q 2100 166 2059 384 
L 2041 384 
Q 1838 159 1605 40 
Q 1372 -78 1044 -78 
Q 697 -78 473 134 
Q 250 347 250 691 
Q 250 869 300 1009 
Q 350 1150 450 1263 
Q 528 1356 656 1429 
Q 784 1503 897 1547 
Q 1038 1600 1467 1744 
Q 1897 1888 2047 1969 
L 2047 2278 
Q 2047 2319 2030 2434 
Q 2013 2550 1956 2653 
Q 1894 2769 1780 2855 
Q 1666 2941 1456 2941 
Q 1313 2941 1189 2892 
Q 1066 2844 1016 2791 
Q 1016 2728 1045 2606 
Q 1075 2484 1075 2381 
Q 1075 2272 976 2181 
Q 878 2091 703 2091 
Q 547 2091 473 2202 
Q 400 2313 400 2450 
Q 400 2594 501 2725 
Q 603 2856 766 2959 
Q 906 3047 1106 3108 
Q 1306 3169 1497 3169 
Q 1759 3169 1954 3133 
Q 2150 3097 2309 2978 
Q 2469 2863 2551 2664 
Q 2634 2466 2634 2153 
Q 2634 1706 2625 1361 
Q 2616 1016 2616 606 
Q 2616 484 2658 412 
Q 2700 341 2788 291 
Q 2834 263 2936 259 
Q 3038 256 3144 256 
L 3144 56 
z
M 2053 1706 
Q 1788 1628 1588 1553 
Q 1388 1478 1216 1366 
Q 1059 1259 968 1114 
Q 878 969 878 769 
Q 878 509 1014 387 
Q 1150 266 1359 266 
Q 1581 266 1750 373 
Q 1919 481 2034 628 
L 2053 1706 
z
" transform="scale(0.015625)"/>
       <path id="Georgia-70" d="M 3041 2716 
Q 3225 2497 3326 2208 
Q 3428 1919 3428 1547 
Q 3428 1181 3306 879 
Q 3184 578 2984 366 
Q 2775 150 2519 34 
Q 2263 -81 1975 -81 
Q 1697 -81 1519 -18 
Q 1341 44 1228 128 
L 1203 128 
L 1203 -797 
Q 1203 -909 1247 -984 
Q 1291 -1059 1381 -1094 
Q 1456 -1122 1595 -1148 
Q 1734 -1175 1825 -1178 
L 1825 -1388 
L 103 -1388 
L 103 -1178 
Q 200 -1172 290 -1162 
Q 381 -1153 453 -1131 
Q 547 -1100 584 -1022 
Q 622 -944 622 -838 
L 622 2441 
Q 622 2534 575 2621 
Q 528 2709 453 2763 
Q 397 2800 297 2820 
Q 197 2841 103 2847 
L 103 3050 
L 1153 3119 
L 1197 3081 
L 1197 2734 
L 1222 2728 
Q 1384 2916 1625 3041 
Q 1866 3166 2103 3166 
Q 2391 3166 2630 3044 
Q 2869 2922 3041 2716 
z
M 2531 500 
Q 2656 694 2715 950 
Q 2775 1206 2775 1522 
Q 2775 1753 2725 1993 
Q 2675 2234 2569 2413 
Q 2463 2594 2291 2706 
Q 2119 2819 1878 2819 
Q 1647 2819 1484 2717 
Q 1322 2616 1203 2475 
L 1203 653 
Q 1231 569 1295 478 
Q 1359 388 1438 322 
Q 1534 244 1646 195 
Q 1759 147 1922 147 
Q 2097 147 2259 239 
Q 2422 331 2531 500 
z
" transform="scale(0.015625)"/>
       <path id="Georgia-28" d="M 2191 -1025 
Q 1338 -919 852 -165 
Q 366 588 366 1863 
Q 366 3159 852 3917 
Q 1338 4675 2191 4788 
L 2191 4528 
Q 1591 4419 1278 3762 
Q 966 3106 966 1856 
Q 966 666 1272 5 
Q 1578 -656 2191 -769 
L 2191 -1025 
z
" transform="scale(0.015625)"/>
       <path id="Georgia-6f" d="M 3228 1572 
Q 3228 1247 3125 933 
Q 3022 619 2831 400 
Q 2616 150 2331 28 
Q 2047 -94 1694 -94 
Q 1400 -94 1134 17 
Q 869 128 663 341 
Q 459 550 339 851 
Q 219 1153 219 1528 
Q 219 2250 639 2709 
Q 1059 3169 1741 3169 
Q 2388 3169 2808 2733 
Q 3228 2297 3228 1572 
z
M 2581 1566 
Q 2581 1800 2534 2061 
Q 2488 2322 2394 2503 
Q 2294 2697 2131 2814 
Q 1969 2931 1734 2931 
Q 1494 2931 1323 2812 
Q 1153 2694 1047 2488 
Q 947 2297 906 2053 
Q 866 1809 866 1581 
Q 866 1281 914 1026 
Q 963 772 1069 572 
Q 1175 372 1336 258 
Q 1497 144 1734 144 
Q 2125 144 2353 522 
Q 2581 900 2581 1566 
z
" transform="scale(0.015625)"/>
       <path id="Georgia-73" d="M 2259 1509 
Q 2388 1397 2456 1250 
Q 2525 1103 2525 891 
Q 2525 463 2204 191 
Q 1884 -81 1375 -81 
Q 1106 -81 879 16 
Q 653 113 556 194 
L 494 -9 
L 259 -9 
L 228 1063 
L 444 1063 
Q 469 941 550 778 
Q 631 616 747 484 
Q 869 347 1039 253 
Q 1209 159 1422 159 
Q 1722 159 1884 295 
Q 2047 431 2047 684 
Q 2047 816 1995 911 
Q 1944 1006 1844 1078 
Q 1741 1150 1591 1208 
Q 1441 1266 1256 1322 
Q 1109 1366 929 1442 
Q 750 1519 622 1622 
Q 484 1731 396 1890 
Q 309 2050 309 2266 
Q 309 2644 590 2906 
Q 872 3169 1344 3169 
Q 1525 3169 1714 3122 
Q 1903 3075 2022 3009 
L 2094 3172 
L 2319 3172 
L 2366 2181 
L 2150 2181 
Q 2084 2513 1867 2720 
Q 1650 2928 1338 2928 
Q 1081 2928 934 2800 
Q 788 2672 788 2491 
Q 788 2350 836 2256 
Q 884 2163 981 2097 
Q 1075 2034 1217 1979 
Q 1359 1925 1569 1856 
Q 1775 1791 1958 1703 
Q 2141 1616 2259 1509 
z
" transform="scale(0.015625)"/>
       <path id="Georgia-74" d="M 2128 134 
Q 1925 50 1744 -8 
Q 1563 -66 1300 -66 
Q 913 -66 755 129 
Q 597 325 597 681 
L 597 2769 
L 41 2769 
L 41 3069 
L 609 3069 
L 609 4028 
L 1178 4028 
L 1178 3069 
L 2063 3069 
L 2063 2769 
L 1184 2769 
L 1184 1047 
Q 1184 853 1198 723 
Q 1213 594 1266 497 
Q 1316 406 1416 359 
Q 1516 313 1684 313 
Q 1763 313 1914 327 
Q 2066 341 2128 363 
L 2128 134 
z
" transform="scale(0.015625)"/>
       <path id="Georgia-76" d="M 3269 2891 
Q 3128 2866 3001 2789 
Q 2875 2713 2784 2519 
Q 2600 2100 2403 1645 
Q 2206 1191 1994 691 
Q 1931 547 1861 350 
Q 1791 153 1731 -28 
L 1488 -28 
Q 1191 706 941 1311 
Q 691 1916 422 2550 
Q 359 2694 220 2773 
Q 81 2853 -59 2875 
L -59 3081 
L 1366 3081 
L 1366 2863 
Q 1272 2859 1131 2823 
Q 991 2788 991 2725 
Q 991 2716 1006 2677 
Q 1022 2638 1038 2588 
Q 1166 2269 1400 1697 
Q 1634 1125 1781 775 
Q 1894 1044 2064 1444 
Q 2234 1844 2431 2338 
Q 2463 2422 2491 2495 
Q 2519 2569 2519 2644 
Q 2519 2697 2467 2739 
Q 2416 2781 2344 2813 
Q 2272 2844 2203 2859 
Q 2134 2875 2091 2881 
L 2091 3081 
L 3269 3081 
L 3269 2891 
z
" transform="scale(0.015625)"/>
       <path id="Georgia-3d" d="M 3634 2134 
L 481 2134 
L 481 2525 
L 3634 2525 
L 3634 2134 
z
M 3634 972 
L 481 972 
L 481 1363 
L 3634 1363 
L 3634 972 
z
" transform="scale(0.015625)"/>
       <path id="Georgia-55" d="M 4791 4213 
Q 4703 4209 4534 4175 
Q 4366 4141 4259 4072 
Q 4153 4000 4112 3775 
Q 4072 3550 4072 3225 
L 4072 1297 
Q 4072 928 3919 656 
Q 3766 384 3516 209 
Q 3269 41 2995 -32 
Q 2722 -106 2472 -106 
Q 2072 -106 1759 -1 
Q 1447 103 1234 281 
Q 1025 459 919 689 
Q 813 919 813 1169 
L 813 3791 
Q 813 3900 777 3973 
Q 741 4047 631 4109 
Q 553 4153 431 4179 
Q 309 4206 231 4213 
L 231 4434 
L 2078 4434 
L 2078 4213 
Q 1991 4209 1858 4184 
Q 1725 4159 1663 4138 
Q 1556 4100 1520 4012 
Q 1484 3925 1484 3822 
L 1484 1372 
Q 1484 1194 1523 998 
Q 1563 803 1678 634 
Q 1800 463 2009 353 
Q 2219 244 2584 244 
Q 2928 244 3161 353 
Q 3394 463 3528 641 
Q 3656 809 3709 993 
Q 3763 1178 3763 1366 
L 3763 3184 
Q 3763 3531 3713 3751 
Q 3663 3972 3566 4041 
Q 3456 4119 3267 4162 
Q 3078 4206 2978 4213 
L 2978 4434 
L 4791 4434 
L 4791 4213 
z
" transform="scale(0.015625)"/>
       <path id="Georgia-43" d="M 2259 -103 
Q 1863 -103 1498 53 
Q 1134 209 853 503 
Q 575 797 409 1220 
Q 244 1644 244 2175 
Q 244 2706 406 3139 
Q 569 3572 856 3884 
Q 1141 4194 1528 4362 
Q 1916 4531 2356 4531 
Q 2684 4531 2950 4450 
Q 3216 4369 3456 4222 
L 3584 4434 
L 3834 4434 
L 3863 2853 
L 3606 2853 
Q 3556 3084 3456 3354 
Q 3356 3625 3222 3813 
Q 3072 4025 2865 4145 
Q 2659 4266 2394 4266 
Q 2091 4266 1830 4131 
Q 1569 3997 1378 3734 
Q 1197 3481 1094 3090 
Q 991 2700 991 2219 
Q 991 1794 1098 1439 
Q 1206 1084 1406 816 
Q 1606 550 1879 400 
Q 2153 250 2491 250 
Q 2744 250 2956 329 
Q 3169 409 3325 541 
Q 3481 678 3600 853 
Q 3719 1028 3794 1234 
L 4028 1122 
Q 3759 463 3315 180 
Q 2872 -103 2259 -103 
z
" transform="scale(0.015625)"/>
       <path id="Georgia-50" d="M 3700 3341 
Q 3700 2994 3564 2726 
Q 3428 2459 3188 2284 
Q 2950 2109 2665 2028 
Q 2381 1947 2063 1947 
L 1566 1947 
L 1566 603 
Q 1566 494 1602 411 
Q 1638 328 1750 284 
Q 1806 263 1948 244 
Q 2091 225 2209 222 
L 2209 0 
L 306 0 
L 306 222 
Q 381 228 523 243 
Q 666 259 722 284 
Q 816 325 858 403 
Q 900 481 900 603 
L 900 3803 
Q 900 3913 869 4000 
Q 838 4088 722 4131 
Q 603 4172 486 4189 
Q 369 4206 284 4213 
L 284 4434 
L 2309 4434 
Q 2928 4434 3314 4136 
Q 3700 3838 3700 3341 
z
M 2750 2584 
Q 2856 2734 2890 2895 
Q 2925 3056 2925 3184 
Q 2925 3363 2883 3547 
Q 2841 3731 2738 3869 
Q 2628 4016 2450 4097 
Q 2272 4178 2006 4178 
L 1566 4178 
L 1566 2219 
L 1884 2219 
Q 2222 2219 2433 2323 
Q 2644 2428 2750 2584 
z
" transform="scale(0.015625)"/>
       <path id="Georgia-75" d="M 3528 56 
L 2525 -13 
L 2478 31 
L 2478 422 
L 2459 422 
Q 2384 344 2290 255 
Q 2197 166 2075 94 
Q 1934 9 1803 -34 
Q 1672 -78 1431 -78 
Q 1022 -78 808 189 
Q 594 456 594 966 
L 594 2441 
Q 594 2553 551 2629 
Q 509 2706 428 2763 
Q 372 2800 287 2817 
Q 203 2834 109 2841 
L 109 3044 
L 1138 3119 
L 1184 3075 
L 1184 934 
Q 1184 600 1334 431 
Q 1484 263 1694 263 
Q 1866 263 2000 316 
Q 2134 369 2225 441 
Q 2309 506 2373 579 
Q 2438 653 2472 716 
L 2472 2463 
Q 2472 2566 2428 2645 
Q 2384 2725 2306 2781 
Q 2250 2819 2139 2826 
Q 2028 2834 1891 2841 
L 1891 3044 
L 3009 3119 
L 3056 3075 
L 3056 628 
Q 3056 522 3100 447 
Q 3144 372 3222 319 
Q 3278 284 3356 273 
Q 3434 263 3528 259 
L 3528 56 
z
" transform="scale(0.015625)"/>
       <path id="Georgia-72" d="M 2584 2684 
Q 2584 2525 2506 2401 
Q 2428 2278 2266 2278 
Q 2091 2278 1998 2368 
Q 1906 2459 1906 2569 
Q 1906 2638 1917 2694 
Q 1928 2750 1938 2806 
Q 1791 2806 1594 2687 
Q 1397 2569 1259 2350 
L 1259 556 
Q 1259 447 1301 378 
Q 1344 309 1434 275 
Q 1513 244 1636 228 
Q 1759 213 1850 206 
L 1850 0 
L 225 0 
L 225 206 
Q 297 213 373 219 
Q 450 225 506 244 
Q 594 272 636 342 
Q 678 413 678 525 
L 678 2428 
Q 678 2525 633 2619 
Q 588 2713 506 2769 
Q 447 2806 365 2823 
Q 284 2841 191 2847 
L 191 3050 
L 1216 3119 
L 1259 3075 
L 1259 2641 
L 1275 2641 
Q 1469 2894 1706 3025 
Q 1944 3156 2141 3156 
Q 2338 3156 2461 3028 
Q 2584 2900 2584 2684 
z
" transform="scale(0.015625)"/>
       <path id="Georgia-64" d="M 3600 56 
L 2525 -13 
L 2478 31 
L 2478 319 
L 2453 325 
Q 2291 144 2052 28 
Q 1813 -88 1559 -88 
Q 1297 -88 1051 29 
Q 806 147 625 359 
Q 441 575 333 878 
Q 225 1181 225 1547 
Q 225 1881 340 2181 
Q 456 2481 659 2706 
Q 850 2916 1126 3041 
Q 1403 3166 1691 3166 
Q 1906 3166 2114 3111 
Q 2322 3056 2472 2972 
L 2472 4044 
Q 2472 4175 2428 4283 
Q 2384 4391 2306 4447 
Q 2219 4506 2070 4532 
Q 1922 4559 1750 4572 
L 1750 4766 
L 3009 4838 
L 3056 4791 
L 3056 634 
Q 3056 525 3098 448 
Q 3141 372 3222 319 
Q 3281 281 3393 272 
Q 3506 263 3600 259 
L 3600 56 
z
M 2472 597 
L 2472 2400 
Q 2447 2481 2390 2575 
Q 2334 2669 2250 2747 
Q 2159 2825 2037 2876 
Q 1916 2928 1753 2928 
Q 1566 2928 1408 2831 
Q 1250 2734 1128 2553 
Q 1013 2378 945 2108 
Q 878 1838 878 1509 
Q 878 1247 928 1033 
Q 978 819 1097 634 
Q 1206 459 1376 353 
Q 1547 247 1781 247 
Q 2031 247 2195 356 
Q 2359 466 2472 597 
z
" transform="scale(0.015625)"/>
       <path id="Georgia-29" d="M 2034 1863 
Q 2034 588 1548 -165 
Q 1063 -919 209 -1025 
L 209 -769 
Q 822 -656 1128 5 
Q 1434 666 1434 1856 
Q 1434 3106 1121 3762 
Q 809 4419 209 4528 
L 209 4788 
Q 1063 4675 1548 3917 
Q 2034 3159 2034 1863 
z
" transform="scale(0.015625)"/>
      </defs>
      <use xlink:href="#Georgia-45"/>
      <use xlink:href="#Georgia-66" transform="translate(65.332031 0)"/>
      <use xlink:href="#Georgia-66" transform="translate(97.851562 0)"/>
      <use xlink:href="#Georgia-69" transform="translate(130.371094 0)"/>
      <use xlink:href="#Georgia-63" transform="translate(159.667969 0)"/>
      <use xlink:href="#Georgia-69" transform="translate(205.078125 0)"/>
      <use xlink:href="#Georgia-65" transform="translate(234.375 0)"/>
      <use xlink:href="#Georgia-6e" transform="translate(282.714844 0)"/>
      <use xlink:href="#Georgia-63" transform="translate(341.796875 0)"/>
      <use xlink:href="#Georgia-79" transform="translate(387.207031 0)"/>
      <use xlink:href="#Georgia-20" transform="translate(436.425781 0)"/>
      <use xlink:href="#Georgia-67" transform="translate(460.546875 0)"/>
      <use xlink:href="#Georgia-61" transform="translate(511.474609 0)"/>
      <use xlink:href="#Georgia-70" transform="translate(561.865234 0)"/>
      <use xlink:href="#Georgia-20" transform="translate(618.994141 0)"/>
      <use xlink:href="#Georgia-28" transform="translate(643.115234 0)"/>
      <use xlink:href="#Georgia-70" transform="translate(680.615234 0)"/>
      <use xlink:href="#Georgia-6f" transform="translate(737.744141 0)"/>
      <use xlink:href="#Georgia-73" transform="translate(791.650391 0)"/>
      <use xlink:href="#Georgia-69" transform="translate(834.863281 0)"/>
      <use xlink:href="#Georgia-74" transform="translate(864.160156 0)"/>
      <use xlink:href="#Georgia-69" transform="translate(898.681641 0)"/>
      <use xlink:href="#Georgia-76" transform="translate(927.978516 0)"/>
      <use xlink:href="#Georgia-65" transform="translate(977.636719 0)"/>
      <use xlink:href="#Georgia-20" transform="translate(1025.976562 0)"/>
      <use xlink:href="#Georgia-3d" transform="translate(1050.097656 0)"/>
      <use xlink:href="#Georgia-20" transform="translate(1114.404297 0)"/>
      <use xlink:href="#Georgia-55" transform="translate(1138.525391 0)"/>
      <use xlink:href="#Georgia-43" transform="translate(1214.160156 0)"/>
      <use xlink:href="#Georgia-50" transform="translate(1278.369141 0)"/>
      <use xlink:href="#Georgia-2d" transform="translate(1339.355469 0)"/>
      <use xlink:href="#Georgia-66" transform="translate(1376.757812 0)"/>
      <use xlink:href="#Georgia-61" transform="translate(1409.277344 0)"/>
      <use xlink:href="#Georgia-76" transform="translate(1459.667969 0)"/>
      <use xlink:href="#Georgia-6f" transform="translate(1509.326172 0)"/>
      <use xlink:href="#Georgia-75" transform="translate(1563.232422 0)"/>
      <use xlink:href="#Georgia-72" transform="translate(1620.751953 0)"/>
      <use xlink:href="#Georgia-65" transform="translate(1661.71875 0)"/>
      <use xlink:href="#Georgia-64" transform="translate(1710.058594 0)"/>
      <use xlink:href="#Georgia-29" transform="translate(1767.480469 0)"/>
     </g>
    </g>
   </g>
   <g id="matplotlib.axis_2">
    <g id="ytick_1">
     <g id="line2d_8">
      <defs>
       <path id="m367bd65421" d="M 0 0 
L -3 0 
" style="stroke: #000000; stroke-width: 0.5"/>
      </defs>
      <g>
       <use xlink:href="#m367bd65421" x="45.2625" y="217.99875" style="stroke: #000000; stroke-width: 0.5"/>
      </g>
     </g>
     <g id="text_9">
      <!-- 0 -->
      <g transform="translate(35.3525 221.0225) scale(0.08 -0.08)">
       <use xlink:href="#Georgia-30"/>
      </g>
     </g>
    </g>
    <g id="ytick_2">
     <g id="line2d_9">
      <g>
       <use xlink:href="#m367bd65421" x="45.2625" y="193.904652" style="stroke: #000000; stroke-width: 0.5"/>
      </g>
     </g>
     <g id="text_10">
      <!-- 5000 -->
      <g transform="translate(21.30625 196.928402) scale(0.08 -0.08)">
       <defs>
        <path id="Georgia-35" d="M 2634 1466 
Q 2841 1303 2977 1047 
Q 3113 791 3113 406 
Q 3113 -266 2653 -703 
Q 2194 -1141 1488 -1141 
Q 941 -1141 562 -881 
Q 184 -622 184 -278 
Q 184 -119 262 0 
Q 341 119 503 119 
Q 691 119 789 20 
Q 888 -78 888 -194 
Q 888 -294 853 -444 
Q 819 -594 800 -666 
Q 825 -688 881 -725 
Q 938 -763 1016 -797 
Q 1097 -831 1214 -857 
Q 1331 -884 1488 -884 
Q 1688 -884 1866 -803 
Q 2044 -722 2166 -563 
Q 2300 -388 2367 -164 
Q 2434 59 2434 403 
Q 2434 844 2189 1133 
Q 1944 1422 1544 1422 
Q 1294 1422 1076 1328 
Q 859 1234 688 1016 
L 478 1097 
L 744 3353 
L 2981 3353 
L 2981 2797 
L 997 2797 
L 834 1472 
Q 975 1572 1204 1670 
Q 1434 1769 1709 1769 
Q 1938 1769 2183 1698 
Q 2428 1628 2634 1466 
z
" transform="scale(0.015625)"/>
       </defs>
       <use xlink:href="#Georgia-35"/>
       <use xlink:href="#Georgia-30" transform="translate(52.832031 0)"/>
       <use xlink:href="#Georgia-30" transform="translate(114.208984 0)"/>
       <use xlink:href="#Georgia-30" transform="translate(175.585938 0)"/>
      </g>
     </g>
    </g>
    <g id="ytick_3">
     <g id="line2d_10">
      <g>
       <use xlink:href="#m367bd65421" x="45.2625" y="169.810554" style="stroke: #000000; stroke-width: 0.5"/>
      </g>
     </g>
     <g id="text_11">
      <!-- 10000 -->
      <g transform="translate(17.185 172.834304) scale(0.08 -0.08)">
       <defs>
        <path id="Georgia-31" d="M 2528 0 
L 422 0 
L 422 222 
Q 516 228 714 248 
Q 913 269 988 291 
Q 1084 322 1136 392 
Q 1188 463 1188 603 
L 1188 2797 
L 409 2797 
L 409 3059 
L 581 3059 
Q 919 3059 1186 3184 
Q 1453 3309 1569 3453 
L 1828 3453 
Q 1819 3250 1809 2978 
Q 1800 2706 1800 2491 
L 1800 638 
Q 1800 528 1848 442 
Q 1897 356 1988 316 
Q 2069 281 2253 253 
Q 2438 225 2528 222 
L 2528 0 
z
" transform="scale(0.015625)"/>
       </defs>
       <use xlink:href="#Georgia-31"/>
       <use xlink:href="#Georgia-30" transform="translate(42.96875 0)"/>
       <use xlink:href="#Georgia-30" transform="translate(104.345703 0)"/>
       <use xlink:href="#Georgia-30" transform="translate(165.722656 0)"/>
       <use xlink:href="#Georgia-30" transform="translate(227.099609 0)"/>
      </g>
     </g>
    </g>
    <g id="ytick_4">
     <g id="line2d_11">
      <g>
       <use xlink:href="#m367bd65421" x="45.2625" y="145.716456" style="stroke: #000000; stroke-width: 0.5"/>
      </g>
     </g>
     <g id="text_12">
      <!-- 15000 -->
      <g transform="translate(17.86875 148.740206) scale(0.08 -0.08)">
       <use xlink:href="#Georgia-31"/>
       <use xlink:href="#Georgia-35" transform="translate(42.96875 0)"/>
       <use xlink:href="#Georgia-30" transform="translate(95.800781 0)"/>
       <use xlink:href="#Georgia-30" transform="translate(157.177734 0)"/>
       <use xlink:href="#Georgia-30" transform="translate(218.554688 0)"/>
      </g>
     </g>
    </g>
    <g id="ytick_5">
     <g id="line2d_12">
      <g>
       <use xlink:href="#m367bd65421" x="45.2625" y="121.622358" style="stroke: #000000; stroke-width: 0.5"/>
      </g>
     </g>
     <g id="text_13">
      <!-- 20000 -->
      <g transform="translate(16.15375 124.646108) scale(0.08 -0.08)">
       <use xlink:href="#Georgia-32"/>
       <use xlink:href="#Georgia-30" transform="translate(55.859375 0)"/>
       <use xlink:href="#Georgia-30" transform="translate(117.236328 0)"/>
       <use xlink:href="#Georgia-30" transform="translate(178.613281 0)"/>
       <use xlink:href="#Georgia-30" transform="translate(239.990234 0)"/>
      </g>
     </g>
    </g>
    <g id="ytick_6">
     <g id="line2d_13">
      <g>
       <use xlink:href="#m367bd65421" x="45.2625" y="97.528259" style="stroke: #000000; stroke-width: 0.5"/>
      </g>
     </g>
     <g id="text_14">
      <!-- 25000 -->
      <g transform="translate(16.8375 100.552009) scale(0.08 -0.08)">
       <use xlink:href="#Georgia-32"/>
       <use xlink:href="#Georgia-35" transform="translate(55.859375 0)"/>
       <use xlink:href="#Georgia-30" transform="translate(108.691406 0)"/>
       <use xlink:href="#Georgia-30" transform="translate(170.068359 0)"/>
       <use xlink:href="#Georgia-30" transform="translate(231.445312 0)"/>
      </g>
     </g>
    </g>
    <g id="ytick_7">
     <g id="line2d_14">
      <g>
       <use xlink:href="#m367bd65421" x="45.2625" y="73.434161" style="stroke: #000000; stroke-width: 0.5"/>
      </g>
     </g>
     <g id="text_15">
      <!-- 30000 -->
      <g transform="translate(16.20875 76.457911) scale(0.08 -0.08)">
       <defs>
        <path id="Georgia-33" d="M 1522 -1141 
Q 1228 -1141 984 -1067 
Q 741 -994 566 -869 
Q 391 -744 295 -581 
Q 200 -419 200 -247 
Q 200 -94 275 29 
Q 350 153 516 153 
Q 703 153 801 61 
Q 900 -31 900 -150 
Q 900 -250 867 -403 
Q 834 -556 816 -622 
Q 838 -650 895 -697 
Q 953 -744 1038 -781 
Q 1138 -828 1247 -856 
Q 1356 -884 1556 -884 
Q 1744 -884 1917 -821 
Q 2091 -759 2222 -622 
Q 2359 -478 2436 -286 
Q 2513 -94 2513 219 
Q 2513 388 2477 553 
Q 2441 719 2344 841 
Q 2247 963 2080 1030 
Q 1913 1097 1656 1097 
L 1247 1097 
L 1247 1456 
L 1519 1456 
Q 1950 1456 2140 1693 
Q 2331 1931 2331 2409 
Q 2331 2800 2147 2998 
Q 1963 3197 1625 3197 
Q 1463 3197 1358 3158 
Q 1253 3119 1188 3081 
Q 1109 3038 1059 2984 
Q 1009 2931 984 2906 
Q 1006 2806 1037 2661 
Q 1069 2516 1069 2384 
Q 1069 2269 970 2176 
Q 872 2084 681 2084 
Q 516 2084 439 2203 
Q 363 2322 363 2478 
Q 363 2641 453 2809 
Q 544 2978 722 3125 
Q 900 3272 1156 3362 
Q 1413 3453 1747 3453 
Q 2131 3453 2382 3339 
Q 2634 3225 2778 3063 
Q 2919 2903 2972 2728 
Q 3025 2553 3025 2428 
Q 3025 2272 2981 2114 
Q 2938 1956 2838 1822 
Q 2728 1675 2548 1554 
Q 2369 1434 2097 1359 
L 2097 1309 
Q 2272 1294 2470 1231 
Q 2669 1169 2828 1047 
Q 2994 919 3100 717 
Q 3206 516 3206 206 
Q 3206 -394 2725 -767 
Q 2244 -1141 1522 -1141 
z
" transform="scale(0.015625)"/>
       </defs>
       <use xlink:href="#Georgia-33"/>
       <use xlink:href="#Georgia-30" transform="translate(55.175781 0)"/>
       <use xlink:href="#Georgia-30" transform="translate(116.552734 0)"/>
       <use xlink:href="#Georgia-30" transform="translate(177.929688 0)"/>
       <use xlink:href="#Georgia-30" transform="translate(239.306641 0)"/>
      </g>
     </g>
    </g>
    <g id="ytick_8">
     <g id="line2d_15">
      <g>
       <use xlink:href="#m367bd65421" x="45.2625" y="49.340063" style="stroke: #000000; stroke-width: 0.5"/>
      </g>
     </g>
     <g id="text_16">
      <!-- 35000 -->
      <g transform="translate(16.8925 52.363813) scale(0.08 -0.08)">
       <use xlink:href="#Georgia-33"/>
       <use xlink:href="#Georgia-35" transform="translate(55.175781 0)"/>
       <use xlink:href="#Georgia-30" transform="translate(108.007812 0)"/>
       <use xlink:href="#Georgia-30" transform="translate(169.384766 0)"/>
       <use xlink:href="#Georgia-30" transform="translate(230.761719 0)"/>
      </g>
     </g>
    </g>
    <g id="ytick_9">
     <g id="line2d_16">
      <g>
       <use xlink:href="#m367bd65421" x="45.2625" y="25.245965" style="stroke: #000000; stroke-width: 0.5"/>
      </g>
     </g>
     <g id="text_17">
      <!-- 40000 -->
      <g transform="translate(16.1025 28.269715) scale(0.08 -0.08)">
       <use xlink:href="#Georgia-34"/>
       <use xlink:href="#Georgia-30" transform="translate(56.494141 0)"/>
       <use xlink:href="#Georgia-30" transform="translate(117.871094 0)"/>
       <use xlink:href="#Georgia-30" transform="translate(179.248047 0)"/>
       <use xlink:href="#Georgia-30" transform="translate(240.625 0)"/>
      </g>
     </g>
    </g>
    <g id="text_18">
     <!-- Neutral maps -->
     <g style="fill: #444444" transform="translate(10.3675 135.159375) rotate(-90) scale(0.08 -0.08)">
      <defs>
       <path id="Georgia-4e" d="M 4856 4213 
Q 4769 4209 4587 4162 
Q 4406 4116 4328 4066 
Q 4216 3988 4177 3766 
Q 4138 3544 4138 3203 
L 4138 -44 
L 3866 -44 
L 1178 3584 
L 1178 1297 
Q 1178 913 1226 706 
Q 1275 500 1375 413 
Q 1447 344 1672 284 
Q 1897 225 1969 222 
L 1969 0 
L 150 0 
L 150 222 
Q 234 228 434 283 
Q 634 338 684 381 
Q 794 469 834 648 
Q 875 828 875 1263 
L 875 3447 
Q 875 3591 825 3734 
Q 775 3878 691 3956 
Q 578 4059 386 4132 
Q 194 4206 75 4213 
L 75 4434 
L 1341 4434 
L 3834 1053 
L 3834 3163 
Q 3834 3550 3784 3758 
Q 3734 3966 3641 4034 
Q 3553 4094 3354 4150 
Q 3156 4206 3053 4213 
L 3053 4434 
L 4856 4434 
L 4856 4213 
z
" transform="scale(0.015625)"/>
       <path id="Georgia-6c" d="M 1669 0 
L 166 0 
L 166 206 
Q 238 213 319 220 
Q 400 228 453 244 
Q 541 272 584 342 
Q 628 413 628 525 
L 628 4094 
Q 628 4206 579 4304 
Q 531 4403 453 4459 
Q 397 4497 247 4528 
Q 97 4559 6 4566 
L 6 4766 
L 1166 4838 
L 1209 4791 
L 1209 563 
Q 1209 453 1250 383 
Q 1291 313 1381 275 
Q 1450 244 1517 228 
Q 1584 213 1669 206 
L 1669 0 
z
" transform="scale(0.015625)"/>
       <path id="Georgia-6d" d="M 5503 0 
L 4000 0 
L 4000 206 
Q 4072 213 4145 219 
Q 4219 225 4275 244 
Q 4363 272 4405 342 
Q 4447 413 4447 525 
L 4447 2116 
Q 4447 2441 4298 2617 
Q 4150 2794 3928 2794 
Q 3775 2794 3640 2747 
Q 3506 2700 3394 2616 
Q 3303 2547 3242 2467 
Q 3181 2388 3150 2334 
L 3150 556 
Q 3150 447 3187 376 
Q 3225 306 3316 269 
Q 3388 241 3445 227 
Q 3503 213 3597 206 
L 3597 0 
L 2125 0 
L 2125 206 
Q 2197 213 2264 219 
Q 2331 225 2388 244 
Q 2475 272 2517 342 
Q 2559 413 2559 525 
L 2559 2116 
Q 2559 2441 2411 2617 
Q 2263 2794 2041 2794 
Q 1888 2794 1753 2745 
Q 1619 2697 1506 2613 
Q 1416 2544 1353 2458 
Q 1291 2372 1259 2328 
L 1259 563 
Q 1259 456 1303 384 
Q 1347 313 1434 275 
Q 1500 244 1569 228 
Q 1638 213 1722 206 
L 1722 0 
L 225 0 
L 225 206 
Q 297 213 373 219 
Q 450 225 506 244 
Q 594 272 636 342 
Q 678 413 678 525 
L 678 2441 
Q 678 2541 633 2620 
Q 588 2700 506 2756 
Q 447 2794 359 2817 
Q 272 2841 178 2847 
L 178 3050 
L 1209 3119 
L 1253 3075 
L 1253 2634 
L 1275 2634 
Q 1353 2713 1465 2819 
Q 1578 2925 1675 2991 
Q 1784 3066 1948 3116 
Q 2113 3166 2303 3166 
Q 2603 3166 2818 3005 
Q 3034 2844 3128 2616 
Q 3241 2725 3327 2808 
Q 3413 2891 3553 2984 
Q 3672 3066 3833 3116 
Q 3994 3166 4191 3166 
Q 4581 3166 4809 2909 
Q 5038 2653 5038 2122 
L 5038 556 
Q 5038 447 5075 376 
Q 5113 306 5203 269 
Q 5275 241 5345 227 
Q 5416 213 5503 206 
L 5503 0 
z
" transform="scale(0.015625)"/>
      </defs>
      <use xlink:href="#Georgia-4e"/>
      <use xlink:href="#Georgia-65" transform="translate(76.708984 0)"/>
      <use xlink:href="#Georgia-75" transform="translate(125.048828 0)"/>
      <use xlink:href="#Georgia-74" transform="translate(182.568359 0)"/>
      <use xlink:href="#Georgia-72" transform="translate(217.089844 0)"/>
      <use xlink:href="#Georgia-61" transform="translate(258.056641 0)"/>
      <use xlink:href="#Georgia-6c" transform="translate(308.447266 0)"/>
      <use xlink:href="#Georgia-20" transform="translate(337.060547 0)"/>
      <use xlink:href="#Georgia-6d" transform="translate(361.181641 0)"/>
      <use xlink:href="#Georgia-61" transform="translate(449.267578 0)"/>
      <use xlink:href="#Georgia-70" transform="translate(499.658203 0)"/>
      <use xlink:href="#Georgia-73" transform="translate(556.787109 0)"/>
     </g>
    </g>
   </g>
   <g id="line2d_17">
    <path d="M 295.8583 217.99875 
L 295.8583 4.32 
" clip-path="url(#p70440df9c7)" style="fill: none; stroke-dasharray: 3.7,1.6; stroke-dashoffset: 0; stroke: #7b2d3e"/>
   </g>
   <g id="patch_83">
    <path d="M 45.2625 217.99875 
L 45.2625 4.32 
" style="fill: none; stroke: #444444; stroke-width: 0.5; stroke-linejoin: miter; stroke-linecap: square"/>
   </g>
   <g id="patch_84">
    <path d="M 45.2625 217.99875 
L 458.3325 217.99875 
" style="fill: none; stroke: #444444; stroke-width: 0.5; stroke-linejoin: miter; stroke-linecap: square"/>
   </g>
   <g id="text_19">
    <!-- p95 -->
    <g style="fill: #7b2d3e" transform="translate(299.16286 15.643956) scale(0.065 -0.065)">
     <defs>
      <path id="Georgia-Bold-70" d="M 3988 1522 
Q 3988 863 3547 391 
Q 3106 -81 2431 -81 
Q 2131 -81 1943 -20 
Q 1756 41 1634 128 
L 1609 128 
L 1609 -750 
Q 1609 -859 1657 -940 
Q 1706 -1022 1794 -1059 
Q 1878 -1094 2033 -1122 
Q 2188 -1150 2291 -1156 
L 2291 -1388 
L 34 -1388 
L 34 -1156 
Q 113 -1150 231 -1133 
Q 350 -1116 409 -1097 
Q 509 -1063 545 -980 
Q 581 -897 581 -791 
L 581 2406 
Q 572 2509 533 2587 
Q 494 2666 409 2725 
Q 347 2766 244 2792 
Q 141 2819 41 2828 
L 41 3056 
L 1563 3138 
L 1609 3097 
L 1609 2750 
L 1634 2744 
Q 1841 2953 2092 3068 
Q 2344 3184 2591 3184 
Q 3238 3184 3613 2726 
Q 3988 2269 3988 1522 
z
M 2866 1509 
Q 2866 1744 2831 1958 
Q 2797 2172 2709 2341 
Q 2625 2509 2486 2609 
Q 2347 2709 2147 2709 
Q 1944 2709 1822 2639 
Q 1700 2569 1609 2456 
L 1609 684 
Q 1628 622 1681 523 
Q 1734 425 1788 366 
Q 1866 281 1966 240 
Q 2066 200 2184 200 
Q 2494 200 2680 533 
Q 2866 866 2866 1509 
z
" transform="scale(0.015625)"/>
      <path id="Georgia-Bold-39" d="M 3825 1588 
Q 3825 450 3056 -273 
Q 2288 -997 956 -1172 
L 884 -863 
L 1216 -806 
Q 1600 -697 1853 -525 
Q 2106 -353 2269 -125 
Q 2438 109 2525 371 
Q 2613 634 2656 913 
Q 2381 672 2123 595 
Q 1866 519 1544 519 
Q 1275 519 1040 625 
Q 806 731 634 916 
Q 459 1103 361 1367 
Q 263 1631 263 1941 
Q 263 2600 769 3033 
Q 1275 3466 2034 3466 
Q 2856 3466 3340 2956 
Q 3825 2447 3825 1588 
z
M 2684 1416 
Q 2684 1459 2687 1521 
Q 2691 1584 2691 1644 
Q 2691 2394 2511 2792 
Q 2331 3191 2044 3191 
Q 1766 3191 1592 2887 
Q 1419 2584 1419 2013 
Q 1419 1513 1595 1216 
Q 1772 919 2059 919 
Q 2241 919 2394 991 
Q 2547 1063 2678 1259 
Q 2678 1275 2681 1314 
Q 2684 1353 2684 1416 
z
" transform="scale(0.015625)"/>
      <path id="Georgia-Bold-35" d="M 3013 1481 
Q 3247 1325 3406 1061 
Q 3566 797 3566 406 
Q 3566 -281 3033 -717 
Q 2500 -1153 1672 -1153 
Q 1031 -1153 603 -878 
Q 175 -603 175 -228 
Q 175 -6 317 147 
Q 459 300 697 300 
Q 944 300 1101 167 
Q 1259 34 1259 -188 
Q 1259 -344 1206 -528 
Q 1153 -713 1119 -809 
Q 1194 -838 1294 -852 
Q 1394 -866 1481 -866 
Q 1659 -866 1831 -786 
Q 2003 -706 2125 -553 
Q 2266 -378 2337 -139 
Q 2409 100 2409 403 
Q 2409 844 2173 1126 
Q 1938 1409 1563 1409 
Q 1272 1409 1075 1292 
Q 878 1175 722 984 
L 478 1066 
L 781 3366 
L 3422 3366 
L 3422 2503 
L 1006 2503 
L 878 1472 
Q 1047 1578 1312 1675 
Q 1578 1772 1938 1772 
Q 2216 1772 2486 1711 
Q 2756 1650 3013 1481 
z
" transform="scale(0.015625)"/>
     </defs>
     <use xlink:href="#Georgia-Bold-70"/>
     <use xlink:href="#Georgia-Bold-39" transform="translate(65.771484 0)"/>
     <use xlink:href="#Georgia-Bold-35" transform="translate(130.566406 0)"/>
    </g>
    <!-- 4.1% -->
    <g style="fill: #7b2d3e" transform="translate(299.16286 22.949956) scale(0.065 -0.065)">
     <defs>
      <path id="Georgia-Bold-34" d="M 3941 31 
L 3269 31 
L 3269 -1153 
L 2222 -1153 
L 2222 31 
L 153 31 
L 153 606 
L 2397 3447 
L 3269 3447 
L 3269 691 
L 3941 691 
L 3941 31 
z
M 2222 691 
L 2222 2700 
L 631 691 
L 2222 691 
z
" transform="scale(0.015625)"/>
      <path id="Georgia-Bold-2e" d="M 1669 519 
Q 1669 272 1486 90 
Q 1303 -91 1053 -91 
Q 800 -91 617 89 
Q 434 269 434 519 
Q 434 769 617 951 
Q 800 1134 1053 1134 
Q 1303 1134 1486 950 
Q 1669 766 1669 519 
z
" transform="scale(0.015625)"/>
      <path id="Georgia-Bold-31" d="M 2956 0 
L 378 0 
L 378 238 
Q 472 244 676 269 
Q 881 294 956 319 
Q 1050 350 1103 425 
Q 1156 500 1156 631 
L 1156 2613 
L 366 2613 
L 366 2909 
L 538 2909 
Q 809 2909 1007 2968 
Q 1206 3028 1338 3113 
Q 1472 3200 1558 3294 
Q 1644 3388 1694 3459 
L 2244 3459 
Q 2234 3256 2225 2984 
Q 2216 2713 2216 2497 
L 2216 666 
Q 2216 553 2264 470 
Q 2313 388 2403 344 
Q 2484 306 2675 275 
Q 2866 244 2956 238 
L 2956 0 
z
" transform="scale(0.015625)"/>
      <path id="Georgia-Bold-25" d="M 2719 3394 
Q 2719 2872 2367 2548 
Q 2016 2225 1503 2225 
Q 984 2225 634 2548 
Q 284 2872 284 3394 
Q 284 3916 634 4239 
Q 984 4563 1500 4563 
Q 2016 4563 2367 4239 
Q 2719 3916 2719 3394 
z
M 1891 3388 
Q 1891 3819 1806 4076 
Q 1722 4334 1497 4334 
Q 1294 4334 1203 4092 
Q 1113 3850 1113 3419 
Q 1113 2969 1195 2711 
Q 1278 2453 1509 2453 
Q 1709 2453 1800 2695 
Q 1891 2938 1891 3388 
z
M 5344 1059 
Q 5344 538 4992 214 
Q 4641 -109 4128 -109 
Q 3609 -109 3259 214 
Q 2909 538 2909 1059 
Q 2909 1581 3259 1904 
Q 3609 2228 4125 2228 
Q 4641 2228 4992 1904 
Q 5344 1581 5344 1059 
z
M 4516 1053 
Q 4516 1484 4431 1742 
Q 4347 2000 4122 2000 
Q 3919 2000 3828 1758 
Q 3738 1516 3738 1084 
Q 3738 634 3820 376 
Q 3903 119 4134 119 
Q 4334 119 4425 361 
Q 4516 603 4516 1053 
z
M 4919 4463 
L 1222 0 
L 713 0 
L 4400 4463 
L 4919 4463 
z
" transform="scale(0.015625)"/>
     </defs>
     <use xlink:href="#Georgia-Bold-34"/>
     <use xlink:href="#Georgia-Bold-2e" transform="translate(64.941406 0)"/>
     <use xlink:href="#Georgia-Bold-31" transform="translate(97.753906 0)"/>
     <use xlink:href="#Georgia-Bold-25" transform="translate(146.728516 0)"/>
    </g>
   </g>
   <g id="text_20">
    <!-- Minority 2026 -->
    <g style="fill: #6b35a7" transform="translate(241.477372 15.643956) scale(0.065 -0.065)">
     <defs>
      <path id="Georgia-Bold-4d" d="M 6309 0 
L 3906 0 
L 3906 244 
Q 4013 253 4167 275 
Q 4322 297 4378 322 
Q 4494 369 4544 450 
Q 4594 531 4594 656 
L 4594 3969 
L 3069 72 
L 2675 72 
Q 2647 175 2536 481 
Q 2425 788 2356 972 
L 1234 4019 
L 1234 1322 
Q 1234 934 1286 732 
Q 1338 531 1453 438 
Q 1531 372 1732 312 
Q 1934 253 2016 244 
L 2016 0 
L 109 0 
L 109 244 
Q 188 253 364 286 
Q 541 319 653 400 
Q 778 488 822 695 
Q 866 903 866 1288 
L 866 3484 
Q 866 3684 816 3817 
Q 766 3950 666 4028 
Q 541 4125 409 4153 
Q 278 4181 144 4191 
L 144 4434 
L 2184 4434 
L 3278 1506 
L 4200 3884 
Q 4247 4016 4290 4197 
Q 4334 4378 4338 4434 
L 6303 4434 
L 6303 4191 
Q 6203 4184 6093 4165 
Q 5984 4147 5884 4116 
Q 5763 4075 5723 3987 
Q 5684 3900 5684 3794 
L 5684 653 
Q 5684 541 5723 464 
Q 5763 388 5884 331 
Q 5947 303 6089 278 
Q 6231 253 6309 244 
L 6309 0 
z
" transform="scale(0.015625)"/>
      <path id="Georgia-Bold-69" d="M 2156 0 
L 181 0 
L 181 228 
Q 263 234 341 243 
Q 419 253 475 275 
Q 575 313 615 383 
Q 656 453 656 569 
L 656 2388 
Q 656 2497 606 2580 
Q 556 2663 481 2713 
Q 425 2750 311 2784 
Q 197 2819 103 2828 
L 103 3056 
L 1634 3138 
L 1681 3091 
L 1681 609 
Q 1681 500 1728 423 
Q 1775 347 1863 309 
Q 1925 281 2000 259 
Q 2075 238 2156 228 
L 2156 0 
z
M 1700 4263 
Q 1700 4025 1517 3858 
Q 1334 3691 1084 3691 
Q 831 3691 648 3858 
Q 466 4025 466 4263 
Q 466 4500 648 4669 
Q 831 4838 1084 4838 
Q 1338 4838 1519 4669 
Q 1700 4500 1700 4263 
z
" transform="scale(0.015625)"/>
      <path id="Georgia-Bold-6e" d="M 4306 0 
L 2425 0 
L 2425 228 
Q 2484 234 2568 243 
Q 2653 253 2697 275 
Q 2763 309 2791 375 
Q 2819 441 2819 569 
L 2819 2031 
Q 2819 2350 2701 2511 
Q 2584 2672 2356 2672 
Q 2231 2672 2123 2634 
Q 2016 2597 1913 2525 
Q 1822 2463 1767 2397 
Q 1713 2331 1675 2281 
L 1675 603 
Q 1675 494 1706 420 
Q 1738 347 1809 309 
Q 1859 281 1934 259 
Q 2009 238 2081 228 
L 2081 0 
L 181 0 
L 181 228 
Q 259 234 339 245 
Q 419 256 475 275 
Q 575 309 612 381 
Q 650 453 650 569 
L 650 2388 
Q 650 2484 600 2578 
Q 550 2672 469 2731 
Q 413 2769 327 2794 
Q 241 2819 138 2828 
L 138 3056 
L 1628 3138 
L 1675 3091 
L 1675 2638 
L 1688 2638 
Q 1775 2716 1900 2825 
Q 2025 2934 2131 3003 
Q 2247 3078 2434 3131 
Q 2622 3184 2834 3184 
Q 3344 3184 3598 2895 
Q 3853 2606 3853 2128 
L 3853 597 
Q 3853 481 3887 412 
Q 3922 344 4016 303 
Q 4066 281 4139 259 
Q 4213 238 4306 228 
L 4306 0 
z
" transform="scale(0.015625)"/>
      <path id="Georgia-Bold-6f" d="M 3372 2731 
Q 3603 2516 3725 2216 
Q 3847 1916 3847 1566 
Q 3847 1219 3726 911 
Q 3606 603 3375 384 
Q 3128 150 2786 25 
Q 2444 -100 2003 -100 
Q 1622 -100 1301 9 
Q 981 119 734 338 
Q 497 547 359 855 
Q 222 1163 222 1544 
Q 222 1919 342 2211 
Q 463 2503 703 2731 
Q 934 2950 1273 3070 
Q 1613 3191 2031 3191 
Q 2469 3191 2801 3070 
Q 3134 2950 3372 2731 
z
M 2572 566 
Q 2641 741 2673 991 
Q 2706 1241 2706 1572 
Q 2706 1791 2675 2072 
Q 2644 2353 2581 2516 
Q 2506 2713 2373 2825 
Q 2241 2938 2038 2938 
Q 1816 2938 1683 2816 
Q 1550 2694 1478 2500 
Q 1413 2322 1388 2083 
Q 1363 1844 1363 1584 
Q 1363 1244 1384 1020 
Q 1406 797 1491 572 
Q 1563 378 1697 265 
Q 1831 153 2038 153 
Q 2225 153 2359 258 
Q 2494 363 2572 566 
z
" transform="scale(0.015625)"/>
      <path id="Georgia-Bold-72" d="M 3294 2528 
Q 3294 2291 3147 2111 
Q 3000 1931 2759 1931 
Q 2531 1931 2373 2047 
Q 2216 2163 2216 2388 
Q 2216 2497 2231 2558 
Q 2247 2619 2259 2672 
Q 2116 2666 1956 2572 
Q 1797 2478 1675 2322 
L 1675 606 
Q 1675 497 1709 425 
Q 1744 353 1825 313 
Q 1894 278 2048 254 
Q 2203 231 2272 228 
L 2272 0 
L 181 0 
L 181 228 
Q 259 234 339 245 
Q 419 256 475 275 
Q 575 309 612 381 
Q 650 453 650 569 
L 650 2388 
Q 650 2500 597 2589 
Q 544 2678 469 2731 
Q 413 2769 327 2794 
Q 241 2819 138 2828 
L 138 3056 
L 1628 3138 
L 1675 3091 
L 1675 2638 
L 1688 2638 
Q 1903 2888 2145 3030 
Q 2388 3172 2650 3172 
Q 2941 3172 3117 2992 
Q 3294 2813 3294 2528 
z
" transform="scale(0.015625)"/>
      <path id="Georgia-Bold-74" d="M 2506 144 
Q 2306 56 2078 -14 
Q 1850 -84 1522 -84 
Q 1034 -84 798 153 
Q 563 391 563 831 
L 563 2750 
L 0 2750 
L 0 3088 
L 575 3088 
L 575 4034 
L 1591 4034 
L 1591 3088 
L 2466 3088 
L 2466 2750 
L 1597 2750 
L 1597 1038 
Q 1597 672 1698 519 
Q 1800 366 2063 366 
Q 2147 366 2297 378 
Q 2447 391 2506 406 
L 2506 144 
z
" transform="scale(0.015625)"/>
      <path id="Georgia-Bold-79" d="M 3713 2872 
Q 3572 2850 3439 2765 
Q 3306 2681 3219 2503 
Q 2950 1934 2665 1292 
Q 2381 650 2034 -97 
Q 1841 -516 1659 -766 
Q 1478 -1016 1319 -1150 
Q 1169 -1275 1022 -1331 
Q 875 -1388 725 -1388 
Q 428 -1388 245 -1222 
Q 63 -1056 63 -850 
Q 63 -763 83 -688 
Q 103 -613 169 -531 
Q 219 -463 323 -414 
Q 428 -366 559 -366 
Q 734 -366 893 -487 
Q 1053 -609 1225 -825 
Q 1328 -722 1479 -517 
Q 1631 -313 1703 -97 
Q 1331 684 1043 1257 
Q 756 1831 400 2538 
Q 322 2688 190 2770 
Q 59 2853 -88 2872 
L -88 3100 
L 1825 3100 
L 1825 2872 
Q 1719 2869 1580 2825 
Q 1441 2781 1441 2713 
Q 1441 2688 1450 2658 
Q 1459 2628 1484 2572 
Q 1591 2353 1786 1964 
Q 1981 1575 2241 1053 
Q 2434 1497 2570 1817 
Q 2706 2138 2834 2447 
Q 2866 2525 2870 2570 
Q 2875 2616 2875 2631 
Q 2875 2688 2820 2730 
Q 2766 2772 2691 2803 
Q 2613 2834 2541 2850 
Q 2469 2866 2422 2872 
L 2422 3100 
L 3713 3100 
L 3713 2872 
z
" transform="scale(0.015625)"/>
      <path id="Georgia-Bold-20" transform="scale(0.015625)"/>
      <path id="Georgia-Bold-32" d="M 3731 0 
L 344 0 
L 344 566 
Q 566 791 830 977 
Q 1094 1163 1366 1306 
Q 1656 1459 1853 1579 
Q 2050 1700 2163 1831 
Q 2275 1953 2323 2097 
Q 2372 2241 2372 2419 
Q 2372 2816 2184 2997 
Q 1997 3178 1688 3178 
Q 1591 3178 1505 3164 
Q 1419 3150 1325 3113 
Q 1372 2972 1415 2822 
Q 1459 2672 1459 2488 
Q 1459 2266 1300 2134 
Q 1141 2003 894 2003 
Q 659 2003 520 2156 
Q 381 2309 381 2528 
Q 381 2909 825 3187 
Q 1269 3466 1906 3466 
Q 2644 3466 3098 3212 
Q 3553 2959 3553 2397 
Q 3553 2106 3433 1928 
Q 3313 1750 3078 1616 
Q 2869 1494 2614 1416 
Q 2359 1338 2069 1266 
Q 1759 1188 1529 1100 
Q 1300 1013 1122 891 
L 1122 856 
L 3731 856 
L 3731 0 
z
" transform="scale(0.015625)"/>
      <path id="Georgia-Bold-30" d="M 3700 2913 
Q 3938 2663 4052 2342 
Q 4166 2022 4166 1678 
Q 4166 1269 4023 939 
Q 3881 609 3634 381 
Q 3375 144 3031 19 
Q 2688 -106 2241 -106 
Q 1769 -106 1408 41 
Q 1047 188 806 428 
Q 569 666 445 987 
Q 322 1309 322 1678 
Q 322 2044 439 2356 
Q 556 2669 800 2922 
Q 1038 3169 1403 3317 
Q 1769 3466 2244 3466 
Q 2734 3466 3100 3312 
Q 3466 3159 3700 2913 
z
M 2819 584 
Q 2909 794 2948 1051 
Q 2988 1309 2988 1678 
Q 2988 2009 2952 2275 
Q 2916 2541 2831 2747 
Q 2744 2959 2600 3075 
Q 2456 3191 2247 3191 
Q 2034 3191 1890 3077 
Q 1747 2963 1656 2753 
Q 1575 2563 1537 2286 
Q 1500 2009 1500 1678 
Q 1500 1331 1533 1087 
Q 1566 844 1653 619 
Q 1731 416 1878 291 
Q 2025 166 2241 166 
Q 2441 166 2587 278 
Q 2734 391 2819 584 
z
" transform="scale(0.015625)"/>
      <path id="Georgia-Bold-36" d="M 3884 1447 
Q 3884 784 3386 337 
Q 2888 -109 2113 -109 
Q 1303 -109 812 398 
Q 322 906 322 1763 
Q 322 2906 1094 3653 
Q 1866 4400 3191 4556 
L 3263 4247 
L 2931 4191 
Q 2553 4088 2298 3908 
Q 2044 3728 1878 3497 
Q 1719 3275 1628 2995 
Q 1538 2716 1491 2444 
Q 1763 2688 2030 2772 
Q 2297 2856 2603 2856 
Q 3141 2856 3512 2464 
Q 3884 2072 3884 1447 
z
M 2728 1363 
Q 2728 1856 2554 2147 
Q 2381 2438 2091 2438 
Q 1897 2438 1755 2372 
Q 1613 2306 1469 2097 
Q 1469 2081 1467 2042 
Q 1466 2003 1463 1941 
Q 1459 1872 1457 1812 
Q 1456 1753 1456 1713 
Q 1456 963 1639 564 
Q 1822 166 2109 166 
Q 2388 166 2558 478 
Q 2728 791 2728 1363 
z
" transform="scale(0.015625)"/>
     </defs>
     <use xlink:href="#Georgia-Bold-4d"/>
     <use xlink:href="#Georgia-Bold-69" transform="translate(102.34375 0)"/>
     <use xlink:href="#Georgia-Bold-6e" transform="translate(137.695312 0)"/>
     <use xlink:href="#Georgia-Bold-6f" transform="translate(206.689453 0)"/>
     <use xlink:href="#Georgia-Bold-72" transform="translate(270.263672 0)"/>
     <use xlink:href="#Georgia-Bold-69" transform="translate(322.265625 0)"/>
     <use xlink:href="#Georgia-Bold-74" transform="translate(357.617188 0)"/>
     <use xlink:href="#Georgia-Bold-79" transform="translate(397.363281 0)"/>
     <use xlink:href="#Georgia-Bold-20" transform="translate(453.564453 0)"/>
     <use xlink:href="#Georgia-Bold-32" transform="translate(478.955078 0)"/>
     <use xlink:href="#Georgia-Bold-30" transform="translate(541.601562 0)"/>
     <use xlink:href="#Georgia-Bold-32" transform="translate(611.71875 0)"/>
     <use xlink:href="#Georgia-Bold-36" transform="translate(674.365234 0)"/>
    </g>
    <!-- +4.02%, p94 -->
    <g style="fill: #6b35a7" transform="translate(247.764091 22.949956) scale(0.065 -0.065)">
     <defs>
      <path id="Georgia-Bold-2b" d="M 3984 1541 
L 2506 1541 
L 2506 63 
L 1991 63 
L 1991 1541 
L 513 1541 
L 513 2050 
L 1991 2050 
L 1991 3528 
L 2506 3528 
L 2506 2050 
L 3984 2050 
L 3984 1541 
z
" transform="scale(0.015625)"/>
      <path id="Georgia-Bold-2c" d="M 1684 166 
Q 1684 -216 1365 -614 
Q 1047 -1013 600 -1216 
L 463 -994 
Q 616 -913 752 -819 
Q 888 -725 994 -600 
Q 1103 -469 1167 -333 
Q 1231 -197 1247 0 
L 1072 0 
Q 753 0 590 144 
Q 428 288 428 541 
Q 428 741 584 902 
Q 741 1063 969 1063 
Q 1319 1063 1501 823 
Q 1684 584 1684 166 
z
" transform="scale(0.015625)"/>
     </defs>
     <use xlink:href="#Georgia-Bold-2b"/>
     <use xlink:href="#Georgia-Bold-34" transform="translate(70.3125 0)"/>
     <use xlink:href="#Georgia-Bold-2e" transform="translate(135.253906 0)"/>
     <use xlink:href="#Georgia-Bold-30" transform="translate(168.066406 0)"/>
     <use xlink:href="#Georgia-Bold-32" transform="translate(238.183594 0)"/>
     <use xlink:href="#Georgia-Bold-25" transform="translate(300.830078 0)"/>
     <use xlink:href="#Georgia-Bold-2c" transform="translate(388.769531 0)"/>
     <use xlink:href="#Georgia-Bold-20" transform="translate(421.582031 0)"/>
     <use xlink:href="#Georgia-Bold-70" transform="translate(446.972656 0)"/>
     <use xlink:href="#Georgia-Bold-39" transform="translate(512.744141 0)"/>
     <use xlink:href="#Georgia-Bold-34" transform="translate(577.539062 0)"/>
    </g>
   </g>
   <g id="text_21">
    <!-- Majority 2026 -->
    <g style="fill: #1a7a6e" transform="translate(162.012784 15.643956) scale(0.065 -0.065)">
     <defs>
      <path id="Georgia-Bold-61" d="M 3753 66 
Q 3616 6 3428 -44 
Q 3241 -94 3031 -94 
Q 2647 -94 2465 20 
Q 2284 134 2219 347 
L 2200 347 
Q 2094 241 1995 166 
Q 1897 91 1784 38 
Q 1638 -31 1502 -64 
Q 1366 -97 1122 -97 
Q 759 -97 503 117 
Q 247 331 247 684 
Q 247 888 303 1030 
Q 359 1172 463 1281 
Q 556 1381 679 1447 
Q 803 1513 950 1569 
Q 1231 1672 1625 1783 
Q 2019 1894 2200 1981 
L 2200 2281 
Q 2200 2359 2187 2487 
Q 2175 2616 2134 2703 
Q 2091 2803 1997 2872 
Q 1903 2941 1750 2941 
Q 1613 2941 1520 2902 
Q 1428 2863 1372 2822 
Q 1381 2759 1425 2631 
Q 1469 2503 1469 2384 
Q 1469 2331 1441 2251 
Q 1413 2172 1359 2125 
Q 1288 2063 1198 2028 
Q 1109 1994 925 1994 
Q 663 1994 528 2120 
Q 394 2247 394 2450 
Q 394 2625 533 2764 
Q 672 2903 872 2994 
Q 1069 3088 1325 3139 
Q 1581 3191 1800 3191 
Q 2103 3191 2356 3155 
Q 2609 3119 2813 3006 
Q 3006 2897 3120 2689 
Q 3234 2481 3234 2147 
Q 3234 1794 3220 1309 
Q 3206 825 3206 672 
Q 3206 531 3248 450 
Q 3291 369 3378 328 
Q 3431 303 3545 298 
Q 3659 294 3753 294 
L 3753 66 
z
M 2200 1694 
Q 2025 1634 1853 1557 
Q 1681 1481 1572 1397 
Q 1456 1309 1390 1173 
Q 1325 1038 1325 853 
Q 1325 609 1436 500 
Q 1547 391 1709 391 
Q 1881 391 1992 461 
Q 2103 531 2188 634 
L 2200 1694 
z
" transform="scale(0.015625)"/>
      <path id="Georgia-Bold-6a" d="M 1722 369 
Q 1722 47 1612 -281 
Q 1503 -609 1300 -844 
Q 1078 -1100 762 -1244 
Q 447 -1388 41 -1388 
Q -338 -1388 -542 -1242 
Q -747 -1097 -747 -850 
Q -747 -763 -726 -688 
Q -706 -613 -641 -531 
Q -591 -463 -486 -414 
Q -381 -366 -250 -366 
Q 9 -366 150 -552 
Q 291 -738 438 -1109 
Q 566 -1038 627 -803 
Q 688 -569 688 216 
L 688 2375 
Q 688 2484 641 2567 
Q 594 2650 513 2706 
Q 453 2747 323 2783 
Q 194 2819 94 2828 
L 94 3056 
L 1675 3138 
L 1722 3091 
L 1722 369 
z
M 1734 4263 
Q 1734 4025 1551 3858 
Q 1369 3691 1119 3691 
Q 866 3691 683 3858 
Q 500 4025 500 4263 
Q 500 4500 683 4669 
Q 866 4838 1119 4838 
Q 1372 4838 1553 4669 
Q 1734 4500 1734 4263 
z
" transform="scale(0.015625)"/>
     </defs>
     <use xlink:href="#Georgia-Bold-4d"/>
     <use xlink:href="#Georgia-Bold-61" transform="translate(102.34375 0)"/>
     <use xlink:href="#Georgia-Bold-6a" transform="translate(161.914062 0)"/>
     <use xlink:href="#Georgia-Bold-6f" transform="translate(196.533203 0)"/>
     <use xlink:href="#Georgia-Bold-72" transform="translate(260.107422 0)"/>
     <use xlink:href="#Georgia-Bold-69" transform="translate(312.109375 0)"/>
     <use xlink:href="#Georgia-Bold-74" transform="translate(347.460938 0)"/>
     <use xlink:href="#Georgia-Bold-79" transform="translate(387.207031 0)"/>
     <use xlink:href="#Georgia-Bold-20" transform="translate(443.408203 0)"/>
     <use xlink:href="#Georgia-Bold-32" transform="translate(468.798828 0)"/>
     <use xlink:href="#Georgia-Bold-30" transform="translate(531.445312 0)"/>
     <use xlink:href="#Georgia-Bold-32" transform="translate(601.5625 0)"/>
     <use xlink:href="#Georgia-Bold-36" transform="translate(664.208984 0)"/>
    </g>
    <!-- +0.10%, p15 -->
    <g style="fill: #1a7a6e" transform="translate(165.779738 22.949956) scale(0.065 -0.065)">
     <use xlink:href="#Georgia-Bold-2b"/>
     <use xlink:href="#Georgia-Bold-30" transform="translate(70.3125 0)"/>
     <use xlink:href="#Georgia-Bold-2e" transform="translate(140.429688 0)"/>
     <use xlink:href="#Georgia-Bold-31" transform="translate(173.242188 0)"/>
     <use xlink:href="#Georgia-Bold-30" transform="translate(222.216797 0)"/>
     <use xlink:href="#Georgia-Bold-25" transform="translate(292.333984 0)"/>
     <use xlink:href="#Georgia-Bold-2c" transform="translate(380.273438 0)"/>
     <use xlink:href="#Georgia-Bold-20" transform="translate(413.085938 0)"/>
     <use xlink:href="#Georgia-Bold-70" transform="translate(438.476562 0)"/>
     <use xlink:href="#Georgia-Bold-31" transform="translate(504.248047 0)"/>
     <use xlink:href="#Georgia-Bold-35" transform="translate(553.222656 0)"/>
    </g>
   </g>
   <g id="text_22">
    <!-- 2019 enacted -->
    <g style="fill: #666666" transform="translate(252.62364 15.643956) scale(0.065 -0.065)">
     <defs>
      <path id="Georgia-Bold-65" d="M 3541 747 
Q 3431 569 3276 411 
Q 3122 253 2925 141 
Q 2716 22 2502 -39 
Q 2288 -100 2009 -100 
Q 1547 -100 1211 31 
Q 875 163 656 384 
Q 438 606 330 907 
Q 222 1209 222 1563 
Q 222 1881 339 2173 
Q 456 2466 672 2694 
Q 884 2916 1207 3053 
Q 1531 3191 1931 3191 
Q 2369 3191 2650 3084 
Q 2931 2978 3116 2791 
Q 3294 2613 3375 2370 
Q 3456 2128 3456 1863 
L 3456 1659 
L 1344 1659 
Q 1344 1019 1591 684 
Q 1838 350 2375 350 
Q 2669 350 2903 511 
Q 3138 672 3303 919 
L 3541 747 
z
M 2347 1934 
Q 2347 2122 2328 2319 
Q 2309 2516 2263 2641 
Q 2209 2788 2117 2863 
Q 2025 2938 1884 2938 
Q 1644 2938 1500 2694 
Q 1356 2450 1344 1922 
L 2347 1934 
z
" transform="scale(0.015625)"/>
      <path id="Georgia-Bold-63" d="M 1966 -100 
Q 1531 -100 1198 26 
Q 866 153 650 372 
Q 434 594 328 897 
Q 222 1200 222 1556 
Q 222 1881 351 2175 
Q 481 2469 703 2691 
Q 931 2919 1270 3055 
Q 1609 3191 2019 3191 
Q 2594 3191 2928 2973 
Q 3263 2756 3263 2388 
Q 3263 2163 3144 2025 
Q 3025 1888 2734 1888 
Q 2500 1888 2342 2000 
Q 2184 2113 2184 2294 
Q 2184 2447 2234 2597 
Q 2284 2747 2294 2825 
Q 2259 2881 2206 2911 
Q 2153 2941 2041 2941 
Q 1900 2941 1784 2875 
Q 1669 2809 1569 2644 
Q 1472 2488 1414 2225 
Q 1356 1963 1356 1594 
Q 1356 1038 1617 697 
Q 1878 356 2241 356 
Q 2588 356 2792 511 
Q 2997 666 3156 950 
L 3391 788 
Q 3294 597 3159 439 
Q 3025 281 2838 159 
Q 2641 31 2437 -34 
Q 2234 -100 1966 -100 
z
" transform="scale(0.015625)"/>
      <path id="Georgia-Bold-64" d="M 4222 66 
L 2681 -25 
L 2634 19 
L 2634 306 
L 2613 313 
Q 2459 147 2198 23 
Q 1938 -100 1672 -100 
Q 1041 -100 631 369 
Q 222 838 222 1581 
Q 222 2241 680 2712 
Q 1138 3184 1788 3184 
Q 2044 3184 2269 3126 
Q 2494 3069 2628 2991 
L 2628 4013 
Q 2628 4128 2581 4229 
Q 2534 4331 2456 4388 
Q 2359 4456 2214 4486 
Q 2069 4516 1922 4528 
L 1922 4756 
L 3609 4838 
L 3656 4788 
L 3656 691 
Q 3656 572 3695 490 
Q 3734 409 3822 363 
Q 3888 328 4014 312 
Q 4141 297 4222 294 
L 4222 66 
z
M 2628 622 
L 2628 2388 
Q 2606 2459 2567 2546 
Q 2528 2634 2459 2713 
Q 2397 2778 2292 2828 
Q 2188 2878 2056 2878 
Q 1744 2878 1544 2525 
Q 1344 2172 1344 1528 
Q 1344 1275 1380 1073 
Q 1416 872 1506 706 
Q 1597 541 1739 447 
Q 1881 353 2081 353 
Q 2272 353 2397 426 
Q 2522 500 2628 622 
z
" transform="scale(0.015625)"/>
     </defs>
     <use xlink:href="#Georgia-Bold-32"/>
     <use xlink:href="#Georgia-Bold-30" transform="translate(62.646484 0)"/>
     <use xlink:href="#Georgia-Bold-31" transform="translate(132.763672 0)"/>
     <use xlink:href="#Georgia-Bold-39" transform="translate(181.738281 0)"/>
     <use xlink:href="#Georgia-Bold-20" transform="translate(246.533203 0)"/>
     <use xlink:href="#Georgia-Bold-65" transform="translate(271.923828 0)"/>
     <use xlink:href="#Georgia-Bold-6e" transform="translate(329.101562 0)"/>
     <use xlink:href="#Georgia-Bold-61" transform="translate(398.095703 0)"/>
     <use xlink:href="#Georgia-Bold-63" transform="translate(457.666016 0)"/>
     <use xlink:href="#Georgia-Bold-74" transform="translate(510.791016 0)"/>
     <use xlink:href="#Georgia-Bold-65" transform="translate(550.537109 0)"/>
     <use xlink:href="#Georgia-Bold-64" transform="translate(607.714844 0)"/>
    </g>
    <!-- +2.41%, p69 -->
    <g style="fill: #666666" transform="translate(252.62364 22.949956) scale(0.065 -0.065)">
     <use xlink:href="#Georgia-Bold-2b"/>
     <use xlink:href="#Georgia-Bold-32" transform="translate(70.3125 0)"/>
     <use xlink:href="#Georgia-Bold-2e" transform="translate(132.958984 0)"/>
     <use xlink:href="#Georgia-Bold-34" transform="translate(165.771484 0)"/>
     <use xlink:href="#Georgia-Bold-31" transform="translate(230.712891 0)"/>
     <use xlink:href="#Georgia-Bold-25" transform="translate(279.6875 0)"/>
     <use xlink:href="#Georgia-Bold-2c" transform="translate(367.626953 0)"/>
     <use xlink:href="#Georgia-Bold-20" transform="translate(400.439453 0)"/>
     <use xlink:href="#Georgia-Bold-70" transform="translate(425.830078 0)"/>
     <use xlink:href="#Georgia-Bold-36" transform="translate(491.601562 0)"/>
     <use xlink:href="#Georgia-Bold-39" transform="translate(556.396484 0)"/>
    </g>
   </g>
   <g id="text_23">
    <!-- ← NDP-favoured -->
    <g style="fill: #ea7414" transform="translate(53.5239 11.74835) scale(0.07 -0.07)">
     <defs>
      <path id="Georgia-Bold-2190" d="M 800 0 
L 800 4800 
L 5600 4800 
L 5600 0 
L 800 0 
z
M 1200 400 
L 5200 400 
L 5200 4400 
L 1200 4400 
L 1200 400 
z
" transform="scale(0.015625)"/>
      <path id="Georgia-Bold-4e" d="M 5309 4191 
Q 5222 4181 5059 4156 
Q 4897 4131 4766 4034 
Q 4650 3950 4601 3745 
Q 4553 3541 4553 3144 
L 4553 -25 
L 3997 -25 
L 1234 3403 
L 1234 1322 
Q 1234 934 1286 732 
Q 1338 531 1453 438 
Q 1538 369 1722 316 
Q 1906 263 2016 244 
L 2016 0 
L 109 0 
L 109 244 
Q 231 253 389 289 
Q 547 325 653 400 
Q 775 491 820 673 
Q 866 856 866 1288 
L 866 3388 
Q 866 3544 817 3683 
Q 769 3822 666 3922 
Q 556 4028 414 4089 
Q 272 4150 91 4184 
L 91 4434 
L 1759 4434 
L 4184 1434 
L 4184 3113 
Q 4184 3513 4131 3708 
Q 4078 3903 3963 3997 
Q 3872 4069 3694 4120 
Q 3516 4172 3406 4191 
L 3406 4434 
L 5309 4434 
L 5309 4191 
z
" transform="scale(0.015625)"/>
      <path id="Georgia-Bold-44" d="M 4209 3978 
Q 4616 3713 4866 3270 
Q 5116 2828 5116 2188 
Q 5116 1625 4892 1208 
Q 4669 791 4300 525 
Q 3925 259 3448 129 
Q 2972 0 2450 0 
L 216 0 
L 216 244 
Q 316 247 466 262 
Q 616 278 666 300 
Q 778 347 822 426 
Q 866 506 866 619 
L 866 3763 
Q 866 3869 825 3955 
Q 784 4041 666 4094 
Q 547 4147 414 4165 
Q 281 4184 209 4191 
L 209 4434 
L 2569 4434 
Q 2947 4434 3378 4337 
Q 3809 4241 4209 3978 
z
M 3572 800 
Q 3725 1050 3795 1395 
Q 3866 1741 3866 2191 
Q 3866 2631 3772 2993 
Q 3678 3356 3497 3613 
Q 3316 3869 3045 4009 
Q 2775 4150 2431 4150 
Q 2322 4150 2183 4145 
Q 2044 4141 1975 4138 
L 1975 772 
Q 1975 659 2004 573 
Q 2034 488 2106 422 
Q 2178 356 2283 320 
Q 2388 284 2556 284 
Q 2909 284 3162 415 
Q 3416 547 3572 800 
z
" transform="scale(0.015625)"/>
      <path id="Georgia-Bold-50" d="M 4372 3325 
Q 4372 2950 4217 2679 
Q 4063 2409 3791 2241 
Q 3509 2066 3148 1987 
Q 2788 1909 2338 1909 
L 1975 1909 
L 1975 663 
Q 1975 550 2017 467 
Q 2059 384 2178 334 
Q 2241 309 2381 281 
Q 2522 253 2619 244 
L 2619 0 
L 216 0 
L 216 244 
Q 306 253 456 270 
Q 606 288 666 313 
Q 788 363 827 434 
Q 866 506 866 634 
L 866 3763 
Q 866 3872 828 3951 
Q 791 4031 666 4084 
Q 578 4122 433 4151 
Q 288 4181 216 4191 
L 216 4434 
L 2663 4434 
Q 3522 4434 3947 4161 
Q 4372 3888 4372 3325 
z
M 3153 3166 
Q 3153 3666 2951 3908 
Q 2750 4150 2234 4150 
L 1975 4150 
L 1975 2203 
L 2106 2203 
Q 2619 2203 2886 2439 
Q 3153 2675 3153 3166 
z
" transform="scale(0.015625)"/>
      <path id="Georgia-Bold-2d" d="M 2159 1359 
L 266 1359 
L 266 2050 
L 2159 2050 
L 2159 1359 
z
" transform="scale(0.015625)"/>
      <path id="Georgia-Bold-66" d="M 3138 4309 
Q 3138 4231 3113 4137 
Q 3088 4044 3031 3978 
Q 2966 3900 2884 3859 
Q 2803 3819 2641 3819 
Q 2394 3819 2253 3991 
Q 2113 4163 1953 4563 
Q 1828 4509 1750 4287 
Q 1672 4066 1672 3334 
L 1672 3088 
L 2534 3088 
L 2534 2750 
L 1678 2750 
L 1678 597 
Q 1678 475 1734 408 
Q 1791 341 1881 309 
Q 1956 284 2078 261 
Q 2200 238 2297 228 
L 2297 0 
L 188 0 
L 188 228 
Q 269 234 345 243 
Q 422 253 481 275 
Q 581 313 617 383 
Q 653 453 653 569 
L 653 2750 
L 19 2750 
L 19 3088 
L 653 3088 
Q 653 3422 750 3736 
Q 847 4050 1050 4297 
Q 1247 4541 1569 4691 
Q 1891 4841 2325 4841 
Q 2713 4841 2925 4694 
Q 3138 4547 3138 4309 
z
" transform="scale(0.015625)"/>
      <path id="Georgia-Bold-76" d="M 3744 2872 
Q 3603 2850 3470 2765 
Q 3338 2681 3250 2503 
Q 3031 2047 2820 1583 
Q 2609 1119 2406 684 
Q 2344 553 2264 347 
Q 2184 141 2131 -28 
L 1556 -28 
Q 1197 806 942 1356 
Q 688 1906 403 2538 
Q 338 2684 198 2768 
Q 59 2853 -84 2872 
L -84 3100 
L 1841 3100 
L 1841 2872 
Q 1734 2869 1590 2825 
Q 1447 2781 1447 2713 
Q 1447 2694 1459 2656 
Q 1472 2619 1491 2572 
Q 1591 2334 1792 1887 
Q 1994 1441 2219 947 
Q 2375 1288 2517 1614 
Q 2659 1941 2869 2447 
Q 2897 2522 2901 2569 
Q 2906 2616 2906 2631 
Q 2906 2688 2851 2730 
Q 2797 2772 2722 2803 
Q 2644 2834 2572 2850 
Q 2500 2866 2453 2872 
L 2453 3100 
L 3744 3100 
L 3744 2872 
z
" transform="scale(0.015625)"/>
      <path id="Georgia-Bold-75" d="M 4259 66 
L 2769 -25 
L 2722 19 
L 2722 428 
L 2703 428 
Q 2597 331 2495 239 
Q 2394 147 2253 72 
Q 2094 -13 1951 -53 
Q 1809 -94 1538 -94 
Q 1066 -94 814 190 
Q 563 475 563 994 
L 563 2400 
Q 563 2522 516 2598 
Q 469 2675 391 2734 
Q 328 2781 228 2801 
Q 128 2822 47 2828 
L 47 3056 
L 1563 3138 
L 1597 3091 
L 1597 1013 
Q 1597 691 1720 537 
Q 1844 384 2059 384 
Q 2281 384 2457 500 
Q 2634 616 2716 747 
L 2716 2431 
Q 2716 2538 2675 2622 
Q 2634 2706 2556 2759 
Q 2500 2797 2395 2809 
Q 2291 2822 2181 2828 
L 2181 3056 
L 3697 3138 
L 3744 3091 
L 3744 678 
Q 3744 569 3787 492 
Q 3831 416 3916 363 
Q 3975 325 4070 311 
Q 4166 297 4259 294 
L 4259 66 
z
" transform="scale(0.015625)"/>
     </defs>
     <use xlink:href="#Georgia-Bold-2190"/>
     <use xlink:href="#Georgia-Bold-20" transform="translate(100 0)"/>
     <use xlink:href="#Georgia-Bold-4e" transform="translate(125.390625 0)"/>
     <use xlink:href="#Georgia-Bold-44" transform="translate(209.326172 0)"/>
     <use xlink:href="#Georgia-Bold-50" transform="translate(292.724609 0)"/>
     <use xlink:href="#Georgia-Bold-2d" transform="translate(362.841797 0)"/>
     <use xlink:href="#Georgia-Bold-66" transform="translate(400.732422 0)"/>
     <use xlink:href="#Georgia-Bold-61" transform="translate(440.039062 0)"/>
     <use xlink:href="#Georgia-Bold-76" transform="translate(499.609375 0)"/>
     <use xlink:href="#Georgia-Bold-6f" transform="translate(556.298828 0)"/>
     <use xlink:href="#Georgia-Bold-75" transform="translate(619.873047 0)"/>
     <use xlink:href="#Georgia-Bold-72" transform="translate(687.548828 0)"/>
     <use xlink:href="#Georgia-Bold-65" transform="translate(739.550781 0)"/>
     <use xlink:href="#Georgia-Bold-64" transform="translate(796.728516 0)"/>
    </g>
   </g>
   <g id="text_24">
    <!-- UCP-favoured → -->
    <g style="fill: #225d9e" transform="translate(390.529538 11.74835) scale(0.07 -0.07)">
     <defs>
      <path id="Georgia-Bold-55" d="M 5322 4191 
Q 5231 4181 5061 4148 
Q 4891 4116 4775 4034 
Q 4656 3956 4607 3753 
Q 4559 3550 4559 3144 
L 4559 1494 
Q 4559 766 4065 322 
Q 3572 -122 2759 -122 
Q 1813 -122 1294 306 
Q 775 734 775 1500 
L 775 3769 
Q 775 3878 733 3956 
Q 691 4034 572 4097 
Q 491 4138 372 4163 
Q 253 4188 178 4197 
L 178 4434 
L 2503 4434 
L 2503 4197 
Q 2403 4191 2300 4173 
Q 2197 4156 2091 4122 
Q 1972 4084 1931 3996 
Q 1891 3909 1891 3800 
L 1891 1563 
Q 1891 903 2181 603 
Q 2472 303 3025 303 
Q 3569 303 3878 634 
Q 4188 966 4188 1609 
L 4188 3113 
Q 4188 3513 4133 3711 
Q 4078 3909 3966 3997 
Q 3884 4066 3682 4122 
Q 3481 4178 3400 4191 
L 3400 4434 
L 5322 4434 
L 5322 4191 
z
" transform="scale(0.015625)"/>
      <path id="Georgia-Bold-43" d="M 2541 -119 
Q 2053 -119 1628 39 
Q 1203 197 888 497 
Q 578 791 400 1223 
Q 222 1656 222 2175 
Q 222 2691 401 3130 
Q 581 3569 906 3891 
Q 1225 4206 1672 4379 
Q 2119 4553 2628 4553 
Q 2997 4553 3300 4464 
Q 3603 4375 3813 4263 
L 4006 4434 
L 4278 4434 
L 4306 2816 
L 4031 2816 
Q 3797 3556 3469 3903 
Q 3141 4250 2669 4250 
Q 2081 4250 1775 3733 
Q 1469 3216 1469 2281 
Q 1469 1753 1573 1379 
Q 1678 1006 1847 778 
Q 2028 541 2275 430 
Q 2522 319 2822 319 
Q 3259 319 3601 556 
Q 3944 794 4225 1275 
L 4494 1113 
Q 4359 838 4187 620 
Q 4016 403 3791 247 
Q 3544 75 3245 -22 
Q 2947 -119 2541 -119 
z
" transform="scale(0.015625)"/>
      <path id="Georgia-Bold-2192" d="M 800 0 
L 800 4800 
L 5600 4800 
L 5600 0 
L 800 0 
z
M 1200 400 
L 5200 400 
L 5200 4400 
L 1200 4400 
L 1200 400 
z
" transform="scale(0.015625)"/>
     </defs>
     <use xlink:href="#Georgia-Bold-55"/>
     <use xlink:href="#Georgia-Bold-43" transform="translate(83.349609 0)"/>
     <use xlink:href="#Georgia-Bold-50" transform="translate(154.882812 0)"/>
     <use xlink:href="#Georgia-Bold-2d" transform="translate(225 0)"/>
     <use xlink:href="#Georgia-Bold-66" transform="translate(262.890625 0)"/>
     <use xlink:href="#Georgia-Bold-61" transform="translate(302.197266 0)"/>
     <use xlink:href="#Georgia-Bold-76" transform="translate(361.767578 0)"/>
     <use xlink:href="#Georgia-Bold-6f" transform="translate(418.457031 0)"/>
     <use xlink:href="#Georgia-Bold-75" transform="translate(482.03125 0)"/>
     <use xlink:href="#Georgia-Bold-72" transform="translate(549.707031 0)"/>
     <use xlink:href="#Georgia-Bold-65" transform="translate(601.708984 0)"/>
     <use xlink:href="#Georgia-Bold-64" transform="translate(658.886719 0)"/>
     <use xlink:href="#Georgia-Bold-20" transform="translate(725.195312 0)"/>
     <use xlink:href="#Georgia-Bold-2192" transform="translate(750.585938 0)"/>
    </g>
   </g>
   <g id="line2d_18">
    <path d="M 249.31908 217.99875 
L 249.31908 4.32 
" clip-path="url(#p70440df9c7)" style="fill: none; stroke-dasharray: 4.81,2.08; stroke-dashoffset: 0; stroke: #666666; stroke-width: 1.3"/>
   </g>
   <g id="line2d_19">
    <path d="M 293.65526 217.99875 
L 293.65526 4.32 
" clip-path="url(#p70440df9c7)" style="fill: none; stroke: #6b35a7; stroke-width: 2; stroke-linecap: square"/>
   </g>
   <g id="line2d_20">
    <path d="M 185.7063 217.99875 
L 185.7063 4.32 
" clip-path="url(#p70440df9c7)" style="fill: none; stroke: #1a7a6e; stroke-width: 2; stroke-linecap: square"/>
   </g>
  </g>
 </g>
 <defs>
  <clipPath id="p70440df9c7">
   <rect x="45.2625" y="4.32" width="413.07" height="213.67875"/>
  </clipPath>
 </defs>
</svg>
